<svg id="Layer_1" xmlns="http://www.w3.org/2000/svg" xmlns:xlink="http://www.w3.org/1999/xlink" viewBox="0 0 521 457"><style>.st29{fill:#604538}.st46{fill:#f0a49c}.st51{fill:#300e2e}.st64{fill:none;stroke:#ca5e34;stroke-width:2;stroke-linecap:round;stroke-linejoin:round;stroke-miterlimit:10}.st65{fill:#de7e62}.st66{fill:#8ecddc}.st67{fill:none;stroke:#000;stroke-width:1.3266;stroke-linecap:round;stroke-linejoin:round;stroke-miterlimit:10}</style><switch><g><defs><path id="SVGID_3_" d="M670.1-416c-7.7-.2-30.2-27.7-51.3-28-17.5-.3-30.4 13.2-37.5 13.9-27.6 2.4-97.8 24.6-151.6 83.2-19.2 20.9-70.2 196.7 9.8 246C574-18 843.3-109 810.6-287.5c-27-147.8-119.5-128-140.5-128.5z"/></defs><clipPath id="SVGID_2_"><use xlink:href="#SVGID_3_" overflow="visible"/></clipPath><g clip-path="url(#SVGID_2_)"><path fill="#000201" d="M508.4-186.5L465.5 22.4h58.7l49.4-213z"/></g><g><defs><path id="SVGID_5_" d="M119.6-400.4c-14.1-.3-98.8-58-114.6-56.6-12.3 1.1-10.2 59.2-33.4 66.6-29 9.3-62.9 26.5-92.8 59.1-19.2 20.9-70.3 196.9 9.8 246.2C23.3-2 292.9-93.1 260.3-271.8c-27.1-147.9-119.7-128.1-140.7-128.6z"/></defs><clipPath id="SVGID_4_"><use xlink:href="#SVGID_5_" overflow="visible"/></clipPath><g clip-path="url(#SVGID_4_)"><path d="M-43.8-101.4S-66.2-51.1-89.1 47.2H93.4S87.4-79 61.8-143.6l-105.6 42.2z" fill="#fc5e43"/><path d="M32.5-37.5C28.6.1 19.3 47.3 19.3 47.3" fill="none" stroke="#fff" stroke-width="1.473" stroke-linecap="round" stroke-linejoin="round" stroke-miterlimit="10"/></g></g><g><ellipse cx="270" cy="238.5" rx="217.9" ry="218.5" fill="#c4e5e5"/><defs><ellipse id="SVGID_11_" cx="270" cy="238.5" rx="217.9" ry="218.5"/></defs><clipPath id="SVGID_6_"><use xlink:href="#SVGID_11_" overflow="visible"/></clipPath><g clip-path="url(#SVGID_6_)"><path d="M295.4 183.8c-.5 12.2 7.8 17.6 20 18.1s22.5-11.6 23-23.8c.5-12.2-9-17.9-21.2-18.4s-21.3 11.9-21.8 24.1z" fill="#e58e88"/><path class="st51" d="M330.3 141.1c-4 39.2-30.8 67-71.8 62.9-41-4.1-58-15.3-67.2-67.4-7.9-44.9 35.3-77.7 76.3-73.6 41 4.1 66.7 38.9 62.7 78.1z"/><path class="st46" d="M238.2 190.3l-17.8 102 57.7 2.1 1.8-89.8z"/><path d="M278.6 262.7s-37.6-13.6-38-45.5c-.1-10.1 39.1-5.3 39.1-5.3l-1.1 50.8z"/><path class="st46" d="M254.4 80.8c13-2.2 26.5-1.6 39 2.4 17 5.4 38.2 18.6 37.8 50.6-.7 53.4-11 91.9-38.3 101.3-21 7.2-35.3 2.2-57-13.6-8.1-5.9-14.6-24.4-15.9-34.8l-7.1-29.3c-.1-.1-20.6-66.2 41.5-76.6z"/><path class="st51" d="M223.2 173.1s23.4-69.5-8.4-76.8c0 0-28 4.4-19.8 34.2 8.2 29.7 28.2 42.6 28.2 42.6z"/><path class="st46" d="M228.3 190.2c-5.6 10.8-15.5 11.4-26.3 5.9-10.8-5.6-13.9-21.2-8.3-32s16.7-11.1 27.5-5.6c10.9 5.5 12.7 20.8 7.1 31.7z"/><path class="st51" d="M321 97.8s-11.9 11.1-110.1 8.1c0 0-7.9-24 34.3-33.2 42.2-9.1 75.8 25.1 75.8 25.1zM302.7 142.9s-1.2 4.9 7.1 4.3c6.3-.5 8-.5 11.7-.1 2.1.2 4.2-.7 5.1-2.2.7-1.2-.1-2.9-.8-3.7-1.9-2.2-4.5-5.2-12.2-4.7-9.6.7-10.9 6.4-10.9 6.4zM284.1 144.7s1 6.4-9.9 4.8c-8.3-1.3-18.7-1.1-23.6-1-2.8.1-5.6-1.3-6.6-3.3-.8-1.6-.4-3.2 1.3-4.1 3.3-1.9 15-5.5 25.1-4 12.9 1.8 13.7 7.6 13.7 7.6z"/><defs><path id="XMLID_34_" d="M275.5 162.9s-12.3-18.2-36.5-2.6c-.1 0 13.1 16.9 36.5 2.6z"/></defs><use xlink:href="#XMLID_34_" overflow="visible" fill="#fff"/><clipPath id="XMLID_8_"><use xlink:href="#XMLID_34_" overflow="visible"/></clipPath><path d="M270.1 159.8c.9 4.7-2.3 9.2-7.2 10.1-4.8.8-9.5-2.3-10.3-7s2.3-9.2 7.2-10.1c4.8-.9 9.4 2.2 10.3 7z" clip-path="url(#XMLID_8_)" fill="#1b1c20"/><g><path class="st29" d="M237.9 158.8c3-2 6.3-3.4 9.7-4.5 3.4-1 6.9-1.7 10.5-1.4 3.6.2 7 1.3 10 3s5.7 4.1 7.4 7c-2-2.8-4.8-4.8-7.8-6.2-3-1.4-6.4-2.1-9.6-2-3.3.1-6.5 1-9.5 2.2-3.1 1.2-5.9 2.8-8.4 4.8-.8.6-2 .5-2.6-.3s-.5-2 .3-2.6c-.1 0-.1 0 0 0z"/></g><g><defs><path id="XMLID_33_" d="M300.7 161.8s10.4-16.6 23-4c-.1 0-10.2 17.1-23 4z"/></defs><use xlink:href="#XMLID_33_" overflow="visible" fill="#fff"/><clipPath id="XMLID_11_"><use xlink:href="#XMLID_33_" overflow="visible"/></clipPath><path d="M306.1 158.7c-1.1 4.6.6 8.8 3.8 9.6 3.2.7 6.7-2.4 7.7-7 1.1-4.6-.6-8.8-3.8-9.6-3.1-.7-6.6 2.4-7.7 7z" clip-path="url(#XMLID_11_)" fill="#1b1c20"/><g><path class="st29" d="M322.2 159c-1.2-1.7-2.7-3.2-4.6-4.1-.9-.5-1.9-.8-2.9-.9-.2 0-.5-.1-.7-.1h-.8c-.5 0-1.1.1-1.6.2-2.1.4-4.2 1.4-6 2.8-1.8 1.3-3.5 3-4.9 4.9 1.1-2.1 2.6-4 4.3-5.6 1.7-1.6 3.8-3.1 6.1-3.8.6-.2 1.2-.4 1.8-.5.3-.1.6-.1 1-.2h1c1.3 0 2.6.3 3.8.7 2.5.8 4.7 2.4 6.4 4.3.7.8.6 1.9-.1 2.6-.8.7-1.9.6-2.6-.1l-.2-.2z"/></g></g><path class="st64" d="M294.7 192l8-3.8-6.9-19.6M279 204.3c8.5 12.1 24.2 3.4 24 3.4"/><g><path class="st65" d="M433.8 519.4c-14.4 8.4-32.9 3.5-41.3-10.9l-87.1-143.8c-8.4-14.4 19.9-29.2 34.3-37.6 14.4-8.4 31.7 10.8 40 25.2l65 125.8c8.4 14.5 3.5 32.9-10.9 41.3z"/><path class="st66" d="M430.3 396.7l-82.1 58.7-31.5-66.3c-14-20.1-9.1-47.8 11-61.8s47.8-9.1 61.8 11l40.8 58.4z"/><path class="st65" d="M26.5 520.6c13.4 9.9 32.3 7 42.2-6.4l112.1-150.9c9.9-13.4-7.6-22.4-21-32.2-13.4-9.9-37.7-8.1-47.6 5.3l-92.1 142c-9.9 13.5-7 32.4 6.4 42.2z"/><path class="st66" d="M66.4 384.1l71 57.4 42.8-63.6c14.3-19.9 9.7-47.7-10.2-62-19.9-14.3-47.7-9.7-62 10.2l-41.6 58z"/><g><path class="st66" d="M258.9 273.1l112.8 49.7-39.2 265.1-191.6-15.8-4.9-263.6z"/><path class="st46" d="M313.7 297.3s-23.1 22.9-59.9 20.4-58-26.8-58-26.8l63.9-18.4 54 24.8z"/><path class="st67" d="M352.5 452.3l8.4-59.1M137.4 441.5l-.1-64.8"/></g></g></g></g></g></switch></svg>