<svg id="Layer_1" data-name="Layer 1" xmlns="http://www.w3.org/2000/svg" viewBox="0 0 521 457"><defs><style>.cls-1,.cls-19,.cls-25{fill:none}.cls-2{fill:#fff}.cls-19{stroke:#fff;stroke-miterlimit:10}.cls-7{fill:#21a498}.cls-8{fill:#3a589b}.cls-12{fill:#2c2c2c}.cls-15{fill:#5f3335}.cls-16{fill:#de8d68}.cls-19{stroke-width:3px}.cls-23{fill:#95bcba}.cls-25{stroke:#ca5e34;stroke-linecap:round;stroke-linejoin:round;stroke-width:.87px}.cls-27{fill:#d38466}</style><clipPath id="clip-path"><path class="cls-1" d="M325.6-401.43c-14.14-.35-98.84-57.95-114.6-56.57-12.27 1.08-10.21 59.18-33.4 66.63a212.79 212.79 0 0 0-92.76 59.13C65.63-311.3 14.57-135.32 94.61-86 229.34-3 499-94 466.28-272.8 439.25-420.7 346.6-400.92 325.6-401.43z"/></clipPath><clipPath id="clip-path-2"><path class="cls-1" d="M392 35c-6.67-.16-90.54 40.9-108.78 40.56-20.42-.38-41.8-.55-50.12.18-27.61 2.42-94.44 11.36-148.26 70C65.63 166.7 14.57 342.68 94.61 392c128.79 79.37 380.84-.37 374.26-163.69-.3-7.53 27.57-45.44 26.13-53.32C468 27.1 413 35.51 392 35z"/></clipPath><clipPath id="clip-path-3"><path class="cls-2" d="M227 170.75s-6.79-13.83-24.81-5.06c.02 0 7.52 13.01 24.81 5.06z"/></clipPath><clipPath id="clip-path-4"><path class="cls-2" d="M244.4 172.2s8.64-10.75 16.11-.76c0 0-8.51 11.1-16.11.76z"/></clipPath></defs><path d="M325.6 76.57c-14.14-.35-76.74-2.21-92.5-.83-27.61 2.42-94.44 11.36-148.26 70C65.63 166.7 14.57 342.68 94.61 392c134.73 83 404.39-8 371.67-186.8C439.25 57.3 346.6 77.08 325.6 76.57z" fill="#c4e5e5"/><path class="cls-1" d="M325.6 76.57C311.46 76.22 226.76 18.62 211 20c-12.27 1.08-10.21 59.18-33.4 66.63a212.79 212.79 0 0 0-92.76 59.13C65.63 166.7 14.57 342.68 94.61 392c134.73 83 404.39-8 371.67-186.8C439.25 57.3 346.6 77.08 325.6 76.57z"/><g clip-path="url(#clip-path)"><path d="M177.86-103.75s-10.61 7.21.23 76.19c9.09 57.83 20.9 131.1 20.9 131.1" stroke-width="2.65" stroke="#fff" stroke-miterlimit="10" fill="none"/></g><g clip-path="url(#clip-path-2)"><path class="cls-7" d="M382.27 110.72c-40.16 6.34-56.51-10.16-56.76-22.54-.27-13 9.81-27.23 41.69-30.07 45.22-4 55.43 14.45 56 23.33 1 14-3.52 22.38-23.73 27.15-1.88.45 1.05 17.32 2 22.74-2.31-1.42-17.78-16.4-19.2-20.61z"/><path class="cls-2" d="M339.25 83.72c3.53 4.06 6.77 8.34 10.52 12.21 1.17 1.2 3-.64 1.84-1.84-3.75-3.86-7-8.14-10.53-12.2-1.09-1.26-2.92.58-1.83 1.83zM345.51 81.35c3.55 4.05 7 8.19 10.26 12.46 1 1.31 2.84-.53 1.84-1.84-3.3-4.26-6.71-8.4-10.27-12.45-1.1-1.26-2.93.58-1.83 1.83z"/><path class="cls-2" d="M339.49 89.56c5-2.1 9.89-4.2 14.72-6.59 1.5-.74.19-3-1.31-2.24-4.83 2.39-9.76 4.49-14.72 6.59-1.53.65-.21 2.88 1.31 2.24zM343.19 94.77a151.3 151.3 0 0 1 14-6.17c1.54-.59.87-3.1-.69-2.5-5 1.91-9.81 4-14.6 6.43-1.49.75-.18 3 1.31 2.24zM362.42 88c3.46.11 6.91.33 10.37.35a1.3 1.3 0 0 0 0-2.6c-3.46 0-6.91-.23-10.37-.35-1.67 0-1.67 2.54 0 2.6z"/><path class="cls-2" d="M368.78 92.32c.21-3.81.35-7.63.56-11.44.1-1.67-2.5-1.67-2.59 0-.21 3.81-.35 7.63-.56 11.44-.1 1.67 2.5 1.66 2.59 0z"/><path class="cls-2" d="M362.17 83.12A95.35 95.35 0 0 0 371 92c1.25 1.09 3.09-.74 1.83-1.83a94.24 94.24 0 0 1-8.83-8.89c-1.11-1.25-2.94.59-1.83 1.84z"/><path class="cls-2" d="M364.13 92.32A73.11 73.11 0 0 1 373 84c1.31-1 0-3.25-1.31-2.24a78 78 0 0 0-9.41 8.76c-1.15 1.21.68 3 1.83 1.83zM384.34 81a4.8 4.8 0 0 0-3.52 6.67 2.8 2.8 0 0 0 3.55 1.12c1.93-.74 3-3.34 3.32-5.24h-2.5c.56 1.38 1.83 4.26 3.66 4.26s2.89-2.81 3-4.32c.48-5.55-5.45-8.26-10.08-6.1-4.43 2.07-7 8-4.33 12.36 2.84 4.65 10.27 5.41 13.57.85 1-1.35-1.27-2.64-2.24-1.3-2.17 3-7.35 2-9.09-.86-1.53-2.48-.53-5.5 1.4-7.44 2.16-2.15 7.05-2.85 8.07.83a4.28 4.28 0 0 1-.48 3.12c-.35.36-.18.45.51.28a4.17 4.17 0 0 1-.61-.79c-.22-.55-.66-1-.89-1.58-.41-1-2.27-1.42-2.5 0-.07.46-1 4-2.07 3.52-.71-.35.67-2.72 1.22-2.79 1.63-.21 1.65-2.8 0-2.59zM400.43 97.51a1.3 1.3 0 0 0 0-2.59 1.3 1.3 0 0 0 0 2.59zM398.06 80.38c-3-1.66-.27-4.19 2-3.45 3.3 1.08.39 4.28-.41 6.17a18.11 18.11 0 0 0-.88 9.56c.23 1.65 2.73 1 2.5-.69a15.57 15.57 0 0 1 .56-7.3c.64-1.8 2.18-3.24 2.54-5.14.51-2.67-1.66-4.74-4.13-5.27-5.28-1.15-8.44 5.65-3.46 8.36 1.46.8 2.77-1.44 1.3-2.24zM409.08 94.92v-.43a1.3 1.3 0 1 0-2.6 0v.43a1.3 1.3 0 0 0 1.3 1.29 1.32 1.32 0 0 0 1.3-1.29zM409.38 91c.78-5.2 1.24-10.43 2.11-15.61.28-1.63-2.22-2.34-2.5-.69-.87 5.18-1.33 10.41-2.11 15.61-.24 1.63 2.25 2.33 2.5.69z"/><circle class="cls-2" cx="351.04" cy="156.89" r="25.16" transform="rotate(-16.46 350.95 156.885)"/><path class="cls-2" d="M359.52 170.32s-.62 20.69 6.53 27.09c0 0-17.76-.95-17.75-24.73 0 0 1.96-14.83 11.22-2.36z"/><path class="cls-8" d="M343.66 165.74c.15 0 .15 0 0 0l.1.05c-.12-.08-.12-.07 0 0-.09-.11-.08-.11 0 0l.06.09c-.06-.12-.06-.12 0 0s0 .14 0 0c0 .22 0 0 .05-.11-.07.13-.06.13 0 0l-.07.08c.12-.1.12-.11 0 0H343.65c-.14 0-.14 0 0 0-.12-.06-.13-.06 0 0s.07 0 0 0c.1.12.1.12 0 0 .06.12.07.14 0 .06s0-.07 0 .07c0-.15 0-.14 0 0v-.16.06l.09-.21c-.11.22 0 0 .08-.07-.11.11-.1.11 0 0a.36.36 0 0 1-.23.08l-1.29-1.84a3.89 3.89 0 0 0-.22 3 1.3 1.3 0 0 0 2.43-.92 1.18 1.18 0 0 1 .14-1c.42-.8-.33-2.06-1.3-1.84a2.81 2.81 0 0 0-2.27 3 2.59 2.59 0 0 0 2.91 2.26 2.63 2.63 0 0 0 2.38-2.78 2.8 2.8 0 0 0-3-2.51 1.3 1.3 0 0 0 .24 2.58zM346 159.24q-.18-7.59.15-15.18l-1.82.95c3.83 1.3-.33 11.87-1 14.62-.39 1.63 2.17 2.07 2.56.46.94-3.93 2.63-8.27 2.73-12.33a4.92 4.92 0 0 0-3.2-5.1c-.69-.23-1.79 0-1.83 1-.23 5.29-.3 10.58-.18 15.87 0 1.67 2.62 1.42 2.58-.24zM355.61 164.63c.15 0 .15 0 0 0h.1c-.12-.08-.12-.07 0 0-.09-.11-.09-.11 0 0l.06.09c-.06-.13-.06-.12 0 0s0 .15 0 0c0 .22 0 0 .05-.12-.07.14-.06.13 0 0l-.07.08c.12-.1.12-.11 0 0h-.23.08c-.14 0-.14 0 0 0-.12-.06-.13-.06-.05 0s.07 0 0 0c.1.12.1.12 0 0 .06.12.07.14 0 .05s0-.06 0 .08c0-.15 0-.14 0 0v-.16.05l.09-.2c-.11.22 0 0 .08-.07-.11.1-.1.11 0 0a.32.32 0 0 1-.23.09l-1.29-1.84a3.86 3.86 0 0 0-.22 3 1.3 1.3 0 1 0 2.43-.91 1.18 1.18 0 0 1 .14-1c.42-.81-.33-2.06-1.3-1.84a2.81 2.81 0 0 0-2.27 3 2.59 2.59 0 0 0 2.91 2.26 2.63 2.63 0 0 0 2.38-2.78 2.8 2.8 0 0 0-3-2.51 1.3 1.3 0 0 0 .24 2.58zM357.91 158.13q-.18-7.59.15-15.18l-1.82 1c3.83 1.3-.33 11.87-1 14.62-.39 1.63 2.17 2.07 2.55.46.95-3.94 2.64-8.27 2.74-12.33a4.92 4.92 0 0 0-3.2-5.1c-.69-.23-1.79 0-1.83.95q-.36 7.94-.18 15.87c0 1.67 2.62 1.42 2.58-.24z"/><path class="cls-7" d="M461.85 208.12c-1.09-5.1-6.93-10.73-11.83-14.68a29.92 29.92 0 1 1 11.2-7.82c7.99 13.85.63 22.5.63 22.5z"/><circle cx="441.63" cy="167.4" r="15.93" transform="rotate(-76.72 441.616 167.409)" fill="#ffd053"/><path d="M450 153.81A15.92 15.92 0 0 1 428.21 176 15.93 15.93 0 1 0 450 153.81z" fill="#ffc448"/><path d="M427.86 169.08a14.79 14.79 0 0 1 26.52-9 14.79 14.79 0 1 0-24.55 16.39 14.74 14.74 0 0 1-1.97-7.39z" fill="#ffd77a"/><ellipse class="cls-12" cx="435.76" cy="164.44" rx="1.17" ry="1.98"/><path class="cls-12" d="M448.67 164.44c0 1.09-.52 2-1.17 2s-1.18-.89-1.18-2 .53-2 1.18-2 1.17.91 1.17 2z"/><path class="cls-12" transform="rotate(-45 436.753 160.431)" d="M436 157.92h1.51v5.04H436z"/><path class="cls-12" transform="rotate(45 446.513 160.442)" d="M445.75 157.92h1.51v5.04h-1.51z"/><path d="M447.5 174.69c-.34-3.52-2.85-6.24-5.88-6.24s-5.53 2.75-5.86 6.27z" fill="#71523f"/><path d="M435.76 174.72s4.94-5 11.74 0z" fill="#ff6669"/><path class="cls-15" d="M221.47 98.21S179 89.79 163.49 131c-7.58 20.09-73.07 147.48-44.14 148.79 0 0 7.36-17 9.86-15.62 68 38.21 140.5 7.4 140.5 7.4s11.27-89.92 5.47-132.36c-3.59-26.24-24-41.54-53.71-41"/><path class="cls-16" d="M193.88 179.98l-7.74 70.79 39.82-1.86 2.97-62.16-35.05-6.77zM136.6 341.39l16.54-88.06c.31-10.66-3.41-13.52-14.07-13.82l-4.93 2.49c-10.66-.31-24.65 78.06-24.65 78.06-.31 10.63 16.45 21.02 27.11 21.33z"/><path d="M302.33 440.73l-151.47 4.91s-12.52-81.35 26-73.93l100.32-7.38c16.3 0 25.15 76.4 25.15 76.4z" fill="#003359"/><path class="cls-16" d="M187.62 212.34s21.2-2.81 54.07-1.27c36.12 1.7-5.35 72.85-33.89 62.05s-20.18-60.78-20.18-60.78z"/><path d="M290.93 377.9c-3.22-30.63-9.4-52.83-11.71-69.49l57.37-19.51s-37.48-79.69-103-78.13L230.86 222c-7.07 10.51-31 8.55-39.31-1l-1.55-8.93c-74.17-.9-87.45 82.88-87.45 82.88l45.63 20.31c-.57 17.45-2.75 44.17-2.75 74.37l77.31-9.21z" fill="#8ecddc"/><path class="cls-19" d="M279.22 308.41l-8.64-32.2M171.79 275.65l-12.12 31.39M327.38 273.09l-50.12 23.51"/><path d="M246 176.8c.5 7.91 3.75 11.4 14.13 10.91 7.92-.36 13.77-9 13.27-16.94s-6.48-10.69-14.83-9.4c-5.84.9-13.09 7.52-12.57 15.43z" fill="#c96e3d"/><path d="M232.14 216.67c-46-7.65-39-45.43-39-45.43L240.37 184z" fill="#c46234"/><path class="cls-16" d="M215.64 103.9a61.48 61.48 0 0 1 27.81 2.55c12 4.12 27.12 11.22 26.05 33.32-1.79 36.82-10.11 63.48-29.86 69.29-15.16 4.47-25.21.67-40.34-10.72-5.64-4.24-10.14-15.06-10.82-22.24l-4.33-20.39s-13.06-46.06 31.49-51.81z"/><path class="cls-15" d="M248.59 155.46s-1.69 3.16 4 4.21a35.29 35.29 0 0 1 7.83 2.07 3.8 3.8 0 0 0 3.83-.56 2.54 2.54 0 0 0 .17-2.65c-.83-1.83-2-4.39-7.23-5.41-6.73-1.32-8.6 2.34-8.6 2.34zM230 151.62s1.36 4.39-6.3 4.29a101.87 101.87 0 0 0-16.26 1.64 5.18 5.18 0 0 1-4.86-1.66 2.08 2.08 0 0 1 .45-3c2.06-1.63 9.7-5.3 16.78-5.27 9.1.02 10.19 4 10.19 4z"/><path class="cls-2" d="M227 170.75s-6.79-13.83-24.81-5.06c.02 0 7.52 13.01 24.81 5.06z"/><g clip-path="url(#clip-path-3)"><path class="cls-23" d="M221.89 167.55a6.15 6.15 0 1 1-6.45-5.83 6.14 6.14 0 0 1 6.45 5.83z"/></g><path d="M201.87 165.08a25.27 25.27 0 0 1 6.86-2.37 19.86 19.86 0 0 1 7.21-.22 15.46 15.46 0 0 1 6.57 2.83 14.2 14.2 0 0 1 4.51 5.43 14.13 14.13 0 0 0-4.71-5.15 15 15 0 0 0-6.47-2.42 18.87 18.87 0 0 0-6.89.56 23.88 23.88 0 0 0-6.4 2.56.7.7 0 1 1-.71-1.21z"/><path class="cls-2" d="M244.4 172.2s8.64-10.75 16.11-.76c0 0-8.51 11.1-16.11.76z"/><g clip-path="url(#clip-path-4)"><path class="cls-23" d="M247.79 170.77c-1.15 3.11-.35 6.26 1.77 7s4.78-1.1 5.93-4.2.35-6.26-1.77-7-4.78 1.1-5.93 4.2z"/></g><path d="M259.91 171.79a9 9 0 0 0-3-3.34 7.25 7.25 0 0 0-2.08-.9 4.1 4.1 0 0 0-1.12-.11 5.73 5.73 0 0 0-1.17.05 10.85 10.85 0 0 0-4.44 1.59 15.39 15.39 0 0 0-3.67 3.12 15.43 15.43 0 0 1 3.48-3.41 11.23 11.23 0 0 1 4.53-2 7.47 7.47 0 0 1 1.25-.14 4.83 4.83 0 0 1 1.31 0 8.06 8.06 0 0 1 2.43.84 10.24 10.24 0 0 1 3.71 3.54.7.7 0 1 1-1.17.76z"/><path class="cls-25" d="M238.63 169.53l1.98 16.4-7.34-1.13M228.58 194.62a51.22 51.22 0 0 1 13.42.55"/><path class="cls-15" d="M198.39 105.13s15.07 21.35-10.71 59.58l-22-26.83 11.8-11.31z"/><path class="cls-16" d="M194.21 171.74c-2.51 7.52-6.55 10-16.45 6.93-7.56-2.39-11-12.27-8.49-19.78s9-8.67 16.75-5.29c5.39 2.4 10.7 10.62 8.19 18.14z"/><path d="M177.18 161.06s7.46-.85 8.92 9.78" stroke="#ca5e34" stroke-linecap="round" stroke-linejoin="round" stroke-width=".87" fill="#de8d68"/><path class="cls-15" d="M235.19 148.11c27.29 8.39 38.22-.5 38.22-.5s10.27-50.25-38.21-52.72c-62.84-3.19-60.8 34.51-.01 53.22z"/><path class="cls-27" d="M169.11 201.3a14.89 14.89 0 0 1-9.05-14.3c.17-5.9.81-14.59 3-21.51 3.36-10.81 13-20.23 15.86-18.52s-7.64 9.47-7.61 15.12c0 0 8.82-16.05 12.77-15.56 4.26.53-6.65 10.95-7.35 17.13 0 0 9.09-14.82 11.18-13.46 3.21 2.09-4.32 8.27-4.56 14.44 0 0 5.43-10.62 8.34-9.65s-7.09 14.56-5.54 21.63 3.81 12.8.28 18.36c-2.62 4.09-9.37 9.58-17.32 6.32z"/><path class="cls-27" d="M161.17 192.84s-6-17.36-2.49-22.25 5.65-6.34 5.65-6.34zM109.49 320l56.69-126.54c2.68-.21 17.26 0 17.26 0l-29.58 138.89c-26.29 23.01-44.37 2.47-44.37-12.35zM325.5 320.89l-44-131.49c-2.65-.47-17.17-1.7-17.17-1.7l15.8 141.1c23.87 25.48 43.92 6.81 45.37-7.91z"/><path class="cls-27" d="M273.1 213.6a14.9 14.9 0 0 0 12.46-11.43c1.37-5.73 3-14.29 2.75-21.53-.42-11.32-7.23-22.91-10.48-22s-.93-1.21-4.87-1.77c-4.25-.6-2.28 1.78-4.65 2.55-3.65 1.18 2 9.11.63 15.13 0 0-2.48 4.41-5.83 10.83s-7 11.37-5.05 17.65c1.43 4.58 6.51 11.64 15.04 10.57z"/></g></svg>