<svg id="Layer_1" xmlns="http://www.w3.org/2000/svg" viewBox="0 0 521 457"><style>.st12{fill:#003b71}</style><switch><g><path d="M437.1 88.4H92.4c-26.1 0-47.3 21.2-47.3 47.3V294c0 26.1 21.2 47.3 47.3 47.3H289c28.5 47.6 79.7 50.9 120.3 44.1-32.2-9.2-48.4-29-56.3-44.1h84.2c26.1 0 47.3-21.2 47.3-47.3V135.7c-.1-26.1-21.2-47.3-47.4-47.3z" fill="#fd8970"/><path d="M419.2 76.8H69.9C43.5 76.8 22 98 22 124.1v158.3c0 26.1 21.5 47.3 47.9 47.3H269c28.9 47.6 75.9 58.8 117.1 52-32.6-9.2-44.2-36.9-52.3-52h85.3c26.5 0 47.9-21.2 47.9-47.3V124.1c.1-26.1-21.4-47.3-47.8-47.3z" fill="#ffe436"/><path d="M437.1 88.4H92.4c-26.1 0-47.3 21.2-47.3 47.3V294c0 26.1 21.2 47.3 47.3 47.3H289c28.5 47.6 79.7 50.9 120.3 44.1-32.2-9.2-48.4-29-56.3-44.1h84.2c26.1 0 47.3-21.2 47.3-47.3V135.7c-.1-26.1-21.2-47.3-47.4-47.3z" fill="#c4e5e5" stroke="#1691c9" stroke-width="7.151" stroke-miterlimit="10"/><g><path class="st12" d="M53.6 184.8c-.1-.3-.2-1.3-.2-1.6 0-.1 1.5-1.7 1.7-2 .7-1 1.7-2 2.3-3 .2-.3.6-.9.9-.9.3 0 1 1.4 1 1.7 0 .4-.4.4-.5.7-.3.6-.6.7-1.1 1.2-.8.9-1.5 1.8-2.3 2.7 1.1 1.5 2.5 2.9 3.7 4.4.1.1.2.2.2.4 0 .4-.7 1.5-1.1 1.5-.1 0-.5-.5-.5-.7-.5-.6-3.1-3.6-3.6-3.9-.1-.2-.4-.3-.5-.5zm4.4-.3c-.1-.2-.2-1.2-.2-1.5 0-.2.4-.4.6-.6.9-.8 2.9-3 3.4-3.9.2-.3.4-.5.8-.6h.1c.5 0 .6 1.2.6 1.6v.4c-.1.2-2.9 3-3.3 3.5 1.1 1.4 2.5 2.7 3.7 3.9v.3c0 .5-.3 1.4-.9 1.4-.1 0-.5-.5-.5-.6-.5-.6-3.1-3.3-3.6-3.5-.3-.1-.6-.2-.7-.4zM73.4 176.7c0 5-.1 10.1-.1 15.1 0 .7.1 1.4.1 2.2 0 .2 0 .4-.1.5-.5.1-1.2.3-1.7.3-.3 0-.3-1.1-.3-1.3-.1-1.7.1-3.4.1-5 0-1.4.3-1.9-1.4-2-1.1 0-1.5.1-1.5 1.5 0 1.5.1 3 .1 4.4 0 .6.1 1.1.1 1.7 0 1-.3.8-1.2.8-.5 0-1 .1-1-.6 0-.6.2-1.2.2-1.9 0-2.1-.2-4.2-.2-6.3 0-2.6 0-5.2-.1-7.8 0-1.2-.2-2.4-.2-3.6 0-.5 0-1.9.5-2.3.2-.1 1.1-.2 1.3-.2.6 0 .8.1.8.8 0 1.7-.7 11.8.4 11.8.5 0 .9.1 1.4.1.7 0 .7-.1.7-.8 0-.5-.1-.9-.1-1.4 0-2.8.2-5.7.2-8.5 0-.5-.1-1.7.7-1.7.2 0 .4.1.6.1.8.3.7.3.7 1.2v2.9zM82 193.2c-.4.1-.7.2-1.1.2-3.8 0-4.8-6.7-4.8-9.5 0-2.9.3-9.8 4.4-9.8 3.2 0 4.7 4.7 4.7 7.3 0 1.3-.7 1.5-1.8 1.5-1 0-2-.1-3-.1-.8 0-1.7.2-1.7 1.2 0 .5.1 1.1.2 1.6.1 1.3.2 5.5 2.1 5.5 1.9 0 1.3-3.7 1.8-3.9.2-.1.5-.2.7-.2.5 0 1 .1 1.5.1.4 0 .4.2.4.6 0 2-1.2 4.9-3.4 5.5zm-3-12.8c0 .3.6.3.8.3.7 0 1.4-.2 2.1-.3.5-.1.9 0 .9-.7 0-1.1-1-3.5-2.3-3.5-1.3 0-1.3 1.9-1.3 2.8v.7c-.2.3-.2.5-.2.7zM105.5 172.2c0 .5-.1.9-.1 1.4 0 6.3-.3 12.6-.3 18.9 0 .5.1 1 .1 1.5 0 .9-.2.8-.9 1-.3.1-.6.2-.9.2-.4 0-.5-.4-.5-.7 0-.7.1-1.5.1-2.2 0-1-.1-2-.1-3.1 0-1.6.1-3.3.1-4.9-1 2.6-1.9 5.2-2.9 7.8-.5 1.2-.9 2.5-1.4 3.7-.1.3-.4.5-.8.5-.3 0-1.4-.6-1.4-.9 0 0 2.1-5.5 2.4-6.2.9-2.7 1.9-5.3 2.9-7.9-2.4-.4-3.6-3.1-3.6-5.2 0-2.5 1.4-4.8 4.1-4.8.4 0 .9.1 1.3.1.6 0 1.3-.1 1.7.5.2-.1.2.1.2.3zm-2.3 5.5c0-.8-.1-1.5 0-2.3 0-.4.1-.8.1-1.2 0-.3-.1-1.2-.4-1.2-1.7 0-2.6 1.2-2.6 2.8 0 1.3.7 3.6 2.3 3.6.6 0 .5-1 .5-1.4l.1-.3zM111.1 194.8c-2.4-.7-2.7-4.8-2.7-6.8 0-3.5 1.4-4.7 4.8-4.7.3 0 .6 0 .9.1-.8-2.1-6.3-1.9-6.3-6.4 0-.8.5-1.6 1-2.2 1.7-1.8 5.3-2.2 7.7-2.2h.5c0 .1.1.2.1.3 0 .6-.2 1.8-.4 2.4l-.1.2c-.6 0-1.2-.1-1.8-.1-1 0-4.2.3-4.2 1.8 0 2 4.5 2.3 5.3 6.3.3 1.4.4 2.9.4 4.3 0 3.2-.4 7.3-4.5 7.3-.2-.2-.5-.3-.7-.3zm-.1-5.4c0 1-.1 3.4 1.2 3.6.3-.1.6-.2.8-.4.6-1 1-3.9 1-5.2 0-.8-.1-1.5-.2-2.3-.9.1-1.7.3-2.4.9-.3 1.1-.4 2.3-.4 3.4zm1.3 4.7zM125.5 193.2c-.4.1-.7.2-1.1.2-3.8 0-4.8-6.7-4.8-9.5 0-2.9.3-9.8 4.4-9.8 3.2 0 4.7 4.7 4.7 7.3 0 1.3-.7 1.5-1.8 1.5-1 0-2-.1-3-.1-.8 0-1.7.2-1.7 1.2 0 .5.1 1.1.2 1.6.1 1.3.2 5.5 2.1 5.5 1.9 0 1.3-3.7 1.8-3.9.2-.1.5-.2.7-.2.5 0 1 .1 1.5.1.4 0 .4.2.4.6 0 2-1.2 4.9-3.4 5.5zm-3.1-12.8c0 .3.6.3.8.3.7 0 1.4-.2 2.1-.3.5-.1.9 0 .9-.7 0-1.1-1-3.5-2.3-3.5-1.3 0-1.3 1.9-1.3 2.8v.7c-.1.3-.2.5-.2.7zM131.9 171.8c0-.7 1.4-.6 1.9-.6 5.2 0 6.2 4 6.2 8.3 0 2.7-.1 5.3-.2 8-.1 1.2-.2 2.3-.2 3.5 0 2.4-1.2 5.1-3.9 5.1-.8 0-1.7-.3-2.3-.8-1.3-.9-1.3-5.9-1.3-7.5 0-1.6-.1-3.3.1-4.9.3-2.4 1.2-3.9 3.8-3.9.8 0 1.3.5 1.5.5.1 0 .2 0 .2-.1v-.9c0-3.1-1.2-5-4.6-5-1 0-.9-.7-1.2-1.5v-.2zm5.6 9.3c-.3-.1-.6-.2-.9-.2-1.7 0-2.1 1.1-2.2 2.6-.1 1.1-.1 2.2-.1 3.3 0 1.6.1 3.2.1 4.8 0 1 .1 2.4 1.5 2.4.3 0 .5-.1.8-.2.5-.6.6-2.1.6-2.9.1-3.2.1-6.5.2-9.8zM150.5 179.5c.1 3.6 0 7.1.1 10.7 0 .7.1 1.3.1 2 0 .2 0 .7-.4.7-.2 0-.4-.1-.6-.1-1-.2-1.2-.8-1.2-1.7 0-.8.2-3.7-.2-4.3-.3-.4-.6-.5-1-.5-.8 0-1.5-.3-2.2-.3-.6 0-.6.7-.6 1.1 0 .7.1 1.3.1 2 0 .6.2 1.2.2 1.8 0 .7-1 .8-1.6.8-.6 0-1.1-.1-1.1-.7s.2-1.1.2-1.6c0-1.1-.1-2.3-.1-3.4 0-2.9.2-5.7.2-8.6 0-.8-.1-1.6-.1-2.4 0-.3 0-.5.4-.5.6 0 2.1-.2 2.1.6 0 .5-.2 1-.2 1.5v1c0 1.3.1 2.6 0 3.8 0 .6-.2 1.1-.2 1.7 0 .6.4.8 1 .9.7.1 1.5.2 2.2.2.1 0 .4 0 .5-.1.4-.2.4-1.6.4-2 0-.9-.1-1.7-.1-2.6 0-.8.1-1.7.1-2.5 0-.5-.1-1-.1-1.5 0-.6.2-1 .9-1 .9 0 1.2.5 1.2 1.3v3.7zM161.4 179.3c-.4.2-2 4.2-2.4 4.9-1 1.8-2 3.7-2.7 5.7-.1.4-.3 1.6-.7 1.8-.2.1-1.2.2-1.5.2-.7 0-.7-1.8-.7-2.3 0-1.4.2-2.7.2-4.1 0-1.9-.2-3.9-.2-5.8v-2.2c0-.7-.1-1.5-.1-2.2 0-.6 1.4-1 1.8-1 .4 0 .4.5.4.8 0 3.4-.1 6.7-.1 10.1 0 .6 0 1.1.1 1.7.8-1 2.5-4.3 2.9-5.5.5-1.3 1.2-2.5 1.7-3.8.2-.6.6-2.4 1-2.8.3-.3.8-.4 1.2-.4.6 0 .8.4.8.9 0 .7-.2 1.3-.2 2 0 4 .2 8.1.2 12.1 0 .9 0 1.9-.1 2.8-.1 1-.1.8-1 .8-.2 0-.4.1-.6.1-.5 0-.5-1.1-.5-1.5 0-4 .5-7.9.5-11.9 0-.1.1-.3 0-.4zM169.8 185.9c-4.8-.2-4.4-6.4-4.5-9.8v-.8c0-.5.6-.6 1-.6s1.1 0 1.1.6c0 2.3-.2 8.2 3.3 8.2 3.4 0 3.4-3.9 3.4-6.4 0-.6-.4-2.7.5-2.7 1.9 0 1.6.7 1.6 2.4 0 4.5.1 9.1.1 13.6 0 .9.3 2.6-1.1 2.6-1.2 0-1.2-2.1-1.2-2.9 0-2 .1-3.9.1-5.9v-.6c-.7 1.6-2.5 2.3-4.1 2.3h-.2zM188.4 196.3c-.4.5-1.1.5-1.6.5-3.9 0-6.6-1.8-6.6-6 0-1.9.9-3.6 3-3.6 1.2 0 2.3.9 2.8.9h.2c0-2.7 0-12.1-1.2-14-.3-.5-.8-.9-1.5-.9-1.4 0-2.2 1.5-2.2 2.7 0 1.1 0 1.3-1.1 1.3-.5 0-1.8.1-1.8-.6s.5-1.9.8-2.5c.9-1.7 2.9-3.4 4.9-3.4.5 0 .9.1 1.4.3 2.4 1.1 2.7 5.7 3 8 .3 2.6.4 5.2.4 7.8 0 2.5-.1 5.1-.1 7.6-.3.5-.1 1.3-.4 1.9zm-5.7-5c0 1.7 1.3 3.1 3 3.1.6 0 .7-.6.7-1.1 0-.7-.2-1.4-.2-2.2 0-1.4-.4-1.7-1.7-1.7-1.1.1-1.8.9-1.8 1.9zM192.2 181.4v-.8c0-1.3.1-2.6 0-3.9 0-.4-.1-.8-.1-1.2 0-.6 1.3-1.2 1.8-1.2s.4 1 .4 1.3V189.2s0 .2.1.2c0 0 .1-.2.1-.3.1-.4.3-.8.4-1.3.5-1.8 1-3.5 1.5-5.3.2-.8 2.1-7.5 2.3-7.7.3-.3.8-.5 1.2-.5.7 0 .8.6.8 1.1 0 .7-.2 1.4-.2 2 0 3.1.2 6.2.2 9.3 0 2 .1 4 .1 6 0 1 0 2-.1 3-.1 1.1 0 .9-1 1-.2 0-.4.1-.6.1-.6 0-.5-1.9-.5-2.3 0-4.5.5-9 .5-13.5v-.6c0-.1 0-.2-.1-.2s-.5 1.2-.5 1.3c-.4 1.5-.7 3.1-1.1 4.6-.6 2.3-1.3 4.6-2 6.8-.1.4-.3 1.9-.7 2.2-.2.1-1.3.2-1.5.2-.8 0-.8-2.4-.8-2.9 0-1.5.2-3.1.2-4.6-.2-2-.4-4.2-.4-6.4zm2.9-8.9c-.1 0-.1-.4-.1-.5-.1-.5-.1-1-.1-1.6 1.3 0 2.5 0 3.8-.1 0 .5.2.9.2 1.4 0 .8-.8.8-1.4.8-.6 0-1.2-.1-1.8-.1-.3.1-.5.1-.6.1zM209.7 182.5c.1.3.2 1.2.2 1.6 0 .2-.5.5-.6.6-.9.8-3.1 3.2-3.7 4.2-.2.3-.4.5-.8.6h-.1c-.6 0-.7-1.3-.7-1.7v-.4c.2-.5.8-.8 1.1-1.2.8-.9 1.6-1.7 2.4-2.6-1.2-1.5-2.7-2.8-4-4.2v-.3c0-.5.4-1.5 1-1.5.1 0 .5.5.6.6.5.6 3.3 3.5 3.8 3.8.4.2.7.2.8.5zm4.7-.3c.1.3.2 1.4.2 1.7 0 .1-1.6 1.8-1.8 2.1-.8 1-1.8 2.1-2.4 3.2-.2.3-.6 1-1 1-.3 0-1.1-1.5-1.1-1.8 0-.4.4-.4.5-.7.3-.7.7-.8 1.1-1.3.8-1 1.6-1.9 2.4-2.9-1.1-1.5-2.7-3.2-4-4.6-.1-.1-.2-.2-.2-.4 0-.4.7-1.6 1.1-1.6.1 0 .5.6.6.7.5.7 3.3 3.9 3.8 4.2.4.1.7.1.8.4zM219.6 191.5c.2 1.1-.1 2.6-.2 3.7 0 .4-.1.7-.3.7-.5.1-.6.1-1.1.2-.3.1-.4.1-.6-.3-.2-.5-.1-1.2-.1-1.8 0-.8.1-1.9.1-2.7 0-.1 0-.3.1-.4.3-.7.7-.5 1.1-.5.6.1.9 0 1 1.1zM230.3 184.8c-.1-.3-.2-1.3-.2-1.6 0-.1 1.5-1.7 1.7-2 .7-1 1.7-2 2.3-3 .2-.3.6-.9.9-.9.3 0 1 1.4 1 1.7 0 .4-.4.4-.5.7-.3.6-.6.7-1.1 1.2-.8.9-1.5 1.8-2.3 2.7 1.1 1.5 2.5 2.9 3.7 4.4.1.1.2.2.2.4 0 .4-.7 1.5-1.1 1.5-.1 0-.5-.5-.5-.7-.5-.6-3.1-3.6-3.6-3.9-.1-.2-.4-.3-.5-.5zm4.5-.3c-.1-.2-.2-1.2-.2-1.5 0-.2.4-.4.6-.6.9-.8 2.9-3 3.4-3.9.2-.3.4-.5.8-.6h.1c.5 0 .6 1.2.6 1.6v.4c-.1.2-2.9 3-3.3 3.5 1.1 1.4 2.5 2.7 3.7 3.9v.3c0 .5-.3 1.4-.9 1.4-.1 0-.5-.5-.5-.6-.5-.6-3.1-3.3-3.6-3.5-.3-.1-.6-.2-.7-.4zM248.7 171.9c.4.2.6.8.6 1.2 0 .6-.4 1.1-1 1.1-.5 0-.9-.3-1.2-.3-.3 0-.3.4-.3.6v.6c.3 2.5.2 5.1.4 7.7.1 2.7.2 5.4.5 8 0 .5.1 1 .1 1.4v1.5c0 .5.2.9.2 1.3 0 .8-.8.9-1.4.9-1.1 0-1-.5-1-1.4 0-.7.1-1.4.1-2.1v-.1c-.2-5.7-.6-11.5-.7-17.2 0-.7.1-1.4-.9-1.4-.5 0-1 .3-1.5.3-.7 0-.8-.6-.8-1.1 0-.3.1-1.5.6-1.5.3 0 .5.1.8.2.8.1 1.7.2 2.5.2.7 0 1.3-.1 2-.1.4 0 .7 0 1 .2zM252.4 196c-.1-.9-.1-1.9-.1-2.8 0-2.6.3-5.3.4-7.9.1-2.9.1-5.7.1-8.6 0-1.2-.1-2.4-.1-3.6 0-1.3.1-1.8 1.6-1.8.9 0 1 .5 1 1.2 0 1.3-.2 2.6-.3 3.9-.2 2.9-.4 5.8-.4 8.7 0 .5 0 1 .4 1.4.4.4 1.5.5 2.1.9 1.3.9 2.5 2.9 2.5 4.5 0 .6-.2 1.3-.5 1.8-1.5 2.4-4.4 2.2-6.7 2.3zm1.8-6.3c0 .7.2 1.4.2 2 0 .4-.2 1.8.4 1.8 1.1 0 2.2-1.3 2.2-2.4 0-1-1.1-2.4-2.2-2.4h-.2c-.3.1-.4.7-.4 1zm9.3 4.6c0 .2-.1.6 0 .7-.2.3-1.4.4-1.8.4-.7 0-.6-.2-.7-.7 0-.4-.1-.8-.1-1.2 0-1 .1-2 .1-3 0-6 0-12-.1-18 .3 0 1.9 0 2.1.2.1.1.1.4.1.6 0 1.5-.1 2.9-.1 4.4 0 3.4.1 6.8.2 10.3 0 1.5 0 3.1.1 4.6.1.5.2 1.1.2 1.7zM274.8 171.8c0-.7 1.4-.6 1.9-.6 5.2 0 6.2 4 6.2 8.3 0 2.7-.1 5.3-.2 8-.1 1.2-.2 2.3-.2 3.5 0 2.4-1.2 5.1-3.9 5.1-.8 0-1.7-.3-2.3-.8-1.3-.9-1.3-5.9-1.3-7.5 0-1.6-.1-3.3.1-4.9.3-2.4 1.2-3.9 3.8-3.9.8 0 1.3.5 1.5.5.1 0 .2 0 .2-.1v-.9c0-3.1-1.2-5-4.6-5-1 0-.9-.7-1.2-1.5v-.2zm5.5 9.3c-.3-.1-.6-.2-.9-.2-1.7 0-2.1 1.1-2.2 2.6-.1 1.1-.1 2.2-.1 3.3 0 1.6.1 3.2.1 4.8 0 1 .1 2.4 1.5 2.4.3 0 .5-.1.8-.2.5-.6.6-2.1.6-2.9.2-3.2.2-6.5.2-9.8zM285.3 183.6c0-4.2 1.7-8.9 6.6-8.9 5.1 0 6.1 6 6.1 9.9 0 4-1.7 8.7-6.5 8.7-4.7 0-6.2-5.8-6.2-9.7zm2.2-.6c0 .6 0 1.2.1 1.8.2 2 1.5 6.3 4.1 6.3 3.3 0 4.3-4.9 4.3-7.4 0-2.3-.9-6.9-4-6.9-3.7 0-4.5 3.2-4.5 6.2zM308.6 188.2c.2.7 1.2 4.1 1.2 4.5 0 .3-.3.3-.6.3h-.4c-1.5-.1-1.3-.8-1.6-2-.3-1.4-.8-2.7-1.1-4.1-.4-1.4-.6-2.9-1-4.3-.1-.6-.5-3.4-.8-3.6-.4 2.8-.9 5.6-1.1 8.4-.1 1.5-.5 3-.6 4.6-.1.9.1.8-.7 1.1-.1 0-.3.1-.4.1-.4 0-.9-.1-1.3-.3.1-2.2.9-4.4 1.2-6.7.4-2.8.8-5.5 1.3-8.3.1-.7.1-2.9.5-3.2.2-.2.9-.2 1.2-.2.2 0 .6 0 .8.1.6.3.7 1.6.8 2.2.6 3.7 1.7 7.6 2.6 11.4zM322.2 192.5c0 .6-.9 1.1-1.4 1.1-.6 0-.7-.5-.7-1.1 0-.4.1-.9.1-1.3 0-2.2-.2-4.4-.3-6.6-1 .1-3.1.5-3.5 1.5-.4 1.1-.7 2.3-.7 3.4-.1 1.1 0 2.3-.2 3.4-.1.3-.2.6-.6.6-.4 0-1.3-.3-1.4-.7-.2-.9-.1-2.1-.1-3 0-2.4.3-4.6 2.3-6.2-2.2-1.2-2.8-3.4-2.8-5.7 0-.9 0-3.1.2-3.9.1-.4 1.1-.7 1.4-.7.4 0 .5.3.6.6.2 1.1.1 2.3.1 3.4s.3 2.3.6 3.4c.4 1.2 2.9 1.6 4 1.7-.1-2.6-.5-5.2-.5-7.8 0-.4.1-.9.6-.9 1 0 1.7.1 1.7 1.2 0 .6-.1 1.2-.1 1.8 0 1.9.3 3.8.4 5.7 1.1-.1 3.4-.4 3.8-1.6.4-1.1.7-2.3.7-3.4.1-1.1 0-2.3.2-3.4.1-.3.2-.6.6-.6.4 0 1.3.3 1.4.7.2.9.1 2.1.1 3 0 2.4-.3 4.6-2.3 6.2 2.2 1.2 2.8 3.4 2.8 5.7 0 .9 0 3.1-.2 3.9-.1.4-1.1.7-1.4.7-.4 0-.5-.3-.6-.6-.2-1.1-.1-2.3-.1-3.4s-.3-2.3-.6-3.4c-.4-1.3-3.2-1.7-4.3-1.7v1.8c-.2 2.2.1 4.2.2 6.2zM338.4 193.2c-.4.1-.7.2-1.1.2-3.8 0-4.8-6.7-4.8-9.5 0-2.9.3-9.8 4.4-9.8 3.2 0 4.7 4.7 4.7 7.3 0 1.3-.7 1.5-1.8 1.5-1 0-2-.1-3-.1-.8 0-1.7.2-1.7 1.2 0 .5.1 1.1.2 1.6.1 1.3.2 5.5 2.1 5.5 1.9 0 1.3-3.7 1.8-3.9.2-.1.5-.2.7-.2.5 0 1 .1 1.5.1.4 0 .4.2.4.6-.1 2-1.2 4.9-3.4 5.5zm-3.1-12.8c0 .3.6.3.8.3.7 0 1.4-.2 2.1-.3.5-.1.9 0 .9-.7 0-1.1-1-3.5-2.3-3.5-1.3 0-1.3 1.9-1.3 2.8v.7c-.1.3-.2.5-.2.7zM352.9 179.5c.1 3.6 0 7.1.1 10.7 0 .7.1 1.3.1 2 0 .2 0 .7-.4.7-.2 0-.4-.1-.6-.1-1-.2-1.2-.8-1.2-1.7 0-.8.2-3.7-.2-4.3-.3-.4-.6-.5-1-.5-.8 0-1.5-.3-2.2-.3-.6 0-.6.7-.6 1.1 0 .7.1 1.3.1 2 0 .6.2 1.2.2 1.8 0 .7-1 .8-1.6.8-.6 0-1.1-.1-1.1-.7s.2-1.1.2-1.6c0-1.1-.1-2.3-.1-3.4 0-2.9.2-5.7.2-8.6 0-.8-.1-1.6-.1-2.4 0-.3 0-.5.4-.5.6 0 2.1-.2 2.1.6 0 .5-.2 1-.2 1.5v1c0 1.3.1 2.6 0 3.8 0 .6-.2 1.1-.2 1.7 0 .6.4.8 1 .9.7.1 1.5.2 2.2.2.1 0 .4 0 .5-.1.4-.2.4-1.6.4-2 0-.9-.1-1.7-.1-2.6 0-.8.1-1.7.1-2.5 0-.5-.1-1-.1-1.5 0-.6.2-1 .9-1 .9 0 1.2.5 1.2 1.3v3.7zM370.3 170.9c2.4 1.4 2.8 6.7 2.8 9.2v1h-.9c-.3 0-.5 0-.7-.1-.6-.2-.4 0-.6-.7-.3-1.7.2-7.4-2.4-7.4-2.3 0-2.3 5-2.3 6.5 0 1 .1 2 .1 3 0 1.9-.2 12 2.6 12 .9 0 1.4-1.1 1.6-1.8.2-.7.1-1.5.2-2.2.2-.8.2-.6.9-.7.5 0 1-.1 1.5-.2-.2 2-.1 4.4-1.4 6.1-.6.8-1.5 1.3-2.5 1.3-.8 0-1.6-.3-2.1-.9-3.1-3-2.9-9.2-2.9-13.2 0-2.1 0-4.3.2-6.4.2-2.7 1-6 4.4-6 .4 0 1 .2 1.5.5zM383.8 173.4c.1.7.2 1.3.2 2 0 1.7-.3 3.4-.3 5.2 0 1.5.2 3 .2 4.5 0 1.4-.2 2.9-.2 4.3 0 1.1.1 2.2.1 3.2 0 .6.1 1.6-.7 1.6-.2 0-.5-.1-.7-.1-.5-.1-.8 0-.8-.8 0-.6.1-1.1.1-1.7 0-1-.1-2.1-.1-3.1 0-3.8-.2-7.6-.2-11.4v-2c0-.4 0-.6-.5-.6-1.2 0-2.3.4-3.5.4v2.7c.1 3.3.1 6.7.2 10 0 1.5-.1 3.1.1 4.6.1.5.2 1.1.2 1.6 0 .1-.1.5 0 .7-.1.3-1.5.4-1.8.4-.7 0-.5-.1-.6-.7-.1-.4-.1-.8-.1-1.1 0-.9.1-1.8.1-2.7 0-5.6-.1-11.2-.1-16.8 0-.7.6-1.1 1.3-1.1 1.7 0 3.5.2 5.3.2.8 0 1.6-.4 1.8.7zM386.8 172.6c2.1.1 5.2-.2 6.5 1.8.3.5.5 1 .5 1.6 0 1.5-1.2 3.1-2.4 3.8-.6.4-1.6.4-2 .8-.3.3-.4.7-.4 1.1 0 .5.1 1.1.1 1.6 0 2.3.2 4.7.4 7 .1 1.1.4 2.1.4 3.2 0 .9-.1 1.2-1 1.2-1.5 0-1.5-.4-1.5-1.7 0-3.7 0-7.5-.2-11.2-.1-2.4-.4-4.7-.4-7.1-.1-.7-.1-1.4 0-2.1zm4.7 4.2c0-1.1-1.2-2.1-2.2-2.1-.4 0-.5.3-.5.7v1.1c0 .5-.1.9-.1 1.4 0 .4.1.9.6.9.6 0 1.8-.8 2-1.4.1-.1.2-.4.2-.6zM405.7 196.3c-.4.5-1.1.5-1.6.5-3.9 0-6.6-1.8-6.6-6 0-1.9.9-3.6 3-3.6 1.2 0 2.3.9 2.8.9h.2c0-2.7 0-12.1-1.2-14-.3-.5-.8-.9-1.5-.9-1.4 0-2.2 1.5-2.2 2.7 0 1.1 0 1.3-1.1 1.3-.5 0-1.8.1-1.8-.6s.5-1.9.8-2.5c.9-1.7 2.9-3.4 4.9-3.4.5 0 .9.1 1.4.3 2.4 1.1 2.7 5.7 3 8 .3 2.6.4 5.2.4 7.8 0 2.5-.1 5.1-.1 7.6-.2.5-.1 1.3-.4 1.9zm-5.7-5c0 1.7 1.3 3.1 3 3.1.6 0 .7-.6.7-1.1 0-.7-.2-1.4-.2-2.2 0-1.4-.4-1.7-1.7-1.7-1.1.1-1.8.9-1.8 1.9zM409.4 180.1c0-1.4.1-2.9 0-4.3 0-.4-.1-1.2-.1-1.6 0-.8.3-.9 1.1-.9.9 0 2.2.5 3 .9 2.2 1.4 3 4.4 3 6.9 0 2.9-1.6 4.1-2.4 5.2-.1.1 4.4.8 4.4 4.5 0 3.6-6.2 3.2-8.4 3.2-.6 0-.5-.4-.6-.8-.1-.5-.1-1.1-.1-1.6 0-3.8 0-7.6-.1-11.3v-.2zm3.5-3c-.2-.2-1.5-1.7-1.5-.7 0 2.8.2 6 .2 8.8 0 .1 0 .1.1.2h.1c2.7-.9 2.5-6.5 1.1-8.3zm-.8 11.4c-.4 0-.5.3-.5.6 0 .7-.1 1.4-.1 2.1 0 .4.1.7.6.7 2.3 0 3.9-.3 3.9-1.5 0-1.7-2.9-1.9-3.9-1.9zM428.4 179.3c-.4.2-2 4.2-2.4 4.9-1 1.8-2 3.7-2.7 5.7-.1.4-.3 1.6-.7 1.8-.2.1-1.2.2-1.5.2-.7 0-.7-1.8-.7-2.3 0-1.4.2-2.7.2-4.1 0-1.9-.2-3.9-.2-5.8v-2.2c0-.7-.1-1.5-.1-2.2 0-.6 1.4-1 1.8-1 .4 0 .4.5.4.8 0 3.4-.1 6.7-.1 10.1 0 .6 0 1.1.1 1.7.8-1 2.5-4.3 2.9-5.5.5-1.3 1.2-2.5 1.7-3.8.2-.6.6-2.4 1-2.8.3-.3.8-.4 1.2-.4.6 0 .8.4.8.9 0 .7-.2 1.3-.2 2 0 4 .2 8.1.2 12.1 0 .9 0 1.9-.1 2.8-.1 1-.1.8-1 .8-.2 0-.4.1-.6.1-.5 0-.5-1.1-.5-1.5 0-4 .5-7.9.5-11.9.1-.1.1-.3 0-.4zM434.5 173.1c-.3-.1-1.4-.1-1.7-.4v-.3c0-1.3 0-1.6 1.4-1.6.9 0 1.7.1 2.6.1.6 0 1.3-.1 1.9-.1.5 0 1.2 0 1.2.6 0 .4.1.8.1 1.2 0 .9-2.2-.2-2.2 1.2 0 .3 0 .6.1 1 .1 3.4.2 6.8.2 10.1 0 3.5 0 7 .2 10.5v.7c0 .3 0 .6-.4.6-.3 0-.7-.2-.9-.3-.6-.2-.8-.1-.8-1 0-.4.1-.9.1-1.3 0-6.6-.4-13.2-.4-19.7-.3-1.2-.3-1.1-1.4-1.3zM447.5 186.1c1.4 1 2.5 2.8 2.5 4.5 0 .6-.2 1.2-.5 1.8-1.3 2.3-4.2 2.2-6.5 2.3-.1-1.1-.2-2.1-.2-3.2 0-3.7.3-7.4.3-11.2 0-2-.1-3.9-.1-5.9 0-1.4 0-1.8 1.6-1.8 1 0 1 .7 1 1.5 0 1.2-.2 2.4-.3 3.6-.1 1.2-.3 2.3-.3 3.5 0 .9-.1 1.7-.1 2.6.2 2.2 1.4 1.4 2.6 2.3zm-1.5 6c.9-.4 1.6-1.3 1.6-2.3 0-1-1.1-2.4-2.2-2.4-.5 0-.6.6-.6 1 0 .7.2 1.4.2 2.2 0 .4-.2 1.7.5 1.7.2-.1.4-.2.5-.2zM462.2 180.1v1h-.9c-.3 0-.5 0-.7-.1-.6-.2-.4 0-.6-.7-.3-1.7.2-7.4-2.4-7.4-2.3 0-2.3 5-2.3 6.5 0 1 .1 2 .1 3 0 1.9-.2 12 2.6 12 .9 0 1.4-1.1 1.6-1.8.2-.7.1-1.5.2-2.2.2-.8.2-.6.9-.7.5 0 1-.1 1.5-.2-.2 2-.1 4.4-1.4 6.1-.6.8-1.5 1.3-2.5 1.3-.8 0-1.6-.3-2.1-.9-3.1-3-2.9-9.2-2.9-13.2 0-2.1 0-4.3.2-6.4.2-2.7 1-6 4.5-6 .6 0 1.2.2 1.7.5 2.1 1.4 2.5 6.7 2.5 9.2zM473.3 171.7c.1.1.1.3.1.5 0 .5-.1.9-.1 1.4 0 6.3-.3 12.6-.3 18.9 0 .5.1 1 .1 1.5 0 .9-.2.8-.9 1-.3.1-.6.2-.9.2-.4 0-.5-.4-.5-.7 0-.7.1-1.5.1-2.2 0-1-.1-2-.1-3.1 0-1.6.1-3.3.1-4.9-1 2.6-1.9 5.2-2.9 7.8-.5 1.2-.9 2.5-1.4 3.7-.1.3-.4.5-.8.5-.3 0-1.4-.6-1.4-.9 0 0 2.1-5.5 2.4-6.2.9-2.7 1.9-5.3 2.9-7.9-2.4-.4-3.6-3.1-3.6-5.2 0-2.5 1.4-4.8 4.1-4.8.4 0 .9.1 1.3.1.7-.2 1.5-.2 1.8.3zm-2.1 6c0-.8-.1-1.5 0-2.3 0-.4.1-.8.1-1.2 0-.3-.1-1.2-.4-1.2-1.7 0-2.6 1.2-2.6 2.8 0 1.3.7 3.6 2.3 3.6.6 0 .5-1 .5-1.4l.1-.3zM90.3 205.7c2.4 1.4 2.8 6.7 2.8 9.2v1h-.9c-.3 0-.5 0-.7-.1-.6-.2-.4 0-.6-.7-.3-1.7.2-7.4-2.4-7.4-2.3 0-2.3 5-2.3 6.5 0 1 .1 2 .1 3 0 1.9-.2 12 2.6 12 .9 0 1.4-1.1 1.6-1.8.2-.7.1-1.5.2-2.2.2-.8.2-.6.9-.7.5 0 1-.1 1.5-.2-.2 2-.1 4.4-1.4 6.1-.6.8-1.5 1.3-2.5 1.3-.8 0-1.6-.3-2.1-.9-3.1-3-2.9-9.2-2.9-13.2 0-2.1 0-4.3.2-6.4.2-2.7 1-6 4.5-6 .3 0 .9.2 1.4.5zM105.3 231.1c-.4.5-1.1.5-1.6.5-3.9 0-6.6-1.8-6.6-6 0-1.9.9-3.6 3-3.6 1.2 0 2.3.9 2.8.9h.2c0-2.7 0-12.1-1.2-14-.3-.5-.8-.9-1.5-.9-1.4 0-2.2 1.5-2.2 2.7 0 1.1 0 1.3-1.1 1.3-.5 0-1.8.1-1.8-.6s.5-1.9.8-2.5c.9-1.7 2.9-3.4 4.9-3.4.5 0 .9.1 1.4.3 2.4 1.1 2.7 5.7 3 8 .3 2.6.4 5.2.4 7.8 0 2.5-.1 5.1-.1 7.6-.3.6-.1 1.3-.4 1.9zm-5.7-5c0 1.7 1.3 3.1 3 3.1.6 0 .7-.6.7-1.1 0-.7-.2-1.4-.2-2.2 0-1.4-.4-1.7-1.7-1.7-1.1.1-1.8.9-1.8 1.9zM122.1 221.4c-.7 1.3-1.3 2.5-1.9 3.8-.3.7-.5 1.7-1.5 1.7h-.4c-1.2-.2-1.2-1-1.7-1.9l-2.1-3.9c-.6-1.2-1.1-2.4-1.7-3.6-.4-.8-.9-1.6-1.2-2.4-.2-.3-.4-1.2-.6-1.4 0 2.3.1 4.7.2 7 0 2.1.3 4.3.3 6.4 0 .6-.1.7-.8.7-.6 0-1.3-.3-1.6-.3h-.1c-.1 0-.2-.5-.2-.7 0-1 .1-2 .1-3V214c0-.9-.1-1.8-.1-2.8 0-.4 0-1.9.5-1.9 1.5 0 1.7.1 2.4 1.3 1.2 2.2 2.5 4.4 3.7 6.6.4.8 2.6 5.7 3.2 5.7.1 0 .2-.3.2-.3.6-1 1-2 1.5-3 1.2-2.3 2.5-4.6 3.7-6.9.4-.7 1.1-2.6 1.8-3 .2-.1 1.1-.2 1.3-.2 1 0 .9.8.9 1.6 0 3.3 0 6.5.1 9.8 0 1.3.1 2.6.1 4 0 .6.2 1.3.2 1.9 0 .4-.1.8-.6.8-.2 0-.5-.1-.7-.2-.7-.3-.4.1-.6-.7-.1-.5-.1-1-.1-1.5 0-1.9-.1-3.9-.2-5.8 0-1.4 0-2.8-.1-4.2 0-.3 0-.7-.1-1 0 0 0-.2-.1-.2s-.4.5-.5.6c-1.2 2.2-2.2 4.5-3.3 6.8zM136.9 217.3c.1.3.2 1.2.2 1.6 0 .2-.5.5-.6.6-.9.8-3.1 3.2-3.7 4.2-.2.4-.4.5-.8.6h-.1c-.6 0-.7-1.3-.7-1.7v-.4c.2-.5.8-.8 1.1-1.2.8-.9 1.6-1.7 2.4-2.6-1.2-1.5-2.7-2.8-4-4.2v-.3c0-.5.4-1.5 1-1.5.1 0 .5.5.6.6.5.6 3.3 3.5 3.8 3.8.4.2.7.2.8.5zm4.9 1.4c0 .1-1.6 1.8-1.8 2.1-.8 1-1.8 2.1-2.4 3.2-.2.3-.6 1-1 1-.3 0-1.1-1.5-1.1-1.8 0-.4.4-.4.5-.7.3-.7.7-.8 1.1-1.3.8-1 1.6-1.9 2.4-2.9-1.1-1.5-2.7-3.2-4-4.6-.1-.1-.2-.2-.2-.4 0-.4.7-1.6 1.1-1.6.1 0 .5.6.6.7.5.7 3.3 3.9 3.8 4.2.2.1.5.2.6.5.4.2.4 1.3.4 1.6zM146.8 226.3c.2 1.1-.1 2.6-.2 3.7 0 .4-.1.7-.3.7-.5.1-.6.1-1.1.2-.3.1-.4.1-.6-.3-.2-.5-.1-1.2-.1-1.8 0-.8.1-1.9.1-2.7 0-.1 0-.3.1-.4.3-.7.7-.5 1.1-.5.6.1.9 0 1 1.1zM157.4 217.9c0-.1 1.5-1.7 1.7-2 .7-1 1.7-2 2.3-3 .2-.3.6-.9.9-.9.3 0 1 1.4 1 1.7 0 .4-.4.4-.5.7-.3.6-.6.7-1.1 1.2-.8.9-1.5 1.8-2.3 2.7 1.1 1.5 2.5 2.9 3.7 4.4.1.1.2.2.2.4 0 .4-.7 1.5-1.1 1.5-.1 0-.5-.5-.5-.7-.5-.6-3.1-3.6-3.6-3.9-.2-.1-.5-.2-.6-.5-.1-.2-.1-1.2-.1-1.6zm4.6 1.4c-.1-.2-.2-1.2-.2-1.5 0-.2.4-.4.6-.6.9-.8 2.8-3 3.4-3.9.2-.3.4-.5.8-.6h.1c.5 0 .6 1.2.6 1.6v.4c-.1.2-2.9 3-3.3 3.5 1.1 1.4 2.5 2.7 3.7 3.9v.3c0 .5-.3 1.4-.9 1.4-.1 0-.5-.5-.5-.6-.5-.6-3.1-3.3-3.6-3.5-.3-.1-.6-.2-.7-.4zM177.4 211.5c0 5-.1 10.1-.1 15.1 0 .7.1 1.4.1 2.2 0 .2 0 .4-.1.5-.5.1-1.2.3-1.7.3-.3 0-.3-1.1-.3-1.3-.1-1.7.1-3.4.1-5 0-1.4.3-1.9-1.4-2-1.1 0-1.5.1-1.5 1.5 0 1.5.1 3 .1 4.4 0 .6.1 1.1.1 1.7 0 1-.3.8-1.2.8-.5 0-1 .1-1-.6 0-.6.2-1.2.2-1.9 0-2.1-.2-4.2-.2-6.3 0-2.6 0-5.2-.1-7.8 0-1.2-.2-2.4-.2-3.6 0-.5 0-1.9.5-2.3.2-.1 1.1-.2 1.3-.2.6 0 .8.1.8.8 0 1.7-.7 11.8.4 11.8.5 0 .9.1 1.4.1.7 0 .7-.1.7-.8 0-.5-.1-.9-.1-1.4 0-2.8.2-5.7.2-8.5 0-.5-.1-1.7.7-1.7.2 0 .4.1.6.1.8.3.7.3.7 1.2v2.9zM186 228c-.4.1-.7.2-1.1.2-3.8 0-4.8-6.7-4.8-9.5 0-2.9.3-9.8 4.4-9.8 3.2 0 4.7 4.7 4.7 7.3 0 1.3-.7 1.5-1.8 1.5-1 0-2-.1-3-.1-.8 0-1.7.2-1.7 1.2 0 .5.1 1.1.2 1.6.1 1.3.2 5.5 2.1 5.5 1.9 0 1.3-3.7 1.8-3.9.2-.1.5-.2.7-.2.5 0 1 .1 1.5.1.4 0 .4.2.4.6-.1 2-1.2 4.9-3.4 5.5zm-3.1-12.8c0 .3.6.3.8.3.7 0 1.4-.2 2.1-.3.5-.1.9 0 .9-.7 0-1.1-1-3.5-2.3-3.5-1.3 0-1.3 1.9-1.3 2.8v.7c-.1.3-.2.5-.2.7zM207.2 229.7c-1.3 0-1.3.3-1.3-1.2 0-.7.1-1.4.1-2.2 0-.9-.4-6.2-1.4-6.2-1.3 0-1.4 5-1.4 6 0 .5.2 3.4-.5 3.4h-1.9c.1-2.5.2-4.9.7-7.4.1-.5.2-1 .4-1.4.1-.3.7-1.3.7-1.6 0-.5-.9-1.7-1-2.3-.9-2.9-.9-6.3-.9-9.3 0-.2.1-.4.3-.4.1 0 .2 0 .4.1.3-.1.5-.1.8-.1.6 0 1 .1 1 .7 0 1.4 0 9.7 1.4 9.7s1.5-7 1.5-8.2c0-.4-.1-.8-.1-1.1 0-.8.2-1.1 1-1.1.2 0 1.4 0 1.4.3 0 .2-.1.3-.1.5 0 .1.1.1.1.2 0 2.3-.2 4.6-.6 6.8-.1.6-1 3.3-1 3.5 0 .6.4 1.1.6 1.6.7 1.7 1.2 5.8 1.2 7.7 0 .4 0 1.8-.5 1.8-.4.2-.6.2-.9.2zM211.7 218.4c0-4.2 1.7-8.9 6.6-8.9 5.1 0 6.1 6 6.1 9.9 0 4-1.7 8.7-6.5 8.7s-6.2-5.8-6.2-9.7zm2.1-.6c0 .6 0 1.2.1 1.8.2 2 1.5 6.3 4.1 6.3 3.3 0 4.3-4.9 4.3-7.4 0-2.3-.9-6.9-4-6.9-3.7 0-4.5 3.2-4.5 6.2zM225.9 210.9v-.8c0-.5.6-.6 1-.6s1.1 0 1.1.6c0 2.3-.2 8.2 3.3 8.2 3.4 0 3.4-3.9 3.4-6.4 0-.6-.4-2.7.5-2.7 1.9 0 1.6.7 1.6 2.4 0 4.5.1 9.1.1 13.6 0 .9.3 2.6-1.1 2.6-1.2 0-1.2-2.1-1.2-2.9 0-2 .1-3.9.1-5.9v-.6c-.7 1.6-2.5 2.3-4.1 2.3h-.3c-4.7-.3-4.3-6.5-4.4-9.8zM247.4 209.4c.2 2.5.5 5 .5 7.5 0 1.7-.1 3.3-.2 5-.2 2.6-.4 8.7-4.1 8.7-2.5 0-3.8-1.7-3.8-4.1 0-1.3 0-2.9 1.8-2.9.1 0 .3.1.3.3 0 .3-.2.5-.2.8 0 .9.3 4 1.5 4 .3 0 .6-.2.9-.4.9-.8.9-2.6 1-3.7.1-1.6.2-3.1.3-4.7.1-2 .2-4 .2-6.1 0-.3 0-.8-.2-1.1-.4 1-1.1 2.1-2.3 2.1-3.3 0-3.9-4.8-3.9-7.2 0-.9.6-1.3 1.5-1.3.8 0 .9 1 .9 1.6 0 1-.1 2 0 2.9.1.8.7 2.2 1.6 2.2 1.4 0 1.7-2.3 1.7-3.3 0-.8-.2-1.5-.2-2.3 0-.7.7-.7 1.2-.7 1.1 0 1.6-.1 1.6 1.2 0 .5-.1 1-.1 1.5zM259.1 214.9c0-1.4.1-2.9 0-4.3 0-.4-.1-1.2-.1-1.6 0-.8.3-.9 1.1-.9.9 0 2.2.5 3 .9 2.2 1.4 3 4.4 3 6.9 0 2.9-1.6 4.1-2.4 5.2-.1.1 4.4.8 4.4 4.5 0 3.6-6.2 3.2-8.4 3.2-.6 0-.5-.4-.6-.8-.1-.5-.1-1.1-.1-1.6 0-3.8 0-7.6-.1-11.3v-.2zm3.5-3c-.2-.2-1.5-1.7-1.5-.7 0 2.8.2 6 .2 8.8 0 .1 0 .1.1.2h.1c2.7-.9 2.5-6.5 1.1-8.3zm-.8 11.4c-.4 0-.5.3-.5.6 0 .7-.1 1.4-.1 2.1 0 .4.1.7.6.7 2.3 0 3.9-.3 3.9-1.5 0-1.7-2.9-1.9-3.9-1.9zM276.6 228.6c-1.3 2.3-4.2 2.1-6.5 2.2-.1-.9-.1-1.9-.1-2.8 0-2.6.3-5.3.4-7.9.1-2.9.1-5.7.1-8.6 0-1.2-.1-2.4-.1-3.6 0-1.3.1-1.8 1.6-1.8.9 0 1 .5 1 1.2 0 1.3-.2 2.6-.3 3.9-.2 2.9-.4 5.8-.4 8.7 0 .5 0 1 .4 1.4.4.4 1.5.5 2.1.9 1.3.9 2.5 2.9 2.5 4.5-.2.7-.4 1.3-.7 1.9zm-4.7-4.1c0 .7.2 1.4.2 2 0 .4-.2 1.8.4 1.8 1.1 0 2.2-1.3 2.2-2.4 0-1-1.1-2.4-2.2-2.4h-.2c-.4.1-.4.7-.4 1zm9.1 2.8c.1.6.2 1.2.2 1.8 0 .2-.1.6 0 .7-.2.3-1.4.4-1.8.4-.7 0-.6-.2-.7-.7 0-.4-.1-.8-.1-1.2 0-1 .1-2 .1-3 0-6 0-12-.1-18 .3 0 1.9 0 2.1.2.1.1.1.4.1.6 0 1.5-.1 2.9-.1 4.4 0 3.4.1 6.8.2 10.3 0 1.5-.1 3 .1 4.5zM290.5 209.3c.3.5.5 1 .5 1.6 0 1.5-1.2 3.1-2.4 3.8-.6.4-1.6.4-2 .8-.3.3-.4.7-.4 1.1 0 .5.1 1.1.1 1.6 0 2.3.2 4.7.4 7 .1 1.1.4 2.1.4 3.2 0 .9-.1 1.2-1 1.2-1.5 0-1.5-.4-1.5-1.7 0-3.7 0-7.5-.2-11.2-.1-2.4-.4-4.7-.4-7.1 0-.7 0-1.4.1-2.1 1.9 0 5-.2 6.4 1.8zm-2 3c.1-.2.1-.4.1-.7 0-1.1-1.2-2.1-2.2-2.1-.4 0-.5.3-.5.7v1.1c0 .5-.1.9-.1 1.4 0 .4.1.9.6.9.7 0 1.8-.8 2.1-1.3zM302.8 231.1c-.4.5-1.1.5-1.6.5-3.9 0-6.6-1.8-6.6-6 0-1.9.9-3.6 3-3.6 1.2 0 2.3.9 2.8.9h.2c0-2.7 0-12.1-1.2-14-.3-.5-.8-.9-1.5-.9-1.4 0-2.2 1.5-2.2 2.7 0 1.1 0 1.3-1.1 1.3-.5 0-1.8.1-1.8-.6s.5-1.9.8-2.5c.9-1.7 2.9-3.4 4.9-3.4.5 0 .9.1 1.4.3 2.4 1.1 2.7 5.7 3 8 .3 2.6.4 5.2.4 7.8 0 2.5-.1 5.1-.1 7.6-.2.6-.1 1.3-.4 1.9zm-5.6-5c0 1.7 1.3 3.1 3 3.1.6 0 .7-.6.7-1.1 0-.7-.2-1.4-.2-2.2 0-1.4-.4-1.7-1.7-1.7-1.2.1-1.8.9-1.8 1.9zM312.6 205.7c2.4 1.4 2.8 6.7 2.8 9.2v1h-.9c-.3 0-.5 0-.7-.1-.6-.2-.4 0-.6-.7-.3-1.7.2-7.4-2.4-7.4-2.3 0-2.3 5-2.3 6.5 0 1 .1 2 .1 3 0 1.9-.2 12 2.6 12 .9 0 1.4-1.1 1.6-1.8.2-.7.1-1.5.2-2.2.2-.8.2-.6.9-.7.5 0 1-.1 1.5-.2-.2 2-.1 4.4-1.4 6.1-.6.8-1.5 1.3-2.5 1.3-.8 0-1.6-.3-2.1-.9-3.1-3-2.9-9.2-2.9-13.2 0-2.1 0-4.3.2-6.4.2-2.7 1-6 4.4-6 .3 0 .9.2 1.5.5zM319.4 207.9c-.3-.1-1.4-.1-1.7-.4v-.3c0-1.3 0-1.6 1.4-1.6.9 0 1.7.1 2.6.1.6 0 1.3-.1 1.9-.1.5 0 1.2 0 1.2.6 0 .4.1.8.1 1.2 0 .9-2.2-.2-2.2 1.2 0 .3 0 .6.1 1 .1 3.4.2 6.8.2 10.1 0 3.5 0 7 .2 10.5v.7c0 .3 0 .6-.4.6-.3 0-.7-.2-.9-.3-.6-.2-.8-.1-.8-1 0-.4.1-.9.1-1.3 0-6.6-.4-13.2-.4-19.7-.3-1.2-.3-1.1-1.4-1.3zM335.9 214.1c-.4.2-2 4.2-2.4 4.9-1 1.8-2 3.7-2.7 5.7-.1.4-.3 1.6-.7 1.8-.2.1-1.2.2-1.5.2-.7 0-.7-1.8-.7-2.3 0-1.4.2-2.7.2-4.1 0-1.9-.2-3.9-.2-5.8v-2.2c0-.7-.1-1.5-.1-2.2 0-.6 1.4-1 1.8-1 .4 0 .4.5.4.8 0 3.4-.1 6.7-.1 10.1 0 .6 0 1.1.1 1.7.8-1 2.5-4.3 2.9-5.5.5-1.3 1.2-2.5 1.7-3.8.2-.6.6-2.4 1-2.8.3-.3.8-.4 1.2-.4.6 0 .8.4.8.9 0 .7-.2 1.3-.2 2 0 4 .2 8.1.2 12.1 0 .9 0 1.9-.1 2.8-.1 1-.1.8-1 .8-.2 0-.4.1-.6.1-.5 0-.5-1.1-.5-1.5 0-4 .5-7.9.5-11.9.1-.1.1-.3 0-.4zM342 207.9c-.3-.1-1.4-.1-1.7-.4v-.3c0-1.3 0-1.6 1.4-1.6.9 0 1.7.1 2.6.1.6 0 1.3-.1 1.9-.1.5 0 1.2 0 1.2.6 0 .4.1.8.1 1.2 0 .9-2.2-.2-2.2 1.2 0 .3 0 .6.1 1 .1 3.4.2 6.8.2 10.1 0 3.5 0 7 .2 10.5v.7c0 .3 0 .6-.4.6-.3 0-.7-.2-.9-.3-.6-.2-.8-.1-.8-1 0-.4.1-.9.1-1.3 0-6.6-.4-13.2-.4-19.7-.3-1.2-.3-1.1-1.4-1.3zM355.1 220.9c1.4 1 2.5 2.8 2.5 4.5 0 .6-.2 1.3-.5 1.8-1.3 2.3-4.2 2.2-6.5 2.3-.1-1.1-.2-2.1-.2-3.2 0-3.7.3-7.4.3-11.2 0-2-.1-3.9-.1-5.9 0-1.4 0-1.8 1.6-1.8 1 0 1 .7 1 1.5 0 1.2-.2 2.4-.3 3.5-.1 1.2-.3 2.3-.3 3.5 0 .9-.1 1.7-.1 2.6.1 2.3 1.3 1.5 2.6 2.4zm.1 3.7c0-1-1.1-2.4-2.2-2.4-.5 0-.6.6-.6 1 0 .7.2 1.4.2 2.2 0 .4-.2 1.7.5 1.7.2 0 .4-.1.6-.1.8-.5 1.5-1.4 1.5-2.4zM377.4 214.1c-.4.2-2 4.2-2.4 4.9-1 1.8-2 3.7-2.7 5.7-.1.4-.3 1.6-.7 1.8-.2.1-1.2.2-1.5.2-.7 0-.7-1.8-.7-2.3 0-1.4.2-2.7.2-4.1 0-1.9-.2-3.9-.2-5.8v-2.2c0-.7-.1-1.5-.1-2.2 0-.6 1.4-1 1.8-1 .4 0 .4.5.4.8 0 3.4-.1 6.7-.1 10.1 0 .6 0 1.1.1 1.7.8-1 2.5-4.3 2.9-5.5.5-1.3 1.2-2.5 1.7-3.8.2-.6.6-2.4 1-2.8.3-.3.8-.4 1.2-.4.6 0 .8.4.8.9 0 .7-.2 1.3-.2 2 0 4 .2 8.1.2 12.1 0 .9 0 1.9-.1 2.8-.1 1-.1.8-1 .8-.2 0-.4.1-.6.1-.5 0-.5-1.1-.5-1.5 0-4 .5-7.9.5-11.9.1-.1.1-.3 0-.4zM385.6 231.4c-2.5 0-4.2-3-4.2-5.2 0-.3 1.8-.5 2.1-.5.2 1.2.3 3.5 2 3.5 1.6 0 2-3.1 2-4.3 0-3-.3-5.5-3.9-5.5h-.5c-.7-.1-.8-1.7-.4-2.5 1.1.1 3 .3 3.3-1.1.3-1.4.6-2.9.6-4.4 0-1.1-.1-3.5-1.5-3.5-1.6 0-1.8 2.2-2 3.5-.3-.1-2.1-.4-2.1-.7 0-1.9 1.2-5.2 4.2-5.2 3.3 0 3.8 3.9 3.8 6.4 0 2.2-.1 5.1-2.4 6.2 2 .5 2.6 2.1 2.8 4.6.1.8.1 1.6.1 2.3 0 1.4-.2 2.9-.8 4.2-.5 1.3-1.7 2.2-3.1 2.2zM402.1 207.9c-.3-.1-1.4-.1-1.7-.4v-.3c0-1.3 0-1.6 1.4-1.6.9 0 1.7.1 2.6.1.6 0 1.3-.1 1.9-.1.5 0 1.2 0 1.2.6 0 .4.1.8.1 1.2 0 .9-2.2-.2-2.2 1.2 0 .3 0 .6.1 1 .1 3.4.2 6.8.2 10.1 0 3.5 0 7 .2 10.5v.7c0 .3 0 .6-.4.6-.3 0-.7-.2-.9-.3-.6-.2-.8-.1-.8-1 0-.4.1-.9.1-1.3 0-6.6-.4-13.2-.4-19.7-.3-1.2-.3-1.1-1.4-1.3zM415.2 228.2c-3.8 0-4.8-6.7-4.8-9.5 0-2.9.3-9.8 4.4-9.8 3.2 0 4.7 4.7 4.7 7.3 0 1.3-.7 1.5-1.8 1.5-1 0-2-.1-3-.1-.8 0-1.7.2-1.7 1.2 0 .5.1 1.1.2 1.6.1 1.3.2 5.5 2.1 5.5 1.9 0 1.3-3.7 1.8-3.9.2-.1.5-.2.7-.2.5 0 1 .1 1.5.1.4 0 .4.2.4.6 0 2.1-1.2 5-3.4 5.6-.4 0-.8.1-1.1.1zm-1.9-13c0 .3.6.3.8.3.7 0 1.4-.2 2.1-.3.5-.1.9 0 .9-.7 0-1.1-1-3.5-2.3-3.5-1.3 0-1.3 1.9-1.3 2.8v.7c-.2.3-.2.5-.2.7zM425.6 229.6c-2.4-.7-2.7-4.8-2.7-6.8 0-3.5 1.4-4.7 4.8-4.7.3 0 .6 0 .9.1-.8-2.1-6.3-1.9-6.3-6.4 0-.8.5-1.6 1-2.2 1.7-1.8 5.3-2.2 7.7-2.2h.5c0 .1.1.2.1.3 0 .6-.2 1.8-.4 2.4l-.1.2c-.6 0-1.2-.1-1.8-.1-1.1 0-4.2.3-4.2 1.8 0 2 4.5 2.3 5.3 6.3.3 1.4.4 2.9.4 4.3 0 3.2-.4 7.3-4.5 7.3-.2-.2-.4-.3-.7-.3zm-.1-5.4c0 1-.1 3.4 1.2 3.6.3-.1.6-.2.8-.4.6-1 1-3.9 1-5.2 0-.8-.1-1.5-.2-2.3-.9.1-1.7.3-2.4.9-.3 1.1-.4 2.3-.4 3.4zm1.3 4.7zM442.8 206.5c.1.1.1.3.1.5 0 .5-.1.9-.1 1.4 0 6.3-.3 12.6-.3 18.9 0 .5.1 1 .1 1.5 0 .9-.2.8-.9 1-.3.1-.6.2-.9.2-.4 0-.5-.4-.5-.7 0-.7.1-1.5.1-2.2 0-1-.1-2-.1-3.1 0-1.6.1-3.3.1-4.9-1 2.6-1.9 5.2-2.9 7.8-.5 1.2-.9 2.5-1.4 3.7-.1.3-.4.5-.8.5-.3 0-1.4-.6-1.4-.9 0 0 2.1-5.5 2.4-6.2.9-2.7 1.9-5.3 2.9-7.9-2.4-.4-3.6-3.1-3.6-5.2 0-2.5 1.4-4.8 4.1-4.8.4 0 .9.1 1.3.1.7-.2 1.5-.2 1.8.3zm-2.1 6c0-.8-.1-1.5 0-2.3 0-.4.1-.8.1-1.2 0-.3-.1-1.2-.4-1.2-1.7 0-2.6 1.2-2.6 2.8 0 1.3.7 3.6 2.3 3.6.6 0 .5-1 .5-1.4l.1-.3zM152.4 256.2c-.7 1.3-1.3 2.5-1.9 3.8-.3.7-.5 1.7-1.5 1.7h-.4c-1.2-.2-1.2-1-1.7-1.9l-2.1-3.9c-.6-1.2-1.1-2.4-1.7-3.6-.4-.8-.9-1.6-1.2-2.4-.2-.3-.4-1.2-.6-1.4 0 2.3.1 4.7.2 7 0 2.1.3 4.3.3 6.4 0 .6-.1.7-.8.7-.6 0-1.3-.3-1.6-.3h-.1c-.1 0-.2-.5-.2-.7 0-1 .1-2 .1-3v-9.8c0-.9-.1-1.8-.1-2.8 0-.4 0-1.9.5-1.9 1.5 0 1.7.1 2.4 1.3 1.2 2.2 2.5 4.4 3.7 6.6.4.8 2.6 5.7 3.2 5.7.1 0 .2-.3.2-.3.6-1 1-2 1.5-3 1.2-2.3 2.5-4.6 3.7-6.9.4-.7 1.1-2.6 1.8-3 .2-.1 1.1-.2 1.3-.2 1 0 .9.8.9 1.6 0 3.3 0 6.5.1 9.8 0 1.3.1 2.6.1 4 0 .6.2 1.3.2 1.9 0 .4-.1.8-.6.8-.2 0-.5-.1-.7-.2-.7-.3-.4.1-.6-.7-.1-.5-.1-1-.1-1.5 0-1.9-.1-3.9-.2-5.8 0-1.4 0-2.8-.1-4.2 0-.3 0-.7-.1-1 0 0 0-.2-.1-.2s-.4.5-.5.6c-1.2 2.2-2.1 4.5-3.3 6.8zM171 265.9c-.4.5-1.1.5-1.6.5-3.9 0-6.6-1.8-6.6-6 0-1.9.9-3.6 3-3.6 1.2 0 2.3.9 2.8.9h.2c0-2.7 0-12.1-1.2-14-.3-.5-.8-.9-1.5-.9-1.4 0-2.2 1.5-2.2 2.7 0 1.1 0 1.3-1.1 1.3-.5 0-1.8.1-1.8-.6s.5-1.9.8-2.5c.9-1.7 2.9-3.4 4.9-3.4.5 0 .9.1 1.4.3 2.4 1.1 2.7 5.7 3 8 .3 2.6.4 5.2.4 7.8 0 2.5-.1 5.1-.1 7.6-.2.5-.1 1.3-.4 1.9zm-5.7-5c0 1.7 1.3 3.1 3 3.1.6 0 .7-.6.7-1.1 0-.7-.2-1.4-.2-2.2 0-1.4-.4-1.7-1.7-1.7-1.1.1-1.8.9-1.8 1.9zM187.8 256.2c-.7 1.3-1.3 2.5-1.9 3.8-.3.7-.5 1.7-1.5 1.7h-.4c-1.2-.2-1.2-1-1.7-1.9l-2.1-3.9c-.6-1.2-1.1-2.4-1.7-3.6-.4-.8-.9-1.6-1.2-2.4-.2-.3-.4-1.2-.6-1.4 0 2.3.1 4.7.2 7 0 2.1.3 4.3.3 6.4 0 .6-.1.7-.8.7-.6 0-1.3-.3-1.6-.3h-.1c-.1 0-.2-.5-.2-.7 0-1 .1-2 .1-3v-9.8c0-.9-.1-1.8-.1-2.8 0-.4 0-1.9.5-1.9 1.5 0 1.7.1 2.4 1.3 1.2 2.2 2.5 4.4 3.7 6.6.4.8 2.6 5.7 3.2 5.7.1 0 .2-.3.2-.3.6-1 1-2 1.5-3 1.2-2.3 2.5-4.6 3.7-6.9.4-.7 1.1-2.6 1.8-3 .2-.1 1.1-.2 1.3-.2 1 0 .9.8.9 1.6 0 3.3 0 6.5.1 9.8 0 1.3.1 2.6.1 4 0 .6.2 1.3.2 1.9 0 .4-.1.8-.6.8-.2 0-.5-.1-.7-.2-.7-.3-.4.1-.6-.7-.1-.5-.1-1-.1-1.5 0-1.9-.1-3.9-.2-5.8-.1-1.4 0-2.8-.1-4.2 0-.3 0-.7-.1-1 0 0 0-.2-.1-.2s-.4.5-.5.6c-1.2 2.2-2.2 4.5-3.3 6.8zM202.4 262.8c-.4.1-.7.2-1.1.2-3.8 0-4.8-6.7-4.8-9.5 0-2.9.3-9.8 4.4-9.8 3.2 0 4.7 4.7 4.7 7.3 0 1.3-.7 1.5-1.8 1.5-1 0-2-.1-3-.1-.8 0-1.7.2-1.7 1.2 0 .5.1 1.1.2 1.6.1 1.3.2 5.5 2.1 5.5 1.9 0 1.3-3.7 1.8-3.9.2-.1.5-.2.7-.2.5 0 1 .1 1.5.1.4 0 .4.2.4.6 0 2-1.2 4.9-3.4 5.5zm-3-12.8c0 .3.6.3.8.3.7 0 1.4-.2 2.1-.3.5-.1.9 0 .9-.7 0-1.1-1-3.5-2.3-3.5-1.3 0-1.3 1.9-1.3 2.8v.7c-.1.3-.2.5-.2.7zM217 249.1c.1 3.6 0 7.1.1 10.7 0 .7.1 1.3.1 2 0 .2 0 .7-.4.7-.2 0-.4-.1-.6-.1-1-.2-1.2-.8-1.2-1.7 0-.8.2-3.7-.2-4.3-.3-.4-.6-.5-1-.5-.8 0-1.5-.3-2.2-.3-.6 0-.6.7-.6 1.1 0 .7.1 1.3.1 2 0 .6.2 1.2.2 1.8 0 .7-1 .8-1.6.8-.6 0-1.1-.1-1.1-.7s.2-1.1.2-1.6c0-1.1-.1-2.3-.1-3.4 0-2.9.2-5.7.2-8.6 0-.8-.1-1.6-.1-2.4 0-.3 0-.5.4-.5.6 0 2.1-.2 2.1.6 0 .5-.2 1-.2 1.5v1c0 1.3.1 2.6 0 3.8 0 .6-.2 1.1-.2 1.7 0 .6.4.8 1 .9.7.1 1.5.2 2.2.2.1 0 .4 0 .5-.1.4-.2.4-1.6.4-2 0-.9-.1-1.7-.1-2.6 0-.8.1-1.7.1-2.5 0-.5-.1-1-.1-1.5 0-.6.2-1 .9-1 .9 0 1.2.5 1.2 1.3v3.7zM224.4 255.7c1.4 1 2.5 2.8 2.5 4.5 0 .6-.2 1.2-.5 1.8-1.3 2.3-4.2 2.2-6.5 2.3-.1-1.1-.2-2.1-.2-3.2 0-3.7.3-7.4.3-11.2 0-2-.1-3.9-.1-5.9 0-1.4 0-1.8 1.6-1.8 1 0 1 .7 1 1.5 0 1.2-.2 2.4-.3 3.6-.1 1.2-.3 2.3-.3 3.5 0 .9-.1 1.7-.1 2.6.1 2.2 1.3 1.4 2.6 2.3zm-1.6 6c.9-.4 1.6-1.3 1.6-2.3 0-1-1.1-2.4-2.2-2.4-.5 0-.6.6-.6 1 0 .7.2 1.4.2 2.2 0 .4-.2 1.7.5 1.7.2-.1.4-.2.5-.2zM233.3 263.5c.1.6.2 1.2.2 1.8 0 .2-.1.6 0 .7-.2.4-1.6.4-2 .4-.7 0-.6-.1-.7-.7-.1-.5-.1-.9-.1-1.4 0-1 .1-1.9.1-2.9 0-7.1 0-14.2-.1-21.2.4 0 2.1 0 2.3.2.1.1.1.4.1.6 0 1.5-.1 2.9-.1 4.4v2.8c0 1.2-.2 2.4-.2 3.5.8-1.7 2.2-2.9 3.3-4.4.5-.6 2.5-3.4 2.9-3.6l1.1.8v.2c0 1.2-6.4 8-6.4 8.8 0 .3.4.8.6 1.1.5.8 4.4 8.4 4.4 8.8 0 .5-1 1-1.4 1-.5-.6-4.6-8.8-4.6-9.4.1 2.8.3 5.6.6 8.5zM249.7 248.9c-.4.2-2 4.2-2.4 4.9-1 1.8-2 3.7-2.7 5.7-.1.4-.3 1.6-.7 1.8-.2.1-1.2.2-1.5.2-.7 0-.7-1.8-.7-2.3 0-1.4.2-2.7.2-4.1 0-1.9-.2-3.9-.2-5.8v-2.2c0-.7-.1-1.5-.1-2.2 0-.6 1.4-1 1.8-1 .4 0 .4.5.4.8 0 3.4-.1 6.7-.1 10.1 0 .6 0 1.1.1 1.7.8-1 2.5-4.3 2.9-5.5.5-1.3 1.2-2.5 1.7-3.8.2-.6.6-2.4 1-2.8.3-.3.8-.4 1.2-.4.6 0 .8.4.8.9 0 .7-.2 1.3-.2 2 0 4 .2 8.1.2 12.1 0 .9 0 1.9-.1 2.8-.1 1-.1.8-1 .8-.2 0-.4.1-.6.1-.5 0-.5-1.1-.5-1.5 0-4 .5-7.9.5-11.9v-.4zM262.5 249.1c.1 3.6 0 7.1.1 10.7 0 .7.1 1.3.1 2 0 .2 0 .7-.4.7-.2 0-.4-.1-.6-.1-1-.2-1.2-.8-1.2-1.7 0-.8.2-3.7-.2-4.3-.3-.4-.6-.5-1-.5-.8 0-1.5-.3-2.2-.3-.6 0-.6.7-.6 1.1 0 .7.1 1.3.1 2 0 .6.2 1.2.2 1.8 0 .7-1 .8-1.6.8-.6 0-1.1-.1-1.1-.7s.2-1.1.2-1.6c0-1.1-.1-2.3-.1-3.4 0-2.9.2-5.7.2-8.6 0-.8-.1-1.6-.1-2.4 0-.3 0-.5.4-.5.6 0 2.1-.2 2.1.6 0 .5-.2 1-.2 1.5v1c0 1.3.1 2.6 0 3.8 0 .6-.2 1.1-.2 1.7 0 .6.4.8 1 .9.7.1 1.5.2 2.2.2.1 0 .4 0 .5-.1.4-.2.4-1.6.4-2 0-.9-.1-1.7-.1-2.6 0-.8.1-1.7.1-2.5 0-.5-.1-1-.1-1.5 0-.6.2-1 .9-1 .9 0 1.2.5 1.2 1.3v3.7zM265.5 253.2c0-4.2 1.7-8.9 6.6-8.9 5.1 0 6.1 6 6.1 9.9 0 4-1.7 8.7-6.5 8.7s-6.2-5.8-6.2-9.7zm2.2-.6c0 .6 0 1.2.1 1.8.2 2 1.5 6.3 4.1 6.3 3.3 0 4.3-4.9 4.3-7.4 0-2.3-.9-6.9-4-6.9-3.7 0-4.5 3.2-4.5 6.2zM286.7 252.1c-.9 2.1-3.7 4.9-3.7 7 0 .5.2 1.7.8 1.7 1.1 0 .5-1.3 1-1.7.3-.2 1.1-.2 1.5-.2h.7v.3c0 1.7-1.2 3.9-3.1 3.9-2 0-3.1-1.8-3.1-3.6 0-4 4.3-6.3 4.3-10.9 0-.9-.4-2.6-1.6-2.6-.7 0-1.2.9-1.2 1.6 0 .4.2.8.2 1.2 0 .7-.7 1.1-1.4 1.1-1 0-1.2-.9-1.2-1.7 0-2 1.2-4.5 3.5-4.5 2.7 0 3.9 2.8 3.9 5.1.1 1-.2 2.2-.6 3.3zM290.4 253.2c0-4.2 1.7-8.9 6.6-8.9 5.1 0 6.1 6 6.1 9.9 0 4-1.7 8.7-6.5 8.7s-6.2-5.8-6.2-9.7zm2.2-.6c0 .6 0 1.2.1 1.8.2 2 1.5 6.3 4.1 6.3 3.3 0 4.3-4.9 4.3-7.4 0-2.3-.9-6.9-4-6.9-3.7 0-4.5 3.2-4.5 6.2zM322.8 249.7v1h-.9c-.3 0-.5 0-.7-.1-.6-.2-.4 0-.6-.7-.3-1.7.2-7.4-2.4-7.4-2.3 0-2.3 5-2.3 6.5 0 1 .1 2 .1 3 0 1.9-.2 12 2.6 12 .9 0 1.4-1.1 1.6-1.8.2-.7.1-1.5.2-2.2.2-.8.2-.6.9-.7.5 0 1-.1 1.5-.2-.2 2-.1 4.4-1.4 6.1-.6.8-1.5 1.3-2.5 1.3-.8 0-1.6-.3-2.1-.9-3.1-3-2.9-9.2-2.9-13.2 0-2.1 0-4.3.2-6.4.2-2.7 1-6 4.5-6 .6 0 1.2.2 1.7.5 2.1 1.4 2.5 6.7 2.5 9.2zM331.9 263.4c-1.3 2.3-4.2 2.1-6.5 2.2-.1-.9-.1-1.9-.1-2.8 0-2.6.3-5.3.4-7.9.1-2.9.1-5.7.1-8.6 0-1.2-.1-2.4-.1-3.6 0-1.3.1-1.8 1.6-1.8.9 0 1 .5 1 1.2 0 1.3-.2 2.6-.3 3.9-.2 2.9-.4 5.8-.4 8.7 0 .5 0 1 .4 1.4.4.4 1.5.5 2.1.9 1.3.9 2.5 2.9 2.5 4.5-.2.7-.4 1.3-.7 1.9zm-4.7-4.1c0 .7.2 1.4.2 2 0 .4-.2 1.8.4 1.8 1.1 0 2.2-1.3 2.2-2.4 0-1-1.1-2.4-2.2-2.4h-.2c-.4.1-.4.7-.4 1zm9.3 4.6c0 .2-.1.6 0 .7-.2.3-1.4.4-1.8.4-.7 0-.6-.2-.7-.7 0-.4-.1-.8-.1-1.2 0-1 .1-2 .1-3 0-6 0-12-.1-18 .3 0 1.9 0 2.1.2.1.1.1.4.1.6 0 1.5-.1 2.9-.1 4.4 0 3.4.1 6.8.2 10.3 0 1.5 0 3.1.1 4.6.1.5.2 1.1.2 1.7zM347.4 249.1c.1 3.6 0 7.1.1 10.7 0 .7.1 1.3.1 2 0 .2 0 .7-.4.7-.2 0-.4-.1-.6-.1-1-.2-1.2-.8-1.2-1.7 0-.8.2-3.7-.2-4.3-.3-.4-.6-.5-1-.5-.8 0-1.5-.3-2.2-.3-.6 0-.6.7-.6 1.1 0 .7.1 1.3.1 2 0 .6.2 1.2.2 1.8 0 .7-1 .8-1.6.8-.6 0-1.1-.1-1.1-.7s.2-1.1.2-1.6c0-1.1-.1-2.3-.1-3.4 0-2.9.2-5.7.2-8.6 0-.8-.1-1.6-.1-2.4 0-.3 0-.5.4-.5.6 0 2.1-.2 2.1.6 0 .5-.2 1-.2 1.5v1c0 1.3.1 2.6 0 3.8 0 .6-.2 1.1-.2 1.7 0 .6.4.8 1 .9.7.1 1.5.2 2.2.2.1 0 .4 0 .5-.1.4-.2.4-1.6.4-2 0-.9-.1-1.7-.1-2.6 0-.8.1-1.7.1-2.5 0-.5-.1-1-.1-1.5 0-.6.2-1 .9-1 .9 0 1.2.5 1.2 1.3v3.7zM353.4 263.5c.1.6.2 1.2.2 1.8 0 .2-.1.6 0 .7-.2.4-1.6.4-2 .4-.7 0-.6-.1-.7-.7-.1-.5-.1-.9-.1-1.4 0-1 .1-1.9.1-2.9 0-7.1 0-14.2-.1-21.2.4 0 2.1 0 2.3.2.1.1.1.4.1.6 0 1.5-.1 2.9-.1 4.4v2.8c0 1.2-.2 2.4-.2 3.5.8-1.7 2.2-2.9 3.3-4.4.5-.6 2.5-3.4 2.9-3.6l1.1.8v.2c0 1.2-6.4 8-6.4 8.8 0 .3.4.8.6 1.1.5.8 4.4 8.4 4.4 8.8 0 .5-1 1-1.4 1-.5-.6-4.6-8.8-4.6-9.4 0 2.8.2 5.6.6 8.5z"/><path class="st12" d="M368.7 265.9c-.4.5-1.1.5-1.6.5-3.9 0-6.6-1.8-6.6-6 0-1.9.9-3.6 3-3.6 1.2 0 2.3.9 2.8.9h.2c0-2.7 0-12.1-1.2-14-.3-.5-.8-.9-1.5-.9-1.4 0-2.2 1.5-2.2 2.7 0 1.1 0 1.3-1.1 1.3-.5 0-1.8.1-1.8-.6s.5-1.9.8-2.5c.9-1.7 2.9-3.4 4.9-3.4.5 0 .9.1 1.4.3 2.4 1.1 2.7 5.7 3 8 .3 2.6.4 5.2.4 7.8 0 2.5-.1 5.1-.1 7.6-.3.5-.1 1.3-.4 1.9zm-5.7-5c0 1.7 1.3 3.1 3 3.1.6 0 .7-.6.7-1.1 0-.7-.2-1.4-.2-2.2 0-1.4-.4-1.7-1.7-1.7-1.2.1-1.8.9-1.8 1.9zM378.2 252.1c.1.3.2 1.2.2 1.6 0 .2-.5.5-.6.6-.9.8-3.1 3.2-3.7 4.2-.2.3-.4.5-.8.6h-.1c-.6 0-.7-1.3-.7-1.7v-.4c.2-.5.8-.8 1.1-1.2.8-.9 1.6-1.7 2.4-2.6-1.2-1.5-2.7-2.8-4-4.2v-.3c0-.5.4-1.5 1-1.5.1 0 .5.5.6.6.5.6 3.3 3.5 3.8 3.8.4.2.7.2.8.5zm4.7-.3c.1.3.2 1.4.2 1.7 0 .1-1.6 1.8-1.8 2.1-.8 1-1.8 2.1-2.4 3.2-.2.3-.6 1-1 1-.3 0-1.1-1.5-1.1-1.8 0-.4.4-.4.5-.7.3-.7.7-.8 1.1-1.3.8-1 1.6-1.9 2.4-2.9-1.1-1.5-2.7-3.2-4-4.6-.1-.1-.2-.2-.2-.4 0-.4.7-1.6 1.1-1.6.1 0 .5.6.6.7.5.7 3.3 3.9 3.8 4.2.4.1.7.1.8.4zM388.1 262.2c0 .4 0 .7-.4.8-.6.1-1.2.2-1.8.2-.5 0-.7-.3-.7-.8 0-.3.1-1.9.2-2.1.2-.3.6-.3 1-.3.6 0 1.4-.1 1.6.6.1.5.1 1 .1 1.6z"/></g></g></switch></svg>