<svg id="Layer_1" data-name="Layer 1" xmlns="http://www.w3.org/2000/svg" viewBox="0 0 521 457"><defs><style>.cls-1,.cls-13,.cls-16{fill:none}.cls-2{fill:#fff}.cls-6{fill:#1b1c20}.cls-8{fill:#de8d68}.cls-9{fill:#eca179}.cls-11{fill:#003b71}.cls-13{stroke:#ca5e34;stroke-linecap:round;stroke-linejoin:round;stroke-width:.77px}.cls-16{stroke:#fff;stroke-miterlimit:10;stroke-width:2.65px}</style><clipPath id="clip-path"><path class="cls-1" d="M325.6-449.43C311.46-449.78 282-510 232-510c-9.57 0-22.66 62.19-39.4 66.36-31.73 7.91-72.53 25-107.76 63.4C65.63-359.3 14.57-183.32 94.61-134 229.34-51 499-142 466.28-320.8 439.25-468.7 346.6-448.92 325.6-449.43z"/></clipPath><clipPath id="clip-path-2"><path class="cls-1" d="M325.6 76.57C311.46 76.22 226.76 18.62 211 20c-12.27 1.08-10.21 59.18-33.4 66.63a212.79 212.79 0 0 0-92.76 59.13C65.63 166.7 14.57 342.68 94.61 392c134.73 83 404.39-8 371.67-186.8C439.25 57.3 346.6 77.08 325.6 76.57z"/></clipPath><clipPath id="clip-path-3"><path class="cls-2" d="M241.86 153.6s-7.53-12.42-23.71-2.68c0 0 8.12 11.59 23.71 2.68z"/></clipPath><clipPath id="clip-path-4"><path class="cls-2" d="M258.29 153.5s7.22-10.81 15.06-2.06c0 0-7.06 11.14-15.06 2.06z"/></clipPath></defs><path d="M325.6 76.57c-14.14-.35-76.74-2.21-92.5-.83-27.61 2.42-94.44 11.36-148.26 70C65.63 166.7 14.57 342.68 94.61 392c134.73 83 404.39-8 371.67-186.8C439.25 57.3 346.6 77.08 325.6 76.57z" fill="#c4e5e5"/><g clip-path="url(#clip-path)"><path d="M295.76-206.7S317 7.9 316.44 63.05l-63.95 4.18-20-273.93z" fill="#020403"/><path class="cls-6" d="M207.44-206.7c-27.85 65.13-35.8 269.75-35.8 269.75l75.43 4.18 26.7-273.93z"/></g><g clip-path="url(#clip-path-2)"><path class="cls-6" d="M230.59 86S190 81.61 178.9 121.58c-5.43 19.49 6.69 52.17 26.35 55.25 67.78 10.62 36.23-.27 36.23-.27s51.94-17.27 42.94-56.62c-5.56-24.33-26-37-53.83-34"/><path class="cls-8" d="M260.16 157.69c1.13 7.38 4.47 10.38 14.18 9.06 7.4-1 12.17-9.63 11-17s-7-9.49-14.71-7.58c-5.34 1.31-11.63 8.13-10.47 15.52z"/><path class="cls-9" d="M211.53 165.03l-2.81 52.32 39.56-2.89-3.29-46-33.46-3.43z"/><path class="cls-8" d="M247.3 199.3c-33.7-4-36.67-37.38-36.67-37.38l34.24 5.21z"/><path class="cls-9" d="M225.59 91.8a58.15 58.15 0 0 1 26.31.06c11.61 2.87 26.4 8.27 27.24 29.1 1.4 34.72-4.18 60.43-22.23 67.54-13.85 5.46-23.61 2.74-38.77-6.69-5.64-3.51-10.77-13.29-12-20l-5.77-18.78s-16.12-42.11 25.22-51.23z"/><path class="cls-6" d="M260.62 135.13s-1.32 3.1 4.07 3.62a33.37 33.37 0 0 1 7.52 1.28 3.58 3.58 0 0 0 3.55-.84 2.39 2.39 0 0 0-.06-2.5c-.93-1.65-2.27-3.95-7.24-4.48-6.39-.67-7.84 2.92-7.84 2.92zM243.07 135.38s1.64 4-5.56 4.56a95.54 95.54 0 0 0-15.13 2.9 4.85 4.85 0 0 1-4.69-1.15 2 2 0 0 1 .16-2.86 31 31 0 0 1 15.32-6.36c8.53-.73 9.9 2.91 9.9 2.91z"/><path class="cls-2" d="M241.86 153.6s-7.53-12.42-23.71-2.68c0 0 8.12 11.59 23.71 2.68z"/><g clip-path="url(#clip-path-3)"><path class="cls-11" d="M239.94 151.59a5.79 5.79 0 1 1-6.53-4.93 5.78 5.78 0 0 1 6.53 4.93z"/></g><path d="M217.8 150.41a23.55 23.55 0 0 1 6.23-2.8 18.7 18.7 0 0 1 6.73-.82 14.42 14.42 0 0 1 6.4 2.09 13.36 13.36 0 0 1 4.7 4.72 13.2 13.2 0 0 0-4.85-4.45 14 14 0 0 0-6.28-1.74 17.83 17.83 0 0 0-6.42 1.08 22.68 22.68 0 0 0-5.81 2.94.62.62 0 0 1-.72-1z"/><path class="cls-2" d="M258.29 153.5s7.22-10.81 15.06-2.06c0 0-7.06 11.14-15.06 2.06z"/><g clip-path="url(#clip-path-4)"><path class="cls-11" d="M262.22 152.29c0 4.18 4.18 5 6.36 4.91a5.62 5.62 0 0 0 5.22-4.43c.81-3-.19-5.91-2.25-6.47s-9.33.91-9.33 5.99z"/></g><path d="M272.85 151.8a8.38 8.38 0 0 0-3.14-2.89 7 7 0 0 0-2-.67 4.25 4.25 0 0 0-1.07 0 6.65 6.65 0 0 0-1.09.15 10.2 10.2 0 0 0-4 1.88 14.64 14.64 0 0 0-3.19 3.24 15.08 15.08 0 0 1 3-3.49 10.77 10.77 0 0 1 4.08-2.23 7.83 7.83 0 0 1 1.17-.24 4.51 4.51 0 0 1 1.22-.06 7.39 7.39 0 0 1 2.35.59 9.69 9.69 0 0 1 3.76 3 .62.62 0 0 1-.11.86.63.63 0 0 1-.87-.1z"/><path class="cls-13" d="M255.53 161.46l3.34 5.51-3.17 3.03M247.34 174.41s6.11 10.88 12.19 0z"/><path class="cls-6" d="M209.5 94.39s15.93 18.79-5.08 56.82l-22.91-23.34 10.12-11.6z"/><path class="cls-9" d="M211.15 157.27c-1.73 7.27-5.31 10-14.87 7.88-7.29-1.61-11.34-10.6-9.62-17.86s7.73-8.89 15.28-6.36c5.26 1.76 10.93 9.07 9.21 16.34z"/><path class="cls-13" d="M194.27 148.67s6.93-1.43 9.18 8.43"/><path class="cls-6" d="M202.82 122.44c1.26.94 35.94 4.61 61-15.69 0 0-13.78-20.2-26.67-20.79-35.83-1.65-34.33 36.48-34.33 36.48z"/><path class="cls-6" d="M281.69 118.79c-5.78 3.52-26.56.07-41.68-28.46 0 0 7.1-2.15 19.37 1.85a31.81 31.81 0 0 1 22.31 26.61zM240 90.33s37.57-19.33 6.8-39.48-48.43-.71-47.61 10.88 7.86 38.28 17.43 36.59S240 90.33 240 90.33z"/><path class="cls-8" d="M299.4 263.91c10.28 4.94 22.06 8.77 30.39 16.88l6.21 56.56a19.83 19.83 0 0 1-17.49 21.81 19.82 19.82 0 0 1-21.81-17.49L287.51 258c3.92 2 7.91 4 11.89 5.91z"/><rect class="cls-9" x="131.82" y="272.88" width="39.54" height="114.95" rx="14.24" transform="rotate(-178.35 151.597 330.35)"/><path d="M314.61 422.66l-142.74 4.62s-11.8-76.66 24.46-69.67l94.54-7c15.4.04 23.74 72.05 23.74 72.05z" fill="#5f3335"/><path class="cls-9" d="M206.51 207.43s20-2.65 50.95-1.2c34.05 1.6-5 68.65-31.93 58.47s-19.02-57.27-19.02-57.27z"/><path d="M303.86 363.44c-3-28.86-8.85-49.78-11-65.48l54.06-18.38s-37.93-76.13-99.7-74.66l.07 11.56c-6.66 9.91-29.25 8.06-37-1l-.62-8.92c-69.89-.84-83.26 78.69-83.26 78.69l43 19.13c-.54 16.45-2.6 41.63-2.6 70.09l72.86-8.68z" fill="#f9d9c2"/><path class="cls-16" d="M177.86 374.25s-10.61 7.21.23 76.19c9.09 57.83 20.9 131.1 20.9 131.1M280.89 368s9.08 6.19 8.15 27.87"/><path class="cls-8" d="M132.32 362.08l94.82-23.5c.93 1.63 4.53 12.25 4.53 12.25l-71.48 41.37c-27.01 5.8-35.33-20.52-27.87-30.12z"/><path class="cls-8" d="M263.62 346.16c1.21-4.06-18.77-7-23.89-6.66l4.53-3.19c1.05-.92 2.55-3.76 1.56-5.38s-9.21 3.53-9.21 3.53c-4.61 2.05-20.28 7.75-20.28 7.75l-2.19 12.52c9.32 4.17 18.32 6.1 25.64 6.09 1.16 0 15.74 4.54 16.79 2.29.81-1.72-15.27-7.32-13.82-7.72.8-.22 16.58 6.54 19 3.31 1.48-2-17.74-6.62-17-7.79.46-.77 16.1 5.32 18.27 2.59 2.69-3.39-18.86-7.57-17.65-8.09.86-.41 17.42 3.59 18.25.75z"/><path class="cls-16" d="M292.83 297.96l-8.14-30.34M180.76 274.83l-11.43 29.58"/><path class="cls-9" d="M336.05 342.37l16.18-85.7c-1.88.09-13.72-6.15-13.72-6.15L299.34 337c-2.8 29.07 33.77 27.52 36.71 5.37z"/><path class="cls-9" d="M382.73 228.9c3.26 2.71-11.69 16.29-16.15 18.83l5.54.14c1.39.17 4.21 1.7 4.29 3.6s-9.62 2.18-9.62 2.18c-4.75.8-14.22 6.94-15.2 7.27l-14.21-5.73c.76-13 11.29-21.14 17.38-25.2 1-.65 10.56-12.53 12.68-11.25 1.63 1-8.61 14.58-7.19 14.1.79-.26 10.15-14.65 13.92-13.3 2.34.84-11.06 15.38-9.81 16 .81.38 10.42-13.38 13.73-12.31 4.13 1.32-11.45 16.78-10.16 16.53.98-.23 12.53-12.76 14.8-10.86z"/><path d="M386.12 102.75a19.35 19.35 0 0 1 3 6.58 29.83 29.83 0 0 1 .88 7.21 34.05 34.05 0 0 1-2.76 13.65 31.8 31.8 0 0 1-2.75 5.27 186.13 186.13 0 0 0-3.14 5 61.69 61.69 0 0 0-3.38 5.95 51.72 51.72 0 0 0-2.38 5.7 40.77 40.77 0 0 0-1.57 6c-.37 2-.69 4.32-.94 6.82a1.9 1.9 0 0 1-2.13 2h-4.63c-1.42 0-2.13-.75-2.13-2.26 0-.41 0-1.31.06-2.69s.12-2.84.25-4.39.25-3 .38-4.26a20.24 20.24 0 0 1 .31-2.44 42.75 42.75 0 0 1 4.57-8.65c1.8-2.58 3.51-5.2 5.14-7.83a53.69 53.69 0 0 0 4.2-8.33 26.83 26.83 0 0 0 1.75-10 19 19 0 0 0-.31-3.19 13.56 13.56 0 0 0-1.07-3.45 8.91 8.91 0 0 0-1.94-2.75 4.25 4.25 0 0 0-3.07-1.13 3.66 3.66 0 0 0-3.32 2.13 8.32 8.32 0 0 0-1.19 4 9.49 9.49 0 0 0 .31 2.44 9.58 9.58 0 0 1 .32 2.45 3.77 3.77 0 0 1-1.82 3.32 6.7 6.7 0 0 1-3.7 1.19q-2.88 0-3.82-2.2a11.57 11.57 0 0 1-.94-4.57 22.18 22.18 0 0 1 .94-6.2 21.14 21.14 0 0 1 2.7-5.83 14.23 14.23 0 0 1 4.38-4.29 11.27 11.27 0 0 1 6-1.63 12.94 12.94 0 0 1 6.7 1.82 16.8 16.8 0 0 1 5.1 4.56zm-18.05 71.93a26.3 26.3 0 0 1 4.07.25 3.91 3.91 0 0 1 2.32 1.06 4.47 4.47 0 0 1 1 2.39 28.41 28.41 0 0 1 .25 4.32c0 .75 0 1.56-.12 2.44a1.7 1.7 0 0 1-1.63 1.57c-1.17.08-2.34.21-3.51.37a24.39 24.39 0 0 1-3.51.26c-1.84 0-2.75-1.05-2.75-3.14v-1.75c0-.84 0-1.69.12-2.57s.17-1.71.25-2.51a2.82 2.82 0 0 1 .38-1.44 2 2 0 0 1 1.38-1.06 8 8 0 0 1 1.75-.19z"/></g></svg>