<svg id="Layer_1" data-name="Layer 1" xmlns="http://www.w3.org/2000/svg" viewBox="0 0 5731.56 3237.63"><defs><style>.cls-1,.cls-102,.cls-106,.cls-109,.cls-22,.cls-30,.cls-37,.cls-54,.cls-69,.cls-77,.cls-98{fill:none}.cls-2{fill:#fff}.cls-3{fill:#a7d1d0}.cls-4{fill:#97c1bf}.cls-5{fill:#c4e5e5;stroke:#1691c9}.cls-102,.cls-106,.cls-5,.cls-98{stroke-miterlimit:10}.cls-5{stroke-width:6px}.cls-8{fill:#1691c9}.cls-9{fill:#eca179}.cls-10{fill:#93aab5}.cls-11{fill:#f7f7f8}.cls-12{fill:#de8d68}.cls-13{fill:#1b1c20}.cls-14{fill:#39373a}.cls-15{fill:#f5d344}.cls-16{fill:#c96e3d}.cls-17{fill:#c46234}.cls-18{fill:#995300}.cls-20{fill:#604538}.cls-109,.cls-22,.cls-30,.cls-37,.cls-54,.cls-69,.cls-77{stroke:#ca5e34}.cls-109,.cls-22,.cls-30,.cls-37,.cls-54,.cls-69,.cls-77,.cls-98{stroke-linecap:round}.cls-109,.cls-22,.cls-30,.cls-37,.cls-54,.cls-69,.cls-77{stroke-linejoin:round}.cls-22{stroke-width:2.75px}.cls-24{fill:#8c6239}.cls-25{fill:#a67c52}.cls-26{fill:#dc835e}.cls-28{fill:#95bcba}.cls-29{fill:#5da39e}.cls-31{fill:#c15e28}.cls-33{fill:#663205}.cls-36{fill:#ffe6a1}.cls-37{stroke-width:1.93px}.cls-39{fill:#3181bc}.cls-43{fill:#f9d9c2}.cls-44{fill:#fbb817}.cls-45{fill:#98989c}.cls-47{fill:#8ecddc}.cls-48{fill:#e4464e}.cls-49{fill:#ffc569}.cls-50{fill:#ba502f}.cls-51{fill:#6cb9d3}.cls-54{stroke-width:2.65px}.cls-58{fill:#44756e}.cls-64{fill:#ffe449}.cls-66{fill:#21a498}.cls-69{stroke-width:2.61px}.cls-71{fill:#5f3335}.cls-72{fill:#aa664b}.cls-74{fill:#003359}.cls-75{fill:#003b71}.cls-76{fill:#800faa}.cls-77{stroke-width:3.02px}.cls-80{fill:#67918e}.cls-93{fill:#253a7d}.cls-94{fill:#f9ddc0}.cls-96{fill:#33476d}.cls-97{fill:#050705}.cls-98{stroke:#33476d;stroke-width:1.2px}.cls-102{stroke:gray;stroke-width:13.8px}.cls-106{stroke:#666}.cls-104{fill:#756f8e}.cls-105{fill:#333}.cls-106{stroke-width:4.6px}.cls-109{stroke-width:1.9px}</style><clipPath id="clip-path"><path class="cls-1" d="M2497.58 1917.63s13.72-20.75 40.77-3c0 0-14.68 19.29-40.77 3z"/></clipPath><clipPath id="clip-path-2"><path class="cls-1" d="M2469.45 1916.37s-11.64-19-25.66-4.54c0 0 11.36 19.55 25.66 4.54z"/></clipPath><clipPath id="clip-path-3"><path class="cls-1" d="M4775 1947.23s11.45-21.19 39-6.39c.05 0-12.45 19.86-39 6.39z"/></clipPath><clipPath id="clip-path-4"><path class="cls-1" d="M4747.76 1948.42s-12.85-17.31-25.13-2.18c0 0 12.63 17.87 25.13 2.18z"/></clipPath><clipPath id="clip-path-5"><path class="cls-1" d="M1105.22 1992.92s-12.17-19.92-38.12-4.2c0 0 13.11 18.59 38.12 4.2z"/></clipPath><clipPath id="clip-path-6"><path class="cls-1" d="M1131.64 1992.68s11.55-17.41 24.2-3.39c.05 0-11.31 17.94-24.2 3.39z"/></clipPath><clipPath id="clip-path-7"><path class="cls-1" d="M1496.47 2015.36s10.4-19.21 35.42-5.77c0 .04-11.35 18.04-35.42 5.77z"/></clipPath><clipPath id="clip-path-8"><path class="cls-1" d="M1471.78 2016.42s-11.65-15.71-22.79-2c.01.01 11.44 16.21 22.79 2z"/></clipPath><clipPath id="clip-path-9"><path class="cls-1" d="M2043.33 1936.43s-16-18-39.54 2.76c0 0 16.76 16.49 39.54-2.76z"/></clipPath><clipPath id="clip-path-10"><path class="cls-1" d="M2070.14 1931.32s8.54-19.83 24-7.9c-.01 0-8.2 20.32-24 7.9z"/></clipPath><clipPath id="clip-path-11"><path class="cls-1" d="M3025 1913.63s-12.83-19.42-38.14-2.82c.03-.01 13.72 18.05 38.14 2.82z"/></clipPath><clipPath id="clip-path-12"><path class="cls-1" d="M3051.29 1912.44s10.89-17.76 24-4.25c0 0-10.62 18.28-24 4.25z"/></clipPath><clipPath id="clip-path-13"><path class="cls-1" d="M3499.83 2003.2c1.23-6.78 13.15-3.6 16.63-3.74 3.13-.12 13.18.74 15 4.37-2.07 8.19-10.62 10.46-17.81 10.81s-15.06-4.67-13.82-11.44z"/></clipPath><clipPath id="clip-path-14"><path class="cls-1" d="M3474.16 2002c-2-3.47-7.15-3.67-10.8-3.64-2.79 0-7.22.73-8.88 3.69.61 5.64 4.27 9.54 10.2 9.86s9.53-4 9.48-9.91z"/></clipPath><clipPath id="clip-path-15"><path class="cls-2" d="M4137.6 2284.27s-15.84-19.58-41.38.93c0 0 16.67 18.02 41.38-.93z"/></clipPath><clipPath id="clip-path-16"><path class="cls-2" d="M4165.83 2280.26s9.89-20.26 25.41-7.06c0 0-9.55 20.8-25.41 7.06z"/></clipPath></defs><path class="cls-3" d="M4659.51 2648l-142.69-28.61c-126.52-25.41-239-85.69-367.19-112.31-167.85-37.71-344.19-59.65-518.68-79.1-219.3-24.43-440.22-43-661.35-58.73-285.83-20.29-571.82-35.83-859.3-39-252.45-2.74-275.44 86.1-520.51 130-138.58 24.83-315.6-36.32-425 25.29-103.47 58.26-218.09 100.12-325.44 150.13-88.25 41.1-202.87 91.95-172.57 219.19 18.22 76.88 86.9 128.43 154.44 165.14 362.81 197 803.87 168.67 1200.64 174q673.11 9.08 1346.25-4.07 491.83-9.58 983.36-31.07c165.45-7.22 333.28-8.36 498.13-24.8 113.15-11.3 238.71-92 288.4-201.68 15.8-34.85 24.41-75.43 12.73-112-22.42-70.22-104.25-94.59-174.16-108.64z"/><path class="cls-4" d="M946 2535.33s1311 513.73 3746.59-5.58z"/><path class="cls-3" d="M1149.83 1904.67h182.76v746.24h-182.76z"/><path class="cls-3" d="M1149.83 1904.67h67.31v714h-67.31z"/><path class="cls-3" d="M828.89 1275.63c1.48-5.5 2.77-11.07 4.48-16.47-83.11-33.25-141.9-114.37-141.9-209.37 0-124.59 101-225.59 225.58-225.59a225.71 225.71 0 0 1 53.22 6.58 387.55 387.55 0 0 1-17.64-115.88c0-214.21 173.66-387.9 387.87-387.9s387.83 173.59 387.83 387.83a393.5 393.5 0 0 1-2.82 45c77.1 49.92 128.23 136.53 128.23 235.22a278.9 278.9 0 0 1-66.85 181.41 238.45 238.45 0 0 1 66.84 165.7c0 4.21-.41 8.32-.62 12.48 79 28.64 135.54 104.11 135.54 193 0 113.48-92 205.47-205.48 205.47a205.33 205.33 0 0 1-59.69-8.87 337.32 337.32 0 0 1 4.84 54.76c0 185.87-150.68 336.55-336.55 336.55-162.53 0-298.14-115.22-329.63-268.43-60.37 54.79-140.25 88.47-228.25 88.47-187.85 0-340.14-152.29-340.14-340.14 0-186.11 149.6-337.12 335.14-339.82z"/><path class="cls-3" d="M1785.43 1590.63c.21-4.16.63-8.26.63-12.47a238.51 238.51 0 0 0-66.84-165.7 278.93 278.93 0 0 0 66.84-181.4c0-98.69-51.14-185.29-128.24-235.22a389 389 0 0 0 2.82-45C1660.64 736.62 1487 563 1272.78 563c-132.47 0-249.3 66.52-319.27 167.87-.48-7.85-.91-15.71-.91-23.68 0-214.21 173.66-387.86 387.86-387.86S1728.33 493 1728.33 707.16a391.24 391.24 0 0 1-2.82 45c77.1 49.93 128.23 136.53 128.23 235.22a278.93 278.93 0 0 1-66.84 181.4 238.45 238.45 0 0 1 66.84 165.7c0 4.21-.41 8.31-.62 12.47 79 28.64 135.54 104.12 135.54 193 0 67.86-33.31 127.53-84 165-22.1-52.85-65.13-94.71-119.23-114.32zm2126.47 477.76h238.43V3042H3911.9z"/><path class="cls-3" d="M3911.9 2068.39h87.82v931.5h-87.82z"/><path class="cls-3" d="M3493.13 1247.63c1.93-7.18 3.61-14.45 5.85-21.49-108.44-43.36-185.09-149.2-185.09-273.13 0-162.55 131.77-294.32 294.32-294.32a294.28 294.28 0 0 1 69.42 8.58 505.67 505.67 0 0 1-23-151.19c0-279.47 226.57-506 506-506s506 226.56 506 506a508.12 508.12 0 0 1-3.68 58.74C4763.54 640 4830.26 753 4830.26 881.7a364 364 0 0 1-87.21 236.67c53.9 56.13 87.21 132.21 87.21 216.18 0 5.49-.55 10.85-.83 16.27 103.09 37.37 176.86 135.81 176.86 251.81 0 148-120 268.07-268.08 268.07a267.94 267.94 0 0 1-77.88-11.57 439.94 439.94 0 0 1 6.32 71.45c0 242.49-196.59 439.08-439.08 439.08-212 0-389-150.33-430.07-350.22-78.78 71.5-183 115.43-297.79 115.43-245.09 0-443.77-198.68-443.77-443.77 0-242.87 195.17-439.88 437.19-443.47z"/><path class="cls-3" d="M4741.14 1658.63c.28-5.43.83-10.78.83-16.28 0-84-33.31-160-87.21-216.18a364 364 0 0 0 87.24-236.66c0-128.76-66.72-241.75-167.31-306.89a512.43 512.43 0 0 0 3.68-58.73c0-279.48-226.56-506-506-506-172.83 0-325.25 86.79-416.55 219-.61-10.23-1.18-20.49-1.18-30.89 0-279.47 226.57-506 506-506s506 226.56 506 506a512.61 512.61 0 0 1-3.68 58.74c100.59 65.14 167.3 178.13 167.3 306.89a364 364 0 0 1-87.2 236.66c53.9 56.14 87.2 132.21 87.2 216.18 0 5.49-.54 10.85-.82 16.27 103.07 37.38 176.84 135.84 176.84 251.81 0 88.53-43.45 166.39-109.61 215.21-28.75-68.89-84.92-123.5-155.5-149.13z"/><path class="cls-5" d="M1098.88 1182.3H4654v1469.62H1098.88z"/><path class="cls-5" d="M1022.23 1144.31h3693.69v101H1022.23z"/><path class="cls-5" d="M1983.24 630.94H3752v2021H1983.24z"/><path class="cls-5" d="M1983.24 535H3752v96H1983.24zm-760.19 857.28h233.6v237.81h-233.6z"/><path class="cls-5" d="M1328.87 1392.24h19.07v237.81h-19.07z"/><path class="cls-5" d="M1223.05 1502.09h233.6v19.32h-233.6zm0-131.27h233.6v21.42h-233.6zm-21.19 0H1223v259.23h-21.18z"/><path class="cls-5" d="M1456.64 1370.82h22.56v259.23h-22.56zm-254.78 259.23h277.34v25.28h-277.34zm392.62-237.81h233.6v237.81h-233.6z"/><path class="cls-5" d="M1700.3 1392.24h19.07v237.81h-19.07z"/><path class="cls-5" d="M1594.48 1502.09h233.6v19.32h-233.6zm0-131.27h233.6v21.42h-233.6zm-21.18 0h21.18v259.23h-21.18zm254.78 0h22.56v259.23h-22.56zm-254.78 259.23h277.34v25.28H1573.3zm-350.25 141.07h233.6v237.81h-233.6z"/><path class="cls-5" d="M1328.87 1771.12h19.07v237.81h-19.07z"/><path class="cls-5" d="M1223.05 1881h233.6v19.31h-233.6zm0-131.27h233.6v21.42h-233.6zm-21.19 0H1223V2009h-21.18z"/><path class="cls-5" d="M1456.64 1749.7h22.56v259.23h-22.56zm-254.78 259.23h277.34v25.28h-277.34zm392.62-237.81h233.6v237.81h-233.6z"/><path class="cls-5" d="M1700.3 1771.12h19.07v237.81h-19.07z"/><path class="cls-5" d="M1594.48 1881h233.6v19.31h-233.6zm0-131.27h233.6v21.42h-233.6zm-21.18 0h21.18v259.23h-21.18zm254.78 0h22.56v259.23h-22.56zm-254.78 259.2h277.34v25.28H1573.3zM1223.05 2150h233.6v237.8h-233.6z"/><path class="cls-5" d="M1328.87 2150h19.07v237.8h-19.07z"/><path class="cls-5" d="M1223.05 2259.84h233.6v19.32h-233.6zm0-131.27h233.6V2150h-233.6zm-21.19 0H1223v259.23h-21.18z"/><path class="cls-5" d="M1456.64 2128.57h22.56v259.23h-22.56zm-254.78 259.23h277.34v25.28h-277.34zm392.62-237.8h233.6v237.8h-233.6z"/><path class="cls-5" d="M1700.3 2150h19.07v237.8h-19.07z"/><path class="cls-5" d="M1594.48 2259.84h233.6v19.32h-233.6zm0-131.27h233.6V2150h-233.6zm-21.18 0h21.18v259.23h-21.18zm254.78 0h22.56v259.23h-22.56zM1573.3 2387.8h277.34v25.28H1573.3zm2692-995.56h233.6v237.81h-233.6z"/><path class="cls-5" d="M4371.08 1392.24h19.07v237.81h-19.07z"/><path class="cls-5" d="M4265.26 1502.09h233.6v19.32h-233.6zm0-131.27h233.6v21.42h-233.6zm-21.19 0h21.18v259.23h-21.18z"/><path class="cls-5" d="M4498.85 1370.82h22.56v259.23h-22.56zm-254.78 259.23h277.34v25.28h-277.34zm21.19 141.07h233.6v237.81h-233.6z"/><path class="cls-5" d="M4371.08 1771.12h19.07v237.81h-19.07z"/><path class="cls-5" d="M4265.26 1881h233.6v19.31h-233.6zm0-131.27h233.6v21.42h-233.6zm-21.19 0h21.18V2009h-21.18z"/><path class="cls-5" d="M4498.85 1749.7h22.56v259.23h-22.56zm-254.78 259.23h277.34v25.28h-277.34zm21.19 141.07h233.6v237.8h-233.6z"/><path class="cls-5" d="M4371.08 2150h19.07v237.8h-19.07z"/><path class="cls-5" d="M4265.26 2259.84h233.6v19.32h-233.6zm0-131.27h233.6V2150h-233.6zm-21.19 0h21.18v259.23h-21.18z"/><path class="cls-5" d="M4498.85 2128.57h22.56v259.23h-22.56zm-254.78 259.23h277.34v25.28h-277.34zM1098.88 2572H4654v79.94H1098.88zm0-1326.63h884.36v65.49h-884.36zm2653.09 0h902v65.49H3752zM1983.24 535H3752v48H1983.24zm-961 609.35h961v50.52h-961zm2729.74 0h964v50.52H3752z"/><path class="cls-4" d="M4432.23 2418.8s264.31 98.54 286.34 327.51h50.34s-25.19-266.64-336.68-327.51z"/><path class="cls-4" d="M4778.77 2693c16.76-174.25 217.92-249.25 217.92-249.25-237.08 46.36-256.24 249.25-256.24 249.25z"/><path class="cls-4" d="M5086.56 2442.08s-264.33 98.56-286.33 327.51h-50.35s25.17-266.59 336.68-327.51zm-481.93 275.78S4505 2536 4680.12 2381.72c0 0-128.21 161.27-42.91 317.57z"/><path class="cls-4" d="M4633.41 2268.5s-140.27 228.67-2.77 420.5l-39.4 28.86s-160.5-223.11 42.17-449.36zm322.73 480.83c0 36.82-83.83 66.66-187.22 66.66s-187.23-29.84-187.23-66.66 83.82-66.66 187.23-66.66 187.22 29.84 187.22 66.66zM544 2372.79s264.31 98.54 286.33 327.5h50.35s-25.17-266.6-336.68-327.5z"/><path class="cls-4" d="M881.79 2633.6s-19.16-202.93-256.24-249.25c0 0 201.16 75 217.93 249.25z"/><path class="cls-4" d="M1198.74 2371.91s-264.32 98.54-286.34 327.5h-50.35s25.19-266.65 336.69-327.5z"/><path class="cls-4" d="M885.14 2715.26s-99.64-181.85 75.5-336.15c0 0-128.21 161.27-42.92 317.57zm277.43-445s-140.26 228.67-2.76 420.49l-39.41 28.92s-160.51-223.21 42.17-449.45z"/><path class="cls-4" d="M1069 2718.26c0 36.82-83.82 66.66-187.22 66.66s-187.22-29.85-187.22-66.66 83.82-66.66 187.22-66.66 187.22 29.84 187.22 66.66z"/><path d="M2591.84 2220.26h254.78v65h-254.78zm48.53 180.42h254.78v65.05h-254.78z" fill="#b27044"/><path class="cls-5" d="M2107.05 724.39h1521.1V1037h-1521.1zm27.82 612.24h306.8V1649h-306.8z"/><path class="cls-5" d="M2273.86 1336.63h25V1649h-25z"/><path class="cls-5" d="M2134.87 1480.91h306.8v25.37h-306.8zm0-172.42h306.8v28.13h-306.8zm-27.82 0h27.82V1649h-27.82zm334.62 0h29.63V1649h-29.63zM2107.05 1649h364.26v33.2h-364.26zm611.5-312.34h306.8V1649h-306.8z"/><path class="cls-5" d="M2857.54 1336.63h25V1649h-25z"/><path class="cls-5" d="M2718.55 1480.91h306.8v25.37h-306.8zm0-172.42h306.8v28.13h-306.8z"/><path class="cls-5" d="M2690.73 1308.49h27.82V1649h-27.82zm334.62 0H3055V1649h-29.63zM2690.73 1649H3055v33.2h-364.27zm593.81-312.34h306.8V1649h-306.8z"/><path class="cls-5" d="M3423.53 1336.63h25V1649h-25z"/><path class="cls-5" d="M3284.54 1480.91h306.8v25.37h-306.8zm0-172.42h306.8v28.13h-306.8zm-27.82 0h27.82V1649h-27.82zm334.63 0H3621V1649h-29.63zM3256.72 1649H3621v33.2h-364.28zm-1121.85 274.88h306.8v312.34h-306.8z"/><path class="cls-5" d="M2273.86 1923.88h25v312.34h-25z"/><path class="cls-5" d="M2134.87 2068.16h306.8v25.37h-306.8zm0-172.41h306.8v28.13h-306.8zm-27.82 0h27.82v340.47h-27.82zm334.62 0h29.63v340.47h-29.63zm-334.62 340.47h364.26v33.2h-364.26zm1177.49-312.34h306.8v312.34h-306.8z"/><path class="cls-5" d="M3423.53 1923.88h25v312.34h-25z"/><path class="cls-5" d="M3284.54 2068.16h306.8v25.37h-306.8zm0-172.41h306.8v28.13h-306.8zm-27.82 0h27.82v340.47h-27.82zm334.63 0H3621v340.47h-29.63zm-334.63 340.47H3621v33.2h-364.28z"/><path d="M2593.45 1846.81h574.84v805.11h-574.84z" stroke-width="8" stroke-miterlimit="10" fill="#c4e5e5" stroke="#1691c9"/><path class="cls-5" d="M2690.73 1917.11h394.72V2572h-394.72zm1203.09-524.87h233.59v237.81h-233.59z"/><path class="cls-5" d="M3999.65 1392.24h19.07v237.81h-19.07z"/><path class="cls-5" d="M3893.82 1502.09h233.59v19.32h-233.59zm0-131.27h233.59v21.42h-233.59zm-21.18 0h21.18v259.23h-21.18zm254.78 0H4150v259.23h-22.56zm-254.78 259.23H4150v25.28h-277.36zm21.18 141.07h233.59v237.81h-233.59z"/><path class="cls-5" d="M3999.65 1771.12h19.07v237.81h-19.07z"/><path class="cls-5" d="M3893.82 1881h233.59v19.31h-233.59zm0-131.27h233.59v21.42h-233.59zm-21.18 0h21.18V2009h-21.18zm254.78 0H4150V2009h-22.56zM3872.64 2009H4150v25.28h-277.36zm21.18 141h233.59v237.8h-233.59z"/><path class="cls-5" d="M3999.65 2150h19.07v237.8h-19.07z"/><path class="cls-5" d="M3893.82 2259.84h233.59v19.32h-233.59zm0-131.27h233.59V2150h-233.59zm-21.18 0h21.18v259.23h-21.18zm254.78 0H4150v259.23h-22.56zm-254.78 259.23H4150v25.28h-277.36z"/><path class="cls-8" d="M2641.27 989q-24.15 1.65-48.16 1.52t-48.16-.14q-4.17 0-5.41-1.66a14.63 14.63 0 0 1-2.09-5.55 106.62 106.62 0 0 1-1.94-15.83q-.56-9.42-.69-19.43t0-19.57q.13-9.57.14-16.51 0-19.71.13-39t.7-39q.27-9.44.28-19.15t.83-19.43a23.69 23.69 0 0 1 1.25-5.83c.67-1.85 2.29-2.77 4.86-2.78a12.25 12.25 0 0 1 3.19.42q1.52.42 2.91.69c2.4.56 4.17 1 5.28 1.39s1.66 2.22 1.66 5.55a52.76 52.76 0 0 1-.55 7.64 50 50 0 0 0-.56 7.63q0 7.21.42 14.29t.41 14q.29 27.21.84 54t.55 54c0 2.59 0 5.22-.14 7.91a79.94 79.94 0 0 0 .14 8.19c0 1.85 1.39 3.37 4.17 4.58a48.76 48.76 0 0 0 9.43 2.91 84.79 84.79 0 0 0 10.27 1.53c3.33.28 5.65.51 6.94.69q-.55-12.48-.55-24.56t-.56-24.29q-.56-16.65-1.11-33.17t-1.94-33.17c-.19-2.4-.28-5-.28-7.77s0-5.55.14-8.33 0-5.64-.14-8.6a27 27 0 0 0-1.11-5.42 18 18 0 0 1-.83-5.41c0-3.33 1.39-5.36 4.16-6.11a32.58 32.58 0 0 1 8.33-1.11c4.07 0 6.62.65 7.63 2s1.52 3.89 1.53 7.77a87.63 87.63 0 0 1-.56 9.85 85.5 85.5 0 0 0-.55 9.86q0 32.21 1.53 64.39t2.35 64.68a46.37 46.37 0 0 0 11.8-2 41.12 41.12 0 0 1 12.08-1.66V949c0-3.15-.1-6.29-.28-9.44q-.56-23-.83-45.8t-.56-45.8q-.28-10.55-.14-21.38a176.86 176.86 0 0 0-1-21.09c-.37-2.59-.78-5.09-1.25-7.5a38 38 0 0 1-.69-7.21 24.38 24.38 0 0 1 .28-3.19 4.58 4.58 0 0 0-.28-2.92c.37-.74 1.29-1.29 2.77-1.66s3.1-.7 4.86-1a43.93 43.93 0 0 1 5-.55c1.58-.09 2.73-.14 3.47-.14q4.71 0 5 1.25c.19.83.46 2.45.84 4.86a78.35 78.35 0 0 1 .83 10.82q0 6.11-.56 12.22t-.55 12.21q0 32.76 1 65t1 64.68q0 7.21.28 15.26a79.21 79.21 0 0 1-.83 15q-1.17 6.18-7 6.47zm63-5.56c.37 3 .84 5.83 1.39 8.61a43.53 43.53 0 0 1 .84 8.6 20 20 0 0 1-.42 3.61 5.34 5.34 0 0 0 .14 3.33 5.37 5.37 0 0 1-3.33 2 41.69 41.69 0 0 1-5.42 1.12q-2.91.4-5.69.55c-1.85.09-3.33.14-4.44.14q-5 0-5.69-1.25a19.46 19.46 0 0 1-1.25-5.69c-.18-2.22-.37-4.44-.55-6.66s-.28-4.44-.28-6.66q0-6.95.56-13.88t.55-13.88q0-51.07-.28-101.45t-1.11-101.46h4.71q3.33 0 6.94.14a44.51 44.51 0 0 1 6.52.7c2 .37 3.1.83 3.47 1.38a3.88 3.88 0 0 1 .84 2.78v3.12q0 10.56-.42 21t-.42 20.68q0 6.93.14 13.6t.14 13.6a145.12 145.12 0 0 1-1 16.93q-1 8.33-1.25 16.93a81.61 81.61 0 0 1 14.57-21.92q9-9.72 17.07-20l5.69-7.63q4-5.41 8.47-11.24t8.34-10.54c2.59-3.15 4.34-4.9 5.27-5.28l10.83 7.28a2.08 2.08 0 0 0 .14.7 2.28 2.28 0 0 1 .13.69q0 3.06-4.44 9.85t-11.24 15.55q-6.81 8.75-14.71 18.32T2724.37 865q-6.81 8.32-11.38 14.43t-4.58 8c0 1.49.78 3.24 2.36 5.28a47.9 47.9 0 0 1 3.47 5q1.38 2 5 8.61t8.33 15.68q4.72 9 9.85 19t9.44 18.74q4.3 8.75 7.22 14.85c1.94 4.07 2.91 6.47 2.91 7.22a5 5 0 0 1-1.66 3.61 19.53 19.53 0 0 1-3.75 2.91 18.47 18.47 0 0 1-4.44 1.94 34.39 34.39 0 0 1-4 1 71.47 71.47 0 0 1-5.13-8.47q-3.75-6.79-8.6-16.38T2719.27 946q-5.26-10.83-9.71-20.26t-7.5-16.24c-2-4.53-3.11-7.16-3.33-7.91q0 20.55 1.39 40.94t4.15 40.9zm132.73-5.56q-17.48 0-29.14-9.3a67.81 67.81 0 0 1-18.6-23.31 112.46 112.46 0 0 1-9.85-30.26 170.93 170.93 0 0 1-2.92-30.11 147.9 147.9 0 0 1 3.19-30.4 85.81 85.81 0 0 1 10.69-27.34 60.27 60.27 0 0 1 19.63-19.85q12.21-7.62 30-7.63 18.32 0 29.7 9.58a67.46 67.46 0 0 1 17.9 23.74 110 110 0 0 1 8.88 30.81 221 221 0 0 1 2.38 30.83 133.6 133.6 0 0 1-3.33 29.28 86.76 86.76 0 0 1-10.68 26.79 61.42 61.42 0 0 1-19.16 19.57q-11.83 7.62-28.77 7.61zm3-157.66q-13 0-21.38 5.14a36.72 36.72 0 0 0-13 13.6 59.12 59.12 0 0 0-6.52 19.15 128.15 128.15 0 0 0-1.81 21.51q0 9.17.83 17.49a137.18 137.18 0 0 0 3.47 17.62 96.62 96.62 0 0 0 7.5 20 59.52 59.52 0 0 0 11.8 16.27 22.53 22.53 0 0 0 16.1 6.66q11.94 0 19.85-7.63a56.32 56.32 0 0 0 12.63-18.74 99.49 99.49 0 0 0 6.66-23.32 139.16 139.16 0 0 0 1.94-21.37 132.08 132.08 0 0 0-1.8-19.85A90.75 90.75 0 0 0 2870 845a54.72 54.72 0 0 0-11.8-17.49 25 25 0 0 0-18.22-7.23zm159.32 109.09c.37 1.66 1.15 4.66 2.36 9l3.75 13.46q1.93 6.94 3.47 12.77a44.36 44.36 0 0 1 1.53 7.22c0 1.66-.67 2.63-2 2.91a16.87 16.87 0 0 1-3.61.42l-3.88-.28a19.6 19.6 0 0 1-7.91-1.67 9 9 0 0 1-3.89-3.74 16.22 16.22 0 0 1-1.66-5.69 68.56 68.56 0 0 0-1.53-7.78q-2.22-10-5.14-19.7t-5.41-19.43q-2.49-10.54-4.72-20.82t-5-20.54c-.19-1.33-.56-3.79-1.11-7.36s-1.2-7.32-2-11.24-1.48-7.41-2.22-10.55-1.48-5-2.22-5.55q-3.33 20.26-6.24 40.11t-4.8 40.15q-1.11 11.1-3.19 21.93a192.74 192.74 0 0 0-2.92 21.93v4.72a5.2 5.2 0 0 1-.55 2.63 3.15 3.15 0 0 1-1.95 1.39c-.92.28-2.4.69-4.44 1.25a15 15 0 0 1-4.16.56 27.55 27.55 0 0 1-6.52-.84 28.37 28.37 0 0 1-6.25-2.22 142.24 142.24 0 0 1 4.72-31.78 262.48 262.48 0 0 0 6.38-31.78q2.77-20 5.83-39.56t6.11-39.55c.18-1.67.37-4 .55-7.08s.42-6.2.7-9.44a82.52 82.52 0 0 1 1.25-9c.55-2.78 1.39-4.62 2.5-5.55a11.62 11.62 0 0 1 5.82-1.67q3.89-.27 6.11-.27c1.11 0 2.4 0 3.89.14a11.73 11.73 0 0 1 3.61.69 9.11 9.11 0 0 1 3.33 3.61 20.69 20.69 0 0 1 2.08 5.69c.46 2.13.87 4.26 1.25 6.38s.64 3.85.83 5.14q6.1 28 13.19 55.51t14.07 55.52zm119.36 76.88a11.22 11.22 0 0 1-7.08 4 51.15 51.15 0 0 1-8.19.69 94.12 94.12 0 0 1-25.81-3.33 54.09 54.09 0 0 1-20.12-10.41 46.23 46.23 0 0 1-13-17.9q-4.58-10.83-4.58-25.81a49.34 49.34 0 0 1 1.67-12.91 32.29 32.29 0 0 1 5.13-11 26 26 0 0 1 8.88-7.64 26.93 26.93 0 0 1 12.92-2.88 28.36 28.36 0 0 1 8.33 1.25 52.11 52.11 0 0 1 7.63 2.91c2.3 1.11 4.43 2.09 6.38 2.92a12.59 12.59 0 0 0 4.58 1.24 2.4 2.4 0 0 0 .7-.13 2 2 0 0 1 .69-.14q0-6.66-.14-17.77t-.55-24.42q-.42-13.33-1.11-27.62t-2-26.93a207.88 207.88 0 0 0-3.33-22.48q-2.07-9.86-4.85-14.57a24 24 0 0 0-6.11-6.11 13.79 13.79 0 0 0-8-2.5 17.53 17.53 0 0 0-9 2.36 22.46 22.46 0 0 0-6.8 6.11 27.1 27.1 0 0 0-4.17 8.32 31.84 31.84 0 0 0-1.38 9.3c0 5.19-.47 8.61-1.39 10.27s-4.07 2.5-9.44 2.5h-4.86a36.83 36.83 0 0 1-5.55-.41 11.72 11.72 0 0 1-4.58-1.67 4.43 4.43 0 0 1-1.94-4 34.38 34.38 0 0 1 2.78-12.35q2.76-7.08 5-11.79a69.4 69.4 0 0 1 8.33-11.94 66 66 0 0 1 11.17-10.35 55.8 55.8 0 0 1 13.19-7.21 39.33 39.33 0 0 1 14.15-2.64 31.38 31.38 0 0 1 13.05 2.77q8.31 3.9 13.6 13.33a88.47 88.47 0 0 1 8.19 20.54 170.21 170.21 0 0 1 4.3 22.62q1.38 11.52 2.22 19.57 1.92 18.88 2.78 37.61t.83 37.61q0 18.31-.42 36.36t-.41 36.37q0 4.44.27 9.43a15.7 15.7 0 0 1-1.95 8.88zm-37.75-64.67q-7.77 0-12.07 5a18 18 0 0 0-4.31 12.21q0 12.76 8 21.37t20.82 8.61q4.44 0 5.41-3.47a25.25 25.25 0 0 0 1-6.8 47.93 47.93 0 0 0-1.11-10.27 47.93 47.93 0 0 1-1.12-10.55q0-10-3.33-13t-13.29-3.1z"/><path class="cls-9" d="M2546.64 2727.32l58.05 280.68 32.61-2-24.09-287z"/><path class="cls-10" d="M2596.54 3006.85s-48.61 9.52-71 23.1c-8.17 5-3.34 14.58-.68 16.52 6.11 4.47 101.9 2.06 123.63-.49 7.66-.9-1.72-31.31-11.2-40z"/><path class="cls-11" d="M2600.64 2988.51s-50.5 22.76-72.89 36.35c-8.16 4.95-6.64 14.21-6.64 14.21 6.11 4.46 108.36.39 130.1-2.16 0 0 2.84-20.55-11.85-48.4l-3 11.26-30.86.63z"/><path class="cls-9" d="M2411.75 2801.66l9.6 203.87 35.7.47 34.5-204.34z"/><path class="cls-10" d="M2416.3 3006.85s-48.61 9.52-71 23.1c-8.17 5-3.34 14.58-.68 16.52 6.11 4.47 101.9 2.06 123.63-.49 7.66-.9-1.72-31.31-11.2-40z"/><path class="cls-11" d="M2420.4 2988.51s-50.5 22.76-72.89 36.35c-8.16 4.95-6.64 14.21-6.64 14.21 6.11 4.46 108.36.39 130.1-2.16 0 0 2.84-20.55-11.85-48.4l-3 11.26-30.86.63z"/><path class="cls-12" d="M2431.17 2289.83l-102.08-115.42-40.91 11.77 86.31 141.75a41 41 0 0 0 32.22 19.53c11.88.89 23.85-2.69 31.08-12.13 11.75-15.31 8.8-35.55-6.62-45.5z"/><path class="cls-13" d="M2445.47 2349s-50.44 204-46.76 621.5l87.42 2.85 76.32-624.35z"/><path class="cls-14" d="M2608.75 2349c53 136.48 33.83 279.35 39.44 350.45 7.88 99.76 6 270.6 6 270.6l-74.3 10.08-44.89-258.22-48.9-373z"/><path class="cls-12" d="M2494.89 2189l-6 110.45c-1.41 20.63-19.58 37.74-39.74 37.43-18.44-.29-31.91-15.15-30.84-34l4.46-123.38z"/><path class="cls-15" d="M2508.83 2040.26c1.37-.45-77.19 28.31-104.18 140l98.87 77.95 12.37-117.34z"/><path class="cls-15" d="M2609.06 2055.27c9.42 11.6 31.24 46.44 30.52 62.1l25.53 371.63-251.63-19.69s15.62-296.51 43.07-367.27c32.12-82.82 121.93-84.37 152.51-46.73z"/><path class="cls-12" d="M2258.48 2090.55c6.94-7.4 37.21 30.28 42.66 41.29l1.11-13.21c.62-3.29 4.68-9.83 9.21-9.73s3.85 23.3 3.85 23.3c1.35 12 15.5 45 15.5 45l-30.2 25.87c-19.87-14.19-34.73-30.44-43.57-45.57-1.4-2.4-28.4-27-25-31.92 2.57-3.75 33.58 22.68 32.65 19.21-.52-1.92-33.54-26.34-29.78-35.17 2.33-5.47 35.14 28.63 36.7 25.75 1-1.89-30.47-26.82-27.45-34.59 3.75-9.66 38.43 29.79 38 26.66-.27-2.35-28.52-31.73-23.68-36.89z"/><path class="cls-9" d="M2701.43 2153.63l30.08 143.46c2 20.71-13.37 37-33.61 35.54-18.51-1.29-34.46-17-36.51-35.93l-20.16-152.23z"/><path class="cls-15" d="M2545.6 2040.18s163-46 192.08 165.81l-105.51 22.15-16.93-114.31z"/><path d="M2644.71 2225.51c-4.14 1.07-8.3 2-12.45 3a.42.42 0 0 1-.49-.29c-1.73-7.51-3.52-15-5.15-22.54s-3.29-15.07-4.85-22.61q-1.18-5.67-2.32-11.33c-.77-3.78-1.5-7.56-2.23-11.35-1.47-7.56-2.89-15.14-4.18-22.75 1.9 7.48 3.68 15 5.39 22.5.87 3.75 1.74 7.51 2.56 11.27s1.66 7.53 2.46 11.3q2.45 11.29 4.73 22.64c1.55 7.54 3 15.13 4.41 22.7l-.49-.33c4.19-.72 8.39-1.51 12.61-2.2z"/><path class="cls-16" d="M2469.89 1940.33c-2.43 12.57-8.35 17.48-24.88 14.57-12.6-2.22-20.19-17.31-17.77-29.87s12.59-15.78 25.69-12c9.15 2.6 19.4 14.73 16.96 27.3z"/><path class="cls-9" d="M2549.89 1952.19l19.6 113.23s-31.16 10.08-41.33 12.11c-18 3.61-35.74-5.81-35.74-5.81l2.79-111.94z"/><path class="cls-17" d="M2493.55 2028.15c24.7-7 45.52-50.52 45.52-50.52l-44-9.56z"/><path class="cls-9" d="M2533.5 1829.81a99.73 99.73 0 0 0-45.06-1.64c-20.07 4.14-45.75 12.4-48.58 48-4.71 59.35 3.12 103.75 33.55 117.13 23.36 10.26 40.24 6.26 66.83-8.88 9.89-5.63 19.33-22 21.9-33.39l11.13-31.76s30.4-71.08-39.77-89.46z"/><path class="cls-18" d="M2470.07 1891.44s.77 5.73-8.37 4.14c-6.94-1.22-8.89-1.34-13-1.3a6.12 6.12 0 0 1-5.49-3c-.67-1.42.42-3.29 1.24-4.11 2.29-2.3 5.54-5.5 14-4.1 10.86 1.78 11.62 8.37 11.62 8.37zm25.23-2.11s-2.43 7 9.94 7.28c9.4.2 20.77 2.46 26.15 3.53 3.06.6 6.4-.42 7.93-2.41a3.37 3.37 0 0 0-.39-4.75l-.16-.13c-3.24-2.74-15.38-9.08-26.8-9.43-14.67-.42-16.67 5.91-16.67 5.91z"/><path class="cls-2" d="M2497.58 1917.63s13.72-20.75 40.77-3c0 0-14.68 19.29-40.77 3z"/><g clip-path="url(#clip-path)"><path class="cls-13" d="M2508.2 1914.05a9.92 9.92 0 1 0 11.53-8 9.93 9.93 0 0 0-11.53 8z"/></g><path class="cls-20" d="M2537.69 1915.52a38.52 38.52 0 0 0-9.73-5.42 30.48 30.48 0 0 0-10.91-2.3 24 24 0 0 0-10.87 2.55 22.78 22.78 0 0 0-8.6 7.28 23 23 0 0 1 8.34-7.77 24.92 24.92 0 0 1 11.11-3.17 31.86 31.86 0 0 1 11.49 1.84 40 40 0 0 1 10.49 5.2 1.11 1.11 0 0 1 .31 1.54 1.09 1.09 0 0 1-1.52.31h-.06z"/><path class="cls-2" d="M2469.45 1916.37s-11.64-19-25.66-4.54c0 0 11.36 19.55 25.66 4.54z"/><g clip-path="url(#clip-path-2)"><path class="cls-13" d="M2461.81 1914.32c1.2 5.21-.72 10.09-4.28 10.92s-7.43-2.74-8.63-8 .72-10.09 4.28-10.91 7.43 2.78 8.63 7.99z"/></g><path class="cls-20" d="M2442.89 1911.15a19 19 0 0 1 3-2.88 15.43 15.43 0 0 1 3.65-2 12.6 12.6 0 0 1 4.07-.86 9.55 9.55 0 0 1 1.07 0 5.65 5.65 0 0 1 1 .17 12.42 12.42 0 0 1 2 .49 18.58 18.58 0 0 1 6.84 4.12 25.41 25.41 0 0 1 4.88 6.18 25 25 0 0 0-5.25-5.76 17.44 17.44 0 0 0-6.78-3.47 11.67 11.67 0 0 0-1.86-.32l-.92-.09a6.61 6.61 0 0 0-.89 0 11.15 11.15 0 0 0-3.53 1 14.59 14.59 0 0 0-5.55 4.73 1.11 1.11 0 1 1-1.79-1.32z"/><path class="cls-22" d="M2476.07 1950.87l-8.84-4.33 7.64-22.37m11.82 38c-8.26 8-21.24 1.65-21.24 1.65"/><path class="cls-18" d="M2574.57 1849.48s-56.7 13.73.62 79.62l10.62-63.4z"/><path class="cls-9" d="M2553.89 1942.88c2.47 12.56 8.42 17.45 24.93 14.48 12.59-2.26 20.13-17.38 17.66-29.94s-12.65-15.73-25.74-11.9c-9.14 2.66-19.35 14.8-16.85 27.36z"/><path class="cls-22" d="M2583.33 1929.28s-11.77-2.9-16.29 13.83"/><path class="cls-18" d="M2585.81 1865.7c-2.22 1.53-200.75 42.33-131-64.67 0 0-3.62 11.12 73.33 22.84 60.8 9.27 57.67 41.83 57.67 41.83z"/><path class="cls-9" d="M2584 2552.9c-9.27-4.1 4.86-42.56 11.09-53.15l-7.65 3.16c-3.09 1.28-7.66 3.17-10.06-.69s10.25-14.52 10.25-14.52c9.28-7.69 38.23-34 38.23-34l29.13 7.44c-1 24.4-6.44 45.73-14.26 61.42-1.24 2.48-1.65 29.86-7.6 29.73-4.54-.1-4.82-31.83-7.21-29.14-1.32 1.48 3.47 32.59-6 34.28-5.85 1-2.42-35.19-5.69-34.91-2.14.17.12 36-8 37.75-10.13 2.15-1.26-42.34-4.41-42.27-5.3.14-14.39 36.39-17.82 34.9z"/><path class="cls-9" d="M2661.83 2299l-47.67 180.71 31.77 1.26 80.37-158.87a37.83 37.83 0 0 0-1-36.58c-5.84-9.9-15.59-17.31-27.77-17.66-19.81-.57-35.64 13.28-35.7 31.14z"/><path d="M2651 2340l10.81-41" stroke-width=".88" stroke="#af4a25" stroke-miterlimit="10" fill="none"/><path class="cls-9" d="M4699.38 2723.94l7.65 275.43h37.82l22.1-275.43zm150.65 19.9l40.43 274.26 36.68-4.71-14.35-269.55z"/><path class="cls-24" d="M4702.69 3004.84s-40.52 11-62.42 24.28c-8 4.85-1.74 16.8 8.21 17.34 7.4.4 83.8-.83 105.08-3.32 7.49-.88-1.7-30.65-11-39.13z"/><path class="cls-25" d="M4706.7 2986.94s-26.84 17.8-64.09 40.25c-8.55 5.16-2.66 12.94 9.68 12.7 21.94-.43 85.73-3.44 103.91-5.58 0 0 4.29-20.11-10.09-47.37l-5.89 11-16.22.33a18.27 18.27 0 0 1-17.3-11.38z"/><path class="cls-24" d="M4885.51 3019.38s-47.58 9.31-69.48 22.61c-8 4.85-3.27 14.27-.67 16.17 6 4.37 99.74 2 121-.48 7.5-.88-1.69-30.65-11-39.13z"/><path class="cls-25" d="M4889.53 3001.43s-49.43 22.27-71.34 35.57c-8 4.85-6.51 13.91-6.51 13.91 6 4.37 106.07.39 127.35-2.11 0 0 2.78-20.11-11.6-47.37l-3 11-30.2.61z"/><path class="cls-9" d="M4703.21 2292.49l-59.23 184 29.44 2.19 87.79-160.68c6.33-11.56 7.45-25.52 2.07-37.56-4.62-10.31-13.07-18.2-24.37-18.9a33.76 33.76 0 0 0-35.7 30.93z"/><path class="cls-26" d="M4607.71 2530.7a71.84 71.84 0 0 0 2 32.68c.57 1.91 1.4 4 3.22 4.81a4.44 4.44 0 0 0 4.76-1 7.17 7.17 0 0 0 2-4.65c1.7.11 3.05-1.64 3.2-3.34a12.36 12.36 0 0 0-1.09-5 35.2 35.2 0 0 1-1-19.06 10.37 10.37 0 0 1 5.7-7.8c4.4-2.71 9.45-4.64 12.85-8.52a30.51 30.51 0 0 0 4.51-7.8 4.31 4.31 0 0 0-.42-5.46c-1.89-2.76-3.83-5.57-6.52-7.54a5.89 5.89 0 0 0-2.71-1.23 7 7 0 0 0-2.31.28 34.81 34.81 0 0 0-23.34 20.65z"/><path class="cls-9" d="M4645.93 2468.37c-15.45 15.74-35.84 36.21-41.68 43.77-3.31 4.27-4.6 8.44-5.28 13.81-1.25 9.7-.23 15.58 1.22 25.26.55 3.62 2 10.16 4.6 12.7s4 1.67 6.51-1c1.82-1.91 2-4.82 2-7.45.17-7.21-.4-12-.23-19.19a25.88 25.88 0 0 1 5.14-14.7c3.72-4.94 10.37-6.44 16.44-7.6-.06 9.55-3.44 17.46-7.75 26-2.4 4.71-4.54 9.9.35 11.9 2.74 1.12 5.71-.95 8-2.79 6.57-5.22 9.76-15.62 15.31-21.92 4.66-5.28 9.52-3.89 13.88-9.41 7-8.81 8.28-20.67 9.34-31.85a43 43 0 0 0-1.4-11 11.82 11.82 0 0 0-4.21-4.77c-7.23-5.46-18.96-5.13-22.24-1.76zm101.94-307.07l10.34 135c1 19.78-10.29 34.76-30.11 34.62-18.11-.12-27.36-16.42-27.36-16.42l-24.05-159.45z"/><path d="M4741.82 2335.23s-60.19 172-62.71 642.77l75.18 4.41 108.92-641.47z" fill="#ad532f"/><path class="cls-17" d="M4918.08 2358.65c25.33 68.18 17.67 147 6.83 363.62 0 0 13.54 101.14 19.26 145.43 8.64 66.8 11.9 120.43 11.9 120.43l-80.66.37-55.2-218.84a415.57 415.57 0 0 1-11.69-73.53l-24.5-358.9z"/><path class="cls-28" d="M4746.55 2232.94s-26.73 5.28-88.27-61l51.81-89.13c14.47-24.89 63.36-35.63 80.19-31l4.6 3.06c19.45 13.8 12 52.25 1.71 73.76z"/><path class="cls-29" d="M4811.39 2356.57l93.16 1.68c45.63 1.09 85.11-35 86.19-80.65l3-124.09c1.25-52.61-42-96.26-94.59-97.52l-80.53-1.38a82.63 82.63 0 0 0-84.58 80.63l-3.26 136.7a82.64 82.64 0 0 0 80.61 84.59z"/><path class="cls-28" d="M4827 2048.64s44.72.85 80 15.26c9.06 3.69 18.09 31.41 17.83 41.19l-6.83 253.56s-139.45 26.65-182.41-11l-5.93-248.12a23.45 23.45 0 0 1 14.08-22.06l50.13-21.86z"/><path class="cls-9" d="M4851.66 2062.65l-24.82-7.07H4794l-27.32 11.91s-8.92 26.11 24.87 27.93 52-20.29 60.16-32.77z"/><path class="cls-29" d="M4759.07 2053.12s-28.35 57.09-26.25 175.16c0 0-6.21-5.5-12.75-24.56-9.91-28.89-7-107.55 20.36-142a19.17 19.17 0 0 1 8-5.89c6.73-2.68 10.59-2.71 10.59-2.71z"/><path class="cls-9" d="M4938.14 2181.05l35.69 74.71a36.24 36.24 0 0 1-21 46.75c-.64.25-1.29.47-1.95.68a36.23 36.23 0 0 1-44.65-21.25l-28.23-92.81z"/><path class="cls-28" d="M4968.21 2208.39s-13.54 24-105.52 15.73l-21.56-103a50 50 0 0 1 38.71-59.17c1.47-.31 2.94-.55 4.43-.72a50 50 0 0 1 53.74 35.55z"/><path class="cls-29" d="M4903.61 2062.77s-67.68 52.33-53.59 193.82c0 0-39-26.77-39-75.47 0-24.61 5.69-90.81 59.55-125.54 0 0 6.93-6.79 26.06.36 7.3 2.72 7 6.83 7 6.83z"/><path class="cls-26" d="M4742.47 1957c-.67 12.91-5.91 18.65-22.85 18-12.92-.45-22.62-14.48-21.95-27.39s10.38-17.55 24-15.6c9.54 1.41 21.46 12.08 20.8 25z"/><path class="cls-30" d="M4711 1947.63s11.36-4.59 18.28 11.49"/><path class="cls-9" d="M4814.09 1958.12l25.15 111.09-58.44 5.85-5.92-100.73 39.21-16.21z"/><path class="cls-26" d="M4779.52 2044.71c24.23-9.26 41.29-54.89 41.29-54.89l-45.1-5.7z"/><path class="cls-9" d="M4802 1841.57a100.46 100.46 0 0 0-45.47 2.38c-19.83 6-44.93 16.56-44.59 52.63.56 60.13 12.41 104.11 44.22 114.84 24.42 8.25 41 2.71 66.44-14.9 9.45-6.55 17.48-23.88 19-35.55l8.35-32.94s24.22-74.21-48-86.46z"/><path class="cls-31" d="M4745 1915.31s2.8 4.85-6 6.79c-6.66 1.48-8.45 2.09-12.11 3.64a5.93 5.93 0 0 1-6-.66c-1.13-1-.85-3.09-.42-4.13 1.2-2.9 2.94-7 11-8.84 10.36-2.41 13.53 3.2 13.53 3.2zm28.4-1.5s-2.36 6.79 9.61 7.07c9.1.22 20.11 2.43 25.31 3.48 2.95.59 6.2-.39 7.68-2.32a3.25 3.25 0 0 0-.35-4.58l-.17-.14c-3.13-2.66-14.87-8.83-25.93-9.19-14.2-.47-16.15 5.68-16.15 5.68z"/><path class="cls-2" d="M4775 1947.23s11.45-21.19 39-6.39c.05 0-12.45 19.86-39 6.39z"/><g clip-path="url(#clip-path-3)"><path class="cls-33" d="M4786.84 1943.23a9.6 9.6 0 1 0 10.42-8.71 9.61 9.61 0 0 0-10.42 8.71z"/></g><path d="M4813.32 1942.08a37.08 37.08 0 0 0-9.73-4.44 29.45 29.45 0 0 0-10.63-1.37 23.14 23.14 0 0 0-10.22 3.28 21.84 21.84 0 0 0-7.72 7.68 22.34 22.34 0 0 1 7.3-8.29 24.13 24.13 0 0 1 10.47-4.12 31.1 31.1 0 0 1 11.33.71 39.81 39.81 0 0 1 10.69 4.07 1.45 1.45 0 0 1-1.43 2.53z"/><path class="cls-2" d="M4747.76 1948.42s-12.85-17.31-25.13-2.18c0 0 12.63 17.87 25.13 2.18z"/><g clip-path="url(#clip-path-4)"><path class="cls-33" d="M4741.32 1946.43c1.6 4.92.17 9.8-3.2 10.9s-7.4-2-9-6.92-.17-9.8 3.2-10.9 7.37 2 9 6.92z"/></g><path d="M4721.41 1945.45a16.43 16.43 0 0 1 6.19-5.33 12.74 12.74 0 0 1 3.95-1.16c.36 0 .71-.06 1.07-.07s.67 0 1 .09a11.13 11.13 0 0 1 2 .33 18 18 0 0 1 7 3.49 25.38 25.38 0 0 1 5.18 5.62 24.31 24.31 0 0 0-5.61-5 16.73 16.73 0 0 0-6.81-2.65 12 12 0 0 0-1.8-.13h-.88a7.94 7.94 0 0 0-.83.13 10.92 10.92 0 0 0-3.21 1.29 13.86 13.86 0 0 0-4.77 5 1.44 1.44 0 0 1-2 .52 1.46 1.46 0 0 1-.52-2z"/><path d="M4755.73 1954.48l-5.06 9.4 5.49 4.76m19.55 15.48s-13.36 9.72-26.79-.89" stroke-width="2" stroke-linejoin="round" stroke-linecap="round" stroke="#ca5e34" fill="none"/><path class="cls-9" d="M4832.57 1953.57c3.61 12.41 10 16.8 26.38 12.34 12.47-3.41 18.7-19.29 15.09-31.7s-14.12-14.7-26.95-9.68c-8.94 3.47-18.12 16.59-14.52 29z"/><path class="cls-30" d="M4861 1937.22s-12.1-1.86-15.15 15.37"/><path class="cls-31" d="M4707.59 1916l91.93-55.68s46 54.16 47.53 67.7 23.86-31 20.69-45.11-32.56-70.21-76.58-55.18-68.1 17.83-80.94 45.25c-8.67 18.57-2.63 43-2.63 43z"/><path class="cls-31" d="M4798.21 1855.16c8.25 12.93 16.22 26 24.37 39 4.08 6.47 8.19 12.92 12.64 19.07q3.36 4.62 7.07 8.9c1.24 1.43 2.51 2.82 3.85 4.14a36.34 36.34 0 0 0 4.15 3.59l-1.65.6c2-5.53 4-11 6.08-16.55s4.16-11 6.37-16.44c-1.59 5.66-3.3 11.29-5 16.91s-3.51 11.21-5.3 16.81l-.44 1.36-1.22-.76a23.9 23.9 0 0 1-2.45-1.82c-.76-.64-1.49-1.29-2.2-2q-2.13-2-4.09-4.17c-2.62-2.87-5-5.92-7.33-9s-4.45-6.31-6.54-9.54-4.14-6.48-6.09-9.78q-5.94-9.87-11.49-20c-3.73-6.68-7.37-13.48-10.73-20.32z"/><path class="cls-31" d="M4839.21 1848.78s74.37-93.48 121.6-21.1 27.4 187.52 27.4 187.52l-49.75 32.58-11.32-86.21-15.93 79.37-33.18-9.19s46.84-169.92-38-156.9c-23.91 3.66-.82-26-.82-26z"/><path class="cls-9" d="M4978.94 2565.77c-10-1.17-25.74-38.15-21.29-62.94 0 0-23 16.9-26.08 13.27s18.8-30.47 18.8-30.47c7.47-10.5 17.74-29 15.37-59.71l36.17-4.72c8.94 29.66 13.2 134.83.81 131.75-2.8-.7-3.31-31.61-5.59-30.14-3.78 2.43 5.92 42.45-2.86 40.1-1.55-.41-4.2-9.71-5.66-18.74-1.19-7.4-1.24-14.94-2.2-14.44-2.9 1.52 3.62 30.69 3.47 32.87-.42 6.15-4.14 4.87-5.39 2.29-.95-2-10.27-33-12.05-32.66-2.7.54 11.23 34.08 6.5 33.54z"/><path class="cls-9" d="M4912.73 2295l51.66 158.1 40.35-7.76-23.42-165.41a35.19 35.19 0 1 0-68.55 15.07z"/><path class="cls-36" d="M1213.48 2085.46c-30.06-37.3-24.25-60-30.23-96.43-21.67-132.09-97-91.3-97-91.3s-16.56 302.42 18.34 309.3 52.3-36 72.34-43.45a24.34 24.34 0 0 1 7-1.46 227.4 227.4 0 0 0-5.22-34.14s9.4 10.68 9.4 34.16c16 1.41 30.14 16 30.14 16s21.32-60.3-4.77-92.68z"/><path class="cls-36" d="M1100.79 1894.63s-83.41-51-96 108.54c0 0-7.25 50.9-31.16 86.43s-4.91 74.23-4.91 74.23 5.77-12 19-13.73c.57-11.9 3-31.59 12.4-40.52 0 0-10.29 15.08-9.37 40.31a30.54 30.54 0 0 1 9.39 1.4c4.15 1.27 9 4.35 14.37 8.45a103.63 103.63 0 0 1 7.52-20.64 222.15 222.15 0 0 0-5.74 22c23.28 18.32 55.76 53.63 85.07 47.13 37-8.15-.62-313.6-.62-313.6z"/><path class="cls-26" d="M1134.2 2012.23c1.3 12.46 6.67 17.75 23 16.31 12.48-1.1 21.15-15.17 19.85-27.63s-10.94-16.45-24-13.87c-9.16 1.79-20.16 12.73-18.85 25.19z"/><path class="cls-37" d="M1164.13 2001.56s-11.22-3.86-17.1 12"/><path class="cls-9" d="M1071.05 2014.27l-18.67 108.79 56.86 2.68.58-97.77-38.77-13.7z"/><path class="cls-26" d="M1108.89 2096.31c-23.92-7.73-42.75-51-42.75-51l43.35-7.81z"/><path class="cls-9" d="M1076.82 1900.9a97.25 97.25 0 0 1 44.12 0c19.49 4.75 44.32 13.73 45.84 48.66 2.52 58.22-6.7 101.38-36.94 113.39-23.21 9.22-39.58 4.71-65-11-9.48-5.86-18.14-22.22-20.25-33.43l-9.77-31.46s-27.29-70.65 42-86.16z"/><path class="cls-36" d="M1131 1969.71s-1 5.34 7.68 4.21c6.55-.87 8.39-.9 12.24-.7a5.76 5.76 0 0 0 5.26-2.6c.69-1.3-.26-3.1-1-3.9-2-2.24-5-5.37-13-4.4-10.18 1.24-11.18 7.39-11.18 7.39zm-15.9 2.11s.26 7-10.91 3.82c-8.49-2.38-19.32-3.46-24.44-4-2.9-.29-5.63-2.12-6.45-4.33a3.15 3.15 0 0 1 1.62-4.15l.2-.08c3.66-1.58 16.28-4 26.63-1.15 13.33 3.63 13.39 9.89 13.39 9.89z"/><path class="cls-2" d="M1105.22 1992.92s-12.17-19.92-38.12-4.2c0 0 13.11 18.59 38.12 4.2z"/><g clip-path="url(#clip-path-5)"><path class="cls-39" d="M1107.55 1989.63a9.31 9.31 0 1 1-10.54-7.9 9.3 9.3 0 0 1 10.54 7.9z"/></g><path d="M1066.67 1988.1a37.73 37.73 0 0 1 9.91-4.55 29.76 29.76 0 0 1 10.77-1.4 23.23 23.23 0 0 1 10.27 3.26 21.44 21.44 0 0 1 7.6 7.51 21.28 21.28 0 0 0-7.78-7.18 22.67 22.67 0 0 0-10.13-2.84 28.91 28.91 0 0 0-10.42 1.73 36.52 36.52 0 0 0-9.4 4.72.76.76 0 0 1-1-.17.73.73 0 0 1 .18-1z"/><path class="cls-2" d="M1131.64 1992.68s11.55-17.41 24.2-3.39c.05 0-11.31 17.94-24.2 3.39z"/><g clip-path="url(#clip-path-6)"><path class="cls-39" d="M1143.07 1989.63c-1.3 4.84.33 9.49 3.65 10.38s7-2.32 8.35-7.16-.33-9.49-3.65-10.38-7.05 2.34-8.35 7.16z"/></g><path d="M1155.23 1989.73a13.75 13.75 0 0 0-5.19-4.65 10.83 10.83 0 0 0-3.34-1 4.15 4.15 0 0 1-.86-.06l-.88.06a10.49 10.49 0 0 0-1.77.26 16.55 16.55 0 0 0-6.49 3.11 23.7 23.7 0 0 0-5.06 5.28 23.6 23.6 0 0 1 4.83-5.57 16.88 16.88 0 0 1 6.54-3.54 10.47 10.47 0 0 1 1.85-.38l1-.11a8.34 8.34 0 0 1 1 0 11.94 11.94 0 0 1 3.71 1 15.32 15.32 0 0 1 5.94 4.79.76.76 0 0 1-.14 1.06.75.75 0 0 1-1-.14z"/><path d="M1127.24 2005.49l5.38 8.84-5.07 4.89m-17.73 6s12.87 12.28 22.88 4.91" stroke-width="1.85" stroke-linejoin="round" stroke-linecap="round" stroke="#ca5e34" fill="none"/><path class="cls-9" d="M1052.89 2010.78c-2.86 12.2-8.85 16.77-24.9 13.29-12.24-2.66-19.08-17.71-16.22-29.91s12.92-14.94 25.59-10.74c8.87 2.93 18.43 15.21 15.53 27.36z"/><path class="cls-37" d="M1024.57 1996.44s11.62-2.42 15.45 14.1"/><path class="cls-36" d="M1172 1968.1l-91.8-49.19s-41.71 54.75-42.54 67.94-24.67-28.77-22.33-42.61 27.93-69.6 71.3-57.3 66.81 13.78 80.63 39.66c9.3 17.49 4.74 41.5 4.74 41.5z"/><path class="cls-36" d="M1081.22 1913.82q-4.71 10.11-9.71 20.07c-3.32 6.64-6.7 13.26-10.26 19.79s-7.09 13.08-11.23 19.29c-2.06 3.11-4.24 6.15-6.58 9.06-1.18 1.45-2.39 2.88-3.68 4.24a32.54 32.54 0 0 1-4.19 3.85l-.6.44-.27-.7-6.16-15.93-3-8-3-8 3.37 7.85 3.33 7.87 6.56 15.77-.87-.27a34.44 34.44 0 0 0 4-3.73c1.25-1.34 2.44-2.75 3.58-4.2 2.29-2.89 4.42-5.91 6.43-9 4-6.21 7.69-12.65 11.27-19.15s7.1-13 10.6-19.58z"/><path class="cls-9" d="M1147.47 2675.89l-7.79 280.49h-38.52l-22.5-280.49zm-89.93 16.67L1034.9 2979l-35.6.47-10.48-290.37z"/><path class="cls-8" d="M961.41 2685.63l-2.84 16.54c13.66 2.35 29 4.37 47.2 5.8l1.37-16.92c7.19.56 14.78 1 22.7 1.37l-.68 17c10.48.45 21.63.71 33.47.71s23-.26 33.5-.71l-.68-17q11.92-.54 22.72-1.37l1.38 16.92c18.17-1.43 33.58-3.45 47.19-5.8l-2.83-16.54c8.09-1.36 15.42-2.82 22-4.31l3.48 16.25c34.83-8.21 49-17.35 49-17.35l-98.18-353.44H985l-98.14 353.47s14.24 9.14 49.09 17.35l3.46-16.25c6.55 1.46 13.87 2.92 22 4.28z"/><path d="M935.89 2697.63c1.71-9.22 3.56-18.41 5.34-27.61l5.57-27.56c3.72-18.37 7.6-36.71 11.49-55.05s7.89-36.64 12-54.93l6.18-27.43c2.14-9.13 4.2-18.27 6.41-27.38-1.71 9.22-3.56 18.4-5.34 27.61l-5.54 27.56c-3.72 18.37-7.61 36.71-11.5 55s-7.89 36.65-12 54.94l-6.18 27.43c-2.14 9.12-4.21 18.26-6.41 27.38zm206.59-220c2.2 9.11 4.27 18.25 6.41 27.38l6.18 27.43c4.11 18.29 8.06 36.61 12 54.93s7.78 36.68 11.5 55.05l5.57 27.56c1.78 9.2 3.63 18.39 5.34 27.61-2.21-9.11-4.27-18.26-6.41-27.38l-6.18-27.43c-4.12-18.29-8.06-36.61-12-54.94s-7.78-36.67-11.5-55l-5.57-27.56c-1.78-9.26-3.63-18.44-5.34-27.65zm24.32 224.54c-1.84-9.3-3.54-18.62-5.31-27.92l-5.08-28c-3.39-18.64-6.6-37.31-9.81-56s-6.31-37.36-9.29-56.07l-4.46-28.07c-1.41-9.37-2.9-18.72-4.24-28.1 1.84 9.29 3.54 18.61 5.32 27.92l5.08 28c3.38 18.64 6.59 37.31 9.8 56s6.31 37.36 9.29 56.07l4.46 28.06c1.41 9.37 2.9 18.73 4.24 28.11zM1100.89 2479c1 9.52 1.92 19 2.87 28.52l2.61 28.45c1.73 18.93 3.26 37.88 4.77 56.86s2.91 38 4.28 57.22l4.19 58-5.18-56.55q-2.62-28.5-5.07-57.27t-4.6-57.65l-2.07-28.8c-.6-9.68-1.27-19.25-1.8-28.78zm-142.31 223.17c1.34-9.38 2.82-18.74 4.23-28.11l4.47-28.06q4.5-28.07 9.29-56.07t9.8-56l5.08-28c1.77-9.31 3.47-18.63 5.31-27.92-1.34 9.38-2.82 18.73-4.23 28.1l-4.47 28.07q-4.5 28.07-9.29 56.07t-9.8 56l-5.08 28c-1.77 9.3-3.47 18.62-5.31 27.92zm65.91-223.17c-.53 9.57-1.2 19.14-1.8 28.73l-2.06 28.77c-1.38 19.2-3 38.38-4.52 57.55s-3.27 38.29-5 57.29l-2.61 28.45-2.71 28.22 2-29 2.06-28.8c1.37-19.17 2.85-38.2 4.34-57.22s3.1-38 4.84-56.95l2.62-28.48c.92-9.56 1.81-19 2.84-28.56zm71.68 230.44l-1.22-29.29-1.34-29-2.82-57.48c-.89-19-1.71-38-2.31-57l-.87-28.56c-.2-9.54-.47-19.1-.6-28.69.64 9.57 1.13 19.17 1.69 28.8l1.43 28.93c.92 19.34 1.62 38.71 2.27 58l1.76 57.54 1 28.47zm-57.8-230c-.14 9.59-.41 19.18-.61 28.77l-.83 28.76c-.56 19.17-1.29 38.34-2 57.5s-1.58 38.33-2.55 57.49l-1.49 28.69c-.57 9.58-1.06 19.16-1.7 28.73.13-9.59.4-19.18.6-28.77l.83-28.76c.56-19.17 1.3-38.34 2-57.51s1.59-38.32 2.56-57.48l1.45-28.74c.61-9.55 1.1-19.12 1.74-28.7z" fill="#b7e1e1"/><path class="cls-9" d="M1140.68 2228.08l29.49 115.26c4.4 18.69 18.94 29.6 37.34 24.14 16.84-5 21.06-22.65 21.06-22.65l-30.94-140.9z"/><path class="cls-43" d="M1137.34 2286.38s26 23.57 84.83-41.41l-51.28-104.54a47.44 47.44 0 0 0-65.05-16.38c-1.23.74-2.43 1.53-3.59 2.37a47.45 47.45 0 0 0-14.63 59.4z"/><path class="cls-44" d="M1077 2390.47l-90.28 1.63c-44.22 1.05-82.48-33.94-83.53-78.16l-2.86-120.25c-1.22-51 40.68-93.29 91.66-94.5l78-1.34a80.11 80.11 0 0 1 82 78.15l3.15 132.5a80.09 80.09 0 0 1-78.13 82z"/><path class="cls-43" d="M1062.05 2098.8s-46.63 12.33-80.87 26.3a22.74 22.74 0 0 0-14.18 21.67l-1.9 247.9S1093 2424 1155.2 2377l1-235.65a22.72 22.72 0 0 0-13.64-21.38l-48.67-21.18z"/><path class="cls-9" d="M1038 2105.63l19-9.34 37 2.49 26.47 11.54s8.64 25.31-24.09 27.07-50.49-19.64-58.38-31.76z"/><path class="cls-44" d="M1129.64 2114.37s35.54 44.64 23.42 156.26c0 0 4.42-2.08 10.75-20.55 9.6-28 10.46-94-16.1-127.38a18.57 18.57 0 0 0-7.81-5.71c-6.49-2.59-10.26-2.62-10.26-2.62z"/><path class="cls-9" d="M961.89 2217.32l52.53 109.58a30.92 30.92 0 0 0 41.61 13.46c.53-.27 1-.56 1.57-.86a30.94 30.94 0 0 0 12.06-40.47l-55.25-118.51z"/><path class="cls-43" d="M968.89 2272.35s19.86 12.65 85.82-30.61l-25.2-86.26a42.69 42.69 0 0 0-53-29c-1.23.36-2.44.77-3.63 1.24a42.69 42.69 0 0 0-26.18 48.41z"/><path class="cls-44" d="M982.17 2121.94s65 20.27 68.81 134.41c0 0 8.17-12 10.19-32.94s-4-88.36-55.86-112.54a24.19 24.19 0 0 0-11.63 3.5 136.66 136.66 0 0 0-11.51 7.57z"/><path class="cls-45" d="M1144.1 2962s48.46 9.48 70.77 23c8.14 4.94 3.33 14.53.68 16.47-6.1 4.45-101.58 2-123.25-.49-7.63-.9 1.72-31.21 11.17-39.86z"/><path class="cls-36" d="M1140 2943.69s50.35 22.69 72.66 36.23c8.14 4.94 6.62 14.17 6.62 14.17-6.09 4.45-108 .39-129.69-2.15 0 0-4.37-20.49 10.28-48.25l6 11.25 29.31.6z"/><path class="cls-45" d="M1039.89 2980.27s48.46 9.48 70.77 23c8.14 4.94 3.32 14.53.68 16.47-6.1 4.45-101.58 2.05-123.25-.49-7.63-.9 1.72-31.21 11.17-39.86z"/><path class="cls-36" d="M1035.89 2962s50.35 22.69 72.66 36.23c8.14 4.94 6.62 14.17 6.62 14.17-6.09 4.45-108 .39-129.69-2.15 0 0-2.83-20.49 11.82-48.25l3 11.22 30.76.63z"/><path class="cls-9" d="M1175.35 2144.06c-8-5.5-16.25 3.11-22.9 14.26l-.71-8.19c-.28-3.31-.7-8.19-5.29-8.06s-6.78 3.92-7.6 6.85l-6.12 19c-2.62 12.09-1 27.85 3.64 40.57l13.59 13.79c75.86-36.3 43.24-66 25.39-78.27z"/><path class="cls-9" d="M1024.2 2294.33l115-105.85 23.1 25-94 120.39a29.7 29.7 0 0 1-41.64 5.38 28.84 28.84 0 0 1-3.69-3.38 29.68 29.68 0 0 1 1.23-41.54z"/><path d="M1063.08 2259.74l-29 26.18" stroke-width="1.51" stroke-linejoin="round" stroke-linecap="round" stroke="#ca5e34" fill="none"/><path class="cls-47" d="M1223.39 2541.21l42.08 16.05a4.94 4.94 0 0 1 4 5.68l-18.65 107.11a4.94 4.94 0 0 1-5.68 4l-42.09-16.05a4.92 4.92 0 0 1-4-5.68l18.65-107.11a4.93 4.93 0 0 1 5.69-4z"/><path class="cls-48" d="M1225.7 2540.1l42.09 16.05a4.92 4.92 0 0 1 4 5.68l-18.65 107.11a4.92 4.92 0 0 1-5.68 4l-42.08-16.05a4.92 4.92 0 0 1-4-5.67l18.62-107.11a4.94 4.94 0 0 1 5.7-4z"/><path class="cls-9" d="M1180.09 2379.85l33 137.23 24.66-22.67-8.82-154c-1-17.22-16.48-30.77-33.48-27.81-.91.16-1.82.36-2.73.61-19.33 5.23-28.06 10.71-12.63 66.64z"/><path class="cls-9" d="M1206.56 2490c-.64 8.42-3.38 15.82-5 24.34-2.59 13.75-5.22 28.92-3.25 42.91 1.14 8.16 5 15.63 8.9 22.92 1.08 2 3 4.45 5.19 3.56 1.25-.52 1.8-2 2.11-3.27 2-8.48-.3-17.52 1.51-26 .45-2.1 1.67-4.56 3.83-4.54 1.87 0 2.76 1.95 3.44 3.33 1.12 2.3 2.64 4.41 4 6.63 2.83 4.73 5.27 9.82 6 15.34a54.06 54.06 0 0 1 .26 8.63c-.09 3.69-.19 7.37-.3 11.06a23.4 23.4 0 0 0 .3 5.67 8 8 0 0 0 2.87 4.77 3.36 3.36 0 0 0 3.89.28 10.68 10.68 0 0 0 3.81 3.22 4.19 4.19 0 0 0 4.66-.69 6.36 6.36 0 0 1 .94-1 4.16 4.16 0 0 1 1.54-.46 8.48 8.48 0 0 0 5.57-4.84 25.23 25.23 0 0 0 1.85-7.39 7.39 7.39 0 0 0 4.56-4.83 22.16 22.16 0 0 0 .83-6.82q.18-11 .35-22a78 78 0 0 0-2.14-18c-1.44-6.7-4.21-13-7-19.3-5-11.52-14.34-22.17-17-34.56-.53-2.51-.93-5-1.26-7.54z"/><path class="cls-26" d="M1240.47 2604.63a73 73 0 0 0 2.07-8.24 77.14 77.14 0 0 0 1.24-8.41c.24-2.82.43-5.66.44-8.5a72.84 72.84 0 0 0-.4-8.48c-.1 2.83-.2 5.65-.36 8.46s-.38 5.62-.66 8.42-.62 5.6-1 8.39-.91 5.61-1.33 8.36zm9.49 1.21a87.87 87.87 0 0 0 1.67-9.25c.1-.78.2-1.56.29-2.34l.23-2.34c.07-.79.12-1.57.18-2.35l.14-2.35.08-2.36v-4.71c0-.78 0-1.56-.07-2.35a89.06 89.06 0 0 0-.82-9.37c0 3.14.08 6.26.06 9.38v4.68c0 .78 0 1.56-.07 2.34l-.1 2.34-.11 2.34c0 .78-.11 1.56-.15 2.33l-.16 2.34c-.07.78-.13 1.55-.19 2.33-.33 3.13-.65 6.22-1 9.34zm8.15-12.9a67.73 67.73 0 0 0 1-7.22c.21-2.42.39-4.85.45-7.28s0-4.87-.07-7.3a63.17 63.17 0 0 0-.66-7.26c-.06 2.43-.08 4.85-.11 7.28s-.07 4.83-.14 7.25-.14 4.84-.22 7.26-.19 4.84-.25 7.27z"/><path class="cls-47" d="M1227.65 2607.63c-3.88-11.22 1.49-25.12-.38-36.72-1.2-7.47-4.58-14.26-7.49-21.22a4.9 4.9 0 0 0-3.53 3.87l-17.17 98.58c7.78-3.79 15.17-10.68 20.54-15.69 8-7.48 11-11 14.53-21.49-1.86-1.18-5.75-5.14-6.5-7.33z"/><path class="cls-48" d="M1234 2604.2c-3.88-11.22-2-20.31-3.86-31.91-1.19-7.39-7.36-15.47-10.26-22.37a4.94 4.94 0 0 0-1.3 2.56l-17.16 98.52c8.61 1.49 17.81-3 22.64-7.52 8-7.48 15.87-19.94 19.35-30.46-1.86-1.21-8.68-6.61-9.43-8.77z"/><path class="cls-49" d="M1479.18 1915.23s59.94-33.91 94 18.37c16.62 25.49 30 120.77 53.53 152.53 0 0-12.43 21.89-102.31 29.91-94.33 8.42-118.32-16.65-118.32-16.65s21.29-83 15-120.31c-6.24-37 14.78-67.3 58.07-63.85"/><path class="cls-50" d="M1547.48 2359.87l79.58 1.44c39 .93 70.27-25.61 57-118.62 0 0 23.43-81.61-13-92.89-20.76-6.44-40.16-40.25-73-46.22l-44.45-1.64a70.6 70.6 0 0 0-72.25 68.89l-2.77 116.8a70.58 70.58 0 0 0 68.88 72.24z"/><path class="cls-9" d="M1403.89 2191.49s-36.25 78.87-42.73 126.2c-3.14 22.93 17.65 17.15 24.68 19.83 13.84 5.25 27.59-13.3 31.89-23.57l36.16-117.79z"/><path class="cls-51" d="M1507.69 2104.19c-6.33-6.33-101.34-11.4-124.14 135.54l46 50.77 32.78-94.48s45.37-91.81 45.36-91.83z"/><path class="cls-47" d="M1516.05 2097.88s46.48 2.9 86.44 26.71a34.43 34.43 0 0 1 16.24 33.76L1598 2363.4h-157.88l-29.58-172.2c-2.27-14.44.22-48.41 17.65-62.62 10.29-8.38 38.49-30.7 87.86-30.7z"/><path class="cls-9" d="M1546.67 2095.63a168.07 168.07 0 0 0-48.86.06c-26 4-36 11.22-36 11.22l15.62 51.11z"/><path d="M1427 2288.35c-2-6.77-3.56-13.66-4.93-20.59s-2.38-13.92-3.26-20.93a207.69 207.69 0 0 1-1.44-21.15 155.72 155.72 0 0 1 1-21.15c-.06 3.53-.34 7-.23 10.57-.07 3.52.09 7 .22 10.55.37 7 .86 14 1.73 21s1.81 14 3 20.91q.86 5.21 1.86 10.4c.6 3.49 1.33 6.94 2.05 10.39z"/><path class="cls-16" d="M1469.27 2022.85c-1.15 11.17-6 15.93-20.63 14.66-11.19-1-19-13.58-17.84-24.76s9.79-14.77 21.54-12.47c8.19 1.6 18.09 11.35 16.93 22.57z"/><path class="cls-9" d="M1537.33 2013.31L1533 2115.6l-51.93 6.33 19.54-102.19 36.7-6.43z"/><path class="cls-17" d="M1489.51 2078.74c22.39-2.57 46.62-37.29 46.62-37.29l-36.74-14.54z"/><path class="cls-9" d="M1509 1929.39c-13.29-1.07-19.39-9.86-32.12-6-17.23 5.16-39 14.36-38.78 45.72.45 52.26 10.72 90.49 38.36 99.84 21.22 7.17 35.67 2.37 57.75-12.91 8.22-5.69 15.21-20.75 16.58-30.89l7.29-28.63s-27.36-65.38-49.08-67.13z"/><path class="cls-49" d="M1466.89 1989s2.21 4.57-5.85 5.74c-6.12.89-7.78 1.32-11.2 2.48a5.38 5.38 0 0 1-5.39-1c-1-1-.56-2.85-.1-3.76 1.28-2.54 3.12-6.1 10.55-7.26 9.58-1.49 12 3.8 12 3.8zm26.42-.91s-2.17 6.15 8.69 6.44c8.25.23 18.22 2.28 22.94 3.24 2.67.55 5.62-.33 7-2.07a3 3 0 0 0-.38-4.23l-.08-.06c-2.83-2.42-13.45-8.05-23.48-8.42-12.9-.48-14.69 5.09-14.69 5.09z"/><path class="cls-2" d="M1496.47 2015.36s10.4-19.21 35.42-5.77c0 .04-11.35 18.04-35.42 5.77z"/><g clip-path="url(#clip-path-7)"><path class="cls-33" d="M1494.4 2012.41a8.71 8.71 0 1 0 9.46-7.89 8.71 8.71 0 0 0-9.46 7.89z"/></g><path d="M1531.47 2010.27a33.77 33.77 0 0 0-9-4 27.09 27.09 0 0 0-9.76-1.14 21.2 21.2 0 0 0-9.32 3.12 20 20 0 0 0-6.94 7.07 20.19 20.19 0 0 1 6.72-7.41 21.93 21.93 0 0 1 9.45-3.58 28.27 28.27 0 0 1 10.16.77 35 35 0 0 1 9.51 3.76.79.79 0 0 1 .3 1.08.81.81 0 0 1-1.1.29z"/><path class="cls-2" d="M1471.78 2016.42s-11.65-15.71-22.79-2c.01.01 11.44 16.21 22.79 2z"/><g clip-path="url(#clip-path-8)"><path class="cls-33" d="M1458.69 2012.89c1.45 4.46.15 8.88-2.9 9.88s-6.71-1.82-8.16-6.28-.15-8.89 2.91-9.88 6.7 1.82 8.15 6.28z"/></g><path d="M1448.32 2014a14.31 14.31 0 0 1 5.36-4.77 11 11 0 0 1 3.45-1.08c.3 0 .6-.06.93-.07l.9.07a10.26 10.26 0 0 1 1.75.26 16.06 16.06 0 0 1 6.29 3 22.24 22.24 0 0 1 4.78 5 22.63 22.63 0 0 0-5-4.67 15.64 15.64 0 0 0-6.21-2.56 11.51 11.51 0 0 0-1.66-.15 5.8 5.8 0 0 0-1.61.1 10.11 10.11 0 0 0-3 1.14 13 13 0 0 0-4.57 4.59.81.81 0 0 1-1.11.27.82.82 0 0 1-.26-1.11z"/><path class="cls-54" d="M1476.5 2028.17l-4.6 8.53 5 4.32m21.84 8.81s-11.08 9.07-23.93 2.83"/><path class="cls-49" d="M1553.8 1935.35s-35.62 18.07-1.26 73.67l32.71-36.76-16.07-16.63z"/><path class="cls-9" d="M1542.89 2018.63c3.13 10.8 8.71 14.61 22.92 10.75 10.84-3 16.26-16.75 13.13-27.54s-12.26-12.79-23.42-8.43c-7.78 3-15.77 14.41-12.63 25.22z"/><path class="cls-54" d="M1567.61 2004.45s-10.52-1.63-13.18 13.35"/><path class="cls-49" d="M1560.89 1975c-1.83 1.51-89.36 6.69-127.94 5.07 0 0-13.49-62.32 57-64.6 54-1.76 70.94 59.53 70.94 59.53z"/><path d="M1443.65 1993.7l26.64 33s-6.93 14.82-19.08 13.75l-26.83-32.16s6.2-14.93 19.27-14.59zm60.86-2.7l26.64 33s-6.93 14.82-19.08 13.75l-26.84-32.12s6.21-15 19.28-14.63z" style="isolation:isolate" opacity=".23" fill="#fff"/><path d="M1471.83 2016.2a24.59 24.59 0 1 1-25.66-23.48 24.58 24.58 0 0 1 25.66 23.48zm60.92-2.71a24.59 24.59 0 1 1-25.66-23.47 24.59 24.59 0 0 1 25.66 23.47zm-60.92 2.71a14.18 14.18 0 0 1 11.78-.52" stroke="#fff" stroke-width=".94" stroke-miterlimit="10" fill="none"/><path class="cls-9" d="M1377.6 2876.16h36.47v85.89h-36.47z"/><path d="M1375.65 2955.22s-47.9 12.7-69.36 27.73c-7.82 5.49-2.37 14.78.41 16.54 6.4 4.06 101.87-4.65 123.41-8.62 7.58-1.4-3.79-31.14-13.82-39.18z" fill="#376059"/><path class="cls-58" d="M1378.54 2936.63s-48.92 26-70.38 41.08c-7.82 5.49-5.7 14.63-5.7 14.63 6.4 4 108.22-6.74 129.75-10.71 0 0-1.25-20.52-17.75-47.37l-5.41 11.77-24.9 2.15z"/><path d="M1375.45 2965.83s-5.89-13.17-20-19.07m11.65 25.4s-5.89-13.18-20-19.07m12.27 24.65s-5.9-13.18-20-19.07" stroke-width="3" stroke="#376059" stroke-miterlimit="10" fill="none"/><path d="M1438.73 2349s-71.44 260-74 294.21c-2 27.38-4.9 139.12-11.84 276l100.11 3.39 170.27-531.18-83.19-51.74z" fill="#993617"/><path class="cls-9" d="M1544.35 2882.32l36.29-3.61 8.51 85.46-36.29 3.62z"/><path class="cls-58" d="M1549.58 2949.32s-61.15 30.07-85.28 48.88c-2.58 2-4.5 7.79-4.23 10.17.56 4.81 1.13 9.66 10.57 10.64 22.19 2.28 94-2.6 120-8.43 0 0 6.07-24-3.94-52.55l-7.55 14.88-26.24-2.83z"/><path d="M1550.63 2940.69s-63.07 37.63-86.33 57.51a7.22 7.22 0 0 0-2.61 7 9.93 9.93 0 0 0 10 8.13c22.3-.21 95.37-4.67 121-11.66 0 0 14.88-31.6-4.91-55l-8.67 17.74-26.34-1.66z" fill="#5f9992"/><path d="M1547.39 2975.16s-3.17-14.09-15.85-22.66m6.41 27.2s-3.17-14.08-15.84-22.65m7.15 26.58s-3.16-14.08-15.84-22.66" stroke="#44756e" stroke-width="3" stroke-miterlimit="10" fill="none"/><path d="M1625.15 2356.93c15 12.38 27.61 79.59 7.42 168-17.25 75.55-27.32 114.4-24 131.87 15.45 82.09 12.74 272.43 12.74 272.43l-94.79 2.51s-68.63-268.11-69.78-279.23l7.4-296.55 85-20.08z" fill="#ad462a"/><path class="cls-50" d="M1452 2113.06s-40.53 59.54-29.84 143.05c0 0-3.89-1.84-9.47-18.12-8.47-24.67-8.17-80.29 15.25-109.73z"/><path class="cls-9" d="M1645 2239.91l31.92 117.28a31 31 0 0 1-22.84 37.42c-.54.13-1.08.25-1.62.35a31 31 0 0 1-35.59-22.75l-35.67-125.81z"/><path class="cls-44" d="M1473.09 2233l89.54 24.31-5.51 21.68-86.87-24.5z"/><path class="cls-2" d="M1553.23 2272l3.32-12-82.55-21.79-2 10.75z"/><path class="cls-64" d="M1475.2 2242.69l-32 124.6 89.33 22.63 33.21-123.34-90.52-23.89z"/><path class="cls-44" d="M1475.2 2242.69l-2.11-9.71-32.23 124.07 2.32 10.24z"/><path class="cls-47" d="M1610.29 2113.06c19 20.49 36.74 51.94 53.2 133l-83.6 34.21-96.27-125.41 50.67-54.47c26.6-13.93 59.53-5.06 76 12.67z"/><path class="cls-47" d="M1613.46 2264.43l-32.94 16.47-32.93-89.9"/><path d="M1613.46 2264.43l-32.78 16.77a.33.33 0 0 1-.45-.12c-2.83-7.47-5.73-14.91-8.47-22.4s-5.59-14.95-8.27-22.47-5.46-15-8.08-22.54-5.27-15.07-7.8-22.65q4.44 11.13 8.67 22.33c2.87 7.45 5.6 15 8.39 22.42s5.47 15 8.19 22.5 5.34 15.05 8 22.57l-.47-.18z"/><path class="cls-50" d="M1559.62 2092.79s-41.29 56.15 1.27 162.14c0 0-19.12-15.72-29.13-34.2-16.47-30.4-22.8-78.53 1.26-120.34 0 0 1-.75 13.94-5.06 3.8-1.27 12.66-2.54 12.66-2.54z"/><path class="cls-9" d="M1516.83 2299.63s-103.69-.57-132.76.48c-34.89 1.26-28.4 54.93 9.56 52.13 0 0 110.82-16.11 122.64-17.94z"/><path class="cls-12" d="M1562.63 2286.31c.11-9.83-20.1-13.84-31.87-8l3.88-7.36c1.56-3 3.88-7.37-.11-9.76s-7.92-.37-10.22 1.68l-15.62 12.89c-8.84 8.87-16.12 23.15-19.07 36.56l4 19.17c59.61 7.84 68.76-23.62 69-45.18z"/><path class="cls-9" d="M1449.7 2273.89c4.59-8.69 16-4.86 27.24 2l-3.23-7.67c-1.3-3.1-3.23-7.67.94-9.71s7.93.31 10 2.55l14.46 14.19c8 9.59 14.06 24.45 15.85 38.06l-5.68 18.75c-85 3.22-69.8-38.78-59.58-58.17z"/><path class="cls-9" d="M1655.89 2337.31L1503 2296.63l-8.92 33.27 140.92 63.58a30.06 30.06 0 0 0 39.86-14.78 30.56 30.56 0 0 0 1.71-4.75 30 30 0 0 0-20.71-36.64z"/><path d="M1602.68 2323.53l38.29 9.8m-146.86-3.41s-37.42.12-47.42-13.62c-7.68-10.54-3.93-24.76-3.93-24.76m34.32-14.12l-4.72-13m39.76 35.86s0-13-18-29.36m-71.73 28s-37.42 3.43-40.81 6.86" stroke-width="1.76" stroke-linejoin="round" stroke-linecap="round" stroke="#ca5e34" fill="none"/><path class="cls-9" d="M2043.15 2730.31l-56.27 272.13-31.61-2 23.35-278.2 64.53 8z"/><path class="cls-10" d="M1994.78 3001.29s47.12 9.22 68.82 22.39c7.92 4.8 3.24 14.14.66 16-5.93 4.32-98.78 2-119.86-.48-7.42-.87 1.68-30.35 10.87-38.75z"/><path class="cls-11" d="M1990.81 2983.51s49 22.06 70.65 35.23c7.92 4.8 6.44 13.78 6.44 13.78-5.92 4.33-105 .38-126.12-2.09 0 0-2.75-19.92 11.49-46.92l2.93 10.91 29.92.61z"/><path class="cls-9" d="M2173.92 2802.37l-9.31 197.63-34.61.46-33.44-198.1z"/><path class="cls-10" d="M2169.51 3001.29s47.12 9.22 68.82 22.39c7.91 4.8 3.23 14.14.66 16-5.93 4.32-98.79 2-119.86-.48-7.42-.87 1.68-30.35 10.87-38.75z"/><path class="cls-11" d="M2165.53 2983.51s49 22.06 70.66 35.23c7.91 4.8 6.44 13.78 6.44 13.78-5.93 4.33-105 .38-126.12-2.09 0 0-2.75-19.92 11.49-46.92l2.93 10.91 29.91.61z"/><path class="cls-12" d="M2177.5 2314.63l47.22 141.71-29.75 28.6-77-141.28a39.72 39.72 0 0 1-.74-36.52c5-10.39 13.85-18.69 25.28-20.17 18.6-2.44 34.14 9.86 34.99 27.66z"/><path class="cls-13" d="M2141.23 2363.52s48.9 197.77 45.33 602.49l-84.74 2.76-74-605.25z"/><path class="cls-14" d="M1983 2363.52c-51.42 132.31-32.8 270.8-38.24 339.73-7.64 96.71-5.82 262.38-5.82 262.38l72 9.76 43.51-250.28 47.41-361.54z"/><path class="cls-12" d="M2084.36 2204.25l23.22 104.69c4.61 19.51 24.69 33 43.93 29.5 17.58-3.19 28.12-19.53 24.11-37.4l-23.73-117.29z"/><path class="cls-66" d="M2079.8 2064.26c-1.32-.44 84.06 35.49 95.2 143.75l-90 67.53-12-113.75z"/><path class="cls-66" d="M1982.64 2078.81c-9.13 11.25-30.29 45-29.58 60.2l-24.75 360.22 243.93-19.08s-15.14-287.44-41.75-356c-31.14-80.32-118.2-81.85-147.85-45.34z"/><path class="cls-12" d="M2260.75 2556.3c9.58-2.23-7.32-45.93-13.91-55.85l11.63 5.49c3.06 1.07 10.51.85 12.63-3s-17.67-14.55-17.67-14.55c-9.39-6.95-30.24-34.87-30.24-34.87l-36.37 12.76c2.25 23.56 8.66 43.93 17.06 58.69 1.33 2.34 8.86 37 14.61 36.51 4.39-.34-2.71-39.2-.25-36.72 1.35 1.36 5.79 40.93 15 42.06 5.72.7-6.94-43.38-3.77-43.29 2.09.06 7.7 38.59 15.68 39.83 9.93 1.54-6.31-46.71-3.87-44.86 1.87 1.38 12.8 39.35 19.47 37.8z"/><path class="cls-9" d="M2077.57 2524.49c9.47-2.64-9.32-45.56-16.34-55.19l11.86 5c3.1.94 10.54.39 12.49-3.56s-18.3-13.76-18.3-13.76c-9.68-6.53-32-38.3-32-38.3l-40.81 10.38c3.28 23.44 15.88 52.25 24.92 66.63 1.43 2.28 10.47 36.53 16.19 35.84 4.38-.54-4.42-39-1.85-36.68 1.41 1.3 7.57 40.64 16.85 41.37 5.75.45-8.83-43-5.65-43.09 2.08 0 9.37 38.21 17.4 39.11 10 1.11-8.34-46.39-5.83-44.65 1.89 1.29 14.5 38.74 21.07 36.9zm-174.68-328.39l5.86 110.64c12.24 38.31 36 20.38 51.85 8.68 14.46-10.71 15.36-7.9 15.11-30.65l7-104.39z"/><path class="cls-66" d="M2040.33 2058.08s-83.33-12-125.85 43.7c-24.24 31.72-18.74 152.48-14.18 159.59l89.77-40.1-21-93.35z"/><path class="cls-66" d="M1977.93 2223.19l12-3-21.62-87"/><path d="M1977.89 2223.19c4-1.18 8-2.27 11.95-3.4l-.29.48c-1.92-7.22-3.91-14.42-5.75-21.66s-3.69-14.48-5.46-21.74-3.53-14.53-5.18-21.81-3.33-14.58-4.84-21.9c2.09 7.18 4.06 14.39 6 21.61s3.81 14.45 5.63 21.7 3.61 14.5 5.34 21.77 3.38 14.56 5.06 21.84a.39.39 0 0 1-.28.46c-4 .9-8.07 1.82-12.17 2.65z"/><path class="cls-16" d="M2073 1954.38c4.07 11.72 10.44 15.61 25.89 10.53 11.79-3.87 17-19.4 12.91-31.12s-14.26-13.4-26.31-8c-8.39 3.84-16.55 16.84-12.49 28.59z"/><path class="cls-9" d="M1998 1976.83l-3.09 111.36s26.93 2.54 35.56 3.77c16.83 2.4 39.25-8.4 39.25-8.4l-18.18-107z"/><path class="cls-17" d="M2062.51 2041.91c-24.68-3.31-50.68-42.17-50.68-42.17l40.87-15.26z"/><path class="cls-9" d="M1996.71 1857.15a96.47 96.47 0 0 1 43-7.82c19.83 1.19 45.61 5.56 53.26 39.33 12.74 56.29 11.38 100-16 117-21 13.09-37.74 11.58-65.35.74-10.27-4-21.6-18.45-25.64-29l-15.07-28.93s-39-64 25.8-91.32z"/><path class="cls-18" d="M2066.1 1907.49s.05 5.61 8.6 2.81c6.49-2.13 8.35-2.51 12.3-3a6 6 0 0 0 4.89-3.62c.45-1.45-.85-3.09-1.75-3.77-2.52-1.88-6.08-4.5-14-2-10.25 3.16-10.04 9.58-10.04 9.58zm-16.33 10s1.4 7.06-10.52 5.65c-9-1.06-20.27-.42-25.58-.11-3 .17-6.09-1.26-7.28-3.38a3.25 3.25 0 0 1 1-4.49l.2-.12c3.48-2.2 16-6.66 27-5.46 14.14 1.53 15.2 7.91 15.2 7.91z"/><path class="cls-2" d="M2043.33 1936.43s-16-18-39.54 2.76c0 0 16.76 16.49 39.54-2.76z"/><g clip-path="url(#clip-path-9)"><path class="cls-13" d="M2044 1934.63a9.62 9.62 0 1 1-12.17-6.09 9.61 9.61 0 0 1 12.17 6.09z"/></g><path class="cls-20" d="M2003.05 1938.44a39 39 0 0 1 9.34-6.44 31.13 31.13 0 0 1 10.76-3.37 24.27 24.27 0 0 1 11.1 1.5 22.32 22.32 0 0 1 9.08 6.3 22 22 0 0 0-9.26-5.8 23.48 23.48 0 0 0-10.78-1 29.75 29.75 0 0 0-10.16 3.72 37.31 37.31 0 0 0-8.59 6.55 1.06 1.06 0 1 1-1.53-1.48z"/><path class="cls-2" d="M2070.14 1931.32s8.54-19.83 24-7.9c-.01 0-8.2 20.32-24 7.9z"/><g clip-path="url(#clip-path-10)"><path class="cls-13" d="M2082.49 1926.69c-.43 5.16 2.09 9.58 5.63 9.88s6.74-3.66 7.17-8.82-2.08-9.58-5.62-9.88-6.78 3.66-7.18 8.82z"/></g><path class="cls-20" d="M2093.4 1924.18a14.28 14.28 0 0 0-6-3.77 11.11 11.11 0 0 0-3.53-.48 3.1 3.1 0 0 0-.86.08l-.88.22a10.42 10.42 0 0 0-1.74.57 16.78 16.78 0 0 0-6 4.27 24.37 24.37 0 0 0-4.24 6.25 24.52 24.52 0 0 1 3.84-6.6 17.68 17.68 0 0 1 6-4.89 11.13 11.13 0 0 1 1.83-.74c.32-.11.61-.21 1-.31a6.75 6.75 0 0 1 1-.17 12.23 12.23 0 0 1 4 .27 16 16 0 0 1 7.07 3.75 1.07 1.07 0 0 1 .08 1.5 1 1 0 0 1-1.4.18l-.08-.08h-.05z"/><path class="cls-69" d="M2068.58 1965.34l7.88-5.38-10.46-20.41m-12.41 29.58c12.47 15.59 26.94 7.2 26.94 7.2"/><path class="cls-18" d="M1960 1881.71s56.3 5.32 10.44 76.48l-19-59.36z"/><path class="cls-9" d="M1992.83 1968.45c-.63 12.39-5.66 17.91-21.91 17.35-12.4-.43-21.72-13.89-21.09-26.28s10-16.85 23-15c9.17 1.31 20.63 11.54 20 23.93z"/><path class="cls-69" d="M1962.67 1959.49s10.89-4.41 17.54 11"/><path class="cls-18" d="M1951.48 1898.83c1.26.63 39.9 3.63 78.47-.21 10.51-1 28.82-4.89 38.4-6.91 2.08-.44-.68-19.68-.68-19.68s6.79 9.22 5.41 15.93c0 0 23.43-5.31 23.89-8.34 0 0-18.75-51-75.61-42.84-67 9.63-69.88 62-69.88 62z"/><path class="cls-9" d="M1977.72 2294.1l60.17 130.15-40.66 7.93-78-106.67a36.67 36.67 0 0 1-4.27-35.23c4.19-10.32 12.47-18.83 24.1-20.91 18.88-3.37 36.07 7.63 38.66 24.73z"/><path d="M1994 2331.83l-16.24-37.73" stroke-width=".84" stroke="#af4a25" stroke-miterlimit="10" fill="none"/><path class="cls-71" d="M3070.41 1818.33s23.09 6.43 21.67 27.62-6.88 35.47-6.88 35.47-18.31-40.23-30.84-50.47 2.95-17.86 16.05-12.62z"/><path class="cls-9" d="M2996.85 2677.61l-46.69 322-41.19-.09 11.89-326.79z"/><path class="cls-72" d="M2959.31 3001.92s55.72 7.48 82 21.35c9.59 5.06 4.77 16.3 1.89 18.67-6.62 5.48-115.32 9.26-140.12 7.85-8.74-.5-.17-35.59 10-46.06z"/><path class="cls-9" d="M3126.47 2752.24l11.68 239.19-40.54.05-37.9-251.64z"/><path class="cls-72" d="M3143.12 2992.87s55.44 9.32 81.25 24.05c9.41 5.38 4.22 16.45 1.27 18.73-6.8 5.25-115.56 5.42-140.31 3.19-8.71-.79 1-35.58 11.51-45.7z"/><path d="M3137.89 2972.18s58 24.29 83.81 39c9.41 5.37 8 15.92 8 15.92-6.8 5.26-122.95 3.74-147.69 1.5 0 0-3.84-23.23 12-55.28l3.77 12.68 35-.22z" fill="#cc7e60"/><path class="cls-74" d="M3109.71 2228.63s42.45 233.85 38.27 711.42l-70.87 2.77-100.22-714.19z"/><path class="cls-75" d="M2935.89 2251c-60.2 154.92-26 339.36-32.41 420.06-8.94 113.24-6.36 286.64-6.36 286.64l71.5 9.69 51-293 55.46-423.39z"/><path class="cls-9" d="M3105.2 2164.85l27.77 99.68c5.45 18.56 25.5 30.52 43.85 26.17 16.78-4 26.09-20.28 21.31-37.29l-36-136.7z"/><path class="cls-76" d="M3035.43 2023.43c-10.65 4.1 100.35 4.11 146.94 99.48l-74.59 91.09-34.89-104.69-10.77-72.31c-8.72 2.42-26.68-13.57-26.69-13.57z"/><path class="cls-76" d="M2919.81 2038.05c-11.17 8.41-35.89 55.2-35.21 69.85l15.55 331.55 236.2-9s-7.34-294.32-35.86-359.33c-27.66-63.12-134-68.22-180.68-33.07z"/><path class="cls-9" d="M2842 2168.16l9.69 142.77c1 19.44 17.43 32.37 36 28.3 17-3.73 29.57-20.45 28.87-38.25l3.49-144.47z"/><path class="cls-76" d="M3002.09 2020.4s-191-18.93-171.09 175.45l100.77 3.67-2.55-108.07z"/><path class="cls-76" d="M2919.8 2199.08l12 .44 3.27-86.46"/><path class="cls-16" d="M3050.89 1934.85c2.26 11.75 7.81 16.35 23.27 13.63 11.79-2.07 18.89-16.19 16.62-27.94s-11.77-14.77-24-11.23c-8.59 2.47-18.18 13.79-15.89 25.54z"/><path class="cls-9" d="M2976.1 1946l-18.34 105.91 41.67 16.54a24.59 24.59 0 0 0 30.42-10.64l-2.61-104.81z"/><path class="cls-17" d="M3028.75 2017c-23.11-6.56-42.58-47.26-42.58-47.26l41.13-9z"/><path class="cls-9" d="M2991.39 1831.47a93 93 0 0 1 42.14-1.53c18.78 3.87 42.8 11.59 45.44 44.9 4.41 55.52-2.92 97.06-31.38 109.56-21.85 9.61-37.64 5.86-62.51-8.3-9.26-5.27-18.08-20.6-20.49-31.24l-10.41-29.7s-28.44-66.53 37.21-83.69z"/><path class="cls-71" d="M2953 1849.87s53 12.84-.57 74.48l-9.94-59.31z"/><path class="cls-9" d="M2972.34 1937.24c-2.31 11.74-7.87 16.32-23.32 13.54-11.78-2.12-18.83-16.26-16.52-28s11.83-14.72 24.08-11.14c8.52 2.5 18.07 13.85 15.76 25.6z"/><path class="cls-77" d="M2944.77 1924.52s11-2.72 15.24 12.93"/><path class="cls-71" d="M2942.45 1865c.84.58 69 2.32 100.69 0 10.57-.77-19-17-8-15.19 30.75 5 46.58-.4 49.52-14.41 1.82-8.67-9.4-16.18-18.87-20.41-10.21-4.55-30.21-4.75-68.5-2.62-57.4 3.22-54.84 52.63-54.84 52.63zm111.66 16.59s-2.59 4.75 5.93 6.41c6.47 1.26 8.21 1.81 11.79 3.21a5.74 5.74 0 0 0 5.79-.79c1.07-1 .74-3 .3-4-1.23-2.77-.34-5.63-8.19-7.24-10.09-2-15.62 2.45-15.62 2.45zm-30.71.79s2.79 6.35-8.72 7.53c-8.75.9-19.18 3.88-24.12 5.28-2.8.8-6 .1-7.57-1.65a3.13 3.13 0 0 1 0-4.44l.16-.15c2.81-2.8 13.64-9.63 24.27-10.82 13.64-1.54 16 4.25 16 4.25z"/><path class="cls-2" d="M3025 1913.63s-12.83-19.42-38.14-2.82c.03-.01 13.72 18.05 38.14 2.82z"/><g clip-path="url(#clip-path-11)"><path class="cls-13" d="M3021.68 1910.79a9.28 9.28 0 1 1-10.78-7.49 9.29 9.29 0 0 1 10.78 7.49z"/></g><path class="cls-20" d="M2986.12 1909.82a38.2 38.2 0 0 1 9.88-4.82 30.09 30.09 0 0 1 10.8-1.69 23.38 23.38 0 0 1 10.41 3 21.32 21.32 0 0 1 7.78 7.31 21.17 21.17 0 0 0-8.07-6.77 22.29 22.29 0 0 0-10.14-2.34 28.88 28.88 0 0 0-10.16 2.19 35.88 35.88 0 0 0-9 5.09 1.23 1.23 0 0 1-1.51-1.93z"/><path class="cls-2" d="M3051.29 1912.44s10.89-17.76 24-4.25c0 0-10.62 18.28-24 4.25z"/><g clip-path="url(#clip-path-12)"><path class="cls-13" d="M3059.66 1909.3c-1.12 4.87.67 9.44 4 10.21s7-2.56 8.07-7.43-.67-9.44-4-10.21-6.95 2.56-8.07 7.43z"/></g><path class="cls-20" d="M3074.33 1909a13.41 13.41 0 0 0-5.1-4.41 10.31 10.31 0 0 0-3.25-1h-.82a3.53 3.53 0 0 0-.86.08 9.33 9.33 0 0 0-1.73.29 16.17 16.17 0 0 0-6.34 3.19 23.48 23.48 0 0 0-4.94 5.35 23.54 23.54 0 0 1 4.54-5.82 17.07 17.07 0 0 1 6.41-3.9 10.78 10.78 0 0 1 1.86-.47c.32-.06.61-.12 1-.17a5.57 5.57 0 0 1 1 0 11.87 11.87 0 0 1 3.86.8 15.61 15.61 0 0 1 6.32 4.59 1.22 1.22 0 1 1-1.86 1.59.16.16 0 0 1-.06-.08z"/><path class="cls-77" d="M3045.11 1944.71l8.26-4-7.14-20.93m3.86 42.77c-15.26 9.84-26.08-3.38-26.08-3.38"/><path class="cls-12" d="M2953.42 2981.42s58.77 22.36 85 36.23c9.59 5.06 8.49 15.65 8.49 15.65-6.62 5.47-122.75 7.81-147.55 6.4 0 0-4.62-23.09 10.14-55.65l4.18 12.55 35-1.38z"/><path class="cls-44" d="M2922.81 2155.11l113.1-48.54 12.16 27.08-110.51 46.14z"/><path class="cls-2" d="M3038.22 2129.56l-6.44-15.21-103.78 45.47 6.73 12.86z"/><path class="cls-64" d="M2933 2163.47l69.43 155.91 111.57-50.12-67.16-155.58-113.84 49.79z"/><path class="cls-44" d="M2933 2163.47l-10.18-8.36 68.76 155.54 10.85 8.73-69.43-155.91z"/><path class="cls-80" d="M2999 2099.44l122.31 13.69-2.81 29.55-118.87-14.5z"/><path class="cls-2" d="M3112 2134.25l1.92-16.41-112.66-11.73-.51 14.51z"/><path class="cls-3" d="M3003.76 2111.73l-16.68 169.85 121.72 11.54 18.49-168.45-123.53-12.94z"/><path class="cls-80" d="M3003.76 2111.73l-4.72-12.29-17 169.2 5.12 12.94 16.68-169.85z"/><path class="cls-12" d="M2942.48 2258c2.06-9.39 40.19-2.55 51.12 1.52l-4.33-6.65c-1.76-2.69-4.35-6.65-1.24-9.55s15.32 7.18 15.32 7.18c8.82 7.43 38.47 30.19 38.47 30.19l-1.46 28.57c-22.71 3.15-43.42 1.6-59.36-3.11-2.52-.75-27.87 3.45-28.86-2.16-.75-4.28 28.5-9.84 25.57-11.63-1.61-1-29.45 8.7-32.76.11-2-5.31 32-8.15 31.18-11.17-.57-2-33.24 6.14-36.35-1.22-3.87-9.15 38.85-8.26 38.21-11.2-1.1-5-36.27-7.45-35.51-10.88z"/><path class="cls-12" d="M3153.46 2235.4l-118 42.74 3 31.42 128.35-11.51a35.41 35.41 0 0 0 28.59-18.84c5-9.52 6.09-20.92.37-30.78-9.27-16-28.09-21.8-42.31-13z"/><path d="M3117.28 2248.7l37.9-11.58" stroke-width=".97" stroke="#af4a25" fill="#de8d68" stroke-miterlimit="10"/><path class="cls-9" d="M2873.41 2280.23l125.87-70.2 32.45 23.07-120.11 98.33a38.33 38.33 0 0 1-34.49 7.25c-10.76-2.9-20.21-9.77-23.67-20.34-5.57-17.16 3.25-34.1 19.95-38.11z"/><path class="cls-9" d="M3086.43 2152.18c-4.22-8.5-41.5 17.07-49.35 25.47l2.57-12.14c.33-3.11-1.54-10.06-5.63-11.2s-9.73 19.83-9.73 19.83c-4.45 10.37-26 36.14-26 36.14l20.06 31.32c21.62-7.35 39.32-17.89 51.32-29.06 1.9-1.76 32.73-16.52 31-21.82-1.3-4-36.21 11.25-34.43 8.39 1-1.58 37.15-14.54 36.16-23.46-.62-5.53-39.2 16.16-39.82 13.15-.41-2 34.53-15.8 33.92-23.57-.75-9.66-42.46 16.3-41.27 13.61.92-2.04 34.14-20.74 31.2-26.66zm295.12 140.45l-25.83 247.26 28.75-2.53 57.1-229.27c4.28-12.16 3.15-25.8-3.94-36.56-6.09-9.22-28.75-20.05-28.75-20.05-17.88 1.84-28.78 23.28-27.33 41.15z"/><path class="cls-26" d="M3334.82 2591.77a70 70 0 0 0 9 30.71c1 1.69 2.2 3.5 4.11 3.88a4.38 4.38 0 0 0 4.33-2 7 7 0 0 0 .88-4.86c1.65-.27 2.55-2.23 2.32-3.88a12.18 12.18 0 0 0-2.12-4.5 34.35 34.35 0 0 1-5.13-17.94 11.75 11.75 0 0 1 .63-4.4 12.39 12.39 0 0 1 3.1-4.28c3.6-3.55 8-6.48 10.38-10.93a30.25 30.25 0 0 0 2.6-8.42 4.23 4.23 0 0 0-1.59-5.1c-2.41-2.22-4.87-4.47-7.87-5.76a5.63 5.63 0 0 0-2.85-.58 6.54 6.54 0 0 0-2.14.77 34 34 0 0 0-17.73 24.77z"/><path class="cls-9" d="M3357.63 2524c-11.28 18.37-26.25 42.33-30.16 50.8-2.22 4.8-2.54 9-2 14.31.93 9.52 3.18 14.91 6.68 23.81 1.31 3.33 4.09 9.25 7.16 11.09s4.17.73 6-2.36c1.32-2.22.84-5 .32-7.55-1.41-6.9-3-11.32-4.41-18.23a25.16 25.16 0 0 1 1.66-15.17c2.47-5.52 8.47-8.4 14-10.83 2 9.11.54 17.39-1.72 26.45-1.25 5-2.16 10.42 2.94 11.26 2.85.47 5.22-2.15 7-4.41 5.12-6.41 5.89-17 9.81-24.23 3.28-6 8.21-5.79 11.17-12 4.71-9.91 3.38-21.51 1.94-32.39a41.8 41.8 0 0 0-3.73-10.15 11.5 11.5 0 0 0-5.05-3.62c-8.11-3.59-19.22-.67-21.61 3.22zm99.37 204.72l30 267.69 36.85-3.11-1.07-270.12z"/><path class="cls-51" d="M3483.24 3002.11s-45.58 13-65.84 27.73c-7.39 5.38-2 14.17.68 15.81 6.19 3.76 97.33-6.22 117.86-10.4 7.23-1.47-4.16-29.72-13.9-37.22z"/><path class="cls-74" d="M3485.68 2984.29s-46.33 25.76-66.58 40.51c-7.39 5.38-5.2 14.09-5.2 14.09 6.19 3.76 103.37-8.33 123.89-12.5 0 0 2.53-20-13.72-45.33l-4.83 11.25-28 2.93z"/><path class="cls-9" d="M3568.6 2722.67l21.74 274.92 34.17.45 10.06-278.75-66 3.38z"/><path class="cls-51" d="M3585.5 2998.86s-46.51 9.1-67.93 22.1c-7.81 4.74-3.19 14-.65 15.81 5.85 4.27 97.51 2 118.31-.47 7.33-.86-1.65-30-10.72-38.26z"/><path class="cls-75" d="M3589.43 2981.3s-48.33 21.78-69.75 34.78c-7.81 4.74-6.36 13.6-6.36 13.6 5.85 4.28 103.7.38 124.5-2.06 0 0 2.72-19.66-11.34-46.32l-2.89 10.78-29.53.6z"/><path d="M3444.89 2407s-39.67 401.22-38.67 504.32l119.57 7.81 37.4-512.13z" fill="#020403"/><path class="cls-13" d="M3610 2407c52.06 121.77 66.93 504.32 66.93 504.32l-141 7.81-49.86-512.13z"/><path d="M3512.26 2701l-22.44-255.2" stroke="#ffebd8" stroke-miterlimit="10" fill="none"/><path d="M3441.89 2154.24c1.38-.4-35.94 20.72-76.38 123.3l68.33 53.18 34.28-98.82z" fill="#2782af"/><path class="cls-8" d="M3524.34 2129.25s48.61 3 90.4 27.93a36 36 0 0 1 17 35.32l-21.69 214.5h-165.16l-31-180.12c-2.37-15.1.24-50.63 18.47-65.49 10.84-8.76 40.34-32.14 91.98-32.14z"/><path class="cls-9" d="M3574.42 2139.4a175.38 175.38 0 0 0-50.08-10.15c-27.49-1.3-58.31 11.45-58.31 11.45l29.75 38.36z"/><path d="M3431.2 2328.47c-1.1-3.53-2-7.11-2.9-10.69s-1.63-7.2-2.37-10.82c-1.47-7.25-2.57-14.56-3.45-21.9a218.29 218.29 0 0 1-1.48-22.13c0-3.71 0-7.4.21-11.1s.58-7.37 1-11c0 3.7-.29 7.37-.15 11-.06 3.68.12 7.36.27 11 .44 7.35 1 14.68 1.85 22s1.89 14.59 3 21.86q.87 5.46 1.89 10.89c.66 3.66 1.41 7.27 2.13 10.89z"/><path class="cls-9" d="M3666.39 2230.77s23.61 73.79 37.61 140a31.47 31.47 0 0 1-60.37 17.31c-.18-.5-.35-1-.5-1.51l-51.32-144.13z"/><path class="cls-8" d="M3602.63 2150.68s64 15.61 103.34 148.66L3603.33 2336 3576 2235z"/><path d="M3615.52 2331.63q-3 1.23-6 2.4l-6 2.37a.44.44 0 0 1-.55-.24c-2.39-6.55-4.84-13.07-7.15-19.65s-4.63-13.14-6.87-19.74-4.47-13.19-6.6-19.83-4.27-13.27-6.26-20q3.82 9.73 7.38 19.56t7.05 19.68q3.46 9.86 6.78 19.77c2.24 6.6 4.34 13.25 6.5 19.87l-.56-.27 6.17-2 6.11-2z"/><path class="cls-13" d="M3483.57 2222.71l-50.52-1.7a3 3 0 0 0-3.15 2.85v.1a3.11 3.11 0 0 0 .15 1.05l36.12 106a3.07 3.07 0 0 0 2.79 2.07l50.41 1.7a3.05 3.05 0 0 0 3.15-3 3.37 3.37 0 0 0-.15-1l-36-106a3.06 3.06 0 0 0-2.8-2.07z"/><path class="cls-9" d="M3507.82 2288l13.94 9.91a47.44 47.44 0 0 1 14.35 16.3l9.42 17.64-15.76 26.1s-58.58 7.17-68.13-33.35a22.69 22.69 0 0 1 3.74-17.93 23.44 23.44 0 0 1 27.47-8.64l20.89 7.81z"/><path class="cls-9" d="M3672.58 2355.71l-168-36.7 10.12 33.68 149.56 62.13c16.72 6.95 36.62-1.49 41.6-18.9.26-.94.49-1.89.67-2.86a31.62 31.62 0 0 0-25.19-36.93 31.24 31.24 0 0 0-8.74-.42z"/><path d="M3628.11 2346l36.28 7.92" stroke-width="1.71" stroke="#af4a25" stroke-miterlimit="10" fill="none"/><path d="M3488.4 1905.52s59.55-31.35 99.47 19.78c19.58 25.09 12.17 74.68 53.35 100.37 0 0-32.73 55.55-127.11 55.49-99.06-.07-113.19-52-113.19-52s29.95-17.88 26.9-57.29c-3-39.14 23-88.17 60.58-66.35"/><path class="cls-16" d="M3473.89 2022c-2.25 11.53-7.7 16-22.86 13.34-11.57-2.06-18.52-15.93-16.27-27.46s11.58-14.47 23.61-11c8.38 2.46 17.77 13.59 15.52 25.12z"/><path class="cls-9" d="M3533.86 2027.1l13.83 115.09-53.39.47 2.75-102.78 36.81-12.78z"/><path class="cls-17" d="M3495.45 2102.63c22.69-6.4 41.88-46.32 41.88-46.32l-40.36-8.85z"/><path class="cls-9" d="M3532.46 1920.63a91.47 91.47 0 0 0-41.36-1.58c-18.44 3.76-42 11.31-44.69 44-4.42 54.48 2.69 95.27 30.61 107.6 21.43 9.46 36.94 5.81 61.37-8 9.1-5.15 17.79-20.19 20.17-30.62l10.27-29.14s28.06-65.26-36.37-82.26z"/><path d="M3570.15 1938.74s-38.8 15.5-8.23 76.64l37.53-35.23-15.18-18.88z"/><path class="cls-9" d="M3551 2024.46c2.24 11.54 7.7 16 22.86 13.34 11.57-2.06 18.52-15.92 16.27-27.46s-11.58-14.47-23.61-11c-8.38 2.46-17.77 13.59-15.52 25.12z"/><path d="M3578.05 2012s-10.8-2.68-15 12.66" stroke-width="3.42" stroke-linejoin="round" stroke-linecap="round" stroke="#ca5e34" fill="none"/><path d="M3580.43 1953.63c-2 1.39-101.76 9.88-145.32-3.27 0 0 5.83-43.92 79.49-39.69 56.4 3.27 65.83 42.96 65.83 42.96z"/><path d="M3480.63 2016.8q-2.31 5.28-4.61 10.57l6.18 2.39" stroke-width="2.22" stroke-linejoin="round" stroke-linecap="round" stroke="#ca5e34" fill="none"/><path class="cls-2" d="M3499.83 2003.2c1.23-6.78 13.15-3.6 16.63-3.74 3.13-.12 13.18.74 15 4.37-2.07 8.19-10.62 10.46-17.81 10.81s-15.06-4.67-13.82-11.44z"/><g clip-path="url(#clip-path-13)"><path class="cls-28" d="M3517.53 2007.1c-.2 5.66-4.28 10.42-10.13 10.22s-9.58-5.21-9.38-10.87 4.27-10.42 10.12-10.22 9.58 5.22 9.39 10.87z"/></g><path d="M3498.89 2001.3a27.16 27.16 0 0 1 8.43-2.6 40.85 40.85 0 0 1 8.56-.37 38.88 38.88 0 0 1 8.45 1.14 17.93 17.93 0 0 1 7.6 4 .52.52 0 1 1-.68.79 16.63 16.63 0 0 0-7.29-3.17 37.25 37.25 0 0 0-8.1-.53 39.86 39.86 0 0 0-8 .9 23.7 23.7 0 0 0-7.27 2.78 1.67 1.67 0 1 1-2-2.67l.12-.08a.42.42 0 0 1 .14-.09z"/><path class="cls-2" d="M3474.16 2002c-2-3.47-7.15-3.67-10.8-3.64-2.79 0-7.22.73-8.88 3.69.61 5.64 4.27 9.54 10.2 9.86s9.53-4 9.48-9.91z"/><g clip-path="url(#clip-path-14)"><path class="cls-28" d="M3451 2006.25c.35 4.06 2.75 9.14 7.44 8.72s6.18-5.84 5.82-9.9-2.75-9.14-7.45-8.72-6.16 5.84-5.81 9.9z"/></g><path d="M3473.22 2003.27a18.4 18.4 0 0 0-9.61-3.52 14.46 14.46 0 0 0-5.2.43 9.18 9.18 0 0 0-4.37 2.71.53.53 0 0 1-.74 0 .51.51 0 0 1-.07-.69 10.62 10.62 0 0 1 4.66-3.61 16.16 16.16 0 0 1 5.79-1.08 21.08 21.08 0 0 1 11.44 2.94 1.67 1.67 0 1 1-1.74 2.86l-.15-.1z"/><path d="M3517.13 1964.31a39.4 39.4 0 0 1 13.76 7.32c3 2.73 3.45 6.61-1.93 7.52-3.34.56-12.87-2.57-14.71-2.9-5.81-1-18.86-7.66-16.11-12.51 3.81-6.86 13.08-.94 19 .57zm-58.32-.68a29.84 29.84 0 0 0-10.36 7.18c-2.1 2.52-2.95 6.45 1.53 7.47 2.77.64 9.71-2.28 11.24-2.86 5-1.89 14.15-8.19 12.12-12.5-2.87-6.04-9.96-.92-14.53.71z" fill="#0d0506"/><path d="M3470.26 2037.87c2.42 12 19.91 12 19.91-.43z" stroke="#000" stroke-width="1.11" stroke-linejoin="round" stroke-linecap="round" fill="none"/><path d="M3539.46 2006.1a24.22 24.22 0 0 1-21.51 26.66l-.9.08c-14 1.24-25.56-8.39-26.78-22.37a24.69 24.69 0 0 1 49.19-4.37zm-62.51-5.16c2.18 12.09-3 25.55-16 27.91s-22.59-8.4-24.78-20.5 3-25.54 16-27.91 22.59 8.41 24.83 20.5zm.59 5.79c3.95-2.93 8.18-2 12.28 0m50.35-1.12l18.58-4" stroke="#fdcd93" stroke-width="3.34" stroke-miterlimit="10" fill="none"/><path class="cls-12" d="M4256.39 2589.74l108.54 71.69-4.12 29.2-133.1-49.31c-9.58-3.55-17.34-11.14-20.31-20.92-2.54-8.38-1.61-17.29 4.64-23.45 10.15-9.95 34.16-17.17 44.35-7.21z"/><path class="cls-12" d="M4179.37 2514.92l21.57 98.77c4.29 18.4 23.18 31.18 41.32 27.95 16.59-3 26.57-18.34 22.85-35.19l-22.06-110.65z"/><path class="cls-93" d="M4153.92 2408.73c29.38-4.78 85.59 19.33 107.67 115.95l-69 19.33-15.89-80.01s-43.4-51.91-22.78-55.27z"/><path class="cls-2" d="M4018.64 2397.69c-8.53 10.27-22.71 146-18.71 257.41l-4.78 111.9 214-18.67s18.52-224.85-2.76-306.45c-16.58-63.52-160.05-77.53-187.75-44.19z"/><path class="cls-94" d="M4487.81 2917.06l5.51 12.42 9.57 21.59-36.2 12.39-6.78-13.21-8.71-16.97 36.61-16.22z"/><path d="M4587.31 2945.81c14.35-3.16 18.37 5.05 19.2 12.24a30.83 30.83 0 0 1 .15 4.72c-.36 7.45-131.53 53.74-131.53 53.74s-1.48-2.71-3.63-6.93c-5.76-11.24-16.4-33.18-17-42.93-.82-13.4 23.34-7.93 34.95-16.17 0 0 3.3-13.82 9.69-16s70.45 15.21 88.17 11.33z" fill="#7e9caf"/><path class="cls-96" d="M4606.51 2958.05a30.83 30.83 0 0 1 .15 4.72c-.36 7.45-131.53 53.74-131.53 53.74s-1.48-2.71-3.63-6.93c25.24-9.15 114.19-41.58 135.01-51.53z"/><path class="cls-97" d="M4493.5 2899.01l7.91 20.64-59.63 24.55-10.24-19.71 61.96-25.48z"/><path class="cls-98" d="M4492.38 2951.08s49 5.06 57.86-1 5.87-7.33 5.87-7.33"/><path class="cls-97" d="M4202.41 2772.18l114.29-73.43a65.59 65.59 0 0 1 52.55-8.28c18.15 4.92 49.22 6.76 57 23.78l65.62 200.62-54 15.83-72.09-182.86-189.06 45.1-41.26-18.23 64.23-5.62"/><path d="M4217.07 2679l139.51-17.17c19.67-1.8 39.39 5.42 54.22 19.84a78.4 78.4 0 0 1 23.41 57.05l31.39 194.3-50.86 30.71-53.57-204-184.49 33.5c-37.13 6.74-73.76-18.38-83.78-57.46l-7.82-30.5 132-26.57" fill="#2c2c2c"/><path class="cls-94" d="M4463.31 2940.15l5.94 12.22 10.32 21.24-35.75 13.64-7.24-12.97-9.29-16.65 36.02-17.48z"/><path d="M4563.75 2965.42c14.24-3.65 18.54 4.42 19.62 11.57a30.71 30.71 0 0 1 .31 4.71c-.1 7.46-129.58 58.28-129.58 58.28s-1.57-2.66-3.87-6.79c-6.14-11-17.54-32.6-18.47-42.32-1.29-13.36 23.05-8.74 34.37-17.38 0 0 2.82-13.93 9.12-16.36s70.93 12.79 88.5 8.29z" fill="#9ebacf"/><path class="cls-96" d="M4583.37 2977a30.71 30.71 0 0 1 .31 4.71c-.1 7.46-129.58 58.28-129.58 58.28s-1.57-2.66-3.87-6.79c24.9-10.04 112.68-45.54 133.14-56.2z"/><path class="cls-97" d="M4468.38 2921.91l8.62 20.35-58.74 26.61-10.92-19.33 61.04-27.63z"/><path class="cls-98" d="M4469.07 2974s49.11 3.35 57.79-3 5.61-7.54 5.61-7.54"/><path transform="rotate(-180 4162.84 2792.085)" fill="#bdccd4" d="M3972.69 2723.49H4353v137.18h-380.31z"/><path class="cls-102" d="M3892.39 2411.22s39.59.56 56.88 10c21 11.51 24 17.28 24 79.74v479.56"/><path class="cls-102" d="M3919.16 2980.01h159.48l71.38-45.73h296.66"/><path stroke="#666" stroke-width="13.8" stroke-miterlimit="10" fill="none" d="M4497.42 3027.41l-91.45-181.79h-52.98"/><path class="cls-102" d="M4353 3000.08v-276.59s-3.34-37.91-29-59.1-65.8-19-65.8-19h-284.95"/><rect class="cls-104" x="3968.79" y="2458.62" width="49.07" height="269.89" rx="9.2" transform="rotate(-180 3993.32 2593.565)"/><rect class="cls-104" x="4037.93" y="2599.14" width="217.48" height="45.73" rx="9.2" transform="rotate(-180 4146.67 2622.005)"/><path class="cls-105" transform="rotate(63.27 4525.46 3016.597)" d="M4514.15 2964.95h22.31v102.6h-22.31z"/><path class="cls-105" transform="rotate(90 3847.78 2414.57)" d="M3826.59 2364.94h42.38v99.26h-42.38z"/><path class="cls-105" transform="rotate(-180 3906.89 2978.89)" d="M3884.03 2961.6h45.73v34.57h-45.73z"/><path class="cls-105" transform="rotate(-180 3895.735 2414.01)" d="M3884.03 2380.55h23.42v66.92h-23.42z"/><circle class="cls-105" cx="3973.25" cy="2889.11" r="19.52"/><path class="cls-106" d="M3923.3 2737.03l68.63 146.43 51.58 143.95M4018.25 3041.09l-67.89-146.77-50.87-144.21"/><path class="cls-106" d="M3821.7 2939.49l146.43-68.63 143.95-51.58M4125.76 2844.54l-146.77 67.89-144.2 50.87"/><path class="cls-106" d="M3832.15 2818.98l152.07 55.02 138.25 65.31M4114.28 2966.85l-151.78-55.77-137.93-66.01"/><path class="cls-106" d="M3899.59 3030.94l55.01-152.06 65.32-138.26M4047.45 2748.81l-55.77 151.78-66 137.94"/><circle cx="3973.25" cy="2889.11" r="160.04" stroke-width="25.64" stroke="#333" stroke-miterlimit="10" fill="none"/><path class="cls-106" d="M4353.55 2942.64v114.88M4296.12 3000.08h114.87M4312.94 2959.47l81.23 81.22M4312.94 3040.69l81.23-81.22"/><circle cx="4352.99" cy="3000.08" r="57.44" stroke-width="9.2" stroke="#333" stroke-miterlimit="10" fill="none"/><path class="cls-9" d="M3968.92 2439.51l-66.79 137.85c-7 17.68 2.35 35.84 20.48 39.74 16.59 3.56 34.58-6.18 41.18-22.29l66.47-118.17z"/><path class="cls-9" d="M3952.74 2579.51l108.61 79.67-30.51 28.53-106.45-52.6a37.47 37.47 0 0 1-21.26-27.09c-2.1-10.69-.17-21.93 7.6-29.53 12.61-12.34 31.27-11.88 42.01 1.02z"/><path class="cls-9" d="M4109.14 2749.48c8.63-3.4-13.16-41.82-20.68-50.16l11.61 3.51c3 .58 9.92-.65 11.37-4.54s-18.5-11.13-18.5-11.13c-9.71-5.19-33-28.36-33-28.36l-32.16 16.92c5.35 21.66 14.13 39.77 24 52.38 1.56 2 13.36 33.24 18.66 32 4-.92-7.93-36.18-5.3-34.21 1.45 1.09 11.05 37.38 19.82 37.16 5.43-.14-12.46-39.5-9.48-39.86 1.95-.23 12.5 34.93 20.11 35 9.47.07-12.32-42.7-9.8-41.31 1.91 1.12 17.34 34.97 23.35 32.6z"/><path class="cls-93" d="M4018.64 2397.69s-35.89 16.56-88.34 99.39l74.54 52.45 34-76.91a61.69 61.69 0 0 0-20.23-74.93z"/><path d="M3964.81 2523.3l41.61 24.51-.57.18 5.68-13.2 2.84-6.6 2.9-6.57c3.89-8.75 7.68-17.55 11.68-26.25s7.85-17.48 11.93-26.14 8.09-17.37 12.27-26q-5.46 13.31-11.19 26.47c-3.75 8.82-7.68 17.55-11.54 26.32s-7.86 17.46-11.79 26.2l-3 6.54-3 6.52-6.06 13a.4.4 0 0 1-.53.2z"/><path class="cls-13" d="M4177.63 2201s58.48 8.33 7.11 80.3l-16.86-62.86z"/><path class="cls-16" d="M4167.7 2304.46c3.66 12.42 10.11 16.8 26.48 12.26 12.49-3.46 18.67-19.4 15-31.83s-14.22-14.68-27.06-9.6c-8.93 3.55-18.12 16.71-14.42 29.17z"/><path class="cls-9" d="M4091.72 2305.66l-18.1 104.52 41.12 16.32a24.28 24.28 0 0 0 30-10.51l-2.58-103.33z"/><path class="cls-17" d="M4143.67 2394.93c-22.8-6.48-42-46.64-42-46.64l40.59-8.83z"/><path class="cls-9" d="M4092.88 2199.26a100.6 100.6 0 0 1 45.25-6c20.63 2.22 47.31 8.05 53.62 43.66 10.51 59.35 6.93 104.86-22.44 121.29-22.55 12.62-40 10.22-68.21-2.45-10.52-4.72-21.62-20.32-25.31-31.53l-14.3-30.92s-37.49-68.72 31.39-94.05z"/><path class="cls-13" d="M4053.4 2223.07s58.47 8.32 7.11 80.29l-16.86-62.85z"/><path class="cls-9" d="M4083.34 2315.18c-1.27 12.9-6.79 18.4-23.72 17-12.91-1.05-22-15.56-20.7-28.45s11.21-17.09 24.78-14.5c9.45 1.77 20.91 13.06 19.64 25.95z"/><path class="cls-109" d="M4052.32 2304.34s11.58-4.07 17.76 12.35"/><path class="cls-13" d="M4043.65 2240.51c1 .53 74.55-4.67 108.48-10.44 11.31-1.93-22.22-16.32-10.16-15.54 49.22 3.22 73.79-36.49 49.55-70.84 0 0-17 6.36-94.22 34.43-58.55 21.27-53.65 62.39-53.65 62.39zM4171.11 2257.12s-.22 5.86 8.84 3.36c6.88-1.9 8.83-2.21 13-2.57a6.23 6.23 0 0 0 5.23-3.56c.54-1.49-.74-3.27-1.64-4-2.53-2.09-3.05-5.3-11.43-3.07-10.79 2.83-14 9.84-14 9.84zM4145.26 2264.83s1.11 7.43-11.25 5.37c-9.39-1.56-21.13-1.43-26.68-1.38-3.15 0-6.29-1.61-7.44-3.88a3.4 3.4 0 0 1 1.47-4.75c3.73-2.12 17-6.16 28.42-4.37 14.69 2.3 15.48 9.01 15.48 9.01z"/><path class="cls-2" d="M4137.6 2284.27s-15.84-19.58-41.38.93c0 0 16.67 18.02 41.38-.93z"/><g clip-path="url(#clip-path-15)"><path class="cls-13" d="M4139.25 2282.4a10 10 0 1 1-12.39-7 10 10 0 0 1 12.39 7z"/></g><path class="cls-20" d="M4095.43 2284.31a41.53 41.53 0 0 1 10.09-6.25 32.47 32.47 0 0 1 11.42-3 25.31 25.31 0 0 1 11.51 2.13 23.19 23.19 0 0 1 9.15 7 22.89 22.89 0 0 0-9.38-6.49 24.34 24.34 0 0 0-11.19-1.5 31.22 31.22 0 0 0-10.76 3.39 39.19 39.19 0 0 0-9.25 6.41 1.18 1.18 0 1 1-1.63-1.72z"/><path class="cls-2" d="M4165.83 2280.26s9.89-20.26 25.41-7.06c0 0-9.55 20.8-25.41 7.06z"/><g clip-path="url(#clip-path-16)"><path class="cls-13" d="M4180.84 2276c-.7 5.36 1.7 10.1 5.38 10.58s7.22-3.47 7.92-8.84-1.7-10.1-5.38-10.58-7.22 3.51-7.92 8.84z"/></g><path class="cls-20" d="M4190.38 2274a14.63 14.63 0 0 0-6-4.23 11.61 11.61 0 0 0-3.64-.68 8.9 8.9 0 0 0-.9 0c-.27 0-.61.12-.91.18a9.62 9.62 0 0 0-1.84.5 17.78 17.78 0 0 0-6.5 4.13 25.48 25.48 0 0 0-4.74 6.3 25.87 25.87 0 0 1 4.31-6.71 18.53 18.53 0 0 1 6.49-4.83 12.56 12.56 0 0 1 1.95-.69c.34-.09.65-.19 1-.27a8.57 8.57 0 0 1 1.08-.13 13 13 0 0 1 4.21.46 15.75 15.75 0 0 1 3.88 1.69 19.6 19.6 0 0 1 3.33 2.6 1.19 1.19 0 1 1-1.62 1.74l-.07-.08z"/><path class="cls-109" d="M4162.51 2315.67l7.97-6.33-9.35-20.69M4152.91 2328.13c13.12 13.23 23.47-2.26 23.47-2.26"/><path d="M4147 2365.94c-30.37 2.76-55.22-19.33-55.22-19.33" stroke="#bf593a" stroke-width="1.9" stroke-linejoin="round" stroke-linecap="round" fill="none"/></svg>