<svg id="Layer_1" xmlns="http://www.w3.org/2000/svg" xmlns:xlink="http://www.w3.org/1999/xlink" viewBox="0 0 521 457"><style>.st19{fill:#000201}.st21{fill:#eca079}.st46{fill:#f0a49c}.st51{fill:#300e2e}.st73{fill:none;stroke:#ca5e34;stroke-width:2.9909;stroke-linecap:round;stroke-linejoin:round;stroke-miterlimit:10}.st83{fill:#fdbf62}.st158{fill:#fd6b64}.st267{fill:none;stroke:#000;stroke-width:1.74;stroke-linecap:round;stroke-linejoin:round;stroke-miterlimit:10}</style><switch><g><ellipse cx="270" cy="238.5" rx="217.9" ry="218.5" fill="#c4e5e5"/><defs><path id="SVGID_3_" d="M129.1-416c-7.7-.2-30.2-27.7-51.3-28-17.5-.3-30.4 13.2-37.5 13.9-27.6 2.4-97.8 24.6-151.6 83.2-19.2 20.9-70.2 196.7 9.8 246C33-18 302.3-109 269.6-287.5c-27-147.8-119.5-128-140.5-128.5z"/></defs><clipPath id="SVGID_2_"><use xlink:href="#SVGID_3_" overflow="visible"/></clipPath><g clip-path="url(#SVGID_2_)"><path class="st19" d="M57.2-192.7L68.9 22.4h-56l-9.4-211z"/><path class="st19" d="M-32.6-186.5L-75.5 22.4h58.7l49.4-213z"/></g><g><defs><ellipse id="SVGID_25_" cx="605" cy="-238.5" rx="217.9" ry="218.5"/></defs><clipPath id="SVGID_4_"><use xlink:href="#SVGID_25_" overflow="visible"/></clipPath><g clip-path="url(#SVGID_4_)"><path class="st158" d="M599.1-188.6s-47.1 2.9-87.6 27.1c-11.8 7-18.1 20.6-16.5 34.2l21 207.8h160L706-94c2.3-14.6-.2-49.1-17.9-63.4-10.4-8.6-38.9-31.2-89-31.2z"/><path class="st158" d="M523.3-167.8s-62 15.1-100.1 144l99.4 35.5L549-86.1l-25.7-81.7z"/><path fill="none" stroke="#000" stroke-width="1.806" stroke-linecap="round" stroke-linejoin="round" stroke-miterlimit="10" d="M510.8 7.5l11.8 4.2 26.5-76.6"/></g></g><g><defs><ellipse id="SVGID_27_" cx="270" cy="238.5" rx="217.9" ry="218.5"/></defs><clipPath id="SVGID_6_"><use xlink:href="#SVGID_27_" overflow="visible"/></clipPath><g clip-path="url(#SVGID_6_)"><path d="M310.1 384.9l27.5 107.6c4.1 17.4 17.7 27.6 34.8 22.5 15.7-4.7 19.6-21.1 19.6-21.1l-28.9-131.5-53 22.5z" fill="#eca179"/><path class="st21" d="M309.3 402.2l55.4 114c8.5 16.5 29.2 22.4 45.1 12.9 14.6-8.7 20-27.1 12.3-42.3l-58.3-123.3-54.5 38.7z"/><path class="st83" d="M311.4 453.9s24 6.3 83.5-50.5l-42.1-83.8c-11.8-23.4-41.1-31.7-63.3-17.8-18.4 11.4-25.9 34.5-17.8 54.6l39.7 97.5z"/><path class="st83" d="M246.5 282.5s-40.7 5.4-92.7 32.4c-8.9 4.6-9.3 14.5-8.7 24.5l-10 295.3C282 667.2 341 607.9 341 607.9l-.9-290.9c.4-9.1-5.4-17.3-14.1-19.9-19.9-6.1-55.7-15.8-79.5-14.6z"/><path class="st46" d="M214 290.2l18.9-5.1 31.9-5.8 18.4 6.8 10.7 2.3s16.5 25.1-18.4 29.2c-41.8 5-58.7-15.5-61.5-27.4z"/><path class="st267" d="M340.7 445.2l-.4-65.1"/><g><path class="st21" d="M103.1 369.1L5.9 450.6C-8 462.8-8.8 484.3 4.3 497.5c11.9 12.1 31.2 12.8 44 1.7l105.5-86.5-50.7-43.6z"/><path class="st83" d="M63.7 379.7s-.4 24.8 69 69.1L204 388c19.9-17 21-47.4 2.3-65.7-15.5-15.2-39.7-17-57.3-4.3l-85.3 61.7z"/><path class="st267" d="M142.6 440.3l42.2-36.6"/></g><g><path class="st51" d="M326.4 98.1s25 13.7-.4 50.5L293.1 101l33.3-2.9z"/><path d="M193.3 139.5c.9 36.1 46.3 65.3 72.1 63.6 36-2.3 64.6-30.8 63.8-66.9-.9-36.1-30.8-64.6-66.9-63.8-36.1 1-70 26.1-69 67.1z" fill="#b25732"/><path class="st46" d="M244.7 198.4l-12.9 102.7 52.7-.1 2-88.5z"/><path d="M285.2 265.9s-23-8.1-42.3-46.6l44.2 5.1-1.9 41.5z"/><path class="st46" d="M284.5 82.3s46.6.4 44.5 61.6c-2.1 61.2-8.9 77.7-33 91.1-21.7 12.1-50.1 2.5-66.7-23.2-6.5-10.1-11.6-25.3-12.8-37.2l-4-15.9c-.1 0-21.1-79 72-76.4z"/><path d="M254.8 131.1s-9.2 1.4-14.9 5.2c-4.7 3.2-3.9 7.9.5 9.7 2.7 1.1 10.4 1 15.5.3 16-2.4 18.3-7.8 17.6-11.6-1.1-5.2-12.1-4.9-18.7-3.6zM308.2 131.7s7.3.3 12.5 3.2c4.3 2.5 4.8 7.1 1.8 9.4-1.8 1.4-7.7 2.6-11.7 2.1-13.1-1.5-15.7-5.3-16-9-.3-5.2 8.2-6.2 13.4-5.7z"/><path class="st51" d="M223.5 96.4c.5-.4 16.8 22.5-2.1 44.7l5 33.5-7.6 3.4-13.2-20.5-1-40.9 18.9-20.2z"/><path class="st51" d="M287.5 70s-38.4-21.6-76.1.9c-29.7 17.7 6.3 49.9 6.3 49.9l10-25 37.2-11L287.5 70z"/><path class="st51" d="M211.7 90.9s-31.1-4.9-34.5 26.4 39.3 75.8 39.3 75.8l-4.8-102.2z"/><path class="st46" d="M229.4 189.5c-2.2 11.5-7.7 16-22.8 13.3-11.5-2.1-18.5-15.9-16.2-27.4 2.2-11.5 11.6-14.4 23.5-10.9 8.4 2.4 17.7 13.5 15.5 25z"/><path d="M202.4 177.1s10.8-2.7 14.9 12.6" fill="none" stroke="#ca5e36" stroke-width="2.145" stroke-linecap="round" stroke-linejoin="round" stroke-miterlimit="10"/><path class="st51" d="M204.7 103.4s45.8 22.2 59.2 12.2c13.4-10-20.3-26.4-20.3-26.4l-38.9 14.2z"/><path class="st51" d="M243.6 89.2s28.3 23.1 55.2 18.8c26.9-4.3-27.6-29-27.6-29l-27.6 10.2z"/><path class="st51" d="M291 92.1s31.8 21.6 50 14.6c18.2-6.9-1.8-27.5-29.8-29.9l-53.8-3 15.2 14.5 11.9 5"/><path class="st51" d="M313.5 81.6s25.1-20.9 6.3-27.9c-18.5-6.9-62.5 20.1-62.5 20.1l56.2 7.8z"/><path class="st51" d="M276 66.6s10.3-14.7-7.4-16.5c-17.8-1.8-47.2 16.2-59.3 51.2l34.3-5.4 33.3-14.7-.9-14.6z"/></g><g><defs><path id="XMLID_38_" d="M270.9 166.3s-11.4-18.6-35.6-3.9c.1 0 12.3 17.3 35.6 3.9z"/></defs><use xlink:href="#XMLID_38_" overflow="visible" fill="#fff"/><clipPath id="XMLID_8_"><use xlink:href="#XMLID_38_" overflow="visible"/></clipPath><path d="M262.2 163.3c.7 4.7-2.6 9.1-7.4 9.8-4.7.7-9.1-2.6-9.8-7.4-.7-4.7 2.6-9.1 7.4-9.8 4.8-.7 9.2 2.6 9.8 7.4z" clip-path="url(#XMLID_8_)"/><g><path d="M234.7 161.4c2.9-1.9 6.1-3.3 9.4-4.2 3.3-.9 6.7-1.5 10.2-1.2 3.4.3 6.8 1.4 9.6 3.2 2.9 1.8 5.4 4.2 7 7.1-1.8-2.8-4.4-5-7.3-6.6-2.9-1.5-6.1-2.5-9.4-2.5-3.3-.1-6.5.6-9.6 1.7-3.1 1.1-6 2.6-8.6 4.5-.5.4-1.3.3-1.7-.3s-.2-1.3.4-1.7c-.1 0 0 0 0 0z"/></g><g><defs><path id="XMLID_37_" d="M295.6 166.1s10.8-16.2 22.6-3.2c0 0-10.6 16.8-22.6 3.2z"/></defs><use xlink:href="#XMLID_37_" overflow="visible" fill="#fff"/><clipPath id="XMLID_11_"><use xlink:href="#XMLID_37_" overflow="visible"/></clipPath><path d="M299.1 163.2c-1.4 4.6.1 8.9 3.5 9.7 3.4.8 7.2-2.3 8.7-6.9 1.4-4.6-.1-8.9-3.5-9.7-3.3-.7-7.2 2.4-8.7 6.9z" clip-path="url(#XMLID_11_)"/><g><path d="M317.2 163.6c-1.2-1.8-2.7-3.3-4.6-4.3-.9-.5-2-.8-3-1-.3 0-.5-.1-.8-.1h-.8c-.6 0-1.1.1-1.6.2-2.2.4-4.2 1.4-6 2.8-1.8 1.3-3.5 3-4.8 4.8 1.2-2 2.7-3.8 4.4-5.3 1.8-1.5 3.8-2.8 6.1-3.5.6-.2 1.2-.3 1.8-.4.3 0 .6-.1.9-.1h1c1.2.1 2.5.4 3.6.9 2.3.9 4.3 2.6 5.8 4.5.4.5.3 1.3-.2 1.7-.6.5-1.3.5-1.8-.2 0 .1 0 .1 0 0z"/></g></g><path class="st73" d="M291.5 178l5 8.3-4.7 4.6M275.2 196.4s12 11.5 21.3 4.6"/></g></g></g></g></switch></svg>