<svg id="Layer_1" data-name="Layer 1" xmlns="http://www.w3.org/2000/svg" viewBox="0 0 2567.11 1021.3"><defs><style>.cls-6{opacity:.66}.cls-4,.cls-6{fill:#fff}.cls-5{opacity:.81}.cls-6{isolation:isolate}.cls-8{fill:#ffe436}.cls-11{fill:#21a498}.cls-13{fill:#f36867}</style><clipPath id="clip-path"><path d="M1321.21 678.6c18.6-4 35.9-12.9 51.2-26.5 15.6-13.8 28.6-31.7 38.5-53.2 20.9-45.2 25.9-100.5 13.9-155.8s-39.2-103.6-76.9-136.2c-17.9-15.5-37.1-26.5-57-32.6-19.6-6-39-7.1-57.6-3s-35.9 12.9-51.2 26.5c-15.6 13.8-28.6 31.7-38.5 53.2-20.9 45.2-25.9 100.5-13.9 155.8s39.2 103.6 76.9 136.2c17.9 15.5 37.1 26.5 57 32.6 19.6 6 39 7 57.6 3z" fill="none"/></clipPath><linearGradient id="linear-gradient" x1="-4039.08" y1="748.55" x2="-3768.17" y2="246.11" gradientTransform="rotate(-179.05 -1221.365 431.105)" gradientUnits="userSpaceOnUse"><stop offset="0" stop-color="#ff9085"/><stop offset="1" stop-color="#fb6fbb"/></linearGradient></defs><path d="M1478.61 34.2c-35.5.4-209.5-6.3-249.2-1.3-69.5 8.7-123 31.9-173.5 56.7-63.4 31.1-120.6 67.3-174.6 105.8-69.8 49.8-134.4 103.4-185.5 167.2-44.9 56-41.2 122.2-33.3 213.7 4.5 51.7-7.9 106 34.9 184.6 180.8 332.3 1316.9 353.5 1211.7-374.6-54.6-377.9-377.8-352.6-430.5-352.1z" fill="#c4e5e5"/><g opacity=".66"><path class="cls-4" d="M1179.41 292.8l-19-1.4a98 98 0 0 0-13-39.6l14.4-12.4a17.45 17.45 0 0 0-22.7-26.5l-14.3 12.3a97.69 97.69 0 0 0-37.2-18.8l1.4-19a17.45 17.45 0 0 0-34.8-2.6l-1.4 19a98 98 0 0 0-39.6 13l-12.4-14.4a17.45 17.45 0 1 0-26.5 22.7l12.4 14.4a97.54 97.54 0 0 0-18.8 37.2l-19-1.4a17.45 17.45 0 0 0-2.6 34.8l19 1.4a98 98 0 0 0 13 39.6l-14.4 12.4a17.45 17.45 0 1 0 22.7 26.5l14.4-12.4a97.68 97.68 0 0 0 37.2 18.8l-1.4 19a17.45 17.45 0 1 0 34.8 2.6l1.4-19a98 98 0 0 0 39.6-13l12.4 14.4a17.45 17.45 0 1 0 26.5-22.7l-12.6-14.4a97.83 97.83 0 0 0 18.8-37.2l19 1.4a17.46 17.46 0 0 0 18.7-16.1 17.28 17.28 0 0 0-16-18.6zm-122 79.4a71 71 0 1 1 76.2-65.4 71 71 0 0 1-76.2 65.4zm527 455.2a15.71 15.71 0 0 1-6.7-1.6 14.78 14.78 0 0 1-7.2-8.5l-3.4-10.8a71.94 71.94 0 0 1-26.1-2.2l-5.2 10a14.56 14.56 0 0 1-19.6 6.2 14.78 14.78 0 0 1-7.2-8.5 14.34 14.34 0 0 1 1-11.1l5.2-10a68.68 68.68 0 0 1-16.8-20l-10.8 3.4a14.5 14.5 0 0 1-18.2-9.5 14.34 14.34 0 0 1 1-11.1 14.78 14.78 0 0 1 8.5-7.2l10.8-3.4a71.94 71.94 0 0 1 2.2-26.1l-10-5.2a14.78 14.78 0 0 1-7.2-8.5 14.34 14.34 0 0 1 1-11.1 14.78 14.78 0 0 1 8.5-7.2 14.34 14.34 0 0 1 11.1 1l10 5.2a70.26 70.26 0 0 1 20-16.8l-3.4-10.8a14.5 14.5 0 0 1 9.5-18.2 14.34 14.34 0 0 1 11.1 1 14.78 14.78 0 0 1 7.2 8.5l3.4 10.8a71.94 71.94 0 0 1 26.1 2.2l5.2-10a14.54 14.54 0 1 1 25.8 13.4l-5.2 10a68.68 68.68 0 0 1 16.8 20l10.8-3.4a14.34 14.34 0 0 1 11.1 1 14.78 14.78 0 0 1 7.2 8.5 14.5 14.5 0 0 1-9.5 18.2l-10.8 3.4a71.94 71.94 0 0 1-2.2 26.1l10 5.2a14.56 14.56 0 0 1 6.2 19.6 14.78 14.78 0 0 1-8.5 7.2 14.34 14.34 0 0 1-11.1-1l-10-5.2a68.68 68.68 0 0 1-20 16.8l3.4 10.8a14.34 14.34 0 0 1-1 11.1 14.78 14.78 0 0 1-8.5 7.2 23.16 23.16 0 0 1-4.5.6zm-13.8-26.1l4.6 14.5a9.7 9.7 0 0 0 4.8 5.7 9.55 9.55 0 0 0 7.4.6 9.7 9.7 0 0 0 5.7-4.8 9.55 9.55 0 0 0 .6-7.4l-4.6-14.5 1.8-.9a66.57 66.57 0 0 0 21.5-18l1.2-1.6 13.5 7a9.55 9.55 0 0 0 7.4.6 9.77 9.77 0 0 0 1.5-18l-13.5-7 .6-1.9a65.92 65.92 0 0 0 2.4-27.9l-.3-2 14.5-4.6a9.85 9.85 0 0 0 6.4-12.3 9.7 9.7 0 0 0-4.8-5.7 9.55 9.55 0 0 0-7.4-.6l-14.5 4.6-.9-1.8a65.53 65.53 0 0 0-18-21.5l-1.6-1.2 7-13.5a9.79 9.79 0 1 0-17.4-9l-7 13.5-1.9-.6a65.92 65.92 0 0 0-27.9-2.4l-2 .3-4.6-14.5a9.7 9.7 0 0 0-4.8-5.7 9.55 9.55 0 0 0-7.4-.6 9.85 9.85 0 0 0-6.4 12.3l4.6 14.5-1.8.9a66.57 66.57 0 0 0-21.5 18l-1.2 1.6-13.5-7a9.55 9.55 0 0 0-7.4-.6 9.7 9.7 0 0 0-5.7 4.8 9.55 9.55 0 0 0-.6 7.4 9.7 9.7 0 0 0 4.8 5.7l13.5 7-.6 1.9a65.92 65.92 0 0 0-2.4 27.9l.3 2-14.5 4.6a9.7 9.7 0 0 0-5.7 4.8 9.55 9.55 0 0 0-.6 7.4 9.85 9.85 0 0 0 12.3 6.4l14.5-4.6.9 1.8a66.57 66.57 0 0 0 18 21.5l1.6 1.2-7 13.5a9.55 9.55 0 0 0-.6 7.4 9.77 9.77 0 0 0 18 1.5l7-13.5 1.9.6a65.92 65.92 0 0 0 27.9 2.4l1.9-.2zm-10.5-13.3a52.33 52.33 0 1 1 15.8-2.5 51.43 51.43 0 0 1-15.8 2.5zm.1-99.1a47.1 47.1 0 1 0 21.6 5.3 46.87 46.87 0 0 0-21.6-5.3z"/><path class="cls-4" d="M1709.51 738.5a24.52 24.52 0 0 1-2.7-.2 18.72 18.72 0 0 1-15.8-21.2l2.3-15.7a92.77 92.77 0 0 1-31.1-18.5l-12.7 9.5a18.72 18.72 0 0 1-22.4-30l12.7-9.5a94.72 94.72 0 0 1-8.9-35l-15.7-2.3a18.7 18.7 0 1 1 5.4-37l15.7 2.3a92.77 92.77 0 0 1 18.5-31.1l-9.5-12.7a18.72 18.72 0 0 1 30-22.4l9.5 12.7a94.72 94.72 0 0 1 35-8.9l2.3-15.7a18.7 18.7 0 1 1 37 5.4l-2.3 15.7a92.77 92.77 0 0 1 31.1 18.5l12.7-9.5a18.72 18.72 0 1 1 22.4 30l-12.7 9.5a94.23 94.23 0 0 1 8.9 35l15.7 2.3a18.7 18.7 0 0 1-5.4 37l-15.7-2.3a92.77 92.77 0 0 1-18.5 31.1l9.5 12.7a18.72 18.72 0 0 1-30 22.4l-9.5-12.7a94.72 94.72 0 0 1-35 8.9l-2.3 15.7a18.81 18.81 0 0 1-18.5 16zm-47-61.8l1.5 1.4a88.54 88.54 0 0 0 32.7 19.5l1.9.6-2.8 19.6a13.94 13.94 0 0 0 27.6 4l2.8-19.6 2-.1a88.07 88.07 0 0 0 36.9-9.4l1.8-.9 11.8 15.9a14.06 14.06 0 0 0 9.2 5.5 13.89 13.89 0 0 0 13.1-22.1l-11.8-15.9 1.4-1.5a88.54 88.54 0 0 0 19.5-32.7l.6-1.9 19.6 2.8a13.94 13.94 0 0 0 4-27.6l-19.6-2.8-.1-2a88.07 88.07 0 0 0-9.4-36.9l-.9-1.8 15.9-11.8a13.91 13.91 0 0 0 2.8-19.5 14.06 14.06 0 0 0-9.2-5.5 13.9 13.9 0 0 0-10.3 2.6l-15.9 11.8-1.5-1.4a88.54 88.54 0 0 0-32.7-19.5l-1.9-.6 2.8-19.6a13.9 13.9 0 0 0-2.6-10.3 13.94 13.94 0 0 0-25 6.3l-2.8 19.6-2 .1a88.07 88.07 0 0 0-36.9 9.4l-1.8.9-11.8-15.9a14.06 14.06 0 0 0-9.2-5.5 13.9 13.9 0 0 0-10.3 2.6 14.06 14.06 0 0 0-5.5 9.2A13.9 13.9 0 0 0 1649 534l11.8 15.9-1.4 1.5a88.54 88.54 0 0 0-19.5 32.7l-.6 1.9-19.6-2.8a13.9 13.9 0 0 0-10.3 2.6 13.94 13.94 0 0 0 6.3 25l19.6 2.8.1 2a88.07 88.07 0 0 0 9.4 36.9l.9 1.8-15.9 11.8a14.06 14.06 0 0 0-5.5 9.2 13.9 13.9 0 0 0 2.6 10.3 14.06 14.06 0 0 0 9.2 5.5 13.9 13.9 0 0 0 10.3-2.6l16.1-11.8zm62.7 4.8a68.9 68.9 0 1 1 9.8-137.1 68.91 68.91 0 0 1-9.8 137.1zm-.3-133a63.29 63.29 0 1 0 9.4.6 73 73 0 0 0-9.4-.6z"/></g><g class="cls-5"><path class="cls-4" d="M1413.51 793h-48.9a2.4 2.4 0 1 1 0-4.8h48.9a2.43 2.43 0 0 1 2.4 2.4 2.37 2.37 0 0 1-2.4 2.4zm0 50.9h-48.9a2.4 2.4 0 1 1 0-4.8h48.9a2.4 2.4 0 1 1 0 4.8z"/><path class="cls-4" d="M1450.51 895.3h-302.2a6.49 6.49 0 0 1-6.5-6.5V732a6.49 6.49 0 0 1 6.5-6.5h302.2a6.49 6.49 0 0 1 6.5 6.5v156.9a6.6 6.6 0 0 1-6.5 6.4zm-302.2-165a1.75 1.75 0 0 0-1.7 1.7v156.9a1.75 1.75 0 0 0 1.7 1.7h302.2a1.75 1.75 0 0 0 1.7-1.7V732a1.75 1.75 0 0 0-1.7-1.7z"/><path class="cls-6" d="M1450.51 895.3h-302.2a6.49 6.49 0 0 1-6.5-6.5V732a6.49 6.49 0 0 1 6.5-6.5h302.2a6.49 6.49 0 0 1 6.5 6.5v156.9a6.6 6.6 0 0 1-6.5 6.4zm-302.2-165a1.75 1.75 0 0 0-1.7 1.7v156.9a1.75 1.75 0 0 0 1.7 1.7h302.2a1.75 1.75 0 0 0 1.7-1.7V732a1.75 1.75 0 0 0-1.7-1.7z"/><path class="cls-4" d="M1413.51 768.4h-233.2a2.4 2.4 0 1 1 0-4.8h233.2a2.4 2.4 0 1 1 0 4.8zm0 49.3h-233.2a2.4 2.4 0 1 1 0-4.8h233.2a2.43 2.43 0 0 1 2.4 2.4 2.37 2.37 0 0 1-2.4 2.4zm-107.4-24.7h-125.8a2.4 2.4 0 1 1 0-4.8H1306a2.43 2.43 0 0 1 2.4 2.4 2.29 2.29 0 0 1-2.3 2.4zm0 50.9h-125.8a2.4 2.4 0 1 1 0-4.8H1306a2.43 2.43 0 0 1 2.4 2.4 2.35 2.35 0 0 1-2.3 2.4zm-41 23.6h-84.8a2.4 2.4 0 1 1 0-4.8h84.8a2.4 2.4 0 1 1 0 4.8z"/></g><g class="cls-5"><path class="cls-4" d="M879.31 714.5h-55a2.4 2.4 0 1 1 0-4.8h55a2.43 2.43 0 0 1 2.4 2.4 2.31 2.31 0 0 1-2.4 2.4zm0-57.1h-55a2.4 2.4 0 0 1 0-4.8h55a2.43 2.43 0 0 1 2.4 2.4 2.37 2.37 0 0 1-2.4 2.4z"/><path class="cls-4" d="M1123 785.1H782.31a6.49 6.49 0 0 1-6.5-6.5V601.3a6.49 6.49 0 0 1 6.5-6.5H1123a6.49 6.49 0 0 1 6.5 6.5v177.3a6.49 6.49 0 0 1-6.5 6.5zM782.31 599.6a1.75 1.75 0 0 0-1.7 1.7v177.3a1.75 1.75 0 0 0 1.7 1.7H1123a1.75 1.75 0 0 0 1.7-1.7V601.3a1.75 1.75 0 0 0-1.7-1.7z"/><path class="cls-6" d="M1123 785.1H782.31a6.49 6.49 0 0 1-6.5-6.5V601.3a6.49 6.49 0 0 1 6.5-6.5H1123a6.49 6.49 0 0 1 6.5 6.5v177.3a6.49 6.49 0 0 1-6.5 6.5zM782.31 599.6a1.75 1.75 0 0 0-1.7 1.7v177.3a1.75 1.75 0 0 0 1.7 1.7H1123a1.75 1.75 0 0 0 1.7-1.7V601.3a1.75 1.75 0 0 0-1.7-1.7z"/><path class="cls-4" d="M1086.41 742.3h-262.1a2.4 2.4 0 1 1 0-4.8h262.1a2.4 2.4 0 0 1 0 4.8zm0-55.5h-262.1a2.4 2.4 0 1 1 0-4.8h262.1a2.4 2.4 0 0 1 0 4.8zm0 27.7h-141.3a2.4 2.4 0 0 1 0-4.8h141.3a2.43 2.43 0 0 1 2.4 2.4 2.37 2.37 0 0 1-2.4 2.4zm0-57.1h-141.3a2.4 2.4 0 0 1 0-4.8h141.3a2.4 2.4 0 0 1 0 4.8zm0-26.5h-95.3a2.4 2.4 0 0 1 0-4.8h95.3a2.4 2.4 0 0 1 0 4.8z"/></g><path d="M1151 802.5c-20.1.5-41.2-8.7-53.1-24.5L937.71 565.8c-13.9-18.4-9.5-43.3 10.2-56.1 20.2-13.1 58.1-11 73.2 8.2l174.5 221.1c17.3 22 10.4 48.4-14.9 58.5-6.2 2.5-23 4.8-29.71 5z" fill="#edcc2e"/><ellipse class="cls-8" cx="939.01" cy="549.18" rx="59.9" ry="62.1" transform="rotate(-12.17 939.022 549.175)"/><path d="M922.91 490.8c-4.9 43.2 3.6 82.5 25.8 119.7l369.8 76.4-86.6-422.8z" fill="#3bbcad"/><path d="M1183.91 581.7c-37.8-8.2-59.9-60.1-97.9-53.6-28.5 4.9-30.1 37.9-57.2 39.9-26.8 1.9-38.3-30.6-68.5-35.8-13.4-2.3-25.7 1.7-36.7 8.9 3.5 24 11.8 47 25.2 69.5l369.8 76.4-55.7-138.5c-34.8 31-60.1 37.3-79 33.2z" fill="#29a593"/><ellipse class="cls-11" cx="1277.31" cy="474.89" rx="162.5" ry="215.6" transform="rotate(-12.17 1277.327 474.905)"/><path class="cls-8" d="M1321.21 678.6c18.6-4 35.9-12.9 51.2-26.5 15.6-13.8 28.6-31.7 38.5-53.2 20.9-45.2 25.9-100.5 13.9-155.8s-39.2-103.6-76.9-136.2c-17.9-15.5-37.1-26.5-57-32.6-19.6-6-39-7.1-57.6-3s-35.9 12.9-51.2 26.5c-15.6 13.8-28.6 31.7-38.5 53.2a222 222 0 0 0-17.8 61.2c-4.3 30.2 31.9 52.9 38.8 85.1 7.4 34.2-14.3 75.2 3.7 102a217.45 217.45 0 0 0 38.3 43.6c17.9 15.5 37.1 26.5 57 32.6 19.6 6.1 39 7.1 57.6 3.1z"/><g clip-path="url(#clip-path)"><path class="cls-13" d="M1291 474.9c11.5 53.4-24.9 105.6-80.6 116.5-54.8 10.7-107.7-22.8-118.9-74.7s23.3-103.7 77.8-115.9c55.31-12.5 110.21 20.6 121.7 74.1z"/></g><path class="cls-11" d="M1334.61 434.4s27.9-16.7 44.5-43.3c-24-28.3-37.9-62.9-37.3-99.5 1.5-87.7 85.4-160 192-161.5 109-1.5 200.7 71 203.9 163.3v.1c0 1.1.1 2.3.1 3.4v3.9c-.1 5.2-.5 10.4-1.1 15.5-.3 2.2-.6 4.3-1 6.5-.7 4.3-1.7 8.5-2.8 12.7-.6 2.1-1.2 4.2-1.8 6.2-.4 1.4-.9 2.7-1.4 4.1-11.2 31.8-33.4 59.1-62.7 79.3-.6.4-1.2.9-1.9 1.3a203.27 203.27 0 0 1-32.5 17.7c-.7.3-1.4.6-2.2.9-5.1 2.1-10.3 4.1-15.6 5.8-2.3.8-4.6 1.5-6.9 2.2-1.5.5-3.1.9-4.7 1.3-2.3.6-4.7 1.2-7.1 1.8-1.6.4-3.2.7-4.8 1.1a230.74 230.74 0 0 1-63.1 4.6l-4.8-.3c-.5 0-.9-.1-1.4-.1l-3.4-.3c-.5-.1-1-.1-1.5-.2-1.1-.1-2.2-.2-3.3-.4-.5-.1-.9-.1-1.4-.2-1.1-.1-2.3-.3-3.4-.5-.4-.1-.8-.1-1.2-.2l-3.6-.6c-.3-.1-.6-.1-.9-.2-1.3-.2-2.6-.5-4-.7a4.33 4.33 0 0 1-.5-.1c-1.5-.3-3-.6-4.4-.9a225.71 225.71 0 0 1-35.6-10.5 212 212 0 0 1-19.4-8.7c-15.4 11.9-54.7 33.2-104.8-3.5z"/><path d="M1327.71 290.7c-1.5 87.7 80 163.9 186.5 170.4 111.8 6.8 207.9-65.2 209.5-161s-92.1-172.3-204-170.8c-106.6 1.4-190.6 73.7-192 161.4z" fill="url(#linear-gradient)"/><path class="cls-4" d="M1327.71 290.7c-1.5 87.7 80 163.9 186.5 170.4 111.8 6.8 207.9-65.2 209.5-161s-92.1-172.3-204-170.8c-106.6 1.4-190.6 73.7-192 161.4z"/><path class="cls-4" d="M1432.21 431.2s-46.8 50-111.8 2.4c0 0 53.2-31.8 56.3-77.6z"/><path class="cls-13" d="M1490.31 378.1a23.75 23.75 0 0 1 9.5-17.5 27.38 27.38 0 0 1 19.9-5.2c7.7.8 13.9 3.8 18.5 9.1s6.6 11.6 5.9 19a23.75 23.75 0 0 1-9.5 17.5 27.38 27.38 0 0 1-19.9 5.2c-7.7-.8-13.9-3.8-18.5-9.1a23.44 23.44 0 0 1-5.9-19zm51.5-41.9l-39.3-3.9 8.7-150.2 51.7 5.1z"/></svg>