<svg id="Layer_1" data-name="Layer 1" xmlns="http://www.w3.org/2000/svg" viewBox="0 0 521 457"><defs><style>.cls-1,.cls-12,.cls-13,.cls-18,.cls-8{fill:none}.cls-2{fill:#fff}.cls-3{fill:#c4e5e5}.cls-13,.cls-18{stroke-miterlimit:10}.cls-7{fill:#f5d344}.cls-8{stroke:#2d1c22;stroke-width:.47px}.cls-12,.cls-8{stroke-linecap:round;stroke-linejoin:round}.cls-9{fill:#ffafad}.cls-10{fill:#282828}.cls-11{fill:#2d1c22}.cls-12{stroke:#282828;stroke-width:2.16px}.cls-13{stroke:#fff;stroke-width:3.02px}.cls-14{clip-path:url(#clip-path-3)}.cls-15{clip-path:url(#clip-path-4)}.cls-16{fill:#f0a49c}.cls-18{stroke:#e58e88;stroke-width:2.13px}</style><clipPath id="clip-path"><path class="cls-1" d="M335.13 61c-7.72-.19-30.23-27.66-51.34-28-17.48-.26-30.42 13.25-37.55 13.87-27.57 2.42-97.83 24.63-151.58 83.22-19.19 20.92-70.19 196.69 9.76 246C239 459 508.28 368 475.65 189.46 448.65 41.74 356.11 61.49 335.13 61z"/></clipPath><clipPath id="clip-path-2"><path class="cls-1" d="M335.33 58.25c-14.12-.34-76.65-2.21-92.39-.83-27.58 2.42-94.33 11.35-148.08 69.94-19.19 20.92-70.19 196.69 9.75 246 134.58 82.94 403.87-8.05 371.24-186.58C448.85 39 356.3 58.76 335.33 58.25z"/></clipPath><clipPath id="clip-path-3"><path class="cls-2" d="M255.32 107.7s-7.8-12.77-24.44-2.69c0-.01 8.41 11.92 24.44 2.69z"/></clipPath><clipPath id="clip-path-4"><path class="cls-2" d="M296.38 108.38s-8.54-12.29-24.55-1.24c0 0 9.1 11.4 24.55 1.24z"/></clipPath></defs><path class="cls-3" d="M321.82 77c-13.22-.32-71.77-2.07-86.51-.78-25.82 2.27-88.31 10.63-138.66 65.49-18 19.59-65.72 184.17 9.14 230.31 126 77.66 378.16-7.54 347.61-174.71C428.11 59 341.46 77.48 321.82 77z"/><rect class="cls-2" x="327.21" y="137.51" width="100.32" height="22.21" rx="11.1"/><rect class="cls-2" x="327.21" y="163.21" width="100.32" height="22.21" rx="11.1"/><rect x="325.9" y="161.68" width="102.95" height="25.16" rx="12" stroke-miterlimit="10" stroke="#569b97" fill="none"/><rect class="cls-2" x="327.21" y="188.91" width="100.32" height="22.21" rx="11.1"/><path d="M357.53 150.38c-.19.37-.38.74-.58 1.11s-.38.74-.56 1.13c0 .1-.09.21-.13.33a2.25 2.25 0 0 1-.16.31.84.84 0 0 1-.23.23.64.64 0 0 1-.36.09.68.68 0 0 1-.2 0 .86.86 0 0 1-.4-.14 1 1 0 0 1-.25-.26 2.69 2.69 0 0 1-.17-.34 2.43 2.43 0 0 0-.16-.37c-.21-.4-.41-.79-.62-1.17s-.4-.76-.59-1.14l-.5-1c-.16-.35-.34-.7-.52-1s-.24-.47-.37-.7l-.35-.7a4.53 4.53 0 0 1-.17-.45.77.77 0 0 0-.19-.38c0 .69 0 1.37.05 2.05s0 1.35.05 2 .05 1.25.1 1.88.09 1.24.09 1.85a.7.7 0 0 1-.07.36c-.05.06-.17.08-.37.08a1.37 1.37 0 0 1-.52-.1 1.19 1.19 0 0 0-.4-.1h-.07a.31.31 0 0 1-.1-.19 1.35 1.35 0 0 1 0-.2 8.51 8.51 0 0 1 0-.88 8.83 8.83 0 0 0 0-.89V146v-.81-.8-.28a2.19 2.19 0 0 1 0-.36 1.36 1.36 0 0 1 .08-.32q.06-.15.18-.15h.53a1 1 0 0 1 .35.09 1 1 0 0 1 .27.24 3 3 0 0 1 .26.43c.36.66.73 1.31 1.09 1.94s.73 1.29 1.08 2c.07.11.19.35.36.71s.35.74.55 1.13.39.73.57 1 .33.46.42.46 0 0 .07-.09l.06-.1a8.86 8.86 0 0 0 .44-.87c.13-.3.27-.6.41-.89.36-.68.73-1.35 1.1-2s.73-1.34 1.09-2l.19-.41c.08-.18.16-.36.25-.54a4.68 4.68 0 0 1 .28-.5.85.85 0 0 1 .3-.3 1.5 1.5 0 0 1 .38-.07h.4a.54.54 0 0 1 .33.09.38.38 0 0 1 .14.21 1.3 1.3 0 0 1 0 .31V147.32c0 .94 0 1.9.05 2.86v2.32a5 5 0 0 0 .06.56 3.43 3.43 0 0 1 0 .56.78.78 0 0 1-.06.31.24.24 0 0 1-.26.15.54.54 0 0 1-.22-.05l-.2-.07a.58.58 0 0 0-.2-.06h-.08v-.08a.72.72 0 0 0-.05-.24 3.49 3.49 0 0 1-.07-.43v-.43-1.7l-.06-1.7v-1.23c0-.4 0-.82-.05-1.24v-.3a1.37 1.37 0 0 0 0-.28.32.32 0 0 0 0-.08v-.07s-.08.05-.14.16a2.33 2.33 0 0 1-.13.21q-.55 1-1 1.95c-.36.62-.68 1.28-1.02 1.94zM366.57 154.31a2.75 2.75 0 0 1-1.78-.57 4.07 4.07 0 0 1-1.14-1.42 7 7 0 0 1-.6-1.85 10.3 10.3 0 0 1-.18-1.84 9 9 0 0 1 .2-1.86 5.19 5.19 0 0 1 .65-1.67 3.75 3.75 0 0 1 1.2-1.21 3.41 3.41 0 0 1 1.83-.46 2.74 2.74 0 0 1 1.82.58 4.05 4.05 0 0 1 1.09 1.45 6.39 6.39 0 0 1 .54 1.88 13 13 0 0 1 .15 1.88 8.47 8.47 0 0 1-.2 1.79 5.42 5.42 0 0 1-.66 1.64 3.69 3.69 0 0 1-1.17 1.19 3.07 3.07 0 0 1-1.75.47zm.18-9.63a2.43 2.43 0 0 0-1.3.31 2.27 2.27 0 0 0-.8.83 3.94 3.94 0 0 0-.4 1.17 8.4 8.4 0 0 0-.11 1.32c0 .37 0 .73.05 1.07a9.3 9.3 0 0 0 .22 1.07 5.75 5.75 0 0 0 .45 1.22 3.77 3.77 0 0 0 .72 1 1.39 1.39 0 0 0 1 .4 1.68 1.68 0 0 0 1.21-.46 3.47 3.47 0 0 0 .77-1.15A6.11 6.11 0 0 0 369 150a7 7 0 0 0 0-2.52 5.82 5.82 0 0 0-.38-1.33 3.56 3.56 0 0 0-.73-1.07 1.52 1.52 0 0 0-1.14-.4zM371.69 141.87a.11.11 0 0 0 0-.06v-.05a.27.27 0 0 1 .14-.23.94.94 0 0 1 .31-.1 2.17 2.17 0 0 1 .36 0h.28a3.8 3.8 0 0 1 1.84.4 3 3 0 0 1 1.1 1.08 4.69 4.69 0 0 1 .54 1.54 10.66 10.66 0 0 1 .14 1.82v2.33c0 .78-.05 1.55-.11 2.33 0 .34-.05.68-.07 1s0 .68 0 1A4.29 4.29 0 0 1 376 154a3.2 3.2 0 0 1-.41 1 2.37 2.37 0 0 1-.72.69 1.82 1.82 0 0 1-1 .28 2.28 2.28 0 0 1-.73-.12 2.74 2.74 0 0 1-.64-.32 1.37 1.37 0 0 1-.44-.79 7.49 7.49 0 0 1-.22-1.26c-.05-.46-.07-.9-.08-1.34s0-.77 0-1v-1.44c0-.44 0-1 .06-1.44a3.38 3.38 0 0 1 .61-1.67A1.94 1.94 0 0 1 374 146a1.05 1.05 0 0 1 .57.15.81.81 0 0 0 .31.14h.12v-.53a3.47 3.47 0 0 0-.59-2.14 2.46 2.46 0 0 0-2.09-.77.68.68 0 0 1-.33-.07.42.42 0 0 1-.17-.2 1.83 1.83 0 0 1-.1-.28c.03-.21 0-.3-.03-.43zm3.13 11.1c.05-1 .08-1.94.09-2.9s0-1.92 0-2.9a.72.72 0 0 0-.26-.08h-.28a1 1 0 0 0-1 .43 2.81 2.81 0 0 0-.3 1.1v4.79a4 4 0 0 0 0 .48 1.46 1.46 0 0 0 .1.47.73.73 0 0 0 .26.34.82.82 0 0 0 .5.14 1.05 1.05 0 0 0 .44-.1 1 1 0 0 0 .17-.35 2.82 2.82 0 0 0 .11-.46c0-.16 0-.32.07-.48a3.18 3.18 0 0 0 .1-.45zM382.47 143.41c0 .73.11 1.47.19 2.19a20.36 20.36 0 0 1 .12 2.22v1.45c0 .45-.05 1-.09 1.46s-.06.87-.11 1.44a8.23 8.23 0 0 1-.32 1.67 4.28 4.28 0 0 1-.7 1.4 1.53 1.53 0 0 1-1.28.58 2 2 0 0 1-1.65-.68 2.56 2.56 0 0 1-.57-1.71v-.59a1.63 1.63 0 0 1 .12-.54.85.85 0 0 1 .3-.4 1 1 0 0 1 .6-.15.25.25 0 0 1 .11 0 .14.14 0 0 1 .06.11.4.4 0 0 1-.06.22.46.46 0 0 0-.06.22v.6a5.65 5.65 0 0 0 .13.79 2.48 2.48 0 0 0 .28.68.5.5 0 0 0 .44.29.55.55 0 0 0 .28-.07l.23-.18a1.39 1.39 0 0 0 .31-.45 2.58 2.58 0 0 0 .16-.56c0-.2.06-.4.08-.6a4.37 4.37 0 0 1 .06-.56c0-.46.07-.91.1-1.36s0-.91 0-1.37.05-1.18.07-1.77.05-1.18.05-1.78v-.32a.8.8 0 0 0-.09-.32 2.91 2.91 0 0 1-.51.83 1.06 1.06 0 0 1-.85.39 1.52 1.52 0 0 1-1.17-.46 3.16 3.16 0 0 1-.69-1.12 6.27 6.27 0 0 1-.33-1.39 10.27 10.27 0 0 1-.08-1.27.7.7 0 0 1 .24-.58 1 1 0 0 1 .62-.18.47.47 0 0 1 .3.09.53.53 0 0 1 .16.23 1.32 1.32 0 0 1 .07.3v1.16a4.07 4.07 0 0 0 0 .85 3 3 0 0 0 .11.39 2.22 2.22 0 0 0 .2.41 1.12 1.12 0 0 0 .28.33.52.52 0 0 0 .36.14.63.63 0 0 0 .49-.22 1.57 1.57 0 0 0 .3-.54 3.5 3.5 0 0 0 .15-.64 4.16 4.16 0 0 0 0-.55 2.84 2.84 0 0 0-.07-.66 3 3 0 0 1-.08-.67.3.3 0 0 1 .25-.34 1.94 1.94 0 0 1 .46-.06h.56a.62.62 0 0 1 .29.06.39.39 0 0 1 .16.21 1.48 1.48 0 0 1 .05.43v.45a3.38 3.38 0 0 0-.03.5zM389.14 151.34c0 .11.07.29.14.56s.15.53.23.82.15.54.21.78a2.48 2.48 0 0 1 .09.44c0 .1 0 .16-.11.18h-.46a1.16 1.16 0 0 1-.49-.1.51.51 0 0 1-.23-.23 1 1 0 0 1-.11-.34 2.48 2.48 0 0 0-.09-.48c-.09-.41-.19-.81-.31-1.2s-.23-.79-.33-1.19-.2-.85-.29-1.27-.19-.84-.31-1.26l-.06-.45c0-.22-.08-.44-.12-.68s-.09-.45-.14-.65a.66.66 0 0 0-.13-.33c-.14.82-.27 1.64-.39 2.44s-.24 1.62-.24 2.45c-.05.46-.11.9-.2 1.34s-.14.89-.18 1.34v.29a.35.35 0 0 1 0 .16.19.19 0 0 1-.12.09l-.27.07a.69.69 0 0 1-.25 0 1.9 1.9 0 0 1-.4 0 1.88 1.88 0 0 1-.38-.14 9.17 9.17 0 0 1 .28-1.94 16.25 16.25 0 0 0 .39-1.94c.12-.82.24-1.62.36-2.42s.25-1.6.37-2.41a3.72 3.72 0 0 0 0-.44v-.57a4.27 4.27 0 0 1 .08-.55.54.54 0 0 1 .15-.34.67.67 0 0 1 .36-.1 2.7 2.7 0 0 1 .37 0h.24a.67.67 0 0 1 .22 0 .54.54 0 0 1 .2.22 1.21 1.21 0 0 1 .13.35c0 .13 0 .26.07.39a2.75 2.75 0 0 1 .05.31q.38 1.71.81 3.39c.29 1.14.57 2.27.86 3.41zM393.8 150.11a3.78 3.78 0 0 1 1 1.16 2.81 2.81 0 0 1 .43 1.48 2.05 2.05 0 0 1-.27 1.05 2.11 2.11 0 0 1-.74.77 3.28 3.28 0 0 1-.95.39 6.14 6.14 0 0 1-1.06.13h-1.06c0-.31-.06-.63-.07-.93s0-.62 0-.93c0-1.1 0-2.19.1-3.27s.09-2.16.09-3.26v-1.72-1.72-.51a.67.67 0 0 1 .11-.32.46.46 0 0 1 .27-.18 1.76 1.76 0 0 1 .52-.06c.31 0 .48.09.51.26a3.06 3.06 0 0 1 0 .65 8.94 8.94 0 0 1-.06 1c0 .34-.08.68-.11 1s0 .68-.08 1a6.77 6.77 0 0 0-.07 1v1.53a1.39 1.39 0 0 0 .12.68.57.57 0 0 0 .32.27 2.5 2.5 0 0 0 .46.14 1.46 1.46 0 0 1 .54.39zm-.88 3.49a1.52 1.52 0 0 0 .67-.54 1.26 1.26 0 0 0 .28-.8 1.23 1.23 0 0 0-.11-.47 2.21 2.21 0 0 0-.3-.45 1.54 1.54 0 0 0-.46-.34.88.88 0 0 0-.46-.14.28.28 0 0 0-.3.21 1.32 1.32 0 0 0-.06.39 4.21 4.21 0 0 0 0 .62 3.35 3.35 0 0 1 .05.63 2.54 2.54 0 0 1 0 .26v.33a.71.71 0 0 0 .07.27.21.21 0 0 0 .21.12.47.47 0 0 0 .17 0zM405.07 155v.11a.2.2 0 0 0 0 .11c0 .05-.06.1-.17.12l-.33.07H404l-.21-.05a.09.09 0 0 1-.07-.06.18.18 0 0 1 0-.11.59.59 0 0 0 0-.2 6.11 6.11 0 0 1-.05-.73 7.87 7.87 0 0 1 0-.84v-.84-9.1h-.54a5.06 5.06 0 0 1-.55 0 .35.35 0 0 1-.4-.28 2.24 2.24 0 0 1-.07-.55 2.15 2.15 0 0 1 0-.52.37.37 0 0 1 .18-.24.78.78 0 0 1 .34-.07H404l.48.07c.15 0 .24.06.26.11l.07.05a.4.4 0 0 1 0 .17v6.27c0 .81 0 1.63.05 2.46v1.34a11.43 11.43 0 0 0 .07 1.32c0 .18.05.36.08.53a3 3 0 0 1 0 .52.75.75 0 0 1 .06.34zm-2.52-12.64zM357.54 175.44c-.19.37-.38.74-.58 1.11s-.37.74-.56 1.13c0 .1-.09.21-.13.33a1.79 1.79 0 0 1-.16.31.84.84 0 0 1-.23.23.64.64 0 0 1-.36.1h-.2a.76.76 0 0 1-.4-.15.85.85 0 0 1-.24-.26 1.2 1.2 0 0 1-.17-.34c-.05-.12-.11-.25-.17-.37l-.61-1.16c-.21-.38-.41-.76-.6-1.15l-.5-1c-.16-.35-.33-.69-.52-1l-.37-.71c-.12-.23-.24-.46-.35-.7a4.53 4.53 0 0 1-.17-.45.82.82 0 0 0-.19-.38c0 .69 0 1.37.05 2.05s0 1.36.05 2 .05 1.24.1 1.87.09 1.25.09 1.86a.55.55 0 0 1-.07.35c-.05.06-.17.09-.37.09a1.65 1.65 0 0 1-.52-.1 1.28 1.28 0 0 0-.4-.11h-.07a.25.25 0 0 1-.1-.19 1.35 1.35 0 0 1 0-.2 8.64 8.64 0 0 1 0-.88 8.77 8.77 0 0 0 0-.88v-5.74-.81-.8-.27a2.22 2.22 0 0 1 0-.37 1.5 1.5 0 0 1 .09-.32.17.17 0 0 1 .17-.14h.53a1.2 1.2 0 0 1 .35.1 1.1 1.1 0 0 1 .27.23 3.2 3.2 0 0 1 .26.44l1.09 1.94c.37.64.73 1.28 1.08 1.94.07.11.19.35.36.71s.35.74.55 1.13.39.74.57 1 .33.46.42.46 0 0 .07-.08.05-.1.07-.11c.15-.28.3-.57.43-.87s.27-.6.41-.89l1.1-2 1.09-2 .19-.41.25-.54c.09-.18.19-.34.28-.5a.74.74 0 0 1 .3-.29 1.09 1.09 0 0 1 .38-.08 3.54 3.54 0 0 1 .4 0 .52.52 0 0 1 .33.08.41.41 0 0 1 .14.21 1 1 0 0 1 0 .31V172.37c0 .94 0 1.9.05 2.86v2.32a4.8 4.8 0 0 0 .06.56 3.43 3.43 0 0 1 0 .56.87.87 0 0 1-.06.32c0 .09-.12.14-.26.14a.54.54 0 0 1-.22 0l-.2-.08-.2-.06a.15.15 0 0 1-.08 0v-.09a.82.82 0 0 0-.05-.24c0-.14 0-.29-.07-.43s0-.28 0-.43v-1.7l-.06-1.69v-1.24-1.53a1.26 1.26 0 0 0-.05-.28.39.39 0 0 0 0-.09v-.07s-.08.06-.14.16l-.13.22q-.56.94-1 2c-.36.54-.68 1.2-1.02 1.86zM366.58 179.37a2.75 2.75 0 0 1-1.78-.56 4.11 4.11 0 0 1-1.14-1.43 7 7 0 0 1-.6-1.85 10.3 10.3 0 0 1-.18-1.84 8.88 8.88 0 0 1 .2-1.85 5 5 0 0 1 .65-1.67 3.78 3.78 0 0 1 1.2-1.22 3.41 3.41 0 0 1 1.83-.46 2.72 2.72 0 0 1 1.82.58 4.14 4.14 0 0 1 1.09 1.45 6.79 6.79 0 0 1 .55 1.89 14.26 14.26 0 0 1 .14 1.88 8.54 8.54 0 0 1-.2 1.79 5.37 5.37 0 0 1-.66 1.63 3.73 3.73 0 0 1-1.17 1.2 3.15 3.15 0 0 1-1.75.46zm.18-9.63a2.43 2.43 0 0 0-1.3.32 2.2 2.2 0 0 0-.8.83 3.76 3.76 0 0 0-.4 1.17 8.17 8.17 0 0 0-.11 1.31c0 .37 0 .73.05 1.07a9.86 9.86 0 0 0 .22 1.08 6 6 0 0 0 .45 1.22 3.71 3.71 0 0 0 .72 1 1.42 1.42 0 0 0 1 .41 1.68 1.68 0 0 0 1.21-.47 3.42 3.42 0 0 0 .77-1.14 6.34 6.34 0 0 0 .41-1.43 8.35 8.35 0 0 0 .12-1.3 8.57 8.57 0 0 0-.11-1.22 5.82 5.82 0 0 0-.38-1.33 3.72 3.72 0 0 0-.72-1.07 1.55 1.55 0 0 0-1.13-.45zM371.7 166.93a.07.07 0 0 0 0-.05.25.25 0 0 1 .14-.23.76.76 0 0 1 .31-.1 1.45 1.45 0 0 1 .36 0h.28a3.69 3.69 0 0 1 1.84.4 2.9 2.9 0 0 1 1.1 1.07 4.52 4.52 0 0 1 .54 1.55 10.53 10.53 0 0 1 .15 1.81v2.33c0 .77-.05 1.55-.11 2.33 0 .34-.05.68-.07 1s0 .68 0 1a4.23 4.23 0 0 1-.14 1.06 3.2 3.2 0 0 1-.41 1 2.49 2.49 0 0 1-.71.7 2 2 0 0 1-1 .27 2.28 2.28 0 0 1-.73-.12 2.74 2.74 0 0 1-.64-.32 1.37 1.37 0 0 1-.44-.78 7.8 7.8 0 0 1-.22-1.27c-.05-.45-.07-.9-.08-1.33s0-.78 0-1v-1.44c0-.44 0-1 .06-1.45a3.41 3.41 0 0 1 .61-1.67A1.94 1.94 0 0 1 374 171a1.05 1.05 0 0 1 .57.15.81.81 0 0 0 .31.14h.12a.07.07 0 0 0 .05 0v-.52a3.5 3.5 0 0 0-.59-2.15 2.49 2.49 0 0 0-2.09-.77.58.58 0 0 1-.33-.07.39.39 0 0 1-.17-.19 2 2 0 0 1-.1-.29c-.01-.15-.04-.3-.07-.37zm3.14 11.1c0-1 .07-1.93.08-2.89v-2.9a.54.54 0 0 0-.26-.09h-.28a1 1 0 0 0-1 .44 2.71 2.71 0 0 0-.3 1.09v5.27a1.4 1.4 0 0 0 .1.47.72.72 0 0 0 .76.48.92.92 0 0 0 .44-.1 1 1 0 0 0 .17-.35 2.82 2.82 0 0 0 .11-.46c0-.16.05-.32.07-.48a3.29 3.29 0 0 0 .11-.51zM382.48 168.47c0 .74.11 1.47.19 2.2a20.18 20.18 0 0 1 .12 2.21v1.46c0 .46-.06 1-.1 1.46s-.06.86-.11 1.44a8.5 8.5 0 0 1-.32 1.67 4.33 4.33 0 0 1-.7 1.39 1.53 1.53 0 0 1-1.28.58 2 2 0 0 1-1.65-.67 2.6 2.6 0 0 1-.57-1.72 5.78 5.78 0 0 1 0-.58 2.33 2.33 0 0 1 .12-.55.83.83 0 0 1 .3-.39 1 1 0 0 1 .6-.16.16.16 0 0 1 .11.05.11.11 0 0 1 .06.11.43.43 0 0 1-.06.22.51.51 0 0 0-.05.22v.59a5.65 5.65 0 0 0 .13.79 2.69 2.69 0 0 0 .28.69.49.49 0 0 0 .44.28.55.55 0 0 0 .28-.07 1.3 1.3 0 0 0 .23-.18 1.21 1.21 0 0 0 .31-.45 2.43 2.43 0 0 0 .16-.56c0-.2.06-.4.08-.6a4.58 4.58 0 0 1 .06-.56c0-.45.08-.9.1-1.36s0-.91 0-1.37.05-1.18.08-1.76 0-1.18 0-1.78v-.33a.8.8 0 0 0-.09-.32 3 3 0 0 1-.5.83 1.08 1.08 0 0 1-.86.39 1.52 1.52 0 0 1-1.17-.46 3.27 3.27 0 0 1-.69-1.11 6.49 6.49 0 0 1-.33-1.4 12.51 12.51 0 0 1-.08-1.27.67.67 0 0 1 .24-.57 1 1 0 0 1 .62-.19.45.45 0 0 1 .3.09.6.6 0 0 1 .16.23 1.32 1.32 0 0 1 .07.3v1.16a4 4 0 0 0 0 .85 3 3 0 0 0 .11.39 2 2 0 0 0 .2.41 1.29 1.29 0 0 0 .28.33.5.5 0 0 0 .36.14.6.6 0 0 0 .49-.22 1.62 1.62 0 0 0 .3-.53 3.61 3.61 0 0 0 .15-.65 4 4 0 0 0 0-.55 2.84 2.84 0 0 0-.07-.66 3 3 0 0 1-.08-.66.32.32 0 0 1 .25-.35 1.94 1.94 0 0 1 .46-.06h.59a.77.77 0 0 1 .29.07.37.37 0 0 1 .16.2 1.53 1.53 0 0 1 .05.43v.45a3.38 3.38 0 0 0-.02.46zM389.15 176.41c0 .1.07.28.14.55s.15.54.23.82.15.54.21.78a2.67 2.67 0 0 1 .09.44c0 .1 0 .16-.11.18a.9.9 0 0 1-.22 0h-.24a1.34 1.34 0 0 1-.49-.1.63.63 0 0 1-.23-.23.9.9 0 0 1-.1-.35 4.15 4.15 0 0 0-.1-.48c-.09-.4-.19-.8-.31-1.2s-.23-.79-.33-1.19-.2-.85-.29-1.27-.19-.83-.31-1.25l-.06-.45q-.06-.33-.12-.69c-.05-.24-.09-.45-.14-.64a.71.71 0 0 0-.13-.34c-.14.82-.27 1.64-.38 2.45s-.22 1.62-.3 2.45c0 .45-.11.9-.2 1.34a12 12 0 0 0-.17 1.34v.29a.38.38 0 0 1 0 .16.18.18 0 0 1-.12.08l-.27.08a1 1 0 0 1-.25 0 1.9 1.9 0 0 1-.4-.05 1.88 1.88 0 0 1-.38-.13 8.59 8.59 0 0 1 .29-1.95 17.52 17.52 0 0 0 .39-1.94c.11-.81.23-1.62.35-2.41s.25-1.61.37-2.42a3.52 3.52 0 0 0 0-.43v-.58a4.27 4.27 0 0 1 .08-.55.57.57 0 0 1 .15-.34.67.67 0 0 1 .36-.1h.83a.62.62 0 0 1 .2.22 1.21 1.21 0 0 1 .13.35c0 .13.05.26.07.39s0 .24.05.31c.25 1.15.52 2.28.81 3.4s.61 2.32.9 3.46zM393.81 175.17a3.78 3.78 0 0 1 1 1.16 2.84 2.84 0 0 1 .43 1.48 2.12 2.12 0 0 1-.27 1.06 2.28 2.28 0 0 1-.74.77 3.56 3.56 0 0 1-.95.38 5.3 5.3 0 0 1-1.06.13c-.37 0-.72 0-1.06.06 0-.32-.06-.63-.07-.94s0-.61 0-.93c0-1.1 0-2.18.1-3.26s.09-2.17.09-3.27v-1.72-1.72a3.86 3.86 0 0 1 0-.51.61.61 0 0 1 .1-.32.46.46 0 0 1 .27-.18 1.76 1.76 0 0 1 .52-.06c.31 0 .48.09.51.26a3.16 3.16 0 0 1 .05.66 8.77 8.77 0 0 1-.06 1c-.05.34-.08.69-.11 1s0 .67-.08 1a6.86 6.86 0 0 0-.07 1v1.53a1.41 1.41 0 0 0 .12.69.6.6 0 0 0 .32.27 3.71 3.71 0 0 0 .46.13 1.46 1.46 0 0 1 .5.33zm-.88 3.49a1.66 1.66 0 0 0 .68-.53 1.34 1.34 0 0 0 .27-.81 1.18 1.18 0 0 0-.11-.46 2 2 0 0 0-.3-.46 1.57 1.57 0 0 0-.42-.35.87.87 0 0 0-.46-.13.27.27 0 0 0-.3.2 1.32 1.32 0 0 0-.06.39 4.46 4.46 0 0 0 0 .63 3.18 3.18 0 0 1 .05.62v.24a1.71 1.71 0 0 0 0 .32.61.61 0 0 0 .06.28.22.22 0 0 0 .22.12.45.45 0 0 0 .16 0zM407.29 172.93c-.52 1.29-1.05 2.57-1.58 3.83a29.12 29.12 0 0 0-1.32 3.92h.69a5.85 5.85 0 0 0 1.1-.1 6 6 0 0 1 1.11-.1c.17 0 .25.08.25.23v.27a2 2 0 0 1 0 .35.74.74 0 0 1-.07.31.2.2 0 0 1-.19.12h-.48a5.44 5.44 0 0 0-.55.05l-.81.08-.93.07a5.14 5.14 0 0 1-.89 0 1.74 1.74 0 0 1-.64-.18.44.44 0 0 1-.25-.4 2.88 2.88 0 0 1 .14-.82 7 7 0 0 1 .34-.89q.21-.47.42-.9c.15-.3.27-.56.38-.8.23-.57.52-1.26.84-2.09s.64-1.67.94-2.55.54-1.73.75-2.56a9 9 0 0 0 .32-2.14 1.58 1.58 0 0 0-.48-1.23 1.86 1.86 0 0 0-1.31-.43c-.87 0-1.3.41-1.3 1.25a1.71 1.71 0 0 0 .07.49c0 .17.09.33.14.48s.1.27.15.38a.81.81 0 0 1 .06.24s-.05.09-.15.17l-.35.21c-.13.06-.26.13-.39.18a.78.78 0 0 1-.28.09q-.16 0-.3-.24a2.53 2.53 0 0 1-.23-.55 4.84 4.84 0 0 1-.14-.61 3 3 0 0 1 0-.43 3.16 3.16 0 0 1 .22-1.2 3.08 3.08 0 0 1 .61-1 2.91 2.91 0 0 1 .93-.64 2.78 2.78 0 0 1 1.17-.24 3.34 3.34 0 0 1 1.34.26 2.69 2.69 0 0 1 1 .71 3.36 3.36 0 0 1 .62 1.08 4.08 4.08 0 0 1 .22 1.33 5.71 5.71 0 0 1-.37 2c-.29.72-.54 1.37-.8 2zM357.47 202.09l-.58 1.11c-.19.36-.38.74-.56 1.12l-.13.33a1.38 1.38 0 0 1-.17.32 1 1 0 0 1-.22.23.64.64 0 0 1-.36.09h-.2a.82.82 0 0 1-.4-.14 1 1 0 0 1-.25-.26 2.16 2.16 0 0 1-.17-.34 2.11 2.11 0 0 0-.17-.38c-.2-.39-.4-.78-.61-1.16s-.4-.76-.59-1.14-.34-.7-.5-1-.34-.7-.52-1-.25-.47-.37-.7-.24-.47-.36-.71-.1-.25-.16-.44a1 1 0 0 0-.19-.39c0 .69 0 1.38.05 2.06s0 1.35.05 2 0 1.25.1 1.87.08 1.25.08 1.86a.72.72 0 0 1-.06.36.58.58 0 0 1-.38.08 1.32 1.32 0 0 1-.51-.1 1.19 1.19 0 0 0-.4-.1h-.07a.31.31 0 0 1-.1-.19v-.2a8.85 8.85 0 0 1 .05-.89 8.51 8.51 0 0 0 0-.88v-2.84-2.86-.8-.81-.27-.36a1 1 0 0 1 .08-.32q.06-.15.18-.15h.53a.85.85 0 0 1 .34.09.76.76 0 0 1 .27.24 2.3 2.3 0 0 1 .27.43c.36.66.72 1.3 1.09 1.94s.73 1.29 1.08 1.94c.07.12.18.35.35.72s.36.73.55 1.12.39.74.58 1.05.33.45.42.45 0 0 .06-.08l.07-.1c.16-.28.3-.58.43-.87s.27-.6.42-.9l1.09-2c.37-.67.74-1.34 1.1-2l.18-.42.26-.53a4.68 4.68 0 0 1 .28-.5.76.76 0 0 1 .29-.3 1.23 1.23 0 0 1 .39-.07h.39a.55.55 0 0 1 .34.09.34.34 0 0 1 .14.21 1.26 1.26 0 0 1 0 .3v3.21c0 .95 0 1.89.05 2.85v2.33a5 5 0 0 0 .06.56 3.36 3.36 0 0 1 0 .56.81.81 0 0 1-.06.31.25.25 0 0 1-.26.14.54.54 0 0 1-.22 0l-.21-.07a.55.55 0 0 0-.19-.06h-.08v-.08a1.13 1.13 0 0 0-.05-.24 2.26 2.26 0 0 1-.07-.43v-.44-1.69l-.06-1.7v-1.23-1.24-.3a1.26 1.26 0 0 0 0-.28v-.08-.07s-.08.05-.14.16l-.13.21c-.37.63-.72 1.28-1 1.95s-.78 1.16-1.12 1.82zM366.51 206a2.78 2.78 0 0 1-1.79-.57 4.16 4.16 0 0 1-1.13-1.42 7 7 0 0 1-.6-1.85 10.39 10.39 0 0 1-.18-1.84 9 9 0 0 1 .19-1.86 5.21 5.21 0 0 1 .66-1.67 3.56 3.56 0 0 1 1.2-1.21 3.41 3.41 0 0 1 1.83-.47 2.75 2.75 0 0 1 1.82.59 4.17 4.17 0 0 1 1.09 1.45 6.62 6.62 0 0 1 .54 1.88 13 13 0 0 1 .15 1.88 7.88 7.88 0 0 1-.21 1.79 5.16 5.16 0 0 1-.65 1.64 3.8 3.8 0 0 1-1.17 1.19 3.18 3.18 0 0 1-1.75.47zm.18-9.63a2.43 2.43 0 0 0-1.3.31 2.27 2.27 0 0 0-.8.83 3.68 3.68 0 0 0-.4 1.17 8.4 8.4 0 0 0-.11 1.32c0 .37 0 .73.05 1.06s.11.66.21 1.08a5.78 5.78 0 0 0 .46 1.22 3.71 3.71 0 0 0 .72 1 1.34 1.34 0 0 0 1 .41 1.64 1.64 0 0 0 1.21-.47 3.42 3.42 0 0 0 .77-1.14 6.26 6.26 0 0 0 .41-1.42 9.74 9.74 0 0 0 .11-1.31 7.21 7.21 0 0 0-.11-1.21 5.36 5.36 0 0 0-.38-1.33 3.25 3.25 0 0 0-.72-1.07 1.54 1.54 0 0 0-1.12-.43zM371.63 193.57a.07.07 0 0 1 0-.05.25.25 0 0 1 .13-.23 1 1 0 0 1 .32-.1 2.11 2.11 0 0 1 .35 0h.28a3.77 3.77 0 0 1 1.84.4 3 3 0 0 1 1.11 1.08 4.61 4.61 0 0 1 .54 1.54 11.75 11.75 0 0 1 .14 1.81v2.34c0 .78-.06 1.55-.11 2.33 0 .34-.05.68-.07 1s0 .68 0 1a4.35 4.35 0 0 1-.14 1.06 3 3 0 0 1-.42 1 2.23 2.23 0 0 1-.71.69 1.92 1.92 0 0 1-1 .27 2.28 2.28 0 0 1-.73-.12 2 2 0 0 1-.64-.32 1.31 1.31 0 0 1-.45-.78 8.65 8.65 0 0 1-.22-1.26c0-.46-.07-.9-.07-1.34v-1-1.44c0-.44 0-1 .06-1.44a3.38 3.38 0 0 1 .61-1.67 1.93 1.93 0 0 1 1.63-.62 1.08 1.08 0 0 1 .56.14.81.81 0 0 0 .32.15H375.08v-.53a3.47 3.47 0 0 0-.58-2.14 2.47 2.47 0 0 0-2.1-.77.74.74 0 0 1-.33-.07.48.48 0 0 1-.17-.2 1.1 1.1 0 0 1-.09-.29c-.12-.21-.15-.32-.18-.44zm3.13 11.11c.05-1 .08-1.94.09-2.9v-2.9a.79.79 0 0 0-.26-.08 1.37 1.37 0 0 0-.28 0 1 1 0 0 0-1 .43 2.46 2.46 0 0 0-.3 1.09V205.6a1.63 1.63 0 0 0 .11.46.71.71 0 0 0 .26.35.8.8 0 0 0 .5.14 1.09 1.09 0 0 0 .44-.1 1.43 1.43 0 0 0 .17-.35c0-.14.08-.3.11-.46s.05-.32.07-.48.09-.37.09-.48zM382.41 195.12c0 .73.11 1.46.19 2.19a20.31 20.31 0 0 1 .11 2.21v1.46l-.09 1.46c0 .39-.06.87-.11 1.44a8.23 8.23 0 0 1-.32 1.67 4.24 4.24 0 0 1-.71 1.39 1.52 1.52 0 0 1-1.27.59 2 2 0 0 1-1.65-.68 2.56 2.56 0 0 1-.57-1.71v-.59a1.78 1.78 0 0 1 .11-.54.94.94 0 0 1 .31-.4 1 1 0 0 1 .6-.15.17.17 0 0 1 .11 0 .14.14 0 0 1 .06.11.43.43 0 0 1-.06.22.43.43 0 0 0-.06.22 5.37 5.37 0 0 0 0 .6 4.24 4.24 0 0 0 .13.78 2.76 2.76 0 0 0 .27.69.49.49 0 0 0 .72.21 1 1 0 0 0 .23-.18 1.28 1.28 0 0 0 .32-.44 3.58 3.58 0 0 0 .16-.56 6 6 0 0 0 .07-.61c0-.2 0-.39.06-.56.05-.45.08-.9.1-1.35s0-.91.06-1.38 0-1.17.07-1.76 0-1.18 0-1.78v-.32a.64.64 0 0 0-.1-.32 2.87 2.87 0 0 1-.5.83 1.06 1.06 0 0 1-.85.39 1.56 1.56 0 0 1-1.17-.46 3.11 3.11 0 0 1-.69-1.12 6.27 6.27 0 0 1-.33-1.39 10.61 10.61 0 0 1-.09-1.27.7.7 0 0 1 .25-.58 1 1 0 0 1 .62-.18.49.49 0 0 1 .3.09.63.63 0 0 1 .16.23 1.36 1.36 0 0 1 .06.29 1.77 1.77 0 0 1 0 .32v.85a3.38 3.38 0 0 0 0 .84 2.33 2.33 0 0 0 .11.39 2 2 0 0 0 .19.42 1.52 1.52 0 0 0 .28.33.57.57 0 0 0 .37.14.61.61 0 0 0 .49-.23 1.79 1.79 0 0 0 .3-.53 3.5 3.5 0 0 0 .15-.64 4.18 4.18 0 0 0 0-.56 3 3 0 0 0-.07-.66 2.39 2.39 0 0 1-.08-.66.32.32 0 0 1 .24-.35 2.69 2.69 0 0 1 .47-.05h.42a.67.67 0 0 1 .28.07.37.37 0 0 1 .17.21 1.48 1.48 0 0 1 .05.43v.45a3.38 3.38 0 0 0 .13.49zM389.07 203.05c0 .1.07.29.15.55s.15.54.23.83.15.54.21.78a2.48 2.48 0 0 1 .09.44c0 .1 0 .16-.12.17H389.17a1.15 1.15 0 0 1-.48-.1.59.59 0 0 1-.24-.23 1 1 0 0 1-.1-.35 3.78 3.78 0 0 0-.09-.47c-.09-.41-.2-.81-.31-1.2s-.23-.8-.34-1.19-.19-.85-.28-1.27-.2-.84-.31-1.26c0-.08 0-.23-.07-.45s-.07-.45-.12-.68-.09-.46-.13-.65a.74.74 0 0 0-.14-.34c-.13.83-.26 1.64-.38 2.45s-.22 1.63-.29 2.45c-.05.46-.11.9-.2 1.34s-.14.89-.18 1.34v.29a.35.35 0 0 1 0 .16.19.19 0 0 1-.12.09l-.27.07a.75.75 0 0 1-.26 0 1.89 1.89 0 0 1-.39-.05 2 2 0 0 1-.39-.14 9.1 9.1 0 0 1 .29-1.94 16.25 16.25 0 0 0 .39-1.94c.12-.82.23-1.62.36-2.42s.25-1.6.37-2.42v-.43-.57a4.5 4.5 0 0 1 .07-.56.56.56 0 0 1 .16-.33.72.72 0 0 1 .35-.11h.61a.62.62 0 0 1 .22 0 .56.56 0 0 1 .21.22 1.2 1.2 0 0 1 .12.35c0 .13.06.26.08.39s0 .23.05.31q.38 1.71.81 3.39c.34 1.21.62 2.34.9 3.48zM393.74 201.81a4.08 4.08 0 0 1 1 1.17 2.81 2.81 0 0 1 .43 1.48 2.11 2.11 0 0 1-.27 1 2.06 2.06 0 0 1-.75.77 3.15 3.15 0 0 1-.95.38 5.12 5.12 0 0 1-1.06.14h-1.06q0-.48-.06-.93v-.94c0-1.09 0-2.18.09-3.26s.1-2.17.1-3.26v-1.72-1.73-.5a.72.72 0 0 1 .1-.33.52.52 0 0 1 .28-.17 1.72 1.72 0 0 1 .52-.06c.31 0 .48.08.51.26a3.82 3.82 0 0 1 0 .65 7.17 7.17 0 0 1-.07 1c0 .34-.08.68-.1 1s0 .68-.08 1a6.77 6.77 0 0 0-.07 1v1.52a1.41 1.41 0 0 0 .12.69.63.63 0 0 0 .33.27 3.63 3.63 0 0 0 .46.14 1.69 1.69 0 0 1 .53.43zm-.89 3.5a1.56 1.56 0 0 0 .68-.54 1.31 1.31 0 0 0 .27-.8 1.07 1.07 0 0 0-.11-.47 1.87 1.87 0 0 0-.29-.46 1.9 1.9 0 0 0-.42-.34.91.91 0 0 0-.46-.14.28.28 0 0 0-.3.2 1.43 1.43 0 0 0-.06.39 4.23 4.23 0 0 0 0 .63 4.23 4.23 0 0 1 .05.63V205a.77.77 0 0 0 .07.28.21.21 0 0 0 .21.12h.17zM406.89 203.7a4.69 4.69 0 0 1-.45 1.4 5.49 5.49 0 0 1-.81 1.16 6.09 6.09 0 0 1-1.09.93 7.23 7.23 0 0 1-1.29.68l-.37.16a1 1 0 0 1-.38.07.35.35 0 0 1-.38-.28 1.92 1.92 0 0 1-.08-.51v-.12a.63.63 0 0 1 .19-.37 1.09 1.09 0 0 1 .36-.22l.41-.17a1.5 1.5 0 0 0 .38-.19c.31-.23.61-.46.89-.71a5 5 0 0 0 .77-.82 3.82 3.82 0 0 0 .52-1 3.24 3.24 0 0 0 .2-1.13 2.19 2.19 0 0 0-.17-.82 3.37 3.37 0 0 0-.45-.78 4.46 4.46 0 0 0-.63-.67 4.36 4.36 0 0 0-.7-.48 1.26 1.26 0 0 0-.54-.14 3.7 3.7 0 0 1-.61-.1 1.32 1.32 0 0 1-.48-.22.62.62 0 0 1-.2-.54.83.83 0 0 1 .26-.61c.17-.18.34-.35.48-.51.5-.56 1-1.15 1.43-1.76s.88-1.24 1.29-1.88c-.45 0-.89 0-1.35.09a10.09 10.09 0 0 1-1.33.06 1.33 1.33 0 0 1-.47-.06.31.31 0 0 1-.19-.16.53.53 0 0 1-.05-.26v-.37c0-.14.07-.47.21-.55a1.23 1.23 0 0 1 .61-.13h1a9.84 9.84 0 0 1 1.33 0 3.53 3.53 0 0 1 1.15.28.71.71 0 0 1 .49.7.9.9 0 0 1-.17.55c-.11.16-.22.32-.34.47-.48.63-1 1.27-1.42 1.92s-.94 1.29-1.44 1.91a7.5 7.5 0 0 1 1.39.57 4.56 4.56 0 0 1 1.14.91 3.87 3.87 0 0 1 .76 1.17 3.7 3.7 0 0 1 .28 1.49 2.9 2.9 0 0 1-.15 1.04zm-3.23 3.46c.05 0 .09 0 .1-.07z"/><g clip-path="url(#clip-path)"><path class="cls-3" d="M335.33 58.25c-14.12-.34-76.65-2.21-92.39-.83-27.58 2.42-94.33 11.35-148.08 69.94-19.19 20.92-70.19 196.69 9.75 246 134.58 82.94 403.87-8.05 371.24-186.58C448.85 39 356.3 58.76 335.33 58.25z"/></g><g clip-path="url(#clip-path-2)"><path class="cls-7" d="M376 413.62h-47l-136.08-.17s-.26-47.54-.08-69.43a83.44 83.44 0 0 1-10.65 18.92l-.3.38c-3.55 4.4-7.59 7.85-12.16 9.51-20.53 7.47-33.35-15.94-34-17.21v-.06l.26-1.32c0-.16.08-.35.12-.56 2.32-11.23 14.7-70 25.52-96.46 5.71-13.92 12.25-23.18 17.55-29.05 5.8-6.43 10.08-8.79 10.08-8.79 16.48-14.54 40.21-22.58 40.21-22.58s52-5.75 62.6-1.92 46.05 21.59 46.05 21.59 16.31 14.86 22.55 34.06 14.33 115.1 14.84 137.65.49 25.44.49 25.44z"/><path class="cls-8" d="M338.1 216.45s-5.1 27.18-5.43 34.55M332.67 266.02l1.6 147.11M336.82 280.09l-3.51 31.66M193.71 262.98l-.8 150.47M190.04 271.77l3.51 44.46M188.12 220.61s3.83 26.22 5.11 30.7M223.93 199.5s6.72 27.82 37.1 27.82 41.58-27.5 41.58-27.5"/><path class="cls-9" d="M295.41 196.78s-9.11 20.39-30 20.87c-33.09.76-36-20.87-36-20.87s3.44-2.61 7.2-13.19a101.8 101.8 0 0 0 4.88-25.05 17.54 17.54 0 0 1 1.58-6.77h39.73s.53 2.5 1.34 6.49c.83 4.15 2 9.91 3.08 16.22a72.36 72.36 0 0 0 8.19 22.3z"/><path class="cls-10" d="M284.14 158.26a33.28 33.28 0 0 1-8.68 13.56 19.87 19.87 0 0 1-5.45 3.83c-6.95 3.15-15.65.3-20.95-4.94a34.57 34.57 0 0 1-7.53-12.17c1-4 1.58-6.77 1.58-6.77h5.4a9 9 0 0 0 1.21 0h33.08s.53 2.5 1.34 6.49z"/><path d="M289.31 31c3.06 2.75 5.13 6.64 8.7 8.67 3.41 1.94 7.56 1.83 11.36 2.76a21.64 21.64 0 0 1 16.06 19.33c.36 6.77-2.44 14.12.89 20 1.93 3.42 5.57 5.55 7.71 8.83 3.06 4.69 2.57 10.83 1.21 16.25s-3.47 10.8-3.29 16.38c.1 3 .87 6 .84 9a17.6 17.6 0 0 1-14.49 16.67c-3.1.47-6.32.08-9.35.89-4.87 1.3-8.59 5.5-13.49 6.66s-9.9-1-13.41-4.38-5.62-8-7.14-12.71c-4-12.3-4.32-25.42-6-38.25-2-15.52-5.92-30.76-7.06-46.4-.67-9.29-2.24-20.78 7.51-25.64 6.57-3.23 14.32-3.06 19.95 1.94z"/><path d="M263.46 29.26c-1.53-3.22-4.22-6.06-7.68-6.92-4.11-1-8.38.92-11.9 3.29s-6.81 5.25-10.87 6.5c-6.53 2-13.55-.61-20.38-.27a25.93 25.93 0 0 0-19.21 10.73 31.66 31.66 0 0 0-5.57 21.54c.38 4 1.43 8 .55 11.84-1.32 5.84-6.56 9.79-10.39 14.4-4.18 5-6.89 11.51-6.46 18s4.4 13 10.48 15.38c3.8 1.52 8.74 1.89 10.56 5.56.89 1.78.72 3.87.66 5.85-.14 4.37.77 9.51 4.67 11.48 3.41 1.72 7.79.25 11.19 2 3 1.52 4.33 5 6.55 7.54 3.05 3.47 7.88 5 12.5 4.81a27 27 0 0 0 12.92-4.57 42.9 42.9 0 0 0 12.18-11.72c9.11-13.16 10.09-30.11 10.76-46.1q.78-18.44 1.55-36.87c.43-10.52 2.63-22.55-2.11-32.47z"/><path class="cls-9" d="M306.42 124.11c-.12.58-.28 1.19-.44 1.76-3.89 14.34-13.41 28.13-26.53 35.22-13.95 7.53-30.82 4.36-42.43-6.13-9.43-8.53-15.65-21-18.44-33.9a72.34 72.34 0 0 1-1.67-19.69c1.19-21.68 12.51-45.64 33.71-53.5a46.36 46.36 0 0 1 17-2.85A35.86 35.86 0 0 1 287 50.83c8 5.45 13.73 13.75 17 22.83 5.73 15.59 6.3 34.34 2.42 50.45z"/><path class="cls-9" d="M307.71 106.46c.89-3.79 6.87-8.41 9.76-9.44C326 94 331 105.6 329 113.94c-1.71 7.16-7 13.9-13 16.52-1.91.84-14.39 2-14.48 2.37zM219.83 105.17c-.89-3.79-6.87-8.41-9.76-9.44-8.53-3.06-13.56 8.58-11.57 16.92 1.71 7.16 7.06 13.9 13.05 16.52 1.91.83 14.38 2 14.47 2.37-.02 0-6.18-26.3-6.19-26.37z"/><path d="M255.34 52.44c-2.86.35-6-.3-8.51 1.05-3.53 1.87-4.23 6.49-5.69 10.22a20.29 20.29 0 0 1-11.45 11.39c-2 .76-4.16 1.29-5.5 2.9-1.49 1.79-1.46 4.35-1.6 6.67a32.11 32.11 0 0 1-2.48 10.48c-1.21 2.86-3.74 6-6.75 5.19-1.85-.46-3-2.25-3.78-4-3.05-7-2-15.35 1.1-22.38s8.13-13 13.19-18.81a57.31 57.31 0 0 1 9.42-9.2c7.3-5.23 18.16-8.09 27.13-7.88 11.28.25 1.97 13.53-5.08 14.37z"/><path d="M272 49.22c4.11 1.82 9 3.74 10.29 8 .69 2.21.27 4.66 1 6.85 2.2 6.57 12.5 6.64 15.75 12.76 1.32 2.47 1.17 5.43 1.36 8.23s1 5.89 3.38 7.34c.84.52 1.83.78 2.64 1.34 1.82 1.28 2.52 3.91 4.58 4.76 1.89.77 4.13-.44 5.16-2.2a11.54 11.54 0 0 0 1.12-5.94c-.09-12.85-4.08-25.8-12-35.88s-20-17.06-32.84-18c-3.19-.24-8.4.45-8.49 4.45s5.05 6.96 8.05 8.29zM223.21 109.08L221.05 91c-.21-1.69-.07-5.22-2.15-6-2.42-.85-4 2.46-4.84 4.18-1.55 3.4-1.23 6.17.06 9.55 1.7 4.45 2.55 9.12 4.13 13.55.48-.23 5-2.84 4.96-3.2z"/><path d="M300.34 111.06a1.28 1.28 0 0 0 .12 1.19 1.9 1.9 0 0 0 .94.43l5.33 1.33 3.93-7.72c1.56-3.05 8.8-22.85-2.62-18.5-4.38 1.67-4.28 6-4.84 9.34q-1.2 7.01-2.86 13.93z"/><path class="cls-1" d="M164.82 191.86l.13.84c-.07-.26-.17-.54-.26-.81a.61.61 0 0 0 .13-.03zM166.13 191.46c-.33.12-.63.21-.84.27q.42-.12.84-.27z"/><path class="cls-9" d="M200.77 179.1c-1.47 5-10.65 12.12-17.3 15.71s-8.95 6.54-8.95 6.54l-1.65 10.31-29.72.12 4.56-26.36s3.1-8.89 2.26-17.66-2.88-24.09-2.88-24.09-6.91-17.1-5.09-18.58 9.26-1.09 12 5.84 6.73 18 6.73 18a70.17 70.17 0 0 0 12.78-5.05c5.69-3.12 12-5.81 15.53-2.58a6.37 6.37 0 0 1 2 7 8 8 0 0 1 1.22.2c1.6.38 4.24 1.43 4.43 4.25a21.85 21.85 0 0 1 0 4.83c0 .22-.05.32-.05.32a3.83 3.83 0 0 1 .67.28c1.26.54 3.82 2.1 3.78 5.2a8.73 8.73 0 0 1-1.3 4.74 4.86 4.86 0 0 1-.88 1.09l.17.26c.64 1.12 2.92 5.31 1.69 9.63z"/><path class="cls-11" d="M192.26 148.57l-10.34 5.86a.39.39 0 0 1-.2.06.42.42 0 0 1-.36-.21.4.4 0 0 1 .15-.54l9.55-5.41a8 8 0 0 1 1.2.24zM197.31 158.25l-9.45 5.37a.39.39 0 0 1-.2.06.41.41 0 0 1-.21-.77l9.24-5.26c0 .22-.05.32-.05.32a3.83 3.83 0 0 1 .67.28zM198.91 169.28l.17.26-6.9 3.91a.37.37 0 0 1-.2.05.4.4 0 0 1-.36-.2.43.43 0 0 1 .15-.57l8-4.54a4.86 4.86 0 0 1-.86 1.09z"/><path class="cls-7" d="M188.76 335.42c-1.45 10.14-6.28 16.93-12.5 21.17a2 2 0 0 1-.41.28c-14.32 9.46-35.62 5.79-40.13-1.25v-.06c-.21-.32-.39-.64-.58-1-.08-.13-.15-.26-.23-.41-5.46-10.17-4.39-24.69-6.22-56.18-1.91-32.93 14.08-89.86 14.08-89.86l32.61-1.75s.36 1.82.94 5.05c.11.64.25 1.34.38 2.09.22 1.18.45 2.5.69 3.95.12.58.21 1.16.32 1.78s.25 1.41.36 2.14c.37 2.07.75 4.32 1.15 6.73 5.01 30.23 12.88 83.9 9.54 107.32z"/><path class="cls-8" d="M175.32 206.38s11.52 58.68 11.84 104.41"/><path class="cls-11" d="M182.18 362.94l-.3.38a34.26 34.26 0 0 0-6-6.45 20.94 20.94 0 0 0-2-1.37c-3.65-2.16-8-3-11.8-3.45-10.45-1.36-19-.64-26.1 2.19-.28.1-.58.23-.84.34-.08-.13-.15-.26-.23-.41.4-.17.77-.34 1.19-.49 7.09-2.76 15.64-3.46 26-2.1 3.83.5 8.26 1.31 12 3.51a19.56 19.56 0 0 1 2.18 1.5 34.82 34.82 0 0 1 5.9 6.35z"/><path class="cls-12" d="M322.88 109.4s-7-2.34-12 8M203.77 111.4s7-2.34 12 8M260.18 110.4v10.12a3.14 3.14 0 0 0 .24 1.23 3.26 3.26 0 0 0 3.88 1.81l3.36-.9"/><path class="cls-10" d="M270.3 86l26.45 6.84s-1.2-7.42-12-10.12S270.3 86 270.3 86zM253.86 86l-26.45 6.84s1.2-7.42 12-10.12S253.86 86 253.86 86z"/><path class="cls-12" d="M248.6 130.72s3.9 3 14.16 3c9.34 0 15.17-3 15.17-3"/><circle class="cls-13" cx="242.42" cy="106.72" r="16.72"/><circle class="cls-13" cx="283.49" cy="106.72" r="16.72"/><path class="cls-13" d="M259.14 106.72s4-3.7 7.64 0M225.7 106.72l-5.6-.14M300.21 106.72l6.26-.1"/><path class="cls-2" d="M255.32 107.7s-7.8-12.77-24.44-2.69c0-.01 8.41 11.92 24.44 2.69z"/><path d="M249.35 105.6a6 6 0 1 1-6.75-5.06 6 6 0 0 1 6.75 5.06z"/><path d="M230.41 104.32a24.88 24.88 0 0 1 6.48-2.88 19.37 19.37 0 0 1 7-.82 15 15 0 0 1 6.63 2.19 13.77 13.77 0 0 1 4.82 4.89 13.52 13.52 0 0 0-5-4.53 14.45 14.45 0 0 0-6.46-1.72 18.52 18.52 0 0 0-6.57 1.18 23.38 23.38 0 0 0-5.91 3.07.83.83 0 0 1-1-1.35z"/><path class="cls-2" d="M296.38 108.38s-8.54-12.29-24.55-1.24c0 0 9.1 11.4 24.55 1.24z"/><path d="M290.3 106.64a6 6 0 1 1-7-4.65 6 6 0 0 1 7 4.65z"/><path d="M271.32 106.48a24.59 24.59 0 0 1 6.29-3.26 19.43 19.43 0 0 1 6.93-1.23 15.05 15.05 0 0 1 6.74 1.79 13.86 13.86 0 0 1 5.1 4.6 13.51 13.51 0 0 0-5.29-4.22 14.35 14.35 0 0 0-6.55-1.34 18.28 18.28 0 0 0-6.48 1.57 23 23 0 0 0-5.72 3.41.85.85 0 0 1-1.18-.11.84.84 0 0 1 .12-1.18z"/></g><path class="cls-16" d="M295.41 196.78s-9.11 20.39-30 20.87c-33.09.76-36-20.87-36-20.87s3.44-2.61 7.2-13.19a101.8 101.8 0 0 0 4.88-25.05 17.54 17.54 0 0 1 1.58-6.77h39.73s.53 2.5 1.34 6.49c.83 4.15 2 9.91 3.08 16.22a72.36 72.36 0 0 0 8.19 22.3z"/><path d="M284.14 158.26a33.28 33.28 0 0 1-8.68 13.56 19.87 19.87 0 0 1-5.45 3.83c-6.95 3.15-15.65.3-20.95-4.94a34.57 34.57 0 0 1-7.53-12.17c1-4 1.58-6.77 1.58-6.77h5.4a9 9 0 0 0 1.21 0h33.08s.53 2.5 1.34 6.49z" fill="#e58e88"/><path d="M289.31 31c3.06 2.75 5.13 6.64 8.7 8.67 3.41 1.94 7.56 1.83 11.36 2.76a21.64 21.64 0 0 1 16.06 19.33c.36 6.77-2.44 14.12.89 20 1.93 3.42 5.57 5.55 7.71 8.83 3.06 4.69 2.57 10.83 1.21 16.25s-3.47 10.8-3.29 16.38c.1 3 .87 6 .84 9a17.6 17.6 0 0 1-14.49 16.67c-3.1.47-6.32.08-9.35.89-4.87 1.3-8.59 5.5-13.49 6.66s-9.9-1-13.41-4.38-5.62-8-7.14-12.71c-4-12.3-4.32-25.42-6-38.25-2-15.52-5.92-30.76-7.06-46.4-.67-9.29-2.24-20.78 7.51-25.64 6.57-3.23 14.32-3.06 19.95 1.94z"/><path d="M263.46 29.26c-1.53-3.22-4.22-6.06-7.68-6.92-4.11-1-8.38.92-11.9 3.29s-6.81 5.25-10.87 6.5c-6.53 2-13.55-.61-20.38-.27a25.93 25.93 0 0 0-19.21 10.73 31.66 31.66 0 0 0-5.57 21.54c.38 4 1.43 8 .55 11.84-1.32 5.84-6.56 9.79-10.39 14.4-4.18 5-6.89 11.51-6.46 18s4.4 13 10.48 15.38c3.8 1.52 8.74 1.89 10.56 5.56.89 1.78.72 3.87.66 5.85-.14 4.37.77 9.51 4.67 11.48 3.41 1.72 7.79.25 11.19 2 3 1.52 4.33 5 6.55 7.54 3.05 3.47 7.88 5 12.5 4.81a27 27 0 0 0 12.92-4.57 42.9 42.9 0 0 0 12.18-11.72c9.11-13.16 10.09-30.11 10.76-46.1q.78-18.44 1.55-36.87c.43-10.52 2.63-22.55-2.11-32.47z"/><path class="cls-16" d="M306.42 124.11c-.12.58-.28 1.19-.44 1.76-3.89 14.34-13.41 28.13-26.53 35.22-13.95 7.53-30.82 4.36-42.43-6.13-9.43-8.53-15.65-21-18.44-33.9a72.34 72.34 0 0 1-1.67-19.69c1.19-21.68 12.51-45.64 33.71-53.5a46.36 46.36 0 0 1 17-2.85A35.86 35.86 0 0 1 287 50.83c8 5.45 13.73 13.75 17 22.83 5.73 15.59 6.3 34.34 2.42 50.45z"/><path class="cls-16" d="M307.71 106.46c.89-3.79 6.87-8.41 9.76-9.44C326 94 331 105.6 329 113.94c-1.71 7.16-7 13.9-13 16.52-1.91.84-14.39 2-14.48 2.37zM219.83 105.17c-.89-3.79-6.87-8.41-9.76-9.44-8.53-3.06-13.56 8.58-11.57 16.92 1.71 7.16 7.06 13.9 13.05 16.52 1.91.83 14.38 2 14.47 2.37-.02 0-6.18-26.3-6.19-26.37z"/><path d="M255.34 52.44c-2.86.35-6-.3-8.51 1.05-3.53 1.87-4.23 6.49-5.69 10.22a20.29 20.29 0 0 1-11.45 11.39c-2 .76-4.16 1.29-5.5 2.9-1.49 1.79-1.46 4.35-1.6 6.67a32.11 32.11 0 0 1-2.48 10.48c-1.21 2.86-3.74 6-6.75 5.19-1.85-.46-3-2.25-3.78-4-3.05-7-2-15.35 1.1-22.38s8.13-13 13.19-18.81a57.31 57.31 0 0 1 9.42-9.2c7.3-5.23 18.16-8.09 27.13-7.88 11.28.25 1.97 13.53-5.08 14.37z"/><path d="M272 49.22c4.11 1.82 9 3.74 10.29 8 .69 2.21.27 4.66 1 6.85 2.2 6.57 12.5 6.64 15.75 12.76 1.32 2.47 1.17 5.43 1.36 8.23s1 5.89 3.38 7.34c.84.52 1.83.78 2.64 1.34 1.82 1.28 2.52 3.91 4.58 4.76 1.89.77 4.13-.44 5.16-2.2a11.54 11.54 0 0 0 1.12-5.94c-.09-12.85-4.08-25.8-12-35.88s-20-17.06-32.84-18c-3.19-.24-8.4.45-8.49 4.45s5.05 6.96 8.05 8.29zM223.21 109.08L221.05 91c-.21-1.69-.07-5.22-2.15-6-2.42-.85-4 2.46-4.84 4.18-1.55 3.4-1.23 6.17.06 9.55 1.7 4.45 2.55 9.12 4.13 13.55.48-.23 5-2.84 4.96-3.2z"/><path d="M300.34 111.06a1.28 1.28 0 0 0 .12 1.19 1.9 1.9 0 0 0 .94.43l5.33 1.33 3.93-7.72c1.56-3.05 8.8-22.85-2.62-18.5-4.38 1.67-4.28 6-4.84 9.34q-1.2 7.01-2.86 13.93z"/><path class="cls-1" d="M164.82 191.86l.13.84c-.07-.26-.17-.54-.26-.81a.61.61 0 0 0 .13-.03zM166.13 191.46c-.33.12-.63.21-.84.27q.42-.12.84-.27z"/><path class="cls-18" d="M322.88 109.4s-7-2.34-12 8M203.77 111.4s7-2.34 12 8"/><path class="cls-12" d="M260.18 110.4v10.12a3.14 3.14 0 0 0 .24 1.23 3.26 3.26 0 0 0 3.88 1.81l3.36-.9"/><path class="cls-10" d="M270.3 86l26.45 6.84s-1.2-7.42-12-10.12S270.3 86 270.3 86zM253.86 86l-26.45 6.84s1.2-7.42 12-10.12S253.86 86 253.86 86z"/><path class="cls-12" d="M248.6 130.72s3.9 3 14.16 3c9.34 0 15.17-3 15.17-3"/><circle class="cls-13" cx="242.42" cy="106.72" r="16.72"/><circle class="cls-13" cx="283.49" cy="106.72" r="16.72"/><path class="cls-13" d="M259.14 106.72s4-3.7 7.64 0M225.7 106.72l-5.6-.14M300.21 106.72l6.26-.1"/><path class="cls-2" d="M255.32 107.7s-7.8-12.77-24.44-2.69c0-.01 8.41 11.92 24.44 2.69z"/><path d="M249.35 105.6a6 6 0 1 1-6.75-5.06 6 6 0 0 1 6.75 5.06z"/><path d="M230.41 104.32a24.88 24.88 0 0 1 6.48-2.88 19.37 19.37 0 0 1 7-.82 15 15 0 0 1 6.63 2.19 13.77 13.77 0 0 1 4.82 4.89 13.52 13.52 0 0 0-5-4.53 14.45 14.45 0 0 0-6.46-1.72 18.52 18.52 0 0 0-6.57 1.18 23.38 23.38 0 0 0-5.91 3.07.83.83 0 0 1-1-1.35z"/><path class="cls-2" d="M296.38 108.38s-8.54-12.29-24.55-1.24c0 0 9.1 11.4 24.55 1.24z"/><path d="M290.3 106.64a6 6 0 1 1-7-4.65 6 6 0 0 1 7 4.65z"/><path d="M271.32 106.48a24.59 24.59 0 0 1 6.29-3.26 19.43 19.43 0 0 1 6.93-1.23 15.05 15.05 0 0 1 6.74 1.79 13.86 13.86 0 0 1 5.1 4.6 13.51 13.51 0 0 0-5.29-4.22 14.35 14.35 0 0 0-6.55-1.34 18.28 18.28 0 0 0-6.48 1.57 23 23 0 0 0-5.72 3.41.85.85 0 0 1-1.18-.11.84.84 0 0 1 .12-1.18z"/></svg>