<svg id="Layer_1" data-name="Layer 1" xmlns="http://www.w3.org/2000/svg" viewBox="0 0 1456.08 1021.32"><defs><style>.cls-1,.cls-21{fill:#fff}.cls-3{fill:#eca179}.cls-10,.cls-22,.cls-26,.cls-28,.cls-31,.cls-37,.cls-4,.cls-44,.cls-46,.cls-53,.cls-59{fill:none}.cls-10,.cls-26,.cls-37,.cls-4,.cls-44,.cls-53,.cls-59{stroke:#ca5e34}.cls-10,.cls-22,.cls-26,.cls-28,.cls-31,.cls-37,.cls-4,.cls-44,.cls-46,.cls-53,.cls-59{stroke-linecap:round;stroke-linejoin:round}.cls-4{stroke-width:1.37px}.cls-5{fill:#c96e3d}.cls-6{fill:#c46234}.cls-8{fill:#604538}.cls-10{stroke-width:.78px}.cls-11{fill:#3181bc}.cls-12{fill:#a52204}.cls-13{fill:#1a2e59}.cls-18{fill:#ffe6a1}.cls-20{fill:#ffb076}.cls-21{opacity:.11}.cls-22{stroke:#fff;stroke-width:2.04px}.cls-24{fill:#663205}.cls-26{stroke-width:2.41px}.cls-31{stroke:#311326}.cls-28{stroke:#000;stroke-width:2.33px}.cls-29{fill:#f9fafc}.cls-30{fill:#2b5d8a}.cls-31{stroke-width:1.59px}.cls-32{fill:#8a331f}.cls-33{fill:#7b2616}.cls-35{fill:#1b1c20}.cls-37{stroke-width:2.84px}.cls-38{fill:#ff6b21}.cls-40{fill:#ffb988}.cls-44{stroke-width:2.23px}.cls-46{stroke:#dbdbdb;stroke-width:2.83px}.cls-48{fill:#003b71}.cls-49{fill:#20120c}.cls-53{stroke-width:3.07px}.cls-55{fill:#de8d68}.cls-56{fill:#995300}.cls-59{stroke-width:3.64px}</style><clipPath id="clip-path"><path class="cls-1" d="M249.23 216.11s-3.44-9.46-15.76-5c0-.03 3.96 8.95 15.76 5z"/></clipPath><clipPath id="clip-path-2"><path class="cls-1" d="M260.42 218.26s6.38-6.37 10.53.64c.05 0-6.31 6.62-10.53-.64z"/></clipPath><clipPath id="clip-path-3"><path class="cls-1" d="M611.91 669s-7.25-13.4-24.7-4c0-.08 7.9 12.48 24.7 4z"/></clipPath><clipPath id="clip-path-4"><path class="cls-1" d="M629.13 669.71s8.12-11 15.89-1.38c-.02 0-8.02 11.31-15.89 1.38z"/></clipPath><clipPath id="clip-path-5"><path class="cls-1" d="M404.84 644.5s-9.76-14.75-29-2.14c.02 0 10.45 13.72 29 2.14z"/></clipPath><clipPath id="clip-path-6"><path class="cls-1" d="M424.83 643.6s8.27-13.5 18.23-3.23c0 0-8.06 13.89-18.23 3.23z"/></clipPath><clipPath id="clip-path-7"><path class="cls-1" d="M769.61 661.47s7.55-12.37 23.67-2.6c0 0-8.15 11.54-23.67 2.6z"/></clipPath><clipPath id="clip-path-8"><path class="cls-1" d="M753.2 661.33s-7.17-10.81-15-2.11c-.03 0 6.99 11.14 15 2.11z"/></clipPath><clipPath id="clip-path-9"><path class="cls-1" d="M989 639.48s10.51-15.9 31.23-2.31c.02 0-11.23 14.83-31.23 2.31z"/></clipPath><clipPath id="clip-path-10"><path class="cls-1" d="M967.47 638.51S958.56 624 947.82 635c0 0 8.71 15 19.65 3.51z"/></clipPath><clipPath id="clip-path-11"><path class="cls-1" d="M1166 629.93s10.74-16.25 31.92-2.36c-.03 0-11.53 15.11-31.92 2.36z"/></clipPath><clipPath id="clip-path-12"><path class="cls-1" d="M1143.94 628.94s-9.11-14.87-20.09-3.55c0 0 8.9 15.3 20.09 3.55z"/></clipPath></defs><path d="M902.36 49.82C864 47 675.24 24.63 632.75 26.16c-74.43 2.67-130.22 21.59-182.54 42.37-65.76 26.13-124.38 57.94-179.35 92.47-71.06 44.52-136.08 93.5-185.64 154.08-43.52 53.2-33.64 121.15-16.84 215.24 9.5 53.2.9 107.53 54.22 191.67 225.29 355.51 1455.67 478.82 1276.75-274.12C1306.48 57 959.28 54 902.36 49.82z" fill="#c4e5e5"/><path class="cls-3" d="M269.08 349.33l-19 70 12.75 5.55 32-65.57A13.86 13.86 0 0 0 286.1 340a13.85 13.85 0 0 0-17.02 9.33z"/><path class="cls-4" d="M262.4 373.79l4.75-17.59"/><path class="cls-3" d="M236.23 457.42c-3.55-.82 2.69-17 5.13-20.7l-4.31 2c-1.13.4-3.89.32-4.68-1.11s6.54-5.39 6.54-5.39c3.48-2.58 11.19-12.94 11.19-12.94l12.75 5.55c-.83 8.73-2.46 15.44-5.57 20.92-.49.86-3.26 13.69-5.39 13.53-1.63-.13 1-14.53.07-13.61-.5.51-2.13 15.17-5.55 15.59-2.12.26 2.56-16.07 1.38-16-.77 0-2.84 14.3-5.79 14.76-3.68.58 2.32-17.3 1.42-16.62-.69.52-4.72 14.6-7.19 14.02z"/><path d="M250.7 168.58s-27-8.44-40 17.24c-6.32 12.52-18.61 56-27.81 71.7 0 0-20.26 37.5 21.33 36.63 43.66-.92 76.84 5.42 76.84 5.42s.65-83.21 1.65-100.6-12.67-28.67-32-30.39"/><path class="cls-5" d="M261.13 221.36c-.23 5.18 1.64 7.67 8.42 8.09 5.17.31 9.58-4.91 9.81-10.09s-3.47-7.4-9-7.14c-3.82.17-9 3.97-9.23 9.14z"/><path class="cls-3" d="M234.91 217.35l-17.84 47.89 23.34 3.07 8.95-41.67-14.45-9.29z"/><path class="cls-6" d="M243.55 253.71c-9.07-5.1-13.16-24.18-13.16-24.18l18.21.38z"/><path class="cls-3" d="M246.52 171.87a40.27 40.27 0 0 1 17.89 3.6c7.51 3.52 16.84 9.19 14.6 23.48-3.74 23.8-11 40.54-24.25 42.94-10.16 1.84-16.43-1.33-25.47-9.8-3.36-3.15-5.53-10.49-5.47-15.2l-1.39-13.55s-5.27-30.85 24.09-31.47z"/><path d="M264.49 206.08s-1.31 1.93 2.28 3a23.4 23.4 0 0 1 5 1.89 2.48 2.48 0 0 0 2.52-.09 1.67 1.67 0 0 0 .3-1.71c-.41-1.25-1-3-4.32-4-4.27-1.34-5.78.91-5.78.91zM252.52 203.88s.57 3-4.4 2.35a67.21 67.21 0 0 0-10.68-.07 3.36 3.36 0 0 1-3-1.42 1.36 1.36 0 0 1 .5-1.92 21.53 21.53 0 0 1 11.28-2.26c5.86.66 6.3 3.32 6.3 3.32z"/><path class="cls-1" d="M249.23 216.11s-3.44-9.46-15.76-5c0-.03 3.96 8.95 15.76 5z"/><g clip-path="url(#clip-path)"><path class="cls-8" d="M250.38 214.9a4 4 0 1 1-3.78-4.24 4 4 0 0 1 3.78 4.24z"/></g><path d="M233.22 210.5a16.83 16.83 0 0 1 4.68-1 13 13 0 0 1 4.73.4 10.05 10.05 0 0 1 4.08 2.35 9.3 9.3 0 0 1 2.52 3.88 9 9 0 0 0-2.73-3.64 9.6 9.6 0 0 0-4-2 12.49 12.49 0 0 0-4.48-.08 15.81 15.81 0 0 0-4.29 1.25.62.62 0 0 1-.83-.31.62.62 0 0 1 .3-.83z"/><path class="cls-1" d="M260.42 218.26s6.38-6.37 10.53.64c.05 0-6.31 6.62-10.53-.64z"/><g clip-path="url(#clip-path-2)"><path class="cls-8" d="M266.63 217.54c-1 1.93-.67 4 .66 4.7s3.18-.38 4.14-2.31.67-4-.66-4.7-3.18.37-4.14 2.31z"/></g><path d="M270.38 219.16a5.61 5.61 0 0 0-1.66-2.35 4.34 4.34 0 0 0-1.24-.74 3 3 0 0 0-.7-.16 6.32 6.32 0 0 0-.75-.06 7.12 7.12 0 0 0-3 .68 10.6 10.6 0 0 0-2.63 1.73 10.77 10.77 0 0 1 2.49-2 7.38 7.38 0 0 1 3.1-1 4.63 4.63 0 0 1 .83 0 3.26 3.26 0 0 1 .87.12 5.33 5.33 0 0 1 1.57.72 6.76 6.76 0 0 1 2.24 2.59.62.62 0 0 1-1.11.57z"/><path class="cls-10" d="M257.47 223.31l1.53 4.19-2.57 1.64M245.88 231.68s8-.35 10.72 2.91"/><path d="M235.22 171.46s8.3 14.93-11.13 38l-12.43-19 8.45-6.52z"/><path class="cls-3" d="M227.85 214.46c-2.16 4.71-5 6.07-11.18 3.35-4.75-2.08-6.29-8.74-4.13-13.45s6.46-5 11.25-2.26c3.34 1.9 6.21 7.65 4.06 12.36z"/><path class="cls-10" d="M217.53 206.32s4.9 0 5.11 7"/><path d="M226.89 189.64c.73.81 23.82 8 43.64-2.43 0 0-6.64-15.6-15.33-17.74-24.2-5.97-28.31 20.17-28.31 20.17z"/><path d="M281 197.81c-4.41 1.61-18.07-3.54-24.5-25 0 0 5.12-.5 12.92 3.88A22 22 0 0 1 281 197.81z"/><path class="cls-11" d="M224.32 379.58l-35-2.78c-18 .43-43-20.38-36.83-63.27 0 0-18.37-25.56-1.6-30.77 9.58-3 26.09-30.61 41.25-33.37l20.49-.75a32.54 32.54 0 0 1 33.31 31.76l1.29 53.85c.4 17.97-4.94 44.9-22.91 45.33z"/><path class="cls-3" d="M288.24 290.92s9.22 38.94 7.85 60.93c-.66 10.65-9.53 6.15-12.95 6.72-6.74 1.12-11.27-8.52-12.28-13.55l-5.64-56.53z"/><path class="cls-12" d="M266.27 257.78c-.61-.18 15.84 9.14 33.67 54.36l-30.12 23.44L254.71 292z"/><path class="cls-12" d="M229.93 246.77s-21.43 1.34-39.85 12.31a15.88 15.88 0 0 0-7.49 15.57l9.56 94.54h78.09l8.34-79.4c1.05-6.65-.1-22.32-8.14-28.87-4.74-3.86-17.75-14.15-40.51-14.15z"/><path class="cls-3" d="M207.85 251.24a79.57 79.57 0 0 1 22.08-4.47c15.58-.81 25.7 5 25.7 5l-.64.83a24.71 24.71 0 0 1-30.64 6.91zM290.46 647.27l16.69-.11-6.4-45.34-16.55 2.96 6.26 42.49z"/><path class="cls-13" d="M270.24 369.19s14 88.79 34.55 261.22l-30.28.72s-42.71-79.84-50.88-165.54l-8.24-96.4z"/><path d="M307.41 648.23s25.78 5.61 33.23 11.75c2.4 2 1.14 5.27-.12 6.12-2.89 2-47.74.84-57.72-.69-3.52-.54 1.32-14.41 5.83-18.25z" fill="#818084"/><path d="M305.81 637.61s5.37 8.48 14.69 12.21c7.19 2.88 14.14 5.11 18.32 7.85 3.68 2.42 2.85 5.19 2.85 5.19-1.39 2.18-50-.14-60-1.68 0 0 .3-9.47 7.53-22.07l2.66 5.35 14.56-.33z" fill="#edeeef"/><path class="cls-3" transform="rotate(169.88 242.577 633.49)" d="M234.14 613.7h16.81v39.6h-16.81z"/><path d="M254.7 649.82s22.74 2.17 33.63 7.4c4 1.9 2.19 6.54 1.06 7.55-2.61 2.33-46.69 5.55-56.79 5.36-3.55-.06-.62-14.45 3.34-18.86z" fill="#98989c"/><path class="cls-1" d="M252.72 639.11s23.48 10.64 34.37 15.89a6.7 6.7 0 0 1 3.69 6.22c-2.6 2.33-49.73 5.08-59.83 4.89 0 0-1-9.43 4.52-22.88l3.34 4.95L253.5 647z"/><path d="M192.15 369.19c-16.94 30.35-8.79 76.38-2.42 118.37 11.82 77.86 26.7 152.44 26.7 152.44l35.18-3.6-7.4-267.24z" fill="#263a7d"/><path class="cls-11" d="M263.73 256.21s14.44 18.15 9.51 63.51c0 0 1.8-.84 4.37-8.35 3.9-11.38 4.25-38.2-6.54-51.77a7.52 7.52 0 0 0-3.17-2.32 13.1 13.1 0 0 0-4.17-1.07z"/><path class="cls-3" d="M164.91 319.08l6.74 55.63a14.26 14.26 0 0 0 17 11.89 14.27 14.27 0 0 0 11.26-15.89l-6.61-59.94z"/><path class="cls-12" d="M187.69 260.54s-26.42 11.54-30.78 61.46l38.2 15.95 12-44.51z"/><path class="cls-1" d="M189.73 335.98l5.38 1.92 12.04-34.83"/><path d="M189.73 336c1.84.53 3.65 1.11 5.47 1.67l-.34.17c.93-2.93 1.83-5.87 2.81-8.78s2-5.82 3-8.72 2.06-5.79 3.15-8.66 2.17-5.75 3.34-8.59c-.83 3-1.73 5.9-2.66 8.82s-1.88 5.85-2.88 8.76-2 5.81-3 8.7-2.14 5.76-3.21 8.64a.24.24 0 0 1-.32.14c-1.83-.72-3.61-1.41-5.36-2.15z"/><path class="cls-11" d="M192.12 256.21s27.64 16.87 8 65.74c0 0 5.68-3.55 10.43-12s14.68-40.69-2.72-60.56a28.66 28.66 0 0 0-6.73 1.26c-2.87.99-8.98 5.56-8.98 5.56z"/><path class="cls-3" d="M173.92 369.16l22.37-69L210 302.5l-9 72.4a13.86 13.86 0 0 1-17.87 11.36 13.85 13.85 0 0 1-9.21-17.1z"/><path class="cls-4" d="M181.7 345.02l-5.64 17.33"/><path class="cls-3" d="M205.5 260.69c-3.43-1.25-7.05 15.72-7 20.14l-2.5-4.07c-.73-.95-3.09-2.39-4.53-1.63s2.53 8.1 2.53 8.1c1.5 4.06 2.3 16.94 2.3 16.94l13.7 2.33c4.08-7.76 6.39-14.28 6.78-20.56.06-1 4.75-13.25 2.88-14.28-1.43-.78-7.12 12.7-7.38 11.43-.14-.69 6.51-13.86 3.88-16.08-1.63-1.38-6.65 14.85-7.62 14.18-.63-.44 5.44-13.52 3.22-15.53-2.76-2.49-7.52 15.76-7.9 14.7-.29-.81 4.02-14.8 1.64-15.67z"/><path class="cls-18" d="M531 658.72s3.81 23.42-2.35 29.58c-11.76 11.77-47.87 17.24-28.82 67.56H666s8.22-20-10.34-31.68c0 0-6.46-4.51-2.5-18.1s-5.91-23.24-18-37.75l-23.83-38.74z"/><ellipse class="cls-18" cx="587.55" cy="655.26" rx="56.76" ry="54.17"/><circle cx="638.49" cy="675.59" r="14.69" transform="rotate(-29.61 638.454 675.573)" fill="#ff9b5b"/><path class="cls-20" d="M607.29 709.69l-1.42 65.13-47.17-2.63 9.62-95.86 38.97 33.36z"/><path class="cls-6" d="M606.72 729.62s-21-2.17-22-26.12l22.33 11.81z"/><path class="cls-20" d="M634.83 623.17a21.49 21.49 0 0 1 7 12.27c2.81 14 8.33 38.81 3.35 53.73-6.46 19.39-22.22 33.15-47.67 28.31 0 0-30.51-3.08-36.78-41.72-9.99-61.56 42.37-79.4 74.1-52.59z"/><path class="cls-21" d="M612.7 668a17.84 17.84 0 1 1-17.63-18.44A18 18 0 0 1 612.7 668z"/><ellipse class="cls-21" cx="637.29" cy="668.14" rx="17.51" ry="15.29" transform="rotate(-89.34 637.277 668.141)"/><path class="cls-22" d="M612.7 668a17.84 17.84 0 1 1-17.63-18.44A18 18 0 0 1 612.7 668z"/><ellipse class="cls-22" cx="637.29" cy="668.14" rx="17.51" ry="15.29" transform="rotate(-89.34 637.277 668.141)"/><path class="cls-22" d="M612.7 668s4-4.51 9.31 0M577.03 667.58l-15.95 6.07"/><path class="cls-18" d="M630.9 648.78s-1.77 3.06 3.78 4.29a35.15 35.15 0 0 1 7.66 2.3 3.74 3.74 0 0 0 3.8-.42 2.53 2.53 0 0 0 .26-2.61c-.76-1.83-1.85-4.4-7-5.59-6.52-1.52-8.5 2.03-8.5 2.03zM612.94 647.83s1.5 4.29-6.07 4.47a100.18 100.18 0 0 0-16 2.2A5.11 5.11 0 0 1 586 653a2.05 2.05 0 0 1 .33-3c2-1.68 9.4-5.58 16.39-5.81 8.99-.26 10.22 3.64 10.22 3.64z"/><path class="cls-1" d="M611.91 669s-7.25-13.4-24.7-4c0-.08 7.9 12.48 24.7 4z"/><g clip-path="url(#clip-path-3)"><path class="cls-24" d="M613 667.6a6.07 6.07 0 1 1-6.59-5.51 6.08 6.08 0 0 1 6.59 5.51z"/></g><path d="M586.3 663.42a25.59 25.59 0 0 1 7-2.46 20.27 20.27 0 0 1 7.37-.26 15.59 15.59 0 0 1 6.68 2.84 14.18 14.18 0 0 1 4.53 5.42 13.75 13.75 0 0 0-5-4.68 14.26 14.26 0 0 0-6.4-1.84 18 18 0 0 0-6.48 1.06 22.5 22.5 0 0 0-5.87 2.91 1.75 1.75 0 1 1-2-2.87l.18-.11z"/><path class="cls-1" d="M629.13 669.71s8.12-11 15.89-1.38c-.02 0-8.02 11.31-15.89 1.38z"/><g clip-path="url(#clip-path-4)"><path class="cls-24" d="M639.05 669.12c-1 3.11-.1 6.19 2 6.89s4.68-1.27 5.7-4.38.1-6.19-2-6.88-4.68 1.25-5.7 4.37z"/></g><path d="M643.55 669.28a8 8 0 0 0-2.61-3 6.2 6.2 0 0 0-1.82-.86 3.25 3.25 0 0 0-1-.13 6.59 6.59 0 0 0-1.09 0 10.22 10.22 0 0 0-4.27 1.44 15.23 15.23 0 0 0-3.66 3 15.69 15.69 0 0 1 3.15-3.72 11.66 11.66 0 0 1 4.45-2.45 8.31 8.31 0 0 1 1.3-.26c.23 0 .41-.07.69-.09s.5 0 .74 0a8.74 8.74 0 0 1 2.71.7 11.1 11.1 0 0 1 4.32 3.47 1.76 1.76 0 1 1-2.78 2.15 2.46 2.46 0 0 1-.13-.25z"/><path class="cls-26" d="M618.06 668.72l3.2 5.95-3.47 3.01M605.19 689.52s6.68 11.22 24.1 4"/><path class="cls-18" d="M564.44 665.93c2.42 1 46.88-25.74 24.32-54.85 0 0-33.81 7.94-31.86 54.83z"/><path class="cls-18" d="M592.39 621.78s29.92-7.29 47.33 7.62c0 0-8.44-26.94-49.58-28.32l-15.49 34.45z"/><circle class="cls-18" cx="544.21" cy="601.08" r="22.8" transform="rotate(-13.2 544.282 601.139)"/><path class="cls-18" d="M573.77 650.62l-2.91 30.74-10.6-28.14 13.51-2.6z"/><path class="cls-20" d="M538.88 684.43a17.82 17.82 0 1 0 11.89-22.22 17.81 17.81 0 0 0-11.89 22.22z"/><path d="M547.9 674.06s13.06-3.76 16.54 10.63" stroke-width="1.45" stroke="#311326" stroke-linecap="round" stroke-linejoin="round" fill="none"/><path class="cls-13" d="M649 783s25.47 15.1 25.47 54.32V949.8a28.46 28.46 0 0 1-23.92 28.1 28.46 28.46 0 0 1-33-27.91l-1-148.15z"/><path class="cls-20" d="M740.3 876.89l12.22 15.83-93.7 83.36a23 23 0 0 1-34.8-9.46 23 23 0 0 1 11.1-29.84z"/><path class="cls-20" d="M740.3 876.89l6.7-11.58a44.61 44.61 0 0 1 14.17-15l10.27-6.74a4.72 4.72 0 0 1 6.91 2.06 6 6 0 0 1-1.22 6.64l-9.13 9.32 49.07-14.06a3.66 3.66 0 0 1 4.68 2.86l.25 1.46a3.65 3.65 0 0 1-2.27 4l-28.79 9.23 34.54-6a3.66 3.66 0 0 1 4.48 3.14l.12 1.08a3.64 3.64 0 0 1-2.78 4l-35.75 7.35 29.64-.61a3.65 3.65 0 0 1 3.76 4.28l-.08.47a3.65 3.65 0 0 1-3.13 3l-30.86 4h18.95a3.66 3.66 0 0 1 3.27 5.21 3.63 3.63 0 0 1-3 2l-69 6.39z"/><path class="cls-13" d="M540.74 766.56S494.22 776.67 476.4 820s-5.4 192.25-5.4 192.25 88.5 41.63 165.75-5.28L651.63 783s-17.28-12.42-31.36-20.4z"/><path class="cls-20" d="M573.77 752.73s-13 2.91-35.66 13.83c0 0 33.82 26.28 60.56 57.89 0 0 20.8-21.36 19-61.82l-26.41-9.9z"/><path class="cls-28" d="M645.49 835.58l-6.42 96.32"/><path class="cls-29" d="M344.8 1022.53s59.05 11.9 107.34-11.66l16.08-202.66-57.43-58.44L354 737.7l-31.3 113.94z"/><path class="cls-30" d="M354 737.7s8.19 202.3 6 302.49l-43.7-5.19a45.13 45.13 0 0 1-39.8-46.13l4.5-155.79 5-67.35a15.29 15.29 0 0 1 9.54-13.09A229.18 229.18 0 0 1 354 737.7z"/><path class="cls-3" d="M204.18 960l-15.64 27.44s-30.74 1.93-59.06 15.29a3.84 3.84 0 0 0-2.12 4.06 3.8 3.8 0 0 0 4.86 3.06l21.11-6.38s-20.78 8.42-36.66 17.73a4.81 4.81 0 0 0-2 6.16 4.79 4.79 0 0 0 6.07 2.45l34.12-13.25-31.86 17.59a5.28 5.28 0 0 0-2.15 7 5.28 5.28 0 0 0 7 2.36l30.85-14.89-24 16.89a6.12 6.12 0 0 0-.75 9.38 6.13 6.13 0 0 0 7.65.72c9.46-6.25 33.3-20.84 48.77-20.43a74.22 74.22 0 0 1-10.2 12.15 6.92 6.92 0 0 0 .67 10.61 6.92 6.92 0 0 0 8 .09L207 1045.5a17.91 17.91 0 0 0 7.08-10l6-21.95 26.35-24.92z"/><path class="cls-30" d="M297.86 751.72s-8.44-.48-36.07 34.94c-28.44 36.47-77.87 199.23-77.87 199.23l49.65 37.7 84.29-183.47z"/><path class="cls-28" d="M279.26 924.15l29.36-63.91"/><path class="cls-30" d="M453.71 754.62s43.53 13.57 59.91 174.16l-35.35 25.05z"/><path class="cls-3" d="M601.47 871.86s-15.89-12.23-1.11-32.71l22.16-32a5.75 5.75 0 0 1 8.57-.84 5.73 5.73 0 0 1 1.46 6.26l-6.83 18.92 42-28.46a6.22 6.22 0 0 1 9.24 2.14 6.24 6.24 0 0 1-1.64 7.73l-27.08 21 .53 1.65 31.08-17.7a6 6 0 0 1 8.33 4.06 6 6 0 0 1-3.31 6.84l-30 19.22.44 2.11 29.28-12.53c7.25-3.48 9.5-.08 10.22 2.6.67 2.51-4.79 5.92-7.25 6.73l-30.29 15.31.33 2 28.09-10.78a4.33 4.33 0 0 1 4.91 4.61 4.33 4.33 0 0 1-3.55 3.93L655 875.61s-29.26 20-42.53 8.71z"/><path class="cls-31" d="M625.72 831.53s9.28 16.47-2.05 31.21"/><path class="cls-3" d="M556.52 874.61l48.23-20.34 20.85 29.24-54.07 29.1-15.01-38z"/><path class="cls-30" d="M460.52 904.08l121.92-49.3 24.4 52.84-106.41 70.29A37 37 0 0 1 451 967.44c-12.8-18.23-10.15-52.91 9.52-63.36z"/><path class="cls-28" d="M507.13 885.23l-14.8 5.99"/><path class="cls-30" d="M410.79 749.77s14.1 16.53 19.86 87.89 7.7 193.36 7.7 193.36a52.16 52.16 0 0 0 41.7-52.7c-1.6-52.84-5.41-138.94-13.72-175.36l-7.74-39.53c-.43-1.87-2.25-7.49-2.25-7.49s-6.24-5.69-45-14.58z"/><path class="cls-28" d="M480 983.21s.38-101.32-11.75-175"/><path class="cls-32" d="M349.76 667.79s-13.89 22.45 6.51 21.78c0 0 8.51-7 6.59-20.18zM471 605.2a35.89 35.89 0 0 0-4.24-13.38c-29.37-54.28-93.24-11-93.24-11l11.18 38c26.65-16.02 58.3-22.6 86.3-13.62z"/><path class="cls-33" d="M384.72 618.9l12.48 49.36s78.1-22.43 73.8-63.06c-28-8.98-55.68-12.8-86.28 13.7z"/><path class="cls-6" d="M421.91 662.46a16 16 0 1 0 11.46-19.54 16 16 0 0 0-11.46 19.54z"/><path class="cls-3" d="M408.2 696.58l2.95 47.57c-1.22 19.25-24.81 27.79-38.07 13.77L354 737.7l5.68-83z"/><path class="cls-6" d="M409.65 720.05s-31.13-1.33-33.45-32.72l32 9.25z"/><path class="cls-3" d="M440.91 593.6s10.21 64.93 2.23 85.39S417.43 712 390 705.88c0 0-32-2.48-37.81-49-8.76-69.95 57.12-101.33 88.72-63.28z"/><path class="cls-32" d="M368.23 652.76l3.12-23.64s18.73-6 23.2-41.33c0 0-7.86-16.28-31.86-8.83s-44.84 24.8-18.52 68.38z"/><path class="cls-3" d="M330.62 662.57a19.43 19.43 0 1 0 13.9-23.71 19.44 19.44 0 0 0-13.9 23.71z"/><path class="cls-31" d="M340.89 651.65s14.39-3.53 17.57 12.28"/><path class="cls-32" d="M394.55 587.79S418.24 584 441.82 599l-5-21-31.09-4.31-29.63 11.13 7.32.69z"/><path class="cls-32" d="M441.82 599s35.8.09 35.95 26.18a.45.45 0 0 0 .89.08c1.68-9.69-.12-36.21-39.64-33.12z"/><path class="cls-33" d="M424.39 625.88s-.55 4.08 5.95 2.94a40.81 40.81 0 0 1 9.24-.92 4.39 4.39 0 0 0 3.9-2.13c.48-1-.3-2.34-.88-2.92-1.63-1.64-3.94-3.91-10-2.92-7.67 1.27-8.21 5.95-8.21 5.95zM411.5 631.43s.27 5.26-8.23 3c-6.45-1.72-14.67-2.43-18.55-2.77a5.92 5.92 0 0 1-4.93-3.21 2.38 2.38 0 0 1 1.34-3.22c2.75-1.23 12.29-3.16 20.16-1.14 10.1 2.6 10.21 7.34 10.21 7.34z"/><path class="cls-1" d="M404.84 644.5s-9.76-14.75-29-2.14c.02 0 10.45 13.72 29 2.14z"/><g clip-path="url(#clip-path-5)"><path class="cls-35" d="M400.29 642a7.05 7.05 0 1 1-8.19-5.69 7.05 7.05 0 0 1 8.19 5.69z"/></g><path class="cls-8" d="M375.18 641.43a29.09 29.09 0 0 1 7.57-3.66 23.17 23.17 0 0 1 8.27-1.23 17.8 17.8 0 0 1 7.93 2.35 16.42 16.42 0 0 1 5.89 5.61 16.17 16.17 0 0 0-6.16-5.1 16.92 16.92 0 0 0-7.68-1.71 21.64 21.64 0 0 0-7.66 1.71 27.22 27.22 0 0 0-6.8 3.89 1.15 1.15 0 1 1-1.43-1.81.18.18 0 0 1 .07-.05z"/><path class="cls-1" d="M424.83 643.6s8.27-13.5 18.23-3.23c0 0-8.06 13.89-18.23 3.23z"/><g clip-path="url(#clip-path-6)"><path class="cls-35" d="M430.26 642.14c-.85 3.7.51 7.18 3 7.76s5.28-1.94 6.14-5.64-.51-7.18-3.05-7.76-5.24 1.94-6.09 5.64z"/></g><path class="cls-8" d="M442.15 641.08a10 10 0 0 0-3.76-3.33A7.9 7.9 0 0 0 436 637a4.3 4.3 0 0 0-1.24 0 6.39 6.39 0 0 0-1.3.2 12.09 12.09 0 0 0-4.81 2.36 17.68 17.68 0 0 0-3.79 4 18.17 18.17 0 0 1 3.41-4.46 13.14 13.14 0 0 1 4.87-3 8.87 8.87 0 0 1 1.43-.38l.74-.13a7.13 7.13 0 0 1 .79 0 9.52 9.52 0 0 1 3 .59 12 12 0 0 1 4.91 3.51 1.14 1.14 0 0 1-.11 1.62 1.16 1.16 0 0 1-1.63-.11z"/><path class="cls-37" d="M420.13 668.12l6.28-3.08-5.43-15.9M412.58 676.17c5.87 5.7 15.09 1.18 15.09 1.18"/><path class="cls-38" d="M846.7 629.8s6.83 42.47 22.13 66.32a9.89 9.89 0 0 1-3.09 13.45c-17.28 11.16-65.89 32.33-128 8.09a9.91 9.91 0 0 1-6.12-10.38c1.27-11.48 11.23-34 25.88-54.24z"/><path d="M760.6 669.19a14.35 14.35 0 1 1-9.6-17.89 14.34 14.34 0 0 1 9.6 17.89z" fill="#ffac78"/><path class="cls-40" d="M777.36 698.36l1.38 58.11 45.27-5.28-8.58-85.43-38.07 32.6z"/><path class="cls-6" d="M777.88 719.92s20.59-1 21.48-24.45L777.54 707z"/><path class="cls-40" d="M750.45 613.81a20.94 20.94 0 0 0-6.85 12c-2.75 13.73-8.14 42.29-3.28 56.87 6.32 19 21.71 30.94 46.59 26.21 0 0 28.82-1.32 35.93-43.68 10.09-60.11-41.39-77.6-72.39-51.4z"/><path class="cls-38" d="M811.94 660.74s-15.06-13.32-12.06-39.23a251.3 251.3 0 0 1-55.88 2.28s6.77-40.06 64.48-30.45c60 10 37.85 79.33 15.56 99.63z"/><circle class="cls-40" cx="824.27" cy="667.34" r="17.42" transform="rotate(-28.9 824.116 667.274)"/><path d="M832.13 662.26s-12.77-3.67-16.17 10.38" stroke-width="1.41" stroke="#311326" stroke-linecap="round" stroke-linejoin="round" fill="none"/><path class="cls-38" d="M786.59 592c.08-.07-50.15.86-56.43 40.77l79.48 1.78L814.4 608zM753.58 647.06s.58 3.32-4.78 2.62a33.49 33.49 0 0 0-7.6-.44 3.57 3.57 0 0 1-3.26-1.61 2.39 2.39 0 0 1 .62-2.42c1.27-1.4 3.09-3.34 8-2.74 6.44.78 7.02 4.59 7.02 4.59zM763.45 648.37s-.17 4.32 6.77 2.37a97.49 97.49 0 0 1 15.17-2.46 4.83 4.83 0 0 0 4-2.68 2 2 0 0 0-1.13-2.63 31.12 31.12 0 0 0-16.53-.72c-8.25 2.24-8.28 6.12-8.28 6.12z"/><path class="cls-1" d="M769.61 661.47s7.55-12.37 23.67-2.6c0 0-8.15 11.54-23.67 2.6z"/><g clip-path="url(#clip-path-7)"><path class="cls-11" d="M768.16 659.44a5.78 5.78 0 1 0 6.54-4.9 5.78 5.78 0 0 0-6.54 4.9z"/></g><path d="M792.77 659.61a22.34 22.34 0 0 0-5.69-3 17.75 17.75 0 0 0-6.34-1.17 13.92 13.92 0 0 0-6.25 1.64 13.19 13.19 0 0 0-4.88 4.36 13.33 13.33 0 0 1 4.66-4.75 14.54 14.54 0 0 1 6.42-2.15 19.05 19.05 0 0 1 6.8.77 24.22 24.22 0 0 1 6.3 2.78.91.91 0 1 1-1 1.53.1.1 0 0 1-.02-.01z"/><path class="cls-1" d="M753.2 661.33s-7.17-10.81-15-2.11c-.03 0 6.99 11.14 15 2.11z"/><g clip-path="url(#clip-path-8)"><path class="cls-11" d="M746.11 659.44c.8 3-.21 5.89-2.27 6.45s-4.38-1.44-5.19-4.44.21-5.9 2.27-6.45 4.38 1.44 5.19 4.44z"/></g><path d="M737.44 658.69a9.79 9.79 0 0 1 3.9-3 7.44 7.44 0 0 1 2.42-.57 4.39 4.39 0 0 1 1.26.08 7.62 7.62 0 0 1 1.17.26 10.76 10.76 0 0 1 4.08 2.33 14.64 14.64 0 0 1 2.93 3.55 14.76 14.76 0 0 0-3.21-3.2 10.29 10.29 0 0 0-4-1.8 6.5 6.5 0 0 0-1.08-.13 3.45 3.45 0 0 0-1 0 6.32 6.32 0 0 0-2 .68 8.28 8.28 0 0 0-3 2.84.9.9 0 1 1-1.51-1 .22.22 0 0 1 .04-.04z"/><path class="cls-44" d="M755.93 669.28l-3.34 5.49 3.15 3.03M766.75 681.52s-8 7.62-14.21 3.05"/><path class="cls-40" d="M722.09 854.13l5.53 75.19-31.03 94.62h34.43l53.69-51.87-5.76-113.12-56.86-4.82z"/><path class="cls-1" d="M735.75 763.76s-39.25 28.35-27.69 119.3h64.22z"/><path d="M751.76 928.35l-21.6 95c80.62 22.77 155.58 0 155.58 0s-4.2-36.5-32.23-95.69z" fill="#311326"/><path class="cls-1" d="M844.1 746.61l-78.88 1.32s-17.28 5.8-29.47 15.83l2.47 66.52 13.54 98.07 101.75-.65 20-152.39z"/><path class="cls-40" d="M801.09 735.13a164.47 164.47 0 0 1 43 11.48s-6.58 25.6-44.43 25.71a49.09 49.09 0 0 1-18.54-3.32c-7.86-3.18-17.06-9.43-15.9-21.08z"/><path class="cls-46" d="M743.97 881.44l-7.34-53.68"/><path class="cls-40" d="M899.55 931.9c.18-2-3.59-94.42-3.59-94.42h-43.65l-.68 68.86z"/><path class="cls-1" d="M844.1 746.61s54.17 15 60.77 48.69 22.54 89.82 22.54 89.82l-83.31.24 6.26-113z"/><path class="cls-46" d="M847.12 891.22l-7.04-49.99"/><path class="cls-40" d="M783.86 837.55l-10.38 20.14L862 946.55a23 23 0 0 0 35.31-7.35 23 23 0 0 0-9.31-30.45l-12.42-8.49-21.79-14.9z"/><path class="cls-40" d="M790.52 842.56V829.2a44.53 44.53 0 0 0-4.86-20.06l-5.57-10.94a4.72 4.72 0 0 0-7-1.65 6.06 6.06 0 0 0-2.24 6.38l3.3 12.61-31.9-34.61c-1.51-1.61-5.05-1.33-6.45.37-1.11 1.34-1.52 3.75-.43 5.1l17.12 20.82L729 786.57a4.37 4.37 0 0 0-6 .69 4.71 4.71 0 0 0 .45 5.56l27.07 23.82-25.44-15.23a3.65 3.65 0 0 0-5.39 1.85l-.16.44a3.66 3.66 0 0 0 1.23 4.15l24.82 18.78-16.46-9.4a3.65 3.65 0 0 0-5.45 2.92 3.66 3.66 0 0 0 1.55 3.25l53.43 38.29z"/><path stroke="#ffa46a" stroke-width="2.59" stroke-linecap="round" stroke-linejoin="round" fill="none" d="M855.43 886.48l25.22 17.23"/><rect class="cls-29" x="731.29" y="438.98" width="172.71" height="107.76" rx="41.72" transform="rotate(180 817.64 492.86)"/><path class="cls-29" d="M805.17 536.07l-21.73 27.46a3.52 3.52 0 0 1-6.17-3.09l7.62-28.71z"/><path class="cls-48" d="M765.58 474c0 3.62-.11 10.29-5.17 10.29s-4.69-8.58-4.69-12c0-1.09-.06-2.17-.06-3.26 0-2.41.11-7.49 3.52-7.49a4.46 4.46 0 0 1 1.25.19c5.06 1.48 5.15 8.04 5.15 12.27zm-7.07 12.36a30.22 30.22 0 0 1 3.56-.2c.37 0 1.7 0 1.9.32a9.24 9.24 0 0 1 .26 1.46c0 .35-.49.46-.76.46-1.23 0-2.46 0-3.69.14-.56 0-1.11.2-1.68.2a.72.72 0 0 1-.43-.09c0-.48-.06-1-.06-1.45 0-.88.14-.76.9-.84zm4.27-8.56a14.72 14.72 0 0 0 .23-3.11c0-2 0-10.44-2.87-10.44a1.74 1.74 0 0 0-.94.32c-1 .71-.94 2.44-1 3.54-.12 2.16-.36 4.32-.36 6.48 0 1.77.12 7.17 2.68 7.17 2.09 0 2-2.5 2.26-4zM777.9 482.36c0 .74.16 1.48.16 2.22 0 .25 0 .77-.38.77a3.85 3.85 0 0 1-.66-.13c-1.09-.22-1.37-.83-1.37-1.88 0-.9.19-4.13-.21-4.78a1.15 1.15 0 0 0-1.15-.5c-.86 0-1.66-.36-2.47-.36s-.64.79-.64 1.27c0 .73.08 1.46.11 2.19s.24 1.31.24 2-1.12.86-1.71.86-1.26-.06-1.26-.81.23-1.2.23-1.81c0-1.26-.16-2.52-.16-3.79 0-3.15.22-6.3.22-9.45 0-.88-.08-1.76-.08-2.63 0-.37.05-.52.44-.52.64 0 2.33-.2 2.33.7 0 .56-.22 1.1-.25 1.66v1.14c0 1.41.09 2.82.06 4.22 0 .62-.22 1.22-.22 1.83s.44.87 1.06.95a17.68 17.68 0 0 0 2.41.21 1.33 1.33 0 0 0 .56-.07c.44-.26.44-1.75.44-2.19 0-.95-.1-1.89-.1-2.83s.07-1.86.07-2.79c0-.57-.09-1.13-.09-1.7s.27-1.1 1-1.1c.95 0 1.32.53 1.32 1.41v4.1c.09 3.93.05 7.87.1 11.81zM791.53 489a2.23 2.23 0 0 1-1.79.55c-4.34 0-7.33-2-7.33-6.62 0-2.07 1-4 3.31-4 1.3 0 2.58.95 3.09.95a1 1 0 0 0 .17 0c0-3-.05-13.3-1.38-15.41a2 2 0 0 0-1.64-1c-1.53 0-2.46 1.63-2.46 3 0 1.21 0 1.47-1.26 1.47-.58 0-1.94.16-1.94-.7a7.42 7.42 0 0 1 .92-2.78c1-1.88 3.18-3.72 5.4-3.72a3.47 3.47 0 0 1 1.49.32c2.61 1.25 3 6.26 3.27 8.8a80.55 80.55 0 0 1 .42 8.65c0 2.8-.1 5.6-.1 8.4a4.37 4.37 0 0 1-.18 2.1zm-6.27-5.45a3.31 3.31 0 0 0 3.34 3.45c.66 0 .73-.66.73-1.17 0-.81-.26-1.59-.26-2.4 0-1.57-.39-1.87-1.92-1.87a1.85 1.85 0 0 0-1.89 2.03zM811.65 461.06c2.62 1.57 3.08 7.39 3.08 10.17v1h-1a2.72 2.72 0 0 1-.81-.09c-.69-.19-.5 0-.62-.72-.32-1.89.24-8.11-2.7-8.11-2.54 0-2.53 5.49-2.53 7.17 0 1.09.06 2.17.06 3.26 0 2.12-.26 13.2 2.87 13.2.94 0 1.58-1.22 1.77-2s.06-1.6.25-2.38.2-.65 1-.72c.54 0 1.07-.12 1.61-.2-.17 2.25-.09 4.89-1.59 6.74a3.66 3.66 0 0 1-2.79 1.39 3.46 3.46 0 0 1-2.36-1c-3.41-3.31-3.23-10.17-3.23-14.61 0-2.35 0-4.71.21-7.06.25-3 1.14-6.65 4.91-6.65a3.81 3.81 0 0 1 1.92.51zM826.74 482.36c0 .74.17 1.48.17 2.22 0 .25 0 .77-.39.77a3.74 3.74 0 0 1-.65-.13c-1.1-.22-1.37-.83-1.37-1.88 0-.9.18-4.13-.22-4.78a1.15 1.15 0 0 0-1.15-.5c-.86 0-1.65-.36-2.46-.36-.66 0-.65.79-.65 1.27 0 .73.09 1.46.11 2.19s.25 1.31.25 2-1.13.86-1.71.86-1.27-.06-1.27-.81.23-1.2.23-1.81c0-1.26-.16-2.52-.16-3.79 0-3.15.23-6.3.23-9.45 0-.88-.09-1.76-.09-2.63 0-.37.06-.52.45-.52.63 0 2.33-.2 2.33.7 0 .56-.22 1.1-.25 1.66v1.14c0 1.41.09 2.82 0 4.22 0 .62-.22 1.22-.22 1.83s.45.87 1.06.95a18 18 0 0 0 2.41.21 1.29 1.29 0 0 0 .56-.07c.44-.26.44-1.75.44-2.19 0-.95-.1-1.89-.1-2.83s.08-1.86.08-2.79c0-.57-.1-1.13-.1-1.7s.27-1.1 1-1.1c1 0 1.32.53 1.32 1.41v4.1c.14 3.93.11 7.87.15 11.81zM829.92 475.06c0-4.68 1.86-9.83 7.33-9.83s6.79 6.59 6.79 10.95-1.92 9.6-7.14 9.6c-5.38 0-6.98-6.43-6.98-10.72zm2.4-.61a19.65 19.65 0 0 0 .1 2c.22 2.24 1.66 7 4.48 7 3.65 0 4.74-5.37 4.74-8.19 0-2.59-1-7.65-4.39-7.65-4.03-.01-4.93 3.48-4.93 6.84zM846.49 471.22c0-1.58.06-3.17 0-4.75 0-.48-.06-1.3-.06-1.78 0-.9.3-1 1.23-1a7.32 7.32 0 0 1 3.29 1c2.46 1.52 3.29 4.87 3.3 7.59 0 3.23-1.74 4.55-2.64 5.76-.09.13 4.86.9 4.85 5s-6.83 3.51-9.24 3.51c-.61 0-.56-.43-.61-.93s-.07-1.21-.07-1.81c0-4.17 0-8.34-.06-12.52zm2.25-4.14c0 3.05.19 6.67.19 9.72a.38.38 0 0 0 .07.21 1 1 0 0 0 .17 0c3-1 2.82-7.13 1.27-9.16-.2-.22-1.7-1.85-1.7-.77zm5.19 15.53c-.07-1.86-3.28-2.11-4.37-2.11-.48 0-.5.32-.5.71 0 .78-.07 1.56-.07 2.33 0 .47.14.77.67.77 2.51 0 4.27-.39 4.27-1.7zM869.24 489a2.21 2.21 0 0 1-1.78.55c-4.34 0-7.33-2-7.33-6.62 0-2.07 1-4 3.31-4 1.3 0 2.58.95 3.09.95a1 1 0 0 0 .17 0c0-3-.05-13.3-1.38-15.41a2 2 0 0 0-1.64-1c-1.53 0-2.46 1.63-2.46 3 0 1.21 0 1.47-1.26 1.47-.58 0-1.94.16-1.94-.7a7.42 7.42 0 0 1 .92-2.78c1-1.88 3.18-3.72 5.4-3.72a3.47 3.47 0 0 1 1.49.32c2.61 1.25 3 6.26 3.27 8.8a80.55 80.55 0 0 1 .42 8.65c0 2.8-.1 5.6-.1 8.4a4.37 4.37 0 0 1-.18 2.1zm-6.24-5.41a3.32 3.32 0 0 0 3.35 3.44c.66 0 .73-.66.73-1.17 0-.81-.26-1.59-.26-2.4 0-1.57-.39-1.87-1.92-1.87a1.86 1.86 0 0 0-1.9 2zM769.65 502.28a12.58 12.58 0 0 1 .17 2.21c0 1.91-.28 3.8-.28 5.71 0 1.66.26 3.31.26 5s-.18 3.2-.18 4.79c0 1.2.11 2.39.11 3.59 0 .63.13 1.8-.78 1.8a3.45 3.45 0 0 1-.78-.14c-.57-.15-.86 0-.86-.83 0-.62.14-1.23.14-1.86 0-1.14-.1-2.27-.11-3.41 0-4.2-.17-8.39-.17-12.59v-2.26c0-.48-.05-.69-.58-.69-1.3 0-2.56.44-3.89.43v2.89c.11 3.68.13 7.37.19 11.06 0 1.67-.06 3.46.14 5.13a15.2 15.2 0 0 1 .23 1.78 2.49 2.49 0 0 0 0 .72c-.16.35-1.7.4-2 .4-.74 0-.59-.17-.68-.73a7.57 7.57 0 0 1-.11-1.26c0-1 .12-2 .12-3 0-6.18-.12-12.37-.12-18.56a1.28 1.28 0 0 1 1.39-1.23c1.93 0 3.87.25 5.8.25.9 0 1.8-.38 2 .82zM773.09 513.48c0-4.67 1.86-9.83 7.33-9.83s6.79 6.6 6.79 11-1.92 9.61-7.14 9.61c-5.38-.05-6.98-6.49-6.98-10.78zm2.4-.61a19.52 19.52 0 0 0 .1 2c.22 2.24 1.66 7 4.48 7 3.65 0 4.74-5.38 4.74-8.2 0-2.59-1-7.65-4.39-7.65-4.03-.02-4.93 3.49-4.93 6.85zM796.37 499.48c2.63 1.57 3.09 7.4 3.09 10.17v1.06h-1a2.8 2.8 0 0 1-.81-.09c-.68-.19-.49 0-.61-.71-.32-1.9.24-8.12-2.7-8.12-2.54 0-2.54 5.49-2.54 7.17 0 1.09.07 2.18.07 3.26 0 2.13-.26 13.21 2.87 13.21.94 0 1.57-1.22 1.77-2s0-1.6.24-2.39.2-.65 1-.72c.53 0 1.07-.12 1.6-.2-.17 2.25-.08 4.89-1.59 6.74a3.62 3.62 0 0 1-2.79 1.39 3.42 3.42 0 0 1-2.36-1c-3.41-3.3-3.23-10.16-3.23-14.61 0-2.35 0-4.71.22-7 .25-3 1.13-6.66 4.91-6.66a3.68 3.68 0 0 1 1.91.52zM811.43 518.6c.2.8 1.3 4.49 1.3 4.91s-.38.37-.65.37h-.44c-1.66-.13-1.41-.82-1.73-2.19s-.85-3-1.22-4.52-.71-3.18-1.11-4.76c-.15-.62-.54-3.77-.89-4-.49 3.07-1 6.13-1.26 9.23-.16 1.7-.6 3.36-.7 5.06-.06.95.14.92-.81 1.18a1.86 1.86 0 0 1-.48.06 3.73 3.73 0 0 1-1.47-.35c.07-2.47.94-4.91 1.27-7.35.42-3.05.93-6.08 1.38-9.12.11-.72.07-3.18.59-3.59a3 3 0 0 1 1.36-.23 2.4 2.4 0 0 1 .88.11c.62.3.73 1.79.86 2.4.93 4.29 2.09 8.54 3.12 12.8zM821.52 524.1a4.2 4.2 0 0 1-1.22.19c-4.21 0-5.26-7.4-5.26-10.53s.31-10.85 4.9-10.85c3.57 0 5.14 5.2 5.14 8.08 0 1.41-.78 1.61-2 1.61s-2.18-.08-3.28-.08c-.91 0-1.92.18-1.92 1.32 0 .58.12 1.16.17 1.75.12 1.43.2 6.11 2.27 6.11s1.46-4.06 2-4.36a1.45 1.45 0 0 1 .81-.17c.56 0 1.12.1 1.68.1s.46.25.46.62c0 2.36-1.31 5.5-3.74 6.21zm-3.34-14.1c0 .3.65.36.87.36a13.64 13.64 0 0 0 2.28-.34c.58-.1 1 0 1-.75 0-1.24-1.1-3.88-2.56-3.88s-1.48 2.11-1.48 3.13v.81c0 .27-.11.47-.11.67zM828.58 500.52c0-.77 1.53-.64 2-.64 5.69 0 6.85 4.38 6.85 9.12 0 2.94-.06 5.86-.26 8.8-.09 1.28-.19 2.56-.19 3.88 0 2.65-1.32 5.63-4.36 5.63a4.66 4.66 0 0 1-2.59-.83c-1.47-1-1.41-6.53-1.41-8.29s-.06-3.65.1-5.45c.32-2.65 1.31-4.32 4.23-4.32a4.76 4.76 0 0 1 1.66.55c.06 0 .19 0 .23-.1v-1c0-3.46-1.28-5.51-5.06-5.51-1.12 0-1-.77-1.28-1.66.11-.06.08-.12.08-.18zm6.17 10.21a2.14 2.14 0 0 0-1-.19c-1.89 0-2.3 1.21-2.43 2.88-.07 1.21-.07 2.46-.07 3.68 0 1.76.13 3.52.13 5.28 0 1.15.06 2.69 1.66 2.69a1.88 1.88 0 0 0 .84-.19 7.11 7.11 0 0 0 .7-3.2c.11-3.68.14-7.3.17-10.95zM849.24 520.79c0 .74.17 1.47.17 2.22 0 .24 0 .77-.39.77a3.78 3.78 0 0 1-.65-.14c-1.1-.22-1.37-.83-1.37-1.88s.18-4.13-.22-4.77a1.14 1.14 0 0 0-1.15-.51c-.86 0-1.65-.36-2.46-.36-.66 0-.65.79-.65 1.27 0 .73.09 1.46.11 2.19s.25 1.32.25 2-1.13.87-1.71.87-1.27-.06-1.27-.81.23-1.21.23-1.81c0-1.27-.16-2.53-.16-3.8 0-3.15.23-6.3.23-9.44 0-.88-.09-1.76-.09-2.64 0-.37.06-.52.45-.52.63 0 2.33-.19 2.33.7 0 .56-.22 1.11-.25 1.66v1.15c0 1.4.09 2.81 0 4.22 0 .61-.22 1.21-.22 1.82s.45.88 1.06 1a19.74 19.74 0 0 0 2.41.2 1.16 1.16 0 0 0 .56-.07c.44-.26.44-1.74.44-2.19 0-.94-.1-1.89-.1-2.83s.08-1.86.08-2.79c0-.57-.1-1.13-.1-1.7s.27-1.1 1-1.1c1 0 1.32.53 1.32 1.41v4.11c.14 3.89.11 7.83.15 11.77zM861.66 500.36a1.08 1.08 0 0 1 .11.53c0 .52-.16 1-.16 1.53 0 6.95-.37 13.9-.37 20.84 0 .57.11 1.13.11 1.7 0 .95-.24.85-1 1a3.85 3.85 0 0 1-.94.2c-.49 0-.5-.42-.5-.81 0-.82.07-1.65.07-2.47 0-1.13-.08-2.26-.08-3.39 0-1.79.09-3.59.12-5.38-1.07 2.87-2.14 5.74-3.19 8.61-.51 1.36-1 2.77-1.51 4.11a.9.9 0 0 1-.84.59c-.36 0-1.52-.61-1.52-1 0 0 2.35-6.11 2.61-6.84 1-2.94 2.09-5.85 3.15-8.77-2.6-.47-4-3.38-4-5.79 0-2.76 1.56-5.35 4.56-5.35.49 0 1 .1 1.46.1s1.47-.07 1.85.53zm-2.37 6.58c0-.86-.06-1.71 0-2.56 0-.44.15-.88.15-1.32 0-.28-.14-1.27-.45-1.27-1.85 0-2.83 1.36-2.83 3.11 0 1.45.72 4 2.56 4 .69 0 .58-1.12.59-1.58zM874.08 500.36a1.08 1.08 0 0 1 .11.53c0 .52-.16 1-.16 1.53 0 6.95-.36 13.9-.36 20.84 0 .57.1 1.13.1 1.7 0 .95-.23.85-1 1a3.66 3.66 0 0 1-.94.2c-.48 0-.5-.42-.5-.81 0-.82.07-1.65.07-2.47 0-1.13-.07-2.26-.07-3.39 0-1.79.08-3.59.12-5.38q-1.61 4.3-3.2 8.61c-.5 1.36-.95 2.77-1.51 4.11a.9.9 0 0 1-.84.59c-.35 0-1.52-.61-1.52-1 0 0 2.36-6.11 2.61-6.84 1-2.94 2.1-5.85 3.15-8.77-2.6-.47-3.95-3.38-3.95-5.79 0-2.76 1.56-5.35 4.56-5.35.5 0 1 .1 1.47.1s1.46-.07 1.84.53zm-2.37 6.58c0-.86-.06-1.71 0-2.56 0-.44.14-.88.14-1.32 0-.28-.14-1.27-.45-1.27-1.85 0-2.83 1.36-2.83 3.11 0 1.45.72 4 2.56 4 .7 0 .59-1.12.6-1.58z"/><rect class="cls-29" x="997.51" y="401" width="167.85" height="107.76" rx="41.72" transform="rotate(180 1081.435 454.88)"/><path class="cls-29" d="M1063.15 498.09l-21.73 27.46a3.53 3.53 0 0 1-6.17-3.1l7.62-28.71z"/><circle class="cls-6" cx="956.24" cy="648.27" r="16.48" transform="rotate(-32.5 956.236 648.27)"/><path class="cls-3" d="M989.17 688.17l1.48 64.82 59.03-4.23-11.99-105.34-48.52 44.75z"/><path class="cls-6" d="M989.77 715.33s32.09-2.66 33.63-41L989.17 690z"/><path class="cls-3" d="M976.66 577.45c-14.8 5.85-24.76 19.87-26.41 35.71-1.9 18.23-3.59 46.48 2.08 60.33 8.76 21.4 27.36 33.94 55.5 26.31 0 0 32.94-4 37.7-53.68 5.64-58.76-35.62-81.79-68.87-68.67z"/><path class="cls-49" d="M1030.26 646.07s-13.33-25.1-8.49-52.41c0 0-40.71 6.83-64.25-.67 0 0 5.53-33.57 60.28-29.23 75 6 53.06 85.84 17.31 99.51z"/><path class="cls-3" d="M1067 654.25a20 20 0 1 1-15.1-23.92 20 20 0 0 1 15.1 23.92z"/><path d="M1056 643.36s-14.93-3.14-17.66 13.23" stroke-width="1.64" stroke="#311326" stroke-linecap="round" stroke-linejoin="round" fill="none"/><path class="cls-49" d="M968 619.42s.59 4.39-6.41 3.16a44 44 0 0 0-10-1 4.72 4.72 0 0 1-4.2-2.3c-.52-1.08.32-2.52.94-3.15 1.76-1.76 4.25-4.21 10.73-3.14 8.31 1.38 8.94 6.43 8.94 6.43zM984.26 620.05s-1.18 5.56 8.24 4.59c7.16-.74 16-.1 20.21.21 2.38.17 4.83-.93 5.8-2.59a2.57 2.57 0 0 0-.88-3.65c-2.73-1.78-12.55-5.45-21.26-4.63-11.2 1.02-12.11 6.07-12.11 6.07z"/><path class="cls-1" d="M989 639.48s10.51-15.9 31.23-2.31c.02 0-11.23 14.83-31.23 2.31z"/><g clip-path="url(#clip-path-9)"><path class="cls-35" d="M997.15 636.73a7.6 7.6 0 1 0 8.83-6.13 7.62 7.62 0 0 0-8.83 6.13z"/></g><path class="cls-8" d="M1019.51 638.17a29.61 29.61 0 0 0-7.32-4.19 23.17 23.17 0 0 0-8.26-1.84 18.3 18.3 0 0 0-8.28 1.84 17.31 17.31 0 0 0-6.63 5.5 17.61 17.61 0 0 1 6.34-6.05 19.15 19.15 0 0 1 8.55-2.53 24.7 24.7 0 0 1 8.91 1.33 31.2 31.2 0 0 1 8.16 3.94 1.24 1.24 0 1 1-1.4 2.05z"/><path class="cls-1" d="M967.47 638.51S958.56 624 947.82 635c0 0 8.71 15 19.65 3.51z"/><g clip-path="url(#clip-path-10)"><path class="cls-35" d="M961.62 636.94c.92 4-.55 7.73-3.28 8.36s-5.69-2.1-6.61-6.08.55-7.73 3.28-8.36 5.69 2.14 6.61 6.08z"/></g><path class="cls-8" d="M946.85 634.27a12.9 12.9 0 0 1 5.29-3.78 10.08 10.08 0 0 1 3.22-.64 8.24 8.24 0 0 1 .85 0l.8.15a10 10 0 0 1 1.54.4 14.21 14.21 0 0 1 5.25 3.27 19.43 19.43 0 0 1 3.67 4.81 19.15 19.15 0 0 0-4.08-4.34 13.27 13.27 0 0 0-5.18-2.54 8.44 8.44 0 0 0-1.41-.22 5 5 0 0 0-1.34 0 8.63 8.63 0 0 0-2.6.81 10.78 10.78 0 0 0-4.06 3.59 1.25 1.25 0 0 1-2-1.43z"/><path class="cls-53" d="M972.54 664.93l-6.77-3.31 5.85-17.14M980.67 673.61c-6.32 6.14-16.26 1.26-16.26 1.26"/><path class="cls-3" d="M909.09 854.13v96.08l-45.06 78.95 44.29-5.22L962 972.07l-5.76-113.12-47.15-4.82z"/><path class="cls-30" d="M939.75 759.82s-35 20.4-40.56 70.85v71.74l57-1.95z"/><path class="cls-30" d="M982.76 743.45s-28.63 5.46-43 16.37l-4.25 257.64c92 55.46 197.09 1.62 197.09 1.62l-28.52-257.93s-3.72-14.54-43.68-17.65z"/><path class="cls-3" d="M1060.39 743.5s-33-7.28-77.63 0c0 0-4.24 26.54 31.62 27.66 38.83 1.16 46.01-27.66 46.01-27.66z"/><path class="cls-28" d="M937.45 902.41l-.33-90.37"/><path class="cls-3" d="M1016 895.38s-6.38-18.4-29.11-23.13l-16-15.7a7 7 0 0 0-9.15-.55 7 7 0 0 0-1.41 9.6l7.88 10.94-4.32-1.86A33.06 33.06 0 0 1 947.85 860l-10.1-18.7a6.61 6.61 0 0 0-5.78-3.48 6.62 6.62 0 0 0-6.23 9L935.85 873a37.76 37.76 0 0 0 22.23 21.86l51.08 22.72z"/><path class="cls-3" d="M1016 895.38l142 54.35c12.28 5.31 18.23 26.22 12.74 38.43a24 24 0 0 1-35.31 10.05l-126.33-80.63z"/><path fill="#ad5e4c" d="M1172.68 974.03l-14.86-114.81-68.9-5.09 24.15 102.3 59.61 17.6z"/><path class="cls-30" d="M1086.76 748.45s86.1 14.18 96.26 154h-105.88l-7-90.45z"/><path class="cls-28" d="M1100.32 902.41h-19.94l-12.39-72.17"/><path class="cls-55" d="M1105.12 922.71l-119.07 19.4-9.29 32 129.92 2a32.06 32.06 0 0 0 26.39-13.11c5.55-7.5 8.18-16.92 5-25.65-5.29-14.2-19.92-20.7-32.95-14.64z"/><path class="cls-55" d="M1163.84 842.41l-4.7 86.48c-1.14 16.11-15.34 29.55-31.14 29.3-14.44-.23-25-11.86-24.15-26.63l3.5-96.59z"/><path class="cls-13" d="M1174.77 725.93c1.07-.35-60.44 22.17-81.57 109.62l77.42 61 9.64-91.87z"/><path class="cls-13" d="M1253.25 737.69c7.37 9.09 24.46 36.36 23.89 48.62l20 290.94-197-15.42s12.22-232.15 33.72-287.55c25.14-64.84 95.44-66.08 119.39-36.59z"/><path class="cls-55" d="M901 953.85c-2-7.68 35.6-12 45.17-11l-8.29-6.26c-1.92-1.78-4.56-7.2-2.59-10.16s17 7.18 17 7.18c8.5 4.11 36.29 8.54 36.29 8.54l4.52 30.8c-17.69 7.23-34.66 10.29-48.38 9.82-2.17-.07-29.75 7.53-31.59 3.25-1.41-3.27 29.05-12.77 26.36-13.6-1.49-.45-31.45 11.22-35.73 5-2.64-3.83 33.64-11.31 32.38-13.55-.82-1.47-30.49 9-34.37 3.73-4.83-6.51 35.78-13 33.54-14.06-1.64-.76-32.89 5.67-34.31.31z"/><path class="cls-3" d="M1331.44 786.31l73.71 88c9 13.56 4.4 30.45-10.1 36.94-13.26 5.94-30.07 1-38.47-11.34l-70.09-97.69z"/><path class="cls-13" d="M1162.81 749.87s98-89.31 192.58 48.81l-66.12 52.47-51.9-74.15z"/><path d="M1297.13 844.92c-2.46 2.27-5 4.47-7.51 6.67a.54.54 0 0 1-.75-.05c-3.95-4.58-7.85-9.18-11.67-13.86-1.92-2.32-3.81-4.67-5.7-7s-3.78-4.71-5.64-7.09-3.73-4.74-5.56-7.14-3.67-4.79-5.48-7.21c-3.62-4.83-7.19-9.7-10.62-14.68 4.1 4.45 8 9 11.94 13.64 1.94 2.3 3.88 4.61 5.79 7s3.83 4.67 5.71 7 3.79 4.71 5.65 7.08 3.73 4.74 5.56 7.14c3.71 4.77 7.32 9.61 10.89 14.47l-.78-.08c2.68-2.05 5.4-4.01 8.17-5.89z"/><path class="cls-5" d="M1144.3 647.7c-1.9 9.84-6.54 13.68-19.48 11.41-9.87-1.74-15.81-13.55-13.91-23.39s9.85-12.36 20.11-9.4c7.15 2.06 15.18 11.54 13.28 21.38z"/><path class="cls-3" d="M1206.88 656.99l15.35 88.65-60.34 4.93 2.18-87.64 42.81-5.94z"/><path class="cls-6" d="M1162.81 716.46c19.34-5.5 35.64-39.56 35.64-39.56l-34.45-7.49z"/><path class="cls-3" d="M1194.08 561.17a77.76 77.76 0 0 0-35.27-1.28c-15.72 3.23-35.82 9.7-38 37.58-3.69 46.47 2.45 81.24 26.27 91.71 18.29 8 31.51 4.9 52.33-6.95 7.74-4.41 15.13-17.25 17.14-26.15l8.71-24.86s23.74-55.66-31.18-70.05z"/><path class="cls-56" d="M1144.43 609.42s.6 4.49-6.56 3.24a45.07 45.07 0 0 0-10.18-1 4.79 4.79 0 0 1-4.29-2.35c-.53-1.1.32-2.57 1-3.21 1.8-1.8 4.35-4.31 11-3.22 8.43 1.38 9.03 6.54 9.03 6.54zM1158.63 615.53s-.3 5.8 9.06 3.3c7.11-1.89 16.16-2.67 20.43-3 2.43-.21 4.73-1.71 5.44-3.54a2.63 2.63 0 0 0-1.48-3.55c-3-1.36-13.54-3.48-22.21-1.25-11.13 2.82-11.24 8.04-11.24 8.04z"/><path class="cls-1" d="M1166 629.93s10.74-16.25 31.92-2.36c-.03 0-11.53 15.11-31.92 2.36z"/><g clip-path="url(#clip-path-11)"><path class="cls-35" d="M1165.24 628.54a7.77 7.77 0 1 0 9-6.27 7.77 7.77 0 0 0-9 6.27z"/></g><path class="cls-8" d="M1197 628.76a29.24 29.24 0 0 0-7.41-4.3 23.59 23.59 0 0 0-8.39-1.93 18.48 18.48 0 0 0-8.44 1.83 17.57 17.57 0 0 0-6.8 5.57 17.93 17.93 0 0 1 6.46-6.22 19.62 19.62 0 0 1 8.76-2.66 25.55 25.55 0 0 1 9.15 1.32 32.54 32.54 0 0 1 8.42 4 1.48 1.48 0 1 1-1.65 2.45z"/><path class="cls-1" d="M1143.94 628.94s-9.11-14.87-20.09-3.55c0 0 8.9 15.3 20.09 3.55z"/><g clip-path="url(#clip-path-12)"><path class="cls-35" d="M1133.53 626.66c.94 4.07-.56 7.9-3.35 8.54s-5.82-2.14-6.76-6.21.57-7.91 3.36-8.55 5.82 2.14 6.75 6.22z"/></g><path class="cls-8" d="M1122.69 624.48a13.45 13.45 0 0 1 5.52-3.88 10.51 10.51 0 0 1 3.33-.63 6.79 6.79 0 0 1 .89 0c.32 0 .55.11.83.16a8.58 8.58 0 0 1 1.58.43 14.62 14.62 0 0 1 5.38 3.39 20.08 20.08 0 0 1 3.72 5 19.78 19.78 0 0 0-4.21-4.4 13.35 13.35 0 0 0-5.29-2.53 7.61 7.61 0 0 0-1.42-.21h-.7a5.13 5.13 0 0 0-.65 0 8.66 8.66 0 0 0-2.61.84 10.82 10.82 0 0 0-4 3.65 1.48 1.48 0 0 1-2.44-1.67.76.76 0 0 1 .07-.15z"/><path class="cls-59" d="M1149.12 655.95l-6.92-3.39 5.98-17.52M1157.43 664.82c-6.46 6.28-16.63 1.29-16.63 1.29"/><path class="cls-56" d="M1226.25 576.57s-44.4 10.75.48 62.34l8.31-49.64z"/><path class="cls-3" d="M1210 649.7c1.93 9.83 6.59 13.66 19.52 11.33 9.86-1.77 15.76-13.61 13.82-23.44s-9.9-12.32-20.15-9.32c-7.11 2.09-15.1 11.59-13.19 21.43z"/><path class="cls-59" d="M1233.11 639.05s-9.23-2.27-12.76 10.82"/><path class="cls-56" d="M1235 589.27c-1.74 1.19-139.09 17.59-121-18.67 0 0 1.93-21.35 64.75-17.86 48.18 2.68 56.25 36.53 56.25 36.53z"/><g id="Mqvwdc.tif"><path class="cls-48" d="M1355.39 891.05v.07a2 2 0 0 0-.05.34v2.47a52.46 52.46 0 0 1-.63 5.86 53.56 53.56 0 0 1-8 20.77 54.33 54.33 0 0 1-13.44 14.19 53.84 53.84 0 0 1-29.27 10.33 1.47 1.47 0 0 0-.29 0h-5.12l-2-.14a45.15 45.15 0 0 1-4.79-.63 53.89 53.89 0 0 1-21.58-9 54.38 54.38 0 0 1-9.83-8.91 53.71 53.71 0 0 1-12-24.41 51.53 51.53 0 0 1-.88-5.92c-.14-1.61-.25-3.22-.24-4.83s.12-3.36.22-5a26.67 26.67 0 0 1 .29-2.82c.3-1.68.63-3.36 1-5a51.75 51.75 0 0 1 3.82-10.73 54.25 54.25 0 0 1 28.66-26.77 53.57 53.57 0 0 1 16.26-3.72 55.59 55.59 0 0 1 8.06 0 54 54 0 0 1 5.81.77 52.93 52.93 0 0 1 11.42 3.5 54.08 54.08 0 0 1 31.59 39.21 56.57 56.57 0 0 1 .81 5.8c.13 1.41.15 2.82.16 4.24a2.11 2.11 0 0 0 .02.33zm-65.9 51.7l.2.06c1 .2 2.08.42 3.13.59a24.19 24.19 0 0 0 2.81.33 35.21 35.21 0 0 0 8.19-.65 27.56 27.56 0 0 0 4.28-1.14 2.33 2.33 0 0 0 1.15-.88 28.5 28.5 0 0 0 3-5.47 17.56 17.56 0 0 0 1.21-3.89 2.67 2.67 0 0 0 .07-.94c-.17 0-.33-.07-.49-.12a2.58 2.58 0 0 1-.39-.14 103.24 103.24 0 0 1-9.14-5.68 31.06 31.06 0 0 1-3.74-3 7.67 7.67 0 0 1-1.25-1.48 2.19 2.19 0 0 1-.34-.92.67.67 0 0 1 .14-.49c.35-.48.72-.94 1-1.45.73-1.24 1.46-2.48 2.14-3.75 2.4-4.54 4.55-9.2 6.65-13.89 0-.05 0-.12.06-.19a24.81 24.81 0 0 1-2.34-2.68c-2-2.59-4-5.29-5.84-8q-3-4.31-5.91-8.64a.62.62 0 0 0-.56-.31c-2.15 0-4.3-.1-6.45-.12h-8.36a38.31 38.31 0 0 0-4 .19l-.75.12v.31a3.75 3.75 0 0 0-1.67 1.08 12 12 0 0 0-1 1.15 25.74 25.74 0 0 0-2.59 4.38 70.87 70.87 0 0 0-3.89 10 30.76 30.76 0 0 0-1 3.63 1.43 1.43 0 0 0 0 .74c.15.46.28.93.44 1.38a29.11 29.11 0 0 0 2.3 4.73 70.52 70.52 0 0 0 7.34 10.16c.69.79 1.44 1.53 2.16 2.3a.92.92 0 0 0 .49.25 25.41 25.41 0 0 0 4.17.51 67.09 67.09 0 0 0 7.37-.07c1.94-.12 3.88-.3 5.8-.58a23.27 23.27 0 0 0 3.86-.82h.11l.26.78c-.37.11-.7.22-1 .3a37 37 0 0 1-4.31.75c-2.05.25-4.11.41-6.17.5a56.12 56.12 0 0 1-6.74-.07c-1-.08-2-.23-3-.37-.35-.05-.7-.14-1-.21a1.18 1.18 0 0 0-.1.19A95.3 95.3 0 0 0 1272 931a.48.48 0 0 0 0 .44c.3.49.56 1 .89 1.46a20 20 0 0 0 5.47 5.17 31.47 31.47 0 0 0 8.65 3.88c.77.23 1.56.42 2.35.64zm14.84-82.93a1.14 1.14 0 0 0 0 .19.86.86 0 0 1-.21.69 8.05 8.05 0 0 0-.77 1.07c-.72 1.2-1.45 2.41-2.11 3.64-2.39 4.47-4.51 9.07-6.6 13.7q-.06.14-.12.3l.93 1.36c2.76 4.06 5.51 8.12 8.39 12.09 1.29 1.77 2.58 3.53 4 5.18.36.41.77.77 1.16 1.16a1.91 1.91 0 0 1 .19.28h.32c1.6 0 3.2 0 4.8-.08q5.09-.14 10.17-.33a20 20 0 0 0 4.62-.58.64.64 0 0 0 .22-.14c.29-.28.59-.56.87-.85a26.69 26.69 0 0 0 3.32-4.45 45.86 45.86 0 0 0 3.67-7.72 48.35 48.35 0 0 0 2-6.6 2.71 2.71 0 0 0-.11-1.64 26.41 26.41 0 0 0-2.39-4.75 71.51 71.51 0 0 0-9.34-11.76.76.76 0 0 0-.39-.22 30.94 30.94 0 0 0-4.18-.72c-2.3-.27-4.61-.4-6.92-.45a72.1 72.1 0 0 0-9.18.32c-.75.08-1.53.2-2.34.31zm41.61 57.52a7.08 7.08 0 0 0 1.51-1.48 23.7 23.7 0 0 0 3.36-5.86 46 46 0 0 0 2.4-8.16c.34-1.62.6-3.26.78-4.9.08-.82.18-1.64.19-2.46a23.88 23.88 0 0 0-.26-3.68 32.35 32.35 0 0 0-2-7.54 19.44 19.44 0 0 0-1.92-3.81.88.88 0 0 1-.09-.26c-.6-.06-1.2-.14-1.82-.18-1.58-.12-3.17-.24-4.76-.31h-3.23c0 .23-.09.42-.14.61a52.57 52.57 0 0 1-4.82 12.6 28.61 28.61 0 0 1-4.22 6c-.26.28-.53.55-.81.84a5.52 5.52 0 0 1 1.24 1.92c.11.25.2.51.29.77a32.32 32.32 0 0 1 1.44 6.94q.2 1.72.3 3.45a37.58 37.58 0 0 1 .07 4.11 6.14 6.14 0 0 1-.18 1.6c0 .13-.07.27-.11.4l.1.05c.86.12 1.72.27 2.58.34a23.25 23.25 0 0 0 5.83-.35 38.25 38.25 0 0 0 4-.86.23.23 0 0 1 .27.22zm-73.35-37.13a3.48 3.48 0 0 1-1.3-1.52q-.19-.37-.36-.78a16.34 16.34 0 0 1-.78-2.58 39.07 39.07 0 0 1-.81-5.49 46.08 46.08 0 0 1-.13-6 5.56 5.56 0 0 1 .64-2.33c.05-.09.1-.19.17-.34l-1.31.19c-1.55.27-3.09.54-4.63.84-1.91.36-3.81.77-5.67 1.31-1 .28-.67.08-1.35.86a39.51 39.51 0 0 0-5.21 7.85 7.84 7.84 0 0 0-.43.93 51.47 51.47 0 0 0-2.28 8.54 48.81 48.81 0 0 0-.7 5.64 18.58 18.58 0 0 0-.07 2.47 23.65 23.65 0 0 0 1.18 6 16.27 16.27 0 0 0 2 4.15 10.22 10.22 0 0 0 .84 1 .78.78 0 0 0 .62.25 75.74 75.74 0 0 0 8.39-.16c.56 0 1.11-.13 1.66-.2l.07-.25c.12-.57.23-1.14.38-1.7a72.91 72.91 0 0 1 3.76-10.53 34.09 34.09 0 0 1 3-5.55 10.88 10.88 0 0 1 1.93-2.24zm53.71-20.9l.9-1.75 3.83-7.39a.44.44 0 0 0 0-.58 42.5 42.5 0 0 0-4.89-5.15 5 5 0 0 0-1-.72 45.2 45.2 0 0 0-4.72-2.1 51.89 51.89 0 0 0-8.35-2.46 49.93 49.93 0 0 0-5.83-.85 22.53 22.53 0 0 0-2.72-.14c-1.24.05-2.48.18-3.71.31a28.4 28.4 0 0 0-4 .67c-1.58.39-1.53.21-2.75 1.67a20.34 20.34 0 0 0-4 7.8c-.07.27-.11.55-.17.85a1.47 1.47 0 0 0 .32.06 1.89 1.89 0 0 1 .77.25c2.1 1.08 4.17 2.21 6.2 3.42a52.11 52.11 0 0 1 5.39 3.6 11.76 11.76 0 0 1 2.17 2.06.39.39 0 0 0 .44.16c.63-.12 1.25-.23 1.89-.3a65.15 65.15 0 0 1 7.26-.4c2.4 0 4.81 0 7.2.25 1.37.12 2.73.29 4.09.46.54.06 1.09.18 1.68.28zm-11.84 71.63a26.36 26.36 0 0 1-4.82 11.07l.37.15a11.78 11.78 0 0 0 3.17.55.88.88 0 0 0 .32 0 53.23 53.23 0 0 0 31.58-21.7 1.26 1.26 0 0 0 .17-.35c.11-.49.23-1 .3-1.48a2.49 2.49 0 0 0 0-1l-.31.06a44.11 44.11 0 0 1-5.37 1 22.14 22.14 0 0 1-6.45-.2l-.63-.1c-.37.52-.7 1-1.07 1.48a19.28 19.28 0 0 1-3.22 3.1 63.22 63.22 0 0 1-12.36 7.42 1.39 1.39 0 0 1-.57.12c-.38-.06-.75-.06-1.11-.12zM1258 862.73l1.29-.34c2.35-.59 4.72-1.07 7.11-1.5 1.28-.22 2.57-.41 3.87-.59a.78.78 0 0 0 .65-.35.76.76 0 0 1 .08-.11 23.28 23.28 0 0 1 3.78-3.51 66.67 66.67 0 0 1 11.24-6.74 2.42 2.42 0 0 1 1.18-.25h.79a21.5 21.5 0 0 1 5.33-10.15 2.11 2.11 0 0 0-1.37-.3c-1 .21-2 .41-3 .64A51.72 51.72 0 0 0 1277 844a53.28 53.28 0 0 0-13.48 9.94 53.9 53.9 0 0 0-5 5.94 1.22 1.22 0 0 0-.22.44c-.11.54-.21 1.09-.28 1.65a4.31 4.31 0 0 0-.02.76zm3.1 62.77v.06a53.72 53.72 0 0 0 7.41 7.13c2.37 1.89 7.86 5.39 8.69 5.5l-.28-.22c-.54-.44-1.11-.86-1.63-1.32a16.45 16.45 0 0 1-4.06-5.13.43.43 0 0 0-.23-.21 18.33 18.33 0 0 1-3.29-1.56c-2.17-1.23-4.24-2.62-6.28-4zm-12.56-30a51 51 0 0 0 5.11 18.75 1 1 0 0 0-.05-.35 37.29 37.29 0 0 1-1.54-9.55v-2.21c0-.14 0-.27-.12-.38a5.08 5.08 0 0 1-1.19-1.34 17.53 17.53 0 0 1-1.88-3.87zm105.59-8.11a50.83 50.83 0 0 0-4.05-17 .37.37 0 0 0 0 .18 22.76 22.76 0 0 1 .42 4v3.92a.59.59 0 0 0 .08.34 11.41 11.41 0 0 1 .76 1.19 30.71 30.71 0 0 1 2.68 6.87c-.02.17.07.33.11.49zm-25.29-41.59v.1l.36.38a30.93 30.93 0 0 1 3 3.63.55.55 0 0 0 .22.18 17.65 17.65 0 0 1 2.77 1.51c1.58 1 3.08 2.11 4.56 3.24l.24.17a51 51 0 0 0-11.15-9.22z"/><path class="cls-1" d="M1289.49 942.75v-.21c-.79-.22-1.58-.41-2.35-.64a31.47 31.47 0 0 1-8.65-3.88 20 20 0 0 1-5.47-5.17c-.33-.46-.59-1-.89-1.46a.48.48 0 0 1 0-.44 95.3 95.3 0 0 1 3.8-9.74 1.18 1.18 0 0 1 .1-.19c.35.07.7.16 1 .21 1 .14 2 .29 3 .37a56.12 56.12 0 0 0 6.74.07c2.06-.09 4.12-.25 6.17-.5a37 37 0 0 0 4.31-.75c.33-.08.66-.19 1-.3l-.26-.78h-.11a23.27 23.27 0 0 1-3.86.82c-1.92.28-3.86.46-5.8.58a67.09 67.09 0 0 1-7.37.07 25.41 25.41 0 0 1-4.17-.51.92.92 0 0 1-.49-.25c-.72-.77-1.47-1.51-2.16-2.3a70.52 70.52 0 0 1-7.34-10.16 29.11 29.11 0 0 1-2.3-4.73c-.16-.45-.29-.92-.44-1.38a1.43 1.43 0 0 1 0-.74 30.76 30.76 0 0 1 1-3.63 70.87 70.87 0 0 1 3.89-10 25.74 25.74 0 0 1 2.59-4.38 12 12 0 0 1 1-1.15 3.75 3.75 0 0 1 1.67-1.08v-.31l.75-.12a38.31 38.31 0 0 1 4-.19h8.36c2.15 0 4.3.09 6.45.12a.62.62 0 0 1 .56.31q2.94 4.34 5.91 8.64c1.88 2.72 3.79 5.42 5.84 8a24.81 24.81 0 0 0 2.34 2.68c0 .07 0 .14-.06.19-2.1 4.69-4.25 9.35-6.65 13.89-.68 1.27-1.41 2.51-2.14 3.75-.3.51-.67 1-1 1.45a.67.67 0 0 0-.14.49 2.19 2.19 0 0 0 .34.92 7.67 7.67 0 0 0 1.25 1.48 31.06 31.06 0 0 0 3.74 3 103.24 103.24 0 0 0 9.14 5.68 2.58 2.58 0 0 0 .39.14c.16.05.32.08.49.12a2.67 2.67 0 0 1-.07.94 17.56 17.56 0 0 1-1.21 3.89 28.5 28.5 0 0 1-3 5.47 2.33 2.33 0 0 1-1.15.88 27.56 27.56 0 0 1-4.28 1.14 35.21 35.21 0 0 1-8.19.65 24.19 24.19 0 0 1-2.81-.33c-1-.17-2.09-.39-3.13-.59zM1304.33 859.82c.81-.11 1.59-.23 2.37-.31a72.1 72.1 0 0 1 9.18-.32c2.31 0 4.62.18 6.92.45a30.94 30.94 0 0 1 4.18.72.76.76 0 0 1 .39.22 71.51 71.51 0 0 1 9.34 11.76 26.41 26.41 0 0 1 2.39 4.75 2.71 2.71 0 0 1 .11 1.64 48.35 48.35 0 0 1-2 6.6 45.86 45.86 0 0 1-3.67 7.72 26.69 26.69 0 0 1-3.32 4.45c-.28.29-.58.57-.87.85a.64.64 0 0 1-.22.14 20 20 0 0 1-4.62.58q-5.09.2-10.17.33c-1.6.05-3.2.05-4.8.08h-.32a1.91 1.91 0 0 0-.19-.28c-.39-.39-.8-.75-1.16-1.16-1.44-1.65-2.73-3.41-4-5.18-2.88-4-5.63-8-8.39-12.09l-.93-1.36q.06-.17.12-.3c2.09-4.63 4.21-9.23 6.6-13.7.66-1.23 1.39-2.44 2.11-3.64a8.05 8.05 0 0 1 .77-1.07.86.86 0 0 0 .21-.69 1.14 1.14 0 0 1-.03-.19z"/><path class="cls-1" d="M1345.94 917.34a.23.23 0 0 0-.31-.11 38.25 38.25 0 0 1-4 .86 23.25 23.25 0 0 1-5.83.35c-.86-.07-1.72-.22-2.58-.34l-.1-.05c0-.13.08-.27.11-.4a6.14 6.14 0 0 0 .18-1.6 37.58 37.58 0 0 0-.07-4.11q-.11-1.73-.3-3.45a32.32 32.32 0 0 0-1.44-6.94c-.09-.26-.18-.52-.29-.77a5.52 5.52 0 0 0-1.24-1.92c.28-.29.55-.56.81-.84a28.61 28.61 0 0 0 4.22-6 52.57 52.57 0 0 0 4.82-12.6c0-.19.09-.38.14-.61h.3c1 0 2-.08 2.93 0 1.59.07 3.18.19 4.76.31.62 0 1.22.12 1.82.18a.88.88 0 0 0 .09.26 19.44 19.44 0 0 1 1.92 3.81 32.35 32.35 0 0 1 2 7.54 23.88 23.88 0 0 1 .26 3.68c0 .82-.11 1.64-.19 2.46-.18 1.64-.44 3.28-.78 4.9a46 46 0 0 1-2.4 8.16 23.7 23.7 0 0 1-3.36 5.86 7.08 7.08 0 0 1-1.47 1.37zM1272.59 880.21l-.44.37a10.88 10.88 0 0 0-1.93 2.24 34.09 34.09 0 0 0-3 5.55 72.91 72.91 0 0 0-3.76 10.53c-.15.56-.26 1.13-.38 1.7l-.07.25c-.55.07-1.1.16-1.66.2a75.74 75.74 0 0 1-8.39.16.78.78 0 0 1-.62-.25 10.22 10.22 0 0 1-.84-1 16.27 16.27 0 0 1-2-4.15 23.65 23.65 0 0 1-1.18-6 18.58 18.58 0 0 1 .07-2.47 48.81 48.81 0 0 1 .7-5.64 51.47 51.47 0 0 1 2.28-8.54 7.84 7.84 0 0 1 .43-.93 39.51 39.51 0 0 1 5.21-7.85c.68-.78.39-.58 1.35-.86 1.86-.54 3.76-.95 5.67-1.31 1.54-.3 3.08-.57 4.63-.84l1.31-.19c-.07.15-.12.25-.17.34a5.56 5.56 0 0 0-.64 2.33 46.08 46.08 0 0 0 .13 6 39.07 39.07 0 0 0 .81 5.49 16.34 16.34 0 0 0 .78 2.58q.16.4.36.78a3.48 3.48 0 0 0 1.35 1.51zM1326.3 859.31c-.59-.1-1.14-.22-1.69-.28-1.36-.17-2.72-.34-4.09-.46-2.39-.21-4.8-.27-7.2-.25a65.15 65.15 0 0 0-7.26.4c-.64.07-1.26.18-1.89.3a.39.39 0 0 1-.44-.16 11.76 11.76 0 0 0-2.17-2.06 52.11 52.11 0 0 0-5.39-3.6c-2-1.21-4.1-2.34-6.2-3.42a1.89 1.89 0 0 0-.77-.25 1.47 1.47 0 0 1-.32-.06c.06-.3.1-.58.17-.85a20.34 20.34 0 0 1 4-7.8c1.22-1.46 1.17-1.28 2.75-1.67a28.4 28.4 0 0 1 4-.67c1.23-.13 2.47-.26 3.71-.31a22.53 22.53 0 0 1 2.72.14 49.93 49.93 0 0 1 5.83.85 51.89 51.89 0 0 1 8.35 2.46 45.2 45.2 0 0 1 4.72 2.1 5 5 0 0 1 1 .72 42.5 42.5 0 0 1 4.89 5.15.44.44 0 0 1 0 .58l-3.83 7.39zM1314.46 930.94c.36 0 .73.08 1.1.08a1.39 1.39 0 0 0 .57-.12 63.22 63.22 0 0 0 12.36-7.42 19.28 19.28 0 0 0 3.22-3.1c.37-.46.7-1 1.07-1.48l.63.1a22.14 22.14 0 0 0 6.45.2 44.11 44.11 0 0 0 5.37-1l.31-.06a2.49 2.49 0 0 1 0 1c-.07.5-.19 1-.3 1.48a1.26 1.26 0 0 1-.17.35 53 53 0 0 1-31.58 21.7.88.88 0 0 1-.32 0 11.78 11.78 0 0 1-3.17-.55l-.37-.15a26.36 26.36 0 0 0 4.83-11.03z"/><path class="cls-1" d="M1258 862.73a4.31 4.31 0 0 1 0-.8c.07-.56.17-1.11.28-1.65a1.22 1.22 0 0 1 .22-.44 53.9 53.9 0 0 1 5-5.94 53.28 53.28 0 0 1 13.5-9.9 51.72 51.72 0 0 1 11.91-4.42c1-.23 2-.43 3-.64a2.11 2.11 0 0 1 1.37.3 21.5 21.5 0 0 0-5.33 10.15h-.79a2.42 2.42 0 0 0-1.18.25 66.67 66.67 0 0 0-11.24 6.74 23.28 23.28 0 0 0-3.78 3.51.76.76 0 0 0-.08.11.78.78 0 0 1-.65.35c-1.3.18-2.59.37-3.87.59-2.39.43-4.76.91-7.11 1.5zM1261.1 925.5l.29.2c2 1.43 4.11 2.82 6.28 4a18.33 18.33 0 0 0 3.29 1.56.43.43 0 0 1 .23.21 16.45 16.45 0 0 0 4.06 5.13c.52.46 1.09.88 1.63 1.32l.28.22c-.83-.11-6.32-3.61-8.69-5.5a53.72 53.72 0 0 1-7.41-7.13zM1248.54 895.49l.36 1a17.53 17.53 0 0 0 1.88 3.87 5.08 5.08 0 0 0 1.19 1.34c.15.11.12.24.12.38v2.21a37.29 37.29 0 0 0 1.54 9.55 1 1 0 0 1 .05.35 51 51 0 0 1-5.14-18.7zM1354.13 887.38c0-.16-.09-.32-.13-.48a30.71 30.71 0 0 0-2.68-6.87 11.41 11.41 0 0 0-.76-1.19.59.59 0 0 1-.08-.34v-3.92a22.76 22.76 0 0 0-.42-4 .37.37 0 0 1 0-.18 50.83 50.83 0 0 1 4.07 16.98zM1328.84 845.79a51 51 0 0 1 11.21 9.21l-.24-.17c-1.48-1.13-3-2.24-4.56-3.24a17.65 17.65 0 0 0-2.77-1.51.55.55 0 0 1-.22-.18 30.93 30.93 0 0 0-3-3.63l-.36-.38s-.05-.04-.06-.1z"/></g><path class="cls-3" d="M1194.19 990.52c-3.79-7 23.39-24 32.33-27.6l-6.26-1.71c-2.52-.69-6.25-1.71-5.9-5.25s13.31-4.08 13.31-4.08c9.43-.32 39.95-2.72 39.95-2.72l14.48 18.56c-12.31 14.63-25.91 25.23-38.26 31.2-2 1-15.33 17.7-18.95 14.77-2.77-2.24 12.27-22 9.5-21.5-1.53.29-13.47 21.85-20.14 18.36-4.12-2.16 15.37-22.95 13.21-24.34-1.41-.92-17.18 22.36-23.06 19.53-7.31-3.53 19.51-26.82 17.52-28.29-3.36-2.45-26.35 15.62-27.73 13.07z"/><path class="cls-3" d="M1364 870.57l-116.11 89.06 19.07 16 125.89-59.86a29.62 29.62 0 0 0 16.89-23.15c1.13-8.92-1.36-18.19-8.73-24.24-12.01-9.83-28.43-8.85-37.01 2.19z"/><path stroke="#af4a25" stroke-miterlimit="10" stroke-width="1.16" fill="none" d="M1337.68 890.76l26.32-20.19"/><path class="cls-48" d="M1013.48 437.17c1 0 1.72-.17 1.72 1.1 0 .57 0 2.26-.83 2.26s-1.58-.56-2.42-.56c-.47 0-.57.23-.57.65 0 1.39.24 2.77.24 4.16 0 2-.07 3.91.1 5.86 0 .28 0 .89.44.89s.8-.21 1.22-.21c1.12 0 .91.19 1 1.11 0 .34.15.67.15 1a.6.6 0 0 1-.6.57c-.52 0-1-.32-1.48-.32-.8 0-.86.82-.86 1.43 0 1 .27 2 .31 3s.07 1.76.07 2.64c0 .61-.16 1.2-.16 1.8 0 .34.09.71.5.71.65 0 1.24-.36 1.89-.36.38 0 .43.15.43.5v1.64c0 .55-.47.56-.9.63a22.86 22.86 0 0 1-3.69.38c-.67 0-.87 0-.87-.75s.19-1.22.19-1.83c0-5.18.06-10.35.06-15.52 0-2.45 0-4.9-.07-7.35 0-.68-.13-1.35-.13-2 0-.94.14-1.74 1.27-1.74.83 0 1.64.21 2.46.27zM1028.27 457.78a11.83 11.83 0 0 1-.7 3.17 4.47 4.47 0 0 1-4.23 3.23c-4.74 0-5.28-8.58-5.28-12s.09-11.55 4.9-11.55c3.58 0 5.15 5.21 5.15 8.06a2 2 0 0 1-.26 1.16c-.44.57-2.69.44-3.45.44-2.37 0-3.49-.67-3.49 2.24 0 1 .14 2 .19 2.95.07 1.41.22 6.08 2.27 6.08s1.43-3.92 1.95-4.35a1.55 1.55 0 0 1 .9-.16c.54 0 1.06.09 1.6.09h.13c.32 0 .32.45.32.64zm-8.48-21.13c0-.64.16-1.09.89-1.09.39 0 .77.13 1.15.13h.36c.13 0 0 .1 0 .1a4.43 4.43 0 0 1 .06.51c.06.74 0 1.47 0 2.21-.77.06-1.57.09-2.37.09.12-.67-.09-1.31-.09-1.95zm1.41 11.11c0 .29.63.35.86.35a12 12 0 0 0 2.3-.32c.62-.11 1 0 1-.76 0-1.25-1.12-3.88-2.56-3.88s-1.47 2.15-1.47 3.14a7.22 7.22 0 0 1 0 .8c-.07.22-.13.45-.13.67zm2.81-11.11c0-.64.16-1.09.9-1.09.38 0 .77.13 1.15.13h.32c.09 0 .07.1.07.1a4.36 4.36 0 0 1 0 .51c0 .74.06 1.47.06 2.21q-1.2.09-2.4.09c.03-.67-.11-1.31-.11-1.95zM1050 446.87c.08 3.93 0 7.87.09 11.81 0 .74.17 1.48.17 2.22 0 .25 0 .78-.39.78a3.58 3.58 0 0 1-.65-.14c-1.1-.22-1.37-.83-1.37-1.88s.18-4.13-.22-4.77a1.14 1.14 0 0 0-1.15-.51c-.86 0-1.66-.36-2.47-.36-.65 0-.64.79-.64 1.27 0 .73.08 1.46.11 2.19s.25 1.31.25 2-1.13.87-1.72.87-1.26-.06-1.26-.81.23-1.21.23-1.81c0-1.27-.16-2.53-.16-3.8 0-3.15.23-6.3.23-9.45 0-.88-.09-1.76-.09-2.63 0-.37 0-.52.45-.52.63 0 2.32-.19 2.32.7 0 .56-.21 1.11-.24 1.66v1.15c0 1.4.08 2.81 0 4.22 0 .61-.22 1.21-.22 1.82s.44.88 1.06 1a19.42 19.42 0 0 0 2.41.2 1.31 1.31 0 0 0 .56-.07c.44-.26.44-1.74.44-2.19 0-.94-.1-1.89-.1-2.83s.08-1.86.08-2.79c0-.57-.1-1.13-.1-1.7s.27-1.1 1-1.1c1 0 1.32.53 1.32 1.41v4.11zM1059.38 462a4.15 4.15 0 0 1-1.22.19c-4.21 0-5.26-7.4-5.26-10.53s.31-10.85 4.9-10.85c3.57 0 5.14 5.2 5.14 8.08 0 1.41-.78 1.61-2 1.61s-2.18-.08-3.28-.08c-.91 0-1.92.18-1.92 1.32 0 .58.12 1.16.17 1.75.12 1.43.21 6.11 2.28 6.11s1.46-4.06 2-4.36a1.45 1.45 0 0 1 .81-.17c.56 0 1.12.1 1.68.1s.46.25.46.61c0 2.36-1.3 5.51-3.74 6.22zm-3.38-14.08c0 .3.66.36.87.36a13.49 13.49 0 0 0 2.28-.34c.58-.11 1 0 1-.75 0-1.24-1.1-3.88-2.56-3.88s-1.48 2.11-1.48 3.13v.81c0 .27-.11.45-.11.67zM1079.08 463.72c-2.66-.73-3-5.29-3-7.56 0-3.89 1.51-5.18 5.33-5.18a4.55 4.55 0 0 1 1 .09c-.92-2.33-7-2.12-7-7.11a3.53 3.53 0 0 1 1.15-2.37c1.9-2 5.87-2.41 8.52-2.41h.56a.65.65 0 0 1 .06.3 11.19 11.19 0 0 1-.42 2.64s-.06.21-.12.21c-.65 0-1.32-.15-2-.15-1.15 0-4.61.32-4.61 2 0 2.18 4.93 2.51 5.89 6.9a21.83 21.83 0 0 1 .44 4.7c0 3.5-.49 8.06-5 8.06a3.55 3.55 0 0 1-.86-.1zm.22-9.68a20.75 20.75 0 0 0-.36 3.77c0 1.1-.16 3.8 1.3 4a3.07 3.07 0 0 0 .89-.48c.7-1.16 1.09-4.35 1.09-5.73a13.17 13.17 0 0 0-.23-2.51 5.24 5.24 0 0 0-2.69 1zm1.09 9zM1095 462a4.13 4.13 0 0 1-1.21.19c-4.22 0-5.27-7.4-5.27-10.53s.31-10.85 4.91-10.85c3.57 0 5.13 5.2 5.13 8.08 0 1.41-.77 1.61-2 1.61s-2.18-.08-3.27-.08c-.92 0-1.92.18-1.92 1.32 0 .58.12 1.16.17 1.75.12 1.43.2 6.11 2.27 6.11s1.46-4.06 2-4.36a1.47 1.47 0 0 1 .82-.17c.56 0 1.11.1 1.67.1s.46.25.46.61c0 2.36-1.3 5.51-3.74 6.22zm-3.34-14.08c0 .3.66.36.87.36a13.61 13.61 0 0 0 2.29-.34c.57-.11 1 0 1-.75 0-1.24-1.11-3.88-2.57-3.88s-1.48 2.11-1.48 3.13v.81c0 .27-.16.45-.16.67zM1102 439.3c2.35.08 5.72-.17 7.23 2a3.06 3.06 0 0 1 .56 1.75 5.55 5.55 0 0 1-2.66 4.22c-.64.39-1.8.49-2.26.85a1.48 1.48 0 0 0-.43 1.23c0 .6.12 1.19.12 1.79 0 2.57.23 5.15.44 7.71.1 1.18.4 2.31.4 3.5 0 1-.07 1.3-1.11 1.3-1.66 0-1.7-.41-1.7-1.92 0-4.13 0-8.27-.21-12.4-.13-2.6-.49-5.19-.49-7.8a21.56 21.56 0 0 1 .11-2.27zm5.17 4.59a2.62 2.62 0 0 0-2.46-2.28c-.46 0-.51.38-.51.75v1.23c0 .41-.14 1-.14 1.56s.11 1 .69 1a3.29 3.29 0 0 0 2.23-1.52 1.93 1.93 0 0 0 .16-.74zM1118.52 462a4.2 4.2 0 0 1-1.22.19c-4.21 0-5.26-7.4-5.26-10.53s.31-10.85 4.9-10.85c3.57 0 5.14 5.2 5.14 8.08 0 1.41-.78 1.61-2 1.61s-2.18-.08-3.28-.08c-.91 0-1.92.18-1.92 1.32 0 .58.12 1.16.17 1.75.12 1.43.2 6.11 2.27 6.11s1.46-4.06 2-4.36a1.45 1.45 0 0 1 .81-.17c.56 0 1.12.1 1.68.1s.46.25.46.61c0 2.36-1.31 5.51-3.74 6.22zm-3.34-14.08c0 .3.65.36.87.36a13.64 13.64 0 0 0 2.28-.34c.58-.11 1 0 1-.75 0-1.24-1.1-3.88-2.56-3.88s-1.48 2.11-1.48 3.13v.81c0 .27-.11.45-.11.67zM1140 454.67c-.73 1.4-1.49 2.79-2.15 4.23-.37.81-.58 1.82-1.65 1.82h-.41c-1.27-.19-1.33-1.14-1.85-2.13-.75-1.45-1.56-2.88-2.27-4.36-.63-1.31-1.23-2.63-1.91-3.92-.47-.87-1-1.75-1.37-2.65a7.17 7.17 0 0 0-.69-1.58c0 2.58.16 5.15.2 7.74 0 2.31.36 4.75.36 7 0 .69-.1.82-.84.82a15.49 15.49 0 0 1-1.75-.38.23.23 0 0 0-.11 0c-.16-.05-.25-.57-.25-.74 0-1.09.15-2.19.15-3.3v-10.76c0-1-.12-2-.12-3.06 0-.42 0-2.07.55-2.07 1.62 0 1.93.08 2.69 1.48 1.34 2.45 2.75 4.87 4.09 7.32.48.88 2.91 6.31 3.57 6.31.06 0 .23-.31.26-.35.6-1.07 1-2.23 1.61-3.32 1.34-2.56 2.77-5.07 4.11-7.64.41-.78 1.19-2.9 1.93-3.29a5.58 5.58 0 0 1 1.49-.18c1.1 0 .94.87.94 1.8 0 3.6 0 7.18.13 10.78 0 1.46.09 2.91.14 4.37 0 .71.19 1.41.19 2.13 0 .41-.1.87-.62.87a2.15 2.15 0 0 1-.78-.24c-.74-.3-.46.11-.69-.78a6.2 6.2 0 0 1-.15-1.61c0-2.15-.09-4.28-.17-6.43 0-1.55 0-3.1-.12-4.66 0-.36 0-.73-.09-1.1 0 0-.05-.27-.09-.27s-.47.58-.53.69c-1.41 2.38-2.5 5-3.77 7.42z"/></svg>