<svg id="Layer_1" data-name="Layer 1" xmlns="http://www.w3.org/2000/svg" viewBox="0 0 856 457"><defs><style>.cls-5{stroke:#1691c9;stroke-miterlimit:10;fill:none;stroke-width:5px}.cls-10{fill:#003b71}.cls-11{fill:#1691c9}</style></defs><path d="M202.64 417.79c18.12 12 435.93 26.72 441.73-4.21s15.09-333.47 3.34-350.35c-.25-.36-14-29.92-19.1-30.72-44.67-7-252.12 1.38-426 23.22-19.41 2.44-27.51 272.15-14.2 339.87 1.59 8.09 12.3 20.92 14.23 22.19z" fill="#ffe436"/><path d="M188.44 395.6c18.12 11.95 435.93 26.71 441.72-4.22s10.2-342-1.55-358.87C626.14 29 302.45 15 188.44 33.53c-21.58 3.47-18.12 350.11 0 362.07z" stroke-width="6" stroke-miterlimit="10" stroke="#1691c9" fill="#c4e5e5"/><path d="M179.22 72.05l454.25 3" stroke-linecap="round" stroke-linejoin="round" fill="none" stroke-width="6" stroke="#1691c9"/><rect x="217.11" y="110.23" width="375.86" height="48.24" rx="22.34" fill="#83cdea"/><circle class="cls-5" cx="565.69" cy="133.57" r="10.49"/><path class="cls-5" d="M574.59 139.14l7.78 5.68"/><circle cx="550.73" cy="50.59" r="8.34" stroke-width="4" stroke-linecap="round" stroke-linejoin="round" fill="none" stroke="#1691c9"/><circle cx="575.81" cy="50.59" r="8.34" stroke-width="4" stroke-linecap="round" stroke-linejoin="round" stroke="#1691c9" fill="#ffe436"/><circle cx="601.38" cy="50.59" r="8.34" fill="#003b71" stroke-width="4" stroke-linecap="round" stroke-linejoin="round" stroke="#1691c9"/><path d="M214.25 51.65V58a1.17 1.17 0 0 0 1.19 1.15A1.12 1.12 0 0 0 216 59l5.51-3.18 5.49-3.16a1.16 1.16 0 0 0 0-2l-5.51-3.18-5.49-3.21a1.17 1.17 0 0 0-1.6.44 1.2 1.2 0 0 0-.15.56zm-6 0v-6.36a1.17 1.17 0 0 0-1.19-1.15 1.12 1.12 0 0 0-.56.15l-5.5 3.17-5.51 3.18a1.16 1.16 0 0 0 0 2l5.51 3.2 5.5 3.16a1.17 1.17 0 0 0 1.6-.44 1.2 1.2 0 0 0 .15-.56z" stroke-width="4" fill="none" stroke-miterlimit="10" stroke="#1691c9"/><path class="cls-10" d="M250.8 121.75a.35.35 0 0 1-.26.46l-5.72 1.79a6.33 6.33 0 0 0-4.82 5.2c-.18.57.18.79.58.43a6.75 6.75 0 0 1 4.68-1.66c4.61 0 7.63 3.24 7.63 8.57s-3.24 8.64-8.31 8.64-8.28-3.28-8.28-8.6v-5.8c0-5.47 2.34-8.71 7.45-10.29l5.69-1.77a.37.37 0 0 1 .5.29zm-10.51 14.83c0 3.13 1.65 5 4.35 5s4.32-1.87 4.32-5-1.62-5-4.32-5-4.35 1.83-4.35 5zM265 146.73c-1.55 4-3.78 5.83-7.3 5.83h-1.34a.36.36 0 0 1-.39-.4v-2.77a.35.35 0 0 1 .39-.39h1.19a3 3 0 0 0 3.06-2.13l.54-1.26c.65-1.55.07-3.49-1.22-6.51L255 127.83c-.15-.29 0-.47.28-.47h3.39a.53.53 0 0 1 .47.29l3.23 7.34a22.34 22.34 0 0 1 1.37 4.57c.11.44.47.44.58 0a29 29 0 0 1 1.29-4.57l3-7.3a.42.42 0 0 1 .43-.33h3.38c.29 0 .44.18.33.47zM291.3 144.42a.36.36 0 0 1-.4.4h-3.2a.36.36 0 0 1-.4-.4v-13.49h-5.72v5.25c0 4.18-1.51 6.88-4.9 8.57l-1 .5a.37.37 0 0 1-.54-.18l-1.19-2.55c-.11-.26-.07-.44.18-.54l1-.51c1.66-.9 2.45-2.55 2.45-5.29v-8.42a.37.37 0 0 1 .4-.4h12.92a.37.37 0 0 1 .4.4zM311.85 144.42a.36.36 0 0 1-.39.4h-3.21a.36.36 0 0 1-.39-.4v-13.49h-5.73v5.25c0 4.18-1.51 6.88-4.89 8.57l-1 .5a.36.36 0 0 1-.54-.18l-1.19-2.55c-.11-.26-.07-.44.18-.54l1-.51c1.66-.9 2.45-2.55 2.45-5.29v-8.42a.36.36 0 0 1 .4-.4h12.92a.36.36 0 0 1 .39.4zM328.74 144.82a.36.36 0 0 1-.4-.4v-6.76a26.27 26.27 0 0 1 .29-4.54c.07-.32-.25-.5-.4-.11l-1.08 2-4.32 6.91c-.43.83-.9 1.73-1.26 2.56a.42.42 0 0 1-.43.32h-4.06a.36.36 0 0 1-.4-.4v-16.64a.36.36 0 0 1 .4-.4h3.23a.36.36 0 0 1 .4.4v6.8a26.6 26.6 0 0 1-.36 4.54c0 .28.25.46.43.07.33-.61.72-1.33 1.05-2l4.32-6.95c.43-.83.9-1.76 1.26-2.59a.43.43 0 0 1 .43-.29h4.1a.37.37 0 0 1 .4.4v16.66a.36.36 0 0 1-.4.4zM352.14 144.42a.36.36 0 0 1-.4.4h-3.24a.36.36 0 0 1-.39-.4v-6.65h-7v6.65a.36.36 0 0 1-.39.4h-3.21a.36.36 0 0 1-.39-.4v-16.66a.36.36 0 0 1 .39-.4h3.21a.36.36 0 0 1 .39.4v6.44h7v-6.44a.36.36 0 0 1 .39-.4h3.24a.37.37 0 0 1 .4.4zM361 144.42a.36.36 0 0 1-.4.4h-3.2a.36.36 0 0 1-.4-.4v-16.66a.37.37 0 0 1 .4-.4h11.7c.28 0 .43.18.32.43l-.79 2.81a.44.44 0 0 1-.47.33H361zM238.56 199.22a.19.19 0 0 1-.21.21h-1.75a.19.19 0 0 1-.21-.21v-5.07l-.95.32a7.06 7.06 0 0 1-2.49.38c-2.71 0-4.27-1.63-4.27-4.37v-4.12a.19.19 0 0 1 .21-.21h1.73a.19.19 0 0 1 .21.21v3.76c0 1.83.8 2.76 2.31 2.76a5.73 5.73 0 0 0 1.89-.29l1.36-.45v-5.78a.19.19 0 0 1 .21-.21h1.75a.19.19 0 0 1 .21.21zM248.82 191.89a.19.19 0 0 1-.21.21h-2.79v7.12a.19.19 0 0 1-.21.21h-1.71a.19.19 0 0 1-.21-.21v-7.12h-2.79a.19.19 0 0 1-.21-.21v-1.46a.19.19 0 0 1 .21-.21h7.71a.19.19 0 0 1 .21.21zM258.85 194.81c0 3-1.67 4.83-4.37 4.83s-4.39-1.86-4.39-4.83 1.67-4.78 4.39-4.78 4.37 1.86 4.37 4.78zm-6.67 0c0 1.83.86 2.91 2.3 2.91s2.28-1.08 2.28-2.91-.87-2.88-2.28-2.88-2.3 1.07-2.3 2.88zM272.44 191.89a.19.19 0 0 1-.21.21h-2.8v7.12a.19.19 0 0 1-.2.21h-1.71a.19.19 0 0 1-.21-.21v-7.12h-2.8a.19.19 0 0 1-.21-.21v-1.46a.19.19 0 0 1 .21-.21h7.72a.19.19 0 0 1 .21.21zM275.23 190.31a7.1 7.1 0 0 1 2.07-.28c2.57 0 4.14 1.33 4.14 3.63v5.56a.19.19 0 0 1-.21.21h-1a.22.22 0 0 1-.24-.17l-.16-.59c-.11-.26-.22-.26-.47 0a3.34 3.34 0 0 1-2.6 1c-2.11 0-3.29-1.08-3.29-2.87s1.22-2.92 3.46-2.92h2.37v-.12c0-1.16-.74-1.78-2.14-1.78a5 5 0 0 0-1.49.19l-.68.2a.2.2 0 0 1-.27-.15l-.41-1.4a.2.2 0 0 1 .15-.27zm1.77 5.19c-.93 0-1.37.44-1.37 1.08s.51 1.2 1.42 1.2c1.51 0 2.32-.74 2.32-2.15v-.13zM286.25 193.83c.93 0 1.48-.82 2-1.56l1.26-1.92a.28.28 0 0 1 .26-.13h1.87c.17 0 .22.11.15.24l-1.67 2.7a3.81 3.81 0 0 1-1.66 1.48c-.07 0-.09.12 0 .15a4.11 4.11 0 0 1 1.77 1.54l1.75 2.85c.09.14 0 .25-.15.25h-1.89a.32.32 0 0 1-.26-.13l-1.31-2.11c-.53-.8-1.07-1.46-2.11-1.46H286v3.49a.19.19 0 0 1-.2.21h-1.7a.19.19 0 0 1-.2-.21v-8.79a.18.18 0 0 1 .2-.21h1.7a.18.18 0 0 1 .2.21v3.4zM301.68 194.81c0 3-1.68 4.83-4.37 4.83s-4.39-1.86-4.39-4.83 1.67-4.78 4.39-4.78 4.37 1.86 4.37 4.78zm-6.67 0c0 1.83.85 2.91 2.3 2.91s2.28-1.08 2.28-2.91-.88-2.88-2.28-2.88S295 193 295 194.81zM309.73 199.39a8 8 0 0 1-1.94.25c-2.86 0-4.48-1.86-4.48-4.81s1.64-4.8 4.41-4.8c2.28 0 3.67 1.14 3.67 3 0 1.46-.9 2.3-2.8 2.58l-3 .46a2 2 0 0 0 2.17 1.63 5.26 5.26 0 0 0 1.5-.19l.83-.21a.2.2 0 0 1 .27.15l.38 1.43a.19.19 0 0 1-.15.26zm-1.46-5.39c.67-.12 1-.42 1-.91 0-.76-.59-1.16-1.62-1.16-1.25 0-2.11.78-2.26 2.52zM324.89 187.25a.18.18 0 0 1-.13.25l-3 .93a3.36 3.36 0 0 0-2.53 2.76c-.09.3.1.41.31.22a3.54 3.54 0 0 1 2.47-.87c2.43 0 4 1.71 4 4.52s-1.71 4.56-4.38 4.56-4.37-1.73-4.37-4.54V192c0-2.89 1.23-4.6 3.93-5.43l3-.93a.2.2 0 0 1 .27.15zm-5.54 7.83c0 1.65.87 2.64 2.3 2.64s2.27-1 2.27-2.64-.85-2.64-2.27-2.64-2.3.97-2.3 2.64zM332.38 200.44c-.82 2.11-2 3.07-3.86 3.07h-.7a.19.19 0 0 1-.21-.2v-1.47a.19.19 0 0 1 .21-.21h.63a1.56 1.56 0 0 0 1.61-1.12l.29-.66c.34-.82 0-1.84-.65-3.44l-2.6-5.95c-.08-.15 0-.24.15-.24H329a.25.25 0 0 1 .24.15l1.71 3.87a12.66 12.66 0 0 1 .73 2.42c0 .22.24.22.3 0a15.12 15.12 0 0 1 .68-2.42l1.6-3.85a.22.22 0 0 1 .23-.17h1.78c.15 0 .23.09.17.24zM346.27 199.22a.19.19 0 0 1-.21.21h-1.69a.19.19 0 0 1-.21-.21v-7.12h-3v2.77a4.51 4.51 0 0 1-2.58 4.52l-.56.27a.19.19 0 0 1-.28-.1l-.63-1.35c0-.13 0-.22.1-.28l.55-.27c.87-.47 1.29-1.34 1.29-2.79v-4.44a.19.19 0 0 1 .21-.21h6.82a.19.19 0 0 1 .21.21zM357.12 199.22a.19.19 0 0 1-.21.21h-1.69a.19.19 0 0 1-.21-.21v-7.12h-3v2.77a4.51 4.51 0 0 1-2.58 4.52l-.56.27a.19.19 0 0 1-.28-.1l-.63-1.35c-.05-.13 0-.22.1-.28l.55-.27c.87-.47 1.29-1.34 1.29-2.79v-4.44a.19.19 0 0 1 .21-.21h6.82a.19.19 0 0 1 .21.21zM366 199.43a.19.19 0 0 1-.21-.21v-3.57a13.94 13.94 0 0 1 .15-2.39c0-.17-.13-.27-.21-.06l-.57 1.06-2.28 3.65c-.22.44-.47.91-.66 1.35a.23.23 0 0 1-.23.17h-2.15a.19.19 0 0 1-.2-.21v-8.79a.18.18 0 0 1 .2-.21h1.71a.19.19 0 0 1 .21.21V194a13.23 13.23 0 0 1-.19 2.39c0 .15.14.25.23 0s.38-.71.55-1l2.28-3.66c.23-.44.48-.93.67-1.37a.21.21 0 0 1 .22-.15h2.17a.19.19 0 0 1 .21.21v8.79a.19.19 0 0 1-.21.21zM378.38 199.22a.19.19 0 0 1-.21.21h-1.71a.19.19 0 0 1-.21-.21v-3.51h-3.68v3.51a.19.19 0 0 1-.21.21h-1.69a.19.19 0 0 1-.21-.21v-8.79a.19.19 0 0 1 .21-.21h1.69a.19.19 0 0 1 .21.21v3.4h3.68v-3.4a.19.19 0 0 1 .21-.21h1.71a.19.19 0 0 1 .21.21zM383 199.22a.19.19 0 0 1-.21.21h-1.7a.19.19 0 0 1-.2-.21v-8.79a.18.18 0 0 1 .2-.21h6.18c.15 0 .23.09.17.23l-.42 1.48a.23.23 0 0 1-.24.17H383zM399.79 199.43a.19.19 0 0 1-.21-.21v-3.57a13 13 0 0 1 .16-2.39c0-.17-.14-.27-.21-.06l-.57 1.06-2.28 3.65c-.23.44-.48.91-.67 1.35a.23.23 0 0 1-.23.17h-2.14a.19.19 0 0 1-.21-.21v-8.79a.19.19 0 0 1 .21-.21h1.71a.19.19 0 0 1 .21.21V194a14.2 14.2 0 0 1-.19 2.39c0 .15.13.25.22 0s.38-.71.55-1l2.28-3.66c.23-.44.48-.93.67-1.37a.22.22 0 0 1 .23-.15h2.16a.19.19 0 0 1 .21.21v8.79a.19.19 0 0 1-.21.21zM410.56 193.83c.94 0 1.49-.82 2-1.56l1.25-1.92a.31.31 0 0 1 .27-.13h1.86c.17 0 .23.11.15.24l-1.67 2.7a3.74 3.74 0 0 1-1.65 1.48c-.08 0-.1.12 0 .15a4.22 4.22 0 0 1 1.77 1.54l1.74 2.85c.1.14 0 .25-.15.25h-1.88a.34.34 0 0 1-.27-.13l-1.31-2.11c-.53-.8-1.06-1.46-2.11-1.46h-.28v3.49a.19.19 0 0 1-.21.21h-1.69a.19.19 0 0 1-.21-.21v-8.79a.19.19 0 0 1 .21-.21h1.69a.19.19 0 0 1 .21.21v3.4zM419.23 190.31a7.1 7.1 0 0 1 2.07-.28c2.57 0 4.14 1.33 4.14 3.63v5.56a.19.19 0 0 1-.21.21h-1a.22.22 0 0 1-.24-.17l-.16-.59c-.11-.26-.22-.26-.47 0a3.34 3.34 0 0 1-2.6 1c-2.11 0-3.29-1.08-3.29-2.87s1.22-2.92 3.46-2.92h2.37v-.12c0-1.16-.74-1.78-2.14-1.78a5 5 0 0 0-1.49.19l-.68.2a.2.2 0 0 1-.27-.15l-.41-1.4a.2.2 0 0 1 .15-.27zm1.77 5.19c-.93 0-1.37.44-1.37 1.08s.51 1.2 1.42 1.2c1.51 0 2.32-.74 2.32-2.15v-.13zM430.25 193.83c.93 0 1.48-.82 2-1.56l1.26-1.92a.28.28 0 0 1 .26-.13h1.87c.17 0 .22.11.15.24l-1.67 2.7a3.81 3.81 0 0 1-1.66 1.48c-.07 0-.09.12 0 .15a4.11 4.11 0 0 1 1.77 1.54l1.75 2.85c.09.14 0 .25-.15.25h-1.89a.32.32 0 0 1-.26-.13l-1.31-2.11c-.53-.8-1.07-1.46-2.11-1.46H430v3.49a.19.19 0 0 1-.2.21h-1.7a.19.19 0 0 1-.2-.21v-8.79a.18.18 0 0 1 .2-.21h1.7a.18.18 0 0 1 .2.21v3.4zM447.94 199.39a8.07 8.07 0 0 1-1.94.25c-2.87 0-4.48-1.86-4.48-4.81s1.63-4.8 4.4-4.8c2.28 0 3.67 1.14 3.67 3 0 1.46-.89 2.3-2.79 2.58l-3 .46a2 2 0 0 0 2.17 1.63 5.26 5.26 0 0 0 1.5-.19l.84-.21a.19.19 0 0 1 .26.15l.38 1.43a.19.19 0 0 1-.15.26zm-1.47-5.39c.67-.12 1-.42 1-.91 0-.76-.59-1.16-1.61-1.16-1.26 0-2.11.78-2.26 2.52zM453.79 199.22a.19.19 0 0 1-.21.21h-1.69a.19.19 0 0 1-.21-.21v-8.79a.19.19 0 0 1 .21-.21h6.17c.16 0 .23.09.18.23l-.42 1.48a.24.24 0 0 1-.25.17h-3.78zM468.23 194.81c0 3-1.67 4.83-4.37 4.83s-4.39-1.86-4.39-4.83 1.67-4.78 4.39-4.78 4.37 1.86 4.37 4.78zm-6.67 0c0 1.83.86 2.91 2.3 2.91s2.28-1.08 2.28-2.91-.87-2.88-2.28-2.88-2.3 1.07-2.3 2.88zM475.87 191.19c.07.2.23.19.36 0a3.37 3.37 0 0 1 2.66-1.17c2.49 0 4 1.84 4 4.78s-1.6 4.83-4.26 4.83a3.88 3.88 0 0 1-1.73-.36l-.51-.23v4.26a.19.19 0 0 1-.21.2h-1.69a.19.19 0 0 1-.21-.2v-12.87a.19.19 0 0 1 .21-.21h.95c.13 0 .21.05.23.17zm1.06 6.21a3.46 3.46 0 0 0 1.56.32c1.46 0 2.3-1.08 2.3-2.91s-.84-2.88-2.24-2.88-2.19 1.17-2.19 2.83v2.37zM486.13 190.31a7.05 7.05 0 0 1 2.07-.28c2.56 0 4.14 1.33 4.14 3.63v5.56a.19.19 0 0 1-.21.21h-.95a.24.24 0 0 1-.25-.17l-.15-.59c-.11-.26-.23-.26-.47 0a3.35 3.35 0 0 1-2.61 1c-2.11 0-3.28-1.08-3.28-2.87s1.21-2.92 3.46-2.92h2.37v-.12c0-1.16-.74-1.78-2.15-1.78a5 5 0 0 0-1.48.19l-.68.2a.19.19 0 0 1-.27-.15l-.42-1.4a.2.2 0 0 1 .16-.27zm1.75 5.19c-.94 0-1.37.44-1.37 1.08s.51 1.2 1.42 1.2c1.5 0 2.32-.74 2.32-2.15v-.13zM500.57 199.39a7.07 7.07 0 0 1-1.77.25c-2.91 0-4.5-1.86-4.5-4.83s1.57-4.78 4.56-4.78a5.83 5.83 0 0 1 1.63.22l.82.23a.2.2 0 0 1 .15.27l-.44 1.42a.19.19 0 0 1-.24.14l-.65-.17a4.08 4.08 0 0 0-1.27-.21c-1.69 0-2.47 1.08-2.47 2.86s.81 2.93 2.43 2.93a5.66 5.66 0 0 0 1.4-.21l.63-.19a.2.2 0 0 1 .27.13l.43 1.43a.2.2 0 0 1-.15.27zM511.59 199.22a.19.19 0 0 1-.21.21h-1.71a.19.19 0 0 1-.21-.21v-7.12h-3.59v7.12a.19.19 0 0 1-.21.21H504a.19.19 0 0 1-.21-.21v-8.79a.19.19 0 0 1 .21-.21h7.41a.19.19 0 0 1 .21.21zM522.42 194.81c0 3-1.67 4.83-4.37 4.83s-4.39-1.86-4.39-4.83 1.67-4.78 4.39-4.78 4.37 1.86 4.37 4.78zm-6.67 0c0 1.83.85 2.91 2.3 2.91s2.28-1.08 2.28-2.91-.88-2.88-2.28-2.88-2.3 1.07-2.3 2.88zM525.08 190.27a8.86 8.86 0 0 1 2.3-.26c2.26 0 3.62 1 3.62 2.64a1.9 1.9 0 0 1-1.33 1.94c-.15 0-.15.17 0 .22a2.06 2.06 0 0 1 1.7 2.06c0 1.69-1.49 2.77-4 2.77a10.08 10.08 0 0 1-2.38-.3l-.95-.23a.2.2 0 0 1-.15-.27l.42-1.42a.22.22 0 0 1 .24-.16l.93.23a7.53 7.53 0 0 0 1.89.23c1.14 0 1.89-.42 1.89-1.08s-.72-1-1.82-1h-1.35a.19.19 0 0 1-.21-.21v-1.33a.19.19 0 0 1 .21-.21h1.35c.91 0 1.48-.4 1.48-1s-.62-1-1.57-1a7.64 7.64 0 0 0-1.87.21l-.81.21a.21.21 0 0 1-.27-.14l-.4-1.42a.2.2 0 0 1 .16-.27zM541.38 199.22a.19.19 0 0 1-.21.21h-1.71a.19.19 0 0 1-.21-.21v-3.51h-3.68v3.51a.19.19 0 0 1-.21.21h-1.69a.19.19 0 0 1-.21-.21v-8.79a.19.19 0 0 1 .21-.21h1.69a.19.19 0 0 1 .21.21v3.4h3.68v-3.4a.19.19 0 0 1 .21-.21h1.71a.19.19 0 0 1 .21.21zM545.08 190.31a7.15 7.15 0 0 1 2.07-.28c2.57 0 4.15 1.33 4.15 3.63v5.56a.19.19 0 0 1-.21.21h-1a.23.23 0 0 1-.25-.17l-.15-.59c-.12-.26-.23-.26-.48 0a3.33 3.33 0 0 1-2.6 1c-2.11 0-3.29-1.08-3.29-2.87s1.22-2.92 3.46-2.92h2.38v-.12c0-1.16-.74-1.78-2.15-1.78a4.92 4.92 0 0 0-1.48.19l-.69.2a.19.19 0 0 1-.26-.15l-.42-1.4a.2.2 0 0 1 .15-.27zm1.75 5.19c-.93 0-1.37.44-1.37 1.08s.52 1.2 1.43 1.2c1.5 0 2.32-.74 2.32-2.15v-.13zM561 191.89a.19.19 0 0 1-.21.21H558v7.12a.19.19 0 0 1-.2.21h-1.71a.19.19 0 0 1-.21-.21v-7.12h-2.8a.19.19 0 0 1-.2-.21v-1.46a.18.18 0 0 1 .2-.21h7.72a.19.19 0 0 1 .21.21zM563.17 199.43a.19.19 0 0 1-.21-.21v-8.79a.19.19 0 0 1 .21-.21h1.69a.19.19 0 0 1 .21.21v2.69h1.35c2.55 0 4 1.2 4 3.23s-1.27 3.08-3.5 3.08zm3.78-1.88c.88 0 1.41-.44 1.41-1.2s-.72-1.35-1.94-1.35h-1.35v2.55zM572.14 186.46a10.22 10.22 0 0 1 3.1-.5c2.85 0 4.4 1.33 4.4 3.48a3.64 3.64 0 0 1-1.88 3.11l-1 .74a1.75 1.75 0 0 0-.76 1.43v1a.19.19 0 0 1-.21.21H574a.19.19 0 0 1-.21-.21v-1a3.43 3.43 0 0 1 1.65-3l1.09-.74a1.78 1.78 0 0 0 .95-1.5c0-.84-.95-1.45-2.28-1.45a8.61 8.61 0 0 0-2.45.38l-1.11.37a.22.22 0 0 1-.26-.14l-.53-1.52c-.06-.11 0-.21.13-.24zm4.18 11.83a1.24 1.24 0 0 1-1.33 1.37 1.37 1.37 0 0 1 0-2.74 1.24 1.24 0 0 1 1.33 1.37z"/><path class="cls-11" d="M236.83 214.5a.18.18 0 0 1 .2.2v1.39a.18.18 0 0 1-.2.19h-9.29a.18.18 0 0 1-.2-.19v-1.39a.18.18 0 0 1 .2-.2z"/><path class="cls-11" d="M246 214.5a.18.18 0 0 1 .2.2v1.39a.18.18 0 0 1-.2.19h-9.29a.18.18 0 0 1-.2-.19v-1.39a.18.18 0 0 1 .2-.2z"/><path class="cls-11" d="M255.23 214.5a.18.18 0 0 1 .2.2v1.39a.18.18 0 0 1-.2.19h-9.29a.18.18 0 0 1-.2-.19v-1.39a.18.18 0 0 1 .2-.2z"/><path class="cls-11" d="M264.43 214.5a.18.18 0 0 1 .19.2v1.39a.17.17 0 0 1-.19.19h-9.3a.17.17 0 0 1-.19-.19v-1.39a.18.18 0 0 1 .19-.2z"/><path class="cls-11" d="M273.62 214.5a.18.18 0 0 1 .2.2v1.39a.18.18 0 0 1-.2.19h-9.29a.18.18 0 0 1-.2-.19v-1.39a.18.18 0 0 1 .2-.2z"/><path class="cls-11" d="M282.82 214.5a.18.18 0 0 1 .2.2v1.39a.18.18 0 0 1-.2.19h-9.29a.18.18 0 0 1-.2-.19v-1.39a.18.18 0 0 1 .2-.2z"/><path class="cls-11" d="M292 214.5a.18.18 0 0 1 .2.2v1.39a.18.18 0 0 1-.2.19h-9.29a.18.18 0 0 1-.2-.19v-1.39a.18.18 0 0 1 .2-.2z"/><path class="cls-11" d="M301.22 214.5a.18.18 0 0 1 .2.2v1.39a.18.18 0 0 1-.2.19h-9.29a.18.18 0 0 1-.2-.19v-1.39a.18.18 0 0 1 .2-.2z"/><path class="cls-11" d="M310.42 214.5a.18.18 0 0 1 .19.2v1.39a.17.17 0 0 1-.19.19h-9.3a.17.17 0 0 1-.19-.19v-1.39a.18.18 0 0 1 .19-.2z"/><path class="cls-11" d="M319.61 214.5a.18.18 0 0 1 .2.2v1.39a.18.18 0 0 1-.2.19h-9.29a.18.18 0 0 1-.2-.19v-1.39a.18.18 0 0 1 .2-.2z"/><path class="cls-11" d="M328.81 214.5a.18.18 0 0 1 .2.2v1.39a.18.18 0 0 1-.2.19h-9.29a.18.18 0 0 1-.2-.19v-1.39a.18.18 0 0 1 .2-.2z"/><path class="cls-11" d="M338 214.5a.18.18 0 0 1 .2.2v1.39a.18.18 0 0 1-.2.19h-9.29a.18.18 0 0 1-.2-.19v-1.39a.18.18 0 0 1 .2-.2z"/><path class="cls-11" d="M347.21 214.5a.18.18 0 0 1 .19.2v1.39a.17.17 0 0 1-.19.19h-9.29a.18.18 0 0 1-.2-.19v-1.39a.18.18 0 0 1 .2-.2z"/><path class="cls-11" d="M356.4 214.5a.18.18 0 0 1 .2.2v1.39a.18.18 0 0 1-.2.19h-9.29a.17.17 0 0 1-.19-.19v-1.39a.18.18 0 0 1 .19-.2z"/><path class="cls-11" d="M365.6 214.5a.18.18 0 0 1 .2.2v1.39a.18.18 0 0 1-.2.19h-9.29a.18.18 0 0 1-.2-.19v-1.39a.18.18 0 0 1 .2-.2z"/><path class="cls-11" d="M374.8 214.5a.18.18 0 0 1 .2.2v1.39a.18.18 0 0 1-.2.19h-9.29a.18.18 0 0 1-.2-.19v-1.39a.18.18 0 0 1 .2-.2z"/><path class="cls-11" d="M384 214.5a.18.18 0 0 1 .2.2v1.39a.18.18 0 0 1-.2.19h-9.29a.18.18 0 0 1-.2-.19v-1.39a.18.18 0 0 1 .2-.2z"/><path class="cls-11" d="M393.2 214.5a.18.18 0 0 1 .19.2v1.39a.17.17 0 0 1-.19.19h-9.3a.17.17 0 0 1-.19-.19v-1.39a.18.18 0 0 1 .19-.2z"/><path class="cls-11" d="M402.39 214.5a.18.18 0 0 1 .2.2v1.39a.18.18 0 0 1-.2.19h-9.29a.18.18 0 0 1-.2-.19v-1.39a.18.18 0 0 1 .2-.2z"/><path class="cls-11" d="M411.59 214.5a.18.18 0 0 1 .2.2v1.39a.18.18 0 0 1-.2.19h-9.29a.18.18 0 0 1-.2-.19v-1.39a.18.18 0 0 1 .2-.2z"/><path class="cls-11" d="M420.79 214.5a.18.18 0 0 1 .2.2v1.39a.18.18 0 0 1-.2.19h-9.29a.18.18 0 0 1-.2-.19v-1.39a.18.18 0 0 1 .2-.2z"/><path class="cls-11" d="M430 214.5a.18.18 0 0 1 .19.2v1.39a.17.17 0 0 1-.19.19h-9.3a.18.18 0 0 1-.2-.19v-1.39a.18.18 0 0 1 .2-.2z"/><path class="cls-11" d="M439.18 214.5a.18.18 0 0 1 .2.2v1.39a.18.18 0 0 1-.2.19h-9.29a.18.18 0 0 1-.2-.19v-1.39a.18.18 0 0 1 .2-.2z"/><path class="cls-11" d="M448.38 214.5a.18.18 0 0 1 .2.2v1.39a.18.18 0 0 1-.2.19h-9.29a.18.18 0 0 1-.2-.19v-1.39a.18.18 0 0 1 .2-.2z"/><path class="cls-11" d="M457.58 214.5a.18.18 0 0 1 .2.2v1.39a.18.18 0 0 1-.2.19h-9.29a.18.18 0 0 1-.2-.19v-1.39a.18.18 0 0 1 .2-.2z"/><path class="cls-11" d="M466.78 214.5a.18.18 0 0 1 .2.2v1.39a.18.18 0 0 1-.2.19h-9.29a.18.18 0 0 1-.2-.19v-1.39a.18.18 0 0 1 .2-.2z"/><path class="cls-11" d="M476 214.5a.18.18 0 0 1 .2.2v1.39a.18.18 0 0 1-.2.19h-9.29a.17.17 0 0 1-.19-.19v-1.39a.18.18 0 0 1 .19-.2z"/><path class="cls-11" d="M485.17 214.5a.18.18 0 0 1 .2.2v1.39a.18.18 0 0 1-.2.19h-9.29a.18.18 0 0 1-.2-.19v-1.39a.18.18 0 0 1 .2-.2z"/><path class="cls-11" d="M494.37 214.5a.18.18 0 0 1 .2.2v1.39a.18.18 0 0 1-.2.19h-9.29a.18.18 0 0 1-.2-.19v-1.39a.18.18 0 0 1 .2-.2z"/><path class="cls-11" d="M503.57 214.5a.18.18 0 0 1 .2.2v1.39a.18.18 0 0 1-.2.19h-9.29a.18.18 0 0 1-.2-.19v-1.39a.18.18 0 0 1 .2-.2z"/><path class="cls-11" d="M512.77 214.5a.18.18 0 0 1 .19.2v1.39a.17.17 0 0 1-.19.19h-9.3a.17.17 0 0 1-.19-.19v-1.39a.18.18 0 0 1 .19-.2z"/><path class="cls-11" d="M522 214.5a.18.18 0 0 1 .2.2v1.39a.18.18 0 0 1-.2.19h-9.29a.18.18 0 0 1-.2-.19v-1.39a.18.18 0 0 1 .2-.2z"/><path class="cls-11" d="M531.16 214.5a.18.18 0 0 1 .2.2v1.39a.18.18 0 0 1-.2.19h-9.29a.18.18 0 0 1-.2-.19v-1.39a.18.18 0 0 1 .2-.2z"/><path class="cls-11" d="M540.36 214.5a.18.18 0 0 1 .2.2v1.39a.18.18 0 0 1-.2.19h-9.29a.18.18 0 0 1-.2-.19v-1.39a.18.18 0 0 1 .2-.2z"/><path class="cls-11" d="M549.56 214.5a.18.18 0 0 1 .19.2v1.39a.17.17 0 0 1-.19.19h-9.29a.18.18 0 0 1-.2-.19v-1.39a.18.18 0 0 1 .2-.2z"/><path class="cls-11" d="M558.75 214.5a.18.18 0 0 1 .2.2v1.39a.18.18 0 0 1-.2.19h-9.29a.18.18 0 0 1-.2-.19v-1.39a.18.18 0 0 1 .2-.2z"/><path class="cls-10" d="M236.94 229.07a5.82 5.82 0 0 1-2.64 2.39c-.13.06-.15.17 0 .23a6.17 6.17 0 0 1 2.78 2.6l2.37 3.89c.1.14 0 .25-.15.25h-1.92a.34.34 0 0 1-.27-.13l-1.88-3c-.89-1.5-2.2-2.7-3.6-2.7h-.44v5.66a.19.19 0 0 1-.21.21h-1.73a.19.19 0 0 1-.21-.21v-12.9a.19.19 0 0 1 .21-.21H231a.19.19 0 0 1 .21.21v5.3h.42c1.36 0 2.65-1.14 3.49-2.51l1.77-2.87a.3.3 0 0 1 .26-.13H239c.16 0 .23.12.14.25zM242.44 229.31a7.05 7.05 0 0 1 2.07-.28c2.56 0 4.14 1.33 4.14 3.62v5.57a.19.19 0 0 1-.21.21h-.95a.24.24 0 0 1-.25-.17l-.15-.59c-.11-.27-.23-.27-.47 0a3.35 3.35 0 0 1-2.61 1c-2.11 0-3.28-1.08-3.28-2.87s1.21-2.92 3.45-2.92h2.38v-.12c0-1.16-.74-1.79-2.15-1.79a5 5 0 0 0-1.48.2l-.68.2a.19.19 0 0 1-.27-.15l-.42-1.4a.2.2 0 0 1 .15-.27zm1.74 5.19c-.93 0-1.36.43-1.36 1.08s.51 1.2 1.42 1.2c1.5 0 2.32-.74 2.32-2.15v-.13zM253.46 232.83c.93 0 1.48-.82 2-1.56l1.25-1.92a.31.31 0 0 1 .27-.13h1.86c.17 0 .23.11.15.24l-1.67 2.7a3.74 3.74 0 0 1-1.65 1.48c-.08 0-.1.12 0 .15a4.22 4.22 0 0 1 1.77 1.54l1.74 2.85c.1.14 0 .25-.15.25h-1.88a.3.3 0 0 1-.26-.13l-1.32-2.11c-.53-.8-1.06-1.46-2.1-1.46h-.29v3.49a.19.19 0 0 1-.21.21h-1.69a.19.19 0 0 1-.21-.21v-8.79a.19.19 0 0 1 .21-.21H253a.19.19 0 0 1 .21.21v3.4zM267.59 238.43a.19.19 0 0 1-.21-.21v-3.57a13.94 13.94 0 0 1 .15-2.39c0-.17-.13-.27-.2-.06l-.58 1.06-2.27 3.65c-.23.44-.48.91-.67 1.35a.23.23 0 0 1-.23.17h-2.14a.19.19 0 0 1-.21-.21v-8.79a.19.19 0 0 1 .21-.21h1.71a.18.18 0 0 1 .2.21V233a14.22 14.22 0 0 1-.18 2.39c0 .15.13.25.22 0s.38-.71.55-1l2.28-3.66c.23-.44.48-.93.67-1.37a.22.22 0 0 1 .23-.15h2.16a.19.19 0 0 1 .21.21v8.79a.19.19 0 0 1-.21.21zM281.76 238.22a.19.19 0 0 1-.2.21h-1.7a.19.19 0 0 1-.2-.21v-2.79a25.28 25.28 0 0 1 .15-3.23c0-.17-.14-.23-.19-.06-.15.33-.29.67-.42 1l-1.1 2.41a7 7 0 0 0-.36 1 .21.21 0 0 1-.23.17h-1.26a.2.2 0 0 1-.22-.17c-.1-.34-.23-.7-.36-1l-1.11-2.41-.41-1c-.06-.17-.23-.11-.19.06a23.47 23.47 0 0 1 .17 3.23v2.79a.19.19 0 0 1-.21.21h-1.69a.19.19 0 0 1-.21-.21v-8.79a.19.19 0 0 1 .21-.21h2.47a.2.2 0 0 1 .23.19 5.83 5.83 0 0 0 .3.89l1.08 2.39c.17.48.4 1.22.48 1.54s.15.17.19 0 .32-1.06.47-1.54l1.1-2.39a5.92 5.92 0 0 0 .31-.89c0-.14.09-.19.23-.19h2.47a.18.18 0 0 1 .2.21zM295.73 226.25a.19.19 0 0 1-.13.25l-3 .93a3.33 3.33 0 0 0-2.53 2.75c-.1.31.09.42.3.23a3.58 3.58 0 0 1 2.47-.87c2.43 0 4 1.71 4 4.52s-1.71 4.56-4.39 4.56-4.37-1.73-4.37-4.54V231c0-2.89 1.24-4.6 3.93-5.43l3-.93a.19.19 0 0 1 .26.15zm-5.55 7.83c0 1.65.88 2.64 2.3 2.64s2.28-1 2.28-2.64-.85-2.64-2.28-2.64-2.3.97-2.3 2.64zM298.94 229.43a.19.19 0 0 1 .21-.21h1.69a.19.19 0 0 1 .21.21v2.69h1.35c2.55 0 4 1.2 4 3.23s-1.28 3.08-3.5 3.08h-3.78a.19.19 0 0 1-.21-.21zm4 7.12c.87 0 1.41-.44 1.41-1.2s-.72-1.35-1.94-1.35h-1.35v2.55zm7.07 1.67a.19.19 0 0 1-.21.21h-1.7a.19.19 0 0 1-.21-.21v-8.77a.19.19 0 0 1 .21-.21h1.69a.19.19 0 0 1 .21.21zM316.59 229.22c2.05 0 3.31.93 3.31 2.5a1.94 1.94 0 0 1-1.16 1.87c-.21.07-.21.19 0 .26a2.06 2.06 0 0 1 1.52 2c0 1.61-1.27 2.56-3.38 2.56h-4.11a.19.19 0 0 1-.21-.21v-8.79a.19.19 0 0 1 .21-.21zm-2 3.66h1.83c.89 0 1.39-.34 1.39-.93s-.4-.85-1-.85h-2.19zm0 3.67H317c.76 0 1.2-.34 1.2-.91s-.55-1-1.54-1h-2zM323.47 229.31a7.1 7.1 0 0 1 2.07-.28c2.57 0 4.14 1.33 4.14 3.62v5.57a.19.19 0 0 1-.21.21h-1a.22.22 0 0 1-.24-.17l-.16-.59c-.11-.27-.22-.27-.47 0a3.33 3.33 0 0 1-2.6 1c-2.11 0-3.29-1.08-3.29-2.87s1.22-2.92 3.46-2.92h2.37v-.12c0-1.16-.74-1.79-2.14-1.79a5 5 0 0 0-1.49.2l-.68.2a.2.2 0 0 1-.27-.15l-.41-1.4a.2.2 0 0 1 .15-.27zm1.75 5.19c-.93 0-1.37.43-1.37 1.08s.51 1.2 1.42 1.2c1.51 0 2.32-.74 2.32-2.15v-.13zM338.06 238.39a8 8 0 0 1-1.94.25c-2.87 0-4.48-1.86-4.48-4.81s1.63-4.8 4.41-4.8c2.28 0 3.66 1.14 3.66 3 0 1.46-.89 2.3-2.79 2.58l-3 .46a2 2 0 0 0 2.16 1.63 5.28 5.28 0 0 0 1.51-.19l.83-.21a.2.2 0 0 1 .27.15l.38 1.43a.19.19 0 0 1-.16.26zM336.6 233c.66-.12 1-.42 1-.91 0-.76-.58-1.16-1.61-1.16-1.25 0-2.11.78-2.26 2.52zM349.27 230.89a.19.19 0 0 1-.21.21h-2.79v7.12a.19.19 0 0 1-.21.21h-1.71a.19.19 0 0 1-.21-.21v-7.12h-2.79a.19.19 0 0 1-.21-.21v-1.46a.19.19 0 0 1 .21-.21h7.71a.19.19 0 0 1 .21.21zM362.65 226.25a.19.19 0 0 1-.14.25l-3 .93a3.33 3.33 0 0 0-2.52 2.75c-.1.31.09.42.3.23a3.56 3.56 0 0 1 2.47-.87c2.43 0 4 1.71 4 4.52s-1.71 4.56-4.39 4.56-4.37-1.73-4.37-4.54V231c0-2.89 1.23-4.6 3.93-5.43l3-.93a.2.2 0 0 1 .27.15zm-5.55 7.83c0 1.65.87 2.64 2.3 2.64s2.28-1 2.28-2.64-.86-2.64-2.28-2.64-2.3.97-2.3 2.64zM370.13 239.44c-.81 2.11-2 3.07-3.85 3.07h-.71a.18.18 0 0 1-.2-.2v-1.47a.19.19 0 0 1 .2-.21h.63a1.57 1.57 0 0 0 1.62-1.12l.28-.66c.34-.82 0-1.84-.65-3.44l-2.6-5.95c-.07-.15 0-.24.15-.24h1.79a.27.27 0 0 1 .25.15l1.71 3.87a12.59 12.59 0 0 1 .72 2.42c.06.22.24.22.3 0a15.21 15.21 0 0 1 .69-2.42l1.59-3.85a.22.22 0 0 1 .23-.17h1.79c.15 0 .22.09.17.24zM384 238.22a.19.19 0 0 1-.21.21h-1.69a.19.19 0 0 1-.21-.21v-7.12h-3v2.77a4.52 4.52 0 0 1-2.58 4.52l-.55.27a.2.2 0 0 1-.29-.1l-.62-1.35c-.06-.13 0-.22.09-.28l.55-.27c.88-.47 1.29-1.35 1.29-2.79v-4.44a.19.19 0 0 1 .21-.21h6.82a.19.19 0 0 1 .21.21zM394.87 238.22a.19.19 0 0 1-.21.21H393a.19.19 0 0 1-.21-.21v-7.12h-3v2.77a4.52 4.52 0 0 1-2.58 4.52l-.55.27a.2.2 0 0 1-.29-.1l-.62-1.35c-.06-.13 0-.22.09-.28l.55-.27c.87-.47 1.29-1.35 1.29-2.79v-4.44a.19.19 0 0 1 .21-.21h6.82a.19.19 0 0 1 .21.21zM403.78 238.43a.19.19 0 0 1-.21-.21v-3.57a13.94 13.94 0 0 1 .15-2.39c0-.17-.13-.27-.2-.06l-.57 1.06-2.28 3.65c-.23.44-.48.91-.67 1.35a.23.23 0 0 1-.23.17h-2.14a.19.19 0 0 1-.21-.21v-8.79a.19.19 0 0 1 .21-.21h1.71a.18.18 0 0 1 .2.21V233a14.22 14.22 0 0 1-.18 2.39c0 .15.13.25.22 0s.38-.71.55-1l2.28-3.66c.23-.44.48-.93.67-1.37a.22.22 0 0 1 .23-.15h2.16a.19.19 0 0 1 .21.21v8.79a.19.19 0 0 1-.21.21zM416.13 238.22a.19.19 0 0 1-.21.21h-1.71a.19.19 0 0 1-.21-.21v-3.51h-3.68v3.51a.19.19 0 0 1-.21.21h-1.69a.19.19 0 0 1-.21-.21v-8.79a.19.19 0 0 1 .21-.21h1.69a.19.19 0 0 1 .21.21v3.4H414v-3.4a.19.19 0 0 1 .21-.21h1.71a.19.19 0 0 1 .21.21zM420.79 238.22a.19.19 0 0 1-.21.21h-1.69a.19.19 0 0 1-.21-.21v-8.79a.19.19 0 0 1 .21-.21h6.17c.15 0 .23.09.17.23l-.42 1.48a.22.22 0 0 1-.24.17h-3.78zM428.1 225.46a10.22 10.22 0 0 1 3.1-.5c2.85 0 4.41 1.33 4.41 3.48a3.67 3.67 0 0 1-1.88 3.11l-1.05.74a1.78 1.78 0 0 0-.76 1.43v1a.19.19 0 0 1-.21.21H430a.19.19 0 0 1-.21-.21v-1a3.44 3.44 0 0 1 1.66-3l1.08-.74a1.76 1.76 0 0 0 1-1.5c0-.84-1-1.45-2.28-1.45a8.67 8.67 0 0 0-2.45.38l-1.1.37a.22.22 0 0 1-.27-.14l-.53-1.52c-.06-.11 0-.21.13-.24zm4.18 11.83a1.32 1.32 0 1 1-2.64 0 1.32 1.32 0 1 1 2.64 0z"/><path class="cls-11" d="M236.83 253.5a.18.18 0 0 1 .2.2v1.39a.18.18 0 0 1-.2.19h-9.29a.18.18 0 0 1-.2-.19v-1.39a.18.18 0 0 1 .2-.2z"/><path class="cls-11" d="M246 253.5a.18.18 0 0 1 .2.2v1.39a.18.18 0 0 1-.2.19h-9.29a.18.18 0 0 1-.2-.19v-1.39a.18.18 0 0 1 .2-.2z"/><path class="cls-11" d="M255.23 253.5a.18.18 0 0 1 .2.2v1.39a.18.18 0 0 1-.2.19h-9.29a.18.18 0 0 1-.2-.19v-1.39a.18.18 0 0 1 .2-.2z"/><path class="cls-11" d="M264.43 253.5a.18.18 0 0 1 .19.2v1.39a.17.17 0 0 1-.19.19h-9.3a.17.17 0 0 1-.19-.19v-1.39a.18.18 0 0 1 .19-.2z"/><path class="cls-11" d="M273.62 253.5a.18.18 0 0 1 .2.2v1.39a.18.18 0 0 1-.2.19h-9.29a.18.18 0 0 1-.2-.19v-1.39a.18.18 0 0 1 .2-.2z"/><path class="cls-11" d="M282.82 253.5a.18.18 0 0 1 .2.2v1.39a.18.18 0 0 1-.2.19h-9.29a.18.18 0 0 1-.2-.19v-1.39a.18.18 0 0 1 .2-.2z"/><path class="cls-11" d="M292 253.5a.18.18 0 0 1 .2.2v1.39a.18.18 0 0 1-.2.19h-9.29a.18.18 0 0 1-.2-.19v-1.39a.18.18 0 0 1 .2-.2z"/><path class="cls-11" d="M301.22 253.5a.18.18 0 0 1 .2.2v1.39a.18.18 0 0 1-.2.19h-9.29a.18.18 0 0 1-.2-.19v-1.39a.18.18 0 0 1 .2-.2z"/><path class="cls-11" d="M310.42 253.5a.18.18 0 0 1 .19.2v1.39a.17.17 0 0 1-.19.19h-9.3a.17.17 0 0 1-.19-.19v-1.39a.18.18 0 0 1 .19-.2z"/><path class="cls-11" d="M319.61 253.5a.18.18 0 0 1 .2.2v1.39a.18.18 0 0 1-.2.19h-9.29a.18.18 0 0 1-.2-.19v-1.39a.18.18 0 0 1 .2-.2z"/><path class="cls-11" d="M328.81 253.5a.18.18 0 0 1 .2.2v1.39a.18.18 0 0 1-.2.19h-9.29a.18.18 0 0 1-.2-.19v-1.39a.18.18 0 0 1 .2-.2z"/><path class="cls-11" d="M338 253.5a.18.18 0 0 1 .2.2v1.39a.18.18 0 0 1-.2.19h-9.29a.18.18 0 0 1-.2-.19v-1.39a.18.18 0 0 1 .2-.2z"/><path class="cls-11" d="M347.21 253.5a.18.18 0 0 1 .19.2v1.39a.17.17 0 0 1-.19.19h-9.29a.18.18 0 0 1-.2-.19v-1.39a.18.18 0 0 1 .2-.2z"/><path class="cls-11" d="M356.4 253.5a.18.18 0 0 1 .2.2v1.39a.18.18 0 0 1-.2.19h-9.29a.17.17 0 0 1-.19-.19v-1.39a.18.18 0 0 1 .19-.2z"/><path class="cls-11" d="M365.6 253.5a.18.18 0 0 1 .2.2v1.39a.18.18 0 0 1-.2.19h-9.29a.18.18 0 0 1-.2-.19v-1.39a.18.18 0 0 1 .2-.2z"/><path class="cls-11" d="M374.8 253.5a.18.18 0 0 1 .2.2v1.39a.18.18 0 0 1-.2.19h-9.29a.18.18 0 0 1-.2-.19v-1.39a.18.18 0 0 1 .2-.2z"/><path class="cls-11" d="M384 253.5a.18.18 0 0 1 .2.2v1.39a.18.18 0 0 1-.2.19h-9.29a.18.18 0 0 1-.2-.19v-1.39a.18.18 0 0 1 .2-.2z"/><path class="cls-11" d="M393.2 253.5a.18.18 0 0 1 .19.2v1.39a.17.17 0 0 1-.19.19h-9.3a.17.17 0 0 1-.19-.19v-1.39a.18.18 0 0 1 .19-.2z"/><path class="cls-11" d="M402.39 253.5a.18.18 0 0 1 .2.2v1.39a.18.18 0 0 1-.2.19h-9.29a.18.18 0 0 1-.2-.19v-1.39a.18.18 0 0 1 .2-.2z"/><path class="cls-11" d="M411.59 253.5a.18.18 0 0 1 .2.2v1.39a.18.18 0 0 1-.2.19h-9.29a.18.18 0 0 1-.2-.19v-1.39a.18.18 0 0 1 .2-.2z"/><path class="cls-11" d="M420.79 253.5a.18.18 0 0 1 .2.2v1.39a.18.18 0 0 1-.2.19h-9.29a.18.18 0 0 1-.2-.19v-1.39a.18.18 0 0 1 .2-.2z"/><path class="cls-11" d="M430 253.5a.18.18 0 0 1 .19.2v1.39a.17.17 0 0 1-.19.19h-9.3a.18.18 0 0 1-.2-.19v-1.39a.18.18 0 0 1 .2-.2z"/><path class="cls-11" d="M439.18 253.5a.18.18 0 0 1 .2.2v1.39a.18.18 0 0 1-.2.19h-9.29a.18.18 0 0 1-.2-.19v-1.39a.18.18 0 0 1 .2-.2z"/><path class="cls-11" d="M448.38 253.5a.18.18 0 0 1 .2.2v1.39a.18.18 0 0 1-.2.19h-9.29a.18.18 0 0 1-.2-.19v-1.39a.18.18 0 0 1 .2-.2z"/><path class="cls-11" d="M457.58 253.5a.18.18 0 0 1 .2.2v1.39a.18.18 0 0 1-.2.19h-9.29a.18.18 0 0 1-.2-.19v-1.39a.18.18 0 0 1 .2-.2z"/><path class="cls-11" d="M466.78 253.5a.18.18 0 0 1 .2.2v1.39a.18.18 0 0 1-.2.19h-9.29a.18.18 0 0 1-.2-.19v-1.39a.18.18 0 0 1 .2-.2z"/><path class="cls-11" d="M476 253.5a.18.18 0 0 1 .2.2v1.39a.18.18 0 0 1-.2.19h-9.29a.17.17 0 0 1-.19-.19v-1.39a.18.18 0 0 1 .19-.2z"/><path class="cls-11" d="M485.17 253.5a.18.18 0 0 1 .2.2v1.39a.18.18 0 0 1-.2.19h-9.29a.18.18 0 0 1-.2-.19v-1.39a.18.18 0 0 1 .2-.2z"/><path class="cls-11" d="M494.37 253.5a.18.18 0 0 1 .2.2v1.39a.18.18 0 0 1-.2.19h-9.29a.18.18 0 0 1-.2-.19v-1.39a.18.18 0 0 1 .2-.2z"/><path class="cls-11" d="M503.57 253.5a.18.18 0 0 1 .2.2v1.39a.18.18 0 0 1-.2.19h-9.29a.18.18 0 0 1-.2-.19v-1.39a.18.18 0 0 1 .2-.2z"/><path class="cls-11" d="M512.77 253.5a.18.18 0 0 1 .19.2v1.39a.17.17 0 0 1-.19.19h-9.3a.17.17 0 0 1-.19-.19v-1.39a.18.18 0 0 1 .19-.2z"/><path class="cls-11" d="M522 253.5a.18.18 0 0 1 .2.2v1.39a.18.18 0 0 1-.2.19h-9.29a.18.18 0 0 1-.2-.19v-1.39a.18.18 0 0 1 .2-.2z"/><path class="cls-11" d="M531.16 253.5a.18.18 0 0 1 .2.2v1.39a.18.18 0 0 1-.2.19h-9.29a.18.18 0 0 1-.2-.19v-1.39a.18.18 0 0 1 .2-.2z"/><path class="cls-11" d="M540.36 253.5a.18.18 0 0 1 .2.2v1.39a.18.18 0 0 1-.2.19h-9.29a.18.18 0 0 1-.2-.19v-1.39a.18.18 0 0 1 .2-.2z"/><path class="cls-10" d="M236.94 268.06a5.79 5.79 0 0 1-2.64 2.4c-.13.06-.15.17 0 .23a6.17 6.17 0 0 1 2.78 2.6l2.37 3.89c.1.14 0 .25-.15.25h-1.92a.34.34 0 0 1-.27-.13l-1.88-3c-.89-1.5-2.2-2.7-3.6-2.7h-.44v5.66a.19.19 0 0 1-.21.21h-1.73a.19.19 0 0 1-.21-.21v-12.9a.19.19 0 0 1 .21-.21H231a.19.19 0 0 1 .21.21v5.3h.42c1.36 0 2.65-1.14 3.49-2.51l1.77-2.87a.3.3 0 0 1 .26-.13H239c.16 0 .23.12.14.25zM248.51 269.89a.19.19 0 0 1-.2.21h-2.8v7.12a.19.19 0 0 1-.21.21h-1.71a.19.19 0 0 1-.2-.21v-7.12h-2.8a.19.19 0 0 1-.21-.21v-1.46a.19.19 0 0 1 .21-.21h7.72a.18.18 0 0 1 .2.21zM258.55 272.81c0 3-1.67 4.83-4.37 4.83s-4.39-1.86-4.39-4.83 1.67-4.78 4.39-4.78 4.37 1.86 4.37 4.78zm-6.67 0c0 1.83.85 2.91 2.3 2.91s2.28-1.08 2.28-2.91-.88-2.88-2.28-2.88-2.3 1.07-2.3 2.88zM270.56 277.39a8.07 8.07 0 0 1-1.94.25c-2.87 0-4.49-1.86-4.49-4.81s1.64-4.8 4.41-4.8c2.28 0 3.67 1.14 3.67 3 0 1.46-.89 2.3-2.79 2.58l-3 .46a2 2 0 0 0 2.17 1.63 5.26 5.26 0 0 0 1.5-.19l.84-.21a.19.19 0 0 1 .26.15l.38 1.43a.19.19 0 0 1-.15.26zm-1.47-5.39c.67-.12 1-.42 1-.91 0-.76-.59-1.16-1.62-1.16-1.25 0-2.11.78-2.26 2.52zM280.11 277.39a7.07 7.07 0 0 1-1.77.25c-2.9 0-4.5-1.86-4.5-4.83s1.58-4.78 4.56-4.78a5.85 5.85 0 0 1 1.64.22l.81.23a.2.2 0 0 1 .15.27l-.43 1.42a.2.2 0 0 1-.25.14l-.65-.17a4 4 0 0 0-1.27-.21c-1.69 0-2.47 1.08-2.47 2.86s.82 2.93 2.43 2.93a5.81 5.81 0 0 0 1.41-.21l.63-.19a.19.19 0 0 1 .26.13l.44 1.43a.19.19 0 0 1-.15.26zM290.85 269.89a.19.19 0 0 1-.21.21h-2.79v7.12a.19.19 0 0 1-.21.21h-1.71a.19.19 0 0 1-.21-.21v-7.12h-2.8a.19.19 0 0 1-.2-.21v-1.46a.18.18 0 0 1 .2-.21h7.72a.19.19 0 0 1 .21.21zM293 277.43a.19.19 0 0 1-.21-.21v-8.79a.19.19 0 0 1 .21-.21h1.7a.18.18 0 0 1 .2.21v2.69h1.35c2.55 0 4 1.2 4 3.23s-1.27 3.08-3.5 3.08zm3.78-1.88c.88 0 1.41-.44 1.41-1.2s-.72-1.35-1.94-1.35h-1.35v2.55zM308.65 271.83c.93 0 1.48-.82 2-1.56l1.26-1.92a.28.28 0 0 1 .26-.13H314c.17 0 .22.11.15.24l-1.67 2.7a3.81 3.81 0 0 1-1.66 1.48c-.07 0-.09.12 0 .15a4.11 4.11 0 0 1 1.77 1.54l1.75 2.85c.09.14 0 .25-.15.25h-1.89a.32.32 0 0 1-.26-.13l-1.31-2.11c-.53-.8-1.07-1.46-2.11-1.46h-.28v3.49a.19.19 0 0 1-.21.21h-1.7a.19.19 0 0 1-.2-.21v-8.79a.18.18 0 0 1 .2-.21h1.7a.19.19 0 0 1 .21.21v3.4zM324 269.89a.19.19 0 0 1-.21.21H321v7.12a.19.19 0 0 1-.21.21H319a.19.19 0 0 1-.21-.21v-7.12H316a.19.19 0 0 1-.21-.21v-1.46a.19.19 0 0 1 .21-.21h7.71a.19.19 0 0 1 .21.21zM334 272.81c0 3-1.68 4.83-4.37 4.83s-4.39-1.86-4.39-4.83 1.67-4.78 4.39-4.78 4.37 1.86 4.37 4.78zm-6.67 0c0 1.83.85 2.91 2.3 2.91s2.28-1.08 2.28-2.91-.88-2.88-2.28-2.88-2.3 1.07-2.3 2.88zM344.08 268.22c2.06 0 3.31.93 3.31 2.5a1.92 1.92 0 0 1-1.16 1.87c-.21.07-.21.19 0 .26a2.06 2.06 0 0 1 1.52 2c0 1.61-1.27 2.56-3.38 2.56h-4.1a.19.19 0 0 1-.21-.21v-8.79a.19.19 0 0 1 .21-.21zm-1.95 3.66H344c.89 0 1.39-.34 1.39-.93s-.4-.85-1-.85h-2.18zm0 3.67h2.32c.76 0 1.19-.34 1.19-.91s-.55-1-1.54-1h-2zM359.57 277.39a7.07 7.07 0 0 1-1.77.25c-2.9 0-4.5-1.86-4.5-4.83s1.58-4.78 4.56-4.78a5.83 5.83 0 0 1 1.63.22l.82.23a.2.2 0 0 1 .15.27l-.43 1.42a.2.2 0 0 1-.25.14l-.65-.17a4 4 0 0 0-1.27-.21c-1.69 0-2.47 1.08-2.47 2.86s.82 2.93 2.43 2.93a5.81 5.81 0 0 0 1.41-.21l.62-.19a.2.2 0 0 1 .27.13l.44 1.43a.19.19 0 0 1-.15.26zM369.13 277.43a.19.19 0 0 1-.21-.21v-3.57a13.94 13.94 0 0 1 .15-2.39c0-.17-.13-.27-.21-.06l-.57 1.06-2.29 3.65c-.23.44-.47.91-.66 1.35a.23.23 0 0 1-.23.17H363a.19.19 0 0 1-.21-.21v-8.79a.19.19 0 0 1 .21-.21h1.71a.19.19 0 0 1 .21.21V272a14.2 14.2 0 0 1-.19 2.39c0 .15.13.25.23 0s.38-.71.55-1.05l2.28-3.66c.23-.44.47-.93.66-1.37a.23.23 0 0 1 .23-.15h2.17a.19.19 0 0 1 .21.21v8.79a.19.19 0 0 1-.21.21zM381.1 269.89a.19.19 0 0 1-.21.21h-2.8v7.12a.19.19 0 0 1-.2.21h-1.71a.19.19 0 0 1-.21-.21v-7.12h-2.8a.19.19 0 0 1-.21-.21v-1.46a.19.19 0 0 1 .21-.21h7.72a.19.19 0 0 1 .21.21zM387.71 278.44c-.82 2.11-2 3.07-3.86 3.07h-.7a.19.19 0 0 1-.21-.2v-1.47a.19.19 0 0 1 .21-.21h.63a1.56 1.56 0 0 0 1.61-1.12l.29-.66c.34-.82 0-1.84-.65-3.44l-2.6-6c-.08-.15 0-.24.15-.24h1.79a.26.26 0 0 1 .24.15l1.71 3.87a11.92 11.92 0 0 1 .72 2.42c.06.22.25.22.31 0a15.12 15.12 0 0 1 .68-2.42l1.6-3.85a.22.22 0 0 1 .23-.17h1.78c.15 0 .23.09.17.24zM394.63 268.31a7.05 7.05 0 0 1 2.07-.28c2.56 0 4.14 1.33 4.14 3.62v5.57a.19.19 0 0 1-.21.21h-.95a.23.23 0 0 1-.25-.17l-.15-.59c-.11-.27-.23-.27-.48 0a3.31 3.31 0 0 1-2.6 1c-2.11 0-3.28-1.08-3.28-2.87s1.21-2.92 3.45-2.92h2.38v-.12c0-1.16-.74-1.79-2.15-1.79a5 5 0 0 0-1.48.2l-.69.2a.19.19 0 0 1-.26-.15l-.42-1.4a.2.2 0 0 1 .15-.27zm1.74 5.19c-.93 0-1.37.43-1.37 1.08s.52 1.2 1.43 1.2c1.5 0 2.32-.74 2.32-2.15v-.13zM412 275.55a.19.19 0 0 1 .21.21v4.42a.19.19 0 0 1-.21.21h-1.54a.19.19 0 0 1-.21-.21v-2.75h-6.84a.19.19 0 0 1-.21-.21v-8.79a.19.19 0 0 1 .21-.21h1.71a.19.19 0 0 1 .21.21v7.12H409v-7.12a.19.19 0 0 1 .21-.21h1.69a.19.19 0 0 1 .21.21v7.12zM420.58 277.43a.19.19 0 0 1-.21-.21v-3.57a13.94 13.94 0 0 1 .15-2.39c0-.17-.13-.27-.21-.06l-.57 1.06-2.28 3.65c-.23.44-.47.91-.66 1.35a.23.23 0 0 1-.23.17h-2.15a.19.19 0 0 1-.21-.21v-8.79a.19.19 0 0 1 .21-.21h1.71a.19.19 0 0 1 .21.21V272a14.2 14.2 0 0 1-.19 2.39c0 .15.13.25.23 0s.38-.71.55-1.05l2.28-3.66c.23-.44.47-.93.66-1.37a.23.23 0 0 1 .23-.15h2.17a.19.19 0 0 1 .21.21v8.79a.19.19 0 0 1-.21.21zM431.37 277.43a.19.19 0 0 1-.21-.21v-3.57a13.94 13.94 0 0 1 .15-2.39c0-.17-.13-.27-.21-.06l-.57 1.06-2.28 3.65c-.22.44-.47.91-.66 1.35a.23.23 0 0 1-.23.17h-2.15a.19.19 0 0 1-.21-.21v-8.79a.19.19 0 0 1 .21-.21h1.71a.19.19 0 0 1 .21.21V272a13.23 13.23 0 0 1-.19 2.39c0 .15.14.25.23 0s.38-.71.55-1.05l2.28-3.66c.23-.44.48-.93.67-1.37a.21.21 0 0 1 .22-.15h2.17a.19.19 0 0 1 .21.21v8.79a.19.19 0 0 1-.21.21zM447.21 265.25a.18.18 0 0 1-.13.25l-3 .93a3.33 3.33 0 0 0-2.52 2.75c-.1.31.09.42.3.23a3.56 3.56 0 0 1 2.47-.87c2.43 0 4 1.71 4 4.52s-1.71 4.56-4.39 4.56-4.37-1.73-4.37-4.54V270c0-2.89 1.23-4.6 3.93-5.43l3-.93a.2.2 0 0 1 .27.15zm-5.54 7.83c0 1.65.87 2.64 2.3 2.64s2.28-1 2.28-2.64-.86-2.64-2.28-2.64-2.3.97-2.3 2.64zM454.7 278.44c-.82 2.11-2 3.07-3.86 3.07h-.7a.19.19 0 0 1-.21-.2v-1.47a.19.19 0 0 1 .21-.21h.63a1.55 1.55 0 0 0 1.61-1.12l.29-.66c.34-.82 0-1.84-.65-3.44l-2.6-6c-.08-.15 0-.24.15-.24h1.79a.27.27 0 0 1 .25.15l1.7 3.87a12 12 0 0 1 .73 2.42c0 .22.24.22.3 0a15.12 15.12 0 0 1 .68-2.42l1.6-3.85a.22.22 0 0 1 .23-.17h1.78c.16 0 .23.09.17.24zM468.59 277.22a.19.19 0 0 1-.21.21h-1.69a.19.19 0 0 1-.21-.21v-7.12h-3v2.77a4.52 4.52 0 0 1-2.58 4.52l-.55.27a.2.2 0 0 1-.29-.1l-.62-1.35c-.06-.13 0-.22.09-.28l.55-.27c.87-.47 1.29-1.35 1.29-2.79v-4.44a.19.19 0 0 1 .21-.21h6.82a.19.19 0 0 1 .21.21zM479.44 277.22a.19.19 0 0 1-.21.21h-1.69a.19.19 0 0 1-.21-.21v-7.12h-3v2.77a4.52 4.52 0 0 1-2.58 4.52l-.56.27a.19.19 0 0 1-.28-.1l-.63-1.35c-.05-.13 0-.22.1-.28l.55-.27c.87-.47 1.29-1.35 1.29-2.79v-4.44a.19.19 0 0 1 .21-.21h6.82a.19.19 0 0 1 .21.21zM488.35 277.43a.19.19 0 0 1-.21-.21v-3.57a13.94 13.94 0 0 1 .15-2.39c0-.17-.13-.27-.21-.06l-.57 1.06-2.27 3.65c-.23.44-.48.91-.67 1.35a.23.23 0 0 1-.23.17h-2.14a.19.19 0 0 1-.21-.21v-8.79a.19.19 0 0 1 .21-.21h1.71a.18.18 0 0 1 .2.21V272a13.23 13.23 0 0 1-.19 2.39c0 .15.14.25.23 0s.38-.71.55-1.05l2.28-3.66c.23-.44.48-.93.67-1.37a.22.22 0 0 1 .23-.15H490a.19.19 0 0 1 .21.21v8.79a.19.19 0 0 1-.21.21zM500.7 277.22a.19.19 0 0 1-.21.21h-1.71a.19.19 0 0 1-.21-.21v-3.51h-3.68v3.51a.19.19 0 0 1-.21.21H493a.19.19 0 0 1-.21-.21v-8.79a.19.19 0 0 1 .21-.21h1.69a.19.19 0 0 1 .21.21v3.4h3.68v-3.4a.19.19 0 0 1 .21-.21h1.71a.19.19 0 0 1 .21.21zM505.36 277.22a.19.19 0 0 1-.21.21h-1.69a.19.19 0 0 1-.21-.21v-8.79a.19.19 0 0 1 .21-.21h6.17c.15 0 .23.09.17.22l-.42 1.49a.22.22 0 0 1-.24.17h-3.78zM512.59 268.31a7.17 7.17 0 0 1 2.08-.28c2.56 0 4.14 1.33 4.14 3.62v5.57a.19.19 0 0 1-.21.21h-1a.23.23 0 0 1-.25-.17l-.15-.59c-.12-.27-.23-.27-.48 0a3.31 3.31 0 0 1-2.6 1c-2.11 0-3.29-1.08-3.29-2.87s1.22-2.92 3.46-2.92h2.38v-.12c0-1.16-.74-1.79-2.15-1.79a4.91 4.91 0 0 0-1.48.2l-.69.2a.19.19 0 0 1-.26-.15l-.42-1.4a.2.2 0 0 1 .15-.27zm1.75 5.19c-.93 0-1.37.43-1.37 1.08s.52 1.2 1.43 1.2c1.5 0 2.32-.74 2.32-2.15v-.13zM521.37 264.46a10.22 10.22 0 0 1 3.1-.5c2.85 0 4.41 1.33 4.41 3.48a3.67 3.67 0 0 1-1.88 3.11l-1 .74a1.78 1.78 0 0 0-.76 1.43v1a.19.19 0 0 1-.21.21h-1.71a.19.19 0 0 1-.21-.21v-1a3.44 3.44 0 0 1 1.66-3l1.08-.74a1.76 1.76 0 0 0 1-1.5c0-.84-1-1.45-2.28-1.45a8.67 8.67 0 0 0-2.45.38l-1.1.36a.21.21 0 0 1-.27-.13l-.53-1.52c-.06-.11 0-.21.13-.24zm4.18 11.83a1.32 1.32 0 1 1-2.64 0 1.32 1.32 0 1 1 2.64 0z"/><path class="cls-11" d="M236.83 292.5a.18.18 0 0 1 .2.2v1.39a.18.18 0 0 1-.2.19h-9.29a.18.18 0 0 1-.2-.19v-1.39a.18.18 0 0 1 .2-.2z"/><path class="cls-11" d="M246 292.5a.18.18 0 0 1 .2.2v1.39a.18.18 0 0 1-.2.19h-9.29a.18.18 0 0 1-.2-.19v-1.39a.18.18 0 0 1 .2-.2z"/><path class="cls-11" d="M255.23 292.5a.18.18 0 0 1 .2.2v1.39a.18.18 0 0 1-.2.19h-9.29a.18.18 0 0 1-.2-.19v-1.39a.18.18 0 0 1 .2-.2z"/><path class="cls-11" d="M264.43 292.5a.18.18 0 0 1 .19.2v1.39a.17.17 0 0 1-.19.19h-9.3a.17.17 0 0 1-.19-.19v-1.39a.18.18 0 0 1 .19-.2z"/><path class="cls-11" d="M273.62 292.5a.18.18 0 0 1 .2.2v1.39a.18.18 0 0 1-.2.19h-9.29a.18.18 0 0 1-.2-.19v-1.39a.18.18 0 0 1 .2-.2z"/><path class="cls-11" d="M282.82 292.5a.18.18 0 0 1 .2.2v1.39a.18.18 0 0 1-.2.19h-9.29a.18.18 0 0 1-.2-.19v-1.39a.18.18 0 0 1 .2-.2z"/><path class="cls-11" d="M292 292.5a.18.18 0 0 1 .2.2v1.39a.18.18 0 0 1-.2.19h-9.29a.18.18 0 0 1-.2-.19v-1.39a.18.18 0 0 1 .2-.2z"/><path class="cls-11" d="M301.22 292.5a.18.18 0 0 1 .2.2v1.39a.18.18 0 0 1-.2.19h-9.29a.18.18 0 0 1-.2-.19v-1.39a.18.18 0 0 1 .2-.2z"/><path class="cls-11" d="M310.42 292.5a.18.18 0 0 1 .19.2v1.39a.17.17 0 0 1-.19.19h-9.3a.17.17 0 0 1-.19-.19v-1.39a.18.18 0 0 1 .19-.2z"/><path class="cls-11" d="M319.61 292.5a.18.18 0 0 1 .2.2v1.39a.18.18 0 0 1-.2.19h-9.29a.18.18 0 0 1-.2-.19v-1.39a.18.18 0 0 1 .2-.2z"/><path class="cls-11" d="M328.81 292.5a.18.18 0 0 1 .2.2v1.39a.18.18 0 0 1-.2.19h-9.29a.18.18 0 0 1-.2-.19v-1.39a.18.18 0 0 1 .2-.2z"/><path class="cls-11" d="M338 292.5a.18.18 0 0 1 .2.2v1.39a.18.18 0 0 1-.2.19h-9.29a.18.18 0 0 1-.2-.19v-1.39a.18.18 0 0 1 .2-.2z"/><path class="cls-11" d="M347.21 292.5a.18.18 0 0 1 .19.2v1.39a.17.17 0 0 1-.19.19h-9.29a.18.18 0 0 1-.2-.19v-1.39a.18.18 0 0 1 .2-.2z"/><path class="cls-11" d="M356.4 292.5a.18.18 0 0 1 .2.2v1.39a.18.18 0 0 1-.2.19h-9.29a.17.17 0 0 1-.19-.19v-1.39a.18.18 0 0 1 .19-.2z"/><path class="cls-11" d="M365.6 292.5a.18.18 0 0 1 .2.2v1.39a.18.18 0 0 1-.2.19h-9.29a.18.18 0 0 1-.2-.19v-1.39a.18.18 0 0 1 .2-.2z"/><path class="cls-11" d="M374.8 292.5a.18.18 0 0 1 .2.2v1.39a.18.18 0 0 1-.2.19h-9.29a.18.18 0 0 1-.2-.19v-1.39a.18.18 0 0 1 .2-.2z"/><path class="cls-11" d="M384 292.5a.18.18 0 0 1 .2.2v1.39a.18.18 0 0 1-.2.19h-9.29a.18.18 0 0 1-.2-.19v-1.39a.18.18 0 0 1 .2-.2z"/><path class="cls-11" d="M393.2 292.5a.18.18 0 0 1 .19.2v1.39a.17.17 0 0 1-.19.19h-9.3a.17.17 0 0 1-.19-.19v-1.39a.18.18 0 0 1 .19-.2z"/><path class="cls-11" d="M402.39 292.5a.18.18 0 0 1 .2.2v1.39a.18.18 0 0 1-.2.19h-9.29a.18.18 0 0 1-.2-.19v-1.39a.18.18 0 0 1 .2-.2z"/><path class="cls-11" d="M411.59 292.5a.18.18 0 0 1 .2.2v1.39a.18.18 0 0 1-.2.19h-9.29a.18.18 0 0 1-.2-.19v-1.39a.18.18 0 0 1 .2-.2z"/><path class="cls-11" d="M420.79 292.5a.18.18 0 0 1 .2.2v1.39a.18.18 0 0 1-.2.19h-9.29a.18.18 0 0 1-.2-.19v-1.39a.18.18 0 0 1 .2-.2z"/><path class="cls-11" d="M430 292.5a.18.18 0 0 1 .19.2v1.39a.17.17 0 0 1-.19.19h-9.3a.18.18 0 0 1-.2-.19v-1.39a.18.18 0 0 1 .2-.2z"/><path class="cls-11" d="M439.18 292.5a.18.18 0 0 1 .2.2v1.39a.18.18 0 0 1-.2.19h-9.29a.18.18 0 0 1-.2-.19v-1.39a.18.18 0 0 1 .2-.2z"/><path class="cls-11" d="M448.38 292.5a.18.18 0 0 1 .2.2v1.39a.18.18 0 0 1-.2.19h-9.29a.18.18 0 0 1-.2-.19v-1.39a.18.18 0 0 1 .2-.2z"/><path class="cls-11" d="M457.58 292.5a.18.18 0 0 1 .2.2v1.39a.18.18 0 0 1-.2.19h-9.29a.18.18 0 0 1-.2-.19v-1.39a.18.18 0 0 1 .2-.2z"/><path class="cls-11" d="M466.78 292.5a.18.18 0 0 1 .2.2v1.39a.18.18 0 0 1-.2.19h-9.29a.18.18 0 0 1-.2-.19v-1.39a.18.18 0 0 1 .2-.2z"/><path class="cls-11" d="M476 292.5a.18.18 0 0 1 .2.2v1.39a.18.18 0 0 1-.2.19h-9.29a.17.17 0 0 1-.19-.19v-1.39a.18.18 0 0 1 .19-.2z"/><path class="cls-11" d="M485.17 292.5a.18.18 0 0 1 .2.2v1.39a.18.18 0 0 1-.2.19h-9.29a.18.18 0 0 1-.2-.19v-1.39a.18.18 0 0 1 .2-.2z"/><path class="cls-11" d="M494.37 292.5a.18.18 0 0 1 .2.2v1.39a.18.18 0 0 1-.2.19h-9.29a.18.18 0 0 1-.2-.19v-1.39a.18.18 0 0 1 .2-.2z"/><path class="cls-11" d="M503.57 292.5a.18.18 0 0 1 .2.2v1.39a.18.18 0 0 1-.2.19h-9.29a.18.18 0 0 1-.2-.19v-1.39a.18.18 0 0 1 .2-.2z"/><path class="cls-11" d="M512.77 292.5a.18.18 0 0 1 .19.2v1.39a.17.17 0 0 1-.19.19h-9.3a.17.17 0 0 1-.19-.19v-1.39a.18.18 0 0 1 .19-.2z"/><path class="cls-11" d="M522 292.5a.18.18 0 0 1 .2.2v1.39a.18.18 0 0 1-.2.19h-9.29a.18.18 0 0 1-.2-.19v-1.39a.18.18 0 0 1 .2-.2z"/><path class="cls-11" d="M531.16 292.5a.18.18 0 0 1 .2.2v1.39a.18.18 0 0 1-.2.19h-9.29a.18.18 0 0 1-.2-.19v-1.39a.18.18 0 0 1 .2-.2z"/><path class="cls-11" d="M540.36 292.5a.18.18 0 0 1 .2.2v1.39a.18.18 0 0 1-.2.19h-9.29a.18.18 0 0 1-.2-.19v-1.39a.18.18 0 0 1 .2-.2z"/><path class="cls-11" d="M549.56 292.5a.18.18 0 0 1 .19.2v1.39a.17.17 0 0 1-.19.19h-9.29a.18.18 0 0 1-.2-.19v-1.39a.18.18 0 0 1 .2-.2z"/><path class="cls-11" d="M558.75 292.5a.18.18 0 0 1 .2.2v1.39a.18.18 0 0 1-.2.19h-9.29a.18.18 0 0 1-.2-.19v-1.39a.18.18 0 0 1 .2-.2z"/><path class="cls-10" d="M239.13 316.22a.19.19 0 0 1-.21.21h-1.73a.19.19 0 0 1-.21-.21v-11.15h-5.79v11.15a.19.19 0 0 1-.21.21h-1.73a.19.19 0 0 1-.21-.21v-12.86a.19.19 0 0 1 .21-.21h9.67a.19.19 0 0 1 .21.21zM250.17 311.81c0 3-1.67 4.83-4.37 4.83s-4.39-1.86-4.39-4.83 1.67-4.78 4.39-4.78 4.37 1.86 4.37 4.78zm-6.67 0c0 1.83.85 2.91 2.3 2.91s2.28-1.08 2.28-2.91-.88-2.88-2.28-2.88-2.3 1.07-2.3 2.88zM259.65 316.22a.19.19 0 0 1-.21.21h-1.69a.19.19 0 0 1-.21-.21V313l-.51.15a7.22 7.22 0 0 1-1.79.25c-2.11 0-3.34-1.16-3.34-3.14v-2.86a.19.19 0 0 1 .21-.21h1.69a.19.19 0 0 1 .21.21v2.64a1.36 1.36 0 0 0 1.52 1.46 4.82 4.82 0 0 0 1.14-.15l.87-.27v-3.68a.19.19 0 0 1 .21-.21h1.69a.19.19 0 0 1 .21.21zM268.16 316.39a8 8 0 0 1-1.94.25c-2.87 0-4.48-1.86-4.48-4.81s1.63-4.8 4.41-4.8c2.28 0 3.66 1.14 3.66 3 0 1.46-.89 2.3-2.79 2.58l-3 .46a2 2 0 0 0 2.16 1.63 5.28 5.28 0 0 0 1.51-.19l.83-.21a.2.2 0 0 1 .27.15l.38 1.43a.19.19 0 0 1-.16.26zM266.7 311c.66-.12 1-.42 1-.91 0-.76-.59-1.16-1.61-1.16-1.25 0-2.11.78-2.26 2.52zM281.65 316.22a.19.19 0 0 1-.21.21h-1.69a.19.19 0 0 1-.21-.21v-2.79a27.25 27.25 0 0 1 .15-3.23c0-.17-.13-.23-.19-.06-.15.33-.28.67-.41 1l-1.09 2.4a10.39 10.39 0 0 0-.36 1c0 .11-.09.17-.23.17h-1.25a.21.21 0 0 1-.23-.17 7.87 7.87 0 0 0-.36-1l-1.1-2.41-.42-1c0-.17-.23-.11-.19.06a23.47 23.47 0 0 1 .17 3.23v2.79a.19.19 0 0 1-.21.21h-1.69a.19.19 0 0 1-.21-.21v-8.79a.19.19 0 0 1 .21-.21h2.47c.14 0 .21 0 .23.19a5.92 5.92 0 0 0 .31.89l1.08 2.39c.17.48.4 1.22.47 1.54 0 .17.16.17.19 0 .08-.32.33-1.06.48-1.54l1.1-2.39a5.83 5.83 0 0 0 .3-.89.2.2 0 0 1 .23-.19h2.47a.19.19 0 0 1 .21.21zM288.85 317.44c-.81 2.11-2 3.07-3.85 3.07h-.71a.19.19 0 0 1-.21-.2v-1.47a.19.19 0 0 1 .21-.21h.63a1.55 1.55 0 0 0 1.61-1.12l.29-.66c.34-.82 0-1.84-.65-3.44l-2.6-6c-.07-.15 0-.24.15-.24h1.79a.27.27 0 0 1 .25.15l1.7 3.87a12 12 0 0 1 .73 2.42c.05.22.24.22.3 0a15.12 15.12 0 0 1 .68-2.42l1.6-3.85a.22.22 0 0 1 .23-.17h1.78c.16 0 .23.09.18.24zM306.27 304.25a.19.19 0 0 1-.13.25l-3 .93a3.36 3.36 0 0 0-2.53 2.75c-.09.31.1.42.31.23a3.54 3.54 0 0 1 2.47-.87c2.43 0 4 1.71 4 4.52s-1.71 4.56-4.38 4.56-4.37-1.73-4.37-4.54V309c0-2.89 1.23-4.6 3.93-5.43l3-.93a.2.2 0 0 1 .27.15zm-5.54 7.83c0 1.65.87 2.64 2.3 2.64s2.27-1 2.27-2.64-.85-2.64-2.27-2.64-2.3.97-2.3 2.64zM313.76 317.44c-.82 2.11-2 3.07-3.86 3.07h-.7a.19.19 0 0 1-.21-.2v-1.47a.19.19 0 0 1 .21-.21h.63a1.56 1.56 0 0 0 1.61-1.12l.29-.66c.34-.82 0-1.84-.65-3.44l-2.6-6c-.08-.15 0-.24.15-.24h1.79a.25.25 0 0 1 .24.15l1.71 3.87a12.66 12.66 0 0 1 .73 2.42c0 .22.24.22.3 0a15.12 15.12 0 0 1 .68-2.42l1.6-3.85a.22.22 0 0 1 .23-.17h1.78c.15 0 .23.09.17.24zM327.65 316.22a.19.19 0 0 1-.21.21h-1.69a.19.19 0 0 1-.21-.21v-7.12h-3v2.77a4.52 4.52 0 0 1-2.58 4.52l-.56.27a.19.19 0 0 1-.28-.1l-.63-1.35c-.05-.13 0-.22.1-.28l.55-.27c.87-.47 1.29-1.35 1.29-2.79v-4.44a.19.19 0 0 1 .21-.21h6.82a.19.19 0 0 1 .21.21zM338.5 316.22a.19.19 0 0 1-.21.21h-1.69a.19.19 0 0 1-.21-.21v-7.12h-3v2.77a4.51 4.51 0 0 1-2.59 4.52l-.55.27a.19.19 0 0 1-.28-.1l-.63-1.35c-.06-.13 0-.22.1-.28l.55-.27c.87-.47 1.29-1.35 1.29-2.79v-4.44a.19.19 0 0 1 .21-.21h6.82a.19.19 0 0 1 .21.21zM347.41 316.43a.19.19 0 0 1-.21-.21v-3.57a13.94 13.94 0 0 1 .15-2.39c0-.17-.13-.27-.21-.06l-.57 1.06-2.28 3.65c-.22.44-.47.91-.66 1.35a.23.23 0 0 1-.23.17h-2.15a.19.19 0 0 1-.21-.21v-8.79a.19.19 0 0 1 .21-.21H343a.19.19 0 0 1 .21.21V311a13.23 13.23 0 0 1-.19 2.39c0 .15.14.25.23 0s.38-.71.55-1.05l2.28-3.66c.23-.44.48-.93.67-1.37a.21.21 0 0 1 .22-.15h2.17a.19.19 0 0 1 .21.21v8.79a.19.19 0 0 1-.21.21zM359.76 316.22a.19.19 0 0 1-.21.21h-1.71a.19.19 0 0 1-.21-.21v-3.51H354v3.51a.19.19 0 0 1-.21.21h-1.69a.19.19 0 0 1-.21-.21v-8.79a.19.19 0 0 1 .21-.21h1.69a.19.19 0 0 1 .21.21v3.4h3.68v-3.4a.19.19 0 0 1 .21-.21h1.71a.19.19 0 0 1 .21.21zM364.42 316.22a.19.19 0 0 1-.21.21h-1.7a.19.19 0 0 1-.2-.21v-8.79a.18.18 0 0 1 .2-.21h6.18c.15 0 .23.09.17.22l-.42 1.49a.23.23 0 0 1-.24.17h-3.78zM385 310.52a.19.19 0 0 1 .21.21v1.46a.19.19 0 0 1-.21.21h-9.8a.19.19 0 0 1-.21-.21v-1.46a.19.19 0 0 1 .21-.21zM392.59 307.25a6.56 6.56 0 0 1 1.64-.22c3 0 4.56 1.84 4.56 4.78s-1.62 4.83-4.53 4.83a6.05 6.05 0 0 1-1.74-.25l-.84-.25a.19.19 0 0 1-.15-.26l.43-1.43a.19.19 0 0 1 .25-.13l.65.19a5.58 5.58 0 0 0 1.38.21 2.22 2.22 0 0 0 2.38-2.07h-3.44a.19.19 0 0 1-.21-.21v-1.35a.19.19 0 0 1 .21-.21h3.44a2.21 2.21 0 0 0-2.39-1.95 4 4 0 0 0-1.28.21l-.64.17a.19.19 0 0 1-.25-.14l-.46-1.42a.21.21 0 0 1 .16-.27zM408.19 308.89a.19.19 0 0 1-.21.21h-2.79v7.12a.19.19 0 0 1-.21.21h-1.71a.19.19 0 0 1-.21-.21v-7.12h-2.79a.19.19 0 0 1-.21-.21v-1.46a.19.19 0 0 1 .21-.21H408a.19.19 0 0 1 .21.21zM418.22 311.81c0 3-1.67 4.83-4.37 4.83s-4.39-1.86-4.39-4.83 1.67-4.78 4.39-4.78 4.37 1.86 4.37 4.78zm-6.67 0c0 1.83.86 2.91 2.3 2.91s2.28-1.08 2.28-2.91-.87-2.88-2.28-2.88-2.3 1.07-2.3 2.88zM432.57 311.81c0 3-1.68 4.83-4.37 4.83s-4.39-1.86-4.39-4.83 1.67-4.78 4.39-4.78 4.37 1.86 4.37 4.78zm-6.67 0c0 1.83.85 2.91 2.3 2.91s2.28-1.08 2.28-2.91-.88-2.88-2.28-2.88-2.3 1.07-2.3 2.88zM442.48 316.22a.19.19 0 0 1-.2.21h-1.71a.19.19 0 0 1-.21-.21v-7.12h-3.59v7.12a.19.19 0 0 1-.21.21h-1.69a.19.19 0 0 1-.21-.21v-8.79a.19.19 0 0 1 .21-.21h7.41a.18.18 0 0 1 .2.21zM446.17 307.31a7.1 7.1 0 0 1 2.07-.28c2.57 0 4.14 1.33 4.14 3.62v5.57a.19.19 0 0 1-.21.21h-.95a.23.23 0 0 1-.24-.17l-.15-.59c-.12-.27-.23-.27-.48 0a3.33 3.33 0 0 1-2.6 1c-2.11 0-3.29-1.08-3.29-2.87s1.22-2.92 3.46-2.92h2.37v-.12c0-1.16-.74-1.79-2.14-1.79a4.91 4.91 0 0 0-1.48.2l-.69.2a.2.2 0 0 1-.27-.15l-.41-1.4a.2.2 0 0 1 .15-.27zm1.75 5.19c-.93 0-1.37.43-1.37 1.08s.51 1.2 1.43 1.2c1.5 0 2.31-.74 2.31-2.15v-.13zM460.61 316.39a7.07 7.07 0 0 1-1.77.25c-2.9 0-4.5-1.86-4.5-4.83s1.58-4.78 4.56-4.78a5.78 5.78 0 0 1 1.63.22l.82.23a.2.2 0 0 1 .15.27l-.43 1.42a.2.2 0 0 1-.25.14l-.65-.17a4 4 0 0 0-1.27-.21c-1.69 0-2.47 1.08-2.47 2.86s.82 2.93 2.43 2.93a5.81 5.81 0 0 0 1.41-.21l.63-.19a.19.19 0 0 1 .26.13l.44 1.43a.19.19 0 0 1-.15.26zM471.72 316.22a.19.19 0 0 1-.2.21h-1.71a.19.19 0 0 1-.21-.21v-3.51h-3.69v3.51a.19.19 0 0 1-.21.21H464a.19.19 0 0 1-.21-.21v-8.79a.19.19 0 0 1 .21-.21h1.69a.19.19 0 0 1 .21.21v3.4h3.69v-3.4a.19.19 0 0 1 .21-.21h1.71a.18.18 0 0 1 .2.21zM482.57 311.81c0 3-1.67 4.83-4.37 4.83s-4.38-1.86-4.38-4.83 1.67-4.78 4.38-4.78 4.37 1.86 4.37 4.78zm-6.66 0c0 1.83.85 2.91 2.29 2.91s2.28-1.08 2.28-2.91-.87-2.88-2.28-2.88-2.29 1.07-2.29 2.88zM484.51 303.46a10.22 10.22 0 0 1 3.1-.5c2.85 0 4.41 1.33 4.41 3.48a3.67 3.67 0 0 1-1.88 3.11l-1.05.74a1.78 1.78 0 0 0-.76 1.43v1a.19.19 0 0 1-.21.21h-1.71a.19.19 0 0 1-.21-.21v-1a3.44 3.44 0 0 1 1.66-3l1.08-.74a1.76 1.76 0 0 0 .95-1.5c0-.84-.95-1.45-2.28-1.45a8.67 8.67 0 0 0-2.45.38l-1.1.36a.21.21 0 0 1-.27-.13l-.53-1.52c-.06-.11 0-.21.13-.24zm4.18 11.83a1.32 1.32 0 1 1-2.64 0 1.32 1.32 0 1 1 2.64 0z"/><path class="cls-11" d="M236.83 331.5a.18.18 0 0 1 .2.2v1.39a.18.18 0 0 1-.2.19h-9.29a.18.18 0 0 1-.2-.19v-1.39a.18.18 0 0 1 .2-.2z"/><path class="cls-11" d="M246 331.5a.18.18 0 0 1 .2.2v1.39a.18.18 0 0 1-.2.19h-9.29a.18.18 0 0 1-.2-.19v-1.39a.18.18 0 0 1 .2-.2z"/><path class="cls-11" d="M255.23 331.5a.18.18 0 0 1 .2.2v1.39a.18.18 0 0 1-.2.19h-9.29a.18.18 0 0 1-.2-.19v-1.39a.18.18 0 0 1 .2-.2z"/><path class="cls-11" d="M264.43 331.5a.18.18 0 0 1 .19.2v1.39a.17.17 0 0 1-.19.19h-9.3a.17.17 0 0 1-.19-.19v-1.39a.18.18 0 0 1 .19-.2z"/><path class="cls-11" d="M273.62 331.5a.18.18 0 0 1 .2.2v1.39a.18.18 0 0 1-.2.19h-9.29a.18.18 0 0 1-.2-.19v-1.39a.18.18 0 0 1 .2-.2z"/><path class="cls-11" d="M282.82 331.5a.18.18 0 0 1 .2.2v1.39a.18.18 0 0 1-.2.19h-9.29a.18.18 0 0 1-.2-.19v-1.39a.18.18 0 0 1 .2-.2z"/><path class="cls-11" d="M292 331.5a.18.18 0 0 1 .2.2v1.39a.18.18 0 0 1-.2.19h-9.29a.18.18 0 0 1-.2-.19v-1.39a.18.18 0 0 1 .2-.2z"/><path class="cls-11" d="M301.22 331.5a.18.18 0 0 1 .2.2v1.39a.18.18 0 0 1-.2.19h-9.29a.18.18 0 0 1-.2-.19v-1.39a.18.18 0 0 1 .2-.2z"/><path class="cls-11" d="M310.42 331.5a.18.18 0 0 1 .19.2v1.39a.17.17 0 0 1-.19.19h-9.3a.17.17 0 0 1-.19-.19v-1.39a.18.18 0 0 1 .19-.2z"/><path class="cls-11" d="M319.61 331.5a.18.18 0 0 1 .2.2v1.39a.18.18 0 0 1-.2.19h-9.29a.18.18 0 0 1-.2-.19v-1.39a.18.18 0 0 1 .2-.2z"/><path class="cls-11" d="M328.81 331.5a.18.18 0 0 1 .2.2v1.39a.18.18 0 0 1-.2.19h-9.29a.18.18 0 0 1-.2-.19v-1.39a.18.18 0 0 1 .2-.2z"/><path class="cls-11" d="M338 331.5a.18.18 0 0 1 .2.2v1.39a.18.18 0 0 1-.2.19h-9.29a.18.18 0 0 1-.2-.19v-1.39a.18.18 0 0 1 .2-.2z"/><path class="cls-11" d="M347.21 331.5a.18.18 0 0 1 .19.2v1.39a.17.17 0 0 1-.19.19h-9.29a.18.18 0 0 1-.2-.19v-1.39a.18.18 0 0 1 .2-.2z"/><path class="cls-11" d="M356.4 331.5a.18.18 0 0 1 .2.2v1.39a.18.18 0 0 1-.2.19h-9.29a.17.17 0 0 1-.19-.19v-1.39a.18.18 0 0 1 .19-.2z"/><path class="cls-11" d="M365.6 331.5a.18.18 0 0 1 .2.2v1.39a.18.18 0 0 1-.2.19h-9.29a.18.18 0 0 1-.2-.19v-1.39a.18.18 0 0 1 .2-.2z"/><path class="cls-11" d="M374.8 331.5a.18.18 0 0 1 .2.2v1.39a.18.18 0 0 1-.2.19h-9.29a.18.18 0 0 1-.2-.19v-1.39a.18.18 0 0 1 .2-.2z"/><path class="cls-11" d="M384 331.5a.18.18 0 0 1 .2.2v1.39a.18.18 0 0 1-.2.19h-9.29a.18.18 0 0 1-.2-.19v-1.39a.18.18 0 0 1 .2-.2z"/><path class="cls-11" d="M393.2 331.5a.18.18 0 0 1 .19.2v1.39a.17.17 0 0 1-.19.19h-9.3a.17.17 0 0 1-.19-.19v-1.39a.18.18 0 0 1 .19-.2z"/><path class="cls-11" d="M402.39 331.5a.18.18 0 0 1 .2.2v1.39a.18.18 0 0 1-.2.19h-9.29a.18.18 0 0 1-.2-.19v-1.39a.18.18 0 0 1 .2-.2z"/><path class="cls-11" d="M411.59 331.5a.18.18 0 0 1 .2.2v1.39a.18.18 0 0 1-.2.19h-9.29a.18.18 0 0 1-.2-.19v-1.39a.18.18 0 0 1 .2-.2z"/><path class="cls-11" d="M420.79 331.5a.18.18 0 0 1 .2.2v1.39a.18.18 0 0 1-.2.19h-9.29a.18.18 0 0 1-.2-.19v-1.39a.18.18 0 0 1 .2-.2z"/><path class="cls-11" d="M430 331.5a.18.18 0 0 1 .19.2v1.39a.17.17 0 0 1-.19.19h-9.3a.18.18 0 0 1-.2-.19v-1.39a.18.18 0 0 1 .2-.2z"/><path class="cls-11" d="M439.18 331.5a.18.18 0 0 1 .2.2v1.39a.18.18 0 0 1-.2.19h-9.29a.18.18 0 0 1-.2-.19v-1.39a.18.18 0 0 1 .2-.2z"/><path class="cls-11" d="M448.38 331.5a.18.18 0 0 1 .2.2v1.39a.18.18 0 0 1-.2.19h-9.29a.18.18 0 0 1-.2-.19v-1.39a.18.18 0 0 1 .2-.2z"/><path class="cls-11" d="M457.58 331.5a.18.18 0 0 1 .2.2v1.39a.18.18 0 0 1-.2.19h-9.29a.18.18 0 0 1-.2-.19v-1.39a.18.18 0 0 1 .2-.2z"/><path class="cls-11" d="M466.78 331.5a.18.18 0 0 1 .2.2v1.39a.18.18 0 0 1-.2.19h-9.29a.18.18 0 0 1-.2-.19v-1.39a.18.18 0 0 1 .2-.2z"/><path class="cls-11" d="M476 331.5a.18.18 0 0 1 .2.2v1.39a.18.18 0 0 1-.2.19h-9.29a.17.17 0 0 1-.19-.19v-1.39a.18.18 0 0 1 .19-.2z"/><path class="cls-11" d="M485.17 331.5a.18.18 0 0 1 .2.2v1.39a.18.18 0 0 1-.2.19h-9.29a.18.18 0 0 1-.2-.19v-1.39a.18.18 0 0 1 .2-.2z"/><path class="cls-11" d="M494.37 331.5a.18.18 0 0 1 .2.2v1.39a.18.18 0 0 1-.2.19h-9.29a.18.18 0 0 1-.2-.19v-1.39a.18.18 0 0 1 .2-.2z"/><path class="cls-11" d="M503.57 331.5a.18.18 0 0 1 .2.2v1.39a.18.18 0 0 1-.2.19h-9.29a.18.18 0 0 1-.2-.19v-1.39a.18.18 0 0 1 .2-.2z"/><path class="cls-11" d="M512.77 331.5a.18.18 0 0 1 .19.2v1.39a.17.17 0 0 1-.19.19h-9.3a.17.17 0 0 1-.19-.19v-1.39a.18.18 0 0 1 .19-.2z"/><path class="cls-11" d="M522 331.5a.18.18 0 0 1 .2.2v1.39a.18.18 0 0 1-.2.19h-9.29a.18.18 0 0 1-.2-.19v-1.39a.18.18 0 0 1 .2-.2z"/><path class="cls-11" d="M531.16 331.5a.18.18 0 0 1 .2.2v1.39a.18.18 0 0 1-.2.19h-9.29a.18.18 0 0 1-.2-.19v-1.39a.18.18 0 0 1 .2-.2z"/><path class="cls-11" d="M540.36 331.5a.18.18 0 0 1 .2.2v1.39a.18.18 0 0 1-.2.19h-9.29a.18.18 0 0 1-.2-.19v-1.39a.18.18 0 0 1 .2-.2z"/><path class="cls-11" d="M549.56 331.5a.18.18 0 0 1 .19.2v1.39a.17.17 0 0 1-.19.19h-9.29a.18.18 0 0 1-.2-.19v-1.39a.18.18 0 0 1 .2-.2z"/><path class="cls-11" d="M558.75 331.5a.18.18 0 0 1 .2.2v1.39a.18.18 0 0 1-.2.19h-9.29a.18.18 0 0 1-.2-.19v-1.39a.18.18 0 0 1 .2-.2z"/><path class="cls-10" d="M234.72 355.22a.19.19 0 0 1-.21.21h-1.75a.19.19 0 0 1-.2-.21v-11.15h-4a.19.19 0 0 1-.21-.21v-1.5a.19.19 0 0 1 .21-.21h10.24a.19.19 0 0 1 .21.21v1.5a.19.19 0 0 1-.21.21h-4.05zM248.08 350.81c0 3-1.67 4.83-4.37 4.83s-4.39-1.86-4.39-4.83S241 346 243.71 346s4.37 1.89 4.37 4.81zm-6.67 0c0 1.83.85 2.91 2.3 2.91s2.28-1.08 2.28-2.91-.88-2.88-2.28-2.88-2.3 1.07-2.3 2.88zM258 355.22a.19.19 0 0 1-.21.21h-1.71a.19.19 0 0 1-.21-.21v-7.12h-3.59v7.12a.19.19 0 0 1-.21.21h-1.69a.19.19 0 0 1-.21-.21v-8.79a.19.19 0 0 1 .21-.21h7.41a.19.19 0 0 1 .21.21zM272.3 355.22a.19.19 0 0 1-.21.21h-1.71a.19.19 0 0 1-.21-.21v-7.12h-3.59v7.12a.19.19 0 0 1-.2.21h-1.7a.19.19 0 0 1-.2-.21v-8.79a.18.18 0 0 1 .2-.21h7.41a.19.19 0 0 1 .21.21zM276.43 347.18c.07.21.22.2.36 0a3.37 3.37 0 0 1 2.66-1.17c2.49 0 4 1.84 4 4.78s-1.6 4.83-4.26 4.83a4 4 0 0 1-1.73-.36l-.51-.23v4.26a.19.19 0 0 1-.21.2H275a.19.19 0 0 1-.21-.2v-12.86a.19.19 0 0 1 .21-.21h1c.13 0 .21 0 .23.17zm1.06 6.22a3.46 3.46 0 0 0 1.56.32c1.46 0 2.3-1.08 2.3-2.91s-.84-2.88-2.25-2.88-2.18 1.17-2.18 2.83v2.37zM286.69 346.31a7.05 7.05 0 0 1 2.07-.28c2.56 0 4.14 1.33 4.14 3.62v5.57a.19.19 0 0 1-.21.21h-.95a.24.24 0 0 1-.25-.17l-.15-.59c-.11-.27-.23-.27-.47 0a3.35 3.35 0 0 1-2.61 1c-2.11 0-3.28-1.08-3.28-2.87s1.21-2.92 3.45-2.92h2.38v-.12c0-1.16-.74-1.79-2.15-1.79a5 5 0 0 0-1.48.2l-.68.2a.19.19 0 0 1-.27-.15l-.42-1.4a.2.2 0 0 1 .15-.27zm1.74 5.19c-.93 0-1.36.43-1.36 1.08s.51 1.2 1.42 1.2c1.5 0 2.32-.74 2.32-2.15v-.13zM299.36 346.22c2.05 0 3.31.93 3.31 2.5a1.94 1.94 0 0 1-1.16 1.87c-.21.07-.21.19 0 .26a2.06 2.06 0 0 1 1.52 2c0 1.61-1.28 2.56-3.38 2.56h-4.11a.19.19 0 0 1-.21-.21v-8.79a.19.19 0 0 1 .21-.21zm-2 3.66h1.83c.89 0 1.38-.34 1.38-.93s-.4-.85-1-.85h-2.17zm0 3.67h2.32c.76 0 1.2-.34 1.2-.91s-.55-1-1.54-1h-2zM314.42 353.55a.19.19 0 0 1 .21.21v4.42a.19.19 0 0 1-.21.21h-1.53a.19.19 0 0 1-.21-.21v-2.75h-6.37v2.75a.19.19 0 0 1-.21.21h-1.53a.19.19 0 0 1-.21-.21v-4.42a.19.19 0 0 1 .21-.21h.77l.48-1a5.94 5.94 0 0 0 .42-2.49v-3.64a.19.19 0 0 1 .21-.21h6.82a.19.19 0 0 1 .21.21v7.12zm-6.07-3.48a6.56 6.56 0 0 1-.52 2.89l-.26.59h3.8v-5.45h-3zM323 355.43a.19.19 0 0 1-.2-.21v-3.57a13 13 0 0 1 .15-2.39c0-.17-.14-.27-.21-.06l-.57 1.06-2.28 3.65c-.23.44-.48.91-.67 1.35a.21.21 0 0 1-.22.17h-2.15a.19.19 0 0 1-.21-.21v-8.79a.19.19 0 0 1 .21-.21h1.71a.19.19 0 0 1 .21.21V350a14.2 14.2 0 0 1-.19 2.39c0 .15.13.25.23 0s.38-.71.55-1.05l2.28-3.66c.22-.44.47-.93.66-1.37a.23.23 0 0 1 .23-.15h2.16a.19.19 0 0 1 .21.21v8.79a.19.19 0 0 1-.21.21zM331.47 346.22c2 0 3.3.93 3.3 2.5a1.93 1.93 0 0 1-1.15 1.87c-.21.07-.21.19 0 .26a2.06 2.06 0 0 1 1.52 2c0 1.61-1.28 2.56-3.39 2.56h-4.1a.19.19 0 0 1-.21-.21v-8.79a.19.19 0 0 1 .21-.21zm-2 3.66h1.83c.89 0 1.38-.34 1.38-.93s-.4-.85-1-.85h-2.19zm0 3.67h2.32c.76 0 1.2-.34 1.2-.91s-.55-1-1.54-1h-2zM337.19 346.43a.19.19 0 0 1 .21-.21h1.69a.19.19 0 0 1 .21.21v2.69h1.35c2.54 0 4 1.2 4 3.23s-1.27 3.08-3.49 3.08h-3.76a.19.19 0 0 1-.21-.21zm4 7.12c.87 0 1.4-.44 1.4-1.2s-.72-1.35-1.93-1.35h-1.36v2.55zm7.06 1.67a.19.19 0 0 1-.2.21h-1.7a.19.19 0 0 1-.2-.21v-8.78a.18.18 0 0 1 .2-.2H348a.18.18 0 0 1 .2.2zM356.72 349.73a2.58 2.58 0 0 1-.89.95c-.1 0-.1.11 0 .15a2.6 2.6 0 0 1 .91 1l2.11 3.34c.07.14 0 .25-.16.25h-1.88a.3.3 0 0 1-.26-.13l-1.77-2.87c-.11-.15-.19-.15-.3 0l-1.77 2.87a.31.31 0 0 1-.27.13h-1.88c-.17 0-.22-.11-.15-.25l2.11-3.34a2.85 2.85 0 0 1 .91-1s.06 0 .06-.05-.11-.12-.17-.18a3.24 3.24 0 0 1-.8-.87l-2.05-3.27c-.08-.13 0-.24.15-.24h1.86a.3.3 0 0 1 .27.13l1.73 2.83c.09.15.21.15.3 0l1.73-2.83a.3.3 0 0 1 .27-.13h1.86c.17 0 .23.11.15.24zM372.87 346.37a2.82 2.82 0 0 1 1.42-.34c2.42 0 3.84 1.84 3.84 4.78s-1.42 4.83-3.84 4.83a2.82 2.82 0 0 1-1.42-.36l-.46-.23v4.26a.18.18 0 0 1-.21.2h-1.71a.19.19 0 0 1-.21-.2v-4.26l-.43.23a3.27 3.27 0 0 1-1.45.36c-2.41 0-3.83-1.84-3.83-4.83S366 346 368.4 346a3 3 0 0 1 1.45.34l.43.23V342a.19.19 0 0 1 .21-.21h1.71a.19.19 0 0 1 .21.21v4.58zm-3 1.88a2.54 2.54 0 0 0-1.29-.32c-1.2 0-1.88 1.08-1.88 2.88s.68 2.91 1.88 2.91a2.54 2.54 0 0 0 1.29-.32l.47-.27v-4.61zm3 5.15a2.73 2.73 0 0 0 1.29.32c1.2 0 1.88-1.08 1.88-2.91s-.68-2.88-1.88-2.88a2.73 2.73 0 0 0-1.29.32l-.48.27v4.61zM381.48 346.31a7.05 7.05 0 0 1 2.07-.28c2.56 0 4.14 1.33 4.14 3.62v5.57a.19.19 0 0 1-.21.21h-1a.24.24 0 0 1-.25-.17l-.15-.59c-.11-.27-.23-.27-.47 0a3.35 3.35 0 0 1-2.61 1c-2.11 0-3.28-1.08-3.28-2.87s1.21-2.92 3.45-2.92h2.38v-.12c0-1.16-.74-1.79-2.15-1.79a5 5 0 0 0-1.48.2l-.68.2a.19.19 0 0 1-.27-.15l-.42-1.4a.2.2 0 0 1 .15-.27zm1.74 5.19c-.93 0-1.36.43-1.36 1.08s.51 1.2 1.42 1.2c1.5 0 2.32-.74 2.32-2.15v-.13zM392.5 349.83c.93 0 1.48-.82 2-1.56l1.25-1.92a.31.31 0 0 1 .27-.13h1.86c.17 0 .23.11.15.24l-1.67 2.7a3.74 3.74 0 0 1-1.65 1.48c-.08 0-.1.12 0 .15a4.22 4.22 0 0 1 1.77 1.54l1.74 2.85c.1.14 0 .25-.15.25h-1.88a.3.3 0 0 1-.26-.13l-1.32-2.11c-.53-.8-1.06-1.46-2.1-1.46h-.29v3.49a.19.19 0 0 1-.21.21h-1.69a.19.19 0 0 1-.21-.21v-8.79a.19.19 0 0 1 .21-.21H392a.19.19 0 0 1 .21.21v3.4zM407.81 347.89a.19.19 0 0 1-.21.21h-2.79v7.12a.19.19 0 0 1-.21.21h-1.71a.19.19 0 0 1-.21-.21v-7.12h-2.79a.19.19 0 0 1-.21-.21v-1.46a.19.19 0 0 1 .21-.21h7.71a.19.19 0 0 1 .21.21zM417.84 350.81c0 3-1.67 4.83-4.37 4.83s-4.39-1.86-4.39-4.83 1.67-4.78 4.39-4.78 4.37 1.86 4.37 4.78zm-6.67 0c0 1.83.86 2.91 2.3 2.91s2.28-1.08 2.28-2.91-.87-2.88-2.28-2.88-2.3 1.07-2.3 2.88zM424 346.22c2 0 3.3.93 3.3 2.5a1.93 1.93 0 0 1-1.15 1.87c-.21.07-.21.19 0 .26a2.06 2.06 0 0 1 1.52 2c0 1.61-1.28 2.56-3.39 2.56h-4.1a.19.19 0 0 1-.21-.21v-8.79a.19.19 0 0 1 .21-.21zm-2 3.66h1.83c.89 0 1.38-.34 1.38-.93s-.4-.85-1-.85H422zm0 3.67h2.32c.76 0 1.2-.34 1.2-.91s-.55-1-1.54-1h-2zM442 350.81c0 3-1.67 4.83-4.37 4.83s-4.39-1.86-4.39-4.83 1.68-4.78 4.39-4.78 4.37 1.86 4.37 4.78zm-6.67 0c0 1.83.86 2.91 2.3 2.91s2.28-1.08 2.28-2.91-.87-2.88-2.28-2.88-2.35 1.07-2.35 2.88zM455.46 343.25a.19.19 0 0 1-.13.25l-3 .93a3.36 3.36 0 0 0-2.53 2.75c-.09.31.1.42.3.23a3.58 3.58 0 0 1 2.47-.87c2.44 0 4 1.71 4 4.52s-1.71 4.56-4.39 4.56-4.37-1.73-4.37-4.54V348c0-2.89 1.24-4.6 3.94-5.43l3-.93a.19.19 0 0 1 .26.15zm-5.55 7.83c0 1.65.88 2.64 2.3 2.64s2.28-1 2.28-2.64-.85-2.64-2.28-2.64-2.3.97-2.3 2.64zM463 356.44c-.82 2.11-2 3.07-3.86 3.07h-.7a.18.18 0 0 1-.21-.2v-1.47a.19.19 0 0 1 .21-.21h.56a1.56 1.56 0 0 0 1.62-1.12l.28-.66c.35-.82 0-1.84-.64-3.44l-2.6-6c-.08-.15 0-.24.15-.24h1.78a.26.26 0 0 1 .25.15l1.71 3.87a11.92 11.92 0 0 1 .72 2.42c.06.22.25.22.31 0a15.12 15.12 0 0 1 .68-2.42l1.6-3.85a.21.21 0 0 1 .22-.17h1.79c.15 0 .23.09.17.24zM476.83 355.22a.19.19 0 0 1-.2.21h-1.69a.19.19 0 0 1-.21-.21v-7.12h-3v2.77a4.51 4.51 0 0 1-2.59 4.52l-.55.27a.19.19 0 0 1-.28-.1l-.63-1.35c-.06-.13 0-.22.09-.28l.56-.27c.87-.47 1.29-1.35 1.29-2.79v-4.44a.19.19 0 0 1 .21-.21h6.82a.18.18 0 0 1 .2.21zM487.68 355.22a.19.19 0 0 1-.2.21h-1.69a.19.19 0 0 1-.21-.21v-7.12h-3v2.77a4.51 4.51 0 0 1-2.59 4.52l-.55.27a.19.19 0 0 1-.28-.1l-.63-1.35c-.06-.13 0-.22.09-.28l.56-.27c.87-.47 1.29-1.35 1.29-2.79v-4.44a.19.19 0 0 1 .21-.21h6.82a.18.18 0 0 1 .2.21zM496.6 355.43a.19.19 0 0 1-.21-.21v-3.57a13.94 13.94 0 0 1 .15-2.39c0-.17-.13-.27-.21-.06l-.57 1.06-2.28 3.65c-.23.44-.47.91-.66 1.35a.23.23 0 0 1-.23.17h-2.15a.19.19 0 0 1-.21-.21v-8.79a.19.19 0 0 1 .21-.21h1.71a.19.19 0 0 1 .21.21V350a14.2 14.2 0 0 1-.19 2.39c0 .15.13.25.23 0s.38-.71.55-1.05l2.28-3.66c.23-.44.47-.93.66-1.37a.23.23 0 0 1 .23-.15h2.17a.19.19 0 0 1 .21.21v8.79a.19.19 0 0 1-.21.21zM509 355.22a.19.19 0 0 1-.21.21H507a.19.19 0 0 1-.21-.21v-3.51h-3.69v3.51a.19.19 0 0 1-.21.21h-1.69a.19.19 0 0 1-.21-.21v-8.79a.19.19 0 0 1 .21-.21h1.69a.19.19 0 0 1 .21.21v3.4h3.69v-3.4a.19.19 0 0 1 .21-.21h1.71a.19.19 0 0 1 .21.21zM513.6 355.22a.19.19 0 0 1-.21.21h-1.69a.19.19 0 0 1-.21-.21v-8.79a.19.19 0 0 1 .21-.21h6.18c.15 0 .22.09.17.22l-.42 1.49a.24.24 0 0 1-.25.17h-3.78zM525.7 355.39a8 8 0 0 1-1.93.25c-2.87 0-4.49-1.86-4.49-4.81s1.64-4.8 4.41-4.8c2.28 0 3.67 1.14 3.67 3 0 1.46-.9 2.3-2.8 2.58l-3 .46a2 2 0 0 0 2.17 1.63 5.26 5.26 0 0 0 1.5-.19l.83-.21a.2.2 0 0 1 .27.15l.38 1.43a.19.19 0 0 1-.15.26zm-1.46-5.39c.67-.12 1-.42 1-.91 0-.76-.59-1.16-1.62-1.16-1.25 0-2.11.78-2.26 2.52z"/></svg>