<svg id="Layer_1" xmlns="http://www.w3.org/2000/svg" xmlns:xlink="http://www.w3.org/1999/xlink" viewBox="0 0 521 457"><style>.st45{fill:#f0a49c}.st59{fill:none;stroke:#000;stroke-width:1.8057;stroke-linecap:round;stroke-linejoin:round;stroke-miterlimit:10}.st118{fill:#ffe6a1}.st121{opacity:.11;fill:#fff}.st157{fill:#fd6b64}.st266,.st269{fill:none;stroke:#fff;stroke-width:2.7567;stroke-linecap:round;stroke-linejoin:round;stroke-miterlimit:10}.st269{stroke:#ca5e34;stroke-width:3.2571}</style><switch><g><ellipse cx="270" cy="238.5" rx="217.9" ry="218.5" fill="#c4e5e5"/><defs><ellipse id="SVGID_25_" cx="270" cy="238.5" rx="217.9" ry="218.5"/></defs><clipPath id="SVGID_2_"><use xlink:href="#SVGID_25_" overflow="visible"/></clipPath><g clip-path="url(#SVGID_2_)"><path class="st157" d="M339 312.6c-1.3-.4 34.8 20.1 74 119.5l-66.2 51.5-33.2-95.7 25.4-75.3z"/><path class="st157" d="M259.1 288.4s-47.1 2.9-87.6 27.1c-11.8 7-18.1 20.6-16.5 34.2l21 207.8h160L366 383c2.3-14.6-.2-49.1-17.9-63.4-10.4-8.6-38.9-31.2-89-31.2z"/><path class="st45" d="M210.6 298.2s21.9-8.6 48.5-9.8 56.5 11.1 56.5 11.1l-28.8 37.2-76.2-38.5z"/><path class="st59" d="M349.4 481.4s12.3-46.3 8.7-84.9"/><g><path class="st157" d="M183.3 309.2s-62 15.1-100.1 144l99.4 35.5 26.4-97.8-25.7-81.7z"/><path class="st59" d="M170.8 484.5l11.8 4.2 26.5-76.6"/></g><g><path class="st118" d="M193.1 147.6s5.2 31.6-3.2 40c-15.9 15.9-64.7 23.3-38.9 91.3h224.5s11.1-27.1-14-42.8c0 0-8.7-6.1-3.4-24.5 5.4-18.4-8-31.4-24.4-51l-32.2-52.3-108.4 39.3z"/><ellipse class="st118" cx="269.5" cy="143" rx="76.7" ry="73.2"/><ellipse transform="rotate(-29.611 338.324 170.43)" cx="338.3" cy="170.4" rx="19.8" ry="19.8" fill="#ed9791"/><path class="st45" d="M296.2 216.5l-1.9 88-63.8-3.5 13-129.6z"/><path d="M295.4 243.4s-28.4-2.9-29.7-35.3l30.2 16-.5 19.3z" fill="#311326"/><path class="st45" d="M333.4 99.6c5 4.2 8.2 10.2 9.5 16.6 3.8 19 11.3 52.4 4.5 72.6-8.7 26.2-30 44.8-64.4 38.3 0 0-41.2-4.2-49.7-56.4-13.5-83.2 57.2-107.3 100.1-71.1z"/><path class="st121" d="M303.5 160.2c-.2 13.6-11.1 24.5-24.4 24.4-13.3-.2-24-11.3-23.8-24.9.2-13.6 11.1-24.5 24.4-24.4 13.3.1 24 11.3 23.8 24.9z"/><ellipse transform="matrix(.01154 -.9999 .9999 .01154 172.479 495.23)" class="st121" cx="336.7" cy="160.4" rx="23.7" ry="20.7"/><path class="st266" d="M303.5 160.2c-.2 13.6-11.1 24.5-24.4 24.4-13.3-.2-24-11.3-23.8-24.9.2-13.6 11.1-24.5 24.4-24.4 13.3.1 24 11.3 23.8 24.9z"/><ellipse transform="matrix(.01154 -.9999 .9999 .01154 172.479 495.23)" class="st266" cx="336.7" cy="160.4" rx="23.7" ry="20.7"/><path class="st266" d="M303.5 160.2s5.4-6.1 12.6 0M255.3 159.6l-21.6 8.2"/><g><path class="st118" d="M328.1 134.2s-2.4 4.1 5.1 5.8c5.7 1.3 7.2 1.8 10.4 3.1 1.8.8 3.9.5 5.1-.6 1-.9.7-2.6.4-3.5-1-2.5-2.5-6-9.4-7.6-8.9-2-11.6 2.8-11.6 2.8zM303.8 132.9s2 5.8-8.2 6c-7.8.2-17.2 2.1-21.6 3-2.5.5-5.3-.3-6.6-2-1-1.3-.9-2.9.4-4 2.7-2.3 12.7-7.5 22.1-7.9 12.3-.3 13.9 4.9 13.9 4.9z"/><defs><path id="XMLID_13_" d="M302.4 161.5s-9.8-18.1-33.4-5.5c0 0 10.7 17 33.4 5.5z"/></defs><use xlink:href="#XMLID_13_" overflow="visible" fill="#fff"/><clipPath id="XMLID_17_"><use xlink:href="#XMLID_13_" overflow="visible"/></clipPath><path d="M303.8 159.6c.4 4.5-2.9 8.5-7.4 8.9s-8.5-2.9-8.9-7.4c-.4-4.5 2.9-8.5 7.4-8.9 4.5-.4 8.5 2.9 8.9 7.4z" clip-path="url(#XMLID_17_)" fill="#663205"/><g><path d="M267.8 154c3-1.6 6.2-2.7 9.5-3.3 3.2-.6 6.7-.9 10-.3 3.3.5 6.4 1.9 9 3.8 2.6 1.9 4.8 4.4 6.1 7.3-1.7-2.7-4.1-4.8-6.8-6.3s-5.7-2.4-8.6-2.5c-3-.1-5.9.5-8.8 1.4-2.9.9-5.6 2.3-7.9 3.9-1.1.8-2.5.5-3.3-.6s-.5-2.5.6-3.3c0 0 .1-.1.2-.1z"/></g><g><defs><path id="XMLID_12_" d="M325.7 162.5s11-14.8 21.5-1.9c0 0-10.8 15.3-21.5 1.9z"/></defs><use xlink:href="#XMLID_12_" overflow="visible" fill="#fff"/><clipPath id="XMLID_18_"><use xlink:href="#XMLID_12_" overflow="visible"/></clipPath><path d="M339.1 161.7c-1.4 4.2-.1 8.4 2.7 9.3 2.9.9 6.3-1.7 7.7-5.9 1.4-4.2.1-8.4-2.7-9.3-2.9-1-6.3 1.7-7.7 5.9z" clip-path="url(#XMLID_18_)" fill="#663205"/><g><path d="M345.2 161.9c-.8-1.6-2-3.1-3.5-4.1-.8-.5-1.6-.9-2.5-1.2-.2-.1-.4-.1-.6-.1h-2.2c-2 .1-3.9.9-5.8 1.9-1.8 1.1-3.5 2.4-5 4.1 1.1-1.9 2.6-3.6 4.3-5 1.7-1.4 3.7-2.7 6-3.3.6-.2 1.2-.3 1.8-.4.3 0 .6-.1.9-.1h1c1.3.1 2.5.4 3.7.9 2.3 1 4.3 2.7 5.8 4.7.8 1 .6 2.5-.4 3.3-1 .8-2.5.6-3.3-.4-.1 0-.2-.2-.2-.3z"/></g></g><path class="st269" d="M310.7 161.2l4.4 8-4.7 4.1M293.4 189.3s9 15.2 32.6 5.4"/></g><path class="st118" d="M238.3 157.4c3.3 1.4 63.3-34.8 32.9-74.1 0 0-45.7 10.7-43.1 74.1h10.2z"/><path class="st118" d="M276.1 97.7s40.4-9.9 64 10.3c0 0-11.4-36.4-67-38.3l-20.9 46.6 23.9-18.6z"/><ellipse transform="rotate(-13.202 210.92 69.75)" class="st118" cx="210.9" cy="69.8" rx="30.8" ry="30.8"/><path class="st118" d="M250.9 136.7l-3.9 41.5-14.4-38z"/><g><path class="st45" d="M203.7 182.4c3.9 12.7 17.3 19.9 30 16.1 12.7-3.9 19.9-17.3 16.1-30-3.9-12.7-17.3-19.9-30-16.1-12.7 3.8-19.9 17.3-16.1 30z"/><path d="M215.9 168.4s17.7-5.1 22.4 14.4" fill="none" stroke="#311326" stroke-width="1.953" stroke-linecap="round" stroke-linejoin="round" stroke-miterlimit="10"/></g></g></g></g></switch></svg>