<svg id="Layer_1" data-name="Layer 1" xmlns="http://www.w3.org/2000/svg" xmlns:xlink="http://www.w3.org/1999/xlink" viewBox="0 0 500 500"><defs><style>.cls-1{fill:none}.cls-3{fill:#ffd100}.cls-4{fill:#ef9127}.cls-5{fill:#ffdf3d}.cls-6{fill:#fff}.cls-10{fill:#4c2207}.cls-11{fill:#4e2408}.cls-12{fill:#502509}.cls-13{fill:#52260b}.cls-14{fill:#54280c}.cls-15{fill:#56290d}.cls-16{fill:#582a0e}.cls-17{fill:#592c0f}.cls-18{fill:#5b2d10}.cls-19{fill:#5c2e10}.cls-20{fill:#5e2f11}.cls-21{fill:#5f3012}.cls-22{fill:#603013}.cls-23{fill:#613113}.cls-24{fill:#623214}.cls-25{fill:#633315}.cls-26{fill:#643315}.cls-27{fill:#653416}.cls-28{fill:#663516}.cls-29{fill:#673517}.cls-30{fill:#673617}.cls-31{fill:#683617}.cls-32{fill:#683618}.cls-33{fill:#693718}.cls-36{fill:#bb420e}.cls-44{fill:#e69900}</style><radialGradient id="radial-gradient" cx="8729.53" cy="103.59" r="30.66" gradientTransform="matrix(-.81 -.59 -.59 .81 7361.2 5168.38)" gradientUnits="userSpaceOnUse"><stop offset="0" stop-color="#ffd199"/><stop offset=".52" stop-color="#ff921b"/><stop offset="1" stop-color="#e64500"/></radialGradient><linearGradient id="linear-gradient" x1="213.93" y1="132.1" x2="213.93" y2="142.76" gradientTransform="rotate(.41 211.5 134.798)" gradientUnits="userSpaceOnUse"><stop offset="0" stop-color="#ffd199"/><stop offset="1" stop-color="#ff921b"/></linearGradient><clipPath id="clip-path"><path class="cls-1" d="M216.81 137c0 2-1.26 3.65-2.85 3.66s-2.89-1.61-2.91-3.62 1.27-3.65 2.86-3.66 2.89 1.62 2.9 3.62z"/></clipPath><linearGradient id="linear-gradient-2" x1="229.34" y1="132.21" x2="229.34" y2="141.28" gradientTransform="rotate(.41 226.872 134.743)" xlink:href="#linear-gradient"/><clipPath id="clip-path-2"><path class="cls-1" d="M232.22 136.87c0 2-1.26 3.65-2.85 3.66s-2.89-1.61-2.9-3.62 1.26-3.65 2.85-3.66 2.89 1.61 2.9 3.62z"/></clipPath><radialGradient id="radial-gradient-2" cx="8679.8" cy="103.87" r="30.52" gradientTransform="matrix(-1 -.05 -.05 1 8949.84 486.63)" gradientUnits="userSpaceOnUse"><stop offset="0" stop-color="#ffef99"/><stop offset=".52" stop-color="#ffd71b"/><stop offset="1" stop-color="#e69900"/></radialGradient><linearGradient id="linear-gradient-3" x1="271.39" y1="-4703.35" x2="271.39" y2="-4695.95" gradientTransform="matrix(1 0 0 -1 0 -4553.33)" gradientUnits="userSpaceOnUse"><stop offset="0" stop-color="#ffd71b"/><stop offset="1" stop-color="#e69900"/></linearGradient><radialGradient id="radial-gradient-3" cx="271.39" cy="-4699.51" r="6.89" gradientTransform="matrix(1 0 0 -1 0 -4553.33)" gradientUnits="userSpaceOnUse"><stop offset="0" stop-color="#693718"/><stop offset=".38" stop-color="#653416"/><stop offset=".73" stop-color="#5a2c0f"/><stop offset="1" stop-color="#4c2207"/></radialGradient><linearGradient id="linear-gradient-4" x1="254.11" y1="106.88" x2="254.11" y2="114.44" gradientTransform="rotate(-.41 3924.268 -1219.925)" xlink:href="#linear-gradient-3"/><clipPath id="clip-path-3"><ellipse class="cls-1" cx="263.72" cy="136.9" rx="2.87" ry="3.63" transform="rotate(-.41 260.844 135.09)"/></clipPath><linearGradient id="linear-gradient-5" x1="269.45" y1="106.87" x2="269.45" y2="114.42" gradientTransform="rotate(-.41 3924.268 -1219.925)" xlink:href="#linear-gradient-3"/><clipPath id="clip-path-4"><ellipse class="cls-1" cx="279.06" cy="136.79" rx="2.87" ry="3.63" transform="rotate(-.41 276.216 135.145)"/></clipPath></defs><path d="M316.26 74.43c-13.78-.34-74.85-2.16-90.22-.81-26.93 2.38-92.11 11.09-144.61 68.3C62.69 162.34 12.89 334 91 382.1c131.42 81 394.39-7.86 362.52-182.2C427.11 55.64 336.74 74.93 316.26 74.43z" fill="#c4e5e5"/><path d="M151.22 366.61h1.22a15.43 15.43 0 0 1 1.77.11 7.25 7.25 0 0 1 1.54.33c.44.14.65.36.65.64a7.53 7.53 0 0 1-.11 1.37c-.07.43-.13.87-.18 1.3a30 30 0 0 1-1 4.07 14.72 14.72 0 0 1-1.87 3.74 9.65 9.65 0 0 1-2.92 2.74 7.83 7.83 0 0 1-4.1 1 6.81 6.81 0 0 1-5.47-2.27 14.94 14.94 0 0 1-2.92-5.43 33.42 33.42 0 0 1-1.3-6.66q-.31-3.49-.54-5.94c-.14-1.49-.24-3-.28-4.4s-.08-2.88-.08-4.32c0-2 0-4 .08-6s.07-4 .07-6.08v-5.15c0-1.8 0-3.61.07-5.44a50.87 50.87 0 0 1 .51-5.4 23.7 23.7 0 0 1 1.26-5 14.72 14.72 0 0 1 1.26-2.42 12.52 12.52 0 0 1 1.73-2.16 8.38 8.38 0 0 1 2.19-1.58 5.7 5.7 0 0 1 2.59-.61 5.49 5.49 0 0 1 3.39 1.08 11.23 11.23 0 0 1 2.52 2.66 19.07 19.07 0 0 1 1.83 3.39 28.83 28.83 0 0 1 1.19 3.31c.19.72.41 1.5.65 2.34a8.55 8.55 0 0 1 .36 2.34 3.37 3.37 0 0 1 .36.61 1.59 1.59 0 0 1 .14.68c0 .48-.2.74-.61.76a11 11 0 0 0-1.11.11 10.74 10.74 0 0 0-1.55.43 10.24 10.24 0 0 1-1.62.43c-.05-.72-.16-1.73-.33-3a22.49 22.49 0 0 0-.82-3.78 11.54 11.54 0 0 0-1.55-3.21 3 3 0 0 0-2.56-1.36 2.9 2.9 0 0 0-2.66 1.9 17.33 17.33 0 0 0-1.41 4.43 41.34 41.34 0 0 0-.61 5c-.1 1.63-.14 2.83-.14 3.6 0 1.68 0 3.35.11 5s.1 3.33.1 5c0 2 0 3.91-.1 5.83s-.11 3.86-.11 5.83v2.67c0 1.16.1 2.43.22 3.85s.3 2.84.54 4.28a22.89 22.89 0 0 0 1 4 10.19 10.19 0 0 0 1.55 2.95 2.76 2.76 0 0 0 2.26 1.16 3 3 0 0 0 2.34-1 6.84 6.84 0 0 0 1.41-2.34 15 15 0 0 0 .72-2.84c.1-.97.22-1.83.32-2.55zM171.38 373.81c.09.77.21 1.52.36 2.24a11.63 11.63 0 0 1 .21 2.23 5.27 5.27 0 0 1-.1.93 1.35 1.35 0 0 0 0 .87 1.37 1.37 0 0 1-.86.54 12.49 12.49 0 0 1-1.41.29c-.5.07-1 .11-1.47.14h-1.15c-.87 0-1.36-.11-1.48-.33a4.83 4.83 0 0 1-.32-1.47l-.15-1.73c0-.58-.07-1.15-.07-1.73 0-1.2.05-2.4.14-3.6s.15-2.4.15-3.6q0-13.25-.07-26.32T164.9 316h3.02a13.28 13.28 0 0 1 1.69.18q.76.15.9.36a1 1 0 0 1 .22.72v.8c0 1.82 0 3.63-.11 5.43s-.11 3.59-.11 5.37v7.05a37.37 37.37 0 0 1-.26 4.39c-.17 1.44-.27 2.91-.32 4.4a21.07 21.07 0 0 1 3.78-5.69c1.56-1.68 3-3.41 4.43-5.19q.43-.57 1.47-2l2.2-2.91c.77-1 1.49-1.92 2.16-2.74a5.75 5.75 0 0 1 1.37-1.37l2.81 1.88a.82.82 0 0 0 0 .18.74.74 0 0 1 0 .18 5.86 5.86 0 0 1-1.15 2.55c-.77 1.18-1.75 2.52-2.92 4s-2.45 3.1-3.82 4.76-2.64 3.2-3.81 4.64-2.16 2.69-2.95 3.74a5.25 5.25 0 0 0-1.19 2.09 2.37 2.37 0 0 0 .61 1.37 11.27 11.27 0 0 1 .9 1.3c.24.33.67 1.08 1.3 2.23s1.34 2.51 2.16 4.07l2.72 5.01c.89 1.73 1.7 3.35 2.45 4.86s1.37 2.79 1.87 3.85a8.12 8.12 0 0 1 .76 1.87 1.34 1.34 0 0 1-.43.94 4.81 4.81 0 0 1-1 .75 4.74 4.74 0 0 1-1.15.51 9.46 9.46 0 0 1-1 .25 17.18 17.18 0 0 1-1.33-2.2c-.65-1.17-1.4-2.59-2.24-4.24s-1.71-3.42-2.62-5.3-1.76-3.62-2.52-5.25-1.42-3-1.95-4.21a19.27 19.27 0 0 1-.86-2.06q0 5.34.36 10.62t1.04 10.62zM205.79 372.37a11.74 11.74 0 0 1-7.56-2.41 17.64 17.64 0 0 1-4.82-6 29.44 29.44 0 0 1-2.56-7.84 44.86 44.86 0 0 1-.75-7.82 37.54 37.54 0 0 1 .83-7.88 22 22 0 0 1 2.77-7.09 15.62 15.62 0 0 1 5.11-5.15 14.38 14.38 0 0 1 7.77-2 11.61 11.61 0 0 1 7.71 2.48 17.51 17.51 0 0 1 4.64 6.16 28.57 28.57 0 0 1 2.31 8 58.54 58.54 0 0 1 .61 8 35 35 0 0 1-.86 7.6 22.75 22.75 0 0 1-2.78 6.95 16 16 0 0 1-5 5.07 13.47 13.47 0 0 1-7.42 1.93zm.79-40.89a10.4 10.4 0 0 0-5.54 1.33 9.46 9.46 0 0 0-3.38 3.53 15.2 15.2 0 0 0-1.69 5 32.5 32.5 0 0 0-.47 5.58q0 2.37.21 4.53a38.13 38.13 0 0 0 .9 4.57 25.38 25.38 0 0 0 1.95 5.19 15.53 15.53 0 0 0 3.06 4.21 5.85 5.85 0 0 0 4.17 1.73 7.12 7.12 0 0 0 5.15-2 14.62 14.62 0 0 0 3.28-4.86 26.27 26.27 0 0 0 1.73-6 36.55 36.55 0 0 0 .5-5.54 34.26 34.26 0 0 0-.47-5.15 23 23 0 0 0-1.62-5.65 14.18 14.18 0 0 0-3.06-4.54 6.45 6.45 0 0 0-4.72-1.93zM227.39 321.11c1.3.05 2.73.07 4.29.07a25.55 25.55 0 0 1 4.57.4 16.61 16.61 0 0 1 4.17 1.29 7.94 7.94 0 0 1 3.24 2.78 7.05 7.05 0 0 1 1.23 4 8.1 8.1 0 0 1-.51 2.77 12.48 12.48 0 0 1-1.33 2.66 13.81 13.81 0 0 1-4.14 4.07 8.37 8.37 0 0 1-2.7 1 5.69 5.69 0 0 0-2.34.9 2.25 2.25 0 0 0-.83 1.26 6.7 6.7 0 0 0-.18 1.55 13.83 13.83 0 0 0 .15 2 15.09 15.09 0 0 1 .14 2q0 4.32.33 8.64c.21 2.88.42 5.79.61 8.71.14 1.3.33 2.6.57 3.89a21.77 21.77 0 0 1 .36 4 5.21 5.21 0 0 1-.36 2.31c-.24.43-1 .64-2.16.64a8.81 8.81 0 0 1-2.16-.21 2.08 2.08 0 0 1-1.15-.72 2.69 2.69 0 0 1-.43-1.33c0-.56-.07-1.24-.07-2.06v-14q0-7-.39-14-.22-4.39-.69-8.75a82.31 82.31 0 0 1-.47-8.75 41.85 41.85 0 0 1 .25-5.12zm11.23 11.95a4 4 0 0 0 .36-1.65 3.79 3.79 0 0 0-.5-1.91 6.48 6.48 0 0 0-1.3-1.62 6.22 6.22 0 0 0-1.76-1.15 4.65 4.65 0 0 0-1.91-.44c-.53 0-.85.18-1 .54a3.55 3.55 0 0 0-.18 1.12v1.4a9.57 9.57 0 0 1 0 1.41 11.31 11.31 0 0 1-.14 1.73 10 10 0 0 0-.15 1.72 4.35 4.35 0 0 0 .29 1.55 1.22 1.22 0 0 0 1.3.76 3.21 3.21 0 0 0 1.33-.36 11.69 11.69 0 0 0 1.51-.87 8 8 0 0 0 1.33-1.08 3.09 3.09 0 0 0 .82-1.15zM266.56 372.37A11.74 11.74 0 0 1 259 370a17.52 17.52 0 0 1-4.82-6 29.08 29.08 0 0 1-2.56-7.84 44.93 44.93 0 0 1-.76-7.82 38.22 38.22 0 0 1 .83-7.88 22.23 22.23 0 0 1 2.77-7.09 15.65 15.65 0 0 1 5.12-5.15 14.38 14.38 0 0 1 7.77-2 11.61 11.61 0 0 1 7.71 2.48 17.63 17.63 0 0 1 4.64 6.16 28.23 28.23 0 0 1 2.3 8 57.09 57.09 0 0 1 .62 8 34.42 34.42 0 0 1-.87 7.6 22.48 22.48 0 0 1-2.77 6.95 15.93 15.93 0 0 1-5 5.07 13.42 13.42 0 0 1-7.42 1.89zm.79-40.89a10.4 10.4 0 0 0-5.54 1.33 9.56 9.56 0 0 0-3.39 3.53 15.44 15.44 0 0 0-1.69 5 33.53 33.53 0 0 0-.47 5.58c0 1.58.08 3.09.22 4.53a34.53 34.53 0 0 0 .9 4.57 25.35 25.35 0 0 0 1.94 5.19 15.53 15.53 0 0 0 3.06 4.21 5.87 5.87 0 0 0 4.18 1.73 7.13 7.13 0 0 0 5.15-2 14.45 14.45 0 0 0 3.27-4.86 25.32 25.32 0 0 0 1.73-6 35.43 35.43 0 0 0 .51-5.54 34.26 34.26 0 0 0-.47-5.15 23 23 0 0 0-1.62-5.65 14.18 14.18 0 0 0-3.06-4.54 6.47 6.47 0 0 0-4.72-1.93zM303.21 316.79a9.15 9.15 0 0 1 3.6 4.18 29.57 29.57 0 0 1 2.12 6.22 45.71 45.71 0 0 1 1 6.74c.17 2.25.25 4.15.25 5.68 0 .82 0 1.61-.07 2.38H306.87a6.16 6.16 0 0 1-.94-.18l-.82-.22a.62.62 0 0 1-.33-.18.65.65 0 0 1-.07-.36 4.35 4.35 0 0 0-.14-.83 45.8 45.8 0 0 1-.29-4.68 51.6 51.6 0 0 0-.51-6.05 15.94 15.94 0 0 0-1.62-5.29 3.86 3.86 0 0 0-3.63-2.27 3.62 3.62 0 0 0-3.31 2 15.12 15.12 0 0 0-1.7 4.68 32 32 0 0 0-.61 5.4c-.05 1.8-.07 3.16-.07 4.07 0 1.25 0 2.47.07 3.67s.07 2.43.07 3.68v3.88c0 1.77 0 3.76.11 5.94s.26 4.46.5 6.81a46.65 46.65 0 0 0 1.08 6.44 16.16 16.16 0 0 0 1.87 4.75 3.35 3.35 0 0 0 2.88 1.84 2.71 2.71 0 0 0 1.48-.43 4.51 4.51 0 0 0 1.19-1.12 6.83 6.83 0 0 0 .82-1.47q.33-.79.54-1.44a10.81 10.81 0 0 0 .26-2.67 10.68 10.68 0 0 1 .25-2.66c.14-.48.25-.83.32-1.05a.68.68 0 0 1 .33-.43 1.28 1.28 0 0 1 .57-.11c.24 0 .6 0 1.08-.07l1.77-.18c.6-.07 1.21-.15 1.83-.25-.09 1.25-.18 2.54-.25 3.89a38 38 0 0 1-.43 4 24 24 0 0 1-1 3.86 10.51 10.51 0 0 1-1.95 3.38 8.77 8.77 0 0 1-2.77 2.3 7.25 7.25 0 0 1-3.49.87 7.47 7.47 0 0 1-5.33-2.23 17.52 17.52 0 0 1-4.36-6.84 44.07 44.07 0 0 1-2.12-8.61 72.16 72.16 0 0 1-.72-9.07q-.07-4.57-.07-8.32c0-2.64 0-5.28.11-7.92s.2-5.28.39-7.92a42 42 0 0 1 .79-5.22 17.92 17.92 0 0 1 1.8-4.82 10.37 10.37 0 0 1 3.25-3.56 9.15 9.15 0 0 1 5.26-1.37 8.17 8.17 0 0 1 4.25 1.16zM320.13 322.19a5.88 5.88 0 0 0-.9-.11 11.29 11.29 0 0 1-1.26-.14c-.43-.07-.83-.16-1.19-.25a1.85 1.85 0 0 1-.76-.36 6 6 0 0 1-.07-.8v-2a2.29 2.29 0 0 1 .36-1.26 1.68 1.68 0 0 1 1-.65 8.63 8.63 0 0 1 2.05-.18 28.2 28.2 0 0 1 3.17.18 27.9 27.9 0 0 0 3.16.18 15.57 15.57 0 0 0 2.34-.18 15.77 15.77 0 0 1 2.34-.18 11.24 11.24 0 0 1 1.91.18 1.18 1.18 0 0 1 1.05 1.33c0 .48 0 1 .07 1.48s.07 1 .07 1.47a.84.84 0 0 1-.86.94c-.58.05-1.22.08-1.91.11a6.14 6.14 0 0 0-1.95.36 1.44 1.44 0 0 0-.9 1.55 9.37 9.37 0 0 0 .08 1.22 11.09 11.09 0 0 1 .07 1.15q.29 6.34.36 12.6t.07 12.6q.07 6.56.07 13t.43 13a7.59 7.59 0 0 0 0 .79v.79a3.58 3.58 0 0 1-.15 1 .72.72 0 0 1-.79.5 3.29 3.29 0 0 1-1.15-.21l-1.15-.44c-.39-.14-.71-.25-1-.32a1.9 1.9 0 0 1-.64-.29 1 1 0 0 1-.36-.57 4.55 4.55 0 0 1-.11-1.19 10.62 10.62 0 0 1 .11-1.59 12.5 12.5 0 0 0 .1-1.65q0-12.31-.5-24.48t-.5-24.48a13 13 0 0 0-.08-1.59 1.51 1.51 0 0 0-.32-.86 1.55 1.55 0 0 0-.83-.43c-.23-.03-.76-.12-1.43-.22zM352.46 354.52a16.4 16.4 0 0 1 4.42 4.93 12 12 0 0 1 1.84 6.3 8.9 8.9 0 0 1-1.15 4.46 9.26 9.26 0 0 1-3.17 3.28 14.31 14.31 0 0 1-4 1.62 22.7 22.7 0 0 1-4.5.58c-1.56 0-3.06.12-4.5.21-.15-1.34-.24-2.66-.29-4s-.07-2.61-.07-4q0-7 .39-13.86t.4-13.86c0-2.45 0-4.88-.11-7.31s-.11-4.86-.11-7.3c0-.87 0-1.59.08-2.16a2.61 2.61 0 0 1 .43-1.37 2.14 2.14 0 0 1 1.15-.76 7.64 7.64 0 0 1 2.23-.25c1.3 0 2 .37 2.16 1.12a14.29 14.29 0 0 1 .22 2.77 33.49 33.49 0 0 1-.29 4.39c-.19 1.44-.34 2.9-.43 4.39s-.17 2.87-.36 4.29a30.47 30.47 0 0 0-.29 4.28c0 1.1 0 2.2-.07 3.28s-.07 2.14-.07 3.2a6 6 0 0 0 .5 2.92 2.66 2.66 0 0 0 1.37 1.15 14.43 14.43 0 0 0 2 .57 6.68 6.68 0 0 1 2.22 1.13zm-3.75 14.83a6.84 6.84 0 0 0 2.88-2.27 5.57 5.57 0 0 0 1.15-3.42 4.89 4.89 0 0 0-.46-2 8.27 8.27 0 0 0-1.26-1.94 7.5 7.5 0 0 0-1.77-1.48 3.88 3.88 0 0 0-2-.57 1.16 1.16 0 0 0-1.26.86 5.87 5.87 0 0 0-.25 1.66 15.49 15.49 0 0 0 .22 2.66 16.56 16.56 0 0 1 .21 2.66v1.12a10.44 10.44 0 0 0 0 1.37 2.94 2.94 0 0 0 .28 1.19.93.93 0 0 0 .9.5 2.57 2.57 0 0 0 .72-.11 3.52 3.52 0 0 0 .64-.23zM38.43 407.51c1.3.05 2.73.07 4.29.07a25.63 25.63 0 0 1 4.57.4 16.74 16.74 0 0 1 4.17 1.29 7.94 7.94 0 0 1 3.24 2.78 7.05 7.05 0 0 1 1.23 4 8.1 8.1 0 0 1-.51 2.77 12.48 12.48 0 0 1-1.33 2.66 13.81 13.81 0 0 1-4.09 4.03 8.37 8.37 0 0 1-2.7 1 5.69 5.69 0 0 0-2.34.9 2.25 2.25 0 0 0-.83 1.26 6.7 6.7 0 0 0-.18 1.55 13.83 13.83 0 0 0 .15 2 15.09 15.09 0 0 1 .14 2q0 4.32.33 8.64c.21 2.88.42 5.79.61 8.71.14 1.3.33 2.6.57 3.89a21.77 21.77 0 0 1 .36 4 5.21 5.21 0 0 1-.36 2.31c-.24.43-1 .64-2.16.64a8.81 8.81 0 0 1-2.16-.21 2 2 0 0 1-1.15-.72 2.69 2.69 0 0 1-.43-1.33c0-.56-.07-1.24-.07-2.06v-14q0-6.95-.39-14-.22-4.39-.69-8.75a82.31 82.31 0 0 1-.47-8.75 41.85 41.85 0 0 1 .2-5.08zm11.23 11.95a4 4 0 0 0 .36-1.65 3.89 3.89 0 0 0-.5-1.91 6.48 6.48 0 0 0-1.3-1.62 6.22 6.22 0 0 0-1.76-1.15 4.65 4.65 0 0 0-1.91-.44c-.53 0-.85.18-1 .54a3.55 3.55 0 0 0-.18 1.12v1.4a9.57 9.57 0 0 1 0 1.41 11.31 11.31 0 0 1-.14 1.73 10 10 0 0 0-.15 1.72 4.35 4.35 0 0 0 .29 1.55 1.22 1.22 0 0 0 1.3.76 3.21 3.21 0 0 0 1.33-.36 11.69 11.69 0 0 0 1.51-.87 8 8 0 0 0 1.33-1.08 3.09 3.09 0 0 0 .82-1.15zM85.38 466.12a3 3 0 0 1-1.84 1 13.38 13.38 0 0 1-2.12.18 24.61 24.61 0 0 1-6.7-.86 14.09 14.09 0 0 1-5.22-2.7 12.09 12.09 0 0 1-3.38-4.65 17 17 0 0 1-1.19-6.69 12.88 12.88 0 0 1 .43-3.35 8.36 8.36 0 0 1 1.33-2.84 6.73 6.73 0 0 1 2.31-2 6.87 6.87 0 0 1 3.34-.76 7.69 7.69 0 0 1 2.16.32 13.84 13.84 0 0 1 2 .76c.6.29 1.16.54 1.66.76a3.36 3.36 0 0 0 1.19.32.45.45 0 0 0 .18 0h.18V441c0-1.92-.07-4-.14-6.34s-.17-4.69-.29-7.16-.29-4.8-.5-7a55.4 55.4 0 0 0-.87-5.84 13.27 13.27 0 0 0-1.26-3.78 6.24 6.24 0 0 0-1.65-1.57 3.62 3.62 0 0 0-2.09-.65 4.61 4.61 0 0 0-2.34.61 5.71 5.71 0 0 0-1.76 1.59 7.06 7.06 0 0 0-1.07 2.14 8.23 8.23 0 0 0-.36 2.41 6.36 6.36 0 0 1-.36 2.66c-.25.44-1.06.65-2.45.65h-1.26a8.25 8.25 0 0 1-1.44-.11 3 3 0 0 1-1.19-.43 1.12 1.12 0 0 1-.5-1 9.05 9.05 0 0 1 .72-3.18q.72-1.83 1.29-3.06a18.81 18.81 0 0 1 2.16-3.09 17.39 17.39 0 0 1 2.92-2.7 14.3 14.3 0 0 1 3.42-1.87 10.16 10.16 0 0 1 3.67-.69 8 8 0 0 1 3.38.72 7.89 7.89 0 0 1 3.53 3.46 23 23 0 0 1 2.13 5.33 44.21 44.21 0 0 1 1.11 5.86c.24 2 .43 3.69.58 5.08.33 3.26.57 6.52.72 9.76s.21 6.49.21 9.75 0 6.31-.1 9.43-.11 6.27-.11 9.44c0 .76 0 1.58.07 2.44a4.13 4.13 0 0 1-.5 2.26zm-9.8-16.78a3.9 3.9 0 0 0-3.13 1.3 4.7 4.7 0 0 0-1.11 3.17 7.81 7.81 0 0 0 2.08 5.54 7.07 7.07 0 0 0 5.4 2.23 1.28 1.28 0 0 0 1.41-.9 6.45 6.45 0 0 0 .25-1.76 12.48 12.48 0 0 0-.29-2.67 12.62 12.62 0 0 1-.29-2.73c0-1.73-.28-2.86-.86-3.39s-1.73-.79-3.46-.79zM109.57 403.19a9.27 9.27 0 0 1 3.6 4.18 29.57 29.57 0 0 1 2.12 6.22 45.71 45.71 0 0 1 1 6.74c.17 2.25.25 4.15.25 5.68 0 .82 0 1.61-.07 2.38H113.23a6.16 6.16 0 0 1-.94-.18l-.82-.22a.62.62 0 0 1-.33-.18.65.65 0 0 1-.07-.36 4.35 4.35 0 0 0-.14-.83 43.07 43.07 0 0 1-.29-4.68 51.6 51.6 0 0 0-.51-6.05 15.94 15.94 0 0 0-1.62-5.29 3.86 3.86 0 0 0-3.63-2.27 3.62 3.62 0 0 0-3.31 2 15.12 15.12 0 0 0-1.7 4.68 32 32 0 0 0-.61 5.4c0 1.8-.07 3.16-.07 4.07 0 1.25 0 2.47.07 3.67s.07 2.43.07 3.68v3.88c0 1.77 0 3.76.11 5.94s.26 4.46.5 6.81a46.65 46.65 0 0 0 1.08 6.44 16.16 16.16 0 0 0 1.87 4.75 3.35 3.35 0 0 0 2.88 1.84 2.71 2.71 0 0 0 1.48-.43 4.51 4.51 0 0 0 1.19-1.12 6.83 6.83 0 0 0 .82-1.47q.33-.8.54-1.44a11.31 11.31 0 0 0 .26-2.67 10.23 10.23 0 0 1 .25-2.66c.14-.48.25-.83.32-1.05a.68.68 0 0 1 .33-.43 1.28 1.28 0 0 1 .57-.11c.24 0 .6 0 1.08-.07l1.77-.18c.59-.07 1.21-.15 1.83-.25-.1 1.25-.18 2.54-.25 3.89a38 38 0 0 1-.43 4 24 24 0 0 1-1 3.86 10.51 10.51 0 0 1-2 3.38 8.77 8.77 0 0 1-2.77 2.3 7.28 7.28 0 0 1-3.49.87 7.45 7.45 0 0 1-5.33-2.23 17.52 17.52 0 0 1-4.36-6.84 44.07 44.07 0 0 1-2.12-8.61 72.16 72.16 0 0 1-.72-9.07q-.08-4.57-.07-8.32c0-2.64 0-5.28.11-7.92s.2-5.28.39-7.92a42 42 0 0 1 .79-5.22 17.92 17.92 0 0 1 1.8-4.82 10.37 10.37 0 0 1 3.24-3.56 9.15 9.15 0 0 1 5.26-1.37 8.19 8.19 0 0 1 4.31 1.16zM143.19 409.45a22.86 22.86 0 0 1 .29 2.49c.05.84.07 1.67.07 2.48q0 3.24-.32 6.41a61.82 61.82 0 0 0-.33 6.41 55.22 55.22 0 0 0 .29 5.65 54.58 54.58 0 0 1 .29 5.58q0 2.73-.18 5.4t-.18 5.4c0 1.34 0 2.69.11 4s.1 2.69.1 4v1.23a4.75 4.75 0 0 1-.11 1.33 2.12 2.12 0 0 1-.54 1 1.42 1.42 0 0 1-1.11.44 4 4 0 0 1-.94-.11l-.86-.18c-.63-.19-1.11-.33-1.44-.4s-.51-.56-.51-1.47a11.86 11.86 0 0 1 .18-2.09 11.86 11.86 0 0 0 .18-2.09c0-1.3 0-2.58-.11-3.85s-.13-2.56-.18-3.85q0-7.14-.18-14.15t-.14-14.08v-2.56-2.55a2.35 2.35 0 0 0-.22-1.15q-.21-.36-1.08-.36a20.36 20.36 0 0 0-4.36.46 20 20 0 0 1-4.42.47v2.38c0 1.44 0 2.81.07 4.1.09 4.18.17 8.33.21 12.46s.12 8.28.22 12.45v5.76a41.87 41.87 0 0 0 .33 5.76c.09.68.2 1.35.32 2a11.41 11.41 0 0 1 .18 2 7.69 7.69 0 0 1-.07.82c0 .41 0 .66.07.76a1.17 1.17 0 0 1-.75.47 11.31 11.31 0 0 1-1.37.29c-.51.07-1 .11-1.48.14h-1q-1.22 0-1.29-.36c0-.24-.12-.68-.22-1.3a19.5 19.5 0 0 1-.21-2.81c0-1.15 0-2.28.1-3.38s.11-2.23.11-3.39q0-10.5-.11-20.88t-.1-20.88a2.4 2.4 0 0 1 .93-2 3.47 3.47 0 0 1 2.16-.72q3.31 0 6.55.25t6.48.25a14.77 14.77 0 0 0 1.52-.07 4.49 4.49 0 0 1 1.33 0 2 2 0 0 1 1 .5 2.58 2.58 0 0 1 .72 1.54zM150.53 407.51c1.3.05 2.73.07 4.29.07a25.55 25.55 0 0 1 4.57.4 16.81 16.81 0 0 1 4.18 1.29 8.06 8.06 0 0 1 3.24 2.78 7.12 7.12 0 0 1 1.22 4 8.32 8.32 0 0 1-.5 2.77 12.52 12.52 0 0 1-1.34 2.66 13.58 13.58 0 0 1-1.9 2.31 13.83 13.83 0 0 1-2.24 1.76 8.37 8.37 0 0 1-2.7 1 5.69 5.69 0 0 0-2.34.9 2.23 2.23 0 0 0-.82 1.26 6.7 6.7 0 0 0-.18 1.55 13.81 13.81 0 0 0 .14 2 13.58 13.58 0 0 1 .14 2q0 4.32.33 8.64c.21 2.88.42 5.79.61 8.71.14 1.3.34 2.6.58 3.89a21.77 21.77 0 0 1 .36 4 5.21 5.21 0 0 1-.36 2.31c-.24.43-1 .64-2.16.64a8.7 8.7 0 0 1-2.16-.21 2.08 2.08 0 0 1-1.16-.72 2.69 2.69 0 0 1-.43-1.33c-.05-.56-.07-1.24-.07-2.06v-14q0-6.95-.39-14c-.15-2.93-.37-5.85-.69-8.75a82.31 82.31 0 0 1-.46-8.75 42 42 0 0 1 .24-5.12zm11.24 11.95a4 4 0 0 0 .36-1.65 3.8 3.8 0 0 0-.51-1.91 6.52 6.52 0 0 0-3.06-2.77 4.65 4.65 0 0 0-1.91-.44c-.52 0-.85.18-1 .54a3.55 3.55 0 0 0-.18 1.12v1.4a9.57 9.57 0 0 1 0 1.41 11.31 11.31 0 0 1-.14 1.73 10 10 0 0 0-.15 1.72 4.35 4.35 0 0 0 .29 1.55 1.23 1.23 0 0 0 1.3.76 3.17 3.17 0 0 0 1.33-.36 11.69 11.69 0 0 0 1.51-.87 7.63 7.63 0 0 0 1.33-1.08 3.25 3.25 0 0 0 .83-1.15zM189.7 458.77a11.74 11.74 0 0 1-7.56-2.41 17.64 17.64 0 0 1-4.82-6.05 29.44 29.44 0 0 1-2.56-7.84 44.86 44.86 0 0 1-.75-7.82 38.2 38.2 0 0 1 .82-7.88 22.25 22.25 0 0 1 2.78-7.09 15.62 15.62 0 0 1 5.11-5.15 14.38 14.38 0 0 1 7.77-2 11.61 11.61 0 0 1 7.71 2.47 17.51 17.51 0 0 1 4.64 6.16 28.57 28.57 0 0 1 2.31 8 58.54 58.54 0 0 1 .61 8 34.42 34.42 0 0 1-.87 7.6 22.48 22.48 0 0 1-2.77 7 15.93 15.93 0 0 1-5 5.07 13.42 13.42 0 0 1-7.42 1.94zm.79-40.89a10.4 10.4 0 0 0-5.54 1.33 9.46 9.46 0 0 0-3.38 3.53 15.45 15.45 0 0 0-1.7 5 33.52 33.52 0 0 0-.46 5.58q0 2.37.21 4.53a38.13 38.13 0 0 0 .9 4.57 25.38 25.38 0 0 0 1.95 5.19 15.53 15.53 0 0 0 3.06 4.21 5.85 5.85 0 0 0 4.17 1.73 7.12 7.12 0 0 0 5.15-2 14.62 14.62 0 0 0 3.28-4.86 25.77 25.77 0 0 0 1.72-6.05 35.43 35.43 0 0 0 .51-5.54 34.26 34.26 0 0 0-.47-5.15 23 23 0 0 0-1.62-5.65 14.18 14.18 0 0 0-3.06-4.54 6.45 6.45 0 0 0-4.72-1.88zM226.35 403.19a9.15 9.15 0 0 1 3.6 4.18 29.57 29.57 0 0 1 2.12 6.22 45.71 45.71 0 0 1 1 6.74c.17 2.25.25 4.15.25 5.68 0 .82 0 1.61-.07 2.38H230.01a5.83 5.83 0 0 1-.93-.18l-.83-.22a.62.62 0 0 1-.33-.18.75.75 0 0 1-.07-.36 4.35 4.35 0 0 0-.14-.83 45.8 45.8 0 0 1-.29-4.68 53.83 53.83 0 0 0-.5-6.05 16.42 16.42 0 0 0-1.62-5.29 3.89 3.89 0 0 0-3.64-2.27 3.63 3.63 0 0 0-3.31 2 15.11 15.11 0 0 0-1.69 4.68 32 32 0 0 0-.62 5.4c0 1.8-.07 3.16-.07 4.07 0 1.25 0 2.47.07 3.67s.08 2.43.08 3.68v3.88c0 1.77 0 3.76.11 5.94s.26 4.46.5 6.81a46.65 46.65 0 0 0 1.08 6.44 16.44 16.44 0 0 0 1.87 4.75 3.35 3.35 0 0 0 2.88 1.84 2.71 2.71 0 0 0 1.48-.43 4.36 4.36 0 0 0 1.16-1.06 7.32 7.32 0 0 0 .83-1.47q.32-.8.54-1.44a11.3 11.3 0 0 0 .25-2.67 10.68 10.68 0 0 1 .25-2.66c.14-.48.25-.83.32-1.05a.72.72 0 0 1 .33-.43 1.28 1.28 0 0 1 .57-.11c.24 0 .6 0 1.08-.07l1.77-.18c.6-.07 1.21-.15 1.83-.25-.09 1.25-.18 2.54-.25 3.89a35.51 35.51 0 0 1-.43 4 24 24 0 0 1-1 3.86 10.32 10.32 0 0 1-1.95 3.38 8.66 8.66 0 0 1-2.77 2.3 7.25 7.25 0 0 1-3.49.87 7.47 7.47 0 0 1-5.33-2.23 17.39 17.39 0 0 1-4.35-6.84 43.38 43.38 0 0 1-2.13-8.61 72.16 72.16 0 0 1-.72-9.07q-.08-4.57-.07-8.32 0-4 .11-7.92T211 417a40.25 40.25 0 0 1 .8-5.22 17.27 17.27 0 0 1 1.8-4.82 10.18 10.18 0 0 1 3.24-3.56 9.1 9.1 0 0 1 5.26-1.4 8.17 8.17 0 0 1 4.25 1.19zM243.27 408.59a5.71 5.71 0 0 0-.9-.11 11.29 11.29 0 0 1-1.26-.14c-.43-.07-.83-.16-1.19-.25a1.74 1.74 0 0 1-.75-.36 4.81 4.81 0 0 1-.08-.8v-2a2.29 2.29 0 0 1 .36-1.26 1.68 1.68 0 0 1 1-.65 8.63 8.63 0 0 1 2.05-.18 28.2 28.2 0 0 1 3.17.18 27.9 27.9 0 0 0 3.16.18 15.57 15.57 0 0 0 2.34-.18 15.77 15.77 0 0 1 2.34-.18 11.24 11.24 0 0 1 1.91.18 1.18 1.18 0 0 1 1 1.33c0 .48 0 1 .07 1.48s.07 1 .07 1.47a.84.84 0 0 1-.86.94c-.58 0-1.22.08-1.91.11a6.14 6.14 0 0 0-1.95.36 1.44 1.44 0 0 0-.9 1.55 9.37 9.37 0 0 0 .08 1.22 11.09 11.09 0 0 1 .07 1.15q.28 6.35.36 12.6t.07 12.6q.07 6.56.07 13t.44 13v1.58a3.58 3.58 0 0 1-.15 1 .72.72 0 0 1-.79.5 3.33 3.33 0 0 1-1.15-.21l-1.15-.44c-.39-.14-.71-.25-1-.32a1.9 1.9 0 0 1-.64-.29 1 1 0 0 1-.36-.57 4.55 4.55 0 0 1-.11-1.19 10.62 10.62 0 0 1 .11-1.59 12.5 12.5 0 0 0 .1-1.65q0-12.32-.5-24.48t-.5-24.48a13 13 0 0 0-.08-1.59 1.51 1.51 0 0 0-.32-.86 1.55 1.55 0 0 0-.83-.43c-.19-.03-.72-.12-1.39-.22zM264.36 407.51c1.3.05 2.73.07 4.29.07a25.55 25.55 0 0 1 4.57.4 16.81 16.81 0 0 1 4.18 1.29 8.06 8.06 0 0 1 3.24 2.78 7.12 7.12 0 0 1 1.22 4 8.32 8.32 0 0 1-.5 2.77 12.52 12.52 0 0 1-1.34 2.66 13.58 13.58 0 0 1-1.9 2.31 13.83 13.83 0 0 1-2.24 1.76 8.37 8.37 0 0 1-2.7 1 5.69 5.69 0 0 0-2.34.9 2.23 2.23 0 0 0-.82 1.26 6.7 6.7 0 0 0-.18 1.55 13.81 13.81 0 0 0 .14 2 13.58 13.58 0 0 1 .14 2q0 4.32.33 8.64c.21 2.88.42 5.79.61 8.71.14 1.3.34 2.6.58 3.89a21.77 21.77 0 0 1 .36 4 5.21 5.21 0 0 1-.36 2.31c-.24.43-1 .64-2.16.64a8.7 8.7 0 0 1-2.16-.21 2.08 2.08 0 0 1-1.16-.72 2.69 2.69 0 0 1-.43-1.33c-.05-.56-.07-1.24-.07-2.06v-14q0-6.95-.39-14c-.15-2.93-.37-5.85-.69-8.75a82.31 82.31 0 0 1-.46-8.75 42 42 0 0 1 .24-5.12zm11.24 11.95a4 4 0 0 0 .36-1.65 3.8 3.8 0 0 0-.51-1.91 6.52 6.52 0 0 0-3.06-2.77 4.65 4.65 0 0 0-1.91-.44c-.52 0-.85.18-1 .54a3.55 3.55 0 0 0-.18 1.12v1.4a9.57 9.57 0 0 1 0 1.41 11.31 11.31 0 0 1-.14 1.73 10 10 0 0 0-.15 1.72 4.35 4.35 0 0 0 .29 1.55 1.23 1.23 0 0 0 1.3.76 3.17 3.17 0 0 0 1.33-.36 11.69 11.69 0 0 0 1.51-.87 7.63 7.63 0 0 0 1.33-1.08 3.25 3.25 0 0 0 .83-1.15zM311.31 466.12a2.94 2.94 0 0 1-1.84 1 13.29 13.29 0 0 1-2.12.18 24.61 24.61 0 0 1-6.7-.86 14.24 14.24 0 0 1-5.22-2.7 12.09 12.09 0 0 1-3.38-4.65 17.13 17.13 0 0 1-1.19-6.69 12.88 12.88 0 0 1 .43-3.35 8.36 8.36 0 0 1 1.33-2.84 6.73 6.73 0 0 1 2.31-2 6.88 6.88 0 0 1 3.35-.76 7.69 7.69 0 0 1 2.16.32 13.84 13.84 0 0 1 2 .76c.6.29 1.15.54 1.65.76a3.41 3.41 0 0 0 1.19.32.45.45 0 0 0 .18 0h.18V441c0-1.92-.07-4-.14-6.34s-.17-4.69-.29-7.16-.29-4.8-.5-7a55.4 55.4 0 0 0-.87-5.84 13.27 13.27 0 0 0-1.26-3.78 6.24 6.24 0 0 0-1.58-1.58 3.59 3.59 0 0 0-2.09-.65 4.64 4.64 0 0 0-2.34.61 5.94 5.94 0 0 0-1.76 1.59 7.06 7.06 0 0 0-1.08 2.16 8.23 8.23 0 0 0-.36 2.41 6.36 6.36 0 0 1-.36 2.66c-.24.44-1.06.65-2.45.65h-1.26a8.41 8.41 0 0 1-1.44-.11 3 3 0 0 1-1.19-.43 1.14 1.14 0 0 1-.5-1 9.05 9.05 0 0 1 .72-3.21q.72-1.83 1.29-3.06a18.81 18.81 0 0 1 2.16-3.09 17.39 17.39 0 0 1 2.92-2.7 14.3 14.3 0 0 1 3.42-1.87 10.16 10.16 0 0 1 3.67-.69 8.12 8.12 0 0 1 3.39.72 7.87 7.87 0 0 1 3.52 3.46 22.57 22.57 0 0 1 2.13 5.33 44.21 44.21 0 0 1 1.11 5.86c.24 2 .44 3.69.58 5.08.34 3.26.58 6.52.72 9.76s.22 6.49.22 9.75 0 6.31-.11 9.43-.11 6.27-.11 9.44c0 .76 0 1.58.07 2.44a4.13 4.13 0 0 1-.56 2.28zm-9.79-16.78a3.91 3.91 0 0 0-3.14 1.3 4.7 4.7 0 0 0-1.11 3.17 7.78 7.78 0 0 0 2.09 5.54 7 7 0 0 0 5.4 2.23 1.27 1.27 0 0 0 1.4-.9 6.45 6.45 0 0 0 .25-1.76 11.87 11.87 0 0 0-.29-2.67 12.63 12.63 0 0 1-.28-2.73q0-2.59-.87-3.39c-.57-.52-1.73-.79-3.45-.79zM340.83 424.5c.09 4.47.14 8.89.14 13.29s0 8.82.07 13.28a17.38 17.38 0 0 0 .18 2.52 17.38 17.38 0 0 1 .18 2.52 5 5 0 0 1-.14 1q-.15.69-.72.69a2.18 2.18 0 0 1-.76-.15l-.68-.21a3.41 3.41 0 0 1-2.48-1.41 5.41 5.41 0 0 1-.62-2.77v-2.34-3.24c0-1.13 0-2.18-.11-3.17a4.27 4.27 0 0 0-.47-2 2.14 2.14 0 0 0-1.12-1 5.23 5.23 0 0 0-1.47-.18 10.2 10.2 0 0 1-2.81-.39 9.56 9.56 0 0 0-2.74-.4 1.13 1.13 0 0 0-1.29 1 12.32 12.32 0 0 0-.15 1.8c0 .81 0 1.63.11 2.45s.11 1.63.11 2.44a15.51 15.51 0 0 0 .32 2.27 10.2 10.2 0 0 1 .26 2.27 1.34 1.34 0 0 1-.44 1 2.51 2.51 0 0 1-1 .58 6.86 6.86 0 0 1-1.26.25 10.55 10.55 0 0 1-1.12.07 6.54 6.54 0 0 1-2-.28A1.4 1.4 0 0 1 320 453a8.4 8.4 0 0 1 .25-2.08 8.28 8.28 0 0 0 .25-2c0-1.44-.06-2.87-.18-4.28s-.18-2.85-.18-4.29q0-5.32.26-10.62c.16-3.53.25-7.07.25-10.62 0-1 0-1.93-.07-2.91s-.08-2-.08-3a1.91 1.91 0 0 1 .15-.9c.09-.17.38-.25.86-.25h1.41a10.75 10.75 0 0 1 1.72.07 4.2 4.2 0 0 1 1.44.43 1.17 1.17 0 0 1 .62 1.12 6.76 6.76 0 0 1-.26 1.84 7.33 7.33 0 0 0-.25 1.9 11.13 11.13 0 0 0-.07 1.26v1.26c0 1.59 0 3.17.07 4.76s.07 3.16.07 4.75a14.21 14.21 0 0 1-.28 2.09 9.17 9.17 0 0 0-.22 2 1.78 1.78 0 0 0 .65 1.59 4.1 4.1 0 0 0 1.73.57l2.7.29a23.92 23.92 0 0 0 2.7.14h.64a1.09 1.09 0 0 0 1.19-1 11.1 11.1 0 0 0 .29-1.44 11.7 11.7 0 0 0 .11-1.52v-1.08c0-1.1 0-2.17-.11-3.2s-.11-2.1-.11-3.2 0-2.1.11-3.14.11-2.07.11-3.13a17.91 17.91 0 0 0-.11-1.91 17.58 17.58 0 0 1-.11-1.9 2.83 2.83 0 0 1 .51-1.8 2.12 2.12 0 0 1 1.8-.65 2.74 2.74 0 0 1 2.26.83 3.55 3.55 0 0 1 .69 2.34v4.6c0 1.53-.03 3.08.02 4.58zM361.92 458.56a9.43 9.43 0 0 1-2.73.43 7.1 7.1 0 0 1-4.18-1.26 11.84 11.84 0 0 1-3.13-3.31 20.38 20.38 0 0 1-2.2-4.65 46.52 46.52 0 0 1-2.16-10.29c-.14-1.63-.21-3-.21-4.18s0-2.71.11-4.39.22-3.42.46-5.22a41.36 41.36 0 0 1 1.08-5.36 19.3 19.3 0 0 1 2-4.76 10.75 10.75 0 0 1 3-3.38 7.36 7.36 0 0 1 4.39-1.3 7.69 7.69 0 0 1 5.22 1.91 15 15 0 0 1 3.6 4.72 25.15 25.15 0 0 1 2.09 6 26.57 26.57 0 0 1 .69 5.55c0 1.63-.41 2.64-1.23 3a7.61 7.61 0 0 1-3.24.58c-1.25 0-2.48 0-3.71-.07s-2.46-.08-3.7-.08a8.51 8.51 0 0 0-2.92.51 2.27 2.27 0 0 0-1.4 2.45 13 13 0 0 0 .14 2c.09.64.19 1.3.29 2s.12 2 .21 3.49a30.47 30.47 0 0 0 .65 4.57 14.05 14.05 0 0 0 1.48 4 3.06 3.06 0 0 0 2.77 1.69 2.52 2.52 0 0 0 2.45-1.44 11.39 11.39 0 0 0 1-3.21c.19-1.17.32-2.29.39-3.34s.25-1.66.54-1.8a2.58 2.58 0 0 1 .94-.36 5.46 5.46 0 0 1 .93-.08 16.93 16.93 0 0 1 1.88.11 16.61 16.61 0 0 0 1.87.11c.52 0 .83.13.9.4a4.13 4.13 0 0 1 .11 1 17.83 17.83 0 0 1-.54 4.18 17.3 17.3 0 0 1-1.59 4.17 13.71 13.71 0 0 1-2.63 3.46 9.14 9.14 0 0 1-3.62 2.15zm-7.34-33.19c-.05.24-.1.49-.14.75a4.18 4.18 0 0 0-.08.76c0 .33.27.55.8.65a7.79 7.79 0 0 0 1.15.14 13.33 13.33 0 0 0 2.63-.25l2.55-.54 1.55-.25c.41-.08.61-.54.61-1.41a9.45 9.45 0 0 0-.43-2.52 13 13 0 0 0-1.22-2.88 10.36 10.36 0 0 0-1.84-2.34 3.27 3.27 0 0 0-2.27-1 2.38 2.38 0 0 0-1.91.79 4.71 4.71 0 0 0-1 1.87 11.87 11.87 0 0 0-.36 2.31c0 .81-.07 1.51-.07 2.09v1.8zM398.07 424.5c.09 4.47.14 8.89.14 13.29s0 8.82.07 13.28a17.38 17.38 0 0 0 .18 2.52 17.38 17.38 0 0 1 .18 2.52 5.86 5.86 0 0 1-.14 1q-.15.69-.72.69a2.18 2.18 0 0 1-.76-.15l-.68-.21a3.45 3.45 0 0 1-2.49-1.41 5.52 5.52 0 0 1-.61-2.77v-2.34-3.24c0-1.13 0-2.18-.1-3.17a4.4 4.4 0 0 0-.47-2 2.14 2.14 0 0 0-1.12-1 5.27 5.27 0 0 0-1.47-.18 10.2 10.2 0 0 1-2.81-.39 9.62 9.62 0 0 0-2.74-.4c-.77 0-1.2.34-1.29 1a12.32 12.32 0 0 0-.15 1.8c0 .81 0 1.63.11 2.45s.11 1.63.11 2.44a14.26 14.26 0 0 0 .32 2.27 10.19 10.19 0 0 1 .25 2.27 1.33 1.33 0 0 1-.43 1 2.55 2.55 0 0 1-1 .58 6.54 6.54 0 0 1-1.26.25 10.23 10.23 0 0 1-1.11.07 6.54 6.54 0 0 1-2-.28 1.4 1.4 0 0 1-.9-1.52 8.4 8.4 0 0 1 .25-2.08 8.28 8.28 0 0 0 .25-2c0-1.44-.06-2.87-.18-4.28s-.18-2.85-.18-4.29c0-3.55.09-7.09.25-10.62s.26-7.07.26-10.62c0-1 0-1.93-.08-2.91s-.07-2-.07-3a1.91 1.91 0 0 1 .15-.9c.09-.17.38-.25.86-.25h1.4a10.88 10.88 0 0 1 1.73.07 4.34 4.34 0 0 1 1.44.43 1.16 1.16 0 0 1 .61 1.12 6.75 6.75 0 0 1-.25 1.84 6.92 6.92 0 0 0-.25 1.9 11.13 11.13 0 0 0-.07 1.26v1.26c0 1.59 0 3.17.07 4.76s.07 3.16.07 4.75a14.21 14.21 0 0 1-.29 2.09 9.8 9.8 0 0 0-.21 2 1.76 1.76 0 0 0 .65 1.59 4 4 0 0 0 1.73.57l2.69.29a24.17 24.17 0 0 0 2.7.14h.65a1.09 1.09 0 0 0 1.19-1 11.1 11.1 0 0 0 .29-1.44 11.7 11.7 0 0 0 .11-1.52v-1.08c0-1.1 0-2.17-.11-3.2s-.11-2.1-.11-3.2 0-2.1.11-3.14.11-2.07.11-3.13a17.91 17.91 0 0 0-.11-1.91 17.58 17.58 0 0 1-.11-1.9 2.9 2.9 0 0 1 .5-1.8 2.15 2.15 0 0 1 1.8-.65 2.75 2.75 0 0 1 2.27.83 3.55 3.55 0 0 1 .69 2.34v4.6c0 1.53.01 3.21.08 4.71zM425.07 424a7.77 7.77 0 0 0-1.16 1.91c-.57 1.12-1.17 2.37-1.8 3.74s-1.21 2.69-1.76 4a25.36 25.36 0 0 1-1.26 2.63q-1.8 3.45-3.56 6.95a57 57 0 0 0-3.06 7.23c-.05.24-.14.59-.26 1.05l-.36 1.36a9.9 9.9 0 0 1-.43 1.3 1.7 1.7 0 0 1-.61.83 3.24 3.24 0 0 1-.68.18 8.16 8.16 0 0 1-1.12.14l-1.15.07h-.87a1.1 1.1 0 0 1-1-.72 5.67 5.67 0 0 1-.51-1.66c-.09-.62-.15-1.26-.18-1.9s0-1.12 0-1.41c0-1.73.07-3.43.21-5.11s.22-3.38.22-5.11q0-3.6-.22-7.2t-.21-7.2v-2.81-2.74a20.86 20.86 0 0 0-.18-2.73 21 21 0 0 1-.18-2.74 1.28 1.28 0 0 1 .54-1 5.68 5.68 0 0 1 1.29-.75 9.05 9.05 0 0 1 1.52-.51 5.45 5.45 0 0 1 1.18-.18.76.76 0 0 1 .8.69 6.23 6.23 0 0 1 .14 1.19q0 6.33-.11 12.56t-.11 12.56c0 .72 0 1.43.08 2.13a16 16 0 0 0 .28 2.12 28.37 28.37 0 0 0 1.8-2.77q1.08-1.83 2.13-3.89t2-4c.62-1.3 1.08-2.33 1.37-3.1a44.63 44.63 0 0 1 2.12-4.72q1.18-2.26 2.2-4.64c.14-.38.31-.91.5-1.58l.58-2.09a17.08 17.08 0 0 1 .64-2 3.14 3.14 0 0 1 .8-1.26 3.77 3.77 0 0 1 1.36-.76 5.38 5.38 0 0 1 1.66-.25 1.69 1.69 0 0 1 1.51.65 2.89 2.89 0 0 1 .43 1.65 12.85 12.85 0 0 1-.25 2.56 12.49 12.49 0 0 0-.25 2.48q0 7.56.22 15t.21 15c0 1.15 0 2.29-.07 3.42s-.12 2.27-.22 3.42a12.53 12.53 0 0 1-.25 1.33.94.94 0 0 1-.32.54 1.25 1.25 0 0 1-.69.14c-.31 0-.73 0-1.26.08a4 4 0 0 0-.75.07 4.5 4.5 0 0 1-.83.07.82.82 0 0 1-.76-.47 4 4 0 0 1-.36-1.08 10.13 10.13 0 0 1-.14-1.22v-1q0-7.42.69-14.73t.68-14.72a2.19 2.19 0 0 0-.23-1zM457.83 405.13a2.9 2.9 0 0 1 .21 1.23 8.54 8.54 0 0 1-.18 1.73 8.38 8.38 0 0 0-.18 1.72q0 11.74-.39 23.4t-.4 23.48a16.89 16.89 0 0 0 .11 1.87 17.32 17.32 0 0 1 .11 1.94c0 1.06-.16 1.66-.47 1.8a10.34 10.34 0 0 1-1.77.51l-1 .28a3.81 3.81 0 0 1-1.08.15.9.9 0 0 1-1-.58 4 4 0 0 1-.18-1.22c0-.91 0-1.83.11-2.74s.11-1.85.11-2.81c0-1.29 0-2.56-.11-3.81s-.11-2.52-.11-3.82q0-3 .11-6.05c.07-2 .13-4 .18-6q-1.8 4.89-3.6 9.68t-3.6 9.68c-.57 1.54-1.13 3.09-1.65 4.65s-1.11 3.08-1.73 4.57a2 2 0 0 1-1.87 1.37 2.64 2.64 0 0 1-.87-.22 6.82 6.82 0 0 1-1.15-.57 7.82 7.82 0 0 1-1-.76 1 1 0 0 1-.43-.68l1.4-3.68c.41-1 .86-2.2 1.34-3.45s.93-2.44 1.36-3.57.82-2.12 1.16-3 .55-1.44.64-1.73q1.74-5 3.5-9.87t3.56-9.86a8.13 8.13 0 0 1-3.82-1.69 12.38 12.38 0 0 1-2.77-3.17 15.16 15.16 0 0 1-1.69-4 15.82 15.82 0 0 1-.58-4.21 15.54 15.54 0 0 1 .65-4.47 11.75 11.75 0 0 1 1.95-3.85 9.6 9.6 0 0 1 3.2-2.7 9.37 9.37 0 0 1 4.43-1 8.88 8.88 0 0 1 1.65.15 9.87 9.87 0 0 0 1.66.14c.72 0 1.49 0 2.3.07a2.29 2.29 0 0 1 1.89 1.09zM452.5 420c0-1 0-2-.07-2.92a26.9 26.9 0 0 1 0-2.84 7.47 7.47 0 0 1 .14-1.52 7 7 0 0 0 .14-1.44v-.75a5.19 5.19 0 0 0-.18-.94 6 6 0 0 0-.33-.83c-.12-.24-.27-.36-.46-.36a5.71 5.71 0 0 0-4.72 2 7.67 7.67 0 0 0-1.62 5 14.11 14.11 0 0 0 .32 2.77 13 13 0 0 0 1 2.95 7.24 7.24 0 0 0 1.77 2.34 3.88 3.88 0 0 0 2.66.94 1 1 0 0 0 .86-.4 2.24 2.24 0 0 0 .4-1 4.68 4.68 0 0 0 .07-1.19v-1z"/><path class="cls-3" d="M128.88 157.05l-15.41 30.86a1.85 1.85 0 0 1-2.49.83L62.21 164.4a1.85 1.85 0 0 1-.83-2.49l15.4-30.86a2 2 0 0 1 .41-.54 1.85 1.85 0 0 1 2.08-.29L128 154.56a1.86 1.86 0 0 1 1 1.84 1.92 1.92 0 0 1-.12.65z"/><path class="cls-4" d="M63.92 162.38l28.83-2.68a3.87 3.87 0 0 1 3.64 1.8L112 186.36l-14.3-26.29a3.87 3.87 0 0 0-4.18-2.07z"/><path class="cls-5" d="M129 156.58l-35.29 5.8-16.61-31.69a1.87 1.87 0 0 1 2.17-.47L128 154.56a1.88 1.88 0 0 1 1 2.02z"/><path class="cls-4" d="M78.13 132.66l14.42 27.44a3.41 3.41 0 0 0 3.63 1.83l30.37-4.83-30.9 7a3.43 3.43 0 0 1-4.13-2.1z"/><path class="cls-3" d="M414.35 96.89L424 130a1.84 1.84 0 0 1-1.26 2.3l-52.34 15.24a1.86 1.86 0 0 1-2.3-1.26l-9.64-33.12a1.91 1.91 0 0 1-.06-.67 1.83 1.83 0 0 1 1.32-1.63l52.34-15.24a1.87 1.87 0 0 1 2 .66 1.83 1.83 0 0 1 .29.61z"/><path class="cls-4" d="M370.27 144.9l19.36-21.54a3.87 3.87 0 0 1 3.9-1.15l28.29 7.68-28.34-9.59a3.88 3.88 0 0 0-4.44 1.29z"/><path class="cls-5" d="M414.1 96.48l-22 28.22-33.69-12a1.89 1.89 0 0 1 1.27-1.82l52.34-15.24a1.88 1.88 0 0 1 2.08.84z"/><path class="cls-4" d="M360.53 113.43l29.22 10.36a3.41 3.41 0 0 0 3.91-1.12l19-24.17-17.95 26.1a3.42 3.42 0 0 1-4.44 1.29z"/><path class="cls-3" d="M143.62 280.66L133.34 304a1.37 1.37 0 0 1-1.81.7l-36.81-16.29a1.38 1.38 0 0 1-.7-1.81l10.28-23.29a1.49 1.49 0 0 1 .28-.41 1.37 1.37 0 0 1 1.53-.29l36.81 16.24a1.38 1.38 0 0 1 .81 1.33 1.67 1.67 0 0 1-.11.48z"/><path class="cls-4" d="M95.91 286.86l21.16-3a2.85 2.85 0 0 1 2.75 1.2l12.34 17.78L120.7 284a2.85 2.85 0 0 0-3.12-1.38z"/><path class="cls-5" d="M143.67 280.31l-25.82 5.51L104.52 263a1.4 1.4 0 0 1 1.59-.43l36.81 16.24a1.41 1.41 0 0 1 .75 1.5z"/><path class="cls-4" d="M105.35 264.45l11.59 19.73a2.51 2.51 0 0 0 2.74 1.22l22.23-4.62-22.54 6.22a2.53 2.53 0 0 1-3.12-1.37z"/><path class="cls-3" d="M413.62 256.26l7.53 32.21a1.78 1.78 0 0 1-1.33 2.14l-50.91 11.91a1.79 1.79 0 0 1-2.14-1.33L359.24 269a1.78 1.78 0 0 1 0-.65 1.8 1.8 0 0 1 1.36-1.49l50.91-11.9a1.79 1.79 0 0 1 1.88.74 1.66 1.66 0 0 1 .23.56z"/><path class="cls-4" d="M368.93 300l19.65-19.64a3.72 3.72 0 0 1 3.79-.9l26.71 8.82-26.66-10.65a3.71 3.71 0 0 0-4.31 1z"/><path class="cls-5" d="M413.4 255.86l-22.49 25.89-31.65-13.24a1.81 1.81 0 0 1 1.31-1.68l50.91-11.9a1.8 1.8 0 0 1 1.92.93z"/><path class="cls-4" d="M361.22 269.34l27.45 11.42a3.28 3.28 0 0 0 3.8-.87l19.47-22.17-18.54 24.08a3.3 3.3 0 0 1-4.32 1z"/><path class="cls-3" d="M148.76 132L240 64.25a10.49 10.49 0 0 1 12.55 0L342.47 132z"/><rect class="cls-3" x="145.73" y="131.08" width="199.77" height="131.08" rx="8.08"/><path class="cls-6" d="M336.48 139.75l-21 16.25-.28.21-17 13.18-12.3 9.52-25.61 19.83-4.93 3.82-2.74-1.67a13.28 13.28 0 0 0-13.94.05l-2.73 1.69-4.31-3.32-26.5-20.4-12.37-9.52-17.12-13.18-3.13-2.41-18.26-14.05z"/><path class="cls-4" d="M338.46 253.34l-83.12-50.78-2.74-1.67a13.28 13.28 0 0 0-13.94.05l-2.73 1.69-81.69 50.71 77.38-54 6.8-4.75a13.26 13.26 0 0 1 15.86 0l6 4.18z"/><path class="cls-6" d="M154.24 92.7h182.24v59.34H154.24z"/><circle cx="221.64" cy="135.26" r="21.21" transform="rotate(-36.3 221.635 135.256)" fill="url(#radial-gradient)"/><ellipse cx="213.93" cy="137.01" rx="3.03" ry="3.8" transform="rotate(-.41 211.933 134.915)" fill="url(#linear-gradient)"/><g clip-path="url(#clip-path)"><path class="cls-10" d="M211.04 133.35h5.78v7.31h-5.78z"/><ellipse class="cls-10" cx="213.9" cy="137.05" rx="3.05" ry="3.94" transform="rotate(-.41 211.933 134.915)"/><path class="cls-11" d="M211 137.07c0-2.1 1.29-3.81 2.92-3.83s3 1.68 3 3.78-1.29 3.81-2.92 3.83-3-1.68-3-3.78z"/><ellipse class="cls-12" cx="213.9" cy="137.05" rx="2.84" ry="3.67" transform="rotate(-.41 211.933 134.915)"/><ellipse class="cls-13" cx="213.9" cy="137.05" rx="2.73" ry="3.53" transform="rotate(-.41 211.933 134.915)"/><ellipse class="cls-14" cx="213.9" cy="137.05" rx="2.63" ry="3.39" transform="rotate(-.4 215.81 138.264)"/><path class="cls-15" d="M211.38 137.06c0-1.8 1.11-3.26 2.5-3.27s2.53 1.44 2.55 3.24-1.11 3.26-2.5 3.27-2.54-1.44-2.55-3.24z"/><path class="cls-16" d="M211.48 137.06c0-1.72 1.06-3.13 2.4-3.14s2.43 1.38 2.44 3.11-1.06 3.13-2.4 3.14-2.42-1.38-2.44-3.11z"/><path class="cls-17" d="M211.59 137.06c0-1.65 1-3 2.29-3s2.32 1.32 2.34 3-1 3-2.3 3-2.32-1.35-2.33-3z"/><ellipse class="cls-18" cx="213.9" cy="137.05" rx="2.21" ry="2.85" transform="rotate(-.41 211.933 134.915)"/><path class="cls-19" d="M211.8 137.06c0-1.5.92-2.72 2.08-2.73s2.11 1.2 2.13 2.7a2.48 2.48 0 0 1-2.09 2.73c-1.16.01-2.11-1.2-2.12-2.7z"/><path class="cls-20" d="M211.9 137.06a2.06 2.06 0 1 1 2 2.56 2.34 2.34 0 0 1-2-2.56z"/><path class="cls-21" d="M212 137.06a2 2 0 1 1 1.91 2.43 2.23 2.23 0 0 1-1.91-2.43z"/><path class="cls-22" d="M212.11 137.06a1.85 1.85 0 1 1 1.81 2.29 2.1 2.1 0 0 1-1.81-2.29z"/><path class="cls-23" d="M212.22 137.06a1.74 1.74 0 1 1 1.7 2.16 2 2 0 0 1-1.7-2.16z"/><path class="cls-24" d="M212.33 137.06a1.63 1.63 0 1 1 1.59 2 1.84 1.84 0 0 1-1.59-2z"/><path class="cls-25" d="M212.43 137.06a1.52 1.52 0 1 1 1.49 1.89 1.74 1.74 0 0 1-1.49-1.89z"/><path class="cls-26" d="M212.54 137.05a1.41 1.41 0 1 1 1.37 1.76 1.6 1.6 0 0 1-1.37-1.76z"/><path class="cls-27" d="M212.64 137.05a1.3 1.3 0 1 1 1.27 1.62 1.48 1.48 0 0 1-1.27-1.62z"/><path class="cls-28" d="M212.75 137.05a1.19 1.19 0 1 1 2.31 0 1.37 1.37 0 0 1-1.15 1.5 1.35 1.35 0 0 1-1.16-1.5z"/><path class="cls-28" d="M212.85 137.05a1.08 1.08 0 1 1 1.06 1.35 1.23 1.23 0 0 1-1.06-1.35z"/><path class="cls-29" d="M213 137.05a1 1 0 1 1 1.89 0 1.13 1.13 0 0 1-.94 1.23 1.11 1.11 0 0 1-.95-1.23z"/><path class="cls-30" d="M213.06 137.05a.87.87 0 1 1 .85 1.08 1 1 0 0 1-.85-1.08z"/><path class="cls-31" d="M213.17 137.05a.76.76 0 1 1 .74.95.86.86 0 0 1-.74-.95z"/><path class="cls-32" d="M213.27 137.05a.65.65 0 1 1 1.26 0 .73.73 0 0 1-.62.82.74.74 0 0 1-.64-.82z"/><path class="cls-33" d="M213.38 137.05a.6.6 0 0 1 .52-.68c.29 0 .53.3.53.67s-.23.68-.52.68-.53-.3-.53-.67z"/><path class="cls-33" d="M213.48 137.05a.5.5 0 0 1 .42-.55.49.49 0 0 1 .42.54c0 .3-.18.55-.41.55a.49.49 0 0 1-.43-.54z"/><path class="cls-33" d="M213.59 137.05c0-.23.14-.41.31-.41a.37.37 0 0 1 .32.4c0 .23-.14.41-.31.41a.37.37 0 0 1-.32-.4z"/><path class="cls-33" d="M213.69 137.05c0-.15.09-.28.21-.28a.24.24 0 0 1 .21.27c0 .15-.09.28-.21.28a.25.25 0 0 1-.21-.27z"/><path class="cls-33" d="M213.8 137.05c0-.08 0-.14.1-.14a.12.12 0 0 1 .11.13.13.13 0 0 1-.11.14.12.12 0 0 1-.1-.13z"/></g><ellipse cx="229.34" cy="136.89" rx="3.03" ry="3.8" transform="rotate(-.41 227.305 134.97)" fill="url(#linear-gradient-2)"/><g clip-path="url(#clip-path-2)"><path class="cls-10" d="M226.45 133.24h5.78v7.31h-5.78z"/><ellipse class="cls-10" cx="229.31" cy="136.93" rx="3.05" ry="3.94" transform="rotate(-.41 227.305 134.97)"/><ellipse class="cls-11" cx="229.31" cy="136.93" rx="2.94" ry="3.8" transform="rotate(-.41 227.305 134.97)"/><path class="cls-12" d="M226.47 137c0-2 1.25-3.68 2.82-3.69s2.85 1.62 2.86 3.65-1.24 3.67-2.81 3.68-2.85-1.64-2.87-3.64z"/><ellipse class="cls-13" cx="229.31" cy="136.93" rx="2.73" ry="3.53" transform="rotate(-.41 227.305 134.97)"/><ellipse class="cls-14" cx="229.31" cy="136.93" rx="2.63" ry="3.39" transform="rotate(-.41 227.305 134.97)"/><ellipse class="cls-15" cx="229.31" cy="136.93" rx="2.52" ry="3.26" transform="rotate(-.41 227.305 134.97)"/><path class="cls-16" d="M226.89 136.94c0-1.72 1.07-3.13 2.4-3.14s2.43 1.38 2.44 3.11-1.06 3.13-2.4 3.14-2.42-1.38-2.44-3.11z"/><path class="cls-17" d="M227 136.94c0-1.65 1-3 2.29-3s2.32 1.32 2.34 3-1 3-2.3 3-2.33-1.35-2.33-3z"/><path class="cls-18" d="M227.1 136.94c0-1.57 1-2.86 2.19-2.87s2.22 1.27 2.23 2.84-1 2.86-2.19 2.87-2.21-1.26-2.23-2.84z"/><path class="cls-19" d="M227.21 136.94c0-1.5.92-2.72 2.08-2.73s2.11 1.2 2.13 2.7a2.48 2.48 0 0 1-2.09 2.73c-1.16.01-2.11-1.2-2.12-2.7z"/><path class="cls-20" d="M227.32 136.94a2.06 2.06 0 1 1 2 2.56 2.32 2.32 0 0 1-2-2.56z"/><ellipse class="cls-21" cx="229.31" cy="136.93" rx="1.89" ry="2.44" transform="rotate(-.41 227.305 134.97)"/><ellipse class="cls-22" cx="229.31" cy="136.93" rx="1.79" ry="2.31" transform="rotate(-.4 231.567 138.32)"/><path class="cls-23" d="M227.63 136.94a1.74 1.74 0 1 1 1.7 2.16 2 2 0 0 1-1.7-2.16z"/><ellipse class="cls-24" cx="229.31" cy="136.93" rx="1.58" ry="2.04" transform="rotate(-.41 227.3 136.368)"/><path class="cls-25" d="M227.84 136.94a1.52 1.52 0 1 1 1.49 1.89 1.74 1.74 0 0 1-1.49-1.89z"/><path class="cls-26" d="M228 136.93a1.41 1.41 0 1 1 1.38 1.76 1.6 1.6 0 0 1-1.38-1.76z"/><path class="cls-27" d="M228.05 136.93a1.3 1.3 0 1 1 1.27 1.62 1.48 1.48 0 0 1-1.27-1.62z"/><path class="cls-28" d="M228.16 136.93a1.19 1.19 0 1 1 1.16 1.49 1.35 1.35 0 0 1-1.16-1.49z"/><path class="cls-28" d="M228.26 136.93a1.08 1.08 0 1 1 1.06 1.35 1.23 1.23 0 0 1-1.06-1.35z"/><path class="cls-29" d="M228.37 136.93a1 1 0 1 1 1.89 0 1.13 1.13 0 0 1-.94 1.23 1.11 1.11 0 0 1-.95-1.23z"/><path class="cls-30" d="M228.47 136.93a.87.87 0 1 1 .85 1.08 1 1 0 0 1-.85-1.08z"/><path class="cls-31" d="M228.58 136.93a.76.76 0 1 1 .74.95.86.86 0 0 1-.74-.95z"/><path class="cls-32" d="M228.68 136.93a.74.74 0 0 1 .63-.82.84.84 0 0 1 0 1.63.75.75 0 0 1-.63-.81z"/><path class="cls-33" d="M228.79 136.93a.6.6 0 0 1 .52-.68c.29 0 .53.3.53.67s-.23.68-.52.68-.53-.3-.53-.67z"/><path class="cls-33" d="M228.89 136.93a.5.5 0 0 1 .42-.55.56.56 0 1 1-.42.55z"/><path class="cls-33" d="M229 136.93c0-.23.14-.41.31-.41a.37.37 0 0 1 .32.4c0 .23-.14.41-.31.41a.37.37 0 0 1-.32-.4z"/><path class="cls-33" d="M229.1 136.93c0-.15.09-.28.21-.28a.24.24 0 0 1 .21.27c0 .15-.09.28-.21.28a.25.25 0 0 1-.21-.27z"/><path class="cls-33" d="M229.21 136.93c0-.08 0-.14.1-.14a.12.12 0 0 1 .11.13.13.13 0 0 1-.11.14.12.12 0 0 1-.1-.13z"/></g><path class="cls-36" d="M220.19 130.5a7.72 7.72 0 0 0-.12-1 1.27 1.27 0 0 0-2.35-.34 6.59 6.59 0 0 0-.41 1c-.11.32-.21.63-.29.95H217l-1-.17-2-.31q-2-.31-4-.57c-1.35-.16-2.69-.32-4-.42a1.19 1.19 0 0 0-.41 2.33c1.3.37 2.61.68 3.92 1s2.62.58 3.94.84c.65.13 1.31.27 2 .39l1 .19.5.08h.88a2.59 2.59 0 0 0 1.35-.42 2.63 2.63 0 0 0 .91-1.07 2.44 2.44 0 0 0 .2-.67V132.14a.62.62 0 0 1 0-.13v-.5c-.09-.33-.08-.67-.1-1.01zM223.09 131.52v.8a2.44 2.44 0 0 0 .2.67 2.65 2.65 0 0 0 .92 1.07 2.53 2.53 0 0 0 1.34.42h.98l.49-.08 1-.19 2-.39c1.32-.26 2.63-.54 3.94-.84s2.62-.62 3.92-1a1.19 1.19 0 0 0-.41-2.33c-1.36.1-2.71.26-4 .42s-2.69.36-4 .57l-2 .31-1 .17h-.08c-.08-.32-.17-.63-.28-.95a8 8 0 0 0-.42-1 1.26 1.26 0 0 0-2.34.34 5.44 5.44 0 0 0-.12 1 8.68 8.68 0 0 0-.14 1.01z"/><path d="M201.55 142.59h40.17v10.57h-40.17z"/><path class="cls-6" d="M210.34 149.56a.84.84 0 0 0-.22-.62 2 2 0 0 0-.74-.43 8.68 8.68 0 0 1-.89-.39 2.64 2.64 0 0 1-.65-.44 1.87 1.87 0 0 1-.42-.59 2 2 0 0 1-.15-.81 1.79 1.79 0 0 1 .51-1.32 2.12 2.12 0 0 1 1.37-.6v-1h.77v1a2 2 0 0 1 1.32.71 2.3 2.3 0 0 1 .48 1.51h-1.38a1.32 1.32 0 0 0-.24-.86.77.77 0 0 0-.63-.28.82.82 0 0 0-.61.22.86.86 0 0 0-.21.62.81.81 0 0 0 .21.58 2.21 2.21 0 0 0 .78.45 7.86 7.86 0 0 1 .94.43 3 3 0 0 1 .62.46 1.74 1.74 0 0 1 .39.58 2 2 0 0 1 .13.76 1.77 1.77 0 0 1-.51 1.32 2.18 2.18 0 0 1-1.39.6v.95h-.76v-.95a2.33 2.33 0 0 1-1.52-.69 2.23 2.23 0 0 1-.54-1.57h1.39a1.26 1.26 0 0 0 .27.87 1.1 1.1 0 0 0 1.44.08.78.78 0 0 0 .24-.59zM216 149.5h-1l-.36 2h-.91l.35-2H213v-.86h1.28l.25-1.41h-1.13v-.87h1.31l.36-2.07h.93l-.37 2.07h1l.36-2.07h.92l-.37 2.07h1.09v.87h-1.24l-.25 1.41h1.11v.86h-1.26l-.36 2h-.91zm-.81-.86h1l.25-1.41h-1zM219.62 149.59a1.74 1.74 0 0 1 .28-.93 4 4 0 0 1 1-.95 4.5 4.5 0 0 1-.51-.82 1.92 1.92 0 0 1 .35-2.17 2 2 0 0 1 1.44-.53 1.91 1.91 0 0 1 1.34.48 1.63 1.63 0 0 1 .52 1.21 1.91 1.91 0 0 1-.88 1.53l-.56.4 1.25 1.46a2.74 2.74 0 0 0 .3-1.28h1.22a3.75 3.75 0 0 1-.65 2.29l1.09 1.26h-1.64l-.37-.42a3.31 3.31 0 0 1-1.85.52 2.51 2.51 0 0 1-1.72-.56 1.89 1.89 0 0 1-.61-1.49zm2.44.89a1.73 1.73 0 0 0 1-.29l-1.43-1.65-.1.08a1.12 1.12 0 0 0-.44.89.94.94 0 0 0 .27.7 1 1 0 0 0 .7.27zm-.52-4.4a1.69 1.69 0 0 0 .43.94l.39-.25a1.33 1.33 0 0 0 .4-.37.77.77 0 0 0 .12-.43.63.63 0 0 0-.19-.44.64.64 0 0 0-.47-.18.67.67 0 0 0-.5.2.76.76 0 0 0-.18.53zM226.76 145.68a1.44 1.44 0 0 1 .44-1.08 1.53 1.53 0 0 1 1.13-.42 1.58 1.58 0 0 1 1.15.42 1.44 1.44 0 0 1 .43 1.11v.36a1.4 1.4 0 0 1-.43 1.08 1.79 1.79 0 0 1-2.28 0 1.48 1.48 0 0 1-.44-1.11zm1 .39a.69.69 0 0 0 .17.48.6.6 0 0 0 .45.18.54.54 0 0 0 .44-.18.74.74 0 0 0 .17-.5v-.37a.7.7 0 0 0-.17-.48.57.57 0 0 0-.45-.18.57.57 0 0 0-.44.18.68.68 0 0 0-.17.5zm.91 4.93l-.71-.38 3.55-5.67.7.38zm1.6-1.23a1.45 1.45 0 0 1 .44-1.09 1.6 1.6 0 0 1 1.13-.41 1.62 1.62 0 0 1 1.15.41 1.45 1.45 0 0 1 .43 1.12v.35a1.43 1.43 0 0 1-.42 1.08 1.57 1.57 0 0 1-1.15.41 1.59 1.59 0 0 1-1.15-.41 1.45 1.45 0 0 1-.43-1.1zm1 .38a.66.66 0 0 0 .18.47.57.57 0 0 0 .44.2c.41 0 .61-.23.61-.68v-.37a.68.68 0 0 0-.17-.49.58.58 0 0 0-.45-.18.57.57 0 0 0-.44.18.69.69 0 0 0-.17.5zM235.57 150.1a.82.82 0 0 1 .58.22.71.71 0 0 1 .22.55.7.7 0 0 1-.22.54.81.81 0 0 1-.58.21.79.79 0 0 1-.58-.21.71.71 0 0 1-.23-.54.75.75 0 0 1 .23-.55.8.8 0 0 1 .58-.22zm.59-.78H235l-.17-5h1.53z"/><circle cx="271.39" cy="135.17" r="21.11" transform="rotate(-3.44 271.588 135.315)" fill="url(#radial-gradient-2)"/><path d="M271.38 143.25H269.5l-.64.11H268.45l-.21.05-.62.16-.6.2-.2.07h-.1l-.3.11a10.81 10.81 0 0 0-3.24 2c-.17.15-.33.3-.47.45l-.23.24-.11.13-.12.14a1.19 1.19 0 0 0 0 1.65 1 1 0 0 0 .74.3 1.8 1.8 0 0 0 .91-.29l.11-.06.2-.12.44-.24c.32-.17.62-.31.9-.43a14.2 14.2 0 0 1 1.88-.67 13.2 13.2 0 0 1 1.93-.39h3.95a13.94 13.94 0 0 1 3.8 1.06c.28.12.58.26.9.43l.43.23.21.13.1.06h.05a1.68 1.68 0 0 0 .9.3 1 1 0 0 0 .75-.31 1.19 1.19 0 0 0 0-1.65l-.12-.13-.11-.13-.22-.25-.47-.45c-.31-.27-.65-.53-1-.79a12 12 0 0 0-2.24-1.2l-.3-.11h-.1l-.2-.07a6.25 6.25 0 0 0-.61-.2c-.19-.06-.4-.11-.61-.16l-.21-.05h-.18l-.24-.05-.63-.1H271.35z" fill="url(#linear-gradient-3)"/><path d="M271.39 143.38H269.51l-.62.1H268.48l-.21.05-.61.16-.6.19-.2.07h-.09l-.3.11a11.73 11.73 0 0 0-2.21 1.19 10.18 10.18 0 0 0-1 .78l-.46.44-.22.24-.11.13-.12.14a1.05 1.05 0 0 0 0 1.47.87.87 0 0 0 .64.26 1.7 1.7 0 0 0 .84-.27l.1-.07.21-.12.44-.24c.32-.17.62-.31.91-.44a15.32 15.32 0 0 1 1.89-.67 13.73 13.73 0 0 1 1.95-.39h3.98a13.73 13.73 0 0 1 1.95.39 15.32 15.32 0 0 1 1.89.67c.29.13.59.27.91.44l.44.24.21.12.1.07h.05a1.57 1.57 0 0 0 .83.28.9.9 0 0 0 .66-.27 1.06 1.06 0 0 0 0-1.47l-.12-.14-.11-.13-.22-.24-.46-.44a10.18 10.18 0 0 0-1-.78 11.73 11.73 0 0 0-2.21-1.19l-.3-.11h-.09l-.2-.07-.6-.19-.61-.16-.21-.05H273.81l-.62-.1h-1.88z" fill="url(#radial-gradient-3)"/><path d="M263.75 140.68c-1.67 0-3-1.67-3.05-3.75s1.33-3.79 3-3.8 3 1.67 3.05 3.75-1.34 3.79-3 3.8z" fill="url(#linear-gradient-4)"/><g clip-path="url(#clip-path-3)"><path class="cls-10" d="M260.84 133.27h5.76v7.28h-5.76z"/><ellipse class="cls-10" cx="263.69" cy="136.94" rx="3.04" ry="3.92" transform="rotate(-.41 260.844 135.09)"/><path class="cls-11" d="M260.76 137c0-2.09 1.28-3.79 2.9-3.8s2.95 1.67 3 3.76-1.29 3.79-2.9 3.8-2.99-1.71-3-3.76z"/><path class="cls-12" d="M260.86 137c0-2 1.24-3.66 2.8-3.67s2.84 1.61 2.86 3.63-1.24 3.66-2.8 3.67-2.84-1.63-2.86-3.63z"/><ellipse class="cls-13" cx="263.69" cy="136.94" rx="2.72" ry="3.51" transform="rotate(-.41 260.844 135.09)"/><path class="cls-14" d="M261.07 137c0-1.87 1.15-3.39 2.6-3.4s2.62 1.5 2.64 3.36-1.15 3.39-2.6 3.4-2.62-1.54-2.64-3.36z"/><ellipse class="cls-15" cx="263.69" cy="136.94" rx="2.51" ry="3.24" transform="rotate(-.41 260.844 135.09)"/><ellipse class="cls-16" cx="263.69" cy="136.94" rx="2.41" ry="3.11" transform="rotate(-.41 260.844 135.09)"/><path class="cls-17" d="M261.39 137c0-1.65 1-3 2.28-3s2.31 1.31 2.32 2.95-1 3-2.28 3-2.31-1.35-2.32-2.95z"/><path class="cls-18" d="M261.49 137c0-1.57 1-2.85 2.18-2.86s2.21 1.26 2.22 2.82-1 2.85-2.18 2.86-2.21-1.3-2.22-2.82z"/><path class="cls-19" d="M261.6 137c0-1.49.91-2.7 2.07-2.71s2.1 1.19 2.11 2.69a2.45 2.45 0 0 1-2.07 2.71c-1.16-.04-2.1-1.24-2.11-2.69z"/><path class="cls-20" d="M261.7 137a2.06 2.06 0 1 1 2 2.56 2.34 2.34 0 0 1-2-2.56z"/><path class="cls-21" d="M261.81 137a1.94 1.94 0 1 1 1.9 2.42 2.2 2.2 0 0 1-1.9-2.42z"/><path class="cls-22" d="M261.91 137a1.84 1.84 0 1 1 1.8 2.29 2.09 2.09 0 0 1-1.8-2.29z"/><path class="cls-23" d="M262 137a1.73 1.73 0 1 1 1.69 2.15A2 2 0 0 1 262 137z"/><path class="cls-24" d="M262.12 137a1.62 1.62 0 1 1 1.58 2 1.85 1.85 0 0 1-1.58-2z"/><path class="cls-25" d="M262.22 137a1.73 1.73 0 0 1 1.46-1.9 2 2 0 1 1-1.46 1.9z"/><path class="cls-26" d="M262.33 137a1.41 1.41 0 1 1 1.37 1.75 1.6 1.6 0 0 1-1.37-1.75z"/><path class="cls-27" d="M262.43 137a1.3 1.3 0 1 1 1.27 1.61 1.47 1.47 0 0 1-1.27-1.61z"/><path class="cls-28" d="M262.54 137a1.19 1.19 0 1 1 1.16 1.48 1.35 1.35 0 0 1-1.16-1.48z"/><path class="cls-28" d="M262.64 137a1.08 1.08 0 1 1 1.06 1.34 1.23 1.23 0 0 1-1.06-1.34z"/><path class="cls-29" d="M262.75 137a1 1 0 1 1 .95 1.21 1.11 1.11 0 0 1-.95-1.21z"/><path class="cls-30" d="M262.85 137a.87.87 0 1 1 .85 1.07 1 1 0 0 1-.85-1.07z"/><path class="cls-31" d="M263 137a.76.76 0 1 1 .74.94.86.86 0 0 1-.74-.94z"/><path class="cls-32" d="M263.06 136.94a.65.65 0 1 1 .64.81.74.74 0 0 1-.64-.81z"/><path class="cls-33" d="M263.17 136.94a.54.54 0 1 1 .52.68.62.62 0 0 1-.52-.68z"/><path class="cls-33" d="M263.27 136.94a.48.48 0 0 1 .42-.54.56.56 0 1 1-.42.54z"/><path class="cls-33" d="M263.38 136.94a.37.37 0 0 1 .31-.41c.17 0 .31.18.31.41a.37.37 0 0 1-.31.41c-.17 0-.31-.18-.31-.41z"/><path class="cls-33" d="M263.48 136.94a.24.24 0 0 1 .21-.27.25.25 0 0 1 .21.27.24.24 0 0 1-.21.27.25.25 0 0 1-.21-.27z"/><path class="cls-33" d="M263.59 136.94a.12.12 0 0 1 .1-.14c.06 0 .1.06.1.14s0 .13-.1.13-.1-.07-.1-.13z"/></g><path d="M279.09 140.56c-1.67 0-3-1.67-3-3.75s1.33-3.79 3-3.8 3 1.67 3.05 3.75-1.39 3.79-3.05 3.8z" fill="url(#linear-gradient-5)"/><g clip-path="url(#clip-path-4)"><path class="cls-10" d="M276.18 133.15h5.76v7.28h-5.76z"/><path class="cls-10" d="M276 136.84c0-2.16 1.34-3.93 3-3.94s3.05 1.73 3.06 3.9-1.33 3.93-3 3.94-3.06-1.74-3.06-3.9z"/><path class="cls-11" d="M276.1 136.84c0-2.09 1.28-3.79 2.9-3.8s2.95 1.67 3 3.76-1.29 3.79-2.9 3.8-2.99-1.67-3-3.76z"/><ellipse class="cls-12" cx="279.03" cy="136.82" rx="2.83" ry="3.65" transform="rotate(-.41 276.216 135.145)"/><ellipse class="cls-13" cx="279.03" cy="136.82" rx="2.72" ry="3.51" transform="rotate(-.41 276.216 135.145)"/><ellipse class="cls-14" cx="279.03" cy="136.82" rx="2.62" ry="3.38" transform="rotate(-.41 276.216 135.145)"/><path class="cls-15" d="M276.52 136.84c0-1.79 1.1-3.25 2.49-3.26s2.52 1.43 2.53 3.22-1.1 3.25-2.49 3.26-2.52-1.43-2.53-3.22z"/><ellipse class="cls-16" cx="279.03" cy="136.82" rx="2.41" ry="3.11" transform="rotate(-.41 276.216 135.145)"/><path class="cls-17" d="M276.73 136.84c0-1.65 1-3 2.28-3s2.31 1.31 2.32 3-1 3-2.28 3-2.31-1.36-2.32-3z"/><path class="cls-18" d="M276.83 136.84c0-1.57 1-2.85 2.18-2.86s2.21 1.26 2.22 2.82-1 2.85-2.18 2.86-2.21-1.26-2.22-2.82z"/><path class="cls-19" d="M276.94 136.84c0-1.5.91-2.71 2.07-2.72s2.1 1.19 2.11 2.69-.92 2.71-2.07 2.71-2.05-1.19-2.11-2.68z"/><path class="cls-20" d="M277 136.83a2.06 2.06 0 1 1 2 2.56 2.34 2.34 0 0 1-2-2.56z"/><path class="cls-21" d="M277.15 136.83a1.94 1.94 0 1 1 1.9 2.42 2.2 2.2 0 0 1-1.9-2.42z"/><path class="cls-22" d="M277.25 136.83a1.84 1.84 0 1 1 1.8 2.29 2.09 2.09 0 0 1-1.8-2.29z"/><path class="cls-23" d="M277.36 136.83a1.73 1.73 0 1 1 1.69 2.15 2 2 0 0 1-1.69-2.15z"/><path class="cls-24" d="M277.46 136.83a1.62 1.62 0 1 1 1.58 2 1.85 1.85 0 0 1-1.58-2z"/><path class="cls-25" d="M277.56 136.83a1.73 1.73 0 0 1 1.46-1.9 2 2 0 1 1-1.46 1.9z"/><path class="cls-26" d="M277.67 136.83a1.41 1.41 0 1 1 1.37 1.75 1.6 1.6 0 0 1-1.37-1.75z"/><path class="cls-27" d="M277.77 136.83a1.3 1.3 0 1 1 1.27 1.61 1.47 1.47 0 0 1-1.27-1.61z"/><path class="cls-28" d="M277.88 136.83a1.19 1.19 0 1 1 1.16 1.48 1.35 1.35 0 0 1-1.16-1.48z"/><path class="cls-28" d="M278 136.83a1.08 1.08 0 1 1 1.06 1.34 1.23 1.23 0 0 1-1.06-1.34z"/><path class="cls-29" d="M278.09 136.83a1 1 0 1 1 1 1.21 1.11 1.11 0 0 1-1-1.21z"/><path class="cls-30" d="M278.19 136.83a.87.87 0 1 1 .85 1.07 1 1 0 0 1-.85-1.07z"/><path class="cls-31" d="M278.3 136.83a.75.75 0 1 1 .74.94.86.86 0 0 1-.74-.94z"/><path class="cls-32" d="M278.4 136.82a.65.65 0 1 1 .64.81.74.74 0 0 1-.64-.81z"/><path class="cls-33" d="M278.51 136.82a.54.54 0 1 1 .52.68.62.62 0 0 1-.52-.68z"/><path class="cls-33" d="M278.61 136.82a.48.48 0 0 1 .42-.54.56.56 0 1 1-.42.54z"/><path class="cls-33" d="M278.72 136.82a.35.35 0 0 1 .31-.4c.17 0 .31.17.31.4a.37.37 0 0 1-.31.41c-.17 0-.31-.18-.31-.41z"/><path class="cls-33" d="M278.82 136.82a.24.24 0 0 1 .21-.27.25.25 0 0 1 .21.27.24.24 0 0 1-.21.27.25.25 0 0 1-.21-.27z"/><path class="cls-33" d="M278.93 136.82a.11.11 0 0 1 .1-.13c.06 0 .1.06.1.13s0 .14-.1.14-.1-.06-.1-.14z"/></g><path class="cls-44" d="M270 130.43a7.54 7.54 0 0 0-.12-1 1.25 1.25 0 0 0-.62-.84 1.27 1.27 0 0 0-1.71.5 7.91 7.91 0 0 0-.41 1c-.11.31-.2.63-.28 1h-.08l-1-.16-2-.32c-1.33-.2-2.67-.39-4-.56s-2.68-.32-4-.42a1.19 1.19 0 0 0-.42 2.32c1.3.36 2.6.68 3.91 1s2.61.58 3.92.84l2 .39 1 .18.49.09.25.05h.63a2.63 2.63 0 0 0 1.34-.43 2.47 2.47 0 0 0 .91-1.06 2.34 2.34 0 0 0 .2-.67v-.16a.57.57 0 0 0 0-.13v-.5c-.01-.45-.01-.78-.01-1.12zM272.83 131.44v.5a.57.57 0 0 0 0 .13v.16a2.34 2.34 0 0 0 .2.67 2.47 2.47 0 0 0 .97 1.1 2.63 2.63 0 0 0 1.34.43h.63l.25-.05.49-.09 1-.18 2-.39q2-.39 3.93-.84c1.3-.3 2.6-.62 3.9-1a1.18 1.18 0 0 0-.42-2.32c-1.34.1-2.68.26-4 .42s-2.68.36-4 .56l-2 .32-1 .16h-.08c-.08-.32-.17-.64-.28-1a7.91 7.91 0 0 0-.41-1 1.27 1.27 0 0 0-1.71-.5 1.25 1.25 0 0 0-.62.84 7.54 7.54 0 0 0-.12 1c-.08.41-.08.74-.07 1.08z"/></svg>