<svg id="Layer_1" data-name="Layer 1" xmlns="http://www.w3.org/2000/svg" viewBox="0 0 2567.11 1021.3"><defs><style>.cls-5{opacity:.66}.cls-3,.cls-5{fill:#fff}.cls-4{opacity:.81}.cls-5,.cls-6{isolation:isolate}.cls-6{fill:#3e479b;opacity:.14}.cls-7{fill:#3bbcad}.cls-8{fill:#ffe436}.cls-9{fill:#f36867}.cls-12{fill:#83cdea}</style></defs><path d="M1478.61 38.75c-35.5.4-209.5-6.3-249.2-1.3-69.5 8.7-123 31.9-173.5 56.7-63.4 31.1-120.6 67.3-174.6 105.8-69.8 49.8-134.4 103.4-185.5 167.2-44.9 56-41.2 122.2-33.3 213.7 4.5 51.7-7.9 106 34.9 184.6 180.8 332.3 1316.9 353.5 1211.7-374.6-54.6-377.85-377.8-352.6-430.5-352.1z" fill="#c4e5e5"/><g opacity=".66"><path class="cls-3" d="M1130.41 414.35l-19-1.4a98 98 0 0 0-13-39.6l14.4-12.4a17.45 17.45 0 1 0-22.7-26.5l-14.3 12.3a97.83 97.83 0 0 0-37.2-18.8l1.4-19a17.45 17.45 0 0 0-34.8-2.6l-1.4 19a98 98 0 0 0-39.6 13L951.81 324a17.45 17.45 0 1 0-26.5 22.7l12.4 14.4a97.54 97.54 0 0 0-18.8 37.2l-19-1.4a17.45 17.45 0 0 0-2.6 34.8l19 1.4a98 98 0 0 0 13 39.6l-14.4 12.4a17.45 17.45 0 0 0 22.7 26.5l14.4-12.4a97.68 97.68 0 0 0 37.2 18.8l-1.4 19a17.45 17.45 0 1 0 34.8 2.6l1.4-19a98 98 0 0 0 39.6-13L1076 522a17.45 17.45 0 0 0 26.5-22.7l-12.6-14.4a97.76 97.76 0 0 0 18.8-37.2l19 1.4a17.46 17.46 0 0 0 18.7-16.1 17.28 17.28 0 0 0-16-18.6zm-122 79.4a71 71 0 1 1 76.2-65.4 71 71 0 0 1-76.2 65.4zm527 455.2a15.71 15.71 0 0 1-6.7-1.6 14.78 14.78 0 0 1-7.2-8.5l-3.4-10.8a71.94 71.94 0 0 1-26.1-2.2l-5.2 10a14.56 14.56 0 0 1-19.6 6.2 14.78 14.78 0 0 1-7.2-8.5 14.34 14.34 0 0 1 1-11.1l5.2-10a68.68 68.68 0 0 1-16.8-20l-10.8 3.4a14.5 14.5 0 0 1-18.2-9.5 14.34 14.34 0 0 1 1-11.1 14.78 14.78 0 0 1 8.5-7.2l10.8-3.4a71.94 71.94 0 0 1 2.2-26.1l-10-5.2a14.78 14.78 0 0 1-7.2-8.5 14.34 14.34 0 0 1 1-11.1 14.78 14.78 0 0 1 8.5-7.2 14.34 14.34 0 0 1 11.1 1l10 5.2a70.26 70.26 0 0 1 20-16.8l-3.4-10.8a14.5 14.5 0 0 1 9.5-18.2 14.34 14.34 0 0 1 11.1 1 14.78 14.78 0 0 1 7.2 8.5l3.4 10.8a71.94 71.94 0 0 1 26.1 2.2l5.2-10a14.54 14.54 0 1 1 25.8 13.4l-5.2 10a68.68 68.68 0 0 1 16.8 20l10.8-3.4a14.34 14.34 0 0 1 11.1 1 14.78 14.78 0 0 1 7.2 8.5 14.5 14.5 0 0 1-9.5 18.2l-10.8 3.4a71.94 71.94 0 0 1-2.2 26.1l10 5.2a14.56 14.56 0 0 1 6.2 19.6 14.78 14.78 0 0 1-8.5 7.2 14.34 14.34 0 0 1-11.1-1l-10-5.2a68.68 68.68 0 0 1-20 16.8l3.4 10.8a14.34 14.34 0 0 1-1 11.1 14.78 14.78 0 0 1-8.5 7.2 23.16 23.16 0 0 1-4.5.6zm-13.8-26.1l4.6 14.5a9.7 9.7 0 0 0 4.8 5.7 9.55 9.55 0 0 0 7.4.6 9.7 9.7 0 0 0 5.7-4.8 9.55 9.55 0 0 0 .6-7.4l-4.6-14.5 1.8-.9a66.57 66.57 0 0 0 21.5-18l1.2-1.6 13.5 7a9.55 9.55 0 0 0 7.4.6 9.77 9.77 0 0 0 1.5-18l-13.5-7 .6-1.9a65.92 65.92 0 0 0 2.4-27.9l-.3-2 14.5-4.6a9.85 9.85 0 0 0 6.4-12.3 9.7 9.7 0 0 0-4.8-5.7 9.55 9.55 0 0 0-7.4-.6l-14.5 4.6-.9-1.8a65.53 65.53 0 0 0-18-21.5l-1.6-1.2 7-13.5a9.79 9.79 0 0 0-17.4-9l-7 13.5-1.9-.6a65.92 65.92 0 0 0-27.9-2.4l-2 .3-4.6-14.5a9.7 9.7 0 0 0-4.8-5.7 9.55 9.55 0 0 0-7.4-.6 9.85 9.85 0 0 0-6.4 12.3l4.6 14.5-1.8.9a66.57 66.57 0 0 0-21.5 18l-1.2 1.6-13.5-7a9.55 9.55 0 0 0-7.4-.6 9.7 9.7 0 0 0-5.7 4.8 9.55 9.55 0 0 0-.6 7.4 9.7 9.7 0 0 0 4.8 5.7l13.5 7-.6 1.9a65.92 65.92 0 0 0-2.4 27.9l.3 2-14.5 4.6a9.7 9.7 0 0 0-5.7 4.8 9.55 9.55 0 0 0-.6 7.4 9.85 9.85 0 0 0 12.3 6.4l14.5-4.6.9 1.8a66.57 66.57 0 0 0 18 21.5l1.6 1.2-7 13.5a9.55 9.55 0 0 0-.6 7.4 9.77 9.77 0 0 0 18 1.5l7-13.5 1.9.6a65.92 65.92 0 0 0 27.9 2.4l1.9-.2zm-10.5-13.3a52.33 52.33 0 1 1 15.8-2.5 51.43 51.43 0 0 1-15.8 2.5zm.1-99.1a47.1 47.1 0 1 0 21.6 5.3 46.87 46.87 0 0 0-21.6-5.3z"/><path class="cls-3" d="M1660.51 860.05a24.52 24.52 0 0 1-2.7-.2 18.72 18.72 0 0 1-15.8-21.2l2.3-15.7a92.77 92.77 0 0 1-31.1-18.5l-12.7 9.5a18.72 18.72 0 0 1-22.4-30l12.7-9.5a94.72 94.72 0 0 1-8.9-35l-15.7-2.3a18.7 18.7 0 1 1 5.4-37l15.7 2.3a92.77 92.77 0 0 1 18.5-31.1l-9.5-12.7a18.72 18.72 0 0 1 30-22.4l9.5 12.7a94.72 94.72 0 0 1 35-8.9l2.3-15.7a18.7 18.7 0 1 1 37 5.4l-2.3 15.7a92.77 92.77 0 0 1 31.1 18.5l12.7-9.5a18.72 18.72 0 1 1 22.4 30l-12.7 9.5a94.23 94.23 0 0 1 8.9 35l15.7 2.3a18.7 18.7 0 0 1-5.4 37l-15.7-2.3a92.77 92.77 0 0 1-18.5 31.1l9.5 12.7a18.72 18.72 0 0 1-30 22.4l-9.5-12.7a94.72 94.72 0 0 1-35 8.9l-2.3 15.7a18.81 18.81 0 0 1-18.5 16zm-47-61.8l1.5 1.4a88.54 88.54 0 0 0 32.7 19.5l1.9.6-2.8 19.6a13.94 13.94 0 0 0 27.6 4l2.8-19.6 2-.1a88.07 88.07 0 0 0 36.9-9.4l1.8-.9 11.8 15.9a14.06 14.06 0 0 0 9.2 5.5 13.89 13.89 0 0 0 13.1-22.1l-11.8-15.9 1.4-1.5a88.54 88.54 0 0 0 19.5-32.7l.6-1.9 19.6 2.8a13.94 13.94 0 0 0 4-27.6l-19.6-2.8-.1-2a88.07 88.07 0 0 0-9.4-36.9l-.9-1.8 15.9-11.8a13.91 13.91 0 0 0 2.8-19.5 14.06 14.06 0 0 0-9.2-5.5 13.9 13.9 0 0 0-10.3 2.6l-15.9 11.8-1.5-1.4a88.54 88.54 0 0 0-32.7-19.5l-1.9-.6 2.8-19.6a13.9 13.9 0 0 0-2.6-10.3 13.94 13.94 0 0 0-25 6.3l-2.8 19.6-2 .1A88.07 88.07 0 0 0 1636 654l-1.8.9-11.8-15.9a14.06 14.06 0 0 0-9.2-5.5 13.9 13.9 0 0 0-10.3 2.6 14.06 14.06 0 0 0-5.5 9.2 13.9 13.9 0 0 0 2.6 10.3l11.8 15.9-1.4 1.5a88.54 88.54 0 0 0-19.5 32.7l-.6 1.9-19.6-2.8a13.9 13.9 0 0 0-10.3 2.6 13.94 13.94 0 0 0 6.3 25l19.6 2.8.1 2a88.07 88.07 0 0 0 9.4 36.9l.9 1.8-15.9 11.8a14.06 14.06 0 0 0-5.5 9.2 13.9 13.9 0 0 0 2.6 10.3 14.06 14.06 0 0 0 9.2 5.5 13.9 13.9 0 0 0 10.3-2.6l16.1-11.8zm62.7 4.8A68.9 68.9 0 1 1 1686 666a68.91 68.91 0 0 1-9.8 137.1zm-.3-133a63.29 63.29 0 1 0 9.4.6 73 73 0 0 0-9.4-.6z"/></g><g class="cls-4"><path class="cls-3" d="M1352.51 869.55h-48.9a2.4 2.4 0 1 1 0-4.8h48.9a2.43 2.43 0 0 1 2.4 2.4 2.37 2.37 0 0 1-2.4 2.4zm0 50.9h-48.9a2.4 2.4 0 1 1 0-4.8h48.9a2.4 2.4 0 1 1 0 4.8z"/><path class="cls-3" d="M1389.51 971.85h-302.2a6.49 6.49 0 0 1-6.5-6.5v-156.8a6.49 6.49 0 0 1 6.5-6.5h302.2a6.49 6.49 0 0 1 6.5 6.5v156.9a6.6 6.6 0 0 1-6.5 6.4zm-302.2-165a1.75 1.75 0 0 0-1.7 1.7v156.9a1.75 1.75 0 0 0 1.7 1.7h302.2a1.75 1.75 0 0 0 1.7-1.7v-156.9a1.75 1.75 0 0 0-1.7-1.7z"/><path class="cls-5" d="M1389.51 971.85h-302.2a6.49 6.49 0 0 1-6.5-6.5v-156.8a6.49 6.49 0 0 1 6.5-6.5h302.2a6.49 6.49 0 0 1 6.5 6.5v156.9a6.6 6.6 0 0 1-6.5 6.4zm-302.2-165a1.75 1.75 0 0 0-1.7 1.7v156.9a1.75 1.75 0 0 0 1.7 1.7h302.2a1.75 1.75 0 0 0 1.7-1.7v-156.9a1.75 1.75 0 0 0-1.7-1.7z"/><path class="cls-3" d="M1352.51 845h-233.2a2.4 2.4 0 1 1 0-4.8h233.2a2.4 2.4 0 1 1 0 4.8zm0 49.3h-233.2a2.4 2.4 0 1 1 0-4.8h233.2a2.43 2.43 0 0 1 2.4 2.4 2.37 2.37 0 0 1-2.4 2.4zm-107.4-24.7h-125.8a2.4 2.4 0 1 1 0-4.8H1245a2.43 2.43 0 0 1 2.4 2.4 2.29 2.29 0 0 1-2.3 2.4zm0 50.9h-125.8a2.4 2.4 0 1 1 0-4.8H1245a2.43 2.43 0 0 1 2.4 2.4 2.35 2.35 0 0 1-2.3 2.4zm-41 23.6h-84.8a2.4 2.4 0 1 1 0-4.8h84.8a2.4 2.4 0 1 1 0 4.8z"/></g><g class="cls-4"><path class="cls-3" d="M884.31 717.05h-55a2.4 2.4 0 1 1 0-4.8h55a2.43 2.43 0 0 1 2.4 2.4 2.31 2.31 0 0 1-2.4 2.4zm0-57.1h-55a2.4 2.4 0 1 1 0-4.8h55a2.43 2.43 0 0 1 2.4 2.4 2.37 2.37 0 0 1-2.4 2.45z"/><path class="cls-3" d="M1128 787.65H787.31a6.49 6.49 0 0 1-6.5-6.5v-177.3a6.49 6.49 0 0 1 6.5-6.5H1128a6.49 6.49 0 0 1 6.5 6.5v177.3a6.49 6.49 0 0 1-6.5 6.5zm-340.7-185.5a1.75 1.75 0 0 0-1.7 1.7v177.3a1.75 1.75 0 0 0 1.7 1.7H1128a1.75 1.75 0 0 0 1.7-1.7v-177.3a1.75 1.75 0 0 0-1.7-1.7z"/><path class="cls-5" d="M1128 787.65H787.31a6.49 6.49 0 0 1-6.5-6.5v-177.3a6.49 6.49 0 0 1 6.5-6.5H1128a6.49 6.49 0 0 1 6.5 6.5v177.3a6.49 6.49 0 0 1-6.5 6.5zm-340.7-185.5a1.75 1.75 0 0 0-1.7 1.7v177.3a1.75 1.75 0 0 0 1.7 1.7H1128a1.75 1.75 0 0 0 1.7-1.7v-177.3a1.75 1.75 0 0 0-1.7-1.7z"/><path class="cls-3" d="M1091.41 744.85h-262.1a2.4 2.4 0 1 1 0-4.8h262.1a2.4 2.4 0 0 1 0 4.8zm0-55.5h-262.1a2.4 2.4 0 0 1 0-4.8h262.1a2.4 2.4 0 0 1 0 4.8zm0 27.7h-141.3a2.4 2.4 0 0 1 0-4.8h141.3a2.43 2.43 0 0 1 2.4 2.4 2.37 2.37 0 0 1-2.4 2.4zm0-57.1h-141.3a2.4 2.4 0 1 1 0-4.8h141.3a2.4 2.4 0 0 1 0 4.8zm0-26.5h-95.3a2.4 2.4 0 1 1 0-4.8h95.3a2.4 2.4 0 0 1 0 4.8z"/></g><path class="cls-6" d="M1513.41 831.65l-318.8-189a5.38 5.38 0 0 1-1.9-7.4l257.4-434.1a5.38 5.38 0 0 1 7.4-1.9l318.8 189a5.38 5.38 0 0 1 1.9 7.4l-257.4 434.1a5.38 5.38 0 0 1-7.4 1.9z"/><path class="cls-7" d="M1505.11 814.25l-318.8-189a5.38 5.38 0 0 1-1.9-7.4l257.4-434.1a5.38 5.38 0 0 1 7.4-1.9l318.8 189a5.38 5.38 0 0 1 1.9 7.4l-257.4 434.1a5.38 5.38 0 0 1-7.4 1.9z"/><path class="cls-6" d="M1596.71 809l-364.5-67.2a5.37 5.37 0 0 1-4.3-6.3l91.5-496.3a5.37 5.37 0 0 1 6.3-4.3l364.5 67.2a5.37 5.37 0 0 1 4.3 6.3L1603 804.65a5.49 5.49 0 0 1-6.29 4.35z"/><path class="cls-3" d="M1219.15 726.85L1312.59 220l375.08 69.15L1594.23 796z"/><path class="cls-8" d="M1588.91 795l-364.5-67.2a5.37 5.37 0 0 1-4.3-6.3l91.5-496.3a5.37 5.37 0 0 1 6.3-4.3l364.5 67.2a5.37 5.37 0 0 1 4.3 6.3l-91.5 496.3a5.42 5.42 0 0 1-6.3 4.3z"/><path class="cls-3" d="M1630.91 348.85h-.5l-91.2-16.8a2.9 2.9 0 1 1 1.1-5.7l91.2 16.8a2.87 2.87 0 0 1 2.3 3.4 3 3 0 0 1-2.9 2.3zm-5.4 29.1h-.5l-91.2-16.8a2.9 2.9 0 1 1 1.1-5.7l91.2 16.8a2.87 2.87 0 0 1 2.3 3.4 3 3 0 0 1-2.9 2.35zm-5.8 31.7h-.5l-91.3-16.9a2.9 2.9 0 1 1 1.1-5.7l91.2 16.8a2.93 2.93 0 0 1-.5 5.8z"/><path class="cls-6" d="M1478.51 436.55l-156.3-28.8a5.81 5.81 0 0 1-4.7-6.8l31-168.1a5.81 5.81 0 0 1 6.8-4.7l156.3 28.8a5.81 5.81 0 0 1 4.7 6.8l-31 168.1a5.81 5.81 0 0 1-6.8 4.7z"/><path class="cls-9" d="M1472.81 426.85l-149-27.5a5.81 5.81 0 0 1-4.7-6.8l29.3-159.2a5.81 5.81 0 0 1 6.8-4.7l149 27.5a5.81 5.81 0 0 1 4.7 6.8l-29.3 159.2a6 6 0 0 1-6.8 4.7z"/><path d="M1506.11 278l-160.5-29.6 2.8-15.2a5.6 5.6 0 0 1 6.6-4.5l149.6 27.6a5.48 5.48 0 0 1 4.4 6.4l-2.9 15.3z" style="isolation:isolate" fill="#ecf1f7" opacity=".07"/><path d="M1390.51 327.55a19.53 19.53 0 0 1-3.4-.3l-2.2-.4a21.89 21.89 0 0 1-17.5-25.4l5.6-30.4a4.37 4.37 0 1 1 8.6 1.6l-5.6 30.4a13.07 13.07 0 0 0 10.4 15.2l2.2.4a10.12 10.12 0 0 0 11.8-8.1l14.2-77a10.52 10.52 0 0 0-8.4-12.2l-3.8-.7a11.11 11.11 0 0 0-12.9 8.9l-.3 1.9a4.37 4.37 0 0 1-8.6-1.6l.3-1.9a19.84 19.84 0 0 1 23.1-15.9l3.8.7a19.18 19.18 0 0 1 15.4 22.3l-14.2 77a18.75 18.75 0 0 1-18.5 15.5z" fill="#1c8e7d"/><path class="cls-3" d="M1405.71 263h-.3l-58.2-10.7a1.47 1.47 0 1 1 .5-2.9l58.2 10.7a1.48 1.48 0 0 1 1.2 1.7 1.4 1.4 0 0 1-1.4 1.2zM1583.81 564h-.5l-278.8-51.4a2.9 2.9 0 1 1 1.1-5.7l278.8 51.4a2.87 2.87 0 0 1-.6 5.7zm-19.9 108.2h-.5l-278.8-51.4a2.9 2.9 0 1 1 1.1-5.7l278.8 51.4a2.87 2.87 0 0 1 2.3 3.4 3.09 3.09 0 0 1-2.9 2.25zm-137.1-81.2h-.5l-131.8-24.3a2.9 2.9 0 1 1 1.1-5.7l131.8 24.3a2.87 2.87 0 0 1 2.3 3.4 3 3 0 0 1-2.9 2.3zm18.2-98.5h-.5l-131.8-24.3a2.9 2.9 0 1 1 1.1-5.7l131.8 24.3a2.87 2.87 0 0 1 2.3 3.4 3 3 0 0 1-2.9 2.3zm128.9 125.2h-.5l-125.6-23.1a2.9 2.9 0 1 1 1.1-5.7l125.6 23.1a2.87 2.87 0 0 1 2.3 3.4 3 3 0 0 1-2.9 2.25z"/><path class="cls-7" d="M936.14 163.39l587.51-90.27 123.45 803.47-587.51 90.27z"/><path class="cls-3" d="M964.51 181.19L1502 98.6l116.72 759.69-537.49 82.58z"/><path class="cls-8" d="M1118.51 135.35l4.2 27.4a27.71 27.71 0 0 0 31.6 23.2l146.9-22.6a27.62 27.62 0 0 0 23.1-31.6l-4.2-27.4-201.6 31z"/><path class="cls-12" d="M1127.1 823.79l66.52-10.22 1 6.72-66.52 10.22zM1209 811.19l66.52-10.19 1 6.72-66.52 10.19zM1129.44 838.66l92.22-14.17 1 6.72-92.22 14.17z"/><path class="cls-8" d="M1108.51 320.34L1397.33 276l.57 3.76-288.81 44.37z"/><path class="cls-12" d="M1491.61 389.15l-97.2 14.9-14.9-97.2 97.2-14.9 14.9 97.2zm-93.4 9.7l88.1-13.5-13.5-88.1-88.1 13.5z"/><path class="cls-9" d="M1442.41 376.75a7.09 7.09 0 0 1-5.7-1.7l-35.6-31.7a6.94 6.94 0 0 1 9.2-10.4l25.7 27.6 34.4-81.3a6.91 6.91 0 0 1 12.8 5.2l-35.6 88a7.16 7.16 0 0 1-4.9 4.2.44.44 0 0 1-.3.1z"/><path class="cls-12" d="M1090.66 366l216-33.18 1.46 9.49-216 33.18zM1097.15 408.29l199.06-30.58 1.46 9.48-199.06 30.59zM1251 363l58.91-9.05 1.46 9.49-58.91 9.05zM1093.91 387.11l140.75-21.62 1.45 9.49-140.74 21.62zM1043.61 381.85l-9.2 4.2-3.2-7.4 13.7-6.8 6.6-1 8.3 54.1-9.4 1.4-6.8-44.5zm21.9 38.7a3.44 3.44 0 1 1 3.9 2.9 3.4 3.4 0 0 1-3.9-2.9zM1514.71 534.25l-97.2 14.9-14.9-97.2 97.2-14.9zm-93.4 9.7l88.1-13.5-13.5-88.1-88.1 13.5z"/><path class="cls-9" d="M1465.51 521.85a7.09 7.09 0 0 1-5.7-1.7l-35.6-31.7a6.94 6.94 0 1 1 9.2-10.4l25.7 27.6 31.9-78.8c3.9-6.1 8-7.8 11.5-6.3a6.8 6.8 0 0 1 3.8 9l-35.6 88a7.16 7.16 0 0 1-4.9 4.2.49.49 0 0 0-.3.1z"/><path class="cls-12" d="M1059.61 566.05l16-18.4c6.4-7.3 8.5-11.1 7.8-15.9-.8-5.3-5-7.7-9.9-7s-7.8 3.9-11.1 9.9l-7.4-4.2c4-7.9 8.4-12.7 17.9-14.2 10.4-1.6 18.6 3.7 20.1 13.4 1.3 8.4-2.5 13.6-10.7 22.8l-9.6 10.8 25.4-3.9 1.3 8.2-38.5 5.9-1.3-7.4zm45.5-2.9a3.44 3.44 0 1 1 3.9 2.9 3.5 3.5 0 0 1-3.9-2.9zM1114.82 510.92l226.94-34.87 1.46 9.49-226.94 34.87zM1121.32 553.26l209.14-32.14 1.46 9.49-209.15 32.14zM1283.16 506.74l61.87-9.51 1.46 9.49-61.88 9.51zM1118.05 532.06l148-22.74 1.45 9.49-148 22.74zM1537.11 680.55l-97.2 14.9-14.9-97.2 97.2-14.9zm-93.3 9.7l88.1-13.5-13.5-88.1-88.1 13.5z"/><path class="cls-9" d="M1487.91 668.15c-2 .3-6.6 2.2-8.2.8l-33-34.2a6.94 6.94 0 0 1 9.2-10.4l28.2 25.1 31.9-78.8a6.91 6.91 0 0 1 12.8 5.2l-35.6 88a7.16 7.16 0 0 1-4.9 4.2 1 1 0 0 0-.4.1z"/><path class="cls-12" d="M1137.21 657.14l226.94-34.87 1.46 9.49-226.94 34.86zM1143.82 699.55L1353 667.42l1.45 9.49L1145.28 709zM1305.55 653l61.87-9.5 1.46 9.48-61.88 9.46zM1140.56 678.35l148-22.73 1.46 9.49-148 22.73zM1081 710.15l5.5-6.9c4.4 3.8 9 5.6 14.8 4.7 5.1-.8 8.5-4.5 7.8-9.4-.8-5.1-5.9-7.3-13.2-6.2l-4.2.7-2.4-5.5 11.8-17.1-22.6 3.5-1.2-8 34.5-5.3 1.1 6.9-12.2 17.1c8.5-.1 16.2 3.1 17.6 12.5 1.5 9.6-4.9 17.6-15.7 19.3-9.3 1.2-16.4-1.6-21.6-6.3zm41.8-.5a3.34 3.34 0 1 1 3.8 2.8 3.29 3.29 0 0 1-3.79-2.8zM1376.31 807.45a41.9 41.9 0 0 1-45.5-26.7 2.88 2.88 0 0 1 5.4-2 36 36 0 0 0 69.7-10.3 2.85 2.85 0 0 1 5.7.3 41.84 41.84 0 0 1-35.3 38.7zm-44.7-39.9h-.5a2.82 2.82 0 0 1-2.7-3 41.77 41.77 0 0 1 80.2-14.6 2.82 2.82 0 1 1-5.2 2.2 36 36 0 0 0-69.1 12.5 3.67 3.67 0 0 1-2.7 2.9z"/><path class="cls-12" d="M1379 824.85a59.29 59.29 0 1 1 49.6-67.6 59.36 59.36 0 0 1-49.6 67.6zm-16.8-109.2a51.2 51.2 0 1 0 58.4 42.8 51.26 51.26 0 0 0-58.39-42.8z"/><path class="cls-12" d="M1357.27 760.64l23.22-3.57.58 3.76-23.23 3.57zM1359.57 775.85l23.22-3.57.58 3.75-23.23 3.57zM1352.94 768.88l34.2-5.26.58 3.76-34.2 5.25zM1133.91 212.85a50.64 50.64 0 0 1 1.8 7.7c1 6.7 1.2 13.6 2.2 20.3.9 5.9 2.6 11.6 3.5 17.5.9 5.7 1.2 11.4 2.1 17 .6 4.2 1.7 8.4 2.3 12.6.3 2 1.4 6.3-1.5 6.8a10.27 10.27 0 0 1-2.5-.1c-2.1-.2-2.8.2-3.2-2.5-.3-2.2-.2-4.4-.6-6.6-.6-4-1.5-8-2.2-12-2.4-14.8-5.1-29.6-7.4-44.5-.4-2.7-.7-5.3-1.1-8-.2-1.5-.4-2.4-2.2-2.2-5.2.8-10.2 3.2-15.6 4l.6 3.8c.3 2.1.7 4.3 1.1 6.4 2.3 13 4.4 26 6.6 39.1 1 5.9 1.7 12.3 3.2 18.1.5 2.1 1.4 4.1 1.7 6.2a10.87 10.87 0 0 0 .4 2.6c-.3 1.3-5.2 2.2-6.2 2.4h-.4c-2.4-.1-1.6-.1-2.3-2.2a34.83 34.83 0 0 1-1-4.4c-.5-3.5-.7-7.1-1.2-10.7-3.4-21.9-7.1-43.7-10.5-65.6a4.29 4.29 0 0 1 3.8-5c7.3-1.1 14.7-1.4 22-2.5 2.9-.6 5.3-2.3 6.6 1.8zm17.9-10.7a11.36 11.36 0 0 1 2.5-.6c10.1-1.5 16.2 7.3 17.6 16.2 1.1 7.3-.8 16.4-7.6 20.5-2.6 1.6-6.6.8-5.9 5 1.3 8.4 3.2 16.7 4.5 25.1.9 5.9 1.6 11.8 2.5 17.7.5 3.1 1.2 6.2 1.7 9.3.2 1.2.3 2.6-1.2 2.8a10.8 10.8 0 0 1-3.1-.2c-2.4-.3-3.2.2-3.6-2.7-.3-1.9-.2-3.7-.5-5.6-3.7-24.1-8.6-48-12.3-72.1-.5-3.5-1.6-6.8-2.1-10.2-.6-3.6 1.7-4.3 4.8-4.7a14.1 14.1 0 0 0 2.7-.5zm12.7 17.1c-.9-6-4-11.9-10.9-10.8-1.1.2-.9 3.9-.7 4.8.4 2.6 1.3 5.1 1.7 7.7.4 2.3.8 12.9 3.8 12.5a4.55 4.55 0 0 0 1.9-.8c4.3-2.65 4.9-8.8 4.2-13.4zm33.3-9.9c7.4 22.7 14.3 53.9 20.7 74.1a3.8 3.8 0 0 1-.5 3.1c-2.2-.1-4.2.7-6.3 1.1-3.4.5-3.5-5.5-3.9-7.8-.3-2.1-2.6-8.5-2.9-10.7-.6-4.1-.8-3.4-5.7-2.6a5.46 5.46 0 0 0-1.8.6c-2.2 1.3-1.6 3.9-1.4 6 .4 4.3.5 8.6 1.2 12.8.2 1.5.9 4.2-1.3 4.5a14.72 14.72 0 0 1-2.1 0c-2.2 0-4.3 1-4.8-2-.2-1.5.4-2.9.5-4.3.4-5.4-.2-11-.4-16.4-.8-18.8-1.1-37.5-1.7-56.3-.1-2-1.3-9.9-.1-11.1.9-.9 3.9-1.4 5.1-1.6 2.6-.4 3.8 0 4.2 2.8a66.66 66.66 0 0 0 1.2 7.8zm4.7 47.5c-1.4-9.3-5.3-17.9-7.6-27.1-.6 15-.7 18.3.7 27.5.4 2.8 2.8 3 5.1 2.6a3.46 3.46 0 0 0 2.1-1 2.46 2.46 0 0 1-.1-1.2zm36.7-24.5c8.6 1.5 14.1 8.8 15.3 16.7 1.9 12.3-1.5 24.3-17.8 26.9-2.6.4-2.8-1.7-3.2-3.7-1-4.3-2-8.7-3.1-13-3-11.3-5.1-22.8-7.8-34.2-1.2-5.3-3.2-10.3-4-15.7-.7-4.3-.9-6.3 3.9-7.1 11-1.7 22.5 1.7 24.5 14.1 1 6.6-1.3 13.5-7.8 16zm-7.4-4.7c4.4-.7 8.7-4.3 7.4-11.8-.8-4.7-6.7-8.5-11.2-7.8-1.6.3-1.1 2.9-.9 4 .6 4.4 3.6 15.8 4.7 15.6zm13.9 35c3.3-7.5 2.3-23.3-10.5-25.2l-.4.1v.7c1.3 8.3 4.1 27.2 6.1 26.9 1.7-.3 4.4-1.1 4.8-2.5zm37.2-74.6c1.9-1.2 4.1-1.6 6.2-2.3a5.67 5.67 0 0 1 .8 2.6c.7 4.4.8 8.8 1.5 13.1 1 6.6 1.8 13.2 2.8 19.7 2.2 14.3 4.3 28.7 6.5 43 .2 1.4.6 2.7.8 4 .3 2.1-1.9 2.7-3.5 2.9-2.3.4-4.5 1.2-5-1.8-.4-2.8-.5-5.6-.8-8.4-1.4-11.5-3.8-22.9-4.6-34.4-.2-2.8 0-5.6-.4-8.4a8.8 8.8 0 0 0-.5-1.5c-.9 1.6-.8 5.3-.9 7.2-.3 3.7-1 7.4-1.5 11.2-1.4 10.8-2.8 21.7-3.6 32.6-.2 2.2.5 6.7-1.5 8.2-.2.1-.5.1-.7.2-.9.1-5.9.5-6.5.1a2.61 2.61 0 0 1-.7-1.7c-.3-2.1-.4-4.3-.7-6.5-1.1-7.3-2.8-14.5-4-21.8l-6.5-42.8c-.4-2.4-1.3-4.6-1.7-7-.7-4.8 1.2-4.3 4.9-5.3a12.88 12.88 0 0 1 2.1-.6c1-.1 1.6.9 1.8 1.7.3 1.7-.1 3.4.2 5.1 2.9 18.6 5.1 37.3 7.9 55.9.9-1.5.8-6.3 1-8.3.3-3.4.7-6.7 1.3-10 1.4-7.2 2-14.4 3-21.7.9-6.7 2.3-13.5 1.5-20.3l-.1-.5c-.2-1.3-.8-3 .9-4.2zm48.9-.7c.4 2 .7 4 1 6 2.8 18.3 4.6 36.8 7.4 55 .5 3.4 1 6.7 1.7 10.1a47.68 47.68 0 0 1 1.3 5.1c.3 2.1-.1 3.7-2.4 4-1.9.3-5.9-.6-6.2-2.9-1.1-7.2-1.7-14.4-2.8-21.5-.7-4.5-2-8.9-2.7-13.3-1.7-11.3-2.8-22.6-4.6-33.9-.2-1-.3-1.8-1.6-1.6a44.91 44.91 0 0 0-7.2 1.9c.1 1.2.2 2.5.4 3.7 1.6 10.2 4 20.3 5.6 30.5s5.2 34.8-9 37c-2.5.4-8.7-.1-9.2-3.4-.3-1.8 2.6-5.9 4.4-6.2.9-.1 1.7.2 2.6.1a5.28 5.28 0 0 0 2.4-1.1c3.4-2.6 2.7-8.5 2.5-12.2-.3-6.1-1.1-12.1-2-18.2-.7-4.4-1.5-8.9-2.2-13.3-1.2-6.6-2.9-13.2-3.9-19.8-.1-.9-.4-2.2.5-2.8.6-1.2 2-1.6 3.3-1.8a100.79 100.79 0 0 0 13.3-2.6 27.41 27.41 0 0 1 4.6-1.5c1.9-.4 2.5 1 2.8 2.7zm30.4-3.2c7.4 22.7 14.3 53.9 20.7 74.1a4.19 4.19 0 0 1-.4 3.1c-2.2-.1-4.2.7-6.3 1.1-3.4.5-3.5-5.5-3.9-7.8-.3-2.1-2.6-8.5-2.9-10.7-.6-4.1-.8-3.4-5.7-2.6a5.46 5.46 0 0 0-1.8.6c-2.2 1.3-1.6 3.9-1.4 6 .4 4.3.5 8.6 1.2 12.8.2 1.5.9 4.2-1.3 4.5a14.72 14.72 0 0 1-2.1 0c-2.2 0-4.3 1-4.8-2-.2-1.5.4-2.9.5-4.3.4-5.4-.2-11-.4-16.4-.8-18.8-1.1-37.5-1.7-56.3-.1-2-1.3-9.9-.1-11.1.9-.9 3.9-1.4 5.1-1.6 2.6-.4 3.8 0 4.2 2.8a35.75 35.75 0 0 0 1.1 7.8zm4.6 47.4c-1.4-9.3-5.3-17.9-7.6-27.1-.6 15-.7 18.3.7 27.5.4 2.8 2.8 3 5.1 2.6a3.46 3.46 0 0 0 2.1-1 2.46 2.46 0 0 1-.1-1.2z"/></svg>