<svg id="Layer_1" data-name="Layer 1" xmlns="http://www.w3.org/2000/svg" viewBox="0 0 521 457"><defs><style>.cls-1,.cls-17{fill:none}.cls-2{fill:#c4e5e5}.cls-3{fill:#fff}.cls-6{fill:#de8d68}.cls-7{fill:#c46234}.cls-8{fill:#1b1c20}.cls-10{fill:#f5d344}.cls-11{fill:#eca179}.cls-13{fill:#995300}.cls-15{fill:#604538}.cls-17{stroke:#ca5e34;stroke-linecap:round;stroke-linejoin:round;stroke-width:2.75px}</style><clipPath id="clip-path"><path class="cls-1" d="M335.13 61c-7.72-.19-30.23-27.66-51.34-28-17.48-.26-30.42 13.25-37.55 13.87-27.57 2.42-97.83 24.63-151.58 83.22-19.19 20.92-70.19 196.69 9.76 246C239 459 508.28 368 475.65 189.46 448.65 41.74 356.11 61.49 335.13 61z"/></clipPath><clipPath id="clip-path-2"><path class="cls-1" d="M251.08 106.93s-7.31-11.06-21.73-1.6c0 0 7.82 10.29 21.73 1.6z"/></clipPath><clipPath id="clip-path-3"><path class="cls-1" d="M266.08 106.26s6.21-10.12 13.68-2.42c0 0-6.06 10.42-13.68 2.42z"/></clipPath></defs><path class="cls-2" d="M321.82 77c-13.22-.32-71.77-2.07-86.51-.78-25.82 2.27-88.31 10.63-138.66 65.49-18 19.59-65.72 184.17 9.14 230.31 126 77.66 378.16-7.54 347.61-174.71C428.11 59 341.46 77.48 321.82 77z"/><rect class="cls-3" x="327.21" y="137.51" width="100.32" height="22.21" rx="11.1"/><rect class="cls-3" x="327.21" y="163.21" width="100.32" height="22.21" rx="11.1"/><rect x="325.9" y="161.68" width="102.95" height="25.16" rx="12" stroke-miterlimit="10" stroke="#569b97" fill="none"/><rect class="cls-3" x="327.21" y="188.91" width="100.32" height="22.21" rx="11.1"/><path d="M357.53 150.38c-.19.37-.38.74-.58 1.11s-.38.74-.56 1.13c0 .1-.09.21-.13.33a3 3 0 0 1-.16.31.84.84 0 0 1-.23.23.64.64 0 0 1-.36.09h-.2a.84.84 0 0 1-.4-.14 1 1 0 0 1-.25-.26 3.59 3.59 0 0 1-.17-.34 2.43 2.43 0 0 0-.16-.37c-.21-.4-.41-.79-.62-1.17s-.4-.76-.59-1.14l-.5-1c-.16-.34-.33-.68-.52-1s-.24-.47-.37-.7l-.35-.7c-.06-.15-.12-.3-.17-.45a.81.81 0 0 0-.19-.38c0 .69 0 1.37.05 2s0 1.35.05 2 .05 1.25.1 1.88.09 1.24.09 1.85a.75.75 0 0 1-.07.36c-.05.06-.17.08-.37.08a1.3 1.3 0 0 1-.52-.1 1.12 1.12 0 0 0-.4-.1h-.07a.35.35 0 0 1-.1-.19v-.2a6.46 6.46 0 0 1 0-.88v-8.57a2.16 2.16 0 0 1 0-.36 1.16 1.16 0 0 1 .08-.32q.06-.15.18-.15h.53a1.06 1.06 0 0 1 .35.09.78.78 0 0 1 .27.24 2.73 2.73 0 0 1 .26.43c.36.66.73 1.31 1.09 1.94s.73 1.29 1.08 2c.07.11.19.35.36.71s.35.74.55 1.13a9.9 9.9 0 0 0 .57 1c.18.27.33.46.42.46s0 0 .07-.09l.06-.1a8.86 8.86 0 0 0 .44-.87c.13-.3.27-.6.41-.89.36-.68.73-1.35 1.1-2s.73-1.34 1.09-2l.19-.41c.08-.18.16-.36.25-.54a4.91 4.91 0 0 1 .28-.5.86.86 0 0 1 .3-.3 1.59 1.59 0 0 1 .38-.07h.4a.55.55 0 0 1 .33.09.38.38 0 0 1 .14.21 1.61 1.61 0 0 1 0 .31v3.2c0 .94 0 1.9.05 2.86v2.32a5.32 5.32 0 0 0 .06.56 2.62 2.62 0 0 1 0 .56.81.81 0 0 1-.06.31.24.24 0 0 1-.26.15.54.54 0 0 1-.22-.05l-.2-.07a.66.66 0 0 0-.2-.06h-.08v-.08a.69.69 0 0 0-.05-.24 3.21 3.21 0 0 1-.07-.43V151l-.06-1.7v-1.23a10.29 10.29 0 0 0-.05-1.24v-.3a1.31 1.31 0 0 0 0-.28v-.15a.43.43 0 0 0-.14.16 2.39 2.39 0 0 1-.13.21c-.37.67-.7 1.32-1 1.95s-.68 1.3-1 2zm9 3.93a2.79 2.79 0 0 1-1.78-.57 4.14 4.14 0 0 1-1.14-1.42 6.68 6.68 0 0 1-.6-1.85 9.49 9.49 0 0 1-.18-1.84 8.9 8.9 0 0 1 .2-1.86 5.33 5.33 0 0 1 .65-1.67 3.75 3.75 0 0 1 1.2-1.21 3.46 3.46 0 0 1 1.83-.46 2.72 2.72 0 0 1 1.82.58 4 4 0 0 1 1.09 1.45 6.15 6.15 0 0 1 .54 1.88 11.82 11.82 0 0 1 .15 1.88 8.32 8.32 0 0 1-.2 1.79 5.43 5.43 0 0 1-.66 1.64 3.6 3.6 0 0 1-1.17 1.19 3.08 3.08 0 0 1-1.75.47zm.18-9.63a2.48 2.48 0 0 0-1.3.31 2.27 2.27 0 0 0-.8.83 4.05 4.05 0 0 0-.4 1.17 8.4 8.4 0 0 0-.11 1.32 7.67 7.67 0 0 0 .05 1.07 9.66 9.66 0 0 0 .22 1.07 5.43 5.43 0 0 0 .45 1.22 3.75 3.75 0 0 0 .72 1 1.4 1.4 0 0 0 1 .4 1.7 1.7 0 0 0 1.21-.46 3.58 3.58 0 0 0 .77-1.15A6.3 6.3 0 0 0 369 150a7.11 7.11 0 0 0 0-2.52 5.62 5.62 0 0 0-.38-1.33 3.57 3.57 0 0 0-.73-1.07 1.5 1.5 0 0 0-1.14-.4zm4.94-2.81a.06.06 0 0 0 0-.06v-.05a.27.27 0 0 1 .14-.23 1.12 1.12 0 0 1 .31-.1 2.16 2.16 0 0 1 .36 0h.28a3.78 3.78 0 0 1 1.84.4 3.08 3.08 0 0 1 1.1 1.08 4.71 4.71 0 0 1 .54 1.54 10.08 10.08 0 0 1 .14 1.82v2.33a16.53 16.53 0 0 1-.11 2.33c0 .34-.05.68-.07 1s0 .68 0 1A4.43 4.43 0 0 1 376 154a3.35 3.35 0 0 1-.41 1 2.37 2.37 0 0 1-.72.69 1.78 1.78 0 0 1-1 .28 2.28 2.28 0 0 1-.73-.12 3 3 0 0 1-.64-.32 1.36 1.36 0 0 1-.44-.79 7.55 7.55 0 0 1-.22-1.26c0-.46-.07-.9-.08-1.34s0-.77 0-1v-1.44a11.56 11.56 0 0 1 .06-1.44 3.36 3.36 0 0 1 .61-1.67A2 2 0 0 1 374 146a1 1 0 0 1 .57.15.73.73 0 0 0 .31.14h.12v-.53a3.46 3.46 0 0 0-.59-2.14 2.45 2.45 0 0 0-2.09-.77.75.75 0 0 1-.33-.07.41.41 0 0 1-.17-.2 2.31 2.31 0 0 1-.1-.28 1 1 0 0 0-.03-.43zm3.13 11.1c.05-1 .08-1.94.09-2.9s0-1.92 0-2.9a.79.79 0 0 0-.26-.08h-.28a1 1 0 0 0-1 .43 2.82 2.82 0 0 0-.3 1.1v4.79a3.84 3.84 0 0 0 0 .48 1.52 1.52 0 0 0 .1.47.68.68 0 0 0 .26.34.81.81 0 0 0 .5.14 1.13 1.13 0 0 0 .44-.1.88.88 0 0 0 .17-.35 2.37 2.37 0 0 0 .11-.46 1.12 1.12 0 0 1 .07-.48 3.63 3.63 0 0 0 .1-.45zm7.65-9.56a20.22 20.22 0 0 0 .19 2.19 20.64 20.64 0 0 1 .12 2.22v1.45a8 8 0 0 1-.09 1.46 14.37 14.37 0 0 0-.11 1.44 8.5 8.5 0 0 1-.32 1.67 4.28 4.28 0 0 1-.7 1.4 1.51 1.51 0 0 1-1.28.58 2 2 0 0 1-1.65-.68 2.58 2.58 0 0 1-.57-1.71v-.59a1.63 1.63 0 0 1 .12-.54.85.85 0 0 1 .3-.4 1.05 1.05 0 0 1 .6-.15h.11a.14.14 0 0 1 .06.11.43.43 0 0 1-.06.22.43.43 0 0 0-.06.22v.6a5.21 5.21 0 0 0 .13.79 2.38 2.38 0 0 0 .28.68.51.51 0 0 0 .44.29.55.55 0 0 0 .28-.07l.23-.18a1.39 1.39 0 0 0 .31-.45 2.75 2.75 0 0 0 .16-.56c0-.2.06-.4.08-.6a5.32 5.32 0 0 1 .06-.56c0-.46.07-.91.1-1.36s0-.91 0-1.37.05-1.18.07-1.77.05-1.18.05-1.78v-.32a.9.9 0 0 0-.09-.32 2.86 2.86 0 0 1-.51.83 1.07 1.07 0 0 1-.85.39 1.55 1.55 0 0 1-1.17-.46A3 3 0 0 1 378 145a6.69 6.69 0 0 1-.33-1.39 10.83 10.83 0 0 1-.08-1.27.68.68 0 0 1 .24-.58 1 1 0 0 1 .62-.18.46.46 0 0 1 .3.09.53.53 0 0 1 .16.23 1.63 1.63 0 0 1 .07.3v1.16a4 4 0 0 0 0 .85 2.85 2.85 0 0 0 .11.39 2.22 2.22 0 0 0 .2.41 1.12 1.12 0 0 0 .28.33.54.54 0 0 0 .36.14.64.64 0 0 0 .49-.22 1.59 1.59 0 0 0 .3-.54 3.5 3.5 0 0 0 .15-.64 5 5 0 0 0 0-.55 3 3 0 0 0-.07-.66 3 3 0 0 1-.08-.67.31.31 0 0 1 .25-.34 1.76 1.76 0 0 1 .46-.06h.57a.72.72 0 0 1 .29.06.37.37 0 0 1 .16.21 1.58 1.58 0 0 1 .05.43v.5a3.55 3.55 0 0 0 0 .46zm6.67 7.93a3.53 3.53 0 0 0 .14.56c.07.27.15.53.23.82s.15.54.21.78a3.12 3.12 0 0 1 .09.44c0 .1 0 .16-.11.18h-.46a1.16 1.16 0 0 1-.49-.1.51.51 0 0 1-.23-.23 1 1 0 0 1-.11-.34 2 2 0 0 0-.09-.48c-.09-.41-.19-.81-.31-1.2s-.23-.79-.33-1.19-.2-.85-.29-1.27-.19-.84-.31-1.26l-.06-.45a3.87 3.87 0 0 0-.12-.68 2.58 2.58 0 0 0-.14-.65.68.68 0 0 0-.13-.33c-.14.82-.27 1.64-.39 2.44a16.8 16.8 0 0 0-.24 2.45c-.05.46-.11.9-.2 1.34a10 10 0 0 0-.18 1.34v.29a.43.43 0 0 1 0 .16.16.16 0 0 1-.12.09l-.27.07a.53.53 0 0 1-.25 0h-.4a1.74 1.74 0 0 1-.38-.14 9.08 9.08 0 0 1 .28-1.94 16.25 16.25 0 0 0 .39-1.94c.12-.82.24-1.62.36-2.42s.25-1.6.37-2.41a3.23 3.23 0 0 0 0-.44v-.57a3.31 3.31 0 0 1 .08-.55.53.53 0 0 1 .15-.34.65.65 0 0 1 .36-.1 2.29 2.29 0 0 1 .37 0h.24a.81.81 0 0 1 .22 0 .47.47 0 0 1 .2.22 1.14 1.14 0 0 1 .13.35.75.75 0 0 0 .07.39.67.67 0 0 0 .05.31q.38 1.71.81 3.39zm4.66-1.23a3.72 3.72 0 0 1 1 1.16 2.77 2.77 0 0 1 .43 1.48 2 2 0 0 1-.27 1.05 2.1 2.1 0 0 1-.74.77 3.06 3.06 0 0 1-1 .39 6.27 6.27 0 0 1-1.06.13h-1.02c0-.31-.06-.63-.07-.93s0-.62 0-.93c0-1.1 0-2.19.1-3.27s.09-2.16.09-3.26v-3.95a.76.76 0 0 1 .11-.32.5.5 0 0 1 .27-.18 1.51 1.51 0 0 1 .52-.06c.31 0 .48.09.51.26a3.53 3.53 0 0 1 0 .65 8.39 8.39 0 0 1-.06 1c0 .34-.08.68-.11 1a6.74 6.74 0 0 1-.08 1 6.73 6.73 0 0 0-.07 1v1.53a1.33 1.33 0 0 0 .12.68.57.57 0 0 0 .32.27 2.44 2.44 0 0 0 .46.14 1.45 1.45 0 0 1 .59.39zm-.88 3.49a1.54 1.54 0 0 0 .67-.54 1.18 1.18 0 0 0 .17-1.27 2.21 2.21 0 0 0-.3-.45 1.53 1.53 0 0 0-.42-.34.86.86 0 0 0-.46-.14.28.28 0 0 0-.3.21 1.32 1.32 0 0 0-.06.39 3.21 3.21 0 0 0 0 .62 3.35 3.35 0 0 1 .05.63v.59a.9.9 0 0 0 .07.27.21.21 0 0 0 .21.12h.17zm12.15 1.4v.11a.21.21 0 0 0 0 .11c0 .05-.06.1-.17.12l-.33.07h-.78a.11.11 0 0 1-.07-.06.21.21 0 0 1 0-.11.67.67 0 0 0 0-.2 6 6 0 0 1-.05-.73v-10.78h-1.09a.35.35 0 0 1-.4-.28 2 2 0 0 1-.07-.55 2.26 2.26 0 0 1 0-.52.36.36 0 0 1 .18-.24.8.8 0 0 1 .34-.07H404l.48.07c.15 0 .24.06.26.11h.07a.49.49 0 0 1 0 .17v6.27c0 .81 0 1.63.05 2.46v1.34a11.67 11.67 0 0 0 .07 1.32 3.08 3.08 0 0 0 .08.53 2.26 2.26 0 0 1 0 .52.72.72 0 0 1 .06.29zm-47.53 20.44c-.19.37-.38.74-.58 1.11s-.37.74-.56 1.13c0 .1-.09.21-.13.33a1.82 1.82 0 0 1-.16.31.84.84 0 0 1-.23.23.65.65 0 0 1-.36.1h-.2a.76.76 0 0 1-.4-.15.85.85 0 0 1-.24-.26 1.35 1.35 0 0 1-.17-.34c-.05-.12-.11-.25-.17-.37l-.61-1.16c-.21-.38-.41-.76-.6-1.15l-.5-1a9.48 9.48 0 0 0-.52-1l-.37-.71c-.12-.23-.24-.46-.35-.7a3.09 3.09 0 0 1-.17-.45.84.84 0 0 0-.18-.36c0 .69 0 1.37.05 2.05s0 1.36.05 2 0 1.24.1 1.87.09 1.25.09 1.86a.54.54 0 0 1-.07.35c-.05.06-.17.09-.37.09a1.84 1.84 0 0 1-.52-.1 1.14 1.14 0 0 0-.4-.11h-.07a.23.23 0 0 1-.1-.19v-9.58a2.29 2.29 0 0 1 0-.37 1.68 1.68 0 0 1 .09-.32.17.17 0 0 1 .17-.14h.53a1.4 1.4 0 0 1 .35.1 1.18 1.18 0 0 1 .27.23 2.82 2.82 0 0 1 .26.44l1.09 1.94c.37.64.73 1.28 1.08 1.94.07.11.19.35.36.71s.35.74.55 1.13a9.9 9.9 0 0 0 .57 1c.18.26.33.46.42.46s0 0 .07-.08 0-.1.07-.11c.15-.28.3-.57.43-.87s.27-.6.41-.89l1.1-2 1.09-2 .19-.41.25-.54c.09-.18.19-.34.28-.5a.76.76 0 0 1 .3-.29 1 1 0 0 1 .38-.08h.4a.54.54 0 0 1 .33.08.38.38 0 0 1 .14.21.81.81 0 0 1 0 .31v8.38a5.32 5.32 0 0 0 .06.56 2.62 2.62 0 0 1 0 .56.87.87 0 0 1-.06.32c0 .09-.12.14-.26.14a.41.41 0 0 1-.22 0l-.2-.08-.2-.06H360v-.09a.69.69 0 0 0-.05-.24.91.91 0 0 0-.07-.43c-.07-.14 0-.28 0-.43v-1.7l-.06-1.69v-2.77a1.37 1.37 0 0 0-.05-.28v-.16a.54.54 0 0 0-.14.16l-.13.22a14.93 14.93 0 0 0-1 2c-.34.6-.66 1.21-.94 1.84zm9 3.93a2.72 2.72 0 0 1-1.78-.56 4.09 4.09 0 0 1-1.14-1.43 6.68 6.68 0 0 1-.6-1.85 9.49 9.49 0 0 1-.18-1.84 8.88 8.88 0 0 1 .2-1.85 4.81 4.81 0 0 1 .65-1.67 3.78 3.78 0 0 1 1.2-1.22 3.46 3.46 0 0 1 1.83-.46 2.72 2.72 0 0 1 1.82.58 4.08 4.08 0 0 1 1.09 1.45 7 7 0 0 1 .55 1.89 14.73 14.73 0 0 1 .14 1.88 8.32 8.32 0 0 1-.2 1.79 5.27 5.27 0 0 1-.66 1.63 3.72 3.72 0 0 1-1.17 1.2 3.17 3.17 0 0 1-1.75.46zm.18-9.63a2.35 2.35 0 0 0-1.3.32 2.2 2.2 0 0 0-.8.83 3.77 3.77 0 0 0-.4 1.17 8.17 8.17 0 0 0-.11 1.31 7.67 7.67 0 0 0 .05 1.07 10.34 10.34 0 0 0 .22 1.08 6.61 6.61 0 0 0 .45 1.22 3.75 3.75 0 0 0 .72 1 1.45 1.45 0 0 0 1 .41 1.69 1.69 0 0 0 1.21-.47 3.43 3.43 0 0 0 .77-1.14 6.49 6.49 0 0 0 .41-1.43 9.38 9.38 0 0 0 .12-1.3 8.26 8.26 0 0 0-.11-1.22 5.62 5.62 0 0 0-.38-1.33 3.73 3.73 0 0 0-.72-1.07 1.55 1.55 0 0 0-1.13-.45zm4.94-2.81v-.05a.24.24 0 0 1 .14-.23.67.67 0 0 1 .31-.1 2.16 2.16 0 0 1 .36 0h.28a3.67 3.67 0 0 1 1.84.4 2.83 2.83 0 0 1 1.1 1.07 4.47 4.47 0 0 1 .54 1.55 11 11 0 0 1 .15 1.81v2.33c0 .77-.05 1.55-.11 2.33 0 .34-.05.68-.07 1s0 .68 0 1a4.23 4.23 0 0 1-.14 1.06 3.35 3.35 0 0 1-.41 1 2.49 2.49 0 0 1-.71.7 2 2 0 0 1-1 .27 2.28 2.28 0 0 1-.73-.12 3 3 0 0 1-.64-.32 1.39 1.39 0 0 1-.44-.78 7.85 7.85 0 0 1-.22-1.27c-.05-.45-.07-.9-.08-1.33s0-.78 0-1v-1.44a11.72 11.72 0 0 1 .06-1.45 3.36 3.36 0 0 1 .61-1.67A2 2 0 0 1 374 171a1 1 0 0 1 .57.15.73.73 0 0 0 .31.14h.17v-.52a3.49 3.49 0 0 0-.59-2.15 2.49 2.49 0 0 0-2.09-.77.55.55 0 0 1-.33-.07.35.35 0 0 1-.17-.19 2.47 2.47 0 0 1-.1-.29 1.51 1.51 0 0 0-.07-.37zm3.14 11.1c0-1 .07-1.93.08-2.89v-2.9a.62.62 0 0 0-.26-.09h-.28a1 1 0 0 0-1 .44 2.61 2.61 0 0 0-.3 1.09V179a1.52 1.52 0 0 0 .1.47.72.72 0 0 0 .76.48 1 1 0 0 0 .44-.1.88.88 0 0 0 .17-.35 2.37 2.37 0 0 0 .11-.46 4 4 0 0 1 .07-.48 3.1 3.1 0 0 0 .11-.51zm7.64-9.56a20.19 20.19 0 0 0 .19 2.2 20.32 20.32 0 0 1 .12 2.21v1.46c0 .46-.06 1-.1 1.46s-.06.86-.11 1.44a8.5 8.5 0 0 1-.32 1.67 4.33 4.33 0 0 1-.7 1.39 1.51 1.51 0 0 1-1.28.58 2 2 0 0 1-1.65-.67 2.63 2.63 0 0 1-.57-1.72 5.61 5.61 0 0 1 0-.58 2.57 2.57 0 0 1 .12-.55.83.83 0 0 1 .3-.39 1 1 0 0 1 .6-.16.16.16 0 0 1 .11.05.11.11 0 0 1 .06.11.43.43 0 0 1-.06.22.54.54 0 0 0-.05.22v.59a5.21 5.21 0 0 0 .13.79 2.94 2.94 0 0 0 .28.69.49.49 0 0 0 .44.28.55.55 0 0 0 .28-.07 1.3 1.3 0 0 0 .23-.18 1.17 1.17 0 0 0 .31-.45 2.23 2.23 0 0 0 .16-.56c0-.2.06-.4.08-.6a5.32 5.32 0 0 1 .06-.56c0-.45.08-.9.1-1.36s0-.91 0-1.37.05-1.18.08-1.76 0-1.18 0-1.78v-.33a.9.9 0 0 0-.09-.32 3.06 3.06 0 0 1-.5.83 1.06 1.06 0 0 1-.86.39 1.55 1.55 0 0 1-1.17-.46 3.29 3.29 0 0 1-.69-1.11 6.64 6.64 0 0 1-.33-1.4c0-.42-.07-.85-.08-1.27a.66.66 0 0 1 .24-.57 1 1 0 0 1 .62-.19.46.46 0 0 1 .3.09.53.53 0 0 1 .16.23 1.63 1.63 0 0 1 .07.3v1.16a4 4 0 0 0 0 .85 2.85 2.85 0 0 0 .11.39 2.22 2.22 0 0 0 .2.41 1.12 1.12 0 0 0 .28.33.54.54 0 0 0 .36.14.58.58 0 0 0 .49-.22 1.86 1.86 0 0 0 .3-.53 3.61 3.61 0 0 0 .15-.65 5 5 0 0 0 0-.55 3 3 0 0 0-.07-.66 3 3 0 0 1-.08-.66.32.32 0 0 1 .25-.35 1.76 1.76 0 0 1 .46-.06h.67a.73.73 0 0 1 .29.07.45.45 0 0 1 .16.2 1.58 1.58 0 0 1 .05.43v.44a3.7 3.7 0 0 0 0 .47zm6.67 7.94a3.41 3.41 0 0 0 .14.55c.07.27.15.54.23.82s.15.54.21.78a3.12 3.12 0 0 1 .09.44c0 .1 0 .16-.11.18h-.46a1.38 1.38 0 0 1-.49-.1.63.63 0 0 1-.23-.23.88.88 0 0 1-.1-.35 4.1 4.1 0 0 0-.1-.48c-.09-.4-.19-.8-.31-1.2s-.23-.79-.33-1.19-.2-.85-.29-1.27-.19-.83-.31-1.25l-.06-.45q-.06-.33-.12-.69c-.05-.24-.09-.45-.14-.64a.71.71 0 0 0-.13-.34c-.14.82-.27 1.64-.38 2.45s-.22 1.62-.3 2.45a6.78 6.78 0 0 1-.2 1.34 12 12 0 0 0-.17 1.34v.29a.43.43 0 0 1 0 .16.2.2 0 0 1-.12.08l-.27.08H385a1.83 1.83 0 0 1-.4-.05 1.71 1.71 0 0 1-.38-.13 8.59 8.59 0 0 1 .29-1.95 16.25 16.25 0 0 0 .39-1.94c.11-.81.23-1.62.35-2.41s.25-1.61.37-2.42a3.09 3.09 0 0 0 0-.43v-.58a3.31 3.31 0 0 1 .08-.55.53.53 0 0 1 .15-.34.65.65 0 0 1 .36-.1h.79a.7.7 0 0 1 .2.22 1.14 1.14 0 0 1 .13.35 2.66 2.66 0 0 0 .07.39.56.56 0 0 0 .05.31c.25 1.15.52 2.28.81 3.4s.6 2.32.89 3.46zm4.66-1.24a3.72 3.72 0 0 1 1 1.16 2.77 2.77 0 0 1 .43 1.48 2.17 2.17 0 0 1-.27 1.06 2.27 2.27 0 0 1-.74.77 3.9 3.9 0 0 1-1 .38 5.39 5.39 0 0 1-1.06.13 6.28 6.28 0 0 0-1.06.06c0-.32-.06-.63-.07-.94s0-.61 0-.93c0-1.1 0-2.18.1-3.26s.09-2.17.09-3.27v-3.44a4.34 4.34 0 0 1 0-.51.63.63 0 0 1 .1-.32.5.5 0 0 1 .27-.18 1.51 1.51 0 0 1 .52-.06c.31 0 .48.09.51.26a2.94 2.94 0 0 1 .05.66 8.39 8.39 0 0 1-.06 1c-.05.34-.08.69-.11 1a6.74 6.74 0 0 1-.08 1 6.73 6.73 0 0 0-.07 1v1.53a1.37 1.37 0 0 0 .12.69.57.57 0 0 0 .32.27 3.47 3.47 0 0 0 .46.13 1.47 1.47 0 0 1 .55.33zm-.88 3.49a1.68 1.68 0 0 0 .68-.53 1.32 1.32 0 0 0 .27-.81 1.2 1.2 0 0 0-.11-.46 2 2 0 0 0-.3-.46 1.57 1.57 0 0 0-.42-.35.84.84 0 0 0-.46-.13.27.27 0 0 0-.3.2 1.32 1.32 0 0 0-.06.39v.63a3.21 3.21 0 0 1 0 .62v.24a1.71 1.71 0 0 0 0 .32.67.67 0 0 0 .06.28.22.22 0 0 0 .22.12h.16zm14.36-5.73c-.52 1.29-1.05 2.57-1.58 3.83a29.6 29.6 0 0 0-1.32 3.92h.69a5.77 5.77 0 0 0 1.1-.1 6 6 0 0 1 1.11-.1c.17 0 .25.08.25.23v.29a2 2 0 0 1 0 .35.67.67 0 0 1-.07.31.2.2 0 0 1-.19.12h-.48a5.11 5.11 0 0 0-.55.05l-.81.08-.93.07a4.41 4.41 0 0 1-.89 0 1.8 1.8 0 0 1-.64-.18.46.46 0 0 1-.25-.4 2.88 2.88 0 0 1 .14-.82 7.4 7.4 0 0 1 .34-.89l.42-.9c.15-.3.27-.56.38-.8.23-.57.52-1.26.84-2.09s.64-1.67.94-2.55.54-1.73.75-2.56a9.15 9.15 0 0 0 .32-2.14 1.58 1.58 0 0 0-.48-1.23 1.83 1.83 0 0 0-1.31-.43c-.87 0-1.3.41-1.3 1.25a1.61 1.61 0 0 0 .07.49 1.56 1.56 0 0 0 .14.48 2.5 2.5 0 0 0 .15.38 1.05 1.05 0 0 1 .06.24.61.61 0 0 1-.15.17l-.35.21-.39.18a.71.71 0 0 1-.28.09q-.16 0-.3-.24a2.21 2.21 0 0 1-.23-.55 4.15 4.15 0 0 1-.14-.61 4.53 4.53 0 0 1 .22-1.63 3 3 0 0 1 .61-1 3 3 0 0 1 .93-.64 2.79 2.79 0 0 1 1.17-.24 3.24 3.24 0 0 1 1.34.26 2.82 2.82 0 0 1 1 .71 3.53 3.53 0 0 1 .62 1.08 4 4 0 0 1 .22 1.33 5.71 5.71 0 0 1-.37 2c-.21.7-.46 1.35-.72 1.98zm-49.82 29.16l-.58 1.11c-.19.36-.38.74-.56 1.12l-.13.33a1.41 1.41 0 0 1-.17.32.8.8 0 0 1-.22.23.64.64 0 0 1-.36.09h-.2a.84.84 0 0 1-.4-.14 1 1 0 0 1-.25-.26 2.16 2.16 0 0 1-.17-.34 1.84 1.84 0 0 0-.17-.38c-.2-.39-.4-.78-.61-1.16s-.4-.76-.59-1.14-.34-.7-.5-1-.34-.7-.52-1-.25-.47-.37-.7l-.36-.71a1.79 1.79 0 0 1-.16-.44 1 1 0 0 0-.19-.39c0 .69 0 1.38.05 2.06s0 1.35.05 2 0 1.25.1 1.87a11.58 11.58 0 0 1 .08 1.86.74.74 0 0 1-.06.36.56.56 0 0 1-.38.08 1.25 1.25 0 0 1-.51-.1 1.12 1.12 0 0 0-.4-.1h-.07a.35.35 0 0 1-.1-.19v-.2-.89a6.46 6.46 0 0 0 0-.88v-7.94a1.16 1.16 0 0 1 .08-.32q.06-.15.18-.15h.53a1 1 0 0 1 .34.09.78.78 0 0 1 .27.24 1.94 1.94 0 0 1 .27.43c.36.66.72 1.3 1.09 1.94s.73 1.29 1.08 1.94c.07.12.18.35.35.72s.36.73.55 1.12.39.74.58 1.05.33.45.42.45 0 0 .06-.08l.07-.1c.16-.28.3-.58.43-.87s.27-.6.42-.9l1.09-2 1.1-2 .18-.42.26-.53a4.91 4.91 0 0 1 .28-.5.76.76 0 0 1 .29-.3 1.34 1.34 0 0 1 .39-.07h.39a.52.52 0 0 1 .34.09.34.34 0 0 1 .14.21 1.5 1.5 0 0 1 0 .3v3.21c0 .95 0 1.89.05 2.85v2.33a5.32 5.32 0 0 0 .06.56 2.62 2.62 0 0 1 0 .56.81.81 0 0 1-.06.31.26.26 0 0 1-.26.14.41.41 0 0 1-.22 0l-.21-.07a.6.6 0 0 0-.19-.06h.01v-.08a1 1 0 0 0-.05-.24 2 2 0 0 1-.07-.43v-2.13l-.06-1.7v-2.77a1.31 1.31 0 0 0 0-.28v-.1a.43.43 0 0 0-.14.16l-.13.21a16.22 16.22 0 0 0-1 2c-.24.57-.74 1.06-1.08 1.72zm9 3.91a2.82 2.82 0 0 1-1.79-.57 4.11 4.11 0 0 1-1.13-1.42 6.68 6.68 0 0 1-.6-1.85 11.36 11.36 0 0 1-.18-1.84 9 9 0 0 1 .19-1.86 5.25 5.25 0 0 1 .66-1.67 3.65 3.65 0 0 1 1.2-1.21 3.36 3.36 0 0 1 1.83-.47 2.73 2.73 0 0 1 1.82.59 4.08 4.08 0 0 1 1.09 1.45 6.86 6.86 0 0 1 .54 1.88 11.82 11.82 0 0 1 .15 1.88 7.75 7.75 0 0 1-.21 1.79 5.16 5.16 0 0 1-.65 1.64 3.91 3.91 0 0 1-1.17 1.19 3.18 3.18 0 0 1-1.75.47zm.18-9.63a2.48 2.48 0 0 0-1.3.31 2.27 2.27 0 0 0-.8.83 3.69 3.69 0 0 0-.4 1.17 8.4 8.4 0 0 0-.11 1.32 7.53 7.53 0 0 0 .05 1.06c.05.33.11.66.21 1.08a6 6 0 0 0 .46 1.22 3.75 3.75 0 0 0 .72 1 1.34 1.34 0 0 0 1 .41 1.61 1.61 0 0 0 1.21-.47 3.43 3.43 0 0 0 .77-1.14 6.41 6.41 0 0 0 .41-1.42 9.51 9.51 0 0 0 .11-1.31 7 7 0 0 0-.11-1.21 5.62 5.62 0 0 0-.38-1.33 3.36 3.36 0 0 0-.72-1.07 1.55 1.55 0 0 0-1.12-.43zm4.94-2.8a.28.28 0 0 1 .13-.23 1.19 1.19 0 0 1 .32-.1h.63a3.78 3.78 0 0 1 1.84.4 3 3 0 0 1 1.11 1.08 4.71 4.71 0 0 1 .54 1.54 12.16 12.16 0 0 1 .14 1.81v2.34c0 .78-.06 1.55-.11 2.33 0 .34-.05.68-.07 1s0 .68 0 1a4.23 4.23 0 0 1-.14 1.06 3 3 0 0 1-.42 1 2.13 2.13 0 0 1-.71.69 2 2 0 0 1-1 .27 2.28 2.28 0 0 1-.73-.12 2.14 2.14 0 0 1-.64-.32 1.27 1.27 0 0 1-.45-.78 9 9 0 0 1-.22-1.26c0-.46-.07-.9-.07-1.34v-2.44a11.56 11.56 0 0 1 .06-1.44 3.36 3.36 0 0 1 .61-1.67 2 2 0 0 1 1.63-.62 1 1 0 0 1 .56.14.94.94 0 0 0 .32.15h.12v-.53a3.45 3.45 0 0 0-.58-2.14 2.48 2.48 0 0 0-2.1-.77.75.75 0 0 1-.33-.07.55.55 0 0 1-.17-.2 1.4 1.4 0 0 1-.09-.29 1.45 1.45 0 0 1-.18-.49zm3.13 11.11c.05-1 .08-1.94.09-2.9v-2.9a.79.79 0 0 0-.26-.08 1.31 1.31 0 0 0-.28 0 1 1 0 0 0-1 .43 2.47 2.47 0 0 0-.3 1.09v5.28a1.47 1.47 0 0 0 .11.46.75.75 0 0 0 .26.35.81.81 0 0 0 .5.14 1.13 1.13 0 0 0 .44-.1 1.62 1.62 0 0 0 .17-.35 2.37 2.37 0 0 1 .11-.46 1.15 1.15 0 0 1 .07-.48 1.33 1.33 0 0 0 .21-.48zm7.65-9.56a20.22 20.22 0 0 0 .19 2.19 20.31 20.31 0 0 1 .11 2.21V201l-.09 1.46c0 .39-.06.87-.11 1.44a8.5 8.5 0 0 1-.32 1.67 4.36 4.36 0 0 1-.71 1.39 1.53 1.53 0 0 1-1.27.59 2 2 0 0 1-1.65-.68 2.58 2.58 0 0 1-.57-1.71v-.59a2 2 0 0 1 .11-.54.87.87 0 0 1 .31-.4 1.05 1.05 0 0 1 .6-.15h.11a.14.14 0 0 1 .06.11.43.43 0 0 1-.06.22.43.43 0 0 0-.06.22v.6a4.24 4.24 0 0 0 .13.78 2.91 2.91 0 0 0 .27.69.49.49 0 0 0 .65.25h.07a1 1 0 0 0 .23-.18 1.16 1.16 0 0 0 .32-.44 3.58 3.58 0 0 0 .16-.56c0-.2.06-.41.07-.61a1.75 1.75 0 0 1 .16-.56c.05-.45.08-.9.1-1.35s0-.91.06-1.38 0-1.17.07-1.76a13.22 13.22 0 0 0 0-1.78v-.32a.63.63 0 0 0-.1-.32 3.06 3.06 0 0 1-.5.83 1.07 1.07 0 0 1-.85.39 1.55 1.55 0 0 1-1.17-.46 3.09 3.09 0 0 1-.69-1.12 6.69 6.69 0 0 1-.33-1.39 9 9 0 0 1-.09-1.27.71.71 0 0 1 .25-.58 1 1 0 0 1 .62-.18.53.53 0 0 1 .3.09.63.63 0 0 1 .16.23 1.36 1.36 0 0 1 .06.29 1.71 1.71 0 0 1 0 .32v.76a3.93 3.93 0 0 0 0 .84 2.85 2.85 0 0 0 .11.39 2 2 0 0 0 .19.42 1.75 1.75 0 0 0 .28.33.55.55 0 0 0 .37.14.62.62 0 0 0 .49-.23 1.86 1.86 0 0 0 .3-.53 3.5 3.5 0 0 0 .15-.64 5.23 5.23 0 0 0 0-.56 3 3 0 0 0-.07-.66 2.48 2.48 0 0 1-.08-.66.32.32 0 0 1 .24-.35 2.42 2.42 0 0 1 .47-.05h.42a.68.68 0 0 1 .28.07.39.39 0 0 1 .17.21 1.55 1.55 0 0 1 0 .43v.45a2.47 2.47 0 0 0 .18.52zm6.66 7.93a2.64 2.64 0 0 0 .15.55c.08.26.15.54.23.83s.15.54.21.78a3.12 3.12 0 0 1 .09.44c0 .1 0 .16-.12.17h-.46a1.12 1.12 0 0 1-.48-.1.59.59 0 0 1-.24-.23 1.08 1.08 0 0 1-.1-.35 3.55 3.55 0 0 0-.09-.47c-.09-.41-.2-.81-.31-1.2l-.34-1.19c-.11-.39-.19-.85-.28-1.27s-.2-.84-.31-1.26a1.41 1.41 0 0 0-.07-.45c-.07-.22-.07-.45-.12-.68s-.09-.46-.13-.65a.85.85 0 0 0-.14-.34c-.13.83-.26 1.64-.38 2.45s-.22 1.63-.29 2.45c-.05.46-.11.9-.2 1.34a10 10 0 0 0-.18 1.34v.29a.43.43 0 0 1 0 .16.18.18 0 0 1-.12.09l-.27.07a.57.57 0 0 1-.26 0 2.54 2.54 0 0 1-.39 0 1.82 1.82 0 0 1-.39-.14 9 9 0 0 1 .29-1.94 16.25 16.25 0 0 0 .39-1.94c.12-.82.23-1.62.36-2.42s.25-1.6.37-2.42v-1a3.43 3.43 0 0 1 .07-.56.52.52 0 0 1 .16-.33.89.89 0 0 1 .35-.11h.83a.56.56 0 0 1 .21.22 1.12 1.12 0 0 1 .12.35 2.7 2.7 0 0 0 .08.39.58.58 0 0 0 .05.31q.38 1.71.81 3.39c.34 1.16.62 2.29.9 3.43zm4.67-1.24a4.17 4.17 0 0 1 1 1.17 2.77 2.77 0 0 1 .43 1.48 2.2 2.2 0 0 1-.27 1 2.13 2.13 0 0 1-.75.77 2.91 2.91 0 0 1-.95.38 5.4 5.4 0 0 1-1.06.14h-1.06a7.26 7.26 0 0 0-.06-.93v-.94c0-1.09 0-2.18.09-3.26s.1-2.17.1-3.26v-4a.75.75 0 0 1 .1-.33.46.46 0 0 1 .28-.17 1.51 1.51 0 0 1 .52-.06c.31 0 .48.08.51.26a3.53 3.53 0 0 1 0 .65 6.73 6.73 0 0 1-.07 1c0 .34-.08.68-.1 1a5.55 5.55 0 0 1-.08 1 6.73 6.73 0 0 0-.07 1v1.52a1.37 1.37 0 0 0 .12.69.63.63 0 0 0 .33.27 3.5 3.5 0 0 0 .46.14 1.74 1.74 0 0 1 .53.48zm-.89 3.5a1.56 1.56 0 0 0 .68-.54 1.29 1.29 0 0 0 .27-.8 1.12 1.12 0 0 0-.11-.47 1.7 1.7 0 0 0-.29-.46 1.74 1.74 0 0 0-.42-.34.86.86 0 0 0-.46-.14.27.27 0 0 0-.3.2 1.32 1.32 0 0 0-.06.39 3.32 3.32 0 0 0 0 .63V205a.89.89 0 0 0 .07.28.21.21 0 0 0 .21.12h.17zm14-1.61a4.88 4.88 0 0 1-.45 1.4 5.49 5.49 0 0 1-.81 1.16 6.46 6.46 0 0 1-1.09.93 7.23 7.23 0 0 1-1.29.68l-.37.16a1 1 0 0 1-.38.07.35.35 0 0 1-.38-.28 1.81 1.81 0 0 1-.08-.51v-.12a.66.66 0 0 1 .19-.37 1 1 0 0 1 .36-.22l.41-.17a1.35 1.35 0 0 0 .38-.19c.31-.23.61-.46.89-.71a4.6 4.6 0 0 0 .77-.82 3.81 3.81 0 0 0 .52-1 3.32 3.32 0 0 0 .2-1.13 2.11 2.11 0 0 0-.17-.82 3.37 3.37 0 0 0-.45-.78 5 5 0 0 0-.63-.67 4.82 4.82 0 0 0-.7-.48 1.27 1.27 0 0 0-.54-.14 4.09 4.09 0 0 1-.61-.1 1.4 1.4 0 0 1-.48-.22.62.62 0 0 1-.2-.54.83.83 0 0 1 .26-.61c.17-.18.34-.35.48-.51a20 20 0 0 0 1.43-1.76c.43-.61.88-1.24 1.29-1.88a7.66 7.66 0 0 0-1.35.09 9.87 9.87 0 0 1-1.33.06 1.24 1.24 0 0 1-.47-.06.3.3 0 0 1-.19-.16.47.47 0 0 1-.05-.26v-.37c0-.14.07-.47.21-.55a1.18 1.18 0 0 1 .61-.13h1a9.84 9.84 0 0 1 1.33 0 3.46 3.46 0 0 1 1.15.28.71.71 0 0 1 .49.7.84.84 0 0 1-.17.55c-.11.16-.22.32-.34.47-.48.63-1 1.27-1.42 1.92s-.93 1.3-1.44 1.91a7 7 0 0 1 1.39.57 4.57 4.57 0 0 1 1.3.91 3.93 3.93 0 0 1 .76 1.17 3.62 3.62 0 0 1 .28 1.49 3.08 3.08 0 0 1-.15 1zm-3.23 3.46s.09 0 .1-.07z"/><g clip-path="url(#clip-path)"><path class="cls-2" d="M336.33 63.25c-14.12-.34-76.65-2.21-92.39-.83-27.58 2.42-94.33 11.35-148.08 69.94-19.19 20.92-70.19 196.69 9.75 246 134.58 82.94 403.87-8.05 371.24-186.58C449.85 44 357.3 63.76 336.33 63.25z"/><path class="cls-6" d="M356.53 184.87c-4.21-3.41-17.45 18.7-19.52 24.92l-1.55-6.9c-.57-1.69-3.19-4.85-5.58-4.47s-.33 12.59-.33 12.59c.16 6.42-4.91 24.9-4.91 24.9l17.09 9.28a83 83 0 0 0 19.09-28.41c.57-1.37-3.84-.9-3.6-2.81.13-1-.3-1.6-1.44-3.91-1.54-3.11-1.87.85-2.9-.55-.68-.93 1.85-.9-.31-4.78-2.69-4.83-5.85 3-5.87 1.36 0-1.28 12.76-18.85 9.83-21.22z"/><path class="cls-6" d="M279.84 302.7l45.5-68.39 18.84 4.35-31.63 80a21.84 21.84 0 0 1-15.55 12.7c-6.21 1.33-12.79.31-17.3-4.14-7.36-7.22-7.28-18.14.14-24.52z"/><path class="cls-7" d="M345.52 207.35c-1.27 1.68-4.07 6.33-2.23 7.73s9.25-4.58 10-6.91a4.08 4.08 0 0 0-2.41-5c-2.8-1.11-4 2.34-5.36 4.18z"/><path class="cls-7" d="M350.65 212c-1.11 1.5-3.55 5.68-1.94 6.94s8.11-4.08 8.77-6.18a3.74 3.74 0 0 0-2.13-4.5c-2.47-1-3.49 2.12-4.7 3.74zm5.59 4.48c-.82 1.25-2.64 4.74-1.39 5.81s6.3-3.87 6.78-5.63a2.87 2.87 0 0 0-1.84-3.27c-1.9-.88-2.64 1.72-3.55 3.09z"/><path class="cls-6" d="M346.21 206.43c-1.26 1.68-4.07 6.33-2.23 7.73s9.26-4.58 10-6.91a4.08 4.08 0 0 0-2.41-5c-2.79-1.11-4 2.34-5.36 4.18z"/><path class="cls-6" d="M351.34 211.11c-1.1 1.5-3.55 5.68-1.93 6.94s8.11-4.08 8.77-6.18a3.74 3.74 0 0 0-2.13-4.5c-2.47-1-3.49 2.09-4.71 3.74z"/><path class="cls-6" d="M356.13 215.67c-.83 1.25-2.64 4.74-1.39 5.81s6.3-3.87 6.78-5.62a2.88 2.88 0 0 0-1.85-3.28c-1.89-.88-2.67 1.72-3.54 3.09z"/><path class="cls-8" d="M278.87 336.9s26.89 108.76 24.93 331.35l-46.61 1.52L216.5 336.9z"/><path d="M191.82 336.9c-28.28 72.76-18 148.93-21 186.84-4.2 53.18-3.22 144.26-3.22 144.26l39.62 5.37 23.93-137.64 26-198.84z" fill="#39373a"/><path class="cls-6" d="M252.53 251.62l3.21 58.89c.75 11 10.44 20.12 21.18 19.95 9.83-.15 17-8.07 16.44-18.13L291 246.56z"/><path class="cls-10" d="M245.09 172.31c-.73-.24 41.15 15.09 55.54 74.64l-52.71 41.56-6.57-62.51z"/><path class="cls-10" d="M191.65 180.31c-5 6.19-16.66 24.76-16.27 33.11l-13.61 198.11 140 14.84S287.6 243 273 205.23c-17.17-44.16-65-45-81.35-24.92z"/><path class="cls-11" d="M142.4 232.77l-16 76.49c-1.06 11 7.13 19.7 17.92 18.95 9.87-.69 18.38-9.06 19.47-19.16l10.75-81.16z"/><path class="cls-10" d="M225.48 172.27s-86.9-24.52-102.4 88.4l56.25 11.81 9-61z"/><path d="M172.64 271.08c2.27.28 4.52.66 6.77 1l-.49.32c.67-4 1.38-8.1 2.18-12.13s1.6-8.07 2.49-12.08 1.79-8 2.77-12 2-8 3.17-11.93c-.55 4.08-1.21 8.14-1.93 12.19s-1.49 8.08-2.33 12.11-1.69 8-2.61 12-1.89 8-2.92 12a.38.38 0 0 1-.47.28c-2.27-.56-4.44-1.11-6.63-1.76z"/><path d="M265.84 119c1.29 6.7 4.45 9.32 13.26 7.77 6.72-1.18 10.77-9.22 9.48-15.92s-6.71-8.42-13.7-6.4c-4.88 1.43-10.33 7.88-9.04 14.55z" fill="#c96e3d"/><path class="cls-11" d="M223.23 125.36l-10.46 60.37s10.73 5.89 18.78 7.23c9.8 1.63 22.31-3.87 22.31-3.87l-1.49-59.69z"/><path class="cls-7" d="M253.23 165.86c-13.17-3.74-24.23-26.94-24.23-26.94l23.45-5.1z"/><path class="cls-11" d="M231.94 60.11a53 53 0 0 1 24-.87c10.7 2.2 24.39 6.61 25.9 25.59 2.51 31.64-1.67 55.32-17.89 62.45-12.46 5.47-21.45 3.34-35.63-4.73-5.27-3-10.31-11.75-11.68-17.81l-5.93-16.93s-16.19-37.9 21.23-47.7z"/><path class="cls-13" d="M267.32 94.78s-.68 3 4.25 2.6a30.35 30.35 0 0 1 7-.06 3.32 3.32 0 0 0 3-1.32 2.19 2.19 0 0 0-.46-2.24c-1.1-1.33-2.67-3.19-7.23-2.86-5.83.41-6.56 3.88-6.56 3.88zm-11.1 1.09s.62 3.9-5.9 2.89a88.08 88.08 0 0 0-14.06-.59 4.42 4.42 0 0 1-3.93-2 1.79 1.79 0 0 1 .63-2.45l.11-.06a28.46 28.46 0 0 1 15-2.45c7.69 1.13 8.15 4.66 8.15 4.66z"/><path class="cls-3" d="M251.08 106.93s-7.31-11.06-21.73-1.6c0 0 7.82 10.29 21.73 1.6z"/><g clip-path="url(#clip-path-2)"><path class="cls-8" d="M247.87 105a5.29 5.29 0 1 1-6.14-4.27 5.29 5.29 0 0 1 6.14 4.27z"/></g><path class="cls-15" d="M228.69 104.43a21.93 21.93 0 0 1 5.77-2.72 17.29 17.29 0 0 1 6.26-.87 13.39 13.39 0 0 1 6 1.83 12.41 12.41 0 0 1 4.38 4.26 12 12 0 0 0-4.64-3.76 12.56 12.56 0 0 0-5.76-1.17 15.93 15.93 0 0 0-5.68 1.33 20.6 20.6 0 0 0-5 2.94 1.12 1.12 0 0 1-1.56-.29 1.14 1.14 0 0 1 .15-1.44z"/><path class="cls-3" d="M266.08 106.26s6.21-10.12 13.68-2.42c0 0-6.06 10.42-13.68 2.42z"/><g clip-path="url(#clip-path-3)"><path class="cls-8" d="M269.34 104.35c-.64 2.78.38 5.38 2.28 5.82s4-1.46 4.6-4.23-.38-5.39-2.28-5.82-3.94 1.45-4.6 4.23z"/></g><path class="cls-15" d="M278.88 104.53a7.18 7.18 0 0 0-2.7-2.49 5.7 5.7 0 0 0-1.75-.57 2.72 2.72 0 0 0-.9 0 6.67 6.67 0 0 0-1 .13 9 9 0 0 0-3.61 1.7 13.44 13.44 0 0 0-2.88 3 13.72 13.72 0 0 1 2.52-3.39 9.8 9.8 0 0 1 3.66-2.35 6.64 6.64 0 0 1 1.08-.3 4.35 4.35 0 0 1 1.19-.14 7.54 7.54 0 0 1 2.3.42 9.39 9.39 0 0 1 3.81 2.65 1.12 1.12 0 0 1-.09 1.58 1.11 1.11 0 0 1-1.57-.09z"/><path class="cls-17" d="M262.56 124.65l4.71-2.31-4.08-11.92m-10 21.74c5.07 7.35 14.4 2 14.28 2"/><path class="cls-13" d="M210 70.6s30.23 7.32-.33 42.45L204 79.25z"/><path class="cls-11" d="M221.08 120.39c-1.32 6.7-4.49 9.31-13.29 7.72-6.72-1.2-10.73-9.26-9.42-16s6.74-8.39 13.72-6.35c4.91 1.47 10.31 7.94 9 14.63z"/><path class="cls-17" d="M205.37 113.14s6.27-1.54 8.68 7.37"/><path class="cls-13" d="M204.05 79.25c1.18.81 91.81 6.32 70.78-31.65 0 0-1.87 6.26-42.89 12.51-32.43 4.94-27.89 19.14-27.89 19.14z"/><path class="cls-11" d="M205 445.62c4.94-2.18-2.59-22.68-5.91-28.33l4.08 1.68c1.64.68 4.08 1.69 5.36-.36s-5.46-7.75-5.46-7.75c-4.95-4.1-20.39-18.11-20.39-18.11l-15.53 4c.53 13 3.44 24.39 7.61 32.75.66 1.32.87 15.92 4 15.85 2.43-.05 2.57-17 3.85-15.54.7.79-1.85 17.38 3.19 18.28 3.12.56 1.29-18.76 3-18.61 1.14.09-.06 19.2 4.28 20.13 5.41 1.14.67-22.58 2.35-22.54 2.91 0 7.75 19.35 9.57 18.55z"/><path class="cls-11" d="M163.51 310.26l25.42 96.35-16.94.67-42.84-84.7a20.16 20.16 0 0 1 .54-19.5c3.12-5.28 8.32-9.23 14.81-9.42 10.55-.3 19 7.08 19 16.6z"/><path d="M169.28 332.1l-5.77-21.84" stroke="#af4a25" stroke-width=".88" stroke-miterlimit="10" fill="none"/></g><path d="M379.84 100.89c-.13-1.06-.28-2.08-.44-3.07a18.09 18.09 0 0 1-.25-3.07 12.32 12.32 0 0 1 .1-1.29 2 2 0 0 0-.1-1.19 1.79 1.79 0 0 1 1-.69 9.79 9.79 0 0 1 1.88-.44c.7-.1 1.37-.17 2-.2h1.39c1.19 0 1.8.2 1.83.59s.11 1 .25 1.88a36 36 0 0 1 .29 4.46c0 1.58-.05 3.18-.14 4.8s-.15 3.22-.15 4.8q0 11.08.19 22t.2 22a1.92 1.92 0 0 1-.64 1.48 2.17 2.17 0 0 1-1.53.6h-1a13.71 13.71 0 0 1-1.54-.1c-.53-.07-1-.15-1.48-.25a1.42 1.42 0 0 1-.9-.45 1.85 1.85 0 0 1-.19-1v-1c0-2.5.05-5 .15-7.47s.14-5 .14-7.48c0-2.3 0-4.42-.1-6.33q-.19-6.93-.19-14.41a121.15 121.15 0 0 0-.77-14.17zm3.27 61.48h1.39c.46 0 .92.05 1.38.05a2 2 0 0 1 2 2.07c.07 1.46.1 2.91.1 4.36v4.36a2.19 2.19 0 0 1-2.17 2.17h-1l-1.54-.15c-.53-.07-1-.15-1.48-.25a1.42 1.42 0 0 1-.9-.45 1.46 1.46 0 0 1-.19-.94v-1c0-1.38 0-2.75.1-4.1s.13-2.73.19-4.11a2 2 0 0 1 .6-1.49 1.85 1.85 0 0 1 1.52-.52z"/></svg>