<svg id="Layer_1" data-name="Layer 1" xmlns="http://www.w3.org/2000/svg" viewBox="0 0 1456.08 1021.32"><defs><style>.cls-1{fill:#fff}.cls-13,.cls-18,.cls-3{fill:none}.cls-3{stroke:#1691c9;stroke-width:4px}.cls-18,.cls-3{stroke-miterlimit:10}.cls-5{fill:#003b71}.cls-13{stroke-linecap:round;stroke-linejoin:round;stroke-width:2.25px}.cls-8{fill:#df8d6a}.cls-9{fill:#ca5e36}.cls-10{fill:#eca079}.cls-11{fill:#e84444}.cls-13{stroke:#ca5e36}.cls-14{fill:#dc845e}.cls-18{stroke:#fdcc92;stroke-width:2.64px}</style><clipPath id="clip-path"><path class="cls-1" d="M827.55 411.17s-.63-5.2-17.08-4.56c-14.76.57-15.84 3.69-15.84 3.69s1.62 11.55 17.75 12.38 15.17-11.51 15.17-11.51z"/></clipPath><clipPath id="clip-path-2"><path class="cls-1" d="M853.86 411.87s1.76-3.73 11.27-3.12c7.27.48 9 4.4 9 4.4s-.82 9.66-11.08 9.79-9.19-11.07-9.19-11.07z"/></clipPath></defs><path d="M907.75 17c-35.48.38-209.51-6.31-249.21-1.34C589 24.42 535.48 47.63 485 72.4c-63.38 31.14-120.58 67.3-174.6 105.8C240.6 228 176 281.58 124.93 345.39 80 401.42 83.71 467.64 91.67 559.07c4.51 51.71-7.93 106 34.86 184.64C307.37 1076 1443.4 1097.19 1338.2 369.1 1283.59-8.84 960.43 16.47 907.75 17z" fill="#c4e5e5"/><path class="cls-3" d="M398.17 164.84h732.76v466.39H398.17zM376.31 145.98l21.86 18.86"/><path class="cls-3" d="M376.31 145.98h776.49v504.11H376.31z"/><path fill="#a7d1d0" stroke-miterlimit="10" stroke="#1691c9" stroke-width="4" d="M353.67 625.34h814.05v30.65H353.67z"/><path class="cls-1" d="M332 548.87s83.22 0 149.42-.19c77.6-.22 73.23-119.8-2.29-130.32-126.13-17.57-162.63-7.24-231.32-4.05-102 4.75-98.36 121.36-41.42 129 53.43 7.2 90 5.53 90 5.53L274.81 690.6zM1069.59 606l-66.2-.19c-77.6-.23-73.23-119.8 2.28-130.32 126.14-17.58 162.63-7.25 231.33-4 102 4.74 98.36 121.35 41.41 129-53.42 7.2-134.89 3.06-134.89 3.06l-98.19 111z"/><path class="cls-5" d="M250.8 508.66c-2.14 0-2.19.45-2.19-1.94 0-1.2.14-2.39.14-3.59 0-1.52-.59-10.3-2.3-10.3-2.11 0-2.32 8.29-2.32 9.9 0 .89.34 5.7-.82 5.7s-2.07 0-3.11.05a70.19 70.19 0 0 1 1.14-12.2 19.39 19.39 0 0 1 .59-2.39 21.71 21.71 0 0 0 1.13-2.61c0-.77-1.42-2.76-1.71-3.74-1.46-4.86-1.48-10.39-1.48-15.44 0-.33.12-.62.5-.62a1.54 1.54 0 0 1 .59.14 3.8 3.8 0 0 1 1.3-.15c.92 0 1.65.11 1.65 1.21 0 2.33.07 16.09 2.36 16.09s2.46-11.56 2.46-13.52c0-.62-.12-1.25-.12-1.88 0-1.32.32-1.82 1.65-1.82.4 0 2.29 0 2.29.58 0 .29-.22.51-.22.8a.29.29 0 0 0 .2.27 72.54 72.54 0 0 1-1 11.3c-.18 1-1.62 5.42-1.62 5.74 0 1 .7 1.8 1 2.69 1.14 2.87 1.91 9.64 1.91 12.81 0 .6 0 3-.86 3-.41 0-.82-.06-1.23-.07zM273.82 510.9a3.36 3.36 0 0 1-2.67.81c-6.5 0-11-3-11-9.93 0-3.1 1.52-5.95 5-5.95 2 0 3.88 1.43 4.65 1.43a1.29 1.29 0 0 0 .25-.06c-.05-4.46-.07-19.95-2.07-23.11a2.93 2.93 0 0 0-2.46-1.51c-2.3 0-3.69 2.44-3.69 4.51 0 1.82 0 2.21-1.88 2.21-.88 0-2.91.23-2.91-1.06a11.08 11.08 0 0 1 1.37-4.17c1.5-2.82 4.77-5.58 8.1-5.58a5.26 5.26 0 0 1 2.24.49c3.91 1.88 4.49 9.38 4.9 13.19a122.15 122.15 0 0 1 .62 13c0 4.2-.15 8.4-.15 12.59 0 1 .24 2.25-.26 3.17zm-9.4-8.19a5 5 0 0 0 5 5.16c1 0 1.09-1 1.09-1.75 0-1.21-.38-2.39-.38-3.6 0-2.35-.59-2.8-2.89-2.8a2.78 2.78 0 0 0-2.82 2.99zM283.68 491.93a6.42 6.42 0 0 1-1.53.41c-.16 0-.54-.14-.62 0-.3-.21-.34-3.12-.34-3.55 0-1-.13-1 .62-1.25a3.65 3.65 0 0 1 1.19-.18c.83 0 1.64.21 2.46.21 4.16 0 8.33-.12 12.48-.25a23.45 23.45 0 0 1-.21 4.05 1.14 1.14 0 0 1-.51.13c-1.23 0-2.49-.17-3.74-.17a72.71 72.71 0 0 0-9.8.61zM313.06 508.66c-2.14 0-2.19.45-2.19-1.94 0-1.2.14-2.39.14-3.59 0-1.52-.59-10.3-2.3-10.3-2.11 0-2.31 8.29-2.31 9.9 0 .89.34 5.7-.82 5.7s-2.08 0-3.12.05a69.24 69.24 0 0 1 1.15-12.2 17.74 17.74 0 0 1 .59-2.39 23.24 23.24 0 0 0 1.12-2.61c0-.77-1.42-2.76-1.71-3.74-1.46-4.86-1.48-10.39-1.48-15.44 0-.33.12-.62.5-.62a1.5 1.5 0 0 1 .59.14 3.8 3.8 0 0 1 1.3-.15c.92 0 1.65.11 1.65 1.21 0 2.33.07 16.09 2.36 16.09s2.47-11.56 2.47-13.52c0-.62-.11-1.25-.11-1.88 0-1.32.31-1.82 1.65-1.82.39 0 2.28 0 2.28.58 0 .29-.22.51-.22.8a.29.29 0 0 0 .2.27 71.34 71.34 0 0 1-1 11.3c-.18 1-1.62 5.42-1.62 5.74 0 1 .71 1.8 1.05 2.69 1.14 2.87 1.91 9.64 1.91 12.81 0 .6 0 3-.85 3-.42 0-.83-.06-1.24-.07zM336.09 510.9a3.39 3.39 0 0 1-2.68.81c-6.5 0-11-3-11-9.93 0-3.1 1.51-5.95 5-5.95 2 0 3.87 1.43 4.64 1.43a1 1 0 0 0 .25-.06c0-4.46-.07-19.95-2.06-23.11a3 3 0 0 0-2.47-1.51c-2.3 0-3.69 2.44-3.69 4.51 0 1.82 0 2.21-1.88 2.21-.88 0-2.91.23-2.91-1.06a11.26 11.26 0 0 1 1.37-4.17c1.5-2.82 4.77-5.58 8.1-5.58a5.26 5.26 0 0 1 2.24.51c3.91 1.88 4.49 9.38 4.9 13.19a122.16 122.16 0 0 1 .63 13c0 4.2-.15 8.4-.15 12.59 0 1 .24 2.25-.27 3.17zm-9.4-8.19a5 5 0 0 0 5 5.16c1 0 1.09-1 1.09-1.75 0-1.21-.38-2.39-.38-3.6 0-2.35-.58-2.8-2.89-2.8a2.77 2.77 0 0 0-2.82 2.99zM345.94 491.93a6.3 6.3 0 0 1-1.53.41c-.15 0-.54-.14-.62 0-.3-.21-.34-3.12-.34-3.55 0-1-.13-1 .62-1.25a3.7 3.7 0 0 1 1.19-.18c.83 0 1.64.21 2.47.21 4.15 0 8.32-.12 12.47-.25a22.49 22.49 0 0 1-.21 4.05 1.13 1.13 0 0 1-.5.13c-1.24 0-2.49-.17-3.75-.17a72.82 72.82 0 0 0-9.8.61zM375.32 508.66c-2.14 0-2.18.45-2.18-1.94 0-1.2.13-2.39.13-3.59 0-1.52-.58-10.3-2.3-10.3-2.1 0-2.31 8.29-2.31 9.9 0 .89.34 5.7-.82 5.7s-2.08 0-3.12.05a70.2 70.2 0 0 1 1.15-12.2 17.74 17.74 0 0 1 .59-2.39 23.24 23.24 0 0 0 1.12-2.61c0-.77-1.41-2.76-1.71-3.74-1.46-4.86-1.48-10.39-1.48-15.44 0-.33.13-.62.51-.62a1.45 1.45 0 0 1 .58.14 3.83 3.83 0 0 1 1.3-.15c.92 0 1.65.11 1.65 1.21 0 2.33.07 16.09 2.37 16.09s2.45-11.56 2.45-13.52c0-.62-.11-1.25-.11-1.88 0-1.32.32-1.82 1.65-1.82.39 0 2.29 0 2.29.58 0 .29-.23.51-.23.8a.29.29 0 0 0 .21.27 72.54 72.54 0 0 1-1 11.3c-.19 1-1.63 5.42-1.63 5.74 0 1 .71 1.8 1.06 2.69 1.13 2.87 1.9 9.64 1.9 12.81 0 .6 0 3-.85 3-.41 0-.82-.06-1.24-.07zM398.35 510.9a3.38 3.38 0 0 1-2.68.81c-6.5 0-11-3-11-9.93 0-3.1 1.52-5.95 5-5.95 2 0 3.87 1.43 4.64 1.43a1 1 0 0 0 .25-.06c0-4.46-.06-19.95-2.06-23.11a3 3 0 0 0-2.47-1.51c-2.29 0-3.68 2.44-3.68 4.51 0 1.82 0 2.21-1.89 2.21-.87 0-2.91.23-2.91-1.06a11.26 11.26 0 0 1 1.37-4.17c1.5-2.82 4.77-5.58 8.1-5.58a5.26 5.26 0 0 1 2.24.49c3.92 1.88 4.49 9.38 4.9 13.19a122.16 122.16 0 0 1 .63 13c0 4.2-.15 8.4-.15 12.59 0 1 .24 2.25-.26 3.17zm-9.4-8.19a5 5 0 0 0 5 5.16c1 0 1.08-1 1.08-1.75 0-1.21-.38-2.39-.38-3.6 0-2.35-.58-2.8-2.88-2.8a2.78 2.78 0 0 0-2.77 2.99zM408.2 491.93a6.18 6.18 0 0 1-1.53.41c-.15 0-.53-.14-.62 0-.3-.21-.34-3.12-.34-3.55 0-1-.13-1 .62-1.25a3.74 3.74 0 0 1 1.19-.18c.83 0 1.64.21 2.47.21 4.15 0 8.32-.12 12.47-.25a21.61 21.61 0 0 1-.21 4.05 1.13 1.13 0 0 1-.5.13c-1.24 0-2.49-.17-3.74-.17a72.86 72.86 0 0 0-9.81.61zM437.59 508.66c-2.15 0-2.19.45-2.19-1.94 0-1.2.13-2.39.13-3.59 0-1.52-.58-10.3-2.29-10.3-2.11 0-2.32 8.29-2.32 9.9 0 .89.34 5.7-.82 5.7s-2.07 0-3.12.05a70.2 70.2 0 0 1 1.15-12.2 17.74 17.74 0 0 1 .59-2.39 23.44 23.44 0 0 0 1.13-2.61c0-.77-1.42-2.76-1.71-3.74-1.46-4.86-1.49-10.39-1.49-15.44 0-.33.13-.62.51-.62a1.45 1.45 0 0 1 .58.14 3.86 3.86 0 0 1 1.31-.15c.92 0 1.64.11 1.64 1.21 0 2.33.08 16.09 2.37 16.09s2.45-11.56 2.45-13.52c0-.62-.11-1.25-.11-1.88 0-1.32.32-1.82 1.65-1.82.39 0 2.29 0 2.29.58 0 .29-.22.51-.22.8a.28.28 0 0 0 .2.27 72.54 72.54 0 0 1-1 11.3c-.18 1-1.63 5.42-1.63 5.74 0 1 .71 1.8 1.06 2.69 1.13 2.87 1.9 9.64 1.9 12.81 0 .6 0 3-.85 3-.41 0-.82-.06-1.23-.07zM460.61 510.9a3.38 3.38 0 0 1-2.68.81c-6.5 0-11-3-11-9.93 0-3.1 1.52-5.95 5-5.95 2 0 3.87 1.43 4.64 1.43a1.22 1.22 0 0 0 .26-.06c-.05-4.46-.07-19.95-2.07-23.11a2.94 2.94 0 0 0-2.46-1.51c-2.3 0-3.69 2.44-3.69 4.51 0 1.82 0 2.21-1.89 2.21-.87 0-2.91.23-2.91-1.06a11.1 11.1 0 0 1 1.38-4.17c1.49-2.82 4.77-5.58 8.09-5.58a5.19 5.19 0 0 1 2.24.49c3.92 1.88 4.5 9.38 4.9 13.19a119.57 119.57 0 0 1 .63 13c0 4.2-.15 8.4-.15 12.59 0 1 .24 2.25-.26 3.17zm-9.4-8.19a5 5 0 0 0 5 5.16c1 0 1.09-1 1.09-1.75 0-1.21-.38-2.39-.38-3.6 0-2.35-.59-2.8-2.89-2.8a2.78 2.78 0 0 0-2.82 2.99zM1007.89 487a13.75 13.75 0 0 1 .19 2.48c0 2.14-.32 4.27-.32 6.42 0 1.87.29 3.73.29 5.61s-.19 3.59-.19 5.38c0 1.35.12 2.69.12 4 0 .72.14 2-.88 2a3.61 3.61 0 0 1-.87-.16c-.65-.16-1 0-1-.93 0-.69.16-1.38.16-2.09 0-1.28-.11-2.56-.12-3.84 0-4.72-.2-9.43-.2-14.15v-2.54c0-.54 0-.78-.65-.78-1.46 0-2.88.49-4.37.48v3.2c.12 4.14.14 8.29.21 12.44 0 1.88-.07 3.89.15 5.76a17 17 0 0 1 .27 2c0 .17-.1.68 0 .81-.19.39-1.92.44-2.29.44-.84 0-.67-.18-.77-.81a8.42 8.42 0 0 1-.12-1.42c0-1.12.13-2.24.13-3.37 0-7-.13-13.92-.13-20.87a1.43 1.43 0 0 1 1.56-1.38c2.17 0 4.35.27 6.52.27 1 0 2-.42 2.25.93zM1011.75 499.55c0-5.25 2.09-11.05 8.25-11.05s7.63 7.42 7.63 12.31-2.16 10.8-8 10.8c-6.08 0-7.88-7.23-7.88-12.06zm2.7-.68c0 .75 0 1.51.11 2.26.25 2.53 1.87 7.85 5 7.85 4.1 0 5.33-6 5.33-9.21 0-2.92-1.15-8.61-4.93-8.61-4.5 0-5.51 3.93-5.51 7.71zM1037.93 483.81c3 1.77 3.47 8.32 3.47 11.43v1.19h-1.15a3.13 3.13 0 0 1-.92-.1c-.77-.22-.55 0-.69-.81-.36-2.13.27-9.12-3-9.12-2.86 0-2.86 6.18-2.86 8.06 0 1.23.08 2.45.08 3.67 0 2.39-.3 14.85 3.22 14.85 1.06 0 1.77-1.38 2-2.25s.07-1.8.28-2.68.22-.74 1.13-.81c.6-.05 1.21-.14 1.81-.23-.19 2.53-.1 5.5-1.79 7.58a4.11 4.11 0 0 1-3.14 1.56 3.86 3.86 0 0 1-2.65-1.09c-3.84-3.71-3.64-11.43-3.64-16.43 0-2.64 0-5.29.25-7.93.28-3.39 1.27-7.48 5.52-7.48a4.18 4.18 0 0 1 2.15.58zM1058.48 508c-.42.91-.66 2.05-1.86 2.05a3.44 3.44 0 0 1-.46 0c-1.43-.21-1.5-1.28-2.08-2.39-.85-1.64-1.76-3.24-2.56-4.9-.71-1.47-1.38-3-2.14-4.41-.53-1-1.07-2-1.55-3a7.64 7.64 0 0 0-.77-1.78c0 2.9.18 5.8.22 8.7 0 2.6.41 5.34.41 7.89 0 .78-.11.93-.94.93a16.88 16.88 0 0 1-2-.43.19.19 0 0 0-.12 0c-.19-.06-.29-.65-.29-.83 0-1.23.17-2.47.17-3.72v-12.1c0-1.15-.14-2.29-.14-3.43 0-.48 0-2.34.62-2.34 1.83 0 2.17.1 3 1.67 1.51 2.76 3.09 5.47 4.6 8.23.54 1 3.27 7.1 4 7.1.07 0 .26-.35.29-.4.68-1.21 1.18-2.5 1.82-3.73 1.5-2.88 3.11-5.7 4.61-8.59.46-.88 1.34-3.27 2.18-3.7a6.12 6.12 0 0 1 1.67-.2c1.23 0 1 1 1 2 0 4 .06 8.07.15 12.12 0 1.64.1 3.28.17 4.92 0 .8.2 1.58.2 2.39 0 .46-.11 1-.7 1a2.45 2.45 0 0 1-.87-.27c-.84-.34-.52.12-.78-.88a7.31 7.31 0 0 1-.17-1.81c0-2.42-.1-4.81-.18-7.22-.07-1.75 0-3.5-.14-5.24a10.2 10.2 0 0 0-.11-1.24s0-.3-.1-.3-.52.65-.58.76c-1.6 2.69-2.82 5.59-4.25 8.36-.73 1.61-1.58 3.18-2.32 4.79zM1072.23 499.55c0-5.25 2.08-11.05 8.24-11.05s7.63 7.42 7.63 12.31-2.16 10.8-8 10.8c-6.1 0-7.87-7.23-7.87-12.06zm2.7-.68c0 .75 0 1.51.1 2.26.25 2.53 1.88 7.85 5 7.85 4.11 0 5.33-6 5.33-9.21 0-2.92-1.15-8.61-4.93-8.61-4.5 0-5.5 3.93-5.5 7.71zM1091.2 486.52c-.43-.07-1.79-.15-2-.44a1.81 1.81 0 0 1 0-.4c0-1.64-.06-2 1.72-2 1.06 0 2.11.17 3.16.17.79 0 1.57-.18 2.36-.18.57 0 1.46 0 1.46.75 0 .51.07 1 .07 1.49 0 1.08-2.79-.21-2.79 1.48 0 .39.05.79.07 1.19.17 4.18.19 8.38.21 12.57 0 4.35 0 8.69.23 13v.82c0 .27 0 .76-.44.76a3.76 3.76 0 0 1-1.17-.35c-.8-.28-1-.11-1-1.19 0-.53.11-1.06.11-1.59 0-8.16-.53-16.33-.53-24.49 0-1.4 0-1.36-1.38-1.59zM1101.74 486c2.64.09 6.42-.19 8.12 2.29a3.47 3.47 0 0 1 .63 2 6.24 6.24 0 0 1-3 4.74c-.72.45-2 .56-2.54 1a1.66 1.66 0 0 0-.49 1.38c0 .68.14 1.34.14 2 0 2.89.26 5.79.49 8.67.11 1.32.45 2.6.45 3.93 0 1.1-.07 1.47-1.25 1.47-1.87 0-1.91-.47-1.91-2.17 0-4.64 0-9.29-.23-13.93-.15-2.93-.55-5.84-.55-8.78a24.18 24.18 0 0 1 .12-2.55zm5.63 6a2.16 2.16 0 0 0 .17-.83 2.93 2.93 0 0 0-2.76-2.56c-.52 0-.57.42-.57.85v1.37c0 .46-.16 1.17-.16 1.75s.12 1.13.78 1.13a3.71 3.71 0 0 0 2.51-1.71zM1123.31 494.23c-.45.29-2.49 5.18-3 6.1a45.78 45.78 0 0 0-3.31 7.1c-.17.51-.41 2-.83 2.26a6.81 6.81 0 0 1-1.91.23c-.87 0-.89-2.24-.89-2.84 0-1.7.22-3.4.22-5.11 0-2.41-.22-4.81-.22-7.22V492c0-.92-.18-1.84-.18-2.76 0-.72 1.69-1.21 2.27-1.21s.47.63.47.94c0 4.19-.1 8.38-.1 12.56a10.6 10.6 0 0 0 .16 2.11 42 42 0 0 0 3.66-6.86c.61-1.61 1.51-3.09 2.14-4.69.3-.76.74-3 1.26-3.43a2.32 2.32 0 0 1 1.52-.52c.73 0 1 .5 1 1.16 0 .85-.26 1.68-.26 2.52 0 5 .22 10 .22 15a30.48 30.48 0 0 1-.17 3.44c-.14 1.18-.16.95-1.24 1-.26 0-.52.06-.79.06-.65 0-.65-1.41-.65-1.85 0-4.91.67-9.8.67-14.72a1.16 1.16 0 0 0-.09-.55zM1130.87 486.52c-.43-.07-1.79-.15-2-.44a1.81 1.81 0 0 1 0-.4c0-1.64-.06-2 1.72-2 1.06 0 2.11.17 3.16.17.79 0 1.57-.18 2.36-.18.57 0 1.46 0 1.46.75 0 .51.07 1 .07 1.49 0 1.08-2.79-.21-2.79 1.48 0 .39 0 .79.07 1.19.17 4.18.19 8.38.21 12.57 0 4.35 0 8.69.24 13v.82c0 .27 0 .76-.44.76a3.84 3.84 0 0 1-1.17-.35c-.8-.28-1-.11-1-1.19 0-.53.11-1.06.11-1.59 0-8.16-.53-16.33-.53-24.49 0-1.4 0-1.36-1.38-1.59zM1148.45 511.5a4.84 4.84 0 0 1-1.37.21c-4.73 0-5.92-8.32-5.92-11.85s.35-12.2 5.52-12.2c4 0 5.77 5.85 5.77 9.1 0 1.58-.87 1.8-2.23 1.8s-2.46-.09-3.68-.09c-1 0-2.17.2-2.17 1.48 0 .66.14 1.32.2 2 .13 1.61.22 6.87 2.55 6.87s1.64-4.56 2.22-4.9a1.63 1.63 0 0 1 .92-.19c.63 0 1.25.11 1.88.11s.52.28.52.69c0 2.66-1.47 6.19-4.21 7zm-3.75-15.84c0 .34.73.41 1 .41a14.77 14.77 0 0 0 2.57-.39c.65-.11 1.09 0 1.09-.84 0-1.39-1.24-4.36-2.88-4.36s-1.66 2.37-1.66 3.52v.91c0 .31-.12.5-.12.75zM1177.19 507.76c0 .84.18 1.67.18 2.5 0 .28 0 .87-.43.87a3.92 3.92 0 0 1-.74-.16c-1.23-.24-1.54-.93-1.54-2.11 0-1 .21-4.64-.24-5.36a1.27 1.27 0 0 0-1.29-.57c-1 0-1.87-.41-2.78-.41-.74 0-.72.89-.72 1.43 0 .82.09 1.64.12 2.46s.28 1.48.28 2.24-1.26 1-1.93 1-1.42-.06-1.42-.91c0-.68.26-1.35.26-2 0-1.43-.18-2.85-.18-4.27 0-3.54.26-7.08.26-10.62 0-1-.1-2-.1-3 0-.41.06-.58.5-.58.72 0 2.62-.22 2.62.79 0 .63-.25 1.24-.28 1.87v1.28c0 1.58.09 3.17.06 4.75 0 .69-.25 1.36-.25 2.05s.5 1 1.19 1.07a20.82 20.82 0 0 0 2.71.24 1.33 1.33 0 0 0 .63-.09c.5-.29.5-2 .5-2.46 0-1.06-.11-2.12-.11-3.18s.08-2.09.08-3.14c0-.63-.11-1.27-.11-1.91s.3-1.23 1.15-1.23c1.07 0 1.49.59 1.49 1.58v4.62c.08 4.4.03 8.83.09 13.25zM1192.51 515.28a2.51 2.51 0 0 1-2 .61c-4.88 0-8.24-2.26-8.24-7.44 0-2.33 1.13-4.47 3.72-4.47 1.47 0 2.9 1.08 3.48 1.08a.77.77 0 0 0 .19-.05c0-3.34-.06-15-1.55-17.33a2.23 2.23 0 0 0-1.85-1.14c-1.72 0-2.77 1.84-2.77 3.39 0 1.36 0 1.66-1.41 1.66-.66 0-2.18.17-2.18-.8a8.21 8.21 0 0 1 1-3.12c1.12-2.12 3.57-4.19 6.07-4.19a3.89 3.89 0 0 1 1.68.37c2.93 1.41 3.37 7 3.67 9.89a90.3 90.3 0 0 1 .47 9.73c0 3.14-.11 6.29-.11 9.44a5 5 0 0 1-.2 2.37zm-7-6.14a3.72 3.72 0 0 0 3.76 3.87c.74 0 .82-.74.82-1.31 0-.91-.29-1.79-.29-2.7 0-1.76-.44-2.1-2.17-2.1a2.08 2.08 0 0 0-2.17 2.24zM1217.16 489c1.14 3.1.92 5 .92 8.2 0 1.05.07 2.09.07 3.13s-.09 1.78-.17 2.67c-.28 3.29-.47 10.16-5.11 10.16-3.49 0-5.14-4.15-5.14-7.1 0-.63 2.18-.53 2.62-.56.13 1.23.42 4.24 2.13 4.24 2.41 0 3-5.59 3-7.36h-1c-.69 0-1.38.17-2.08.17-1.51 0-2.22-.17-2.22-1.87 0-.92.1-1.24 1.1-1.24 1.39 0 2.76.3 4.15.34 0-1.49.09-3 .09-4.45s-.4-6.29-2.38-6.29c-2.38 0-2.34 5.08-2.67 6.66a.88.88 0 0 1-.87.8c-.66 0-1.83-.31-1.83-1.11a1.1 1.1 0 0 1 .17-.59c-.09-2.92 1.52-9.15 5.3-9.15 1.85 0 3.32 1.79 3.9 3.38zM1223.16 486.52c-.43-.07-1.8-.15-2.06-.44a2.71 2.71 0 0 1 0-.4c0-1.64 0-2 1.72-2 1.06 0 2.11.17 3.17.17.78 0 1.56-.18 2.35-.18.57 0 1.46 0 1.46.75 0 .51.08 1 .08 1.49 0 1.08-2.79-.21-2.79 1.48 0 .39 0 .79.06 1.19.18 4.18.19 8.38.22 12.57 0 4.35 0 8.69.23 13v.82c0 .27 0 .76-.43.76a3.82 3.82 0 0 1-1.18-.35c-.79-.28-1-.11-1-1.19 0-.53.11-1.06.11-1.59 0-8.16-.53-16.33-.53-24.49 0-1.4 0-1.36-1.38-1.59zM1243.65 488.46c.2 3.12.65 6.23.65 9.36 0 2.07-.13 4.14-.27 6.21-.23 3.24-.53 10.77-5.1 10.77-3.07 0-4.72-2.13-4.72-5.07 0-1.64 0-3.55 2.21-3.55a.35.35 0 0 1 .37.31c0 .34-.26.61-.26.95 0 1.11.35 5 1.89 5a1.64 1.64 0 0 0 1.08-.55c1.1-1 1.14-3.17 1.27-4.6.19-1.93.29-3.86.34-5.8.07-2.51.26-5 .26-7.51a3 3 0 0 0-.21-1.39c-.49 1.25-1.42 2.59-2.91 2.59-4.08 0-4.81-5.93-4.81-9 0-1.14.78-1.64 1.84-1.64s1.16 1.18 1.16 2a21.87 21.87 0 0 0 0 3.62c.16.94.87 2.71 2 2.71 1.68 0 2-2.9 2-4.14 0-1-.31-1.86-.31-2.81s.9-.88 1.51-.88c1.41 0 1.94-.09 1.94 1.51 0 .64-.07 1.27 0 1.91zM1072.81 532.13c9.84 4.09 7.12 19.84-4 19.84h-.26a22.45 22.45 0 0 1 0 4.26c-.12.78.15.72-.67.89h-.08a3.83 3.83 0 0 1-2.31-.5 3.79 3.79 0 0 0 0-.89c0-1.24.29-2.51.33-3.77-6 .1-11.14-3.68-11.14-10.11 0-6.11 4.59-10.31 10.59-10.31a4.88 4.88 0 0 1 .85.07c0-.65-.08-1.29-.08-1.94a1.79 1.79 0 0 1 .08-.73c.22-.33 2.13-.28 2.58-.31v2.91a10.47 10.47 0 0 1 4.2.58zm-7.48 17.3h.51c.1-4.75.25-9.53.25-14.29v-.76h-.27c-4.41 0-8.43 2.79-8.43 7.49 0 4.61 3.73 7.56 7.94 7.56zm3.84-.17a7.37 7.37 0 0 0 7.15-7.4 7.58 7.58 0 0 0-6.28-7.36c-.47-.06-1 0-1.46-.06 0 4.94 0 9.88-.08 14.82h.67zM1092 531.66c.2 3.12.65 6.23.65 9.36 0 2.07-.13 4.14-.27 6.21-.22 3.24-.53 10.77-5.1 10.77-3.07 0-4.72-2.13-4.72-5.07 0-1.64.06-3.55 2.21-3.55a.35.35 0 0 1 .37.32c0 .33-.26.6-.26.94 0 1.11.35 5 1.89 5a1.62 1.62 0 0 0 1.08-.55c1.1-1.05 1.14-3.17 1.27-4.6.19-1.93.29-3.86.34-5.8.07-2.51.26-5 .26-7.51a3 3 0 0 0-.21-1.39c-.49 1.24-1.42 2.59-2.91 2.59-4.08 0-4.81-5.93-4.81-9 0-1.15.78-1.65 1.84-1.65s1.16 1.18 1.16 2a21.87 21.87 0 0 0 0 3.62c.16.94.87 2.71 2 2.71 1.68 0 2.05-2.9 2.05-4.14 0-.95-.3-1.86-.3-2.81s.89-.88 1.5-.88c1.41 0 1.94-.09 1.94 1.51 0 .64-.07 1.27 0 1.91zM1097.7 529.72c-.43-.07-1.79-.15-2-.43a2 2 0 0 1-.05-.41c0-1.64 0-2 1.73-2 1.06 0 2.11.17 3.16.17.78 0 1.57-.18 2.36-.18.57 0 1.46 0 1.46.75 0 .51.07 1 .07 1.49 0 1.08-2.79-.21-2.79 1.48 0 .4.05.79.06 1.19.18 4.18.2 8.38.22 12.57 0 4.35 0 8.69.23 13v.82c0 .27 0 .76-.44.76a3.68 3.68 0 0 1-1.17-.35c-.8-.28-1-.11-1-1.19 0-.53.11-1.06.11-1.6 0-8.15-.53-16.32-.53-24.48 0-1.4 0-1.36-1.38-1.59zM1112 556.63c-3-.82-3.34-6-3.34-8.5 0-4.37 1.7-5.82 6-5.82a5.77 5.77 0 0 1 1.1.09c-1-2.61-7.82-2.38-7.82-8a4 4 0 0 1 1.29-2.67c2.14-2.24 6.61-2.71 9.58-2.71h.63a.75.75 0 0 1 .07.33 12.44 12.44 0 0 1-.47 3s-.07.23-.14.23c-.73 0-1.48-.17-2.23-.17-1.3 0-5.19.36-5.19 2.21 0 2.45 5.54 2.82 6.63 7.76a25.42 25.42 0 0 1 .49 5.29c0 3.93-.56 9.06-5.63 9.06a3.82 3.82 0 0 1-1-.11zm.24-10.89a23.27 23.27 0 0 0-.41 4.25c0 1.23-.18 4.26 1.46 4.46a3.15 3.15 0 0 0 1-.55c.8-1.3 1.23-4.89 1.23-6.44a15.54 15.54 0 0 0-.25-2.81 5.77 5.77 0 0 0-3 1.09zm1.22 10.12zM1122.92 542.75c0-5.25 2.09-11 8.25-11s7.63 7.42 7.63 12.31-2.16 10.8-8 10.8c-6.08-.05-7.88-7.28-7.88-12.11zm2.7-.68c0 .75 0 1.51.11 2.27.25 2.52 1.87 7.84 5 7.84 4.1 0 5.33-6 5.33-9.21 0-2.92-1.15-8.6-4.93-8.6-4.5 0-5.51 3.92-5.51 7.7zM1151.82 548.5c.21.9 1.45 5 1.45 5.53s-.42.42-.73.42h-.49c-1.87-.15-1.59-.93-2-2.47-.4-1.71-.95-3.38-1.37-5.08s-.8-3.58-1.24-5.35c-.18-.7-.61-4.24-1-4.5-.55 3.46-1.08 6.9-1.41 10.39-.19 1.9-.67 3.78-.79 5.69-.07 1.06.15 1-.91 1.32a2 2 0 0 1-.54.07 4 4 0 0 1-1.66-.4c.09-2.77 1.06-5.51 1.44-8.26.46-3.42 1-6.83 1.55-10.26.12-.8.07-3.57.65-4a3.33 3.33 0 0 1 1.54-.27 2.5 2.5 0 0 1 1 .13c.7.33.83 2 1 2.69 1 4.82 2.35 9.6 3.52 14.4zM1160.31 557.77c0 .22-.12.7 0 .89-.3.44-1.93.5-2.45.5-.89 0-.8-.13-.89-.9a14.39 14.39 0 0 1-.13-1.73c0-1.19.14-2.38.14-3.58 0-8.78 0-17.56-.17-26.34.48 0 2.57 0 2.82.31a1.6 1.6 0 0 1 .09.73c0 1.81-.12 3.62-.12 5.44 0 1.16.06 2.33.06 3.5 0 1.47-.27 2.92-.29 4.39 1-2.09 2.7-3.65 4.11-5.42.58-.74 3.06-4.27 3.59-4.51l1.4.94a1.29 1.29 0 0 1 0 .19c0 1.52-7.91 9.94-7.91 10.88 0 .39.53 1 .75 1.35.67.94 5.52 10.39 5.52 10.89 0 .66-1.24 1.2-1.78 1.23a113.76 113.76 0 0 1-5.75-11.63 84 84 0 0 0 .69 10.64 16.8 16.8 0 0 1 .32 2.23zM1180.25 531.66c.2 3.12.65 6.23.65 9.36 0 2.07-.13 4.14-.27 6.21-.22 3.24-.53 10.77-5.1 10.77-3.07 0-4.72-2.13-4.72-5.07 0-1.64.06-3.55 2.21-3.55a.35.35 0 0 1 .37.32c0 .33-.26.6-.26.94 0 1.11.35 5 1.89 5a1.62 1.62 0 0 0 1.08-.55c1.1-1.05 1.14-3.17 1.27-4.6.19-1.93.29-3.86.34-5.8.07-2.51.26-5 .26-7.51a3 3 0 0 0-.21-1.39c-.49 1.24-1.42 2.59-2.91 2.59-4.08 0-4.81-5.93-4.81-9 0-1.15.78-1.65 1.84-1.65s1.16 1.18 1.16 2a21.87 21.87 0 0 0 0 3.62c.16.94.87 2.71 2 2.71 1.68 0 2.05-2.9 2.05-4.14 0-.95-.3-1.86-.3-2.81s.89-.88 1.5-.88c1.41 0 1.94-.09 1.94 1.51 0 .64-.07 1.27 0 1.91zM1184.3 530.94a20.86 20.86 0 0 1-.26-2.23c0-.18.1-.74 0-.89.18-.44 1.91-.5 2.3-.5.85 0 .67.27.76.9a10.64 10.64 0 0 1 .12 1.59c0 1.18-.14 2.35-.14 3.53 0 5.33.15 10.67.15 16a.76.76 0 0 1-.76.76c-.3 0-1.65 0-1.81-.29a2 2 0 0 1-.08-.73c0-1.81.1-3.63.1-5.44v-2.3c-.09-3.32 0-7.15-.36-10.41zm1.17 22.35l1 .06a.74.74 0 0 1 .71.73v3.19a.75.75 0 0 1-.76.76c-.32 0-1.63 0-1.81-.29a2 2 0 0 1-.08-.73c0-1 .05-2 .09-3a.74.74 0 0 1 .79-.74zM1092.29 575.33c9.83 4.09 7.11 19.84-4 19.84h-.29a21.66 21.66 0 0 1 0 4.26c-.12.78.16.72-.66.89h-.08a3.86 3.86 0 0 1-2.32-.5 3.79 3.79 0 0 0 0-.89c0-1.24.3-2.51.34-3.77-6 .1-11.14-3.68-11.14-10.11 0-6.11 4.58-10.31 10.58-10.31a4.8 4.8 0 0 1 .85.07c0-.65-.08-1.29-.08-1.94a1.79 1.79 0 0 1 .08-.73c.22-.33 2.13-.28 2.58-.31v2.91a10.54 10.54 0 0 1 4.21.58zm-7.49 17.3h.51c.1-4.75.25-9.53.25-14.29v-.76h-.27c-4.4 0-8.43 2.79-8.43 7.49 0 4.61 3.73 7.56 7.94 7.56zm3.85-.17a7.36 7.36 0 0 0 7.14-7.4 7.58 7.58 0 0 0-6.28-7.36c-.46-.06-1 0-1.45-.06 0 4.94 0 9.88-.08 14.82h.66zM1112.14 584.22c0 2.07-.12 4.14-.27 6.21-.22 3.24-.53 10.77-5.1 10.77-3.06 0-4.71-2.13-4.71-5.07 0-1.64 0-3.55 2.2-3.55a.35.35 0 0 1 .37.31c0 .34-.26.61-.26 1 0 1.11.36 5 1.89 5a1.67 1.67 0 0 0 1.09-.55c1.1-1 1.13-3.17 1.27-4.6.18-1.93.28-3.86.34-5.8.07-2.51.25-5 .25-7.51a2.85 2.85 0 0 0-.21-1.43c-.49 1.25-1.42 2.59-2.9 2.59-4.09 0-4.82-5.93-4.82-9 0-1.15.78-1.65 1.85-1.65s1.15 1.18 1.15 2a20.83 20.83 0 0 0 0 3.62c.15.94.86 2.71 2 2.71 1.69 0 2.06-2.9 2.06-4.14 0-1-.31-1.86-.31-2.81s.89-.88 1.51-.88c1.4 0 1.93-.09 1.93 1.51 0 .64-.07 1.27 0 1.91.23 3.14.67 6.23.67 9.36zM1126 584.22c0 2.07-.12 4.14-.27 6.21-.22 3.24-.53 10.77-5.1 10.77-3.06 0-4.71-2.13-4.71-5.07 0-1.64 0-3.55 2.2-3.55a.35.35 0 0 1 .37.31c0 .34-.26.61-.26 1 0 1.11.36 5 1.89 5a1.67 1.67 0 0 0 1.09-.55c1.1-1 1.13-3.17 1.27-4.6.18-1.93.28-3.86.34-5.8.07-2.51.25-5 .25-7.51a2.85 2.85 0 0 0-.21-1.39c-.49 1.25-1.42 2.59-2.9 2.59-4.09 0-4.82-5.93-4.82-9 0-1.15.78-1.65 1.85-1.65s1.15 1.18 1.15 2a21.87 21.87 0 0 0 0 3.62c.16.94.87 2.71 2 2.71 1.69 0 2.06-2.9 2.06-4.14 0-1-.31-1.86-.31-2.81s.89-.88 1.51-.88c1.4 0 1.93-.09 1.93 1.51 0 .64-.07 1.27 0 1.91.23 3.1.67 6.19.67 9.32zM1139.86 584.22c0 2.07-.12 4.14-.27 6.21-.22 3.24-.53 10.77-5.1 10.77-3.06 0-4.71-2.13-4.71-5.07 0-1.64 0-3.55 2.2-3.55a.35.35 0 0 1 .37.31c0 .34-.26.61-.26 1 0 1.11.36 5 1.89 5a1.67 1.67 0 0 0 1.09-.55c1.1-1 1.13-3.17 1.27-4.6.18-1.93.28-3.86.33-5.8.07-2.51.26-5 .26-7.51a2.85 2.85 0 0 0-.21-1.39c-.49 1.25-1.42 2.59-2.9 2.59-4.09 0-4.82-5.93-4.82-9 0-1.15.78-1.65 1.85-1.65s1.15 1.18 1.15 2a21.87 21.87 0 0 0 0 3.62c.16.94.87 2.71 2 2.71 1.69 0 2.06-2.9 2.06-4.14 0-1-.31-1.86-.31-2.81s.89-.88 1.51-.88c1.4 0 1.93-.09 1.93 1.51 0 .64-.07 1.27 0 1.91.22 3.1.67 6.19.67 9.32zM1153.72 584.22c0 2.07-.12 4.14-.27 6.21-.22 3.24-.53 10.77-5.1 10.77-3.06 0-4.71-2.13-4.71-5.07 0-1.64 0-3.55 2.2-3.55a.35.35 0 0 1 .37.31c0 .34-.26.61-.26 1 0 1.11.36 5 1.89 5a1.67 1.67 0 0 0 1.09-.55c1.1-1 1.13-3.17 1.27-4.6.18-1.93.28-3.86.34-5.8.07-2.51.25-5 .25-7.51a2.85 2.85 0 0 0-.21-1.39c-.49 1.25-1.42 2.59-2.9 2.59-4.09 0-4.82-5.93-4.82-9 0-1.15.78-1.65 1.85-1.65s1.15 1.18 1.15 2a21.87 21.87 0 0 0 0 3.62c.16.94.87 2.71 2 2.71 1.69 0 2.06-2.9 2.06-4.14 0-1-.31-1.86-.31-2.81s.89-.88 1.5-.88c1.41 0 1.94-.09 1.94 1.51 0 .64-.07 1.27 0 1.91.23 3.1.67 6.19.67 9.32zM1167.58 584.22c0 2.07-.12 4.14-.27 6.21-.22 3.24-.53 10.77-5.1 10.77-3.06 0-4.71-2.13-4.71-5.07 0-1.64 0-3.55 2.2-3.55a.35.35 0 0 1 .37.31c0 .34-.26.61-.26 1 0 1.11.35 5 1.89 5a1.67 1.67 0 0 0 1.09-.55c1.1-1 1.13-3.17 1.27-4.6.18-1.93.28-3.86.34-5.8.07-2.51.25-5 .25-7.51a2.85 2.85 0 0 0-.21-1.39c-.49 1.25-1.42 2.59-2.9 2.59-4.09 0-4.82-5.93-4.82-9 0-1.15.78-1.65 1.85-1.65s1.15 1.18 1.15 2a21.87 21.87 0 0 0 0 3.62c.16.94.87 2.71 2 2.71 1.69 0 2-2.9 2-4.14 0-1-.3-1.86-.3-2.81s.89-.88 1.51-.88c1.4 0 1.93-.09 1.93 1.51 0 .64-.07 1.27 0 1.91.28 3.1.72 6.19.72 9.32z"/><path d="M685 809.18s-34.26 76.89-69.19 227.25h279s-9.23-193-48.25-291.67z" fill="#fc5e43"/><path d="M801.73 906.91c-6 57.38-20.14 129.52-20.14 129.52" stroke-width="2.25" stroke-linecap="round" stroke-linejoin="round" stroke="#fff" fill="none"/><path class="cls-8" d="M814.78 643.45l33.52 127.93c5.39 18.58 20.59 28.81 38.84 22.37 16.69-5.9 20-23.9 20-23.9L878.51 615z"/><path class="cls-1" d="M810.17 698.3s23.93 11.63 98.57-35.72L882 565.49a47.85 47.85 0 0 0-63-32.06 47.85 47.85 0 0 0-30.15 53.8z"/><path class="cls-8" d="M895.76 741.56l78.32 135.66s1 14.33-6.35 18.72c-6.61 3.92-12.81 4.69-17.81-1.15l-95.92-110c-12-14.15-6.84-35.71 9.12-45.19 14.02-8.33 24.03-11.91 32.64 1.96z"/><path class="cls-9" d="M995.31 930.43l34 34.56a5.08 5.08 0 0 0 7 .26 5.08 5.08 0 0 0 .62-7l-14.6-18.15z"/><path class="cls-8" d="M954.87 865.16a13.28 13.28 0 0 0-9.26 16.65l3.49 11.62s1.61 25.35 20.39 41.07c11.73 9.83 17.63 17.89 20.41 22.55a5.69 5.69 0 0 0 7 2.43 5.62 5.62 0 0 0 3.26-7A82.6 82.6 0 0 0 988 929.31l52.08 28.62a4.39 4.39 0 0 0 6.23-2 4.38 4.38 0 0 0-1-4.95l-50.49-47.71s-16.78-19.77-25.7-32.86a13.14 13.14 0 0 0-14.32-5.23z"/><path d="M789.22 807.13l-91 1.65c-44.57 1.06-83.14-34.22-84.2-78.79l-2.88-121.22c-1.23-51.39 41-94 92.4-95.26l78.67-1.35a80.72 80.72 0 0 1 82.62 78.78L868 724.5a80.72 80.72 0 0 1-78.78 82.63z"/><path class="cls-1" d="M774.13 513.12s-47 12.43-81.53 26.5a22.93 22.93 0 0 0-14.27 21.85L685 809.18s136.22 26 178.19-10.77L869 556a22.91 22.91 0 0 0-13.75-21.55l-49-21.35z"/><path class="cls-10" d="M749.89 520l24.24-6.9h32.12L833 524.75s8.7 25.51-24.3 27.28-50.87-19.82-58.81-32.03z"/><path d="M842.26 528.81s35.82 45 23.61 157.52c0 0 4.45-2.09 10.83-20.72 9.68-28.21 10.54-94.74-16.23-128.4a18.75 18.75 0 0 0-7.87-5.76c-6.55-2.6-10.34-2.64-10.34-2.64z"/><path class="cls-10" d="M648.14 646.82l-36.47 134.12a35.4 35.4 0 0 0 28 43.2 35.41 35.41 0 0 0 40.7-26l40.79-143.88z"/><path class="cls-1" d="M622.43 679.43s12 24.1 102.17 20.55l26.11-99.42A48.83 48.83 0 0 0 711.57 540a48.83 48.83 0 0 0-54.18 32z"/><path d="M706.89 534.12s49.85 45 1.17 166.24c0 0 14.1-8.81 25.87-29.76s36.65-94.3-6.49-143.57c0 0-3.28-1.57-11 1.08-7.19 2.45-9.55 6.01-9.55 6.01z"/><path class="cls-11" d="M844.58 638.01l-102.4 27.8 6.3 24.8 99.35-28.03-3.25-24.57z"/><path class="cls-1" d="M752.93 682.57l-3.79-13.72 94.42-24.86 2.35 12.29-92.98 26.29z"/><path fill="#fd6b64" d="M842.17 649.11l36.62 142.49-102.16 25.89-37.98-141.06 103.52-27.32z"/><path class="cls-11" d="M842.17 649.11l2.41-11.1 36.86 141.89-2.65 11.7-36.62-142.49z"/><path class="cls-10" d="M871.33 684.79c-5.24-9.94-18.32-5.56-31.15 2.28l3.69-8.77c1.49-3.55 3.7-8.78-1.08-11.11s-9.06.36-11.48 2.92l-16.53 16.22c-9.2 11-16.08 28-18.13 43.53l6.5 21.45C900.43 755 883 707 871.33 684.79z"/><path class="cls-10" d="M635.49 757.32l174.85-46.5 10.21 38-161.17 72.76a34.37 34.37 0 0 1-47.54-22.34 34.37 34.37 0 0 1 23.65-41.92z"/><path class="cls-13" d="M696.38 741.56l-43.8 11.21"/><path class="cls-9" d="M895.44 369.45s-.82 25.26 12.24 36.39c16.21 13.83 20.89 34.72 5.15 53.59-23.72 28.42-78.66 20.58-98.07 0zM737.75 341.29s-5.53 27.12-19.2 35c-15.57 8.94-29.56 17-36.09 38.62-6 19.9 11.76 42.23 31 50.11 19.7 8.06 43.3 15.65 82.1-5.28z"/><circle class="cls-9" cx="802.5" cy="359.86" r="67.35" transform="rotate(-5.34 802.214 359.763)"/><path class="cls-14" d="M845.79 425.3c1.6 11.7 12.08 18.09 23.78 16.5s19.49-14.92 17.9-26.62-11.67-15.55-23.37-14a21.4 21.4 0 0 0-18.31 24.12z"/><path class="cls-10" d="M791.36 417.86l-23.3 112.7 51.27 6.65 7.56-98.98-35.53-20.37z"/><path class="cls-14" d="M821.86 504s-33.33-12.25-41.5-71.8l45.16 25.61z"/><path class="cls-10" d="M840.42 313.09s48.79 3.46 42.64 67.48-16.42 81.72-42.62 94.23c-23.54 11.24-50.59-1.62-66.31-29.54-6.18-11-10.51-27.26-11-39.84L760 388.51s-17-84.12 80.42-75.42z"/><path class="cls-9" d="M775.13 350.11s11.08 29.13-5.94 57.19l-22.63-32.17z"/><path class="cls-10" d="M777.2 420.87c-3.1 11.9-12.81 16.32-24.71 13.22s-18.31-17.84-15.21-29.75 14.57-16.49 25.89-11.53 17.12 16.19 14.03 28.06z"/><path class="cls-13" d="M746 408.32s14.24-3 18 11.17"/><path class="cls-9" d="M855.12 318.3s8.91 14.59-40.47 36.26c-13.55 5.94-41.41 17.67-48 36.46 0 0-48.38-83.15 41.83-87-.02.04 37.92 2.71 46.64 14.28z"/><path class="cls-9" d="M847.09 321s13.49 12.94 22.8 25.91c10.11 14.09 14.75 31.7 10.82 54.31a65 65 0 0 0 12-20.77c12.43-34.41-11.38-72.8-47.83-75.92a41.43 41.43 0 0 0-25.45 5.93zM758.38 472.61s37.63-4.4 46.34-15.7c0 0-17.53 7.17-36.91-11.28z"/><path class="cls-9" d="M790.21 444s-3.65 14.6-18.21 14.18l-4.14-12.55s11.85 4.79 22.35-1.63z"/><path class="cls-9" d="M768.64 432.83s15.71 4.91 11.54 19.79l-19.9 1.11z"/><path class="cls-13" d="M846.25 426.83l4.07 11.19-6.51 2.09"/><path class="cls-1" d="M827.55 411.17s-.63-5.2-17.08-4.56c-14.76.57-15.84 3.69-15.84 3.69s1.62 11.55 17.75 12.38 15.17-11.51 15.17-11.51z"/><g clip-path="url(#clip-path)"><ellipse cx="813.73" cy="415.38" rx="11.1" ry="10.23" transform="rotate(-88.3 815.733 414.45)"/></g><path d="M826.42 412.71a12.74 12.74 0 0 0-1.55-1c-.58-.32-1.19-.62-1.8-.9a29.26 29.26 0 0 0-3.84-1.4 40.62 40.62 0 0 0-8.17-1.52 37 37 0 0 0-8.35.11 24 24 0 0 0-4.05.93 12.67 12.67 0 0 0-3.61 1.78h-.07a.59.59 0 0 1-.76-.91 13.81 13.81 0 0 1 3.9-2.34 25.63 25.63 0 0 1 4.26-1.33 39.45 39.45 0 0 1 8.8-.8 42.74 42.74 0 0 1 8.84 1 34 34 0 0 1 4.35 1.23c.71.27 1.42.54 2.13.87a15.66 15.66 0 0 1 2.17 1.17 1.91 1.91 0 0 1-2.07 3.2l-.13-.09z"/><path class="cls-1" d="M853.86 411.87s1.76-3.73 11.27-3.12c7.27.48 9 4.4 9 4.4s-.82 9.66-11.08 9.79-9.19-11.07-9.19-11.07z"/><g clip-path="url(#clip-path-2)"><path d="M870.33 417.66c-.81 5.38-4.55 9.29-8.35 8.72s-6.23-5.4-5.43-10.79 4.55-9.29 8.36-8.72 6.23 5.4 5.42 10.79z"/></g><path d="M853 410.64a11.46 11.46 0 0 1 1.5-.78c.48-.21 1-.4 1.46-.57a20.92 20.92 0 0 1 3-.77 25.42 25.42 0 0 1 6-.43 15 15 0 0 1 5.9 1.49 10.87 10.87 0 0 1 4.54 4 .48.48 0 0 1-.16.65.47.47 0 0 1-.62-.13v-.05a9.74 9.74 0 0 0-4.32-3.16 13.23 13.23 0 0 0-5.33-.84 22.64 22.64 0 0 0-5.42.88 19.8 19.8 0 0 0-2.55.92c-.41.18-.8.38-1.18.59a8.61 8.61 0 0 0-1 .64 1.52 1.52 0 0 1-1.89-2.38.71.71 0 0 1 .07-.06zM812.36 377s-9.4 2.65-14.93 6.71c-4.58 3.36-3.39 7.21 1.35 8 2.94.49 10.86-.78 16.05-2.22 16.36-4.52 18.29-9.37 17.16-12.39-1.59-4.22-12.99-2.2-19.63-.1zM871.85 380s6.79 3.59 10.48 8.17c3.06 3.79 1.71 7.45-2 7.73-2.27.17-8.24-1.66-11.86-3.87-11.76-7.16-12.71-11.14-11.5-14 1.73-4.03 10.09-.86 14.88 1.97z"/><path d="M845.6 453.37s-2.25-1.82-12.81 0" stroke="#000" stroke-width="2.72" stroke-linecap="round" stroke-linejoin="round" fill="none"/><circle class="cls-18" cx="811.52" cy="415.91" r="25.91" transform="rotate(-53.9 811.461 415.91)"/><path class="cls-18" d="M850.75 410.62c-3.41 13.89 3.27 27.47 14.92 30.33s23.85-6.1 27.25-20-3.27-27.47-14.92-30.33-23.85 6.1-27.25 20zM850.08 416.62s-5.2-4.92-12.66-.71M785.61 411.64l-14.91-10.76"/><path class="cls-1" d="M551.68 754.8s9.41-1.77 55.79-1.84c54.37-.08 51.08-119.66-1.84-130.32-88.41-17.82-114-7.56-162.08-4.49-71.43 4.55-68.68 121.16-28.77 128.94a282.92 282.92 0 0 0 71 4.27l67.06 100.71z"/><path class="cls-5" d="M466 655q-.86 4.24-1.49 8.43t-1.57 8.43q-1 4.71-2.23 9.57a40.09 40.09 0 0 0-1.22 9.73 27.75 27.75 0 0 0 1.1 7.72q1.1 3.81 1.8 7.65.87 4.23 1.42 8.39t1.25 8.39a23.71 23.71 0 0 0-2.39 0 8.37 8.37 0 0 1-2.39-.28l-1.18-.35a1 1 0 0 1-.55-.36 1.21 1.21 0 0 1-.16-.66c0-.29 0-.7-.07-1.22q-.63-4.54-1.49-9.33c-.27-1.46-.55-2.91-.87-4.35a40 40 0 0 1-.7-4.36v-1c0-.52-.07-1-.12-1.53a9.06 9.06 0 0 0-.23-1.37c-.11-.39-.24-.59-.4-.59s-.38.27-.51.79a8.34 8.34 0 0 0-.23 1.76c0 .66 0 1.31-.08 2a8.68 8.68 0 0 1-.12 1.3q-.31 2.12-.78 4.23c-.32 1.41-.58 2.83-.79 4.24a29.1 29.1 0 0 0-.55 4.82 12 12 0 0 1-1.09 4.75c-.16.31-.27.53-.32.66a.54.54 0 0 1-.23.28 1.36 1.36 0 0 1-.4.11l-.78.2a11.72 11.72 0 0 1-2.35.24c-.79 0-1.57 0-2.36.07a52.27 52.27 0 0 1 1.3-8.27q1-4.11 2-8.27t1.88-8.28a42.37 42.37 0 0 0 .82-8.35 23.75 23.75 0 0 0-.39-4.31c-.26-1.42-.55-2.82-.86-4.2s-.64-2.79-1-4.2-.62-2.82-.82-4.23q-1.26-8.55-2.75-16.86c.63 0 1.23 0 1.8-.08s1.15-.08 1.73-.08H449a2.39 2.39 0 0 1 .83.12 1 1 0 0 1 .51.51c.13.26.3.62.5 1.09a18.72 18.72 0 0 1 .75 4.32c.08 1.46.22 2.9.43 4.31q.63 3.84 1 7.65a41 41 0 0 0 1.49 7.49 3.06 3.06 0 0 1 .24.66 4.89 4.89 0 0 0 .23.75 6.54 6.54 0 0 0 .28-.75 4.3 4.3 0 0 0 .19-.66 14.51 14.51 0 0 0 .47-2.94 27.22 27.22 0 0 1 .32-2.94c.52-2.72 1.06-5.43 1.6-8.12s1-5.43 1.3-8.2c.1-.68.18-1.42.23-2.23a2 2 0 0 1 1.1-1.77 3.22 3.22 0 0 1 1.57-.43h2.78A4.76 4.76 0 0 0 466 655zM495.31 677.26a8.87 8.87 0 0 0-1.25 2.07q-.94 1.84-2 4.08t-1.92 4.32a28.54 28.54 0 0 1-1.38 2.86c-1.3 2.51-2.6 5-3.88 7.57a63.08 63.08 0 0 0-3.33 7.88c0 .26-.15.64-.28 1.14l-.39 1.49a11.1 11.1 0 0 1-.47 1.41 1.78 1.78 0 0 1-.67.9 3.87 3.87 0 0 1-.74.2 8 8 0 0 1-1.22.15l-1.25.08h-.94a1.21 1.21 0 0 1-1.1-.78 6.3 6.3 0 0 1-.55-1.81 20.15 20.15 0 0 1-.2-2.07v-1.53c0-1.89.07-3.74.23-5.57s.24-3.69.24-5.57c0-2.61-.08-5.23-.24-7.84s-.23-5.23-.23-7.85v-3.06-3a23 23 0 0 0-.19-3 22.83 22.83 0 0 1-.2-3 1.41 1.41 0 0 1 .59-1.1 6.3 6.3 0 0 1 1.41-.82 10.64 10.64 0 0 1 1.65-.55 5.94 5.94 0 0 1 1.29-.19.83.83 0 0 1 .87.74 6.73 6.73 0 0 1 .15 1.3q0 6.9-.12 13.68t-.11 13.69c0 .78 0 1.55.08 2.31a17.4 17.4 0 0 0 .31 2.32 31.2 31.2 0 0 0 2-3c.78-1.34 1.56-2.75 2.31-4.24s1.48-2.94 2.16-4.35 1.18-2.54 1.49-3.38a48.55 48.55 0 0 1 2.31-5.13c.87-1.65 1.66-3.34 2.4-5.06.15-.42.34-1 .55-1.73s.41-1.49.62-2.27a19.55 19.55 0 0 1 .71-2.16 3.47 3.47 0 0 1 .86-1.37 4.08 4.08 0 0 1 1.49-.82 5.76 5.76 0 0 1 1.81-.28 1.82 1.82 0 0 1 1.64.71 3.13 3.13 0 0 1 .47 1.8 14.5 14.5 0 0 1-.27 2.79 13.91 13.91 0 0 0-.28 2.7q0 8.24.24 16.35t.24 16.36c0 1.25 0 2.49-.08 3.72s-.13 2.47-.24 3.73a13.48 13.48 0 0 1-.27 1.45 1 1 0 0 1-.36.59 1.39 1.39 0 0 1-.74.15c-.34 0-.8 0-1.37.08a4.85 4.85 0 0 0-.83.08 5.29 5.29 0 0 1-.9.08.87.87 0 0 1-.82-.51 3.49 3.49 0 0 1-.39-1.18 10.05 10.05 0 0 1-.16-1.33v-1.06q0-8.07.74-16t.75-16a2.27 2.27 0 0 0-.24-1.17zM514.14 692.16a8.26 8.26 0 0 0-1.22.39 3.37 3.37 0 0 1-1.29.24 2.79 2.79 0 0 1-.51-.08c-.24-.05-.41 0-.51.08a2.18 2.18 0 0 1-.28-1 16 16 0 0 1-.15-1.81c0-.65-.06-1.28-.08-1.88s0-1 0-1.14a6.9 6.9 0 0 1 .08-1.49c.05-.16.36-.34.94-.55a6.14 6.14 0 0 1 2-.31 10.27 10.27 0 0 1 2 .19 9.49 9.49 0 0 0 2 .2q5.18 0 10.23-.16l10.16-.31V688c0 .71 0 1.36-.08 2a4 4 0 0 1-.23 1.22 2.45 2.45 0 0 1-.87.15c-1 0-2 0-3-.11s-2.05-.12-3.09-.12c-.84 0-2 0-3.53.08s-3.09.11-4.71.19-3.15.17-4.59.28a15.12 15.12 0 0 0-3.27.47zM560.17 719.57a1.73 1.73 0 0 1-1-.2 1.17 1.17 0 0 1-.44-.9c0-.44-.07-1.16-.07-2.16s0-2 .11-2.94.12-1.94.12-2.94c0-.63-.07-1.85-.2-3.68s-.34-3.72-.62-5.65a31.78 31.78 0 0 0-1.18-5.18c-.5-1.51-1.08-2.27-1.76-2.27q-1.26 0-2 2.16a22.6 22.6 0 0 0-1.14 4.94c-.24 1.85-.39 3.66-.47 5.41s-.12 3-.12 3.64V715.02a17.47 17.47 0 0 1-.35 2.86c-.19.84-.51 1.26-1 1.26h-2.59c-.84 0-1.67 0-2.51.08q.07-5.1.47-10a82.29 82.29 0 0 1 1.41-10c.11-.63.24-1.27.4-1.92s.33-1.3.54-1.93c.11-.26.25-.58.44-1s.37-.81.58-1.25.4-.86.55-1.26a2.61 2.61 0 0 0 .24-.82 3.23 3.23 0 0 0-.36-1.25 18 18 0 0 0-.82-1.65l-.94-1.73a6.89 6.89 0 0 1-.63-1.49 51.08 51.08 0 0 1-2.11-12.47q-.31-6.51-.32-12.7c0-.68.29-1 .86-1a2.6 2.6 0 0 1 .95.23 2.31 2.31 0 0 1 1-.23h1.09a5.13 5.13 0 0 1 1.89.31q.78.32.78 1.65v3.25c0 1.54.08 3.3.16 5.26s.19 4 .35 6.08.38 4 .67 5.72a23.06 23.06 0 0 0 1.05 4.28c.42 1.12.95 1.68 1.57 1.68s1.17-.47 1.61-1.41a15.85 15.85 0 0 0 1.1-3.61c.29-1.46.52-3.07.7-4.82s.32-3.45.4-5.1.14-3.11.19-4.39.08-2.21.08-2.79a9.94 9.94 0 0 0-.12-1.49 10.23 10.23 0 0 1-.11-1.56 3.79 3.79 0 0 1 .54-2.28 2.7 2.7 0 0 1 2.2-.7h.82l1.26.12a4.75 4.75 0 0 1 1.14.28c.31.13.47.3.47.51a1.6 1.6 0 0 1-.16.7 1.34 1.34 0 0 0-.16.63.5.5 0 0 0 .32.47q-.09 4.63-.43 9.25a85.39 85.39 0 0 1-1.22 9.18 15.17 15.17 0 0 1-.51 2.12c-.29 1-.59 2-.9 3s-.59 2-.83 2.78a10.34 10.34 0 0 0-.35 1.49 4.32 4.32 0 0 0 .63 2.24 18.28 18.28 0 0 1 1.1 2.16 34 34 0 0 1 1.21 4.5q.59 2.79 1 5.77c.26 2 .47 3.93.63 5.84s.24 3.52.24 4.83v1.13a11.45 11.45 0 0 1-.12 1.65 4.74 4.74 0 0 1-.5 1.52 1 1 0 0 1-.87.63 6.8 6.8 0 0 1-1-.08 6.69 6.69 0 0 0-1-.08zM595.62 677.26a8.87 8.87 0 0 0-1.25 2.07q-.95 1.84-2 4.08t-1.92 4.32a28.54 28.54 0 0 1-1.38 2.86c-1.3 2.51-2.6 5-3.88 7.57a63.08 63.08 0 0 0-3.29 7.84c0 .26-.15.64-.28 1.14l-.39 1.49a11.1 11.1 0 0 1-.47 1.41 1.78 1.78 0 0 1-.67.9 3.87 3.87 0 0 1-.74.2 8 8 0 0 1-1.22.15l-1.25.08h-.94a1.21 1.21 0 0 1-1.1-.78 6 6 0 0 1-.55-1.81 20.15 20.15 0 0 1-.2-2.07v-1.53c0-1.89.07-3.74.23-5.57s.24-3.69.24-5.57c0-2.61-.08-5.23-.24-7.84s-.23-5.23-.23-7.85v-3.06-3a23 23 0 0 0-.19-3 22.83 22.83 0 0 1-.2-3 1.41 1.41 0 0 1 .59-1.1 6.3 6.3 0 0 1 1.41-.82 10.64 10.64 0 0 1 1.65-.55 5.94 5.94 0 0 1 1.29-.19.83.83 0 0 1 .87.74 6.73 6.73 0 0 1 .15 1.3q0 6.9-.12 13.68t-.11 13.69c0 .78 0 1.55.08 2.31a17.4 17.4 0 0 0 .31 2.32 31.2 31.2 0 0 0 2-3c.78-1.34 1.56-2.75 2.31-4.24s1.48-2.94 2.16-4.35 1.18-2.54 1.49-3.38a48.55 48.55 0 0 1 2.31-5.13c.87-1.65 1.66-3.34 2.4-5.06.15-.42.34-1 .55-1.73s.41-1.49.62-2.27a19.55 19.55 0 0 1 .71-2.16 3.47 3.47 0 0 1 .86-1.37 4.08 4.08 0 0 1 1.49-.82 5.76 5.76 0 0 1 1.81-.28 1.82 1.82 0 0 1 1.64.71 3.13 3.13 0 0 1 .47 1.8 14.5 14.5 0 0 1-.27 2.79 13.17 13.17 0 0 0-.28 2.7q0 8.24.24 16.35t.23 16.36c0 1.25 0 2.49-.07 3.72s-.13 2.47-.24 3.73c-.1.68-.2 1.16-.27 1.45a1 1 0 0 1-.36.59 1.39 1.39 0 0 1-.74.15c-.34 0-.8 0-1.37.08a4.85 4.85 0 0 0-.83.08 5.29 5.29 0 0 1-.9.08.87.87 0 0 1-.82-.51 3.73 3.73 0 0 1-.4-1.18 12 12 0 0 1-.15-1.33v-1.06q0-8.07.74-16t.75-16a2.27 2.27 0 0 0-.28-1.13z"/></svg>