<svg id="Layer_1" data-name="Layer 1" xmlns="http://www.w3.org/2000/svg" viewBox="0 0 2567.11 1021.3"><defs><style>.cls-16,.cls-19{fill:none}.cls-2{fill:#fff}.cls-5{opacity:.44}.cls-6{fill:#ff728f}.cls-7{fill:#300e2e}.cls-8{fill:#ffbd5c}.cls-9{fill:#f0a49c}.cls-10{fill:#f79f2b}.cls-13{fill:#c36252}.cls-15{fill:#e58e88}.cls-16,.cls-19{stroke:#ca5e34;stroke-linecap:round;stroke-linejoin:round}.cls-16{stroke-width:3.12px}.cls-19{stroke-width:2.99px}</style><clipPath id="clip-path"><path d="M1456.84 32.27c-35.5.4-209.5-6.3-249.2-1.3-69.5 8.7-123 31.9-173.5 56.7-63.4 31.1-120.6 67.3-174.6 105.8-69.8 49.8-134.4 103.4-185.5 167.2-44.9 56-41.2 122.2-33.3 213.7 4.5 51.7-7.9 106 34.9 184.6 180.8 332.3 1316.9 353.5 1211.7-374.6-54.6-377.9-377.8-352.6-430.5-352.1z" fill="none"/></clipPath><clipPath id="clip-path-2"><path class="cls-2" d="M1287.25 358.54s-14.4-23.58-45.12-5c0 .03 15.52 22.03 45.12 5z"/></clipPath><clipPath id="clip-path-3"><path class="cls-2" d="M1318.51 358.26s13.67-20.61 28.65-4c0-.01-13.39 21.22-28.65 4z"/></clipPath></defs><path d="M1456.84 32.27c-35.5.4-209.5-6.3-249.2-1.3-69.5 8.7-123 31.9-173.5 56.7-63.4 31.1-120.6 67.3-174.6 105.8-69.8 49.8-134.4 103.4-185.5 167.2-44.9 56-41.2 122.2-33.3 213.7 4.5 51.7-7.9 106 34.9 184.6 180.8 332.3 1316.9 353.5 1211.7-374.6-54.6-377.9-377.8-352.6-430.5-352.1z" fill="#c4e5e5"/><g clip-path="url(#clip-path)"><g class="cls-5"><path class="cls-2" d="M1147.65 832.18C1134.54 803 1100 740 1061.38 691.33c-2.59-5.87-8.89-17.8-19.49-41.3-11.31-25-12.69-30.43-20.55-42.56-8.05-12.4-10.37-12.57-21.05-28.13-10.5-15.28-16-26.38-19-31.51-.09-.54-.18-1.06-.26-1.56a2.22 2.22 0 0 0-2.32-1.7c-.06 0-.24-.09-.27-.05l.07.07a1.93 1.93 0 0 0-1.62 2.23c.36 2.11.75 4.7 1.17 7.57 1.16 8 2.6 17.93 5.11 26.35 4.18 14 10.5 35.22 24.16 59.78 6.93 12.46 14.79 26.58 29.77 41.31 6.44 6.32 23.32 17.72 24 16.84 36.83 47.66 69.44 107.2 82.05 135.24 11.42 25.41 30.55 67.94 39.69 127.5.56 3.63 1.06 7.28 1.52 10.92h4.9c-.48-3.84-1-7.69-1.6-11.52-9.21-60.13-28.49-103.01-40.01-128.63z"/><path class="cls-2" d="M1094.47 571.2a2.08 2.08 0 0 0-3 .83c-8 .77-13.24 43.13-6.5 80.58 2.17 12 3.92 14.42 6.62 31.1 4.83 29.83 4.08 52.24 5.76 52.29a10.25 10.25 0 0 1 2.4-.37 2 2 0 0 0 2.32-1.63 276.36 276.36 0 0 1 8.3-37.64c.19-.65.4-1.32.62-2 1.31-4.32 3.11-10.24 4.91-18.39a161.8 161.8 0 0 0 3.76-22.39c1-13.36-1.36-23.17-5-38-2.19-9.29-9.92-38.06-20.19-44.38zM1230.79 748.64c-20.94 12.69-40.12 24.31-54.27 46.5-16.84 26.43-17.43 53.54-16.07 53.92.37.1.87-1.75 1.9-4.91-.53 2-1 4.05-1.38 6.13a2 2 0 0 0 1.72 2.27 2 2 0 0 0 2.35-1.58 70.86 70.86 0 0 1 12.28-29c5.49-7.54 11.61-12.61 18.1-18a167.85 167.85 0 0 1 19.74-14l3.52-2.22a232.44 232.44 0 0 0 35.43-28.1 1.88 1.88 0 0 0-.07-2.77 2.17 2.17 0 0 0-1.15-.53c6.4-5.58 27.29-24.21 24.48-27.8s-29.17 9.55-46.58 20.09zM1192.68 801c-5.33 4.42-10.43 8.65-15.21 14.21 1-1.23 2-2.46 3.07-3.7 1.31-1.49 3.51-3.89 13.42-11.55zm23.67-16.48c-1.14.73-2.3 1.46-3.49 2.2-3.23 2-6.72 4.22-10.62 7l3.58-2.66c19.63-14.48 27.79-19.46 36.15-25.75a220.22 220.22 0 0 1-25.62 19.2zM1289.24 801.54c-3.42-1.39-8.12 11.21-25.94 30.17-21.11 22.45-43.4 35.5-59 56.06-3.19 4.2-6.47 9.21-7.35 10.56-9 13.78-14.38 22.11-12.45 24.07 3.8 3.84 35.71-17.28 60.35-38.2 25.28-21.48 32.35-33.78 35-38.71 10.26-19.42 13.81-42.16 9.39-43.95zM1303.17 944.76c-7.94 1.92-14.21 2.48-26.42 3.53-28.71 2.47-30.49.18-44.84 2.55-20.31 3.34-36.74 11.22-36.18 13.17.47 1.6 12-2 30.2-.48 15.75 1.3 16.81 4.8 29.83 6.27 24.16 2.71 43.57-6.76 50-10.3 15.39-8.44 26.25-21.1 24.62-23.21-1.29-1.69-9.93 4.31-27.21 8.47zM1123.17 896.62c-12.05-5.33-17.71-3.6-47.32-14.53-20.92-7.73-30.29-13.1-31.4-11.49-1.9 2.74 21.42 24.14 51 39.93 12.91 6.9 20.29 9.14 35.42 19a193.22 193.22 0 0 1 26.13 20.2c13 12.15 16.78 19.4 17.75 18.87 2.48-1.36-11.5-54.27-51.58-71.98zM1085.23 954.29c-1.06.71 2 7.66 8.39 18.06h11.71c-13.58-11.44-18.93-18.83-20.1-18.06zM1072.13 741.09c-26-16-36.44-15.26-61.47-28.63-28-15-42.31-30.55-44.3-28.65s9.58 16 20.65 27a177 177 0 0 0 19.28 16.49 2.06 2.06 0 0 0-2.32.56 1.85 1.85 0 0 0 .28 2.73 205.07 205.07 0 0 0 23.46 15.41c12.5 7.06 29.61 16.72 53.38 19.94 3.36.46 6.75.77 10.14.94q4 .21 8.06.13a2 2 0 0 0 2-2c-.04-1.09-23.78-20.6-29.16-23.92zM1116.72 822.33c-8.17-6.54-18.9-11.05-40.36-20.07-14.7-6.18-17.5-6.47-26.23-11.29-16-8.83-26.84-11.8-26.22-10.88a154 154 0 0 0 26.29 29.84c15.64 13.65 32.15 22.47 38.36 25.8l3.32 1.75c5.25 2.77 14 7.4 25.7 14.11 4.44 2.55 6.67 3.84 8.09 4.73a92.39 92.39 0 0 1 25.92 25.42 2.16 2.16 0 0 0 2.84.61 1.86 1.86 0 0 0 .92-2c.27.23.47.32.6.25 1.23-.69-6-15.3-15.71-29.72-9.01-13.45-14.09-21-23.52-28.55zM1196.37 637.63a2.09 2.09 0 0 0-1.93.71 2.2 2.2 0 0 0-1.11-1.32c-6.64-2.88-39.18 37.33-52.59 86.26-8.11 29.57-7.85 57.27-7 62.53-.14.77-.28 1.54-.4 2.31a2 2 0 0 0 1.77 2.24 2 2 0 0 0 2.32-1.62 87.12 87.12 0 0 1 10.12-29.28 84.7 84.7 0 0 1 6.64-9.85c2.2-3 4.7-6.3 8.15-11.64a264.3 264.3 0 0 0 14.2-25.76c12.66-26.33 19.1-58.06 21.53-72.32a2 2 0 0 0-1.7-2.26z"/></g><g class="cls-5"><path class="cls-2" d="M810.78 839.94c-5.46-3.37-17.41-9.63-39.46-23-23.51-14.24-27.7-17.89-41.05-23.42-13.66-5.66-15.66-4.49-33.28-11.25l-.52-.21v21.09a257.31 257.31 0 0 0 41 25.55c12.77 6.34 27.25 13.53 47.94 17.17 8.88 1.56 29.25 1.39 29.29.3 57.36 18.41 117.95 49 144.23 65 19.64 11.93 50.19 30.5 83.45 61.25h7.09c-35-33.11-67.31-52.76-87.83-65.22-27.3-16.67-91.48-48.97-150.86-67.26z"/><path class="cls-2" d="M854 816.31c-.2-.64-.42-1.31-.64-2-1.37-4.3-3.24-10.2-6.37-17.94a162.85 162.85 0 0 0-9.58-20.58c-6.73-11.59-14.26-18.32-25.65-28.51-7.06-6.36-29.76-25.69-41.76-25.08a2.1 2.1 0 0 0-2 2.37c-6.18 5.19 13.53 43 40.31 70.08 8.61 8.7 11.4 9.66 23.08 21.88 20.87 21.84 32.95 40.74 34.36 39.82.23-.14 1-1.31 1.77-1.67a2 2 0 0 0 1-2.66A275 275 0 0 1 854 816.31zM1009.86 748.22c-4.42-1.4-18.64 24.41-27 43-10.07 22.32-19.29 42.77-18.38 69.06 1.1 31.32 16 54 17.31 53.54.35-.13-.28-1.94-1.22-5.13q1.05 2.94 2.34 5.85a2 2 0 0 0 2.7.88 2 2 0 0 0 1-2.63 70.79 70.79 0 0 1-6.32-30.89c.25-9.31 2.42-17 4.72-25.06a167.1 167.1 0 0 1 8.36-22.69c.56-1.3 1.11-2.57 1.64-3.82a231.91 231.91 0 0 0 13.34-43.33 1.87 1.87 0 0 0-1.62-2.24 2.13 2.13 0 0 0-1.25.22c2.07-8.2 8.73-35.39 4.38-36.76zm-28.75 107.69c-1.9 6.66-3.7 13-4.49 20.33.1-1.56.24-3.16.43-4.79.23-2 .69-5.2 4.52-17.13-.16.53-.31 1.05-.46 1.59zm10.16-27c-.53 1.25-1.07 2.5-1.63 3.79-1.51 3.5-3.15 7.28-4.8 11.76.45-1.34.93-2.74 1.44-4.22 8-23 11.87-31.78 15.2-41.7a220.9 220.9 0 0 1-10.21 30.38zM1061 801.65c-3.6.8-.34 13.85-4.28 39.56-4.68 30.46-15.65 53.85-16.85 79.62-.25 5.27-.11 11.25-.07 12.86.42 16.44.68 26.37 3.38 26.89 5.31 1 19.64-34.47 28.08-65.67 8.67-32 7.52-46.17 6.88-51.7-2.55-21.84-12.51-42.59-17.14-41.56zM1128.72 959.27c21.44-11.45 32.08-30.26 35.38-36.83 7.91-15.68 9.68-32.25 7.14-33.07-2-.65-5.76 9.19-17.64 22.41-5.46 6.07-10.3 10.09-19.76 17.87-22.26 18.3-25 17.43-35.51 27.51a129.9 129.9 0 0 0-13.51 15.19h13.48c.74-.45 1.5-.9 2.29-1.35 13.71-7.85 16.57-5.56 28.13-11.73zM1182.24 936c-3.23-.38-4.81 15.13-16.34 36.38h17.55c2.33-15.76 2.45-35.98-1.21-36.38zM885.41 878c-.65-.85-31.26-3.48-37.58-3.17-30.52 1.53-38.67 8.07-66.87 11.23-31.56 3.54-52.17-1.2-52.74 1.5-.52 2.49 17 7.75 32.29 10.51a176.94 176.94 0 0 0 25.23 2.66 2.06 2.06 0 0 0-1.6 1.78 1.85 1.85 0 0 0 1.78 2.09 205.93 205.93 0 0 0 28.08-.5c14.3-1.27 33.87-3 55.29-13.81 3-1.53 6-3.19 8.88-5 2.29-1.42 4.54-2.9 6.72-4.46a2 2 0 0 0 .52-2.81zM966.19 926.71c-15.08-6-23.54-9.3-35.59-10.18-10.43-.76-21.83 1.6-44.62 6.33-15.62 3.24-18.09 4.59-28 5.56-18.18 1.78-28.8 5.48-27.77 5.88a153.61 153.61 0 0 0 38.58 9.7c20.61 2.38 39.22.31 46.22-.48 1-.11 2.28-.26 3.72-.43 5.9-.7 15.78-1.86 29.18-2.94 5.1-.41 7.67-.62 9.34-.68 11.46-.43 23.48 1.68 35.76 6.26a2.17 2.17 0 0 0 2.69-1.11 1.88 1.88 0 0 0-.36-2.15c.36 0 .58 0 .64-.12.62-1.35-13.62-9.25-29.79-15.64zM920.4 847.23a84.85 84.85 0 0 1-.11-11.88c.14-3.68.31-7.85.12-14.2a260.65 260.65 0 0 0-2.89-29.28c-4.52-28.87-17.16-58.66-23.23-71.79a2 2 0 0 0-2.7-.87 2.09 2.09 0 0 0-1.2 1.67 2.22 2.22 0 0 0-1.65-.46c-7.1 1.39-11.14 53 5.53 100.88 10.07 29 26 51.64 29.69 55.47.32.72.64 1.43 1 2.14a2 2 0 0 0 2.72.83 2 2 0 0 0 1-2.65 87.38 87.38 0 0 1-8.28-29.86z"/></g><g class="cls-5"><path class="cls-2" d="M1861.49 761.33c-13 6.28-17 10.17-39.65 25.72-21.25 14.59-32.83 21.52-38.09 25.2-58.25 21.63-120.48 57.53-146.83 75.66-22.33 15.37-59.2 40.75-96.9 84.44h6.44c36.4-41.4 71.76-65.74 93.39-80.63 25.33-17.43 84.09-51.41 140.31-73.05.1 1.1 20.45.11 29.23-2 20.45-4.81 34.49-12.81 46.88-19.86a247.67 247.67 0 0 0 21.76-14v-28.14a129.55 129.55 0 0 0-16.54 6.66z"/><path class="cls-2" d="M1819.93 694.66a2.08 2.08 0 0 0-2.09-2.25c-12.07.07-33.6 20.66-40.32 27.39-10.8 10.83-17.93 18-24 29.93a162.63 162.63 0 0 0-8.41 21.09c-2.68 7.91-4.21 13.9-5.33 18.27-.19.72-.36 1.41-.53 2.06a274.71 274.71 0 0 1-12.43 36.48 2 2 0 0 0 1.14 2.6 10.55 10.55 0 0 1 1.86 1.56c1.46.84 12.45-18.71 32.05-41.71 11-12.86 13.69-14 21.79-23.15 25.21-28.53 42.74-67.44 36.27-72.27zM1609.19 773.35c-9.41-18.05-25.08-43-29.42-41.35s3.93 28.38 6.51 36.47a2.16 2.16 0 0 0-1.26-.15 1.87 1.87 0 0 0-1.49 2.33 231.14 231.14 0 0 0 15.71 42.41c.6 1.23 1.22 2.46 1.85 3.72a168.79 168.79 0 0 1 9.64 22.18c2.75 8 5.36 15.47 6.14 24.76a70.94 70.94 0 0 1-4.56 31.19 2 2 0 0 0 1.19 2.57 2 2 0 0 0 2.65-1q1.13-3 2-6c-.76 3.23-1.29 5.07-.92 5.18 1.35.39 14.92-23.1 14.23-54.43-.58-26.23-10.95-46.16-22.27-67.88zm-4.43 41.85c-.63-1.25-1.24-2.47-1.83-3.69a221.18 221.18 0 0 1-11.93-29.74c3.89 9.72 8.29 18.2 17.55 40.76l1.68 4.14c-1.91-4.38-3.75-8.06-5.47-11.47zm9.85 22.68l-.55-1.56c4.5 11.69 5.13 14.89 5.48 16.84.28 1.62.51 3.2.7 4.76-1.24-7.24-3.37-13.5-5.63-20.04zM1559.65 906c-2.66-25.66-15-48.39-21.35-78.53-5.4-25.45-2.88-38.66-6.53-39.25-4.7-.76-13.46 20.52-14.74 42.46-.33 5.57-.67 19.75 9.81 51.23 10.2 30.67 26.52 65.28 31.77 64 2.67-.67 2.36-10.61 1.84-27-.05-1.65-.25-7.63-.8-12.91zM1503.34 945.63c-11-9.47-13.76-8.44-37-25.44-9.89-7.23-15-11-20.75-16.72-12.62-12.53-16.89-22.14-18.89-21.37-2.49 1 .23 17.41 9 32.61 3.68 6.37 15.36 24.54 37.42 34.75 11.89 5.51 14.61 3.06 28.76 10.12a121.8 121.8 0 0 1 20.12 12.77h4.57c-2.9-5.47-11.46-16.62-23.23-26.72zM1418.36 929.25c-3.65.64-2.36 21 .88 36.56.45 2.14.9 4.32 1.41 6.54h21.2c-.56-.79-1.13-1.59-1.71-2.45-15.73-23.14-18.32-41.26-21.78-40.65zM1624.42 955.69c-23.55-3.06-45.91 6.69-61.23 16.66h136.54c-5.27-.9-14.34-2-27.32-4.54-30.98-6-34.92-10.42-47.99-12.12zM1816.15 856.62c-28.34-1.56-36.85-7.63-67.4-7.41-6.33 0-36.74 4.41-37.35 5.3a2 2 0 0 0 .68 2.77c2.27 1.44 4.59 2.79 7 4.07q4.48 2.43 9.16 4.46c22 9.57 41.63 10.2 56 10.65a208.3 208.3 0 0 0 28.11-1 1.85 1.85 0 0 0 1.65-2.19 2.1 2.1 0 0 0-1.7-1.69 175.89 175.89 0 0 0 25-4.09c15.15-3.63 32.3-9.87 31.63-12.33-.76-2.71-21.08 3.19-52.78 1.46zM1741.68 903.27c-10-.41-12.51-1.61-28.29-4-23-3.42-34.54-5.13-44.91-3.78-12 1.56-20.24 5.38-35 12.19-15.78 7.3-29.54 16-28.85 17.26.07.13.29.15.64.09a1.88 1.88 0 0 0-.23 2.16 2.16 2.16 0 0 0 2.75 1 92.22 92.22 0 0 1 35.41-8.19c1.67 0 4.24 0 9.36.14 13.44.31 23.37.92 29.3 1.28l3.74.22c7 .38 25.73 1.4 46.18-2.15a153.91 153.91 0 0 0 38-11.88c.96-.51-9.85-3.61-28.1-4.34zM1699.16 697.37a2.26 2.26 0 0 0-1.63.55 2.07 2.07 0 0 0-1.29-1.6 2 2 0 0 0-2.64 1c-5.32 13.45-16.27 43.92-19.12 73a265.21 265.21 0 0 0-1.22 29.39c.18 6.35.58 10.51.94 14.18a85.47 85.47 0 0 1 .56 11.86 87.2 87.2 0 0 1-6.54 30.28 2 2 0 0 0 1.14 2.59 2 2 0 0 0 2.67-1c.3-.73.58-1.46.85-2.19 3.48-4 18.09-27.58 26.5-57.07 13.91-48.74 6.95-100-.22-100.99z"/></g><g class="cls-5"><path class="cls-2" d="M1347.57 971.27c2.11-8.75 4.55-17.62 7.25-26.35 17.79-57.57 43-96.83 58-120.29 16.6-25.88 57.6-80 101-121.71.51 1 18.89-7.83 26.18-13.14 17-12.36 26.83-25.17 35.52-36.48 17.12-22.28 26.49-42.32 32.68-55.58 3.72-8 6.61-17.58 8.93-25.31.84-2.78 1.6-5.29 2.27-7.32a1.91 1.91 0 0 0-1.28-2.44l.08-.06h-.27a2.23 2.23 0 0 0-2.55 1.35c-.15.47-.32 1-.48 1.49-3.71 4.64-10.77 14.81-23.4 28.39-12.85 13.82-15.17 13.64-25 24.73-9.56 10.83-11.72 16-26.58 39.08-13.94 21.68-21.93 32.56-25.35 38-45.32 42.52-88.78 99.73-106 126.65-15.16 23.64-40.53 63.22-58.5 121.37a436.97 436.97 0 0 0-7.32 26.61c-.17.71-.34 1.42-.5 2.12h5c.15-.38.24-.75.32-1.11z"/><path class="cls-2" d="M1502.46 573.18a2.1 2.1 0 0 0-2.81-1.26c-11.09 4.75-23 32.07-26.55 40.88-5.76 14.16-9.56 23.51-10.51 36.88a162.9 162.9 0 0 0 .42 22.7c.6 8.33 1.5 14.44 2.17 18.91.11.73.21 1.43.31 2.1a276.09 276.09 0 0 1 2.68 38.45 2 2 0 0 0 2.05 2 10.38 10.38 0 0 1 2.32.72c1.67.2 4.22-22.08 13.38-50.87 5.12-16.11 7.2-18.19 11.12-29.79 12.17-36.11 13.26-78.77 5.42-80.72zM1338.68 727.39c-15.67-13-39.78-29.92-43.14-26.72s14.62 24.64 20.13 31.1a2.09 2.09 0 0 0-1.22.35 1.86 1.86 0 0 0-.47 2.72 231.87 231.87 0 0 0 30.91 33l3.16 2.71a168.73 168.73 0 0 1 17.47 16.72c5.62 6.26 10.93 12.18 15.26 20.44a70.82 70.82 0 0 1 7.88 30.52 2 2 0 0 0 2.1 1.91 2 2 0 0 0 2-2c-.08-2.12-.23-4.21-.47-6.27.56 3.28.78 5.18 1.16 5.13 1.4-.16 4.8-27.07-8-55.69-10.65-23.97-27.92-38.31-46.77-53.92zm12.14 40.3c-1.06-.91-2.1-1.8-3.12-2.69a221.78 221.78 0 0 1-22.52-22.8c7.34 7.45 14.69 13.57 32 30.78l3.16 3.16c-3.49-3.3-6.62-5.97-9.52-8.45zm17.86 17.09l-1.11-1.23c8.68 9 10.51 11.74 11.58 13.41q1.33 2.07 2.49 4.11c-3.91-6.21-8.33-11.14-12.96-16.29zM1344.43 868.9c-12.4-22.62-32.53-38.81-50.11-64.12-14.84-21.37-17.64-34.52-21.23-33.65-4.63 1.12-4.46 24.13 2.86 44.86 1.86 5.25 7 18.46 28.89 43.42 21.3 24.32 49.76 49.9 54.08 46.66 2.2-1.65-1.93-10.69-8.78-25.64-.67-1.43-3.14-6.9-5.71-11.53zM1307.86 927.23c-13.85-4.45-15.95-2.45-44-9.11-11.92-2.84-18-4.31-25.62-7.37-16.47-6.66-24.14-13.86-25.68-12.38-1.93 1.85 7 16 20.94 26.57 5.86 4.45 23.67 16.67 48 17.54 13.1.46 14.66-2.85 30.43-1.82 18.19 1.18 29.1 6.43 29.8 4.92.82-1.85-14.28-12.06-33.87-18.35zM1223.17 945.06c-2.65 1.7 3.55 15.21 11 27.29h22.2c-21.53-14.66-30.37-29.12-33.2-27.29zM1472.32 882.16c-30.89 6.47-36.23 3.92-48.94 7.42-42.24 11.63-63.85 61.9-61.59 63.62.89.67 5.65-6 20.34-16.06A193.69 193.69 0 0 1 1411 921c16.42-7.54 24-8.67 37.83-13.6 31.55-11.28 57.76-29 56.29-32-.91-1.74-10.96 2.19-32.8 6.76zM1452.44 952.2c-1.16-1-8.77 7-27.44 17.85-1.42.83-2.77 1.59-4.07 2.3h17.53c9.83-11.22 15.04-19.19 13.98-20.15zM1561.74 724c-26.73 9.55-36.93 7.25-65 19.29-5.82 2.49-32.16 18.31-32.37 19.36a2 2 0 0 0 1.7 2.29q4 .66 8 1.06c3.38.33 6.78.52 10.16.56 24 .3 42.34-6.74 55.74-11.88a206.72 206.72 0 0 0 25.51-11.85 1.85 1.85 0 0 0 .68-2.66 2.08 2.08 0 0 0-2.22-.91 175.1 175.1 0 0 0 21.5-13.47c12.56-9.21 25.95-21.61 24.39-23.63s-18.19 11.11-48.09 21.84zM1511.16 795.81c-9.34 3.49-12.15 3.37-27.61 7.32-22.55 5.77-33.83 8.65-42.87 13.92-10.44 6.08-16.56 12.8-27.5 24.78-11.71 12.84-21 26.23-19.91 27.09.12.09.33 0 .63-.16a1.88 1.88 0 0 0 .62 2.08 2.16 2.16 0 0 0 2.9-.18 92.39 92.39 0 0 1 29.38-21.34c1.53-.67 3.92-1.62 8.69-3.49 12.51-4.92 21.9-8.21 27.5-10.18l3.54-1.24c6.63-2.38 24.26-8.68 41.73-19.88a153.66 153.66 0 0 0 30.39-25.66c.79-.79-10.38.56-27.49 6.94zM1431.53 715.53c-6.08-50.36-32.36-94.92-39.35-93a2.23 2.23 0 0 0-1.29 1.14 2.09 2.09 0 0 0-1.81-1 2 2 0 0 0-2 2c.31 14.46 2 46.79 10.67 74.7a260.42 260.42 0 0 0 10.26 27.56c2.63 5.79 4.61 9.47 6.36 12.71a85.83 85.83 0 0 1 5.11 10.72 87.39 87.39 0 0 1 5.71 30.45 2 2 0 0 0 2.05 2 2 2 0 0 0 2.08-2c0-.79 0-1.57-.07-2.34 1.62-5.13 5.95-32.47 2.28-62.94z"/></g><path class="cls-6" d="M1083.47 93.12a28 28 0 0 0-8.5-2.25 38.52 38.52 0 0 0-4-.21h-1.39c-.93 0-1.86.1-2.81.2q-.71.08-1.41.18a45.06 45.06 0 0 0-19.24 7.52l-1.23.89a39 39 0 0 0-3.47 3c-.47.45-.92.92-1.37 1.39l-.32.35c-.36.4-.72.81-1.07 1.23l-.21.24c-10 12.09-12.56 30.32-6.68 48.25-17-11.73-37.16-13.86-52.09-5.34-14.11 8.05-22.32 25-20.88 37.72 3.94 34.54 49.45 51.88 112.15 51.29 3.55 0 7.17-.13 10.83-.28h.51c1.72-.07 3.44-.15 5.17-.25l.81-.05c1.75-.1 3.51-.21 5.28-.34 26.9-65.36 29.16-125.6-10.08-143.54zM1000.39 284.74a17.8 17.8 0 0 0-5.47.86 22.4 22.4 0 0 0-2.39.9l-.79.37c-.53.25-1 .53-1.57.83-.26.14-.52.3-.77.46a28.18 28.18 0 0 0-9.2 9.2l-.48.83a21.91 21.91 0 0 0-1.25 2.58c-.16.38-.31.76-.44 1.15a2.31 2.31 0 0 0-.1.28c-.11.32-.21.65-.31 1l-.06.19c-2.7 9.5.43 20.67 8.35 29.52-12.75-2.47-24.93 1.4-31.39 10.1-6.1 8.21-6.55 20.08-2.5 27 11 18.93 41.64 17.42 77.65 1.22q3.06-1.38 6.18-2.9l.29-.15c1-.47 1.94-1 2.91-1.45l.46-.23 3-1.53c-1.01-44.49-14.95-79.8-42.12-80.23zM1243.5 157.68a16.53 16.53 0 0 0-1.59-1.25l-.57-.39c-.39-.25-.79-.49-1.21-.71-.2-.12-.41-.23-.63-.34a22.51 22.51 0 0 0-10-2.44h-.76a17.26 17.26 0 0 0-2.26.21q-.48.08-1 .18h-.23l-.79.19h-.15c-7.54 2.08-13.81 8.78-16.54 17.78-3.57-9.64-11.2-16.29-19.73-17.09-8.07-.75-16.28 3.83-19.33 9.42-8.28 15.23 5.34 35.34 31.1 53q2.19 1.5 4.5 3l.21.13 2.19 1.38.34.21c.74.46 1.49.92 2.25 1.37 29.7-18.95 47.86-42.9 37-61.45a13.42 13.42 0 0 0-2.8-3.2zM1566.5 346.51a23.76 23.76 0 0 0-1.28-2.21c-.15-.24-.32-.48-.48-.72-.34-.48-.7-1-1.07-1.42l-.58-.69a28.38 28.38 0 0 0-10.55-7.6l-.9-.35a23 23 0 0 0-2.75-.82c-.4-.1-.8-.18-1.2-.25l-.29-.05-1-.15h-.2c-9.81-1.15-20.33 3.72-27.81 13 .4-13-5.36-24.39-15-29.38-9.08-4.71-20.87-3.25-27.09 1.85-16.92 13.89-10.54 43.89 11.21 76.85q1.86 2.81 3.85 5.64l.19.27c.62.88 1.25 1.76 1.9 2.64l.3.41c.65.89 1.31 1.79 2 2.68 43.76-8.08 76.4-27.48 72.47-54.37a17.54 17.54 0 0 0-1.72-5.33z"/><path class="cls-7" d="M1415.37 468.06c-35.58-44.14-28.7-71-35.78-114.12-25.64-156.32-114.77-108-114.77-108s-19.59 357.9 21.71 366 61.89-42.57 85.6-51.42a29.06 29.06 0 0 1 8.31-1.72 267 267 0 0 0-6.18-40.4s11.14 12.64 11.13 40.42c19 1.67 35.67 18.89 35.67 18.89s25.19-71.34-5.69-109.65z"/><path class="cls-7" d="M1282 242.25s-98.71-60.39-113.59 128.44c0 0-8.58 60.25-36.87 102.3s-5.81 87.84-5.81 87.84 6.82-14.15 22.54-16.25c.67-14.09 3.52-37.39 14.67-48 0 0-12.18 17.85-11.08 47.7A36 36 0 0 1 1163 546c4.92 1.51 10.65 5.15 17 10a122.09 122.09 0 0 1 8.89-24.43 266.55 266.55 0 0 0-6.79 26.07c27.55 21.68 66 63.47 100.67 55.77 43.74-9.71-.77-371.16-.77-371.16z"/><path d="M1258.84 264.94s-20.94 42.21-33.58 63.18-20.26 25.09-20.26 25.09l-15.6-36.06"/><path class="cls-8" d="M1376.18 848c-63.84-46.53-180.83-24.72-226.27 37.6-16.43 22.53-22.63 44.75-23.24 119.91v8.12h308.9C1425 915.72 1414.51 876 1376.18 848z"/><path class="cls-8" d="M1376.18 848c-63.84-46.53-187.79-4.06-233.22 58.26-16.43 22.53-11.83 23.23-12.44 98.38v9h24.92c-.86-32.92-.74-52.85-.74-52.85s30 9 90.21 11.75c92 4.24 147.24-4.7 147.24-4.7s2.83 16.55 5.48 45.8h32.49c-9.99-91.46-16.91-138.64-53.94-165.64z"/><path class="cls-9" d="M1306.42 447c3-19.51-57.79-16.31-56.25-12.2 14.33 38.2-49.39 34.1-50.65 35.7-2.16 2.77 5.23 14.22 12.84 23.42 16.64 20.09 37.72 45.54 67 43.52 40.25-2.77 75-59.64 69.22-65.72-2.28-2.4-46.41 2.86-42.16-24.72z"/><path class="cls-8" d="M1394.69 496.59c1.72-4.36 26-26.13 18.69-31.79-1.38-1.06-21.47-.23-31 .59-21.52 1.86-28.41 4.84-39.71 4.73-1.3 0-2.72-.08-4.24-.2a1.61 1.61 0 0 0-1.61 1 63.12 63.12 0 0 1-22.32 28.74c-23.29 16.37-54.59 14.53-75.86-.71a65.38 65.38 0 0 1-22-28.05 1.6 1.6 0 0 0-1.6-1c-1.39.1-2.69.15-3.91.17-11.3.11-18.18-2.87-39.7-4.73-9.51-.82-25.73-3-31.58.28-8.07 4.53 17.57 26.56 19.29 30.92 17.58 44.41-9.58 336.69-27.65 433-9.46 50.48 299.63 33.11 293.11 7.16-22.85-91.2-47.49-395.7-29.91-440.11z"/><path class="cls-9" d="M1174.67 596.06c-11.87-48.59-21.18-86.72-35.73-87.25-14.88-.53-32 38.42-35.89 72.64-5.23 46.33 15.73 67.64 23.35 128.64 1.08 8.61 4 19.4 9.71 41 3 11.07 5.36 19.06 12.32 26.41 3.1 3.29 12.16 12.87 21.26 11.12 15.79-3 20-37.93 20.66-43.77a101.28 101.28 0 0 0 .14-23.57c-10.86-89.97-7.28-90.28-15.82-125.22z"/><path class="cls-8" d="M1148.79 464.15c-17.25-1.44-32.8 24.64-34 26.75-1.08 1.85-4.33 7.64-8.6 24.54-3.51 13.87-7.07 27.95-7.49 46.54-.74 31.78-2.1 49.67 9.7 59.54 6 5 17.17 6.12 39.49 8.31 17 1.65 21.69.13 24.82-1.43 5.11-2.55 12.19-8.32 17.67-26.3 13.33-43.79-5.31-86.36-11.5-100-9.02-19.82-16.74-36.84-30.09-37.95z"/><path class="cls-10" d="M1184.7 581.49c.07-7.89.34-15.87.82-23.77a3.06 3.06 0 0 0-6.1-.38c-.48 8-.76 16.1-.83 24.1a467.14 467.14 0 0 0 2.25 49.73 3.06 3.06 0 0 0 6.08-.61 460 460 0 0 1-2.22-49.07z"/><path d="M1300.77 712.81c-9.31-9.8-18.84-24.3-34.11-24.44-25.92-.23-34.41 41.29-73.81 62.62a100 100 0 0 1-37.51 11.3c-1.34 14.57-2.46 32.48-3.95 46.83 8.11 1.11 18.59-1.69 30.77-3.66 50.2-8.12 59-48.78 93.67-49.38 31.36-.54 37.75 32.44 86 44.8a118.83 118.83 0 0 0 41.88 3.53c-1.68-17.92-5-39.57-6.61-58.51-54.21-2.12-79.59-15.48-96.33-33.09z" fill="#f9ac46"/><path class="cls-9" d="M1357.37 655.61c3.57-17.12-17.53-10.57-31-7.56-9.7 2.17-33.57 14.15-65.79 26.35-18.78 7.12-26.16 10-57.61 22.07-9.9 3.8-14.85 5.69-17 7.09-29.2 18.81-51.75 66.18-32.56 80.57 13.6 10.2 35.94 9 193.87-90.86 27.78-17.58 7.55-25.5 10.09-37.66zM1416.84 508.81c-14.55.53-23.86 38.66-35.73 87.25-8.54 35-5 35.25-15.82 125.21a100.67 100.67 0 0 0 .14 23.57c.7 5.84 4.87 40.74 20.66 43.77 9.1 1.75 18.16-7.83 21.26-11.12 7-7.35 9.36-15.34 12.32-26.41 5.75-21.59 38.29-123.3 33.06-169.63-3.86-34.22-21.01-73.17-35.89-72.64z"/><path class="cls-8" d="M1449.62 515.44c-4.28-16.9-7.52-22.69-8.6-24.54-1.23-2.11-16.78-28.19-34-26.75-13.35 1.11-21.07 18.13-30.06 37.93-6.19 13.66-24.84 56.23-11.5 100 5.47 18 12.56 23.75 17.67 26.3 3.13 1.56 7.86 3.08 24.82 1.43 22.32-2.19 33.48-3.28 39.49-8.31 11.8-9.87 10.43-27.76 9.7-59.54-.45-18.57-4.01-32.65-7.52-46.52z"/><path class="cls-10" d="M1376.36 557.34a3.06 3.06 0 0 0-3.26-2.85 3 3 0 0 0-2.84 3.23c.48 7.9.75 15.88.82 23.77a460 460 0 0 1-2.22 49.07 3.06 3.06 0 0 0 6.08.61 467.14 467.14 0 0 0 2.25-49.73c-.07-8-.35-16.09-.83-24.1z"/><path class="cls-9" d="M1366.47 704.33c-2.18-1.4-7.12-3.3-17-7.09-31.45-12.06-38.83-15-57.62-22.08-32.23-12.16-56.1-24.16-65.85-26.35-13.47-3-34.56-9.55-31 7.57 2.54 12.15-17.69 20.07 10.1 37.65 157.94 99.89 180.27 101.07 193.88 90.86 19.24-14.39-3.31-61.76-32.51-80.56z"/><path class="cls-9" d="M1244.41 656.53c-4.93-3.13-30.27-11.48-39.18-17.07-1-.62-2.73-1.83-6.54-6.27-10.06-11.77-10-17.56-17.22-26.11-5.51-6.54-5.5-3.11-16.28-13.49-9.13-8.79-13.69-13.19-15.76-19.53-1.34-4.12-1.5-7.8-4.37-9.08-2.65-1.18-6.59.12-8.88 2.47a9.58 9.58 0 0 0-2.21 3.94c-1.25 4.37-.73 14.23 8.26 25.66 9.59 12.18 19.61 14.47 18.74 18.33-.6 2.63-5.71 3.49-17.76 5-31.29 3.79-40.54 3.25-43.79 9.28-1.83 3.42-2.67 10.66.35 15.73 1.49 2.51 4 4.58 3.27 6.45-.64 1.64-3 1-4.74 2.79-3.38 3.36-1.83 12.42 2.1 14.14 2.35 1 5.21-.72 5.51-.07s-2.44 2-4.27 4.51c-2.65 3.68 1.88 12.52 2.84 13 2 1 5.89-.24 6.82.52s-.92 2.89-1.3 5.88c-.67 5.23 2.83 11.8 7.66 13a7.54 7.54 0 0 0 5.31-.75c2.28-1.38 2-3.38 4-5.52.57-.63 1.69-1.66 8.25-3.41 5.93-1.58 8.9-2.37 11.9-2.21 4.78.24 5.44 1.92 10.4 3 1.27.27 5.28 1 15.88-1.12 12.87-2.61 12.85-4.92 18.78-5.24 12-.66 15.49 8.66 22.65 7.3 14.72-2.96 41-33.9 29.58-41.13z"/><path class="cls-9" d="M1110.87 666c-3.16 1-5.88 2.07-8.1 3 1.58-.15 2.94-.78 3.14-.35s-1.18 1.31-2.66 2.71c1.83-1 3.79-1.92 5.92-2.88 5.85-2.64 10.78-4.29 10.67-4.63s-4.84.82-8.97 2.15zM1108.82 641.52a67.33 67.33 0 0 0-10 1.73 12.48 12.48 0 0 0 1 2.09c1.38 2.33 3.59 4.27 3.35 6 15.77-5.86 19.36-8.29 19.09-9.35-.49-1.68-11.18-.68-13.44-.47zM1113.88 683.36l-7 3.16c1.82 0 3.79-.37 4.41.14s-.24 1.9-.85 3.86c1.59-1.5 3.37-3.1 5.38-4.76 4.39-3.63 7.87-5.93 7.61-6.36s-2.83.9-9.55 3.96zM1453.2 648c-.73-1.86 1.77-3.93 3.27-6.45 3-5.07 2.18-12.31.34-15.73-3.25-6-12.49-5.48-43.79-9.28-12-1.46-17.15-2.32-17.75-5-.88-3.86 9.14-6.14 18.73-18.33 9-11.43 9.52-21.29 8.27-25.66a9.37 9.37 0 0 0-2.22-3.93c-2.29-2.36-6.23-3.66-8.87-2.48-2.87 1.28-3 5-4.38 9.08-2.07 6.34-6.63 10.74-15.76 19.53-10.77 10.38-10.76 7-16.27 13.49-7.22 8.55-7.17 14.34-17.23 26.11-3.8 4.45-5.55 5.65-6.53 6.27-8.92 5.59-39 16.5-43.92 19.62-11.42 7.23 19.59 35.62 34.34 38.44 7.15 1.37 10.6-8 22.64-7.3 5.94.33 5.91 2.63 18.78 5.24 10.61 2.15 14.61 1.39 15.89 1.12 5-1.06 5.62-2.74 10.4-3 3-.15 6 .63 11.89 2.21 6.57 1.75 7.68 2.78 8.25 3.41 2 2.15 1.71 4.14 4 5.53a7.57 7.57 0 0 0 5.31.74c4.84-1.15 8.34-7.72 7.67-12.95-.39-3-2.09-5.24-1.3-5.88s4.85.43 6.81-.52c1-.46 5.49-9.3 2.84-13-1.83-2.55-4.56-3.84-4.26-4.5s3.15 1.09 5.5.06c3.93-1.72 5.48-10.78 2.11-14.13-1.8-1.71-4.13-1.1-4.76-2.71z"/><path class="cls-9" d="M1453.46 665.19c-2.22-1-4.93-2-8.09-3-4.15-1.31-8.87-2.46-9-2.13s4.82 2 10.66 4.63c2.13 1 4.1 1.93 5.93 2.88-1.49-1.39-2.88-2.22-2.66-2.7s1.59.13 3.16.32zM1434 638.2c-.27 1.06 3.32 3.5 19.1 9.35-.25-1.76 2-3.7 3.35-6a12.91 12.91 0 0 0 1-2.09 67.38 67.38 0 0 0-10-1.72c-2.3-.25-12.99-1.25-13.45.46zM1432.79 675.58c-.26.43 3.23 2.73 7.61 6.36 2 1.66 3.8 3.26 5.38 4.76-.61-2-1.44-3.38-.84-3.86s2.59-.15 4.41-.14c-1.93-.86-4.29-1.93-7-3.16-6.71-3.06-9.35-4.32-9.56-3.96z"/><path d="M1338.45 469.92a1.61 1.61 0 0 0-1.61 1 63.12 63.12 0 0 1-22.32 28.74c-23.29 16.37-54.59 14.53-75.86-.71a64.25 64.25 0 0 1-21.91-27.58c-.27-.63.15-2.7-.53-2.65-1.39.1-4.1.51-5.31.53-3.62 0-6.5.59-9.83.13 13.42 32.5 41.68 54.9 71.69 56.57 32.67 1.81 66.2-21 81.11-56.72a69.13 69.13 0 0 1-11.19.86c-1.3.01-2.69-.09-4.24-.17z" fill="#ffe3d8"/><path class="cls-13" d="M1279 723.19c-11.9-4.6-23.35-9.56-34-14.76-4.89-2.38-10.09-4.51-15.12-6.58-7.3-3-14.84-6.09-21.4-9.93l-1.05-.56a24.51 24.51 0 0 0-9.11-3.21 35.84 35.84 0 0 0-8.24-.41 31.65 31.65 0 0 0-10 2.11 49 49 0 0 1-7.91 2.17c-3.77.71-9.47 1.78-15.49.39a14.78 14.78 0 0 1-2.44-.76 14.29 14.29 0 0 0-3.3-.93c-6.13-1-11.34.36-16.37 1.71a60.45 60.45 0 0 0-10.31 3.82c-1.07.51-2.14 1-3.17 1.6-.87.47-1.15.07-.47.68a2.41 2.41 0 0 0 2.62.24c1-.52 2-1 3-1.5a56.16 56.16 0 0 1 9.55-3.55c4.71-1.26 9.17-2.45 14.17-1.6a9.39 9.39 0 0 1 2.34.65 18.31 18.31 0 0 0 3.12 1c7.07 1.62 13.66.39 17.6-.35a53.5 53.5 0 0 0 8.61-2.36 27.09 27.09 0 0 1 8.63-1.84 30.47 30.47 0 0 1 7 .33 25 25 0 0 1 8.59 3.19h.08c6.8 4 14.48 7.13 21.92 10.19 5 2 10.1 4.14 14.87 6.46 10.8 5.25 22.35 10.26 34.37 14.91a2.32 2.32 0 0 0 2.59-.58c.46-.65.23-.17-.68-.53zM1428.88 693.2c-3.18-2.34-6.32-2.84-11.53-3.67l-1.51-.24c-3.91-.63-6.5-1-10-.51a21.13 21.13 0 0 0-5.19 1.5 18 18 0 0 1-4.48 1.3c-2.65.4-4.5.16-7.88-.26a74.11 74.11 0 0 1-16.62-4.48c-1-.37-1.79-.69-2.46-1a16.76 16.76 0 0 0-5.14-1.45 23.08 23.08 0 0 0-10.51 1.63c-3.08 1.09-6.66 3.41-10.92 7.08-.81.7-.35-.1.37.69a1.9 1.9 0 0 0 2.66.16c3.86-3.32 7.12-5.46 9.71-6.38a19.17 19.17 0 0 1 8.84-1.43 13.36 13.36 0 0 1 4.12 1.2c.69.27 1.51.6 2.53 1a77 77 0 0 0 17.49 4.69 29.28 29.28 0 0 0 8.92.25 21.54 21.54 0 0 0 5.33-1.54 17.79 17.79 0 0 1 4.35-1.26c2.92-.45 5.14-.09 8.82.5l1.53.25c4.94.78 7.43 1.18 9.86 3a40.71 40.71 0 0 1 6.67 7.13 1.9 1.9 0 0 0 2.33.6c1.09-.51.91.16.2-.81a44.06 44.06 0 0 0-7.49-7.95zM1382.43 711.82a40.4 40.4 0 0 0-11.53-8.26c-1-.47-.49-1.38-.91-.38a1.89 1.89 0 0 0 .92 2.44 36.59 36.59 0 0 1 10.47 7.5 37.27 37.27 0 0 1 7.56 11.38 1.9 1.9 0 0 0 2.4 1c1-.37-.14-.17-.57-1.17"/><path d="M1181.65 711.28a27.22 27.22 0 0 0-5.09 16.29l12.21-22.91a26.08 26.08 0 0 0-7.12 6.62z" fill="#e5876a"/><path class="cls-15" d="M1250.17 434.26l56.83 10.08s-1.83 9.65 1.17 14.29-43.17-1.56-58-24.37zM1321.55 381.39c1.54 14.75 7.89 21 27.25 19.3 14.77-1.3 25-17.95 23.49-32.7s-13-19.47-28.45-16.41c-10.79 2.13-23.84 15.07-22.29 29.81z"/><path class="cls-16" d="M1357 368.77s-13.29-4.57-20.24 14.26"/><path class="cls-9" d="M1225.37 379.68c-3.39 14.43-10.47 19.85-29.47 15.72-14.48-3.14-22.58-20.95-19.19-35.39S1192 342.33 1207 347.3c10.44 3.47 21.75 17.95 18.37 32.38z"/><path class="cls-16" d="M1191.81 362.71s13.75-2.86 18.28 16.68"/><path class="cls-9" d="M1253.64 249.64c17.16-3.84 35.19-4.17 52.22 0 23.06 5.62 52.45 16.25 54.24 57.59 3 68.89-7.93 120-43.71 134.19-27.47 10.91-46.84 5.57-77-13.06-11.22-6.93-21.46-26.3-24-39.56l-11.56-37.23s-32.19-83.57 49.81-101.93z"/><path class="cls-7" d="M1322.4 335.67s-1.31.51 8.91-.84c7.75-1 9.22-.23 13.78 0 2.59.14 6.1 3.82 7.11 1.92.81-1.54-.31-3.67-1.18-4.62-2.43-2.65-5.89-6.36-15.34-5.21-12.13 1.47-13.28 8.75-13.28 8.75zM1292.1 333.57s-.39 2.68-13.62-1c-10-2.82-19.18-4.6-25.27-4.6-2.3 0-9.6 2.95-10.58.34a3.71 3.71 0 0 1 2.16-5c4.32-1.87 19.26-4.69 31.51-1.37 15.7 4.23 15.8 11.63 15.8 11.63z"/><path class="cls-2" d="M1287.25 358.54s-14.4-23.58-45.12-5c0 .03 15.52 22.03 45.12 5z"/><g clip-path="url(#clip-path-2)"><path d="M1276.22 354.67a11 11 0 1 1-12.46-9.34 11 11 0 0 1 12.46 9.34z"/></g><path d="M1241.45 352.57a45.23 45.23 0 0 1 11.84-5.35 35.42 35.42 0 0 1 12.82-1.59 27.61 27.61 0 0 1 12.19 4 25.33 25.33 0 0 1 9 9 25.13 25.13 0 0 0-9.25-8.43 26.72 26.72 0 0 0-12-3.27 34 34 0 0 0-12.2 2.12 42.45 42.45 0 0 0-11 5.62 1.21 1.21 0 1 1-1.42-2z"/><path class="cls-2" d="M1318.51 358.26s13.67-20.61 28.65-4c0-.01-13.39 21.22-28.65 4z"/><g clip-path="url(#clip-path-3)"><path d="M1323 354.62c-1.82 5.8.15 11.29 4.41 12.26s9.2-3 11-8.77-.15-11.3-4.41-12.26-9.14 2.96-11 8.77z"/></g><path d="M1346.18 355a19.86 19.86 0 0 0-2.65-3.13 15.21 15.21 0 0 0-3.34-2.34 12.38 12.38 0 0 0-3.87-1.26 8.88 8.88 0 0 0-1-.09c-.32 0-.69.05-1 .07a9.3 9.3 0 0 0-1 .09l-1 .19a19.57 19.57 0 0 0-7.66 3.58 28.2 28.2 0 0 0-6 6.19 28.19 28.19 0 0 1 5.67-6.66 20.36 20.36 0 0 1 7.75-4.29l1.1-.28c.36-.09.74-.12 1.12-.18s.73-.11 1.14-.15a9.39 9.39 0 0 1 1.19 0 14.4 14.4 0 0 1 4.47 1.12 16.45 16.45 0 0 1 4 2.39 21.45 21.45 0 0 1 3.23 3.3 1.23 1.23 0 0 1-.17 1.71 1.21 1.21 0 0 1-1.71-.17v-.06z"/><path class="cls-19" d="M1313.31 373.41l6.37 10.47-6.01 5.78M1291.9 403.06s11.17 16.72 27.67.88"/><path class="cls-7" d="M1366.23 329.17L1257.59 271s-49.36 64.8-50.34 80.41-29.19-34.05-26.42-50.42 33.05-82.37 84.37-67.81 79.07 16.3 95.42 46.93c11.05 20.65 5.61 49.06 5.61 49.06z"/></g></svg>