<svg id="Layer_1" data-name="Layer 1" xmlns="http://www.w3.org/2000/svg" viewBox="0 0 1456.08 1021.32"><defs><style>.cls-1{fill:#fff}.cls-3{fill:#eca179}.cls-4{fill:#003b71}.cls-5{fill:#4f89bd}.cls-7{fill:#c46234}.cls-8{fill:#5f3335}.cls-9{fill:#2782af}.cls-10{fill:#c96e3d}.cls-11,.cls-18,.cls-20,.cls-30{fill:none}.cls-11,.cls-30{stroke:#ca5e34}.cls-11,.cls-30,.cls-33{stroke-linecap:round;stroke-linejoin:round}.cls-11{stroke-width:1.63px}.cls-13{fill:#1b1c20}.cls-14{fill:#604538}.cls-16{fill:#fbb817}.cls-18{stroke:#ea9357}.cls-18,.cls-20,.cls-32{stroke-miterlimit:10}.cls-18,.cls-30{stroke-width:2px}.cls-20,.cls-32,.cls-33{stroke:#1691c9}.cls-20{stroke-width:5.07px}.cls-21{fill:#de8d68}.cls-23{fill:#39373a}.cls-24{fill:#f7f7f8}.cls-26{fill:#1a2e59}.cls-27{fill:#995300}.cls-32,.cls-33{fill:#c4e5e5}.cls-32{stroke-width:4.58px}.cls-33{stroke-width:4px}</style><clipPath id="clip-path"><path class="cls-1" d="M444.74 460.38s5.24-12.08 21-5.33c-.04 0-5.91 11.41-21 5.33z"/></clipPath><clipPath id="clip-path-2"><path class="cls-1" d="M430 462.31s-7.82-8.82-13.79 0c-.03 0 7.69 9.13 13.79 0z"/></clipPath><clipPath id="clip-path-3"><path class="cls-1" d="M1013.62 155.69s5.29-15.31 25.22-8.49c0 0-6.14 14.55-25.22 8.49z"/></clipPath><clipPath id="clip-path-4"><path class="cls-1" d="M995.67 159.44s-10.41-10.09-16.91 1.29c0 0 10.33 10.49 16.91-1.29z"/></clipPath></defs><path d="M1447.9 764.13l-3.33-8.93q-6-8.34-20.39-13.77c-26.23-13-65.34-20.75-103.14-25.45q-38.19-4.74-77.35-7.23c-27.74-8.82-64.72-12.91-97.59-15.68-57.57-4.86-117.77-5.81-177.29-6.23-74.81-.51-150.08.39-225.36 2-97.31 2-194.6 5.21-292.19 11.33-85.7 5.37-174.3 12.5-256.73 28.65-46.61 9.14-89.64 21.64-125.74 38.73C33 784.46 6.15 809.59 8.45 832c4.4 42.87 95.21 57.11 176.54 61 52.16 15.7 119.75 16.77 185.36 14.07 128.11-.6 257.27-13 384.81-27.09q78.84-4.11 157.66-9.68c66.31-4.72 132.38-10.54 198.46-16.93 42-4.07 83.93-6.86 125-14.09 22.48-4 44.8-9.92 63.78-17.51 15.87-1.72 31.72-3.53 47.45-6 29.55-4.68 61.2-13.65 80.09-25.84 11.97-7.74 21.87-16.51 20.3-25.8z" fill="#a7d1d0"/><path class="cls-3" d="M136.11 707.63l1.07 98.72 20.58 7.97 31.78-97.49-53.43-9.2z"/><path class="cls-4" d="M131.55 806.41s-31.5-1.56-47.41 3.4c-5.81 1.81-4.3 8.5-3 10.11 3.09 3.69 62.65 16.88 76.48 18.63 4.87.62 3.73-19.61-.81-26.42z"/><path class="cls-5" d="M136.89 795.71S102.2 802 86.28 807c-5.8 1.81-6.28 7.77-6.28 7.77 3.09 3.69 66.9 16.84 80.73 18.59 0 0 4.9-12.26.09-31.72l-3.59 6.49-19.17-4.34z"/><path class="cls-3" d="M162.92 771.05l28.3 95.62 22.05-2.28-6.61-102-43.74 8.66z"/><path class="cls-4" d="M185.9 865.3s-30.33 8.6-43.82 18.4c-4.92 3.58-1.34 9.43.44 10.52 4.12 2.51 64.76-4.08 78.42-6.84 4.81-1-2.75-19.78-9.22-24.78z"/><path class="cls-5" d="M187.54 853.44s-30.84 17.11-44.33 26.91c-4.92 3.58-3.46 9.37-3.46 9.37 4.11 2.51 68.77-5.47 82.43-8.24 0 0 .71-13.19-10.08-30.08l-1.32 7.3-19.55 2z"/><path d="M358.76 665.09s-158.52-94.42-190.37-48S122.07 788 122.07 788l66.5 18.39 34.74-115.51 134.47 39.7z" fill="#a84e2a"/><path class="cls-7" d="M454.78 713.51s3.07 52.56-19.78 66.94-181.55-40.65-181.55-40.65l-33.83 105.35h-63.14s.58-172.55 43.16-199.15C226.91 628.92 392 680.07 392 680.07z"/><path class="cls-3" d="M406.13 582.45l-79 17.67c-10.7 2.58-20.36-4.26-21.12-15-.7-9.79 6.34-19.31 16.11-21.79l77.78-25.09z"/><path class="cls-3" d="M332.06 569l-60.44-54.7-20.82 8.59 53.7 69.47a21.68 21.68 0 0 0 18.08 8.38c6.3-.23 12.38-2.82 15.64-8.2 5.27-8.77 2.54-19.23-6.16-23.54z"/><path class="cls-8" d="M409.74 427.9s-10.51 8.57-5 19.23a76.13 76.13 0 0 0 11.61 16.81s.36-25 4.53-33.15-5.55-8.58-11.14-2.89z"/><path class="cls-9" d="M439.35 519.37c-16.16-3.23-52.21 3.58-101.73 37.51l36.59 45.53 48.62-47.83 25.5-32.58z"/><path class="cls-9" d="M511.52 549.22c4.44 6.54 34.93 47.71 31.9 55.43l-17.28 64A169.65 169.65 0 0 1 458.86 764L435 780.45 392.43 706c-16.92-10.51-33.22-15-39.81-33.82l-21.3-22.29s37 7.92 40.05 2.76C391 619.42 392.9 551.28 408.76 534c26.31-28.78 84.18-12.1 102.76 15.22z"/><path class="cls-3" d="M573.92 590.88l45.4 67c6.33 9 3.51 20.5-6.17 25.13-8.86 4.25-20.3 1.19-26.19-7l-51.86-63.16z"/><path class="cls-9" d="M476.35 522.14s84.26-4.65 128.17 86.81l-57.37 37.93-39.31-70.17z"/><path class="cls-10" d="M432.41 474.75c-.1 6.77-2.74 9.88-11.61 9.88-6.77 0-12.12-7.15-12-13.92s5.1-9.38 12.27-8.62c4.99.53 11.45 5.91 11.34 12.66z"/><path class="cls-3" d="M475.15 473.56L494.09 526l-7.78 11.15c-5.63 8.08-16 10.79-25.21 7.34-7.34-2.75-8.63-8.87-8.63-8.87l-5.11-53.08z"/><path class="cls-7" d="M450.51 514.7c25.81-7.92 24.51-27.12 24.51-27.12l-26.93-.7z"/><path class="cls-3" d="M455.36 411.31a52.75 52.75 0 0 0-23.63 3.3c-10.07 4-22.69 10.68-20.88 29.49 3 31.35 11.19 53.76 28.27 57.93 13.12 3.19 21.54-.45 34-10.79 4.63-3.84 8-13.25 8.33-19.41l2.87-17.57s9.29-39.84-28.96-42.95z"/><path class="cls-8" d="M478.57 417.78s-28.28 12.37 7.66 41.42l-.31-34z"/><path class="cls-3" d="M476.38 468.34c2.45 6.32 6 8.32 14.33 5.25 6.35-2.34 8.88-10.91 6.44-17.23s-8-7-14.51-3.83c-4.5 2.23-8.7 9.47-6.26 15.81z"/><path class="cls-11" d="M490.49 458.54s-6.41-.42-7.22 8.71"/><path class="cls-8" d="M485.92 425.19c-.41.4-38.19 8.09-56.08 9.93-6 .61 8.9-11.33 2.94-9.24-24.33 8.51-35.76-.5-33.56-7.9 0 0 8.75-11.62 50.95-16.69 32.32-3.88 35.75 23.9 35.75 23.9zM421.31 443.59s2.51 1.74-1.37 4.75a30.32 30.32 0 0 0-5.14 4.66 3.22 3.22 0 0 1-3.13 1.08c-.79-.24-1.13-1.33-1.16-2-.08-1.71-1.26-2.93 2.29-5.74 4.57-3.6 8.51-2.75 8.51-2.75zM439.3 443.57s-.57 3.89 5.89 2.81a87.54 87.54 0 0 1 13.94-.73 4.39 4.39 0 0 0 3.88-2 1.77 1.77 0 0 0-.76-2.48 28.28 28.28 0 0 0-14.86-2.28c-7.67 1.18-8.09 4.68-8.09 4.68z"/><path class="cls-1" d="M444.74 460.38s5.24-12.08 21-5.33c-.04 0-5.91 11.41-21 5.33z"/><g clip-path="url(#clip-path)"><path class="cls-13" d="M457.36 457.21a5.25 5.25 0 1 0 5.27-5.23 5.26 5.26 0 0 0-5.27 5.23z"/></g><path class="cls-14" d="M465.26 455.94a20.15 20.15 0 0 0-5.44-2 16 16 0 0 0-5.81-.29 12.52 12.52 0 0 0-5.4 2.21 11.91 11.91 0 0 0-3.87 4.51 12.08 12.08 0 0 1 3.57-4.9 13.24 13.24 0 0 1 5.51-2.8 17.3 17.3 0 0 1 6.25-.2 21.69 21.69 0 0 1 6.07 1.68 1 1 0 0 1 .51 1.31 1 1 0 0 1-1.32.51z"/><path class="cls-1" d="M430 462.31s-7.82-8.82-13.79 0c-.03 0 7.69 9.13 13.79 0z"/><g clip-path="url(#clip-path-2)"><path class="cls-13" d="M430.66 461.13c1.1 2.61.55 5.33-1.23 6.08s-4.12-.74-5.23-3.34-.55-5.32 1.23-6.08 4.12.74 5.23 3.34z"/></g><path class="cls-14" d="M415.31 461.84a9 9 0 0 1 3.21-3.23 7.11 7.11 0 0 1 2.14-.81 4.26 4.26 0 0 1 1.17-.07 6.71 6.71 0 0 1 1.1.09 9.93 9.93 0 0 1 4 1.63 13.65 13.65 0 0 1 3.06 2.86 13.31 13.31 0 0 0-3.32-2.43 9.22 9.22 0 0 0-3.82-1.07 6.25 6.25 0 0 0-1 0 3.2 3.2 0 0 0-.9.17 5.85 5.85 0 0 0-1.64.86 7.36 7.36 0 0 0-2.26 2.91 1 1 0 1 1-1.81-.83z"/><path class="cls-11" d="M436.59 479.67l-5-1.44 1.92-12.36M433.1 489.82c.8-6.23 6.08-7.33 10.91-1.12-.01 0-5.68 7.49-10.91 1.12z"/><path class="cls-16" d="M620.88 444.65l53.59 36.13-8.5 13.07-51.79-35.67 6.7-13.53z"/><path class="cls-1" d="M664.98 488.34l4.88-7.17-49.57-32.87-3.77 6.63 48.46 33.41z"/><path fill="#ffe449" d="M620.09 451.52L571 526.5l53.83 34.99 49.59-73.89-54.33-36.08z"/><path class="cls-16" d="M620.09 451.52l.79-6.87-49.12 74.58-.76 7.27 49.09-74.98z"/><path class="cls-3" d="M588.25 665.7L559.53 742l15.63 16.22 44.93-75.43a21.66 21.66 0 0 0 1.16-19.9c-2.52-5.78-7.16-10.49-13.36-11.53-10.07-1.72-18.8 4.64-19.64 14.34z"/><path class="cls-3" d="M507.58 746c-1.05-5.27 24.48-6.7 30.9-5.66l-5.35-4.54c-1.22-1.28-2.79-5-1.35-7s11.22 5.58 11.22 5.58c5.57 3.11 18.18 3.27 18.18 3.27l14 20.56c-21 11.65-35.81 10.72-45 9.86-1.46-.13-14.53 3.09-15.6.13-.82-2.26 20.1-7.47 18.31-8.14-1-.36-21.65 6.33-24.29 2-1.64-2.69 23.13-6.32 22.37-7.87-.5-1-20.92 4.85-23.33 1.16-3-4.58 24.64-7.37 23.17-8.17-1.17-.6-22.5 2.52-23.23-1.18zM235.08 475.29c3.47-4.09 20.47 15 23.64 20.69l.24-7c.24-1.75 2.21-5.31 4.61-5.38s2.65 12.21 2.65 12.21c1 6.29 9.39 23.37 9.39 23.37l-15.27 14.48c-10.87-7-19.16-15.16-24.23-22.93-.81-1.22-15.73-13.51-14.08-16.19 1.26-2 18.35 11.09 17.76 9.28-.32-1-18.42-13-16.67-17.79 1.09-2.95 19.33 14.19 20.08 12.63.49-1-16.81-13.37-15.42-17.55 1.72-5.2 21.1 14.71 20.81 13.07-.22-1.26-15.93-16.03-13.51-18.89z"/><path class="cls-18" d="M419.31 683.7l-47.94-31s40.82 34.43 52.75 85.63M380.35 596.36l-34.12-45.2M598.97 598.26l-57.84 37.86-23.88-42.62"/><path d="M954.93 708.79S916.66 726 899.7 736.33c-6.19 3.76-5 10.77-5 10.77 4.63 3.38 82.11.3 98.59-1.63 0 0 2.15-15.57-9-36.68l-2.29 8.53-23.39.48z" fill="#98989c"/><path class="cls-20" d="M1172.53 705.74v-187.9s-200-1.78-206.28 0v187.9M1189.74 417.08v-87a101.61 101.61 0 0 0-101.18-101.61h-3a101.63 101.63 0 0 0-102 101.62v87"/><path class="cls-20" d="M1195.24 635.92V448s-200-1.78-206.28 0v187.92M1172.53 517.84l29.74-37.74"/><path class="cls-21" d="M945.15 373.44l-91.24 16.16-5.57 20.26 101 5.42a23.45 23.45 0 0 0 19.2-7.93c4-4.76 5.94-10.85 3.6-16.65-3.85-9.4-17.51-20.88-26.99-17.26z"/><path d="M824.37 392.4a41.52 41.52 0 0 0-13.94 12.81 4.11 4.11 0 0 0-1 3.2 2.59 2.59 0 0 0 2.2 1.76 4.09 4.09 0 0 0 2.81-.8 2 2 0 0 0 2.66.22 7.28 7.28 0 0 0 1.84-2.3 20.37 20.37 0 0 1 8.17-7.42 7.43 7.43 0 0 1 2.5-.82 7.58 7.58 0 0 1 3.08.53c2.82 1 5.53 2.55 8.51 2.65a17.76 17.76 0 0 0 5.15-.82 3.35 3.35 0 0 0 1.61-.76 3.29 3.29 0 0 0 .68-1.42 17.07 17.07 0 0 0 1-5.68 3.3 3.3 0 0 0-.44-1.66 3.62 3.62 0 0 0-1-.94 20.16 20.16 0 0 0-17.73-2.95z" fill="#dc835e"/><path class="cls-21" d="M866.27 386.79c-12.7-1.19-29.32-2.86-34.84-2.72a15.2 15.2 0 0 0-8.12 2.67c-4.8 3-7.07 5.59-10.88 9.77-1.42 1.57-3.84 4.59-4 6.7s.71 2.4 2.82 2.56c1.52.11 2.89-.87 4.09-1.81 3.3-2.55 5.23-4.55 8.52-7.1a15 15 0 0 1 8.48-3.09c3.58-.13 6.67 2.3 9.41 4.6-4.3 3.45-9.08 4.83-14.48 6-3 .65-6.09 1.58-5.21 4.5.5 1.64 2.51 2.21 4.18 2.58 4.74 1 10.57-1.32 15.42-1.13 4.07.16 5.22 2.84 9.29 2.79 6.49-.1 12.29-3.84 17.69-7.44A25.1 25.1 0 0 0 873 401a6.8 6.8 0 0 0 .6-3.63c-.19-5.2-4.6-10.37-7.33-10.58z"/><path class="cls-23" d="M1029.47 519s71.43 7.09 89.59-16.71S1098.88 394 1098.88 394L953 409l-24.7 79.22z"/><path class="cls-3" d="M944 625.71l13.99 91.35 24.71-1.54 17.6-85.58-56.3-4.23z"/><path class="cls-24" d="M954.93 702.27s-38.27 17.24-55.23 27.54c-6.19 3.75-5 10.77-5 10.77 4.63 3.38 82.11.3 98.59-1.64 0 0 2.15-15.57-9-36.67L982 710.8l-23.39.48z"/><path class="cls-3" d="M751.35 642.79l-62.16 98.51 25.73 10.57 87.57-87.77-51.14-21.31z"/><path d="M685.15 740.81s-37.93-7-58-3.6c-7.34 1.25-6.59 9.61-5.23 11.77 3.15 5 73.22 30.68 89.7 35.06 5.8 1.54 7.71-23.18 3.33-32.17z" fill="#93aab5"/><path class="cls-24" d="M693.38 728.7s-43.1 2-63.2 5.45c-7.34 1.25-8.89 8.39-8.89 8.39 3.15 5 78.38 31.32 94.86 35.7 0 0 14.37-15 11.71-39.34L716 747.08l-22.53-8.38z"/><path class="cls-13" d="M956.25 418.26c-19.82 0-41.14 1.46-142.9 101.57-40.41 39.74-124.16 189.45-124.16 189.45l61.26 24.08 153.18-167.78 158.55-137.94z"/><path class="cls-23" d="M935.6 466.29C928.74 513.26 931 693 931 693l75.18 5.88 27.08-241.42s-92.77-24.65-97.66 8.83z"/><path class="cls-21" d="M1002.09 321.33l-22.76 68.32C974.9 402.36 960.55 410 948 406.32c-11.53-3.35-17.43-15-13.52-26.66l24-76.69z"/><path class="cls-26" d="M1012.49 212.62c-21.06 2.39-52.91 34-61.83 98.2L998.1 316l16.11-49.56s13.07-55.5-1.72-53.82z"/><path class="cls-26" d="M1094.19 215c6.13 7.56 36.71 115.09 34.44 197.22l4 82.45-185.06-14.47s6.13-179.75 24-225.81c20.92-53.91 102.71-63.9 122.62-39.39z"/><path class="cls-3" d="M1140.42 310.09l-57.91 92.48c-8 10.92-22.52 12.14-31.73 2.68-8.43-8.66-9.36-23.2-2.14-33.29l46.15-84.83z"/><path class="cls-26" d="M1073.59 204s93.11 15.59 68.53 130L1065 317.63l21.92-72z"/><path d="M1073.14 319.58c-2.75-.45-5.48-1-8.22-1.5a.45.45 0 0 1-.35-.51v-.05c1-4.92 2-9.84 3.09-14.73.53-2.46 1.11-4.9 1.68-7.34s1.15-4.89 1.75-7.32c1.17-4.88 2.43-9.74 3.73-14.59s2.69-9.67 4.18-14.47c-.84 4.95-1.79 9.89-2.82 14.8s-2.1 9.81-3.25 14.7c-.57 2.44-1.14 4.88-1.75 7.32s-1.18 4.87-1.81 7.3q-1.85 7.31-3.9 14.55l-.34-.56c2.67.82 5.35 1.54 8.01 2.4z"/><path class="cls-27" d="M966.5 122.64s-20 23.69 21.81 50.29l-3.55-41.7z"/><path class="cls-10" d="M999.84 174.48c.5 8.31-2.44 12.37-13.33 13.21-8.31.64-15.54-7.65-16-16s5.39-12 14.26-11.72c6.14.22 14.56 6.19 15.07 14.51z"/><path class="cls-3" d="M1057.09 165.57l9.68 55.87-46.69 5.87 1.42-56.81 35.59-4.93z"/><path class="cls-7" d="M1020.45 215c29.63-5.54 31.44-32.22 31.44-32.22l-30.43-6.89z"/><path class="cls-3" d="M1022.06 94.51a64.78 64.78 0 0 0-28.67 6.25c-12 5.85-26.85 15.21-22.87 38.12 6.62 38.19 18.74 64.92 40.09 68.44 16.39 2.69 26.39-2.56 40.71-16.41 5.33-5.15 8.63-17 8.41-24.59l1.88-21.83s7.68-49.74-39.55-49.98z"/><path class="cls-27" d="M993.4 148.65s.76 3.69-5.25 3.06a38.4 38.4 0 0 0-8.5-.26 4 4 0 0 1-3.7-1.7c-.5-.88.12-2.15.62-2.72 1.38-1.6 3.35-3.82 8.91-3.3 7.13.67 7.92 4.92 7.92 4.92zM1001.36 148.62s1 4.73 8 .79a106.25 106.25 0 0 1 15.83-6.67 5.4 5.4 0 0 0 3.64-4 2.18 2.18 0 0 0-1.92-2.55c-2.72-.47-11.62 0-18.14 3.58-8.4 4.62-7.41 8.85-7.41 8.85z"/><path class="cls-1" d="M1013.62 155.69s5.29-15.31 25.22-8.49c0 0-6.14 14.55-25.22 8.49z"/><g clip-path="url(#clip-path-3)"><path class="cls-13" d="M1012.75 154.72a6.46 6.46 0 1 0 6-6.91 6.45 6.45 0 0 0-6 6.91z"/></g><path class="cls-14" d="M1038.38 148.34a24.32 24.32 0 0 0-6.86-1.94 19.74 19.74 0 0 0-7.15.18 15.47 15.47 0 0 0-6.42 3.22 14.6 14.6 0 0 0-4.33 5.89 14.92 14.92 0 0 1 3.92-6.34 16.33 16.33 0 0 1 6.5-3.95 21.12 21.12 0 0 1 7.65-.82 26.68 26.68 0 0 1 7.61 1.49 1.22 1.22 0 1 1-.82 2.3z"/><path class="cls-1" d="M995.67 159.44s-10.41-10.09-16.91 1.29c0 0 10.33 10.49 16.91-1.29z"/><g clip-path="url(#clip-path-4)"><path class="cls-13" d="M986.82 159.75c1.6 3.09 1.18 6.49-.93 7.58s-5.13-.52-6.73-3.61-1.18-6.48.94-7.58 5.12.53 6.72 3.61z"/></g><path class="cls-14" d="M977.64 160.24a11.11 11.11 0 0 1 3.64-4.26 8.69 8.69 0 0 1 2.56-1.2 7 7 0 0 1 .72-.16h.7a7.72 7.72 0 0 1 1.36 0 12.07 12.07 0 0 1 5 1.62 16.8 16.8 0 0 1 4 3.22 16.65 16.65 0 0 0-4.29-2.67 11.18 11.18 0 0 0-4.79-1 6.77 6.77 0 0 0-1.19.13 3.65 3.65 0 0 0-1.08.28 7 7 0 0 0-1.93 1.21 9.17 9.17 0 0 0-2.51 3.78 1.22 1.22 0 0 1-1.57.73 1.24 1.24 0 0 1-.73-1.58z"/><path class="cls-30" d="M1005.42 180.13l-6.27-1.3 1.2-15.34M1014.27 182.79c-5.2 19.15-18.71 3.77-18.71 3.77z"/><path class="cls-27" d="M1052.4 95.46s-34.79 22.63 12 54.91l-3.56-41.69z"/><path class="cls-3" d="M1053.19 162.51c3.58 7.52 8.13 9.64 18.06 5.1 7.58-3.46 9.88-14.21 6.29-21.73s-10.51-7.88-18.15-3.35c-5.32 3.16-9.79 12.47-6.2 19.98z"/><path d="M1069.57 149.17s-7.89.08-8 11.35" stroke-width="3.02" stroke-linecap="round" stroke-linejoin="round" stroke="#ca5e34" fill="none"/><path class="cls-27" d="M1052.4 95.46c.89 3.44 1.36 24.07-17.39 22.47-2.3-.19-20.47 5.76-33.43 9.79-20.23 6.29-38.07 8.73-35.08-5.08 0 0-9.77-21.61 41.54-31.77 39.29-7.78 44.36 4.59 44.36 4.59z"/><path class="cls-32" d="M1369.62 493.48H773.4l32.65-89.55h449.36"/><path class="cls-3" d="M1082.15 378l-39.94-92-27.7-1 24.88 105.13a26.67 26.67 0 0 0 16 18.59c7.17 2.94 15.3 3.13 21.68-1.25 10.37-7.12 12.62-20.23 5.08-29.47z"/><path class="cls-3" d="M1015.39 219.82c5.78-3.18 16.93 26.24 18.08 34.16l3.35-8c1-1.91 4.88-5.14 7.67-4.17s-2.31 15.2-2.31 15.2c-1.58 7.69.52 31 .52 31l-23.9 9.99c-9.44-12.79-15.37-25.85-17.8-37-.38-1.77-12.13-22.45-9.06-24.8 2.35-1.8 16.22 20.8 16.34 18.46.07-1.29-15.46-23.06-11.35-27.76 2.55-2.92 16 24.8 17.53 23.33 1-1-13.45-22.74-10-26.94 4.27-5.23 17.79 26.18 18.18 24.16.27-1.54-11.29-25.45-7.25-27.63z"/><path class="cls-32" d="M894.59 493.48h16.14v259.99h-16.14zM1255.36 493.48h16.14v259.99h-16.14z"/><path class="cls-33" d="M1186.02 482.4l54.86-7.79-25.06-52.3-52.17 4.41 22.37 55.68z"/><path class="cls-33" d="M1207.97 473.21l53.42-8.72-38.04-49.05-50.82 3.12 35.44 54.65z"/></svg>