<svg id="Layer_1" data-name="Layer 1" xmlns="http://www.w3.org/2000/svg" viewBox="0 0 1456.08 1021.32"><defs><style>.cls-1{fill:#fff}.cls-18{fill:none}.cls-4{fill:#a7d1d0}.cls-5{fill:#eca179}.cls-6{fill:#93aab5}.cls-7{fill:#f7f7f8}.cls-8{fill:#de8d68}.cls-9{fill:#1b1c20}.cls-11{fill:#1a2e59}.cls-12{fill:#c96e3d}.cls-13{fill:#c46234}.cls-14{fill:#995300}.cls-16{fill:#604538}.cls-18{stroke:#ca5e34;stroke-linecap:round;stroke-linejoin:round;stroke-width:3.02px}.cls-19{fill:#003b71}.cls-22{fill:#aa664b}.cls-23{fill:#003359}</style><clipPath id="clip-path"><path class="cls-1" d="M996.82 239.69s8.91-13.49 26.49-2c0 .04-9.54 12.58-26.49 2z"/></clipPath><clipPath id="clip-path-2"><path class="cls-1" d="M978.54 238.87s-7.56-12.34-16.66-3c0 .05 7.38 12.74 16.66 3z"/></clipPath><clipPath id="clip-path-3"><path class="cls-1" d="M525.93 243.41s-8.91-13.49-26.49-2c0 .04 9.56 12.59 26.49 2z"/></clipPath><clipPath id="clip-path-4"><path class="cls-1" d="M544.21 242.59s7.56-12.34 16.66-3c0 .05-7.38 12.75-16.66 3z"/></clipPath></defs><path d="M902.36 47.82C864 45 675.24 22.63 632.75 24.16c-74.43 2.67-130.22 21.59-182.54 42.37-65.76 26.13-124.38 57.94-179.35 92.47-71.06 44.52-136.08 93.5-185.64 154.08-43.52 53.2-33.64 121.15-16.84 215.24 9.5 53.2.9 107.53 54.22 191.67 225.29 355.51 1455.67 478.82 1276.75-274.12C1306.48 55 959.28 52 902.36 47.82z" fill="#c4e5e5"/><path stroke-miterlimit="10" stroke="#1691c9" stroke-width="6" fill="none" d="M309.39 854.21l829.91-40.2"/><path class="cls-4" d="M1188.51 968.16l-.65-3.5a13 13 0 0 0-4.69-5.82c-6.11-5.7-15.43-9.7-24.48-12.51-6.09-1.9-12.27-3.5-18.55-4.85-6.55-4.12-15.41-6.68-23.3-8.62-13.83-3.41-28.35-5.39-42.71-7.15-18.06-2.21-36.25-3.89-54.46-5.31-23.53-1.83-47.08-3.23-70.75-3.52-20.79-.25-42.31.1-62.49 4.07-11.41 2.24-22 5.87-31 11.44s-15.84 14.41-15.66 23.06c.33 16.52 22 24.42 41.59 28.08 12.33 7.41 28.64 9.64 44.53 10.37 31 3.22 62.35 2 93.39 0q19.1.54 38.23.53c16.1 0 32.15-.47 48.22-1.14 10.2-.43 20.38-.37 30.42-2a55.12 55.12 0 0 0 15.7-5c3.86-.23 7.72-.5 11.56-1 7.22-1 15-3.58 19.78-7.73 3-2.71 5.54-5.8 5.32-9.4z"/><path class="cls-5" d="M1028.69 765.72l37.71 182.37 21.19-1.33-15.65-186.43-43.25 5.39z"/><path class="cls-6" d="M1061.11 947.32s-31.58 6.18-46.12 15c-5.31 3.22-2.17 9.48-.45 10.74 4 2.9 66.21 1.33 80.33-.32 5-.59-1.12-20.34-7.28-26z"/><path class="cls-7" d="M1063.77 935.4s-32.77 14.79-47.35 23.6c-5.3 3.22-4.32 9.24-4.32 9.24 4 2.9 70.4.25 84.53-1.4 0 0 1.84-13.35-7.71-31.45l-2 7.32-20 .4z"/><path class="cls-5" d="M941.06 814.01l6.23 132.45 23.2.3 22.41-132.75h-51.84z"/><path class="cls-6" d="M944 947.32s-31.58 6.18-46.12 15c-5.3 3.22-2.17 9.48-.44 10.74 4 2.9 66.2 1.33 80.32-.32 5-.59-1.12-20.34-7.28-26z"/><path class="cls-7" d="M946.68 935.4s-32.81 14.79-47.36 23.6c-5.3 3.22-4.31 9.24-4.31 9.24 4 2.9 70.4.25 84.52-1.4 0 0 1.84-13.35-7.7-31.45l-2 7.32-20 .4z"/><path class="cls-8" d="M946.33 482.63l-98.8 16.1-7.7 26.56 107.8 1.71a26.63 26.63 0 0 0 21.9-11c4.6-6.22 6.78-14 4.1-21.28-4.35-11.72-16.48-17.12-27.3-12.09z"/><path class="cls-9" d="M963 519.91s-32.77 132.53-30.38 403.76l56.8 1.85L1039 519.91z"/><path d="M1069 519.91c34.46 88.66 22 181.48 25.63 227.67 5.11 64.81 3.91 175.8 3.91 175.8l-48.27 6.55-29.12-167.73-31.77-242.29z" fill="#39373a"/><path class="cls-8" d="M995.06 416l-3.91 71.76c-.92 13.4-12.72 24.51-25.82 24.31-12-.19-20.73-9.84-20-22.1l2.89-80.15z"/><path class="cls-11" d="M1004.13 319.35c.88-.29-50.15 18.4-67.69 91l64.24 50.65 8-76.23z"/><path class="cls-11" d="M1069.24 329.1c6.12 7.54 20.3 30.17 19.83 40.35l16.59 241.41-163.48-12.79s10.15-192.63 28-238.61c20.82-53.8 79.19-54.82 99.06-30.36z"/><path class="cls-8" d="M777 508.47c-1.66-6.38 29.53-10 37.47-9.13l-6.88-5.19c-1.58-1.49-3.77-6-2.15-8.44s14.14 6 14.14 6c7.05 3.41 30.11 7.09 30.11 7.09l3.75 25.56c-14.68 6-28.76 8.54-40.14 8.15-1.8-.06-24.69 6.24-26.21 2.69-1.17-2.71 24.1-10.59 21.87-11.28-1.24-.38-26.1 9.3-29.65 4.17-2.19-3.17 27.91-9.38 26.87-11.24-.68-1.22-25.3 7.45-28.52 3.1-4-5.41 29.69-10.8 27.83-11.67-1.42-.7-27.35 4.64-28.49.19z"/><path class="cls-5" d="M1134.13 369.45l61.15 73c7.49 11.26 3.66 25.27-8.37 30.66-11 4.92-25 .81-31.93-9.42l-58.15-81.05z"/><path class="cls-11" d="M994.2 339.21s81.34-74.11 159.79 40.5l-54.85 43.54-43.07-61.49z"/><path d="M1105.66 418.08c-2.05 1.89-4.16 3.69-6.24 5.53a.44.44 0 0 1-.61 0c-3.28-3.79-6.52-7.62-9.68-11.5-1.6-1.92-3.17-3.87-4.74-5.83s-3.13-3.9-4.67-5.88c-3.11-3.92-6.16-7.9-9.17-11.9s-6-8.06-8.81-12.19q5.07 5.56 9.91 11.32c3.22 3.83 6.42 7.69 9.54 11.6q2.37 2.91 4.68 5.87c1.56 2 3.11 3.93 4.63 5.92 3.07 4 6.06 8 9 12l-.65-.08c2.27-1.65 4.5-3.3 6.81-4.86z"/><path class="cls-12" d="M978.84 254.43c-1.57 8.17-5.43 11.36-16.16 9.47-8.19-1.44-13.12-11.24-11.55-19.41s8.18-10.25 16.7-7.79c5.92 1.71 12.59 9.57 11.01 17.73z"/><path class="cls-5" d="M1030.77 262.14l12.73 73.56-50.07 4.1 1.82-72.73 35.52-4.93z"/><path class="cls-13" d="M994.2 311.49c16-4.56 29.57-32.83 29.57-32.83l-28.56-6.21z"/><path class="cls-5" d="M1020.15 182.63a64.52 64.52 0 0 0-29.27-1.06c-13 2.68-29.72 8.05-31.56 31.19-3.06 38.55 2 67.4 21.8 76.09 15.17 6.67 26.14 4.07 43.41-5.77 6.43-3.66 12.56-14.31 14.23-21.69l7.23-20.63s19.75-46.19-25.84-58.13z"/><path class="cls-14" d="M979 222.67s.5 3.73-5.44 2.69a37.69 37.69 0 0 0-8.45-.85 4 4 0 0 1-3.56-1.95c-.44-.91.27-2.13.8-2.66 1.49-1.5 3.6-3.58 9.1-2.67 7 1.16 7.55 5.44 7.55 5.44zM990.73 227.74s-.25 4.81 7.52 2.74a106.47 106.47 0 0 1 17-2.52 5.44 5.44 0 0 0 4.51-2.94 2.2 2.2 0 0 0-1.23-3c-2.52-1.12-11.24-2.88-18.43-1-9.27 2.39-9.37 6.72-9.37 6.72z"/><path class="cls-1" d="M996.82 239.69s8.91-13.49 26.49-2c0 .04-9.54 12.58-26.49 2z"/><g clip-path="url(#clip-path)"><path class="cls-9" d="M996.22 238.54a6.45 6.45 0 1 0 7.48-5.21 6.44 6.44 0 0 0-7.48 5.21z"/></g><path class="cls-16" d="M1022.58 238.72a24.42 24.42 0 0 0-6.15-3.57 19.62 19.62 0 0 0-7-1.6 15.28 15.28 0 0 0-7 1.52 14.63 14.63 0 0 0-5.65 4.62 14.9 14.9 0 0 1 5.36-5.16 16.33 16.33 0 0 1 7.27-2.21 21.27 21.27 0 0 1 7.6 1.1 26.47 26.47 0 0 1 7 3.33 1.22 1.22 0 0 1 .33 1.7 1.23 1.23 0 0 1-1.7.33z"/><path class="cls-1" d="M978.54 238.87s-7.56-12.34-16.66-3c0 .05 7.38 12.74 16.66 3z"/><g clip-path="url(#clip-path-2)"><path class="cls-9" d="M969.91 237c.78 3.39-.47 6.56-2.78 7.1s-4.83-1.78-5.61-5.16.47-6.56 2.78-7.1 4.83 1.75 5.61 5.16z"/></g><path class="cls-16" d="M960.91 235.17a11.13 11.13 0 0 1 4.58-3.22 8.72 8.72 0 0 1 2.77-.53 6.11 6.11 0 0 1 .73 0c.27 0 .46.09.69.13a7.58 7.58 0 0 1 1.32.36 12 12 0 0 1 4.45 2.82 16.19 16.19 0 0 1 3.09 4.11 16.15 16.15 0 0 0-3.49-3.65 11.16 11.16 0 0 0-4.39-2.11 6.71 6.71 0 0 0-1.18-.17 3.81 3.81 0 0 0-1.12 0 6.9 6.9 0 0 0-2.16.69 9.06 9.06 0 0 0-3.36 3 1.23 1.23 0 0 1-2-1.39z"/><path class="cls-18" d="M982.84 261.28l-5.74-2.81 4.96-14.54M989.74 268.64c-5.36 5.21-13.8 1.07-13.8 1.07"/><path class="cls-14" d="M1046.84 195.41s-36.84 8.92.4 51.73l6.9-41.19z"/><path class="cls-5" d="M1033.38 256.09c1.6 8.16 5.47 11.34 16.2 9.41 8.18-1.47 13.07-11.29 11.47-19.45s-8.21-10.23-16.72-7.74c-5.92 1.74-12.56 9.62-10.95 17.78z"/><path class="cls-18" d="M1052.53 247.25s-7.65-1.88-10.58 9"/><path class="cls-14" d="M1054.14 206c-1.45 1-115.42 14.6-100.37-15.49 0 0 1.61-17.72 53.73-14.82 39.91 2.17 46.64 30.31 46.64 30.31z"/><g id="Mqvwdc.tif"><path class="cls-19" d="M1154 456.36V458.75a44.54 44.54 0 0 1-7.19 22.09 45 45 0 0 1-11.15 11.78 44.8 44.8 0 0 1-24.2 8.57 2 2 0 0 0-.24 0h-4.21c-.56 0-1.13-.07-1.69-.12a38 38 0 0 1-4-.52 43.79 43.79 0 0 1-7.37-2 44.35 44.35 0 0 1-10.53-5.49 45.09 45.09 0 0 1-8.16-7.39 44.87 44.87 0 0 1-10-20.26 45 45 0 0 1-.72-4.91c-.12-1.33-.21-2.67-.2-4s.1-2.78.18-4.17a22.9 22.9 0 0 1 .24-2.34c.25-1.39.52-2.79.84-4.17a43.37 43.37 0 0 1 3.17-8.91 45 45 0 0 1 44-25.27 43.24 43.24 0 0 1 4.82.64 44.82 44.82 0 0 1 35.69 35.44 45.6 45.6 0 0 1 .67 4.81c.11 1.17.13 2.34.13 3.52-.08.11-.08.21-.08.31zm-54.68 42.89l.17.05c.87.17 1.73.36 2.6.5a20.27 20.27 0 0 0 2.33.27 29.2 29.2 0 0 0 6.79-.54 23.07 23.07 0 0 0 3.56-.95 1.88 1.88 0 0 0 1-.72 23.85 23.85 0 0 0 2.49-4.54 14.73 14.73 0 0 0 1-3.23 2 2 0 0 0 .07-.78l-.41-.1a1.31 1.31 0 0 1-.33-.12 87.94 87.94 0 0 1-7.58-4.71 25.78 25.78 0 0 1-3.11-2.5 6.79 6.79 0 0 1-1-1.24 1.71 1.71 0 0 1-.28-.76.52.52 0 0 1 .11-.4c.29-.4.6-.79.85-1.21.61-1 1.21-2 1.77-3.11 2-3.77 3.78-7.63 5.52-11.52v-.16a22.67 22.67 0 0 1-1.94-2.22c-1.7-2.16-3.28-4.4-4.84-6.65s-3.28-4.78-4.91-7.17a.51.51 0 0 0-.46-.26c-1.79 0-3.57-.09-5.35-.1h-6.94a30.69 30.69 0 0 0-3.33.16c-.21 0-.41.07-.62.1v.26a3.15 3.15 0 0 0-1.39.89 9.43 9.43 0 0 0-.82 1 21 21 0 0 0-2.15 3.63 59.16 59.16 0 0 0-3.23 8.32 25.6 25.6 0 0 0-.79 3 1.19 1.19 0 0 0 0 .62c.12.38.22.76.36 1.14a23.67 23.67 0 0 0 1.91 3.92 57.87 57.87 0 0 0 6.09 8.43c.57.66 1.19 1.27 1.79 1.91a.71.71 0 0 0 .4.21 20.3 20.3 0 0 0 3.47.42 54.33 54.33 0 0 0 6.12-.06c1.6-.09 3.21-.24 4.8-.48a18.22 18.22 0 0 0 3.2-.68h.1l.21.65c-.3.09-.57.18-.85.25a30.78 30.78 0 0 1-3.58.62c-1.7.21-3.4.34-5.11.41a45.48 45.48 0 0 1-5.6-.05c-.83-.07-1.66-.19-2.49-.31-.3 0-.59-.12-.88-.18l-.08.16a81.13 81.13 0 0 0-3.16 8.09.42.42 0 0 0 0 .36c.25.41.47.83.74 1.21a16.28 16.28 0 0 0 4.54 4.29 26.28 26.28 0 0 0 7.17 3.22c.65.19 1.3.35 2 .53zm12.32-68.8a.72.72 0 0 0 0 .15.67.67 0 0 1-.18.57 6.83 6.83 0 0 0-.63.89c-.6 1-1.2 2-1.75 3-2 3.71-3.75 7.52-5.48 11.36 0 .08-.07.16-.1.25l.77 1.13c2.29 3.37 4.57 6.74 7 10 1.07 1.47 2.14 2.93 3.34 4.3.3.34.64.64 1 1 .06.06.09.14.16.23h.26c1.33 0 2.66 0 4-.06q4.21-.12 8.43-.28a16.55 16.55 0 0 0 3.84-.48.67.67 0 0 0 .18-.11c.24-.24.49-.47.72-.71a21.33 21.33 0 0 0 2.76-3.7 39.82 39.82 0 0 0 3.05-6.39 40.66 40.66 0 0 0 1.66-5.48 2.25 2.25 0 0 0-.09-1.36 22.44 22.44 0 0 0-2-3.95 60.22 60.22 0 0 0-7.75-9.76.78.78 0 0 0-.32-.18 27.06 27.06 0 0 0-3.47-.6c-1.91-.22-3.83-.33-5.75-.37a62.37 62.37 0 0 0-7.61.26c-.68.09-1.38.2-2.05.29zm34.52 47.73a6.14 6.14 0 0 0 1.26-1.23 20.1 20.1 0 0 0 2.79-4.86 39 39 0 0 0 2-6.78 39.61 39.61 0 0 0 .64-4.07 20 20 0 0 0 .16-2 19.46 19.46 0 0 0-.21-3.05 26.73 26.73 0 0 0-1.69-6.26 16.7 16.7 0 0 0-1.59-3.16.79.79 0 0 1-.08-.22c-.49-.05-1-.11-1.5-.15-1.32-.09-2.63-.19-4-.25h-2.43l-.25.05c0 .19-.08.35-.12.5a43.4 43.4 0 0 1-4 10.45 23.78 23.78 0 0 1-3.5 5l-.68.7a4.59 4.59 0 0 1 1 1.59c.09.21.17.43.25.64a27.68 27.68 0 0 1 1.19 5.76c.11.95.19 1.91.25 2.86a32.34 32.34 0 0 1 .06 3.41 5.37 5.37 0 0 1-.15 1.33l-.09.33.08.05c.72.09 1.43.21 2.14.28a19.62 19.62 0 0 0 4.84-.3 28.66 28.66 0 0 0 3.31-.71.18.18 0 0 1 .31.09zm-60.86-30.81a3 3 0 0 1-1.08-1.27c-.11-.21-.2-.42-.29-.64a14.65 14.65 0 0 1-.65-2.14 32.14 32.14 0 0 1-.67-4.56 37.49 37.49 0 0 1-.11-5 4.46 4.46 0 0 1 .53-1.93l.14-.28c-.39.05-.74.09-1.09.15l-3.84.69c-1.58.31-3.16.64-4.71 1.1-.79.23-.55.06-1.11.71a32.91 32.91 0 0 0-4.33 6.51 6.55 6.55 0 0 0-.35.77 42.39 42.39 0 0 0-1.9 7.09 43.34 43.34 0 0 0-.58 4.68 15.6 15.6 0 0 0 0 2.05 19.64 19.64 0 0 0 1 5 13.43 13.43 0 0 0 1.62 3.45c.21.29.46.56.7.83a.63.63 0 0 0 .51.21 62.14 62.14 0 0 0 7-.13c.47 0 .92-.11 1.38-.17a1.91 1.91 0 0 1 .06-.21c.1-.47.19-.94.32-1.41a61.24 61.24 0 0 1 3.11-8.73 28.44 28.44 0 0 1 2.49-4.61 8.89 8.89 0 0 1 1.6-1.86zm44.56-17.37c.25-.5.5-1 .75-1.45 1.05-2 2.11-4.09 3.18-6.13a.37.37 0 0 0 0-.48 34.88 34.88 0 0 0-4-4.28 4.21 4.21 0 0 0-.85-.6 39.07 39.07 0 0 0-3.91-1.74 44 44 0 0 0-6.93-2 41.51 41.51 0 0 0-4.84-.71 21.37 21.37 0 0 0-2.26-.11c-1 0-2.05.15-3.07.26a24.58 24.58 0 0 0-3.31.55c-1.31.33-1.27.18-2.29 1.39a17 17 0 0 0-3.29 6.47c-.06.23-.09.46-.14.7a1 1 0 0 0 .26.06 1.39 1.39 0 0 1 .65.21q2.61 1.33 5.14 2.83a43 43 0 0 1 4.47 3 10 10 0 0 1 1.8 1.7.32.32 0 0 0 .37.14c.52-.1 1-.19 1.56-.25a52.73 52.73 0 0 1 6-.33 59.44 59.44 0 0 1 6 .21c1.14.1 2.27.24 3.4.38.37.02.82.12 1.31.18zm-9.86 59.46a21.87 21.87 0 0 1-4 9.19l.3.12a10.22 10.22 0 0 0 2.63.46 1.26 1.26 0 0 0 .27 0 44.17 44.17 0 0 0 26.2-18 .83.83 0 0 0 .14-.3c.1-.4.19-.81.25-1.22a1.89 1.89 0 0 0 0-.82h-.25a35.5 35.5 0 0 1-4.45.81 18.17 18.17 0 0 1-5.36-.16l-.52-.08c-.31.43-.58.84-.89 1.23a16.65 16.65 0 0 1-2.67 2.57 53.09 53.09 0 0 1-10.26 6.16 1.07 1.07 0 0 1-.47.09c-.28.01-.58-.03-.92-.05zm-46.84-56.6l1.06-.28c2-.5 3.92-.89 5.9-1.24 1.07-.19 2.14-.35 3.22-.5a.63.63 0 0 0 .54-.29.47.47 0 0 1 .06-.09 19.26 19.26 0 0 1 3.14-2.91 54.36 54.36 0 0 1 9.33-5.59 1.84 1.84 0 0 1 1-.21h.66a17.71 17.71 0 0 1 4.42-8.41 1.65 1.65 0 0 0-1.13-.25c-.84.17-1.68.33-2.51.53a42.4 42.4 0 0 0-9.88 3.67 43.86 43.86 0 0 0-15.37 13.17 1.14 1.14 0 0 0-.19.36c-.09.46-.17.91-.23 1.37a3.79 3.79 0 0 0 .01.67zm2.57 52.09a44.69 44.69 0 0 0 6.15 5.92c2 1.57 6.53 4.47 7.22 4.57l-.24-.19c-.45-.36-.92-.71-1.35-1.1a13.5 13.5 0 0 1-3.37-4.25.37.37 0 0 0-.19-.18 14.79 14.79 0 0 1-2.73-1.29c-1.8-1-3.52-2.18-5.21-3.36zM1065.34 460a42.19 42.19 0 0 0 4.24 15.56.93.93 0 0 0 0-.29 30.9 30.9 0 0 1-1.27-7.93v-1.83c0-.11 0-.22-.1-.31a4.24 4.24 0 0 1-1-1.12 14.19 14.19 0 0 1-1.55-3.21c-.13-.25-.22-.54-.32-.87zm87.61-6.73a42 42 0 0 0-3.35-14.1.26.26 0 0 0 0 .15 18.74 18.74 0 0 1 .35 3.34v3.24a.45.45 0 0 0 .07.28c.22.33.44.65.63 1a26.13 26.13 0 0 1 2.23 5.71c0 .16.04.29.12.42zm-21-34.51v.08l.3.32a25 25 0 0 1 2.53 3 .38.38 0 0 0 .18.15 15.5 15.5 0 0 1 2.3 1.25c1.31.83 2.55 1.75 3.78 2.7l.2.14a42.08 42.08 0 0 0-9.24-7.6z"/><path class="cls-1" d="M1099.31 499.25v-.17c-.66-.18-1.31-.34-2-.53a26.28 26.28 0 0 1-7.17-3.22 16.28 16.28 0 0 1-4.54-4.29c-.27-.38-.49-.8-.74-1.21a.42.42 0 0 1 0-.36 81.13 81.13 0 0 1 3.16-8.09l.08-.16c.29.06.58.14.88.18.83.12 1.66.24 2.49.31a45.48 45.48 0 0 0 5.6.05c1.71-.07 3.41-.2 5.11-.41a30.78 30.78 0 0 0 3.58-.62c.28-.07.55-.16.85-.25l-.21-.65h-.1a18.22 18.22 0 0 1-3.2.68c-1.59.24-3.2.39-4.8.48a54.33 54.33 0 0 1-6.12.06 20.3 20.3 0 0 1-3.47-.42.71.71 0 0 1-.4-.21c-.6-.64-1.22-1.25-1.79-1.91a57.87 57.87 0 0 1-6.09-8.43 23.67 23.67 0 0 1-1.91-3.92c-.14-.38-.24-.76-.36-1.14a1.19 1.19 0 0 1 0-.62 25.6 25.6 0 0 1 .79-3 59.16 59.16 0 0 1 3.23-8.32 21 21 0 0 1 2.15-3.63 9.43 9.43 0 0 1 .82-1 3.15 3.15 0 0 1 1.39-.89v-.26c.21 0 .41-.08.62-.1a30.69 30.69 0 0 1 3.33-.16h6.94c1.78 0 3.56.07 5.35.1a.51.51 0 0 1 .46.26c1.63 2.39 3.26 4.79 4.91 7.17s3.14 4.49 4.84 6.65a22.67 22.67 0 0 0 1.94 2.22v.16c-1.74 3.89-3.53 7.75-5.52 11.52-.56 1.06-1.16 2.08-1.77 3.11-.25.42-.56.81-.85 1.21a.52.52 0 0 0-.11.4 1.71 1.71 0 0 0 .28.76 6.79 6.79 0 0 0 1 1.24 25.78 25.78 0 0 0 3.11 2.5 87.94 87.94 0 0 0 7.58 4.71 1.31 1.31 0 0 0 .33.12l.41.1a2 2 0 0 1-.07.78 14.73 14.73 0 0 1-1 3.23 23.85 23.85 0 0 1-2.49 4.54 1.88 1.88 0 0 1-1 .72 23.07 23.07 0 0 1-3.56.95 29.2 29.2 0 0 1-6.79.54 20.27 20.27 0 0 1-2.33-.27c-.87-.14-1.73-.33-2.6-.5zM1111.63 430.45c.67-.09 1.32-.2 2-.27a62.37 62.37 0 0 1 7.61-.26c1.92 0 3.84.15 5.75.37a27.06 27.06 0 0 1 3.47.6.78.78 0 0 1 .32.18 60.22 60.22 0 0 1 7.75 9.76 22.44 22.44 0 0 1 2 3.95 2.25 2.25 0 0 1 .09 1.36 40.66 40.66 0 0 1-1.66 5.48 39.82 39.82 0 0 1-3.05 6.39 21.33 21.33 0 0 1-2.76 3.7c-.23.24-.48.47-.72.71a.67.67 0 0 1-.18.11 16.55 16.55 0 0 1-3.84.48q-4.21.17-8.43.28c-1.33 0-2.66 0-4 .06h-.26c-.07-.09-.1-.17-.16-.23-.32-.32-.66-.62-1-1-1.2-1.37-2.27-2.83-3.34-4.3-2.39-3.29-4.67-6.66-7-10l-.77-1.13c0-.09.07-.17.1-.25 1.73-3.84 3.49-7.65 5.48-11.36.55-1 1.15-2 1.75-3a6.83 6.83 0 0 1 .63-.89.67.67 0 0 0 .18-.57.72.72 0 0 1 .04-.17z"/><path class="cls-1" d="M1146.15 478.18a.18.18 0 0 0-.25-.1 28.66 28.66 0 0 1-3.31.71 19.62 19.62 0 0 1-4.84.3c-.71-.07-1.42-.19-2.14-.28l-.08-.05.09-.33a5.37 5.37 0 0 0 .15-1.33 32.34 32.34 0 0 0-.06-3.41c-.06-.95-.14-1.91-.25-2.86a27.68 27.68 0 0 0-1.19-5.76c-.08-.21-.16-.43-.25-.64a4.59 4.59 0 0 0-1-1.59l.68-.7a23.78 23.78 0 0 0 3.5-5 43.4 43.4 0 0 0 4-10.45c0-.15.07-.31.12-.5l.25-.05c.81 0 1.62-.06 2.43 0 1.32.06 2.63.16 4 .25.51 0 1 .1 1.5.15a.79.79 0 0 0 .08.22 16.7 16.7 0 0 1 1.59 3.16 26.73 26.73 0 0 1 1.69 6.26 19.46 19.46 0 0 1 .21 3.05 20 20 0 0 1-.16 2 39.61 39.61 0 0 1-.64 4.07 39 39 0 0 1-2 6.78 20.1 20.1 0 0 1-2.79 4.86 6.14 6.14 0 0 1-1.33 1.24zM1085.29 447.37l-.36.3a8.89 8.89 0 0 0-1.6 1.86 28.44 28.44 0 0 0-2.49 4.61 61.24 61.24 0 0 0-3.11 8.73c-.13.47-.22.94-.32 1.41a1.91 1.91 0 0 0-.06.21c-.46.06-.91.13-1.38.17a62.14 62.14 0 0 1-7 .13.63.63 0 0 1-.51-.21c-.24-.27-.49-.54-.7-.83a13.43 13.43 0 0 1-1.62-3.45 19.64 19.64 0 0 1-1-5 15.6 15.6 0 0 1 0-2.05 43.34 43.34 0 0 1 .58-4.68 42.39 42.39 0 0 1 1.9-7.09 6.55 6.55 0 0 1 .35-.77 32.91 32.91 0 0 1 4.33-6.51c.56-.65.32-.48 1.11-.71 1.55-.46 3.13-.79 4.71-1.1l3.84-.69c.35-.06.7-.1 1.09-.15l-.14.28a4.46 4.46 0 0 0-.53 1.93 37.49 37.49 0 0 0 .11 5 32.14 32.14 0 0 0 .67 4.56 14.65 14.65 0 0 0 .65 2.14c.09.22.18.43.29.64a3 3 0 0 0 1.19 1.27zM1129.86 430c-.49-.08-.94-.18-1.4-.23-1.13-.14-2.26-.28-3.4-.38a59.44 59.44 0 0 0-6-.21 52.73 52.73 0 0 0-6 .33c-.52.06-1 .15-1.56.25a.32.32 0 0 1-.37-.14 10 10 0 0 0-1.8-1.7 43 43 0 0 0-4.47-3q-2.53-1.5-5.14-2.83a1.39 1.39 0 0 0-.65-.21 1 1 0 0 1-.26-.06c0-.24.08-.47.14-.7a17 17 0 0 1 3.29-6.47c1-1.21 1-1.06 2.29-1.39a24.58 24.58 0 0 1 3.31-.55c1-.11 2.05-.22 3.07-.26a21.37 21.37 0 0 1 2.26.11 41.51 41.51 0 0 1 4.84.71 44 44 0 0 1 6.93 2 39.07 39.07 0 0 1 3.91 1.74 4.21 4.21 0 0 1 .85.6 34.88 34.88 0 0 1 4 4.28.37.37 0 0 1 0 .48c-1.07 2-2.13 4.09-3.18 6.13-.16.55-.41 1.02-.66 1.5zM1120 489.46c.31 0 .61.06.92.06a1.07 1.07 0 0 0 .47-.09 53.09 53.09 0 0 0 10.26-6.16 16.65 16.65 0 0 0 2.67-2.57c.31-.39.58-.8.89-1.23l.52.08a18.17 18.17 0 0 0 5.36.16 35.5 35.5 0 0 0 4.45-.81h.25a1.89 1.89 0 0 1 0 .82c-.06.41-.15.82-.25 1.22a.83.83 0 0 1-.14.3 43.24 43.24 0 0 1-5 6 43.8 43.8 0 0 1-21.24 12 1.26 1.26 0 0 1-.27 0 10.22 10.22 0 0 1-2.63-.46l-.3-.12a21.87 21.87 0 0 0 4.04-9.2z"/><path class="cls-1" d="M1073.19 432.86a3.79 3.79 0 0 1 0-.67c.06-.46.14-.91.23-1.37a1.14 1.14 0 0 1 .19-.36 43.86 43.86 0 0 1 15.39-13.17 42.4 42.4 0 0 1 9.88-3.67c.83-.2 1.67-.36 2.51-.53a1.65 1.65 0 0 1 1.13.25 17.71 17.71 0 0 0-4.42 8.41h-.66a1.84 1.84 0 0 0-1 .21 54.36 54.36 0 0 0-9.33 5.59 19.26 19.26 0 0 0-3.14 2.91.47.47 0 0 0-.06.09.63.63 0 0 1-.54.29c-1.08.15-2.15.31-3.22.5-2 .35-4 .74-5.9 1.24zM1075.76 485l.24.16c1.69 1.18 3.41 2.34 5.21 3.36a14.79 14.79 0 0 0 2.73 1.29.37.37 0 0 1 .19.18 13.5 13.5 0 0 0 3.37 4.25c.43.39.9.74 1.35 1.1l.24.19c-.69-.1-5.25-3-7.22-4.57a44.69 44.69 0 0 1-6.15-5.92zM1065.34 460c.1.29.19.58.3.87a14.19 14.19 0 0 0 1.55 3.21 4.24 4.24 0 0 0 1 1.12c.13.09.11.2.1.31v1.83a30.9 30.9 0 0 0 1.27 7.93.93.93 0 0 1 0 .29 42.19 42.19 0 0 1-4.22-15.56zM1153 453.31c0-.13-.07-.26-.1-.39a26.13 26.13 0 0 0-2.23-5.71c-.19-.34-.41-.66-.63-1a.45.45 0 0 1-.07-.28v-3.24a18.74 18.74 0 0 0-.35-3.34.26.26 0 0 1 0-.15 42 42 0 0 1 3.38 14.11zM1132 418.8a42.08 42.08 0 0 1 9.31 7.65l-.2-.14c-1.23-.95-2.47-1.87-3.78-2.7a15.5 15.5 0 0 0-2.3-1.25.38.38 0 0 1-.18-.15 25 25 0 0 0-2.53-3l-.3-.32s-.02-.04-.02-.09z"/></g><path class="cls-5" d="M1020.24 538.89c-3.14-5.79 19.41-19.93 26.82-22.9l-5.19-1.42c-2.09-.57-5.19-1.41-4.89-4.35s11-3.39 11-3.39c7.83-.26 33.15-2.26 33.15-2.26l12 15.41c-10.21 12.14-21.49 20.94-31.75 25.89-1.62.78-12.72 14.68-15.72 12.25-2.29-1.86 10.18-18.27 7.88-17.84-1.26.24-11.17 18.13-16.7 15.24-3.42-1.79 12.74-19 11-20.2-1.18-.76-14.26 18.56-19.14 16.2-6.06-2.92 16.19-22.25 14.54-23.47-2.78-2.05-21.86 12.95-23 10.84z"/><path class="cls-5" d="M1161.14 439.37l-96.34 73.89 15.82 13.28 104.46-49.67a24.59 24.59 0 0 0 14-19.21c.93-7.4-1.13-15.09-7.25-20.11-9.92-8.16-23.57-7.35-30.69 1.82z"/><path stroke="#af4a25" stroke-width=".97" stroke-miterlimit="10" fill="none" d="M1139.3 456.12l21.84-16.75"/><path class="cls-4" d="M763.33 971l-.8-3a13.14 13.14 0 0 0-5.76-5.06c-7.52-4.95-19-8.43-30.09-10.88q-11.23-2.46-22.81-4.21c-8-3.58-18.94-5.81-28.64-7.5-17-3-34.84-4.68-52.5-6.21-22.19-1.92-44.55-3.38-66.93-4.61-28.93-1.6-57.87-2.82-87-3.06-25.55-.22-52 .08-76.8 3.53-14 1.95-27.06 5.1-38.14 9.94s-19.43 12.49-19.22 20.06c.41 14.36 27.07 21.22 51.13 24.41 15.16 6.44 35.2 8.37 54.73 9 38 2.79 76.63 1.69 114.79 0q23.49.48 47 .46c19.78 0 39.51-.41 59.26-1 12.54-.37 25.06-.32 37.4-1.77a88.91 88.91 0 0 0 19.29-4.33c4.75-.2 9.49-.44 14.21-.9 8.87-.86 18.45-3.11 24.32-6.72 3.71-2.34 6.84-5.03 6.56-8.15z"/><path class="cls-9" d="M553.92 187.51S570 192 569 206.7a93.35 93.35 0 0 1-4.77 24.63s-12.72-27.94-21.42-35.05 2.02-12.4 11.11-8.77z"/><path class="cls-8" d="M639.54 668.67c6-2.65-3.1-27.66-7.13-34.54l5 2.06c2 .83 5 2.06 6.53-.43s-6.64-9.45-6.64-9.45c-6-5-24.79-22.13-24.79-22.13L593.55 609c.61 15.85 4.12 29.72 9.18 39.92.8 1.61 1 19.4 4.9 19.32 3-.06 3.17-20.67 4.72-18.92.85 1-2.3 21.17 3.84 22.28 3.8.68 1.62-22.86 3.74-22.68 1.4.12-.12 23.41 5.17 24.54 6.58 1.41.87-27.5 2.92-27.45 3.47.06 9.32 23.63 11.52 22.66z"/><path class="cls-8" d="M589.34 503.62l30.74 117.47-20.65.78-52-103.32a24.56 24.56 0 0 1 .71-23.77c3.81-6.42 10.15-11.22 18.07-11.43 12.85-.35 23.13 8.65 23.13 20.27z"/><path stroke="#af4a25" stroke-width=".97" fill="#de8d68" stroke-miterlimit="10" d="M596.31 530.25l-6.97-26.63"/><path class="cls-5" d="M495.71 765.72L458 948.09l-23.53-1.47 17.99-186.29 43.25 5.39z"/><path class="cls-22" d="M463.29 947.32s31.58 6.18 46.12 15c5.31 3.22 2.17 9.48.45 10.74-4 2.9-66.21 1.33-80.33-.32-5-.59 1.12-20.34 7.28-26z"/><path class="cls-8" d="M460.63 935.4S493.44 950.19 508 959c5.3 3.22 4.32 9.24 4.32 9.24-4 2.9-70.4.25-84.53-1.4 0 0-1.84-13.35 7.71-31.45l2 7.32 20.05.4z"/><path class="cls-5" d="M583.34 814.01l-6.23 132.45-23.2.3-22.41-132.75h51.84z"/><path class="cls-22" d="M580.39 947.32s31.58 6.18 46.12 15c5.31 3.22 2.17 9.48.44 10.74-4 2.9-66.2 1.33-80.32-.32-5-.59 1.12-20.34 7.28-26z"/><path class="cls-8" d="M577.72 935.4s32.81 14.79 47.36 23.61c5.3 3.22 4.31 9.24 4.31 9.24-4 2.9-70.4.25-84.52-1.4 0 0-1.84-13.35 7.7-31.45l2 7.32 20.05.4z"/><path class="cls-23" d="M561.44 519.91s24.3 132.81 21.9 404l-40.56 1.57-57.34-405.57z"/><path class="cls-19" d="M455.36 519.91c-34.46 88.66-14.9 194.22-18.55 240.41-5.11 64.82-3.64 164.06-3.64 164.06l40.92 5.55 29.16-167.73L535 519.91z"/><path class="cls-8" d="M539.55 423.83l3.91 71.76c.92 13.4 12.72 24.52 25.82 24.31 12-.19 20.73-9.84 20-22.09l-3.93-98.1z"/><path class="cls-4" d="M529.46 330.62c.41-.17 51.39 4.66 68.71 76.32l-64.24 50.64-8-76.23 3.53-50.71s-.01-.02 0-.02z"/><path class="cls-4" d="M435 336.53c-7.76 5.84-24.93 38.34-24.46 48.52l10.8 230.27L585.38 609s-5.1-204.42-24.9-249.58c-19.22-43.78-93.09-47.3-125.48-22.89z"/><path class="cls-5" d="M422.77 454.62L490.91 527c9.1 10 23.63 9.69 31.78-.67 7.45-9.48 6.85-24-1.37-33.25L459.5 414z"/><path class="cls-4" d="M435 336.53s-91.75 46 1.67 148.75l55-43.34-49.91-56.09z"/><path d="M485.14 447.09c2.05-1.88 4.17-3.67 6.25-5.51l-.07.65c-3.25-3.82-6.47-7.66-9.61-11.56-1.58-1.94-3.14-3.9-4.69-5.86s-3.11-3.93-4.64-5.91q-4.62-5.92-9.09-12t-8.72-12.24q5 5.6 9.82 11.38t9.48 11.66c1.56 2 3.11 3.92 4.64 5.91s3.07 3.95 4.58 5.95c3.05 4 6 8 9 12.07a.44.44 0 0 1-.1.61c-2.3 1.66-4.54 3.3-6.85 4.85z"/><path class="cls-12" d="M543.91 258.15c1.57 8.17 5.43 11.36 16.16 9.47 8.19-1.44 13.12-11.24 11.55-19.41s-8.18-10.25-16.7-7.79c-5.92 1.71-12.59 9.58-11.01 17.73z"/><path class="cls-5" d="M492 265.86l-12.74 73.56 28.94 11.49a17.07 17.07 0 0 0 21.13-7.39l-1.81-72.73z"/><path class="cls-13" d="M528.55 315.21c-16-4.56-29.58-32.82-29.58-32.82l28.57-6.22z"/><path class="cls-5" d="M502.6 186.35a64.66 64.66 0 0 1 29.27-1.06c13 2.68 29.72 8.05 31.56 31.19 3.06 38.55-2 67.4-21.8 76.09-15.17 6.67-26.14 4.07-43.41-5.77-6.43-3.66-12.56-14.31-14.23-21.69l-7.23-20.63S457 198.29 502.6 186.35z"/><path class="cls-9" d="M475.91 199.13s36.84 8.92-.4 51.73l-6.9-41.19z"/><path class="cls-5" d="M489.37 259.81c-1.61 8.16-5.47 11.34-16.2 9.41-8.18-1.47-13.08-11.29-11.47-19.45s8.21-10.23 16.72-7.74c5.92 1.74 12.58 9.62 10.95 17.78z"/><path class="cls-18" d="M470.22 251s7.65-1.89 10.58 9"/><path class="cls-9" d="M468.61 209.67c.59.4 47.91 1.61 69.93 0 7.35-.53-13.18-11.79-5.53-10.55 31.24 5.09 35.49-19.84 31.24-28.32 0 0-5.41-.58-57.53 2.32-39.91 2.22-38.11 36.55-38.11 36.55z"/><ellipse class="cls-22" cx="511.07" cy="249.92" rx="18.85" ry="12.24" transform="rotate(-14.13 511.128 249.934)"/><path class="cls-9" d="M549 228.13s-.5 3.73 5.44 2.69a37.69 37.69 0 0 1 8.45-.85 4 4 0 0 0 3.56-1.95c.44-.91-.27-2.13-.8-2.67-1.49-1.49-1.62-3.57-7.11-2.66-7.06 1.16-9.54 5.44-9.54 5.44zM532 231.46s.25 4.81-7.52 2.74a106.47 106.47 0 0 0-17-2.52 5.44 5.44 0 0 1-4.51-2.94 2.19 2.19 0 0 1 1.23-3c2.52-1.12 11.24-2.88 18.43-1 9.29 2.39 9.37 6.72 9.37 6.72z"/><path class="cls-1" d="M525.93 243.41s-8.91-13.49-26.49-2c0 .04 9.56 12.59 26.49 2z"/><g clip-path="url(#clip-path-3)"><path class="cls-9" d="M526.53 242.26a6.45 6.45 0 1 1-7.48-5.21 6.44 6.44 0 0 1 7.48 5.21z"/></g><path class="cls-16" d="M498.72 240.47a26.47 26.47 0 0 1 7-3.33 21 21 0 0 1 7.6-1.09 16.2 16.2 0 0 1 7.27 2.2 14.9 14.9 0 0 1 5.36 5.16 14.63 14.63 0 0 0-5.65-4.62 15.28 15.28 0 0 0-7-1.52 19.62 19.62 0 0 0-7 1.6 24.42 24.42 0 0 0-6.15 3.57 1.22 1.22 0 0 1-1.53-1.91.24.24 0 0 1 .1-.06z"/><path class="cls-1" d="M544.21 242.59s7.56-12.34 16.66-3c0 .05-7.38 12.75-16.66 3z"/><g clip-path="url(#clip-path-4)"><path class="cls-9" d="M552.84 240.69c-.78 3.39.47 6.56 2.78 7.1s4.83-1.78 5.61-5.16-.47-6.56-2.78-7.09-4.83 1.77-5.61 5.15z"/></g><path class="cls-16" d="M559.91 240.39a9.06 9.06 0 0 0-3.36-3 7 7 0 0 0-2.16-.69 3.81 3.81 0 0 0-1.12 0 6.71 6.71 0 0 0-1.18.17 11.16 11.16 0 0 0-4.39 2.11 16.15 16.15 0 0 0-3.49 3.65 16.19 16.19 0 0 1 3.09-4.11 12 12 0 0 1 4.45-2.82 7.58 7.58 0 0 1 1.32-.36c.23 0 .42-.09.69-.13a6.11 6.11 0 0 1 .73 0 8.72 8.72 0 0 1 2.77.53 11.13 11.13 0 0 1 4.58 3.22 1.22 1.22 0 0 1-.11 1.73 1.24 1.24 0 0 1-1.73-.11z"/><path class="cls-18" d="M539.91 265l5.74-2.81-4.96-14.54M533 272.36c7.56 9.26 15.13 0 15.13 0"/><path class="cls-9" d="M480.8 188l30.27-27.12s7.93 10.25 0 19.18S480.8 188 480.8 188zM475.91 199.13s-16.09 17.7-12.12 27.6 12.12-16.24 12.12-16.24z"/><path class="cls-5" d="M511.54 490.53l99.67 9.33 9.5 26-107.44 9a26.61 26.61 0 0 1-22.59-9.41c-5-5.9-7.73-13.55-5.55-21 3.54-11.99 15.28-18.2 26.41-13.92z"/><path class="cls-5" d="M683.15 504.47c1.22-6.48-30.14-7.92-38-6.56l6.51-5.65c1.48-1.58 3.36-6.21 1.57-8.56s-13.7 6.91-13.7 6.91c-6.8 3.89-29.55 9.12-29.55 9.12l-2 25.76c15.06 5 29.28 6.56 40.61 5.39 1.79-.18 25 4.55 26.34.91 1-2.79-24.77-8.93-22.59-9.77 1.2-.46 26.67 7.5 29.86 2.14 2-3.32-28.49-7.46-27.58-9.38.6-1.26 25.75 5.7 28.67 1.14 3.63-5.67-30.35-8.75-28.56-9.74 1.33-.75 27.57 2.82 28.42-1.71z"/><path class="cls-19" d="M539.03 913.39l46.07-5.27v17.4h-44.35l-1.72-12.13z"/><path class="cls-23" d="M431.59 909.44l47.63 6.4-4.51 14.09-43.12-4.41v-16.08z"/></svg>