<svg xmlns="http://www.w3.org/2000/svg" viewBox="0 0 521 457"><defs><style>.cls-4{fill:#5f9992}.cls-6{fill:#fff}.cls-8{fill:#993617}</style></defs><g style="isolation:isolate"><g id="Layer_1" data-name="Layer 1"><path d="M332.83 64.07c-14-.34-76-2.19-91.57-.82-27.33 2.4-93.49 11.25-146.76 69.32-19 20.72-69.56 194.93 9.67 243.76 133.37 82.19 400.25-8 367.91-184.92C445.32 45 353.61 64.58 332.83 64.07z" fill="#c4e5e5"/><path d="M150.52 283.83c-7.45 3.4-22.09 2.58-21.33-.29 0-15.13 38.31-38.94 76.34-59 3.54-2.61-6.91-19.84-1.49-36 17.67 42.95 20.52 42.29 20.52 42.29-19.03 13.88-74.04 53-74.04 53z" fill="#db9579"/><path class="cls-4" d="M118.86 427.15l52.68.17a1.12 1.12 0 0 0 1.12-1.11v-3.3a1.11 1.11 0 0 0-1.11-1.11l-52.68-.18a1.11 1.11 0 0 0-1.11 1.11V426a1.11 1.11 0 0 0 1.1 1.15z"/><path class="cls-4" d="M170.21 405l1.79 15.38c.22 1.89-.85 3.61-2.24 3.61l-48.38-.17a3.53 3.53 0 0 1-3.15-2.26c-.67-1.52-.8-3.8 1.38-6.85 4.35-6.11 20.19-14.72 27.16-19.93l22.54.08c1.24 0 .69 8.43.9 10.14z"/><path class="cls-4" d="M148.55 410.89a1 1 0 0 0 .27-1.26c-.94-2.1-3.89-7.24-9.94-6.21-.34.06-.58.52-.52 1 0 .46.37.77.7.71 5.42-.91 7.93 3.62 8.69 5.39.17.39.5.54.8.37zM143.51 412.85a1.05 1.05 0 0 0 .28-1.26c-.94-2.1-3.89-7.24-9.94-6.21-.35.06-.58.53-.53 1 0 .46.37.77.7.71 5.42-.91 7.93 3.62 8.69 5.39.18.4.51.52.8.37z"/><path class="cls-4" d="M138.83 414.68a1 1 0 0 0 .28-1.26c-.94-2.1-3.89-7.24-9.94-6.21-.34.06-.58.53-.52 1 0 .46.37.77.7.71 5.42-.9 7.93 3.62 8.69 5.39.17.4.5.54.79.37z"/><path d="M156.83 423.94c3.85-12.4 10.43-13.75 14-13.45l1.14 9.89c.22 1.89-.85 3.61-2.24 3.61z" style="mix-blend-mode:multiply" opacity=".3" fill="#5f9992"/><path class="cls-6" d="M98.27 434.66l52.68.17a1.1 1.1 0 0 0 1.11-1.11v-3.3a1.11 1.11 0 0 0-1.11-1.11l-52.68-.18a1.11 1.11 0 0 0-1.11 1.11v3.3a1.12 1.12 0 0 0 1.11 1.12z"/><path class="cls-4" d="M149.62 412.52l1.77 15.37c.22 1.9-.85 3.61-2.24 3.61l-48.38-.16a3.55 3.55 0 0 1-3.15-2.27c-.67-1.52-.8-3.79 1.38-6.85 4.35-6.11 18.58-7.55 25.56-12.76l22.54.08c1.26 0 2.33 1.27 2.52 2.98z"/><path class="cls-6" d="M128 418.4a1 1 0 0 0 .28-1.25c-.94-2.11-3.89-7.25-9.94-6.21-.35.05-.58.52-.53 1 0 .46.37.77.7.71 5.42-.9 7.93 3.62 8.69 5.39.13.39.46.54.8.36zM122.92 420.36a1 1 0 0 0 .28-1.25c-.94-2.11-3.89-7.25-9.94-6.21-.35.06-.58.52-.53 1 .05.47.36.77.7.71 5.42-.9 7.93 3.62 8.69 5.39.17.39.51.54.8.36z"/><path class="cls-6" d="M118.24 422.19a1 1 0 0 0 .28-1.25c-.94-2.11-3.89-7.25-9.94-6.21-.35.06-.58.52-.53 1 0 .47.37.77.7.71 5.42-.9 7.93 3.62 8.69 5.39.17.39.56.54.8.36z"/><path d="M136.24 431.46c3.85-12.41 10.43-13.75 14-13.46l1.14 9.89c.22 1.9-.85 3.61-2.24 3.61z" style="mix-blend-mode:multiply" fill="#e87b50" opacity=".3"/><path class="cls-8" d="M150.28 410.8s12.24 4 20.7 2.34c0 0 18-51.64 17.63-52.72S167.54 343 167.54 343s-10.62 26.64-11 27.18-6.26 40.62-6.26 40.62zM184.65 301.54s6-14.78 15.24-13S260.27 343 260.27 343l-14.41 36s-29.52 4-31 0-30.6-42.3-31.68-45.28 1.47-32.18 1.47-32.18z"/><path d="M251.6 367.85c-.37-1.44-71.27-85-82.44-86.47S133.88 285 133.88 285s-18.17 69.85-9.17 125.3c0 0 14 7.21 27.37 4.32l13.84-55.06s35.66 56.53 61 68.14c17.95 8.21 37.42 11 62.88 8.95 15.06-1.22 34.1-13.54 35.61-19.47 3.79-14.85-73.81-49.33-73.81-49.33z" fill="#ad462a"/><path d="M179.25 253.65s-49.34 15.48-50.06 29.89 65.9 2.88 65.9 2.88z" fill="#eca179"/><path d="M248.15 234.08l-29.05-5.52-47.3 21.37s-1 26.17 13.21 41.29l35.05-6.22s-6.25 24.25 17.28 39.85c0 0 8.64 6 3.36 27.85s-9.84 36-9.84 36 44.89 46.81 105.39 28.09c0 0 9.72-154.49-32.05-183.3s-56.05.59-56.05.59z" fill="#8ecddc"/><path d="M246.52 144.22a43 43 0 0 0-22.52 2.34c-8.41 3.38-18 10.4-22.46 25-9 29.16 21.09 52.93 23 64.81s-1.36 30.63 19.88 51.13 17.14 41.5 53.66 37.09 36-48.25 4.32-97.95c-30.06-47.14-17.02-76.46-55.88-82.42z" fill="#ffc569"/><path class="cls-6" d="M152.08 414.58l6.07-26.25c1.49-6.36 3-12.71 4.43-19.09s2.87-12.74 4.22-19.13l1-4.79.92-4.81c.31-1.61.56-3.22.84-4.83s.45-3.23.7-4.85a176.07 176.07 0 0 1-2.84 19.4c-1.22 6.43-2.62 12.81-4 19.19s-3 12.73-4.62 19.06-4.93 19.82-6.72 26.1z"/><path d="M328.43 22.8c-40.87 5.41-70.43 36.63-66.06 69.73 2.75 20.74 18.19 37.3 39.39 45.44l-6.76 23.7 24.39-19.12a90.46 90.46 0 0 0 24.89.12c40.87-5.41 70.44-36.63 66.05-69.73s-41.04-55.54-81.9-50.14z" fill="#f2faff"/><path d="M382.06 99.42l-.25-.25a5.23 5.23 0 0 0 2.42-1.79l.39-.53-.66.05a6.12 6.12 0 0 0-3.25 1.23 29.25 29.25 0 0 0-5.64-3.9 48.88 48.88 0 0 0 6.27-4.8c1.67-1.43 3.46-3.14 3.54-5.36v-.25l-.24-.06a10.39 10.39 0 0 0-6.37.47 9.53 9.53 0 0 0-5.84 8.77c-.94-.4-1.91-.76-2.88-1.09 0-.45 0-.9-.07-1.35 3.63-3.32 5.88-8.22 4.36-13a3.22 3.22 0 0 0-1.2-1.82 3.41 3.41 0 0 0-2.32-.27 19.24 19.24 0 0 0-5.88 1.81 26.37 26.37 0 0 0-4.18-11 38 38 0 0 0-.87-7.11c-1.47-6.53-5.88-14.46-13.84-17.11-9.48-3.17-19 2.08-28.71 8.21l-.23.14a40.81 40.81 0 0 0-6.69 4.89 36.71 36.71 0 0 0-4.73 2.08 16.14 16.14 0 0 0-6.3 5.27l-.25.44c-3 0-5.92.18-8.86.44a5.24 5.24 0 0 0-3.42 1.18 4.78 4.78 0 0 0-1.15 2.73A19 19 0 0 0 286.64 78l-.15.21c-2.33 3.37-1.21 8 1.1 10.82 2.6 3.17 6.53 4.79 9.66 5.84 1.71.57 3.44 1.07 5.18 1.48.91 5.06 3.43 9.77 6.1 14.16 3.34 5.5 8.54 11.72 15 11.72a10.67 10.67 0 0 0 1.93-.18c2.71-.53 5-2.15 7.06-3.59l2.66-1.88.29.06a14.77 14.77 0 0 0 2.74.24 36.11 36.11 0 0 0 7.25-1l-.13-.6c-2.95.62-6.28 1.3-9.44.79q3.22-2.28 6.42-4.58 1.33 0 2.64-.09a14 14 0 0 0 3.87-.2 9.33 9.33 0 0 0 2.8-1.12 16 16 0 0 0 3.51-1.81 15.62 15.62 0 0 0 3.94-3.92 15.52 15.52 0 0 0 8.31-5.33 11.32 11.32 0 0 0 1.31-2.39 14 14 0 0 0 2.5-.57 18.59 18.59 0 0 0 1.74-.7 7.07 7.07 0 0 0 5.72 4.09h.63a6.4 6.4 0 0 0-1.31 4.58 6.7 6.7 0 0 0 7.59 5.55h.19l.05-.19c1.2-4.39-2.24-8.39-3.74-9.97zM351 109.31c-2.26 1.17-5 1.3-7.26 1.38h-.23l1.49-1.09c1.66-1.2 3.29-2.42 4.87-3.66 1.3-.11 2.6-.25 3.89-.43l.63-.1a5.13 5.13 0 0 1-.6 1.74 9.86 9.86 0 0 1-2.79 2.16zm-10.84.71c-4-.85-8.14-1.91-10.89-4.4.09-.18.18-.36.29-.54a77 77 0 0 0 19.17 1c-1.34 1-2.72 2.06-4.12 3.08l-1.95 1.41c-.88-.2-1.72-.37-2.52-.57zm-12.22-5.86a9.17 9.17 0 0 1-.52-.8 8.73 8.73 0 0 1-.79-1.74c1.59.14 3.2.25 4.8.33a10.34 10.34 0 0 0-2.2 2.45c-.45-.07-.88-.16-1.31-.24zm1 .81l-.11.19-.24-.26zm-13.64.55a15.21 15.21 0 0 1-1.93-5.6 35.87 35.87 0 0 0 7.63 3.13c2.18.65 4.4 1.21 6.64 1.66a9 9 0 0 0 .92 1 7.65 7.65 0 0 0-.55 4.37h-.2a30.9 30.9 0 0 1-12.57-4.56zm8.16 4.28a13.27 13.27 0 0 1-4.5-1 7.86 7.86 0 0 1-2.67-2 29.57 29.57 0 0 0 7.11 3zm-13.14-54a34.16 34.16 0 0 1 22.58-.43 28.55 28.55 0 0 1 5.59 2.7 31.19 31.19 0 0 0-11.24 6.62l-.16.15a29 29 0 0 0-4.64.61 70.72 70.72 0 0 0-4.35-.91c-1.85-.32-3.79-.6-5.83-.82s-4.3-.4-6.45-.51a17.64 17.64 0 0 1 3.79-6.67c.16-.28.39-.54.65-.77zm49.15 17.72l-.41-.42a17.17 17.17 0 0 0-7.25-6.85 18.9 18.9 0 0 0-5.16-1.51 28.78 28.78 0 0 0-6.71-6.45 17.53 17.53 0 0 1 9.76.17 19.2 19.2 0 0 1 7.77 5.2 23.28 23.28 0 0 1 2.25 2.81 59.63 59.63 0 0 1-.31 7.02zm1.94 16.33l-.67-.12a11.92 11.92 0 0 0-.19-2.67 13 13 0 0 0 .9-2.55zm-11.77 15.53a76.52 76.52 0 0 1-19.7-.83 10.19 10.19 0 0 1 2-2.15l.52-.38c3.27.14 6.54.15 9.79 0a7.93 7.93 0 0 0 3.69-.76 4.8 4.8 0 0 0 1.71-1.65c1.13-.07 2.25-.15 3.38-.25a7.73 7.73 0 0 1 2.57 2.64c-1.28 1.13-2.6 2.25-4.02 3.35zm4.32-2.82a5.32 5.32 0 0 1 .5 2.26l-.77.11c-1 .14-2 .26-2.95.36 1.05-.92 2.13-1.83 3.16-2.76zm-48.32-21.48zm1.13-4.08l.32.1c-.16.32-.3.65-.44 1l-.39.64c0-.11-.07-.23-.11-.35a9.8 9.8 0 0 1 .62-1.39zm-.9.47c-.07-.26-.14-.52-.2-.78l.51.14c-.11.17-.18.41-.31.63zM316.45 67l1.78-1.83c1 .17 1.9.37 2.82.57a25.67 25.67 0 0 0-3.85 1.39zm43.81 19a8.74 8.74 0 0 0-.46-1.3 9.81 9.81 0 0 0-.81-1.5 11.26 11.26 0 0 1 .71-1.2 11.6 11.6 0 0 1 1.2-1.44 9.73 9.73 0 0 1-.64 5.44zm-.19 3.57l-.95-.14c.3-.44.6-.93.89-1.46a10.65 10.65 0 0 1 .06 1.63zM349 97.41l-.53.07a13.46 13.46 0 0 0 .34-1.45c0-.1 0-.21.05-.32 1 0 2 .05 2.95.05a27.19 27.19 0 0 1-2.81 1.65zm.89 1.42l-1.48.11c.27-.11.54-.23.8-.36h.14a3.93 3.93 0 0 1 .56.25zm-35.81-16.55a8.78 8.78 0 0 0-4.57-4.9c-.43-.2-.87-.39-1.31-.55a63.28 63.28 0 0 1 4.69-6A36 36 0 0 1 318.7 68c1.46.26 2.91.55 4.36.85a44.42 44.42 0 0 0-9.72 19.26c-.66-.14-1.3-.31-1.91-.5a5.43 5.43 0 0 0 2.28-1.94 4.1 4.1 0 0 0 .37-3.39zm3.47-14.47c-.86.36-1.7.76-2.52 1.17a23.44 23.44 0 0 1 2.26-1.21zm8.1-.85a43.9 43.9 0 0 1 6.82 2.75l-1.3.5c-2.3-.63-4.63-1.21-7-1.72.5-.49.99-1.03 1.48-1.49zm-.62-.83l.75-.16-.3.3zm35.33 12.74a9.94 9.94 0 0 1 .35 1 11.84 11.84 0 0 0-1.53 1.81c-.11.15-.19.31-.29.47l.06-.36c.17-1.13.33-2.25.48-3.37.33.14.63.3.93.45zm-.82-1.08v-.27l.28.41zm-1.44 8.86a12.45 12.45 0 0 1-.17 1.35v-.78zm-9.16 3.69q.38-.61.69-1.26c2.26.17 4.58.37 6.91.65a15.69 15.69 0 0 1-2 3.74c-.15.2-.29.39-.45.58-.46.38-.93.74-1.42 1.1h-3.75a20.57 20.57 0 0 0 .02-4.81zm-14.54 8.14l.07.2h.21a14.26 14.26 0 0 0 3.18-.33c.56 0 1.11.05 1.67.06-.77.18-1.54.38-2.31.62l-2.16-.14a36.46 36.46 0 0 1-5.66-.84l-2.16-.71a45.78 45.78 0 0 0 5.15.7c.63.06 1.27.09 1.91.13a2.81 2.81 0 0 0 .1.31zm1.31 1.72c.85.13 1.7.23 2.56.29a28.45 28.45 0 0 1-3.46.09c.3-.14.6-.26.9-.38zm-.33-.67h.32-.06zm1.58.22l.34-.11c1.78.1 3.57.14 5.36.13l-.28.06c-.71.07-1.44.11-2.17.11a25.3 25.3 0 0 1-3.21-.19zm2.26-.64c.34-.08.69-.17 1-.24.74-.17 1.49-.33 2.25-.46q1.77 0 3.54-.12l1.25-.07c-.77.33-1.56.63-2.36.89-1.9.06-3.78.06-5.68 0zm-4.43-1.5a5.32 5.32 0 0 1 0-2.51c.74.09 1.47.12 2.12.15l6.2.24a15.9 15.9 0 0 1-5.37 2.26c-.96-.03-1.96-.08-2.95-.14zM329 89.75h-.26a5 5 0 0 0-.19-.76c.11-.21.23-.41.35-.61a8.93 8.93 0 0 0 .1 1.37zm-.81.6a4.73 4.73 0 0 1-.1 1.24 5.46 5.46 0 0 1-1.66 2.85 18.61 18.61 0 0 1 .53-1.88 21.47 21.47 0 0 1 .9-2.22zm-14.83.94a33.33 33.33 0 0 0 2.78 2.54 24.52 24.52 0 0 1-2.94-1.37c.09-.39.14-.78.2-1.17zm.1-.76c.09-.56.19-1.13.31-1.69.67.14 1.37.24 2.06.34a12.41 12.41 0 0 0 5.38 6 23.43 23.43 0 0 1-3.3-.73 35.08 35.08 0 0 1-4.41-3.92zm23.79-17.88l.18.13a30.47 30.47 0 0 1 2.74 2.29 16 16 0 0 0-6.82 4.67 15.32 15.32 0 0 0-4.25 6.93c0 .12-.05.24-.07.36-.27.4-.53.81-.77 1.23a6.88 6.88 0 0 0-1.58-2.09 8.51 8.51 0 0 0-7.62-2 14.9 14.9 0 0 1 .49-1.52 15.52 15.52 0 0 1 6.56-7.65 23.44 23.44 0 0 1 9.31-2.89c.58.16 1.25.34 1.87.54zm9.81 4.45a4.48 4.48 0 0 1 1.53 3.4 5.37 5.37 0 0 1-1.45 3.36 27.62 27.62 0 0 0-3.95-6.45 23.62 23.62 0 0 1 3.33-.76 5.85 5.85 0 0 1 .58.45zm-4.3-.19c-.44-.51-.89-1-1.36-1.5l.61-.08a6.69 6.69 0 0 1 3.74.83 25.63 25.63 0 0 0-2.95.75zm-.63.2a26.12 26.12 0 0 0-12.07 8.5 16.59 16.59 0 0 1 3.73-5.45c2.44-2.55 4.66-4 6.89-4.6.55.5 1.03 1.02 1.49 1.55zm-.13-2.38a8 8 0 0 0-1.08.16c-.6-.58-1.22-1.13-1.88-1.67 1.45.49 2.88 1 4.31 1.53a6.1 6.1 0 0 0-1.35-.02zm-14.47 15c-2.81-.09-5.71-.38-8.66-.75a11.14 11.14 0 0 1 .09-4.14 7.83 7.83 0 0 1 7.36 1.79 6.1 6.1 0 0 1 1.62 2.31c-.15.25-.29.51-.42.78zm-11.21-1.09a8.61 8.61 0 0 1-.47-2.1 9.84 9.84 0 0 1 2.43-1.45 11.36 11.36 0 0 0 0 3.81zm2 .89a10.14 10.14 0 0 0 1.12 2.85 11.27 11.27 0 0 0 1.3 1.78 11.72 11.72 0 0 1-4.19-4.87zm7.46-15.08a16.13 16.13 0 0 0-6.78 8 13.39 13.39 0 0 0-.61 2 10.46 10.46 0 0 0-2.6 1.41c.05-3.63 2.5-7.16 7.3-10.52a42 42 0 0 1 8.1-4.39c.94.26 1.88.52 2.82.8a23.28 23.28 0 0 0-8.21 2.69zm-3 .3c-5 3.47-7.51 7.18-7.56 11v.52a14.19 14.19 0 0 0-1 1A43.88 43.88 0 0 1 323.74 69q3.27.7 6.51 1.58a42.32 42.32 0 0 0-7.49 4.16zM315.28 87a9.88 9.88 0 0 0 .35 1.5c-.51-.07-1-.15-1.53-.24a11.73 11.73 0 0 1 1.18-1.26zm4.71 5a9.54 9.54 0 0 1-1-2.46c2.8.35 5.55.62 8.23.72q-.45 1-.81 2a20.27 20.27 0 0 0-.7 2.69 10 10 0 0 1-1.46.83c-.37-.13-.74-.28-1.1-.43a10.63 10.63 0 0 1-3.15-3.29zm9.66-4.8a25.26 25.26 0 0 1 13-9.65 26.61 26.61 0 0 1 4.12 6.74 12.16 12.16 0 0 1-2.22 1.71c-4.42 2.73-9.48 3.66-14.88 3.71a7.72 7.72 0 0 1-.02-2.45zm15.22-.7A12.32 12.32 0 0 0 347 85a23.48 23.48 0 0 1 1 3.39c-3.31-.19-6.32-.12-9.06 1.16a8.9 8.9 0 0 0-4.51 4.91 6.55 6.55 0 0 1-2.32-.81 5.39 5.39 0 0 1-2.3-3.25c5.44-.1 10.56-1.06 15.06-3.84zM337 94.64c-.63 0-1.3 0-2-.13a8.34 8.34 0 0 1 4.16-4.45c2.66-1.24 5.63-1.29 8.93-1.09.07.41.14.82.19 1.23l-.33.52a17 17 0 0 1-4 4.2zm11.42-3.47a19 19 0 0 1-.07 3.92l-2-.08-1.41-.01a17.12 17.12 0 0 0 3.47-3.83zm-1-6.68a6.14 6.14 0 0 0 1.8-4 5.06 5.06 0 0 0-1.72-3.85 1.58 1.58 0 0 0-.15-.12l.43-.05 1.31.54c.66.28 1.32.57 2 .87a21.07 21.07 0 0 1-1.82 10.54h-.64a23.26 23.26 0 0 0-1.19-3.93zm9.91 2.61c-.17.7-.37 1.38-.59 2-2.31-.28-4.61-.48-6.85-.66a21.71 21.71 0 0 0 1.81-10.28 18 18 0 0 1 6.07 4.43c.09.41.17.83.23 1.26v.14a10.84 10.84 0 0 0-.65 3.11zm.08 2.12h-.06a.65.65 0 0 0 0-.13s.07.09.08.13zm.93-7.52l-.06.41a12.18 12.18 0 0 0-.48-1.48 17.37 17.37 0 0 0-1.8-3.49 21.28 21.28 0 0 1 2.91 1c-.19 1.19-.37 2.37-.55 3.56zm-1.11-.85c.06.15.11.31.17.47a20.87 20.87 0 0 0-5.76-3.82c0-.36-.08-.72-.13-1.09a23.31 23.31 0 0 1 3.52.5 17 17 0 0 1 2.22 3.94zM351 77.2c-.55-.25-1.11-.5-1.67-.73l-.18-.07h1.72c.06.26.13.53.13.8zM349 89l-.17.32-.06-.34zm8.19.78h.34a13.07 13.07 0 0 1-.48 1.37c-.31.35-.62.69-.95 1a16.65 16.65 0 0 0 1.06-2.34zM359 77.53a22.83 22.83 0 0 0-3.24-1.09l-.32-.07a21.85 21.85 0 0 0-3-3.24 13.85 13.85 0 0 1 6.56 3.73v.67zm-4.5-1.37a22 22 0 0 0-3-.36c0-.16 0-.31-.07-.46a23 23 0 0 0-.65-2.6l.27.05a23.07 23.07 0 0 1 3.41 3.37zm-3.7-.71v.32a25.9 25.9 0 0 0-2.92.1q-5.1-2.09-10.31-3.77l-.27-.19a63.94 63.94 0 0 1 8.75.17 38.47 38.47 0 0 1 4 .52 25.89 25.89 0 0 1 .71 2.85zm-1-3.54c-1.16-.2-2.39-.35-3.7-.45a60.5 60.5 0 0 0-9.61-.12c-.8-.54-1.63-1-2.49-1.52a33.19 33.19 0 0 1 8.86-1.65l.66.28a34.83 34.83 0 0 1 6.27 3.46zm-5.41-3.73a24.77 24.77 0 0 1 3.93.37c.41.77.77 1.56 1.1 2.36a35.39 35.39 0 0 0-5.04-2.73zm-8.86 3.27c-1.11-.34-2.23-.66-3.34-1 .34-.13.7-.25 1-.37q1.21.65 2.33 1.37zm-12-3.11c-1.23-.27-2.46-.51-3.7-.74 1.27-.45 2.6-.84 4-1.18l1.19.34c-.53.51-1.02 1.04-1.5 1.58zM313 88.68c-.18.24-.34.51-.51.77-.33-.38-.65-.77-1-1.17.51.15 1.02.28 1.51.4zm0 1.12a.88.88 0 0 1 0 .16zm-.14.93c-.07.46-.14.93-.19 1.39l-.7-.43c.19-.4.41-.81.64-1.23zm.32 2.39a24.35 24.35 0 0 0 4.5 1.89c1 .7 2 1.34 3 1.94a20.81 20.81 0 0 1-2.86.3c-1.59.06-3.18 0-4.76 0v-1c-.06-1.07.02-2.1.12-3.13zm6.22 2.33a21.84 21.84 0 0 0 3.21.49v-.07l.24.11c.14.1.3.19.45.28a15.56 15.56 0 0 1-1.75.51c-.73-.41-1.44-.85-2.15-1.32zm4.6 1.22h.06v.1l.77.29.69.32v1.19a30.44 30.44 0 0 1-3.08-1.41 14.18 14.18 0 0 0 1.56-.49zm1.12-.52l.51-.29-.06.43zm3.64-4.43a5.22 5.22 0 0 0 .12-1.36h.33a6.08 6.08 0 0 0 2.61 3.77 7.33 7.33 0 0 0 2.46.88 5.93 5.93 0 0 0-.1 2.55l-1.7-.13a38 38 0 0 1-6.31-1c0-.36.09-.71.15-1.06a6.13 6.13 0 0 0 2.4-3.65zm.5 6.92a49.06 49.06 0 0 0 5.37 1.37c-.34.15-.68.32-1 .5-.69-.06-1.38-.14-2.06-.25a28.76 28.76 0 0 1-5.45-1.42 11.77 11.77 0 0 1 0-1.18 23.79 23.79 0 0 0 3.1.98zm4.49 2.49a29.53 29.53 0 0 0 8.75-.69 21.64 21.64 0 0 0 3.94-.77h.38a4.15 4.15 0 0 1-1.23 1.07 7.38 7.38 0 0 1-3.41.68c-3 .11-5.93.11-8.89 0zm13.78-3.54a17.43 17.43 0 0 0-5 .21h-2.6a17.41 17.41 0 0 0 4.33-2.27l2.16.09 1.92.07a2 2 0 0 1 0 .24 11.84 11.84 0 0 1-.38 1.63zm5.89-1.85h.06l-.22.16zm.63-.63c.19-.21.38-.42.56-.64.44-.36.86-.74 1.26-1.13a9.8 9.8 0 0 1-1.58 1.76zm3.64-3.7c.08-.09.16-.2.24-.3a8.23 8.23 0 0 0 1.57 2.71c-.06.25-.12.5-.19.76a36.29 36.29 0 0 1-4 .47 11.61 11.61 0 0 0 2.34-3.64zm.7-.86l.39-.53 1.31.2a20.65 20.65 0 0 1-.42 2.85 7.7 7.7 0 0 1-1.32-2.52zm1.61 3.79l.09.08h-.12zm-1.52-5h-.12a15.07 15.07 0 0 0 .33-5.35v-.1a8.3 8.3 0 0 1 .55 1.07 10.18 10.18 0 0 1 .62 2 18.48 18.48 0 0 1-1.41 2.41zm2.23-11.2a8.7 8.7 0 0 0-1-1.5l.09-.79c.3.76.6 1.53.88 2.32zm-1.54-2.1a16 16 0 0 0-7.9-3.85q-.47-.36-.93-.69a27 27 0 0 0-1.23-2.82 21.83 21.83 0 0 1 6.2 2.32 15.06 15.06 0 0 1 3.22 2.39c.27.45.53.93.77 1.41-.07.45-.11.86-.16 1.27zm-3.56-5.57a22.19 22.19 0 0 0-6.9-2.47 25.52 25.52 0 0 0-1.6-2.6 17.67 17.67 0 0 1 4.38 1.36 15.64 15.64 0 0 1 5.77 4.81 18 18 0 0 0-1.68-1.07zm-7.64-2.63a26.7 26.7 0 0 0-5-.29A39.75 39.75 0 0 0 333 65a79.71 79.71 0 0 1 8.4-.14 42.39 42.39 0 0 1 4.88.39 28.76 28.76 0 0 1 1.66 2.62zm-6.45-.2a34.82 34.82 0 0 0-8.23 1.77 43.46 43.46 0 0 0-7.12-3l.74-.71c.83-.14 1.69-.27 2.55-.38a38.34 38.34 0 0 1 12.03 2.35zm-17.72-1.85h.28zm-1.22.31c-1.36.37-2.68.8-3.94 1.28l-.34-.06a24.58 24.58 0 0 1 4.07-1.27zm-7.07 1.9c.15-.15.28-.3.42-.45h.33zm-7.67 9.36c.48.17 1 .37 1.41.58a8.11 8.11 0 0 1 4.24 4.53 3.44 3.44 0 0 1-.31 2.9 5 5 0 0 1-2.43 1.9 34.72 34.72 0 0 1-2.43-3.78 28.79 28.79 0 0 1-1.68-3.68c.15-.45.32-.9.5-1.34s.46-.76.7-1.12zm2 9.63a7.3 7.3 0 0 1-3.43-3 6.23 6.23 0 0 1-.47-1.14c.12-.69.26-1.39.45-2.07a27.3 27.3 0 0 0 1.44 3A33.19 33.19 0 0 0 309.8 87zm-2.44-10.44l-.28-.1a14.56 14.56 0 0 1 1.59-2.13 22.46 22.46 0 0 0-1.35 2.22zm-1.51 2.87v-.07zm-.79 5.39c-.22-.35-.44-.7-.64-1.06.21-.54.45-1.07.69-1.6 0 .24.1.47.16.71s-.07.42-.1.64c-.09.43-.13.87-.15 1.3zm.67-.77a2 2 0 0 1 .1.21 8 8 0 0 0 3.94 3.4 16.84 16.84 0 0 1-2 .56 22 22 0 0 1-2.09-2.54c-.08-.55-.05-1.09.01-1.67zm4.45 4.11l.37-.14c.52.68 1.06 1.35 1.62 2-.25.44-.5.89-.73 1.36a23.83 23.83 0 0 1-3.21-2.62 19 19 0 0 0 1.91-.61zm1.53 4.11c.29.19.59.37.89.54-.12 1.14-.18 2.28-.19 3.42v1c-.69 0-1.38-.09-2.06-.16l-.13-.12c.09-.49.2-1 .33-1.43a23.1 23.1 0 0 1 1.12-3.26zm.74 5.56c0 .25 0 .5.06.74l-.43-.14c-.32-.22-.63-.45-.93-.7.39.03.81.07 1.26.09zm9.47 2.69a54.4 54.4 0 0 1-8.77-1.75c0-.32-.06-.62-.07-.91 1.57.08 3.16.08 4.74 0a20.2 20.2 0 0 0 3.64-.45 31.17 31.17 0 0 0 4 1.86 11.82 11.82 0 0 0 .27 1.65q-1.93-.17-3.85-.41zm4 1a9.63 9.63 0 0 0 .93 2.12c.06.11.13.21.19.31-2-.43-4-.93-5.94-1.52a35.87 35.87 0 0 1-7.1-2.84 60.21 60.21 0 0 0 7.83 1.49c1.33.21 2.7.35 4.07.48zm.19-2a29.76 29.76 0 0 0 5.29 1.35c.42.07.84.13 1.26.17-.18.11-.34.23-.51.34q-2.88-.12-5.75-.39a10.91 10.91 0 0 1-.31-1.47zm25.78-.26l2.17-.25a18.93 18.93 0 0 0 3-.61c-1 1.09-2 2.14-3.07 3.16a8 8 0 0 0-2.12-2.3zm2.11-.87c-1 .13-2 .24-2.94.34a7.87 7.87 0 0 0-1.1-.52c.36-.2.7-.4 1-.61a8.46 8.46 0 0 0 .8-.28 10 10 0 0 0 2.72-1.61 36.9 36.9 0 0 0 4.56-.47c-.11.4-.23.8-.36 1.21s-.55.68-.82 1a15 15 0 0 1-3.9.94zm6.52-3.44h.19c-.06.12-.11.23-.18.35a4.67 4.67 0 0 1-1.2 1.34c.39-.54.79-1.1 1.17-1.69zm.46-.73zm1-3.66h.22c-.08.17-.15.34-.23.5v-.54zm-.62.36v1.51c-.27.52-.55 1-.85 1.52-.11-.09-.21-.19-.32-.3a20.59 20.59 0 0 0 .52-3.32l.7.12zm-15.67-26.33c-1.44-.18-2.9-.26-4.33-.31a73.83 73.83 0 0 0-12 .5H328a30.05 30.05 0 0 1 11.1-6.3 28.43 28.43 0 0 1 6.63 6.11zm-33.61-.28q2.82.3 5.38.74c-.6.61-1.19 1.23-1.79 1.85-3.5-.55-7-1-10.57-1.27.11-.62.26-1.23.43-1.84q3.29.17 6.55.52zm3.08 3.13c-.58.62-1.16 1.24-1.73 1.87a18.52 18.52 0 0 0-2.29 2 16.83 16.83 0 0 0-4.7 5c-.32-.1-.65-.18-1-.26a26 26 0 0 1-.46-9.78q5.13.39 10.18 1.17zm-10.36 8.43c-1-.24-2.1-.43-3.15-.61a22.92 22.92 0 0 1 .73-9.22c.67 0 1.33.1 2 .15a26.72 26.72 0 0 0 .42 9.68zm.15.65q.22.94.51 1.86a8.49 8.49 0 0 0-.47 2.55c-.36.7-.68 1.4-1 2.12a23.3 23.3 0 0 1-2.27-7.16c1.09.19 2.17.39 3.24.63zm-.85 8c.26.44.53.87.81 1.28 0 0 .05.06.07.1a18.18 18.18 0 0 0 .19 2.68 20 20 0 0 1-2.19 0 24 24 0 0 1 1.12-4.09zm1.51 2.22c.43.57.88 1.12 1.36 1.64-.4.06-.79.11-1.19.15a17.23 17.23 0 0 1-.17-1.82zm1.86 2.17a24.9 24.9 0 0 0 3.67 3 23 23 0 0 0-1.2 3.43c-.1.34-.18.71-.26 1.08-.19-.19-.37-.38-.54-.58a14.07 14.07 0 0 1-3.25-6.75c.53-.08 1.07-.08 1.58-.21zm2.7 8.85h-.08zM311.8 99l.82.54a17 17 0 0 0 1.49 5.22c-.38-.29-.76-.59-1.13-.91a8.26 8.26 0 0 1-2.66-3.55 5.75 5.75 0 0 1-.24-1.93c.57.19 1.14.39 1.72.63zm43.2 5.69a5.82 5.82 0 0 0-.64-2.61 45.47 45.47 0 0 0 3.86-4 35.64 35.64 0 0 1-2.67 6.52zm.14.59l-.23.34a2.87 2.87 0 0 0 .05-.31zm3.69-7.13l.18-.55a5.51 5.51 0 0 0 2.06-2 3.18 3.18 0 0 0 .16-.32c.21.14.43.26.65.38a21.62 21.62 0 0 1-3.2 8.17c-.8.23-1.58.42-2.35.58a38.59 38.59 0 0 0 2.51-6.26zm2.64-3.41l.6-.16c0 .16-.06.33-.08.5-.16-.08-.34-.23-.51-.34zm.21-.72a8.93 8.93 0 0 0 .21-1.44c.17-.32.34-.64.49-1 0 .73-.11 1.49-.21 2.27zm.27-4.09v-6.32a36.86 36.86 0 0 1 .45 6.3v.11zm0-9.54v-.59a18.68 18.68 0 0 1 2.15 1.67 24.9 24.9 0 0 1-1 6.7c0-.43 0-.83-.06-1.18a36.44 36.44 0 0 0-1.04-6.6zm1.1 9.75V90a25.21 25.21 0 0 0 1.61-8 15 15 0 0 1 2.43 3.1 13.49 13.49 0 0 1 1.74 5.12c-.4.36-.81.7-1.23 1-1.48-.4-3-.76-4.54-1.08zm3.9 1.57a14.75 14.75 0 0 1-1.89 1.07 22.93 22.93 0 0 1-2.25.9c.12-1 .19-2 .22-2.92 1.34.24 2.65.59 3.97.95zm-4.23 2.64a21.22 21.22 0 0 0 2.6-1 16.23 16.23 0 0 0 2.41-1.4l1.2.38a12.3 12.3 0 0 1-.71 3.79 11.12 11.12 0 0 1-5.65-.77c.06-.35.12-.68.16-1zm6.21-2.67l-.59-.2.56-.45zM370.4 76a2.88 2.88 0 0 1 1.92.18 2.68 2.68 0 0 1 .94 1.48c1.37 4.33-.64 8.87-3.89 12a13.86 13.86 0 0 0-1.74-4.93 15.73 15.73 0 0 0-2.94-3.61 26.28 26.28 0 0 0-.17-3.32 18.25 18.25 0 0 1 5.88-1.8zm-6.31 4.63a17 17 0 0 0-1.79-1.34 13.6 13.6 0 0 1 1.64-1.13c.06.84.14 1.69.15 2.51zm-.22-3.12a15.51 15.51 0 0 0-2.05 1.36 10.93 10.93 0 0 0-.82-3 9.76 9.76 0 0 0-1-1.74 64.29 64.29 0 0 0 .32-6.77 25.94 25.94 0 0 1 3.55 10.19zm-46.93-26.63l.22-.14c7.63-4.81 15.12-9.07 22.5-9.07a17.7 17.7 0 0 1 5.7.92c7.72 2.57 12 10.3 13.43 16.66a36.46 36.46 0 0 1 .81 6.06 24.84 24.84 0 0 0-1.74-2.1 19.82 19.82 0 0 0-8-5.36 18.27 18.27 0 0 0-10.62 0 29 29 0 0 0-6.17-3 34.46 34.46 0 0 0-21.65 0 49.2 49.2 0 0 1 5.52-3.97zm-17.53 12c1.53-2.48 4.2-4.07 6.06-5.06a35 35 0 0 1 3.47-1.6 18.13 18.13 0 0 0-3.84 6.89c-1.91-.09-3.83-.14-5.75-.13zm-.4.71c2 0 3.95 0 5.92.12a18.45 18.45 0 0 0-.41 1.82c-.77-.06-1.53-.13-2.3-.18H302l-.08.23a23.52 23.52 0 0 0-.83 9.52 39.58 39.58 0 0 0-4.2-.51 43.49 43.49 0 0 1 .66-6 18.15 18.15 0 0 1 1.45-4.95zm-13.2 3.85a4.35 4.35 0 0 1 1-2.4 4.81 4.81 0 0 1 3-1c2.82-.25 5.66-.4 8.49-.44a19.62 19.62 0 0 0-1.4 4.82 43 43 0 0 0-.67 6.13c-3.44-.13-7 .43-9.17 2.89a18.31 18.31 0 0 1-1.25-9.95zm12.78 20.32a17.78 17.78 0 0 1-11.24-9.7c2-2.47 5.5-3 8.88-2.9a28.94 28.94 0 0 0 2.36 12.65zm-1.14 6.5c-3.06-1-6.89-2.59-9.39-5.65-2.15-2.62-3.21-6.88-1.12-10a18.4 18.4 0 0 0 12 9.89 19.57 19.57 0 0 0 3.13 4.52v.14a23 23 0 0 0 .23 2.5q-2.44-.53-4.85-1.35zm2.28-5.57a18.91 18.91 0 0 0 2.58.39 23.21 23.21 0 0 0-.24 3 19 19 0 0 1-2.34-3.34zm2.68-.21a21 21 0 0 1-3-.5 28 28 0 0 1-2.53-12.79 41.12 41.12 0 0 1 4.12.5h.19a23.92 23.92 0 0 0 2.6 8 24.49 24.49 0 0 0-1.38 4.84zm.28 4.29a21.06 21.06 0 0 1 .24-3.65 17.34 17.34 0 0 0 2.39 0 14.68 14.68 0 0 0 3.4 7.09c.21.24.43.48.66.7l-1.2-.14a20.51 20.51 0 0 1-5.47-4zm0 .9a20.21 20.21 0 0 0 3.73 2.82c-1.17-.19-2.33-.41-3.49-.68-.08-.66-.16-1.37-.21-2.09zM332.16 118c-2 1.4-4.25 3-6.82 3.49-7 1.34-12.72-5.38-16.29-11.26-2.59-4.26-5-8.82-6-13.69q2.44.54 4.92.87c.49.25 1 .47 1.48.69a6.36 6.36 0 0 0 .26 2.36 8.82 8.82 0 0 0 2.84 3.83 24.12 24.12 0 0 0 2.24 1.71 9 9 0 0 0 3.83 3.42 16.13 16.13 0 0 0 5.62 1.07l3.4.23.44.06c.85 2.93 3.58 4.85 6.28 5.64zm2.88-2c-2.6-.63-5.34-2.37-6.27-5.09a71.43 71.43 0 0 0 9.7.55c.94 0 1.87.08 2.8.1zm3.44-5.15l-2.24-.14-7.66-.51a6.77 6.77 0 0 1 .41-4c2.91 2.51 7.13 3.61 11 4.43l.66.14c-.71.01-1.43.03-2.17.03zm16.3-3c-.44.29-.88.55-1.34.8a6.29 6.29 0 0 0 .79-1.07 14.48 14.48 0 0 0 1.72-2.4c.7-.13 1.42-.29 2.15-.48a15.13 15.13 0 0 1-3.32 3.1zm12.1-9.11a14.46 14.46 0 0 1-7.28 4.88 22.4 22.4 0 0 0 2.86-7.63 11.55 11.55 0 0 0 5.51.8 10.6 10.6 0 0 1-1.09 1.9zm4.1-3.18a13.18 13.18 0 0 1-2.08.51 12.87 12.87 0 0 0 .63-3.5c1 .34 2 .72 3 1.14a6.51 6.51 0 0 0 .23 1.15 15.26 15.26 0 0 1-1.76.65zm12.22 2.11a4.81 4.81 0 0 1-1.88 1.07l-.15-.14a5.67 5.67 0 0 1 2.03-.98zm-4.7-12.87a9.7 9.7 0 0 1 5.75-.5c-.19 1.85-1.73 3.32-3.31 4.67a47.49 47.49 0 0 1-6.51 4.93q-.69-.34-1.38-.66a8.84 8.84 0 0 1 5.45-8.44zm-5.36 9.2l.65.31-.52.27c-.05-.23-.1-.43-.13-.58zm5.59 4.93a6.47 6.47 0 0 1-5.24-3.7.64.64 0 0 0 0-.07c.33-.16.66-.34 1-.52a28.44 28.44 0 0 1 5.78 3.92 5.77 5.77 0 0 0-.44.42 5.45 5.45 0 0 1-1.1-.09zm6.52 10.22A5.82 5.82 0 0 1 381 108a5.51 5.51 0 0 1-1-8.28l.12-.14a6.28 6.28 0 0 0 1.07-.17l.47.48c1.34 1.41 4.52 5.18 3.59 9.22z"/></g></g></svg>