<svg id="Layer_1" data-name="Layer 1" xmlns="http://www.w3.org/2000/svg" viewBox="0 0 1456.08 1021.32"><defs><style>.cls-12,.cls-4{fill:#fff}.cls-5{fill:#c4e5e5}.cls-13,.cls-7,.cls-8{fill:none}.cls-12,.cls-13,.cls-7,.cls-8{stroke:#1b1c20}.cls-7,.cls-8{stroke-linecap:round;stroke-width:8.74px}.cls-7{stroke-linejoin:bevel}.cls-8{stroke-linejoin:round}.cls-9{fill:#ffeade}.cls-10{fill:#003b71}.cls-11{fill:#ffc69f}.cls-12,.cls-13{stroke-miterlimit:10;stroke-width:3.83px}.cls-14{fill:#1b1c20}.cls-15{fill:#f5d344}</style></defs><path d="M969.77 18.69l-40.49-6.85q-39.12-4.59-69.48-.95c-69 3.45-120.56 20.38-158.44 39.49a430.72 430.72 0 0 0-67.08 41.5C583 100.53 548.21 119.73 521 137.67c-47.66 31.41-79.47 68.39-108.6 105.49-36.61 46.64-67.27 95-94.94 144-35.78 63.38-66.63 127.84-84.75 195.52-15.92 59.4-25.5 122.39 7.17 190.53 18.47 38.54 53.25 78.19 111.25 118.08C408.63 930.84 506 972.94 605 994c189.11 40.2 293-2.75 347.21-50.14 92.5-17.12 128.21-58.65 146.55-102.71C1155 759.8 1160.3 666 1157.31 571.46a955.23 955.23 0 0 0 30.15-109.08c9.85-46.53 14.82-94 17.24-142.06 1.54-30.51 8.64-59.77-4.08-92.9-7-18.13-22.72-38.18-47.13-57.75-.21-11.73-.83-23.53-4.48-35.94-6.86-23.32-31.48-52.26-76-76.38-28.23-15.3-61.95-30.35-103.24-38.66z" fill="#a7d1d0"/><path d="M545.3 929.69c12.6-11.53 54.08-9 96-65.56 63.07-85.11 59.05-194.77 6.3-286.63-17.67-30.77-41.79-59.22-74-74.18s-73.35-13.89-100.29 9.2c-20 17.1-29.58 43.22-35.86 68.74-21.03 85.64-41.51 304.33-33.45 392.15L490.82 995s29.28-42.25 54.48-65.31z" fill="#de804f"/><rect x="546.33" y="70.77" width="493.28" height="794.11" rx="33.99" transform="rotate(-166.03 792.984 467.8)" fill="#2b5d8a"/><path class="cls-4" transform="rotate(-166.03 792.984 467.8)" d="M578.82 123.09h428.28v689.47H578.82z"/><path class="cls-5" transform="rotate(-76.04 896.077 114.186)" d="M893.69 69.5h4.83v89.33h-4.83z"/><path class="cls-5" d="M825.72 104.47a7.81 7.81 0 0 0 10.37-10.92 7.8 7.8 0 0 0-14.27 2.15 7.78 7.78 0 0 0 3.9 8.77zM830.8 95a3 3 0 0 1 1.2 1 3 3 0 0 1-1 4.08 2.9 2.9 0 0 1-2.25.33 2.86 2.86 0 0 1-1.83-1.34 2.89 2.89 0 0 1-.33-2.24 2.93 2.93 0 0 1 3.59-2.17 2.85 2.85 0 0 1 .62.34z"/><path transform="rotate(14.11 805.886 420.027)" fill="#4f89bd" d="M608.85 243.09h394.39v354.08H608.85z"/><path class="cls-4" transform="rotate(14.11 733.63 704.582)" d="M519.39 604.22h428.74V805.3H519.39z"/><path class="cls-7" d="M672 478.82l-10.07 40.06A17.39 17.39 0 0 0 674.5 540M735 494.66l-10.07 40.07a17.4 17.4 0 0 0 12.63 21.11"/><path class="cls-8" d="M774.19 443.89l16.74 16c11.67 11.17 28.22 22.43 41.38 18.55a19 19 0 0 0 8.48-5.29l-1.06-13.91"/><rect class="cls-9" x="780.38" y="317.56" width="215.64" height="80.68" rx="18.08" transform="rotate(25.13 888.312 357.965)"/><path class="cls-10" d="M820.65 338.75l.74.35a9.55 9.55 0 0 1 1 .56 6.47 6.47 0 0 1 .85.64c.22.21.29.4.2.58a4.74 4.74 0 0 1-.45.8c-.17.24-.33.48-.48.73a18.89 18.89 0 0 1-1.79 2.17 9.8 9.8 0 0 1-2.2 1.74 6.33 6.33 0 0 1-2.55.83 5.19 5.19 0 0 1-2.79-.53 4.59 4.59 0 0 1-2.67-2.94 9.91 9.91 0 0 1-.22-4.12 21.6 21.6 0 0 1 1.11-4.41c.53-1.48 1-2.73 1.36-3.76s.69-1.86 1.08-2.75.77-1.77 1.18-2.64c.57-1.22 1.16-2.43 1.76-3.63s1.18-2.41 1.77-3.67c.47-1 .95-2 1.45-3.13s1-2.19 1.59-3.28a32.49 32.49 0 0 1 1.84-3.13 16 16 0 0 1 2.18-2.66 10.22 10.22 0 0 1 1.45-1.1 8.26 8.26 0 0 1 1.66-.82 5.74 5.74 0 0 1 1.79-.34 3.87 3.87 0 0 1 1.74.37 3.69 3.69 0 0 1 1.75 1.62 7.79 7.79 0 0 1 .77 2.33 13.87 13.87 0 0 1 .15 2.58 21.67 21.67 0 0 1-.22 2.35c-.09.49-.18 1-.28 1.6a5.68 5.68 0 0 1-.44 1.52 2.59 2.59 0 0 1 0 .48 1 1 0 0 1-.11.45c-.13.29-.33.39-.58.29s-.5-.19-.71-.26a9.43 9.43 0 0 0-1.06-.17 7.54 7.54 0 0 1-1.11-.2c.18-.45.4-1.1.66-1.93a14.93 14.93 0 0 0 .58-2.53 7.85 7.85 0 0 0 0-2.38 2 2 0 0 0-1.16-1.56 1.94 1.94 0 0 0-2.16.4 11.42 11.42 0 0 0-2.11 2.28 27.33 27.33 0 0 0-1.79 2.84c-.52 1-.89 1.68-1.11 2.15-.48 1-.93 2-1.36 3.06s-.88 2.05-1.36 3.07c-.56 1.2-1.13 2.36-1.72 3.51s-1.17 2.31-1.73 3.51c-.17.37-.42.92-.73 1.62s-.64 1.51-1 2.4-.63 1.81-.89 2.75a14.94 14.94 0 0 0-.52 2.69 7.32 7.32 0 0 0 .1 2.24 1.88 1.88 0 0 0 1 1.34 2.07 2.07 0 0 0 1.7.08 4.91 4.91 0 0 0 1.51-1 9.63 9.63 0 0 0 1.25-1.52zM830.83 348.85c-.16.5-.3 1-.42 1.46a7.75 7.75 0 0 1-.5 1.42 4.15 4.15 0 0 1-.33.53.93.93 0 0 0-.23.54 1 1 0 0 1-.68.08 7.85 7.85 0 0 1-.93-.23c-.33-.1-.64-.21-.94-.33l-.71-.3c-.52-.25-.79-.46-.8-.62a3.34 3.34 0 0 1 .22-1c.14-.36.27-.73.41-1.09a11 11 0 0 1 .45-1.07c.34-.73.71-1.44 1.11-2.14s.77-1.42 1.11-2.14q3.76-8 7.45-16t7.31-16.05l.75.35c.34.17.71.34 1.08.54a6.73 6.73 0 0 1 1 .59c.28.2.43.36.45.47a.68.68 0 0 1-.08.5c-.09.2-.17.36-.22.48-.52 1.11-1.06 2.19-1.62 3.27s-1.08 2.14-1.59 3.22l-1 2.15c-.33.71-.64 1.42-1 2.15a24.73 24.73 0 0 1-1.41 2.59q-.76 1.25-1.44 2.58a14.14 14.14 0 0 1 3.91-2.38q2.13-.85 4.16-1.88l1.46-.78 2.16-1.15c.76-.39 1.45-.74 2.09-1a3.59 3.59 0 0 1 1.22-.44l1.17 1.93a1 1 0 0 0 0 .12.21.21 0 0 1 0 .12 3.8 3.8 0 0 1-1.42 1.22c-.8.5-1.78 1-2.92 1.62s-2.37 1.18-3.67 1.8l-3.63 1.73c-1.13.54-2.08 1-2.86 1.43a3.49 3.49 0 0 0-1.32.93 1.58 1.58 0 0 0 0 1 9.45 9.45 0 0 1 .17 1c0 .28.1.85.15 1.73s.11 1.9.16 3.08.1 2.42.14 3.72.08 2.52.11 3.64 0 2.09 0 2.87a6 6 0 0 1-.08 1.36.85.85 0 0 1-.53.44 3.45 3.45 0 0 1-.8.18 3.38 3.38 0 0 1-.84 0 5.93 5.93 0 0 1-.71-.14 11.86 11.86 0 0 1-.18-1.72q-.09-1.34-.15-3.21t-.09-4v-3.9-3.11a12.85 12.85 0 0 1 .06-1.49c-1 2.15-2 4.33-2.8 6.54s-1.68 4.5-2.4 6.79z"/><path class="cls-10" d="M852.13 363.22a2 2 0 0 1-1.42.11 9.57 9.57 0 0 1-1.34-.5 16.6 16.6 0 0 1-3.81-2.43 9.35 9.35 0 0 1-2.4-3.12 8.12 8.12 0 0 1-.73-3.78 11.51 11.51 0 0 1 1.18-4.4 8.75 8.75 0 0 1 1.22-1.91 5.56 5.56 0 0 1 1.62-1.35 4.48 4.48 0 0 1 2-.54 5.1 5.1 0 0 1 3.46 1.3 10.43 10.43 0 0 1 1 1c.28.35.54.66.79.93a2 2 0 0 0 .63.54h.12a.16.16 0 0 1 .11 0c.33-.7.76-1.64 1.29-2.81s1.11-2.47 1.72-3.88 1.23-2.9 1.86-4.43 1.2-3 1.69-4.38a34.91 34.91 0 0 0 1.13-3.79 8.65 8.65 0 0 0 .31-2.65 4 4 0 0 0-.51-1.41 2.36 2.36 0 0 0-1.08-1 3.07 3.07 0 0 0-1.59-.29 3.84 3.84 0 0 0-1.52.46 4.53 4.53 0 0 0-1.27 1 5.4 5.4 0 0 0-.91 1.36 4.36 4.36 0 0 1-1 1.51c-.27.2-.83.1-1.67-.3l-.77-.36a6.11 6.11 0 0 1-.84-.47 2.14 2.14 0 0 1-.6-.6.77.77 0 0 1 0-.78 6.13 6.13 0 0 1 1.35-1.74c.64-.61 1.19-1.1 1.66-1.49a12.18 12.18 0 0 1 2.19-1.26 11.23 11.23 0 0 1 2.54-.81 9.61 9.61 0 0 1 2.61-.16 6.72 6.72 0 0 1 2.42.63 5.46 5.46 0 0 1 1.85 1.4 5.31 5.31 0 0 1 1.15 3.1 15.2 15.2 0 0 1-.23 3.84 29.29 29.29 0 0 1-1 3.87c-.42 1.28-.79 2.36-1.09 3.25-.73 2.07-1.51 4.12-2.34 6.12s-1.72 4-2.65 6-1.82 3.82-2.75 5.69-1.85 3.77-2.75 5.7c-.22.46-.44 1-.65 1.5a2.8 2.8 0 0 1-.98 1.33zm-1.17-13a2.6 2.6 0 0 0-2.27-.1 3.12 3.12 0 0 0-1.58 1.6 5.23 5.23 0 0 0-.31 4 4.72 4.72 0 0 0 2.64 2.89.85.85 0 0 0 1.11-.15 4.18 4.18 0 0 0 .65-1 8.16 8.16 0 0 0 .59-1.7 9 9 0 0 1 .6-1.74 3.16 3.16 0 0 0 .44-2.3 3.58 3.58 0 0 0-1.83-1.47zM875.63 367.31a1.49 1.49 0 0 1-1.31.8 3 3 0 0 1-1.59-.19c-.5-.23-.73-.54-.68-.93a3.48 3.48 0 0 1 .32-1.15c.15-.32.32-.63.5-.94s.34-.62.49-.94q1.18-2.54 2.2-5.08c.66-1.69 1.33-3.39 2-5.11a11.73 11.73 0 0 0-1.43-.4 15.73 15.73 0 0 0-1.82-.32 6.48 6.48 0 0 0-1.76 0 2.24 2.24 0 0 0-1.34.62 26.78 26.78 0 0 0-1.92 2.17 17.74 17.74 0 0 0-1.61 2.41c-.41.8-.81 1.64-1.21 2.52a11.87 11.87 0 0 1-1.43 2.42 1.93 1.93 0 0 1-.59.53.78.78 0 0 1-.71 0 2.36 2.36 0 0 1-.51-.34 4 4 0 0 1-.54-.55 4.62 4.62 0 0 1-.45-.64.74.74 0 0 1-.13-.56 8.5 8.5 0 0 1 .83-2.33c.41-.81.78-1.56 1.11-2.26.41-.87.85-1.72 1.32-2.54a13.46 13.46 0 0 1 1.65-2.27 10 10 0 0 1 2.13-1.75 9 9 0 0 1 2.73-1.06 8 8 0 0 1-1.66-5.25 14.69 14.69 0 0 1 1.44-5.4c.17-.35.38-.79.65-1.33s.55-1.08.85-1.65.6-1.1.89-1.61a7.39 7.39 0 0 1 .77-1.13.78.78 0 0 1 .52-.26 3.94 3.94 0 0 1 .77 0 6.93 6.93 0 0 1 .78.1 2.16 2.16 0 0 1 .56.16.7.7 0 0 1 .45.58 2.69 2.69 0 0 1 0 .75 14 14 0 0 1-1 2.66c-.44.86-.85 1.69-1.23 2.51a19.83 19.83 0 0 0-1 2.75 24.32 24.32 0 0 0-.55 2.83 2.34 2.34 0 0 0 .4 1.6 6.91 6.91 0 0 0 1.29 1.51 14.82 14.82 0 0 0 1.65 1.31 15.94 15.94 0 0 0 1.46.92q1.26-3 2.35-6.09t2.48-6a2.71 2.71 0 0 1 .58-.84c.23-.22.54-.23.95 0a6.4 6.4 0 0 1 1.7 1.09c.41.39.41 1 0 1.85a12.24 12.24 0 0 1-.74 1.33 12.32 12.32 0 0 0-.73 1.34 43.35 43.35 0 0 0-1.79 4.44q-.76 2.25-1.68 4.43c.42.16 1 .34 1.59.53a13.08 13.08 0 0 0 2 .44 7.17 7.17 0 0 0 1.9 0 2.28 2.28 0 0 0 1.43-.66 23.43 23.43 0 0 0 1.92-2.17 17.51 17.51 0 0 0 1.62-2.41c.42-.83.83-1.69 1.23-2.57a11.87 11.87 0 0 1 1.43-2.42 1.87 1.87 0 0 1 .57-.48.75.75 0 0 1 .71 0 2.33 2.33 0 0 1 .5.34 5 5 0 0 1 .57.56 3.73 3.73 0 0 1 .45.64.78.78 0 0 1 .11.55 8.2 8.2 0 0 1-.81 2.29q-.62 1.2-1.11 2.25c-.42.9-.87 1.77-1.35 2.59a12.37 12.37 0 0 1-1.63 2.24 9.56 9.56 0 0 1-2.17 1.66 9.84 9.84 0 0 1-2.76 1.11 8 8 0 0 1 1.68 5.23 14.86 14.86 0 0 1-1.45 5.42c-.15.32-.37.76-.64 1.3s-.56 1.11-.87 1.68-.59 1.1-.88 1.6a7.09 7.09 0 0 1-.77 1.14.73.73 0 0 1-.52.24h-.76a3.1 3.1 0 0 1-.76-.09 4.39 4.39 0 0 1-.58-.19.74.74 0 0 1-.45-.56 2.21 2.21 0 0 1 0-.77 12.46 12.46 0 0 1 1-2.61c.45-.85.86-1.7 1.23-2.56a15.66 15.66 0 0 0 1-2.7 27.12 27.12 0 0 0 .53-2.84 2.42 2.42 0 0 0-.45-1.71 9.13 9.13 0 0 0-1.45-1.64 12.16 12.16 0 0 0-1.81-1.35c-.64-.39-1.18-.71-1.64-1-.23.5-.46 1-.68 1.41s-.45.9-.67 1.37a47.37 47.37 0 0 0-1.89 4.66 56.82 56.82 0 0 1-1.78 4.77zM912.86 360.53a5.3 5.3 0 0 0-1.24.83c-.67.52-1.39 1.11-2.16 1.76s-1.5 1.29-2.19 1.9a17.21 17.21 0 0 1-1.52 1.24q-2.07 1.58-4.14 3.2a39.32 39.32 0 0 0-3.91 3.54l-.45.56c-.21.24-.41.48-.61.73a6.6 6.6 0 0 1-.63.66 1.12 1.12 0 0 1-.61.33 2.42 2.42 0 0 1-.46-.09 5 5 0 0 1-.72-.23l-.72-.28-.54-.23a.73.73 0 0 1-.4-.72 3.7 3.7 0 0 1 .16-1.15 11.77 11.77 0 0 1 .44-1.21l.37-.86c.5-1.05 1-2.06 1.59-3s1.09-2 1.59-3q1-2.18 1.91-4.43c.6-1.5 1.24-3 1.92-4.43.28-.58.55-1.15.82-1.69s.54-1.1.8-1.65a13.76 13.76 0 0 0 .67-1.71 14.11 14.11 0 0 1 .67-1.71.84.84 0 0 1 .62-.46 3.92 3.92 0 0 1 1-.09 6 6 0 0 1 1.06.12 3.63 3.63 0 0 1 .77.23.51.51 0 0 1 .29.64 4 4 0 0 1-.25.76c-1.2 2.57-2.42 5.1-3.64 7.6s-2.44 5-3.65 7.59c-.2.43-.39.87-.56 1.31a11 11 0 0 0-.43 1.37 17.63 17.63 0 0 0 1.88-1.17c.79-.54 1.59-1.12 2.4-1.76s1.59-1.25 2.34-1.86 1.32-1.1 1.71-1.49a29.24 29.24 0 0 1 2.63-2.25c.91-.69 1.8-1.43 2.65-2.2.2-.19.45-.46.76-.81l.95-1.11a10.39 10.39 0 0 1 1-1 2.08 2.08 0 0 1 .84-.54 2.45 2.45 0 0 1 1-.07 3.55 3.55 0 0 1 1.07.32 1.11 1.11 0 0 1 .73.82 1.9 1.9 0 0 1-.2 1.13 9.17 9.17 0 0 1-.88 1.48 7.87 7.87 0 0 0-.86 1.43q-2.16 4.59-4.15 9.17t-4.14 9.17c-.33.7-.67 1.39-1 2.06s-.71 1.34-1.1 2c-.24.35-.41.6-.53.74a.62.62 0 0 1-.35.23.82.82 0 0 1-.46-.25c-.19-.09-.45-.19-.78-.31a2.48 2.48 0 0 0-.48-.17 3.24 3.24 0 0 1-.52-.19.55.55 0 0 1-.33-.5 2.58 2.58 0 0 1 .09-.76 7.3 7.3 0 0 1 .26-.79l.25-.6c1.41-3 2.95-5.91 4.61-8.73s3.2-5.74 4.61-8.74a1.48 1.48 0 0 0 .15-.68zM939.87 383.28a6.67 6.67 0 0 1 0 2.44 20.76 20.76 0 0 1-.64 3.09c-.31 1.06-.64 2.08-1 3.06s-.7 1.78-1 2.39a10.35 10.35 0 0 1-1.33 2.15 5.59 5.59 0 0 1-2 1.54 12.35 12.35 0 0 1-1.34.54 11.56 11.56 0 0 1-1.61.42 10.13 10.13 0 0 1-1.63.17 4.75 4.75 0 0 1-1.42-.16c-.15.1-.55.08-1.19-.08s-1.32-.36-2-.62-1.42-.5-2.07-.75-1.07-.43-1.28-.52a2.54 2.54 0 0 1-.87-.57c-.12-.17-.07-.5.17-1a6.34 6.34 0 0 1 .72-1.21 6.5 6.5 0 0 0 .73-1.2q2.48-5.28 5-10.53c1.67-3.49 3.35-7 5-10.57.8-1.69 1.57-3.37 2.34-5s1.53-3.35 2.29-5q.29-.72.51-1.44a12.16 12.16 0 0 1 .56-1.41 5 5 0 0 1 1.09-1.57c.4-.38 1-.39 1.79 0a12.35 12.35 0 0 1 1.91 1.14 11 11 0 0 0 1.92 1.14l.92.43a2.58 2.58 0 0 1 .71.47 1 1 0 0 1 .3.67 2.39 2.39 0 0 1-.29 1.07c-.08.17-.21.43-.39.77a6.36 6.36 0 0 1-.61 1 2.81 2.81 0 0 1-.76.71.8.8 0 0 1-.81.07 4.06 4.06 0 0 1-1.48-1.15 4.3 4.3 0 0 0-1.49-1.15c-.44-.2-.73-.19-.87.05a8.21 8.21 0 0 0-.47.87 23.67 23.67 0 0 0-1.09 2.74 25.16 25.16 0 0 1-1.08 2.69c-.63 1.34-1.26 2.67-1.9 4s-1.21 2.67-1.72 4.06c0 .19-.13.46-.22.81s0 .58.26.7a2.43 2.43 0 0 0 .88.23 2.68 2.68 0 0 1 .92.25 1.89 1.89 0 0 1 .47.3 4.33 4.33 0 0 0 .5.36l2.12 1.51a4 4 0 0 1 1.45 2.09zm-4.65 7.19a9.74 9.74 0 0 0 1.12-3.76 4.31 4.31 0 0 0-.4-2.16 2.74 2.74 0 0 0-1-1.08c-.38-.21-.57-.4-.56-.58a2.62 2.62 0 0 1-.9-.68 2.48 2.48 0 0 0-.86-.67 1 1 0 0 0-1.32.2 5.63 5.63 0 0 0-.78 1.21 14 14 0 0 0-.8 2.16 19.2 19.2 0 0 1-.75 2.17 79.109 79.109 0 0 1-1.62 3.67 7.59 7.59 0 0 1-.68 1.17 8.09 8.09 0 0 0-.68 1.17 1.72 1.72 0 0 0-.16.73.62.62 0 0 0 .4.56 4.19 4.19 0 0 0 1 .29c.41.07.75.11 1 .14a5.64 5.64 0 0 0 3.9-.71 8.4 8.4 0 0 0 2.62-3.06zm1.1.15l-.26.57v-.05zm-.19-7.66zM947.84 402.53a6.62 6.62 0 0 1-1.78-.52 4.7 4.7 0 0 1-2.17-1.95 8 8 0 0 1-1-2.91 13.63 13.63 0 0 1 0-3.44 29.75 29.75 0 0 1 .63-3.56 29.1 29.1 0 0 1 1-3.3c.37-1 .73-1.9 1.05-2.59s.8-1.64 1.32-2.64 1.11-2 1.77-3a28.41 28.41 0 0 1 2.18-2.95 13 13 0 0 1 2.53-2.33 7.37 7.37 0 0 1 2.8-1.19 5 5 0 0 1 3 .46 5.21 5.21 0 0 1 2.62 2.65 9.91 9.91 0 0 1 .84 3.88 16.86 16.86 0 0 1-.43 4.22 18.33 18.33 0 0 1-1.17 3.56c-.46 1-1 1.49-1.6 1.49a5.1 5.1 0 0 1-2.13-.58c-.76-.35-1.5-.72-2.23-1.1s-1.47-.74-2.23-1.09a5.62 5.62 0 0 0-1.91-.53 1.54 1.54 0 0 0-1.55 1.09 8.09 8.09 0 0 0-.47 1.24l-.39 1.28c-.21.51-.49 1.24-.87 2.18a20.32 20.32 0 0 0-.9 3 9.29 9.29 0 0 0-.25 2.85 2.07 2.07 0 0 0 1.2 1.81 1.69 1.69 0 0 0 1.9-.18 7.33 7.33 0 0 0 1.52-1.65q.68-1 1.2-1.92c.34-.62.62-.93.84-.94a1.8 1.8 0 0 1 .67.05 3.24 3.24 0 0 1 .58.22 11.88 11.88 0 0 1 1.11.6c.36.22.73.42 1.1.6s.47.31.44.49a2.8 2.8 0 0 1-.23.67 12.28 12.28 0 0 1-1.52 2.38 11.73 11.73 0 0 1-2.15 2.08 9.09 9.09 0 0 1-2.58 1.35 6.24 6.24 0 0 1-2.74.22zm5-22.23l-.31.42a3.28 3.28 0 0 0-.26.43c-.09.21 0 .41.3.62a4.6 4.6 0 0 0 .66.42 8.47 8.47 0 0 0 1.66.59l1.71.4 1 .29c.27.07.52-.15.77-.68a6.8 6.8 0 0 0 .46-1.65 8.66 8.66 0 0 0 .07-2.1 6.64 6.64 0 0 0-.45-1.94 2.16 2.16 0 0 0-1.09-1.23 1.59 1.59 0 0 0-1.39-.07 3.09 3.09 0 0 0-1.12.86A8.18 8.18 0 0 0 954 378c-.27.48-.48.9-.64 1.25l-.26.54z"/><path class="cls-9" transform="rotate(25.13 829.993 469.039)" d="M824.27 370.89h11.24v196.1h-11.24z"/><circle class="cls-4" cx="675.13" cy="321.69" r="18.09"/><circle class="cls-4" cx="700.15" cy="304.99" r="18.09"/><circle class="cls-4" cx="731.16" cy="304.11" r="18.09"/><circle class="cls-4" cx="763.81" cy="312.31" r="18.09"/><circle class="cls-4" cx="790.6" cy="332.06" r="18.09"/><circle class="cls-4" cx="802.41" cy="359.31" r="18.09"/><circle class="cls-4" cx="801.86" cy="390.84" r="18.09"/><circle class="cls-4" cx="798.34" cy="420.38" r="18.09"/><circle class="cls-4" cx="787.88" cy="446.46" r="18.09"/><circle class="cls-4" cx="773.56" cy="474.09" r="18.09"/><circle class="cls-4" cx="752.22" cy="484.78" r="18.09"/><circle class="cls-4" cx="722.64" cy="486.45" r="18.09"/><circle class="cls-4" cx="693.81" cy="482.68" r="18.09"/><circle class="cls-4" cx="666.73" cy="470.1" r="18.09"/><circle class="cls-4" cx="646.55" cy="453.75" r="18.09"/><circle class="cls-4" cx="642.91" cy="425.07" r="18.09"/><circle class="cls-4" cx="645.29" cy="394.87" r="18.09"/><circle class="cls-4" cx="649.92" cy="366.11" r="18.09"/><circle class="cls-4" cx="664.03" cy="341.02" r="18.09"/><ellipse class="cls-4" cx="722.68" cy="398.99" rx="94.09" ry="78.58" transform="rotate(-75.89 722.715 398.986)"/><path class="cls-11" d="M744.41 326s-30-10.58-41.73-1.75-21.42 53.5-5 81.94 41.67 26 57.41 10.25 19.19-22.34 28-44.74c9.42-23.7 2.91-38.64-38.68-45.7z"/><circle class="cls-12" cx="704.43" cy="367.03" r="22.96"/><circle class="cls-12" cx="760.57" cy="381.13" r="22.96"/><path class="cls-13" d="M727.48 369.53a6.81 6.81 0 0 1 6.13-2.14c3.75.69 5.68 5.1 5.68 5.1"/><path class="cls-14" d="M732.14 408.5c-.73 2.91-4.07 4.58-7.46 3.72s-5.54-3.9-4.81-6.81z"/><path class="cls-13" d="M725 410.88c-2.38 9.5-6.43 8.17-11.51 6.89l-1.61-6.83M725.23 410.94c-2.3 9.19 1.81 10.23 6.89 11.51l2.65-7.67"/><path class="cls-11" d="M714.53 321.83s-36.36-12.94-49.11 7c-9.73 15.23 36.43 11.68 49 6.67 4.58-1.8.11-13.67.11-13.67zM775.07 337s38.15 5.79 39.95 29.41c1.38 18-37.62-6.93-46.32-17.27-3.17-3.74 6.37-12.14 6.37-12.14z"/><circle class="cls-14" cx="703.85" cy="368.47" r="6.16"/><circle class="cls-14" cx="758.48" cy="382.2" r="6.16"/><path class="cls-8" d="M839.95 454.01l.55 15.46"/><circle class="cls-4" cx="722.93" cy="320.69" r="18.09"/><circle class="cls-4" cx="751.51" cy="327.29" r="18.09"/><circle class="cls-4" cx="771.68" cy="332.36" r="18.09"/><path class="cls-10" d="M758.71 698.86q-1.34 5.28-2.74 10.53c-1 3.5-2 7-3.15 10.43a47.42 47.42 0 0 1-2.36 5.65 19.41 19.41 0 0 1-3.36 4.89 12.09 12.09 0 0 1-4.64 3 10.52 10.52 0 0 1-6.27.08 8.79 8.79 0 0 1-4.56-2.64 11.91 11.91 0 0 1-2.46-4.58 24.2 24.2 0 0 1-.91-5.8 42.07 42.07 0 0 1 .17-6.25 58.09 58.09 0 0 1 .9-5.93c.39-1.89.76-3.5 1.1-4.83.22-.9.45-1.81.68-2.72a7.75 7.75 0 0 0 1.35.39c.43.08.86.17 1.29.28a14.68 14.68 0 0 1 2.4.78q.79.36.69 2.13a37.12 37.12 0 0 1-1 5.32 55.13 55.13 0 0 0-1.2 6.93 18.65 18.65 0 0 0 .31 6.37 4.49 4.49 0 0 0 3.48 3.56 4.17 4.17 0 0 0 4.24-1.31 17.84 17.84 0 0 0 3.2-4.77 38 38 0 0 0 2.23-5.81c.59-2 1-3.5 1.28-4.57s.67-2.68 1.15-4.68.93-4.19 1.35-6.55.79-4.76 1.1-7.2a44 44 0 0 0 .35-6.8 17.3 17.3 0 0 0-.87-5.28 3.75 3.75 0 0 0-2.62-2.62 3.32 3.32 0 0 0-3.17.61 8.84 8.84 0 0 0-2.11 2.82 25.2 25.2 0 0 0-1.45 3.55 19 19 0 0 1-1.09 2.78c-.29.5-.51.85-.65 1.07a.8.8 0 0 1-.48.39 1.44 1.44 0 0 1-.67 0l-1.2-.3c-.72-.07-1.42-.15-2.11-.24s-1.39-.17-2.11-.23c.94-3 1.8-6.13 2.58-9.22l2.34-9.27c.42-1.65.78-3.32 1.1-5s.67-3.34 1.09-5a2.91 2.91 0 0 1 1.87-2.38 6.08 6.08 0 0 1 3.13.07c.43.11 1.23.34 2.42.7s2.43.71 3.73 1.06 2.52.71 3.68 1.06 2 .59 2.46.71a18.35 18.35 0 0 0 2.44.44 10.57 10.57 0 0 1 2.37.56 3.34 3.34 0 0 1 1.61 1.17 2.83 2.83 0 0 1 .17 2.38c-.23.91-.39 1.61-.49 2.09s-.55.88-1.36 1.19q-3.72-1.11-8.22-2.12c-3-.67-5.74-1.41-8.2-2.2-.4 1.77-.8 3.5-1.23 5.18s-.85 3.39-1.3 5.15a16.39 16.39 0 0 1 3.65-2.31 6.15 6.15 0 0 1 4.18-.39 6.86 6.86 0 0 1 3.77 2.4 12.81 12.81 0 0 1 2.22 4.34 25.79 25.79 0 0 1 1 5.52 51.84 51.84 0 0 1-.41 11.21c-.25 1.67-.52 3.06-.8 4.18zM784.89 722.48a21.76 21.76 0 0 1-3.79 6 26 26 0 0 1-5.21 4.51 29.52 29.52 0 0 1-6.27 3.1 34.85 34.85 0 0 1-6.88 1.66c-.6.13-1.24.24-1.91.32a4.92 4.92 0 0 1-1.89-.09 1.73 1.73 0 0 1-1.47-1.77 9.42 9.42 0 0 1 .26-2.53c.06-.27.11-.46.14-.56a2.86 2.86 0 0 1 1.32-1.54 6.2 6.2 0 0 1 1.94-.61c.71-.11 1.43-.2 2.15-.27a7.63 7.63 0 0 0 2-.46q2.57-1 5.05-2.3a25 25 0 0 0 4.56-2.93 18.58 18.58 0 0 0 3.62-3.89 15.35 15.35 0 0 0 2.26-5.08A10.27 10.27 0 0 0 781 712a16.14 16.14 0 0 0-1.19-4.21 21 21 0 0 0-2.17-3.87 18.23 18.23 0 0 0-2.74-3.11 6.64 6.64 0 0 0-2.39-1.33 18.38 18.38 0 0 1-2.72-1.15 6.44 6.44 0 0 1-2-1.62 3.09 3.09 0 0 1-.31-2.8 4.13 4.13 0 0 1 2-2.56c1-.65 2-1.26 2.89-1.83q4.53-3.1 8.81-6.61t8.32-7.34q-3.13-.71-6.47-1.17a47.07 47.07 0 0 1-6.34-1.3 6.43 6.43 0 0 1-2.13-.84 1.72 1.72 0 0 1-.73-1 2.59 2.59 0 0 1 .11-1.29q.24-.75.48-1.71c.33-1.33.89-2.11 1.65-2.34a5.73 5.73 0 0 1 3 .11c1.17.3 2.83.66 5 1.09a45.61 45.61 0 0 1 6.24 1.7 18.5 18.5 0 0 1 5.12 2.65 3.53 3.53 0 0 1 1.48 3.9 4.67 4.67 0 0 1-1.46 2.4c-.73.64-1.45 1.24-2.15 1.79q-4.57 3.61-9 7.38t-9.06 7.28a35.16 35.16 0 0 1 5.88 4.33 22.63 22.63 0 0 1 4.3 5.34 17.92 17.92 0 0 1 1.58 13.77 14.78 14.78 0 0 1-2.11 4.82zm-19.39 12.45h-.18.08a3.84 3.84 0 0 0 .56-.2z"/><path class="cls-15" d="M855.15 705.58l-13.83 56.5-24.28-6a1.92 1.92 0 0 1-1.41-2.33L828.55 701a1.88 1.88 0 0 1 .44-.84l.13-.13a1.66 1.66 0 0 1 .3-.22 1.89 1.89 0 0 1 1.46-.22zM917.2 729.43a7.31 7.31 0 0 1-.43.7 8.89 8.89 0 0 1-2.22 2.24l-.52.34a10.76 10.76 0 0 1-2.45 1.09 6.64 6.64 0 0 1 .87 6.21c-.06.15-.11.31-.18.47a5 5 0 0 1-.21.48l-.24.49c-.09.17-.18.34-.28.51-.26.42-.55.86-.89 1.31a6.8 6.8 0 0 1-1.81 1.62 10.16 10.16 0 0 1-4 1.29 9.69 9.69 0 0 1 1.3 9.19 14.16 14.16 0 0 1-.83 1.87 5.9 5.9 0 0 1-1.47 1.8l-.17.13a6.45 6.45 0 0 1-.69.47 9.85 9.85 0 0 1-3.34 1.14l.38.38.24.27a5.88 5.88 0 0 1 .67.92 3.79 3.79 0 0 1 .2.34c.09.17.17.35.25.54a3.54 3.54 0 0 1 .14.39c0 .13.08.26.11.39a5.89 5.89 0 0 1-.2 3.36 6.13 6.13 0 0 1-.36.91q-.23.47-.51 1c-.1.16-.2.31-.31.46a1.77 1.77 0 0 1-.16.22c-.11.14-.23.28-.35.41a7.56 7.56 0 0 1-.78.72 7.75 7.75 0 0 1-.66.46c-.23.14-.46.27-.71.4l-.24.11-.51.22a9.44 9.44 0 0 1-1.06.36l-.84.2a16.25 16.25 0 0 1-2 .3l-1.19.07h-2.39c-.59 0-1.18-.09-1.74-.15l-.56-.07-.82-.11-.52-.08-.26-.05-.5-.08-.93-.18c-1.9-.39-3.16-.78-3.16-.78L853.44 765l-6.95-1.7 13.85-56.53a16.39 16.39 0 0 0 7.45-.26 24.21 24.21 0 0 0 3.4-1.07 71 71 0 0 0 10.05-6c8.31-6 10.3-12.94 12.18-16.41a.09.09 0 0 1 0-.05c.94-1.73 1.86-2.58 3.54-2 4.76 1.74 10.38 11.36-5.68 32.74 1.87.32 4.41.77 7.17 1.33l.43.09h.05l.27.06c1.57.33 3.2.69 4.8 1.08 1 .25 2 .5 2.93.77 3.88 1.07 7.3 2.31 9 3.65a5.6 5.6 0 0 1 1.33 1.54l.11.19c.08.14.14.27.21.41a6.69 6.69 0 0 1 .38 1.09c0 .15.07.3.1.45a7.76 7.76 0 0 1-.86 5.05z"/><g opacity=".29"><path class="cls-4" d="M750.57 866.43l71.94 17.89 80.58-798.26-71.94-17.89-80.58 798.26zM699.07 853.62l31.93 7.94 80.59-798.25-31.94-7.94-80.58 798.25z"/></g><path d="M702.22 522.13l-31.42 20.66a81.53 81.53 0 0 1-85.8 2.32l-55.74-32.48-69.86 83.77 49 82.45c23.6 39.71 48.53 164.93 3.86 225.88-25.06 34.21-60.79 80.48-60.79 80.48l-171.53-42.66 47.78-88.42 3.48-264.55a52.68 52.68 0 0 1 12.8-39.35l116-133.12a57.23 57.23 0 0 1 71.25-12.24l170.28 96a12.45 12.45 0 0 1 .69 21.26z" fill="#eca271"/></svg>