<svg id="Layer_1" data-name="Layer 1" xmlns="http://www.w3.org/2000/svg" viewBox="0 0 1781.33 1021.3"><defs><style>.cls-2{fill:none;stroke:#fff;stroke-miterlimit:10;stroke-width:1.85px}.cls-3{fill:#fff}.cls-4{fill:#e4464e}.cls-6{fill:#fafafa}</style></defs><path d="M1066.7 28c-35.5.4-209.5-6.3-249.2-1.3-69.5 8.7-123 31.9-173.5 56.7-63.4 31.1-120.61 67.3-174.61 105.8C399.6 239 335 292.6 283.89 356.4c-44.9 56-41.19 122.2-33.3 213.7 4.5 51.7-7.9 106 34.91 184.6 180.79 332.3 1316.9 353.5 1211.69-374.6C1442.59 2.2 1119.4 27.5 1066.7 28z" fill="#c4e5e5"/><path class="cls-2" d="M369.5 615.8h360.59c4.2-1.9 7.7-5.4 7.7-9.6V343.1a7.7 7.7 0 0 0-7.7-7.7H369.5a7.7 7.7 0 0 0-7.7 7.7v263.1c0 4.3 3.5 7.7 7.7 9.6zm673 64.9h239.09a8.49 8.49 0 0 0 8.5-8.5V389.7a8.49 8.49 0 0 0-8.5-8.5H1042.5a8.49 8.49 0 0 0-8.5 8.5v282.4a8.51 8.51 0 0 0 8.5 8.6zM1535.59 645.3a11.8 11.8 0 1 1-11.8-11.8 11.7 11.7 0 0 1 11.8 11.8zm-495.8-387.9a11.8 11.8 0 1 1-11.79-11.8 11.81 11.81 0 0 1 11.79 11.8zM351.2 201.9a11.81 11.81 0 1 1-11.81-11.8 11.83 11.83 0 0 1 11.81 11.8zm361.2 9.8h224.4a7.9 7.9 0 1 0 0-15.8H712.4a7.9 7.9 0 1 0 0 15.8zM1303 917.5h151.3a7.9 7.9 0 1 0 0-15.8H1303a7.9 7.9 0 1 0 0 15.8z"/><circle class="cls-3" cx="1162.76" cy="231.71" r="68.1" transform="rotate(-45 1162.757 231.71)"/><path class="cls-3" d="M1130.79 260.5s-13.5 54.4-36.79 65.9c0 0 47 10.5 64.29-51.6.1 0 5.71-40.1-27.5-14.3z"/><path class="cls-4" d="M1175.5 260.1h-.31c.4-.1.4-.1 0 .1-.1.1-.19.1-.19.2-.2.4-.2.3 0 0-.1.6 0-.1 0-.3.09.4.09.4-.1 0 0 .1.1.2.1.3-.2-.4-.2-.4 0-.1.69.2-.6-.1.19.1a.61.61 0 0 0 .4.1c.31.1.2.1-.19-.1h-.1c.3-.1.4-.1.1 0s-.2.1.1 0c-.31.2-.41.2 0 0-.2.3-.31.3-.1.1s.1-.2-.1.2c.1-.4.1-.4 0 .1a.6.6 0 0 1 .1-.4v.2a1.27 1.27 0 0 0-.1-.6c.1.7-.1-.1-.2-.2.2.4.2.4 0 .1a1 1 0 0 0 .5.4c1.6-1.3 3.1-2.6 4.7-3.9a10.44 10.44 0 0 1-1.6 7.9 3.5 3.5 0 0 1-5.6-4.2 2.9 2.9 0 0 0 .3-2.6c-.5-2.4 2.4-5.1 4.7-3.9a7.48 7.48 0 0 1 3.7 9.5 6.94 6.94 0 0 1-9.2 3.8 7.13 7.13 0 0 1-4.2-9 7.6 7.6 0 0 1 9.6-4.4c4.3 1.7 1.8 8.2-2.5 6.6zm-1.31-18.6c4-13.1 7.6-26.3 10.7-39.7l4.1 3.8c-10.9.6-7.8 31.2-8.1 38.9-.2 4.5-7.2 3.8-7-.7.4-10.9-.9-23.5 1.8-34.1 1.5-6 5.7-10.6 12.1-11 2-.1 4.6 1.4 4.1 3.8-3.2 14-6.9 27.8-11.1 41.5-1.3 4.3-7.9 1.8-6.6-2.5zm-29 7h-.3c.4-.1.4-.1 0 .1-.1.1-.2.1-.2.2-.2.4-.2.3 0 0-.1.6 0-.1 0-.3.09.4.09.4-.1 0 0 .1.1.2.1.3-.2-.4-.2-.4 0-.1.7.2-.6-.1.2.1a.6.6 0 0 0 .4.1c.3.1.2.1-.2-.1h-.1c.3-.1.4-.1.1 0s-.2.1.1 0c-.3.2-.41.2 0 0-.2.3-.3.3-.1.1s.1-.2-.1.2c.1-.4.1-.4 0 .1a.6.6 0 0 1 .1-.4v.2a1.27 1.27 0 0 0-.1-.6c.1.7-.1-.1-.2-.2.2.4.2.4 0 .1a1 1 0 0 0 .5.4c1.6-1.3 3.1-2.6 4.7-3.9a10.44 10.44 0 0 1-1.6 7.9 3.5 3.5 0 0 1-5.6-4.2 2.9 2.9 0 0 0 .3-2.6c-.5-2.4 2.4-5.1 4.7-3.9a7.48 7.48 0 0 1 3.7 9.5 6.94 6.94 0 0 1-9.2 3.8 7.13 7.13 0 0 1-4.2-9 7.6 7.6 0 0 1 9.6-4.4c4.2 1.7 1.7 8.2-2.5 6.6zm-1.3-18.6c4-13.1 7.6-26.3 10.7-39.7l4.1 3.8c-10.91.6-7.8 31.2-8.1 38.9-.2 4.5-7.2 3.8-7-.7.4-10.9-.9-23.5 1.8-34.1 1.5-6 5.7-10.6 12.1-11 2-.1 4.59 1.4 4.09 3.8-3.2 14-6.9 27.8-11.09 41.5-1.41 4.3-7.91 1.8-6.6-2.5z"/><path d="M1159 556.4c0-138-111.91-249.9-249.91-249.9S659.2 418.4 659.2 556.4s111.9 249.9 249.89 249.9S1159 694.4 1159 556.4z" fill="#c92434"/><path class="cls-4" d="M1144.7 556.4c0-138-111.91-249.9-249.9-249.9S644.89 418.4 644.89 556.4s111.9 249.9 249.9 249.9 249.9-111.9 249.9-249.9z"/><path class="cls-6" d="M949.09 440.8c-48.4-.8-97.5-1.5-142 1.6-14.09 1-26.3 23.4-9.2 30.5-7.2 3.7-14.5 7.3-17.7 15.3-3 7.7.6 18 8.6 20-16.8-4.2-23.4 22.5-10.3 31.1-6.9 5.9-12.7 13.7-14.2 22.7s2.2 19.1 10.2 23.5c5.2 2.9 11.5 3 17.5 3 20.1.1 40.3.3 60.4.4-5.5 31.5-7.1 65.9 8.9 93.6 4.8 8.3 17.8 18.3 28.1 11.9 9.6-6 7-21 6.5-30.4-2-39.2 20.3-78.7 54.9-97.1.1.1-2.2-83.5-1.7-126.1zM1039.87 567h-73.2V441h73.2z"/></svg>