<svg id="Layer_1" data-name="Layer 1" xmlns="http://www.w3.org/2000/svg" viewBox="0 0 521 457"><defs><style>.cls-20,.cls-21{fill:none}.cls-2{fill:#fff}.cls-20,.cls-21{stroke-miterlimit:10}.cls-9{fill:#21a498}.cls-10{fill:#eca179}.cls-11{fill:#ffe6a1}.cls-12{fill:#dc835e}.cls-16{fill:#3181bc}.cls-18{fill:#ffc569}.cls-20{stroke:#ad462a;stroke-width:2px}.cls-21{stroke:#af4a25;stroke-width:1.71px}</style><clipPath id="clip-path"><path d="M325.6 76.57C311.46 76.22 282 16 232 16c-9.57 0-22.66 62.19-39.4 66.36-31.73 7.91-72.53 25-107.76 63.4C65.63 166.7 14.57 342.68 94.61 392c134.73 83 404.39-8 371.67-186.8C439.25 57.3 346.6 77.08 325.6 76.57z" fill="none"/></clipPath><clipPath id="clip-path-2"><path class="cls-2" d="M266.39 103.33c-.66-3.62-7-1.92-8.9-2-1.67-.07-7.05.39-8 2.33 1.1 4.38 5.68 5.6 9.52 5.79s8.04-2.45 7.38-6.12z"/></clipPath><clipPath id="clip-path-3"><path class="cls-2" d="M280.11 102.66c1.1-1.85 3.83-2 5.78-1.94 1.49 0 3.86.39 4.75 2a5.52 5.52 0 0 1-5.45 5.28c-3.19.14-5.1-2.19-5.08-5.34z"/></clipPath></defs><path d="M325.6 76.57c-14.14-.35-76.74-2.21-92.5-.83-27.61 2.42-94.44 11.36-148.26 70C65.63 166.7 14.57 342.68 94.61 392c134.73 83 404.39-8 371.67-186.8C439.25 57.3 346.6 77.08 325.6 76.57z" fill="#c4e5e5"/><g clip-path="url(#clip-path)"><path d="M283.17 233.83l15.46 69.66a18.18 18.18 0 0 0 23 12.95 18.17 18.17 0 0 0 12.28-21.55l-15.83-75.12z" fill="#d68a69"/><path d="M295.76 319.3S317 533.9 316.44 589.05l-63.95 4.18-20-273.93z" fill="#020403"/><path d="M207.44 319.3c-27.85 65.13-35.8 269.75-35.8 269.75l75.43 4.18 26.7-273.93z" fill="#1b1c20"/><path stroke-miterlimit="10" stroke="#ffebd8" fill="none" d="M259.74 476.55l12-136.5"/><path class="cls-9" d="M297.37 184.12c-.74-.21 19.22 11.09 40.86 65.95l-36.55 28.45-18.34-52.86z"/><path class="cls-9" d="M253.28 170.76s-26 1.62-48.36 14.94a19.26 19.26 0 0 0-9.08 18.89l11.6 114.71h88.32l16.55-96.3c1.27-8.08-.13-27.08-9.88-35-5.75-4.76-21.53-17.24-49.15-17.24z"/><path class="cls-10" d="M226.49 176.19a93.79 93.79 0 0 1 26.79-5.43c14.7-.7 31.18 6.12 31.18 6.12l-15.91 20.52z"/><path d="M303.09 277.31c.65-3.9 1.23-7.8 1.83-11.68s1.1-7.79 1.54-11.69.78-7.8 1.07-11.72.36-7.84.38-11.8a71.13 71.13 0 0 1 .95 11.85 107.09 107.09 0 0 1-.7 11.87c-.48 3.93-1.1 7.85-1.94 11.72a94 94 0 0 1-3.13 11.45z"/><path class="cls-10" d="M174.73 243.06s-12.63 39.47-20.12 74.86a16.85 16.85 0 0 0 10.75 19.38 16.83 16.83 0 0 0 21.81-10.93l27.45-77.09z"/><path class="cls-9" d="M211.4 182.22s-34.23 8.35-55.27 79.51L211 281.34l14.6-54z"/><path d="M204.51 279c1.12.29 2.23.61 3.34.94l3.33 1-.57.27q1.59-5.35 3.33-10.67c1.16-3.55 2.35-7.08 3.6-10.59s2.53-7 3.86-10.49 2.74-6.94 4.23-10.37c-.94 3.62-2 7.2-3.07 10.77s-2.24 7.11-3.44 10.64-2.43 7-3.7 10.55-2.6 7-4 10.45a.42.42 0 0 1-.54.24l-3.19-1.35c-1.07-.39-2.13-.9-3.18-1.39z"/><path class="cls-11" d="M272.5 51.09s-31.85-16.77-53.2 10.58c-10.48 13.42-6.52 39.94-28.54 53.68 0 0 17.51 29.72 68 29.68 53 0 60.54-27.81 60.54-27.81a33.2 33.2 0 0 1-14.4-30.64c1.63-20.94-12.31-47.16-32.4-35.49"/><path class="cls-12" d="M280.26 113.38c1.2 6.17 4.12 8.58 12.23 7.13 6.19-1.1 9.9-8.51 8.7-14.68S295 98.09 288.56 100c-4.48 1.26-9.5 7.21-8.3 13.38z"/><path class="cls-10" d="M248.19 116.12l-7.4 61.56 28.56.25-1.47-54.97-19.69-6.84z"/><path class="cls-12" d="M268.73 156.53c-12.14-3.42-22.4-24.77-22.4-24.77l21.58-4.76z"/><path class="cls-10" d="M248.93 59.16a48.86 48.86 0 0 1 22.13-.84c9.86 2 22.48 6 23.9 23.53 2.37 29.14-1.44 51-16.37 57.55-11.47 5.06-19.76 3.11-32.83-4.3-4.86-2.75-9.51-10.8-10.79-16.38l-5.49-15.58s-14.99-34.89 19.45-43.98z"/><path class="cls-11" d="M228.78 68.86s20.75 8.29 4.39 41L213.1 91l8.12-10.1z"/><path class="cls-10" d="M239 114.71c-1.21 6.17-4.12 8.58-12.24 7.13-6.18-1.1-9.9-8.51-8.7-14.68s6.2-7.74 12.63-5.87c4.52 1.3 9.55 7.25 8.31 13.42z"/><path d="M224.55 108.06s5.78-1.44 8 6.77" stroke-width="3.42" stroke-linecap="round" stroke-linejoin="round" stroke="#ca5e34" fill="none"/><path class="cls-11" d="M223.27 76.84c1.1.74 54.44 5.28 77.73-1.75 0 0-3.12-23.49-42.51-21.23-30.17 1.73-35.22 22.98-35.22 22.98z"/><path d="M276.66 110.61l2.46 5.65-3.3 1.28" stroke-width="2.22" stroke-linecap="round" stroke-linejoin="round" stroke="#ca5e34" fill="none"/><path class="cls-2" d="M266.39 103.33c-.66-3.62-7-1.92-8.9-2-1.67-.07-7.05.39-8 2.33 1.1 4.38 5.68 5.6 9.52 5.79s8.04-2.45 7.38-6.12z"/><g clip-path="url(#clip-path-2)"><path class="cls-16" d="M252.92 105.42c.11 3 2.29 5.58 5.41 5.47s5.13-2.79 5-5.82a5.23 5.23 0 1 0-10.43.35z"/></g><path d="M265.64 104.54A11.77 11.77 0 0 0 262 103a23.83 23.83 0 0 0-8.43-.47 8.67 8.67 0 0 0-3.82 1.52.52.52 0 0 1-.73-.1.53.53 0 0 1 .05-.69 10 10 0 0 1 4.14-2.31 21.54 21.54 0 0 1 4.6-.75 22.44 22.44 0 0 1 4.7.08 14.9 14.9 0 0 1 4.78 1.35 1.67 1.67 0 0 1-1.48 3z"/><path class="cls-2" d="M280.11 102.66c1.1-1.85 3.83-2 5.78-1.94 1.49 0 3.86.39 4.75 2a5.52 5.52 0 0 1-5.45 5.28c-3.19.14-5.1-2.19-5.08-5.34z"/><g clip-path="url(#clip-path-3)"><path class="cls-16" d="M288.5 105c-.19 2.17-1.47 4.89-4 4.66s-3.31-3.12-3.12-5.29 1.48-4.89 4-4.67 3.31 3.1 3.12 5.3z"/></g><path d="M279.17 101.26a11.94 11.94 0 0 1 6.54-1.44 9.2 9.2 0 0 1 3.24.74 5.93 5.93 0 0 1 2.55 2.11.53.53 0 0 1-.14.73.54.54 0 0 1-.67-.07 5.59 5.59 0 0 0-4.92-1.32 9.11 9.11 0 0 0-4.71 2 1.68 1.68 0 1 1-2.21-2.52 1.71 1.71 0 0 1 .27-.2z"/><path class="cls-18" d="M257.13 82.53a21.25 21.25 0 0 0-7.33 3.9c-1.61 1.45-1.84 3.53 1 4 1.79.3 6.88-1.37 7.87-1.54 3.11-.55 10.09-4.1 8.62-6.69-2.04-3.64-7-.47-10.16.33zM288.33 82.19a15.88 15.88 0 0 1 5.54 3.81c1.12 1.35 1.58 3.45-.82 4-1.48.34-5.19-1.22-6-1.53-2.68-1-7.57-4.38-6.48-6.68 1.52-3.23 5.31-.49 7.76.4z"/><path d="M282.21 121.88c-1.3 6.4-10.66 6.4-10.66-.23z" stroke="#000" stroke-width="1.11" stroke-linecap="round" stroke-linejoin="round" fill="none"/><path class="cls-20" d="M245.19 104.89a13.21 13.21 0 1 0 14.31-12 13 13 0 0 0-14.31 12zM278.63 102.13c-1.17 6.47 1.6 13.66 8.57 14.93s12.08-4.5 13.25-11-1.61-13.66-8.57-14.93-12.08 4.53-13.25 11zM278.31 105.22c-2.11-1.56-4.37-1-6.57 0M244.81 104.65l-9.94-2.16"/><path class="cls-10" d="M307.65 287.85l56-84.12 10.48 11.33L337 303.3a22.21 22.21 0 0 1-14.71 13.06c-5.72 1.47-11.7.58-15.66-3.82a17.64 17.64 0 0 1 1.02-24.69z"/><path class="cls-21" d="M320.35 268.78l-12.7 19.07"/><path class="cls-10" d="M359 173.48c-1 .85.18 1.94-.5 4.62-.41 1.6-2.71 5.52-2.78 6-.3 2.17.33 4.07 1.23 6.66s-.35 10.7 4.4 17.55c1.4 2-1.64 7.28-2.9 9.84l11.41 5.55s5.5-11.58 6.2-12.42c6.21-7.43 9.49-10.08 12.59-13.9 1.66-1.5 7.31-6.74 8.77-7.92 1.7-1.38 4.55-6 5.6-8 1.32-2.53 2.32-3.7 1.42-5.6-.55-1.16-2.75-.59-4.79 1.87s-3.53 4.74-4.63 6.13c-1.34 1.69-6 4.7-6 4.7 2-2.59 4.37-5.65 6-7.9a79.12 79.12 0 0 0 5.6-9.6c1.71-3.52 4.19-5.85 3.8-8.09-.18-1-2.14-1.83-4-.34s-4.26 7.35-9.27 13.64a55.25 55.25 0 0 1-4.6 4.7c1.77-2.58 3.28-3.67 4.11-5.46 1.4-3 3.4-6.87 4.76-10.78s2.35-4.32 1.4-6.45c-.45-1-2.6-1.13-4.26 1.34s-3 8.26-5.82 12.12c-1.56 2.09-3.94 3.73-5.4 5.57-1-2.86-2.83-7-4.61-7.73-1.48-.61-4.26-2-6.51-3a3.58 3.58 0 0 0-3.58 0c-2.39 2-6 4.41-6.95 6.5 0 .1.08.15.2.38-.76-.33-.68-.2-.89.02zm3.43 2.59h.12c1.47-.12 5.36-3.67 5.36-3.67l4.94 2.33s1.4 4 1 5.18c-.3.84-1.47 5.74-4.95 7.08-1.48.57-5.27 1.18-6.33-.5s1.56-7 .55-9.2a9 9 0 0 0-.73-1.22zM185.76 316.11L228 373l-10 17-56.66-51.46A22.19 22.19 0 0 1 154 320.3c.54-5.88 3.39-11.21 8.87-13.47a17.65 17.65 0 0 1 22.89 9.28z"/><path class="cls-21" d="M199.44 334.49l-13.68-18.38"/><path transform="rotate(-54.96 222.512 376.252)" fill="#9397a0" d="M199.82 370.73h45.38v11.04h-45.38z"/></g></svg>