<svg id="Layer_1" data-name="Layer 1" xmlns="http://www.w3.org/2000/svg" viewBox="0 0 521 457"><defs><style>.cls-1,.cls-12,.cls-22{fill:none}.cls-2{fill:#fff}.cls-4{fill:#eca179}.cls-5{fill:#93aab5}.cls-6{fill:#f7f7f8}.cls-11{fill:#dc835e}.cls-12,.cls-22{stroke:#ca5e34;stroke-linecap:round;stroke-linejoin:round}.cls-12{stroke-width:1.93px}.cls-14{fill:#b7e1e1}.cls-15{fill:#3181bc}.cls-17{fill:#8ecddc}.cls-18{fill:#e4464e}.cls-20{fill:#ca5e34}.cls-22{stroke-width:1.85px}</style><clipPath id="clip-path"><path class="cls-1" d="M362.13-465c-7.72-.19-30.23-27.66-51.34-28-17.48-.26-30.42 13.25-37.55 13.87-27.57 2.42-97.83 24.63-151.58 83.22-19.19 20.92-70.19 196.69 9.76 246C266-67 535.28-158 502.65-336.54c-27-147.72-119.54-127.97-140.52-128.46z"/></clipPath><clipPath id="clip-path-2"><path class="cls-1" d="M325.6 76.57c-8.08-.2-48.42-70.27-70.38-70.57-16.45-.22-38.16 31.48-44.91 32.08-27.61 2.42-71.65 49-125.47 107.68C65.63 166.7 14.57 342.68 94.61 392c134.73 83 404.39-8 371.67-186.8C439.25 57.3 346.6 77.08 325.6 76.57z"/></clipPath><clipPath id="clip-path-3"><path class="cls-2" d="M257.76 97s-7-11.5-22-2.42c0 .04 7.57 10.77 22 2.42z"/></clipPath><clipPath id="clip-path-4"><path class="cls-2" d="M273 96.9s6.66-10 14-2c0 .1-6.55 10.4-14 2z"/></clipPath></defs><g clip-path="url(#clip-path)"><path class="cls-4" d="M251.93 12.62l-30.95 149.66-17.38-1.08 12.84-153 35.49 4.42z"/><path class="cls-5" d="M225.33 161.65s25.91 5.07 37.85 12.32c4.35 2.64 1.77 7.77.36 8.8-3.26 2.38-54.33 1.1-65.92-.26-4.08-.48.92-16.69 6-21.31z"/><path class="cls-6" d="M223.14 151.87S250.07 164 262 171.25a7.76 7.76 0 0 1 3.54 7.58c-3.26 2.38-57.77.21-69.36-1.15 0 0-1.51-11 6.32-25.81l1.61 6 16.45.34z"/><path class="cls-4" d="M323.85 52.25l-5.12 108.69-19.04.26L281.3 52.25h42.55z"/><path class="cls-5" d="M321.42 161.65s25.92 5.07 37.85 12.32c4.35 2.64 1.78 7.77.36 8.8-3.26 2.38-54.33 1.1-65.91-.26-4.09-.48.92-16.69 6-21.31z"/><path class="cls-6" d="M319.23 151.87s26.93 12.14 38.86 19.38a7.76 7.76 0 0 1 3.55 7.58c-3.26 2.38-57.78.21-69.37-1.15 0 0-1.51-11 6.32-25.81l1.61 6 16.46.34z"/><path d="M305.87-189.1s26.89 108.76 24.93 331.35l-46.61 1.52L243.5-189.1z" fill="#1b1c20"/><path d="M218.82-189.1c-28.28 72.76-18 148.93-21 186.84-4.23 53.18-3.25 144.26-3.25 144.26l39.62 5.37L258.12 9.74l26.07-198.84z" fill="#39373a"/></g><path d="M325.6 76.57c-14.14-.35-76.74-2.21-92.5-.83-27.61 2.42-94.44 11.36-148.26 70C65.63 166.7 14.57 342.68 94.61 392c134.73 83 404.39-8 371.67-186.8C439.25 57.3 346.6 77.08 325.6 76.57z" fill="#c4e5e5"/><g clip-path="url(#clip-path-2)"><path d="M320.24 150.45c-17.35-21.53-14-34.63-17.45-55.65-12.5-76.23-56-52.69-56-52.69s-9.56 174.52 10.58 178.49 30.18-20.76 41.74-25.07a14 14 0 0 1 4.06-.85 130.43 130.43 0 0 0-3-19.69s5.43 6.16 5.43 19.71c9.26.81 17.4 9.21 17.4 9.21s12.3-34.78-2.76-53.46z"/><path d="M255.2 40.33S207.07 10.88 199.82 103c0 0-4.19 29.37-18 49.88s-2.82 42.8-2.82 42.8 3.33-6.9 11-7.92c.33-6.87 1.72-18.23 7.16-23.38 0 0-5.94 8.7-5.4 23.26a17.51 17.51 0 0 1 5.41.8c2.4.74 5.19 2.51 8.3 4.88a60.18 60.18 0 0 1 4.33-11.91s-1.77 5.38-3.31 12.72c13.44 10.57 32.18 30.94 49.09 27.19 21.33-4.73-.38-180.99-.38-180.99z"/><path class="cls-11" d="M274.49 108.18c.75 7.19 3.85 10.25 13.29 9.42 7.2-.64 12.2-8.76 11.45-15.95s-6.31-9.49-13.87-8c-5.27 1.03-11.63 7.35-10.87 14.53z"/><path class="cls-12" d="M291.76 102s-6.48-2.23-9.87 7"/><path class="cls-4" d="M227.58 107.35c-1.64 7-5.1 9.68-14.36 7.67-7.07-1.54-11-10.22-9.36-17.26s7.45-8.63 14.77-6.2c5.09 1.69 10.6 8.75 8.95 15.79z"/><path class="cls-12" d="M211.22 99.07s6.71-1.39 8.92 8.14"/><path d="M243.91 51.4S233.7 72 227.53 82.21s-9.89 12.23-9.89 12.23L210 76.86"/><path d="M174.77 496.8l-1.64 9.54c7.88 1.36 16.75 2.53 27.24 3.35l.79-9.76c4.15.32 8.53.58 13.1.78l-.4 9.81q9.07.39 19.32.4c6.83 0 13.26-.14 19.33-.4l-.39-9.81q6.87-.3 13.11-.78l.79 9.76c10.49-.82 19.39-2 27.24-3.35l-1.63-9.54c4.66-.79 8.89-1.63 12.71-2.49l2 9.38c20.1-4.73 28.3-10 28.3-10L278 289.72h-89.6l-56.66 204s8.22 5.28 28.33 10l2-9.38c3.8.83 8.03 1.66 12.7 2.46z" fill="#1691c9"/><path class="cls-14" d="M160.06 503.7q2.74-16 5.93-31.91c2.08-10.62 4.3-21.21 6.54-31.79s4.58-21.14 7-31.68 5-21.07 7.63-31.55q-2.74 16-5.93 31.91c-2.08 10.62-4.3 21.21-6.54 31.79s-4.59 21.14-7 31.68-5 21.06-7.63 31.55zM279.26 376.76q4 15.72 7.64 31.55c2.43 10.54 4.74 21.11 7 31.68s4.45 21.17 6.54 31.79 4.09 21.24 5.93 31.91q-4-15.72-7.64-31.55c-2.43-10.54-4.74-21.11-7-31.68s-4.45-21.17-6.54-31.79-4.09-21.25-5.93-31.91zM293.3 506.34q-3.39-16.05-6.37-32.18c-2-10.75-3.89-21.52-5.75-32.29s-3.61-21.57-5.27-32.38-3.24-21.62-4.65-32.47q3.4 16.05 6.37 32.18c2 10.75 3.9 21.52 5.75 32.29s3.61 21.57 5.27 32.37 3.24 21.63 4.65 32.48zM255.26 377.53c1.33 11 2.51 21.87 3.52 32.75s1.93 21.75 2.77 32.65 1.59 21.9 2.31 33l2.2 33.75-3.2-32.32c-1.07-10.92-2.1-22-3.09-33.08s-1.87-22.27-2.63-33.43-1.41-22.27-1.88-33.32zM173.14 506.34q2.12-16.27 4.65-32.48c1.66-10.8 3.45-21.59 5.26-32.37s3.74-21.54 5.75-32.29 4.11-21.48 6.37-32.18q-2.11 16.28-4.65 32.47c-1.66 10.81-3.45 21.6-5.26 32.38s-3.74 21.54-5.76 32.29-4.1 21.48-6.36 32.18zM211.17 377.53c-.47 11.05-1.09 22.17-1.86 33.29s-1.64 22.24-2.56 33.34-1.95 22.13-3 33.08-2.19 21.79-3.35 32.45q1-17 2-33.62c.73-11.09 1.53-22.06 2.38-33s1.78-21.83 2.84-32.73 2.22-21.83 3.55-32.81zM252.54 510.51c-.44-11.49-1-22.84-1.6-34l-1.85-33.13c-.56-10.91-1.05-21.76-1.35-32.65s-.48-21.86-.49-32.94c.88 11 1.62 22.21 2.16 33.43s1 22.5 1.29 33.71l.8 33.23q.41 16.44 1.04 32.35zM219.18 377.79c0 11.08-.15 22-.49 32.94s-.78 21.74-1.35 32.65l-1.85 33.13c-.6 11.16-1.16 22.51-1.6 34 .45-10.62.77-21.39 1.05-32.35l.79-33.23c.32-11.21.71-22.48 1.29-33.71s1.29-22.38 2.16-33.43z"/><path class="cls-4" d="M278.22 232.75l17 66.52c2.53 10.78 10.92 17.07 21.54 13.93 9.72-2.88 12.16-13.07 12.16-13.07l-17.86-81.32z"/><path class="cls-15" d="M276.3 266.39s15 13.61 48.95-23.89l-29.57-60.33a27.39 27.39 0 0 0-39.62-8.1 27.38 27.38 0 0 0-8.44 34.28z"/><path class="cls-15" d="M230.85 157.17s-24.91 8.09-44.67 16.15a13.13 13.13 0 0 0-8.18 12.51l-1.1 143.06s73.77 16.9 109.7-10.19l.54-136c.13-5.33-3.25-11.09-8.14-13.22l-27.77-11.35z"/><path class="cls-4" d="M267.47 164.81l-6.38-2.81.27-44.76-22.36-7.88-8.12 47.35-11.21 4.94a49.78 49.78 0 0 0 8.61 10.18l.39.33a34.46 34.46 0 0 0 24.91 8.26c18.87-1.01 13.89-15.61 13.89-15.61zM175 226.54l30.31 63.24a17.86 17.86 0 0 0 24.95 7.22 17.85 17.85 0 0 0 7-23.35l-31.93-68.35z"/><path class="cls-15" d="M179.06 258.3s11.47 7.3 49.53-17.66l-14.54-49.79a24.65 24.65 0 0 0-32.67-16 24.64 24.64 0 0 0-15.1 27.94z"/><path class="cls-4" d="M299.41 185.17c-5 .74-9 2.24-14.39 7.32l-2.41-6.2c-.17-1.91-4.08-7.92-6.72-7.84s.47 8.39 0 10.08l-2.25 9.53c-1.52 7-.61 16.07 2.1 23.41l7.84 8c19.23-9.59 27-18.16 28.67-25.23 2.84-5.59.36-5.6-.63-8-.78-1.88-1.85-1.71-3.25-3.21 1.12-2.24-2.24-6.72-4.48-4.48-.29-.23.94-4.18-4.48-3.38z"/><path class="cls-4" d="M311.62 196.22c-.78-1.88-1-3.21-3.25-3.21 1.12-2.24-2.24-6.72-4.48-4.48M311.73 196.37c.1-2.1-1.12-3.36-3.36-3.36M211 271l66.36-61.08 13.33 14.41-54.23 69.48A17.14 17.14 0 0 1 210.3 295a17.14 17.14 0 0 1 .7-24z"/><path stroke-width="1.51" stroke="#ca5e34" stroke-linecap="round" stroke-linejoin="round" fill="none" d="M233.44 251.02l-16.72 15.11"/><path class="cls-17" d="M326 413.46l24.29 9.26a2.84 2.84 0 0 1 2.31 3.28l-10.77 61.81a2.83 2.83 0 0 1-3.27 2.3l-24.29-9.26a2.85 2.85 0 0 1-2.31-3.28l10.77-61.81a2.84 2.84 0 0 1 3.27-2.3z"/><path class="cls-18" d="M327.29 412.82l24.29 9.26a2.83 2.83 0 0 1 2.3 3.27l-10.76 61.82a2.84 2.84 0 0 1-3.28 2.3l-24.28-9.26a2.84 2.84 0 0 1-2.31-3.28L324 415.12a2.85 2.85 0 0 1 3.29-2.3z"/><path class="cls-4" d="M301 320.34l19 79.19 14.23-13.08-5.09-88.88c-.57-9.94-9.51-17.76-19.32-16.05-.52.09-1.05.21-1.57.35-11.15 3.03-16.19 6.19-7.25 38.47z"/><path class="cls-4" d="M316.24 383.9c-.36 4.86-1.95 9.13-2.88 14-1.49 7.94-3 16.69-1.87 24.77.66 4.7 2.91 9 5.13 13.22.63 1.18 1.77 2.57 3 2.06a2.53 2.53 0 0 0 1.22-1.89c1.17-4.89-.18-10.11.87-15 .26-1.22 1-2.64 2.21-2.62 1.08 0 1.59 1.12 2 1.92.65 1.33 1.53 2.54 2.29 3.82a23.58 23.58 0 0 1 3.48 8.86 30.61 30.61 0 0 1 .15 5q-.07 3.18-.17 6.38a13.23 13.23 0 0 0 .18 3.27 4.48 4.48 0 0 0 1.65 2.75 2 2 0 0 0 2.25.17 6.18 6.18 0 0 0 2.19 1.85 2.44 2.44 0 0 0 2.7-.39 3.38 3.38 0 0 1 .54-.59 2.25 2.25 0 0 1 .89-.27 4.9 4.9 0 0 0 3.21-2.79 14.48 14.48 0 0 0 1.07-4.27 4.27 4.27 0 0 0 2.63-2.78 12.72 12.72 0 0 0 .48-3.94l.2-12.67a44.57 44.57 0 0 0-1.24-10.37 58.61 58.61 0 0 0-4-11.14c-2.91-6.65-8.27-12.79-9.81-19.95-.31-1.44-.53-2.89-.73-4.34z"/><path class="cls-17" d="M328.42 451.8c-2.25-6.47.86-14.5-.22-21.19-.7-4.31-2.65-8.23-4.33-12.25a2.83 2.83 0 0 0-2 2.24l-9.91 56.89c4.49-2.19 8.75-6.17 11.85-9.06 4.64-4.31 6.38-6.33 8.39-12.4a12.67 12.67 0 0 1-3.78-4.23z"/><path class="cls-18" d="M332.07 449.8c-2.24-6.47-1.15-11.72-2.23-18.41-.69-4.26-4.25-8.93-5.92-12.91a2.83 2.83 0 0 0-.75 1.48l-9.89 56.82c5 .87 10.27-1.74 13.06-4.34a46.26 46.26 0 0 0 11.17-17.57c-1.08-.7-5.01-3.82-5.44-5.07z"/><path class="cls-11" d="M260.75 160.07c-13.81-4.47-24.68-29.45-24.68-29.45l25-4.5z"/><path class="cls-4" d="M241.37 43.94a56 56 0 0 1 25.47 0c11.24 2.74 25.57 7.92 26.45 28.08 1.45 33.59-3.87 58.5-21.32 65.43-13.39 5.33-22.84 2.72-37.54-6.36-5.47-3.38-10.47-12.83-11.69-19.3l-5.63-18.15s-15.72-40.75 24.26-49.7z"/><path d="M274.9 85.89s-.64.25 4.35-.41a24.06 24.06 0 0 1 6.72 0c1.26.07 3 1.86 3.46.93a2.24 2.24 0 0 0-.57-2.25c-1.19-1.29-2.88-3.1-7.48-2.54-5.92.72-6.48 4.27-6.48 4.27zM260.13 84.86s-.19 1.31-6.65-.5a51.38 51.38 0 0 0-12.32-2.24c-1.12 0-4.68 1.44-5.16.17a1.83 1.83 0 0 1 1.06-2.45 28.81 28.81 0 0 1 15.36-.66c7.67 2.07 7.71 5.68 7.71 5.68z"/><path class="cls-2" d="M257.76 97s-7-11.5-22-2.42c0 .04 7.57 10.77 22 2.42z"/><g clip-path="url(#clip-path-3)"><path class="cls-20" d="M252.38 95.15a5.37 5.37 0 1 1-6.07-4.55 5.37 5.37 0 0 1 6.07 4.55z"/></g><path d="M235.34 94a22 22 0 0 1 5.82-2.59 17.42 17.42 0 0 1 6.3-.74 13.5 13.5 0 0 1 6 2 12.36 12.36 0 0 1 4.34 4.4 12.22 12.22 0 0 0-4.57-4.07 12.84 12.84 0 0 0-5.81-1.56 16.71 16.71 0 0 0-5.92 1.07 20.85 20.85 0 0 0-5.32 2.76.75.75 0 0 1-.88-1.27z"/><path class="cls-2" d="M273 96.9s6.66-10 14-2c0 .1-6.55 10.4-14 2z"/><g clip-path="url(#clip-path-4)"><path class="cls-20" d="M275.21 95.13c-.88 2.83.08 5.51 2.16 6s4.48-1.45 5.37-4.28-.08-5.51-2.15-6-4.49 1.45-5.38 4.28z"/></g><path d="M286.37 95.39a7.68 7.68 0 0 0-2.84-2.65 5.88 5.88 0 0 0-1.85-.63 3.42 3.42 0 0 0-1 0 4.9 4.9 0 0 0-1 .13 9.22 9.22 0 0 0-3.73 1.7 13.54 13.54 0 0 0-3 3 13.36 13.36 0 0 1 2.74-3.27 9.91 9.91 0 0 1 3.78-2.14 6.85 6.85 0 0 1 1.09-.24 4.45 4.45 0 0 1 1.16-.07 7.07 7.07 0 0 1 2.22.53 9.18 9.18 0 0 1 3.58 2.8.75.75 0 1 1-1.17.93z"/><path class="cls-22" d="M270.47 104.29l3.11 5.1-2.93 2.83M260.42 115.67s7.42 7.09 13.2 2.83"/><path d="M296.28 82.72l-53-28.39s-24.07 31.6-24.55 39.21S204.51 76.93 205.87 69 222 28.79 247 35.88s38.56 7.95 46.53 22.89c5.4 10.09 2.75 23.95 2.75 23.95z"/></g></svg>