<svg id="Layer_1" data-name="Layer 1" xmlns="http://www.w3.org/2000/svg" viewBox="0 0 856 490.33"><defs><style>.cls-5{stroke:#1691c9;stroke-miterlimit:10;fill:none;stroke-width:5px}.cls-10{fill:#003b71}.cls-11{fill:#1691c9}</style></defs><path d="M152 447.12c23.93 12.78 575.76 28.45 583.42-4.48s19.93-355 4.41-373c-.33-.38-18.49-31.85-25.22-32.7-59-7.45-333 1.47-562.65 24.72-25.64 2.6-36.34 289.71-18.76 361.8 2.1 8.61 16.25 22.27 18.8 23.62z" fill="#ffe436"/><path d="M128.54 423.5C152.68 436.22 709.3 451.93 717 419s13.6-364.06-2-382c-3.29-3.73-434.52-18.64-586.41 1.09-28.8 3.67-24.19 372.68-.05 385.41z" stroke-width="6" stroke-miterlimit="10" stroke="#1691c9" fill="#c4e5e5"/><path d="M127.89 76L722 78" stroke-linecap="round" stroke-linejoin="round" fill="none" stroke-width="6" stroke="#1691c9"/><path d="M164.36 121.66h509.91c19 0 34.4 11.63 34.4 26v4.14c0 14.35-15.4 26-34.4 26H164.36c-19 0-34.4-11.64-34.4-26v-4.14c.04-14.37 15.4-26 34.4-26z" fill="#83cdea"/><circle class="cls-5" cx="672.3" cy="149.23" r="10.49"/><path class="cls-5" d="M681.2 154.8l7.78 5.68"/><circle cx="629.99" cy="56.41" r="8.34" stroke-width="4" stroke-linecap="round" stroke-linejoin="round" fill="none" stroke="#1691c9"/><circle cx="655.07" cy="56.41" r="8.34" stroke-width="4" stroke-linecap="round" stroke-linejoin="round" stroke="#1691c9" fill="#ffe436"/><circle cx="680.64" cy="56.41" r="8.34" fill="#003b71" stroke-width="4" stroke-linecap="round" stroke-linejoin="round" stroke="#1691c9"/><path d="M162.92 55.58v6.35a1.18 1.18 0 0 0 1.18 1.16 1.29 1.29 0 0 0 .57-.16l5.51-3.18 5.49-3.16a1.17 1.17 0 0 0 .41-1.59 1.15 1.15 0 0 0-.41-.41l-5.51-3.18-5.49-3.21a1.18 1.18 0 0 0-1.6.44 1.09 1.09 0 0 0-.15.56zm-6 0v-6.36a1.17 1.17 0 0 0-1.19-1.15 1.09 1.09 0 0 0-.56.15l-5.5 3.17-5.51 3.18a1.16 1.16 0 0 0-.42 1.59 1.18 1.18 0 0 0 .42.41l5.51 3.2 5.5 3.16a1.16 1.16 0 0 0 1.59-.43 1.29 1.29 0 0 0 .16-.57z" stroke-width="4" fill="none" stroke-miterlimit="10" stroke="#1691c9"/><path class="cls-10" d="M155.72 156.42a.21.21 0 0 1-.23.23h-1.93a.21.21 0 0 1-.23-.23v-5.61l-1.05.36a8.08 8.08 0 0 1-2.75.42c-3 0-4.73-1.81-4.73-4.83v-4.56a.22.22 0 0 1 .2-.2h1.91a.22.22 0 0 1 .24.23v4.16c0 2 .88 3 2.56 3a6.31 6.31 0 0 0 2.08-.32l1.51-.5v-6.37a.21.21 0 0 1 .23-.23h1.93a.21.21 0 0 1 .23.23zM167.06 148.31a.21.21 0 0 1-.23.23h-3.09v7.88a.21.21 0 0 1-.23.23h-1.89a.22.22 0 0 1-.23-.23v-7.88h-3.09a.21.21 0 0 1-.23-.23v-1.61a.21.21 0 0 1 .23-.23h8.53a.21.21 0 0 1 .23.23zM178.15 151.55c0 3.27-1.85 5.33-4.83 5.33s-4.85-2.06-4.85-5.33 1.85-5.29 4.85-5.29 4.83 2.05 4.83 5.29zm-7.37 0c0 2 .94 3.21 2.54 3.21s2.52-1.2 2.52-3.21-1-3.2-2.52-3.2-2.54 1.2-2.54 3.2zM195.16 154.57a.21.21 0 0 1 .23.23v4.89a.21.21 0 0 1-.23.23h-1.7a.21.21 0 0 1-.23-.23v-3h-7v3a.21.21 0 0 1-.23.23h-1.7a.21.21 0 0 1-.23-.23v-4.89a.21.21 0 0 1 .23-.23h.86l.53-1.09a6.56 6.56 0 0 0 .46-2.75v-4a.21.21 0 0 1 .23-.23h7.54a.21.21 0 0 1 .23.23v7.87zm-6.72-3.84a7.23 7.23 0 0 1-.57 3.19l-.29.65h4.2v-6h-3.34zM204.08 156.61a8.71 8.71 0 0 1-2.14.27c-3.17 0-4.95-2.06-4.95-5.31s1.8-5.31 4.87-5.31c2.52 0 4 1.25 4 3.33 0 1.62-1 2.54-3.09 2.86l-3.29.5a2.22 2.22 0 0 0 2.39 1.81 5.58 5.58 0 0 0 1.66-.21l.92-.23a.22.22 0 0 1 .3.17l.42 1.57a.21.21 0 0 1-.17.29zm-1.61-6c.73-.12 1.13-.46 1.13-1 0-.84-.65-1.29-1.78-1.29-1.39 0-2.33.87-2.5 2.8zM217.29 156.42a.21.21 0 0 1-.23.23h-1.87a.22.22 0 0 1-.23-.23v-7.88h-3.34v3.07c0 2.44-.88 4-2.85 5l-.61.29a.23.23 0 0 1-.32-.1l-.69-1.5c-.06-.14 0-.25.11-.31l.6-.29c1-.53 1.43-1.49 1.43-3.09v-4.91a.21.21 0 0 1 .23-.23h7.54a.21.21 0 0 1 .23.23zM221.39 146.57a7.83 7.83 0 0 1 2.29-.31c2.83 0 4.57 1.47 4.57 4v6.15a.21.21 0 0 1-.23.23H227a.25.25 0 0 1-.27-.19l-.17-.65c-.12-.3-.25-.3-.52 0a3.72 3.72 0 0 1-2.88 1.11c-2.33 0-3.63-1.2-3.63-3.17s1.34-3.23 3.82-3.23h2.62v-.13c0-1.28-.81-2-2.37-2a5.67 5.67 0 0 0-1.64.21l-.75.23a.22.22 0 0 1-.3-.17l-.46-1.56a.22.22 0 0 1 .17-.29zm1.93 5.73c-1 0-1.51.49-1.51 1.2s.56 1.32 1.57 1.32c1.66 0 2.56-.82 2.56-2.37v-.15zM239 148.31a.21.21 0 0 1-.23.23h-3.09v7.88a.22.22 0 0 1-.23.23h-1.89a.21.21 0 0 1-.23-.23v-7.88h-3.09a.21.21 0 0 1-.23-.23v-1.61a.21.21 0 0 1 .23-.23h8.53a.21.21 0 0 1 .23.23zM241.38 156.65a.21.21 0 0 1-.23-.23v-9.72a.21.21 0 0 1 .23-.23h1.87a.21.21 0 0 1 .23.23v3H245c2.81 0 4.45 1.32 4.45 3.57s-1.4 3.4-3.86 3.4zm4.18-2.08c1 0 1.55-.48 1.55-1.32s-.79-1.49-2.14-1.49h-1.49v2.81zM252.7 159.61h-1.47l1.11-2.12c.26-.44.21-.61-.16-.72a1.35 1.35 0 0 1-.91-1.36 1.37 1.37 0 0 1 1.49-1.53c.91 0 1.47.65 1.47 1.7a4.94 4.94 0 0 1-.71 2.43zM269.29 156.42a.22.22 0 0 1-.23.23h-1.87a.21.21 0 0 1-.23-.23v-3.53l-.57.17a7.73 7.73 0 0 1-2 .27c-2.33 0-3.7-1.28-3.7-3.46v-3.17a.21.21 0 0 1 .23-.23h1.87a.21.21 0 0 1 .23.23v2.91a1.51 1.51 0 0 0 1.68 1.62 4.85 4.85 0 0 0 1.26-.17l1-.29v-4.07a.21.21 0 0 1 .23-.23h1.87a.21.21 0 0 1 .23.23zM280.44 148.31a.21.21 0 0 1-.23.23h-3.09v7.88a.21.21 0 0 1-.23.23H275a.21.21 0 0 1-.23-.23v-7.88h-3.09a.21.21 0 0 1-.23-.23v-1.61a.21.21 0 0 1 .23-.23h8.53a.21.21 0 0 1 .23.23zM291.53 151.55c0 3.27-1.85 5.33-4.83 5.33s-4.85-2.06-4.85-5.33 1.84-5.29 4.85-5.29 4.83 2.05 4.83 5.29zm-7.37 0c0 2 .94 3.21 2.54 3.21s2.52-1.2 2.52-3.21-1-3.2-2.52-3.2-2.54 1.2-2.54 3.2zM302.09 143.19a.2.2 0 0 1-.15.27l-3.33 1a3.71 3.71 0 0 0-2.8 3c-.1.33.11.46.34.25a3.94 3.94 0 0 1 2.73-1c2.69 0 4.45 1.89 4.45 5s-1.89 5-4.85 5-4.83-1.91-4.83-5v-3.38c0-3.19 1.37-5.08 4.35-6l3.31-1a.22.22 0 0 1 .3.16zm-6.09 8.65c0 1.83 1 2.92 2.54 2.92s2.52-1.09 2.52-2.92-.95-2.92-2.52-2.92S296 150 296 151.84zM305.64 146.7a.21.21 0 0 1 .23-.23h1.87a.21.21 0 0 1 .23.23v3h1.49c2.82 0 4.45 1.32 4.45 3.57s-1.4 3.4-3.86 3.4h-4.18a.21.21 0 0 1-.23-.23zm4.41 7.87c1 0 1.55-.48 1.55-1.32s-.79-1.49-2.14-1.49H308v2.81zm7.81 1.85a.21.21 0 0 1-.23.23h-1.87a.21.21 0 0 1-.23-.23v-9.7a.21.21 0 0 1 .23-.23h1.87a.21.21 0 0 1 .23.23zM333.38 148.31a.21.21 0 0 1-.23.23h-3.09v7.88a.21.21 0 0 1-.23.23h-1.89a.21.21 0 0 1-.23-.23v-7.88h-3.09a.21.21 0 0 1-.23-.23v-1.61a.21.21 0 0 1 .23-.23h8.53a.21.21 0 0 1 .23.23zM340 146.47c2.26 0 3.65 1 3.65 2.77a2.1 2.1 0 0 1-1.28 2c-.23.09-.23.22 0 .3a2.27 2.27 0 0 1 1.68 2.22c0 1.79-1.41 2.84-3.74 2.84h-4.53a.22.22 0 0 1-.24-.23v-9.67a.21.21 0 0 1 .24-.23zm-2.17 4.05h2c1 0 1.53-.38 1.53-1s-.44-1-1.13-1h-2.42zm0 4h2.57c.84 0 1.32-.38 1.32-1s-.61-1.07-1.7-1.07h-2.19zM355.51 151.55c0 3.27-1.84 5.33-4.83 5.33s-4.85-2.06-4.85-5.33 1.85-5.29 4.85-5.29 4.83 2.05 4.83 5.29zm-7.37 0c0 2 .95 3.21 2.54 3.21s2.52-1.2 2.52-3.21-1-3.2-2.52-3.2-2.54 1.2-2.54 3.2zM364.63 152.47a14.77 14.77 0 0 1 .17-2.64c0-.19-.15-.3-.23-.07l-.63 1.18-2.52 4c-.26.48-.53 1-.74 1.49a.24.24 0 0 1-.25.19h-2.37a.21.21 0 0 1-.23-.23v-9.69a.21.21 0 0 1 .23-.23H360a.21.21 0 0 1 .23.23v4a16 16 0 0 1-.21 2.64c0 .17.14.27.25 0s.42-.77.61-1.15l2.52-4c.25-.49.52-1 .73-1.52a.25.25 0 0 1 .25-.16h2.4a.21.21 0 0 1 .23.23v9.72a.22.22 0 0 1-.23.23h-1.87a.21.21 0 0 1-.23-.23zm.56-10.14c0 1.62-1 2.58-2.79 2.58a2.47 2.47 0 0 1-2.79-2.58v-.5a.21.21 0 0 1 .23-.24h1.22a.21.21 0 0 1 .23.24v.52a1.12 1.12 0 0 0 2.23 0v-.52a.21.21 0 0 1 .23-.24H365a.21.21 0 0 1 .23.24zM376.77 150.45c1 0 1.63-.9 2.2-1.72l1.39-2.12a.34.34 0 0 1 .29-.14h2.06c.19 0 .25.12.17.27l-1.85 3a4.17 4.17 0 0 1-1.83 1.64c-.08 0-.1.12 0 .17a4.43 4.43 0 0 1 1.95 1.7l1.94 3.15c.1.14 0 .27-.17.27h-2.08a.32.32 0 0 1-.29-.15l-1.45-2.33c-.59-.88-1.18-1.62-2.33-1.62h-.32v3.87a.21.21 0 0 1-.23.23h-1.87a.21.21 0 0 1-.23-.23v-9.74a.21.21 0 0 1 .23-.23h1.87a.21.21 0 0 1 .23.23v3.75zM394.53 156.42a.21.21 0 0 1-.23.23h-1.87a.21.21 0 0 1-.23-.23v-7.88h-3.34v3.07c0 2.44-.88 4-2.85 5l-.61.29a.23.23 0 0 1-.32-.1l-.69-1.5c-.06-.14 0-.25.1-.31l.61-.29c1-.53 1.43-1.49 1.43-3.09v-4.91a.21.21 0 0 1 .23-.23h7.54a.21.21 0 0 1 .23.23zM398.63 146.57a7.83 7.83 0 0 1 2.29-.31c2.83 0 4.57 1.47 4.57 4v6.15a.21.21 0 0 1-.23.23h-1.05a.25.25 0 0 1-.27-.19l-.17-.65c-.12-.3-.25-.3-.52 0a3.72 3.72 0 0 1-2.88 1.11c-2.33 0-3.63-1.2-3.63-3.17s1.34-3.23 3.82-3.23h2.62v-.13c0-1.28-.82-2-2.37-2a5.67 5.67 0 0 0-1.64.21l-.75.23a.22.22 0 0 1-.3-.17l-.46-1.56a.22.22 0 0 1 .17-.29zm1.93 5.73c-1 0-1.51.49-1.51 1.2s.56 1.32 1.57 1.32c1.66 0 2.56-.82 2.56-2.37v-.15zM414.59 156.61a8.12 8.12 0 0 1-2 .27c-3.21 0-5-2.06-5-5.33s1.74-5.29 5-5.29a6.37 6.37 0 0 1 1.8.25l.9.25a.22.22 0 0 1 .17.29l-.48 1.58a.2.2 0 0 1-.27.14l-.72-.18a4.72 4.72 0 0 0-1.4-.24c-1.87 0-2.73 1.2-2.73 3.18s.9 3.23 2.68 3.23a6.07 6.07 0 0 0 1.56-.23l.69-.21a.21.21 0 0 1 .29.15l.49 1.57a.21.21 0 0 1-.17.29zM424.27 156.61a8 8 0 0 1-1.95.27c-3.22 0-5-2.06-5-5.33s1.74-5.29 5-5.29a6.37 6.37 0 0 1 1.8.25l.91.25a.21.21 0 0 1 .16.29l-.48 1.58a.2.2 0 0 1-.27.14l-.72-.18a4.66 4.66 0 0 0-1.4-.24c-1.87 0-2.73 1.2-2.73 3.18s.9 3.23 2.69 3.23a6.06 6.06 0 0 0 1.55-.23l.69-.21a.23.23 0 0 1 .3.15l.48 1.57a.21.21 0 0 1-.17.29zM440.92 156.42a.21.21 0 0 1-.23.23h-1.89a.21.21 0 0 1-.23-.23v-3.89h-4.07v3.89a.22.22 0 0 1-.23.23h-1.87a.21.21 0 0 1-.23-.23v-9.72a.21.21 0 0 1 .23-.23h1.87a.21.21 0 0 1 .23.23v3.75h4.07v-3.75a.21.21 0 0 1 .23-.23h1.89a.21.21 0 0 1 .23.23zM450.33 156.61a8.77 8.77 0 0 1-2.14.27c-3.17 0-5-2.06-5-5.31s1.81-5.31 4.87-5.31c2.52 0 4 1.25 4 3.33 0 1.62-1 2.54-3.08 2.86l-3.3.5a2.22 2.22 0 0 0 2.4 1.81 5.55 5.55 0 0 0 1.65-.21l.93-.23a.21.21 0 0 1 .29.17l.42 1.57a.21.21 0 0 1-.17.29zm-1.62-6c.74-.12 1.14-.46 1.14-1 0-.84-.66-1.29-1.79-1.29-1.38 0-2.33.87-2.5 2.8zM459.74 146.53a9.72 9.72 0 0 1 2.54-.3c2.5 0 4 1.14 4 2.92a2.08 2.08 0 0 1-1.47 2.14c-.17.07-.17.19 0 .26a2.25 2.25 0 0 1 1.87 2.26c0 1.87-1.64 3.07-4.39 3.07a11.16 11.16 0 0 1-2.63-.34l-1.05-.25a.21.21 0 0 1-.16-.29l.46-1.58a.23.23 0 0 1 .27-.16l1 .25a8.07 8.07 0 0 0 2.08.25c1.26 0 2.1-.46 2.1-1.2s-.8-1.11-2-1.11h-1.49a.21.21 0 0 1-.23-.23v-1.47a.21.21 0 0 1 .23-.23h1.49c1 0 1.64-.44 1.64-1.11s-.69-1.08-1.74-1.08a8.63 8.63 0 0 0-2.06.24l-.9.23a.23.23 0 0 1-.3-.15l-.44-1.58a.22.22 0 0 1 .17-.29zM470.28 146.57a7.83 7.83 0 0 1 2.29-.31c2.83 0 4.57 1.47 4.57 4v6.15a.21.21 0 0 1-.23.23h-1.05a.25.25 0 0 1-.27-.19l-.17-.65c-.12-.3-.25-.3-.52 0a3.72 3.72 0 0 1-2.88 1.11c-2.33 0-3.63-1.2-3.63-3.17s1.34-3.23 3.82-3.23h2.63v-.13c0-1.28-.82-2-2.38-2a5.67 5.67 0 0 0-1.64.21l-.75.23a.21.21 0 0 1-.29-.17l-.47-1.56a.22.22 0 0 1 .17-.29zm1.93 5.73c-1 0-1.51.49-1.51 1.2s.57 1.32 1.57 1.32c1.66 0 2.57-.82 2.57-2.37v-.15zM481.58 147.54c.08.23.25.21.4 0a3.68 3.68 0 0 1 2.94-1.3c2.75 0 4.4 2 4.4 5.29s-1.76 5.33-4.7 5.33a4.38 4.38 0 0 1-1.91-.4l-.57-.25v4.7a.21.21 0 0 1-.23.23H480a.21.21 0 0 1-.23-.23V146.7a.21.21 0 0 1 .23-.23h1c.15 0 .24.06.26.18zm1.17 6.86a3.9 3.9 0 0 0 1.72.36c1.62 0 2.55-1.2 2.55-3.21s-.93-3.2-2.48-3.2-2.42 1.31-2.42 3.13v2.63zM492.92 146.57a7.76 7.76 0 0 1 2.28-.31c2.84 0 4.58 1.47 4.58 4v6.15a.21.21 0 0 1-.23.23h-1.05a.25.25 0 0 1-.27-.19l-.17-.65c-.12-.3-.25-.3-.52 0a3.73 3.73 0 0 1-2.88 1.11c-2.33 0-3.63-1.2-3.63-3.17s1.34-3.23 3.82-3.23h2.62v-.13c0-1.28-.82-2-2.37-2a5.67 5.67 0 0 0-1.64.21l-.75.23a.22.22 0 0 1-.3-.17l-.46-1.56a.22.22 0 0 1 .17-.29zm1.93 5.73c-1 0-1.51.49-1.51 1.2s.56 1.32 1.57 1.32c1.66 0 2.56-.82 2.56-2.37v-.15zM503.35 146.53a9.83 9.83 0 0 1 2.54-.3c2.5 0 4 1.14 4 2.92a2.07 2.07 0 0 1-1.46 2.14c-.17.07-.17.19 0 .26a2.24 2.24 0 0 1 1.86 2.26c0 1.87-1.63 3.07-4.38 3.07a11.09 11.09 0 0 1-2.63-.34l-1.05-.25a.22.22 0 0 1-.17-.29l.46-1.58a.24.24 0 0 1 .28-.16l1 .25a8.07 8.07 0 0 0 2.08.25c1.26 0 2.1-.46 2.1-1.2s-.8-1.11-2-1.11h-1.49a.21.21 0 0 1-.23-.23v-1.47a.21.21 0 0 1 .23-.23H506c1 0 1.64-.44 1.64-1.11s-.7-1.08-1.75-1.08a8.61 8.61 0 0 0-2.05.24l-.91.23a.22.22 0 0 1-.29-.15l-.44-1.58a.22.22 0 0 1 .17-.29zM519.65 156.65a.21.21 0 0 1-.23-.23v-3.95a14.77 14.77 0 0 1 .17-2.64c0-.19-.15-.3-.24-.07l-.63 1.18-2.52 4c-.25.48-.52 1-.73 1.49a.24.24 0 0 1-.25.19h-2.37a.22.22 0 0 1-.24-.23v-9.69a.21.21 0 0 1 .24-.23h1.89a.21.21 0 0 1 .23.23v4a16 16 0 0 1-.21 2.64c0 .17.14.27.25 0s.42-.77.61-1.15l2.52-4c.25-.49.52-1 .73-1.52a.25.25 0 0 1 .25-.16h2.4a.21.21 0 0 1 .23.23v9.72a.22.22 0 0 1-.23.23zM533.72 156.42a.22.22 0 0 1-.23.23h-1.87a.21.21 0 0 1-.23-.23v-7.88h-3.34v3.07c0 2.44-.88 4-2.86 5l-.6.29a.23.23 0 0 1-.32-.1l-.69-1.5c-.07-.14-.05-.25.1-.31l.61-.29c1-.53 1.43-1.49 1.43-3.09v-4.91a.21.21 0 0 1 .23-.23h7.54a.21.21 0 0 1 .23.23zM543 156.61a8 8 0 0 1-2 .27c-3.22 0-5-2.06-5-5.33s1.74-5.29 5-5.29a6.37 6.37 0 0 1 1.8.25l.91.25a.21.21 0 0 1 .16.29l-.48 1.58a.2.2 0 0 1-.27.14l-.71-.18a4.77 4.77 0 0 0-1.41-.24c-1.87 0-2.73 1.2-2.73 3.18s.9 3.23 2.69 3.23a6 6 0 0 0 1.55-.23l.69-.21a.22.22 0 0 1 .3.15l.48 1.57a.21.21 0 0 1-.17.29zM554.8 156.42a.21.21 0 0 1-.23.23h-1.87a.22.22 0 0 1-.23-.23V153h-.84c-1.43 0-2 .71-2.6 2l-.67 1.49a.31.31 0 0 1-.28.17h-2c-.17 0-.25-.11-.17-.27L547 154a3 3 0 0 1 1.47-1.59c.19-.09.21-.17 0-.28a2.72 2.72 0 0 1-2-2.56c0-1.93 1.38-3.1 3.84-3.1h4.24a.21.21 0 0 1 .23.23zm-4.58-7.88c-.92 0-1.46.47-1.46 1.22s.67 1.24 1.84 1.24h1.87v-2.46zM570.32 148.31a.21.21 0 0 1-.23.23H567v7.88a.21.21 0 0 1-.23.23h-1.89a.22.22 0 0 1-.23-.23v-7.88h-3.08a.21.21 0 0 1-.24-.23v-1.61a.21.21 0 0 1 .24-.23h8.52a.21.21 0 0 1 .23.23zM574.25 147.54c.08.23.25.21.4 0a3.7 3.7 0 0 1 2.94-1.3c2.75 0 4.41 2 4.41 5.29s-1.77 5.33-4.71 5.33a4.38 4.38 0 0 1-1.91-.4l-.56-.25v4.7a.21.21 0 0 1-.23.23h-1.87a.21.21 0 0 1-.23-.23V146.7a.21.21 0 0 1 .23-.23h1c.14 0 .23.06.25.18zm1.18 6.86a3.84 3.84 0 0 0 1.72.36c1.61 0 2.54-1.2 2.54-3.21s-.93-3.2-2.48-3.2-2.42 1.31-2.42 3.13v2.63zM585.59 146.57a7.83 7.83 0 0 1 2.29-.31c2.83 0 4.57 1.47 4.57 4v6.15a.21.21 0 0 1-.23.23h-1.05a.25.25 0 0 1-.27-.19l-.17-.65c-.12-.3-.25-.3-.52 0a3.72 3.72 0 0 1-2.88 1.11c-2.33 0-3.63-1.2-3.63-3.17s1.34-3.23 3.82-3.23h2.62v-.13c0-1.28-.81-2-2.37-2a5.67 5.67 0 0 0-1.64.21l-.75.23a.22.22 0 0 1-.3-.17l-.46-1.56a.22.22 0 0 1 .17-.29zm1.93 5.73c-1 0-1.51.49-1.51 1.2s.57 1.32 1.57 1.32c1.66 0 2.56-.82 2.56-2.37v-.15zM599.6 146.47c2.26 0 3.65 1 3.65 2.77a2.1 2.1 0 0 1-1.28 2c-.23.09-.23.22 0 .3a2.27 2.27 0 0 1 1.68 2.22c0 1.79-1.41 2.84-3.74 2.84h-4.54a.22.22 0 0 1-.23-.23v-9.67a.21.21 0 0 1 .23-.23zm-2.17 4.05h2c1 0 1.53-.38 1.53-1s-.44-1-1.13-1h-2.42zm0 4H600c.84 0 1.33-.38 1.33-1s-.61-1.07-1.7-1.07h-2.19zM615 156.42a.22.22 0 0 1-.23.23h-1.87a.21.21 0 0 1-.23-.23v-7.88h-3.34v3.07c0 2.44-.88 4-2.86 5l-.61.29a.22.22 0 0 1-.31-.1l-.69-1.5a.2.2 0 0 1 .1-.31l.61-.29c1-.53 1.43-1.49 1.43-3.09v-4.91a.21.21 0 0 1 .23-.23h7.54a.21.21 0 0 1 .23.23zM624.42 156.61a8.77 8.77 0 0 1-2.14.27c-3.17 0-5-2.06-5-5.31s1.81-5.31 4.87-5.31c2.52 0 4 1.25 4 3.33 0 1.62-1 2.54-3.08 2.86l-3.3.5a2.22 2.22 0 0 0 2.39 1.81 5.58 5.58 0 0 0 1.66-.21l.93-.23a.22.22 0 0 1 .29.17l.42 1.57a.21.21 0 0 1-.17.29zm-1.62-6c.73-.12 1.13-.46 1.13-1 0-.84-.65-1.29-1.78-1.29-1.39 0-2.33.87-2.5 2.8zM635.36 152.47a14.77 14.77 0 0 1 .17-2.64c0-.19-.15-.3-.24-.07l-.63 1.18-2.51 4c-.26.48-.53 1-.74 1.49a.24.24 0 0 1-.25.19h-2.37a.22.22 0 0 1-.24-.23v-9.69a.21.21 0 0 1 .24-.23h1.89a.21.21 0 0 1 .23.23v4a16 16 0 0 1-.21 2.64c0 .17.14.27.25 0s.42-.77.61-1.15l2.52-4c.25-.49.52-1 .73-1.52a.25.25 0 0 1 .25-.16h2.4a.21.21 0 0 1 .23.23v9.72a.22.22 0 0 1-.23.23h-1.87a.21.21 0 0 1-.23-.23zm.56-10.14c0 1.62-1 2.58-2.79 2.58a2.47 2.47 0 0 1-2.79-2.58v-.5a.21.21 0 0 1 .23-.24h1.22a.21.21 0 0 1 .23.24v.52a1.11 1.11 0 0 0 2.22 0v-.52a.22.22 0 0 1 .24-.24h1.21a.21.21 0 0 1 .23.24zM641.05 142.31a11.29 11.29 0 0 1 3.42-.55c3.15 0 4.87 1.47 4.87 3.84a4.07 4.07 0 0 1-2.07 3.45l-1.16.82a1.94 1.94 0 0 0-.84 1.57v1.07a.21.21 0 0 1-.23.23h-1.89a.21.21 0 0 1-.23-.23v-1.07a3.8 3.8 0 0 1 1.83-3.36l1.19-.82a1.93 1.93 0 0 0 1-1.66c0-.92-1-1.59-2.52-1.59a9.38 9.38 0 0 0-2.71.42l-1.21.4a.24.24 0 0 1-.3-.15l-.59-1.68c-.06-.12 0-.23.15-.27zm4.62 13.08a1.37 1.37 0 0 1-1.47 1.51 1.51 1.51 0 1 1 1.47-1.51zM156.61 233.1a.22.22 0 0 1-.25.24h-2.07a.22.22 0 0 1-.25-.24v-6l-1.13.38a8.44 8.44 0 0 1-2.95.45c-3.22 0-5.07-1.94-5.07-5.18v-4.89a.23.23 0 0 1 .25-.25h2.05a.23.23 0 0 1 .25.25v4.46c0 2.17.94 3.27 2.75 3.27a6.62 6.62 0 0 0 2.23-.34l1.62-.54v-6.85a.23.23 0 0 1 .25-.25h2.07a.23.23 0 0 1 .25.25zM168.78 224.4a.23.23 0 0 1-.25.25h-3.31v8.45a.22.22 0 0 1-.25.24h-2a.22.22 0 0 1-.25-.24v-8.45h-3.31a.23.23 0 0 1-.25-.25v-1.74a.23.23 0 0 1 .25-.25h9.15a.23.23 0 0 1 .25.25zM180.68 227.87c0 3.51-2 5.72-5.19 5.72s-5.2-2.21-5.2-5.72 2-5.68 5.2-5.68 5.19 2.21 5.19 5.68zm-7.91 0c0 2.16 1 3.45 2.72 3.45s2.71-1.29 2.71-3.45-1-3.43-2.71-3.43-2.72 1.29-2.72 3.43zM199.4 233.1a.22.22 0 0 1-.25.24h-2a.22.22 0 0 1-.25-.24v-3.32a31.14 31.14 0 0 1 .18-3.83c0-.2-.16-.27-.23-.07-.18.39-.33.79-.49 1.18l-1.31 2.86a10.27 10.27 0 0 0-.43 1.22c0 .13-.11.2-.27.2h-1.49a.25.25 0 0 1-.27-.2 11.67 11.67 0 0 0-.42-1.22l-1.31-2.86-.5-1.18c-.06-.2-.27-.13-.22.07a27.55 27.55 0 0 1 .2 3.83v3.32a.22.22 0 0 1-.25.24h-2a.22.22 0 0 1-.25-.24v-10.44a.23.23 0 0 1 .25-.25H191a.25.25 0 0 1 .27.23 7 7 0 0 0 .36 1.06l1.28 2.84c.21.56.48 1.44.57 1.82 0 .21.18.21.22 0 .09-.38.38-1.26.56-1.82l1.31-2.84a7 7 0 0 0 .36-1.06.25.25 0 0 1 .27-.23h2.93a.23.23 0 0 1 .25.25zM212.27 227.87c0 3.51-2 5.72-5.19 5.72s-5.2-2.21-5.2-5.72 2-5.68 5.2-5.68 5.19 2.21 5.19 5.68zm-7.91 0c0 2.16 1 3.45 2.72 3.45s2.71-1.29 2.71-3.45-1-3.43-2.71-3.43-2.72 1.29-2.72 3.43zM227 225.82a4 4 0 0 1-1.75 1.87c-.14 0-.12.16 0 .22a3.92 3.92 0 0 1 1.87 1.92l1.75 3.22c.1.18 0 .29-.18.29h-2.16a.29.29 0 0 1-.29-.18l-1.56-2.81c-.47-.81-1.08-1.4-1.73-1.4h-.34v4.15a.22.22 0 0 1-.25.24h-2a.22.22 0 0 1-.25-.24V229h-.34c-.65 0-1.28.61-1.74 1.4l-1.55 2.81a.29.29 0 0 1-.29.18H214c-.2 0-.27-.11-.18-.29l1.76-3.22a4 4 0 0 1 1.87-1.92c.14-.06.14-.18 0-.22a4.22 4.22 0 0 1-1.76-1.87l-1.69-3.16c-.09-.18 0-.3.18-.3h2.17a.3.3 0 0 1 .29.18l1.22 2.19c.47.86 1.24 1.92 2 1.92h.25v-4a.23.23 0 0 1 .25-.25h2a.23.23 0 0 1 .25.25v4h.27c.72 0 1.49-1.06 2-1.92l1.19-2.19a.3.3 0 0 1 .3-.18h2.18c.21 0 .27.12.18.3zM240.88 233.1a.22.22 0 0 1-.24.24h-2a.22.22 0 0 1-.25-.24v-4.17H234v4.17a.22.22 0 0 1-.25.24h-2a.22.22 0 0 1-.24-.24v-10.44a.22.22 0 0 1 .24-.25h2a.23.23 0 0 1 .25.25v4h4.37v-4a.23.23 0 0 1 .25-.25h2a.22.22 0 0 1 .24.25zM253.75 227.87c0 3.51-2 5.72-5.18 5.72s-5.21-2.21-5.21-5.72 2-5.68 5.21-5.68 5.18 2.21 5.18 5.68zm-7.91 0c0 2.16 1 3.45 2.73 3.45s2.7-1.29 2.7-3.45-1-3.43-2.7-3.43-2.73 1.29-2.73 3.43zM267.81 233.3a8.31 8.31 0 0 1-2.1.29c-3.44 0-5.34-2.21-5.34-5.72s1.87-5.68 5.41-5.68a7 7 0 0 1 1.94.27l1 .27a.24.24 0 0 1 .18.32l-.52 1.69a.21.21 0 0 1-.29.15l-.77-.2a5.09 5.09 0 0 0-1.51-.25c-2 0-2.93 1.29-2.93 3.41s1 3.47 2.89 3.47a6.5 6.5 0 0 0 1.66-.25l.75-.23a.23.23 0 0 1 .31.16l.52 1.69a.23.23 0 0 1-.18.32zM282.68 231.11a.23.23 0 0 1 .25.25v5.25a.23.23 0 0 1-.25.25h-1.82a.23.23 0 0 1-.25-.25v-3.27h-7.55v3.27a.23.23 0 0 1-.25.25H271a.23.23 0 0 1-.25-.25v-5.25a.23.23 0 0 1 .25-.25h.92l.56-1.17A6.93 6.93 0 0 0 273 227v-4.33a.23.23 0 0 1 .25-.25h8.09a.23.23 0 0 1 .25.25v8.45zm-7.21-4.11a7.81 7.81 0 0 1-.61 3.43l-.31.69h4.5v-6.46h-3.58zM292.26 233.3a9.59 9.59 0 0 1-2.3.29c-3.4 0-5.32-2.21-5.32-5.7s1.94-5.7 5.23-5.7c2.7 0 4.35 1.35 4.35 3.58 0 1.74-1.06 2.73-3.31 3.07l-3.54.54a2.4 2.4 0 0 0 2.57 1.94 6.05 6.05 0 0 0 1.78-.23l1-.25a.25.25 0 0 1 .32.18l.45 1.69a.25.25 0 0 1-.18.32zm-1.74-6.4c.79-.14 1.22-.5 1.22-1.08 0-.9-.7-1.38-1.92-1.38-1.48 0-2.5.93-2.68 3zM306.43 233.1a.22.22 0 0 1-.25.24h-2a.22.22 0 0 1-.25-.24v-8.45h-3.58v3.29c0 2.61-1 4.3-3.07 5.36l-.65.32a.24.24 0 0 1-.34-.12l-.74-1.6c-.07-.16-.05-.27.11-.34l.65-.31c1-.56 1.54-1.6 1.54-3.31v-5.28a.22.22 0 0 1 .24-.25h8.09a.23.23 0 0 1 .25.25zM310.82 222.53a8.31 8.31 0 0 1 2.46-.34c3 0 4.91 1.58 4.91 4.3v6.61a.22.22 0 0 1-.24.24h-1.13a.26.26 0 0 1-.29-.2l-.18-.7c-.14-.31-.27-.31-.57 0a4 4 0 0 1-3.08 1.19c-2.51 0-3.9-1.28-3.9-3.4s1.44-3.47 4.1-3.47h2.82v-.14c0-1.37-.88-2.11-2.55-2.11a6.11 6.11 0 0 0-1.76.22l-.81.25a.24.24 0 0 1-.32-.18l-.49-1.67a.23.23 0 0 1 .18-.32zm2.08 6.15c-1.11 0-1.62.52-1.62 1.28s.6 1.42 1.69 1.42c1.78 0 2.75-.87 2.75-2.54v-.16zM329.71 224.4a.23.23 0 0 1-.25.25h-3.31v8.45a.22.22 0 0 1-.25.24h-2a.22.22 0 0 1-.25-.24v-8.45h-3.31a.23.23 0 0 1-.25-.25v-1.74a.23.23 0 0 1 .25-.25h9.15a.23.23 0 0 1 .25.25zM332.28 233.34a.22.22 0 0 1-.25-.24v-10.44a.23.23 0 0 1 .25-.25h2a.23.23 0 0 1 .25.25v3.2h1.6c3 0 4.78 1.42 4.78 3.83s-1.51 3.65-4.15 3.65zm4.48-2.23c1 0 1.67-.52 1.67-1.42s-.86-1.6-2.3-1.6h-1.6v3zM352.78 222.41c2.44 0 3.92 1.11 3.92 3a2.28 2.28 0 0 1-1.37 2.21c-.25.09-.25.22 0 .31a2.45 2.45 0 0 1 1.8 2.39c0 1.92-1.51 3-4 3h-4.87a.22.22 0 0 1-.25-.24v-10.42a.23.23 0 0 1 .25-.25zm-2.32 4.35h2.16c1.06 0 1.65-.4 1.65-1.1s-.47-1-1.22-1h-2.59zm0 4.35h2.75c.9 0 1.42-.4 1.42-1.08s-.65-1.15-1.83-1.15h-2.34zM369 233.1a.22.22 0 0 1-.25.24h-2a.22.22 0 0 1-.25-.24v-4.17h-4.37v4.17a.22.22 0 0 1-.25.24h-2a.22.22 0 0 1-.25-.24v-10.44a.23.23 0 0 1 .25-.25h2a.23.23 0 0 1 .25.25v4h4.37v-4a.23.23 0 0 1 .25-.25h2a.23.23 0 0 1 .25.25zM377.5 234.54c-1 2.5-2.37 3.65-4.57 3.65h-.84a.23.23 0 0 1-.25-.25v-1.73a.23.23 0 0 1 .25-.25h.75a1.84 1.84 0 0 0 1.91-1.33l.34-.79c.41-1 0-2.19-.77-4.08l-3.08-7c-.09-.18 0-.3.18-.3h2.12a.33.33 0 0 1 .29.18l2 4.6a14.73 14.73 0 0 1 .85 2.86c.07.28.3.28.36 0a18.43 18.43 0 0 1 .81-2.86l1.9-4.57a.26.26 0 0 1 .27-.21h2.12c.18 0 .27.12.2.3zM393.57 224.4a.23.23 0 0 1-.25.25H390v8.45a.22.22 0 0 1-.25.24h-2a.22.22 0 0 1-.25-.24v-8.45h-3.31a.23.23 0 0 1-.25-.25v-1.74a.23.23 0 0 1 .25-.25h9.15a.23.23 0 0 1 .25.25zM397.78 223.56c.09.25.27.23.43 0a4 4 0 0 1 3.15-1.4c3 0 4.74 2.19 4.74 5.68s-1.9 5.72-5.05 5.72a4.54 4.54 0 0 1-2.05-.43l-.61-.27v5.05a.23.23 0 0 1-.25.25h-2a.22.22 0 0 1-.24-.25v-15.25a.22.22 0 0 1 .24-.25h1.13a.23.23 0 0 1 .27.21zm1.26 7.37a4.12 4.12 0 0 0 1.85.39c1.74 0 2.73-1.29 2.73-3.45s-1-3.43-2.66-3.43-2.59 1.4-2.59 3.36v2.82zM416.12 233.34a.22.22 0 0 1-.25-.24v-4.24a17 17 0 0 1 .18-2.84c.05-.2-.15-.31-.24-.07l-.68 1.27-2.7 4.32c-.27.52-.57 1.08-.79 1.6a.26.26 0 0 1-.27.2h-2.55a.22.22 0 0 1-.25-.24v-10.44a.23.23 0 0 1 .25-.25h2a.23.23 0 0 1 .25.25v4.26a16.25 16.25 0 0 1-.23 2.84c0 .18.16.29.27.05.2-.39.45-.84.65-1.24l2.71-4.35c.27-.52.56-1.11.79-1.63a.27.27 0 0 1 .27-.18h2.57a.23.23 0 0 1 .25.25v10.44a.22.22 0 0 1-.25.24zM428.9 226.7c1.1 0 1.75-1 2.36-1.85l1.49-2.28a.38.38 0 0 1 .32-.16h2.21c.2 0 .27.14.18.3l-2 3.2a4.54 4.54 0 0 1-2 1.76c-.09 0-.11.13 0 .18a4.82 4.82 0 0 1 2.1 1.82l2.07 3.38c.11.16 0 .29-.18.29h-2.23a.37.37 0 0 1-.32-.15l-1.55-2.5c-.63-.95-1.26-1.74-2.5-1.74h-.34v4.15a.22.22 0 0 1-.25.24h-2a.22.22 0 0 1-.25-.24v-10.44a.23.23 0 0 1 .25-.25h2a.23.23 0 0 1 .25.25v4zM448 233.1a.22.22 0 0 1-.25.24h-2a.22.22 0 0 1-.25-.24v-8.45h-3.58v3.29c0 2.61-.95 4.3-3.07 5.36l-.65.32a.24.24 0 0 1-.34-.12l-.74-1.6c-.07-.16-.05-.27.11-.34l.65-.31c1-.56 1.54-1.6 1.54-3.31v-5.28a.22.22 0 0 1 .24-.25h8.09a.23.23 0 0 1 .25.25zM452.35 222.53a8.31 8.31 0 0 1 2.46-.34c3 0 4.91 1.58 4.91 4.3v6.61a.22.22 0 0 1-.24.24h-1.13a.26.26 0 0 1-.29-.2l-.18-.7c-.14-.31-.27-.31-.57 0a4 4 0 0 1-3.09 1.19c-2.5 0-3.89-1.28-3.89-3.4s1.44-3.47 4.1-3.47h2.81v-.14c0-1.37-.87-2.11-2.54-2.11a6.06 6.06 0 0 0-1.76.22l-.81.25a.24.24 0 0 1-.32-.18l-.49-1.67a.23.23 0 0 1 .18-.32zm2.08 6.15c-1.11 0-1.62.52-1.62 1.28s.6 1.42 1.68 1.42c1.79 0 2.75-.87 2.75-2.54v-.16zM469.48 233.3a8.31 8.31 0 0 1-2.1.29c-3.44 0-5.34-2.21-5.34-5.72s1.87-5.68 5.41-5.68a7 7 0 0 1 1.94.27l1 .27a.24.24 0 0 1 .18.32l-.52 1.69a.21.21 0 0 1-.29.15l-.77-.2a5.09 5.09 0 0 0-1.51-.25c-2 0-2.93 1.29-2.93 3.41s1 3.47 2.89 3.47a6.5 6.5 0 0 0 1.66-.25l.75-.23a.23.23 0 0 1 .31.16l.52 1.69a.23.23 0 0 1-.18.32zM479.87 233.3a8.31 8.31 0 0 1-2.1.29c-3.45 0-5.34-2.21-5.34-5.72s1.87-5.68 5.41-5.68a7 7 0 0 1 1.94.27l1 .27a.24.24 0 0 1 .18.32l-.52 1.69a.22.22 0 0 1-.29.15l-.77-.2a5.09 5.09 0 0 0-1.51-.25c-2 0-2.93 1.29-2.93 3.41s1 3.47 2.88 3.47a6.51 6.51 0 0 0 1.67-.25l.75-.23a.24.24 0 0 1 .31.16l.52 1.69a.24.24 0 0 1-.18.32zM484.87 222.53a8.27 8.27 0 0 1 2.46-.34c3 0 4.91 1.58 4.91 4.3v6.61a.22.22 0 0 1-.25.24h-1.13a.27.27 0 0 1-.29-.2l-.18-.7c-.13-.31-.27-.31-.56 0a4 4 0 0 1-3.09 1.19c-2.5 0-3.9-1.28-3.9-3.4s1.44-3.47 4.1-3.47h2.82v-.14c0-1.37-.88-2.11-2.55-2.11a6 6 0 0 0-1.75.22l-.82.25a.23.23 0 0 1-.31-.18l-.5-1.67a.25.25 0 0 1 .18-.32zm2.07 6.15c-1.1 0-1.62.52-1.62 1.28s.61 1.42 1.69 1.42c1.78 0 2.75-.87 2.75-2.54v-.16zM495.28 218a12.28 12.28 0 0 1 3.67-.58c3.38 0 5.23 1.57 5.23 4.12 0 1.47-.67 2.59-2.23 3.7l-1.24.88a2.05 2.05 0 0 0-.9 1.69v1.15a.22.22 0 0 1-.25.24h-2a.22.22 0 0 1-.24-.24v-1.15a4.06 4.06 0 0 1 2-3.61l1.28-.88a2.07 2.07 0 0 0 1.13-1.78c0-1-1.13-1.71-2.71-1.71a9.9 9.9 0 0 0-2.9.45l-1.31.43a.27.27 0 0 1-.32-.16l-.63-1.8c-.07-.14 0-.25.16-.3zm5 14a1.48 1.48 0 0 1-1.58 1.63 1.63 1.63 0 0 1 0-3.25 1.47 1.47 0 0 1 1.54 1.62z"/><path class="cls-11" d="M154.56 251.22a.21.21 0 0 1 .23.23v1.64a.21.21 0 0 1-.23.24h-11a.21.21 0 0 1-.23-.24v-1.64a.21.21 0 0 1 .23-.23z"/><path class="cls-11" d="M165.46 251.22a.21.21 0 0 1 .24.23v1.64a.22.22 0 0 1-.24.24h-11a.21.21 0 0 1-.23-.24v-1.64a.21.21 0 0 1 .23-.23z"/><path class="cls-11" d="M176.37 251.22a.21.21 0 0 1 .24.23v1.64a.22.22 0 0 1-.24.24h-11a.22.22 0 0 1-.24-.24v-1.64a.21.21 0 0 1 .24-.23z"/><path class="cls-11" d="M187.28 251.22a.21.21 0 0 1 .24.23v1.64a.22.22 0 0 1-.24.24h-11a.22.22 0 0 1-.24-.24v-1.64a.21.21 0 0 1 .24-.23z"/><path class="cls-11" d="M198.19 251.22a.21.21 0 0 1 .23.23v1.64a.21.21 0 0 1-.23.24h-11a.21.21 0 0 1-.23-.24v-1.64a.21.21 0 0 1 .23-.23z"/><path class="cls-11" d="M209.1 251.22a.21.21 0 0 1 .23.23v1.64a.21.21 0 0 1-.23.24h-11a.21.21 0 0 1-.23-.24v-1.64a.21.21 0 0 1 .23-.23z"/><path class="cls-11" d="M220 251.22a.21.21 0 0 1 .23.23v1.64a.22.22 0 0 1-.23.24h-11a.21.21 0 0 1-.23-.24v-1.64a.21.21 0 0 1 .23-.23z"/><path class="cls-11" d="M230.91 251.22a.21.21 0 0 1 .24.23v1.64a.22.22 0 0 1-.24.24h-11a.22.22 0 0 1-.24-.24v-1.64a.21.21 0 0 1 .24-.23z"/><path class="cls-11" d="M241.82 251.22a.21.21 0 0 1 .24.23v1.64a.22.22 0 0 1-.24.24h-11a.22.22 0 0 1-.24-.24v-1.64a.21.21 0 0 1 .24-.23z"/><path class="cls-11" d="M252.73 251.22a.21.21 0 0 1 .23.23v1.64a.21.21 0 0 1-.23.24h-11a.22.22 0 0 1-.24-.24v-1.64a.21.21 0 0 1 .24-.23z"/><path class="cls-11" d="M263.64 251.22a.21.21 0 0 1 .23.23v1.64a.21.21 0 0 1-.23.24h-11a.21.21 0 0 1-.23-.24v-1.64a.21.21 0 0 1 .23-.23z"/><path class="cls-11" d="M274.55 251.22a.21.21 0 0 1 .23.23v1.64a.22.22 0 0 1-.23.24h-11a.21.21 0 0 1-.23-.24v-1.64a.21.21 0 0 1 .23-.23z"/><path class="cls-11" d="M285.45 251.22a.21.21 0 0 1 .24.23v1.64a.22.22 0 0 1-.24.24h-11a.22.22 0 0 1-.24-.24v-1.64a.21.21 0 0 1 .24-.23z"/><path class="cls-11" d="M296.36 251.22a.21.21 0 0 1 .24.23v1.64a.22.22 0 0 1-.24.24h-11a.22.22 0 0 1-.24-.24v-1.64a.21.21 0 0 1 .24-.23z"/><path class="cls-11" d="M307.27 251.22a.21.21 0 0 1 .24.23v1.64a.22.22 0 0 1-.24.24h-11a.22.22 0 0 1-.24-.24v-1.64a.21.21 0 0 1 .24-.23z"/><path class="cls-11" d="M318.18 251.22a.21.21 0 0 1 .23.23v1.64a.21.21 0 0 1-.23.24h-11a.21.21 0 0 1-.23-.24v-1.64a.21.21 0 0 1 .23-.23z"/><path class="cls-11" d="M329.09 251.22a.21.21 0 0 1 .23.23v1.64a.21.21 0 0 1-.23.24h-11a.21.21 0 0 1-.23-.24v-1.64a.21.21 0 0 1 .23-.23z"/><path class="cls-11" d="M340 251.22a.21.21 0 0 1 .24.23v1.64a.22.22 0 0 1-.24.24h-11a.22.22 0 0 1-.24-.24v-1.64a.21.21 0 0 1 .24-.23z"/><path class="cls-11" d="M350.9 251.22a.21.21 0 0 1 .24.23v1.64a.22.22 0 0 1-.24.24h-11a.22.22 0 0 1-.24-.24v-1.64a.21.21 0 0 1 .24-.23z"/><path class="cls-11" d="M361.81 251.22a.21.21 0 0 1 .24.23v1.64a.22.22 0 0 1-.24.24h-11a.22.22 0 0 1-.24-.24v-1.64a.21.21 0 0 1 .24-.23z"/><path class="cls-11" d="M372.72 251.22a.21.21 0 0 1 .23.23v1.64a.21.21 0 0 1-.23.24h-11a.21.21 0 0 1-.23-.24v-1.64a.21.21 0 0 1 .23-.23z"/><path class="cls-11" d="M383.63 251.22a.21.21 0 0 1 .23.23v1.64a.21.21 0 0 1-.23.24h-11a.21.21 0 0 1-.23-.24v-1.64a.21.21 0 0 1 .23-.23z"/><path class="cls-11" d="M394.53 251.22a.21.21 0 0 1 .24.23v1.64a.22.22 0 0 1-.24.24h-11a.22.22 0 0 1-.24-.24v-1.64a.21.21 0 0 1 .24-.23z"/><path class="cls-11" d="M405.44 251.22a.21.21 0 0 1 .24.23v1.64a.22.22 0 0 1-.24.24h-11a.22.22 0 0 1-.24-.24v-1.64a.21.21 0 0 1 .24-.23z"/><path class="cls-11" d="M416.35 251.22a.21.21 0 0 1 .24.23v1.64a.22.22 0 0 1-.24.24h-11a.22.22 0 0 1-.24-.24v-1.64a.21.21 0 0 1 .24-.23z"/><path class="cls-11" d="M427.26 251.22a.21.21 0 0 1 .23.23v1.64a.21.21 0 0 1-.23.24h-11a.21.21 0 0 1-.23-.24v-1.64a.21.21 0 0 1 .23-.23z"/><path class="cls-11" d="M438.17 251.22a.21.21 0 0 1 .23.23v1.64a.21.21 0 0 1-.23.24h-11a.21.21 0 0 1-.23-.24v-1.64a.21.21 0 0 1 .23-.23z"/><path class="cls-11" d="M449.08 251.22a.21.21 0 0 1 .23.23v1.64a.21.21 0 0 1-.23.24h-11a.21.21 0 0 1-.23-.24v-1.64a.21.21 0 0 1 .23-.23z"/><path class="cls-11" d="M460 251.22a.21.21 0 0 1 .24.23v1.64a.22.22 0 0 1-.24.24h-11a.22.22 0 0 1-.24-.24v-1.64a.21.21 0 0 1 .24-.23z"/><path class="cls-11" d="M470.89 251.22a.21.21 0 0 1 .24.23v1.64a.22.22 0 0 1-.24.24h-11a.22.22 0 0 1-.24-.24v-1.64a.21.21 0 0 1 .24-.23z"/><path class="cls-11" d="M481.8 251.22a.21.21 0 0 1 .23.23v1.64a.21.21 0 0 1-.23.24h-11a.22.22 0 0 1-.23-.24v-1.64a.21.21 0 0 1 .23-.23z"/><path class="cls-11" d="M492.71 251.22a.21.21 0 0 1 .23.23v1.64a.21.21 0 0 1-.23.24h-11a.21.21 0 0 1-.23-.24v-1.64a.21.21 0 0 1 .23-.23z"/><path class="cls-11" d="M503.62 251.22a.21.21 0 0 1 .23.23v1.64a.21.21 0 0 1-.23.24h-11a.21.21 0 0 1-.23-.24v-1.64a.21.21 0 0 1 .23-.23z"/><path class="cls-11" d="M514.53 251.22a.21.21 0 0 1 .23.23v1.64a.22.22 0 0 1-.23.24h-11a.21.21 0 0 1-.23-.24v-1.64a.21.21 0 0 1 .23-.23z"/><path class="cls-11" d="M525.43 251.22a.21.21 0 0 1 .24.23v1.64a.22.22 0 0 1-.24.24h-11a.22.22 0 0 1-.24-.24v-1.64a.21.21 0 0 1 .24-.23z"/><path class="cls-11" d="M536.34 251.22a.21.21 0 0 1 .23.23v1.64a.21.21 0 0 1-.23.24h-11a.22.22 0 0 1-.23-.24v-1.64a.21.21 0 0 1 .23-.23z"/><path class="cls-11" d="M547.25 251.22a.21.21 0 0 1 .23.23v1.64a.21.21 0 0 1-.23.24h-11a.21.21 0 0 1-.23-.24v-1.64a.21.21 0 0 1 .23-.23z"/><path class="cls-11" d="M558.16 251.22a.21.21 0 0 1 .23.23v1.64a.21.21 0 0 1-.23.24h-11a.21.21 0 0 1-.23-.24v-1.64a.21.21 0 0 1 .23-.23z"/><path class="cls-11" d="M569.07 251.22a.21.21 0 0 1 .23.23v1.64a.22.22 0 0 1-.23.24h-11a.21.21 0 0 1-.23-.24v-1.64a.21.21 0 0 1 .23-.23z"/><path class="cls-11" d="M580 251.22a.21.21 0 0 1 .24.23v1.64a.22.22 0 0 1-.24.24h-11a.22.22 0 0 1-.24-.24v-1.64a.21.21 0 0 1 .24-.23z"/><path class="cls-11" d="M590.88 251.22a.21.21 0 0 1 .24.23v1.64a.22.22 0 0 1-.24.24h-11a.22.22 0 0 1-.24-.24v-1.64a.21.21 0 0 1 .24-.23z"/><path class="cls-11" d="M601.79 251.22a.21.21 0 0 1 .23.23v1.64a.21.21 0 0 1-.23.24h-11a.21.21 0 0 1-.23-.24v-1.64a.21.21 0 0 1 .23-.23z"/><path class="cls-11" d="M612.7 251.22a.21.21 0 0 1 .23.23v1.64a.21.21 0 0 1-.23.24h-11a.21.21 0 0 1-.23-.24v-1.64a.21.21 0 0 1 .23-.23z"/><path class="cls-11" d="M623.61 251.22a.21.21 0 0 1 .23.23v1.64a.21.21 0 0 1-.23.24h-11a.21.21 0 0 1-.23-.24v-1.64a.21.21 0 0 1 .23-.23z"/><path class="cls-11" d="M634.51 251.22a.21.21 0 0 1 .24.23v1.64a.22.22 0 0 1-.24.24h-11a.22.22 0 0 1-.24-.24v-1.64a.21.21 0 0 1 .24-.23z"/><path class="cls-11" d="M645.42 251.22a.21.21 0 0 1 .24.23v1.64a.22.22 0 0 1-.24.24h-11a.22.22 0 0 1-.24-.24v-1.64a.21.21 0 0 1 .24-.23z"/><path class="cls-11" d="M656.33 251.22a.21.21 0 0 1 .24.23v1.64a.22.22 0 0 1-.24.24h-11a.22.22 0 0 1-.24-.24v-1.64a.21.21 0 0 1 .24-.23z"/><path class="cls-11" d="M667.24 251.22a.21.21 0 0 1 .23.23v1.64a.21.21 0 0 1-.23.24h-11a.21.21 0 0 1-.23-.24v-1.64a.21.21 0 0 1 .23-.23z"/><path class="cls-11" d="M678.15 251.22a.21.21 0 0 1 .23.23v1.64a.21.21 0 0 1-.23.24h-11a.21.21 0 0 1-.23-.24v-1.64a.21.21 0 0 1 .23-.23z"/><path class="cls-11" d="M689.06 251.22a.21.21 0 0 1 .23.23v1.64a.22.22 0 0 1-.23.24H678a.21.21 0 0 1-.23-.24v-1.64a.21.21 0 0 1 .23-.23z"/><path class="cls-10" d="M156.61 279.35a.23.23 0 0 1-.25.25h-2.07a.23.23 0 0 1-.25-.25v-6l-1.13.39a8.68 8.68 0 0 1-2.95.45c-3.22 0-5.07-1.94-5.07-5.19v-4.89a.23.23 0 0 1 .25-.25h2.05a.23.23 0 0 1 .25.25v4.46c0 2.17.94 3.27 2.75 3.27a6.62 6.62 0 0 0 2.23-.34l1.62-.54v-6.85a.23.23 0 0 1 .25-.25h2.07a.23.23 0 0 1 .25.25zM168.78 270.65a.23.23 0 0 1-.25.25h-3.31v8.45a.23.23 0 0 1-.25.25h-2a.23.23 0 0 1-.25-.25v-8.45h-3.31a.23.23 0 0 1-.25-.25v-1.74a.22.22 0 0 1 .25-.24h9.15a.22.22 0 0 1 .25.24zM180.68 274.12c0 3.52-2 5.72-5.19 5.72s-5.2-2.2-5.2-5.72 2-5.68 5.2-5.68 5.19 2.21 5.19 5.68zm-7.91 0c0 2.16 1 3.45 2.72 3.45s2.71-1.29 2.71-3.45-1-3.43-2.71-3.43-2.72 1.31-2.72 3.43zM199.4 279.35a.23.23 0 0 1-.25.25h-2a.23.23 0 0 1-.25-.25V276a31.31 31.31 0 0 1 .18-3.84c0-.2-.16-.27-.23-.06-.18.38-.33.79-.49 1.17l-1.31 2.86a10.27 10.27 0 0 0-.43 1.22c0 .13-.11.2-.27.2h-1.49a.25.25 0 0 1-.27-.2 11.67 11.67 0 0 0-.42-1.22l-1.31-2.86-.5-1.17c-.06-.21-.27-.14-.22.06a27.61 27.61 0 0 1 .2 3.84v3.31a.23.23 0 0 1-.25.25h-2a.23.23 0 0 1-.25-.25v-10.4a.22.22 0 0 1 .25-.24H191a.24.24 0 0 1 .27.22 7 7 0 0 0 .36 1.06l1.28 2.84a19 19 0 0 1 .57 1.83c0 .2.18.2.22 0 .09-.39.38-1.27.56-1.83l1.31-2.84a7 7 0 0 0 .36-1.06.24.24 0 0 1 .27-.22h2.93a.22.22 0 0 1 .25.24zM212.27 274.12c0 3.52-2 5.72-5.19 5.72s-5.2-2.2-5.2-5.72 2-5.68 5.2-5.68 5.19 2.21 5.19 5.68zm-7.91 0c0 2.16 1 3.45 2.72 3.45s2.71-1.29 2.71-3.45-1-3.43-2.71-3.43-2.72 1.31-2.72 3.43zM227 272.07a4 4 0 0 1-1.75 1.87c-.14.05-.12.16 0 .23a3.85 3.85 0 0 1 1.87 1.91l1.75 3.22c.1.18 0 .3-.18.3h-2.16a.3.3 0 0 1-.29-.18l-1.56-2.82c-.47-.81-1.08-1.4-1.73-1.4h-.34v4.15a.23.23 0 0 1-.25.25h-2a.23.23 0 0 1-.25-.25v-4.15h-.34c-.65 0-1.28.61-1.74 1.4l-1.55 2.82a.3.3 0 0 1-.29.18H214c-.2 0-.27-.12-.18-.3l1.76-3.22a3.89 3.89 0 0 1 1.87-1.91c.14-.07.14-.18 0-.23a4.17 4.17 0 0 1-1.76-1.87L214 269c-.09-.18 0-.29.18-.29h2.17a.29.29 0 0 1 .29.18l1.22 2.18c.47.86 1.24 1.92 2 1.92h.25v-4a.22.22 0 0 1 .25-.24h2a.22.22 0 0 1 .25.24v4h.27c.72 0 1.49-1.06 2-1.92l1.19-2.18a.29.29 0 0 1 .3-.18h2.18c.21 0 .27.11.18.29zM240.88 279.35a.22.22 0 0 1-.24.25h-2a.23.23 0 0 1-.25-.25v-4.17H234v4.17a.23.23 0 0 1-.25.25h-2a.22.22 0 0 1-.24-.25v-10.44a.22.22 0 0 1 .24-.24h2a.22.22 0 0 1 .25.24v4h4.37v-4a.22.22 0 0 1 .25-.24h2a.22.22 0 0 1 .24.24zM253.75 274.12c0 3.52-2 5.72-5.18 5.72s-5.21-2.2-5.21-5.72 2-5.68 5.21-5.68 5.18 2.21 5.18 5.68zm-7.91 0c0 2.16 1 3.45 2.73 3.45s2.7-1.29 2.7-3.45-1-3.43-2.7-3.43-2.73 1.31-2.73 3.43zM267.81 279.55a8.31 8.31 0 0 1-2.1.29c-3.44 0-5.34-2.2-5.34-5.72s1.87-5.68 5.41-5.68a7 7 0 0 1 1.94.27l1 .27a.24.24 0 0 1 .18.32l-.52 1.69a.23.23 0 0 1-.29.16l-.77-.21a5.09 5.09 0 0 0-1.51-.25c-2 0-2.93 1.29-2.93 3.41s1 3.47 2.89 3.47a6.5 6.5 0 0 0 1.66-.25l.75-.23a.23.23 0 0 1 .31.16l.52 1.69a.23.23 0 0 1-.18.32zM282.68 277.37a.22.22 0 0 1 .25.24v5.25a.23.23 0 0 1-.25.25h-1.82a.23.23 0 0 1-.25-.25v-3.26h-7.55v3.26a.23.23 0 0 1-.25.25H271a.23.23 0 0 1-.25-.25v-5.25a.22.22 0 0 1 .25-.24h.92l.56-1.18a6.9 6.9 0 0 0 .5-2.95v-4.33a.22.22 0 0 1 .25-.24h8.09a.22.22 0 0 1 .25.24v8.46zm-7.21-4.13a7.75 7.75 0 0 1-.61 3.43l-.31.7h4.5v-6.47h-3.58zM292.26 279.55a9.11 9.11 0 0 1-2.3.29c-3.4 0-5.32-2.2-5.32-5.7s1.94-5.7 5.23-5.7c2.7 0 4.35 1.35 4.35 3.58 0 1.74-1.06 2.73-3.31 3.07l-3.54.54a2.4 2.4 0 0 0 2.57 1.94 6.05 6.05 0 0 0 1.78-.23l1-.25a.25.25 0 0 1 .32.19l.45 1.69a.24.24 0 0 1-.18.31zm-1.74-6.4c.79-.13 1.22-.49 1.22-1.08 0-.9-.7-1.38-1.92-1.38-1.48 0-2.5.93-2.68 3zM306.43 279.35a.23.23 0 0 1-.25.25h-2a.23.23 0 0 1-.25-.25v-8.45h-3.58v3.29c0 2.61-1 4.3-3.07 5.36l-.65.32a.24.24 0 0 1-.34-.11l-.74-1.61c-.07-.15-.05-.27.11-.33l.65-.32c1-.56 1.54-1.6 1.54-3.31v-5.28a.22.22 0 0 1 .24-.24h8.09a.22.22 0 0 1 .25.24zM310.82 268.78a8.31 8.31 0 0 1 2.46-.34c3 0 4.91 1.58 4.91 4.31v6.6a.22.22 0 0 1-.24.25h-1.13a.27.27 0 0 1-.29-.21l-.18-.69c-.14-.32-.27-.32-.57-.05a4 4 0 0 1-3.08 1.19c-2.51 0-3.9-1.28-3.9-3.4s1.44-3.47 4.1-3.47h2.82v-.13c0-1.38-.88-2.12-2.55-2.12a6.11 6.11 0 0 0-1.76.22l-.81.25a.23.23 0 0 1-.32-.18l-.49-1.67a.22.22 0 0 1 .21-.34zm2.08 6.15c-1.11 0-1.62.52-1.62 1.29s.6 1.42 1.69 1.42c1.78 0 2.75-.88 2.75-2.55v-.16zM329.71 270.65a.23.23 0 0 1-.25.25h-3.31v8.45a.23.23 0 0 1-.25.25h-2a.23.23 0 0 1-.25-.25v-8.45h-3.31a.23.23 0 0 1-.25-.25v-1.74a.22.22 0 0 1 .25-.24h9.15a.22.22 0 0 1 .25.24zM332.28 279.6a.23.23 0 0 1-.25-.25v-10.44a.22.22 0 0 1 .25-.24h2a.22.22 0 0 1 .25.24v3.2h1.6c3 0 4.78 1.42 4.78 3.84s-1.51 3.65-4.15 3.65zm4.48-2.23c1 0 1.67-.52 1.67-1.42s-.86-1.6-2.3-1.6h-1.6v3zM354.88 279.55a8.31 8.31 0 0 1-2.1.29c-3.45 0-5.34-2.2-5.34-5.72s1.87-5.68 5.41-5.68a7 7 0 0 1 1.94.27l1 .27a.25.25 0 0 1 .18.32l-.52 1.69a.23.23 0 0 1-.29.16l-.77-.21a5.09 5.09 0 0 0-1.51-.25c-2 0-2.93 1.29-2.93 3.41s1 3.47 2.88 3.47a6.51 6.51 0 0 0 1.67-.25l.75-.23a.24.24 0 0 1 .31.16l.52 1.69a.23.23 0 0 1-.18.32zM359.88 268.78a8.27 8.27 0 0 1 2.46-.34c3 0 4.91 1.58 4.91 4.31v6.6a.23.23 0 0 1-.25.25h-1.12a.28.28 0 0 1-.3-.21l-.18-.69c-.13-.32-.27-.32-.56-.05a4 4 0 0 1-3.09 1.19c-2.5 0-3.9-1.28-3.9-3.4S359.29 273 362 273h2.82v-.13c0-1.38-.88-2.12-2.55-2.12a6 6 0 0 0-1.75.22l-.82.25a.23.23 0 0 1-.31-.18l-.5-1.67a.23.23 0 0 1 .11-.37zm2.07 6.15c-1.1 0-1.62.52-1.62 1.29s.61 1.42 1.69 1.42c1.78 0 2.75-.88 2.75-2.55v-.16zM381.67 279.35a.23.23 0 0 1-.25.25h-2a.23.23 0 0 1-.25-.25V276a31.31 31.31 0 0 1 .18-3.84c0-.2-.16-.27-.23-.06-.18.38-.33.79-.49 1.17l-1.31 2.86a10.27 10.27 0 0 0-.43 1.22c0 .13-.11.2-.27.2h-1.48c-.16 0-.25-.07-.27-.2-.12-.41-.28-.84-.43-1.22l-1.31-2.86-.5-1.17c-.06-.21-.27-.14-.22.06a27.61 27.61 0 0 1 .2 3.84v3.31a.23.23 0 0 1-.25.25h-2a.23.23 0 0 1-.25-.25v-10.4a.22.22 0 0 1 .25-.24h2.93c.16 0 .25.06.27.22a7 7 0 0 0 .36 1.06l1.28 2.84a19 19 0 0 1 .57 1.83c0 .2.18.2.22 0 .09-.39.39-1.27.57-1.83l1.3-2.84a7 7 0 0 0 .36-1.06.23.23 0 0 1 .27-.22h2.93a.22.22 0 0 1 .25.24zM394.54 274.12c0 3.52-2 5.72-5.19 5.72s-5.2-2.2-5.2-5.72 2-5.68 5.2-5.68 5.19 2.21 5.19 5.68zm-7.91 0c0 2.16 1 3.45 2.72 3.45s2.71-1.29 2.71-3.45-1-3.43-2.71-3.43-2.72 1.31-2.72 3.43zM408.57 279.35a.22.22 0 0 1-.24.25h-2a.23.23 0 0 1-.25-.25V276a33.42 33.42 0 0 1 .18-3.84c0-.2-.15-.27-.22-.06-.18.38-.34.79-.5 1.17l-1.3 2.86a8.75 8.75 0 0 0-.43 1.22.24.24 0 0 1-.27.2H402c-.16 0-.25-.07-.27-.2a9.77 9.77 0 0 0-.43-1.22l-1.3-2.82-.49-1.17c-.07-.21-.27-.14-.23.06a27.63 27.63 0 0 1 .21 3.84v3.31a.23.23 0 0 1-.25.25h-2a.23.23 0 0 1-.25-.25v-10.44a.22.22 0 0 1 .25-.24h2.93c.16 0 .25.06.27.22a7 7 0 0 0 .36 1.06l1.29 2.84c.2.56.47 1.44.56 1.83.05.2.18.2.23 0 .09-.39.38-1.27.56-1.83l1.31-2.84a8.3 8.3 0 0 0 .36-1.06c0-.16.11-.22.27-.22h2.93a.22.22 0 0 1 .24.24zM417.11 280.79c-1 2.5-2.36 3.65-4.57 3.65h-.83a.23.23 0 0 1-.25-.25v-1.73a.23.23 0 0 1 .25-.25h.74a1.84 1.84 0 0 0 1.91-1.33l.34-.79c.41-1 .05-2.18-.76-4.08l-3.09-7.01c-.09-.18 0-.29.18-.29h2.12a.32.32 0 0 1 .29.18l2 4.59a14.68 14.68 0 0 1 .86 2.87c.06.27.29.27.36 0a17.22 17.22 0 0 1 .81-2.87l1.89-4.57a.26.26 0 0 1 .27-.2h2.12c.18 0 .27.11.2.29zM425 264.2a12.62 12.62 0 0 1 3.68-.58c3.38 0 5.23 1.58 5.23 4.12 0 1.47-.68 2.59-2.23 3.7l-1.24.88a2.08 2.08 0 0 0-.91 1.69v1.15a.22.22 0 0 1-.24.24h-2a.22.22 0 0 1-.25-.24V274a4.08 4.08 0 0 1 2-3.61l1.29-.88a2.08 2.08 0 0 0 1.12-1.78c0-1-1.12-1.71-2.7-1.71a10 10 0 0 0-2.91.45l-1.31.43a.25.25 0 0 1-.31-.16l-.63-1.8c-.07-.14 0-.25.15-.3zm5 14a1.57 1.57 0 1 1-3.13 0 1.57 1.57 0 1 1 3.13 0z"/><path class="cls-11" d="M154.56 297.47a.21.21 0 0 1 .23.23v1.65a.21.21 0 0 1-.23.23h-11a.21.21 0 0 1-.23-.23v-1.65a.21.21 0 0 1 .23-.23z"/><path class="cls-11" d="M165.46 297.47a.21.21 0 0 1 .24.23v1.65a.21.21 0 0 1-.24.23h-11a.21.21 0 0 1-.23-.23v-1.65a.21.21 0 0 1 .23-.23z"/><path class="cls-11" d="M176.37 297.47a.21.21 0 0 1 .24.23v1.65a.21.21 0 0 1-.24.23h-11a.21.21 0 0 1-.24-.23v-1.65a.21.21 0 0 1 .24-.23z"/><path class="cls-11" d="M187.28 297.47a.21.21 0 0 1 .24.23v1.65a.21.21 0 0 1-.24.23h-11a.21.21 0 0 1-.24-.23v-1.65a.21.21 0 0 1 .24-.23z"/><path class="cls-11" d="M198.19 297.47a.21.21 0 0 1 .23.23v1.65a.21.21 0 0 1-.23.23h-11a.21.21 0 0 1-.23-.23v-1.65a.21.21 0 0 1 .23-.23z"/><path class="cls-11" d="M209.1 297.47a.21.21 0 0 1 .23.23v1.65a.21.21 0 0 1-.23.23h-11a.21.21 0 0 1-.23-.23v-1.65a.21.21 0 0 1 .23-.23z"/><path class="cls-11" d="M220 297.47a.21.21 0 0 1 .23.23v1.65a.21.21 0 0 1-.23.23h-11a.21.21 0 0 1-.23-.23v-1.65a.21.21 0 0 1 .23-.23z"/><path class="cls-11" d="M230.91 297.47a.21.21 0 0 1 .24.23v1.65a.21.21 0 0 1-.24.23h-11a.21.21 0 0 1-.24-.23v-1.65a.21.21 0 0 1 .24-.23z"/><path class="cls-11" d="M241.82 297.47a.21.21 0 0 1 .24.23v1.65a.21.21 0 0 1-.24.23h-11a.21.21 0 0 1-.24-.23v-1.65a.21.21 0 0 1 .24-.23z"/><path class="cls-11" d="M252.73 297.47a.21.21 0 0 1 .23.23v1.65a.21.21 0 0 1-.23.23h-11a.21.21 0 0 1-.24-.23v-1.65a.21.21 0 0 1 .24-.23z"/><path class="cls-11" d="M263.64 297.47a.21.21 0 0 1 .23.23v1.65a.21.21 0 0 1-.23.23h-11a.21.21 0 0 1-.23-.23v-1.65a.21.21 0 0 1 .23-.23z"/><path class="cls-11" d="M274.55 297.47a.21.21 0 0 1 .23.23v1.65a.21.21 0 0 1-.23.23h-11a.21.21 0 0 1-.23-.23v-1.65a.21.21 0 0 1 .23-.23z"/><path class="cls-11" d="M285.45 297.47a.21.21 0 0 1 .24.23v1.65a.21.21 0 0 1-.24.23h-11a.21.21 0 0 1-.24-.23v-1.65a.21.21 0 0 1 .24-.23z"/><path class="cls-11" d="M296.36 297.47a.21.21 0 0 1 .24.23v1.65a.21.21 0 0 1-.24.23h-11a.21.21 0 0 1-.24-.23v-1.65a.21.21 0 0 1 .24-.23z"/><path class="cls-11" d="M307.27 297.47a.21.21 0 0 1 .24.23v1.65a.21.21 0 0 1-.24.23h-11a.21.21 0 0 1-.24-.23v-1.65a.21.21 0 0 1 .24-.23z"/><path class="cls-11" d="M318.18 297.47a.21.21 0 0 1 .23.23v1.65a.21.21 0 0 1-.23.23h-11a.21.21 0 0 1-.23-.23v-1.65a.21.21 0 0 1 .23-.23z"/><path class="cls-11" d="M329.09 297.47a.21.21 0 0 1 .23.23v1.65a.21.21 0 0 1-.23.23h-11a.21.21 0 0 1-.23-.23v-1.65a.21.21 0 0 1 .23-.23z"/><path class="cls-11" d="M340 297.47a.21.21 0 0 1 .24.23v1.65a.21.21 0 0 1-.24.23h-11a.21.21 0 0 1-.24-.23v-1.65a.21.21 0 0 1 .24-.23z"/><path class="cls-11" d="M350.9 297.47a.21.21 0 0 1 .24.23v1.65a.21.21 0 0 1-.24.23h-11a.21.21 0 0 1-.24-.23v-1.65a.21.21 0 0 1 .24-.23z"/><path class="cls-11" d="M361.81 297.47a.21.21 0 0 1 .24.23v1.65a.21.21 0 0 1-.24.23h-11a.21.21 0 0 1-.24-.23v-1.65a.21.21 0 0 1 .24-.23z"/><path class="cls-11" d="M372.72 297.47a.21.21 0 0 1 .23.23v1.65a.21.21 0 0 1-.23.23h-11a.21.21 0 0 1-.23-.23v-1.65a.21.21 0 0 1 .23-.23z"/><path class="cls-11" d="M383.63 297.47a.21.21 0 0 1 .23.23v1.65a.21.21 0 0 1-.23.23h-11a.21.21 0 0 1-.23-.23v-1.65a.21.21 0 0 1 .23-.23z"/><path class="cls-11" d="M394.53 297.47a.21.21 0 0 1 .24.23v1.65a.21.21 0 0 1-.24.23h-11a.21.21 0 0 1-.24-.23v-1.65a.21.21 0 0 1 .24-.23z"/><path class="cls-11" d="M405.44 297.47a.21.21 0 0 1 .24.23v1.65a.21.21 0 0 1-.24.23h-11a.21.21 0 0 1-.24-.23v-1.65a.21.21 0 0 1 .24-.23z"/><path class="cls-11" d="M416.35 297.47a.21.21 0 0 1 .24.23v1.65a.21.21 0 0 1-.24.23h-11a.21.21 0 0 1-.24-.23v-1.65a.21.21 0 0 1 .24-.23z"/><path class="cls-11" d="M427.26 297.47a.21.21 0 0 1 .23.23v1.65a.21.21 0 0 1-.23.23h-11a.21.21 0 0 1-.23-.23v-1.65a.21.21 0 0 1 .23-.23z"/><path class="cls-11" d="M438.17 297.47a.21.21 0 0 1 .23.23v1.65a.21.21 0 0 1-.23.23h-11a.21.21 0 0 1-.23-.23v-1.65a.21.21 0 0 1 .23-.23z"/><path class="cls-11" d="M449.08 297.47a.21.21 0 0 1 .23.23v1.65a.21.21 0 0 1-.23.23h-11a.21.21 0 0 1-.23-.23v-1.65a.21.21 0 0 1 .23-.23z"/><path class="cls-11" d="M460 297.47a.21.21 0 0 1 .24.23v1.65a.21.21 0 0 1-.24.23h-11a.21.21 0 0 1-.24-.23v-1.65a.21.21 0 0 1 .24-.23z"/><path class="cls-11" d="M470.89 297.47a.21.21 0 0 1 .24.23v1.65a.21.21 0 0 1-.24.23h-11a.21.21 0 0 1-.24-.23v-1.65a.21.21 0 0 1 .24-.23z"/><path class="cls-11" d="M481.8 297.47a.21.21 0 0 1 .23.23v1.65a.21.21 0 0 1-.23.23h-11a.21.21 0 0 1-.23-.23v-1.65a.21.21 0 0 1 .23-.23z"/><path class="cls-11" d="M492.71 297.47a.21.21 0 0 1 .23.23v1.65a.21.21 0 0 1-.23.23h-11a.21.21 0 0 1-.23-.23v-1.65a.21.21 0 0 1 .23-.23z"/><path class="cls-11" d="M503.62 297.47a.21.21 0 0 1 .23.23v1.65a.21.21 0 0 1-.23.23h-11a.21.21 0 0 1-.23-.23v-1.65a.21.21 0 0 1 .23-.23z"/><path class="cls-11" d="M514.53 297.47a.21.21 0 0 1 .23.23v1.65a.21.21 0 0 1-.23.23h-11a.21.21 0 0 1-.23-.23v-1.65a.21.21 0 0 1 .23-.23z"/><path class="cls-11" d="M525.43 297.47a.21.21 0 0 1 .24.23v1.65a.21.21 0 0 1-.24.23h-11a.21.21 0 0 1-.24-.23v-1.65a.21.21 0 0 1 .24-.23z"/><path class="cls-11" d="M536.34 297.47a.21.21 0 0 1 .23.23v1.65a.21.21 0 0 1-.23.23h-11a.21.21 0 0 1-.23-.23v-1.65a.21.21 0 0 1 .23-.23z"/><path class="cls-11" d="M547.25 297.47a.21.21 0 0 1 .23.23v1.65a.21.21 0 0 1-.23.23h-11a.21.21 0 0 1-.23-.23v-1.65a.21.21 0 0 1 .23-.23z"/><path class="cls-11" d="M558.16 297.47a.21.21 0 0 1 .23.23v1.65a.21.21 0 0 1-.23.23h-11a.21.21 0 0 1-.23-.23v-1.65a.21.21 0 0 1 .23-.23z"/><path class="cls-11" d="M569.07 297.47a.21.21 0 0 1 .23.23v1.65a.21.21 0 0 1-.23.23h-11a.21.21 0 0 1-.23-.23v-1.65a.21.21 0 0 1 .23-.23z"/><path class="cls-11" d="M580 297.47a.21.21 0 0 1 .24.23v1.65a.21.21 0 0 1-.24.23h-11a.21.21 0 0 1-.24-.23v-1.65a.21.21 0 0 1 .24-.23z"/><path class="cls-11" d="M590.88 297.47a.21.21 0 0 1 .24.23v1.65a.21.21 0 0 1-.24.23h-11a.21.21 0 0 1-.24-.23v-1.65a.21.21 0 0 1 .24-.23z"/><path class="cls-11" d="M601.79 297.47a.21.21 0 0 1 .23.23v1.65a.21.21 0 0 1-.23.23h-11a.21.21 0 0 1-.23-.23v-1.65a.21.21 0 0 1 .23-.23z"/><path class="cls-11" d="M612.7 297.47a.21.21 0 0 1 .23.23v1.65a.21.21 0 0 1-.23.23h-11a.21.21 0 0 1-.23-.23v-1.65a.21.21 0 0 1 .23-.23z"/><path class="cls-11" d="M623.61 297.47a.21.21 0 0 1 .23.23v1.65a.21.21 0 0 1-.23.23h-11a.21.21 0 0 1-.23-.23v-1.65a.21.21 0 0 1 .23-.23z"/><path class="cls-11" d="M634.51 297.47a.21.21 0 0 1 .24.23v1.65a.21.21 0 0 1-.24.23h-11a.21.21 0 0 1-.24-.23v-1.65a.21.21 0 0 1 .24-.23z"/><path class="cls-11" d="M645.42 297.47a.21.21 0 0 1 .24.23v1.65a.21.21 0 0 1-.24.23h-11a.21.21 0 0 1-.24-.23v-1.65a.21.21 0 0 1 .24-.23z"/><path class="cls-11" d="M656.33 297.47a.21.21 0 0 1 .24.23v1.65a.21.21 0 0 1-.24.23h-11a.21.21 0 0 1-.24-.23v-1.65a.21.21 0 0 1 .24-.23z"/><path class="cls-11" d="M667.24 297.47a.21.21 0 0 1 .23.23v1.65a.21.21 0 0 1-.23.23h-11a.21.21 0 0 1-.23-.23v-1.65a.21.21 0 0 1 .23-.23z"/><path class="cls-11" d="M678.15 297.47a.21.21 0 0 1 .23.23v1.65a.21.21 0 0 1-.23.23h-11a.21.21 0 0 1-.23-.23v-1.65a.21.21 0 0 1 .23-.23z"/><path class="cls-11" d="M689.06 297.47a.21.21 0 0 1 .23.23v1.65a.21.21 0 0 1-.23.23H678a.21.21 0 0 1-.23-.23v-1.65a.21.21 0 0 1 .23-.23z"/></svg>