<svg data-name="Layer 1" xmlns="http://www.w3.org/2000/svg" viewBox="0 0 500 500"><path d="M317 68.61c-16.39-1.19-89-6.85-107.17-6.19-31.84 1.14-108.72 7.35-167.71 70C21 154.75-28.11 348.91 67.39 408.7c160.76 100.66 467.81 14 419.8-188C447.47 53.5 341.3 70.37 317 68.61z" fill="#c4e5e5"/><path d="M211.61 208.86c0 26.11-.57 52.22-.57 78.33 0 3.72.48 7.46.48 11.14a3.86 3.86 0 0 1-.77 2.7c-2.76.54-6 1.48-8.81 1.48-1.61 0-1.39-5.57-1.44-6.66-.4-8.81.75-17.74.75-25.88 0-7.35 1.5-10.05-7.15-10.12-5.76 0-7.7.74-7.7 7.6 0 7.55.62 15.3.72 22.91 0 2.95.52 5.89.52 8.86 0 5.16-1.56 4.19-6.3 4.19-2.71 0-5.22.55-5.22-3 0-3.23 1-6.34 1-9.67 0-10.94-1.17-21.83-1.26-32.76-.1-13.49-.15-27-.39-40.45-.12-6.24-1-12.44-1-18.71 0-2.69.06-10 2.59-11.67.94-.64 5.63-.82 6.86-.82 3.14 0 4 .69 4 4 0 8.88-3.53 61.15 1.88 61.15 2.44 0 4.86.26 7.29.26 3.41 0 3.82-.68 3.82-4.05 0-2.4-.5-4.78-.5-7.16 0-14.66.89-29.33.89-44 0-2.77-.67-9 3.52-9a8.76 8.76 0 0 1 3.05.71c4.15 1.57 3.55 1.68 3.64 6.07s.14 8.71.14 13.06v1.52zM246.55 177.74c4.52 0 8.07-.77 8.07 5.18 0 2.66 0 10.57-3.9 10.57s-7.37-2.6-11.32-2.6c-2.21 0-2.67 1.05-2.67 3 0 6.52 1.13 13 1.13 19.47 0 9.16-.33 18.32.47 27.46.11 1.3.19 4.16 2 4.16s3.75-.95 5.69-.95c5.29 0 4.28.86 4.78 5.2a42.93 42.93 0 0 1 .73 4.77 2.82 2.82 0 0 1-2.84 2.65c-2.39 0-4.5-1.49-6.89-1.49-3.75 0-4 3.87-4 6.72 0 4.78 1.24 9.45 1.43 14.22.16 4.13.32 8.26.32 12.4 0 2.83-.74 5.6-.74 8.43 0 1.58.45 3.33 2.37 3.33 3 0 5.78-1.72 8.83-1.72 1.77 0 2 .72 2 2.34 0 2.57.12 5.13.12 7.7s-2.2 2.64-4.2 3a109.38 109.38 0 0 1-17.31 1.79c-3.12 0-4-.09-4-3.52 0-2.9.88-5.71.88-8.61 0-24.23.29-48.45.29-72.68 0-11.48 0-23-.34-34.43-.08-3.2-.63-6.37-.63-9.57 0-4.4.65-8.15 6-8.15 3.88 0 7.68 1 11.54 1.27zM299.14 183.84c2.06 1 3.06 4 3.06 6.14a5.36 5.36 0 0 1-5.16 5.6c-2.42 0-4.69-1.69-6.28-1.69s-1.51 2-1.51 3a26.51 26.51 0 0 0 .26 3.32c1.57 13.17 1.2 26.41 1.85 39.64.69 13.84 1.18 27.7 2.52 41.5.24 2.49.27 5 .27 7.49a77 77 0 0 0 .22 7.89c.24 2.34 1.11 4.57 1.11 7 0 4.12-4.19 4.51-7.46 4.51-5.54 0-5.31-2.45-5.31-7.17 0-3.56.48-7.11.48-10.66v-.45c-1.13-29.68-2.93-59.37-3.79-89-.11-3.59.41-7.22-4.49-7.22-2.68 0-5.19 1.51-7.89 1.51-3.55 0-3.93-3-3.93-5.85 0-1.71.34-7.69 2.85-7.69 1.47 0 2.81.75 4.24 1a84.18 84.18 0 0 0 13.17 1c3.47 0 6.92-.62 10.4-.62a12.6 12.6 0 0 1 5.4.89z"/></svg>