<svg id="Layer_1" data-name="Layer 1" xmlns="http://www.w3.org/2000/svg" viewBox="0 0 1456.08 1021.32"><defs><style>.cls-1{fill:#fff}.cls-2{fill:#c4e5e5}.cls-16,.cls-3{fill:none}.cls-3{stroke:#1691c9;stroke-width:4px;stroke-miterlimit:10}.cls-7{fill:#003b71}.cls-8{fill:#5f3335}.cls-9{fill:#eca179}.cls-10{fill:#aa664b}.cls-12{fill:#003359}.cls-13{fill:#de8d68}.cls-16{stroke:#ca5e34;stroke-linecap:round;stroke-linejoin:round;stroke-width:3.02px}.cls-18{fill:#1b1c20}.cls-19{fill:#604538}.cls-21{fill:#fbb817}</style><clipPath id="clip-path"><path class="cls-1" d="M802.36 297.5s-7.45-11.28-22.16-1.63c0 0 7.98 10.49 22.16 1.63z"/></clipPath><clipPath id="clip-path-2"><path class="cls-1" d="M817.65 296.82s6.33-10.33 14-2.47c-.05 0-6.22 10.65-14 2.47z"/></clipPath></defs><path class="cls-2" d="M907.75 17c-35.48.38-209.51-6.31-249.21-1.34C589 24.42 535.48 47.63 485 72.4c-63.38 31.14-120.58 67.3-174.6 105.8C240.6 228 176 281.58 124.93 345.39 80 401.42 83.71 467.64 91.67 559.07c4.51 51.71-7.93 106 34.86 184.64C307.37 1076 1443.4 1097.19 1338.2 369.1 1283.59-8.84 960.43 16.47 907.75 17z"/><path class="cls-3" d="M398.17 164.84h732.76v466.39H398.17zM376.31 145.98l21.86 18.86"/><path class="cls-3" d="M659.33 262.89l55.97-27.81-9.89 55.6M887.45 297.54s-40.82 68.8-11 117.1M1073.68 288.19s52.28 47.18 35 105.33"/><path d="M897.37 322.09c5.63-3.11 11.17-6.36 16.77-9.51s11.25-6 16.88-9c11.24-6 22.33-12.31 34-17.42s23.34-10.21 35.4-14.3c4.85-1.65 9.77-3.08 14.73-4.34 1.37-.35 2.75-.67 4.14-.9.14 0 1.11-.16.6-.1.38-.05.77-.09 1.16-.11a16.88 16.88 0 0 1 2.36 0l.54.05c-.53-.06-.16 0-.05 0 .34.07.66.15 1 .24 0 0 .62.23.25.08s.18.09.21.11l.32.19c.37.22-.22-.34.13.12.09.11.21.21.31.33-.35-.42-.14-.16-.07-.06s.31.67.09.1a3.56 3.56 0 0 1 .13.39c0 .14.07.28.1.42.15.69 0-.49 0 .26a8.54 8.54 0 0 1 0 1.34c-.55 4.66-3.46 9-6.34 12.61-3.18 3.95-6.71 7.66-10.17 11.36-4.13 4.41-8.45 8.63-12.9 12.71-9 8.26-18.7 15.71-27.87 23.79a521.955 521.955 0 0 0-27.72 26.32c-3.85 3.94-7.75 7.92-11.3 12.12-2.89 3.43-5.69 8.24-2.95 12.62 3.79 6.06 12.82 2 17.92.28 2.17-.73 4.46-1.15 6.67-1.72 3.13-.81 6.26-1.66 9.37-2.53 6.24-1.74 12.45-3.57 18.68-5.31q18.71-5.25 37.58-10a268 268 0 0 1 38.27-6.65c2.91-.29 5.83-.62 8.75-.75a17.45 17.45 0 0 1 8 1 12.57 12.57 0 0 1 1.83 1c.26.17.51.35.76.53-.54-.4.25.22.38.34a15.2 15.2 0 0 1 1.11 1.16c.47.51-.15-.31.21.27.15.25.32.49.47.75s.23.42.34.63.13.29.2.43c0-.05-.21-.55-.07-.15s.34 1 .47 1.53c.06.26.09.54.15.8.14.54 0-.45 0-.09v.41a16.29 16.29 0 0 1 .06 1.71c0 .6-.06 1.19-.12 1.79s.07-.31-.06.43c0 .32-.11.63-.17.94a33 33 0 0 1-1.05 3.9c-.23.68-.47 1.35-.73 2l-.37.93c0 .11-.24.56 0 .13-.09.21-.18.41-.28.62-.63 1.44-1.32 2.86-2 4.25-1.55 3-3.27 5.89-5.07 8.74-3.68 5.83-7.68 11.44-11.64 17.07a123.9 123.9 0 0 0-9 13.93 18.84 18.84 0 0 0-2 5.25c-.75 4.33 4.92 5.62 8.13 5.45a40.47 40.47 0 0 0 11.15-2.64c2.68-.95 5.37-1.93 8-3.08a38.72 38.72 0 0 1 4.54-1.82c.43-.14.86-.26 1.3-.36.2-.05.41-.09.61-.12.44-.07-.55 0 .15 0h.42c.65 0-.48-.13.1 0 .34.09 0 .09-.12-.06.19.4-.26-.28-.31-.35l.89-3.42-.8.41c-2.88 1.45-.35 5.76 2.52 4.32l.81-.41a2.51 2.51 0 0 0 .89-3.42c-1.82-2.65-5.07-2.26-7.79-1.4a44.25 44.25 0 0 0-4.31 1.69l-1.64.73-.71.31.16-.07c-.13.05-.25.11-.38.15-4.55 1.66-9.06 3.58-13.86 4.38a12.16 12.16 0 0 1-1.84.18h-1c-.15 0-1.12-.12-.59 0-.28-.05-.56-.12-.83-.19a3 3 0 0 1-.39-.13c.19.07.3.16.06 0l-.33-.19c-.41-.22.19.18 0 0a1.8 1.8 0 0 1-.2-.19c-.33-.54.29.45-.06-.1l.34 1.26c-.13 1 0-.07.11-.35s.21-.73.34-1.08l.21-.55c.21-.57-.16.32 0 0s.42-.9.64-1.35a64.26 64.26 0 0 1 3.29-5.61c3.11-4.82 6.48-9.46 9.77-14.16 3.62-5.19 7.21-10.43 10.4-15.9a64.23 64.23 0 0 0 7-15.66c1.2-4.54 1.5-9.57-.82-13.81a14.46 14.46 0 0 0-5-5.15c-4.09-2.59-8.94-2.9-13.65-2.55a265.52 265.52 0 0 0-35.07 4.75c-11.57 2.43-22.94 5.69-34.36 8.7s-22.78 6.27-34.16 9.45c-2.89.8-5.78 1.59-8.67 2.34-2.2.57-4.46 1-6.62 1.68-2.5.8-4.91 1.81-7.47 2.39q-.6.14-1.2.24l-.47.08c.45-.06 0 0 0 0a11.34 11.34 0 0 1-2.1 0c-.41 0 .57.14-.05 0l-.38-.09c-.63-.13 0 .08-.3-.1l-.4-.23c-.32-.19.43.4 0 0a3.31 3.31 0 0 1-.26-.27c.38.44 0 0 0-.14s-.18-.43 0 0c0-.14-.1-.29-.14-.43a1.87 1.87 0 0 1-.13-.74 4.52 4.52 0 0 1 .63-2.3 23 23 0 0 1 3.63-4.71c7.66-8.23 15.48-16.25 23.63-24 8.44-8 17.13-15.74 26.15-23.1a306.31 306.31 0 0 0 24.38-21.86c3.52-3.57 6.89-7.29 10.26-11a61.7 61.7 0 0 0 8.53-11.18c2-3.6 4-8.4 3-12.6-.78-3.17-3.57-4.89-6.64-5.31a25.33 25.33 0 0 0-8.83.75c-3.68.83-7.32 1.86-10.92 3A322 322 0 0 0 972 277.73c-5.32 2.29-10.65 4.55-15.88 7s-10.4 5.22-15.53 8c-10.27 5.51-20.68 10.81-30.82 16.57-5 2.81-9.88 5.69-14.87 8.44-2.82 1.56-.3 5.88 2.52 4.32z" fill="#1691c9"/><path class="cls-3" d="M376.31 145.98h776.49v504.11H376.31z"/><path fill="#a7d1d0" stroke-miterlimit="10" stroke="#1691c9" stroke-width="4" d="M353.67 625.34h814.05v30.65H353.67z"/><path class="cls-3" d="M449.48 382.46l95.36-107.51 57.97 97.12 109.17-131.93"/><path d="M1089.19 950.86l-1.1-8a30 30 0 0 0-7.89-13.35c-10.29-13.07-26-22.25-41.18-28.7a285.33 285.33 0 0 0-31.23-11.12c-11-9.46-25.93-15.33-39.2-19.79-23.26-7.82-47.69-12.37-71.86-16.4-30.38-5.06-61-8.92-91.63-12.17-39.59-4.21-79.22-7.43-119-8.08-35-.57-71.18.23-105.14 9.33-19.2 5.15-37 13.47-52.2 26.24s-26.65 33.08-26.35 52.92c.56 37.91 37 56 70 64.42 20.74 17 48.18 22.11 74.91 23.79 52.07 7.38 104.91 4.47 157.13 0q32.16 1.25 64.34 1.22c27.08-.05 54.09-1.08 81.12-2.63 17.17-1 34.31-.84 51.19-4.65a76.68 76.68 0 0 0 26.42-11.44 188.34 188.34 0 0 0 19.45-2.36c12.14-2.29 25.26-8.21 33.28-17.75 5.04-6.14 9.31-13.22 8.94-21.48z" fill="#a7d1d0"/><path class="cls-2" d="M1192.72 308.77c9.1 91.11 4.07 112.39-15.36 133.54"/><path class="cls-1" d="M332 548.87s83.22 0 149.42-.19c77.6-.22 73.23-119.8-2.29-130.32-126.13-17.57-162.63-7.24-231.32-4.05-102 4.75-98.36 121.36-41.42 129 53.43 7.2 90 5.53 90 5.53L274.81 690.6z"/><path class="cls-7" d="M214.13 486q2.34 4.53 4.8 8.95t4.89 9a75.884 75.884 0 0 0-3.01 1.57h-.24l-8-15v7.49a28.44 28.44 0 0 0 .22 3c.06.48.13 1 .21 1.46a9.29 9.29 0 0 1 .12 1.5 5.22 5.22 0 0 1 0 .58 1.23 1.23 0 0 0 0 .62 1.14 1.14 0 0 1-.52.33 3.22 3.22 0 0 1-.84.19c-.3 0-.6.06-.88.07h-.67c-.61 0-.94-.07-1-.22a3.56 3.56 0 0 1-.15-1l-.09-1.05c0-.35-.05-.7-.05-1 0-.82 0-1.64.07-2.46s.07-1.63.07-2.46V480.1c0-5.8-.08-11.62-.15-17.48h1.82l1 .12a.88.88 0 0 1 .6.27.7.7 0 0 1 .1.45v.5c0 1.21 0 2.41-.08 3.61s-.07 2.39-.07 3.6c0 1.6 0 3.19.05 4.78s.06 3.18.1 4.77c1.17-3.05 2.3-6.11 3.36-9.16s2.16-6.13 3.27-9.22c.48.32 1 .62 1.46.91l1.46.86.14.23q-2 5.44-4 10.82T214.13 486zM237.67 499.9a7.75 7.75 0 0 1-5-1.6 11.49 11.49 0 0 1-3.2-4 19.35 19.35 0 0 1-1.7-5.2 29.84 29.84 0 0 1-.5-5.18 25 25 0 0 1 .55-5.23 14.79 14.79 0 0 1 1.84-4.71 10.33 10.33 0 0 1 3.39-3.41 9.51 9.51 0 0 1 5.16-1.31 7.67 7.67 0 0 1 5.11 1.64 11.67 11.67 0 0 1 3.08 4.09 19.51 19.51 0 0 1 1.53 5.3 39.51 39.51 0 0 1 .4 5.3 23.19 23.19 0 0 1-.57 5 14.88 14.88 0 0 1-1.84 4.6 10.42 10.42 0 0 1-3.3 3.37 8.86 8.86 0 0 1-4.95 1.34zm.53-27.12a6.89 6.89 0 0 0-3.68.88 6.39 6.39 0 0 0-2.25 2.34 10.29 10.29 0 0 0-1.12 3.3 22.9 22.9 0 0 0-.31 3.7 29 29 0 0 0 .15 3 23 23 0 0 0 .59 3 16.41 16.41 0 0 0 1.29 3.44 10.34 10.34 0 0 0 2 2.79 3.87 3.87 0 0 0 2.77 1.15 4.76 4.76 0 0 0 3.42-1.31 9.76 9.76 0 0 0 2.17-3.23 17.44 17.44 0 0 0 1.15-4 24.12 24.12 0 0 0 .33-3.68 22.12 22.12 0 0 0-.31-3.41 15.58 15.58 0 0 0-1.08-3.75 9.29 9.29 0 0 0-2-3 4.26 4.26 0 0 0-3.12-1.22zM255.77 485.91c-.25.07-.5.15-.74.24a2 2 0 0 1-.79.14 1.7 1.7 0 0 1-.31 0 .34.34 0 0 0-.31 0 1.36 1.36 0 0 1-.17-.59c0-.34-.08-.7-.09-1.1s0-.78-.05-1.15 0-.59 0-.69a5.12 5.12 0 0 1 0-.91c0-.09.23-.2.58-.33a3.66 3.66 0 0 1 1.19-.19 6.16 6.16 0 0 1 1.22.12 6.16 6.16 0 0 0 1.22.12q3.15 0 6.23-.1l6.18-.19v3.32a2.35 2.35 0 0 1-.15.74 1.46 1.46 0 0 1-.52.09c-.61 0-1.22 0-1.84-.07s-1.25-.07-1.89-.07h-2.15l-2.86.12c-1 .05-1.92.1-2.8.17a9.83 9.83 0 0 0-1.95.33zM279.7 500.86c.06.51.14 1 .23 1.48a7.21 7.21 0 0 1 .15 1.48 4.33 4.33 0 0 1-.07.62.94.94 0 0 0 0 .57.94.94 0 0 1-.57.36 6.37 6.37 0 0 1-.93.19c-.34.05-.67.08-1 .1h-.77c-.57 0-.9-.07-1-.21a3.22 3.22 0 0 1-.21-1c0-.38-.07-.77-.1-1.15s0-.76 0-1.14c0-.8 0-1.59.09-2.39s.1-1.59.1-2.39q0-8.79-.05-17.45t-.19-17.46h2a7.46 7.46 0 0 1 1.13.11c.33.07.53.15.59.24a.66.66 0 0 1 .15.48v.53c0 1.21 0 2.41-.08 3.6s-.07 2.38-.07 3.56v4.68a25.28 25.28 0 0 1-.17 2.91c-.11 1-.18 1.93-.21 2.92a13.92 13.92 0 0 1 2.51-3.78q1.54-1.67 2.93-3.44l1-1.31c.46-.62 1-1.26 1.46-1.93s1-1.28 1.43-1.82a3.6 3.6 0 0 1 .91-.9l1.86 1.24a.74.74 0 0 0 0 .12.27.27 0 0 1 0 .12 3.84 3.84 0 0 1-.77 1.69c-.51.78-1.15 1.67-1.93 2.68s-1.62 2.05-2.53 3.15-1.75 2.12-2.53 3.08-1.43 1.78-2 2.48a3.41 3.41 0 0 0-.79 1.39 1.6 1.6 0 0 0 .41.9 8.91 8.91 0 0 1 .6.86c.15.23.44.72.85 1.48s.9 1.67 1.44 2.7l1.69 3.27c.59 1.15 1.13 2.22 1.63 3.23l1.24 2.55a5.79 5.79 0 0 1 .5 1.24.86.86 0 0 1-.29.62 3.59 3.59 0 0 1-.64.51 3.51 3.51 0 0 1-.77.33 5.68 5.68 0 0 1-.69.17 12.16 12.16 0 0 1-.88-1.46c-.43-.78-.93-1.72-1.48-2.82s-1.14-2.27-1.75-3.51-1.16-2.4-1.67-3.48-.94-2-1.29-2.8a14.3 14.3 0 0 1-.57-1.36q0 3.54.24 7.05c.3 2.41.54 4.75.86 7.11zM302.52 499.9a7.77 7.77 0 0 1-5-1.6 11.49 11.49 0 0 1-3.2-4 19.35 19.35 0 0 1-1.7-5.2 29.84 29.84 0 0 1-.5-5.18 25 25 0 0 1 .55-5.23 14.79 14.79 0 0 1 1.83-4.69 10.33 10.33 0 0 1 3.39-3.41 9.51 9.51 0 0 1 5.16-1.31 7.67 7.67 0 0 1 5.11 1.64 11.67 11.67 0 0 1 3.08 4.09 18.82 18.82 0 0 1 1.53 5.3 37.92 37.92 0 0 1 .4 5.3 23.19 23.19 0 0 1-.57 5 14.88 14.88 0 0 1-1.84 4.6 10.49 10.49 0 0 1-3.29 3.37 8.91 8.91 0 0 1-4.95 1.32zm.53-27.12a6.92 6.92 0 0 0-3.68.88 6.36 6.36 0 0 0-2.24 2.34 10.06 10.06 0 0 0-1.13 3.3 22.9 22.9 0 0 0-.31 3.7 29 29 0 0 0 .15 3 23 23 0 0 0 .59 3 17.6 17.6 0 0 0 1.29 3.44 10.34 10.34 0 0 0 2 2.79 3.87 3.87 0 0 0 2.77 1.15 4.76 4.76 0 0 0 3.42-1.31 9.76 9.76 0 0 0 2.17-3.23 17.44 17.44 0 0 0 1.15-4 24.12 24.12 0 0 0 .33-3.68 22.12 22.12 0 0 0-.31-3.41 16 16 0 0 0-1.07-3.75 9.45 9.45 0 0 0-2-3 4.3 4.3 0 0 0-3.13-1.22zM320.62 485.91c-.25.07-.5.15-.74.24a2 2 0 0 1-.79.14 1.7 1.7 0 0 1-.31 0 .34.34 0 0 0-.31 0 1.27 1.27 0 0 1-.16-.59c-.05-.34-.08-.7-.1-1.1s0-.78 0-1.15v-.69a4 4 0 0 1 .05-.91q0-.14.57-.33a3.66 3.66 0 0 1 1.19-.19 6.16 6.16 0 0 1 1.22.12 6.23 6.23 0 0 0 1.22.12q3.15 0 6.23-.1l6.19-.19v2.13c0 .42 0 .82-.05 1.19a2.09 2.09 0 0 1-.15.74 1.46 1.46 0 0 1-.52.09c-.61 0-1.22 0-1.84-.07s-1.25-.07-1.89-.07h-2.14l-2.87.12c-1 .05-1.92.1-2.79.17a10 10 0 0 0-2.01.33zM344.55 500.86c.06.51.14 1 .24 1.48a8 8 0 0 1 .14 1.48 3.24 3.24 0 0 1-.07.62.94.94 0 0 0 0 .57.89.89 0 0 1-.57.36 6.37 6.37 0 0 1-.93.19c-.34.05-.66.08-1 .1h-.77c-.57 0-.9-.07-1-.21a3.13 3.13 0 0 1-.22-1c0-.38-.06-.77-.1-1.15s0-.76 0-1.14c0-.8 0-1.59.09-2.39s.1-1.59.1-2.39q0-8.79-.05-17.45t-.19-17.46h2.01a7.46 7.46 0 0 1 1.12.11c.33.07.53.15.59.24a.66.66 0 0 1 .15.48v.53c0 1.21 0 2.41-.07 3.6s-.08 2.38-.08 3.56v4.68a23.21 23.21 0 0 1-.17 2.91c-.11 1-.18 1.93-.21 2.92a14.15 14.15 0 0 1 2.51-3.78q1.55-1.67 2.93-3.44c.2-.25.52-.69 1-1.31s.95-1.26 1.46-1.93 1-1.28 1.43-1.82a3.6 3.6 0 0 1 .91-.9l1.86 1.24a.35.35 0 0 0 0 .12.5.5 0 0 1 0 .12 3.79 3.79 0 0 1-.76 1.69c-.51.78-1.16 1.67-1.94 2.68s-1.62 2.05-2.53 3.15-1.75 2.12-2.53 3.08-1.43 1.78-2 2.48a3.55 3.55 0 0 0-.79 1.39 1.6 1.6 0 0 0 .41.9 8.91 8.91 0 0 1 .6.86c.16.23.44.72.86 1.48s.89 1.67 1.43 2.7l1.69 3.27c.59 1.15 1.13 2.22 1.63 3.23s.91 1.85 1.24 2.55a5.79 5.79 0 0 1 .5 1.24.82.82 0 0 1-.29.62 3.59 3.59 0 0 1-.64.51 3.43 3.43 0 0 1-.76.33 6.26 6.26 0 0 1-.7.17 12.16 12.16 0 0 1-.88-1.46c-.43-.78-.92-1.72-1.48-2.82s-1.14-2.27-1.74-3.51-1.17-2.4-1.68-3.48-.93-2-1.28-2.8a13 13 0 0 1-.58-1.36q0 3.54.24 7.05c.32 2.41.55 4.75.87 7.11zM367.37 499.9a7.77 7.77 0 0 1-5-1.6 11.61 11.61 0 0 1-3.2-4 19 19 0 0 1-1.69-5.2 29 29 0 0 1-.51-5.18 25.67 25.67 0 0 1 .55-5.23 14.79 14.79 0 0 1 1.84-4.71 10.33 10.33 0 0 1 3.39-3.41 9.51 9.51 0 0 1 5.16-1.31 7.67 7.67 0 0 1 5.11 1.64 11.55 11.55 0 0 1 3.08 4.09 18.82 18.82 0 0 1 1.53 5.3 37.92 37.92 0 0 1 .4 5.3 23.19 23.19 0 0 1-.57 5 14.64 14.64 0 0 1-1.84 4.6 10.49 10.49 0 0 1-3.29 3.37 8.89 8.89 0 0 1-4.96 1.34zm.53-27.12a6.92 6.92 0 0 0-3.68.88A6.36 6.36 0 0 0 362 476a10 10 0 0 0-1.12 3.3 21.83 21.83 0 0 0-.31 3.7 29.09 29.09 0 0 0 .14 3 21.63 21.63 0 0 0 .6 3 16.41 16.41 0 0 0 1.29 3.44 10.11 10.11 0 0 0 2 2.79 3.87 3.87 0 0 0 2.77 1.15 4.76 4.76 0 0 0 3.42-1.31 9.61 9.61 0 0 0 2.17-3.23 17.44 17.44 0 0 0 1.15-4 24.12 24.12 0 0 0 .33-3.68 22.12 22.12 0 0 0-.31-3.41 15.57 15.57 0 0 0-1.07-3.75 9.45 9.45 0 0 0-2-3 4.3 4.3 0 0 0-3.16-1.22zM385.47 485.91c-.25.07-.5.15-.74.24a2 2 0 0 1-.78.14 1.52 1.52 0 0 1-.31 0 .36.36 0 0 0-.32 0 1.41 1.41 0 0 1-.16-.59c-.05-.34-.08-.7-.1-1.1s0-.78-.05-1.15 0-.59 0-.69a4.7 4.7 0 0 1 .05-.91q0-.14.57-.33a3.68 3.68 0 0 1 1.2-.19 6.13 6.13 0 0 1 1.21.12 6.23 6.23 0 0 0 1.22.12q3.15 0 6.23-.1l6.19-.19v2.13c0 .42 0 .82-.05 1.19a2.43 2.43 0 0 1-.14.74 1.51 1.51 0 0 1-.53.09c-.6 0-1.22 0-1.84-.07s-1.25-.07-1.88-.07h-2.15l-2.87.12c-1 .05-1.92.1-2.79.17a10 10 0 0 0-1.96.33zM414.17 463a6 6 0 0 1 2.39 2.77 19.13 19.13 0 0 1 1.41 4.13 29.66 29.66 0 0 1 .67 4.46c.11 1.5.17 2.76.17 3.78 0 .54 0 1.06-.05 1.57h-2.15a4 4 0 0 1-.62-.12l-.55-.15a.34.34 0 0 1-.21-.12s-.05-.12-.05-.24a2.23 2.23 0 0 0-.1-.54c-.09-.74-.16-1.77-.19-3.11a33.87 33.87 0 0 0-.33-4 10.64 10.64 0 0 0-1.08-3.51 2.56 2.56 0 0 0-2.41-1.5 2.41 2.41 0 0 0-2.2 1.31 10 10 0 0 0-1.12 3.1 20.87 20.87 0 0 0-.4 3.58c0 1.2-.05 2.1-.05 2.7 0 .83 0 1.64.05 2.44s0 1.61 0 2.43v2.58c0 1.17 0 2.49.07 3.94s.18 3 .34 4.52a29.45 29.45 0 0 0 .71 4.27 10.82 10.82 0 0 0 1.24 3.15 2.24 2.24 0 0 0 1.91 1.22 1.81 1.81 0 0 0 1-.29 2.77 2.77 0 0 0 .79-.74 4.48 4.48 0 0 0 .55-1c.14-.35.26-.67.36-.95a7.93 7.93 0 0 0 .17-1.77 7 7 0 0 1 .16-1.77l.22-.69a.42.42 0 0 1 .21-.28.82.82 0 0 1 .38-.08h.72l1.17-.12 1.22-.17c-.07.83-.12 1.69-.17 2.58a23.59 23.59 0 0 1-.29 2.65 14.42 14.42 0 0 1-.64 2.55 7 7 0 0 1-1.29 2.25 6 6 0 0 1-1.84 1.53 4.85 4.85 0 0 1-2.34.64 4.93 4.93 0 0 1-3.54-1.48 11.5 11.5 0 0 1-2.86-4.52 29.34 29.34 0 0 1-1.41-5.7 48.36 48.36 0 0 1-.47-6c0-2-.05-3.86-.05-5.52s0-3.5.07-5.25.13-3.5.26-5.25a26.5 26.5 0 0 1 .53-3.47 11.67 11.67 0 0 1 1.19-3.2 6.87 6.87 0 0 1 2.15-2.36 6.13 6.13 0 0 1 3.49-.91 5.37 5.37 0 0 1 2.81.66zM436.33 476.84a5.62 5.62 0 0 0-.76 1.26q-.57 1.13-1.2 2.49c-.41.9-.8 1.78-1.17 2.62a16.25 16.25 0 0 1-.83 1.75c-.8 1.53-1.58 3.06-2.36 4.61a36.8 36.8 0 0 0-2 4.79c0 .16-.09.4-.17.7l-.24.9a6.67 6.67 0 0 1-.29.86 1 1 0 0 1-.4.55 1.65 1.65 0 0 1-.46.12 5.74 5.74 0 0 1-.74.1l-.76.05h-.57a.73.73 0 0 1-.67-.48 3.84 3.84 0 0 1-.34-1.1q-.09-.61-.12-1.26v-.93c0-1.15.05-2.28.14-3.39s.15-2.25.15-3.39c0-1.6-.05-3.19-.15-4.78s-.14-3.18-.14-4.77v-1.87-1.81a13.91 13.91 0 0 0-.12-1.82 13.76 13.76 0 0 1-.12-1.81.83.83 0 0 1 .36-.67 3.54 3.54 0 0 1 .86-.5 6.56 6.56 0 0 1 1-.34 3.6 3.6 0 0 1 .79-.12.5.5 0 0 1 .52.46 3.48 3.48 0 0 1 .1.79c0 2.8 0 5.58-.07 8.33s-.07 5.53-.07 8.33v1.41a11.89 11.89 0 0 0 .19 1.41 18.66 18.66 0 0 0 1.2-1.84c.48-.81.94-1.67 1.41-2.58s.9-1.79 1.31-2.65.72-1.54.91-2a27.64 27.64 0 0 1 1.48-3.16c.52-1 1-2 1.45-3.08.1-.25.21-.6.34-1s.25-.91.38-1.38a12 12 0 0 1 .43-1.32 2.08 2.08 0 0 1 .52-.83 2.45 2.45 0 0 1 .91-.5 3.38 3.38 0 0 1 1.1-.17 1.1 1.1 0 0 1 1 .43 1.93 1.93 0 0 1 .29 1.1 8.73 8.73 0 0 1-.17 1.69 8.56 8.56 0 0 0-.17 1.65q0 5 .15 10t.14 9.95v2.27c0 .75-.08 1.51-.14 2.27a7.21 7.21 0 0 1-.17.88.57.57 0 0 1-.21.36.79.79 0 0 1-.45.1 7.35 7.35 0 0 0-.84.05 2.89 2.89 0 0 0-.5 0 3.31 3.31 0 0 1-.55.05.53.53 0 0 1-.5-.31 2.54 2.54 0 0 1-.24-.72 7.46 7.46 0 0 1-.1-.81v-.64q0-4.92.45-9.77c.3-3.23.46-6.49.46-9.76a1.38 1.38 0 0 0-.25-.77zM457.54 477.17q.09 4.44.09 8.81c0 2.92 0 5.85.05 8.81a11.45 11.45 0 0 0 .12 1.68 11.32 11.32 0 0 1 .12 1.67 3.22 3.22 0 0 1-.1.69q-.09.45-.48.45a1.61 1.61 0 0 1-.5-.09 4.72 4.72 0 0 0-.45-.15 2.23 2.23 0 0 1-1.65-.93 3.6 3.6 0 0 1-.4-1.83v-1.56-2.15c0-.75 0-1.44-.07-2.1a2.71 2.71 0 0 0-.31-1.31 1.4 1.4 0 0 0-.74-.65 4 4 0 0 0-1-.11 6.49 6.49 0 0 1-1.86-.27 6.65 6.65 0 0 0-1.81-.26c-.51 0-.8.22-.86.67a7.62 7.62 0 0 0-.1 1.19c0 .54 0 1.09.07 1.63s.07 1.08.07 1.62a10.63 10.63 0 0 0 .22 1.5 7 7 0 0 1 .17 1.51.88.88 0 0 1-.29.69 1.65 1.65 0 0 1-.67.38 4.06 4.06 0 0 1-.83.17h-.75a4.55 4.55 0 0 1-1.31-.19c-.4-.13-.6-.46-.6-1a5.79 5.79 0 0 1 .17-1.38 5.59 5.59 0 0 0 .17-1.34c0-.95 0-1.9-.12-2.84s-.12-1.89-.12-2.84c0-2.36.06-4.7.17-7s.16-4.69.16-7.05v-1.93c0-.65-.05-1.32-.05-2a1.36 1.36 0 0 1 .09-.59c.07-.11.26-.17.58-.17h.93a6.06 6.06 0 0 1 1.14.05 2.7 2.7 0 0 1 1 .28.77.77 0 0 1 .41.74 4.55 4.55 0 0 1-.17 1.22 4.75 4.75 0 0 0-.17 1.27 7.86 7.86 0 0 0 0 .83V477.28c0 1.05.05 2.1.05 3.15a10.34 10.34 0 0 1-.19 1.39 6 6 0 0 0-.14 1.33 1.18 1.18 0 0 0 .42 1.05 2.83 2.83 0 0 0 1.15.39l1.79.19a17.73 17.73 0 0 0 1.79.09h.43a1 1 0 0 0 .43-.09.94.94 0 0 0 .36-.58 7.24 7.24 0 0 0 .19-.95 7.12 7.12 0 0 0 .07-1v-.72c0-.73 0-1.44-.07-2.13s-.07-1.39-.07-2.12 0-1.39.07-2.08.07-1.38.07-2.08a10.88 10.88 0 0 0-.07-1.26 10.93 10.93 0 0 1-.07-1.27 1.89 1.89 0 0 1 .33-1.19 1.44 1.44 0 0 1 1.2-.43 1.82 1.82 0 0 1 1.5.55 2.37 2.37 0 0 1 .46 1.55v3.06c-.06 1.01-.06 2.02-.02 3.04zM475.4 469.2c.12 2.07.3 4.13.52 6.18a58.53 58.53 0 0 1 .34 6.23q0 2.06-.12 4.11t-.27 4.11c-.06 1.08-.16 2.43-.31 4.06a22.85 22.85 0 0 1-.9 4.7 12.17 12.17 0 0 1-2 3.92 4.29 4.29 0 0 1-3.58 1.65 5.69 5.69 0 0 1-4.65-1.92 7.23 7.23 0 0 1-1.6-4.82c0-.54 0-1.09.07-1.65a5.93 5.93 0 0 1 .33-1.52 2.42 2.42 0 0 1 .86-1.13 2.92 2.92 0 0 1 1.7-.43.55.55 0 0 1 .31.12.37.37 0 0 1 .16.31 1.19 1.19 0 0 1-.16.62 1.26 1.26 0 0 0-.17.62c0 .39 0 .94.1 1.68a13.57 13.57 0 0 0 .38 2.22 7.26 7.26 0 0 0 .76 1.93 1.41 1.41 0 0 0 1.24.81 1.53 1.53 0 0 0 .79-.21 3.21 3.21 0 0 0 .65-.5 3.67 3.67 0 0 0 .88-1.27 6.77 6.77 0 0 0 .45-1.57c.1-.56.17-1.13.22-1.7s.1-1.1.17-1.58c.12-1.27.22-2.54.28-3.82s.11-2.56.15-3.86c.06-1.66.13-3.32.21-5s.12-3.33.12-5v-.9a1.87 1.87 0 0 0-.27-.91 7.9 7.9 0 0 1-1.41 2.34 3 3 0 0 1-2.41 1.1 4.35 4.35 0 0 1-3.29-1.29 9 9 0 0 1-1.94-3.15 16.87 16.87 0 0 1-.93-3.92 31.35 31.35 0 0 1-.24-3.58 1.88 1.88 0 0 1 .7-1.62 2.79 2.79 0 0 1 1.74-.53 1.25 1.25 0 0 1 .83.26 1.58 1.58 0 0 1 .46.65 3.48 3.48 0 0 1 .19.83c0 .31.05.6.05.89 0 .79 0 1.59-.07 2.38a10.62 10.62 0 0 0 .12 2.39 7 7 0 0 0 .31 1.1 5.68 5.68 0 0 0 .54 1.17 3.81 3.81 0 0 0 .79.93 1.55 1.55 0 0 0 1 .38 1.7 1.7 0 0 0 1.38-.62 4.72 4.72 0 0 0 .84-1.5 8.76 8.76 0 0 0 .43-1.82 12.41 12.41 0 0 0 .12-1.55 7.7 7.7 0 0 0-.22-1.86 8.22 8.22 0 0 1-.21-1.86.88.88 0 0 1 .69-1 5.69 5.69 0 0 1 1.32-.17h1.17a1.85 1.85 0 0 1 .81.2 1 1 0 0 1 .45.57 3.79 3.79 0 0 1 .14 1.22v1.26a6.74 6.74 0 0 0-.02 1.32zM490.53 463a6 6 0 0 1 2.39 2.77 19.13 19.13 0 0 1 1.41 4.13 29.66 29.66 0 0 1 .67 4.46c.11 1.5.17 2.76.17 3.78 0 .54 0 1.06-.05 1.57h-2.15a4 4 0 0 1-.62-.12l-.55-.15a.34.34 0 0 1-.21-.12v-.24a2.23 2.23 0 0 0-.1-.54c-.09-.74-.16-1.77-.19-3.11a33.87 33.87 0 0 0-.33-4 10.64 10.64 0 0 0-1.08-3.51 2.56 2.56 0 0 0-2.41-1.5 2.41 2.41 0 0 0-2.2 1.31 10 10 0 0 0-1.12 3.1 20.87 20.87 0 0 0-.4 3.58v10.15c0 1.17 0 2.49.07 3.94s.18 3 .34 4.52a29.45 29.45 0 0 0 .71 4.27 10.82 10.82 0 0 0 1.24 3.15 2.24 2.24 0 0 0 1.91 1.22 1.81 1.81 0 0 0 1-.29 2.77 2.77 0 0 0 .79-.74 4.48 4.48 0 0 0 .55-1c.14-.35.26-.67.36-.95a6.91 6.91 0 0 0 .16-1.77 7.49 7.49 0 0 1 .17-1.77l.22-.69a.46.46 0 0 1 .21-.28.82.82 0 0 1 .38-.08h.72l1.17-.12 1.22-.17c-.07.83-.12 1.69-.17 2.58a23.59 23.59 0 0 1-.29 2.65 14.42 14.42 0 0 1-.64 2.55 7 7 0 0 1-1.29 2.25 6 6 0 0 1-1.84 1.53 4.85 4.85 0 0 1-2.31.57 4.93 4.93 0 0 1-3.54-1.48A11.5 11.5 0 0 1 482 500a29.34 29.34 0 0 1-1.41-5.7 48.36 48.36 0 0 1-.47-6c0-2-.05-3.86-.05-5.52s0-3.5.07-5.25.14-3.5.26-5.25a26.5 26.5 0 0 1 .53-3.47 11.67 11.67 0 0 1 1.19-3.2 6.87 6.87 0 0 1 2.15-2.36 6.13 6.13 0 0 1 3.49-.91 5.4 5.4 0 0 1 2.77.66z"/><path class="cls-1" d="M1069.59 606l-66.2-.19c-77.6-.23-73.23-119.8 2.28-130.32 126.14-17.58 162.63-7.25 231.33-4 102 4.74 98.36 121.35 41.41 129-53.42 7.2-134.89 3.06-134.89 3.06l-98.19 111z"/><path class="cls-7" d="M1016.23 522.19q0 8.19-.12 16.27t-.13 16.32c0 .79 0 1.57.1 2.34s.09 1.53.09 2.28a5.74 5.74 0 0 1 0 .6 1 1 0 0 1-.28.53l-1.81.4a7.78 7.78 0 0 1-1.81.22c-.17 0-.29-.12-.38-.37a4.69 4.69 0 0 1-.18-.85 5.82 5.82 0 0 1-.07-.93v-.6a44 44 0 0 1 .1-5.52c.14-1.81.22-3.57.22-5.28v-1.93a3 3 0 0 0-.19-1.31 1.33 1.33 0 0 0-.84-.72 6.49 6.49 0 0 0-2-.22 4.08 4.08 0 0 0-2.5.47c-.46.35-.68 1.24-.68 2.65 0 1.58 0 3.18.12 4.78s.15 3.19.19 4.77c0 .63 0 1.24.09 1.85s.09 1.21.09 1.84a4.19 4.19 0 0 1-.12 1.18.74.74 0 0 1-.44.5 1.8 1.8 0 0 1-.81.1h-1.25c-.5 0-1 0-1.5-.07s-.68-.43-.68-1.18a9.08 9.08 0 0 1 .22-2 9.71 9.71 0 0 0 .21-2q0-3.43-.25-6.84c-.16-2.26-.25-4.54-.25-6.83q-.06-4.25-.06-8.43t-.12-8.37c0-1.33-.07-2.64-.19-3.93s-.19-2.58-.19-3.87v-1.15a10 10 0 0 1 .1-1.44 6.67 6.67 0 0 1 .31-1.37 1.54 1.54 0 0 1 .65-.91 1.15 1.15 0 0 1 .53-.19c.27 0 .56-.07.85-.09l.84-.06h.66a1.32 1.32 0 0 1 1.62 1.68c0 .63 0 1.69-.09 3.19s-.13 3.18-.19 5.05-.12 3.83-.16 5.87 0 3.9 0 5.59a37.89 37.89 0 0 0 .35 4.15q.24 1.62.81 1.62c.54 0 1.06 0 1.56.07s1 .06 1.5.06a1.84 1.84 0 0 0 1.34-.34 2.25 2.25 0 0 0 .28-1.35 9.31 9.31 0 0 0-.12-1.53 7.77 7.77 0 0 1-.13-1.46q0-4.62.19-9.18c.12-3 .19-6.1.19-9.18V516a8.15 8.15 0 0 1 .09-1.22 2.35 2.35 0 0 1 .41-1 1.12 1.12 0 0 1 1-.43 3.33 3.33 0 0 1 1.25.31c.42.16.73.3.94.4a1 1 0 0 1 .44.41 1.43 1.43 0 0 1 .12.62v1.06c0 1.8.06 3.61.06 5.44zM1034.71 557.65a8.23 8.23 0 0 1-2.37.38 6.15 6.15 0 0 1-3.62-1.09 10.4 10.4 0 0 1-2.72-2.87 17.64 17.64 0 0 1-1.9-4 38.92 38.92 0 0 1-1.22-4.53 38.06 38.06 0 0 1-.65-4.4c-.13-1.41-.19-2.62-.19-3.62s0-2.35.09-3.81.2-3 .41-4.53a37.51 37.51 0 0 1 .93-4.65 16.85 16.85 0 0 1 1.69-4.12 9.53 9.53 0 0 1 2.62-2.93 6.34 6.34 0 0 1 3.81-1.13 6.7 6.7 0 0 1 4.53 1.66 13.07 13.07 0 0 1 3.12 4.09 22.08 22.08 0 0 1 1.81 5.18 23.48 23.48 0 0 1 .59 4.81c0 1.41-.35 2.29-1.06 2.62a6.7 6.7 0 0 1-2.81.5q-1.62 0-3.21-.06c-1.06 0-2.14-.07-3.22-.07a7.48 7.48 0 0 0-2.53.44 2 2 0 0 0-1.21 2.12 12.11 12.11 0 0 0 .12 1.72c.08.56.17 1.14.25 1.72s.1 1.71.19 3a26 26 0 0 0 .56 4 12.22 12.22 0 0 0 1.28 3.47 2.64 2.64 0 0 0 2.4 1.46 2.19 2.19 0 0 0 2.13-1.25 9.87 9.87 0 0 0 .87-2.77 29.29 29.29 0 0 0 .34-2.91c.07-.91.22-1.43.47-1.56a2.57 2.57 0 0 1 .81-.31 5.13 5.13 0 0 1 .81-.06 14.7 14.7 0 0 1 1.63.09 14.66 14.66 0 0 0 1.62.09c.46 0 .72.12.78.35a3.61 3.61 0 0 1 .1.9 15.51 15.51 0 0 1-.47 3.62 14.74 14.74 0 0 1-1.38 3.62 11.56 11.56 0 0 1-2.28 3 7.83 7.83 0 0 1-3.12 1.83zm-6.37-28.78l-.12.66a3.83 3.83 0 0 0-.06.65c0 .3.23.48.68.57a6.57 6.57 0 0 0 1 .12 11.31 11.31 0 0 0 2.28-.22c.73-.14 1.47-.3 2.22-.47l1.34-.21c.35-.07.53-.47.53-1.22a8.3 8.3 0 0 0-.37-2.19 11.38 11.38 0 0 0-1.06-2.49 8.6 8.6 0 0 0-1.6-2 2.85 2.85 0 0 0-2-.85 2.08 2.08 0 0 0-1.66.69 4.18 4.18 0 0 0-.84 1.62 9.72 9.72 0 0 0-.31 2c-.05.71-.07 1.31-.07 1.81v1.56zM1053.32 539.55a7.33 7.33 0 0 0-1 .31 2.66 2.66 0 0 1-1 .19 2.32 2.32 0 0 1-.41-.06.43.43 0 0 0-.4.06 1.59 1.59 0 0 1-.22-.78c-.06-.44-.11-.92-.13-1.44s0-1-.06-1.5 0-.78 0-.9a6.26 6.26 0 0 1 .06-1.19c0-.12.29-.27.75-.43a4.81 4.81 0 0 1 1.56-.25 8.58 8.58 0 0 1 1.6.15 7.66 7.66 0 0 0 1.59.16c2.74 0 5.46 0 8.14-.13l8.09-.25v2.78q0 .84-.06 1.56a3.49 3.49 0 0 1-.19 1 1.93 1.93 0 0 1-.69.13c-.79 0-1.59 0-2.4-.1s-1.63-.09-2.47-.09c-.66 0-1.6 0-2.81.06s-2.45.09-3.74.16-2.51.13-3.65.22a12 12 0 0 0-2.56.34zM1095.46 528.12q.12 5.82.12 11.52t.07 11.52a15.69 15.69 0 0 0 .15 2.19 14.16 14.16 0 0 1 .16 2.18 4.42 4.42 0 0 1-.13.91c-.08.39-.29.59-.62.59a2 2 0 0 1-.66-.12 4.36 4.36 0 0 0-.59-.19 3 3 0 0 1-2.15-1.22 4.64 4.64 0 0 1-.53-2.4v-2-2.81c0-.98 0-1.89-.1-2.75a3.63 3.63 0 0 0-.4-1.71 1.87 1.87 0 0 0-1-.85 4.73 4.73 0 0 0-1.28-.15 8.65 8.65 0 0 1-2.43-.35 8.56 8.56 0 0 0-2.38-.34 1 1 0 0 0-1.12.87 11.78 11.78 0 0 0-.12 1.56q0 1.07.09 2.13c.06.7.09 1.41.09 2.12a13 13 0 0 0 .28 2 8.6 8.6 0 0 1 .22 2 1.17 1.17 0 0 1-.37.91 2.32 2.32 0 0 1-.88.5 6.56 6.56 0 0 1-1.09.22c-.4 0-.72.06-1 .06a5.48 5.48 0 0 1-1.71-.25 1.2 1.2 0 0 1-.78-1.31 7.67 7.67 0 0 1 .21-1.81 7.05 7.05 0 0 0 .22-1.75q0-1.87-.15-3.72a41.36 41.36 0 0 1-.16-3.71q0-4.62.22-9.21c.14-3.06.22-6.13.22-9.21 0-.83 0-1.67-.06-2.53s-.07-1.71-.07-2.59a1.63 1.63 0 0 1 .13-.78c.08-.14.33-.22.75-.22h1.21a8.21 8.21 0 0 1 1.5.07 3.53 3.53 0 0 1 1.25.37 1 1 0 0 1 .53 1 5.7 5.7 0 0 1-.22 1.59 6.32 6.32 0 0 0-.21 1.65 8.33 8.33 0 0 0-.07 1.1v1.09c0 1.37 0 2.75.07 4.12s.06 2.75.06 4.12a13.15 13.15 0 0 1-.25 1.81 8 8 0 0 0-.19 1.75 1.54 1.54 0 0 0 .56 1.37 3.53 3.53 0 0 0 1.5.5l2.34.25a20.14 20.14 0 0 0 2.34.13h.57a1.18 1.18 0 0 0 .56-.13 1.23 1.23 0 0 0 .47-.75 9.59 9.59 0 0 0 .24-1.25 8.53 8.53 0 0 0 .1-1.31v-.93c0-1 0-1.89-.1-2.78s-.09-1.82-.09-2.78 0-1.82.09-2.72.1-1.8.1-2.71a13.55 13.55 0 0 0-.1-1.66 15.48 15.48 0 0 1-.09-1.65 2.47 2.47 0 0 1 .44-1.56 1.85 1.85 0 0 1 1.56-.56 2.46 2.46 0 0 1 2 .71 3.15 3.15 0 0 1 .59 2v4c0 1.33.05 2.53.09 3.86zM1113.75 557.65a8.23 8.23 0 0 1-2.37.38 6.12 6.12 0 0 1-3.62-1.09 10.4 10.4 0 0 1-2.72-2.87 17.64 17.64 0 0 1-1.9-4 38.92 38.92 0 0 1-1.22-4.53 40.45 40.45 0 0 1-.66-4.4c-.12-1.41-.18-2.62-.18-3.62s0-2.35.09-3.81.2-3 .41-4.53a35.76 35.76 0 0 1 .93-4.65 16.85 16.85 0 0 1 1.69-4.12 9.53 9.53 0 0 1 2.62-2.93 6.34 6.34 0 0 1 3.81-1.13 6.7 6.7 0 0 1 4.53 1.66 13.22 13.22 0 0 1 3.12 4.09 22.08 22.08 0 0 1 1.81 5.18 23.48 23.48 0 0 1 .59 4.81c0 1.41-.35 2.29-1.06 2.62a6.73 6.73 0 0 1-2.81.5c-1.08 0-2.15 0-3.22-.06s-2.13-.07-3.21-.07a7.48 7.48 0 0 0-2.53.44 2 2 0 0 0-1.22 2.12 10.8 10.8 0 0 0 .13 1.72c.08.56.16 1.14.25 1.72s.1 1.71.19 3a26 26 0 0 0 .56 4 12.22 12.22 0 0 0 1.28 3.47 2.64 2.64 0 0 0 2.4 1.46 2.16 2.16 0 0 0 2.12-1.25 9.57 9.57 0 0 0 .88-2.77c.16-1 .28-2 .34-2.91s.22-1.43.47-1.56a2.57 2.57 0 0 1 .81-.31 5.13 5.13 0 0 1 .81-.06 15 15 0 0 1 1.63.09 14.66 14.66 0 0 0 1.62.09c.46 0 .72.12.78.35a3.67 3.67 0 0 1 .09.9 16.2 16.2 0 0 1-1.84 7.24 11.56 11.56 0 0 1-2.28 3 7.83 7.83 0 0 1-3.12 1.83zm-6.37-28.78q-.06.32-.12.66a3.83 3.83 0 0 0-.06.65c0 .3.22.48.68.57a6.57 6.57 0 0 0 1 .12 11.31 11.31 0 0 0 2.28-.22c.73-.14 1.47-.3 2.22-.47l1.34-.21c.35-.07.53-.47.53-1.22a8.37 8.37 0 0 0-.38-2.19 10.91 10.91 0 0 0-1.06-2.49 8.83 8.83 0 0 0-1.59-2 2.85 2.85 0 0 0-2-.85 2.06 2.06 0 0 0-1.65.69 3.92 3.92 0 0 0-.84 1.62 10.45 10.45 0 0 0-.32 2c0 .71-.06 1.31-.06 1.81v1.56zM1132.35 539.55a7.68 7.68 0 0 0-1 .31 2.7 2.7 0 0 1-1 .19 2.2 2.2 0 0 1-.41-.06.42.42 0 0 0-.4.06 1.59 1.59 0 0 1-.22-.78 12.22 12.22 0 0 1-.13-1.44q0-.78-.06-1.5v-.9a6.26 6.26 0 0 1 .06-1.19c0-.12.29-.27.75-.43a4.81 4.81 0 0 1 1.56-.25 8.4 8.4 0 0 1 1.59.15 7.66 7.66 0 0 0 1.59.16q4.13 0 8.15-.13l8.09-.25v2.78a15.17 15.17 0 0 1-.07 1.56 3.23 3.23 0 0 1-.18 1 1.93 1.93 0 0 1-.69.13c-.79 0-1.59 0-2.4-.1s-1.64-.09-2.47-.09c-.67 0-1.6 0-2.81.06s-2.45.09-3.74.16-2.51.13-3.66.22a12.18 12.18 0 0 0-2.55.34zM1174.5 528.12q.12 5.82.12 11.52t.06 11.52a14.29 14.29 0 0 0 .16 2.19 15.54 15.54 0 0 1 .15 2.18 5 5 0 0 1-.12.91c-.08.39-.29.59-.62.59a2 2 0 0 1-.66-.12 4.86 4.86 0 0 0-.59-.19 3 3 0 0 1-2.16-1.22 4.74 4.74 0 0 1-.53-2.4v-2-2.81c0-.98 0-1.89-.1-2.75a3.76 3.76 0 0 0-.4-1.71 1.91 1.91 0 0 0-1-.85 4.78 4.78 0 0 0-1.28-.15 8.72 8.72 0 0 1-2.44-.35 8.43 8.43 0 0 0-2.37-.34 1 1 0 0 0-1.12.87 10.43 10.43 0 0 0-.13 1.56c0 .71 0 1.42.1 2.13s.09 1.41.09 2.12a11.83 11.83 0 0 0 .28 2 8.6 8.6 0 0 1 .22 2 1.18 1.18 0 0 1-.38.91 2.36 2.36 0 0 1-.87.5 6.77 6.77 0 0 1-1.09.22c-.4 0-.72.06-1 .06a5.54 5.54 0 0 1-1.72-.25 1.2 1.2 0 0 1-.78-1.31 7.18 7.18 0 0 1 .22-1.81 7.05 7.05 0 0 0 .22-1.75c0-1.25-.05-2.49-.16-3.72s-.15-2.46-.15-3.71q0-4.62.22-9.21c.14-3.06.22-6.13.22-9.21 0-.83 0-1.67-.07-2.53s-.06-1.71-.06-2.59a1.63 1.63 0 0 1 .13-.78c.08-.14.33-.22.74-.22h1.22a8.21 8.21 0 0 1 1.5.07 3.59 3.59 0 0 1 1.25.37 1 1 0 0 1 .53 1 5.7 5.7 0 0 1-.22 1.59 5.93 5.93 0 0 0-.22 1.65 10.42 10.42 0 0 0-.06 1.1v1.09c0 1.37 0 2.75.06 4.12s.06 2.75.06 4.12a11.78 11.78 0 0 1-.25 1.81 8.66 8.66 0 0 0-.18 1.75 1.52 1.52 0 0 0 .56 1.37 3.44 3.44 0 0 0 1.5.5l2.34.25a20.14 20.14 0 0 0 2.34.13h.56a1.13 1.13 0 0 0 .56-.13 1.15 1.15 0 0 0 .47-.75 8.12 8.12 0 0 0 .25-1.25 10 10 0 0 0 .1-1.31v-.93c0-1 0-1.89-.1-2.78s-.09-1.82-.09-2.78 0-1.82.09-2.72.1-1.8.1-2.71a15.88 15.88 0 0 0-.1-1.66 15.48 15.48 0 0 1-.09-1.65 2.41 2.41 0 0 1 .44-1.56 1.85 1.85 0 0 1 1.56-.56 2.43 2.43 0 0 1 2 .71 3.09 3.09 0 0 1 .6 2v4c0 1.33.04 2.53.09 3.86zM1201.22 564.21a2.58 2.58 0 0 1-1.6.91 12 12 0 0 1-1.84.15 21 21 0 0 1-5.8-.75 12.2 12.2 0 0 1-4.53-2.34 10.34 10.34 0 0 1-2.93-4 14.74 14.74 0 0 1-1-5.8 11.27 11.27 0 0 1 .37-2.91A7.34 7.34 0 0 1 1185 547a5.79 5.79 0 0 1 4.91-2.37 6.43 6.43 0 0 1 1.87.28 11.59 11.59 0 0 1 1.72.65c.52.25 1 .47 1.43.66a2.79 2.79 0 0 0 1 .28h.31v-4c0-1.67-.06-3.49-.12-5.49s-.15-4.07-.25-6.21-.25-4.17-.44-6.06a48.65 48.65 0 0 0-.75-5.06 11.38 11.38 0 0 0-1.09-3.28 5.57 5.57 0 0 0-1.37-1.37 3.17 3.17 0 0 0-1.81-.56 4 4 0 0 0-2 .53 4.9 4.9 0 0 0-1.53 1.37 6.14 6.14 0 0 0-.94 1.88 7.05 7.05 0 0 0-.31 2.09 5.71 5.71 0 0 1-.31 2.31c-.21.37-.92.56-2.13.56h-1.09a8.36 8.36 0 0 1-1.25-.09 2.75 2.75 0 0 1-1-.38 1 1 0 0 1-.44-.9 7.74 7.74 0 0 1 .59-2.84c.42-1.06.79-2 1.12-2.66a15.73 15.73 0 0 1 1.88-2.68 15.54 15.54 0 0 1 2.52-2.34 12.31 12.31 0 0 1 3-1.62 8.79 8.79 0 0 1 3.18-.6 7 7 0 0 1 2.94.63 6.83 6.83 0 0 1 3.06 3 20 20 0 0 1 1.84 4.62 38.08 38.08 0 0 1 1 5.09c.2 1.73.37 3.2.5 4.4q.43 4.25.62 8.46t.19 8.46q0 4.13-.1 8.18c-.06 2.71-.09 5.43-.09 8.18 0 .67 0 1.37.06 2.12a3.58 3.58 0 0 1-.5 1.97zm-8.49-14.55a3.39 3.39 0 0 0-2.72 1.13 4 4 0 0 0-1 2.74 6.75 6.75 0 0 0 1.81 4.81 6.13 6.13 0 0 0 4.68 1.94 1.1 1.1 0 0 0 1.22-.78 5.49 5.49 0 0 0 .28-1.5 10.41 10.41 0 0 0-.25-2.31 10.72 10.72 0 0 1-.25-2.38c0-1.49-.25-2.47-.75-2.93a4.61 4.61 0 0 0-3.02-.72zM1209.27 512a.44.44 0 0 0 0-.19.44.44 0 0 1 0-.19.9.9 0 0 1 .5-.84 3.11 3.11 0 0 1 1.15-.37 6.44 6.44 0 0 1 1.31-.07h1a13.69 13.69 0 0 1 6.78 1.47 10.72 10.72 0 0 1 4 4 16.24 16.24 0 0 1 2 5.68 39.92 39.92 0 0 1 .53 6.68q0 4.3-.09 8.58t-.41 8.59c-.08 1.24-.16 2.49-.25 3.74s-.12 2.52-.12 3.81a15.93 15.93 0 0 1-.5 3.9 11.35 11.35 0 0 1-1.53 3.53 8.65 8.65 0 0 1-2.62 2.56 7.13 7.13 0 0 1-3.84 1 8.52 8.52 0 0 1-2.69-.44 9.38 9.38 0 0 1-2.37-1.18 4.91 4.91 0 0 1-1.62-2.88 28.06 28.06 0 0 1-.81-4.65c-.17-1.68-.26-3.33-.28-4.93s0-2.84 0-3.72v-5.3a51.9 51.9 0 0 1 .22-5.31h.06a12.73 12.73 0 0 1 2.25-6.15c1.17-1.52 3.16-2.28 6-2.28a3.91 3.91 0 0 1 2.09.53 2.77 2.77 0 0 0 1.15.53.72.72 0 0 0 .25 0 .29.29 0 0 0 .19-.15l.06-1.94q0-5.06-2.15-7.9t-7.71-2.84a2.34 2.34 0 0 1-1.22-.25 1.54 1.54 0 0 1-.62-.71 4.63 4.63 0 0 1-.35-1.07c-.13-.4-.24-.81-.36-1.24zm11.55 40.89q.26-5.37.31-10.68t.13-10.67a2.51 2.51 0 0 0-1-.31 9.38 9.38 0 0 0-1-.07c-1.83 0-3 .53-3.65 1.6a9.54 9.54 0 0 0-1.1 4h-.06c-.08 1.21-.12 2.41-.12 3.59V544c0 1.75 0 3.47.12 5.15s.13 3.41.13 5.15c0 .54 0 1.13.06 1.75a5.48 5.48 0 0 0 .37 1.72 2.94 2.94 0 0 0 1 1.28 3 3 0 0 0 1.84.5 3.62 3.62 0 0 0 1.63-.38 4.36 4.36 0 0 0 .62-1.28 12.91 12.91 0 0 0 .41-1.68c.1-.61.18-1.2.25-1.78a14.87 14.87 0 0 0 .06-1.52zM1245.6 557.84a10.14 10.14 0 0 1-6.55-2.09 15.19 15.19 0 0 1-4.18-5.24 25.08 25.08 0 0 1-2.22-6.81 38.18 38.18 0 0 1-.66-6.77 33 33 0 0 1 .72-6.84 19.13 19.13 0 0 1 2.41-6.15 13.49 13.49 0 0 1 4.43-4.46 12.43 12.43 0 0 1 6.74-1.72 10.05 10.05 0 0 1 6.68 2.15 15.22 15.22 0 0 1 4 5.34 25 25 0 0 1 2 6.93 50.28 50.28 0 0 1 .53 6.93 30 30 0 0 1-.75 6.59 19.33 19.33 0 0 1-2.41 6 13.93 13.93 0 0 1-4.3 4.41 11.71 11.71 0 0 1-6.44 1.73zm.69-35.46a9 9 0 0 0-4.81 1.16 8.4 8.4 0 0 0-2.93 3.05 13.39 13.39 0 0 0-1.47 4.31 29.18 29.18 0 0 0-.4 4.84c0 1.37.06 2.69.18 3.93a32.9 32.9 0 0 0 .78 4 21.7 21.7 0 0 0 1.69 4.49 13.45 13.45 0 0 0 2.65 3.66 5.1 5.1 0 0 0 3.62 1.49 6.21 6.21 0 0 0 4.47-1.71 12.8 12.8 0 0 0 2.84-4.22 22.06 22.06 0 0 0 1.5-5.24 31.13 31.13 0 0 0 .43-4.81 29.4 29.4 0 0 0-.4-4.46 19.91 19.91 0 0 0-1.41-4.9 12.31 12.31 0 0 0-2.65-3.94 5.62 5.62 0 0 0-4.09-1.65z"/><path class="cls-1" d="M592.72 707.27s9.41-1.77 55.79-1.84c54.37-.07 51.08-119.65-1.85-130.32-88.4-17.81-113.95-7.55-162.07-4.49-71.43 4.55-68.68 121.17-28.77 129a282.92 282.92 0 0 0 71 4.27l67.06 100.7z"/><path class="cls-7" d="M507 607.46q-.86 4.23-1.49 8.43t-1.51 8.43q-1 4.71-2.23 9.57a40 40 0 0 0-1.22 9.72 27.82 27.82 0 0 0 1.1 7.73q1.09 3.79 1.8 7.64.87 4.24 1.42 8.4t1.25 8.39a23.68 23.68 0 0 0-2.39 0 8.36 8.36 0 0 1-2.39-.27l-1.18-.36a.94.94 0 0 1-.55-.35 1.25 1.25 0 0 1-.16-.67c0-.29 0-.69-.07-1.21q-.63-4.56-1.49-9.34c-.27-1.46-.55-2.91-.87-4.35a40.19 40.19 0 0 1-.7-4.35v-1c0-.52-.07-1-.12-1.53a7.89 7.89 0 0 0-.24-1.37c-.1-.4-.23-.59-.39-.59s-.38.26-.51.78a8.44 8.44 0 0 0-.23 1.77c0 .65-.06 1.3-.08 2a8.65 8.65 0 0 1-.12 1.29c-.21 1.41-.47 2.82-.78 4.24s-.58 2.82-.79 4.23a29.34 29.34 0 0 0-.55 4.83 12.15 12.15 0 0 1-1.09 4.74c-.16.31-.27.54-.32.67a.48.48 0 0 1-.23.27 1.73 1.73 0 0 1-.4.12c-.15 0-.41.09-.78.2a12.48 12.48 0 0 1-2.35.23c-.79 0-1.57 0-2.36.08a52.39 52.39 0 0 1 1.3-8.28q1-4.11 2-8.27t1.88-8.27a42.47 42.47 0 0 0 .82-8.36 23.75 23.75 0 0 0-.39-4.31c-.26-1.41-.55-2.81-.86-4.2s-.64-2.78-1-4.19-.62-2.83-.83-4.24q-1.25-8.55-2.74-16.86c.63 0 1.23 0 1.8-.08s1.15-.08 1.73-.08H490a2.29 2.29 0 0 1 .82.12 1 1 0 0 1 .51.51c.13.26.31.63.51 1.1a18.63 18.63 0 0 1 .75 4.31c.08 1.47.22 2.9.43 4.32q.63 3.84 1 7.64a40.71 40.71 0 0 0 1.49 7.49 3.54 3.54 0 0 1 .24.67 5.15 5.15 0 0 0 .23.74c0-.1.14-.35.28-.74a4 4 0 0 0 .19-.67 14.51 14.51 0 0 0 .47-2.94 27.49 27.49 0 0 1 .32-2.94c.52-2.72 1.06-5.42 1.6-8.12s1-5.42 1.3-8.19c.1-.68.18-1.43.23-2.24a2 2 0 0 1 1.1-1.76 3.12 3.12 0 0 1 1.57-.43h2.78a6.12 6.12 0 0 0 1.18-.1zM536.35 629.73a9.05 9.05 0 0 0-1.25 2.08q-.95 1.85-2 4.08t-1.92 4.31a27.45 27.45 0 0 1-1.38 2.86c-1.3 2.51-2.6 5-3.88 7.57a64.38 64.38 0 0 0-3.33 7.88c-.06.27-.15.65-.28 1.14l-.39 1.49a11.1 11.1 0 0 1-.47 1.41 1.82 1.82 0 0 1-.67.91 4.17 4.17 0 0 1-.74.19 9.45 9.45 0 0 1-1.22.16l-1.25.08h-.94a1.22 1.22 0 0 1-1.1-.79 5.94 5.94 0 0 1-.55-1.8 17.66 17.66 0 0 1-.2-2.08v-1.53c0-1.88.08-3.74.24-5.57s.24-3.68.24-5.57q0-3.92-.24-7.84c-.16-2.61-.24-5.23-.24-7.84v-3.06-3a22.93 22.93 0 0 0-.19-3 23.07 23.07 0 0 1-.2-3 1.38 1.38 0 0 1 .59-1.1 5.94 5.94 0 0 1 1.41-.82 9.68 9.68 0 0 1 1.65-.55 6.08 6.08 0 0 1 1.29-.2.82.82 0 0 1 .86.75 6 6 0 0 1 .16 1.29q0 6.9-.12 13.69t-.11 13.68c0 .79 0 1.56.07 2.32a19.39 19.39 0 0 0 .32 2.31 33.24 33.24 0 0 0 2-3c.78-1.33 1.55-2.75 2.31-4.24s1.48-2.94 2.16-4.35 1.18-2.53 1.49-3.37a48.71 48.71 0 0 1 2.31-5.14c.87-1.64 1.66-3.33 2.4-5.06.15-.41.34-1 .54-1.72s.42-1.49.63-2.28a19.36 19.36 0 0 1 .71-2.15 3.52 3.52 0 0 1 .86-1.38 4.23 4.23 0 0 1 1.49-.82 6.06 6.06 0 0 1 1.81-.27 1.82 1.82 0 0 1 1.64.7 3.14 3.14 0 0 1 .47 1.81 14.32 14.32 0 0 1-.27 2.78 13.34 13.34 0 0 0-.28 2.71q0 8.24.24 16.35t.23 16.35c0 1.26 0 2.5-.07 3.73s-.14 2.47-.24 3.72c-.1.68-.2 1.17-.27 1.45a1 1 0 0 1-.36.59 1.29 1.29 0 0 1-.74.16 13.29 13.29 0 0 0-1.37.08 4.81 4.81 0 0 0-.83.07 4.43 4.43 0 0 1-.9.08.87.87 0 0 1-.82-.51 3.76 3.76 0 0 1-.4-1.17 12.21 12.21 0 0 1-.15-1.34v-1.06q0-8.07.74-16t.75-16a2.31 2.31 0 0 0-.24-1.17zM555.18 644.63a11.58 11.58 0 0 0-1.18.37 3.37 3.37 0 0 1-1.29.24 2.79 2.79 0 0 1-.51-.08.54.54 0 0 0-.51.08 2.08 2.08 0 0 1-.28-1 16 16 0 0 1-.15-1.8c0-.66-.06-1.28-.08-1.89s0-1 0-1.13a6.77 6.77 0 0 1 .08-1.49c.05-.16.36-.34.94-.55a6.1 6.1 0 0 1 2-.32 10.28 10.28 0 0 1 2 .2 10.2 10.2 0 0 0 2 .2c3.45 0 6.86-.06 10.23-.16l10.16-.32v3.49c0 .71 0 1.37-.08 2a4 4 0 0 1-.23 1.21 2.25 2.25 0 0 1-.87.16c-1 0-2 0-3-.12s-2-.12-3.09-.12c-.84 0-2 0-3.53.08s-3.09.12-4.71.2-3.15.17-4.59.27a15.71 15.71 0 0 0-3.31.48zM601.21 672a1.78 1.78 0 0 1-1.06-.19 1.21 1.21 0 0 1-.43-.9 21.5 21.5 0 0 1-.08-2.16q0-1.49.12-2.94t.12-2.94c0-.63-.07-1.86-.2-3.69s-.34-3.71-.62-5.65a31.41 31.41 0 0 0-1.18-5.17c-.5-1.52-1.09-2.28-1.76-2.28q-1.26 0-2 2.16a22.3 22.3 0 0 0-1.14 4.94c-.24 1.86-.39 3.66-.47 5.41s-.12 3-.12 3.65v5.21a17.6 17.6 0 0 1-.35 2.87c-.19.83-.51 1.25-1 1.25h-2.59c-.84 0-1.67 0-2.51.08.05-3.4.21-6.74.47-10a82.85 82.85 0 0 1 1.41-10q.16-.95.39-1.92c.16-.65.34-1.29.55-1.92.11-.26.25-.59.43-1s.38-.81.59-1.26.39-.86.55-1.25a2.64 2.64 0 0 0 .24-.83 3.23 3.23 0 0 0-.36-1.25c-.23-.52-.51-1.07-.82-1.65l-.94-1.72a7.1 7.1 0 0 1-.63-1.49 51.65 51.65 0 0 1-2.14-12.36q-.31-6.51-.31-12.71c0-.68.29-1 .86-1a2.41 2.41 0 0 1 .94.24 2.25 2.25 0 0 1 1-.24h1.1a5.25 5.25 0 0 1 1.88.31c.53.21.79.76.79 1.65v3.26c0 1.54.08 3.29.15 5.25s.2 4 .36 6.08.38 4 .66 5.73a23.67 23.67 0 0 0 1.06 4.27c.42 1.12.94 1.69 1.57 1.69s1.26-.53 1.67-1.53a15.92 15.92 0 0 0 1.1-3.6c.28-1.47.52-3.07.7-4.83s.32-3.45.4-5.09.14-3.12.19-4.4.08-2.21.08-2.78a9.84 9.84 0 0 0-.12-1.49 10.38 10.38 0 0 1-.12-1.57 3.75 3.75 0 0 1 .55-2.27 2.67 2.67 0 0 1 2.2-.71h.82l1.26.12a4.34 4.34 0 0 1 1.14.27c.31.13.47.3.47.51a1.65 1.65 0 0 1-.16.71 1.33 1.33 0 0 0-.16.62.5.5 0 0 0 .32.47c-.06 3.09-.2 6.17-.44 9.26a83.55 83.55 0 0 1-1.21 9.18 15.12 15.12 0 0 1-.51 2.11c-.29 1-.59 2-.9 3s-.59 1.95-.83 2.79a9.75 9.75 0 0 0-.35 1.49 4.28 4.28 0 0 0 .63 2.23 20 20 0 0 1 1.1 2.16 35.36 35.36 0 0 1 1.21 4.51q.59 2.79 1 5.76t.63 5.85c.16 1.91.24 3.51.24 4.82v1.14a11.21 11.21 0 0 1-.12 1.64 5.1 5.1 0 0 1-.43 1.46 1 1 0 0 1-.87.62 5.63 5.63 0 0 1-1-.08 6.65 6.65 0 0 0-1-.07zM636.66 629.73a9.05 9.05 0 0 0-1.25 2.08q-.95 1.85-2 4.08t-1.92 4.31a27.45 27.45 0 0 1-1.38 2.86c-1.3 2.51-2.6 5-3.88 7.57a64.38 64.38 0 0 0-3.33 7.88c-.06.27-.15.65-.28 1.14l-.39 1.49a11.1 11.1 0 0 1-.47 1.41 1.82 1.82 0 0 1-.67.91 4.17 4.17 0 0 1-.74.19 9.45 9.45 0 0 1-1.22.16l-1.25.08h-.94a1.22 1.22 0 0 1-1.1-.79 5.94 5.94 0 0 1-.55-1.8 17.66 17.66 0 0 1-.2-2.08v-1.53c0-1.88.08-3.74.24-5.57s.23-3.68.23-5.57c0-2.61-.07-5.22-.23-7.84s-.24-5.23-.24-7.84v-3.06-3a22.93 22.93 0 0 0-.19-3 23.07 23.07 0 0 1-.2-3 1.38 1.38 0 0 1 .59-1.1 5.94 5.94 0 0 1 1.41-.82 9.68 9.68 0 0 1 1.65-.55 6.08 6.08 0 0 1 1.29-.2.82.82 0 0 1 .86.75 6 6 0 0 1 .16 1.29q0 6.9-.12 13.69t-.11 13.68c0 .79 0 1.56.07 2.32a19.39 19.39 0 0 0 .32 2.31 33.24 33.24 0 0 0 2-3c.78-1.33 1.55-2.75 2.31-4.24s1.48-2.94 2.16-4.35 1.18-2.53 1.49-3.37a48.71 48.71 0 0 1 2.31-5.14c.87-1.64 1.66-3.33 2.4-5.06.15-.41.33-1 .54-1.72s.42-1.49.63-2.28a19.36 19.36 0 0 1 .71-2.15 3.52 3.52 0 0 1 .86-1.38 4.15 4.15 0 0 1 1.49-.82 6 6 0 0 1 1.8-.27 1.83 1.83 0 0 1 1.65.7 3.14 3.14 0 0 1 .47 1.81 14.32 14.32 0 0 1-.27 2.78 13.34 13.34 0 0 0-.28 2.71q0 8.24.24 16.35t.23 16.35c0 1.26 0 2.5-.07 3.73s-.14 2.47-.24 3.72c-.11.68-.2 1.17-.27 1.45a1 1 0 0 1-.36.59 1.29 1.29 0 0 1-.74.16 13.61 13.61 0 0 0-1.38.08 4.78 4.78 0 0 0-.82.07 4.43 4.43 0 0 1-.9.08.87.87 0 0 1-.82-.51 3.76 3.76 0 0 1-.4-1.17 12.21 12.21 0 0 1-.15-1.34v-1.06q0-8.07.74-16t.75-16a2.31 2.31 0 0 0-.24-1.17z"/><path class="cls-8" d="M826.76 243.13s13.42 3.74 12.59 16.05a78.2 78.2 0 0 1-4 20.61s-10.64-23.37-17.92-29.32 1.72-10.38 9.33-7.34z"/><path class="cls-9" d="M786.02 739.88l-27.13 187.11-23.93-.06 6.9-189.89 44.16 2.84z"/><path class="cls-10" d="M764.21 925.89s32.37 4.34 47.65 12.4c5.57 2.94 2.77 9.47 1.1 10.85-3.85 3.18-67 5.38-81.43 4.56-5.07-.29-.09-20.68 5.81-26.76z"/><path class="cls-9" d="M829.2 785.22l-12.82 127.86-23.3-3.4L791.84 773l37.36 12.22z"/><path class="cls-10" d="M819.54 914.47s30.67 11.24 43.84 22.41c4.8 4.08.65 9.85-1.28 10.84-4.44 2.27-66.58-9.25-80.48-13.17-4.89-1.38 4.38-20.21 11.46-24.87z"/><path d="M818.77 902.09s30.53 20.07 43.7 31.25c4.8 4.07 2.85 9.94 2.85 9.94-4.45 2.28-70.62-11-84.52-14.91 0 0 .29-13.68 12.75-30.3l.8 7.65 20 3.61z" fill="#cc7e60"/><path class="cls-12" d="M845.63 482.34s12 136.55-16 410.5l-41.16-2.24-19.66-415.43z"/><path class="cls-7" d="M730.19 493.22C700.66 585.17 726.89 691 726 738c-1.24 66 6.29 166.49 6.29 166.49l41.8 3.13 19.36-171.75 17.47-247.48z"/><path class="cls-13" d="M835 441.49l16.13 57.92c3.17 10.78 14.82 17.73 25.48 15.2 9.75-2.31 15.16-11.78 12.38-21.66l-20.91-79.43z"/><path class="cls-10" d="M798.68 357.57c-6.19 2.39 54.07 4.13 81.14 59.55l-43.35 52.95-20.28-60.83-6.26-42.07c-5.05 1.43-11.24-9.6-11.25-9.6z"/><path class="cls-10" d="M727.25 367.8c-6.49 4.89-20.85 32.08-20.46 40.59l9 192.66 137.25-5.26s-4.27-171-20.84-208.8c-16.03-36.66-77.84-39.61-104.95-19.19z"/><path class="cls-9" d="M682.06 443.41l5.63 83c.58 11.29 10.13 18.81 20.9 16.44 9.85-2.17 17.18-11.88 16.78-22.22l2-84z"/><path class="cls-10" d="M768.81 355.18s-97.14-11.81-93.16 104.32l58.55 2.13-1.48-62.79z"/><path d="M727.25 461.38c2.32-.13 4.65-.14 7-.21l-.47.44v-12.57c0-2.1.1-4.19.17-6.28s.14-4.19.24-6.28c.17-4.19.42-8.37.72-12.55s.68-8.36 1.17-12.54c.18 4.2.24 8.4.23 12.59s-.08 8.38-.23 12.57c-.06 2.09-.13 4.18-.24 6.28s-.18 4.18-.31 6.27c-.21 4.19-.53 8.37-.89 12.55v.05a.44.44 0 0 1-.47.39c-2.3-.24-4.61-.42-6.92-.71z"/><path d="M817.41 309.84c1.31 6.83 4.54 9.5 13.52 7.92 6.85-1.21 11-9.41 9.66-16.24s-6.84-8.58-14-6.52c-4.93 1.43-10.5 8-9.18 14.84z" fill="#c96e3d"/><path class="cls-9" d="M774 316.29l-10.65 61.54 24.21 9.61a14.29 14.29 0 0 0 17.68-6.18l-1.52-60.85z"/><path d="M804.56 357.57c-13.43-3.81-24.75-27.46-24.75-27.46l23.9-5.2z" fill="#c46234"/><path class="cls-9" d="M782.84 249.77a54.09 54.09 0 0 1 24.49-.89c10.91 2.25 24.87 6.74 26.41 26.09 2.56 32.26-1.7 56.4-18.24 63.66-12.7 5.58-21.87 3.41-36.32-4.82-5.38-3.06-10.51-12-11.91-18.15l-6-17.26s-16.57-38.64 21.57-48.63z"/><path class="cls-8" d="M760.52 260.46s30.82 7.46-.34 43.28l-5.77-34.46z"/><path class="cls-9" d="M771.78 311.23c-1.35 6.82-4.58 9.48-13.55 7.87-6.85-1.23-11-9.45-9.6-16.28s6.87-8.55 14-6.47c4.94 1.45 10.49 8.05 9.15 14.88z"/><path class="cls-16" d="M755.76 303.83s6.4-1.57 8.85 7.52"/><path class="cls-8" d="M754.41 269.28c.49.33 40.08 1.34 58.51 0 6.14-.44-11-9.86-4.63-8.82 17.86 2.91 27.06-.23 28.77-8.37 1.06-5-5.46-9.4-11-11.86-5.93-2.65-17.55-2.76-39.8-1.53-33.36 1.86-31.85 30.58-31.85 30.58zM820 277.15s-2.14 2.29 2.41 4.47a31 31 0 0 1 6.16 3.53 3.36 3.36 0 0 0 3.38.4 2.27 2.27 0 0 0 .75-2.21c-.29-1.74.63-3.22-3.56-5.27-5.39-2.63-9.14-.92-9.14-.92zM800.84 277.63s2.16 3.4-4.35 5.09a89 89 0 0 0-13.39 5.15 4.51 4.51 0 0 1-4.49-.29 1.82 1.82 0 0 1-.32-2.65 29 29 0 0 1 13-8.34c7.71-2.08 9.55 1.04 9.55 1.04z"/><path class="cls-1" d="M802.36 297.5s-7.45-11.28-22.16-1.63c0 0 7.98 10.49 22.16 1.63z"/><g clip-path="url(#clip-path)"><path class="cls-18" d="M795 295.86a5.39 5.39 0 1 1-6.26-4.35 5.38 5.38 0 0 1 6.26 4.35z"/></g><path class="cls-19" d="M779.48 294.88a22.71 22.71 0 0 1 5.91-2.76 17.83 17.83 0 0 1 6.41-.88 13.77 13.77 0 0 1 6.1 1.9 12.43 12.43 0 0 1 4.46 4.36 12.22 12.22 0 0 0-4.74-3.82 12.7 12.7 0 0 0-5.84-1.21 15.94 15.94 0 0 0-5.77 1.38 20.19 20.19 0 0 0-5.08 3 1.23 1.23 0 0 1-1.55-1.9z"/><path class="cls-1" d="M817.65 296.82s6.33-10.33 14-2.47c-.05 0-6.22 10.65-14 2.47z"/><g clip-path="url(#clip-path-2)"><path class="cls-18" d="M821.12 295c-.65 2.83.39 5.49 2.33 5.93s4-1.48 4.69-4.31-.39-5.49-2.33-5.93-4.04 1.47-4.69 4.31z"/></g><path class="cls-19" d="M830.64 295.1a7.44 7.44 0 0 0-2.71-2.52 5.6 5.6 0 0 0-1.77-.59 3 3 0 0 0-.9 0 6.25 6.25 0 0 0-1 .13 9.11 9.11 0 0 0-3.67 1.7 13.69 13.69 0 0 0-3 3 13.78 13.78 0 0 1 2.56-3.48 10.12 10.12 0 0 1 3.73-2.42 6.33 6.33 0 0 1 1.11-.31 4.39 4.39 0 0 1 1.22-.15 7.4 7.4 0 0 1 2.37.43 9.4 9.4 0 0 1 3.92 2.71 1.23 1.23 0 0 1-1.83 1.64.71.71 0 0 1-.03-.14z"/><path class="cls-16" d="M814.06 315.57l4.8-2.36-4.15-12.16M813.77 322.38a16.94 16.94 0 0 1 7.17-.65"/><path class="cls-13" d="M760.78 914s34.15 13 49.42 21c5.57 2.94 4.94 9.09 4.94 9.09-3.85 3.18-71.33 4.54-85.74 3.72 0 0-2.68-13.42 5.89-32.34l2.43 7.3 20.34-.81z"/><path class="cls-21" d="M734.99 410.83l65.72-28.21 7.07 15.74-64.21 26.81-8.58-14.34z"/><path class="cls-1" d="M802.06 395.98l-3.75-8.84-60.28 26.42 3.91 7.48 60.12-25.06z"/><path fill="#ffe449" d="M740.91 415.68l40.34 90.6 64.8-29.12-39.02-90.41-66.12 28.93z"/><path class="cls-21" d="M740.91 415.68l-5.92-4.85 39.96 90.38 6.3 5.07-40.34-90.6z"/><path class="cls-13" d="M751.71 465.24c3.37-4.37 21.85 8.05 26.64 12.71l-.68-4.45c-.28-1.8-.69-4.45 1.65-5.22s6.35 7.28 6.35 7.28c2.87 5.9 13 24.57 13 24.57L791 514.55c-12.76-3.67-23.32-9.3-30.59-15.45-1.15-1-15.56-4.72-14.72-7.84.64-2.39 17.43 1.56 16.32-.05-.62-.89-17.66-2.37-17.33-7.58.2-3.23 18.89 3.26 19.16 1.5.19-1.16-19-4.58-18.9-9.11.18-5.63 22.52 4.79 22.89 3.12.63-2.83-17.34-12.3-16.12-13.9z"/><path class="cls-13" d="M865.92 488l-72.44 8.41-2.48 18.14 74.12 10.63a20.55 20.55 0 0 0 18.68-6.83c4.1-4.72 6.24-11 4.32-17.36-3.12-10.3-12.98-16.09-22.2-12.99z"/><path stroke="#af4a25" stroke-width=".97" fill="#de8d68" stroke-miterlimit="10" d="M842.94 489.46l22.98-1.49"/><path class="cls-9" d="M697.06 509.06l64.57-53.33 21 9.78-58.33 68.8a22.28 22.28 0 0 1-18.95 7.76c-6.46-.52-12.58-3.46-15.66-9.14-5.05-9.21-1.75-19.83 7.37-23.87z"/><path class="cls-9" d="M805.36 413.52c-3.3-4.42-21.92 14.11-25.53 19.74l.2-7.21c-.14-1.81-1.94-5.59-4.4-5.81s-3.48 12.35-3.48 12.35C770.7 439 761.07 456 761.07 456l14.75 15.8c11.59-6.48 20.6-14.36 26.28-22 .9-1.21 17-12.88 15.45-15.73-1.17-2.18-19.51 10.23-18.79 8.41.39-1 19.7-12.21 18.2-17.21-.93-3.09-20.71 13.35-21.38 11.7-.44-1.08 18.08-12.65 16.91-17-1.44-5.44-22.55 13.77-22.15 12.11.3-1.31 17.33-15.48 15.02-18.56z"/><path class="cls-7" d="M784.72 871.84l49.66-.44-4.76 21.44-42.17-1.71-2.73-19.29z"/><path class="cls-12" d="M726.52 880.48l53.73 6.81-3.94 23.37-49.79-5.96v-24.22z"/></svg>