<svg id="Layer_1" data-name="Layer 1" xmlns="http://www.w3.org/2000/svg" viewBox="0 0 521 457"><defs><style>.cls-1,.cls-19{fill:none}.cls-2{fill:#fff}.cls-4{fill:#eca179}.cls-5{fill:#93aab5}.cls-6{fill:#f7f7f8}.cls-7{fill:#1b1c20}.cls-12{fill:#21a498}.cls-13{fill:#995300}.cls-17{fill:#604538}.cls-19{stroke:#ca5e34;stroke-linecap:round;stroke-linejoin:round;stroke-width:1.67px}</style><clipPath id="clip-path"><path class="cls-1" d="M348.13-496c-7.72-.19-30.23-27.66-51.34-28-17.48-.26-30.42 13.25-37.55 13.87-27.57 2.42-97.83 24.63-151.58 83.22-19.19 20.92-70.19 196.69 9.76 246C252-98 521.28-189 488.65-367.54c-27-147.72-119.54-127.97-140.52-128.46z"/></clipPath><clipPath id="clip-path-2"><path class="cls-1" d="M332.83 64.07c-14-.34-76-2.19-91.57-.82-27.33 2.4-93.49 11.25-146.76 69.32-19 20.72-69.56 194.93 9.67 243.76 133.37 82.19 400.25-8 367.91-184.92C445.32 45 353.61 64.58 332.83 64.07z"/></clipPath><clipPath id="clip-path-3"><path class="cls-2" d="M188.38 151.37s-7.86-13-24.75-2.8c0 0 8.48 12.1 24.75 2.8z"/></clipPath><clipPath id="clip-path-4"><path class="cls-2" d="M205.54 151.28s7.54-11.29 15.73-2.15c0 0-7.38 11.62-15.73 2.15z"/></clipPath></defs><g clip-path="url(#clip-path)"><path class="cls-4" d="M237.93-18.38l-30.95 149.66-17.38-1.08 12.84-153 35.49 4.42z"/><path class="cls-5" d="M211.33 130.65s25.91 5.07 37.85 12.32c4.35 2.64 1.77 7.77.36 8.8-3.26 2.38-54.33 1.1-65.92-.26-4.08-.48.92-16.69 6-21.31z"/><path class="cls-6" d="M209.14 120.87S236.07 133 248 140.25a7.76 7.76 0 0 1 3.54 7.58c-3.26 2.38-57.77.21-69.36-1.15 0 0-1.51-11 6.32-25.81l1.61 6 16.45.34z"/><path class="cls-4" d="M309.85 21.25l-5.12 108.69-19.04.26L267.3 21.25h42.55z"/><path class="cls-5" d="M307.42 130.65s25.92 5.07 37.85 12.32c4.35 2.64 1.78 7.77.36 8.8-3.26 2.38-54.33 1.1-65.91-.26-4.09-.48.92-16.69 6-21.31z"/><path class="cls-6" d="M305.23 120.87s26.93 12.14 38.86 19.38a7.76 7.76 0 0 1 3.55 7.58c-3.26 2.38-57.78.21-69.37-1.15 0 0-1.51-11 6.32-25.81l1.61 6 16.46.34z"/><path class="cls-7" d="M291.87-220.1s26.89 108.76 24.93 331.35l-46.61 1.52L229.5-220.1z"/><path d="M204.82-220.1c-28.28 72.76-18 148.93-21 186.84-4.23 53.18-3.25 144.26-3.25 144.26l39.62 5.37 23.93-137.63 26.07-198.84z" fill="#39373a"/></g><path d="M332.83 64.07c-14-.34-76-2.19-91.57-.82-27.33 2.4-93.49 11.25-146.76 69.32-19 20.72-69.56 194.93 9.67 243.76 133.37 82.19 400.25-8 367.91-184.92C445.32 45 353.61 64.58 332.83 64.07z" fill="#c4e5e5"/><path class="cls-2" d="M303.32 172.3l-23.43-.25c-27.48-.29-26.16-78.07.56-84.77 44.62-11.19 57.56-4.4 81.88-2.19 36.11 3.28 35.05 79.12 14.91 84-18.9 4.58-47.75 1.73-47.75 1.73l-35.19 24z"/><g clip-path="url(#clip-path-2)"><path d="M217.11 312l44.31 115.18c4.15 11.9 17.58 19 29.37 15.6l5.7-16.33c10.79-3.14 10.62 2.29 7-8.62L258 294.81z" fill="#de8d68"/><path class="cls-12" d="M207.37 210.24c19.73 2.24 49.54 31.84 57.89 91.93L220.85 307l-15.08-46.4s-12.24-51.94 1.6-50.36z"/><path class="cls-12" d="M130.91 212.48c-5.75 7.07-34.37 107.73-32.25 184.61l-3.74 77.18 173.23-13.55s-5.74-168.26-22.47-211.38c-19.58-50.47-96.14-59.81-114.77-36.86z"/><path class="cls-4" d="M87.63 301.48L141.84 388c7.5 10.23 21.08 11.37 29.7 2.51 7.89-8.1 8.76-21.72 2-31.15L130.34 280z"/><path class="cls-12" d="M150.18 202.16S63 216.75 86 323.88l72.17-15.34-20.52-67.37z"/><path class="cls-12" d="M150.61 310.36l7.59-1.82-13.08-54.82"/><path class="cls-13" d="M222 111.86s23 17.73-10.07 50.31l-4.95-38.86z"/><path d="M204.69 165.85c1.18 7.71 4.67 10.85 14.8 9.47 7.73-1 12.71-10.06 11.53-17.77s-7.28-9.91-15.35-7.92c-5.62 1.37-12.16 8.51-10.98 16.22z" fill="#c96e3d"/><path class="cls-4" d="M165.63 166.19l-9.06 52.31s11.45 6.74 20.51 7.87c8.12 1 23.19-2.38 23.19-2.38L199 170.82z"/><path d="M199.93 212.48c-27.74-5.19-29.44-30.16-29.44-30.16l28.5-6.46z" fill="#c46234"/><path class="cls-4" d="M168.61 97a60.67 60.67 0 0 1 27.47.08c12.13 3 27.57 8.64 28.44 30.39 1.45 36.25-4.38 63.1-23.23 70.52-14.47 5.69-24.65 2.85-40.48-7-5.89-3.67-11.24-13.88-12.53-20.86l-6-19.6S125.44 106.56 168.61 97z"/><path class="cls-13" d="M206.29 140.05s-.37 3.5 5.17 2.37a35.66 35.66 0 0 1 7.9-1 3.75 3.75 0 0 0 3.29-1.92 2.51 2.51 0 0 0-.83-2.48c-1.43-1.36-3.47-3.26-8.6-2.26-6.58 1.24-6.93 5.29-6.93 5.29zM189.47 137.18s1.14 4.37-6.39 3.95A98.66 98.66 0 0 0 167 142a5.09 5.09 0 0 1-4.7-1.84 2 2 0 0 1 .57-2.94c2.09-1.51 9.77-4.79 16.72-4.46 8.97.46 9.88 4.42 9.88 4.42z"/><path class="cls-2" d="M188.38 151.37s-7.86-13-24.75-2.8c0 0 8.48 12.1 24.75 2.8z"/><g clip-path="url(#clip-path-3)"><path class="cls-7" d="M182.9 149.3a6 6 0 1 1-6.82-5.15 6.05 6.05 0 0 1 6.82 5.15z"/></g><path class="cls-17" d="M163.06 147.72a24.89 24.89 0 0 1 6.62-2.87 19.72 19.72 0 0 1 7.13-.78 15.27 15.27 0 0 1 6.72 2.3 14 14 0 0 1 4.85 5 13.67 13.67 0 0 0-5.11-4.56 14.57 14.57 0 0 0-6.52-1.72 18.56 18.56 0 0 0-6.61 1.22 23 23 0 0 0-5.94 3.11 1 1 0 0 1-1.21-1.66z"/><path class="cls-2" d="M205.54 151.28s7.54-11.29 15.73-2.15c0 0-7.38 11.62-15.73 2.15z"/><g clip-path="url(#clip-path-4)"><path class="cls-7" d="M208.63 149.82c-.85 3.14.2 6.16 2.35 6.75s4.59-1.49 5.44-4.63-.19-6.16-2.34-6.75-4.59 1.49-5.45 4.63z"/></g><path class="cls-17" d="M220.44 149.72a8.57 8.57 0 0 0-3.1-3 6.67 6.67 0 0 0-2-.73 3.72 3.72 0 0 0-1.06 0 7 7 0 0 0-1.12.12 10.54 10.54 0 0 0-4.2 1.85 15 15 0 0 0-3.39 3.32 15.38 15.38 0 0 1 3.07-3.72 11.31 11.31 0 0 1 4.28-2.44 7.31 7.31 0 0 1 1.23-.28 5.25 5.25 0 0 1 1.33-.09 8.19 8.19 0 0 1 2.54.6 10.44 10.44 0 0 1 4.11 3.18 1 1 0 1 1-1.59 1.28z"/><path class="cls-19" d="M200.69 172.12l5.49-2.42-4.12-13.8M190.12 181.23C201.65 196.44 208 181 208 181z"/><path class="cls-13" d="M143.61 103.64s33.6 10.07-2.63 49.05c0 0-4.93-32-1.43-44 .22-.69 4.06-5.05 4.06-5.05z"/><path class="cls-4" d="M153.51 165.4c-1.8 7.59-5.54 10.43-15.52 8.23-7.62-1.68-11.84-11.07-10-18.65s8.07-9.28 16-6.64c5.4 1.84 11.33 9.48 9.52 17.06z"/><path d="M135.89 156.42s7.24-1.48 9.59 8.81" stroke-width="2.53" stroke="#ca5e34" stroke-linecap="round" stroke-linejoin="round" fill="none"/><path class="cls-13" d="M141.58 106.68c-.26 3.32.35 18.95 18 14.52 2.16-.54 20.52 2.1 33.58 3.77 20.38 2.62 42.76 1 45.8-22.35-19.27-3-7.47-9.35-58.19-10.64-38.85-.98-39.19 14.7-39.19 14.7z"/><path class="cls-4" d="M149.63 362.49l64-79.32 21.19 13.53-49.93 87.94a24.93 24.93 0 0 1-19.26 12.5c-7.22.76-14.57-1.19-19.15-6.8-7.48-9.12-6.06-21.49 3.15-27.85z"/><path class="cls-4" d="M255.16 229.78c-4.37-4.37-22.1 19.14-25.22 25.95l-.92-8c-.44-2-3-5.89-5.79-5.75s-1.91 14.26-1.91 14.26c-.6 7.32-8.74 29-8.74 29l19 13.92c11.84-9 20.59-19.19 25.69-28.57.81-1.49 16.8-17 14.65-19.91-1.64-2.24-20 14.44-19.52 12.31.27-1.18 19.93-16.67 17.47-22-1.52-3.28-20.86 18.1-21.87 16.37-.66-1.13 18.06-16.91 16.07-21.58-2.46-5.81-22.85 18.86-22.67 16.94.15-1.46 16.8-19.89 13.76-22.94z"/></g><path class="cls-12" d="M329.25 106.32a3.9 3.9 0 0 1-7.79 0 3.83 3.83 0 0 1 3.93-3.93 3.73 3.73 0 0 1 3.86 3.93zm-7 44.33V116h6.29v34.61z"/><circle cx="325.36" cy="126.52" r="32.81" stroke="#21a498" stroke-miterlimit="10" stroke-width="4" fill="none"/></svg>