<svg id="Layer_1" data-name="Layer 1" xmlns="http://www.w3.org/2000/svg" viewBox="0 0 1456.08 1021.32"><defs><style>.cls-12,.cls-22,.cls-27,.cls-28,.cls-32,.cls-33,.cls-35{fill:none}.cls-2{fill:#fff}.cls-5{fill:#282828}.cls-6{fill:#ffb1a5}.cls-7{fill:#f3978e}.cls-9{fill:#300e2e}.cls-10{fill:#e58e88}.cls-12{stroke:#1c0001;stroke-width:1.4px}.cls-12,.cls-22,.cls-32{stroke-linecap:round;stroke-linejoin:round}.cls-27,.cls-28,.cls-33,.cls-35{stroke-miterlimit:10}.cls-19{fill:#21a498}.cls-20{fill:#eca179}.cls-21{fill:#ffe6a1}.cls-22{stroke:#ca5e34;stroke-width:2px}.cls-24{fill:#3181bc}.cls-27{stroke:#ad462a;stroke-width:3.03px}.cls-28{stroke:#af4a25;stroke-width:2.59px}.cls-30{fill:#005683}.cls-31{fill:#c98bd2}.cls-32{stroke:#282828;stroke-width:3.15px}.cls-33{stroke:#c46234;stroke-width:2.13px}.cls-35{stroke:#fff;stroke-width:4.4px}</style><clipPath id="clip-path"><path fill="none" d="M266.99 281.51h1034.75v749.55H266.99z"/></clipPath><clipPath id="clip-path-2"><path class="cls-2" d="M513.92 439.59s-11.68-14.31-30.35.81c0 0 12.28 13.17 30.35-.81z"/></clipPath><clipPath id="clip-path-3"><path class="cls-2" d="M532.17 436.81s7.19-14.89 18.62-5.26c0 0-6.94 15.29-18.62 5.26z"/></clipPath><clipPath id="clip-path-4"><path class="cls-2" d="M1004.67 441.51c-1-5.49-10.67-2.91-13.49-3-2.54-.1-10.7.6-12.2 3.55 1.67 6.64 8.61 8.48 14.44 8.77s12.25-3.83 11.25-9.32z"/></clipPath><clipPath id="clip-path-5"><path class="cls-2" d="M1025.49 440.5c1.65-2.82 5.81-3 8.77-2.95 2.26 0 5.85.59 7.2 3-.5 4.58-3.47 7.74-8.27 8s-7.73-3.28-7.7-8.05z"/></clipPath><clipPath id="clip-path-6"><path class="cls-2" d="M703.64 407.89s-11.36-18.59-35.57-3.89c0 0 12.23 17.32 35.57 3.89z"/></clipPath><clipPath id="clip-path-7"><path class="cls-2" d="M763.4 408.87s-12.4-17.87-35.74-1.8c0 0 13.24 16.59 35.74 1.8z"/></clipPath></defs><path d="M907.75 17c-35.48.38-209.51-6.31-249.21-1.34C589 24.42 535.48 47.63 485 72.4c-63.38 31.14-120.58 67.3-174.6 105.8C240.6 228 176 281.58 124.93 345.39 80 401.42 83.71 467.64 91.67 559.07c4.51 51.71-7.93 106 34.86 184.64C307.37 1076 1443.4 1097.19 1338.2 369.1 1283.59-8.84 960.43 16.47 907.75 17z" fill="#c4e5e5"/><g clip-path="url(#clip-path)"><path class="cls-5" d="M585.76 750.82l-67.83-9 .62-7.88-79.35 10.53s-43.3 116-4.76 357.32h55.18l19.24-244.64h7l19.86 244.64H591c38.49-241.27-5.24-350.97-5.24-350.97z"/><path class="cls-6" d="M387.88 898.13c-1.11 1.74 63.49-281.07 44.31-276.79-1.75.39-35.34 3.5-40.33 13.66C377.39 664.42 367 896 367 896z"/><path class="cls-6" d="M367 896s-10.4 48.29 29 53.57a5.52 5.52 0 0 0 6-3.65l.12-.33a5.53 5.53 0 0 0-3.07-6.84c-6.41-2.87-16.37-10.12-11.43-26.58 0 0 5.69-.7 8.83 9.92a4.56 4.56 0 0 0 6.41 2.82 4.56 4.56 0 0 0 2.47-4.67c-.94-7.44-4.68-25.33-19-30.13z"/><path class="cls-7" d="M380.25 703s37.22 52.41 37.42 51.4 13-73.59 13-73.59l-45.15-19.61z"/><path d="M483.67 533.56c1.59 0-92 1.67-109.09 119.82l53.78 8.24 10.84 89.2h150L619 586s-21.17-35.7-82.88-53.2z" fill="#7574e0"/><path class="cls-6" d="M437.93 547.84s13.23 17.56 67.41 17.56c53.68 0 67.41-18.48 67.41-18.48s-31.65-17.68-68.37-23.4a243.28 243.28 0 0 0-66.45 24.32z"/><path class="cls-9" d="M388.31 373.3a34.77 34.77 0 1 0 32.38-37 34.77 34.77 0 0 0-32.38 37z"/><path class="cls-9" d="M420.75 427.83c2.45 36.7 50.52 62.29 70.81 60.93 36.71-2.45 64.55-33.1 62.1-69.8s-34.13-63.26-70.89-62c-37.35 1.24-64.47 34.17-62.02 70.87z"/><path class="cls-10" d="M529.12 450.25c2.42 9.87 12 14.4 21.84 12s15.34-14.53 12.92-24.4-11.39-12.26-21.26-9.84a18.4 18.4 0 0 0-13.5 22.24z"/><path class="cls-6" d="M487.29 461.35l-.79 97.38 43.35-1.89-8.05-84.67-34.51-10.82z"/><path class="cls-10" d="M525.68 513s-26.2-5.66-44.37-38.36l41.47 7.82z"/><path class="cls-6" d="M515.2 359.32s40.4-1.39 40.9 51.77-2.36 69.78-22.81 82.34c-18.38 11.28-45.79 1.86-61.13-19.73-6-8.48-11-21.5-12.48-31.8l-4.08-13.62s-21.22-67.68 59.6-68.96z"/><path class="cls-9" d="M466.32 397.06l2.46 50.4-33.51-24.07 13.06-18.07 17.99-8.26z"/><path class="cls-6" d="M471.4 455.06c-1.52 10.06-9.19 13.17-19.24 11.65s-16.59-13.08-15.08-23.13 10.23-13.24 20.29-11.72 15.54 13.14 14.03 23.2z"/><path class="cls-9" d="M479.84 357.2l43.67-.46c23.52-1.57 44.09 13.55 45.35 37.09v1.19l-120.73 8.06s-15.24-42.74 31.71-45.88zM528.57 415.68s-.58 4.25 6.21 3.08a42.83 42.83 0 0 1 9.66-.93 4.58 4.58 0 0 0 4.07-2.22c.51-1.05-.3-2.45-.9-3.06-1.7-1.71-4.11-4.09-10.39-3.07-8.07 1.31-8.65 6.2-8.65 6.2zM511.09 417.83s1.63 5.26-7.56 5.16c-7-.08-15.48 1.32-19.5 2a6.19 6.19 0 0 1-5.82-2 2.48 2.48 0 0 1 .53-3.6c2.47-2 11.63-6.37 20.12-6.35 10.9.02 12.23 4.79 12.23 4.79z"/><path class="cls-2" d="M513.92 439.59s-11.68-14.31-30.35.81c0 0 12.28 13.17 30.35-.81z"/><g clip-path="url(#clip-path-2)"><path d="M507.28 437.89a7.37 7.37 0 1 1-9.11-5.06 7.37 7.37 0 0 1 9.11 5.06z"/></g><path class="cls-12" d="M483.57 440.4a30.41 30.41 0 0 1 9.64-5.76 19.22 19.22 0 0 1 9.51-1.17 17.4 17.4 0 0 1 11.2 6.12"/><path class="cls-2" d="M532.17 436.81s7.19-14.89 18.62-5.26c0 0-6.94 15.29-18.62 5.26z"/><g clip-path="url(#clip-path-3)"><path d="M536.21 433.83c-.5 3.94 1.28 7.41 4 7.75s5.29-2.57 5.78-6.51-1.28-7.4-4-7.74-5.28 2.57-5.78 6.5z"/></g><path class="cls-12" d="M550.79 431.55c-4.16-4.35-8.54-3.43-8.54-3.43-6.81 1.25-10.08 8.69-10.08 8.69"/><path stroke-miterlimit="10" stroke="#ae4a1f" stroke-width="2.01" fill="none" d="M530.1 447.33l5.17 6.35-3.45 4.38"/><path d="M509.7 464.06s6.58 7.28 20.16 1.28" stroke-width="1.51" stroke="#000" stroke-linecap="round" stroke-linejoin="round" fill="none"/><path class="cls-6" d="M1030.12 639.45l23.46 105.65a27.56 27.56 0 0 0 34.93 19.63 27.54 27.54 0 0 0 18.62-32.67l-24-113.95z"/><path d="M1049.22 769.08s32.18 325.49 31.37 409.13l-97 6.34-30.35-415.47z" fill="#020403"/><path d="M915.26 769.08C873 867.87 861 1178.21 861 1178.21l114.41 6.34 40.49-415.47z" fill="#1b1c20"/><path stroke="#ffebd8" stroke-width="1.52" stroke-miterlimit="10" fill="none" d="M994.59 1007.59l18.2-207.03"/><path class="cls-19" d="M1051.66 564.05c-1.12-.33 29.16 16.81 62 100l-55.44 43.14-27.81-80.17z"/><path class="cls-19" d="M984.79 543.77s-39.44 2.47-73.35 22.67a29.22 29.22 0 0 0-13.77 28.65l17.59 174h134L1074.32 623c1.93-12.25-.19-41.08-15-53.13-8.71-7.15-32.64-26.1-74.53-26.1z"/><path class="cls-6" d="M944.16 552a142.69 142.69 0 0 1 40.63-8.24c22.3-1 47.3 9.3 47.3 9.3L1008 584.18z"/><path d="M1060.35 705.4c.94-5.93 1.88-11.83 2.76-17.73s1.67-11.81 2.34-17.72l.5-4.44.41-4.44c.17-1.48.29-3 .38-4.45s.24-3 .33-4.45c.38-5.94.51-11.89.57-17.9a105.93 105.93 0 0 1 1.46 18 166.56 166.56 0 0 1-1.08 18c-.72 6-1.66 11.91-2.93 17.79a143.41 143.41 0 0 1-4.74 17.34z"/><path class="cls-20" d="M865.65 653.45S846.49 713.31 835.13 767a25.57 25.57 0 0 0 16.3 29.4 25.54 25.54 0 0 0 33.09-16.59l41.63-116.92z"/><path class="cls-19" d="M921.27 561.16s-51.92 12.66-83.83 120.6l83.27 29.74 22.14-81.91z"/><path d="M910.81 708c3.4.89 6.76 1.9 10.12 2.91l-.85.41q2.4-8.14 5-16.2t5.5-16.12c.93-2.67 1.9-5.32 2.88-8s2-5.29 3-7.94c2-5.27 4.12-10.53 6.41-15.72-1.4 5.5-3 10.92-4.65 16.33-.84 2.7-1.68 5.4-2.56 8.09s-1.75 5.37-2.66 8.05q-2.7 8-5.61 16t-6 15.86v.06a.63.63 0 0 1-.82.35c-3.33-1.3-6.57-2.65-9.76-4.08z"/><path class="cls-21" d="M1013.94 362.27s-48.31-25.43-80.69 16.05c-15.89 20.35-9.88 60.58-43.28 81.42 0 0 26.55 45.07 103.11 45 80.37-.06 91.83-42.19 91.83-42.19s-24.3-14.5-21.82-46.47c2.46-31.76-18.68-71.53-49.15-53.83"/><path class="cls-7" d="M1025.71 456.75c1.82 9.36 6.25 13 18.55 10.82 9.39-1.67 15-12.92 13.2-22.28s-9.4-11.73-19.16-8.9c-6.79 1.98-14.41 11-12.59 20.36z"/><path class="cls-6" d="M977.06 460.9l-11.22 93.38 43.32.37-2.23-83.38-29.87-10.37z"/><path class="cls-7" d="M1008.22 522.2c-18.41-5.19-34-37.57-34-37.57l32.75-7.18z"/><path class="cls-6" d="M978.2 374.52a74.06 74.06 0 0 1 33.55-1.29c15 3.06 34.1 9.17 36.26 35.7 3.59 44.2-2.19 77.28-24.84 87.29-17.38 7.68-30 4.72-49.79-6.52C966 485.52 959 473.32 957 464.85l-8.33-23.64S926 388.3 978.2 374.52z"/><path class="cls-21" d="M947.62 389.23s31.48 12.56 6.67 62.17l-30.44-28.58 12.32-15.32z"/><path class="cls-6" d="M963.18 458.77c-1.82 9.35-6.24 13-18.55 10.82-9.38-1.67-15-12.92-13.19-22.28s9.39-11.74 19.15-8.9c6.8 1.97 14.41 11 12.59 20.36z"/><path class="cls-22" d="M941.21 448.68S950 446.5 953.36 459"/><path class="cls-21" d="M939.28 401.32c1.66 1.14 82.56 8 117.89-2.65 0 0-4.73-35.63-64.48-32.2-45.76 2.63-53.41 34.85-53.41 34.85z"/><path class="cls-22" d="M1020.25 452.55q1.86 4.29 3.73 8.57l-5 1.95"/><path class="cls-2" d="M1004.67 441.51c-1-5.49-10.67-2.91-13.49-3-2.54-.1-10.7.6-12.2 3.55 1.67 6.64 8.61 8.48 14.44 8.77s12.25-3.83 11.25-9.32z"/><g clip-path="url(#clip-path-4)"><path class="cls-24" d="M984.24 444.68c.16 4.59 3.47 8.45 8.22 8.29s7.77-4.23 7.61-8.82-3.47-8.45-8.22-8.29-7.77 4.24-7.61 8.82z"/></g><path d="M1003.53 443.35A18 18 0 0 0 998 441a31.27 31.27 0 0 0-6.33-.91 29.53 29.53 0 0 0-6.46.21 13.06 13.06 0 0 0-5.8 2.3.8.8 0 0 1-1.11-.16.8.8 0 0 1 .09-1 15.16 15.16 0 0 1 6.27-3.5 33.22 33.22 0 0 1 7-1.14 34.09 34.09 0 0 1 7.13.12 22.49 22.49 0 0 1 7.25 2 2.54 2.54 0 0 1-2.25 4.55z"/><path class="cls-2" d="M1025.49 440.5c1.65-2.82 5.81-3 8.77-2.95 2.26 0 5.85.59 7.2 3-.5 4.58-3.47 7.74-8.27 8s-7.73-3.28-7.7-8.05z"/><g clip-path="url(#clip-path-5)"><path class="cls-24" d="M1038.21 444c-.29 3.3-2.24 7.42-6 7.08s-5-4.74-4.72-8 2.24-7.42 6-7.08 5.01 4.7 4.72 8z"/></g><path d="M1024.06 438.38a17.9 17.9 0 0 1 9.92-2.19 14.12 14.12 0 0 1 4.91 1.11 9.07 9.07 0 0 1 3.87 3.21.78.78 0 0 1-.22 1.1.8.8 0 0 1-1-.1 7 7 0 0 0-3.45-1.89 11.45 11.45 0 0 0-4-.12 15 15 0 0 0-3.9 1.06 12.14 12.14 0 0 0-3.24 2 2.55 2.55 0 1 1-3.37-3.83 2 2 0 0 1 .42-.3z"/><path class="cls-21" d="M990.63 410a32.11 32.11 0 0 0-11.12 5.91c-2.44 2.21-2.79 5.36 1.57 6.09 2.7.46 10.43-2.08 11.93-2.34 4.72-.83 15.3-6.22 13.07-10.15-3.08-5.57-10.65-.77-15.45.49zM1038 409.44a24.33 24.33 0 0 1 8.4 5.82c1.71 2.05 2.4 5.24-1.24 6.07-2.25.51-7.87-1.85-9.12-2.33-4.06-1.53-11.48-6.64-9.83-10.14 2.27-4.92 8.03-.77 11.79.58z"/><path d="M1028.66 469.65c-2 9.7-16.15 9.7-16.15-.36z" stroke-width="1.69" stroke="#000" stroke-linecap="round" stroke-linejoin="round" fill="none"/><path class="cls-27" d="M972.52 443.87a20 20 0 1 0 21.7-18.15 19.64 19.64 0 0 0-21.7 18.15zM1023.23 439.68c-1.77 9.81 2.44 20.73 13 22.65s18.33-6.82 20.1-16.63-2.44-20.73-13-22.65-18.33 6.82-20.1 16.63zM1022.75 444.38c-3.2-2.38-6.63-1.61-10 0M971.94 443.51l-15.07-3.27"/><path class="cls-6" d="M1067.25 721.38l85-127.6 15.9 17.22-56.4 133.83c-4.06 9.64-12.17 17.22-22.3 19.82-8.68 2.23-17.75.87-23.76-5.8a26.75 26.75 0 0 1 1.56-37.47z"/><path class="cls-28" d="M1086.52 692.45l-19.27 28.93"/><path class="cls-6" d="M1145.08 547.9c-1.46 1.29.27 3-.77 7-.61 2.42-4.1 8.37-4.2 9.14-.46 3.29.5 6.18 1.86 10.1s-.53 16.23 6.67 26.61c2.13 3.07-2.49 11.06-4.4 14.93l17.31 8.43s8.34-17.57 9.4-18.85c9.41-11.26 14.4-15.28 19.1-21.07 2.52-2.29 11.08-10.23 13.3-12 2.58-2.08 6.9-9.06 8.5-12.14 2-3.84 3.51-5.61 2.15-8.49-.83-1.76-4.18-.89-7.26 2.83s-5.35 7.19-7 9.3c-2 2.56-9.1 7.13-9.1 7.13 3-3.93 6.63-8.57 9.1-12a119 119 0 0 0 8.5-14.57c2.58-5.34 6.35-8.87 5.75-12.26-.27-1.51-3.23-2.78-6.1-.53s-6.47 11.16-14.07 20.69a81.18 81.18 0 0 1-7 7.13c2.68-3.9 5-5.56 6.23-8.27 2.13-4.61 5.16-10.42 7.22-16.35s3.57-6.55 2.13-9.79c-.69-1.54-4-1.71-6.47 2-2.65 4-4.48 12.52-8.83 18.37-2.36 3.18-6 5.67-8.18 8.46-1.59-4.34-4.3-10.63-7-11.73-2.25-.92-6.47-3-9.87-4.49-2.06-.9-4.26-.95-5.45 0-3.62 3-9.1 6.69-10.53 9.86-.07.15.11.24.3.59-1.03-.56-.92-.36-1.29-.03zm5.21 3.93a.49.49 0 0 0 .17 0c2.23-.17 8.14-5.55 8.14-5.55l7.49 3.52s2.12 6.13 1.51 7.87c-.45 1.27-2.23 8.71-7.51 10.74-2.25.86-8 1.78-9.59-.77s2.36-10.55.82-13.94a13.9 13.9 0 0 0-1.03-1.87z"/><path class="cls-20" d="M882.38 764.24l64.07 86.29-15.17 25.78-85.93-78c-7.71-7.06-12.13-17.25-11.16-27.66.82-8.93 5.15-17 13.45-20.43a26.77 26.77 0 0 1 34.74 14.02z"/><path class="cls-28" d="M903.13 792.12l-20.75-27.88"/><path transform="rotate(-54.96 938.113 855.458)" fill="#9397a0" d="M903.7 847.09h68.83v16.74H903.7z"/><path class="cls-30" d="M592.42 957.3l.13 244.24h120.83l9.28-244.24H592.42zM854.76 957.3l-.13 244.24H733.8l-9.28-244.24h130.24z"/><path class="cls-30" d="M663.84 957.3h124.93v84.85H663.84z"/><path class="cls-6" d="M931.09 744.16c7.5 82.76-.41 143.06 1.78 295.35l-72.12 3L850 757.47z"/><path class="cls-7" d="M858.9 808.74s44.66-4.09 75.19-24.23l-.8-17.72-74.41 10.13z"/><path class="cls-31" d="M787.26 553.61s141.85 35.67 167.55 215.72c0 0-69.43 30.1-139 17.15l15.65-60.22z"/><path class="cls-6" d="M363.55 628.47l105.62 124.74-32.32 91s-80.27-111.6-116.35-197.86z"/><path class="cls-6" d="M367 633s-37.08 20.95-46.52 13.37c-16.48-13.25-30.1-61.73-30.1-61.73s69.35-26.15 68.7-25.13S367 633 367 633z"/><path class="cls-6" d="M367 633c-.65-3.74 13.76-44 18.7-59.12a6.66 6.66 0 0 0-5.28-8.39c-2.57-.5-6.65-.18-8.58 3.51l-17.39 29.73z"/><path class="cls-6" d="M365.75 589.43L353.81 530a7.49 7.49 0 0 0-8.65-5.93 6.44 6.44 0 0 0-5.28 7.15l5.2 44.24zM342 567.52l-16.22-42.43a7.43 7.43 0 0 0-9.21-4.54 6.41 6.41 0 0 0-4.24 7.61l12 49zM324.57 580l-20.52-41.69a8.16 8.16 0 0 0-10.41-4 7.1 7.1 0 0 0-3.67 9.39l16.36 39.36zM290.4 584.62l-16.11-25.54a5.77 5.77 0 0 1 2.82-7.71 6.59 6.59 0 0 1 8 2.34l21.18 29.38zM415.43 801.65s19.86 68.75 59.45 59.61 101.28-93.69 101.28-93.69l-13.81-144.36L451.25 760z"/><path class="cls-7" d="M485.71 717.48s37.51 56.58 69.51 76.53l20.94-26.44-80.8-62.5z"/><path class="cls-31" d="M649.82 550.49S539.69 575.31 481 703.3c0 0 35.46 53.43 92.3 77.18l38.06-46.63z"/><path class="cls-31" d="M649.82 550.09c-43 22.07-70.06 51.33-70.06 51.33l8.48 374.14h271.1l-.87-372.21s-34.18-33.44-71.21-49.74c-31.46-13.85-106.86-19.2-137.44-3.52z"/><path class="cls-32" d="M740.4 657h75.42v37.71a37.71 37.71 0 0 1-37.72 37.69 37.71 37.71 0 0 1-37.71-37.71V657h.01zM858.9 787.87l3.52-122.39M583.92 767.48l-5.86-106.1"/><path class="cls-5" d="M653 413.44l-11.3-55.91c-.64-4.55-2.41-11.58-.24-18.18 3.58-10.93 16.73-31.91 39.22-22.3l4.86 22.13s-23.35 4.72-32.72 35.26z"/><path class="cls-5" d="M679 328.59c-.41 7.34-6.89 39.49-29.69 51.2.02 0-19.94-42.79 29.69-51.2z"/><path class="cls-20" d="M759 539.8v-94.94h-87.53v94.94l-26.05 11.87s6.11 39.35 70.73 40.22 71.11-38.28 71.11-38.28z"/><path class="cls-5" d="M680.68 317.05s16.06-42.37 65.59-19.85c30 13.64 38.37 31.92 41.94 44.87a52 52 0 0 1 1.34 15.1l-12 56.27-46.75-77.85-45.26 3.59z"/><path class="cls-20" d="M777.57 413.44s5.9-9.38 18.07-4.77 6.66 34.17-11.59 37.94c0 0-6.54 1.42-11.68-3.06 0 0 4.49-21.83 5.2-30.11z"/><path class="cls-33" d="M793.23 419.1s-10.2-3.4-17.43 11.61"/><path class="cls-20" d="M653 413.44s-5.9-9.38-18.07-4.77-6.67 34.17 11.59 37.94c0 0 6.54 1.42 11.67-3.06 0 0-4.49-21.83-5.19-30.11z"/><path class="cls-33" d="M637.34 419.1s10.2-3.4 17.43 11.61"/><path class="cls-20" d="M778.79 385.39c0 17.82-1.74 55.1-12.7 77.22-10.28 20.77-27.29 31.95-49.59 32.62s-38.91-7.93-52.22-34.89-12.68-74.61-12.68-74.61 0-63.65 62.9-63.65c66.26 0 64.29 63.31 64.29 63.31z"/><path d="M672.13 473.63s7.33 37.18 39.69 41.46C749.07 520 759 474.57 759 474.57s-16.46 20.62-42.49 20.66c-29.04.03-44.38-21.6-44.38-21.6z" fill="#c46234"/><path class="cls-32" d="M710.71 411.82v14.73a4.83 4.83 0 0 0 .34 1.79 4.75 4.75 0 0 0 5.66 2.63l4.88-1.3"/><path class="cls-5" d="M725.44 376.3l38.5 9.94s-1.75-10.8-17.5-14.72-21 4.78-21 4.78zM701.51 376.3L663 386.24s1.75-10.8 17.5-14.72 21.01 4.78 21.01 4.78z"/><path class="cls-32" d="M693.85 441.39s5.68 4.35 20.62 4.35c13.58 0 22.07-4.35 22.07-4.35"/><circle class="cls-35" cx="684.86" cy="406.46" r="24.33"/><circle class="cls-35" cx="744.64" cy="406.46" r="24.33"/><path class="cls-35" d="M709.2 406.46s5.76-5.38 11.11 0M660.53 406.46l-8.16-.21M768.97 406.46l9.11-.15"/><path class="cls-2" d="M703.64 407.89s-11.36-18.59-35.57-3.89c0 0 12.23 17.32 35.57 3.89z"/><g clip-path="url(#clip-path-6)"><path d="M694.94 404.84a8.68 8.68 0 1 1-9.82-7.37 8.68 8.68 0 0 1 9.82 7.37z"/></g><path d="M667.38 403a35.9 35.9 0 0 1 9.42-4.19 28.19 28.19 0 0 1 10.17-1.2 21.82 21.82 0 0 1 9.64 3.19 20.06 20.06 0 0 1 7 7.12 19.83 19.83 0 0 0-7.33-6.59 21 21 0 0 0-9.4-2.51 26.84 26.84 0 0 0-9.56 1.72 33.77 33.77 0 0 0-8.6 4.46 1.21 1.21 0 1 1-1.43-2z"/><path class="cls-2" d="M763.4 408.87s-12.4-17.87-35.74-1.8c0 0 13.24 16.59 35.74 1.8z"/><g clip-path="url(#clip-path-7)"><path d="M754.54 406.34a8.69 8.69 0 1 1-10.25-6.77 8.69 8.69 0 0 1 10.25 6.77z"/></g><path d="M726.92 406.11a35.54 35.54 0 0 1 9.15-4.74 28.18 28.18 0 0 1 10.09-1.8 21.85 21.85 0 0 1 9.81 2.62 20.09 20.09 0 0 1 7.43 6.68 19.77 19.77 0 0 0-7.7-6.14 21.08 21.08 0 0 0-9.54-2 26.79 26.79 0 0 0-9.44 2.29 33.58 33.58 0 0 0-8.32 5 1.21 1.21 0 1 1-1.54-1.87z"/><path class="cls-5" d="M672.13 330s11.69 33.2 64.42 32.18c35.82-.69 44.39 25.24 44.39 25.24s-6.24-58-7.88-57.42-54.52-14.11-54.52-14.11z"/></g></svg>