<svg id="Layer_1" data-name="Layer 1" xmlns="http://www.w3.org/2000/svg" viewBox="0 0 1456.08 1021.32"><defs><style>.cls-38{fill:#e8e8e7}.cls-2,.cls-40{fill:#fff}.cls-3{fill:#a7d1d0}.cls-5{fill:#e4464e}.cls-7{fill:#b3b3b3}.cls-20,.cls-49{fill:none}.cls-49{stroke-miterlimit:10}.cls-12{fill:#eca179}.cls-13{fill:#aa664b}.cls-17{fill:#5f3335}.cls-20{stroke:#ca5e34;stroke-linecap:round;stroke-linejoin:round;stroke-width:3.57px}.cls-22{fill:#1b1c20}.cls-23{fill:#604538}.cls-27{fill:#e65a0e}.cls-30{fill:#63933f}.cls-31{fill:#7bab42}.cls-32{fill:#ffab36}.cls-33{fill:#ff8d14}.cls-35{fill:#44b05a}.cls-36{fill:#4db862}.cls-37{fill:#534741}.cls-40{font-size:44.23px;letter-spacing:.01em;font-family:Shnobel-Regular,Shnobel}.cls-42{letter-spacing:.03em}.cls-44{letter-spacing:0}.cls-49{stroke:#4d4d4d;stroke-width:2.49px}</style><clipPath id="clip-path"><path clip-rule="evenodd" fill="#e8e8e7" d="M1098.34 579.32l-716.62.16-.07-334.59 718.12-.14-1.43 334.57z"/></clipPath><clipPath id="clip-path-2"><path class="cls-2" d="M740 326.73s9.24-11.46 24.18.5c.01 0-9.71 10.55-24.18-.5z"/></clipPath><clipPath id="clip-path-3"><path class="cls-2" d="M723.52 324.42s-5.8-11.83-14.86-4.1c0 0 5.6 12.14 14.86 4.1z"/></clipPath></defs><path class="cls-3" d="M1364.18 325.62a152 152 0 0 0-46-61.22 145.5 145.5 0 0 0-69.18-30.14c-2.42-.25-4.84-.46-7.25-.66a160.55 160.55 0 0 0-1.27-24.57 153.83 153.83 0 0 0-29.72-73 149.69 149.69 0 0 0-59.16-46.93 142.52 142.52 0 0 0-76-10.86 215.13 215.13 0 0 0-44.6 5.11q-7.37 1.56-14.68 3.32a151.3 151.3 0 0 0-32.65-35.84 142.66 142.66 0 0 0-40.75-24.5c-14.91-5.66-31.52-11.59-47.82-12.9-14.25-1.15-29.05-.58-43.32-.48-2 0-4.08 0-6.12.18a120.82 120.82 0 0 0-13 1.68c-20.76 3.7-41.3 9.29-61.66 14.68-60.34 16-120 33.82-179.4 52.94-46.91 15.1-93.87 29.75-139.78 47.83-45.3 17.84-89.85 37.59-134.56 56.91-22.42 9.68-44.76 19.63-66.47 30.89-22 11.4-43.19 24.4-64.29 37.39a337.57 337.57 0 0 0-30.5 21.07 112 112 0 0 0-35.74 43.91 115 115 0 0 0-19.35 54.34 117.72 117.72 0 0 0 5.21 60.07 114.87 114.87 0 0 0 24.52 53.44l.29.3q-10.57 11.34-20.93 22.89a152.08 152.08 0 0 0-28.74 71 156.73 156.73 0 0 0 10.44 79.64 152 152 0 0 0 46 61.21 145.46 145.46 0 0 0 69.16 30.14c9.77.65 26.86.95 37.94.52a115.92 115.92 0 0 0 13.89 27.41 76.08 76.08 0 0 0 23 30.61 112.17 112.17 0 0 0 45.82 33.25l36.69 10.56a143.29 143.29 0 0 0 55.18-2.7V876a116.66 116.66 0 0 0 20.06 56.08 76 76 0 0 0 23 30.61 112 112 0 0 0 45.81 33.25l36.7 10.57a143.36 143.36 0 0 0 77.27-10.1c53.81-27.66 105.54-59.24 158.15-89.18q1.58 2.49 3.37 4.88a113.57 113.57 0 0 0 36.35 44.28L852.61 976l36.7 10.57a108 108 0 0 0 58.3-4.9 106.8 106.8 0 0 0 51.71-24.84c37.1-24.58 68.7-56.74 100.45-88 15-14.79 30.25-29.34 46-43.28 15.28-13.49 30.76-26.75 45.42-41 16.74-16.23 33.26-32.87 48.53-50.59a224.18 224.18 0 0 0 20.67-27.88 152 152 0 0 0 28.74-71 117.83 117.83 0 0 0-5.21-60.07 114.68 114.68 0 0 0-10.67-32.19 274.8 274.8 0 0 0 25-17.25 133.33 133.33 0 0 0 12.44-11.09c10.4-10.53 21.49-20.78 30.87-32.35a63.63 63.63 0 0 0 4.26-5.94 152.08 152.08 0 0 0 28.74-71 156.46 156.46 0 0 0-10.38-79.57z"/><rect class="cls-2" x="313.1" y="150.78" width="859.15" height="70.35" rx="9.94"/><path class="cls-2" transform="rotate(89.91 743.046 526.212)" d="M400.01 96.57h686.06v859.26H400.01z"/><path transform="rotate(.38 739.289 596.143)" fill="#98989c" d="M382.28 595.27h720.4v8.7h-720.4z"/><path class="cls-5" transform="rotate(.38 564.381 595.215)" d="M382.29 594.12h369.49v8.7H382.29z"/><path transform="rotate(.38 737.876 624.796)" fill="#1a2e59" d="M382.09 603.97h720.4v48.67h-720.4z"/><path class="cls-7" transform="rotate(.38 738.04 674.552)" d="M382.25 676.65h720.4v2.11h-720.4z"/><path class="cls-5" d="M408.68 607.53l-.24 37.16 31.91-18.37-31.67-18.79zM920.5 636.26v-16.72h-7.19a.55.55 0 0 0-.46.24.57.57 0 0 0-.1.31v15.62a.6.6 0 0 0 .06.27.27.27 0 0 0 .07.08.55.55 0 0 0 .39.16zM939.46 633.79a1.87 1.87 0 0 0-.07-.22 2.66 2.66 0 0 0-.47-.78l-.13-.13a3 3 0 0 0-.61-.47 1.88 1.88 0 0 0 .67-1.67V630.07v-.16a2.85 2.85 0 0 0-.16-.43 1.92 1.92 0 0 0-.39-.57 2.83 2.83 0 0 0-1-.63 2.79 2.79 0 0 0 1-2.48 3.11 3.11 0 0 0-.11-.58 1.53 1.53 0 0 0-.29-.6l-.17-.18a2.63 2.63 0 0 0-.85-.54l.13-.08.08-.06a1.78 1.78 0 0 0 .26-.22l.07-.08a.69.69 0 0 0 .11-.13l.07-.1.05-.1a1.69 1.69 0 0 0 .18-1 2.56 2.56 0 0 0 0-.27 2 2 0 0 0-.07-.31l-.06-.15v-.07l-.07-.14a2.2 2.2 0 0 0-.17-.25l-.15-.17a1.29 1.29 0 0 0-.17-.16l-.06-.05-.13-.1-.27-.17-.22-.11a3.71 3.71 0 0 0-.55-.22l-.33-.1a4.05 4.05 0 0 0-.5-.12h-.17l-.5-.08H922v16.73a4.68 4.68 0 0 1 2.07.58 6.79 6.79 0 0 1 .88.53 20.83 20.83 0 0 1 2.4 2.36 10.57 10.57 0 0 1 2.29 5.41c.14.54.34.84.86.78 1.45-.16 3.67-2.47.62-9.53.55 0 1.29.08 2.1.11h2.5a8.1 8.1 0 0 0 2.76-.41 1.61 1.61 0 0 0 .48-.34l.09-.1a1.59 1.59 0 0 0 .18-.27l.06-.12a2.25 2.25 0 0 0 .17-1.6z"/><path class="cls-3" d="M1011.59 624.48v16.73l-7.2-.05a.54.54 0 0 1-.45-.23.58.58 0 0 1-.1-.32v-15.62a.53.53 0 0 1 .07-.26v-.05l.06-.08a.58.58 0 0 1 .4-.16zM1030.54 627a1.87 1.87 0 0 1-.07.22 2.36 2.36 0 0 1-.47.78l-.12.13a3 3 0 0 1-.61.47 1.92 1.92 0 0 1 .66 1.68V630.57a.83.83 0 0 1 0 .15v.16c0 .05-.1.28-.16.43a2.14 2.14 0 0 1-.4.58 2.91 2.91 0 0 1-1 .62 2.8 2.8 0 0 1 1 2.48 4.15 4.15 0 0 1-.1.58 1.81 1.81 0 0 1-.29.61.93.93 0 0 1-.16.18 2.7 2.7 0 0 1-.86.55.57.57 0 0 1 .13.08l.09.06a1.64 1.64 0 0 1 .25.21l.08.08.11.13.06.1.06.11a1.73 1.73 0 0 1 .17 1v.28c0 .1-.05.19-.08.3a.88.88 0 0 1 0 .15v.07c0 .05 0 .09-.07.14a2.2 2.2 0 0 1-.17.25l-.16.18-.17.16h-.06l-.12.1a2.61 2.61 0 0 1-.28.17l-.22.12c-.17.08-.35.15-.54.22l-.33.1-.51.11h-.16l-.5.07h-1.04a9.09 9.09 0 0 1-.94 0h-10.12v-16.74a4.72 4.72 0 0 0 2.07-.58 7.07 7.07 0 0 0 .87-.53 20.06 20.06 0 0 0 2.41-2.36 10.57 10.57 0 0 0 2.29-5.41c.15-.55.35-.85.86-.79 1.45.17 3.67 2.47.63 9.54.54 0 1.28-.09 2.09-.12h2.51a8.35 8.35 0 0 1 2.76.41 1.62 1.62 0 0 1 .47.34v.05a.39.39 0 0 1 .08.1 1.67 1.67 0 0 1 .18.28l.06.12a2.16 2.16 0 0 1-.18 1.59z"/><path d="M487.68 620.14a7.66 7.66 0 0 1 .36 13" stroke-width="2.24" stroke-miterlimit="10" stroke="#e4464e" fill="none"/><path d="M489.63 613.67a15.31 15.31 0 0 1 .73 26" stroke-width="4.48" stroke-miterlimit="10" stroke="#e4464e" fill="none"/><path class="cls-5" d="M482.24 608.17l-.24 36.84-12.1-10.6-9.87-.07.1-15.13 11.02.07 11.09-11.11z"/><path fill-rule="evenodd" fill="#e8e8e7" d="M1098.34 579.32l-716.62.16-.07-334.59 718.12-.14-1.43 334.57z"/><g clip-path="url(#clip-path)"><path class="cls-12" d="M721.11 818.06l34.45 202.85 26.04-.69-12.53-206.41-47.96 4.25z"/><path class="cls-13" d="M749.75 1019.86s-35.12 5.58-51.52 14.75c-6 3.35-2.76 10.38-.91 11.84 4.27 3.35 73 4.08 88.71 2.8 5.51-.44-.44-22.5-7-29z"/><path class="cls-12" d="M675.32 868.52l17.32 138.78 25.27-4.31-2.26-148.75-40.33 14.28z"/><path class="cls-13" d="M689.25 1008.89s-33.08 13.05-47.11 25.55c-5.12 4.56-.45 10.73 1.67 11.75 4.9 2.36 72.2-11.81 87.22-16.45 5.28-1.63-5.3-21.87-13.12-26.76z"/><path d="M689.75 995.41s-32.68 22.64-46.71 35.15c-5.12 4.56-2.84 10.89-2.84 10.89 4.89 2.36 76.54-13.83 91.56-18.46 0 0-.68-14.87-14.67-32.62l-.67 8.34-21.7 4.46z" fill="#cc7e60"/><path d="M651.13 564.9S640 688.32 677.71 985.63l44.71-3.52 10.42-452.51z" fill="#003359"/><path d="M775.33 548.22c34.56 99.26 8.81 215.06 11 266.2 3.1 71.77-2.44 181.3-2.44 181.3l-45.4 4.51-25.6-186.35-25.54-268.8z" fill="#003b71"/><path class="cls-12" d="M684.64 472.31l-34.8 54.33c-4.54 11.36-17.84 17.7-29.17 13.87-10.32-3.51-15.21-14.32-11.19-24.75l36.65-77.21z"/><path class="cls-13" d="M707 391.74c-42.37 1.05-63 35.48-80 77.51l40.1 31.67 28.22-63.83 17.24-39.67c.44-4.59 1.76-5.87-5.56-5.68z"/><path class="cls-13" d="M808.18 394.91c6.35 6.15 14.85 29.52 13.55 38.71l-20.38 183.57L642.2 597.5s13.61-180.42 52.65-202.59c12.24-6.91 102.71-10.27 113.33 0z"/><path class="cls-12" d="M835.92 472.19l-5.6 91.21c-1.77 12.18-12.89 19.34-24.32 15.67-10.45-3.36-17.4-14.63-15.9-25.8l1-85.32z"/><path class="cls-13" d="M808.18 394.91s37.27 13.31 31.85 95l-53.46-1.47 8-67.89z"/><path d="M794.14 488.92c-2.54.1-5.07.11-7.6.11a.53.53 0 0 1-.52-.51v-.06c0-4.56.1-9.12.29-13.68.07-2.28.18-4.55.3-6.83s.24-4.55.39-6.83.29-4.55.48-6.82.37-4.55.58-6.82c.44-4.54.92-9.08 1.6-13.61.17 4.58.13 9.14.06 13.71-.05 2.28-.1 4.56-.19 6.83s-.17 4.56-.3 6.84-.22 4.55-.38 6.83-.28 4.55-.47 6.82c-.33 4.55-.77 9.09-1.26 13.63l-.52-.58c2.51.29 5.03.58 7.54.97z"/><path class="cls-17" d="M719.66 278.52s-34.15 4.92-4.07 46.92l9.79-36.74z"/><path d="M722.45 338.56c-2.13 7.26-5.89 9.82-15.46 7.19-7.3-2-10.93-11.32-8.8-18.58s8.29-8.59 15.8-5.64c5.23 2.06 10.59 9.76 8.46 17.03z" fill="#c96e3d"/><path class="cls-12" d="M762.51 344.7l3.58 46.35a26.48 26.48 0 0 1-19 27.44l-6.59 1.92a15.55 15.55 0 0 1-18.5-8.52l7.88-65.77z"/><path d="M725.13 386.3c26.91 3.85 38-23.16 38-23.16L729.39 351z" fill="#c46234"/><path class="cls-12" d="M766.06 277a58.81 58.81 0 0 0-26.44-3.48c-12 1.32-27.64 4.75-31.29 25.56-6.08 34.69-3.94 61.28 13.23 70.85 13.19 7.35 23.35 5.93 39.85-1.5 6.14-2.77 12.62-11.9 14.76-18.45l8.32-18.08s21.87-40.15-18.43-54.9z"/><path class="cls-17" d="M789.15 290.89s-34.16 4.92-4.07 46.92l9.78-36.74z"/><path class="cls-12" d="M771.75 344.74c.75 7.53 4 10.74 13.87 9.91 7.55-.63 12.83-9.11 12.07-16.64s-6.57-10-14.49-8.45c-5.52 1.06-12.2 7.64-11.45 15.18z"/><path class="cls-20" d="M789.86 338.37s-6.77-2.36-10.36 7.23"/><path class="cls-17" d="M794.86 301.07c-.56.31-43.56-2.65-63.39-6-6.61-1.12 13-9.56 5.93-9.09-19.66 1.32-29.31-3-30.32-12-.63-5.57 6.88-9.63 13.1-11.73 6.69-2.26 19.3-1.19 43.28 2.43 35.98 5.43 31.4 36.39 31.4 36.39zM724.2 304.83s1.11 3.23-4.37 3.38a33.55 33.55 0 0 0-7.69.78 3.64 3.64 0 0 1-3.53-1.1 2.44 2.44 0 0 1 .23-2.53c1.06-1.6.8-3.47 5.86-3.66 6.51-.24 9.5 3.13 9.5 3.13zM743.71 305.35s-2.7 3.47 4.19 6a97.61 97.61 0 0 1 14 6.95 4.92 4.92 0 0 0 4.9.15 2 2 0 0 0 .62-2.84c-1.29-2.15-6.89-8-13.22-10.37-8.2-3.07-10.49.11-10.49.11z"/><path class="cls-2" d="M740 326.73s9.24-11.46 24.18.5c.01 0-9.71 10.55-24.18-.5z"/><g clip-path="url(#clip-path-2)"><path class="cls-22" d="M749.55 325.44a5.87 5.87 0 1 0 7.23-4.07 5.86 5.86 0 0 0-7.23 4.07z"/></g><path class="cls-23" d="M763.23 328.31a21.86 21.86 0 0 0-5.16-3.78 17.57 17.57 0 0 0-6.07-2.11 13.92 13.92 0 0 0-6.44.69 13.33 13.33 0 0 0-5.55 3.62 13.6 13.6 0 0 1 5.28-4.29 15 15 0 0 1 6.82-1.47 19.53 19.53 0 0 1 6.88 1.59 24.56 24.56 0 0 1 6.17 3.59 1.45 1.45 0 1 1-1.81 2.27.63.63 0 0 1-.12-.11z"/><path class="cls-2" d="M723.52 324.42s-5.8-11.83-14.86-4.1c0 0 5.6 12.14 14.86 4.1z"/><g clip-path="url(#clip-path-3)"><path class="cls-22" d="M722.38 322.17c.42 3.14-1 5.91-3.13 6.19s-4.22-2-4.64-5.15 1-5.91 3.13-6.19 4.26 1.98 4.64 5.15z"/></g><path class="cls-23" d="M707.61 319.32a10.39 10.39 0 0 1 4.59-2.53 8.08 8.08 0 0 1 2.64-.21 6.38 6.38 0 0 1 .69.1l.63.19a8.35 8.35 0 0 1 1.17.46 11.14 11.14 0 0 1 3.8 3 15.11 15.11 0 0 1 2.39 4.05 15 15 0 0 0-2.91-3.55 10.14 10.14 0 0 0-3.8-2.19 7.56 7.56 0 0 0-1-.23 3.62 3.62 0 0 0-1-.06 6.56 6.56 0 0 0-1.94.47 8 8 0 0 0-3.13 2.45 1.45 1.45 0 1 1-2.27-1.82.71.71 0 0 1 .15-.15z"/><path class="cls-20" d="M725.49 345.11l-4.96-3.05 5.74-12.75M730.07 351.75a9.24 9.24 0 0 1-11.65 1.06"/><path d="M753.16 1006.8s-36.81 15-53.21 24.21c-6 3.35-5.14 10-5.14 10 4.28 3.36 77.73 3 93.39 1.78 0 0 2.56-14.67-7.27-35l-2.45 8-22.15-.33z" fill="#de8d68"/><path class="cls-12" d="M618.78 540.38l-90.38-21.86 4.87-15.82 90.85-2.47a22.37 22.37 0 0 1 19 10.46c3.62 5.75 4.87 12.89 1.75 19.39-5.12 10.55-16.7 15.13-26.09 10.3z"/><path d="M491.14 505.92A40.78 40.78 0 0 1 480 491a4 4 0 0 1-.36-3.27 2.55 2.55 0 0 1 2.44-1.3 4.06 4.06 0 0 1 2.57 1.29 2 2 0 0 1 2.61.28 7 7 0 0 1 1.35 2.55 19.92 19.92 0 0 0 6.53 8.66 7.17 7.17 0 0 0 2.26 1.25 7.38 7.38 0 0 0 3.07.05c2.91-.43 5.8-1.44 8.71-1a17.57 17.57 0 0 1 4.81 1.74 2.43 2.43 0 0 1 1.81 2.52 16.85 16.85 0 0 1-.07 5.67A3.37 3.37 0 0 1 515 511a4 4 0 0 1-1.11.73 19.78 19.78 0 0 1-17.69-.43z" fill="#dc835e"/><path class="cls-27" d="M514.14 553c-.67-8.8-7.28-18.1-16.25-19.86a5.49 5.49 0 0 1-.22 1.53 107.29 107.29 0 0 0-18.48-5.52 97.66 97.66 0 0 0-10.19-1.46 38.85 38.85 0 0 0-10-.07c-.26 0-.55.39-.68.73a30.91 30.91 0 0 0-18 18.28c-3.26 9.21-.83 19.16 5.17 26.66 12.57 15.71 39.23 17.68 55.33 6.62 8.7-5.91 14.12-16.35 13.32-26.91z"/><path d="M499.36 534.25a22.14 22.14 0 0 0-4.59-4.82 23.93 23.93 0 0 0 4.37-2.41c.86-.6 1.15-2.3-.18-2.46-3.22-.38-8.73.52-8.75-4A24.6 24.6 0 0 1 491 516c.17-.93 1-3.79.4-4.59s-3.67-1.51-4.55-1.59a4.49 4.49 0 0 0-4.16 1.9c-1.92 2.63-.77 8.19-4.06 9.77-3 1.42-6.3 1-9.5 1.35a43.32 43.32 0 0 0-11.17 3c-1 .42-2.51 2.87-.67 3.29a90 90 0 0 0 19.29 2.07 20.22 20.22 0 0 0 3.92 15c1 1.3 2.68-.33 2.71-1.52q.11-3.18.47-6.35c.14-1.2.33-2.41.58-3.6.08-.37 2.2.76 2.36.83a18 18 0 0 0 11.44 1.12c.94-.1 1.94-1.55 1.3-2.43z" fill="#45a153"/><path class="cls-27" d="M528.3 473.11a22.56 22.56 0 0 0-6.24-7 .57.57 0 0 1-.31.11h-1.38a.72.72 0 0 0-.14-.36c-1-1.34-2.73-2-4.18-2.68a50.89 50.89 0 0 0-5.74-2.3 37.85 37.85 0 0 0-5.71-1.52c-1.07-.19-2.23-.42-3.37-.51a6.61 6.61 0 0 0-.63-.77 19 19 0 0 0-8.55.45 22 22 0 0 0-9.18 5.53c-6.34 6.51-7.1 16.52-3.64 24.62 3.86 9 13.25 14.3 22.73 15.28a28.5 28.5 0 0 0 24.72-9.72 18.61 18.61 0 0 0 1.62-21.13z"/><path d="M524.86 463.51a15.42 15.42 0 0 0-9.72-4.29c.12-.25.23-.5.36-.74l2.51-5a1.19 1.19 0 0 0 0-1.28c-1.73-1.87-4.75-2.47-5.6-1.79-.68.54-2.53 5.3-3.93 8.71A19.07 19.07 0 0 0 498 452.3c-1-.25-2.7 1-1.9 2s1.69 2.25 2.54 3.37c.37.48 2.52 2.61 1.72 3.09a17.65 17.65 0 0 0-5.31 4.72c-.72 1-2.26 3.15-.69 4.14a2.43 2.43 0 0 0 2.21-.11l4-1.81c.74-.33 3.44-2.08 4.21-1.33s-.41 2.25-.68 2.85c-.61 1.3-1.07 3.26.23 4.33 1.47 1.21 3.47.63 4.8-.5a6.52 6.52 0 0 0 1.8-3.59 9.58 9.58 0 0 0 3.91 3.68 1.89 1.89 0 0 0 2.53-1.66v-3.77a11.52 11.52 0 0 0 7-2.21c.5-.33 1.07-1.43.49-1.99z" fill="#42ab57"/><path class="cls-27" d="M475.34 487.7a30.71 30.71 0 0 1-2-4.86 26.17 26.17 0 0 1-.55-5.14c0-.86-1-.35-1.17.18-1.13 3.58-.34 8.48 2.17 11.32.75.86 1.92-.71 1.55-1.5zM536.34 478.65c-.21-.76-1.14-.11-1.24.38-.39 1.91-.47 3.88-.87 5.8a42.69 42.69 0 0 1-2.23 6.77c-.5 1.27 1 1.46 1.6.53 2.26-3.6 3.95-9.25 2.74-13.48z"/><path class="cls-30" d="M515.34 567.78c-.22 1.13.38 2.42.66 3.49l.07.27a6.79 6.79 0 0 1-.75-.41 3.87 3.87 0 0 0-1.75-.52 2.06 2.06 0 0 0-2 1.63c-.29 1.14.82 2.06 1.62 2.63a2.18 2.18 0 0 1 .6.61c.09.15-.74.71-.83.83a2.37 2.37 0 0 0-.57 1.48 2.29 2.29 0 0 0 2 2.41c1.43.2 2.57-.76 3.81-1.28.32-.14 2-.28 1.55.51a3 3 0 0 0-.42 2 2.53 2.53 0 0 0 2.55 2.14 3 3 0 0 0 1.82-.84c.58-.52 1-1.35 1.79-1.53.46-.11.72 1.07 1 1.39a1.53 1.53 0 0 0 1.66.51 5.48 5.48 0 0 0 1.65-1l2.44-1.87a1.07 1.07 0 0 0 .18-.19 38.84 38.84 0 0 0 7.56 3.23 11.88 11.88 0 0 1-5.33-.85 3.19 3.19 0 0 0-4 1.44 3.34 3.34 0 0 0-.29 2.18c0 .39.16.56-.33.54a3.36 3.36 0 0 1-1.38-.73c-1.16-.79-3.29-1.52-4.17.12a2.27 2.27 0 0 0 0 2.12c.15.37 1.2 1.3.81 1.58-1 .71-3 1.19-2.48 2.92s2 2.25 3.63 1.8c.44-.12.84-.3 1.29-.38s-.1.73-.21.9c-.61.93-1.27 1.83-1.9 2.75a1 1 0 0 0 .37 1.37c1.69.82 3.38.09 4.71-1a31.16 31.16 0 0 0 2.34-2.4l1-1.11c.22-.22 1.16-1.43 1.33-.47s-.58 1.75-.47 2.64a2.2 2.2 0 0 0 1 1.82c1.47.59 2.81-.47 3.46-1.76.78-1.56.72-3.33 1.26-5a1.64 1.64 0 0 1 .69-.92c.55-.3 1 .7 1.19 1a2.23 2.23 0 0 0 1.67 1.1c1.64 0 1.67-2.15 1.49-3.33a6.85 6.85 0 0 0-.92-2.38c-.65-1.12.21-1.9 1.1-2.5l.4.07a43.49 43.49 0 0 0 12 .61c4-.38 8.56-1.7 11.56-4.5.49-.46 0-1.69-.72-1.35-1.84.89-3.6 1.93-5.52 2.66a23.53 23.53 0 0 1-5.91 1.32 34.1 34.1 0 0 1-5.05.15 15 15 0 0 1-3.29-2.26c-1.47-1.5-2.85-3.8-1.79-6.25.5-1.15 1.59-1.86 2.16-2.95s-.34-2-1.25-2.5a4.3 4.3 0 0 0-1.57-.45 6.47 6.47 0 0 0-.88 0h-.5c.34-.46 1-.66 1.2-1.26a2.25 2.25 0 0 0-1.85-3.09 3.12 3.12 0 0 0-1.45.19 3.25 3.25 0 0 0-.67.34c-.39.24-.5.46-.39-.1.2-1 1-1.81.93-2.93s-1.46-1.26-2.35-1.07a4.56 4.56 0 0 0-2.59 1.67 4.29 4.29 0 0 0-.66 1.36c-.06.17.15.3-.15 0s-.34-.37-.52-.54a1.37 1.37 0 0 0-2-.14 2.78 2.78 0 0 0-.56 2.79 4.2 4.2 0 0 0 .66 1.3 13.71 13.71 0 0 0 .93 1.06c-.28.4-1.22.45-1.65.6a1.92 1.92 0 0 0-1.16 1.09c-1 2.36 3.1 3.63 4.65 3.93a3.08 3.08 0 0 1 1 .36c.56.32 0 .76-.27 1.06a1.29 1.29 0 0 0-.31 1c.22 1 1 1.53 1.88 2.07a35.54 35.54 0 0 0 6.87 3 36.17 36.17 0 0 1 3.85 1.7c-1.61-.12-3.21-.33-4.79-.6a45.15 45.15 0 0 1-12.49-3.93.77.77 0 0 1-.12-.76c.19-.48.65-.84.68-1.4a2.56 2.56 0 0 0-1.66-2.59 10 10 0 0 0-1.68-.46 1.43 1.43 0 0 1-.76-.42c-.19-.23.18-.44.32-.58a4.17 4.17 0 0 0 1.1-3.1 3.45 3.45 0 0 0-1.35-2.73c-1.07-.61-1.76.07-2.77.35-.57.15-.65-1.1-.72-1.44a3.12 3.12 0 0 0-.72-1.48 2.53 2.53 0 0 0-2.68-.6 3.5 3.5 0 0 0-2.07 1.94 5.33 5.33 0 0 0-.4 1.72 7.23 7.23 0 0 0 0 .93v.49a8.07 8.07 0 0 1-1.37-1.17 7.22 7.22 0 0 0-1.5-1 1.76 1.76 0 0 0-2.55.95zM537.17 560.36a.44.44 0 0 0 .55.55 16.06 16.06 0 0 0 1.61-.8 11.79 11.79 0 0 1 2.22-.44c.72-.14.59-1.24 0-1.48a3.47 3.47 0 0 0-4.38 2.17zM535.85 557.4a.4.4 0 0 0 .49.52c.72-.27 1.32-.7 2.08-.93a5.38 5.38 0 0 1 2.7-.07c.75.21 1.09-.92.42-1.23a4.51 4.51 0 0 0-3.28-.34 3.75 3.75 0 0 0-2.41 2.05z"/><path class="cls-30" d="M547.09 591.53a11.43 11.43 0 0 1-1.24 2.28 3.68 3.68 0 0 1-2 1.15c-.4.1-.37.85.07.82 2.08-.1 4.31-1.73 4.12-4-.04-.47-.7-.73-.95-.25zM549 592.39a5 5 0 0 1-2.92 4.14c-.4.18-.4 1.07.12.94a4.76 4.76 0 0 0 3.78-5.09.49.49 0 0 0-.98.01zM533.17 531.31c-1 1.42-.91 3.56-1.15 5.2l-.06.41a7.71 7.71 0 0 1-.8-1 5.92 5.92 0 0 0-2.1-1.75 3.09 3.09 0 0 0-3.75 1.07c-1.08 1.4-.09 3.31.68 4.56a3.15 3.15 0 0 1 .47 1.21c0 .26-1.43.55-1.63.66a3.54 3.54 0 0 0-1.66 1.69 3.46 3.46 0 0 0 1.33 4.51c1.86 1.11 4 .47 6 .48.52 0 2.93.79 1.84 1.61a4.48 4.48 0 0 0-1.78 2.53 3.81 3.81 0 0 0 2.26 4.45 4.36 4.36 0 0 0 3-.08c1.12-.38 2.13-1.3 3.37-1.06.71.13.38 1.9.54 2.5a2.29 2.29 0 0 0 2 1.68 8.12 8.12 0 0 0 2.88-.46l4.47-1.15a1.23 1.23 0 0 0 .35-.15 58.37 58.37 0 0 0 8.52 8.91 17.64 17.64 0 0 1-6.85-4.32 4.79 4.79 0 0 0-6.33-.36 5.12 5.12 0 0 0-1.69 2.83c-.17.57-.11.88-.77.56s-1.09-1.24-1.47-1.82c-1.14-1.77-3.64-4-5.83-2.29a3.42 3.42 0 0 0-1.3 2.9c0 .59.9 2.51.19 2.65-1.82.38-4.79-.1-5.14 2.57s1.44 4.28 3.94 4.62c.68.1 1.34.09 2 .25s-.57.93-.82 1.1c-1.39.93-2.83 1.79-4.24 2.67a1.47 1.47 0 0 0-.31 2.12c1.85 2.12 4.61 2.11 7.12 1.33a48.32 48.32 0 0 0 4.64-1.94l2.09-.91c.43-.19 2.44-1.3 2.11.14-.28 1.25-1.82 2.06-2.2 3.36-.27.95-.41 2.32.37 3.11 1.66 1.69 4.14 1 5.79-.38 2-1.69 3-4.17 4.67-6.09a2.48 2.48 0 0 1 1.5-.87c.92-.09.92 1.54 1 2.14a3.38 3.38 0 0 0 1.66 2.5c2.27 1 3.58-2 4-3.71a10.08 10.08 0 0 0 .14-3.83c-.23-1.92 1.41-2.49 3-2.8l.52.34a65.67 65.67 0 0 0 16.26 7.93c5.77 1.84 12.8 2.69 18.6.6.94-.34 1-2.33-.2-2.28-3.07.14-6.11.54-9.19.41a34.78 34.78 0 0 1-8.92-1.66 51.94 51.94 0 0 1-7.06-2.77 22.4 22.4 0 0 1-3.19-5.06c-1.15-2.93-1.69-6.92 1.21-9.67 1.37-1.29 3.28-1.63 4.72-2.79s.72-3-.25-4.19a6.29 6.29 0 0 0-1.9-1.54 9.37 9.37 0 0 0-1.21-.55l-.37-.16-.29-.18c.75-.45 1.75-.34 2.39-1a3.37 3.37 0 0 0-.72-5.36 4.61 4.61 0 0 0-2.12-.58 5.26 5.26 0 0 0-1.12.06c-.68.1-1 .35-.48-.37.89-1.3 2.47-1.89 3-3.48s-1.27-2.61-2.61-2.86a6.64 6.64 0 0 0-4.55.78 6.2 6.2 0 0 0-1.72 1.47c-.17.2 0 .5-.2-.09-.14-.35-.25-.71-.39-1a2.07 2.07 0 0 0-2.63-1.36 4.2 4.2 0 0 0-2.41 3.52 6.46 6.46 0 0 0 .14 2.19 20.24 20.24 0 0 0 .67 2c-.64.39-2-.1-2.64-.15a2.88 2.88 0 0 0-2.23.83c-2.78 2.67 2.12 6.83 4.09 8.16a4.69 4.69 0 0 1 1.21 1.1c.57.78-.43 1.06-1 1.31a1.87 1.87 0 0 0-1 1.2c-.3 1.56.53 2.73 1.37 4 2.12 3.08 5 5.63 7.72 8.18a50.19 50.19 0 0 1 4.3 4.61 79.055 79.055 0 0 1-6.25-3.65 67.27 67.27 0 0 1-14.9-12.79 1.19 1.19 0 0 1 .27-1.11c.55-.55 1.4-.78 1.78-1.53a3.85 3.85 0 0 0-.78-4.55 14.51 14.51 0 0 0-2-1.62 2.18 2.18 0 0 1-.8-1c-.12-.42.5-.49.79-.61a6.2 6.2 0 0 0 3.33-3.61c.49-1.39.7-3.33-.25-4.58-1.1-1.46-2.46-.93-4-1.15-.88-.12-.24-1.89-.14-2.4a4.66 4.66 0 0 0-.13-2.46 3.78 3.78 0 0 0-3.33-2.41 5.22 5.22 0 0 0-4 1.46 7.79 7.79 0 0 0-1.61 1.96c-.23.41-.42.84-.61 1.27l-.3.72a12.68 12.68 0 0 1-1.2-2.42 10.42 10.42 0 0 0-1.46-2.3c-1.1-1.3-3.19-1.72-4.26-.16zM567.65 533.94a.66.66 0 0 0 .42 1.09c.88.09 1.8-.16 2.7-.15a16.61 16.61 0 0 1 3.32.69c1.08.23 1.54-1.37.89-2-1.8-1.87-5.78-1.84-7.33.37zM567.57 529.08a.6.6 0 0 0 .36 1c1.16 0 2.24-.2 3.42-.05a7.82 7.82 0 0 1 3.77 1.49c.9.73 2-.63 1.3-1.45a6.76 6.76 0 0 0-4.33-2.4 5.53 5.53 0 0 0-4.52 1.41z"/><path class="cls-30" d="M562.94 582.77a17.3 17.3 0 0 1-3.05 2.41 5.5 5.5 0 0 1-3.39.42c-.6-.1-1 .95-.38 1.18 2.91 1.09 7 .15 8-3.08.25-.7-.54-1.45-1.18-.93z"/><path class="cls-30" d="M565.07 585.07a7.58 7.58 0 0 1-6.48 4c-.66 0-1.17 1.24-.38 1.37a7.15 7.15 0 0 0 8.21-4.79.73.73 0 0 0-1.35-.58z"/><path class="cls-31" d="M983.22 542.42a1.42 1.42 0 0 0 0-1.82 2 2 0 0 0-1.19-.42c.45-.26.91-.52 1.35-.79.88-.52 1.72-1.08 2.56-1.65.49-.34 1.38-1 1.17-1.7-.35-1.25-1.94-1-3.13-.64q2.14-1.71 4.22-3.52c1.46-1.27 2.89-2.59 4.28-3.94.67-.65 3-2.7.94-3.19a5.38 5.38 0 0 0-2.35.48 19.71 19.71 0 0 0-2.36.89 27.68 27.68 0 0 0-4.63 2.67c-.41.29-.82.59-1.22.9a26.7 26.7 0 0 0 2.42-3.41 1.05 1.05 0 0 0-.12-1.23c-.31-.38-1-.24-1.43-.13a12.92 12.92 0 0 0-3.57 1.9 25.72 25.72 0 0 0-3.32 2.65 47.45 47.45 0 0 0-3.6 3.77l1.37-3.21c.2-.47-.34-.68-.7-.47a16.32 16.32 0 0 0-8.43 13.44.13.13 0 0 0 0 .17v.1a.22.22 0 0 0 0 .11 9.16 9.16 0 0 0 1.91 2.34c.44.43.9.84 1.36 1.23a4.87 4.87 0 0 0 .87.66c-.12.37 0 .76.62.69a25.2 25.2 0 0 0 11.06-4.22 6.37 6.37 0 0 0 1.92-1.66z"/><path class="cls-32" d="M970.85 549.9c-.42-3.32-2.74-6-5.06-8.29-2.48-2.38-6-5.24-9.73-5.29a10.16 10.16 0 0 0-4.86 1.56c-1.74 1.07-3.69 2.49-5.4 3.61-6.11 4-11.82 8.42-17.56 12.92S917 563.6 911.61 568.5a32.53 32.53 0 0 0-4.31 4.23 3.37 3.37 0 0 0 0 4.52c1.35 1.37 3.45 1.2 5.17.87 2.07-.4 4.13-.86 6.18-1.35a225.79 225.79 0 0 0 24.35-7.58c4-1.46 8-3 12-4.53 3.83-1.49 7.88-2.78 11.22-5.25 2.9-2.18 5.11-5.74 4.63-9.51z"/><path class="cls-33" d="M964.6 555.8a16 16 0 0 0-2.6-4.91c-.22-.33-1 .06-.84.44a22.64 22.64 0 0 1 1.85 4.44 8.23 8.23 0 0 1 .26 2.32 18.28 18.28 0 0 1-.34 2.2c-.1.75.93.46 1.2.11.97-1.29.87-3.1.47-4.6zM951.32 548.9a10.33 10.33 0 0 0-5-6.83c-.26-.15-1 .18-.64.47a19.6 19.6 0 0 1 4.53 6.79c.22.5 1.2.06 1.11-.43zM953 564.6a8 8 0 0 0-.61-4 9.59 9.59 0 0 0-2.2-3.73c-.22-.21-.87 0-.73.33.5 1.27 1.07 2.48 1.45 3.79a16.08 16.08 0 0 1 .39 1.83 11.37 11.37 0 0 0 .35 2.1c.22.77 1.19.24 1.35-.32zM924.78 566.06a10.69 10.69 0 0 0-3.68-5.2c-.37-.29-1.07.3-.71.68a21.53 21.53 0 0 1 3.39 5.11c.22.48 1.14-.14 1-.59zM924.32 574.38a7.07 7.07 0 0 0 0-5.29c-.17-.5-1.21-.05-1.09.43a8.93 8.93 0 0 1 .26 2.52c0 .78-.21 1.54-.29 2.31s.91.46 1.12.03zM915.91 577a7 7 0 0 0-.38-6.14c-.27-.5-1.26 0-1 .5a8.52 8.52 0 0 1 .35 5.59c-.2.57.85.43 1.03.05z"/><path class="cls-32" d="M971.65 556.64c.15-.37-.44-.31-.6-.14a23 23 0 0 1-2 2.11c-.65.58-1.42 1-2.05 1.62-.35.33.05.75.44.63a6.6 6.6 0 0 0 2.41-1.74 7.74 7.74 0 0 0 1.8-2.48zM974.1 557.27c.35-.62-.71-.63-1-.18a26.88 26.88 0 0 1-5.1 5.61c-.47.43 0 1 .54.7a17.51 17.51 0 0 0 5.56-6.13zM904.3 576.52a19 19 0 0 1 .41-2.92 9.4 9.4 0 0 1 1.3-2.8c.28-.42-.45-.48-.67-.21-1.27 1.61-2.38 4-2 6.12.11.54.91.29.96-.19zM901.42 577.68a12.48 12.48 0 0 1 .8-6c.26-.56-.63-.62-.84-.2a9.21 9.21 0 0 0-.91 6.46c.12.49.97.14.95-.26z"/><path class="cls-33" d="M933.41 550.93c.39.54.77 1.08 1.14 1.64.65 1 1.2 2.1 1.9 3.1.32.46 1.36 0 1.18-.53a12.59 12.59 0 0 0-1.81-3.44c-.37-.53-.77-1.05-1.19-1.55l-.35-.42-1.12.86zM937.48 564.45c-.25-.27-1 0-.82.42a12.73 12.73 0 0 1 1.36 3.46 12.11 12.11 0 0 1 .24 2.55l1.56-.55a8.72 8.72 0 0 0-2.34-5.88z"/><path class="cls-31" d="M1004.78 569.14a1.4 1.4 0 0 0 .59-1.71 2 2 0 0 0-1-.81l1.54-.27q1.5-.3 3-.69c.58-.15 1.63-.44 1.68-1.2.09-1.29-1.49-1.58-2.73-1.66q2.61-.88 5.18-1.87c1.81-.7 3.59-1.45 5.36-2.25.85-.38 3.77-1.5 2-2.68a5.56 5.56 0 0 0-2.37-.35 21.19 21.19 0 0 0-2.52 0 26.85 26.85 0 0 0-5.26.93c-.49.13-1 .27-1.46.43a26.62 26.62 0 0 0 3.44-2.38 1.06 1.06 0 0 0 .31-1.2c-.16-.47-.9-.58-1.3-.61a13 13 0 0 0-4 .56 25.73 25.73 0 0 0-4 1.37 48.37 48.37 0 0 0-4.68 2.31l2.39-2.55c.35-.37-.08-.76-.5-.69a16.35 16.35 0 0 0-12.49 9.78.13.13 0 0 0-.1.14.37.37 0 0 0 0 .11.24.24 0 0 0 0 .12 9.31 9.31 0 0 0 1 2.85c.26.56.56 1.1.86 1.63a5.27 5.27 0 0 0 .59.91c-.23.31-.22.73.35.86a25.34 25.34 0 0 0 11.84-.18 6.5 6.5 0 0 0 2.28-.9z"/><path class="cls-32" d="M990.59 572c.74-3.26-.51-6.63-1.93-9.52-1.51-3.09-3.86-7-7.33-8.3a10.19 10.19 0 0 0-5.1-.19c-2 .41-4.32 1.09-6.31 1.55-7.11 1.67-14 3.89-20.92 6.15s-13.73 4.79-20.44 7.57a32.88 32.88 0 0 0-5.5 2.5 3.37 3.37 0 0 0-1.55 4.24c.8 1.75 2.82 2.3 4.56 2.58 2.08.34 4.17.6 6.26.84a223.76 223.76 0 0 0 25.49 1.19c4.27 0 8.53-.08 12.79-.17s8.35.08 12.33-1.1c3.52-1.09 6.82-3.68 7.65-7.34z"/><path class="cls-33" d="M982.7 575.36a16.09 16.09 0 0 0-.76-5.5c-.1-.39-1-.3-.94.13a23.34 23.34 0 0 1 .22 4.8 8.84 8.84 0 0 1-.54 2.27 20.56 20.56 0 0 1-1.08 2c-.35.67.72.75 1.09.51 1.36-.93 1.86-2.67 2.01-4.21zM972.57 564.34a10.33 10.33 0 0 0-2.35-8.12c-.19-.23-1-.16-.77.22a19.67 19.67 0 0 1 1.95 7.93c.03.54 1.1.46 1.17-.03zM968.76 579.65a8 8 0 0 0 .78-3.92 9.71 9.71 0 0 0-.8-4.26c-.13-.27-.81-.33-.8.06a39.29 39.29 0 0 1 .07 4.06c0 .62-.14 1.24-.25 1.85a11.61 11.61 0 0 0-.4 2.1c0 .77 1.1.6 1.4.11zM941.78 571.41a10.7 10.7 0 0 0-1.69-6.14c-.24-.41-1.1-.08-.9.4a21.68 21.68 0 0 1 1.45 6c.06.49 1.11.21 1.14-.26zM938.5 579.07a7 7 0 0 0 1.79-5c0-.53-1.12-.47-1.17 0a9.14 9.14 0 0 1-.62 2.47c-.29.72-.72 1.37-1.06 2.07s.72.8 1.06.46zM929.71 578.63a6.94 6.94 0 0 0 1.74-5.91c-.08-.56-1.18-.44-1.14.13a8.4 8.4 0 0 1-1.58 5.36c-.36.52.67.79.98.42z"/><path class="cls-32" d="M989.05 578.56c.26-.3-.32-.45-.52-.34a24.76 24.76 0 0 1-2.56 1.32c-.82.32-1.69.47-2.49.82-.44.19-.2.72.21.74a6.58 6.58 0 0 0 2.85-.81 7.89 7.89 0 0 0 2.51-1.73zM991.13 580c.54-.45-.45-.83-.86-.5a27.32 27.32 0 0 1-6.69 3.54c-.6.24-.37 1 .26.84a17.54 17.54 0 0 0 7.29-3.88zM919 574.25a21 21 0 0 1 1.39-2.61 9.36 9.36 0 0 1 2.17-2.18c.41-.3-.25-.61-.55-.43-1.75 1.08-3.61 3-4 5.07-.11.54.75.54.99.15zM915.85 574.36a12.44 12.44 0 0 1 2.79-5.33c.43-.44-.38-.8-.72-.48a9.27 9.27 0 0 0-3.07 5.76c-.03.47.88.43 1 .05z"/><path class="cls-33" d="M955.05 560.13c.18.65.36 1.28.51 1.94.27 1.18.42 2.38.73 3.55.14.55 1.26.5 1.29-.08a12.59 12.59 0 0 0-.53-3.86c-.17-.63-.37-1.25-.59-1.86-.05-.17-.12-.34-.18-.52l-1.35.43zM954.26 574.23c-.14-.33-1-.31-.91.12a12.87 12.87 0 0 1 .09 3.72 11.81 11.81 0 0 1-.64 2.47h1.65a8.67 8.67 0 0 0-.19-6.31z"/><path d="M890.93 557.59a45.17 45.17 0 0 1-4.06-3 40.84 40.84 0 0 1-6.76-7.08c-2.43-3.18-4-6.74-5.94-10.23a.63.63 0 0 0-1-.22 4.93 4.93 0 0 0-2.67-.89 6 6 0 0 0-4.89 2.54c-1.5 1.87-2 4.36-2.36 6.66a32.64 32.64 0 0 1-.72 3.54 3.62 3.62 0 0 1-3 2.81.5.5 0 0 0-.11.85 2.08 2.08 0 0 0 1.07.29l3 3c.66.73 1.28 1.5 1.87 2.28a20.32 20.32 0 0 1 1.23 1.84c.14.23.62.93.53 1.2-.3 1-5-.56-5.61-.77-1.55-.49-3-1.24-4.46-1.85 0-.82-1-1.63-1.37-.53a9.54 9.54 0 0 0-.4 5c.18 1 .62 2.87 1.55 3.61.06.15.11.29.17.43.41 1.05 1.29.52 1.35-.3l1.12.54c1.51.74 3 1.55 4.45 2.36a62.73 62.73 0 0 1 8 5.33c1.2.92 2.35 1.91 3.48 2.92a12.36 12.36 0 0 0 3.34 2.7c2.67 1.1 5-2.37 6.46-4a77.22 77.22 0 0 0 5.92-8c.85-1.3 1.64-2.64 2.41-4a4.41 4.41 0 0 0 .43-4.17 8 8 0 0 0-3.03-2.86z" fill="#3ea151"/><path class="cls-35" d="M872.44 520.11a6.21 6.21 0 0 0-4.33-5c-3.83-1.16-7.11 1.27-9.17 4.29-3.58-5.14-10.14-7.4-16.05-4.5-4.89 2.4-6.88 8.22-5.42 13.15a10.43 10.43 0 0 0-4-1c-2.91-.1-5.16 1.69-6.56 4.09-3 5.18-.28 10.83 3.3 15a7 7 0 0 0-3.56 7.59c.79 4.38 4.14 7.09 7.68 9.33a9.79 9.79 0 0 0 2.08 11.65 7.48 7.48 0 0 0 11.2-1.34 8.38 8.38 0 0 0 9.51-3.24 8.65 8.65 0 0 0-.5-9.74 5.43 5.43 0 0 0 3.68-6.35 8.87 8.87 0 0 0 7.54-5.44 9.77 9.77 0 0 0-.52-7.85 9.69 9.69 0 0 0 8.32-5.72 7.48 7.48 0 0 0 5.64-3.22 7.8 7.8 0 0 0 .54-7.45 7.47 7.47 0 0 0-9.38-4.25z"/><path class="cls-36" d="M844 538.73a6.79 6.79 0 0 0-1.43 7.72 5.91 5.91 0 0 0-4.63 4.62 5.66 5.66 0 0 0 4.41 6.57c.62.12.82-1.23.26-1.39a4.48 4.48 0 0 1-3.35-4.68c.33-2.24 2.88-3.43 4.9-3.17.81.11.82-1.33.47-1.73a4.47 4.47 0 0 1 .5-6.38c2.21-1.87 5.3-.7 7 1.18.82.94 1.59-.6 1.16-1.36-1.81-3.23-6.55-3.7-9.29-1.38zM847.11 524.68c-2.39 1.57-3.21 5.05-1.07 7.2.57.57 1-.66.61-1.1-1.62-2.08.14-4.29 2.33-4.73a4.59 4.59 0 0 1 2.43.28c.84.29 1.4 1 2.21 1.29s1-.91.78-1.41c-1.26-2.4-5.13-2.95-7.29-1.53zM866 530.47c-2.35-1.7-5.81-.2-7.4 1.83a6.61 6.61 0 0 0 .37 8c.48.57 1-.61.72-1a4.55 4.55 0 0 1 .29-5.93 4.9 4.9 0 0 1 2.7-1.3 10 10 0 0 1 3 .28c.84.06.8-1.52.32-1.88zM851 563.52a4.29 4.29 0 0 1-3.26 1.72 3.87 3.87 0 0 1-3.16-1.78c-.43-.62-.89.27-.7.73 1.39 3.41 6.43 3.88 8 .39.32-.58-.23-1.8-.88-1.06z"/><path class="cls-35" d="M881.45 556.74a68.76 68.76 0 0 1-9.63-13.35c-.34-.62-.88.25-.68.7a39.63 39.63 0 0 0 9.69 13.79c.62.54 1.02-.7.62-1.14zM883.8 559.62c-.51-.35-.66.69-.46 1a23.26 23.26 0 0 0 2.07 2.37 19.94 19.94 0 0 0 2.49 2.46c.66.5 1.13-.67.76-1.16a22.34 22.34 0 0 0-4.86-4.67zM886.88 572c-1.7-1.39-3.51-2.66-5.11-4.18s-3.2-3.19-4.74-4.84a74.79 74.79 0 0 1-8.63-11.11c-.38-.59-.95.25-.68.69a67 67 0 0 0 8 10.91 50.23 50.23 0 0 0 5.12 4.88 63.86 63.86 0 0 0 5.67 4.46c.49.19.67-.59.37-.81zM879.63 574.07c-3-2.78-6.3-5.27-9.49-7.84-.35-.27-.69.56-.42.8 3.11 2.72 6.16 5.53 9.45 8 .43.36.83-.66.46-.96zM822.33 548.72c.11-.72-.8-1.06-1-.28-1 4.45.08 10.41 4 13.26.77.56 1.23-.81.81-1.35a18.83 18.83 0 0 1-3.23-5.16 12.83 12.83 0 0 1-.58-6.47zM816.23 552.58c-.93 5 2 9.12 5 12.77.48.59 1.06-.63.73-1.09-2.44-3.4-5.28-7.15-4.95-11.56-.01-.64-.66-.78-.78-.12zM887.24 581.75a11.67 11.67 0 0 1-5.85 3.61 5.87 5.87 0 0 1-6.24-2.68c-.56-1-1.54.06-1.15.89a7.54 7.54 0 0 0 6.47 4.22c3.14.25 6.23-1.86 7.74-4.47.35-.6-.13-2.4-.97-1.57z"/><path class="cls-12" d="M530.55 519c-12.47-1.19-28.82-2.61-34.12-3.76a14.92 14.92 0 0 1-7.35-4.07c-4.09-3.76-5.81-6.68-8.71-11.42-1.09-1.77-2.87-5.13-2.65-7.2s1.12-2.19 3.19-1.95c1.49.16 2.62 1.36 3.61 2.49 2.71 3.07 4.21 5.35 6.92 8.42a14.7 14.7 0 0 0 7.62 4.53c3.43.78 6.86-1 9.93-2.71-3.52-4.13 22.74-6.6 27.29-2.12a24.21 24.21 0 0 1 3.4 5.27 6.62 6.62 0 0 1-.08 3.61c-1.17 5.03-6.41 9.17-9.05 8.91z"/><path class="cls-12" d="M522.5 514.24c-8.9-2.43-20.57-5.52-24.27-7a11 11 0 0 1-4.82-3.88c-2.49-3.24-3.36-5.58-4.87-9.38-.57-1.42-1.44-4.08-1-5.55s1.09-1.44 2.56-1a4.54 4.54 0 0 1 2.31 2.26c1.58 2.57 2.38 4.41 3.95 7a10.8 10.8 0 0 0 5 4.25c2.38 1 24.85-2.63 27.59 1.18a18 18 0 0 1 1.81 4.26 4.93 4.93 0 0 1-.52 2.6c-1.54 3.44-5.86 5.78-7.74 5.26z"/><path class="cls-37" d="M592.21 419.18l-16.79 16.91a6.38 6.38 0 0 0 0 9l28.19 28a6.38 6.38 0 0 0 9 0l16.78-16.91a6.38 6.38 0 0 0 0-9l-28.19-28a6.38 6.38 0 0 0-8.99 0zm17.58 44.31a2.38 2.38 0 0 1-3.36 3.38l-25.56-25.37a2.38 2.38 0 1 1 3.36-3.38zm6.72-6.77a2.38 2.38 0 0 1-3.36 3.38l-25.56-25.36a2.39 2.39 0 0 1 3.36-3.39zm6.71-6.77a2.39 2.39 0 0 1-3.36 3.39L594.3 428a2.38 2.38 0 1 1 3.36-3.38z"/><path class="cls-38" d="M677.9 456.87l98.5 1.06 11.12 129.74-135.04-.53 25.42-130.27z"/><path class="cls-12" d="M812.25 542.16l-86.71-28.08-13.38 19.85 82.69 44.68a24.21 24.21 0 0 0 22.28.26c6.32-3.12 11.34-8.55 12.18-15.53 1.38-11.34-6.21-20.75-17.06-21.18zM676.86 498.24c-2.13-.86-1.1-2.42 1-3.24 2.41-.92 6.64-2.21 9.54-2.12 5.55.17 19.47 7.48 22.77 9 11.47 5.32-19.07-1.58-19.07-1.58s-8.71.17-14.24-2.06z"/><path class="cls-37" d="M616.63 464.99l70.17 54.29 8.16-9.46-73.74-49.25-4.59 4.42z"/><path class="cls-12" d="M712.16 533.93s-2-1-11.79-.25c-8.67.7-14.61-7-16.78-10.41-4.62-7.34-10.78-3.55-13.9-15.16-2.17-8.06 2.84-8.75 15.54-10.32 26.41-3.25 41.19 16.79 41.19 16.79z"/><circle class="cls-13" cx="683.46" cy="468.26" r="3.97"/><circle class="cls-13" cx="768.19" cy="467.2" r="3.97"/><path class="cls-2" d="M725 386.44a52.63 52.63 0 0 0-9.95 7.06 70.64 70.64 0 0 0-8.16 8.63 90.74 90.74 0 0 0-12 20.24 160.22 160.22 0 0 0-7.7 22.66c-2.09 7.82-3.71 15.84-5.61 24a93.21 93.21 0 0 1-.27-25.14 88.94 88.94 0 0 1 6.62-24.6 65.56 65.56 0 0 1 14.58-21.23 50.47 50.47 0 0 1 10.49-7.62 39.81 39.81 0 0 1 5.87-2.59 25.7 25.7 0 0 1 6.13-1.41zM765.81 386.44a15.18 15.18 0 0 1 3.92 3.87 17.56 17.56 0 0 1 1.56 2.3 26.54 26.54 0 0 1 1.36 2.44l1.17 2.53c.37.85.63 1.73 1 2.6a45.6 45.6 0 0 1 1.54 5.33 82.65 82.65 0 0 1 1.8 21.8c-.22 3.61-.54 7.22-1 10.8-.31 1.77-.59 3.55-.94 5.32s-.64 3.54-1.12 5.27-.92 3.48-1.41 5.21-1 3.45-1.6 5.14-1.24 3.38-1.93 5-1.37 3.33-2.16 5c0-1.83 0-3.62.1-5.41s.19-3.56.32-5.33.21-3.53.35-5.29.25-3.51.41-5.25c.33-3.49.46-7 .8-10.44.17-1.73.19-3.46.3-5.18s.28-3.46.31-5.18a187.37 187.37 0 0 0-.1-20.53c-.08-.85-.12-1.7-.19-2.56s-.22-1.68-.3-2.53-.2-1.71-.33-2.55l-.46-2.51a33.16 33.16 0 0 0-3.4-9.85z"/><path class="cls-30" d="M753.05 566.81c0 11-38.59 19.89-86.2 19.89s-86.2-8.91-86.2-19.89 172.4-10.99 172.4 0z"/><ellipse cx="665.41" cy="566.52" rx="80.15" ry="5.19" fill="#4b702a"/></g><text class="cls-40" transform="rotate(-.24 155188.662 -224649.897)">1<tspan x="12.44" y="0" letter-spacing=".01em">1</tspan><tspan class="cls-42" x="25.19" y="0">0</tspan></text><text transform="rotate(-.24 176216 -110532.014)" font-size="29.9" letter-spacing=".04em" font-family="Shnobel-Regular,Shnobel" fill="#003b71">К<tspan class="cls-44" x="12.19" y="0">Т</tspan><tspan x="21.86" y="0" letter-spacing=".03em">О</tspan><tspan class="cls-44" x="35.49" y="0">-Т</tspan><tspan x="59.19" y="0" letter-spacing="0">О</tspan><tspan x="71.93" y="0" letter-spacing="-.01em">77</tspan><tspan x="101.19" y="0" letter-spacing=".03em">7</tspan></text><text class="cls-40" transform="rotate(-.24 155230.682 -246992.84)">3<tspan class="cls-42" x="18.06" y="0">0</tspan></text><circle class="cls-7" cx="413.92" cy="731.45" r="32.04"/><path class="cls-5" d="M489.84 804.13l-.14-53.32-22.93.14a1.76 1.76 0 0 0-1.45.76 1.83 1.83 0 0 0-.31 1l.13 49.78a1.73 1.73 0 0 0 .22.85 1 1 0 0 0 .08.14 2.75 2.75 0 0 0 .22.26 1.71 1.71 0 0 0 1.25.51zM550.26 796.26a6.51 6.51 0 0 0-.23-.71 7.88 7.88 0 0 0-1.5-2.48 5 5 0 0 0-.39-.41 9.51 9.51 0 0 0-1.95-1.51 6 6 0 0 0 2.12-5.33c0-.15 0-.31-.06-.46s0-.31-.08-.48-.07-.32-.11-.49l-.15-.51c-.14-.43-.31-.89-.51-1.36a6 6 0 0 0-1.26-1.83 9.24 9.24 0 0 0-3.26-2 8.9 8.9 0 0 0 3.14-7.91 12.23 12.23 0 0 0-.34-1.84 5.26 5.26 0 0 0-.92-1.92l-.12-.16a6.77 6.77 0 0 0-.52-.56 8.93 8.93 0 0 0-2.73-1.74l.42-.25.28-.19a7 7 0 0 0 .8-.68l.24-.26a5 5 0 0 0 .34-.43 2.11 2.11 0 0 0 .21-.31c.07-.11.13-.22.19-.33a5.42 5.42 0 0 0 .54-3 7.54 7.54 0 0 0-.12-.89c-.07-.3-.15-.63-.26-1a4.5 4.5 0 0 0-.16-.48 1.6 1.6 0 0 1-.1-.23c-.07-.15-.15-.29-.23-.44a7.13 7.13 0 0 0-.54-.81c-.15-.19-.31-.37-.48-.55s-.36-.34-.55-.5l-.19-.16-.41-.3a7.56 7.56 0 0 0-.87-.55c-.23-.13-.46-.25-.7-.36a15.83 15.83 0 0 0-1.74-.71l-1-.31c-.53-.15-1.07-.28-1.61-.38l-.53-.11-1.58-.24-.52-.06-.82-.03h-2.06c-1.77-.07-3 0-3 0l-25.89.07h-6.56l.15 53.35a15 15 0 0 1 6.58 1.84 20.72 20.72 0 0 1 2.8 1.69 64.51 64.51 0 0 1 7.66 7.52c6.12 7.1 6.38 13.74 7.31 17.24a.18.18 0 0 0 0 .06c.47 1.74 1.11 2.69 2.74 2.5 4.62-.52 11.7-7.88 2-30.39 1.73.12 4.09.26 6.67.36h.71c1.47 0 3 .07 4.5.07h2.78c3.69-.12 7-.49 8.79-1.32a5 5 0 0 0 1.52-1.08l.15-.15.27-.32a6.63 6.63 0 0 0 .57-.88l.19-.39a7.11 7.11 0 0 0 .38-4.91z"/><rect class="cls-38" x="433.77" y="180.58" width="74.22" height="39.72" rx="8.2"/><path class="cls-49" d="M1144.97 162.71l13.04 13.05M1158.01 162.71l-13.04 13.05"/><rect class="cls-5" x="381.88" y="180.58" width="63.84" height="39.72" rx="7.6"/><path class="cls-2" d="M403.21 189.85v21.18l21.18-10.59-21.18-10.59z"/></svg>