<svg id="Layer_1" data-name="Layer 1" xmlns="http://www.w3.org/2000/svg" viewBox="0 0 2567.11 1021.3"><defs><style>.cls-5{opacity:.66}.cls-3,.cls-5{fill:#fff}.cls-4{opacity:.81}.cls-5,.cls-6{isolation:isolate}.cls-6{fill:#3e479b;opacity:.14}.cls-7{fill:#3bbcad}.cls-9{fill:#f36867}.cls-11{fill:#1c8e7d}.cls-12{fill:#83cdea}.cls-13{fill:#d34646}.cls-18{fill:#21a498}</style></defs><path d="M1478.61 38.05c-35.5.4-209.5-6.3-249.2-1.3-69.5 8.7-123 31.9-173.5 56.7-63.4 31.1-120.6 67.3-174.6 105.8-69.8 49.8-134.4 103.4-185.5 167.2-44.9 56-41.2 122.2-33.3 213.7 4.5 51.7-7.9 106 34.9 184.6 180.8 332.3 1316.9 353.5 1211.7-374.6-54.6-377.9-377.8-352.6-430.5-352.1z" fill="#c4e5e5"/><g opacity=".66"><path class="cls-3" d="M1130.41 413.65l-19-1.4a98 98 0 0 0-13-39.6l14.4-12.4a17.45 17.45 0 0 0-22.7-26.5l-14.3 12.3a97.83 97.83 0 0 0-37.2-18.8l1.4-19a17.45 17.45 0 0 0-34.8-2.6l-1.4 19a98 98 0 0 0-39.6 13l-12.4-14.4a17.45 17.45 0 1 0-26.5 22.7l12.4 14.4a97.54 97.54 0 0 0-18.8 37.2l-19-1.4a17.45 17.45 0 0 0-2.6 34.8l19 1.4a98 98 0 0 0 13 39.6l-14.4 12.4a17.45 17.45 0 0 0 22.7 26.5l14.4-12.4a97.68 97.68 0 0 0 37.2 18.8l-1.4 19a17.45 17.45 0 1 0 34.8 2.6l1.4-19a98 98 0 0 0 39.6-13l12.4 14.4a17.45 17.45 0 0 0 26.5-22.7l-12.6-14.4a97.68 97.68 0 0 0 18.8-37.2l19 1.4a17.46 17.46 0 0 0 18.7-16.1 17.28 17.28 0 0 0-16-18.6zm-122 79.4a71 71 0 1 1 76.2-65.4 71 71 0 0 1-76.2 65.4zm527 455.2a15.71 15.71 0 0 1-6.7-1.6 14.78 14.78 0 0 1-7.2-8.5l-3.4-10.8a71.94 71.94 0 0 1-26.1-2.2l-5.2 10a14.56 14.56 0 0 1-19.6 6.2 14.78 14.78 0 0 1-7.2-8.5 14.34 14.34 0 0 1 1-11.1l5.2-10a68.68 68.68 0 0 1-16.8-20l-10.8 3.4a14.5 14.5 0 0 1-18.2-9.5 14.34 14.34 0 0 1 1-11.1 14.78 14.78 0 0 1 8.5-7.2l10.8-3.4a71.94 71.94 0 0 1 2.2-26.1l-10-5.2a14.78 14.78 0 0 1-7.2-8.5 14.34 14.34 0 0 1 1-11.1 14.78 14.78 0 0 1 8.5-7.2 14.34 14.34 0 0 1 11.1 1l10 5.2a70.26 70.26 0 0 1 20-16.8l-3.4-10.8a14.5 14.5 0 0 1 9.5-18.2 14.34 14.34 0 0 1 11.1 1 14.78 14.78 0 0 1 7.2 8.5l3.4 10.8a71.94 71.94 0 0 1 26.1 2.2l5.2-10a14.54 14.54 0 1 1 25.8 13.4l-5.2 10a68.68 68.68 0 0 1 16.8 20l10.8-3.4a14.34 14.34 0 0 1 11.1 1 14.78 14.78 0 0 1 7.2 8.5 14.5 14.5 0 0 1-9.5 18.2l-10.8 3.4a71.94 71.94 0 0 1-2.2 26.1l10 5.2a14.56 14.56 0 0 1 6.2 19.6 14.78 14.78 0 0 1-8.5 7.2 14.34 14.34 0 0 1-11.1-1l-10-5.2a68.68 68.68 0 0 1-20 16.8l3.4 10.8a14.34 14.34 0 0 1-1 11.1 14.78 14.78 0 0 1-8.5 7.2 23.16 23.16 0 0 1-4.5.6zm-13.8-26.1l4.6 14.5a9.7 9.7 0 0 0 4.8 5.7 9.55 9.55 0 0 0 7.4.6 9.7 9.7 0 0 0 5.7-4.8 9.55 9.55 0 0 0 .6-7.4l-4.6-14.5 1.8-.9a66.57 66.57 0 0 0 21.5-18l1.2-1.6 13.5 7a9.55 9.55 0 0 0 7.4.6 9.77 9.77 0 0 0 1.5-18l-13.5-7 .6-1.9a65.92 65.92 0 0 0 2.4-27.9l-.3-2 14.5-4.6a9.85 9.85 0 0 0 6.4-12.3 9.7 9.7 0 0 0-4.8-5.7 9.55 9.55 0 0 0-7.4-.6l-14.5 4.6-.9-1.8a65.53 65.53 0 0 0-18-21.5l-1.6-1.2 7-13.5a9.79 9.79 0 0 0-17.4-9l-7 13.5-1.9-.6a65.92 65.92 0 0 0-27.9-2.4l-2 .3-4.6-14.5a9.7 9.7 0 0 0-4.8-5.7 9.55 9.55 0 0 0-7.4-.6 9.85 9.85 0 0 0-6.4 12.3l4.6 14.5-1.8.9a66.57 66.57 0 0 0-21.5 18l-1.2 1.6-13.5-7a9.55 9.55 0 0 0-7.4-.6 9.7 9.7 0 0 0-5.7 4.8 9.55 9.55 0 0 0-.6 7.4 9.7 9.7 0 0 0 4.8 5.7l13.5 7-.6 1.9a65.92 65.92 0 0 0-2.4 27.9l.3 2-14.5 4.6a9.7 9.7 0 0 0-5.7 4.8 9.55 9.55 0 0 0-.6 7.4 9.85 9.85 0 0 0 12.3 6.4L1452 886l.9 1.8a66.57 66.57 0 0 0 18 21.5l1.6 1.2-7 13.5a9.55 9.55 0 0 0-.6 7.4 9.77 9.77 0 0 0 18 1.5l7-13.5 1.9.6a65.92 65.92 0 0 0 27.9 2.4l1.9-.2zm-10.5-13.3a52.33 52.33 0 1 1 15.8-2.5 51.43 51.43 0 0 1-15.8 2.5zm.1-99.1a47.1 47.1 0 1 0 21.6 5.3 46.87 46.87 0 0 0-21.6-5.3z"/><path class="cls-3" d="M1660.51 859.35a24.52 24.52 0 0 1-2.7-.2A18.72 18.72 0 0 1 1642 838l2.3-15.7a92.77 92.77 0 0 1-31.1-18.5l-12.7 9.5a18.72 18.72 0 0 1-22.4-30l12.7-9.5a94.72 94.72 0 0 1-8.9-35l-15.7-2.3a18.7 18.7 0 1 1 5.4-37l15.7 2.3a92.77 92.77 0 0 1 18.5-31.1l-9.5-12.7a18.72 18.72 0 0 1 30-22.4l9.5 12.7a94.72 94.72 0 0 1 35-8.9l2.3-15.7a18.7 18.7 0 1 1 37 5.4l-2.3 15.7a92.77 92.77 0 0 1 31.1 18.5l12.7-9.5a18.72 18.72 0 1 1 22.4 30l-12.7 9.5a94.23 94.23 0 0 1 8.9 35l15.7 2.3a18.7 18.7 0 0 1-5.4 37l-15.7-2.3a92.77 92.77 0 0 1-18.5 31.1l9.5 12.7a18.72 18.72 0 0 1-30 22.4l-9.5-12.7a94.72 94.72 0 0 1-35 8.9l-2.3 15.7a18.81 18.81 0 0 1-18.5 16zm-47-61.8l1.5 1.4a88.54 88.54 0 0 0 32.7 19.5l1.9.6-2.8 19.6a13.94 13.94 0 0 0 27.6 4l2.8-19.6 2-.1a88.07 88.07 0 0 0 36.9-9.4l1.8-.9 11.8 15.9a14.06 14.06 0 0 0 9.2 5.5A13.89 13.89 0 0 0 1752 812l-11.8-15.9 1.4-1.5a88.54 88.54 0 0 0 19.5-32.7l.6-1.9 19.6 2.8a13.94 13.94 0 0 0 4-27.6l-19.6-2.8-.1-2a88.07 88.07 0 0 0-9.4-36.9l-.9-1.8 15.9-11.8a13.91 13.91 0 0 0 2.8-19.5 14.06 14.06 0 0 0-9.2-5.5 13.9 13.9 0 0 0-10.3 2.6l-15.9 11.8-1.5-1.4a88.54 88.54 0 0 0-32.7-19.5l-1.9-.6 2.8-19.6a13.9 13.9 0 0 0-2.6-10.3 13.94 13.94 0 0 0-25 6.3l-2.8 19.6-2 .1a88.07 88.07 0 0 0-36.9 9.4l-1.8.9-11.8-15.9a14.06 14.06 0 0 0-9.2-5.5 13.9 13.9 0 0 0-10.3 2.6 14.06 14.06 0 0 0-5.5 9.2 13.9 13.9 0 0 0 2.6 10.3l11.8 15.9-1.4 1.5a88.54 88.54 0 0 0-19.5 32.7l-.6 1.9-19.6-2.8a13.9 13.9 0 0 0-10.3 2.6 13.94 13.94 0 0 0 6.3 25l19.6 2.8.1 2a88.07 88.07 0 0 0 9.4 36.9l.9 1.8-15.9 11.8a14.06 14.06 0 0 0-5.5 9.2 13.9 13.9 0 0 0 2.6 10.3 14.06 14.06 0 0 0 9.2 5.5 13.9 13.9 0 0 0 10.3-2.6l16.1-11.8zm62.7 4.8a68.9 68.9 0 1 1 9.8-137.1 68.91 68.91 0 0 1-9.8 137.1zm-.3-133a63.29 63.29 0 1 0 9.4.6 73 73 0 0 0-9.4-.6z"/></g><g class="cls-4"><path class="cls-3" d="M1352.51 868.85h-48.9a2.4 2.4 0 1 1 0-4.8h48.9a2.43 2.43 0 0 1 2.4 2.4 2.37 2.37 0 0 1-2.4 2.4zm0 50.9h-48.9a2.4 2.4 0 1 1 0-4.8h48.9a2.4 2.4 0 1 1 0 4.8z"/><path class="cls-3" d="M1389.51 971.15h-302.2a6.49 6.49 0 0 1-6.5-6.5v-156.8a6.49 6.49 0 0 1 6.5-6.5h302.2a6.49 6.49 0 0 1 6.5 6.5v156.9a6.6 6.6 0 0 1-6.5 6.4zm-302.2-165a1.75 1.75 0 0 0-1.7 1.7v156.9a1.75 1.75 0 0 0 1.7 1.7h302.2a1.75 1.75 0 0 0 1.7-1.7v-156.9a1.75 1.75 0 0 0-1.7-1.7z"/><path class="cls-5" d="M1389.51 971.15h-302.2a6.49 6.49 0 0 1-6.5-6.5v-156.8a6.49 6.49 0 0 1 6.5-6.5h302.2a6.49 6.49 0 0 1 6.5 6.5v156.9a6.6 6.6 0 0 1-6.5 6.4zm-302.2-165a1.75 1.75 0 0 0-1.7 1.7v156.9a1.75 1.75 0 0 0 1.7 1.7h302.2a1.75 1.75 0 0 0 1.7-1.7v-156.9a1.75 1.75 0 0 0-1.7-1.7z"/><path class="cls-3" d="M1352.51 844.25h-233.2a2.4 2.4 0 1 1 0-4.8h233.2a2.4 2.4 0 1 1 0 4.8zm0 49.3h-233.2a2.4 2.4 0 1 1 0-4.8h233.2a2.43 2.43 0 0 1 2.4 2.4 2.37 2.37 0 0 1-2.4 2.4zm-107.4-24.7h-125.8a2.4 2.4 0 1 1 0-4.8H1245a2.43 2.43 0 0 1 2.4 2.4 2.29 2.29 0 0 1-2.3 2.4zm0 50.9h-125.8a2.4 2.4 0 1 1 0-4.8H1245a2.43 2.43 0 0 1 2.4 2.4 2.35 2.35 0 0 1-2.3 2.4zm-41 23.6h-84.8a2.4 2.4 0 1 1 0-4.8h84.8a2.4 2.4 0 0 1 0 4.8z"/></g><g class="cls-4"><path class="cls-3" d="M884.31 716.35h-55a2.4 2.4 0 1 1 0-4.8h55a2.43 2.43 0 0 1 2.4 2.4 2.31 2.31 0 0 1-2.4 2.4zm0-57.1h-55a2.4 2.4 0 1 1 0-4.8h55a2.43 2.43 0 0 1 2.4 2.4 2.37 2.37 0 0 1-2.4 2.4z"/><path class="cls-3" d="M1128 787H787.31a6.49 6.49 0 0 1-6.5-6.5V603.15a6.49 6.49 0 0 1 6.5-6.5H1128a6.49 6.49 0 0 1 6.5 6.5v177.3a6.49 6.49 0 0 1-6.5 6.5zM787.3 601.5a1.75 1.75 0 0 0-1.7 1.7v177.3a1.75 1.75 0 0 0 1.7 1.7H1128a1.75 1.75 0 0 0 1.7-1.7V603.15a1.75 1.75 0 0 0-1.7-1.7z"/><path class="cls-5" d="M1128 787H787.31a6.49 6.49 0 0 1-6.5-6.5V603.15a6.49 6.49 0 0 1 6.5-6.5H1128a6.49 6.49 0 0 1 6.5 6.5v177.3a6.49 6.49 0 0 1-6.5 6.5zM787.3 601.5a1.75 1.75 0 0 0-1.7 1.7v177.3a1.75 1.75 0 0 0 1.7 1.7H1128a1.75 1.75 0 0 0 1.7-1.7V603.15a1.75 1.75 0 0 0-1.7-1.7z"/><path class="cls-3" d="M1091.41 744.15h-262.1a2.4 2.4 0 0 1 0-4.8h262.1a2.4 2.4 0 0 1 0 4.8zm0-55.5h-262.1a2.4 2.4 0 0 1 0-4.8h262.1a2.4 2.4 0 0 1 0 4.8zm0 27.7h-141.3a2.4 2.4 0 0 1 0-4.8h141.3a2.43 2.43 0 0 1 2.4 2.4 2.37 2.37 0 0 1-2.4 2.4zm0-57.1h-141.3a2.4 2.4 0 0 1 0-4.8h141.3a2.4 2.4 0 0 1 0 4.8zm0-26.5h-95.3a2.4 2.4 0 0 1 0-4.8h95.3a2.4 2.4 0 0 1 0 4.8z"/></g><path class="cls-6" d="M1524.81 890.15l-260.6-154.5a4.28 4.28 0 0 1-1.5-6l210.4-354.9a4.28 4.28 0 0 1 6-1.5l260.7 154.5a4.28 4.28 0 0 1 1.5 6l-210.4 354.9a4.42 4.42 0 0 1-6.1 1.5z"/><path class="cls-7" d="M1518 876l-260.6-154.5a4.28 4.28 0 0 1-1.5-6l210.4-354.9a4.28 4.28 0 0 1 6-1.5L1733 513.55a4.28 4.28 0 0 1 1.5 6l-210.4 354.9a4.42 4.42 0 0 1-6.1 1.5z"/><path class="cls-6" d="M1592.91 871.65l-298-54.9a4.28 4.28 0 0 1-3.5-5.1l74.8-405.7a4.28 4.28 0 0 1 5.1-3.5l298 54.9a4.28 4.28 0 0 1 3.5 5.1l-74.7 405.6a4.57 4.57 0 0 1-5.2 3.6z"/><path class="cls-3" d="M1284.27 804.59l76.4-414.42 306.63 56.53-76.4 414.42z"/><path d="M1586.61 860.25l-298-54.9a4.28 4.28 0 0 1-3.5-5.1l74.8-405.7a4.28 4.28 0 0 1 5.1-3.5L1663 446a4.28 4.28 0 0 1 3.5 5.1l-74.8 405.7a4.54 4.54 0 0 1-5.09 3.45z" fill="#ffe436"/><path class="cls-3" d="M1620.91 495.45h-.4l-74.6-13.7a2.39 2.39 0 1 1 .9-4.7l74.6 13.7a2.4 2.4 0 0 1 1.9 2.8 2.55 2.55 0 0 1-2.4 1.9zm-4.4 23.8h-.4l-74.6-13.8a2.39 2.39 0 1 1 .9-4.7l74.6 13.8a2.4 2.4 0 0 1 1.9 2.8 2.55 2.55 0 0 1-2.4 1.9zm-4.8 25.9h-.4l-74.6-13.7a2.39 2.39 0 0 1 .9-4.7l74.6 13.7a2.4 2.4 0 0 1 1.9 2.8 2.55 2.55 0 0 1-2.4 1.9z"/><path class="cls-6" d="M1496.31 567.15l-127.8-23.6a4.78 4.78 0 0 1-3.8-5.6l25.3-137.4a4.78 4.78 0 0 1 5.6-3.8l127.8 23.6a4.78 4.78 0 0 1 3.8 5.6l-25.3 137.4a4.78 4.78 0 0 1-5.6 3.8z"/><path class="cls-9" d="M1491.61 559.15l-121.8-22.5a4.78 4.78 0 0 1-3.8-5.6l23.9-130a4.78 4.78 0 0 1 5.6-3.8l121.8 22.5a4.78 4.78 0 0 1 3.8 5.6l-24 130.1a4.64 4.64 0 0 1-5.5 3.7z"/><path d="M1518.91 437.55l-131.2-24.2L1390 401a4.64 4.64 0 0 1 5.4-3.7l122.3 22.5a4.52 4.52 0 0 1 3.6 5.2l-2.4 12.6z" style="isolation:isolate" fill="#ecf1f7" opacity=".07"/><path class="cls-11" d="M1424.41 478.05a13.33 13.33 0 0 1-2.8-.3l-1.8-.3a17.86 17.86 0 0 1-14.3-20.7l4.6-24.9a3.61 3.61 0 0 1 7.1 1.3l-4.6 24.9a10.66 10.66 0 0 0 8.5 12.4l1.8.3a8.29 8.29 0 0 0 9.6-6.6l11.6-62.9a8.44 8.44 0 0 0-6.9-9.9l-3.1-.6a9.16 9.16 0 0 0-10.6 7.3l-.3 1.6a3.61 3.61 0 1 1-7.1-1.3l.3-1.6a16.24 16.24 0 0 1 18.9-13l3.1.6a15.75 15.75 0 0 1 12.6 18.3l-11.6 62.9a15.14 15.14 0 0 1-15 12.5z"/><path class="cls-3" d="M1436.81 425.15h-.2l-47.6-8.8a1.22 1.22 0 1 1 .4-2.4l47.6 8.8a1.25 1.25 0 0 1 1 1.4 1.36 1.36 0 0 1-1.2 1zM1582.41 671.35h-.4l-227.9-42a2.4 2.4 0 0 1-1.9-2.8 2.33 2.33 0 0 1 2.8-1.9l227.9 42a2.4 2.4 0 0 1 1.9 2.8 2.55 2.55 0 0 1-2.4 1.9zm-16.3 88.4h-.4l-227.9-42a2.4 2.4 0 0 1-1.9-2.8 2.33 2.33 0 0 1 2.8-1.9l227.9 42a2.4 2.4 0 0 1 1.9 2.8 2.55 2.55 0 0 1-2.4 1.9zM1454 693.35h-.4l-107.7-19.9a2.4 2.4 0 0 1-1.9-2.8 2.33 2.33 0 0 1 2.8-1.9l107.7 19.9a2.37 2.37 0 0 1-.5 4.7zm14.9-80.5h-.4L1360.71 593a2.39 2.39 0 0 1 .9-4.7l107.7 19.9a2.4 2.4 0 0 1 1.9 2.8 2.35 2.35 0 0 1-2.3 1.85zm105.4 102.4h-.4l-102.7-18.9a2.4 2.4 0 0 1-1.9-2.8 2.33 2.33 0 0 1 2.8-1.9l102.7 18.9a2.4 2.4 0 0 1 1.9 2.8 2.68 2.68 0 0 1-2.4 1.9z"/><path class="cls-7" d="M1550.11 240h-126.6a7.92 7.92 0 0 1-7.9-7.9v-42.4a7.92 7.92 0 0 1 7.9-7.9h126.7a7.92 7.92 0 0 1 7.9 7.9v42.4a7.94 7.94 0 0 1-8 7.9z"/><path class="cls-12" d="M1645.61 303.45h-177.2a7.92 7.92 0 0 1-7.9-7.9v-63a7.92 7.92 0 0 1 7.9-7.9h177.2a7.92 7.92 0 0 1 7.9 7.9v63a7.85 7.85 0 0 1-7.9 7.9z"/><path class="cls-3" d="M1507.61 286.75h196.3a10.88 10.88 0 0 1 10.8 10.8v60.1a10.88 10.88 0 0 1-10.8 10.8h-196.3a10.88 10.88 0 0 1-10.8-10.8v-60.1a10.88 10.88 0 0 1 10.8-10.8z"/><path class="cls-9" d="M1507.61 286.75h196.3a10.88 10.88 0 0 1 10.8 10.8v60.1a10.88 10.88 0 0 1-10.8 10.8h-196.3a10.88 10.88 0 0 1-10.8-10.8v-60.1a10.88 10.88 0 0 1 10.8-10.8z"/><path class="cls-3" d="M1645.51 337.15a9.5 9.5 0 1 1 9.5-9.5 9.5 9.5 0 0 1-9.5 9.5zm0-16.5a7.1 7.1 0 1 0 7.1 7.1 7.13 7.13 0 0 0-7.1-7.1zm-39 16.5a9.5 9.5 0 1 1 9.5-9.5 9.5 9.5 0 0 1-9.5 9.5zm0-16.5a7.1 7.1 0 1 0 7.1 7.1 7.13 7.13 0 0 0-7.1-7.1zm-36.4 16.5a9.5 9.5 0 1 1 9.5-9.5 9.5 9.5 0 0 1-9.5 9.5zm0-16.5a7.1 7.1 0 1 0 7.1 7.1 7.13 7.13 0 0 0-7.1-7.1zM1030.31 187.45h304.1a11.14 11.14 0 0 1 11.1 11.1v447.9a38.3 38.3 0 0 1-38.3 38.3H1096a81.51 81.51 0 0 1-81.5-81.5v-400.1a15.75 15.75 0 0 1 15.8-15.7z"/><path class="cls-13" d="M1018.41 187.45h321.1a5.91 5.91 0 0 1 5.9 5.9v454.8a36.51 36.51 0 0 1-36.5 36.5h-220.1a74.34 74.34 0 0 1-74.3-74.3v-419a3.9 3.9 0 0 1 3.9-3.9z"/><path class="cls-9" d="M1046.51 187.45h294.2a4.69 4.69 0 0 1 4.7 4.7v457.3a35.19 35.19 0 0 1-35.2 35.2h-193.3a73 73 0 0 1-73-73v-421.6a2.65 2.65 0 0 1 2.6-2.6z"/><path class="cls-13" d="M1090.11 684.55l265.8.1a55.4 55.4 0 0 0 55.4-55.4v-21h-268.8v21a55.41 55.41 0 0 1-52.4 55.3z"/><path class="cls-13" d="M1125.31 684.55l236.6.1c27.2 0 49.3-24.8 49.3-55.4v-21H1172v21c0 29.6-20.7 53.7-46.7 55.3z"/><path class="cls-3" d="M1295.21 550.85h-191.1a2.4 2.4 0 1 1 0-4.8h191.1a2.43 2.43 0 0 1 2.4 2.4 2.37 2.37 0 0 1-2.4 2.4zm4-80.4h-198.7a2.4 2.4 0 0 1 0-4.8h198.7a2.4 2.4 0 0 1 0 4.8zm-99.6 40.2h-101.5a2.4 2.4 0 1 1 0-4.8h101.5a2.43 2.43 0 0 1 2.4 2.4 2.37 2.37 0 0 1-2.4 2.4z"/><path class="cls-3" d="M1192 510.65h-86.1a2.4 2.4 0 0 1 0-4.8h86.1a2.43 2.43 0 0 1 2.4 2.4 2.5 2.5 0 0 1-2.4 2.4zm40.7-126.2h-130.8a2.4 2.4 0 0 1 0-4.8h130.8a2.4 2.4 0 0 1 0 4.8zm60.6 0h-39.8a2.4 2.4 0 0 1 0-4.8h39.8a2.4 2.4 0 1 1 0 4.8zm5.9 40.2h-141.6a2.4 2.4 0 1 1 0-4.8h141.6a2.4 2.4 0 0 1 0 4.8zm-155.6 0h-43.1a2.4 2.4 0 0 1 0-4.8h43.1a2.4 2.4 0 1 1 0 4.8zm151.6-74.3h-191.1a2.4 2.4 0 1 1 0-4.8h191.1a2.43 2.43 0 0 1 2.4 2.4 2.37 2.37 0 0 1-2.4 2.4zm0-80.4h-191.1a2.4 2.4 0 1 1 0-4.8h191.1a2.4 2.4 0 0 1 0 4.8zm-121 40.2h-72.3a2.4 2.4 0 0 1 0-4.8h72.3a2.4 2.4 0 0 1 0 4.8zm119.5 0h-86.1a2.4 2.4 0 1 1 0-4.8h86.1a2.43 2.43 0 0 1 2.4 2.4 2.37 2.37 0 0 1-2.39 2.4z"/><circle cx="1439.08" cy="482.85" r="150.8" style="isolation:isolate" opacity=".21" fill="#fff"/><path d="M1325.91 492.75a9.5 9.5 0 0 1-9.5-9.5c0-76.1 61.9-137.9 137.9-137.9a9.5 9.5 0 0 1 0 19 119 119 0 0 0-118.9 118.9 9.43 9.43 0 0 1-9.5 9.5z" style="isolation:isolate" opacity=".76" fill="#fff"/><path d="M1444.11 637.45c-85.8 0-155.5-69.8-155.5-155.5s69.8-155.5 155.5-155.5 155.5 69.8 155.5 155.5-69.7 155.5-155.5 155.5zm0-301.6c-80.5 0-146 65.5-146 146s65.5 146 146 146 146-65.5 146-146-65.5-146-146-146z" style="isolation:isolate" opacity=".58" fill="#3e479b"/><circle cx="1444.11" cy="481.85" r="150.8" fill="none"/><path class="cls-18" d="M1582.71 589.85c.2-.2.5-.4.7-.6A175.89 175.89 0 0 0 1444.11 306c-97.1 0-175.9 78.8-175.9 175.9a175.86 175.86 0 0 0 283 139.5l20.4-20.4 11.1-11.1zm-138.6 42.8a150.8 150.8 0 1 1 150.8-150.8 150.78 150.78 0 0 1-150.8 150.8z"/><path class="cls-11" d="M1444.11 660.15c-98.3 0-178.3-80-178.3-178.3s80-178.3 178.3-178.3 178.3 80 178.3 178.3a176.63 176.63 0 0 1-37.1 108.9l-.4.4c-.2.2-.4.3-.5.4l-31.8 31.7a176.13 176.13 0 0 1-108.5 36.9zm0-351.8c-95.7 0-173.6 77.9-173.6 173.6s77.9 173.6 173.6 173.6a172.15 172.15 0 0 0 105.5-35.8l31.4-31.4c.2-.2.5-.4.7-.6a172.08 172.08 0 0 0 36-105.7c-.1-95.9-77.9-173.7-173.6-173.7zm0 326.7c-84.5 0-153.2-68.7-153.2-153.2s68.7-153.2 153.2-153.2 153.2 68.7 153.2 153.2-68.8 153.2-153.2 153.2zm0-301.6c-81.8 0-148.4 66.6-148.4 148.4s66.6 148.4 148.4 148.4 148.4-66.6 148.4-148.4-66.6-148.4-148.4-148.4z"/><path class="cls-18" d="M1578.31 617.45l-6.8-6.8a6.76 6.76 0 0 1 0-9.5l-20.4 20.4-.3.3a6.76 6.76 0 0 0 0 9.5l8.3 8.3c2.7-4.65 10.7-13.6 19.2-22.2z"/><path d="M1571.51 601.05a6.76 6.76 0 0 0 0 9.5l6.8 6.8c8.2-8.3 16.9-16.3 21.8-19.6l-7.9-7.9a6.71 6.71 0 0 0-8.8-.6c-.2.2-.5.4-.7.6l-11.2 11.2z" fill="#4c65ba"/><path class="cls-11" d="M1571.51 601.05a6.76 6.76 0 0 0 0 9.5l6.8 6.8c8.2-8.3 16.9-16.3 21.8-19.6l-7.9-7.9a6.71 6.71 0 0 0-8.8-.6c-.2.2-.5.4-.7.6l-11.2 11.2z"/><path class="cls-18" d="M1727.81 721.65l-123.9-125.3c-.4-.5-1.8.1-3.8 1.5-4.9 3.3-13.6 11.3-21.8 19.6-8.5 8.6-16.5 17.6-19.2 22.1-.9 1.5-1.2 2.5-.8 2.9l123.9 125.2a32.05 32.05 0 0 0 45.6 0 32.71 32.71 0 0 0 0-46z"/><path d="M1730.81 723.65l-123.9-125.3c-1.7-1.7-15.8 11-27.9 23.5-10.3 10.6 139.2 160.6 151.8 147.9a32.84 32.84 0 0 0 0-46.1z" style="isolation:isolate" fill="#21a498" opacity=".14"/><path class="cls-3" d="M1270.21 566.05H863a43.1 43.1 0 0 1 0-86.2h407.3a43.1 43.1 0 1 1-.1 86.2z"/><path class="cls-7" d="M1270.21 566.05H1204l-.3-86.2h66.6a43.1 43.1 0 1 1-.1 86.2z"/><path class="cls-3" d="M1253.51 538.15a18.78 18.78 0 1 1 13.3-5.5 18.84 18.84 0 0 1-13.3 5.5zm0-33a14.1 14.1 0 1 0 0 28.2 14.32 14.32 0 0 0 10-4.1 13.9 13.9 0 0 0 4.1-10 14.21 14.21 0 0 0-14.1-14.1z"/><path class="cls-3" d="M1280 548.35a2.34 2.34 0 0 1-1.7-.7l-14.9-15a2.4 2.4 0 0 1 3.4-3.4l14.9 14.9a2.5 2.5 0 0 1-1.7 4.2z"/><path d="M1276.11 655.15h-202.8a25.69 25.69 0 0 1-25.7-25.7v-16.8a25.8 25.8 0 0 0-25.8-25.8h-93.6a25.8 25.8 0 0 0-25.8 25.8v267.5a24 24 0 0 0 24 24H1276a24 24 0 0 0 24-24v-201a23.86 23.86 0 0 0-23.9-24z" fill="#44accc"/><path d="M1253.71 655.15H1051a25.69 25.69 0 0 1-25.7-25.7v-16.8a25.8 25.8 0 0 0-25.8-25.8h-93.6a25.8 25.8 0 0 0-25.8 25.8v267.5a24 24 0 0 0 24 24h349.6a24 24 0 0 0 24-24v-201a23.94 23.94 0 0 0-24-24z" fill="#f28393"/><path d="M1253.71 655.15H1051a25.69 25.69 0 0 1-25.7-25.7v-16.8a25.8 25.8 0 0 0-25.8-25.8h-93.6a25.8 25.8 0 0 0-25.8 25.8v267.5a24 24 0 0 0 24 24h349.6a24 24 0 0 0 24-24v-201a23.94 23.94 0 0 0-24-24z" fill="#67bbce"/><path class="cls-12" d="M1202.31 655.15h-174.8c-12.2 0-22.2-11.5-22.2-25.7v-16.8c0-14.2-10-25.8-22.2-25.8h-80.7c-12.3 0-22.2 11.5-22.2 25.8v267.5c0 13.3 9.3 24 20.7 24h301.5c11.4 0 20.7-10.8 20.7-24v-201c-.11-13.3-9.4-24-20.8-24z"/><path class="cls-3" d="M898.81 681.85a2.43 2.43 0 0 1-2.4-2.4v-58.4a16.41 16.41 0 0 1 16.4-16.4h69a2.4 2.4 0 1 1 0 4.8h-69a11.71 11.71 0 0 0-11.7 11.7v58.5a2.13 2.13 0 0 1-2.3 2.2zM1124.51 249c-5-1.4-5.6-9.9-5.6-14.2 0-7.3 2.8-9.7 10-9.7a5.54 5.54 0 0 1 1.8.2c-1.7-4.4-13-4-13-13.3a6.9 6.9 0 0 1 2.2-4.5c3.6-3.7 11-4.5 16-4.5h1a1.27 1.27 0 0 1 .1.6 21.71 21.71 0 0 1-.8 5c0 .1-.1.4-.2.4-1.2 0-2.5-.3-3.7-.3-2.2 0-8.6.6-8.6 3.7 0 4.1 9.2 4.7 11 12.9a43 43 0 0 1 .8 8.8c0 6.5-.9 15.1-9.4 15.1a10 10 0 0 1-1.6-.2zm.4-18.1a41.67 41.67 0 0 0-.7 7.1c0 2.1-.3 7.1 2.4 7.4a5.56 5.56 0 0 0 1.7-.9c1.3-2.2 2.1-8.2 2.1-10.7a24.87 24.87 0 0 0-.4-4.7 9.54 9.54 0 0 0-5.1 1.8zm34.2-23.5c.3 5.2 1.1 10.4 1.1 15.6 0 3.5-.2 6.9-.4 10.4-.4 5.4-.9 18-8.5 18-5.1 0-7.9-3.6-7.9-8.5 0-2.7.1-5.9 3.7-5.9a.56.56 0 0 1 .6.5c0 .6-.4 1-.4 1.6 0 1.9.6 8.3 3.2 8.3a2.62 2.62 0 0 0 1.8-.9c1.8-1.8 1.9-5.3 2.1-7.7.3-3.2.5-6.4.6-9.7.1-4.2.4-8.3.4-12.5a4.49 4.49 0 0 0-.4-2.3c-.8 2.1-2.4 4.3-4.8 4.3-6.8 0-8-9.9-8-15 0-1.9 1.3-2.7 3.1-2.7s1.9 2 1.9 3.3a30.09 30.09 0 0 0 .1 6c.3 1.6 1.4 4.5 3.4 4.5 2.8 0 3.4-4.8 3.4-6.9 0-1.6-.5-3.1-.5-4.7 0-1.4 1.5-1.5 2.5-1.5 2.3 0 3.2-.1 3.2 2.5-.1 1.2-.2 2.2-.2 3.3zm23.6 28.1c.4 1.5 2.4 8.4 2.4 9.2s-.7.7-1.2.7h-.8c-3.1-.2-2.7-1.6-3.3-4.1-.7-2.9-1.6-5.6-2.3-8.5s-1.3-6-2.1-8.9c-.3-1.2-1-7.1-1.7-7.5-.9 5.8-1.8 11.5-2.4 17.3-.3 3.2-1.1 6.3-1.3 9.5-.1 1.8.3 1.7-1.5 2.2a2.77 2.77 0 0 1-.9.1 6.81 6.81 0 0 1-2.8-.7c.1-4.6 1.8-9.2 2.4-13.8.8-5.7 1.7-11.4 2.6-17.1.2-1.3.1-6 1.1-6.7a5.49 5.49 0 0 1 2.6-.4 4.4 4.4 0 0 1 1.6.2c1.2.6 1.4 3.4 1.6 4.5 1.9 8 4.1 16 6 24zm24.3 0c.4 1.5 2.4 8.4 2.4 9.2s-.7.7-1.2.7h-.8c-3.1-.2-2.7-1.6-3.3-4.1-.7-2.9-1.6-5.6-2.3-8.5s-1.3-6-2.1-8.9c-.3-1.2-1-7.1-1.7-7.5-.9 5.8-1.8 11.5-2.4 17.3-.3 3.2-1.1 6.3-1.3 9.5-.1 1.8.3 1.7-1.5 2.2a2.77 2.77 0 0 1-.9.1 6.81 6.81 0 0 1-2.8-.7c.1-4.6 1.8-9.2 2.4-13.8.8-5.7 1.7-11.4 2.6-17.1.2-1.3.1-6 1.1-6.7a5.49 5.49 0 0 1 2.6-.4 4.4 4.4 0 0 1 1.6.2c1.2.6 1.4 3.4 1.6 4.5 1.8 8 4 16 6 24zm23.8-18.5c-.7.5-4.1 8.6-5 10.2-2 3.8-4.2 7.7-5.5 11.8-.3.8-.7 3.3-1.4 3.8a10.8 10.8 0 0 1-3.2.4c-1.4 0-1.5-3.7-1.5-4.7 0-2.8.4-5.7.4-8.5 0-4-.4-8-.4-12 0-1.5.1-3.1.1-4.6s-.3-3.1-.3-4.6c0-1.2 2.8-2 3.8-2 .8 0 .8 1 .8 1.6 0 7-.2 14-.2 20.9a13.43 13.43 0 0 0 .3 3.5 77.77 77.77 0 0 0 6.1-11.4c1-2.7 2.5-5.2 3.6-7.8.5-1.3 1.2-5 2.1-5.7a3.84 3.84 0 0 1 2.5-.9c1.2 0 1.6.8 1.6 1.9 0 1.4-.4 2.8-.4 4.2 0 8.3.4 16.7.4 25a54.41 54.41 0 0 1-.3 5.7c-.2 2-.3 1.6-2.1 1.7-.4 0-.9.1-1.3.1-1.1 0-1.1-2.4-1.1-3.1 0-8.2 1.1-16.3 1.1-24.5a1.15 1.15 0 0 0-.1-1zm26.6.4c.2 7.4.1 14.8.2 22.1 0 1.4.3 2.8.3 4.2 0 .5-.1 1.4-.7 1.4a5.27 5.27 0 0 1-1.2-.3c-2.1-.4-2.6-1.6-2.6-3.5 0-1.7.3-7.7-.4-8.9a2 2 0 0 0-2.1-1c-1.6 0-3.1-.7-4.6-.7-1.2 0-1.2 1.5-1.2 2.4 0 1.4.2 2.7.2 4.1 0 1.2.5 2.5.5 3.7 0 1.5-2.1 1.6-3.2 1.6s-2.4-.1-2.4-1.5c0-1.1.4-2.3.4-3.4 0-2.4-.3-4.7-.3-7.1 0-5.9.4-11.8.4-17.7 0-1.7-.2-3.3-.2-4.9 0-.7.1-1 .8-1 1.2 0 4.4-.4 4.4 1.3a28.68 28.68 0 0 1-.5 3.1v2.1c0 2.6.2 5.3.1 7.9 0 1.2-.4 2.3-.4 3.4 0 1.3.8 1.6 2 1.8a34.19 34.19 0 0 0 4.5.4 3.08 3.08 0 0 0 1-.1c.8-.5.8-3.3.8-4.1 0-1.8-.2-3.5-.2-5.3s.1-3.5.1-5.2c0-1.1-.2-2.1-.2-3.2 0-1.3.5-2.1 1.9-2.1 1.8 0 2.5 1 2.5 2.6.1 2.8.1 5.4.1 7.9zm18.7 6.2c-1.8 4.3-7.6 10.2-7.6 14.6 0 1 .3 3.4 1.6 3.4 2.3 0 1.1-2.8 2-3.6.6-.5 2.4-.5 3.1-.5h1.5v.5c0 3.6-2.4 8.1-6.5 8.1s-6.5-3.7-6.5-7.5c0-8.3 9-13 9-22.5 0-2-.8-5.5-3.3-5.5-1.6 0-2.4 1.9-2.4 3.2 0 .9.3 1.7.3 2.5 0 1.5-1.5 2.4-2.9 2.4-2 0-2.5-2-2.5-3.6 0-4.2 2.5-9.3 7.3-9.3 5.5 0 8.2 5.7 8.2 10.5a17.57 17.57 0 0 1-1.3 7.3z"/></svg>