<svg id="Layer_1" data-name="Layer 1" xmlns="http://www.w3.org/2000/svg" viewBox="0 0 1456.08 1021.32"><defs><style>.cls-15,.cls-9{fill:none}.cls-2{fill:#fff}.cls-5{fill:#eca179}.cls-6{fill:#e8e8e7}.cls-7{fill:#5da39e}.cls-8{fill:#dc835e}.cls-15,.cls-9{stroke:#ca5e34;stroke-linecap:round;stroke-linejoin:round}.cls-9{stroke-width:3.38px}.cls-10{fill:#c15e28}.cls-11{fill:#caefed;opacity:.57}.cls-13{fill:#663205}.cls-15{stroke-width:6.75px}</style><clipPath id="clip-path"><path d="M1310.9 446c-6.22-38.63-5-189.77-470.92-422.69-78.42-39.2-161.11 12.09-242.63-5.87C525.75 1.63 466.52 37.09 386 88.84c-45.51 29.27-101 43.61-154.11 122.42-224.47 333-23.23 981.84 672 754.81C1241.84 855.71 1341.49 636.1 1310.9 446z" fill="none"/></clipPath><clipPath id="clip-path-2"><path class="cls-2" d="M820.77 394.58s-19.75-36.53-67.33-11c0-.03 21.56 34.22 67.33 11z"/></clipPath><clipPath id="clip-path-3"><path class="cls-2" d="M867.71 396.63s22.16-29.85 43.32-3.76c-.03 0-21.77 30.81-43.32 3.76z"/></clipPath></defs><path d="M1310.9 446.76c-6.22-38.64-5-189.78-470.92-422.7-78.42-39.2-161.11 12.1-242.63-5.87C525.75 2.41 466.52 37.87 386 89.62c-45.51 29.27-101 43.61-154.11 122.42-224.47 333-23.23 981.84 672 754.81 337.95-110.35 437.6-329.97 407.01-520.09z" fill="#c4e5e5"/><g clip-path="url(#clip-path)"><path class="cls-5" d="M944.57 989.73l102.1 317.21-50.75 3.79-151.4-277c-10.9-19.94-12.83-44-3.55-64.75 8-17.78 22.53-31.37 42-32.58a58.17 58.17 0 0 1 61.6 53.33z"/><path class="cls-5" d="M867.53 763.58L849.7 996.26c-1.71 34.11 17.75 59.92 51.9 59.69 31.23-.21 47.16-28.31 47.16-28.31l41.47-274.85z"/><path class="cls-6" d="M869.81 887.05s46.06 9.09 152.15-105.23l-89.31-153.64c-24.95-42.91-109.21-61.42-138.24-53.51L786.5 580c-33.54 23.78-20.73 90.07-3 127.14z"/><path class="cls-7" d="M758 1100.17l-160.59 2.9c-78.65 1.87-146.7-60.37-148.58-139l-5.09-213.91c-2.13-90.7 72.4-165.96 163.08-168.16l138.82-2.38a142.45 142.45 0 0 1 145.8 139l5.61 235.69A142.44 142.44 0 0 1 758 1100.17z"/><path class="cls-6" d="M731.08 569.39s-77.08 1.46-138 26.3c-15.61 6.37-31.18 54.14-30.73 71l11.76 437.09s240.38 45.93 314.44-19l10.22-427.71a40.44 40.44 0 0 0-24.26-38l-86.43-37.68z"/><path class="cls-5" d="M688.62 593.53l42.78-12.18h56.69l47.1 20.54s15.37 45-42.86 48.14-89.68-34.98-103.71-56.5z"/><path class="cls-7" d="M848.22 577.1s48.88 98.41 45.25 301.95c0 0 10.7-9.48 22-42.34 17.07-49.8 12.15-185.39-35.1-244.79a33 33 0 0 0-13.87-10.16c-11.58-4.6-18.28-4.66-18.28-4.66z"/><path class="cls-5" d="M519.15 821.83l-51.29 132.73a62.46 62.46 0 0 0 39.52 81.76 62.46 62.46 0 0 0 77-36.64l48.58-160z"/><path class="cls-6" d="M487.77 844.76s23.33 41.4 181.89 27.12l37.16-177.55a86.16 86.16 0 0 0-74.37-103.24 86.17 86.17 0 0 0-92.64 61.28z"/><path class="cls-7" d="M628.38 583.14s81.11 123.18-21 346c0 0 78.6-21.85 105.76-101.29 13.72-40.13 41.49-151.25-26.92-238 0 0-7.5-14.95-42.7-14-13.35.41-15.14 7.29-15.14 7.29z"/><path class="cls-8" d="M876.84 411.41c1.15 22.25 10.19 32.16 39.38 31.13 22.27-.78 39-25 37.85-47.22s-17.9-30.25-41.41-26.89c-16.37 2.34-36.97 20.73-35.82 42.98z"/><path class="cls-9" d="M931 395.27s-19.58-7.91-31.5 19.8"/><path class="cls-5" d="M753.37 413.35l-43.35 191.49 100.75 10.09 10.19-173.63-67.59-27.95z"/><path class="cls-8" d="M813 562.62C771.21 546.64 741.8 468 741.8 468l77.74-9.81z"/><path class="cls-5" d="M774.24 212.5c26.06-4.41 53.15-3.48 78.38 4.09 34.18 10.26 77.44 28.55 76.86 90.73-1 103.65-21.39 179.46-76.22 198-42.1 14.21-70.76 4.66-114.53-25.68-16.29-11.29-30.13-41.18-32.84-61.29l-14.41-56.78s-41.77-128.01 82.76-149.07z"/><path class="cls-5" d="M721.51 405.45c-6.22 21.39-17.28 29-45.46 21.27-21.5-5.87-32.24-33.24-26-54.64s24.35-25.34 46.47-16.68c15.38 6.03 31.21 28.65 24.99 50.05z"/><path class="cls-9" d="M672.49 377.32s20.87-3.21 26.12 26.49"/><path class="cls-10" d="M937 340.78l-158.46-96s-79.21 93.35-81.93 116.7-41.13-53.42-35.67-77.77 56.13-121 132-95.11 117.4 30.73 139.52 78c14.91 31.96 4.54 74.18 4.54 74.18z"/><path class="cls-10" d="M780.84 235.87c-2.63 6.1-5.42 12.11-8.32 18.07s-5.85 11.89-8.91 17.76q-9.17 17.63-19.25 34.76A380.85 380.85 0 0 1 722.59 340q-3 4-6.21 8t-6.64 7.66c-2.32 2.48-4.68 4.94-7.24 7.24q-1.89 1.74-3.93 3.39c-.68.55-1.38 1.09-2.1 1.63-.37.26-.72.53-1.11.79s-.73.49-1.31.84l-4.21 2.45-1.39-4.56q-2.21-7.28-4.34-14.57T680 338.28c-1.34-4.9-2.63-9.81-3.92-14.71l-1.85-7.4c-.59-2.47-1.2-4.94-1.74-7.43 1.09 2.3 2.12 4.63 3.17 6.94l3 7c2 4.67 4 9.34 5.89 14s3.8 9.4 5.66 14.11 3.67 9.45 5.46 14.19l-5.59-2 .73-.57c.28-.21.57-.47.86-.7.58-.48 1.16-1 1.73-1.51 1.15-1.05 2.29-2.14 3.39-3.28 2.22-2.26 4.38-4.63 6.47-7.07 1-1.23 2.07-2.45 3.08-3.72s2-2.49 3-3.78 2-2.55 2.94-3.86 2-2.58 2.89-3.91c7.63-10.51 14.7-21.58 21.83-32.65s14.24-22.17 21.49-33.22c3.6-5.53 7.3-11 11-16.5s7.51-10.94 11.35-16.34z"/><path class="cls-11" d="M746.18 389.25s1.57 14.85 15.63 17.2 6.26 12.5 11.73 17.19 7-10.94 13.28-11.72 21.76-.95 29.31-7.43c5.47-4.68 4.69-10.16 4.69-10.16s-73.82-19.14-74.64-5.08zM868.49 396.68s2.26 10.9 15.24 16.8c4.3 2 2.59 10.37 9.77 9.77 9.38-.78 2.34-13.29 8.6-14.07s8.59-2.34 9.37-3.9c2.82-5.64-.78-12.51-.78-12.51s-39.85-2.34-42.2 3.91z"/><path class="cls-10" d="M872.56 339.55s-4.83 8.36 10.28 11.71c11.48 2.55 14.57 3.61 20.89 6.28 3.59 1.52 8 1 10.37-1.14 1.93-1.75 1.45-5.33.71-7.12-2.07-5-5.06-12-19-15.25-17.88-4.15-23.25 5.52-23.25 5.52zM823.6 337s4.08 11.7-16.57 12.18c-15.67.38-34.65 4.2-43.62 6-5.09 1-10.68-.67-13.24-4a5.61 5.61 0 0 1 .91-8.15c5.39-4.58 25.62-15.21 44.68-15.84 24.48-.83 27.84 9.81 27.84 9.81z"/><path class="cls-2" d="M820.77 394.58s-19.75-36.53-67.33-11c0-.03 21.56 34.22 67.33 11z"/><g clip-path="url(#clip-path-2)"><path class="cls-13" d="M800.36 387.68a16.56 16.56 0 1 1-18-15 16.57 16.57 0 0 1 18 15z"/></g><path d="M750.9 379.37a70 70 0 0 1 19.2-6.7 69 69 0 0 1 10-1.26 47.64 47.64 0 0 1 10.12.59 39.35 39.35 0 0 1 9.66 2.85 43.14 43.14 0 0 1 8.58 4.93 41.12 41.12 0 0 1 7.13 6.68 33.41 33.41 0 0 1 5.18 8.12 33.21 33.21 0 0 0-6.06-7.28 39.93 39.93 0 0 0-7.58-5.46 40.49 40.49 0 0 0-8.51-3.54 35.2 35.2 0 0 0-8.92-1.43 49.34 49.34 0 0 0-17.7 2.91 61.65 61.65 0 0 0-16 8 4.91 4.91 0 1 1-5.66-8c.17-.12.34-.22.51-.32z"/><path class="cls-2" d="M867.71 396.63s22.16-29.85 43.32-3.76c-.03 0-21.77 30.81-43.32 3.76z"/><g clip-path="url(#clip-path-3)"><path class="cls-13" d="M878.86 393.2c-2.76 8.48-.3 16.89 5.51 18.78s12.75-3.45 15.52-11.93.29-16.88-5.52-18.77-12.75 3.44-15.51 11.92z"/></g><path d="M906.92 395.53a27 27 0 0 0-3-4.62 20.17 20.17 0 0 0-4-3.69 17.15 17.15 0 0 0-5-2.34c-.42-.12-.88-.22-1.22-.28a1.5 1.5 0 0 0-.29 0H892.3a12.2 12.2 0 0 0-1.48 0l-1.48.09a27.72 27.72 0 0 0-11.62 3.89 41.34 41.34 0 0 0-10 8.18 42.84 42.84 0 0 1 8.59-10.17 31.56 31.56 0 0 1 12.14-6.71l1.75-.45c.59-.15 1.19-.19 1.79-.29l.9-.12.45-.06a3.41 3.41 0 0 1 .53-.05 16.89 16.89 0 0 1 2 .05 23.59 23.59 0 0 1 7.4 1.89 28.19 28.19 0 0 1 6.55 4 35.2 35.2 0 0 1 5.29 5.49 4.92 4.92 0 0 1-7.67 6.17 4.44 4.44 0 0 1-.49-.73z"/><path class="cls-15" d="M853.97 407.07l8.74 16.21-9.48 8.21M819.54 458.17s29.8-9.52 46.18-1.54"/><path class="cls-10" d="M710 224.87S581.83 63.72 500.42 188.5s-47.11 323.24-47.11 323.24l85.76 56.17 19.43-148.63L585.9 556l57.18-15.84s-80.73-292.9 65.59-270.47c41.2 6.36 1.33-44.82 1.33-44.82z"/><path class="cls-5" d="M583.34 994.08l-89.05 272.53-69.55-13.37 40.44-285.14a60.65 60.65 0 0 1 78.58-49.17 60.65 60.65 0 0 1 39.58 75.15z"/></g></svg>