<svg id="Layer_1" data-name="Layer 1" xmlns="http://www.w3.org/2000/svg" viewBox="0 0 1781.33 1021.3"><defs><style>.cls-1{fill:#fff}.cls-2{fill:#e4464e}.cls-4{fill:none;stroke:#fff;stroke-miterlimit:10;stroke-width:1.85px}.cls-5{fill:#21a498}.cls-7{fill:#fafafa}</style></defs><path class="cls-1" d="M1112.79 694.6c125.3 21.4 176.3-34.3 177.11-76 .8-43.7-30.6-91.9-130.1-101.4-141.1-13.6-172.9 48.8-174.9 78.7-3 47.2 11 75.5 74 91.6 5.9 1.5-3.3 58.4-6.2 76.7 7.4-4.9 55.7-55.4 60.09-69.6z"/><path class="cls-2" d="M1025 595.2c11 13.7 21.09 28.1 32.79 41.2 3.6 4 9.3-2.1 5.71-6.2-11.71-13-21.8-27.5-32.8-41.2-3.41-4.2-9.1 2-5.7 6.2zm19.5-8c11.09 13.7 21.7 27.6 32 42 3.2 4.4 8.9-1.8 5.7-6.2-10.3-14.4-20.91-28.4-32-42-3.41-4.2-9.1 2-5.7 6.2z"/><path class="cls-2" d="M1025.7 614.9c15.5-7.1 30.9-14.2 45.9-22.2 4.7-2.5.6-10-4.1-7.5-15.1 8.1-30.5 15.1-45.9 22.2-4.8 2.1-.6 9.7 4.1 7.5zm11.59 17.6c14.3-7.7 28.71-14.6 43.6-20.8 4.8-2 2.7-10.4-2.2-8.4a485.6 485.6 0 0 0-45.5 21.7c-4.7 2.4-.6 10 4.1 7.5zM1097.29 609.8c10.8.4 21.6 1.1 32.41 1.2 5.2 0 5.2-8.7 0-8.7-10.8 0-21.6-.8-32.41-1.2-5.29-.3-5.2 8.5 0 8.7z"/><path class="cls-2" d="M1117.09 624.2c.7-12.9 1.1-25.7 1.8-38.6.3-5.6-7.8-5.6-8.1 0-.7 12.9-1.09 25.7-1.79 38.6-.3 5.6 7.79 5.6 8.09 0z"/><path class="cls-2" d="M1096.5 593.2c8.7 10.5 17.5 20.7 27.4 29.9 3.9 3.7 9.7-2.5 5.7-6.2-9.9-9.2-18.7-19.4-27.4-29.9-3.5-4.2-9.2 2-5.7 6.2z"/><path class="cls-2" d="M1102.59 624.2c8.8-10 17.5-19.8 27.7-28.2 4.1-3.4.1-11-4.09-7.5-10.8 8.8-20.1 19-29.41 29.5-3.5 4.1 2.21 10.3 5.8 6.2zM1165.7 586.1c-8.91 1.2-15.5 13.3-11 22.5 2.09 4.4 7 5.4 11.09 3.8 6-2.5 9.4-11.3 10.4-17.7h-7.8c1.7 4.7 5.7 14.4 11.4 14.4 5.9 0 9-9.5 9.4-14.6 1.5-18.7-17-27.9-31.5-20.6-13.8 7-21.9 26.9-13.5 41.7 8.9 15.7 32 18.2 42.31 2.9 3.09-4.6-4-8.9-7-4.4-6.81 10.1-22.91 6.7-28.41-2.9-4.8-8.4-1.7-18.6 4.41-25.1 6.7-7.3 22-9.6 25.19 2.8 1.1 4.1-.1 6.9-1.5 10.5-1.1 1.2-.6 1.5 1.6.9a13.09 13.09 0 0 1-1.9-2.7c-.7-1.8-2.1-3.4-2.8-5.3-1.3-3.5-7.1-4.8-7.8 0-.2 1.5-3.2 13.6-6.5 11.9-2.2-1.2 2.1-9.2 3.8-9.4 5.2-.7 5.2-9.4.1-8.7zM1215.9 641.7c5.19 0 5.19-8.7 0-8.7s-5.2 8.7 0 8.7zm-7.4-57.7c-9.5-5.6-.81-14.2 6.19-11.7 10.31 3.7 1.2 14.5-1.3 20.8-4 10.3-4.1 21.4-2.7 32.2.7 5.5 8.5 3.2 7.81-2.3-1-8.2-.91-16.7 1.69-24.6 2-6 6.81-10.9 7.9-17.3 1.6-9-5.19-16-12.9-17.8-16.5-3.9-26.4 19-10.8 28.2 4.6 2.7 8.7-4.8 4.1-7.5z"/><path d="M1066.7 28c-35.5.4-209.5-6.3-249.2-1.3-69.5 8.7-123 31.9-173.5 56.7-63.4 31.1-120.61 67.3-174.61 105.8C399.6 239 335 292.6 283.89 356.4c-44.9 56-41.19 122.2-33.3 213.7 4.5 51.7-7.9 106 34.91 184.6 180.79 332.3 1316.9 353.5 1211.69-374.6C1442.59 2.2 1119.4 27.5 1066.7 28z" fill="#c4e5e5"/><path class="cls-4" d="M369.5 615.8h360.59c4.2-1.9 7.7-5.4 7.7-9.6V343.1a7.7 7.7 0 0 0-7.7-7.7H369.5a7.7 7.7 0 0 0-7.7 7.7v263.1c0 4.3 3.5 7.7 7.7 9.6zm673 64.9h239.09a8.49 8.49 0 0 0 8.5-8.5V389.7a8.49 8.49 0 0 0-8.5-8.5H1042.5a8.49 8.49 0 0 0-8.5 8.5v282.4a8.51 8.51 0 0 0 8.5 8.6zM1535.59 645.3a11.8 11.8 0 1 1-11.8-11.8 11.7 11.7 0 0 1 11.8 11.8zm-495.8-387.9a11.8 11.8 0 1 1-11.79-11.8 11.81 11.81 0 0 1 11.79 11.8zM351.2 201.9a11.81 11.81 0 1 1-11.81-11.8 11.83 11.83 0 0 1 11.81 11.8zm361.2 9.8h224.4a7.9 7.9 0 1 0 0-15.8H712.4a7.9 7.9 0 1 0 0 15.8zM1303 917.5h151.3a7.9 7.9 0 1 0 0-15.8H1303a7.9 7.9 0 1 0 0 15.8z"/><circle class="cls-1" cx="1162.76" cy="231.71" r="68.1" transform="rotate(-45 1162.757 231.71)"/><path class="cls-1" d="M1130.79 260.5s-13.5 54.4-36.79 65.9c0 0 47 10.5 64.29-51.6.1 0 5.71-40.1-27.5-14.3z"/><path class="cls-5" d="M1175.5 260.1h-.31c.4-.1.4-.1 0 .1-.1.1-.19.1-.19.2-.2.4-.2.3 0 0-.1.6 0-.1 0-.3.09.4.09.4-.1 0 0 .1.1.2.1.3-.2-.4-.2-.4 0-.1.69.2-.6-.1.19.1a.61.61 0 0 0 .4.1c.31.1.2.1-.19-.1h-.1c.3-.1.4-.1.1 0s-.2.1.1 0c-.31.2-.41.2 0 0-.2.3-.31.3-.1.1s.1-.2-.1.2c.1-.4.1-.4 0 .1a.6.6 0 0 1 .1-.4v.2a1.27 1.27 0 0 0-.1-.6c.1.7-.1-.1-.2-.2.2.4.2.4 0 .1a1 1 0 0 0 .5.4c1.6-1.3 3.1-2.6 4.7-3.9a10.44 10.44 0 0 1-1.6 7.9 3.5 3.5 0 0 1-5.6-4.2 2.9 2.9 0 0 0 .3-2.6c-.5-2.4 2.4-5.1 4.7-3.9a7.48 7.48 0 0 1 3.7 9.5 6.94 6.94 0 0 1-9.2 3.8 7.13 7.13 0 0 1-4.2-9 7.6 7.6 0 0 1 9.6-4.4c4.3 1.7 1.8 8.2-2.5 6.6zm-1.31-18.6c4-13.1 7.6-26.3 10.7-39.7l4.1 3.8c-10.9.6-7.8 31.2-8.1 38.9-.2 4.5-7.2 3.8-7-.7.4-10.9-.9-23.5 1.8-34.1 1.5-6 5.7-10.6 12.1-11 2-.1 4.6 1.4 4.1 3.8-3.2 14-6.9 27.8-11.1 41.5-1.3 4.3-7.9 1.8-6.6-2.5zm-29 7h-.3c.4-.1.4-.1 0 .1-.1.1-.2.1-.2.2-.2.4-.2.3 0 0-.1.6 0-.1 0-.3.09.4.09.4-.1 0 0 .1.1.2.1.3-.2-.4-.2-.4 0-.1.7.2-.6-.1.2.1a.6.6 0 0 0 .4.1c.3.1.2.1-.2-.1h-.1c.3-.1.4-.1.1 0s-.2.1.1 0c-.3.2-.41.2 0 0-.2.3-.3.3-.1.1s.1-.2-.1.2c.1-.4.1-.4 0 .1a.6.6 0 0 1 .1-.4v.2a1.27 1.27 0 0 0-.1-.6c.1.7-.1-.1-.2-.2.2.4.2.4 0 .1a1 1 0 0 0 .5.4c1.6-1.3 3.1-2.6 4.7-3.9a10.44 10.44 0 0 1-1.6 7.9 3.5 3.5 0 0 1-5.6-4.2 2.9 2.9 0 0 0 .3-2.6c-.5-2.4 2.4-5.1 4.7-3.9a7.48 7.48 0 0 1 3.7 9.5 6.94 6.94 0 0 1-9.2 3.8 7.13 7.13 0 0 1-4.2-9 7.6 7.6 0 0 1 9.6-4.4c4.2 1.7 1.7 8.2-2.5 6.6zm-1.3-18.6c4-13.1 7.6-26.3 10.7-39.7l4.1 3.8c-10.91.6-7.8 31.2-8.1 38.9-.2 4.5-7.2 3.8-7-.7.4-10.9-.9-23.5 1.8-34.1 1.5-6 5.7-10.6 12.1-11 2-.1 4.59 1.4 4.09 3.8-3.2 14-6.9 27.8-11.09 41.5-1.41 4.3-7.91 1.8-6.6-2.5z"/><path d="M1111 538.9c0 128.6-104.21 232.8-232.8 232.8S645.4 667.5 645.4 538.9s104.2-232.8 232.8-232.8S1111 410.3 1111 538.9z" fill="#15897b"/><path class="cls-5" d="M1097.7 538.9c0 128.6-104.2 232.8-232.8 232.8S632.1 667.5 632.1 538.9s104.2-232.8 232.8-232.8 232.8 104.2 232.8 232.8z"/><path class="cls-7" d="M915.5 646.5c-45.1.8-90.8 1.4-132.3-1.5-13.1-.9-24.5-21.8-8.5-28.4-6.7-3.4-13.5-6.8-16.5-14.3-2.8-7.1.59-16.8 8-18.6-15.7 3.9-21.8-21-9.6-29-6.5-5.5-11.8-12.8-13.2-21.2s2.1-17.8 9.5-21.9c4.9-2.7 10.7-2.8 16.3-2.8 18.8-.1 37.5-.3 56.3-.4-5.1-29.4-6.6-61.4 8.29-87.2 4.5-7.8 16.6-17.1 26.21-11.1 9 5.6 6.5 19.5 6 28.3-1.91 36.5 18.9 73.3 51.2 90.5-.1.1-2.2 77.9-1.7 117.6zM1000.05 646.47h-68.2v-117.4h68.2z"/></svg>