<svg id="Layer_1" xmlns="http://www.w3.org/2000/svg" viewBox="0 0 521 457"><style>.st12{fill:#003b71}</style><switch><g><path d="M63.2 418.5c18.1 12 436 26.7 441.8-4.2s15.1-333.5 3.3-350.4c-.3-.4-14-29.9-19.1-30.7-44.7-7-252.2 1.4-426 23.2C43.8 58.8 35.7 328.6 49 396.3c1.6 8.1 12.3 20.9 14.2 22.2z" fill="#ffe436"/><path d="M46.3 404.5c18.1 12 436 26.7 441.8-4.2s10.2-342.1-1.6-358.9c-2.5-3.5-326.2-17.5-440.3 1-21.4 3.5-18 350.2.1 362.1z" fill="#c4e5e5" stroke="#1691c9" stroke-width="6" stroke-miterlimit="10"/><g><path class="st12" d="M104.8 122.3c1.1 0 1.9-.2 1.9 1.2 0 .6 0 2.5-.9 2.5s-1.8-.6-2.7-.6c-.5 0-.6.3-.6.7 0 1.6.3 3.1.3 4.7 0 2.2-.1 4.4.1 6.6 0 .3 0 1 .5 1s.9-.2 1.4-.2c1.3 0 1 .2 1.1 1.2 0 .4.2.8.2 1.1 0 .4-.3.6-.7.6-.6 0-1.1-.4-1.7-.4-.9 0-1 .9-1 1.6 0 1.1.3 2.3.3 3.4 0 1 .1 2 .1 3 0 .7-.2 1.3-.2 2 0 .4.1.8.6.8.7 0 1.4-.4 2.1-.4.4 0 .5.2.5.6v1.8c0 .6-.5.6-1 .7-1.4.2-2.8.4-4.2.4-.7 0-1 0-1-.8 0-.7.2-1.4.2-2.1 0-5.8.1-11.6.1-17.4 0-2.8 0-5.5-.1-8.3 0-.8-.2-1.5-.2-2.3 0-1.1.2-2 1.4-2 .9 0 1.8.2 2.8.3l.7.3zM117.7 122.6c3 1.8 3.5 8.3 3.5 11.4v1.2H120c-.3 0-.6 0-.9-.1-.8-.2-.6 0-.7-.8-.4-2.1.3-9.1-3-9.1-2.9 0-2.9 6.2-2.9 8.1 0 1.2.1 2.4.1 3.7 0 2.4-.3 14.8 3.2 14.8 1.1 0 1.8-1.4 2-2.2.2-.9.1-1.8.3-2.7.2-1 .2-.7 1.1-.8.6-.1 1.2-.1 1.8-.2-.2 2.5-.1 5.5-1.8 7.6-.8.9-1.9 1.6-3.1 1.6-1 0-1.9-.4-2.7-1.1-3.8-3.7-3.6-11.4-3.6-16.4 0-2.6 0-5.3.2-7.9.3-3.4 1.3-7.5 5.5-7.5.8-.2 1.6 0 2.2.4zM134.7 144.1c.2.9 1.5 5.1 1.5 5.5 0 .4-.4.4-.7.4h-.5c-1.9-.1-1.6-.9-2-2.5-.4-1.7-1-3.4-1.4-5.1-.4-1.8-.8-3.6-1.2-5.3-.2-.7-.6-4.2-1-4.5-.5 3.5-1.1 6.9-1.4 10.4-.2 1.9-.7 3.8-.8 5.7-.1 1.1.2 1-.9 1.3-.2 0-.4.1-.5.1-.5 0-1.2-.2-1.7-.4.1-2.8 1.1-5.5 1.4-8.3.5-3.4 1-6.8 1.6-10.3.1-.8.1-3.6.7-4 .3-.2 1.2-.3 1.5-.3.3 0 .7 0 1 .1.7.3.8 2 1 2.7.9 4.9 2.2 9.7 3.4 14.5zM149 133c-.4.3-2.5 5.2-3 6.1-1.2 2.3-2.5 4.6-3.3 7.1-.2.5-.4 2-.8 2.3-.3.2-1.5.2-1.9.2-.9 0-.9-2.2-.9-2.8 0-1.7.2-3.4.2-5.1 0-2.4-.2-4.8-.2-7.2v-2.8c0-.9-.2-1.8-.2-2.8 0-.7 1.7-1.2 2.3-1.2.5 0 .5.6.5.9 0 4.2-.1 8.4-.1 12.6 0 .7 0 1.4.2 2.1 1-1.3 3.1-5.3 3.7-6.9.6-1.6 1.5-3.1 2.1-4.7.3-.8.7-3 1.3-3.4.4-.4 1-.5 1.5-.5.7 0 1 .5 1 1.2 0 .8-.3 1.7-.3 2.5 0 5 .2 10 .2 15 0 1.1 0 2.3-.2 3.4-.1 1.2-.2.9-1.2 1-.3 0-.5.1-.8.1-.7 0-.6-1.4-.6-1.8 0-4.9.7-9.8.7-14.7-.1-.3-.1-.4-.2-.6zM167.1 125.3c-.4-.1-1.8-.1-2.1-.4v-.4c0-1.6-.1-2 1.7-2 1.1 0 2.1.2 3.2.2.8 0 1.6-.2 2.4-.2.6 0 1.5 0 1.5.8 0 .5.1 1 .1 1.5 0 1.1-2.8-.2-2.8 1.5 0 .4 0 .8.1 1.2.2 4.2.2 8.4.2 12.6 0 4.3 0 8.7.2 13v.8c0 .3 0 .8-.4.8s-.8-.2-1.2-.3c-.8-.3-1-.1-1-1.2 0-.5.1-1.1.1-1.6 0-8.2-.5-16.3-.5-24.5-.1-1.6-.2-1.6-1.5-1.8zM184.7 150.3c-.4.1-.9.2-1.4.2-4.7 0-5.9-8.3-5.9-11.8 0-3.7.3-12.2 5.5-12.2 4 0 5.8 5.9 5.8 9.1 0 1.6-.9 1.8-2.2 1.8-1.2 0-2.5-.1-3.7-.1-1 0-2.2.2-2.2 1.5 0 .7.1 1.3.2 2 .1 1.6.2 6.9 2.6 6.9 2.3 0 1.6-4.6 2.2-4.9.3-.2.6-.2.9-.2.6 0 1.3.1 1.9.1.5 0 .5.3.5.7 0 2.5-1.5 6.1-4.2 6.9zm-3.8-15.9c0 .3.7.4 1 .4.9 0 1.7-.2 2.6-.4.6-.1 1.1 0 1.1-.8 0-1.4-1.2-4.4-2.9-4.4-1.6 0-1.7 2.4-1.7 3.5v.9c0 .3-.1.6-.1.8zM196.3 152.2c-3-.8-3.3-5.9-3.3-8.5 0-4.4 1.7-5.8 6-5.8.4 0 .7 0 1.1.1-1-2.6-7.8-2.4-7.8-8 0-1 .6-1.9 1.3-2.7 2.1-2.2 6.6-2.7 9.6-2.7h.6c.1.1.1.2.1.3 0 .7-.2 2.3-.5 3l-.1.2c-.7 0-1.5-.2-2.2-.2-1.3 0-5.2.4-5.2 2.2 0 2.5 5.5 2.8 6.6 7.8.4 1.7.5 3.5.5 5.3 0 3.9-.6 9.1-5.6 9.1-.5 0-.8 0-1.1-.1zm.2-10.9c-.3 1.4-.4 2.8-.4 4.2 0 1.2-.2 4.3 1.5 4.5.4-.1.7-.3 1-.5.8-1.3 1.2-4.9 1.2-6.4 0-.9-.1-1.9-.3-2.8-1 0-2.1.3-3 1zm1.2 10.1zM212.7 150.5c-4.7 0-5.9-8.3-5.9-11.8 0-3.7.3-12.2 5.5-12.2 4 0 5.8 5.9 5.8 9.1 0 1.6-.9 1.8-2.2 1.8-1.2 0-2.5-.1-3.7-.1-1 0-2.2.2-2.2 1.5 0 .7.1 1.3.2 2 .1 1.6.2 6.9 2.6 6.9 2.3 0 1.6-4.6 2.2-4.9.3-.2.6-.2.9-.2.6 0 1.3.1 1.9.1.5 0 .5.3.5.7 0 2.7-1.5 6.2-4.2 7-.4 0-.9.1-1.4.1zm-2.3-16.1c0 .3.7.4 1 .4.9 0 1.7-.2 2.6-.4.6-.1 1.1 0 1.1-.8 0-1.4-1.2-4.4-2.9-4.4-1.6 0-1.7 2.4-1.7 3.5v.9c-.1.3-.1.6-.1.8zM242.7 125.7c.1.8.2 1.7.2 2.5 0 2.1-.3 4.3-.3 6.4 0 1.9.3 3.7.3 5.6 0 1.8-.2 3.6-.2 5.4 0 1.3.1 2.7.1 4 0 .7.1 2-.9 2-.3 0-.6-.1-.9-.2-.6-.2-1 0-1-.9 0-.7.2-1.4.2-2.1 0-1.3-.1-2.6-.1-3.8 0-4.7-.2-9.4-.2-14.2v-2.5c0-.5-.1-.8-.7-.8-1.5 0-2.9.5-4.4.5v3.2c.1 4.1.1 8.3.2 12.4 0 1.9-.1 3.9.2 5.8.1.7.3 1.3.3 2 0 .2-.1.7 0 .8-.2.4-1.9.4-2.3.4-.8 0-.7-.2-.8-.8-.1-.5-.1-.9-.1-1.4 0-1.1.1-2.2.1-3.4 0-7-.1-13.9-.1-20.9 0-.9.8-1.4 1.6-1.4 2.2 0 4.3.3 6.5.3 1 .2 2-.2 2.3 1.1zM256.6 144.1c.2.9 1.5 5.1 1.5 5.5 0 .4-.4.4-.7.4h-.5c-1.9-.1-1.6-.9-2-2.5-.4-1.7-1-3.4-1.4-5.1-.4-1.8-.8-3.6-1.2-5.3-.2-.7-.6-4.2-1-4.5-.5 3.5-1.1 6.9-1.4 10.4-.2 1.9-.7 3.8-.8 5.7-.1 1.1.2 1-.9 1.3-.2 0-.4.1-.5.1-.5 0-1.2-.2-1.7-.4.1-2.8 1.1-5.5 1.4-8.3.5-3.4 1-6.8 1.6-10.3.1-.8.1-3.6.7-4 .3-.2 1.2-.3 1.5-.3.3 0 .7 0 1 .1.7.3.8 2 1 2.7.9 4.9 2.2 9.7 3.4 14.5zM261.1 138.3c0-5.3 2.1-11.1 8.2-11.1 6.3 0 7.6 7.4 7.6 12.3 0 5-2.2 10.8-8 10.8-6 .1-7.8-7.2-7.8-12zm2.7-.7c0 .8 0 1.5.1 2.3.2 2.5 1.9 7.8 5 7.8 4.1 0 5.3-6 5.3-9.2 0-2.9-1.2-8.6-4.9-8.6-4.5 0-5.5 4-5.5 7.7zM287.7 152.4c-1.6 0-1.6.3-1.6-1.4 0-.9.1-1.8.1-2.7 0-1.1-.4-7.7-1.7-7.7-1.6 0-1.7 6.2-1.7 7.4 0 .7.3 4.3-.6 4.3h-2.3c.1-3.1.3-6.1.9-9.2.1-.6.2-1.2.4-1.8.1-.4.8-1.7.8-2 0-.6-1.1-2.1-1.3-2.8-1.1-3.6-1.1-7.8-1.1-11.6 0-.2.1-.5.4-.5.1 0 .3 0 .4.1.3-.1.6-.1 1-.1.7 0 1.2.1 1.2.9 0 1.7.1 12.1 1.8 12.1s1.8-8.7 1.8-10.1c0-.5-.1-.9-.1-1.4 0-1 .2-1.4 1.2-1.4.3 0 1.7 0 1.7.4 0 .2-.2.4-.2.6 0 .1.1.2.2.2-.1 2.8-.2 5.7-.7 8.5-.1.8-1.2 4.1-1.2 4.3 0 .7.5 1.4.8 2 .9 2.2 1.4 7.2 1.4 9.6 0 .4 0 2.2-.6 2.2-.4.1-.7.1-1 .1zM293.2 138.3c0-5.3 2.1-11.1 8.2-11.1 6.3 0 7.6 7.4 7.6 12.3 0 5-2.2 10.8-8 10.8-6 .1-7.8-7.2-7.8-12zm2.7-.7c0 .8 0 1.5.1 2.3.2 2.5 1.9 7.8 5 7.8 4.1 0 5.3-6 5.3-9.2 0-2.9-1.2-8.6-4.9-8.6-4.5 0-5.5 4-5.5 7.7zM314.9 152.7c0 .5-.1.9-.4.9-.6.1-.8.2-1.4.3-.4.1-.4.1-.7-.4-.3-.6-.2-1.5-.1-2.2 0-1 .1-2.3.1-3.3 0-.2 0-.3.1-.5.3-.9.9-.6 1.4-.6.7 0 1-.1 1.3 1.2.1 1.4-.2 3.2-.3 4.6zM328.8 138.3c0-5.3 2.1-11.1 8.2-11.1 6.3 0 7.6 7.4 7.6 12.3 0 5-2.2 10.8-8 10.8-6 .1-7.8-7.2-7.8-12zm2.7-.7c0 .8 0 1.5.1 2.3.2 2.5 1.9 7.8 5 7.8 4.1 0 5.3-6 5.3-9.2 0-2.9-1.2-8.6-4.9-8.6-4.5 0-5.5 4-5.5 7.7zM351.1 152.2c-3-.8-3.3-5.9-3.3-8.5 0-4.4 1.7-5.8 6-5.8.4 0 .7 0 1.1.1-1-2.6-7.8-2.4-7.8-8 0-1 .6-1.9 1.3-2.7 2.1-2.2 6.6-2.7 9.6-2.7h.6c.1.1.1.2.1.3 0 .7-.2 2.3-.5 3l-.1.2c-.7 0-1.5-.2-2.2-.2-1.3 0-5.2.4-5.2 2.2 0 2.5 5.5 2.8 6.6 7.8.4 1.7.5 3.5.5 5.3 0 3.9-.6 9.1-5.6 9.1-.4 0-.8 0-1.1-.1zm.3-10.9c-.3 1.4-.4 2.8-.4 4.2 0 1.2-.2 4.3 1.5 4.5.4-.1.7-.3 1-.5.8-1.3 1.2-4.9 1.2-6.4 0-.9-.1-1.9-.3-2.8-1.1 0-2.2.3-3 1zm1.2 10.1zM371.9 133c-.4.3-2.5 5.2-3 6.1-1.2 2.3-2.5 4.6-3.3 7.1-.2.5-.4 2-.8 2.3-.3.2-1.5.2-1.9.2-.9 0-.9-2.2-.9-2.8 0-1.7.2-3.4.2-5.1 0-2.4-.2-4.8-.2-7.2v-2.8c0-.9-.2-1.8-.2-2.8 0-.7 1.7-1.2 2.3-1.2.5 0 .5.6.5.9 0 4.2-.1 8.4-.1 12.6 0 .7 0 1.4.2 2.1 1-1.3 3.1-5.3 3.7-6.9.6-1.6 1.5-3.1 2.1-4.7.3-.8.7-3 1.3-3.4.4-.4 1-.5 1.5-.5.7 0 1 .5 1 1.2 0 .8-.3 1.7-.3 2.5 0 5 .2 10 .2 15 0 1.1 0 2.3-.2 3.4-.1 1.2-.2.9-1.2 1-.3 0-.5.1-.8.1-.7 0-.6-1.4-.6-1.8 0-4.9.7-9.8.7-14.7-.1-.3-.1-.4-.2-.6zM377.8 123.7c0-.9 1.7-.7 2.3-.7 6.4 0 7.7 4.9 7.7 10.3 0 3.3-.1 6.6-.3 9.9-.1 1.4-.2 2.9-.2 4.4 0 3-1.5 6.3-4.9 6.3-1 0-2.1-.4-2.9-.9-1.7-1.2-1.6-7.3-1.6-9.3 0-2-.1-4.1.1-6.1.4-3 1.5-4.9 4.8-4.9.9 0 1.7.6 1.9.6.1 0 .2 0 .3-.1v-1.1c0-3.9-1.4-6.2-5.7-6.2-1.3 0-1.1-.9-1.4-1.9-.1-.1-.1-.2-.1-.3zm6.9 11.5c-.3-.2-.8-.2-1.2-.2-2.1 0-2.6 1.4-2.7 3.2-.1 1.4-.1 2.8-.1 4.1 0 2 .1 4 .1 5.9 0 1.3.1 3 1.9 3 .3 0 .6-.1.9-.2.6-.7.8-2.7.8-3.6.2-4 .3-8.1.3-12.2zM400.9 133.2c.1 4.4 0 8.9.1 13.3 0 .8.2 1.7.2 2.5 0 .3-.1.9-.4.9-.2 0-.5-.1-.7-.2-1.2-.2-1.5-.9-1.5-2.1 0-1 .2-4.6-.2-5.4-.3-.5-.7-.6-1.3-.6-1 0-1.9-.4-2.8-.4-.7 0-.7.9-.7 1.4 0 .8.1 1.6.1 2.5 0 .7.3 1.5.3 2.2 0 .9-1.3 1-1.9 1-.7 0-1.4-.1-1.4-.9 0-.7.3-1.4.3-2 0-1.4-.2-2.8-.2-4.3 0-3.5.3-7.1.3-10.6 0-1-.1-2-.1-3 0-.4.1-.6.5-.6.7 0 2.6-.2 2.6.8 0 .6-.2 1.2-.3 1.9v1.3c0 1.6.1 3.2.1 4.7 0 .7-.2 1.4-.2 2.1 0 .8.5 1 1.2 1.1.9.1 1.8.2 2.7.2.2 0 .5 0 .6-.1.5-.3.5-2 .5-2.5 0-1.1-.1-2.1-.1-3.2 0-1 .1-2.1.1-3.1 0-.6-.1-1.3-.1-1.9 0-.8.3-1.2 1.2-1.2 1.1 0 1.5.6 1.5 1.6-.4 1.6-.4 3.1-.4 4.6zM404.6 138.3c0-5.3 2.1-11.1 8.2-11.1 6.3 0 7.6 7.4 7.6 12.3 0 5-2.2 10.8-8 10.8-6 .1-7.8-7.2-7.8-12zm2.7-.7c0 .8 0 1.5.1 2.3.2 2.5 1.9 7.8 5 7.8 4.1 0 5.3-6 5.3-9.2 0-2.9-1.2-8.6-4.9-8.6-4.5 0-5.5 4-5.5 7.7zM426.3 152.7c0 .5-.1.9-.4.9-.6.1-.8.2-1.4.3-.4.1-.4.1-.7-.4-.3-.6-.2-1.5-.1-2.2 0-1 .1-2.3.1-3.3 0-.2 0-.3.1-.5.3-.9.9-.6 1.4-.6.7 0 1-.1 1.3 1.2.1 1.4-.2 3.2-.3 4.6zM60.8 176.4c.1 4.4 0 8.9.1 13.3 0 .8.2 1.7.2 2.5 0 .3-.1.9-.4.9-.2 0-.5-.1-.7-.2-1.2-.2-1.5-.9-1.5-2.1 0-1 .2-4.6-.2-5.4-.3-.5-.7-.6-1.3-.6-1 0-1.9-.4-2.8-.4-.7 0-.7.9-.7 1.4 0 .8.1 1.6.1 2.5 0 .7.3 1.5.3 2.2 0 .9-1.3 1-1.9 1-.7 0-1.4-.1-1.4-.9 0-.7.3-1.4.3-2 0-1.4-.2-2.8-.2-4.3 0-3.5.3-7.1.3-10.6 0-1-.1-2-.1-3 0-.4.1-.6.5-.6.7 0 2.6-.2 2.6.8 0 .6-.2 1.2-.3 1.9v1.3c0 1.6.1 3.2.1 4.7 0 .7-.2 1.4-.2 2.1 0 .8.5 1 1.2 1.1.9.1 1.8.2 2.7.2.2 0 .5 0 .6-.1.5-.3.5-2 .5-2.5 0-1.1-.1-2.1-.1-3.2 0-1 .1-2.1.1-3.1 0-.6-.1-1.3-.1-1.9 0-.8.3-1.2 1.2-1.2 1.1 0 1.5.6 1.5 1.6-.4 1.6-.5 3.1-.4 4.6zM71.3 193.5c-.4.1-.9.2-1.4.2-4.7 0-5.9-8.3-5.9-11.8 0-3.7.3-12.2 5.5-12.2 4 0 5.8 5.9 5.8 9.1 0 1.6-.9 1.8-2.2 1.8-1.2 0-2.5-.1-3.7-.1-1 0-2.2.2-2.2 1.5 0 .7.1 1.3.2 2 .1 1.6.2 6.9 2.6 6.9 2.3 0 1.6-4.6 2.2-4.9.3-.2.6-.2.9-.2.6 0 1.3.1 1.9.1.5 0 .5.3.5.7 0 2.5-1.5 6.1-4.2 6.9zm-3.7-15.9c0 .3.7.4 1 .4.9 0 1.7-.2 2.6-.4.6-.1 1.1 0 1.1-.8 0-1.4-1.2-4.4-2.9-4.4-1.6 0-1.7 2.4-1.7 3.5v.9c-.1.3-.1.6-.1.8zM89.3 168.9c.1.8.2 1.7.2 2.5 0 2.1-.3 4.3-.3 6.4 0 1.9.3 3.7.3 5.6 0 1.8-.2 3.6-.2 5.4 0 1.3.1 2.7.1 4 0 .7.1 2-.9 2-.3 0-.6-.1-.9-.2-.6-.2-1 0-1-.9 0-.7.2-1.4.2-2.1 0-1.3-.1-2.6-.1-3.8 0-4.7-.2-9.4-.2-14.2v-2.5c0-.5-.1-.8-.7-.8-1.5 0-2.9.5-4.4.5v3.2c.1 4.1.1 8.3.2 12.4 0 1.9-.1 3.9.2 5.8.1.7.3 1.3.3 2 0 .2-.1.7 0 .8-.2.4-1.9.4-2.3.4-.8 0-.7-.2-.8-.8-.1-.5-.1-.9-.1-1.4 0-1.1.1-2.2.1-3.4 0-7-.1-13.9-.1-20.9 0-.9.8-1.4 1.6-1.4 2.2 0 4.3.3 6.5.3 1.1.2 2.1-.2 2.3 1.1zM93 167.9c2.6.1 6.4-.2 8.1 2.3.4.6.6 1.3.6 2 0 1.8-1.5 3.8-3 4.7-.7.4-2 .6-2.5 1-.4.3-.5.9-.5 1.4 0 .7.1 1.3.1 2 0 2.9.3 5.8.5 8.7.1 1.3.4 2.6.4 3.9 0 1.1-.1 1.5-1.2 1.5-1.9 0-1.9-.5-1.9-2.2 0-4.6 0-9.3-.2-13.9-.1-2.9-.6-5.8-.6-8.8.1-.9.1-1.7.2-2.6zm5.6 6c.1-.3.2-.5.2-.8 0-1.3-1.5-2.6-2.8-2.6-.5 0-.6.4-.6.8 0 .5.1.9 0 1.4 0 .6-.2 1.2-.2 1.8 0 .5.1 1.1.8 1.1.9 0 2.3-.9 2.6-1.7zM114.6 176.2c-.4.3-2.5 5.2-3 6.1-1.2 2.3-2.5 4.6-3.3 7.1-.2.5-.4 2-.8 2.3-.3.2-1.5.2-1.9.2-.9 0-.9-2.2-.9-2.8 0-1.7.2-3.4.2-5.1 0-2.4-.2-4.8-.2-7.2V174c0-.9-.2-1.8-.2-2.8 0-.7 1.7-1.2 2.3-1.2.5 0 .5.6.5.9 0 4.2-.1 8.4-.1 12.6 0 .7 0 1.4.2 2.1 1-1.3 3.1-5.3 3.7-6.9.6-1.6 1.5-3.1 2.1-4.7.3-.8.7-3 1.3-3.4.4-.4 1-.5 1.5-.5.7 0 1 .5 1 1.2 0 .8-.3 1.7-.3 2.5 0 5 .2 10 .2 15 0 1.1 0 2.3-.2 3.4-.1 1.2-.2.9-1.2 1-.3 0-.5.1-.8.1-.7 0-.6-1.4-.6-1.8 0-4.9.7-9.8.7-14.7-.1-.3-.1-.4-.2-.6zM130.9 166.8c.1.2.1.4.1.6 0 .6-.2 1.1-.2 1.7 0 7.8-.4 15.6-.4 23.4 0 .6.1 1.3.1 1.9 0 1.1-.3 1-1.1 1.2-.3.1-.7.2-1.1.2-.6 0-.6-.5-.6-.9 0-.9.1-1.9.1-2.8 0-1.3-.1-2.5-.1-3.8 0-2 .1-4 .1-6-1.2 3.2-2.4 6.4-3.6 9.7-.6 1.5-1.1 3.1-1.7 4.6-.2.4-.5.7-1 .7-.4 0-1.7-.7-1.7-1.1 0 0 2.7-6.9 2.9-7.7 1.1-3.3 2.4-6.6 3.5-9.9-2.9-.5-4.4-3.8-4.4-6.5 0-3.1 1.7-6 5.1-6 .6 0 1.1.1 1.6.1 1 0 2-.1 2.4.6zm-2.6 7.4c0-1-.1-1.9 0-2.9 0-.5.2-1 .2-1.5 0-.3-.2-1.4-.5-1.4-2.1 0-3.2 1.5-3.2 3.5 0 1.6.8 4.5 2.9 4.5.8 0 .7-1.3.7-1.8l-.1-.4zM136.1 168.5c-.4-.1-1.8-.1-2.1-.4v-.4c0-1.6-.1-2 1.7-2 1.1 0 2.1.2 3.2.2.8 0 1.6-.2 2.4-.2.6 0 1.5 0 1.5.8 0 .5.1 1 .1 1.5 0 1.1-2.8-.2-2.8 1.5 0 .4 0 .8.1 1.2.2 4.2.2 8.4.2 12.6 0 4.3 0 8.7.2 13v.8c0 .3 0 .8-.4.8s-.8-.2-1.2-.3c-.8-.3-1-.1-1-1.2 0-.5.1-1.1.1-1.6 0-8.2-.5-16.3-.5-24.5-.1-1.6-.1-1.6-1.5-1.8zM156.8 176.4c.1 4.4 0 8.9.1 13.3 0 .8.2 1.7.2 2.5 0 .3-.1.9-.4.9-.2 0-.5-.1-.7-.2-1.2-.2-1.5-.9-1.5-2.1 0-1 .2-4.6-.2-5.4-.3-.5-.7-.6-1.3-.6-1 0-1.9-.4-2.8-.4-.7 0-.7.9-.7 1.4 0 .8.1 1.6.1 2.5 0 .7.3 1.5.3 2.2 0 .9-1.3 1-1.9 1-.7 0-1.4-.1-1.4-.9 0-.7.3-1.4.3-2 0-1.4-.2-2.8-.2-4.3 0-3.5.3-7.1.3-10.6 0-1-.1-2-.1-3 0-.4.1-.6.5-.6.7 0 2.6-.2 2.6.8 0 .6-.2 1.2-.3 1.9v1.3c0 1.6.1 3.2.1 4.7 0 .7-.2 1.4-.2 2.1 0 .8.5 1 1.2 1.1.9.1 1.8.2 2.7.2.2 0 .5 0 .6-.1.5-.3.5-2 .5-2.5 0-1.1-.1-2.1-.1-3.2 0-1 .1-2.1.1-3.1 0-.6-.1-1.3-.1-1.9 0-.8.3-1.2 1.2-1.2 1.1 0 1.5.6 1.5 1.6-.4 1.6-.4 3.1-.4 4.6zM160.5 181.5c0-5.3 2.1-11.1 8.2-11.1 6.3 0 7.6 7.4 7.6 12.3 0 5-2.2 10.8-8 10.8-6 .1-7.8-7.2-7.8-12zm2.7-.7c0 .8 0 1.5.1 2.3.2 2.5 1.9 7.8 5 7.8 4.1 0 5.3-6 5.3-9.2 0-2.9-1.2-8.6-4.9-8.6-4.5 0-5.5 4-5.5 7.7zM199.7 176.2c-.4.3-2.5 5.2-3 6.1-1.2 2.3-2.5 4.6-3.3 7.1-.2.5-.4 2-.8 2.3-.3.2-1.5.2-1.9.2-.9 0-.9-2.2-.9-2.8 0-1.7.2-3.4.2-5.1 0-2.4-.2-4.8-.2-7.2V174c0-.9-.2-1.8-.2-2.8 0-.7 1.7-1.2 2.3-1.2.5 0 .5.6.5.9 0 4.2-.1 8.4-.1 12.6 0 .7 0 1.4.2 2.1 1-1.3 3.1-5.3 3.7-6.9.6-1.6 1.5-3.1 2.1-4.7.3-.8.7-3 1.3-3.4.4-.4 1-.5 1.5-.5.7 0 1 .5 1 1.2 0 .8-.3 1.7-.3 2.5 0 5 .2 10 .2 15 0 1.1 0 2.3-.2 3.4-.1 1.2-.2.9-1.2 1-.3 0-.5.1-.8.1-.7 0-.6-1.4-.6-1.8 0-4.9.7-9.8.7-14.7-.1-.3-.1-.4-.2-.6zM215.7 187.3c.2.9 1.5 5.1 1.5 5.5 0 .4-.4.4-.7.4h-.5c-1.9-.1-1.6-.9-2-2.5-.4-1.7-1-3.4-1.4-5.1-.4-1.8-.8-3.6-1.2-5.3-.2-.7-.6-4.2-1-4.5-.5 3.5-1.1 6.9-1.4 10.4-.2 1.9-.7 3.8-.8 5.7-.1 1.1.2 1-.9 1.3-.2 0-.4.1-.5.1-.5 0-1.2-.2-1.7-.4.1-2.8 1.1-5.5 1.4-8.3.5-3.4 1-6.8 1.6-10.3.1-.8.1-3.6.7-4 .3-.2 1.2-.3 1.5-.3.3 0 .7 0 1 .1.7.3.8 2 1 2.7 1 4.9 2.3 9.7 3.4 14.5zM230 176.2c-.4.3-2.5 5.2-3 6.1-1.2 2.3-2.5 4.6-3.3 7.1-.2.5-.4 2-.8 2.3-.3.2-1.5.2-1.9.2-.9 0-.9-2.2-.9-2.8 0-1.7.2-3.4.2-5.1 0-2.4-.2-4.8-.2-7.2V174c0-.9-.2-1.8-.2-2.8 0-.7 1.7-1.2 2.3-1.2.5 0 .5.6.5.9 0 4.2-.1 8.4-.1 12.6 0 .7 0 1.4.2 2.1 1-1.3 3.1-5.3 3.7-6.9.6-1.6 1.5-3.1 2.1-4.7.3-.8.7-3 1.3-3.4.4-.4 1-.5 1.5-.5.7 0 1 .5 1 1.2 0 .8-.3 1.7-.3 2.5 0 5 .2 10 .2 15 0 1.1 0 2.3-.2 3.4-.1 1.2-.2.9-1.2 1-.3 0-.5.1-.8.1-.7 0-.6-1.4-.6-1.8 0-4.9.7-9.8.7-14.7-.1-.3-.1-.4-.2-.6zM250.1 195.4c-3-.8-3.3-5.9-3.3-8.5 0-4.4 1.7-5.8 6-5.8.4 0 .7 0 1.1.1-1-2.6-7.8-2.4-7.8-8 0-1 .6-1.9 1.3-2.7 2.1-2.2 6.6-2.7 9.6-2.7h.6c.1.1.1.2.1.3 0 .7-.2 2.3-.5 3l-.1.2c-.7 0-1.5-.2-2.2-.2-1.3 0-5.2.4-5.2 2.2 0 2.5 5.5 2.8 6.6 7.8.4 1.7.5 3.5.5 5.3 0 3.9-.6 9.1-5.6 9.1-.5 0-.8 0-1.1-.1zm.2-10.9c-.3 1.4-.4 2.8-.4 4.2 0 1.2-.2 4.3 1.5 4.5.4-.1.7-.3 1-.5.8-1.3 1.2-4.9 1.2-6.4 0-.9-.1-1.9-.3-2.8-1 0-2.1.3-3 1zm1.3 10.1zM261.1 181.5c0-5.3 2.1-11.1 8.2-11.1 6.3 0 7.6 7.4 7.6 12.3 0 5-2.2 10.8-8 10.8-6 .1-7.8-7.2-7.8-12zm2.7-.7c0 .8 0 1.5.1 2.3.2 2.5 1.9 7.8 5 7.8 4.1 0 5.3-6 5.3-9.2 0-2.9-1.2-8.6-4.9-8.6-4.5 0-5.5 4-5.5 7.7zM290 187.3c.2.9 1.5 5.1 1.5 5.5 0 .4-.4.4-.7.4h-.5c-1.9-.1-1.6-.9-2-2.5-.4-1.7-1-3.4-1.4-5.1-.4-1.8-.8-3.6-1.2-5.3-.2-.7-.6-4.2-1-4.5-.5 3.5-1.1 6.9-1.4 10.4-.2 1.9-.7 3.8-.8 5.7-.1 1.1.2 1-.9 1.3-.2 0-.4.1-.5.1-.5 0-1.2-.2-1.7-.4.1-2.8 1.1-5.5 1.4-8.3.5-3.4 1-6.8 1.6-10.3.1-.8.1-3.6.7-4 .3-.2 1.2-.3 1.5-.3.3 0 .7 0 1 .1.7.3.8 2 1 2.7.9 4.9 2.2 9.7 3.4 14.5zM299.9 184.7c1.7 1.2 3.1 3.5 3.1 5.6 0 .8-.2 1.6-.6 2.2-1.7 2.9-5.2 2.7-8.1 2.9-.1-1.3-.2-2.6-.2-4 0-4.6.4-9.2.4-13.8 0-2.4-.1-4.9-.1-7.3 0-1.7 0-2.2 1.9-2.2 1.3 0 1.2.8 1.2 1.9 0 1.5-.3 2.9-.4 4.4-.1 1.4-.3 2.9-.3 4.3 0 1.1-.1 2.2-.1 3.2.1 2.6 1.6 1.7 3.2 2.8zm-1.9 7.4c1.1-.5 2-1.6 2-2.8 0-1.3-1.4-3-2.7-3-.7 0-.8.7-.8 1.2 0 .9.2 1.8.2 2.7 0 .5-.2 2.1.6 2.1.3-.1.5-.2.7-.2zM317.3 176.4c.1 4.4 0 8.9.1 13.3 0 .8.2 1.7.2 2.5 0 .3-.1.9-.4.9-.2 0-.5-.1-.7-.2-1.2-.2-1.5-.9-1.5-2.1 0-1 .2-4.6-.2-5.4-.3-.5-.7-.6-1.3-.6-1 0-1.9-.4-2.8-.4-.7 0-.7.9-.7 1.4 0 .8.1 1.6.1 2.5 0 .7.3 1.5.3 2.2 0 .9-1.3 1-1.9 1-.7 0-1.4-.1-1.4-.9 0-.7.3-1.4.3-2 0-1.4-.2-2.8-.2-4.3 0-3.5.3-7.1.3-10.6 0-1-.1-2-.1-3 0-.4.1-.6.5-.6.7 0 2.6-.2 2.6.8 0 .6-.2 1.2-.3 1.9v1.3c0 1.6.1 3.2.1 4.7 0 .7-.2 1.4-.2 2.1 0 .8.5 1 1.2 1.1.9.1 1.8.2 2.7.2.2 0 .5 0 .6-.1.5-.3.5-2 .5-2.5 0-1.1-.1-2.1-.1-3.2 0-1 .1-2.1.1-3.1 0-.6-.1-1.3-.1-1.9 0-.8.3-1.2 1.2-1.2 1.1 0 1.5.6 1.5 1.6-.4 1.6-.4 3.1-.4 4.6zM321 181.5c0-5.3 2.1-11.1 8.2-11.1 6.3 0 7.6 7.4 7.6 12.3 0 5-2.2 10.8-8 10.8-6 .1-7.8-7.2-7.8-12zm2.7-.7c0 .8 0 1.5.1 2.3.2 2.5 1.9 7.8 5 7.8 4.1 0 5.3-6 5.3-9.2 0-2.9-1.2-8.6-4.9-8.6-4.5 0-5.5 4-5.5 7.7zM368.3 180.1c.6-.1 1.2-.3 1.8-.3.1 0 .6.1.7 0 .4.2.4 1.9.4 2.3 0 .8-.1.6-.7.8-.5.1-.9.1-1.4.1-1 0-1.9-.1-2.9-.1-4.9 0-9.8.1-14.6.2 0-.5 0-2.3.2-2.6.2-.1.4-.1.6-.1 1.5 0 2.9.1 4.4.1h1.9l6.3-.2c1.1-.1 2.3-.1 3.3-.2zM392.3 165.8c3 1.8 3.5 8.3 3.5 11.4v1.2h-1.2c-.3 0-.6 0-.9-.1-.8-.2-.6 0-.7-.8-.4-2.1.3-9.1-3-9.1-2.9 0-2.9 6.2-2.9 8.1 0 1.2.1 2.4.1 3.7 0 2.4-.3 14.8 3.2 14.8 1.1 0 1.8-1.4 2-2.2.2-.9.1-1.8.3-2.7.2-1 .2-.7 1.1-.8.6-.1 1.2-.1 1.8-.2-.2 2.5-.1 5.5-1.8 7.6-.8.9-1.9 1.6-3.1 1.6-1 0-1.9-.4-2.7-1.1-3.8-3.7-3.6-11.4-3.6-16.4 0-2.6 0-5.3.2-7.9.3-3.4 1.3-7.5 5.5-7.5.8-.2 1.5 0 2.2.4zM419.1 170.9c1.1 3.1.9 5 .9 8.2 0 1 .1 2.1.1 3.1 0 .9-.1 1.8-.2 2.7-.3 3.3-.5 10.2-5.1 10.2-3.5 0-5.1-4.2-5.1-7.1 0-.6 2.2-.5 2.6-.6.1 1.2.4 4.2 2.1 4.2 2.4 0 3-5.6 3-7.4h-1c-.7 0-1.4.2-2.1.2-1.5 0-2.2-.2-2.2-1.9 0-.9.1-1.2 1.1-1.2 1.4 0 2.8.3 4.1.3 0-1.5.1-3 .1-4.4 0-1.4-.4-6.3-2.4-6.3-2.4 0-2.3 5.1-2.7 6.7-.1.5-.4.8-.9.8-.7 0-1.8-.3-1.8-1.1 0-.2.1-.4.2-.6-.1-2.9 1.5-9.1 5.3-9.1 1.9 0 3.4 1.8 4 3.3zM425.1 168.5c-.4-.1-1.8-.1-2.1-.4v-.4c0-1.6-.1-2 1.7-2 1.1 0 2.1.2 3.2.2.8 0 1.6-.2 2.4-.2.6 0 1.5 0 1.5.8 0 .5.1 1 .1 1.5 0 1.1-2.8-.2-2.8 1.5 0 .4 0 .8.1 1.2.2 4.2.2 8.4.2 12.6 0 4.3 0 8.7.2 13v.8c0 .3 0 .8-.4.8s-.8-.2-1.2-.3c-.8-.3-1-.1-1-1.2 0-.5.1-1.1.1-1.6 0-8.2-.5-16.3-.5-24.5-.1-1.6-.2-1.6-1.5-1.8zM445.6 176.2c-.4.3-2.5 5.2-3 6.1-1.2 2.3-2.5 4.6-3.3 7.1-.2.5-.4 2-.8 2.3-.3.2-1.5.2-1.9.2-.9 0-.9-2.2-.9-2.8 0-1.7.2-3.4.2-5.1 0-2.4-.2-4.8-.2-7.2V174c0-.9-.2-1.8-.2-2.8 0-.7 1.7-1.2 2.3-1.2.5 0 .5.6.5.9 0 4.2-.1 8.4-.1 12.6 0 .7 0 1.4.2 2.1 1-1.3 3.1-5.3 3.7-6.9.6-1.6 1.5-3.1 2.1-4.7.3-.8.7-3 1.3-3.4.4-.4 1-.5 1.5-.5.7 0 1 .5 1 1.2 0 .8-.3 1.7-.3 2.5 0 5 .2 10 .2 15 0 1.1 0 2.3-.2 3.4-.1 1.2-.2.9-1.2 1-.3 0-.5.1-.8.1-.7 0-.6-1.4-.6-1.8 0-4.9.7-9.8.7-14.7-.1-.3-.1-.4-.2-.6zM467.7 185.2c-.8 1.6-1.7 3.1-2.4 4.8-.4.9-.7 2.1-1.9 2.1h-.5c-1.4-.2-1.5-1.3-2.1-2.4-.8-1.6-1.8-3.2-2.6-4.9-.7-1.5-1.4-3-2.1-4.4-.5-1-1.1-2-1.5-3-.2-.4-.5-1.5-.8-1.8 0 2.9.2 5.8.2 8.7 0 2.6.4 5.3.4 7.9 0 .8-.1.9-.9.9-.7 0-1.6-.4-2-.4h-.1c-.2-.1-.3-.6-.3-.8 0-1.2.2-2.5.2-3.7 0-4-.1-8.1 0-12.1 0-1.1-.1-2.3-.1-3.4 0-.5 0-2.3.6-2.3 1.8 0 2.2.1 3 1.7 1.5 2.8 3.1 5.5 4.6 8.2.5 1 3.3 7.1 4 7.1.1 0 .3-.4.3-.4.7-1.2 1.2-2.5 1.8-3.7 1.5-2.9 3.1-5.7 4.6-8.6.5-.9 1.3-3.3 2.2-3.7.3-.2 1.3-.2 1.7-.2 1.2 0 1.1 1 1.1 2 0 4 .1 8.1.1 12.1 0 1.6.1 3.3.2 4.9 0 .8.2 1.6.2 2.4 0 .5-.1 1-.7 1-.3 0-.6-.2-.9-.3-.8-.3-.5.1-.8-.9-.2-.6-.2-1.2-.2-1.8 0-2.4-.1-4.8-.2-7.2-.1-1.7 0-3.5-.1-5.2 0-.4 0-.8-.1-1.2l-.1-.3c-.2 0-.5.7-.6.8-1.6 2.4-2.8 5.3-4.2 8.1zM98.3 219.6c.1 4.4 0 8.9.1 13.3 0 .8.2 1.7.2 2.5 0 .3-.1.9-.4.9-.2 0-.5-.1-.7-.2-1.2-.2-1.5-.9-1.5-2.1 0-1 .2-4.6-.2-5.4-.3-.5-.7-.6-1.3-.6-1 0-1.9-.4-2.8-.4-.7 0-.7.9-.7 1.4 0 .8.1 1.6.1 2.5 0 .7.3 1.5.3 2.2 0 .9-1.3 1-1.9 1-.7 0-1.4-.1-1.4-.9 0-.7.3-1.4.3-2 0-1.4-.2-2.8-.2-4.3 0-3.5.3-7.1.3-10.6 0-1-.1-2-.1-3 0-.4.1-.6.5-.6.7 0 2.6-.2 2.6.8 0 .6-.2 1.2-.3 1.9v1.3c0 1.6.1 3.2.1 4.7 0 .7-.2 1.4-.2 2.1 0 .8.5 1 1.2 1.1.9.1 1.8.2 2.7.2.2 0 .5 0 .6-.1.5-.3.5-2 .5-2.5 0-1.1-.1-2.1-.1-3.2 0-1 .1-2.1.1-3.1 0-.6-.1-1.3-.1-1.9 0-.8.3-1.2 1.2-1.2 1.1 0 1.5.6 1.5 1.6-.4 1.6-.4 3.1-.4 4.6zM111.8 213.6c.2 3.1.6 6.2.6 9.4 0 2.1-.1 4.1-.3 6.2-.2 3.2-.5 10.8-5.1 10.8-3.1 0-4.7-2.1-4.7-5.1 0-1.6.1-3.5 2.2-3.5.2 0 .4.1.4.3 0 .3-.3.6-.3.9 0 1.1.4 5 1.9 5 .4 0 .8-.3 1.1-.5 1.1-1.1 1.1-3.2 1.3-4.6.2-1.9.3-3.9.3-5.8.1-2.5.3-5 .3-7.5 0-.4 0-1-.2-1.4-.5 1.2-1.4 2.6-2.9 2.6-4.1 0-4.8-5.9-4.8-9 0-1.1.8-1.6 1.8-1.6s1.2 1.2 1.2 2c0 1.2-.2 2.4 0 3.6.2.9.9 2.7 2 2.7 1.7 0 2.1-2.9 2.1-4.1 0-.9-.3-1.9-.3-2.8 0-.8.9-.9 1.5-.9 1.4 0 1.9-.1 1.9 1.5 0 .6-.1 1.2 0 1.8zM128.2 235.8c0 .8-1.1 1.4-1.8 1.4-.8 0-.9-.7-.9-1.3 0-.5.1-1.1.1-1.6 0-2.7-.2-5.5-.4-8.2-1.2.1-3.9.7-4.3 1.9-.5 1.3-.8 2.8-.9 4.2-.1 1.4 0 2.9-.2 4.2-.1.4-.3.7-.7.7-.4 0-1.6-.4-1.7-.9-.3-1.1-.2-2.6-.2-3.7 0-3 .4-5.7 2.9-7.6-2.7-1.5-3.5-4.2-3.5-7.1 0-1.1 0-3.9.3-4.9.1-.5 1.3-.8 1.8-.8.4 0 .6.4.7.8.2 1.3.1 2.8.1 4.2 0 1.4.3 2.9.7 4.2.5 1.5 3.6 2 5 2.1-.2-3.2-.6-6.5-.6-9.7 0-.5.1-1.1.7-1.1 1.2 0 2.1.1 2.1 1.5 0 .8-.1 1.5-.1 2.3 0 2.4.3 4.7.5 7.1 1.3-.1 4.3-.5 4.7-2 .5-1.3.8-2.8.9-4.2.1-1.4 0-2.9.2-4.2.1-.4.3-.7.7-.7.4 0 1.6.4 1.7.9.3 1.1.2 2.6.2 3.7 0 3-.4 5.7-2.9 7.6 2.7 1.5 3.5 4.2 3.5 7.1 0 1.1 0 3.9-.3 4.9-.1.5-1.3.8-1.8.8-.4 0-.6-.4-.7-.8-.2-1.3-.1-2.8-.1-4.2 0-1.4-.3-2.9-.7-4.2-.5-1.6-3.9-2-5.4-2.1v2.3c0 2.4.3 4.9.4 7.4zM151.4 219.6c.1 4.4 0 8.9.1 13.3 0 .8.2 1.7.2 2.5 0 .3-.1.9-.4.9-.2 0-.5-.1-.7-.2-1.2-.2-1.5-.9-1.5-2.1 0-1 .2-4.6-.2-5.4-.3-.5-.7-.6-1.3-.6-1 0-1.9-.4-2.8-.4-.7 0-.7.9-.7 1.4 0 .8.1 1.6.1 2.5 0 .7.3 1.5.3 2.2 0 .9-1.3 1-1.9 1-.7 0-1.4-.1-1.4-.9 0-.7.3-1.4.3-2 0-1.4-.2-2.8-.2-4.3 0-3.5.3-7.1.3-10.6 0-1-.1-2-.1-3 0-.4.1-.6.5-.6.7 0 2.6-.2 2.6.8 0 .6-.2 1.2-.3 1.9v1.3c0 1.6.1 3.2.1 4.7 0 .7-.2 1.4-.2 2.1 0 .8.5 1 1.2 1.1.9.1 1.8.2 2.7.2.2 0 .5 0 .6-.1.5-.3.5-2 .5-2.5 0-1.1-.1-2.1-.1-3.2 0-1 .1-2.1.1-3.1 0-.6-.1-1.3-.1-1.9 0-.8.3-1.2 1.2-1.2 1.1 0 1.5.6 1.5 1.6-.4 1.6-.4 3.1-.4 4.6zM155.1 224.7c0-5.3 2.1-11.1 8.2-11.1 6.3 0 7.6 7.4 7.6 12.3 0 5-2.2 10.8-8 10.8-6 .1-7.8-7.2-7.8-12zm2.7-.7c0 .8 0 1.5.1 2.3.2 2.5 1.9 7.8 5 7.8 4.1 0 5.3-6 5.3-9.2 0-2.9-1.2-8.6-4.9-8.6-4.5 0-5.5 4-5.5 7.7zM188.9 227.6c-5.9-.3-5.4-8-5.6-12.1v-1c0-.7.7-.7 1.2-.7s1.3-.1 1.3.7c0 2.9-.2 10.2 4.1 10.2s4.3-4.8 4.3-7.9c0-.8-.5-3.4.7-3.4 2.4 0 2 .9 2 2.9 0 5.6.2 11.3.2 16.9 0 1.1.3 3.3-1.4 3.3-1.5 0-1.5-2.6-1.5-3.6 0-2.5.2-4.9.2-7.3v-.7c-.9 2-3.1 2.9-5.1 2.9l-.4-.2zM201.9 211.7c-.4-.1-1.8-.1-2.1-.4v-.4c0-1.6-.1-2 1.7-2 1.1 0 2.1.2 3.2.2.8 0 1.6-.2 2.4-.2.6 0 1.5 0 1.5.8 0 .5.1 1 .1 1.5 0 1.1-2.8-.2-2.8 1.5 0 .4 0 .8.1 1.2.2 4.2.2 8.4.2 12.6 0 4.3 0 8.7.2 13v.8c0 .3 0 .8-.4.8s-.8-.2-1.2-.3c-.8-.3-1-.1-1-1.2 0-.5.1-1.1.1-1.6 0-8.2-.5-16.3-.5-24.5-.1-1.6-.2-1.6-1.5-1.8zM210.4 224.7c0-5.3 2.1-11.1 8.2-11.1 6.3 0 7.6 7.4 7.6 12.3 0 5-2.2 10.8-8 10.8-6 .1-7.8-7.2-7.8-12zm2.7-.7c0 .8 0 1.5.1 2.3.2 2.5 1.9 7.8 5 7.8 4.1 0 5.3-6 5.3-9.2 0-2.9-1.2-8.6-4.9-8.6-4.5 0-5.5 4-5.5 7.7zM231.9 226.2c-.4.1-.7.3-1.1.3-.1 0-.4-.1-.5 0-.2-.2-.3-2.3-.3-2.7 0-.8-.1-.7.5-.9.3-.1.6-.1.9-.1.6 0 1.2.2 1.8.2 3.1 0 6.2-.1 9.4-.2 0 .5 0 2.7-.2 3-.1.1-.3.1-.4.1-.9 0-1.9-.1-2.8-.1-1.5 0-6 .1-7.3.4zM247.8 211.7c-.4-.1-1.8-.1-2.1-.4v-.4c0-1.6-.1-2 1.7-2 1.1 0 2.1.2 3.2.2.8 0 1.6-.2 2.4-.2.6 0 1.5 0 1.5.8 0 .5.1 1 .1 1.5 0 1.1-2.8-.2-2.8 1.5 0 .4 0 .8.1 1.2.2 4.2.2 8.4.2 12.6 0 4.3 0 8.7.2 13v.8c0 .3 0 .8-.4.8s-.8-.2-1.2-.3c-.8-.3-1-.1-1-1.2 0-.5.1-1.1.1-1.6 0-8.2-.5-16.3-.5-24.5-.1-1.6-.2-1.6-1.5-1.8zM256.3 224.7c0-5.3 2.1-11.1 8.2-11.1 6.3 0 7.6 7.4 7.6 12.3 0 5-2.2 10.8-8 10.8-6 .1-7.8-7.2-7.8-12zm2.7-.7c0 .8 0 1.5.1 2.3.2 2.5 1.9 7.8 5 7.8 4.1 0 5.3-6 5.3-9.2 0-2.9-1.2-8.6-4.9-8.6-4.4 0-5.5 4-5.5 7.7zM285.6 210.1c0-.9 1.7-.7 2.3-.7 6.4 0 7.7 4.9 7.7 10.3 0 3.3-.1 6.6-.3 9.9-.1 1.4-.2 2.9-.2 4.4 0 3-1.5 6.3-4.9 6.3-1 0-2.1-.4-2.9-.9-1.7-1.2-1.6-7.3-1.6-9.3 0-2-.1-4.1.1-6.1.4-3 1.5-4.9 4.8-4.9.9 0 1.7.6 1.9.6.1 0 .2 0 .3-.1v-1.1c0-3.9-1.4-6.2-5.7-6.2-1.3 0-1.1-.9-1.4-1.9-.1-.1-.1-.2-.1-.3zm6.9 11.5c-.3-.2-.8-.2-1.2-.2-2.1 0-2.6 1.4-2.7 3.2-.1 1.4-.1 2.8-.1 4.1 0 2 .1 4 .1 5.9 0 1.3.1 3 1.9 3 .3 0 .6-.1.9-.2.6-.7.8-2.7.8-3.6.2-4 .3-8.1.3-12.2zM305.6 236.7c-.4.1-.9.2-1.4.2-4.7 0-5.9-8.3-5.9-11.8 0-3.7.3-12.2 5.5-12.2 4 0 5.8 5.9 5.8 9.1 0 1.6-.9 1.8-2.2 1.8-1.2 0-2.5-.1-3.7-.1-1 0-2.2.2-2.2 1.5 0 .7.1 1.3.2 2 .1 1.6.2 6.9 2.6 6.9 2.3 0 1.6-4.6 2.2-4.9.3-.2.6-.2.9-.2.6 0 1.3.1 1.9.1.5 0 .5.3.5.7 0 2.5-1.5 6.1-4.2 6.9zm-3.8-15.9c0 .3.7.4 1 .4.9 0 1.7-.2 2.6-.4.6-.1 1.1 0 1.1-.8 0-1.4-1.2-4.4-2.9-4.4-1.6 0-1.7 2.4-1.7 3.5v.9c0 .3-.1.6-.1.8zM323.7 230.5c.2.9 1.5 5.1 1.5 5.5 0 .4-.4.4-.7.4h-.5c-1.9-.1-1.6-.9-2-2.5-.4-1.7-1-3.4-1.4-5.1-.4-1.8-.8-3.6-1.2-5.3-.2-.7-.6-4.2-1-4.5-.5 3.5-1.1 6.9-1.4 10.4-.2 1.9-.7 3.8-.8 5.7-.1 1.1.2 1-.9 1.3-.2 0-.4.1-.5.1-.5 0-1.2-.2-1.7-.4.1-2.8 1.1-5.5 1.4-8.3.5-3.4 1-6.8 1.6-10.3.1-.8.1-3.6.7-4 .3-.2 1.2-.3 1.5-.3.3 0 .7 0 1 .1.7.3.8 2 1 2.7.9 4.9 2.2 9.7 3.4 14.5zM339.2 240.4c-.5.6-1.3.6-2 .6-4.9 0-8.2-2.3-8.2-7.4 0-2.3 1.1-4.5 3.7-4.5 1.5 0 2.9 1.1 3.5 1.1h.2c0-3.3-.1-15-1.5-17.3-.4-.7-1-1.1-1.8-1.1-1.7 0-2.8 1.8-2.8 3.4 0 1.4 0 1.7-1.4 1.7-.7 0-2.2.2-2.2-.8 0-.9.6-2.3 1-3.1 1.1-2.1 3.6-4.2 6.1-4.2.6 0 1.2.1 1.7.4 2.9 1.4 3.4 7 3.7 9.9.3 3.2.5 6.5.5 9.7 0 3.1-.1 6.3-.1 9.4-.2.6 0 1.6-.4 2.2zm-7-6.1c0 2.2 1.6 3.9 3.8 3.9.7 0 .8-.7.8-1.3 0-.9-.3-1.8-.3-2.7 0-1.8-.4-2.1-2.2-2.1-1.3 0-2.1.9-2.1 2.2zM345.5 211.7c-.4-.1-1.8-.1-2.1-.4v-.4c0-1.6-.1-2 1.7-2 1.1 0 2.1.2 3.2.2.8 0 1.6-.2 2.4-.2.6 0 1.5 0 1.5.8 0 .5.1 1 .1 1.5 0 1.1-2.8-.2-2.8 1.5 0 .4 0 .8.1 1.2.2 4.2.2 8.4.2 12.6 0 4.3 0 8.7.2 13v.8c0 .3 0 .8-.4.8s-.8-.2-1.2-.3c-.8-.3-1-.1-1-1.2 0-.5.1-1.1.1-1.6 0-8.2-.5-16.3-.5-24.5-.1-1.6-.1-1.6-1.5-1.8zM361.7 227.9c1.7 1.2 3.1 3.5 3.1 5.6 0 .8-.2 1.6-.6 2.2-1.7 2.9-5.2 2.7-8.1 2.9-.1-1.3-.2-2.6-.2-4 0-4.6.4-9.2.4-13.8 0-2.4-.1-4.9-.1-7.3 0-1.7 0-2.2 1.9-2.2 1.3 0 1.2.8 1.2 1.9 0 1.5-.3 2.9-.4 4.4-.1 1.4-.3 2.9-.3 4.3 0 1.1-.1 2.2-.1 3.2.1 2.6 1.6 1.7 3.2 2.8zm-1.9 7.4c1.1-.5 2-1.6 2-2.8 0-1.3-1.4-3-2.7-3-.7 0-.8.7-.8 1.2 0 .9.2 1.8.2 2.7 0 .5-.2 2.1.6 2.1.3-.1.5-.2.7-.2zM372.2 234.5c.2 1.3-.1 3.2-.2 4.5 0 .5-.1.9-.4.9-.6.1-.8.2-1.4.3-.4.1-.4.1-.7-.4-.3-.6-.2-1.5-.1-2.2 0-1 .1-2.3.1-3.3 0-.2 0-.3.1-.5.3-.9.9-.6 1.4-.6.7.1 1 0 1.2 1.3zM397.6 240.4c-.5.6-1.3.6-2 .6-4.9 0-8.2-2.3-8.2-7.4 0-2.3 1.1-4.5 3.7-4.5 1.5 0 2.9 1.1 3.5 1.1h.2c0-3.3-.1-15-1.5-17.3-.4-.7-1-1.1-1.8-1.1-1.7 0-2.8 1.8-2.8 3.4 0 1.4 0 1.7-1.4 1.7-.7 0-2.2.2-2.2-.8 0-.9.6-2.3 1-3.1 1.1-2.1 3.6-4.2 6.1-4.2.6 0 1.2.1 1.7.4 2.9 1.4 3.4 7 3.7 9.9.3 3.2.5 6.5.5 9.7 0 3.1-.1 6.3-.1 9.4-.2.6 0 1.6-.4 2.2zm-7-6.1c0 2.2 1.6 3.9 3.8 3.9.7 0 .8-.7.8-1.3 0-.9-.3-1.8-.3-2.7 0-1.8-.4-2.1-2.2-2.1-1.3 0-2.1.9-2.1 2.2zM422.9 219.6c.1 4.4 0 8.9.1 13.3 0 .8.2 1.7.2 2.5 0 .3-.1.9-.4.9-.2 0-.5-.1-.7-.2-1.2-.2-1.5-.9-1.5-2.1 0-1 .2-4.6-.2-5.4-.3-.5-.7-.6-1.3-.6-1 0-1.9-.4-2.8-.4-.7 0-.7.9-.7 1.4 0 .8.1 1.6.1 2.5 0 .7.3 1.5.3 2.2 0 .9-1.3 1-1.9 1-.7 0-1.4-.1-1.4-.9 0-.7.3-1.4.3-2 0-1.4-.2-2.8-.2-4.3 0-3.5.3-7.1.3-10.6 0-1-.1-2-.1-3 0-.4.1-.6.5-.6.7 0 2.6-.2 2.6.8 0 .6-.2 1.2-.3 1.9v1.3c0 1.6.1 3.2.1 4.7 0 .7-.2 1.4-.2 2.1 0 .8.5 1 1.2 1.1.9.1 1.8.2 2.7.2.2 0 .5 0 .6-.1.5-.3.5-2 .5-2.5 0-1.1-.1-2.1-.1-3.2 0-1 .1-2.1.1-3.1 0-.6-.1-1.3-.1-1.9 0-.8.3-1.2 1.2-1.2 1.1 0 1.5.6 1.5 1.6-.4 1.6-.4 3.1-.4 4.6zM433.4 236.7c-.4.1-.9.2-1.4.2-4.7 0-5.9-8.3-5.9-11.8 0-3.7.3-12.2 5.5-12.2 4 0 5.8 5.9 5.8 9.1 0 1.6-.9 1.8-2.2 1.8-1.2 0-2.5-.1-3.7-.1-1 0-2.2.2-2.2 1.5 0 .7.1 1.3.2 2 .1 1.6.2 6.9 2.6 6.9 2.3 0 1.6-4.6 2.2-4.9.3-.2.6-.2.9-.2.6 0 1.3.1 1.9.1.5 0 .5.3.5.7 0 2.5-1.4 6.1-4.2 6.9zm-3.7-15.9c0 .3.7.4 1 .4.9 0 1.7-.2 2.6-.4.6-.1 1.1 0 1.1-.8 0-1.4-1.2-4.4-2.9-4.4-1.6 0-1.7 2.4-1.7 3.5v.9c-.1.3-.1.6-.1.8zM55.9 284.1c-3.1 0-5.2-3.7-5.2-6.5 0-.4 2.3-.6 2.6-.7.2 1.5.4 4.4 2.4 4.4 1.9 0 2.5-3.9 2.5-5.3 0-3.7-.3-6.8-4.8-6.8h-.6c-.9-.1-.9-2.1-.5-3.1 1.4.1 3.7.4 4.1-1.3.4-1.7.7-3.6.7-5.4 0-1.4-.1-4.3-1.9-4.3-2 0-2.2 2.8-2.4 4.3-.4-.1-2.6-.5-2.6-.8 0-2.4 1.5-6.5 5.2-6.5 4.1 0 4.8 4.8 4.8 7.9 0 2.8-.2 6.3-3 7.7 2.5.6 3.2 2.6 3.5 5.7.1 1 .2 1.9.2 2.9 0 1.8-.2 3.6-1 5.3-.8 1.3-2.4 2.5-4 2.5zM75.9 283.6c-.5.6-1.3.6-2 .6-4.9 0-8.2-2.3-8.2-7.4 0-2.3 1.1-4.5 3.7-4.5 1.5 0 2.9 1.1 3.5 1.1h.2c0-3.3-.1-15-1.5-17.3-.4-.7-1-1.1-1.8-1.1-1.7 0-2.8 1.8-2.8 3.4 0 1.4 0 1.7-1.4 1.7-.7 0-2.2.2-2.2-.8 0-.9.6-2.3 1-3.1 1.1-2.1 3.6-4.2 6.1-4.2.6 0 1.2.1 1.7.4 2.9 1.4 3.4 7 3.7 9.9.3 3.2.5 6.5.5 9.7 0 3.1-.1 6.3-.1 9.4-.2.6 0 1.6-.4 2.2zm-7-6.1c0 2.2 1.6 3.9 3.8 3.9.7 0 .8-.7.8-1.3 0-.9-.3-1.8-.3-2.7 0-1.8-.4-2.1-2.2-2.1-1.3 0-2.1.9-2.1 2.2zM84.4 280.7c.1.7.3 1.5.3 2.2 0 .2-.1.7 0 .9-.3.4-1.9.5-2.4.5-.9 0-.8-.1-.9-.9-.1-.6-.1-1.1-.1-1.7 0-1.2.1-2.4.1-3.6 0-8.8 0-17.6-.2-26.3.5 0 2.6 0 2.8.3.1.1.1.6.1.7 0 1.8-.1 3.6-.1 5.4 0 1.2.1 2.3.1 3.5 0 1.5-.3 2.9-.3 4.4.9-2.1 2.7-3.7 4.1-5.4.6-.7 3.1-4.3 3.6-4.5l1.4.9v.2c0 1.5-7.9 9.9-7.9 10.9 0 .4.5 1 .8 1.3.7.9 5.5 10.4 5.5 10.9 0 .7-1.2 1.2-1.8 1.2-.7-.8-5.7-11-5.7-11.6-.1 3.6.1 7.2.6 10.7zM94.6 254.3c2.6.1 6.4-.2 8.1 2.3.4.6.6 1.3.6 2 0 1.8-1.5 3.8-3 4.7-.7.4-2 .6-2.5 1-.4.3-.5.9-.5 1.4 0 .7.1 1.3.1 2 0 2.9.3 5.8.5 8.7.1 1.3.4 2.6.4 3.9 0 1.1-.1 1.5-1.2 1.5-1.9 0-1.9-.5-1.9-2.2 0-4.6 0-9.3-.2-13.9-.1-2.9-.6-5.8-.6-8.8.1-.9.2-1.7.2-2.6zm5.7 6c.1-.3.2-.5.2-.8 0-1.3-1.5-2.6-2.8-2.6-.5 0-.6.4-.6.9s.1.9 0 1.4c0 .6-.2 1.2-.2 1.8 0 .5.1 1.1.8 1.1.9-.1 2.3-1 2.6-1.8zM106.3 283.4c-.1-1.2-.2-2.3-.2-3.5 0-3.3.3-6.5.4-9.8.1-3.5.1-7.1.1-10.6 0-1.5-.1-3-.1-4.5 0-1.7.1-2.2 1.9-2.2 1.1 0 1.2.6 1.2 1.5 0 1.6-.3 3.2-.4 4.8-.2 3.6-.5 7.2-.5 10.9 0 .6 0 1.3.5 1.7.5.5 1.8.6 2.6 1.1 1.7 1.1 3 3.6 3 5.6 0 .8-.2 1.6-.6 2.3-1.5 2.7-5.1 2.5-7.9 2.7zm2.2-7.8c0 .8.2 1.7.2 2.5 0 .5-.3 2.2.6 2.2 1.4 0 2.7-1.7 2.7-3s-1.4-3-2.7-3h-.2c-.5.1-.6.8-.6 1.3zm11.3 3.4c.1.7.3 1.5.3 2.2 0 .2-.1.7 0 .9-.2.4-1.8.5-2.2.5-.8 0-.7-.2-.8-.9-.1-.5-.1-1-.1-1.5 0-1.3.1-2.5.1-3.8 0-7.4-.1-14.9-.2-22.3.4 0 2.4 0 2.6.3.1.2.1.5.1.7 0 1.8-.1 3.6-.1 5.4 0 4.2.1 8.5.2 12.7-.1 2-.1 3.9.1 5.8zM123.4 263.6c0-1.8.1-3.6 0-5.3 0-.5-.1-1.5-.1-2 0-1 .3-1.1 1.4-1.1 1.1 0 2.8.6 3.7 1.2 2.8 1.7 3.7 5.5 3.7 8.5 0 3.6-2 5.1-3 6.5-.1.1 5.5 1 5.4 5.6 0 4.5-7.7 3.9-10.4 3.9-.7 0-.6-.5-.7-1-.1-.7-.1-1.4-.1-2 0-4.7-.1-9.4-.1-14.1v-.2zm4.4-3.7c-.2-.3-1.9-2.2-1.9-.9 0 3.4.2 7.5.2 10.9 0 .1 0 .2.1.2h.2c3.4-1.1 3.2-8 1.4-10.2zm4 16.5c-.1-2.1-3.7-2.4-4.9-2.4-.5 0-.6.4-.6.8 0 .9-.1 1.7-.1 2.6 0 .5.2.9.7.9 2.9 0 4.9-.4 4.9-1.9zM149 283.6c-.5.6-1.3.6-2 .6-4.9 0-8.2-2.3-8.2-7.4 0-2.3 1.1-4.5 3.7-4.5 1.5 0 2.9 1.1 3.5 1.1h.2c0-3.3-.1-15-1.5-17.3-.4-.7-1-1.1-1.8-1.1-1.7 0-2.8 1.8-2.8 3.4 0 1.4 0 1.7-1.4 1.7-.7 0-2.2.2-2.2-.8 0-.9.6-2.3 1-3.1 1.1-2.1 3.6-4.2 6.1-4.2.6 0 1.2.1 1.7.4 2.9 1.4 3.4 7 3.7 9.9.3 3.2.5 6.5.5 9.7 0 3.1-.1 6.3-.1 9.4-.2.6 0 1.6-.4 2.2zm-7.1-6.1c0 2.2 1.6 3.9 3.8 3.9.7 0 .8-.7.8-1.3 0-.9-.3-1.8-.3-2.7 0-1.8-.4-2.1-2.2-2.1-1.3 0-2.1.9-2.1 2.2zM155.3 254.9c-.4-.1-1.8-.1-2.1-.4v-.4c0-1.6-.1-2 1.7-2 1.1 0 2.1.2 3.2.2.8 0 1.6-.2 2.4-.2.6 0 1.5 0 1.5.8 0 .5.1 1 .1 1.5 0 1.1-2.8-.2-2.8 1.5 0 .4 0 .8.1 1.2.2 4.2.2 8.4.2 12.6 0 4.3 0 8.7.2 13v.8c0 .3 0 .8-.4.8s-.8-.2-1.2-.3c-.8-.3-1-.1-1-1.2 0-.5.1-1.1.1-1.6 0-8.2-.5-16.3-.5-24.5-.1-1.6-.1-1.6-1.5-1.8zM171.5 271.1c1.7 1.2 3.1 3.5 3.1 5.6 0 .8-.2 1.6-.6 2.2-1.7 2.9-5.2 2.7-8.1 2.9-.1-1.3-.2-2.6-.2-4 0-4.6.4-9.2.4-13.8 0-2.4-.1-4.9-.1-7.3 0-1.7 0-2.2 1.9-2.2 1.3 0 1.2.8 1.2 1.9 0 1.5-.3 2.9-.4 4.4-.1 1.4-.3 2.9-.3 4.3 0 1.1-.1 2.2-.1 3.2.1 2.6 1.6 1.7 3.2 2.8zm-1.9 7.4c1.1-.5 2-1.6 2-2.8 0-1.3-1.4-3-2.7-3-.7 0-.8.7-.8 1.2 0 .9.2 1.8.2 2.7 0 .5-.2 2.1.6 2.1.2-.1.5-.2.7-.2zM199.4 262.8c.1 4.4 0 8.9.1 13.3 0 .8.2 1.7.2 2.5 0 .3-.1.9-.4.9-.2 0-.5-.1-.7-.2-1.2-.2-1.5-.9-1.5-2.1 0-1 .2-4.6-.2-5.4-.3-.5-.7-.6-1.3-.6-1 0-1.9-.4-2.8-.4-.7 0-.7.9-.7 1.4 0 .8.1 1.6.1 2.5 0 .7.3 1.5.3 2.2 0 .9-1.3 1-1.9 1-.7 0-1.4-.1-1.4-.9 0-.7.3-1.4.3-2 0-1.4-.2-2.8-.2-4.3 0-3.5.3-7.1.3-10.6 0-1-.1-2-.1-3 0-.4.1-.6.5-.6.7 0 2.6-.2 2.6.8 0 .6-.2 1.2-.3 1.9v1.3c0 1.6.1 3.2.1 4.7 0 .7-.2 1.4-.2 2.1 0 .8.5 1 1.2 1.1.9.1 1.8.2 2.7.2.2 0 .5 0 .6-.1.5-.3.5-2 .5-2.5 0-1.1-.1-2.1-.1-3.2 0-1 .1-2.1.1-3.1 0-.6-.1-1.3-.1-1.9 0-.8.3-1.2 1.2-1.2 1.1 0 1.5.6 1.5 1.6-.4 1.6-.4 3.1-.4 4.6zM214.8 283.6c-.5.6-1.3.6-2 .6-4.9 0-8.2-2.3-8.2-7.4 0-2.3 1.1-4.5 3.7-4.5 1.5 0 2.9 1.1 3.5 1.1h.2c0-3.3-.1-15-1.5-17.3-.4-.7-1-1.1-1.8-1.1-1.7 0-2.8 1.8-2.8 3.4 0 1.4 0 1.7-1.4 1.7-.7 0-2.2.2-2.2-.8 0-.9.6-2.3 1-3.1 1.1-2.1 3.6-4.2 6.1-4.2.6 0 1.2.1 1.7.4 2.9 1.4 3.4 7 3.7 9.9.3 3.2.5 6.5.5 9.7 0 3.1-.1 6.3-.1 9.4-.2.6 0 1.6-.4 2.2zm-7-6.1c0 2.2 1.6 3.9 3.8 3.9.7 0 .8-.7.8-1.3 0-.9-.3-1.8-.3-2.7 0-1.8-.4-2.1-2.2-2.1-1.3 0-2.1.9-2.1 2.2zM239.5 257.3c1.1 3.1.9 5 .9 8.2 0 1 .1 2.1.1 3.1 0 .9-.1 1.8-.2 2.7-.3 3.3-.5 10.2-5.1 10.2-3.5 0-5.1-4.2-5.1-7.1 0-.6 2.2-.5 2.6-.6.1 1.2.4 4.2 2.1 4.2 2.4 0 3-5.6 3-7.4h-1c-.7 0-1.4.2-2.1.2-1.5 0-2.2-.2-2.2-1.9 0-.9.1-1.2 1.1-1.2 1.4 0 2.8.3 4.1.3 0-1.5.1-3 .1-4.4 0-1.4-.4-6.3-2.4-6.3-2.4 0-2.3 5.1-2.7 6.7-.1.5-.4.8-.9.8-.7 0-1.8-.3-1.8-1.1 0-.2.1-.4.2-.6-.1-2.9 1.5-9.1 5.3-9.1 1.9 0 3.4 1.8 4 3.3zM245.5 254.9c-.4-.1-1.8-.1-2.1-.4v-.4c0-1.6-.1-2 1.7-2 1.1 0 2.1.2 3.2.2.8 0 1.6-.2 2.4-.2.6 0 1.5 0 1.5.8 0 .5.1 1 .1 1.5 0 1.1-2.8-.2-2.8 1.5 0 .4 0 .8.1 1.2.2 4.2.2 8.4.2 12.6 0 4.3 0 8.7.2 13v.8c0 .3 0 .8-.4.8s-.8-.2-1.2-.3c-.8-.3-1-.1-1-1.2 0-.5.1-1.1.1-1.6 0-8.2-.5-16.3-.5-24.5-.1-1.6-.1-1.6-1.5-1.8zM254.1 267.9c0-5.3 2.1-11.1 8.2-11.1 6.3 0 7.6 7.4 7.6 12.3 0 5-2.2 10.8-8 10.8-6 .1-7.8-7.2-7.8-12zm2.7-.7c0 .8 0 1.5.1 2.3.2 2.5 1.9 7.8 5 7.8 4.1 0 5.3-6 5.3-9.2 0-2.9-1.2-8.6-4.9-8.6-4.5 0-5.5 4-5.5 7.7zM290.9 266.6c-1.1 2.6-4.5 6.1-4.5 8.7 0 .6.2 2.1 1 2.1 1.4 0 .7-1.7 1.2-2.1.3-.3 1.4-.3 1.9-.3h.9v.3c0 2.2-1.5 4.9-3.9 4.9-2.5 0-3.9-2.2-3.9-4.5 0-5 5.4-7.8 5.4-13.5 0-1.2-.5-3.3-2-3.3-.9 0-1.4 1.1-1.4 1.9 0 .5.2 1 .2 1.5 0 .9-.9 1.4-1.7 1.4-1.2 0-1.5-1.2-1.5-2.1 0-2.5 1.5-5.6 4.4-5.6 3.3 0 4.9 3.4 4.9 6.3-.1 1.4-.4 2.9-1 4.3zM305.6 273.7c.2.9 1.5 5.1 1.5 5.5 0 .4-.4.4-.7.4h-.5c-1.9-.1-1.6-.9-2-2.5-.4-1.7-1-3.4-1.4-5.1-.4-1.8-.8-3.6-1.2-5.3-.2-.7-.6-4.2-1-4.5-.5 3.5-1.1 6.9-1.4 10.4-.2 1.9-.7 3.8-.8 5.7-.1 1.1.2 1-.9 1.3-.2 0-.4.1-.5.1-.5 0-1.2-.2-1.7-.4.1-2.8 1.1-5.5 1.4-8.3.5-3.4 1-6.8 1.6-10.3.1-.8.1-3.6.7-4 .3-.2 1.2-.3 1.5-.3.3 0 .7 0 1 .1.7.3.8 2 1 2.7.9 4.9 2.2 9.7 3.4 14.5zM321.1 283.6c-.5.6-1.3.6-2 .6-4.9 0-8.2-2.3-8.2-7.4 0-2.3 1.1-4.5 3.7-4.5 1.5 0 2.9 1.1 3.5 1.1h.2c0-3.3-.1-15-1.5-17.3-.4-.7-1-1.1-1.8-1.1-1.7 0-2.8 1.8-2.8 3.4 0 1.4 0 1.7-1.4 1.7-.7 0-2.2.2-2.2-.8 0-.9.6-2.3 1-3.1 1.1-2.1 3.6-4.2 6.1-4.2.6 0 1.2.1 1.7.4 2.9 1.4 3.4 7 3.7 9.9.3 3.2.5 6.5.5 9.7 0 3.1-.1 6.3-.1 9.4-.2.6 0 1.6-.4 2.2zm-7.1-6.1c0 2.2 1.6 3.9 3.8 3.9.7 0 .8-.7.8-1.3 0-.9-.3-1.8-.3-2.7 0-1.8-.4-2.1-2.2-2.1-1.2 0-2.1.9-2.1 2.2zM333.9 281.4c-.7 1.5-2.2 2.7-3.9 2.7-3.1 0-5.2-3.7-5.2-6.5 0-.4 2.3-.6 2.6-.7.2 1.5.4 4.4 2.4 4.4 1.9 0 2.5-3.9 2.5-5.3 0-3.7-.3-6.8-4.8-6.8h-.6c-.9-.1-.9-2.1-.5-3.1 1.4.1 3.7.4 4.1-1.3.4-1.7.7-3.6.7-5.4 0-1.4-.1-4.3-1.9-4.3-2 0-2.2 2.8-2.4 4.3-.4-.1-2.6-.5-2.6-.8 0-2.4 1.5-6.5 5.2-6.5 4.1 0 4.8 4.8 4.8 7.9 0 2.8-.2 6.3-3 7.7 2.5.6 3.2 2.6 3.5 5.7.1 1 .2 1.9.2 2.9-.1 1.6-.3 3.5-1.1 5.1zM350.1 283.6c-.5.6-1.3.6-2 .6-4.9 0-8.2-2.3-8.2-7.4 0-2.3 1.1-4.5 3.7-4.5 1.5 0 2.9 1.1 3.5 1.1h.2c0-3.3-.1-15-1.5-17.3-.4-.7-1-1.1-1.8-1.1-1.7 0-2.8 1.8-2.8 3.4 0 1.4 0 1.7-1.4 1.7-.7 0-2.2.2-2.2-.8 0-.9.6-2.3 1-3.1 1.1-2.1 3.6-4.2 6.1-4.2.6 0 1.2.1 1.7.4 2.9 1.4 3.4 7 3.7 9.9.3 3.2.5 6.5.5 9.7 0 3.1-.1 6.3-.1 9.4-.2.6 0 1.6-.4 2.2zm-7.1-6.1c0 2.2 1.6 3.9 3.8 3.9.7 0 .8-.7.8-1.3 0-.9-.3-1.8-.3-2.7 0-1.8-.4-2.1-2.2-2.1-1.2 0-2.1.9-2.1 2.2zM375.2 262.6c-.4.3-2.5 5.2-3 6.1-1.2 2.3-2.5 4.6-3.3 7.1-.2.5-.4 2-.8 2.3-.3.2-1.5.2-1.9.2-.9 0-.9-2.2-.9-2.8 0-1.7.2-3.4.2-5.1 0-2.4-.2-4.8-.2-7.2v-2.8c0-.9-.2-1.8-.2-2.8 0-.7 1.7-1.2 2.3-1.2.5 0 .5.6.5.9 0 4.2-.1 8.4-.1 12.6 0 .7 0 1.4.2 2.1 1-1.3 3.1-5.3 3.7-6.9.6-1.6 1.5-3.1 2.1-4.7.3-.8.7-3 1.3-3.4.4-.4 1-.5 1.5-.5.7 0 1 .5 1 1.2 0 .8-.3 1.7-.3 2.5 0 5 .2 10 .2 15 0 1.1 0 2.3-.2 3.4-.1 1.2-.2.9-1.2 1-.3 0-.5.1-.8.1-.7 0-.6-1.4-.6-1.8 0-4.9.7-9.8.7-14.7-.1-.3-.1-.4-.2-.6zM404.1 279c0 .8-1.1 1.4-1.8 1.4-.8 0-.9-.7-.9-1.3 0-.5.1-1.1.1-1.6 0-2.7-.2-5.5-.4-8.2-1.2.1-3.9.7-4.3 1.9-.5 1.3-.8 2.8-.9 4.2-.1 1.4 0 2.9-.2 4.2-.1.4-.3.7-.7.7-.4 0-1.6-.4-1.7-.9-.3-1.1-.2-2.6-.2-3.7 0-3 .4-5.7 2.9-7.6-2.7-1.5-3.5-4.2-3.5-7.1 0-1.1 0-3.9.3-4.9.1-.5 1.3-.8 1.8-.8.4 0 .6.4.7.8.2 1.3.1 2.8.1 4.2 0 1.4.3 2.9.7 4.2.5 1.5 3.6 2 5 2.1-.2-3.2-.6-6.5-.6-9.7 0-.5.1-1.1.7-1.1 1.2 0 2.1.1 2.1 1.5 0 .8-.1 1.5-.1 2.3 0 2.4.3 4.7.5 7.1 1.3-.1 4.3-.5 4.7-2 .5-1.3.8-2.8.9-4.2.1-1.4 0-2.9.2-4.2.1-.4.3-.7.7-.7.4 0 1.6.4 1.7.9.3 1.1.2 2.6.2 3.7 0 3-.4 5.7-2.9 7.6 2.7 1.5 3.5 4.2 3.5 7.1 0 1.1 0 3.9-.3 4.9-.1.5-1.3.8-1.8.8-.4 0-.6-.4-.7-.8-.2-1.3-.1-2.8-.1-4.2 0-1.4-.3-2.9-.7-4.2-.5-1.6-3.9-2-5.4-2.1v2.3c0 2.4.3 4.9.4 7.4zM417.2 253.3c0-.9 1.7-.7 2.3-.7 6.4 0 7.7 4.9 7.7 10.3 0 3.3-.1 6.6-.3 9.9-.1 1.4-.2 2.9-.2 4.4 0 3-1.5 6.3-4.9 6.3-1 0-2.1-.4-2.9-.9-1.7-1.2-1.6-7.3-1.6-9.3 0-2-.1-4.1.1-6.1.4-3 1.5-4.9 4.8-4.9.9 0 1.7.6 1.9.6.1 0 .2 0 .3-.1v-1.1c0-3.9-1.4-6.2-5.7-6.2-1.3 0-1.1-.9-1.4-1.9-.1-.1-.1-.2-.1-.3zm6.9 11.5c-.3-.2-.8-.2-1.2-.2-2.1 0-2.6 1.4-2.7 3.2-.1 1.4-.1 2.8-.1 4.1 0 2 .1 4 .1 5.9 0 1.3.1 3 1.9 3 .3 0 .6-.1.9-.2.6-.7.8-2.7.8-3.6.2-4 .3-8.1.3-12.2zM442 283.6c-.5.6-1.3.6-2 .6-4.9 0-8.2-2.3-8.2-7.4 0-2.3 1.1-4.5 3.7-4.5 1.5 0 2.9 1.1 3.5 1.1h.2c0-3.3-.1-15-1.5-17.3-.4-.7-1-1.1-1.8-1.1-1.7 0-2.8 1.8-2.8 3.4 0 1.4 0 1.7-1.4 1.7-.7 0-2.2.2-2.2-.8 0-.9.6-2.3 1-3.1 1.1-2.1 3.6-4.2 6.1-4.2.6 0 1.2.1 1.7.4 2.9 1.4 3.4 7 3.7 9.9.3 3.2.5 6.5.5 9.7 0 3.1-.1 6.3-.1 9.4-.2.6 0 1.6-.4 2.2zm-7-6.1c0 2.2 1.6 3.9 3.8 3.9.7 0 .8-.7.8-1.3 0-.9-.3-1.8-.3-2.7 0-1.8-.4-2.1-2.2-2.1-1.3 0-2.1.9-2.1 2.2zM448.4 254.9c-.4-.1-1.8-.1-2.1-.4v-.4c0-1.6-.1-2 1.7-2 1.1 0 2.1.2 3.2.2.8 0 1.6-.2 2.4-.2.6 0 1.5 0 1.5.8 0 .5.1 1 .1 1.5 0 1.1-2.8-.2-2.8 1.5 0 .4 0 .8.1 1.2.2 4.2.2 8.4.2 12.6 0 4.3 0 8.7.2 13v.8c0 .3 0 .8-.4.8s-.8-.2-1.2-.3c-.8-.3-1-.1-1-1.2 0-.5.1-1.1.1-1.6 0-8.2-.5-16.3-.5-24.5-.2-1.6-.2-1.6-1.5-1.8zM464.5 271.1c1.7 1.2 3.1 3.5 3.1 5.6 0 .8-.2 1.6-.6 2.2-1.7 2.9-5.2 2.7-8.1 2.9-.1-1.3-.2-2.6-.2-4 0-4.6.4-9.2.4-13.8 0-2.4-.1-4.9-.1-7.3 0-1.7 0-2.2 1.9-2.2 1.3 0 1.2.8 1.2 1.9 0 1.5-.3 2.9-.4 4.4-.1 1.4-.3 2.9-.3 4.3 0 1.1-.1 2.2-.1 3.2.1 2.6 1.7 1.7 3.2 2.8zm-1.9 7.4c1.1-.5 2-1.6 2-2.8 0-1.3-1.4-3-2.7-3-.7 0-.8.7-.8 1.2 0 .9.2 1.8.2 2.7 0 .5-.2 2.1.6 2.1.3-.1.5-.2.7-.2zM475.1 277.7c.2 1.3-.1 3.2-.2 4.5 0 .5-.1.9-.4.9-.6.1-.8.2-1.4.3-.4.1-.4.1-.7-.4-.3-.6-.2-1.5-.1-2.2 0-1 .1-2.3.1-3.3 0-.2 0-.3.1-.5.3-.9.9-.6 1.4-.6.6.1.9 0 1.2 1.3zM60.3 298.5c.1.8.2 1.7.2 2.5 0 2.1-.3 4.3-.3 6.4 0 1.9.3 3.7.3 5.6 0 1.8-.2 3.6-.2 5.4 0 1.3.1 2.7.1 4 0 .7.1 2-.9 2-.3 0-.6-.1-.9-.2-.6-.2-1 0-1-.9 0-.7.2-1.4.2-2.1 0-1.3-.1-2.6-.1-3.8 0-4.7-.2-9.4-.2-14.2v-2.5c0-.5-.1-.8-.7-.8-1.5 0-2.9.5-4.4.5v3.2c.1 4.1.1 8.3.2 12.4 0 1.9-.1 3.9.2 5.8.1.7.3 1.3.3 2 0 .2-.1.7 0 .8-.2.4-1.9.4-2.3.4-.8 0-.7-.2-.8-.8-.1-.5-.1-.9-.1-1.4 0-1.1.1-2.2.1-3.4 0-7-.1-13.9-.1-20.9 0-.9.8-1.4 1.6-1.4 2.2 0 4.3.3 6.5.3 1.1.2 2.1-.2 2.3 1.1zM64.2 311.1c0-5.3 2.1-11.1 8.2-11.1 6.3 0 7.6 7.4 7.6 12.3 0 5-2.2 10.8-8 10.8-6 .1-7.8-7.2-7.8-12zm2.7-.7c0 .8 0 1.5.1 2.3.2 2.5 1.9 7.8 5 7.8 4.1 0 5.3-6 5.3-9.2 0-2.9-1.2-8.6-4.9-8.6-4.5 0-5.5 4-5.5 7.7zM86.7 323.9c.1.7.3 1.5.3 2.2 0 .2-.1.7 0 .9-.3.4-1.9.5-2.4.5-.9 0-.8-.1-.9-.9-.1-.6-.1-1.1-.1-1.7 0-1.2.1-2.4.1-3.6 0-8.8 0-17.6-.2-26.3.5 0 2.6 0 2.8.3.1.1.1.6.1.7 0 1.8-.1 3.6-.1 5.4 0 1.2.1 2.3.1 3.5 0 1.5-.3 2.9-.3 4.4.9-2.1 2.7-3.7 4.1-5.4.6-.7 3.1-4.3 3.6-4.5l1.4.9v.2c0 1.5-7.9 9.9-7.9 10.9 0 .4.5 1 .8 1.3.7.9 5.5 10.4 5.5 10.9 0 .7-1.2 1.2-1.8 1.2-.7-.8-5.7-11-5.7-11.6-.1 3.6.2 7.2.6 10.7z"/><path class="st12" d="M105.7 326.8c-.5.6-1.3.6-2 .6-4.9 0-8.2-2.3-8.2-7.4 0-2.3 1.1-4.5 3.7-4.5 1.5 0 2.9 1.1 3.5 1.1h.2c0-3.3-.1-15-1.5-17.3-.4-.7-1-1.1-1.8-1.1-1.7 0-2.8 1.8-2.8 3.4 0 1.4 0 1.7-1.4 1.7-.7 0-2.2.2-2.2-.8 0-.9.6-2.3 1-3.1 1.1-2.1 3.6-4.2 6.1-4.2.6 0 1.2.1 1.7.4 2.9 1.4 3.4 7 3.7 9.9.3 3.2.5 6.5.5 9.7 0 3.1-.1 6.3-.1 9.4-.2.6 0 1.6-.4 2.2zm-7.1-6.1c0 2.2 1.6 3.9 3.8 3.9.7 0 .8-.7.8-1.3 0-.9-.3-1.8-.3-2.7 0-1.8-.4-2.1-2.2-2.1-1.3 0-2.1.9-2.1 2.2zM120.8 306.8c0-1.8.1-3.6 0-5.3 0-.5-.1-1.5-.1-2 0-1 .3-1.1 1.4-1.1 1.1 0 2.8.6 3.7 1.2 2.8 1.7 3.7 5.5 3.7 8.5 0 3.6-2 5.1-3 6.5-.1.1 5.5 1 5.4 5.6 0 4.5-7.7 3.9-10.4 3.9-.7 0-.6-.5-.7-1-.1-.7-.1-1.4-.1-2 0-4.7-.1-9.4-.1-14.1v-.2zm4.4-3.7c-.2-.3-1.9-2.2-1.9-.9 0 3.4.2 7.5.2 10.9 0 .1 0 .2.1.2h.2c3.4-1.1 3.1-8 1.4-10.2zm3.9 16.5c-.1-2.1-3.7-2.4-4.9-2.4-.5 0-.6.4-.6.8 0 .9-.1 1.7-.1 2.6 0 .5.2.9.7.9 2.9 0 4.9-.4 4.9-1.9zM142 295.4c3 1.8 3.5 8.3 3.5 11.4v1.2h-1.2c-.3 0-.6 0-.9-.1-.8-.2-.6 0-.7-.8-.4-2.1.3-9.1-3-9.1-2.9 0-2.9 6.2-2.9 8.1 0 1.2.1 2.4.1 3.7 0 2.4-.3 14.8 3.2 14.8 1.1 0 1.8-1.4 2-2.2.2-.9.1-1.8.3-2.7.2-1 .2-.7 1.1-.8.6-.1 1.2-.1 1.8-.2-.2 2.5-.1 5.5-1.8 7.6-.8.9-1.9 1.6-3.1 1.6-1 0-1.9-.4-2.7-1.1-3.8-3.7-3.6-11.4-3.6-16.4 0-2.6 0-5.3.2-7.9.3-3.4 1.3-7.5 5.5-7.5.8-.2 1.5 0 2.2.4zM159.9 318.3c0 .9-.5 2.7-.8 3.6-.8 2.1-2.4 3.6-4.8 3.6-5.3 0-5.9-9.6-5.9-13.5 0-3.8.1-13 5.5-13 4 0 5.8 5.9 5.8 9.1 0 .4 0 1-.3 1.3-.5.6-3 .5-3.9.5-2.7 0-3.9-.8-3.9 2.5 0 1.1.2 2.2.2 3.3.1 1.6.3 6.8 2.6 6.8 2.2 0 1.6-4.4 2.2-4.9.2-.2.7-.2 1-.2.6 0 1.2.1 1.8.1h.1c.4.1.4.6.4.8zm-9.6-23.7c0-.7.2-1.2 1-1.2.4 0 .9.1 1.3.1h.4v.1c0 .2.1.4.1.6.1.8 0 1.7 0 2.5-.9.1-1.8.1-2.7.1.1-.8-.1-1.5-.1-2.2zm1.6 12.5c0 .3.7.4 1 .4.9 0 1.7-.2 2.6-.4.7-.1 1.1 0 1.1-.9 0-1.4-1.3-4.4-2.9-4.4-1.6 0-1.7 2.4-1.7 3.5v.9c0 .3-.1.6-.1.9zm3.2-12.5c0-.7.2-1.2 1-1.2.4 0 .9.1 1.3.1h.4l.1.1v.6c0 .8.1 1.7.1 2.5-.9.1-1.8.1-2.7.1-.1-.8-.2-1.5-.2-2.2zM181.7 295.4c3 1.8 3.5 8.3 3.5 11.4v1.2H184c-.3 0-.6 0-.9-.1-.8-.2-.6 0-.7-.8-.4-2.1.3-9.1-3-9.1-2.9 0-2.9 6.2-2.9 8.1 0 1.2.1 2.4.1 3.7 0 2.4-.3 14.8 3.2 14.8 1.1 0 1.8-1.4 2-2.2.2-.9.1-1.8.3-2.7.2-1 .2-.7 1.1-.8.6-.1 1.2-.1 1.8-.2-.2 2.5-.1 5.5-1.8 7.6-.8.9-1.9 1.6-3.1 1.6-1 0-1.9-.4-2.7-1.1-3.8-3.7-3.6-11.4-3.6-16.4 0-2.6 0-5.3.2-7.9.3-3.4 1.3-7.5 5.5-7.5.8-.2 1.5 0 2.2.4zM200.3 326.8c-.5.6-1.3.6-2 .6-4.9 0-8.2-2.3-8.2-7.4 0-2.3 1.1-4.5 3.7-4.5 1.5 0 2.9 1.1 3.5 1.1h.2c0-3.3-.1-15-1.5-17.3-.4-.7-1-1.1-1.8-1.1-1.7 0-2.8 1.8-2.8 3.4 0 1.4 0 1.7-1.4 1.7-.7 0-2.2.2-2.2-.8 0-.9.6-2.3 1-3.1 1.1-2.1 3.6-4.2 6.1-4.2.6 0 1.2.1 1.7.4 2.9 1.4 3.4 7 3.7 9.9.3 3.2.5 6.5.5 9.7 0 3.1-.1 6.3-.1 9.4-.2.6-.1 1.6-.4 2.2zm-7.1-6.1c0 2.2 1.6 3.9 3.8 3.9.7 0 .8-.7.8-1.3 0-.9-.3-1.8-.3-2.7 0-1.8-.4-2.1-2.2-2.1-1.3 0-2.1.9-2.1 2.2zM221.1 314.8c-.8 1.6-1.7 3.1-2.4 4.8-.4.9-.7 2.1-1.9 2.1h-.5c-1.4-.2-1.5-1.3-2.1-2.4-.8-1.6-1.8-3.2-2.6-4.9-.7-1.5-1.4-3-2.1-4.4-.5-1-1.1-2-1.5-3-.2-.4-.5-1.5-.8-1.8 0 2.9.2 5.8.2 8.7 0 2.6.4 5.3.4 7.9 0 .8-.1.9-.9.9-.7 0-1.6-.4-2-.4h-.1c-.2-.1-.3-.6-.3-.8 0-1.2.2-2.5.2-3.7 0-4-.1-8.1 0-12.1 0-1.1-.1-2.3-.1-3.4 0-.5 0-2.3.6-2.3 1.8 0 2.2.1 3 1.7 1.5 2.8 3.1 5.5 4.6 8.2.5 1 3.3 7.1 4 7.1.1 0 .3-.4.3-.4.7-1.2 1.2-2.5 1.8-3.7 1.5-2.9 3.1-5.7 4.6-8.6.5-.9 1.3-3.3 2.2-3.7.3-.2 1.3-.2 1.7-.2 1.2 0 1.1 1 1.1 2 0 4 .1 8.1.1 12.1 0 1.6.1 3.3.2 4.9 0 .8.2 1.6.2 2.4 0 .5-.1 1-.7 1-.3 0-.6-.2-.9-.3-.8-.3-.5.1-.8-.9-.2-.6-.2-1.2-.2-1.8 0-2.4-.1-4.8-.2-7.2-.1-1.7 0-3.5-.1-5.2 0-.4 0-.8-.1-1.2l-.1-.3c-.2 0-.5.7-.6.8-1.6 2.4-2.8 5.3-4.2 8.1zM232.4 311.1c0-5.3 2.1-11.1 8.2-11.1 6.3 0 7.6 7.4 7.6 12.3 0 5-2.2 10.8-8 10.8-6 .1-7.8-7.2-7.8-12zm2.7-.7c0 .8 0 1.5.1 2.3.2 2.5 1.9 7.8 5 7.8 4.1 0 5.3-6 5.3-9.2 0-2.9-1.2-8.6-4.9-8.6-4.5 0-5.5 4-5.5 7.7zM271.7 298.5c.1.8.2 1.7.2 2.5 0 2.1-.3 4.3-.3 6.4 0 1.9.3 3.7.3 5.6 0 1.8-.2 3.6-.2 5.4 0 1.3.1 2.7.1 4 0 .7.1 2-.9 2-.3 0-.6-.1-.9-.2-.6-.2-1 0-1-.9 0-.7.2-1.4.2-2.1 0-1.3-.1-2.6-.1-3.8 0-4.7-.2-9.4-.2-14.2v-2.5c0-.5-.1-.8-.7-.8-1.5 0-2.9.5-4.4.5v3.2c.1 4.1.1 8.3.2 12.4 0 1.9-.1 3.9.2 5.8.1.7.3 1.3.3 2 0 .2-.1.7 0 .8-.2.4-1.9.4-2.3.4-.8 0-.7-.2-.8-.8-.1-.5-.1-.9-.1-1.4 0-1.1.1-2.2.1-3.4 0-7-.1-13.9-.1-20.9 0-.9.8-1.4 1.6-1.4 2.2 0 4.3.3 6.5.3 1.1.2 2.1-.2 2.3 1.1zM275.6 311.1c0-5.3 2.1-11.1 8.2-11.1 6.3 0 7.6 7.4 7.6 12.3 0 5-2.2 10.8-8 10.8-6 .1-7.8-7.2-7.8-12zm2.7-.7c0 .8 0 1.5.1 2.3.2 2.5 1.9 7.8 5 7.8 4.1 0 5.3-6 5.3-9.2 0-2.9-1.2-8.6-4.9-8.6-4.5 0-5.5 4-5.5 7.7zM312.3 295.4c3 1.8 3.5 8.3 3.5 11.4v1.2h-1.2c-.3 0-.6 0-.9-.1-.8-.2-.6 0-.7-.8-.4-2.1.3-9.1-3-9.1-2.9 0-2.9 6.2-2.9 8.1 0 1.2.1 2.4.1 3.7 0 2.4-.3 14.8 3.2 14.8 1.1 0 1.8-1.4 2-2.2.2-.9.1-1.8.3-2.7.2-1 .2-.7 1.1-.8.6-.1 1.2-.1 1.8-.2-.2 2.5-.1 5.5-1.8 7.6-.8.9-1.9 1.6-3.1 1.6-1 0-1.9-.4-2.7-1.1-3.8-3.7-3.6-11.4-3.6-16.4 0-2.6 0-5.3.2-7.9.3-3.4 1.3-7.5 5.5-7.5.8-.2 1.6 0 2.2.4zM326 323.1c-.4.1-.9.2-1.4.2-4.7 0-5.9-8.3-5.9-11.8 0-3.7.3-12.2 5.5-12.2 4 0 5.8 5.9 5.8 9.1 0 1.6-.9 1.8-2.2 1.8-1.2 0-2.5-.1-3.7-.1-1 0-2.2.2-2.2 1.5 0 .7.1 1.3.2 2 .1 1.6.2 6.9 2.6 6.9 2.3 0 1.6-4.6 2.2-4.9.3-.2.6-.2.9-.2.6 0 1.3.1 1.9.1.5 0 .5.3.5.7 0 2.5-1.4 6.1-4.2 6.9zm-3.7-15.9c0 .3.7.4 1 .4.9 0 1.7-.2 2.6-.4.6-.1 1.1 0 1.1-.8 0-1.4-1.2-4.4-2.9-4.4-1.6 0-1.7 2.4-1.7 3.5v.9c-.1.3-.1.6-.1.8zM337.6 325c-3-.8-3.3-5.9-3.3-8.5 0-4.4 1.7-5.8 6-5.8.4 0 .7 0 1.1.1-1-2.6-7.8-2.4-7.8-8 0-1 .6-1.9 1.3-2.7 2.1-2.2 6.6-2.7 9.6-2.7h.6c.1.1.1.2.1.3 0 .7-.2 2.3-.5 3l-.1.2c-.7 0-1.5-.2-2.2-.2-1.3 0-5.2.4-5.2 2.2 0 2.5 5.5 2.8 6.6 7.8.4 1.7.5 3.5.5 5.3 0 3.9-.6 9.1-5.6 9.1-.4 0-.8 0-1.1-.1zm.3-10.9c-.3 1.4-.4 2.8-.4 4.2 0 1.2-.2 4.3 1.5 4.5.4-.1.7-.3 1-.5.8-1.3 1.2-4.9 1.2-6.4 0-.9-.1-1.9-.3-2.8-1.1 0-2.2.3-3 1zm1.2 10.1zM355.5 323.1c-.4.1-.9.2-1.4.2-4.7 0-5.9-8.3-5.9-11.8 0-3.7.3-12.2 5.5-12.2 4 0 5.8 5.9 5.8 9.1 0 1.6-.9 1.8-2.2 1.8-1.2 0-2.5-.1-3.7-.1-1 0-2.2.2-2.2 1.5 0 .7.1 1.3.2 2 .1 1.6.2 6.9 2.6 6.9 2.3 0 1.6-4.6 2.2-4.9.3-.2.6-.2.9-.2.6 0 1.3.1 1.9.1.5 0 .5.3.5.7 0 2.5-1.5 6.1-4.2 6.9zm-3.8-15.9c0 .3.7.4 1 .4.9 0 1.7-.2 2.6-.4.6-.1 1.1 0 1.1-.8 0-1.4-1.2-4.4-2.9-4.4-1.6 0-1.7 2.4-1.7 3.5v.9c0 .3-.1.6-.1.8zM384 298.5c.1.8.2 1.7.2 2.5 0 2.1-.3 4.3-.3 6.4 0 1.9.3 3.7.3 5.6 0 1.8-.2 3.6-.2 5.4 0 1.3.1 2.7.1 4 0 .7.1 2-.9 2-.3 0-.6-.1-.9-.2-.6-.2-1 0-1-.9 0-.7.2-1.4.2-2.1 0-1.3-.1-2.6-.1-3.8 0-4.7-.2-9.4-.2-14.2v-2.5c0-.5-.1-.8-.7-.8-1.5 0-2.9.5-4.4.5v3.2c.1 4.1.1 8.3.2 12.4 0 1.9-.1 3.9.2 5.8.1.7.3 1.3.3 2 0 .2-.1.7 0 .8-.2.4-1.9.4-2.3.4-.8 0-.7-.2-.8-.8-.1-.5-.1-.9-.1-1.4 0-1.1.1-2.2.1-3.4 0-7-.1-13.9-.1-20.9 0-.9.8-1.4 1.6-1.4 2.2 0 4.3.3 6.5.3 1.1.2 2.1-.2 2.3 1.1zM387.7 297.5c2.6.1 6.4-.2 8.1 2.3.4.6.6 1.3.6 2 0 1.8-1.5 3.8-3 4.7-.7.4-2 .6-2.5 1-.4.3-.5.9-.5 1.4 0 .7.1 1.3.1 2 0 2.9.3 5.8.5 8.7.1 1.3.4 2.6.4 3.9 0 1.1-.1 1.5-1.2 1.5-1.9 0-1.9-.5-1.9-2.2 0-4.6 0-9.3-.2-13.9-.1-2.9-.6-5.8-.6-8.8.1-.9.1-1.7.2-2.6zm5.6 6c.1-.3.2-.5.2-.8 0-1.3-1.5-2.6-2.8-2.6-.5 0-.6.4-.6.9s.1.9 0 1.4c0 .6-.2 1.2-.2 1.8 0 .5.1 1.1.8 1.1.9-.1 2.3-1 2.6-1.8zM399.4 311.1c0-5.3 2.1-11.1 8.2-11.1 6.3 0 7.6 7.4 7.6 12.3 0 5-2.2 10.8-8 10.8-6 .1-7.8-7.2-7.8-12zm2.7-.7c0 .8 0 1.5.1 2.3.2 2.5 1.9 7.8 5 7.8 4.1 0 5.3-6 5.3-9.2 0-2.9-1.2-8.6-4.9-8.6-4.4 0-5.5 4-5.5 7.7zM418.2 308.4v-1c0-1.6.1-3.3 0-4.9 0-.5-.1-1-.1-1.5 0-.8 1.6-1.4 2.3-1.4.6 0 .5 1.3.5 1.6v12.3c0 1.3 0 2.6.1 3.8 0 .2 0 .5.1.7 0 0 0 .3.1.3l.1-.3c.2-.5.3-1 .5-1.6.6-2.2 1.3-4.4 1.8-6.6.3-1 2.6-9.3 2.8-9.5.3-.4 1-.6 1.5-.6.8 0 1 .7 1 1.4 0 .8-.2 1.7-.2 2.5 0 3.8.2 7.7.2 11.5 0 2.5.1 4.9.1 7.4 0 1.3 0 2.5-.2 3.8-.1 1.3 0 1.1-1.2 1.2-.3 0-.5.1-.8.1-.8 0-.7-2.4-.7-2.8 0-5.6.6-11.2.6-16.7v-.8c0-.1 0-.3-.1-.3-.2 0-.6 1.5-.6 1.7-.5 1.9-.9 3.8-1.4 5.7-.8 2.8-1.6 5.7-2.5 8.5-.2.6-.4 2.4-.8 2.7-.2.1-1.6.3-1.9.3-1 0-.9-2.9-.9-3.5 0-1.9.2-3.8.2-5.7-.2-2.8-.4-5.5-.5-8.3zm3.6-11c-.1 0-.2-.5-.2-.6-.1-.6-.1-1.3-.1-1.9 1.6-.1 3.1-.1 4.7-.1 0 .6.3 1.1.3 1.7 0 .9-1 .9-1.7.9-.8 0-1.5-.1-2.3-.1-.2.1-.4.1-.7.1zM432.8 296.5c0-.9 1.7-.7 2.3-.7 6.4 0 7.7 4.9 7.7 10.3 0 3.3-.1 6.6-.3 9.9-.1 1.4-.2 2.9-.2 4.4 0 3-1.5 6.3-4.9 6.3-1 0-2.1-.4-2.9-.9-1.7-1.2-1.6-7.3-1.6-9.3 0-2-.1-4.1.1-6.1.4-3 1.5-4.9 4.8-4.9.9 0 1.7.6 1.9.6.1 0 .2 0 .3-.1v-1.1c0-3.9-1.4-6.2-5.7-6.2-1.3 0-1.1-.9-1.4-1.9-.1-.1-.1-.2-.1-.3zm6.9 11.5c-.3-.2-.8-.2-1.2-.2-2.1 0-2.6 1.4-2.7 3.2-.1 1.4-.1 2.8-.1 4.1 0 2 .1 4 .1 5.9 0 1.3.1 3 1.9 3 .3 0 .6-.1.9-.2.6-.7.8-2.7.8-3.6.2-4 .3-8.1.3-12.2zM456.9 318.3c0 .9-.5 2.7-.8 3.6-.8 2.1-2.4 3.6-4.8 3.6-5.3 0-5.9-9.6-5.9-13.5 0-3.8.1-13 5.5-13 4 0 5.8 5.9 5.8 9.1 0 .4 0 1-.3 1.3-.5.6-3 .5-3.9.5-2.7 0-3.9-.8-3.9 2.5 0 1.1.2 2.2.2 3.3.1 1.6.3 6.8 2.6 6.8 2.2 0 1.6-4.4 2.2-4.9.2-.2.7-.2 1-.2.6 0 1.2.1 1.8.1h.1c.4.1.4.6.4.8zm-9.5-23.7c0-.7.2-1.2 1-1.2.4 0 .9.1 1.3.1h.4v.1c0 .2.1.4.1.6.1.8 0 1.7 0 2.5-.9.1-1.8.1-2.7.1.1-.8-.1-1.5-.1-2.2zm1.6 12.5c0 .3.7.4 1 .4.9 0 1.7-.2 2.6-.4.7-.1 1.1 0 1.1-.9 0-1.4-1.3-4.4-2.9-4.4-1.6 0-1.7 2.4-1.7 3.5v.9c0 .3-.1.6-.1.9zm3.2-12.5c0-.7.2-1.2 1-1.2.4 0 .9.1 1.3.1h.4l.1.1v.6c0 .8.1 1.7.1 2.5-.9.1-1.8.1-2.7.1-.1-.8-.2-1.5-.2-2.2zM462.4 298.1c-.4-.1-1.8-.1-2.1-.4v-.4c0-1.6-.1-2 1.7-2 1.1 0 2.1.2 3.2.2.8 0 1.6-.2 2.4-.2.6 0 1.5 0 1.5.8 0 .5.1 1 .1 1.5 0 1.1-2.8-.2-2.8 1.5 0 .4 0 .8.1 1.2.2 4.2.2 8.4.2 12.6 0 4.3 0 8.7.2 13v.8c0 .3 0 .8-.4.8s-.8-.2-1.2-.3c-.8-.3-1-.1-1-1.2 0-.5.1-1.1.1-1.6 0-8.2-.5-16.3-.5-24.5-.1-1.6-.1-1.6-1.5-1.8zM476.3 322.3c0 .4 0 .9-.6.9-.7.1-1.5.2-2.2.2-.6 0-.9-.4-.9-1 0-.4.1-2.3.2-2.6.3-.4.8-.4 1.2-.4.7 0 1.7-.1 1.9.8.3.7.4 1.4.4 2.1z"/></g></g></switch></svg>