<svg id="Layer_1" xmlns="http://www.w3.org/2000/svg" xmlns:xlink="http://www.w3.org/1999/xlink" viewBox="0 0 521 457"><style>.st46{fill:#f0a49c}.st48,.st58,.st60{fill:none;stroke:#ae4a1f;stroke-width:2.4076;stroke-miterlimit:10}.st58,.st60{stroke:#1c0001;stroke-width:1.6715;stroke-linecap:round;stroke-linejoin:round}.st60{stroke:#000;stroke-width:1.8057}.st158{fill:#fd6b64}</style><switch><g><ellipse cx="270" cy="238.5" rx="217.9" ry="218.5" fill="#c4e5e5"/><defs><ellipse id="SVGID_25_" cx="270" cy="238.5" rx="217.9" ry="218.5"/></defs><clipPath id="SVGID_2_"><use xlink:href="#SVGID_25_" overflow="visible"/></clipPath><g clip-path="url(#SVGID_2_)"><path class="st158" d="M344 312.6c-1.3-.4 34.8 20.1 74 119.5l-66.2 51.5-33.2-95.7 25.4-75.3z"/><path class="st158" d="M264.1 288.4s-47.1 2.9-87.6 27.1c-11.8 7-18.1 20.6-16.5 34.2l21 207.8h160L371 383c2.3-14.6-.2-49.1-17.9-63.4-10.4-8.6-38.9-31.2-89-31.2z"/><path class="st46" d="M215.6 298.2s21.9-8.6 48.5-9.8 56.5 11.1 56.5 11.1l-28.8 37.2-76.2-38.5z"/><path class="st60" d="M354.4 481.4s12.3-46.3 8.7-84.9"/><g><path class="st158" d="M188.3 309.2s-62 15.1-100.1 144l99.4 35.5 26.4-97.8-25.7-81.7z"/><path class="st60" d="M175.8 484.5l11.8 4.2 26.5-76.6"/></g><g><path d="M298.9 71.7s-57.7-30.4-96.4 19.2c-19 24.3-11.8 72.3-51.7 97.2 0 0 31.7 53.8 123.1 53.8 96-.1 109.7-50.4 109.7-50.4s-29-17.3-26.1-55.5c3.1-38-22.2-85.5-58.6-64.3"/><path d="M313 184.5c2.2 11.2 7.5 15.5 22.2 12.9 11.2-2 17.9-15.4 15.8-26.6-2.2-11.2-11.2-14-22.9-10.6-8.2 2.3-17.3 13.1-15.1 24.3z" fill="#e58e88"/><path class="st46" d="M254.9 189.4l-13.4 111.5 51.7.5-2.6-99.6z"/><path d="M292.1 262.6c-22-6.2-40.6-44.9-40.6-44.9l39.1-8.6 1.5 53.5z"/><path class="st46" d="M256.3 86.3c13.1-3.4 26.9-4.2 40.1-1.5 17.9 3.6 40.7 11 43.3 42.6 4.3 52.8-2.6 92.3-29.7 104.2-20.8 9.2-35.8 5.6-59.5-7.8-8.8-5-17.2-19.6-19.5-29.7l-9.9-28.2c-.1 0-27.2-63.2 35.2-79.6z"/><path d="M311.7 135.2s-2.1 4.7 6 5.7c6.2.8 7.9 1.2 11.4 2.3 2 .6 4.3.1 5.4-1.1.9-1 .5-2.9 0-3.8-1.3-2.6-3.3-6.1-10.8-7.1-9.6-1.4-12 4-12 4zM290.2 134.5s2.5 6.1-8.5 6.9c-8.3.6-18.3 3.1-23.1 4.3-2.7.7-5.7-.1-7.1-1.8-1.2-1.4-1.1-3.1.3-4.4 2.8-2.6 13.3-8.8 23.4-9.6 12.9-1 15 4.6 15 4.6z"/><defs><path id="XMLID_18_" d="M291.3 164.3s-12.2-18.4-36.3-2.6c0 0 13.1 17.2 36.3 2.6z"/></defs><use xlink:href="#XMLID_18_" overflow="visible" fill="#fff"/><clipPath id="XMLID_8_"><use xlink:href="#XMLID_18_" overflow="visible"/></clipPath><path d="M283.6 161.5c.9 4.8-2.3 9.4-7.1 10.3-4.8.9-9.4-2.3-10.3-7.1-.9-4.8 2.3-9.4 7.1-10.3 4.8-.8 9.4 2.3 10.3 7.1z" clip-path="url(#XMLID_8_)"/><path class="st58" d="M255 161.7c4.2-3.1 8.8-4.8 12.2-5.7 3.7-1 7.7-1.2 11.5-.3 8.9 2.2 12.6 8.6 12.6 8.6"/><g><defs><path id="XMLID_17_" d="M313.4 163.2s10.3-16.9 22.8-4.1c0 0-10.1 17.4-22.8 4.1z"/></defs><use xlink:href="#XMLID_17_" overflow="visible" fill="#fff"/><clipPath id="XMLID_11_"><use xlink:href="#XMLID_17_" overflow="visible"/></clipPath><path d="M318.5 160.1c-1.1 4.6.7 9 3.8 9.7 3.2.7 6.6-2.4 7.7-7.1 1.1-4.6-.7-9-3.8-9.7-3.2-.7-6.6 2.5-7.7 7.1z" clip-path="url(#XMLID_11_)"/><path class="st58" d="M336.2 159.1c-4.4-5.7-9.8-5.1-9.8-5.1-8.3.7-13 9.2-13 9.2"/></g><path class="st48" d="M309.7 175.5l5.4 8.1-4.7 4.9"/><path class="st60" d="M283.4 193s7 9.5 23.9 3.9"/><path d="M219.8 103.8s37.6 15 8 74.2l-36.4-34 14.7-18.3 13.7-21.9z"/><g><path class="st46" d="M238.3 186.9c-2.2 11.2-7.5 15.5-22.2 12.9-11.2-2-17.9-15.4-15.8-26.6s11.2-14 22.9-10.6c8.2 2.3 17.3 13.1 15.1 24.3z"/><path class="st48" d="M212.1 174.8s10.5-2.6 14.5 12.3"/></g><path d="M209.8 118.3c2 1.4 98.6 9.6 140.8-3.2 0 0-5.7-42.6-77-38.5-54.7 3.2-63.8 41.7-63.8 41.7z"/></g></g></g></switch></svg>