<svg id="Layer_1" data-name="Layer 1" xmlns="http://www.w3.org/2000/svg" viewBox="0 0 521 457"><defs><style>.cls-1,.cls-15,.cls-9{fill:none}.cls-5{fill:#dc835e}.cls-6{fill:#eca179}.cls-7{fill:#003359}.cls-8{fill:#fdbf62}.cls-15,.cls-9{stroke:#ca5e34;stroke-linecap:round;stroke-linejoin:round}.cls-10{fill:#1b1c20}.cls-11{fill:#fff}.cls-12{clip-path:url(#clip-path-2)}.cls-13{fill:#663205}.cls-14{clip-path:url(#clip-path-3)}.cls-15{stroke-width:2px}</style><clipPath id="clip-path"><path class="cls-1" d="M321.8 77c-13.2-.3-71.8-2.1-86.5-.8-25.8 2.3-88.3 10.6-138.7 65.5-18 19.6-65.7 184.2 9.1 230.3 126 77.7 378.2-7.5 347.6-174.7C428.1 59 341.5 77.5 321.8 77z"/></clipPath><clipPath id="clip-path-2"><path class="cls-1" d="M221.2 116.9s-6-11.2-20.6-3.4c0 .1 6.6 10.5 20.6 3.4z"/></clipPath><clipPath id="clip-path-3"><path class="cls-1" d="M235.6 117.6s6.8-9.1 13.3-1.1c0-.1-6.7 9.3-13.3 1.1z"/></clipPath></defs><path d="M321.8 77c-13.2-.3-71.8-2.1-86.5-.8-25.8 2.3-88.3 10.6-138.7 65.5-18 19.6-65.7 184.2 9.1 230.3 126 77.7 378.2-7.5 347.6-174.7C428.1 59 341.5 77.5 321.8 77z" fill="#c4e5e5"/><g clip-path="url(#clip-path)"><path d="M324.9 193.5s1.1-2.4 5.3-4c.7-.3 5.8 3.8 5.8 3.8s1.3 8.5-.7 9.4-2.9-6.7-3.7-7.1-5.9.1-5.9.1l-.8-2.2z" fill="#bf6443"/><path class="cls-5" d="M326.3 191.3s1.3-2.8 6.4-5c.9-.4 7.1 3.6 7.1 3.6s1.7 9.3-.8 10.5-3.6-7.1-4.5-7.4-7.1.7-7.1.7l-1.1-2.4z"/><path class="cls-6" d="M243.7 285l73-71.2 8.1 11.3-55.4 81.3a22.47 22.47 0 0 1-17.2 9.8c-6 .2-11.7-1.9-14.7-7.1a17.7 17.7 0 0 1 6.2-24.1z"/><path class="cls-6" d="M313.3 216.6c3.8-11 3.4-19 7.5-24.7 1.7-2.3 6.3-11.5 8.1-13.7 3.2-4 6.1-9.7 8.1-9.7.8 0 2.4-.8.8 5.7-.7 2.7-7.3 13.7-8.1 17s-3.2 9.7 1.6 12.1c7.3 2.4 7.1-.1 8.9-4 .6-1.2-.6-2.5-1.6-4-3.2-4.8.8-9.7 4.8-4 .9 1.3 3.6 7.4 3.2 8.9a34.14 34.14 0 0 1-2.4 8.1c-4 10.5-12.7 11.4-17.8 14.5-.9.6-2.8 4.9-3.8 5a6.2 6.2 0 0 1-3.2-.9c-4.4-2.4-6.9-8-6.1-10.3zM235.9 228.7l-3.7 65.6c-.3 9.6 5.8 17.1 16.2 17.2 9.5.2 14.1-7.7 14.1-7.7l10.6-77.3-37.2 2.2z"/><path class="cls-7" d="M238.7 321.6s31.7 90.7 33.1 339l-39.7 2.3-57.4-338.3 64-3z"/><path class="cls-7" d="M145.8 333.9c-13.4 36-9.3 77.5-3.6 191.8 0 0-7.1 53.3-10.2 76.7-4.6 35.2-6.3 63.5-6.3 63.5l42.5.2 29.1-115.4a220.9 220.9 0 0 0 6.2-38.8l12.9-189.3-70.6 11.3z"/><path class="cls-8" d="M236.3 267.6s14.1 2.8 46.6-32.2l-27.3-47c-7.6-13.1-33.4-18.8-42.3-16.4l-2.4 1.6c-10.3 7.3-6.3 27.6-.9 38.9l26.3 55.1z"/><path class="cls-8" d="M193.8 170.4s-23.6.4-42.2 8c-4.8 1.9-9.5 16.6-9.4 21.7l3.6 133.7s73.6 14.1 96.2-5.8l3.1-130.9a12.36 12.36 0 0 0-7.4-11.6L211.3 174z"/><path class="cls-6" d="M180.8 177.8l13.1-3.7h17.3l14.4 6.3s4.7 13.8-13.1 14.7-27.4-10.7-31.7-17.3zm-45.6 62.5l-18.8 39.4a19.09 19.09 0 0 0 35.6 13.8l14.9-49z"/><path class="cls-8" d="M119.3 254.7s7.1 12.7 55.7 8.3l11.4-54.3a26.36 26.36 0 0 0-51.1-12.8l-16 58.8z"/><path class="cls-5" d="M238.4 122.1c.4 6.8 3.1 9.8 12 9.5 6.8-.2 11.9-7.6 11.6-14.4s-5.5-9.3-12.7-8.2c-4.9.6-11.2 6.3-10.9 13.1z"/><path class="cls-9" d="M255 117.1s-6-2.4-9.6 6.1"/><path class="cls-6" d="M200.6 122.7l-13.2 58.6 30.8 3.1 3.1-53.2z"/><path class="cls-5" d="M218.9 168.3c-12.8-4.9-21.8-29-21.8-29l23.8-3z"/><path class="cls-6" d="M207 61.2a52.59 52.59 0 0 1 24 1.3c10.5 3.1 23.7 8.7 23.5 27.8-.3 31.7-6.5 54.9-23.3 60.6-12.9 4.3-21.6 1.4-35-7.9-5-3.5-9.2-12.6-10-18.8l-4.4-17.4c-.1 0-12.9-39.1 25.2-45.6z"/><path class="cls-10" d="M237.1 100.1s-1.5 2.6 3.1 3.6a31.75 31.75 0 0 1 6.4 1.9 3.27 3.27 0 0 0 3.2-.3c.6-.5.4-1.6.2-2.2-.6-1.5-1.5-3.7-5.8-4.7-5.5-1.3-7.1 1.7-7.1 1.7zm-15-.8s1.2 3.6-5.1 3.7a87.55 87.55 0 0 0-13.3 1.8 4.39 4.39 0 0 1-4.1-1.2 1.77 1.77 0 0 1 .3-2.5 26.48 26.48 0 0 1 13.7-4.8c7.5-.2 8.5 3 8.5 3z"/><path class="cls-11" d="M221.2 116.9s-6-11.2-20.6-3.4c0 .1 6.6 10.5 20.6 3.4z"/><g class="cls-12"><path class="cls-13" d="M217.2 113.7a5.08 5.08 0 0 1-5.5 6.6 5.47 5.47 0 0 1-4.1-3.4 5.08 5.08 0 0 1 5.5-6.6 5.47 5.47 0 0 1 4.1 3.4z"/></g><path d="M199.9 112.3a21.94 21.94 0 0 1 5.9-2.1 15.68 15.68 0 0 1 6.1-.2 12.75 12.75 0 0 1 5.6 2.4 11.77 11.77 0 0 1 3.8 4.5 10.5 10.5 0 0 0-4.2-3.9 11.49 11.49 0 0 0-5.3-1.5 13.94 13.94 0 0 0-5.4.9 20.29 20.29 0 0 0-4.9 2.4 1.44 1.44 0 0 1-1.6-2.4c-.1 0-.1-.1 0-.1z"/><path class="cls-11" d="M235.6 117.6s6.8-9.1 13.3-1.1c0-.1-6.7 9.3-13.3 1.1z"/><g class="cls-14"><path class="cls-13" d="M239 115.7c-.8 2.6-.1 5.2 1.7 5.7s3.9-1.1 4.7-3.6.1-5.2-1.7-5.7-3.8 1-4.7 3.6z"/></g><path d="M247.6 117.2a5.9 5.9 0 0 0-2.2-2.5 5.07 5.07 0 0 0-1.5-.7 2.2 2.2 0 0 0-.8-.1h-.9a10.2 10.2 0 0 0-3.6 1.2 14.79 14.79 0 0 0-3.1 2.5 15.29 15.29 0 0 1 2.6-3.1 8.92 8.92 0 0 1 3.7-2 4.25 4.25 0 0 1 1.1-.2 4.48 4.48 0 0 1 1.2-.1 9.77 9.77 0 0 1 2.3.6 9.27 9.27 0 0 1 3.6 2.9 1.43 1.43 0 0 1-2.3 1.7c0-.1 0-.1-.1-.2z"/><path class="cls-15" d="M231.4 120.7l2.7 5-2.9 2.5m-10.3 8.2s5.4 7.1 14.1-.5"/><path class="cls-6" d="M190.9 120.3c-1.9 6.5-5.3 8.9-13.9 6.5-6.6-1.8-9.9-10.2-8-16.7s7.5-7.8 14.2-5.1c4.7 1.8 9.6 8.7 7.7 15.3z"/><path class="cls-9" d="M175.9 111.6s6.4-1 8 8.1"/><path class="cls-10" d="M256.8 100.5l-48.5-29.4s-24.2 28.6-25.1 35.7-12.6-16.3-10.9-23.8 17.2-37 40.4-29.1 35.9 9.4 42.7 23.9c4.6 9.7 1.4 22.7 1.4 22.7z"/><path class="cls-10" d="M209 68.4s-10.6 18.9-17 28.2-10.2 11.7-10.2 11.7l-6-17.6"/><path class="cls-10" d="M187.4 65s-39.2-49.3-64.1-11.1-14.4 98.9-14.4 98.9L135 170l5.9-45.5 8.4 41.8 17.5-4.8s-24.7-89.6 20.1-82.8c12.7 2 .5-13.7.5-13.7z"/><path class="cls-6" d="M113.7 443.2c5.3-.6 13.6-20.1 11.2-33.2 0 0 12.1 8.9 13.8 7s-9.9-16.1-9.9-16.1c-3.9-5.5-9.4-15.3-8.1-31.5l-19.1-2.5c-4.7 15.6-7 71.1-.4 69.5 1.5-.4 1.7-16.7 2.9-15.9 2 1.3-3.1 22.4 1.5 21.2.8-.2 2.2-5.1 3-9.9.6-3.9.7-7.9 1.2-7.6 1.5.8-1.9 16.2-1.8 17.3.2 3.2 2.2 2.6 2.8 1.2.5-1 5.4-17.4 6.4-17.2 1.3.3-6 18-3.5 17.7z"/><path class="cls-6" d="M148.6 300.4l-27.2 83.4-21.3-4.1 12.4-87.2a18.53 18.53 0 1 1 36.1 7.9z"/></g><path class="cls-6" d="M180.8 177.8l13.1-3.7h17.3l14.4 6.3s4.7 13.8-13.1 14.7-27.4-10.7-31.7-17.3z"/><path class="cls-5" d="M238.4 122.1c.4 6.8 3.1 9.8 12 9.5 6.8-.2 11.9-7.6 11.6-14.4s-5.5-9.3-12.7-8.2c-4.9.6-11.2 6.3-10.9 13.1z"/><path class="cls-9" d="M255 117.1s-6-2.4-9.6 6.1"/><path class="cls-6" d="M200.6 122.7l-13.2 58.6 30.8 3.1 3.1-53.2z"/><path class="cls-5" d="M218.9 168.3c-12.8-4.9-21.8-29-21.8-29l23.8-3z"/><path class="cls-6" d="M207 61.2a52.59 52.59 0 0 1 24 1.3c10.5 3.1 23.7 8.7 23.5 27.8-.3 31.7-6.5 54.9-23.3 60.6-12.9 4.3-21.6 1.4-35-7.9-5-3.5-9.2-12.6-10-18.8l-4.4-17.4c-.1 0-12.9-39.1 25.2-45.6z"/><path class="cls-10" d="M237.1 100.1s-1.5 2.6 3.1 3.6a31.75 31.75 0 0 1 6.4 1.9 3.27 3.27 0 0 0 3.2-.3c.6-.5.4-1.6.2-2.2-.6-1.5-1.5-3.7-5.8-4.7-5.5-1.3-7.1 1.7-7.1 1.7zm-15-.8s1.2 3.6-5.1 3.7a87.55 87.55 0 0 0-13.3 1.8 4.39 4.39 0 0 1-4.1-1.2 1.77 1.77 0 0 1 .3-2.5 26.48 26.48 0 0 1 13.7-4.8c7.5-.2 8.5 3 8.5 3z"/><path class="cls-11" d="M221.2 116.9s-6-11.2-20.6-3.4c0 .1 6.6 10.5 20.6 3.4z"/><g class="cls-12"><path class="cls-13" d="M217.2 113.7a5.08 5.08 0 0 1-5.5 6.6 5.47 5.47 0 0 1-4.1-3.4 5.08 5.08 0 0 1 5.5-6.6 5.47 5.47 0 0 1 4.1 3.4z"/></g><path d="M199.9 112.3a21.94 21.94 0 0 1 5.9-2.1 15.68 15.68 0 0 1 6.1-.2 12.75 12.75 0 0 1 5.6 2.4 11.77 11.77 0 0 1 3.8 4.5 10.5 10.5 0 0 0-4.2-3.9 11.49 11.49 0 0 0-5.3-1.5 13.94 13.94 0 0 0-5.4.9 20.29 20.29 0 0 0-4.9 2.4 1.44 1.44 0 0 1-1.6-2.4c-.1 0-.1-.1 0-.1z"/><path class="cls-11" d="M235.6 117.6s6.8-9.1 13.3-1.1c0-.1-6.7 9.3-13.3 1.1z"/><g class="cls-14"><path class="cls-13" d="M239 115.7c-.8 2.6-.1 5.2 1.7 5.7s3.9-1.1 4.7-3.6.1-5.2-1.7-5.7-3.8 1-4.7 3.6z"/></g><path d="M247.6 117.2a5.9 5.9 0 0 0-2.2-2.5 5.07 5.07 0 0 0-1.5-.7 2.2 2.2 0 0 0-.8-.1h-.9a10.2 10.2 0 0 0-3.6 1.2 14.79 14.79 0 0 0-3.1 2.5 15.29 15.29 0 0 1 2.6-3.1 8.92 8.92 0 0 1 3.7-2 4.25 4.25 0 0 1 1.1-.2 4.48 4.48 0 0 1 1.2-.1 9.77 9.77 0 0 1 2.3.6 9.27 9.27 0 0 1 3.6 2.9 1.43 1.43 0 0 1-2.3 1.7c0-.1 0-.1-.1-.2z"/><path class="cls-15" d="M231.4 120.7l2.7 5-2.9 2.5m-10.3 8.2s5.4 7.1 14.1-.5"/><path class="cls-6" d="M190.9 120.3c-1.9 6.5-5.3 8.9-13.9 6.5-6.6-1.8-9.9-10.2-8-16.7s7.5-7.8 14.2-5.1c4.7 1.8 9.6 8.7 7.7 15.3z"/><path class="cls-9" d="M175.9 111.6s6.4-1 8 8.1"/><path class="cls-10" d="M256.8 100.5l-48.5-29.4s-24.2 28.6-25.1 35.7-12.6-16.3-10.9-23.8 17.2-37 40.4-29.1 35.9 9.4 42.7 23.9c4.6 9.7 1.4 22.7 1.4 22.7z"/><path class="cls-10" d="M209 68.4s-10.6 18.9-17 28.2-10.2 11.7-10.2 11.7l-6-17.6"/><path class="cls-10" d="M187.4 65s-39.2-49.3-64.1-11.1-14.4 98.9-14.4 98.9L135 170l5.9-45.5 8.4 41.8 17.5-4.8s-24.7-89.6 20.1-82.8c12.7 2 .5-13.7.5-13.7z"/><path d="M349.08 77.51c-.13-1.06-.28-2.08-.45-3.07a19.19 19.19 0 0 1-.24-3.07 12.32 12.32 0 0 1 .1-1.29 2 2 0 0 0-.1-1.18 1.75 1.75 0 0 1 1-.7 9.79 9.79 0 0 1 1.88-.44c.69-.1 1.37-.17 2-.2h1.38c1.19 0 1.8.2 1.83.59s.12 1 .25 1.88a34.21 34.21 0 0 1 .3 4.46q0 2.37-.15 4.8T356.8 84q0 11.08.2 22t.2 22a1.93 1.93 0 0 1-.65 1.48 2.15 2.15 0 0 1-1.53.6h-1a13.54 13.54 0 0 1-1.53-.1c-.53-.07-1-.15-1.49-.25a1.39 1.39 0 0 1-.89-.45 1.83 1.83 0 0 1-.2-1v-1c0-2.5.05-5 .15-7.47s.15-5 .15-7.47c0-2.31 0-4.43-.1-6.34q-.19-6.93-.2-14.41a121.21 121.21 0 0 0-.83-14.08zm3.27 61.49h1.38c.46 0 .93.05 1.39.05a2 2 0 0 1 2 2.08c.06 1.45.1 2.9.1 4.35v4.36a2.1 2.1 0 0 1-.65 1.53 2.07 2.07 0 0 1-1.53.64h-1l-1.53-.15c-.53-.07-1-.15-1.49-.25a1.39 1.39 0 0 1-.89-.45 1.45 1.45 0 0 1-.2-.94v-1c0-1.38 0-2.75.1-4.1s.13-2.73.2-4.11a2 2 0 0 1 .59-1.49 1.88 1.88 0 0 1 1.53-.52z"/></svg>