<svg id="Layer_1" data-name="Layer 1" xmlns="http://www.w3.org/2000/svg" viewBox="0 0 500 500"><defs><style>.cls-2{fill:#fff}.cls-9{fill:#6195b5}.cls-11{fill:#f24655}.cls-12{fill:#21a498}.cls-13{fill:#3a589b}.cls-17{fill:#2c2c2c}.cls-18{fill:#654735}.cls-27{fill:#3f3e40}</style></defs><path d="M316.26 74.43c-13.78-.34-74.85-2.16-90.22-.81-26.93 2.38-92.11 11.09-144.61 68.3C62.69 162.34 12.89 334 91 382.1c131.42 81 394.39-7.86 362.52-182.2C427.11 55.64 336.74 74.93 316.26 74.43z" fill="#c4e5e5"/><path class="cls-2" d="M250.38 149.57c47.86 12.58 72.17-2.59 74-17.55 1.91-15.66-6.8-38.43-45.05-45.77-54.27-10.41-70.18 5.16-73.69 17.93-4.52 16.46.25 32.45 24.14 40.7 2.21.76 2 20 .26 26.43 2.96-1.43 18.11-16.83 20.34-21.74z"/><path d="M161.55 320.6c30.36-15.51 57.21-29.21 86.68-44.25l1.41-.72 8-4.07.49-.24 3.39-1.74c4.5 1.47 14.09 3.31 17.33 7.67 2.49 3.33 3.53 6 4.63 5.38a6.61 6.61 0 0 0 2.46-4.32c.51-5.57-5.22-7.9-6.31-13.39 4.44-2.83 15.17-5.66 16.54-12.38.49-2.35-1.26-3.75-2.6-6.07-1-1.79-1.38-4.53-3-6.13-.77-.77-2.65-.61-3.46-1.31-1.52-1.35-2-3.46-3.37-4.46-1.6-1.15-3.57-.35-5.09-.84-2-.63-3.13-2.36-5.06-2.48-2.54-.16-6.13 1-9.08 2.67-7.67 4.27-7.15 8-13.51 12.72-1.35 1-2.74 2-4.16 2.94-.33.23-.68.47-1 .69-2.49 1.7-5.09 3.34-7.76 4.93-.35.23-.71.45-1.07.66-17.25 10.22-37.53 19.08-54.47 26.74-6.4 2.88-19.25 5.32-23.47 11.45-3.37 4.95 4.01 25.76 2.48 26.55z" fill="#e28152"/><path d="M238.07 255.2c3.36 5.79 8.52 14.59 11.57 20.43l8-4.07a235 235 0 0 0-11.78-21.29c-2.52 1.73-5.12 3.34-7.79 4.93z" fill="#1c3680"/><circle cx="247.61" cy="262.97" r="7.99" fill="#10294c"/><path class="cls-2" d="M241.34 263a6.27 6.27 0 1 0 6.27-6.28 6.27 6.27 0 0 0-6.27 6.28z"/><path d="M282.86 290.33c7.29-3.05 7.67-6.84 16.14-9.17 3.24-.89 7-1.21 9.45-.45 1.85.58 2.56 2.52 4.33 3.61 1.36.83 3.46.52 4.75 2 1.11 1.29 1.06 3.46 2.22 5.12.62.88 2.5 1.16 3.05 2.1 1.14 1.92.84 4.66 1.42 6.64.75 2.57 2.12 4.35 1.1 6.52-2.93 6.21-14 6.43-19 8.12-.25 5.59 4.78 9.21 3 14.5a6.64 6.64 0 0 1-3.42 3.62c-1.22.37-1.6-2.5-3.22-6.33-2.11-5-11-9-15-11.54l-109.17 26c1.68-.4-.57-22.4 3.86-26.37 5.54-5 18.61-4.3 25.5-5.59 23.49-4.45 52.89-9.52 74.99-18.78z" fill="#ea9d5e"/><path d="M216.54 204.54c4.74-6.32 3.15-9.78 9.27-16.08 2.34-2.42 5.44-4.6 7.92-5.18 1.89-.44 3.48.88 5.56.92 1.6 0 3.25-1.3 5.12-.67 1.61.55 2.66 2.45 4.51 3.29 1 .45 2.74-.26 3.7.27 1.95 1.07 3.08 3.59 4.58 5 1.95 1.83 4 2.67 4.25 5.07.62 6.83-8.83 12.63-12.27 16.62 2.62 4.94 8.79 5.51 9.91 11a6.71 6.71 0 0 1-1.11 4.85c-.87.93-2.65-1.35-6-3.83-4.35-3.23-14.06-2.23-18.81-2.33l-81 77.67c1.24-1.19-11.84-19-10-24.69 2.26-7.09 13.86-13.13 19.15-17.74 18.07-15.71 40.85-35 55.22-54.17z" fill="#e59153"/><path d="M169.45 293.73s56-54.37 56.36-57.29-15.29-23-24.07-20.07c0 0-58.76 48.17-63.14 55.83s25.02 27.21 30.85 21.53z" fill="#f5d344"/><path class="cls-9" d="M308.05 360.2l-108.28-22.89-68.7 8.21 76.17 21.32 100.81-6.64z"/><path d="M308.05 360.21v6.9a2.39 2.39 0 0 1-2.21 2.38l-99.18 7.24a4.85 4.85 0 0 1-1.74-.17l-77.86-21.86a6.55 6.55 0 0 1-4.7-5.28l-15.54-96.28 1.35-1a3.32 3.32 0 0 1 2.64-.58l78.56 16a4.29 4.29 0 0 1 3.38 3.56l14.49 95.65z" fill="#3181bc"/><path class="cls-2" d="M140.28 305.52c.81-4.8 4.27-8.2 11.47-6.58 5.7 1.28 8.59 5.73 8.68 9.52s-2 5.76-5.75 6c-4.21.31-5.78-5.29-8.66-4.81-5.74.99-5.86-3.37-5.74-4.13z"/><path class="cls-9" d="M207.24 366.84h-2.85l-14.46-96.44-83.11-17.26 1.35-1a3.32 3.32 0 0 1 2.64-.58l79 16.13a3.69 3.69 0 0 1 2.91 3.07z"/><path class="cls-2" d="M276.91 218.48c4.06-1.58 7.93-7.16 10.53-11.73a25 25 0 1 1 7.95 8.2c-10.39 8.45-18.48 3.53-18.48 3.53z"/><path class="cls-11" d="M309.34 208.66s16.93-8.5 14.48-19.08c-2.34-10.08-12.67-5.8-14.48-1.38l2.72 2.91-2.72 3.51 3.79 3.35-4.81 4.66z"/><path class="cls-11" d="M307.33 208.66l-1.53-6.41 3.54-4-3.22-3.05 2.76-4.45-2.16-2.88s-5.53-7.16-10.48-2.27c-5.4 5.4-2.5 13.14 11.09 23.06z"/><path class="cls-12" d="M285.4 76.27c48.89 7.73 68.79-12.37 69.09-27.44.33-15.77-11.94-33.14-50.74-36.6-55-4.91-67.46 17.59-68.21 28.39-1.18 17 4.29 27.25 28.89 33.05 2.28.54-1.29 21.08-2.42 27.67 2.84-1.72 21.67-19.96 23.39-25.07z"/><path class="cls-2" d="M251.13 40.41c4.29 4.94 8.24 10.14 12.81 14.85 1.41 1.46 3.64-.77 2.23-2.23-4.57-4.71-8.52-9.91-12.81-14.86-1.34-1.53-3.56.71-2.23 2.24zM258.74 37.52c4.33 4.93 8.48 10 12.5 15.16 1.24 1.6 3.46-.65 2.23-2.23q-6-7.79-12.5-15.16c-1.34-1.53-3.56.71-2.23 2.23z"/><path class="cls-2" d="M251.42 47.51c6-2.56 12-5.11 17.92-8 1.82-.9.22-3.63-1.59-2.73-5.88 2.91-11.89 5.47-17.93 8-1.86.79-.25 3.51 1.6 2.73zM255.93 53.85a184.08 184.08 0 0 1 17-7.51c1.87-.72 1.06-3.77-.84-3a190.91 190.91 0 0 0-17.76 7.82c-1.82.91-.22 3.63 1.59 2.73zM279.32 45.66c4.21.14 8.42.4 12.63.42a1.58 1.58 0 0 0 0-3.15c-4.21 0-8.42-.29-12.63-.43-2-.07-2 3.09 0 3.16z"/><path class="cls-2" d="M287.07 50.87c.25-4.64.43-9.29.68-13.93.12-2-3-2-3.15 0-.26 4.64-.43 9.29-.69 13.93-.11 2 3 2 3.16 0z"/><path class="cls-2" d="M279 39.67a115.81 115.81 0 0 0 10.69 10.79c1.52 1.32 3.77-.9 2.23-2.23a115.81 115.81 0 0 1-10.69-10.79c-1.35-1.52-3.58.71-2.23 2.23z"/><path class="cls-2" d="M281.41 50.87a90.51 90.51 0 0 1 10.82-10.17c1.6-1.21 0-4-1.59-2.72a94.77 94.77 0 0 0-11.46 10.66c-1.4 1.47.83 3.7 2.23 2.23zM306 37.1c-3.46.45-6 4.8-4.28 8.12a3.39 3.39 0 0 0 4.28 1.37c2.35-.91 3.67-4.07 4-6.38h-3c.68 1.68 2.22 5.18 4.45 5.19s3.55-3.4 3.71-5.26c.58-6.76-6.63-10.06-12.27-7.43-5.39 2.51-8.53 9.73-5.27 15 3.46 5.65 12.49 6.58 16.51 1 1.19-1.64-1.54-3.22-2.72-1.59-2.65 3.65-9 2.41-11.07-1-1.86-3-.64-6.7 1.71-9 2.62-2.62 8.58-3.47 9.83 1a5.24 5.24 0 0 1-.59 3.8c-.43.43-.23.54.61.33a5.34 5.34 0 0 1-.74-1c-.26-.67-.8-1.24-1.08-1.92-.5-1.25-2.76-1.73-3 0-.09.55-1.26 4.89-2.52 4.28-.87-.42.82-3.3 1.49-3.39 2-.26 2-3.41 0-3.16zM325.59 57.19a1.58 1.58 0 0 0 0-3.16 1.58 1.58 0 0 0 0 3.16zM322.71 36.34c-3.71-2-.33-5.11 2.4-4.21 4 1.33.47 5.22-.49 7.52a22 22 0 0 0-1.07 11.64c.27 2 3.31 1.15 3-.84a18.73 18.73 0 0 1 .68-8.89c.78-2.19 2.65-3.94 3.09-6.25.62-3.26-2-5.77-5-6.42-6.44-1.39-10.28 6.87-4.22 10.18 1.78 1 3.37-1.76 1.59-2.73zM336.11 54v-.52a1.58 1.58 0 1 0-3.15 0V54a1.58 1.58 0 1 0 3.15 0zM336.48 49.26c.94-6.32 1.51-12.7 2.57-19 .33-2-2.71-2.84-3-.84-1.06 6.31-1.63 12.68-2.57 19-.3 2 2.74 2.84 3 .84z"/><circle class="cls-2" cx="157.96" cy="178.35" r="30.62" transform="rotate(-81.77 157.966 178.35)"/><path class="cls-2" d="M150.08 196s4.35 24.82-3.15 33.77c0 0 21.24-4.24 17.08-32.88-.01 0-4.95-17.53-13.93-.89z"/><path class="cls-13" d="M168.39 187.72c-.19 0-.18 0 0 0-.17.06-.17.06 0 0l-.12.08c.13-.11.14-.1 0 0 .09-.15.09-.14 0 0l-.06.13c.06-.17.06-.16 0 0s0 .18 0 0c.06.27 0 0-.07-.13.11.15.1.15 0 0l.09.09c-.16-.11-.17-.12 0 0 .33-.05-.27.06.1 0h.09c.17-.06.16 0 0 0 .13-.08.15-.09.06 0s-.07.07 0 0c-.1.17-.1.17 0 0-.05.15-.06.18 0 .07s0-.09 0 .09c0-.18 0-.17 0 0l-.06-.2v.06a1.64 1.64 0 0 0-.14-.22c.17.24 0 0-.11-.08.15.11.14.12 0 0a.37.37 0 0 0 .29.06l1.24-2.43a4.7 4.7 0 0 1 .78 3.55 1.58 1.58 0 0 1-3.09-.68 1.44 1.44 0 0 0-.33-1.15 1.59 1.59 0 0 1 1.24-2.44 3.42 3.42 0 0 1 3.26 3.25 3.13 3.13 0 0 1-3.1 3.22 3.2 3.2 0 0 1-3.37-2.93 3.43 3.43 0 0 1 3.15-3.54 1.58 1.58 0 0 1 .16 3.15zM164.49 180.3q-1.11-9.18-2.83-18.26l2.36.82c-4.38 2.23 2.46 14.25 3.74 17.44.75 1.89-2.25 2.87-3 1-1.82-4.57-4.61-9.49-5.44-14.36-.47-2.74.43-5.41 3-6.71.79-.4 2.15-.28 2.36.83q1.82 9.49 3 19.09c.24 2-2.91 2.16-3.15.16zM153.81 188.47c-.19 0-.19 0 0 0-.17.07-.17.06 0 0l-.11.08c.13-.12.13-.11 0 0 .09-.15.09-.14 0 0l-.06.12c.05-.17.05-.16 0 0s0 .19 0 0c0 .27 0 0-.07-.12.1.14.09.14 0 0l.09.09c-.16-.11-.16-.11 0 0-.19-.05-.2-.06 0 0s-.28.07.09 0h.09c.17-.06.16 0 0 0 .12-.09.14-.09.05 0-.1.17-.11.17 0 0 0 .16-.06.18 0 .07s0-.08 0 .1c0-.19 0-.18 0 0l-.06-.19v.06a1.76 1.76 0 0 0-.14-.23c.17.25 0 0-.11-.07.15.1.15.11 0 0a.38.38 0 0 0 .29.06l1.23-2.44a4.72 4.72 0 0 1 .78 3.56 1.58 1.58 0 0 1-3.08-.69 1.45 1.45 0 0 0-.34-1.14 1.59 1.59 0 0 1 1.24-2.44 3.4 3.4 0 0 1 3.26 3.24 3.14 3.14 0 0 1-3.1 3.23 3.19 3.19 0 0 1-3.36-2.94 3.4 3.4 0 0 1 3.15-3.53 1.58 1.58 0 0 1 .16 3.15zM149.9 181q-1.11-9.18-2.83-18.26l2.36.83c-4.38 2.23 2.46 14.24 3.74 17.43.76 1.89-2.25 2.88-3 1-1.82-4.57-4.61-9.5-5.44-14.37-.47-2.74.43-5.41 3-6.7.78-.4 2.15-.28 2.36.82 1.2 6.33 2.21 12.69 3 19.09.25 2-2.91 2.17-3.15.16z"/><path class="cls-12" d="M169.67 128c.17-6.35-5.14-14.67-9.81-20.74a36.33 36.33 0 1 1 15.49-6c5.5 18.65-5.68 26.74-5.68 26.74z"/><circle cx="240.3" cy="117.4" r="17.63" transform="rotate(-80.78 240.31 117.393)" fill="#ff6d15"/><path d="M249.52 102.35a17.63 17.63 0 0 1-24.08 24.52 17.63 17.63 0 1 0 24.08-24.52z" fill="#ff6412"/><path d="M225.07 119.26a16.37 16.37 0 0 1 29.34-10 16.37 16.37 0 1 0-27.17 18.14 16.36 16.36 0 0 1-2.17-8.14z" fill="#ff8249"/><ellipse class="cls-17" cx="233.81" cy="114.12" rx="1.3" ry="2.19"/><path class="cls-17" d="M248.09 114.12c0 1.21-.58 2.19-1.29 2.19s-1.3-1-1.3-2.19.58-2.19 1.3-2.19 1.29.98 1.29 2.19z"/><path class="cls-18" d="M247.53 125.23a.58.58 0 0 0 .94-.63 8.83 8.83 0 0 0-16.34-.16.58.58 0 0 0 .94.64c2.58-2.5 8.06-6.08 14.46.15z"/><path class="cls-17" transform="rotate(-45 234.905 109.69)" d="M234.07 106.9h1.67v5.58h-1.67z"/><path class="cls-17" transform="rotate(45 245.698 109.682)" d="M244.86 106.9h1.67v5.58h-1.67z"/><circle cx="153.73" cy="70.25" r="19.39" transform="rotate(-76.72 153.726 70.252)" fill="#ffd053"/><path d="M163.87 53.7a19.39 19.39 0 0 1-26.48 27 19.39 19.39 0 1 0 26.48-27z" fill="#ffc448"/><path d="M137 72.29a18 18 0 0 1 32.26-11 18 18 0 1 0-29.87 19.95 18 18 0 0 1-2.39-8.95z" fill="#ffd77a"/><ellipse class="cls-17" cx="146.59" cy="66.64" rx="1.43" ry="2.41"/><path class="cls-17" d="M162.3 66.64c0 1.33-.64 2.41-1.43 2.41s-1.43-1.08-1.43-2.41.64-2.41 1.43-2.41 1.43 1.08 1.43 2.41z"/><path class="cls-17" transform="rotate(-45 147.796 61.77)" d="M146.88 58.7h1.84v6.13h-1.84z"/><path class="cls-17" transform="rotate(45 159.666 61.766)" d="M158.74 58.7h1.84v6.13h-1.84z"/><path d="M160.87 79.12c-.41-4.28-3.46-7.6-7.16-7.6s-6.73 3.35-7.12 7.63z" fill="#71523f"/><path d="M146.59 79.15s6-6 14.28 0z" fill="#ff6669"/><circle cx="284.28" cy="120.8" r="17.06" fill="#76b7eb"/><path d="M293.2 106.25A17.05 17.05 0 0 1 269.91 130a17.05 17.05 0 1 0 23.29-23.72z" fill="#4aaae2"/><path d="M269.54 122.6a15.84 15.84 0 0 1 28.39-9.6 15.84 15.84 0 1 0-26.29 17.55 15.88 15.88 0 0 1-2.1-7.95z" fill="#8cc9f3"/><path class="cls-17" d="M275.08 122.41a.72.72 0 0 1-.57-.28.73.73 0 0 1 .12-1l2.46-1.91-2.54-1.5a.72.72 0 0 1 .73-1.25l3.46 2a.73.73 0 0 1 .36.58.73.73 0 0 1-.28.61l-3.3 2.57a.68.68 0 0 1-.44.18zM293.48 122.41a.71.71 0 0 1-.45-.16l-3.29-2.57a.7.7 0 0 1-.28-.61.72.72 0 0 1 .35-.58l3.46-2a.73.73 0 0 1 1 .26.72.72 0 0 1-.25 1l-2.55 1.5 2.46 1.91a.73.73 0 0 1-.44 1.3z"/><path class="cls-27" d="M271.51 114.5l.62-.11c.44-.07.85-.14 1.26-.23a10.62 10.62 0 0 0 1.68-.51 9 9 0 0 0 1.55-.78 15.45 15.45 0 0 0 1.51-1.11.12.12 0 0 1 .1 0 .1.1 0 0 1 0 .09 3.6 3.6 0 0 1-1 1.86 4.69 4.69 0 0 1-1.76 1.19 5.06 5.06 0 0 1-2 .35h-.08a4.22 4.22 0 0 1-2-.58.09.09 0 0 1 0-.08.08.08 0 0 1 .12-.09zM297.05 114.5l-.62-.11c-.44-.07-.86-.14-1.26-.23a10.31 10.31 0 0 1-1.68-.51 8.65 8.65 0 0 1-1.55-.78 14.47 14.47 0 0 1-1.52-1.11.09.09 0 0 0-.09 0 .08.08 0 0 0 0 .09 3.65 3.65 0 0 0 .95 1.86 4.86 4.86 0 0 0 1.76 1.19 5.14 5.14 0 0 0 2 .35h.08a4.22 4.22 0 0 0 2-.58.09.09 0 0 0 0-.15z"/><path class="cls-18" d="M290.16 123.59a.67.67 0 0 1 .54.26l2.31 2.87a.7.7 0 0 1-.11 1 .69.69 0 0 1-1-.11l-1.71-2.12-2.41 3.61a.71.71 0 0 1-.58.31.7.7 0 0 1-.58-.31l-2.36-3.53-2.36 3.53a.71.71 0 0 1-.58.31.7.7 0 0 1-.58-.31l-2.41-3.61-1.71 2.12a.7.7 0 0 1-1 .11.69.69 0 0 1-.1-1l2.31-2.87a.67.67 0 0 1 .57-.26.68.68 0 0 1 .55.31l2.36 3.53 2.36-3.53a.67.67 0 0 1 .58-.31.69.69 0 0 1 .58.31l2.36 3.53 2.35-3.53a.7.7 0 0 1 .55-.31z"/><path d="M90.13 400.71q1 6.12 1.83 13.14t1.55 14.08q.72 7.07 1.49 13.75t1.55 12.17a2.23 2.23 0 0 1-.65 2 6.76 6.76 0 0 0-2.2-.07 17 17 0 0 1-2.27.14 1.38 1.38 0 0 1-1.26-.64 4 4 0 0 1-.5-1.59 12.07 12.07 0 0 1-.07-1.91v-1.62a13.88 13.88 0 0 0-.14-1.62c-.1-.69-.19-1.42-.29-2.19s-.19-1.5-.29-2.2a13.54 13.54 0 0 1-.14-1.62 14.09 14.09 0 0 0-.07-1.58.86.86 0 0 0-.43-.69 2.47 2.47 0 0 0-1.12-.14h-2a3.77 3.77 0 0 0-1.3.21 2 2 0 0 0-1.37 1.69c-.09.8-.17 1.55-.21 2.27q-.15 2.31-.33 4.5c-.12 1.47-.18 2.94-.18 4.43v.94a3.55 3.55 0 0 1-.14 1 2.23 2.23 0 0 1-.43.79 1.1 1.1 0 0 1-.87.32 3.51 3.51 0 0 1-.72-.07l-.72-.14a4.35 4.35 0 0 0-1.11-.15 2.91 2.91 0 0 1-1-.14 1.59 1.59 0 0 1-.72-.5 1.83 1.83 0 0 1-.29-1.16 3.44 3.44 0 0 1 .32-1.47 6 6 0 0 0 .47-1.48 39.53 39.53 0 0 0 .9-5.61q.26-2.88.54-5.69 1.08-9.79 2.34-19.44T82.78 401c0-.34 0-.9.07-1.69s.11-1.6.19-2.42.16-1.57.28-2.26.3-1.12.54-1.26a3.05 3.05 0 0 1 1.77-.51c.84-.05 1.47-.07 1.91-.07a3.5 3.5 0 0 1 2 .43 2.23 2.23 0 0 1 .61 1.87c0 1 0 1.9-.07 2.81a17.73 17.73 0 0 0 .05 2.81zm-1.8 33.62v-.57a50.52 50.52 0 0 0-.94-9.72 92.81 92.81 0 0 1-1.39-9.72c-.53 2.54-1 4.67-1.26 6.37s-.55 3.22-.72 4.54-.28 2.59-.36 3.81-.1 2.63-.1 4.21a1.9 1.9 0 0 0 1 1.95 5.32 5.32 0 0 0 2.19.43 3 3 0 0 0 1.59-.43 2.48 2.48 0 0 1-.01-.87zM124.4 414.1c.09 4.47.14 8.89.14 13.29s0 8.82.07 13.28a17.38 17.38 0 0 0 .18 2.52 17.38 17.38 0 0 1 .18 2.52 5 5 0 0 1-.14 1q-.15.69-.72.69a2.18 2.18 0 0 1-.76-.15l-.68-.21a3.41 3.41 0 0 1-2.48-1.41 5.41 5.41 0 0 1-.62-2.77v-2.34-3.24c0-1.13 0-2.18-.11-3.17a4.27 4.27 0 0 0-.47-2 2.14 2.14 0 0 0-1.12-1 5.23 5.23 0 0 0-1.47-.18 10.2 10.2 0 0 1-2.81-.39 9.56 9.56 0 0 0-2.74-.4 1.13 1.13 0 0 0-1.29 1 12.32 12.32 0 0 0-.15 1.8c0 .81 0 1.63.11 2.45s.11 1.63.11 2.44a15.51 15.51 0 0 0 .32 2.27 10.2 10.2 0 0 1 .26 2.27 1.34 1.34 0 0 1-.44 1 2.51 2.51 0 0 1-1 .58 6.86 6.86 0 0 1-1.26.25 10.55 10.55 0 0 1-1.12.07 6.54 6.54 0 0 1-2-.28 1.4 1.4 0 0 1-.9-1.52 8.4 8.4 0 0 1 .25-2.08 8.28 8.28 0 0 0 .25-2c0-1.44-.06-2.87-.18-4.28s-.18-2.85-.18-4.29q0-5.32.26-10.62c.16-3.53.25-7.07.25-10.62 0-1 0-1.93-.07-2.91s-.08-2-.08-3a1.91 1.91 0 0 1 .15-.9c.09-.17.38-.25.86-.25h1.41a10.75 10.75 0 0 1 1.72.07 4.2 4.2 0 0 1 1.44.43 1.17 1.17 0 0 1 .62 1.12 6.76 6.76 0 0 1-.26 1.84 7.33 7.33 0 0 0-.25 1.9 11.13 11.13 0 0 0-.07 1.26v1.26c0 1.59 0 3.17.07 4.76s.07 3.16.07 4.75a14.21 14.21 0 0 1-.28 2.09 9.17 9.17 0 0 0-.22 2 1.78 1.78 0 0 0 .65 1.59 4.1 4.1 0 0 0 1.73.57l2.7.29a23.92 23.92 0 0 0 2.7.14h.64a1.09 1.09 0 0 0 1.19-1 11.1 11.1 0 0 0 .29-1.44 11.7 11.7 0 0 0 .11-1.52v-1.08c0-1.1 0-2.17-.11-3.2s-.11-2.1-.11-3.2 0-2.1.11-3.14.11-2.07.11-3.13a17.91 17.91 0 0 0-.11-1.91 17.58 17.58 0 0 1-.11-1.9 2.83 2.83 0 0 1 .51-1.8 2.12 2.12 0 0 1 1.8-.65 2.74 2.74 0 0 1 2.26.83 3.55 3.55 0 0 1 .69 2.34v4.6c0 1.53.05 3.18.1 4.71zM147.44 448.37a11.71 11.71 0 0 1-7.56-2.41 17.55 17.55 0 0 1-4.83-6 29.07 29.07 0 0 1-2.55-7.84 44 44 0 0 1-.76-7.82 38.22 38.22 0 0 1 .83-7.88 22.23 22.23 0 0 1 2.77-7.09 15.72 15.72 0 0 1 5.11-5.15 14.44 14.44 0 0 1 7.78-2 11.58 11.58 0 0 1 7.7 2.48 17.53 17.53 0 0 1 4.65 6.16 28.9 28.9 0 0 1 2.3 8 57 57 0 0 1 .61 8 34.4 34.4 0 0 1-.86 7.6 22.73 22.73 0 0 1-2.77 6.95 16 16 0 0 1-5 5.07 13.44 13.44 0 0 1-7.42 1.93zm.79-40.89a10.38 10.38 0 0 0-5.54 1.33 9.56 9.56 0 0 0-3.39 3.53 15.2 15.2 0 0 0-1.69 5 33.53 33.53 0 0 0-.47 5.58 43.79 43.79 0 0 0 .22 4.53 34.53 34.53 0 0 0 .9 4.57 24.78 24.78 0 0 0 1.94 5.19 15.53 15.53 0 0 0 3.06 4.21 5.86 5.86 0 0 0 4.18 1.73 7.13 7.13 0 0 0 5.15-2 14.75 14.75 0 0 0 3.27-4.86 25.79 25.79 0 0 0 1.73-6 36.55 36.55 0 0 0 .5-5.54 34.11 34.11 0 0 0-.46-5.15 23.9 23.9 0 0 0-1.62-5.65 14.18 14.18 0 0 0-3.06-4.54 6.49 6.49 0 0 0-4.72-1.93zM189.41 414.1c.1 4.47.15 8.89.15 13.29s0 8.82.07 13.28a17.38 17.38 0 0 0 .18 2.52 17.38 17.38 0 0 1 .18 2.52 5.21 5.21 0 0 1-.15 1c-.09.46-.33.69-.71.69a2.1 2.1 0 0 1-.76-.15l-.68-.21a3.45 3.45 0 0 1-2.49-1.41 5.42 5.42 0 0 1-.61-2.77v-2.34-3.24c0-1.13 0-2.18-.11-3.17a4.43 4.43 0 0 0-.46-2 2.14 2.14 0 0 0-1.12-1 5.3 5.3 0 0 0-1.48-.18 10.12 10.12 0 0 1-2.8-.39 9.67 9.67 0 0 0-2.74-.4 1.14 1.14 0 0 0-1.3 1 13.74 13.74 0 0 0-.14 1.8c0 .81 0 1.63.11 2.45s.11 1.63.11 2.44a13.2 13.2 0 0 0 .32 2.27 10.19 10.19 0 0 1 .25 2.27 1.33 1.33 0 0 1-.43 1 2.62 2.62 0 0 1-1 .58 6.54 6.54 0 0 1-1.26.25 10.53 10.53 0 0 1-1.11.07 6.49 6.49 0 0 1-2-.28 1.39 1.39 0 0 1-.91-1.52 8.41 8.41 0 0 1 .26-2.08 8.79 8.79 0 0 0 .25-2c0-1.44-.06-2.87-.18-4.28s-.18-2.85-.18-4.29q0-5.32.25-10.62t.25-10.62c0-1 0-1.93-.07-2.91s-.07-2-.07-3a2.09 2.09 0 0 1 .14-.9c.1-.17.39-.25.87-.25h1.4a10.88 10.88 0 0 1 1.73.07 4.34 4.34 0 0 1 1.44.43 1.16 1.16 0 0 1 .61 1.12 6.75 6.75 0 0 1-.25 1.84 6.92 6.92 0 0 0-.25 1.9 11.13 11.13 0 0 0-.07 1.26v1.26c0 1.59 0 3.17.07 4.76s.07 3.16.07 4.75a14.21 14.21 0 0 1-.29 2.09 9.82 9.82 0 0 0-.22 2 1.78 1.78 0 0 0 .65 1.59 4.15 4.15 0 0 0 1.73.57l2.7.29a24.17 24.17 0 0 0 2.7.14h.65a1.41 1.41 0 0 0 .65-.14 1.37 1.37 0 0 0 .54-.86 13.07 13.07 0 0 0 .29-1.44 11.62 11.62 0 0 0 .1-1.52v-1.08c0-1.1 0-2.17-.1-3.2s-.11-2.1-.11-3.2 0-2.1.11-3.14.1-2.07.1-3.13a17.85 17.85 0 0 0-.1-1.91 15.35 15.35 0 0 1-.11-1.9 2.83 2.83 0 0 1 .5-1.8 2.15 2.15 0 0 1 1.8-.65 2.77 2.77 0 0 1 2.27.83 3.61 3.61 0 0 1 .68 2.34v4.6c0 1.53.03 3.18.08 4.71zM216.41 413.6a8.26 8.26 0 0 0-1.15 1.91c-.58 1.12-1.18 2.37-1.8 3.74s-1.21 2.69-1.76 4-1 2.15-1.26 2.63q-1.8 3.45-3.57 7a60 60 0 0 0-3.06 7.23c-.05.24-.13.59-.25 1.05l-.36 1.36a9.9 9.9 0 0 1-.43 1.3 1.7 1.7 0 0 1-.61.83 3.41 3.41 0 0 1-.69.18 8 8 0 0 1-1.11.14l-1.16.07h-.86a1.11 1.11 0 0 1-1-.72 5.39 5.39 0 0 1-.5-1.66 14.91 14.91 0 0 1-.18-1.9v-1.41c0-1.73.07-3.43.22-5.11s.21-3.38.21-5.11q0-3.6-.21-7.2t-.22-7.2v-2.81-2.74a20.86 20.86 0 0 0-.18-2.73 21 21 0 0 1-.18-2.74 1.28 1.28 0 0 1 .54-1 5.76 5.76 0 0 1 1.3-.75 9 9 0 0 1 1.51-.51 5.53 5.53 0 0 1 1.19-.18.75.75 0 0 1 .79.69 5.6 5.6 0 0 1 .15 1.19q0 6.33-.11 12.56t-.11 12.56c0 .72 0 1.43.07 2.13a18 18 0 0 0 .29 2.12 28.37 28.37 0 0 0 1.8-2.77q1.08-1.83 2.12-3.89t2-4c.63-1.3 1.08-2.33 1.37-3.1a44.68 44.68 0 0 1 2.13-4.72q1.18-2.26 2.19-4.64c.15-.38.31-.91.51-1.58s.38-1.37.57-2.09a17 17 0 0 1 .65-2 3.14 3.14 0 0 1 .79-1.26 3.82 3.82 0 0 1 1.37-.76 5.38 5.38 0 0 1 1.66-.25 1.69 1.69 0 0 1 1.51.65 2.89 2.89 0 0 1 .43 1.65 12.85 12.85 0 0 1-.25 2.56 12.49 12.49 0 0 0-.25 2.48q0 7.56.21 15t.22 15c0 1.15 0 2.29-.07 3.42s-.12 2.27-.22 3.42c-.1.62-.18 1.07-.25 1.33a.9.9 0 0 1-.33.54 1.21 1.21 0 0 1-.68.14c-.31 0-.73 0-1.26.08a4.13 4.13 0 0 0-.76.07 4.39 4.39 0 0 1-.82.07.82.82 0 0 1-.76-.47 3.43 3.43 0 0 1-.36-1.08 10.13 10.13 0 0 1-.14-1.22v-1q0-7.42.68-14.73t.69-14.72a2.08 2.08 0 0 0-.26-1.05zM260.55 431.67c-.82 1.58-1.63 3.16-2.45 4.72s-1.61 3.15-2.38 4.78c-.19.44-.38.9-.57 1.41a5.94 5.94 0 0 1-.69 1.33 3.58 3.58 0 0 1-1 1 2.57 2.57 0 0 1-1.51.4 6.11 6.11 0 0 1-.86-.07 3.52 3.52 0 0 1-1.7-.62 4.78 4.78 0 0 1-1-1.11 6.46 6.46 0 0 1-.72-1.44 11.16 11.16 0 0 0-.72-1.59c-.86-1.68-1.73-3.32-2.59-4.93s-1.71-3.23-2.52-4.86-1.43-3-2.13-4.46-1.42-2.95-2.19-4.39l-1.59-3c-.53-1-1-2-1.51-3a18.72 18.72 0 0 1-.68-1.91 3.67 3.67 0 0 0-.83-1.62q.07 4.4.22 8.71t.21 8.64c0 2.64.19 5.3.43 8s.36 5.29.36 7.88a2.72 2.72 0 0 1-.28 1.52c-.2.24-.72.36-1.59.36a6 6 0 0 1-2.19-.44 5.45 5.45 0 0 0-1.7-.43.43.43 0 0 0-.28.07c-.2-.09-.34-.36-.44-.79a5.6 5.6 0 0 1-.14-.86q0-1.87.18-3.75c.12-1.24.18-2.49.18-3.74v-12.06-12.13q0-1.73-.15-3.42c-.09-1.13-.14-2.27-.14-3.42v-1.15a15.39 15.39 0 0 1 .14-1.55 5.49 5.49 0 0 1 .36-1.37.82.82 0 0 1 .76-.61c.91 0 1.65 0 2.23.07a3.73 3.73 0 0 1 1.47.4 3.67 3.67 0 0 1 1.16 1 10.69 10.69 0 0 1 1.11 1.84q2.31 4.17 4.65 8.24c1.56 2.72 3.08 5.46 4.57 8.25.29.48.79 1.49 1.51 3s1.5 3.13 2.34 4.79 1.66 3.13 2.45 4.43 1.38 1.94 1.76 1.94c0 0 .15-.12.29-.36a2.59 2.59 0 0 1 .29-.43 41.19 41.19 0 0 0 1.83-3.71c.56-1.27 1.14-2.53 1.77-3.78q2.29-4.32 4.64-8.57t4.65-8.56c.19-.44.45-1 .79-1.77s.69-1.5 1.08-2.27.78-1.47 1.19-2.12a3 3 0 0 1 1.26-1.26 5.13 5.13 0 0 1 1.62-.32c.79-.08 1.35-.11 1.69-.11a2.27 2.27 0 0 1 1.4.36 1.63 1.63 0 0 1 .61.9 4.86 4.86 0 0 1 .15 1.29v1.55q0 6 .07 12.06t.22 12.13c0 1.68.09 3.33.14 4.94s.1 3.25.14 4.93c.05.81.14 1.61.26 2.37a15.41 15.41 0 0 1 .18 2.38 3.43 3.43 0 0 1-.26 1.33 1.06 1.06 0 0 1-1.11.61 2.42 2.42 0 0 1-.94-.18c-.29-.12-.57-.22-.86-.32a4.66 4.66 0 0 0-.83-.25 1 1 0 0 1-.36-.11c-.07-.05-.11-.17-.11-.36a4.33 4.33 0 0 0-.21-1 12 12 0 0 1-.29-1.83c-.05-.6-.07-1.22-.07-1.84q0-3.6-.11-7.2c-.07-2.4-.16-4.8-.25-7.2-.05-1.78-.09-3.53-.11-5.26s-.09-3.48-.18-5.25v-1.26a5.79 5.79 0 0 0-.18-1.19 1.83 1.83 0 0 0-.07-.36c0-.19-.1-.29-.14-.29s-.35.23-.62.69-.44.75-.54.9q-2.37 4-4.35 8.28t-4.22 8.38zM303.24 414.1c.1 4.47.15 8.89.15 13.29s0 8.82.07 13.28a17.38 17.38 0 0 0 .18 2.52 17.38 17.38 0 0 1 .18 2.52 5.86 5.86 0 0 1-.14 1q-.15.69-.72.69a2.1 2.1 0 0 1-.76-.15l-.68-.21a3.45 3.45 0 0 1-2.49-1.41 5.42 5.42 0 0 1-.61-2.77v-2.34-3.24c0-1.13 0-2.18-.11-3.17a4.29 4.29 0 0 0-.46-2 2.14 2.14 0 0 0-1.12-1 5.3 5.3 0 0 0-1.48-.18 10.12 10.12 0 0 1-2.8-.39 9.67 9.67 0 0 0-2.74-.4 1.14 1.14 0 0 0-1.3 1 13.74 13.74 0 0 0-.14 1.8c0 .81 0 1.63.11 2.45s.11 1.63.11 2.44a13.2 13.2 0 0 0 .32 2.27 10.19 10.19 0 0 1 .25 2.27 1.33 1.33 0 0 1-.43 1 2.55 2.55 0 0 1-1 .58 6.54 6.54 0 0 1-1.26.25 10.53 10.53 0 0 1-1.11.07 6.54 6.54 0 0 1-2-.28c-.61-.2-.9-.7-.9-1.52a8.4 8.4 0 0 1 .25-2.08 8.79 8.79 0 0 0 .25-2c0-1.44-.06-2.87-.18-4.28s-.18-2.85-.18-4.29q0-5.32.25-10.62t.25-10.62c0-1 0-1.93-.07-2.91s-.07-2-.07-3a2.09 2.09 0 0 1 .14-.9c.1-.17.39-.25.87-.25h1.4a10.88 10.88 0 0 1 1.73.07 4.34 4.34 0 0 1 1.44.43 1.16 1.16 0 0 1 .61 1.12 6.75 6.75 0 0 1-.25 1.84 6.92 6.92 0 0 0-.25 1.9 11.13 11.13 0 0 0-.07 1.26v1.26c0 1.59 0 3.17.07 4.76s.07 3.16.07 4.75a14.21 14.21 0 0 1-.29 2.09 9.8 9.8 0 0 0-.21 2 1.78 1.78 0 0 0 .64 1.59 4.15 4.15 0 0 0 1.73.57l2.7.29a24.17 24.17 0 0 0 2.7.14h.65a1.09 1.09 0 0 0 1.19-1 13.07 13.07 0 0 0 .29-1.44 11.62 11.62 0 0 0 .1-1.52v-1.08c0-1.1 0-2.17-.1-3.2s-.11-2.1-.11-3.2 0-2.1.11-3.14.1-2.07.1-3.13a17.85 17.85 0 0 0-.1-1.91 15.35 15.35 0 0 1-.11-1.9 2.9 2.9 0 0 1 .5-1.8 2.15 2.15 0 0 1 1.8-.65 2.77 2.77 0 0 1 2.27.83 3.55 3.55 0 0 1 .68 2.34v4.6c0 1.53.04 3.18.08 4.71zM326.28 448.37a11.74 11.74 0 0 1-7.56-2.41 17.64 17.64 0 0 1-4.82-6 29.44 29.44 0 0 1-2.56-7.84 44.86 44.86 0 0 1-.75-7.82 38.2 38.2 0 0 1 .82-7.88 22.25 22.25 0 0 1 2.78-7.09 15.62 15.62 0 0 1 5.11-5.15 14.38 14.38 0 0 1 7.77-2 11.61 11.61 0 0 1 7.71 2.48 17.51 17.51 0 0 1 4.64 6.16 28.57 28.57 0 0 1 2.31 8 58.54 58.54 0 0 1 .61 8 34.42 34.42 0 0 1-.87 7.6 22.48 22.48 0 0 1-2.77 6.95 15.93 15.93 0 0 1-5 5.07 13.42 13.42 0 0 1-7.42 1.93zm.79-40.89a10.4 10.4 0 0 0-5.54 1.33 9.46 9.46 0 0 0-3.38 3.53 15.45 15.45 0 0 0-1.7 5 33.52 33.52 0 0 0-.46 5.58q0 2.37.21 4.53a38.13 38.13 0 0 0 .9 4.57 25.38 25.38 0 0 0 1.95 5.19 15.53 15.53 0 0 0 3.06 4.21 5.85 5.85 0 0 0 4.17 1.73 7.12 7.12 0 0 0 5.15-2 14.62 14.62 0 0 0 3.28-4.86 25.77 25.77 0 0 0 1.72-6 35.43 35.43 0 0 0 .51-5.54 34.26 34.26 0 0 0-.47-5.15 23 23 0 0 0-1.62-5.65 14.18 14.18 0 0 0-3.06-4.54 6.45 6.45 0 0 0-4.72-1.93zM362.93 392.79a9.15 9.15 0 0 1 3.6 4.18 29.57 29.57 0 0 1 2.12 6.22 45.71 45.71 0 0 1 1 6.74c.17 2.25.25 4.15.25 5.68 0 .82 0 1.61-.07 2.38H366.59a5.83 5.83 0 0 1-.93-.18l-.83-.22a.62.62 0 0 1-.33-.18.75.75 0 0 1-.07-.36 4.35 4.35 0 0 0-.14-.83 45.8 45.8 0 0 1-.29-4.68 53.83 53.83 0 0 0-.5-6.05 16.42 16.42 0 0 0-1.62-5.29 3.89 3.89 0 0 0-3.64-2.27 3.63 3.63 0 0 0-3.31 2 15.11 15.11 0 0 0-1.69 4.68 32 32 0 0 0-.62 5.4c0 1.8-.07 3.16-.07 4.07 0 1.25 0 2.47.07 3.67s.08 2.43.08 3.68v3.88c0 1.77 0 3.76.11 5.94s.26 4.46.5 6.81a46.65 46.65 0 0 0 1.08 6.44 16.44 16.44 0 0 0 1.87 4.75 3.35 3.35 0 0 0 2.88 1.84 2.71 2.71 0 0 0 1.48-.43 4.36 4.36 0 0 0 1.19-1.12 7.32 7.32 0 0 0 .83-1.47q.31-.79.54-1.44a11.3 11.3 0 0 0 .25-2.67 10.68 10.68 0 0 1 .25-2.66c.14-.48.25-.83.32-1.05a.72.72 0 0 1 .33-.43 1.28 1.28 0 0 1 .57-.11c.24 0 .6 0 1.08-.07l1.77-.18c.6-.07 1.21-.15 1.83-.25-.09 1.25-.18 2.54-.25 3.89a35.51 35.51 0 0 1-.43 4 24 24 0 0 1-1 3.86 10.32 10.32 0 0 1-1.95 3.38 8.66 8.66 0 0 1-2.77 2.3 7.25 7.25 0 0 1-3.49.87 7.47 7.47 0 0 1-5.33-2.23 17.39 17.39 0 0 1-4.35-6.84 43.38 43.38 0 0 1-2.13-8.61 72.16 72.16 0 0 1-.72-9.07q-.07-4.57-.07-8.32 0-4 .11-7.92t.39-7.92a40.25 40.25 0 0 1 .8-5.22 17.27 17.27 0 0 1 1.8-4.82 10.18 10.18 0 0 1 3.24-3.56 9.1 9.1 0 0 1 5.25-1.37 8.17 8.17 0 0 1 4.25 1.16zM379.85 398.19a5.71 5.71 0 0 0-.9-.11 11.29 11.29 0 0 1-1.26-.14c-.43-.07-.83-.16-1.19-.25a1.74 1.74 0 0 1-.75-.36 4.81 4.81 0 0 1-.08-.8v-2a2.29 2.29 0 0 1 .36-1.26 1.71 1.71 0 0 1 1-.65 8.63 8.63 0 0 1 2.05-.18 28.2 28.2 0 0 1 3.17.18 27.94 27.94 0 0 0 3.17.18 15.77 15.77 0 0 0 2.34-.18 15.57 15.57 0 0 1 2.34-.18 11.22 11.22 0 0 1 1.9.18 1.18 1.18 0 0 1 1.05 1.33c0 .48 0 1 .07 1.48s.07 1 .07 1.47a.84.84 0 0 1-.86.94c-.58.05-1.22.08-1.91.11a6.08 6.08 0 0 0-1.94.36 1.43 1.43 0 0 0-.9 1.55 9.43 9.43 0 0 0 .07 1.22 11.09 11.09 0 0 1 .07 1.15q.28 6.34.36 12.6t.07 12.6q.07 6.56.07 13t.44 13v.79a7.59 7.59 0 0 1 0 .79 3.58 3.58 0 0 1-.15 1 .72.72 0 0 1-.79.5 3.33 3.33 0 0 1-1.15-.21l-1.15-.44c-.39-.14-.71-.25-1-.32a2 2 0 0 1-.65-.29 1 1 0 0 1-.36-.57 5 5 0 0 1-.11-1.19 12.14 12.14 0 0 1 .11-1.59 12.47 12.47 0 0 0 .11-1.65q0-12.31-.51-24.48t-.5-24.48a15.88 15.88 0 0 0-.07-1.59 1.59 1.59 0 0 0-.33-.86 1.55 1.55 0 0 0-.83-.43c-.23-.03-.76-.12-1.43-.22zM412.18 430.52a16.43 16.43 0 0 1 4.43 4.93 12.12 12.12 0 0 1 1.83 6.3 8.8 8.8 0 0 1-1.15 4.46 9.17 9.17 0 0 1-3.17 3.28 14.31 14.31 0 0 1-4 1.62 22.7 22.7 0 0 1-4.5.58c-1.56 0-3.06.12-4.5.21-.14-1.34-.24-2.66-.29-4s-.07-2.61-.07-4q0-7 .4-13.86t.39-13.86c0-2.45 0-4.88-.11-7.31s-.1-4.86-.1-7.3c0-.87 0-1.59.07-2.16a2.61 2.61 0 0 1 .43-1.37 2.14 2.14 0 0 1 1.15-.76 7.64 7.64 0 0 1 2.23-.25c1.3 0 2 .37 2.16 1.12a14.29 14.29 0 0 1 .22 2.77 33.49 33.49 0 0 1-.29 4.39c-.19 1.44-.34 2.9-.43 4.39s-.17 2.87-.36 4.29a32.05 32.05 0 0 0-.29 4.28c0 1.1 0 2.2-.07 3.28s-.07 2.14-.07 3.2a6 6 0 0 0 .5 2.92 2.7 2.7 0 0 0 1.37 1.15 14.86 14.86 0 0 0 2 .57 6.68 6.68 0 0 1 2.22 1.13zm-3.75 14.83a6.78 6.78 0 0 0 2.88-2.27 5.58 5.58 0 0 0 1.16-3.42 4.91 4.91 0 0 0-.47-2 8.27 8.27 0 0 0-1.26-1.94 7.5 7.5 0 0 0-1.77-1.48 3.86 3.86 0 0 0-2-.57 1.16 1.16 0 0 0-1.26.86 5.87 5.87 0 0 0-.25 1.66 15.49 15.49 0 0 0 .22 2.66 16.56 16.56 0 0 1 .21 2.66v1.12a10.44 10.44 0 0 0 0 1.37 2.94 2.94 0 0 0 .29 1.19.91.91 0 0 0 .9.5 2.68 2.68 0 0 0 .72-.11 3.71 3.71 0 0 0 .63-.23z"/></svg>