<svg id="Layer_1" data-name="Layer 1" xmlns="http://www.w3.org/2000/svg" viewBox="0 0 521 457"><defs><style>.cls-1,.cls-10,.cls-11{fill:none}.cls-2{fill:#c4e5e5}.cls-3{fill:#fff}.cls-6{fill:#000201}.cls-11{stroke-width:.83px}.cls-8{fill:#eca079}.cls-9{fill:#f5d344}.cls-10,.cls-11{stroke-linecap:round;stroke-linejoin:round}.cls-10{stroke-width:1.03px;stroke:#ca5e36}.cls-11{stroke:#000}.cls-12{fill:#cc7c60}.cls-14{fill:#dc845e}.cls-16{fill:#1b1c20}.cls-17{fill:#604538}</style><clipPath id="clip-path"><path class="cls-1" d="M346 50c-7.73-.19-39.88-24.68-61-25-17.48-.26-34.87 17.37-42 18-27.57 2.42-94.59 28.5-148.34 87.09-19.19 20.92-70.19 196.69 9.76 246C239 459 508.28 368 475.65 189.46 448.65 41.74 367 50.51 346 50z"/></clipPath><clipPath id="clip-path-2"><path class="cls-1" d="M233.89 102s-6.29-9.52-18.69-1.38c0-.01 6.73 8.83 18.69 1.38z"/></clipPath><clipPath id="clip-path-3"><path class="cls-1" d="M246.78 101.41s5.33-8.71 11.75-2.08c0 0-5.2 8.95-11.75 2.08z"/></clipPath></defs><path class="cls-2" d="M321.82 77c-13.22-.32-71.77-2.07-86.51-.78-25.82 2.27-88.31 10.63-138.66 65.49-18 19.59-65.72 184.17 9.14 230.31 126 77.66 378.16-7.54 347.61-174.71C428.11 59 341.46 77.48 321.82 77z"/><rect class="cls-3" x="327.21" y="137.51" width="100.32" height="22.21" rx="11.1"/><rect class="cls-3" x="327.21" y="163.21" width="100.32" height="22.21" rx="11.1"/><rect x="325.9" y="161.68" width="102.95" height="25.16" rx="12" stroke-miterlimit="10" stroke="#569b97" fill="none"/><rect class="cls-3" x="327.21" y="188.91" width="100.32" height="22.21" rx="11.1"/><path d="M357.53 150.38c-.19.37-.38.74-.58 1.11s-.38.74-.56 1.13c0 .1-.09.21-.13.33a3 3 0 0 1-.16.31.84.84 0 0 1-.23.23.64.64 0 0 1-.36.09h-.2a.84.84 0 0 1-.4-.14 1 1 0 0 1-.25-.26 3.59 3.59 0 0 1-.17-.34 2.43 2.43 0 0 0-.16-.37c-.21-.4-.41-.79-.62-1.17s-.4-.76-.59-1.14l-.5-1a10.38 10.38 0 0 0-.52-1c-.18-.3-.24-.47-.37-.7l-.35-.7c-.06-.15-.12-.3-.17-.45a.81.81 0 0 0-.19-.38c0 .69 0 1.37.05 2s0 1.35.05 2 .05 1.25.1 1.88.09 1.24.09 1.85a.75.75 0 0 1-.07.36c-.05.06-.17.08-.37.08a1.34 1.34 0 0 1-.52-.1 1.12 1.12 0 0 0-.4-.1h-.07a.35.35 0 0 1-.1-.19v-.2a6.46 6.46 0 0 1 0-.88v-8.57a2.16 2.16 0 0 1 0-.36 1.16 1.16 0 0 1 .08-.32q.06-.15.18-.15h.53a1.06 1.06 0 0 1 .35.09.88.88 0 0 1 .27.24 2.73 2.73 0 0 1 .26.43c.36.66.73 1.31 1.09 1.94s.73 1.29 1.08 2c.07.11.19.35.36.71s.35.74.55 1.13a10.45 10.45 0 0 0 .57 1c.18.27.33.46.42.46s0 0 .07-.09l.06-.1a8.86 8.86 0 0 0 .44-.87c.13-.3.27-.6.41-.89.36-.68.73-1.35 1.1-2s.73-1.34 1.09-2l.19-.41c.08-.18.16-.36.25-.54a4.91 4.91 0 0 1 .28-.5.86.86 0 0 1 .3-.3 1.59 1.59 0 0 1 .38-.07h.4a.55.55 0 0 1 .33.09.38.38 0 0 1 .14.21 1.61 1.61 0 0 1 0 .31v3.2c0 .94 0 1.9.05 2.86v2.32a5.32 5.32 0 0 0 .06.56 2.62 2.62 0 0 1 0 .56.81.81 0 0 1-.06.31.24.24 0 0 1-.26.15.54.54 0 0 1-.22-.05l-.2-.07a.66.66 0 0 0-.2-.06h-.08v-.08a.69.69 0 0 0-.05-.24 3.21 3.21 0 0 1-.07-.43V151l-.06-1.7v-1.23a10.45 10.45 0 0 0-.05-1.24v-.3a1.31 1.31 0 0 0 0-.28v-.15a.46.46 0 0 0-.14.16 2.39 2.39 0 0 1-.13.21c-.37.67-.7 1.32-1 1.95s-.68 1.28-1 1.94zm9 3.93a2.79 2.79 0 0 1-1.78-.57 4.14 4.14 0 0 1-1.14-1.42 6.79 6.79 0 0 1-.6-1.85 9.49 9.49 0 0 1-.18-1.84 8.9 8.9 0 0 1 .2-1.86 5.23 5.23 0 0 1 .65-1.67 3.75 3.75 0 0 1 1.2-1.21 3.44 3.44 0 0 1 1.83-.46 2.72 2.72 0 0 1 1.82.58 4 4 0 0 1 1.09 1.45 6.23 6.23 0 0 1 .54 1.88 11.82 11.82 0 0 1 .15 1.88 8.32 8.32 0 0 1-.2 1.79 5.43 5.43 0 0 1-.66 1.64 3.6 3.6 0 0 1-1.17 1.19 3.08 3.08 0 0 1-1.75.47zm.18-9.63a2.48 2.48 0 0 0-1.3.31 2.27 2.27 0 0 0-.8.83 4.05 4.05 0 0 0-.4 1.17 8.4 8.4 0 0 0-.11 1.32 7.46 7.46 0 0 0 .05 1.07 9.66 9.66 0 0 0 .22 1.07 5.43 5.43 0 0 0 .45 1.22 3.75 3.75 0 0 0 .72 1 1.4 1.4 0 0 0 1 .4 1.7 1.7 0 0 0 1.21-.46 3.58 3.58 0 0 0 .77-1.15A6.3 6.3 0 0 0 369 150a7.11 7.11 0 0 0 0-2.52 5.62 5.62 0 0 0-.38-1.33 3.57 3.57 0 0 0-.73-1.07 1.5 1.5 0 0 0-1.14-.4zm4.94-2.81a.06.06 0 0 0 0-.06v-.05a.27.27 0 0 1 .14-.23 1.12 1.12 0 0 1 .31-.1 2.16 2.16 0 0 1 .36 0h.28a3.78 3.78 0 0 1 1.84.4 3.08 3.08 0 0 1 1.1 1.08 4.71 4.71 0 0 1 .54 1.54 10.08 10.08 0 0 1 .14 1.82v2.33c0 .78 0 1.55-.11 2.33 0 .34-.05.68-.07 1s0 .68 0 1A4.43 4.43 0 0 1 376 154a3.35 3.35 0 0 1-.41 1 2.37 2.37 0 0 1-.72.69 1.78 1.78 0 0 1-1 .28 2.28 2.28 0 0 1-.73-.12 3 3 0 0 1-.64-.32 1.36 1.36 0 0 1-.44-.79 7.55 7.55 0 0 1-.22-1.26c0-.46-.07-.9-.08-1.34s0-.77 0-1v-1.44a11.56 11.56 0 0 1 .06-1.44 3.36 3.36 0 0 1 .61-1.67A2 2 0 0 1 374 146a1 1 0 0 1 .57.15.73.73 0 0 0 .31.14h.12v-.53a3.46 3.46 0 0 0-.59-2.14 2.45 2.45 0 0 0-2.09-.77.75.75 0 0 1-.33-.07.41.41 0 0 1-.17-.2 2.31 2.31 0 0 1-.1-.28.94.94 0 0 0-.03-.43zm3.13 11.1c.05-1 .08-1.94.09-2.9s0-1.92 0-2.9a.79.79 0 0 0-.26-.08h-.28a1 1 0 0 0-1 .43 2.82 2.82 0 0 0-.3 1.1v4.79a3.84 3.84 0 0 0 0 .48 1.52 1.52 0 0 0 .1.47.68.68 0 0 0 .26.34.81.81 0 0 0 .5.14 1.13 1.13 0 0 0 .44-.1.88.88 0 0 0 .17-.35 2.37 2.37 0 0 0 .11-.46 1.15 1.15 0 0 1 .07-.48 3.63 3.63 0 0 0 .1-.45zm7.65-9.56a20 20 0 0 0 .19 2.19 20.64 20.64 0 0 1 .12 2.22v1.45c0 .45 0 1-.09 1.46s-.06.87-.11 1.44a8.5 8.5 0 0 1-.32 1.67 4.28 4.28 0 0 1-.7 1.4 1.51 1.51 0 0 1-1.28.58 2 2 0 0 1-1.65-.68 2.58 2.58 0 0 1-.57-1.71v-.59a1.63 1.63 0 0 1 .12-.54.85.85 0 0 1 .3-.4 1.05 1.05 0 0 1 .6-.15h.11a.14.14 0 0 1 .06.11.43.43 0 0 1-.06.22.43.43 0 0 0-.06.22v.6a5.21 5.21 0 0 0 .13.79 2.38 2.38 0 0 0 .28.68.51.51 0 0 0 .44.29.55.55 0 0 0 .28-.07l.23-.18a1.39 1.39 0 0 0 .31-.45 2.75 2.75 0 0 0 .16-.56c0-.2.06-.4.08-.6a5.32 5.32 0 0 1 .06-.56c0-.46.07-.91.1-1.36s0-.91 0-1.37.05-1.18.07-1.77.05-1.18.05-1.78v-.32a.9.9 0 0 0-.09-.32 2.86 2.86 0 0 1-.51.83 1.07 1.07 0 0 1-.85.39 1.55 1.55 0 0 1-1.17-.46A3.09 3.09 0 0 1 378 145a6.69 6.69 0 0 1-.33-1.39 10.83 10.83 0 0 1-.08-1.27.68.68 0 0 1 .24-.58 1 1 0 0 1 .62-.18.46.46 0 0 1 .3.09.53.53 0 0 1 .16.23 1.63 1.63 0 0 1 .07.3v1.16a4 4 0 0 0 0 .85 2.85 2.85 0 0 0 .11.39 2.22 2.22 0 0 0 .2.41 1.12 1.12 0 0 0 .28.33.54.54 0 0 0 .36.14.64.64 0 0 0 .49-.22 1.59 1.59 0 0 0 .3-.54 3.5 3.5 0 0 0 .15-.64 5 5 0 0 0 0-.55 3 3 0 0 0-.07-.66 3 3 0 0 1-.08-.67.31.31 0 0 1 .25-.34 1.76 1.76 0 0 1 .46-.06h.57a.72.72 0 0 1 .29.06.37.37 0 0 1 .16.21 1.58 1.58 0 0 1 .05.43v.45a4.19 4.19 0 0 0 0 .5zm6.67 7.93a3.63 3.63 0 0 0 .14.56c.07.27.15.53.23.82s.15.54.21.78a3.12 3.12 0 0 1 .09.44c0 .1 0 .16-.11.18h-.46a1.16 1.16 0 0 1-.49-.1.51.51 0 0 1-.23-.23 1 1 0 0 1-.11-.34 2 2 0 0 0-.09-.48c-.09-.41-.19-.81-.31-1.2s-.23-.79-.33-1.19-.2-.85-.29-1.27-.19-.84-.31-1.26l-.06-.45a4.43 4.43 0 0 0-.12-.68c0-.24-.09-.45-.14-.65a.68.68 0 0 0-.13-.33c-.14.82-.27 1.64-.39 2.44a16.53 16.53 0 0 0-.24 2.45c-.05.46-.11.9-.2 1.34a12 12 0 0 0-.18 1.34v.29a.43.43 0 0 1 0 .16.18.18 0 0 1-.12.09l-.27.07a.53.53 0 0 1-.25 0h-.4a1.74 1.74 0 0 1-.38-.14 9.08 9.08 0 0 1 .28-1.94 16.25 16.25 0 0 0 .39-1.94c.12-.82.24-1.62.36-2.42s.25-1.6.37-2.41a3.23 3.23 0 0 0 0-.44v-.57a3.47 3.47 0 0 1 .08-.55.53.53 0 0 1 .15-.34.65.65 0 0 1 .36-.1 2.29 2.29 0 0 1 .37 0h.24a.81.81 0 0 1 .22 0 .47.47 0 0 1 .2.22 1.14 1.14 0 0 1 .13.35.77.77 0 0 0 .07.39c0 .1 0 .21.05.31q.38 1.71.81 3.39zm4.66-1.23a3.72 3.72 0 0 1 1 1.16 2.77 2.77 0 0 1 .43 1.48 2 2 0 0 1-.27 1.05 2.1 2.1 0 0 1-.74.77 3.17 3.17 0 0 1-1 .39 6.27 6.27 0 0 1-1.06.13h-1.06c0-.31-.06-.63-.07-.93s0-.62 0-.93c0-1.1 0-2.19.1-3.27s.09-2.16.09-3.26v-3.95a.76.76 0 0 1 .11-.32.5.5 0 0 1 .27-.18 1.51 1.51 0 0 1 .52-.06c.31 0 .48.09.51.26a3.53 3.53 0 0 1 0 .65 8.39 8.39 0 0 1-.06 1c0 .34-.08.68-.11 1a6.74 6.74 0 0 1-.08 1 6.73 6.73 0 0 0-.07 1v1.53a1.33 1.33 0 0 0 .12.68.57.57 0 0 0 .32.27 2.44 2.44 0 0 0 .46.14 1.5 1.5 0 0 1 .54.39zm-.88 3.49a1.54 1.54 0 0 0 .67-.54 1.19 1.19 0 0 0 .17-1.27 2.21 2.21 0 0 0-.3-.45 1.53 1.53 0 0 0-.42-.34.86.86 0 0 0-.46-.14.28.28 0 0 0-.3.21 1.32 1.32 0 0 0-.06.39 3.21 3.21 0 0 0 0 .62 3.35 3.35 0 0 1 .05.63v.59a.83.83 0 0 0 .07.27.21.21 0 0 0 .21.12h.17zm12.15 1.4v.11a.21.21 0 0 0 0 .11c0 .05-.06.1-.17.12l-.33.07h-.74a.11.11 0 0 1-.07-.06.21.21 0 0 1 0-.11.67.67 0 0 0 0-.2 6 6 0 0 1-.05-.73v-10.78h-.54a5 5 0 0 1-.55 0 .35.35 0 0 1-.4-.28 2 2 0 0 1-.07-.55 2.26 2.26 0 0 1 0-.52.36.36 0 0 1 .18-.24.8.8 0 0 1 .34-.07H404l.48.07c.15 0 .24.06.26.11l.07.05a.49.49 0 0 1 0 .17v6.27c0 .81 0 1.63.05 2.46v1.34a11.67 11.67 0 0 0 .07 1.32 3.08 3.08 0 0 0 .08.53 2.26 2.26 0 0 1 0 .52.66.66 0 0 1 .06.34zm-47.53 20.44c-.19.37-.38.74-.58 1.11s-.37.74-.56 1.13c0 .1-.09.21-.13.33a1.82 1.82 0 0 1-.16.31.84.84 0 0 1-.23.23.65.65 0 0 1-.36.1h-.2a.76.76 0 0 1-.4-.15.85.85 0 0 1-.24-.26 1.35 1.35 0 0 1-.17-.34c-.05-.12-.11-.25-.17-.37l-.61-1.16c-.21-.38-.41-.76-.6-1.15l-.5-1a9.4 9.4 0 0 0-.52-1l-.37-.71c-.12-.23-.24-.46-.35-.7s-.12-.3-.17-.45a.81.81 0 0 0-.18-.36c0 .69 0 1.37.05 2.05s0 1.36.05 2 .05 1.24.1 1.87.09 1.25.09 1.86a.54.54 0 0 1-.07.35c-.05.06-.17.09-.37.09a1.84 1.84 0 0 1-.52-.1 1.14 1.14 0 0 0-.4-.11h-.07a.24.24 0 0 1-.1-.19v-.2-.88-8.5a2.29 2.29 0 0 1 0-.37 1.68 1.68 0 0 1 .09-.32.17.17 0 0 1 .17-.14h.53a1.4 1.4 0 0 1 .35.1 1.18 1.18 0 0 1 .27.23 2.82 2.82 0 0 1 .26.44l1.09 1.94c.37.64.73 1.28 1.08 1.94.07.11.19.35.36.71s.35.74.55 1.13a9.35 9.35 0 0 0 .57 1c.18.26.33.46.42.46s0 0 .07-.08 0-.1.07-.11c.15-.28.3-.57.43-.87s.27-.6.41-.89l1.1-2 1.09-2 .19-.41.25-.54c.09-.18.19-.34.28-.5a.76.76 0 0 1 .3-.29 1 1 0 0 1 .38-.08h.4a.54.54 0 0 1 .33.08.38.38 0 0 1 .14.21.81.81 0 0 1 0 .31v8.38a5.32 5.32 0 0 0 .06.56 2.62 2.62 0 0 1 0 .56.87.87 0 0 1-.06.32c0 .09-.12.14-.26.14a.41.41 0 0 1-.22 0l-.2-.08-.2-.06h-.08v-.09a.69.69 0 0 0-.05-.24.93.93 0 0 0-.07-.43c-.07-.14 0-.28 0-.43v-1.7l-.06-1.69v-2.77a1.37 1.37 0 0 0-.05-.28v-.16a.61.61 0 0 0-.14.16l-.13.22a15.55 15.55 0 0 0-1 2 19.93 19.93 0 0 0-1 1.86zm9 3.93a2.72 2.72 0 0 1-1.78-.56 4.09 4.09 0 0 1-1.14-1.43 6.79 6.79 0 0 1-.6-1.85 9.49 9.49 0 0 1-.18-1.84 8.88 8.88 0 0 1 .2-1.85 4.81 4.81 0 0 1 .65-1.67 3.78 3.78 0 0 1 1.2-1.22 3.44 3.44 0 0 1 1.83-.46 2.72 2.72 0 0 1 1.82.58 4.08 4.08 0 0 1 1.09 1.45 7 7 0 0 1 .55 1.89 14.73 14.73 0 0 1 .14 1.88 8.32 8.32 0 0 1-.2 1.79 5.27 5.27 0 0 1-.66 1.63 3.72 3.72 0 0 1-1.17 1.2 3.17 3.17 0 0 1-1.75.46zm.18-9.63a2.37 2.37 0 0 0-1.3.32 2.2 2.2 0 0 0-.8.83 3.77 3.77 0 0 0-.4 1.17 8.17 8.17 0 0 0-.11 1.31 7.46 7.46 0 0 0 .05 1.07 10.34 10.34 0 0 0 .22 1.08 6.61 6.61 0 0 0 .45 1.22 3.75 3.75 0 0 0 .72 1 1.45 1.45 0 0 0 1 .41 1.69 1.69 0 0 0 1.21-.47 3.43 3.43 0 0 0 .77-1.14 6.49 6.49 0 0 0 .41-1.43 9.38 9.38 0 0 0 .12-1.3 8.26 8.26 0 0 0-.11-1.22 5.62 5.62 0 0 0-.38-1.33 3.73 3.73 0 0 0-.72-1.07 1.55 1.55 0 0 0-1.13-.45zm4.94-2.81v-.05a.24.24 0 0 1 .14-.23.67.67 0 0 1 .31-.1 2.16 2.16 0 0 1 .36 0h.28a3.67 3.67 0 0 1 1.84.4 2.83 2.83 0 0 1 1.1 1.07 4.47 4.47 0 0 1 .54 1.55 11 11 0 0 1 .15 1.81v2.33c0 .77-.05 1.55-.11 2.33 0 .34-.05.68-.07 1s0 .68 0 1a4.23 4.23 0 0 1-.14 1.06 3.35 3.35 0 0 1-.41 1 2.49 2.49 0 0 1-.71.7 2 2 0 0 1-1 .27 2.28 2.28 0 0 1-.73-.12 3 3 0 0 1-.64-.32 1.39 1.39 0 0 1-.44-.78 7.85 7.85 0 0 1-.22-1.27c-.05-.45-.07-.9-.08-1.33s0-.78 0-1v-1.44a11.8 11.8 0 0 1 .06-1.45 3.36 3.36 0 0 1 .61-1.67A2 2 0 0 1 374 171a1 1 0 0 1 .57.15.73.73 0 0 0 .31.14H375.05v-.52a3.49 3.49 0 0 0-.59-2.15 2.49 2.49 0 0 0-2.09-.77.55.55 0 0 1-.33-.07.35.35 0 0 1-.17-.19 2.47 2.47 0 0 1-.1-.29 1.35 1.35 0 0 0-.07-.37zm3.14 11.1c0-1 .07-1.93.08-2.89v-2.9a.62.62 0 0 0-.26-.09h-.28a1 1 0 0 0-1 .44 2.61 2.61 0 0 0-.3 1.09V179a1.52 1.52 0 0 0 .1.47.72.72 0 0 0 .76.48 1 1 0 0 0 .44-.1.88.88 0 0 0 .17-.35 2.37 2.37 0 0 0 .11-.46 4 4 0 0 1 .07-.48 3.1 3.1 0 0 0 .11-.51zm7.64-9.56a20.19 20.19 0 0 0 .19 2.2 20.32 20.32 0 0 1 .12 2.21v1.46c0 .46-.06 1-.1 1.46s-.06.86-.11 1.44a8.5 8.5 0 0 1-.32 1.67 4.33 4.33 0 0 1-.7 1.39 1.51 1.51 0 0 1-1.28.58 2 2 0 0 1-1.65-.67 2.63 2.63 0 0 1-.57-1.72 5.61 5.61 0 0 1 0-.58 2.57 2.57 0 0 1 .12-.55.83.83 0 0 1 .3-.39 1 1 0 0 1 .6-.16.16.16 0 0 1 .11.05.11.11 0 0 1 .06.11.43.43 0 0 1-.06.22.54.54 0 0 0-.05.22v.59a5.21 5.21 0 0 0 .13.79 2.94 2.94 0 0 0 .28.69.49.49 0 0 0 .44.28.55.55 0 0 0 .28-.07 1.3 1.3 0 0 0 .23-.18 1.17 1.17 0 0 0 .31-.45 2.23 2.23 0 0 0 .16-.56c0-.2.06-.4.08-.6a5.32 5.32 0 0 1 .06-.56c0-.45.08-.9.1-1.36s0-.91 0-1.37.05-1.18.08-1.76 0-1.18 0-1.78v-.33a.9.9 0 0 0-.09-.32 3.06 3.06 0 0 1-.5.83 1.06 1.06 0 0 1-.86.39 1.55 1.55 0 0 1-1.17-.46 3.29 3.29 0 0 1-.69-1.11 6.64 6.64 0 0 1-.33-1.4c0-.42-.07-.85-.08-1.27a.66.66 0 0 1 .24-.57 1 1 0 0 1 .62-.19.46.46 0 0 1 .3.09.53.53 0 0 1 .16.23 1.63 1.63 0 0 1 .07.3v1.16a4 4 0 0 0 0 .85 2.85 2.85 0 0 0 .11.39 2.22 2.22 0 0 0 .2.41 1.26 1.26 0 0 0 .28.33.54.54 0 0 0 .36.14.58.58 0 0 0 .49-.22 1.86 1.86 0 0 0 .3-.53 3.61 3.61 0 0 0 .15-.65 5 5 0 0 0 0-.55 3 3 0 0 0-.07-.66 3 3 0 0 1-.08-.66.32.32 0 0 1 .25-.35 1.76 1.76 0 0 1 .46-.06h.67a.73.73 0 0 1 .29.07.39.39 0 0 1 .16.2 1.58 1.58 0 0 1 .05.43v.44a3.54 3.54 0 0 0 0 .46zm6.67 7.94a3.91 3.91 0 0 0 .14.55c.07.27.15.54.23.82s.15.54.21.78a3.12 3.12 0 0 1 .09.44c0 .1 0 .16-.11.18h-.46a1.38 1.38 0 0 1-.49-.1.63.63 0 0 1-.23-.23.88.88 0 0 1-.1-.35 4.1 4.1 0 0 0-.1-.48c-.09-.4-.19-.8-.31-1.2s-.23-.79-.33-1.19-.2-.85-.29-1.27-.19-.83-.31-1.25l-.06-.45q-.06-.33-.12-.69c-.05-.24-.09-.45-.14-.64a.71.71 0 0 0-.13-.34c-.14.82-.27 1.64-.38 2.45s-.22 1.62-.3 2.45a6.78 6.78 0 0 1-.2 1.34 12 12 0 0 0-.17 1.34v.29a.43.43 0 0 1 0 .16.2.2 0 0 1-.12.08l-.27.08H385a1.83 1.83 0 0 1-.4-.05 1.71 1.71 0 0 1-.38-.13 8.59 8.59 0 0 1 .29-1.95 16.25 16.25 0 0 0 .39-1.94c.11-.81.23-1.62.35-2.41s.25-1.61.37-2.42a3.09 3.09 0 0 0 0-.43v-.58a3.47 3.47 0 0 1 .08-.55.53.53 0 0 1 .15-.34.65.65 0 0 1 .36-.1h.79a.7.7 0 0 1 .2.22 1.14 1.14 0 0 1 .13.35 2.66 2.66 0 0 0 .07.39c0 .13 0 .24.05.31.25 1.15.52 2.28.81 3.4s.61 2.32.9 3.46zm4.66-1.24a3.72 3.72 0 0 1 1 1.16 2.77 2.77 0 0 1 .43 1.48 2.17 2.17 0 0 1-.27 1.06 2.27 2.27 0 0 1-.74.77 3.7 3.7 0 0 1-1 .38 5.39 5.39 0 0 1-1.06.13 6.11 6.11 0 0 0-1.06.06c0-.32-.06-.63-.07-.94s0-.61 0-.93c0-1.1 0-2.18.1-3.26s.09-2.17.09-3.27v-3.44a4.34 4.34 0 0 1 0-.51.63.63 0 0 1 .1-.32.5.5 0 0 1 .27-.18 1.51 1.51 0 0 1 .52-.06c.31 0 .48.09.51.26a2.94 2.94 0 0 1 .05.66 8.39 8.39 0 0 1-.06 1c-.05.34-.08.69-.11 1a7 7 0 0 1-.08 1 6.73 6.73 0 0 0-.07 1v1.53a1.37 1.37 0 0 0 .12.69.57.57 0 0 0 .32.27 3.47 3.47 0 0 0 .46.13 1.41 1.41 0 0 1 .5.33zm-.88 3.49a1.68 1.68 0 0 0 .68-.53 1.32 1.32 0 0 0 .27-.81 1.2 1.2 0 0 0-.11-.46 2 2 0 0 0-.3-.46 1.57 1.57 0 0 0-.42-.35.84.84 0 0 0-.46-.13.27.27 0 0 0-.3.2 1.32 1.32 0 0 0-.06.39v.63a3.18 3.18 0 0 1 0 .62v.24a1.71 1.71 0 0 0 0 .32.67.67 0 0 0 .06.28.22.22 0 0 0 .22.12h.16zm14.36-5.73c-.52 1.29-1.05 2.57-1.58 3.83a29.6 29.6 0 0 0-1.32 3.92h.69a5.77 5.77 0 0 0 1.1-.1 6 6 0 0 1 1.11-.1c.17 0 .25.08.25.23v.29a2 2 0 0 1 0 .35.67.67 0 0 1-.07.31.2.2 0 0 1-.19.12h-.48a5.11 5.11 0 0 0-.55.05l-.81.08-.93.07a4.41 4.41 0 0 1-.89 0 1.8 1.8 0 0 1-.64-.18.45.45 0 0 1-.25-.4 2.88 2.88 0 0 1 .14-.82 7.4 7.4 0 0 1 .34-.89l.42-.9c.15-.3.27-.56.38-.8.23-.57.52-1.26.84-2.09s.64-1.67.94-2.55.54-1.73.75-2.56a9.15 9.15 0 0 0 .32-2.14 1.58 1.58 0 0 0-.48-1.23 1.84 1.84 0 0 0-1.31-.43c-.87 0-1.3.41-1.3 1.25a1.61 1.61 0 0 0 .07.49 1.56 1.56 0 0 0 .14.48 3.77 3.77 0 0 0 .15.38 1.05 1.05 0 0 1 .06.24.65.65 0 0 1-.15.17l-.35.21-.39.18a.71.71 0 0 1-.28.09q-.16 0-.3-.24a2.21 2.21 0 0 1-.23-.55 4.15 4.15 0 0 1-.14-.61 4.56 4.56 0 0 1 .22-1.63 3 3 0 0 1 .61-1 3 3 0 0 1 .93-.64 2.79 2.79 0 0 1 1.17-.24 3.24 3.24 0 0 1 1.34.26 2.73 2.73 0 0 1 1 .71 3.42 3.42 0 0 1 .62 1.08 4 4 0 0 1 .22 1.33 5.71 5.71 0 0 1-.37 2c-.29.72-.54 1.37-.8 2zm-49.82 29.16l-.58 1.11c-.19.36-.38.74-.56 1.12l-.13.33a1.41 1.41 0 0 1-.17.32.8.8 0 0 1-.22.23.64.64 0 0 1-.36.09h-.2a.84.84 0 0 1-.4-.14 1 1 0 0 1-.25-.26 2.16 2.16 0 0 1-.17-.34 1.84 1.84 0 0 0-.17-.38c-.2-.39-.4-.78-.61-1.16s-.4-.76-.59-1.14-.34-.7-.5-1-.34-.7-.52-1-.25-.47-.37-.7l-.36-.71a1.84 1.84 0 0 1-.16-.44 1 1 0 0 0-.19-.39c0 .69 0 1.38.05 2.06s0 1.35.05 2 0 1.25.1 1.87a11.63 11.63 0 0 1 .08 1.86.74.74 0 0 1-.06.36.56.56 0 0 1-.38.08 1.29 1.29 0 0 1-.51-.1 1.12 1.12 0 0 0-.4-.1h-.07a.35.35 0 0 1-.1-.19v-.2a8.85 8.85 0 0 1 0-.89 6.46 6.46 0 0 0 0-.88v-7.94a1.16 1.16 0 0 1 .08-.32q.06-.15.18-.15h.53a1 1 0 0 1 .34.09.78.78 0 0 1 .27.24 1.94 1.94 0 0 1 .27.43c.36.66.72 1.3 1.09 1.94s.73 1.29 1.08 1.94c.07.12.18.35.35.72s.36.73.55 1.12.39.74.58 1.05.33.45.42.45 0 0 .06-.08l.07-.1c.16-.28.3-.58.43-.87s.27-.6.42-.9l1.09-2 1.1-2 .18-.42.26-.53a4.91 4.91 0 0 1 .28-.5.76.76 0 0 1 .29-.3 1.34 1.34 0 0 1 .39-.07h.39a.52.52 0 0 1 .34.09.34.34 0 0 1 .14.21 1.5 1.5 0 0 1 0 .3v3.21c0 .95 0 1.89.05 2.85v2.33a5.32 5.32 0 0 0 .06.56 2.62 2.62 0 0 1 0 .56.81.81 0 0 1-.06.31.26.26 0 0 1-.26.14.41.41 0 0 1-.22 0l-.21-.07a.6.6 0 0 0-.19-.06h.01v-.08a1 1 0 0 0-.05-.24 2 2 0 0 1-.07-.43v-2.13l-.06-1.7v-2.77a1.31 1.31 0 0 0 0-.28v-.1a.46.46 0 0 0-.14.16l-.13.21a16.3 16.3 0 0 0-1 2c-.28.67-.78 1.16-1.12 1.82zm9 3.91a2.82 2.82 0 0 1-1.79-.57 4.11 4.11 0 0 1-1.13-1.42 6.79 6.79 0 0 1-.6-1.85 11.36 11.36 0 0 1-.18-1.84 9 9 0 0 1 .19-1.86 5.25 5.25 0 0 1 .66-1.67 3.65 3.65 0 0 1 1.2-1.21 3.36 3.36 0 0 1 1.83-.47 2.73 2.73 0 0 1 1.82.59 4.08 4.08 0 0 1 1.09 1.45 6.86 6.86 0 0 1 .54 1.88 11.82 11.82 0 0 1 .15 1.88 7.75 7.75 0 0 1-.21 1.79 5.16 5.16 0 0 1-.65 1.64 3.91 3.91 0 0 1-1.17 1.19 3.18 3.18 0 0 1-1.75.47zm.18-9.63a2.48 2.48 0 0 0-1.3.31 2.27 2.27 0 0 0-.8.83 3.69 3.69 0 0 0-.4 1.17 8.4 8.4 0 0 0-.11 1.32 7.25 7.25 0 0 0 .05 1.06c.05.33.11.66.21 1.08a6 6 0 0 0 .46 1.22 3.75 3.75 0 0 0 .72 1 1.34 1.34 0 0 0 1 .41 1.61 1.61 0 0 0 1.21-.47 3.43 3.43 0 0 0 .77-1.14 6.41 6.41 0 0 0 .41-1.42 9.51 9.51 0 0 0 .11-1.31 7 7 0 0 0-.11-1.21 5.62 5.62 0 0 0-.38-1.33 3.26 3.26 0 0 0-.72-1.07 1.55 1.55 0 0 0-1.12-.43zm4.94-2.8a.26.26 0 0 1 .13-.23 1.19 1.19 0 0 1 .32-.1h.63a3.78 3.78 0 0 1 1.84.4 3 3 0 0 1 1.11 1.08 4.71 4.71 0 0 1 .54 1.54 12.16 12.16 0 0 1 .14 1.81v2.34c0 .78-.06 1.55-.11 2.33 0 .34-.05.68-.07 1s0 .68 0 1a4.23 4.23 0 0 1-.14 1.06 3 3 0 0 1-.42 1 2.13 2.13 0 0 1-.71.69 2 2 0 0 1-1 .27 2.28 2.28 0 0 1-.73-.12 2.14 2.14 0 0 1-.64-.32 1.3 1.3 0 0 1-.45-.78 9 9 0 0 1-.22-1.26c0-.46-.07-.9-.07-1.34v-2.44a11.56 11.56 0 0 1 .06-1.44 3.36 3.36 0 0 1 .61-1.67 2 2 0 0 1 1.63-.62 1 1 0 0 1 .56.14.86.86 0 0 0 .32.15h.12v-.53a3.45 3.45 0 0 0-.58-2.14 2.48 2.48 0 0 0-2.1-.77.75.75 0 0 1-.33-.07.55.55 0 0 1-.17-.2 1.4 1.4 0 0 1-.09-.29 1.49 1.49 0 0 1-.18-.44zm3.13 11.11c.05-1 .08-1.94.09-2.9v-2.9a.79.79 0 0 0-.26-.08 1.31 1.31 0 0 0-.28 0 1 1 0 0 0-1 .43 2.47 2.47 0 0 0-.3 1.09v5.28a1.47 1.47 0 0 0 .11.46.75.75 0 0 0 .26.35.81.81 0 0 0 .5.14 1.13 1.13 0 0 0 .44-.1 1.62 1.62 0 0 0 .17-.35 3 3 0 0 1 .11-.46c0-.16 0-.32.07-.48s.21-.37.21-.48zm7.65-9.56a20.22 20.22 0 0 0 .19 2.19 20.31 20.31 0 0 1 .11 2.21V201l-.09 1.46c0 .39-.06.87-.11 1.44a8.5 8.5 0 0 1-.32 1.67 4.36 4.36 0 0 1-.71 1.39 1.53 1.53 0 0 1-1.27.59 2 2 0 0 1-1.65-.68 2.58 2.58 0 0 1-.57-1.71v-.59a2 2 0 0 1 .11-.54.87.87 0 0 1 .31-.4 1.05 1.05 0 0 1 .6-.15.21.21 0 0 1 .11 0 .14.14 0 0 1 .06.11.43.43 0 0 1-.06.22.43.43 0 0 0-.06.22v.6a4.24 4.24 0 0 0 .13.78 2.91 2.91 0 0 0 .27.69.49.49 0 0 0 .65.25h.07a1 1 0 0 0 .23-.18 1.16 1.16 0 0 0 .32-.44 3.58 3.58 0 0 0 .16-.56c0-.2.06-.41.07-.61a1.69 1.69 0 0 1 .06-.56c.05-.45.08-.9.1-1.35s0-.91.06-1.38 0-1.17.07-1.76a15.1 15.1 0 0 0 0-1.78v-.32a.63.63 0 0 0-.1-.32 3.06 3.06 0 0 1-.5.83 1.07 1.07 0 0 1-.85.39 1.55 1.55 0 0 1-1.17-.46 3.09 3.09 0 0 1-.69-1.12 6.69 6.69 0 0 1-.33-1.39 9 9 0 0 1-.09-1.27.71.71 0 0 1 .25-.58 1 1 0 0 1 .62-.18.53.53 0 0 1 .3.09.63.63 0 0 1 .16.23 1.36 1.36 0 0 1 .06.29 1.71 1.71 0 0 1 0 .32v.76a3.93 3.93 0 0 0 0 .84 2.85 2.85 0 0 0 .11.39 2 2 0 0 0 .19.42 1.75 1.75 0 0 0 .28.33.55.55 0 0 0 .37.14.62.62 0 0 0 .49-.23 1.86 1.86 0 0 0 .3-.53 3.5 3.5 0 0 0 .15-.64 5.23 5.23 0 0 0 0-.56 3 3 0 0 0-.07-.66 2.48 2.48 0 0 1-.08-.66.32.32 0 0 1 .24-.35 2.42 2.42 0 0 1 .47-.05h.42a.68.68 0 0 1 .28.07.39.39 0 0 1 .17.21 1.58 1.58 0 0 1 0 .43v.45a2.72 2.72 0 0 0 .13.49zm6.66 7.93a2.93 2.93 0 0 0 .15.55c.08.26.15.54.23.83s.15.54.21.78a3.12 3.12 0 0 1 .09.44c0 .1 0 .16-.12.17h-.46a1.12 1.12 0 0 1-.48-.1.59.59 0 0 1-.24-.23 1.08 1.08 0 0 1-.1-.35 3.55 3.55 0 0 0-.09-.47c-.09-.41-.2-.81-.31-1.2l-.34-1.19c-.11-.39-.19-.85-.28-1.27s-.2-.84-.31-1.26a1.37 1.37 0 0 0-.07-.45c-.07-.22-.07-.45-.12-.68s-.09-.46-.13-.65a.85.85 0 0 0-.14-.34c-.13.83-.26 1.64-.38 2.45s-.22 1.63-.29 2.45c-.05.46-.11.9-.2 1.34a12 12 0 0 0-.18 1.34v.29a.43.43 0 0 1 0 .16.18.18 0 0 1-.12.09l-.27.07a.57.57 0 0 1-.26 0 1.74 1.74 0 0 1-.39 0 1.82 1.82 0 0 1-.39-.14 9 9 0 0 1 .29-1.94 16.25 16.25 0 0 0 .39-1.94c.12-.82.23-1.62.36-2.42s.25-1.6.37-2.42v-1a3.57 3.57 0 0 1 .07-.56.54.54 0 0 1 .16-.33.76.76 0 0 1 .35-.11h.83a.56.56 0 0 1 .21.22 1.12 1.12 0 0 1 .12.35 2.7 2.7 0 0 0 .08.39c0 .13 0 .23.05.31q.38 1.71.81 3.39c.34 1.21.62 2.34.9 3.48zm4.67-1.24a4.17 4.17 0 0 1 1 1.17 2.77 2.77 0 0 1 .43 1.48 2.2 2.2 0 0 1-.27 1 2.13 2.13 0 0 1-.75.77 2.91 2.91 0 0 1-.95.38 5.4 5.4 0 0 1-1.06.14h-1.06a7 7 0 0 0-.06-.93v-.94c0-1.09 0-2.18.09-3.26s.1-2.17.1-3.26v-4a.75.75 0 0 1 .1-.33.51.51 0 0 1 .28-.17 1.51 1.51 0 0 1 .52-.06c.31 0 .48.08.51.26a3.53 3.53 0 0 1 0 .65 6.73 6.73 0 0 1-.07 1c0 .34-.08.68-.1 1a5.62 5.62 0 0 1-.08 1 6.73 6.73 0 0 0-.07 1v1.52a1.37 1.37 0 0 0 .12.69.63.63 0 0 0 .33.27 3.5 3.5 0 0 0 .46.14 1.82 1.82 0 0 1 .53.43zm-.89 3.5a1.56 1.56 0 0 0 .68-.54 1.29 1.29 0 0 0 .27-.8 1.12 1.12 0 0 0-.11-.47 1.7 1.7 0 0 0-.29-.46 1.74 1.74 0 0 0-.42-.34.86.86 0 0 0-.46-.14.27.27 0 0 0-.3.2 1.32 1.32 0 0 0-.06.39 3.32 3.32 0 0 0 0 .63 4.46 4.46 0 0 1 0 .63v.59a.89.89 0 0 0 .07.28.21.21 0 0 0 .21.12h.17zm14-1.61a4.88 4.88 0 0 1-.45 1.4 5.49 5.49 0 0 1-.81 1.16 6.46 6.46 0 0 1-1.09.93 7.23 7.23 0 0 1-1.29.68l-.37.16a1 1 0 0 1-.38.07.35.35 0 0 1-.38-.28 1.81 1.81 0 0 1-.08-.51v-.12a.66.66 0 0 1 .19-.37 1 1 0 0 1 .36-.22l.41-.17a1.35 1.35 0 0 0 .38-.19c.31-.23.61-.46.89-.71a4.6 4.6 0 0 0 .77-.82 3.81 3.81 0 0 0 .52-1 3.32 3.32 0 0 0 .2-1.13 2.11 2.11 0 0 0-.17-.82 3.37 3.37 0 0 0-.45-.78 5 5 0 0 0-.63-.67 4.82 4.82 0 0 0-.7-.48 1.27 1.27 0 0 0-.54-.14 4.09 4.09 0 0 1-.61-.1 1.4 1.4 0 0 1-.48-.22.62.62 0 0 1-.2-.54.83.83 0 0 1 .26-.61c.17-.18.34-.35.48-.51a20 20 0 0 0 1.43-1.76c.43-.61.88-1.24 1.29-1.88a6.86 6.86 0 0 0-1.35.09 9.87 9.87 0 0 1-1.33.06 1.24 1.24 0 0 1-.47-.06.3.3 0 0 1-.19-.16.47.47 0 0 1-.05-.26v-.37c0-.14.07-.47.21-.55a1.18 1.18 0 0 1 .61-.13h1a9.84 9.84 0 0 1 1.33 0 3.46 3.46 0 0 1 1.15.28.71.71 0 0 1 .49.7.84.84 0 0 1-.17.55c-.11.16-.22.32-.34.47-.48.63-1 1.27-1.42 1.92a23.29 23.29 0 0 1-1.44 1.91 7 7 0 0 1 1.39.57 4.57 4.57 0 0 1 1.3.91 3.93 3.93 0 0 1 .76 1.17 3.62 3.62 0 0 1 .28 1.49 3 3 0 0 1-.15 1zm-3.23 3.46s.09 0 .1-.07z"/><g clip-path="url(#clip-path)"><path class="cls-2" d="M335.33 58.25c-14.12-.34-76.65-2.21-92.39-.83-27.58 2.42-94.33 11.35-148.08 69.94-19.19 20.92-70.19 196.69 9.75 246 134.58 82.94 403.87-8.05 371.24-186.58C448.85 39 356.3 58.76 335.33 58.25z"/><path class="cls-6" d="M263.2 284.32l11.74 215.08h-56l-9.44-211z"/><path class="cls-6" d="M173.39 290.54L130.46 499.4h58.77l49.4-213-65.24 4.12z"/><path d="M212 403.27l9.54-42.94" stroke-width=".83" stroke="#fdebd7" stroke-miterlimit="10" fill="none"/><path class="cls-8" d="M252.45 217.78L279 272.42a15.47 15.47 0 0 0 20.86 6.6c.26-.14.52-.28.77-.43a15.47 15.47 0 0 0 5.91-20.27l-28-59.09z"/><path class="cls-9" d="M253.44 242.52s11.49 3 40-24.2l-20.14-40.16a21.33 21.33 0 0 0-28.65-9.47 18.85 18.85 0 0 0-1.65.92 21.34 21.34 0 0 0-8.52 26.16z"/><path class="cls-8" d="M348.44 202.41a10.41 10.41 0 0 1-11.13-12.93l5.32-20.93s.69-3.26 7.51-7.72c5.42-3.53 15.78-13.05 19.86-16.86.95-.89 2.65-1.78 3.63-.51.79.82.24 2.94-.93 4.33-2.59 3.07-8.4 10.6-14.1 15.33a3.87 3.87 0 0 1 3.64 3s4.47-.57 3.95 5.27c0 0 6.84-.51 4.66 7.46l-4.44 7.35a3.24 3.24 0 0 1-4.24 1.21s-5.5 13.87-13.73 15z"/><path class="cls-8" d="M283.44 253.86l57.33-67.28 10.11 13.94-45.29 73.39c-6.51 6.65-19.8 8.29-25.26.76a15 15 0 0 1 3.11-20.81z"/><path class="cls-10" d="M296.83 237.74l-8.18 10"/><path class="cls-9" d="M222.35 160.39S202.85 163 178 175.93c-4.27 2.22-4.44 6.93-4.15 11.74L169 329.14c70.37 15.59 98.66-12.82 98.66-12.82l-.43-139.41a9.57 9.57 0 0 0-6.77-9.54c-9.55-2.92-26.73-7.53-38.11-7z"/><path class="cls-8" d="M206.75 164.1l9-2.43L231 158.9l8.84 3.24 5.13 1.11s7.92 12-8.79 14c-20 2.35-28.08-7.47-29.46-13.15z"/><path class="cls-11" d="M267.48 238.36l-.21-31.19"/><path class="cls-8" d="M153.62 201.92l-46.58 39a15.49 15.49 0 0 0-1.34 21.85c.19.22.39.43.59.63a15.47 15.47 0 0 0 21.1.83L178 222.81z"/><path class="cls-9" d="M134.73 207s-.18 11.87 33 33.11L202 210.94a21.33 21.33 0 0 0 2.4-30.08c-.42-.5-.86-1-1.32-1.42a21.33 21.33 0 0 0-27.43-2z"/><path class="cls-11" d="M172.56 236l20.24-17.53"/><path class="cls-12" d="M159.7 329.48a15.19 15.19 0 0 1-5.74-7 2.89 2.89 0 0 0-3.8-1.52 2.83 2.83 0 0 0-1.68 3.27 18.06 18.06 0 0 0 5.94 9.43z"/><path class="cls-12" d="M162.76 331s-5.88-1-17.2-7.35a2.59 2.59 0 0 0-3.43.56 2.49 2.49 0 0 0 .28 3.27 31.29 31.29 0 0 0 14.59 7.57z"/><path class="cls-8" d="M167.29 293.37s16.39 11.69 10 26.24-13.58 20.48-18.5 18.93c-3.41-1.08-10.32-3-14.26-4.14a3.16 3.16 0 0 1 1.15-6.18l13.43 1.78s-4.31-15.24-1.76-24.52z"/><path class="cls-8" d="M128.56 243.21l44.38 55.51-13.5 10.69-52.53-45.47a15 15 0 0 1-1.15-21.18 14.32 14.32 0 0 1 1.88-1.77 15 15 0 0 1 20.92 2.22z"/><path class="cls-10" d="M137.44 254.32l-7-8.74"/><path d="M260.63 72s12 6.55-.18 24.19l-15.76-22.76z"/><path d="M196.83 91.9c.41 17.28 22.18 31.3 34.56 30.49 17.26-1.11 31-14.75 30.56-32a31.3 31.3 0 0 0-32-30.55c-17.33.37-33.59 12.41-33.12 32.06z" fill="#b25732"/><path class="cls-14" d="M246.44 112.05c.36 5.6 5.12 9 10.73 8.61s9.73-6.42 9.37-12-5-7.76-10.62-7.39a10.16 10.16 0 0 0-9.48 10.78z"/><path class="cls-8" d="M221.46 120.12l-6.15 49.18 25.23-.05 1-42.37z"/><path class="cls-14" d="M240.88 152.47s-11-3.87-20.25-22.34l21.18 2.46z"/><path class="cls-8" d="M240.54 64.46s22.33.19 21.34 29.53-4.24 37.22-15.82 43.66c-10.41 5.79-24 1.18-32-11.1a44.48 44.48 0 0 1-6.06-17.84l-2-7.61s-10.08-37.85 34.54-36.64z"/><path d="M211.33 71.23c.22-.21 8.06 10.79-1 21.42l2.42 16.08-3.64 1.62-6.35-9.81-.46-19.6z"/><path d="M242 58.59s-18.4-10.37-36.48.43c-14.22 8.5 3 23.91 3 23.91l4.8-12 17.81-5.28z"/><path d="M205.68 68.6s-14.9-2.35-16.52 12.65S208 117.59 208 117.59z"/><path class="cls-8" d="M214.14 115.85c-1.07 5.51-3.68 7.66-10.92 6.37-5.53-1-8.85-7.61-7.78-13.12s5.54-6.91 11.28-5.24c4.01 1.14 8.49 6.48 7.42 11.99z"/><path class="cls-10" d="M201.2 109.91s5.16-1.28 7.16 6"/><path d="M202.3 74.61s21.95 10.65 28.38 5.84-9.74-12.65-9.74-12.65z"/><path d="M220.94 67.8s13.56 11.09 26.47 9-13.23-13.88-13.23-13.88z"/><path d="M243.66 69.16s15.23 10.34 24 7-.85-13.18-14.3-14.31l-25.81-1.45 7.27 6.95 5.72 2.42"/><path d="M254.46 64.13s12-10 3-13.36-29.94 9.63-29.94 9.63z"/><path d="M236.47 57s5-7-3.55-7.92-22.62 7.74-28.42 24.5L220.94 71l16-7zm11.37 34.54s-.59 2.58 3.65 2.23a26.17 26.17 0 0 1 6 0 2.84 2.84 0 0 0 2.63-1.14 1.94 1.94 0 0 0-.39-1.93c-1-1.14-2.31-2.74-6.22-2.45-5 .31-5.67 3.29-5.67 3.29zm-9.54.93s.53 3.36-5.07 2.49a76.23 76.23 0 0 0-12.08-.51 3.82 3.82 0 0 1-3.39-1.72 1.55 1.55 0 0 1 .57-2.12h.08a24.44 24.44 0 0 1 12.84-2.1c6.66 1 7.05 4 7.05 4z"/><path class="cls-3" d="M233.89 102s-6.29-9.52-18.69-1.38c0-.01 6.73 8.83 18.69 1.38z"/><g clip-path="url(#clip-path-2)"><path class="cls-16" d="M231.12 100.34a4.55 4.55 0 1 1-5.29-3.67 4.53 4.53 0 0 1 5.27 3.64z"/></g><path class="cls-17" d="M214.64 99.84a18.56 18.56 0 0 1 5-2.34 14.94 14.94 0 0 1 5.39-.75 11.56 11.56 0 0 1 5.14 1.57 10.69 10.69 0 0 1 3.77 3.67 10.26 10.26 0 0 0-4-3.24 10.87 10.87 0 0 0-4.93-1 13.72 13.72 0 0 0-4.88 1.15 17.3 17.3 0 0 0-4.31 2.53 1 1 0 0 1-1.21-1.49z"/><path class="cls-3" d="M246.78 101.41s5.33-8.71 11.75-2.08c0 0-5.2 8.95-11.75 2.08z"/><g clip-path="url(#clip-path-3)"><path class="cls-16" d="M249.58 99.77c-.55 2.38.33 4.62 2 5s3.41-1.25 4-3.64-.32-4.63-2-5-3.45 1.25-4 3.64z"/></g><path class="cls-17" d="M257.78 99.92a6.27 6.27 0 0 0-2.32-2.14 5 5 0 0 0-1.51-.49 2.49 2.49 0 0 0-.77 0 5.71 5.71 0 0 0-.83.11 8.12 8.12 0 0 0-3.1 1.46 11.54 11.54 0 0 0-2.47 2.56 11.46 11.46 0 0 1 2.16-2.92 8.64 8.64 0 0 1 3.15-2 5.79 5.79 0 0 1 .93-.25 3.38 3.38 0 0 1 1-.12 6.2 6.2 0 0 1 2 .36 7.92 7.92 0 0 1 3.28 2.28 1 1 0 0 1-1.43 1.28z"/><path d="M243.75 117.22l4.05-2-3.5-10.22m-8.61 18.69c4.36 6.32 12.37 1.75 12.27 1.75" stroke="#ca5e34" stroke-width="1.46" stroke-linecap="round" stroke-linejoin="round" fill="none"/></g><circle cx="387.01" cy="104.7" r="32.81" stroke="#21a498" stroke-width="4" stroke-miterlimit="10" fill="#fff"/><path d="M390.9 84.5a3.9 3.9 0 0 1-7.79 0 3.83 3.83 0 0 1 3.73-3.93h.2a3.72 3.72 0 0 1 3.86 3.59v.34zm-7 44.33V94.18h6.29v34.61z" fill="#21a498"/></svg>