<svg id="Layer_1" xmlns="http://www.w3.org/2000/svg" xmlns:xlink="http://www.w3.org/1999/xlink" viewBox="0 0 521 457"><style>.st21{fill:#eca079}.st27{fill:#dc845e}.st34{fill:#fc5e43}.st37{fill:#eca179}.st38{fill:#ca5e36}.st40{fill:#1b1c20}.st43{fill:none;stroke:#ca5e34;stroke-width:.7847;stroke-linecap:round;stroke-linejoin:round;stroke-miterlimit:10}</style><switch><g><path d="M325.6 76.6c-14.1-.3-76.7-2.2-92.5-.8-27.6 2.4-94.4 11.4-148.3 70-19.2 20.9-70.2 196.9 9.8 246.2 134.7 83 404.3-8.1 371.7-186.8C439.2 57.3 346.6 77.1 325.6 76.6z" fill="#c4e5e5"/><defs><path id="SVGID_5_" d="M325.6 76.6c-14.1-.3-98.8-58-114.6-56.6-12.3 1.1-10.2 59.2-33.4 66.6-29 9.3-62.9 26.5-92.8 59.1-19.2 21-70.2 197 9.8 246.3 134.7 83 404.3-8.1 371.7-186.8C439.2 57.3 346.6 77.1 325.6 76.6z"/></defs><clipPath id="SVGID_2_"><use xlink:href="#SVGID_5_" overflow="visible"/></clipPath><g clip-path="url(#SVGID_2_)"><path d="M386.1 102.8c1.4 2 2.4 4.2 3 6.6.6 2.4.9 4.8.9 7.2 0 4.8-.9 9.4-2.8 13.7-.8 1.8-1.7 3.6-2.8 5.3-1.1 1.7-2.1 3.3-3.1 5-1.3 2.1-2.5 4.1-3.4 6-.9 1.9-1.7 3.8-2.4 5.7-.7 1.9-1.2 3.9-1.6 6-.4 2-.7 4.3-.9 6.8-.1 1.3-.8 2-2.1 2h-4.6c-1.4 0-2.1-.8-2.1-2.3 0-.4 0-1.3.1-2.7 0-1.4.1-2.8.3-4.4.1-1.5.3-3 .4-4.3.1-1.3.2-2.1.3-2.4 1.3-3.2 2.8-6.1 4.6-8.6 1.8-2.6 3.5-5.2 5.1-7.8 1.6-2.6 3-5.4 4.2-8.3 1.2-2.9 1.8-6.3 1.8-10 0-.9-.1-2-.3-3.2-.2-1.2-.6-2.4-1.1-3.4-.5-1.1-1.1-2-1.9-2.8-.8-.8-1.8-1.1-3.1-1.1-1.4 0-2.5.7-3.3 2.1-.8 1.4-1.2 2.8-1.2 4 0 .8.1 1.7.3 2.4.2.8.3 1.6.3 2.4 0 1.4-.6 2.5-1.8 3.3-1.2.8-2.4 1.2-3.7 1.2-1.9 0-3.2-.7-3.8-2.2-.6-1.5-.9-3-.9-4.6 0-2 .3-4.1.9-6.2.6-2.1 1.5-4.1 2.7-5.8 1.2-1.8 2.6-3.2 4.4-4.3 1.8-1.1 3.8-1.6 6-1.6 2.4 0 4.7.6 6.7 1.8 1.9 1.1 3.6 2.6 4.9 4.5zm-18 71.9c1.7 0 3 .1 4.1.3 1 .2 1.8.5 2.3 1.1.5.5.8 1.3 1 2.4.2 1 .3 2.5.3 4.3 0 .8 0 1.6-.1 2.4-.1.9-.6 1.4-1.6 1.6-1.2.1-2.3.2-3.5.4-1.2.2-2.3.3-3.5.3-1.8 0-2.8-1-2.8-3.1v-1.8c0-.8 0-1.7.1-2.6.1-.9.2-1.7.3-2.5.1-.8.2-1.3.4-1.4.3-.6.8-.9 1.4-1.1.4-.3 1-.3 1.6-.3z"/><path class="st34" d="M162.2 375.6s-22.4 50.3-45.3 148.6h182.5s-6-126.2-31.6-190.8l-105.6 42.2z"/><path d="M238.5 439.5c-3.9 37.5-13.2 84.7-13.2 84.7" fill="none" stroke="#fff" stroke-width="1.473" stroke-linecap="round" stroke-linejoin="round" stroke-miterlimit="10"/><path d="M275.3 256.6c10.5 5.1 22.6 9 31.1 17.3l6.4 57.9c1.2 11.1-6.8 21.1-17.9 22.3-11.1 1.2-21.1-6.8-22.3-17.9l-9.4-85.6c3.9 2 8 4.1 12.1 6z" fill="#de8d68"/><path class="st37" d="M360.5 220.8c3.3 2.8-12 16.7-16.5 19.3l5.7.1c1.4.2 4.3 1.7 4.4 3.7.1 1.9-9.8 2.2-9.8 2.2-4.9.8-14.6 7.1-15.5 7.4l-14.5-5.9c.8-13.3 11.6-21.6 17.8-25.8 1-.7 10.8-12.8 13-11.5 1.7 1-8.8 14.9-7.4 14.4.8-.3 10.4-15 14.2-13.6 2.4.9-11.3 15.7-10 16.3.8.4 10.7-13.7 14.1-12.6 4.2 1.4-11.7 17.2-10.4 16.9.8 0 12.6-12.8 14.9-10.9z"/><path class="st34" d="M243 302.9s15.7 7.6 64.5-23.4L290 216c-4.9-17.7-24-27.4-41.2-21-14.3 5.4-22.6 20.2-19.7 35.2l13.9 72.7z"/><path class="st37" d="M312.8 336.9l16.6-87.7c-1.9.1-14-6.3-14-6.3l-40.1 88.5c-3 29.8 34.5 28.2 37.5 5.5z"/><path d="M219.4 181.7s-30.8 8.1-53.3 17.3c-5.8 2.4-9.5 8-9.3 14.3l4.4 162s89.1 17 116.6-7l3.8-158.5c.1-6.1-3.4-11.7-9-14.1l-32-14h-21.2z" fill="#fff"/><path class="st21" d="M203.6 186.3l15.9-4.5h21l17.5 7.6s5.7 16.7-15.9 17.8c-21.7 1.2-33.3-13-38.5-20.9z"/><g><path class="st37" d="M149.6 365.1l11.3.3c8 .2 14.8-6.1 15-14.1l2.5-88.4c.2-8-6.1-14.8-14.1-15l-11.3-.3c-8-.2-14.8 6.1-15 14.1l-2.5 88.4c-.3 8.1 6.1 14.8 14.1 15z"/><path class="st34" d="M120.2 290.5s7.9 15.8 66.8 13.4l17.1-65c4.8-18.2-7.1-36.5-25.6-39.6-15.3-2.6-30.3 6.3-35.4 21l-22.9 70.2z"/><path class="st21" d="M137.2 339l97-24.1c1 1.7 4.6 12.5 4.6 12.5l-73.2 42.3c-27.5 6.1-36-20.9-28.4-30.7z"/><path class="st21" d="M271.6 322.7c1.2-4.2-19.2-7.2-24.5-6.8l4.6-3.3c1.1-.9 2.6-3.8 1.6-5.5-1-1.6-9.4 3.6-9.4 3.6-4.7 2.1-20.8 7.9-20.8 7.9l-2.2 12.8c9.5 4.3 18.7 6.2 26.2 6.2 1.2 0 16.1 4.6 17.2 2.3.8-1.8-15.6-7.5-14.1-7.9.8-.2 17 6.7 19.4 3.4 1.5-2-18.2-6.8-17.4-8 .5-.8 16.5 5.4 18.7 2.7 2.8-3.5-19.3-7.7-18.1-8.3 1-.3 17.9 3.8 18.8.9z"/></g><g><path class="st38" d="M299.8 88s-.5 16.5 8 23.8c10.6 9 13.7 22.7 3.4 35.1-15.5 18.6-51.5 13.5-64.1 0L299.8 88zM196.7 69.6s-3.6 17.7-12.6 22.9c-10.2 5.8-19.3 11.1-23.6 25.3-3.9 13 7.7 27.6 20.3 32.8 12.9 5.3 28.3 10.2 53.7-3.5l-37.8-77.5z"/><ellipse transform="matrix(.9957 -.09304 .09304 .9957 -6.566 22.593)" class="st38" cx="239" cy="81.7" rx="44.1" ry="44.1"/><path class="st27" d="M267.3 124.5c1 7.7 7.9 11.8 15.6 10.8 7.7-1 12.8-9.8 11.7-17.4-1-7.7-7.6-10.2-15.3-9.1-7.6 1-13 8.1-12 15.7z"/><path class="st21" d="M231.7 119.7l-15.2 73.7 33.5 4.3 5-64.7z"/><path class="st27" d="M251.7 176s-21.8-8-27.1-47l29.5 16.8-2.4 30.2z"/><path class="st21" d="M263.8 51.1s31.9 2.3 27.9 44.1c-4 41.9-10.7 53.5-27.9 61.6-15.4 7.4-33.1-1.1-43.4-19.3-4-7.2-6.9-17.8-7.2-26.1l-2.1-11.1c.1.2-11-54.9 52.7-49.2z"/><path class="st38" d="M221.1 75.3s7.2 19.1-3.9 37.4l-14.8-21 18.7-16.4z"/><path class="st21" d="M222.5 121.6c-2 7.8-8.4 10.7-16.2 8.6-7.8-2-12-11.7-9.9-19.5 2-7.8 9.5-10.8 16.9-7.5 7.4 3.3 11.2 10.6 9.2 18.4z"/><path d="M202.1 113.4s9.3-2 11.7 7.3" fill="none" stroke="#ca5e36" stroke-width="1.473" stroke-linecap="round" stroke-linejoin="round" stroke-miterlimit="10"/><path class="st38" d="M273.4 54.5s5.8 9.5-26.5 23.7c-8.9 3.9-27.1 11.6-31.4 23.8 0 0-31.6-54.4 27.4-56.9 0 .1 24.8 1.9 30.5 9.4z"/><path class="st38" d="M268.2 56.3s8.8 8.5 14.9 16.9c6.6 9.2 9.6 20.7 7.1 35.5 0 0 4.8-5.1 7.8-13.6 8.1-22.5-7.4-47.6-31.3-49.7-5.4-.5-11 .5-16.6 3.9l18.1 7zM210.2 155.5s24.6-2.9 30.3-10.3c0 0-11.5 4.7-24.1-7.4l-6.2 17.7z"/><path class="st38" d="M231 136.7s-2.4 9.6-11.9 9.3l-2.7-8.2c-.1 0 7.7 3.1 14.6-1.1z"/><path class="st38" d="M216.9 129.4s10.3 3.2 7.6 13l-13 .7 5.4-13.7z"/><g><path class="st40" d="M272.8 100.1s-1.3 3.2 4.2 3.7c4.2.4 5.3.6 7.7 1.3 1.3.4 2.9 0 3.6-.9.6-.7.3-2-.1-2.6-1-1.7-2.3-4-7.4-4.6-6.5-.6-8 3.1-8 3.1zM254.8 100.4s1.7 4.1-5.7 4.7c-5.6.4-12.3 2.1-15.5 3-1.8.5-3.8 0-4.8-1.2-.8-.9-.7-2.1.2-2.9 1.8-1.7 8.9-5.9 15.7-6.5 8.7-.9 10.1 2.9 10.1 2.9z"/><defs><path id="XMLID_32_" d="M253.6 119s-7.7-12.7-24.3-2.7c0-.1 8.3 11.8 24.3 2.7z"/></defs><use xlink:href="#XMLID_32_" overflow="visible" fill="#fff"/><clipPath id="XMLID_8_"><use xlink:href="#XMLID_32_" overflow="visible"/></clipPath><path d="M251.6 116.9c.5 3.2-1.8 6.2-5 6.7s-6.2-1.8-6.7-5 1.8-6.2 5-6.7c3.3-.5 6.3 1.8 6.7 5z" clip-path="url(#XMLID_8_)" fill="#1b1c20"/><g><path d="M229 115.7c2-1.3 4.1-2.2 6.4-2.9 2.2-.6 4.6-1 6.9-.8 2.3.2 4.6 1 6.5 2.1 2 1.2 3.7 2.8 4.8 4.8-1.2-1.9-3-3.5-5-4.6-2-1.1-4.2-1.7-6.4-1.8-2.2-.1-4.5.4-6.6 1.1-2.1.7-4.1 1.7-5.9 3-.3.2-.7.1-.9-.1-.2-.2-.1-.6.2-.8z"/></g><g><defs><path id="XMLID_27_" d="M270.4 118.9s7.4-11.1 15.4-2.1c0 0-7.2 11.4-15.4 2.1z"/></defs><use xlink:href="#XMLID_27_" overflow="visible" fill="#fff"/><clipPath id="XMLID_11_"><use xlink:href="#XMLID_27_" overflow="visible"/></clipPath><path d="M274.4 117.7c0 4.3 4.3 5.1 6.5 5 2.2-.1 4.5-1.5 5.3-4.5.8-3.1-.2-6-2.3-6.6-2-.6-9.5.9-9.5 6.1z" clip-path="url(#XMLID_11_)" fill="#1b1c20"/><g><path d="M285.3 117.2c-.8-1.2-1.9-2.3-3.2-3-.7-.3-1.4-.6-2.1-.7-.4-.1-.7 0-1.1 0-.4 0-.7.1-1.1.2-1.5.3-2.9 1-4.1 1.9-1.2.9-2.4 2-3.3 3.3.8-1.3 1.9-2.5 3.1-3.6 1.2-1 2.6-1.9 4.2-2.3.4-.1.8-.2 1.2-.2.4-.1.8-.1 1.3-.1.8.1 1.6.3 2.4.6 1.5.6 2.8 1.8 3.8 3.1.2.3.2.7-.1.9s-.8.2-1-.1z"/></g></g><path class="st43" d="M267.6 127l3.4 5.7-3.3 3.1M259.2 140.3s6.3 11.1 12.5 0h-12.5z"/></g></g></g></g></switch></svg>