<svg id="Layer_1" data-name="Layer 1" xmlns="http://www.w3.org/2000/svg" viewBox="0 0 2567.11 1021.3"><defs><style>.cls-2{fill:#21a498}.cls-3{fill:#74e3c3}.cls-4{fill:#febe17}.cls-5{fill:#f35564}.cls-6{fill:#fff}</style></defs><path d="M1470.61 25c-35.5.4-209.5-6.3-249.2-1.3-69.5 8.7-123 31.9-173.5 56.7-63.4 31.1-120.6 67.3-174.6 105.8-69.8 49.8-134.4 103.4-185.5 167.2-44.9 56-41.2 122.2-33.3 213.7 4.5 51.7-7.9 106 34.9 184.6 180.8 332.3 1316.9 353.5 1211.7-374.6-54.6-377.89-377.8-352.59-430.5-352.1z" fill="#c4e5e5"/><path class="cls-2" d="M1596.81 753.71v3.6h206.1v-3.6a510.84 510.84 0 0 0-133.1-344.6l-146 146a305.86 305.86 0 0 1 73 198.6z"/><path class="cls-3" d="M1512.81 542.91l145.8-145.8c-91.4-94.4-218.8-153.8-360.1-156v206.2a305.58 305.58 0 0 1 214.3 95.6z"/><path class="cls-4" d="M1282 447.31v-206.2c-137.1 2.2-261.1 58.2-351.9 147.8l145.8 145.8a304.82 304.82 0 0 1 206.1-87.4z"/><path class="cls-5" d="M983.71 753.71a305.21 305.21 0 0 1 80.7-207.2l-145.8-145.9a510.62 510.62 0 0 0-141 353.1v3.6h206.1c.1-1.2 0-2.4 0-3.6z"/><path class="cls-6" d="M1676.51 691.11a69.8 69.8 0 0 1-.3-139.6h.3a70 70 0 0 1 69.8 69.5 69.82 69.82 0 0 1-69.4 70.1z"/><path class="cls-6" d="M1676.51 687.41a66.1 66.1 0 0 1-.3-132.2h.3a66.24 66.24 0 0 1 66.1 65.8 66.07 66.07 0 0 1-65.8 66.4z"/><circle class="cls-2" cx="1676.43" cy="621.26" r="62.7" transform="rotate(-80.74 1676.448 621.259)"/><path class="cls-6" d="M1716.51 648.51c-3 6-7 9.5-11.7 13.7a41.81 41.81 0 0 1-28 11.1 42.26 42.26 0 0 1-28.1-10.9c-4.5-3.9-8.3-7.2-11.3-12.5-.2-.4-.4-.7-.6-1.1zm-26.8-28.5v-4.7l26-13.5.1 6.9-17.6 8.9 17.6 8.7.1 6.9z"/><path class="cls-6" d="M1691.31 616.21l22.9-11.9v3.4l-19.5 9.8v.1l19.6 9.6v3.4l-23-11.7v-2.7zm-54.1 10.4l17.5-8.8-17.5-8.7-.1-7 26.2 13.3V620l-26 13.6z"/><path class="cls-6" d="M1661.71 619.11l-22.9 11.9v-3.4l19.3-9.8v-.1l-19.4-9.6v-3.4l23 11.7v2.7zm54.8 29.4c-3 6-7 9.5-11.7 13.7a41.81 41.81 0 0 1-28 11.1 42.26 42.26 0 0 1-28.1-10.9c-4.5-3.9-8.3-7.2-11.3-12.5-.2-.4-.4-.7-.6-1.1z"/><circle class="cls-6" cx="1451.41" cy="377.44" r="69.8"/><circle class="cls-6" cx="1451.39" cy="377.44" r="66.1" transform="rotate(-45 1451.392 377.444)"/><circle class="cls-3" cx="1451.41" cy="377.41" r="62.7"/><ellipse class="cls-6" cx="1478.51" cy="373.81" rx="8.5" ry="15.1"/><ellipse class="cls-6" cx="1424.31" cy="373.81" rx="8.5" ry="15.1"/><path class="cls-6" d="M1451.31 426.11a41.45 41.45 0 0 1-29.5-12.2 3.39 3.39 0 0 1 4.8-4.8 35 35 0 0 0 49.4 0 3.39 3.39 0 0 1 4.8 4.8 41.28 41.28 0 0 1-29.5 12.2zM1130.51 447.21a69.8 69.8 0 1 1 69.8-69.8 69.86 69.86 0 0 1-69.8 69.8z"/><circle class="cls-6" cx="1130.5" cy="377.45" r="66.1" transform="rotate(-45 1130.493 377.445)"/><circle class="cls-4" cx="1130.51" cy="377.41" r="62.7"/><ellipse class="cls-6" cx="1157.71" cy="373.81" rx="8.5" ry="15.1"/><ellipse class="cls-6" cx="1103.41" cy="373.81" rx="8.5" ry="15.1"/><path class="cls-6" d="M1157.51 414.91h-54.2a3.4 3.4 0 1 1 0-6.8h54.2a3.4 3.4 0 1 1 0 6.8zM901.61 691.11a69.8 69.8 0 1 1 69.8-69.8 69.86 69.86 0 0 1-69.8 69.8z"/><circle class="cls-6" cx="901.57" cy="621.4" r="66.1" transform="rotate(-45 901.571 621.397)"/><circle class="cls-5" cx="901.61" cy="621.31" r="62.7"/><ellipse class="cls-6" cx="928.71" cy="617.71" rx="8.5" ry="15.1"/><ellipse class="cls-6" cx="874.51" cy="617.71" rx="8.5" ry="15.1"/><path class="cls-6" d="M928.61 658.81a3.25 3.25 0 0 1-2.4-1 35 35 0 0 0-49.4 0A3.39 3.39 0 0 1 872 653a41.77 41.77 0 0 1 59 0 3.4 3.4 0 0 1-2.4 5.8z"/><circle class="cls-6" cx="1290.31" cy="750.91" r="77.6"/><path d="M1257.41 735.51l165.3-274.4a2.91 2.91 0 0 1 4-1 3 3 0 0 1 1.3 3.5l-104.9 302.7a36.46 36.46 0 1 1-68.9-23.9 39.51 39.51 0 0 1 3.2-6.9z" fill="#333"/><circle cx="1290.31" cy="750.91" r="20.9" fill="#f2f2f2"/></svg>