<svg id="Layer_1" xmlns="http://www.w3.org/2000/svg" viewBox="0 0 521 457"><style>.st12{fill:#003b71}</style><switch><g><path d="M63.2 418.5c18.1 12 436 26.7 441.8-4.2s15.1-333.5 3.3-350.4c-.3-.4-14-29.9-19.1-30.7-44.7-7-252.2 1.4-426 23.2C43.8 58.8 35.7 328.6 49 396.3c1.6 8.1 12.3 20.9 14.2 22.2z" fill="#ffe436"/><path d="M46.3 404.5c18.1 12 436 26.7 441.8-4.2s10.2-342.1-1.6-358.9c-2.5-3.5-326.2-17.5-440.3 1-21.4 3.5-18 350.2.1 362.1z" fill="#c4e5e5" stroke="#1691c9" stroke-width="6" stroke-miterlimit="10"/><g><path class="st12" d="M112.8 111c1.7 10.5 2.7 24.6 4.1 34 .1.5-.1 1-.4 1.3-.9-.2-1.9 0-2.8 0-1.5 0-1.2-2.6-1.2-3.7 0-1-.6-3.9-.6-4.9 0-1.8-.1-1.5-2.3-1.5-.3 0-.6 0-.8.1-1.1.4-1 1.6-1 2.6-.1 1.9-.3 3.8-.3 5.7 0 .7.1 1.9-.9 1.9-.3 0-.6-.1-.9-.1-1-.2-2 .2-2-1.2 0-.7.4-1.2.5-1.9.5-2.4.7-4.8.9-7.3.9-8.3 2-16.6 3.1-24.9.1-.9.1-4.4.7-4.9.4-.3 1.8-.4 2.4-.4 1.2 0 1.7.3 1.7 1.5-.2 1.3-.4 2.5-.2 3.7zm-1.2 21.2c0-4.2-1.1-8.2-1.5-12.4-1.3 6.5-1.5 8-1.5 12.1 0 1.2 1 1.5 2 1.5.3 0 .7-.1 1-.3v-.9zM126.4 143.8c-3.8-1-4.3-7.6-4.3-10.9 0-5.6 2.2-7.4 7.7-7.4.5 0 .9 0 1.4.1-1.3-3.3-10-3-10-10.2 0-1.3.8-2.5 1.7-3.4 2.7-2.9 8.4-3.5 12.2-3.5h.8c.1.1.1.3.1.4 0 .9-.3 2.9-.6 3.8 0 0-.1.3-.2.3-.9 0-1.9-.2-2.8-.2-1.7 0-6.6.5-6.6 2.8 0 3.1 7.1 3.6 8.5 9.9.5 2.2.6 4.5.6 6.8 0 5-.7 11.6-7.2 11.6-.5 0-.9 0-1.3-.1zm.3-13.9c-.3 1.8-.5 3.6-.5 5.4 0 1.6-.2 5.5 1.9 5.7.5-.2.9-.4 1.3-.7 1-1.7 1.6-6.2 1.6-8.2 0-1.2-.1-2.4-.3-3.6-1.5.1-2.9.5-4 1.4zm1.5 12.9zM149.8 106c3.8 2.3 4.4 10.6 4.4 14.6v1.5h-1.5c-.4 0-.8 0-1.2-.1-1-.3-.7 0-.9-1-.5-2.7.3-11.7-3.9-11.7-3.7 0-3.6 7.9-3.6 10.3 0 1.6.1 3.1.1 4.7 0 3.1-.4 19 4.1 19 1.4 0 2.3-1.8 2.5-2.9.3-1.1.1-2.3.4-3.4.3-1.2.3-.9 1.4-1 .8-.1 1.5-.2 2.3-.3-.2 3.2-.1 7-2.3 9.7-1 1.2-2.4 2-4 2-1.3 0-2.5-.5-3.4-1.4-4.9-4.7-4.6-14.6-4.6-21 0-3.4 0-6.8.3-10.1.4-4.3 1.6-9.6 7.1-9.6 1-.1 2 .2 2.8.7zM158.6 126.1c0-6.7 2.7-14.1 10.5-14.1 8.1 0 9.8 9.5 9.8 15.7 0 6.4-2.8 13.8-10.3 13.8-7.7 0-10-9.3-10-15.4zm3.4-.9c0 1 0 1.9.1 2.9.3 3.2 2.4 10 6.4 10 5.2 0 6.8-7.7 6.8-11.8 0-3.7-1.5-11-6.3-11-5.7.1-7 5.1-7 9.9zM195.5 133.4c.3 1.1 1.9 6.5 1.9 7.1 0 .5-.5.5-.9.5h-.6c-2.4-.2-2-1.2-2.5-3.1-.5-2.2-1.2-4.3-1.8-6.5-.6-2.3-1-4.6-1.6-6.8-.2-.9-.8-5.4-1.3-5.7-.7 4.4-1.4 8.8-1.8 13.3-.2 2.4-.9 4.8-1 7.3-.1 1.4.2 1.3-1.2 1.7-.2.1-.5.1-.7.1-.7 0-1.5-.2-2.1-.5.1-3.5 1.4-7 1.8-10.6.6-4.4 1.3-8.7 2-13.1.2-1 .1-4.6.8-5.1.4-.3 1.5-.3 2-.3.3 0 .9 0 1.3.2.9.4 1.1 2.6 1.2 3.4 1.3 5.9 3 12 4.5 18.1zM216.1 108.1c5.8 1.9 6.5 9.7 6.5 14.8 0 1.9-.1 3.8-.2 5.8-.3 5.4.1 16-7.8 16-5.6 0-5.9-8.7-5.9-12.6 0-1.1 0-2.1.1-3.2h-.5l.5-.1h-.3c-1.1 0-2.1.2-3.2.2h-.4c-.1 1.2-.2 2.3-.2 3.5 0 2.5.3 5.1.3 7.6 0 1-1.7 1.7-2.5 1.7-1 0-1.3-.6-1.3-1.6 0-.8.2-1.6.2-2.4.1-1.1.1-2.2.1-3.3 0-3.7-.3-7.3-.3-11 0-2.8-.4-5.7-.4-8.5 0-1-.3-3.2 1.1-3.2.7 0 1.5.2 2.1.4.8.2.9.8.9 1.5 0 1.2-.3 2.4-.3 3.6 0 2.6.3 5.2.4 7.9 1.3.1 2.6.4 3.9.4h.2c0-3.9-.1-17.5 5.8-17.5.2-.2.7-.1 1.2 0zm2.1 26.6c.6-2.2.6-4.6.6-6.9 0-2.7.6-16.2-3.4-16.2-.5 0-1 .3-1.4.6-1.4 1.2-1.3 4-1.5 5.6-.5 5.2-.8 10.5-.8 15.7 0 2 .3 7.5 3.2 7.5 3 0 2.8-4.5 3.3-6.3zM229 109.4c-.6-.1-2.3-.2-2.6-.6 0-.2-.1-.3-.1-.5 0-2.1-.1-2.6 2.2-2.6 1.4 0 2.7.2 4 .2 1 0 2-.2 3-.2.7 0 1.9 0 1.9 1 0 .6.1 1.3.1 1.9 0 1.4-3.6-.3-3.6 1.9 0 .5.1 1 .1 1.5.2 5.4.2 10.7.3 16.1 0 5.6 0 11.1.3 16.7v1c0 .4 0 1-.6 1-.5 0-1-.3-1.5-.4-1-.4-1.3-.1-1.3-1.5 0-.7.1-1.4.1-2 0-10.4-.7-20.9-.7-31.3.2-1.9.1-1.9-1.6-2.2zM255.5 119.6c.1 5.7.1 11.3.1 17 0 1.1.2 2.1.2 3.2 0 .4-.1 1.1-.6 1.1-.3 0-.6-.1-.9-.2-1.6-.3-2-1.2-2-2.7 0-1.3.3-5.9-.3-6.9-.4-.7-.9-.7-1.6-.7-1.2 0-2.4-.5-3.5-.5-.9 0-.9 1.1-.9 1.8 0 1 .1 2.1.2 3.1 0 1 .4 1.9.4 2.9 0 1.1-1.6 1.2-2.5 1.2-.9 0-1.8-.1-1.8-1.2 0-.9.3-1.7.3-2.6 0-1.8-.2-3.6-.2-5.5 0-4.5.3-9 .3-13.6 0-1.3-.1-2.5-.1-3.8 0-.5.1-.7.6-.7.9 0 3.3-.3 3.3 1 0 .8-.3 1.6-.4 2.4v1.6c0 2 .1 4 .1 6.1 0 .9-.3 1.7-.3 2.6 0 1 .6 1.3 1.5 1.4 1.1.1 2.3.3 3.5.3.2 0 .6 0 .8-.1.6-.4.6-2.5.6-3.1 0-1.4-.1-2.7-.1-4.1 0-1.3.1-2.7.1-4 0-.8-.1-1.6-.1-2.4 0-1 .4-1.6 1.5-1.6 1.4 0 1.9.8 1.9 2-.1 2.1-.2 4-.1 6zM260.2 126.1c0-6.7 2.7-14.1 10.5-14.1 8.1 0 9.8 9.5 9.8 15.7 0 6.4-2.8 13.8-10.3 13.8-7.7 0-10-9.3-10-15.4zm3.4-.9c0 1 0 1.9.1 2.9.3 3.2 2.4 10 6.4 10 5.2 0 6.8-7.7 6.8-11.8 0-3.7-1.5-11-6.3-11-5.7.1-7 5.1-7 9.9zM302.5 142.4c.1.9.4 1.9.4 2.8 0 .3-.1.9 0 1.1-.4.6-2.5.6-3.1.6-1.1 0-1-.2-1.1-1.2-.1-.7-.2-1.5-.2-2.2 0-1.5.2-3 .2-4.6 0-11.2-.1-22.4-.2-33.7.6 0 3.3 0 3.6.4.1.2.1.7.1.9 0 2.3-.1 4.6-.1 6.9 0 1.5.1 3 .1 4.5 0 1.9-.3 3.7-.4 5.6 1.2-2.7 3.4-4.7 5.2-6.9.7-.9 3.9-5.5 4.6-5.8l1.8 1.2c0 .1.1.2.1.2 0 1.9-10.1 12.7-10.1 13.9 0 .5.7 1.3 1 1.7.8 1.2 7 13.3 7 13.9 0 .8-1.6 1.5-2.3 1.6-.9-1-7.2-14-7.3-14.9-.2 5 .1 9.5.7 14z"/><path class="st12" d="M326.7 146.2c-.6.7-1.7.8-2.6.8-6.2 0-10.5-2.9-10.5-9.5 0-3 1.5-5.7 4.8-5.7 1.9 0 3.7 1.4 4.4 1.4.1 0 .2 0 .2-.1 0-4.3-.1-19.1-2-22.1-.5-.8-1.3-1.5-2.4-1.5-2.2 0-3.5 2.3-3.5 4.3 0 1.7 0 2.1-1.8 2.1-.8 0-2.8.2-2.8-1 0-1.1.8-3 1.3-4 1.4-2.7 4.6-5.3 7.8-5.3.7 0 1.5.2 2.1.5 3.8 1.8 4.3 9 4.7 12.6.4 4.1.6 8.3.6 12.4 0 4-.1 8-.1 12.1 0 .9.3 2.1-.2 3zm-9-7.9c0 2.8 2 4.9 4.8 4.9.9 0 1-1 1-1.7 0-1.2-.4-2.3-.4-3.5 0-2.2-.6-2.7-2.8-2.7-1.6.2-2.6 1.4-2.6 3zM348.6 140.2c0 1-1.4 1.7-2.3 1.7-1 0-1.2-.9-1.2-1.7 0-.7.1-1.4.1-2 0-3.5-.3-7-.5-10.5-1.5.1-5 .8-5.5 2.5-.6 1.7-1.1 3.6-1.2 5.4-.1 1.7 0 3.7-.3 5.4-.1.5-.3.9-.9.9-.6 0-2.1-.6-2.2-1.1-.4-1.4-.2-3.3-.2-4.7 0-3.8.5-7.3 3.7-9.8-3.5-2-4.5-5.3-4.5-9.1 0-1.4 0-5 .4-6.2.2-.6 1.7-1.1 2.3-1.1.6 0 .8.5.9 1 .3 1.7.1 3.6.2 5.4 0 1.8.4 3.7 1 5.4.6 1.9 4.6 2.5 6.3 2.6-.2-4.1-.7-8.3-.7-12.4 0-.7.1-1.4 1-1.4 1.5 0 2.7.1 2.7 1.9 0 1-.2 1.9-.2 2.9 0 3 .4 6 .6 9.1 1.7-.1 5.4-.7 6.1-2.5.6-1.7 1.1-3.6 1.2-5.4.1-1.7 0-3.7.3-5.4.1-.5.3-.9.9-.9.6 0 2.1.6 2.2 1.1.4 1.4.2 3.3.2 4.7 0 3.8-.5 7.3-3.7 9.8 3.5 2 4.5 5.3 4.5 9.1 0 1.4 0 5-.4 6.2-.2.6-1.7 1.1-2.3 1.1-.6 0-.8-.5-.9-1-.3-1.7-.1-3.6-.2-5.4 0-1.8-.4-3.7-1-5.4-.7-2.1-5-2.6-6.9-2.7 0 1-.1 2-.1 2.9 0 3.2.4 6.4.6 9.6zM365.2 107.4c0-1.1 2.2-.9 2.9-.9 8.2 0 9.8 6.3 9.8 13.1 0 4.2-.1 8.4-.4 12.7-.1 1.8-.3 3.7-.3 5.6 0 3.8-1.9 8.1-6.3 8.1-1.3 0-2.7-.5-3.7-1.2-2.1-1.5-2-9.4-2-11.9 0-2.6-.1-5.2.1-7.8.5-3.8 1.9-6.2 6.1-6.2 1.2 0 2.1.8 2.4.8.1 0 .3 0 .3-.1v-1.4c0-5-1.8-7.9-7.3-7.9-1.6 0-1.4-1.1-1.8-2.4.3-.3.2-.4.2-.5zm8.9 14.7c-.4-.2-1-.3-1.5-.3-2.7 0-3.3 1.7-3.5 4.1-.1 1.7-.1 3.5-.1 5.3 0 2.5.2 5.1.2 7.6 0 1.7.1 3.9 2.4 3.9.4 0 .8-.1 1.2-.3.7-.9 1-3.4 1-4.6.2-5.2.3-10.4.3-15.7zM392.2 142.2c-2.1 3.7-6.7 3.4-10.3 3.6-.2-1.5-.2-3-.2-4.5 0-4.2.4-8.3.6-12.5.1-4.5.1-9.1.1-13.6 0-1.9-.1-3.8-.1-5.7 0-2.1.1-2.8 2.5-2.8 1.4 0 1.6.7 1.6 2 0 2.1-.4 4.1-.5 6.1-.3 4.6-.6 9.3-.6 13.9 0 .8 0 1.6.7 2.2.7.6 2.3.8 3.3 1.4 2.1 1.4 3.9 4.6 3.9 7.1-.2 1-.5 2-1 2.8zm-7.5-6.4c0 1.1.3 2.1.3 3.2 0 .7-.4 2.8.7 2.8 1.8 0 3.5-2.1 3.5-3.8 0-1.6-1.8-3.8-3.5-3.8h-.3c-.6.2-.7 1.1-.7 1.6zm14.4 4.4c.1.9.3 1.9.3 2.8 0 .3-.1.9 0 1.1-.3.5-2.3.6-2.9.6-1.1 0-.9-.2-1-1.2-.1-.7-.2-1.3-.2-2 0-1.6.2-3.2.2-4.8 0-9.5-.1-19-.2-28.5.6 0 3 0 3.3.4.1.2.1.7.1.9 0 2.3-.1 4.6-.1 6.9 0 5.4.2 10.9.3 16.3.1 2.7 0 5.1.2 7.5zM404 122.6v-1.3c0-2.1.1-4.2-.1-6.2 0-.6-.2-1.3-.2-1.9 0-1 2.1-1.8 2.9-1.8.8 0 .6 1.6.6 2.1v15.7c0 1.6 0 3.3.1 4.9 0 .3 0 .6.1.9 0 0 0 .4.1.4 0 0 .1-.3.2-.4.2-.7.4-1.3.6-2l2.4-8.4c.3-1.3 3.3-11.8 3.6-12.2.4-.5 1.3-.8 1.9-.8 1.1 0 1.3.9 1.3 1.8 0 1.1-.3 2.1-.3 3.2 0 4.9.2 9.8.2 14.7 0 3.2.2 6.3.2 9.5 0 1.6-.1 3.2-.2 4.8-.2 1.7 0 1.4-1.6 1.6-.3 0-.7.1-1 .1-1 0-.9-3-.9-3.6 0-7.1.7-14.3.7-21.4v-1c0-.2 0-.3-.1-.3-.2 0-.7 1.9-.8 2.1-.7 2.4-1.2 4.9-1.8 7.3-1 3.6-2 7.2-3.2 10.8-.2.7-.5 3.1-1 3.5-.3.2-2 .3-2.4.3-1.2 0-1.2-3.8-1.2-4.5 0-2.4.2-4.8.2-7.3 0-3.6-.3-7.1-.3-10.6zm4.6-14.1c-.1 0-.2-.6-.2-.7-.1-.8-.1-1.7-.2-2.5 2-.1 4-.1 6-.1 0 .7.3 1.4.3 2.1 0 1.2-1.3 1.2-2.2 1.2-1 0-1.9-.1-2.9-.1-.3.1-.6.1-.8.1zM97.7 186c-1.1 2-2.1 4-3.1 6.1-.5 1.2-.8 2.6-2.4 2.6h-.6c-1.8-.3-1.9-1.6-2.7-3.1-1.1-2.1-2.2-4.1-3.3-6.3-.9-1.9-1.8-3.8-2.7-5.6-.7-1.3-1.4-2.5-2-3.8-.3-.5-.6-1.9-1-2.3 0 3.7.2 7.4.3 11.1.1 3.3.5 6.8.5 10.1 0 1-.1 1.2-1.2 1.2-1 0-2-.5-2.5-.5h-.2c-.2-.1-.4-.8-.4-1.1 0-1.6.2-3.2.2-4.7 0-5.2-.1-10.3 0-15.5 0-1.5-.2-2.9-.2-4.4 0-.6 0-3 .8-3 2.3 0 2.8.1 3.9 2.1 1.9 3.5 4 7 5.9 10.5.7 1.3 4.2 9.1 5.1 9.1.1 0 .3-.4.4-.5.9-1.5 1.5-3.2 2.3-4.8 1.9-3.7 4-7.3 5.9-11 .6-1.1 1.7-4.2 2.8-4.7.4-.2 1.7-.3 2.1-.3 1.6 0 1.4 1.2 1.4 2.6 0 5.2.1 10.3.2 15.5 0 2.1.1 4.2.2 6.3 0 1 .3 2 .3 3.1 0 .6-.1 1.3-.9 1.3-.4 0-.8-.2-1.1-.3-1.1-.4-.7.2-1-1.1-.2-.8-.2-1.5-.2-2.3 0-3.1-.1-6.1-.2-9.2-.1-2.2-.1-4.5-.2-6.7 0-.5-.1-1.1-.1-1.6l-.1-.4c-.2 0-.7.8-.8 1-2 3.3-3.6 7.1-5.4 10.6zM112.2 181.3c0-6.7 2.7-14.1 10.5-14.1 8.1 0 9.8 9.5 9.8 15.7 0 6.4-2.8 13.8-10.3 13.8-7.7 0-10-9.3-10-15.4zm3.4-.9c0 1 0 1.9.1 2.9.3 3.2 2.4 10 6.4 10 5.2 0 6.8-7.7 6.8-11.8 0-3.7-1.5-11-6.3-11-5.7.1-7 5.1-7 9.9zM152.1 195.4c0 1-1.4 1.7-2.3 1.7-1 0-1.2-.9-1.2-1.7 0-.7.1-1.4.1-2 0-3.5-.3-7-.5-10.5-1.5.1-5 .8-5.5 2.5-.6 1.7-1.1 3.6-1.2 5.4-.1 1.7 0 3.7-.3 5.4-.1.5-.3.9-.9.9-.6 0-2.1-.6-2.2-1.1-.4-1.4-.2-3.3-.2-4.7 0-3.8.5-7.3 3.7-9.8-3.5-2-4.5-5.3-4.5-9.1 0-1.4 0-5 .4-6.2.2-.6 1.7-1.1 2.3-1.1.6 0 .8.5.9 1 .3 1.7.1 3.6.2 5.4 0 1.8.4 3.7 1 5.4.6 1.9 4.6 2.5 6.3 2.6-.2-4.1-.7-8.3-.7-12.4 0-.7.1-1.4 1-1.4 1.5 0 2.7.1 2.7 1.9 0 1-.2 1.9-.2 2.9 0 3 .4 6 .6 9.1 1.7-.1 5.4-.7 6.1-2.5.6-1.7 1.1-3.6 1.2-5.4.1-1.7 0-3.7.3-5.4.1-.5.3-.9.9-.9.6 0 2.1.6 2.2 1.1.4 1.4.2 3.3.2 4.7 0 3.8-.5 7.3-3.7 9.8 3.5 2 4.5 5.3 4.5 9.1 0 1.4 0 5-.4 6.2-.2.6-1.7 1.1-2.3 1.1-.6 0-.8-.5-.9-1-.3-1.7-.1-3.6-.2-5.4 0-1.8-.4-3.7-1-5.4-.7-2.1-5-2.6-6.9-2.7 0 1-.1 2-.1 2.9 0 3.2.4 6.4.6 9.6zM177.7 196.5c-.6.2-1.2.3-1.8.3-6.1 0-7.6-10.6-7.6-15.1 0-4.7.4-15.6 7.1-15.6 5.1 0 7.4 7.5 7.4 11.6 0 2-1.1 2.3-2.9 2.3-1.6 0-3.1-.1-4.7-.1-1.3 0-2.8.3-2.8 1.9 0 .8.2 1.7.2 2.5.2 2.1.3 8.8 3.3 8.8 2.9 0 2.1-5.8 2.8-6.3.4-.2.7-.2 1.2-.2.8 0 1.6.1 2.4.1.7 0 .7.4.7.9.1 3.4-1.8 7.9-5.3 8.9zm-4.8-20.2c0 .4.9.5 1.2.5 1.1 0 2.2-.3 3.3-.5.8-.1 1.4 0 1.4-1.1 0-1.8-1.6-5.6-3.7-5.6s-2.1 3-2.1 4.5v1.2c0 .4-.1.7-.1 1zM190 164.6c-.6-.1-2.3-.2-2.6-.6 0-.2-.1-.3-.1-.5 0-2.1-.1-2.6 2.2-2.6 1.4 0 2.7.2 4 .2 1 0 2-.2 3-.2.7 0 1.9 0 1.9 1 0 .6.1 1.3.1 1.9 0 1.4-3.6-.3-3.6 1.9 0 .5.1 1 .1 1.5.2 5.4.2 10.7.3 16.1 0 5.6 0 11.1.3 16.7v1c0 .4 0 1-.6 1-.5 0-1-.3-1.5-.4-1-.4-1.3-.1-1.3-1.5 0-.7.1-1.4.1-2 0-10.4-.7-20.9-.7-31.3.2-1.9.2-1.9-1.6-2.2zM229.9 165.2c.2 1 .2 2.1.2 3.2 0 2.7-.4 5.5-.4 8.2 0 2.4.4 4.8.4 7.2 0 2.3-.2 4.6-.2 6.9 0 1.7.2 3.4.2 5.2 0 .9.2 2.6-1.1 2.6-.4 0-.7-.1-1.1-.2-.8-.2-1.2 0-1.2-1.2 0-.9.2-1.8.2-2.7 0-1.6-.1-3.3-.2-4.9-.1-6-.2-12.1-.2-18.1v-3.2c0-.7-.1-1-.8-1-1.9 0-3.7.6-5.6.6v4.1c.2 5.3.2 10.6.3 15.9 0 2.4-.1 5 .2 7.4.1.9.3 1.7.3 2.6 0 .2-.1.9 0 1-.2.5-2.5.6-2.9.6-1.1 0-.9-.2-1-1-.1-.6-.2-1.2-.2-1.8 0-1.4.2-2.9.2-4.3 0-8.9-.2-17.8-.2-26.7 0-1.1 1-1.8 2-1.8 2.8 0 5.6.4 8.3.4 1.2-.2 2.5-.7 2.8 1zM234.8 181.3c0-6.7 2.7-14.1 10.5-14.1 8.1 0 9.8 9.5 9.8 15.7 0 6.4-2.8 13.8-10.3 13.8-7.7 0-10-9.3-10-15.4zm3.5-.9c0 1 0 1.9.1 2.9.3 3.2 2.4 10 6.4 10 5.2 0 6.8-7.7 6.8-11.8 0-3.7-1.5-11-6.3-11-5.7.1-7 5.1-7 9.9zM268.3 161.2c3.8 2.3 4.4 10.6 4.4 14.6v1.5h-1.5c-.4 0-.8 0-1.2-.1-1-.3-.7 0-.9-1-.5-2.7.3-11.7-3.9-11.7-3.7 0-3.6 7.9-3.6 10.3 0 1.6.1 3.1.1 4.7 0 3.1-.4 19 4.1 19 1.4 0 2.3-1.8 2.5-2.9.3-1.1.1-2.3.4-3.4.3-1.2.3-.9 1.4-1 .8-.1 1.5-.2 2.3-.3-.2 3.2-.1 7-2.3 9.7-1 1.2-2.4 2-4 2-1.3 0-2.5-.5-3.4-1.4-4.9-4.7-4.6-14.6-4.6-21 0-3.4 0-6.8.3-10.1.4-4.3 1.6-9.6 7.1-9.6 1-.1 2 .2 2.8.7zM279.1 164.6c-.6-.1-2.3-.2-2.6-.6 0-.2-.1-.3-.1-.5 0-2.1-.1-2.6 2.2-2.6 1.4 0 2.7.2 4 .2 1 0 2-.2 3-.2.7 0 1.9 0 1.9 1 0 .6.1 1.3.1 1.9 0 1.4-3.6-.3-3.6 1.9 0 .5.1 1 .1 1.5.2 5.4.2 10.7.3 16.1 0 5.6 0 11.1.3 16.7v1c0 .4 0 1-.6 1-.5 0-1-.3-1.5-.4-1-.4-1.3-.1-1.3-1.5 0-.7.1-1.4.1-2 0-10.4-.7-20.9-.7-31.3.2-1.9.1-1.9-1.6-2.2zM292.5 163.9c3.4.1 8.2-.2 10.4 2.9.5.7.8 1.6.8 2.5 0 2.3-1.9 4.9-3.8 6.1-.9.6-2.6.7-3.2 1.2-.5.4-.6 1.1-.6 1.8 0 .9.2 1.7.2 2.6 0 3.7.3 7.4.6 11.1.1 1.7.6 3.3.6 5 0 1.4-.1 1.9-1.6 1.9-2.4 0-2.4-.6-2.4-2.8 0-5.9 0-11.9-.3-17.8-.2-3.7-.7-7.5-.7-11.2-.1-1.1-.1-2.2 0-3.3zm7.2 7.7c.1-.3.2-.7.2-1.1 0-1.7-1.9-3.3-3.5-3.3-.7 0-.7.5-.7 1.1 0 .6.1 1.2 0 1.8 0 .8-.2 1.5-.2 2.2 0 .7.2 1.4 1 1.4 1 .1 2.9-1.2 3.2-2.1zM322.6 201.4c-.6.7-1.7.8-2.6.8-6.2 0-10.5-2.9-10.5-9.5 0-3 1.5-5.7 4.8-5.7 1.9 0 3.7 1.4 4.4 1.4.1 0 .2 0 .2-.1 0-4.3-.1-19.1-2-22.1-.5-.8-1.3-1.5-2.4-1.5-2.2 0-3.5 2.3-3.5 4.3 0 1.7 0 2.1-1.8 2.1-.8 0-2.8.2-2.8-1 0-1.1.8-3 1.3-4 1.4-2.7 4.6-5.3 7.8-5.3.7 0 1.5.2 2.1.5 3.8 1.8 4.3 9 4.7 12.6.4 4.1.6 8.3.6 12.4 0 4-.1 8-.1 12.1 0 .9.2 2.1-.2 3zm-9-7.9c0 2.8 2 4.9 4.8 4.9.9 0 1-1 1-1.7 0-1.2-.4-2.3-.4-3.5 0-2.2-.6-2.7-2.8-2.7-1.6.2-2.6 1.4-2.6 3zM328.4 162.6c0-1.1 2.2-.9 2.9-.9 8.2 0 9.8 6.3 9.8 13.1 0 4.2-.1 8.4-.4 12.7-.1 1.8-.3 3.7-.3 5.6 0 3.8-1.9 8.1-6.3 8.1-1.3 0-2.7-.5-3.7-1.2-2.1-1.5-2-9.4-2-11.9 0-2.6-.1-5.2.1-7.8.5-3.8 1.9-6.2 6.1-6.2 1.2 0 2.1.8 2.4.8.1 0 .3 0 .3-.1v-1.4c0-5-1.8-7.9-7.3-7.9-1.6 0-1.4-1.1-1.8-2.4.3-.3.2-.4.2-.5zm8.9 14.7c-.4-.2-1-.3-1.5-.3-2.7 0-3.3 1.7-3.5 4.1-.1 1.7-.1 3.5-.1 5.3 0 2.5.2 5.1.2 7.6 0 1.7.1 3.9 2.4 3.9.4 0 .8-.1 1.2-.3.7-.9 1-3.4 1-4.6.2-5.2.2-10.4.3-15.7zM360.2 201.4c-.6.7-1.7.8-2.6.8-6.2 0-10.5-2.9-10.5-9.5 0-3 1.5-5.7 4.8-5.7 1.9 0 3.7 1.4 4.4 1.4.1 0 .2 0 .2-.1 0-4.3-.1-19.1-2-22.1-.5-.8-1.3-1.5-2.4-1.5-2.2 0-3.5 2.3-3.5 4.3 0 1.7 0 2.1-1.8 2.1-.8 0-2.8.2-2.8-1 0-1.1.8-3 1.3-4 1.4-2.7 4.6-5.3 7.8-5.3.7 0 1.5.2 2.1.5 3.8 1.8 4.3 9 4.7 12.6.4 4.1.6 8.3.6 12.4 0 4-.1 8-.1 12.1 0 .9.3 2.1-.2 3zm-9-7.9c0 2.8 2 4.9 4.8 4.9.9 0 1-1 1-1.7 0-1.2-.4-2.3-.4-3.5 0-2.2-.6-2.7-2.8-2.7-1.6.2-2.6 1.4-2.6 3zM368.3 164.6c-.6-.1-2.3-.2-2.6-.6 0-.2-.1-.3-.1-.5 0-2.1-.1-2.6 2.2-2.6 1.4 0 2.7.2 4 .2 1 0 2-.2 3-.2.7 0 1.9 0 1.9 1 0 .6.1 1.3.1 1.9 0 1.4-3.6-.3-3.6 1.9 0 .5.1 1 .1 1.5.2 5.4.2 10.7.3 16.1 0 5.6 0 11.1.3 16.7v1c0 .4 0 1-.6 1-.5 0-1-.3-1.5-.4-1-.4-1.3-.1-1.3-1.5 0-.7.1-1.4.1-2 0-10.4-.7-20.9-.7-31.3.1-1.9.1-1.9-1.6-2.2zM388.9 185.3c2.2 1.6 4 4.4 4 7.2 0 1-.2 2-.7 2.8-2.1 3.7-6.6 3.4-10.3 3.6-.2-1.7-.3-3.4-.3-5.1 0-5.9.5-11.8.5-17.7 0-3.1-.2-6.3-.2-9.4 0-2.2.1-2.9 2.5-2.9 1.7 0 1.5 1.1 1.5 2.4 0 1.9-.4 3.7-.5 5.6-.1 1.8-.4 3.7-.4 5.5 0 1.4-.1 2.8-.1 4.1.1 3.7 2 2.5 4 3.9zm-2.4 9.4c1.4-.6 2.6-2 2.6-3.6s-1.8-3.8-3.5-3.8c-.9 0-1 .9-1 1.6 0 1.1.3 2.3.3 3.4 0 .7-.3 2.6.7 2.6.3.1.6 0 .9-.2zM411.9 181.3c0-6.7 2.7-14.1 10.5-14.1 8.1 0 9.8 9.5 9.8 15.7 0 6.4-2.8 13.8-10.3 13.8-7.7 0-10-9.3-10-15.4zm3.4-.9c0 1 0 1.9.1 2.9.3 3.2 2.4 10 6.4 10 5.2 0 6.8-7.7 6.8-11.8 0-3.7-1.5-11-6.3-11-5.7.1-7 5.1-7 9.9zM436.1 164.6c-.6-.1-2.3-.2-2.6-.6 0-.2-.1-.3-.1-.5 0-2.1-.1-2.6 2.2-2.6 1.4 0 2.7.2 4 .2 1 0 2-.2 3-.2.7 0 1.9 0 1.9 1 0 .6.1 1.3.1 1.9 0 1.4-3.6-.3-3.6 1.9 0 .5.1 1 .1 1.5.2 5.4.2 10.7.3 16.1 0 5.6 0 11.1.3 16.7v1c0 .4 0 1-.6 1-.5 0-1-.3-1.5-.4-1-.4-1.3-.1-1.3-1.5 0-.7.1-1.4.1-2 0-10.4-.7-20.9-.7-31.3.2-1.9.1-1.9-1.6-2.2zM55.2 254.2c-3.8-1-4.3-7.6-4.3-10.9 0-5.6 2.2-7.4 7.7-7.4.5 0 .9 0 1.4.1-1.3-3.3-10-3-10-10.2 0-1.3.8-2.5 1.7-3.4 2.7-2.9 8.4-3.5 12.2-3.5h.8c.1.1.1.3.1.4 0 .9-.3 2.9-.6 3.8 0 0-.1.3-.2.3-.9 0-1.9-.2-2.8-.2-1.7 0-6.6.5-6.6 2.8 0 3.1 7.1 3.6 8.5 9.9.5 2.2.6 4.5.6 6.8 0 5-.7 11.6-7.2 11.6-.4 0-.9 0-1.3-.1zm.4-13.9c-.3 1.8-.5 3.6-.5 5.4 0 1.6-.2 5.5 1.9 5.7.5-.2.9-.4 1.3-.7 1-1.7 1.6-6.2 1.6-8.2 0-1.2-.1-2.4-.3-3.6-1.6.1-2.9.5-4 1.4zm1.5 12.9zM81.8 222.3c.3 4 .8 8 .8 12 0 2.7-.2 5.3-.3 7.9-.3 4.1-.7 13.8-6.5 13.8-3.9 0-6-2.7-6-6.5 0-2.1.1-4.5 2.8-4.5.2 0 .5.2.5.4 0 .4-.3.8-.3 1.2 0 1.4.5 6.4 2.4 6.4.5 0 1-.3 1.4-.7 1.4-1.3 1.5-4.1 1.6-5.9.2-2.5.4-4.9.4-7.4.1-3.2.3-6.4.3-9.6 0-.5 0-1.3-.3-1.8-.6 1.6-1.8 3.3-3.7 3.3-5.2 0-6.2-7.6-6.2-11.5 0-1.5 1-2.1 2.4-2.1 1.3 0 1.5 1.5 1.5 2.5 0 1.5-.2 3.1.1 4.6.2 1.2 1.1 3.5 2.6 3.5 2.2 0 2.6-3.7 2.6-5.3 0-1.2-.4-2.4-.4-3.6 0-1 1.1-1.1 1.9-1.1 1.8 0 2.5-.1 2.5 1.9-.1.9-.2 1.7-.1 2.5zM99.8 243.8c.3 1.1 1.9 6.5 1.9 7.1 0 .5-.5.5-.9.5h-.6c-2.4-.2-2-1.2-2.5-3.1-.5-2.2-1.2-4.3-1.8-6.5-.6-2.3-1-4.6-1.6-6.8-.2-.9-.8-5.4-1.3-5.7-.7 4.4-1.4 8.8-1.8 13.3-.2 2.4-.9 4.8-1 7.3-.1 1.4.2 1.3-1.2 1.7-.2.1-.5.1-.7.1-.7 0-1.5-.2-2.1-.5.1-3.5 1.4-7 1.8-10.6.6-4.4 1.3-8.7 2-13.1.2-1 .1-4.6.8-5.1.4-.3 1.5-.3 2-.3.3 0 .9 0 1.3.2.9.4 1.1 2.6 1.2 3.4 1.4 5.9 3.1 12 4.5 18.1zM118.4 243.8c.3 1.1 1.9 6.5 1.9 7.1 0 .5-.5.5-.9.5h-.6c-2.4-.2-2-1.2-2.5-3.1-.5-2.2-1.2-4.3-1.8-6.5-.6-2.3-1-4.6-1.6-6.8-.2-.9-.8-5.4-1.3-5.7-.7 4.4-1.4 8.8-1.8 13.3-.2 2.4-.9 4.8-1 7.3-.1 1.4.2 1.3-1.2 1.7-.2.1-.5.1-.7.1-.7 0-1.5-.2-2.1-.5.1-3.5 1.4-7 1.8-10.6.6-4.4 1.3-8.7 2-13.1.2-1 .1-4.6.8-5.1.4-.3 1.5-.3 2-.3.3 0 .9 0 1.3.2.9.4 1.1 2.6 1.2 3.4 1.4 5.9 3 12 4.5 18.1zM136.7 229.7c-.6.4-3.2 6.6-3.8 7.8-1.6 2.9-3.2 5.9-4.2 9.1-.2.6-.5 2.5-1.1 2.9-.3.2-2 .3-2.4.3-1.1 0-1.1-2.9-1.1-3.6 0-2.2.3-4.4.3-6.5 0-3.1-.3-6.2-.3-9.2 0-1.2.1-2.3.1-3.5 0-1.2-.2-2.3-.2-3.5 0-.9 2.2-1.5 2.9-1.5.6 0 .6.8.6 1.2 0 5.4-.1 10.7-.1 16.1 0 .9 0 1.8.2 2.7 1.3-1.6 3.9-6.8 4.7-8.8.8-2.1 1.9-4 2.7-6 .4-1 .9-3.8 1.6-4.4.5-.5 1.2-.7 1.9-.7.9 0 1.3.6 1.3 1.5 0 1.1-.3 2.1-.3 3.2 0 6.4.3 12.8.3 19.2 0 1.5-.1 2.9-.2 4.4-.2 1.5-.2 1.2-1.6 1.3-.3 0-.7.1-1 .1-.8 0-.8-1.8-.8-2.4 0-6.3.9-12.5.9-18.8-.3-.5-.3-.7-.4-.9zM157.1 230c.1 5.7.1 11.3.1 17 0 1.1.2 2.1.2 3.2 0 .4-.1 1.1-.6 1.1-.3 0-.6-.1-.9-.2-1.6-.3-2-1.2-2-2.7 0-1.3.3-5.9-.3-6.9-.4-.7-.9-.7-1.6-.7-1.2 0-2.4-.5-3.5-.5-.9 0-.9 1.1-.9 1.8 0 1 .1 2.1.2 3.1 0 1 .4 1.9.4 2.9 0 1.1-1.6 1.2-2.5 1.2-.9 0-1.8-.1-1.8-1.2 0-.9.3-1.7.3-2.6 0-1.8-.2-3.6-.2-5.5 0-4.5.3-9 .3-13.6 0-1.3-.1-2.5-.1-3.8 0-.5.1-.7.6-.7.9 0 3.3-.3 3.3 1 0 .8-.3 1.6-.4 2.4v1.6c0 2 .1 4 .1 6.1 0 .9-.3 1.7-.3 2.6 0 1 .6 1.3 1.5 1.4 1.1.1 2.3.3 3.5.3.2 0 .6 0 .8-.1.6-.4.6-2.5.6-3.1 0-1.4-.1-2.7-.1-4.1 0-1.3.1-2.7.1-4 0-.8-.1-1.6-.1-2.4 0-1 .4-1.6 1.5-1.6 1.4 0 1.9.8 1.9 2-.1 2.1-.1 4-.1 6zM171.4 234.7c-1.4 3.3-5.8 7.8-5.8 11.2 0 .7.2 2.6 1.2 2.6 1.7 0 .9-2.1 1.5-2.7.4-.4 1.8-.4 2.4-.4h1.2v.4c0 2.8-1.9 6.2-5 6.2-3.2 0-5-2.8-5-5.8 0-6.4 6.9-10 6.9-17.3 0-1.5-.6-4.2-2.5-4.2-1.2 0-1.9 1.4-1.9 2.5 0 .7.3 1.3.3 1.9 0 1.1-1.2 1.8-2.2 1.8-1.5 0-1.9-1.5-1.9-2.7 0-3.2 1.9-7.2 5.6-7.2 4.2 0 6.3 4.4 6.3 8.1 0 2-.4 3.9-1.1 5.6zM192.3 256.6c-.6.7-1.7.8-2.6.8-6.2 0-10.5-2.9-10.5-9.5 0-3 1.5-5.7 4.8-5.7 1.9 0 3.7 1.4 4.4 1.4.1 0 .2 0 .2-.1 0-4.3-.1-19.1-2-22.1-.5-.8-1.3-1.5-2.4-1.5-2.2 0-3.5 2.3-3.5 4.3 0 1.7 0 2.1-1.8 2.1-.8 0-2.8.2-2.8-1 0-1.1.8-3 1.3-4 1.4-2.7 4.6-5.3 7.8-5.3.7 0 1.5.2 2.1.5 3.8 1.8 4.3 9 4.7 12.6.4 4.1.6 8.3.6 12.4 0 4-.1 8-.1 12.1 0 .9.3 2.1-.2 3zm-9-7.9c0 2.8 2 4.9 4.8 4.9.9 0 1-1 1-1.7 0-1.2-.4-2.3-.4-3.5 0-2.2-.6-2.7-2.8-2.7-1.6.2-2.6 1.4-2.6 3zM202.3 249c.3 1.7-.2 4-.3 5.8 0 .7-.1 1.1-.5 1.2-.7.1-1 .2-1.7.4-.5.1-.6.2-.9-.5-.4-.7-.2-1.9-.2-2.8.1-1.2.1-3 .1-4.2 0-.2 0-.4.1-.6.4-1.2 1.1-.7 1.8-.7.9-.1 1.4-.3 1.6 1.4zM232.4 220.4c.2 1 .2 2.1.2 3.2 0 2.7-.4 5.5-.4 8.2 0 2.4.4 4.8.4 7.2 0 2.3-.2 4.6-.2 6.9 0 1.7.2 3.4.2 5.2 0 .9.2 2.6-1.1 2.6-.4 0-.7-.1-1.1-.2-.8-.2-1.2 0-1.2-1.2 0-.9.2-1.8.2-2.7 0-1.6-.1-3.3-.2-4.9-.1-6-.2-12.1-.2-18.1v-3.2c0-.7-.1-1-.8-1-1.9 0-3.7.6-5.6.6v4.1c.2 5.3.2 10.6.3 15.9 0 2.4-.1 5 .2 7.4.1.9.3 1.7.3 2.6 0 .2-.1.9 0 1-.2.5-2.5.6-2.9.6-1.1 0-.9-.2-1-1-.1-.6-.2-1.2-.2-1.8 0-1.4.2-2.9.2-4.3 0-8.9-.2-17.8-.2-26.7 0-1.1 1-1.8 2-1.8 2.8 0 5.6.4 8.3.4 1.3-.2 2.6-.7 2.8 1zM237.4 236.5c0-6.7 2.7-14.1 10.5-14.1 8.1 0 9.8 9.5 9.8 15.7 0 6.4-2.8 13.8-10.3 13.8-7.7 0-10-9.3-10-15.4zm3.4-.9c0 1 0 1.9.1 2.9.3 3.2 2.4 10 6.4 10 5.2 0 6.8-7.7 6.8-11.8 0-3.7-1.5-11-6.3-11-5.7.1-7 5.1-7 9.9zM282 241.2c-1.1 2-2.1 4-3.1 6.1-.5 1.2-.8 2.6-2.4 2.6h-.6c-1.8-.3-1.9-1.6-2.7-3.1-1.1-2.1-2.2-4.1-3.3-6.3-.9-1.9-1.8-3.8-2.7-5.6-.7-1.3-1.4-2.5-2-3.8-.3-.5-.6-1.9-1-2.3 0 3.7.2 7.4.3 11.1.1 3.3.5 6.8.5 10.1 0 1-.1 1.2-1.2 1.2-1 0-2-.5-2.5-.5h-.2c-.2-.1-.4-.8-.4-1.1 0-1.6.2-3.2.2-4.7 0-5.2-.1-10.3 0-15.5 0-1.5-.2-2.9-.2-4.4 0-.6 0-3 .8-3 2.3 0 2.8.1 3.9 2.1 1.9 3.5 4 7 5.9 10.5.7 1.3 4.2 9.1 5.1 9.1.1 0 .3-.4.4-.5.9-1.5 1.5-3.2 2.3-4.8 1.9-3.7 4-7.3 5.9-11 .6-1.1 1.7-4.2 2.8-4.7.4-.2 1.7-.3 2.1-.3 1.6 0 1.4 1.2 1.4 2.6 0 5.2.1 10.3.2 15.5 0 2.1.1 4.2.2 6.3 0 1 .3 2 .3 3.1 0 .6-.1 1.3-.9 1.3-.4 0-.8-.2-1.1-.3-1.1-.4-.7.2-1-1.1-.2-.8-.2-1.5-.2-2.3 0-3.1-.1-6.1-.2-9.2-.1-2.2-.1-4.5-.2-6.7 0-.5-.1-1.1-.1-1.6l-.1-.4c-.2 0-.7.8-.8 1-2 3.3-3.6 7.1-5.4 10.6zM309.3 230c.1 5.7.1 11.3.1 17 0 1.1.2 2.1.2 3.2 0 .4-.1 1.1-.6 1.1-.3 0-.6-.1-.9-.2-1.6-.3-2-1.2-2-2.7 0-1.3.3-5.9-.3-6.9-.4-.7-.9-.7-1.6-.7-1.2 0-2.4-.5-3.5-.5-.9 0-.9 1.1-.9 1.8 0 1 .1 2.1.2 3.1 0 1 .4 1.9.4 2.9 0 1.1-1.6 1.2-2.5 1.2-.9 0-1.8-.1-1.8-1.2 0-.9.3-1.7.3-2.6 0-1.8-.2-3.6-.2-5.5 0-4.5.3-9 .3-13.6 0-1.3-.1-2.5-.1-3.8 0-.5.1-.7.6-.7.9 0 3.3-.3 3.3 1 0 .8-.3 1.6-.4 2.4v1.6c0 2 .1 4 .1 6.1 0 .9-.3 1.7-.3 2.6 0 1 .6 1.3 1.5 1.4 1.1.1 2.3.3 3.5.3.2 0 .6 0 .8-.1.6-.4.6-2.5.6-3.1 0-1.4-.1-2.7-.1-4.1 0-1.3.1-2.7.1-4 0-.8-.1-1.6-.1-2.4 0-1 .4-1.6 1.5-1.6 1.4 0 1.9.8 1.9 2-.1 2.1-.2 4-.1 6zM326.5 229.7c-.6.4-3.2 6.6-3.8 7.8-1.6 2.9-3.2 5.9-4.2 9.1-.2.6-.5 2.5-1.1 2.9-.3.2-2 .3-2.4.3-1.1 0-1.1-2.9-1.1-3.6 0-2.2.3-4.4.3-6.5 0-3.1-.3-6.2-.3-9.2 0-1.2.1-2.3.1-3.5 0-1.2-.2-2.3-.2-3.5 0-.9 2.2-1.5 2.9-1.5.6 0 .6.8.6 1.2 0 5.4-.1 10.7-.1 16.1 0 .9 0 1.8.2 2.7 1.3-1.6 3.9-6.8 4.7-8.8.8-2.1 1.9-4 2.7-6 .4-1 .9-3.8 1.6-4.4.5-.5 1.2-.7 1.9-.7.9 0 1.3.6 1.3 1.5 0 1.1-.3 2.1-.3 3.2 0 6.4.3 12.8.3 19.2 0 1.5-.1 2.9-.2 4.4-.2 1.5-.2 1.2-1.6 1.3-.3 0-.7.1-1 .1-.8 0-.8-1.8-.8-2.4 0-6.3.9-12.5.9-18.8-.3-.5-.3-.7-.4-.9zM338.2 249c.3 1.7-.2 4-.3 5.8 0 .7-.1 1.1-.5 1.2-.7.1-1 .2-1.7.4-.5.1-.6.2-.9-.5-.4-.7-.2-1.9-.2-2.8.1-1.2.1-3 .1-4.2 0-.2 0-.4.1-.6.4-1.2 1.2-.7 1.8-.7.8-.1 1.3-.3 1.6 1.4zM355.3 231c0-2.3.1-4.6 0-6.8 0-.7-.1-1.9-.1-2.6 0-1.3.4-1.4 1.8-1.4s3.5.7 4.7 1.5c3.5 2.2 4.7 7 4.7 10.9 0 4.6-2.5 6.5-3.8 8.3-.1.2 7 1.3 7 7.2 0 5.7-9.8 5-13.3 5-.9 0-.8-.6-.9-1.3-.1-.9-.1-1.7-.1-2.6 0-6-.1-12-.1-18v-.2zm5.7-4.8c-.3-.4-2.4-2.8-2.4-1.2 0 4.4.3 9.6.3 14 0 .1 0 .2.1.3h.2c4.3-1.4 4-10.2 1.8-13.1zm5 21.1c-.1-2.7-4.7-3-6.3-3-.7 0-.7.5-.7 1 0 1.1-.1 2.2-.1 3.3 0 .7.2 1.1 1 1.1 3.6.1 6.1-.5 6.1-2.4zM398.5 223c1.5 4 1.2 6.4 1.2 10.5 0 1.3.1 2.7.1 4 0 1.1-.1 2.3-.2 3.4-.4 4.2-.6 13-6.5 13-4.5 0-6.6-5.3-6.6-9.1 0-.8 2.8-.7 3.3-.7.2 1.6.5 5.4 2.7 5.4 3.1 0 3.9-7.1 3.9-9.4h-1.3c-.9 0-1.8.2-2.7.2-1.9 0-2.8-.2-2.8-2.4 0-1.2.1-1.6 1.4-1.6 1.8 0 3.5.4 5.3.4 0-1.9.1-3.8.1-5.7 0-1.8-.5-8-3-8-3.1 0-3 6.5-3.4 8.5-.1.6-.5 1-1.1 1-.8 0-2.3-.4-2.3-1.4 0-.3.1-.5.2-.8-.1-3.7 1.9-11.7 6.8-11.7 2.3 0 4.1 2.3 4.9 4.4zM406.2 219.8c-.6-.1-2.3-.2-2.6-.6 0-.2-.1-.3-.1-.5 0-2.1-.1-2.6 2.2-2.6 1.4 0 2.7.2 4 .2 1 0 2-.2 3-.2.7 0 1.9 0 1.9 1 0 .6.1 1.3.1 1.9 0 1.4-3.6-.3-3.6 1.9 0 .5.1 1 .1 1.5.2 5.4.2 10.7.3 16.1 0 5.6 0 11.1.3 16.7v1c0 .4 0 1-.6 1-.5 0-1-.3-1.5-.4-1-.4-1.3-.1-1.3-1.5 0-.7.1-1.4.1-2 0-10.4-.7-20.9-.7-31.3.1-1.9.1-1.9-1.6-2.2zM417.1 236.5c0-6.7 2.7-14.1 10.5-14.1 8.1 0 9.8 9.5 9.8 15.7 0 6.4-2.8 13.8-10.3 13.8-7.7 0-10-9.3-10-15.4zm3.4-.9c0 1 0 1.9.1 2.9.3 3.2 2.4 10 6.4 10 5.2 0 6.8-7.7 6.8-11.8 0-3.7-1.5-11-6.3-11-5.7.1-7 5.1-7 9.9zM461.7 241.2c-1.1 2-2.1 4-3.1 6.1-.5 1.2-.8 2.6-2.4 2.6h-.6c-1.8-.3-1.9-1.6-2.7-3.1-1.1-2.1-2.2-4.1-3.3-6.3-.9-1.9-1.8-3.8-2.7-5.6-.7-1.3-1.4-2.5-2-3.8-.3-.5-.6-1.9-1-2.3 0 3.7.2 7.4.3 11.1.1 3.3.5 6.8.5 10.1 0 1-.1 1.2-1.2 1.2-1 0-2-.5-2.5-.5h-.2c-.2-.1-.4-.8-.4-1.1 0-1.6.2-3.2.2-4.7 0-5.2-.1-10.3 0-15.5 0-1.5-.2-2.9-.2-4.4 0-.6 0-3 .8-3 2.3 0 2.8.1 3.9 2.1 1.9 3.5 4 7 5.9 10.5.7 1.3 4.2 9.1 5.1 9.1.1 0 .3-.4.4-.5.9-1.5 1.5-3.2 2.3-4.8 1.9-3.7 4-7.3 5.9-11 .6-1.1 1.7-4.2 2.8-4.7.4-.2 1.7-.3 2.1-.3 1.6 0 1.4 1.2 1.4 2.6 0 5.2.1 10.3.2 15.5 0 2.1.1 4.2.2 6.3 0 1 .3 2 .3 3.1 0 .6-.1 1.3-.9 1.3-.4 0-.8-.2-1.1-.3-1.1-.4-.7.2-1-1.1-.2-.8-.2-1.5-.2-2.3 0-3.1-.1-6.1-.2-9.2-.1-2.2-.1-4.5-.2-6.7 0-.5-.1-1.1-.1-1.6l-.1-.4c-.2 0-.7.8-.8 1-2 3.3-3.6 7.1-5.4 10.6zM79.7 275c-.6-.1-2.3-.2-2.6-.6 0-.2-.1-.3-.1-.5 0-2.1-.1-2.6 2.2-2.6 1.4 0 2.7.2 4 .2 1 0 2-.2 3-.2.7 0 1.9 0 1.9 1 0 .6.1 1.3.1 1.9 0 1.4-3.6-.3-3.6 1.9 0 .5.1 1 .1 1.5.3 5.4.3 10.7.3 16.1 0 5.6 0 11.1.3 16.7v1c0 .4 0 1-.6 1-.5 0-1-.3-1.5-.4-1-.4-1.3-.1-1.3-1.5 0-.7.1-1.4.1-2 0-10.4-.7-20.9-.7-31.3.2-1.9.1-1.9-1.6-2.2zM90.6 291.7c0-6.7 2.7-14.1 10.5-14.1 8.1 0 9.8 9.5 9.8 15.7 0 6.4-2.8 13.8-10.3 13.8-7.7 0-10-9.3-10-15.4zm3.5-.9c0 1 0 1.9.1 2.9.3 3.2 2.4 10 6.4 10 5.2 0 6.8-7.7 6.8-11.8 0-3.7-1.5-11-6.3-11-5.7.1-7 5.1-7 9.9zM120.3 295.3c-7.5-.3-6.9-10.2-7.2-15.5v-1.3c0-.8.9-.9 1.6-.9.7 0 1.7-.1 1.7.9 0 3.7-.3 13.1 5.2 13.1 5.4 0 5.5-6.1 5.5-10.1 0-1-.6-4.3.9-4.3 3.1 0 2.6 1.2 2.6 3.7 0 7.2.2 14.4.2 21.6 0 1.4.4 4.2-1.7 4.2-1.9 0-1.9-3.4-1.9-4.7 0-3.1.2-6.3.2-9.4v-1c-1.1 2.5-3.9 3.7-6.5 3.7h-.6zM147.7 285.2c.1 5.7.1 11.3.1 17 0 1.1.2 2.1.2 3.2 0 .4-.1 1.1-.6 1.1-.3 0-.6-.1-.9-.2-1.6-.3-2-1.2-2-2.7 0-1.3.3-5.9-.3-6.9-.4-.7-.9-.7-1.6-.7-1.2 0-2.4-.5-3.5-.5-.9 0-.9 1.1-.9 1.8 0 1 .1 2.1.2 3.1 0 1 .4 1.9.4 2.9 0 1.1-1.6 1.2-2.5 1.2-.9 0-1.8-.1-1.8-1.2 0-.9.3-1.7.3-2.6 0-1.8-.2-3.6-.2-5.5 0-4.5.3-9 .3-13.6 0-1.3-.1-2.5-.1-3.8 0-.5.1-.7.6-.7.9 0 3.3-.3 3.3 1 0 .8-.3 1.6-.4 2.4v1.6c0 2 .1 4 .1 6.1 0 .9-.3 1.7-.3 2.6 0 1 .6 1.3 1.5 1.4 1.1.1 2.3.3 3.5.3.2 0 .6 0 .8-.1.6-.4.6-2.5.6-3.1 0-1.4-.1-2.7-.1-4.1 0-1.3.1-2.7.1-4 0-.8-.1-1.6-.1-2.4 0-1 .4-1.6 1.5-1.6 1.4 0 1.9.8 1.9 2-.1 2.1-.2 4-.1 6zM152.4 291.7c0-6.7 2.7-14.1 10.5-14.1 8.1 0 9.8 9.5 9.8 15.7 0 6.4-2.8 13.8-10.3 13.8-7.7 0-10-9.3-10-15.4zm3.4-.9c0 1 0 1.9.1 2.9.3 3.2 2.4 10 6.4 10 5.2 0 6.8-7.7 6.8-11.8 0-3.7-1.5-11-6.3-11-5.7.1-7 5.1-7 9.9zM202.7 285.2c.1 5.7.1 11.3.1 17 0 1.1.2 2.1.2 3.2 0 .4-.1 1.1-.6 1.1-.3 0-.6-.1-.9-.2-1.6-.3-2-1.2-2-2.7 0-1.3.3-5.9-.3-6.9-.4-.7-.9-.7-1.6-.7-1.2 0-2.4-.5-3.5-.5-.9 0-.9 1.1-.9 1.8 0 1 .1 2.1.2 3.1 0 1 .4 1.9.4 2.9 0 1.1-1.6 1.2-2.5 1.2-.9 0-1.8-.1-1.8-1.2 0-.9.3-1.7.3-2.6 0-1.8-.2-3.6-.2-5.5 0-4.5.3-9 .3-13.6 0-1.3-.1-2.5-.1-3.8 0-.5.1-.7.6-.7.9 0 3.3-.3 3.3 1 0 .8-.3 1.6-.4 2.4v1.6c0 2 .1 4 .1 6.1 0 .9-.3 1.7-.3 2.6 0 1 .6 1.3 1.5 1.4 1.1.1 2.3.3 3.5.3.2 0 .6 0 .8-.1.6-.4.6-2.5.6-3.1 0-1.4-.1-2.7-.1-4.1 0-1.3.1-2.7.1-4 0-.8-.1-1.6-.1-2.4 0-1 .4-1.6 1.5-1.6 1.4 0 1.9.8 1.9 2-.1 2.1-.2 4-.1 6zM216.1 306.9c-.6.2-1.2.3-1.8.3-6.1 0-7.6-10.6-7.6-15.1 0-4.7.4-15.6 7.1-15.6 5.1 0 7.4 7.5 7.4 11.6 0 2-1.1 2.3-2.9 2.3-1.6 0-3.1-.1-4.7-.1-1.3 0-2.8.3-2.8 1.9 0 .8.2 1.7.2 2.5.2 2.1.3 8.8 3.3 8.8 2.9 0 2.1-5.8 2.8-6.3.4-.2.7-.2 1.2-.2.8 0 1.6.1 2.4.1.7 0 .7.4.7.9.1 3.4-1.8 7.9-5.3 8.9zm-4.8-20.2c0 .4.9.5 1.2.5 1.1 0 2.2-.3 3.3-.5.8-.1 1.4 0 1.4-1.1 0-1.8-1.6-5.6-3.7-5.6s-2.1 3-2.1 4.5v1.2c0 .4-.1.7-.1 1zM228.5 275c-.6-.1-2.3-.2-2.6-.6 0-.2-.1-.3-.1-.5 0-2.1-.1-2.6 2.2-2.6 1.4 0 2.7.2 4 .2 1 0 2-.2 3-.2.7 0 1.9 0 1.9 1 0 .6.1 1.3.1 1.9 0 1.4-3.6-.3-3.6 1.9 0 .5.1 1 .1 1.5.2 5.4.2 10.7.3 16.1 0 5.6 0 11.1.3 16.7v1c0 .4 0 1-.6 1-.5 0-1-.3-1.5-.4-1-.4-1.3-.1-1.3-1.5 0-.7.1-1.4.1-2 0-10.4-.7-20.9-.7-31.3.1-1.9.1-1.9-1.6-2.2zM257.7 275c-.6-.1-2.3-.2-2.6-.6 0-.2-.1-.3-.1-.5 0-2.1-.1-2.6 2.2-2.6 1.4 0 2.7.2 4 .2 1 0 2-.2 3-.2.7 0 1.9 0 1.9 1 0 .6.1 1.3.1 1.9 0 1.4-3.6-.3-3.6 1.9 0 .5.1 1 .1 1.5.2 5.4.2 10.7.3 16.1 0 5.6 0 11.1.3 16.7v1c0 .4 0 1-.6 1-.5 0-1-.3-1.5-.4-1-.4-1.3-.1-1.3-1.5 0-.7.1-1.4.1-2 0-10.4-.7-20.9-.7-31.3.2-1.9.1-1.9-1.6-2.2zM271.1 286.2c0-2.3.1-4.6 0-6.8 0-.7-.1-1.9-.1-2.6 0-1.3.4-1.4 1.8-1.4s3.5.7 4.7 1.5c3.5 2.2 4.7 7 4.7 10.9 0 4.6-2.5 6.5-3.8 8.3-.1.2 7 1.3 7 7.2 0 5.7-9.8 5-13.3 5-.9 0-.8-.6-.9-1.3-.1-.9-.1-1.7-.1-2.6 0-6-.1-12-.1-18v-.2zm5.7-4.8c-.3-.4-2.4-2.8-2.4-1.2 0 4.4.3 9.6.3 14 0 .1 0 .2.1.3h.2c4.3-1.4 4-10.2 1.8-13.1zm5 21.1c-.1-2.7-4.7-3-6.3-3-.7 0-.7.5-.7 1 0 1.1-.1 2.2-.1 3.3 0 .7.2 1.1 1 1.1 3.6.1 6.1-.5 6.1-2.4zM288.8 291.7c0-6.7 2.7-14.1 10.5-14.1 8.1 0 9.8 9.5 9.8 15.7 0 6.4-2.8 13.8-10.3 13.8-7.7 0-10-9.3-10-15.4zm3.5-.9c0 1 0 1.9.1 2.9.3 3.2 2.4 10 6.4 10 5.2 0 6.8-7.7 6.8-11.8 0-3.7-1.5-11-6.3-11-5.7.1-7 5.1-7 9.9zM321.6 306.9c-.6.2-1.2.3-1.8.3-6.1 0-7.6-10.6-7.6-15.1 0-4.7.4-15.6 7.1-15.6 5.1 0 7.4 7.5 7.4 11.6 0 2-1.1 2.3-2.9 2.3-1.6 0-3.1-.1-4.7-.1-1.3 0-2.8.3-2.8 1.9 0 .8.2 1.7.2 2.5.2 2.1.3 8.8 3.3 8.8 2.9 0 2.1-5.8 2.8-6.3.4-.2.7-.2 1.2-.2.8 0 1.6.1 2.4.1.7 0 .7.4.7.9.1 3.4-1.8 7.9-5.3 8.9zm-4.8-20.2c0 .4.9.5 1.2.5 1.1 0 2.2-.3 3.3-.5.8-.1 1.4 0 1.4-1.1 0-1.8-1.6-5.6-3.7-5.6s-2.1 3-2.1 4.5v1.2c0 .4-.1.7-.1 1zM331.9 288.2v-1.3c0-2.1.1-4.2-.1-6.2 0-.6-.2-1.3-.2-1.9 0-1 2.1-1.8 2.9-1.8.8 0 .6 1.6.6 2.1v8c0 2.6-.1 5.1-.1 7.7 0 1.6 0 3.3.1 4.9 0 .3 0 .6.1.9 0 0 0 .4.1.4 0 0 .1-.3.2-.4.2-.7.4-1.3.6-2l2.4-8.4c.3-1.3 3.3-11.8 3.6-12.2.4-.5 1.3-.8 1.9-.8 1.1 0 1.3.9 1.3 1.8 0 1.1-.3 2.1-.3 3.2 0 4.9.2 9.8.2 14.7 0 3.2.2 6.3.2 9.5 0 1.6-.1 3.2-.2 4.8-.2 1.7 0 1.4-1.6 1.6-.3 0-.7.1-1 .1-1 0-.9-3-.9-3.6 0-7.1.7-14.3.7-21.4v-1c0-.2 0-.3-.1-.3-.2 0-.7 1.9-.8 2.1-.7 2.4-1.2 4.9-1.8 7.3-1 3.6-2 7.2-3.2 10.8-.2.7-.5 3.1-1 3.5-.3.2-2 .3-2.4.3-1.2 0-1.2-3.8-1.2-4.5 0-2.4.3-4.8.3-7.3 0-3.6-.2-7.1-.3-10.6zm4.6-14.1c-.1 0-.2-.6-.2-.7-.1-.8-.1-1.7-.2-2.5 2-.1 4-.1 6-.1 0 .7.3 1.4.3 2.1 0 1.2-1.3 1.2-2.2 1.2-1 0-1.9-.1-2.9-.1-.2.1-.5.1-.8.1zM363.9 286.2c0-2.3.1-4.6 0-6.8 0-.7-.1-1.9-.1-2.6 0-1.3.4-1.4 1.8-1.4s3.5.7 4.7 1.5c3.5 2.2 4.7 7 4.7 10.9 0 4.6-2.5 6.5-3.8 8.3-.1.2 7 1.3 7 7.2 0 5.7-9.8 5-13.3 5-.9 0-.8-.6-.9-1.3-.1-.9-.1-1.7-.1-2.6 0-6-.1-12-.1-18v-.2zm5.7-4.8c-.3-.4-2.4-2.8-2.4-1.2 0 4.4.3 9.6.3 14 0 .1 0 .2.1.3h.2c4.3-1.4 4-10.2 1.8-13.1zm5 21.1c-.1-2.7-4.7-3-6.3-3-.7 0-.7.5-.7 1 0 1.1-.1 2.2-.1 3.3 0 .7.2 1.1 1 1.1 3.6.1 6.1-.5 6.1-2.4zM394.2 284.9c-.6.4-3.2 6.6-3.8 7.8-1.6 2.9-3.2 5.9-4.2 9.1-.2.6-.5 2.5-1.1 2.9-.3.2-2 .3-2.4.3-1.1 0-1.1-2.9-1.1-3.6 0-2.2.3-4.4.3-6.5 0-3.1-.3-6.2-.3-9.2 0-1.2.1-2.3.1-3.5 0-1.2-.2-2.3-.2-3.5 0-.9 2.2-1.5 2.9-1.5.6 0 .6.8.6 1.2 0 5.4-.1 10.7-.1 16.1 0 .9 0 1.8.2 2.7 1.3-1.6 3.9-6.8 4.7-8.8.8-2.1 1.9-4 2.7-6 .4-1 .9-3.8 1.6-4.4.5-.5 1.2-.7 1.9-.7.9 0 1.3.6 1.3 1.5 0 1.1-.3 2.1-.3 3.2 0 6.4.3 12.8.3 19.2 0 1.5-.1 2.9-.2 4.4-.2 1.5-.2 1.2-1.6 1.3-.3 0-.7.1-1 .1-.8 0-.8-1.8-.8-2.4 0-6.3.9-12.5.9-18.8-.3-.5-.3-.7-.4-.9zM414.6 285.2c.1 5.7.1 11.3.1 17 0 1.1.2 2.1.2 3.2 0 .4-.1 1.1-.6 1.1-.3 0-.6-.1-.9-.2-1.6-.3-2-1.2-2-2.7 0-1.3.3-5.9-.3-6.9-.4-.7-.9-.7-1.6-.7-1.2 0-2.4-.5-3.5-.5-.9 0-.9 1.1-.9 1.8 0 1 .1 2.1.2 3.1 0 1 .4 1.9.4 2.9 0 1.1-1.6 1.2-2.5 1.2-.9 0-1.8-.1-1.8-1.2 0-.9.3-1.7.3-2.6 0-1.8-.2-3.6-.2-5.5 0-4.5.3-9 .3-13.6 0-1.3-.1-2.5-.1-3.8 0-.5.1-.7.6-.7.9 0 3.3-.3 3.3 1 0 .8-.3 1.6-.4 2.4v1.6c0 2 .1 4 .1 6.1 0 .9-.3 1.7-.3 2.6 0 1 .6 1.3 1.5 1.4 1.1.1 2.3.3 3.5.3.2 0 .6 0 .8-.1.6-.4.6-2.5.6-3.1 0-1.4-.1-2.7-.1-4.1 0-1.3.1-2.7.1-4 0-.8-.1-1.6-.1-2.4 0-1 .4-1.6 1.5-1.6 1.4 0 1.9.8 1.9 2-.1 2.1-.2 4-.1 6zM429.4 307.8c-2.1 3.7-6.7 3.4-10.3 3.6-.2-1.5-.2-3-.2-4.5 0-4.2.4-8.3.6-12.5.1-4.5.1-9.1.1-13.6 0-1.9-.1-3.8-.1-5.7 0-2.1.1-2.8 2.5-2.8 1.4 0 1.6.7 1.6 2 0 2.1-.4 4.1-.5 6.1-.3 4.6-.6 9.3-.6 13.9 0 .8 0 1.6.7 2.2.7.6 2.3.8 3.3 1.4 2.1 1.4 3.9 4.6 3.9 7.1-.2 1-.5 2-1 2.8zm-7.4-6.4c0 1.1.3 2.1.3 3.2 0 .7-.4 2.8.7 2.8 1.8 0 3.5-2.1 3.5-3.8 0-1.6-1.8-3.8-3.5-3.8h-.3c-.7.2-.7 1.1-.7 1.6zm14.4 4.4c.1.9.3 1.9.3 2.8 0 .3-.1.9 0 1.1-.3.5-2.3.6-2.9.6-1.1 0-.9-.2-1-1.2-.1-.7-.2-1.3-.2-2 0-1.6.2-3.2.2-4.8 0-9.5-.1-19-.2-28.5.6 0 3 0 3.3.4.1.2.1.7.1.9 0 2.3-.1 4.6-.1 6.9 0 5.4.2 10.9.3 16.3 0 2.7-.1 5.1.2 7.5zM445 303.3c.2.8.3 1.7.3 2.6 0 .6-.1 1.1-.7 1.2-.9.2-1.9.3-2.8.3-.8 0-1.1-.5-1.1-1.2 0-.5.1-3 .3-3.3.3-.5 1-.5 1.5-.5.9-.1 2.2-.2 2.5.9z"/></g></g></switch></svg>