<svg id="Layer_1" data-name="Layer 1" xmlns="http://www.w3.org/2000/svg" viewBox="0 0 2567.11 1021.3"><defs><style>.cls-6{fill:#11113b}</style></defs><path d="M1475.35 38.05c-35.5.4-209.5-6.3-249.2-1.3-69.5 8.7-123 31.9-173.5 56.7-63.4 31.1-120.6 67.3-174.6 105.8-69.8 49.8-134.4 103.4-185.5 167.2-44.9 56-41.2 122.2-33.3 213.7 4.5 51.7-7.9 106 34.9 184.6 180.8 332.3 1316.9 353.5 1211.7-374.6-54.6-377.9-377.8-352.6-430.5-352.1z" fill="#c4e5e5"/><path d="M1720.81 693.67h-918.9a69.48 69.48 0 0 1-69.5-69.5v-161.5a69.48 69.48 0 0 1 69.5-69.5h918.9a69.48 69.48 0 0 1 69.5 69.5v161.5a69.48 69.48 0 0 1-69.5 69.5z" fill="#83cdea"/><path d="M1720.81 683.67h-918.9a69.48 69.48 0 0 1-69.5-69.5v-161.5a69.48 69.48 0 0 1 69.5-69.5h918.9a69.48 69.48 0 0 1 69.5 69.5v161.5a69.48 69.48 0 0 1-69.5 69.5z" fill="#fff"/><path d="M1007.21 452.47c25.2 0 49.7 6.5 68.4 17.7v.1l-17.8 33h-.1c-18.1-9.2-39.6-14.7-55.2-14.7-8.1 0-15.1 3.1-15.1 10.5 0 5 2.9 6.9 27.6 13.1 37.3 9.9 63.8 19.1 63.8 51.5 0 33.8-25.7 52.4-66.5 52.4-29.5 0-56.3-7.6-78-22V594l19.1-31.9h.1c20.5 11.7 43.5 17.4 63.8 17.5 8.7 0 16.5-3.1 16.5-10.3 0-9-4.6-10.1-30.7-16.6-35.9-8.8-61.8-17.2-61.8-48.2-.2-35.9 28.7-52 65.9-52zm220.5 38.7h-46v122.5h-42.9v-122.5h-46v-36.4h135l-.1 36.4zm276.6-36.4c48.8 0 70.2 18.4 70.2 57.3s-22.6 56.4-69.7 56.4h-27.1v45.2H1435v-158.9zm-26.7 36.8v43.9h25.1c18.7 0 27.2-6.7 27.2-21.8s-8.1-22.2-27.4-22.2l-24.9.1z" fill="#ff5a5a"/><path d="M1285 468.57c-3-12.7-15.2-11.2-18.1 3.1-9.4 46.5-4 93 9.4 119.3 18 35.2 74 32.7 94.4-3.4 39.1-69.4 33.7-94.4 20.2-91.7-9.6 1.9-28.8 30.1-30.2 32.2h-.1c0-2.8.6-45-.7-65.2-.9-13.4-3.4-22.2-11.5-22.2s-11.5 12.3-12 14.5c0 .1-.1 0-.1 0-.1-3.1-.8-25.9-12.1-25.9-15.5 0-13.1 38.5-13.5 34.4-2.7-27.8-26.9-25.1-25.7 4.9" fill="#ff9780"/><path class="cls-6" d="M1288.51 529.37a1.77 1.77 0 0 1-1.8-1.7l-3.4-59.3a1.74 1.74 0 0 1 1.7-1.9 1.8 1.8 0 0 1 1.9 1.7l3.4 59.3a1.74 1.74 0 0 1-1.7 1.9zm24.9-4.7a1.79 1.79 0 0 1-1.8-1.8l-2.7-59.3a1.85 1.85 0 0 1 3.7-.1l2.7 59.3a1.9 1.9 0 0 1-1.9 1.9zm23.3.4a1.79 1.79 0 0 1-1.8-1.8l-.3-67.7a1.88 1.88 0 0 1 1.8-1.9 1.81 1.81 0 0 1 1.9 1.8l.3 67.7a2.13 2.13 0 0 1-1.9 1.9z"/><path class="cls-6" d="M1276.11 533.77a1.92 1.92 0 0 1-1.8-1.4 1.79 1.79 0 0 1 1.2-2.1c29.1-12.4 51.2-9.1 64.4-7.2 2.3.3 4.3.6 6.1.8a1.93 1.93 0 0 1 1.8 1.7 1.84 1.84 0 0 1-2 2c-1.9-.2-4-.5-6.4-.8-12.8-1.9-34.3-5.1-62.5 7zm36 54.9h-.3a1.9 1.9 0 0 1-1.6-2.1c3.7-25.7 25.3-42.9 43.8-48a1.79 1.79 0 0 1 2.3 1.6 1.94 1.94 0 0 1-1.5 2c-17.4 4.9-37.5 21-41 44.9a1.6 1.6 0 0 1-1.7 1.6z"/></svg>