<svg id="Layer_1" data-name="Layer 1" xmlns="http://www.w3.org/2000/svg" viewBox="0 0 1456.08 1021.32"><defs><style>.cls-2{fill:#003b71}.cls-3{fill:#98989c}.cls-5{fill:#5f298b}.cls-6{fill:#d8dadc}.cls-7{fill:#c3c5c8}.cls-15{fill:#2b5d8a}</style></defs><path d="M1448.33 539.53l-3.5-17.09a63.38 63.38 0 0 0-20.69-27.65c-26.54-26.79-65.85-44.59-103.81-56.64A770.67 770.67 0 0 0 1242.7 418c-28-19-65.08-29.78-98.06-37.79-57.76-14-118.08-20.92-177.71-26.74-74.95-7.31-150.33-12-225.7-15.4-97.44-4.39-194.84-6.67-292.48-3.42-85.75 2.85-174.36 8.77-256.61 32.2-46.52 13.24-89.38 33.15-125.22 62.23C31.38 457.94 5 503 7.74 545.42 13 626.47 104.21 661 185.76 675.14c52.54 34 120.27 41.72 185.94 42.19 128.32 9.74 257.46-2.63 385-18.38q78.89-1.07 157.74-4.87c66.34-3.28 132.41-8.62 198.47-15.07 41.94-4.09 84-5.79 124.93-15.93 22.44-5.55 44.7-14.88 63.55-27.56 15.88-1.89 31.71-3.95 47.42-7.31 29.51-6.31 61-20.52 79.73-41.85 11.8-13.54 21.55-29.2 19.79-46.83z" fill="#a7d1d0"/><path class="cls-2" d="M174.15 295.09c.21 1.37.35 2.73.43 4.09s.1 2.73.1 4.09q0 5.37-.48 10.65t-.48 10.65q0 4.62.43 9.25c.28 3.08.43 6.17.43 9.25s-.1 6-.27 8.93-.27 5.91-.27 8.92q0 3.34.16 6.67t.16 6.67v2a8.54 8.54 0 0 1-.16 2.21 3.86 3.86 0 0 1-.8 1.77 2.2 2.2 0 0 1-1.78.7 5.18 5.18 0 0 1-1.29-.16q-.65-.16-1.29-.27c-1-.29-1.74-.52-2.21-.7s-.69-1-.69-2.42a22.23 22.23 0 0 1 .26-3.44 22.15 22.15 0 0 0 .27-3.44c0-2.15-.07-4.29-.21-6.4s-.22-4.21-.22-6.3q-.1-11.82-.32-23.45t-.21-23.44c0-1.37 0-2.75.05-4.15s.05-2.81.05-4.24a5.41 5.41 0 0 0-.27-1.89c-.18-.46-.73-.7-1.66-.7a42.59 42.59 0 0 0-8.29.81 43 43 0 0 1-8.39.81v4q0 3.44.11 6.77.21 10.33.32 20.55t.37 20.62c0 3.09 0 6.24-.06 9.47a77.94 77.94 0 0 0 .49 9.57c.14 1.08.3 2.17.48 3.28a21.14 21.14 0 0 1 .27 3.39 13.38 13.38 0 0 1-.11 1.34 2.57 2.57 0 0 0 .11 1.35 1.73 1.73 0 0 1-1.13.7 14.87 14.87 0 0 1-2 .43c-.76.11-1.47.18-2.15.21s-1.17.06-1.46.06H142l-1.23-.32a.72.72 0 0 1-.49-.33 1.66 1.66 0 0 1-.11-.7 11.53 11.53 0 0 0-.1-1.34 35.11 35.11 0 0 1-.33-4.63c0-1.86.06-3.72.17-5.59s.16-3.73.16-5.59q0-17.43-.16-34.59t-.17-34.47a4.42 4.42 0 0 1 4.63-4.63q5.81 0 11.51.49t11.51.48a15.91 15.91 0 0 0 2.31-.16 6.39 6.39 0 0 1 2 0 2.47 2.47 0 0 1 1.5.86 5.38 5.38 0 0 1 .95 2.31zM213.08 311.44q0 14.1-.21 28t-.22 28.13c0 1.37.06 2.71.17 4s.16 2.63.16 3.92a8.23 8.23 0 0 1-.06 1 1.53 1.53 0 0 1-.48.92c-1 .21-2 .45-3.12.7a13.84 13.84 0 0 1-3.12.38c-.29 0-.5-.22-.65-.65a8 8 0 0 1-.32-1.45 12.6 12.6 0 0 1-.11-1.62v-1a75.3 75.3 0 0 1 .17-9.52q.38-4.68.37-9.09 0-1.94.06-3.33a5.29 5.29 0 0 0-.33-2.26 2.31 2.31 0 0 0-1.45-1.24 11.41 11.41 0 0 0-3.44-.37c-2.08-.07-3.52.19-4.3.8s-1.2 2.24-1.2 4.63q0 4.1.22 8.23c.14 2.76.25 5.51.32 8.23a30.23 30.23 0 0 0 .16 3.18 30 30 0 0 1 .16 3.17 7.17 7.17 0 0 1-.21 2 1.33 1.33 0 0 1-.75.86 3.12 3.12 0 0 1-1.4.16c-.58 0-1.29-.05-2.15-.05s-1.8 0-2.59-.11-1.18-.75-1.18-2a16 16 0 0 1 .38-3.44 16.19 16.19 0 0 0 .37-3.45q0-5.91-.43-11.77t-.43-11.78q-.1-7.32-.1-14.52t-.22-14.42q0-3.44-.32-6.77c-.22-2.23-.32-4.45-.32-6.67v-2a18.77 18.77 0 0 1 .16-2.48 12.09 12.09 0 0 1 .53-2.36 2.62 2.62 0 0 1 1.13-1.56 1.78 1.78 0 0 1 .92-.33c.46-.07 1-.12 1.45-.16l1.45-.11c.47 0 .84-.05 1.13-.05a2.28 2.28 0 0 1 2.8 2.9c0 1.08-.05 2.91-.16 5.49s-.22 5.49-.33 8.71-.19 6.6-.26 10.11-.06 6.73 0 9.63a64.28 64.28 0 0 0 .59 7.16c.29 1.86.75 2.79 1.4 2.79.93 0 1.83 0 2.69.11s1.72.11 2.58.11c1.22 0 2-.2 2.31-.59a3.85 3.85 0 0 0 .49-2.32 15.63 15.63 0 0 0-.22-2.63 15.16 15.16 0 0 1-.21-2.53q0-8 .32-15.81t.32-15.81v-1.83a14.41 14.41 0 0 1 .16-2.1 4.19 4.19 0 0 1 .7-1.78 2 2 0 0 1 1.72-.75 5.89 5.89 0 0 1 2.16.54c.71.29 1.25.52 1.61.7a1.56 1.56 0 0 1 .75.7 2.39 2.39 0 0 1 .22 1.07v1.83q.11 4.64.1 9.36zM233.09 364a14.53 14.53 0 0 1 .54 3c.07 1 .11 2 .11 3.11a5.59 5.59 0 0 1-.27 1.78 1.59 1.59 0 0 1-1.35 1 42.31 42.31 0 0 1-6.56.54c-1.72 0-2.58-.93-2.58-2.8v-1.66c0-.76 0-1.56.11-2.43s.16-1.64.27-2.36a8.43 8.43 0 0 1 .27-1.4 2.52 2.52 0 0 1 1.66-1 12.5 12.5 0 0 1 2-.16 30.17 30.17 0 0 1 3.44.21 2.66 2.66 0 0 1 2.36 2.17zM432.27 269.71a17.06 17.06 0 0 1 5.65 3.12 20.49 20.49 0 0 1 4.09 4.68 21.91 21.91 0 0 1 2.53 5.65 22.3 22.3 0 0 1 .86 6.13 37.9 37.9 0 0 1-1.13 9.3 22.18 22.18 0 0 1-3.71 7.91 18.17 18.17 0 0 1-6.94 5.48 25 25 0 0 1-10.71 2c-1.36 0-2.15-.43-2.36-1.29a16 16 0 0 1-.43-2.91c-.15-2.36-.31-4.68-.49-6.94s-.37-4.57-.59-6.93q-1.08-9-1.5-18.08t-1.08-18.17c-.21-2.87-.56-5.69-1-8.45a49.59 49.59 0 0 1-.7-8.34c0-1.14 0-2.13.11-2.95a4.77 4.77 0 0 1 .59-2.05 3 3 0 0 1 1.5-1.23 7.91 7.91 0 0 1 3-.43 35.21 35.21 0 0 1 8.45 1 21.17 21.17 0 0 1 7.31 3.28 17.75 17.75 0 0 1 5.16 5.7 16.49 16.49 0 0 1 2 8.39 19.55 19.55 0 0 1-.64 5 15.33 15.33 0 0 1-2 4.52 14 14 0 0 1-3.28 3.49 12.45 12.45 0 0 1-4.69 2.12zm-9.36-22.81c0 1.15.08 2.68.22 4.58s.34 3.74.59 5.54.5 3.35.75 4.68.52 2 .81 2a10.34 10.34 0 0 0 3.44-.6 8.39 8.39 0 0 0 3.12-1.93 9.5 9.5 0 0 0 2.21-3.44 13.93 13.93 0 0 0 .8-5 8.65 8.65 0 0 0-1-3.65 11.61 11.61 0 0 0-2.42-3.12 12 12 0 0 0-3.33-2.21 8.77 8.77 0 0 0-3.55-.81c-.86 0-1.35.51-1.45 1.51a23.93 23.93 0 0 0-.19 2.45zm11.19 54.86a21.94 21.94 0 0 0 2.69-6.77 23.06 23.06 0 0 0 .48-8.18 16.85 16.85 0 0 0-2.85-7.58 12.9 12.9 0 0 0-7.1-5h-.43v8.93c0 3.22.08 6.34.22 9.35s.34 5.62.59 7.8.66 3.28 1.24 3.28a13.71 13.71 0 0 0 3-.37 3 3 0 0 0 2.16-1.46zM478 231.42a3.38 3.38 0 0 1 1.61 1.88 6.82 6.82 0 0 1 .54 2.53 4.22 4.22 0 0 1-1 2.74 3.29 3.29 0 0 1-2.64 1.24 5.34 5.34 0 0 1-2.53-.6 4.43 4.43 0 0 0-2-.59.84.84 0 0 0-1 .76 8.73 8.73 0 0 0-.11 1.39c0 .36 0 .74.05 1.13a12.41 12.41 0 0 1 .06 1.24 127.27 127.27 0 0 1 .91 14.15q.06 7 .48 14.25.33 7.53.7 14.9t1.13 14.89c.07.86.11 1.74.11 2.64v5.54a17.7 17.7 0 0 0 .22 2.8 14.12 14.12 0 0 0 .43 2.52 10.26 10.26 0 0 1 .32 2.53 2.48 2.48 0 0 1-1.78 2.69 12.27 12.27 0 0 1-3.6.54q-2.91 0-3.33-1.29a12.93 12.93 0 0 1-.43-3.87c0-1.3 0-2.57.16-3.82s.16-2.53.16-3.82v-.32q-.54-16.14-1.4-32t-1.29-31.89c0-.65 0-1.27-.06-1.88a5.76 5.76 0 0 0-.32-1.67 2.29 2.29 0 0 0-.91-1.18 3.51 3.51 0 0 0-1.94-.43 8 8 0 0 0-2.8.53 8 8 0 0 1-2.9.54 2.15 2.15 0 0 1-2.31-1.34 8.45 8.45 0 0 1-.49-2.85q0-.43.06-1.35a9.63 9.63 0 0 1 .27-1.83 5.65 5.65 0 0 1 .64-1.61 1.28 1.28 0 0 1 1.08-.7 4.33 4.33 0 0 1 1.56.27 6.45 6.45 0 0 0 1.45.38 44.75 44.75 0 0 0 4.79.59c1.61.11 3.17.16 4.68.16a32.92 32.92 0 0 0 3.76-.21 30.76 30.76 0 0 1 3.76-.22 17.88 17.88 0 0 1 1.94.11 6.41 6.41 0 0 1 1.97.53zM500.58 302a15.09 15.09 0 0 1 .53 3c.08 1 .11 2 .11 3.12a5.59 5.59 0 0 1-.27 1.78 1.62 1.62 0 0 1-1.34 1 42.41 42.41 0 0 1-6.56.54c-1.72 0-2.59-.94-2.59-2.8V307c0-.75 0-1.56.11-2.42s.16-1.65.27-2.37a11.1 11.1 0 0 1 .27-1.39 2.51 2.51 0 0 1 1.67-1 13.67 13.67 0 0 1 2-.16 30.42 30.42 0 0 1 3.44.22 2.65 2.65 0 0 1 2.36 2.12zM666.8 391.48h1.83a21.73 21.73 0 0 1 2.64.16 11.67 11.67 0 0 1 2.31.48c.65.22 1 .54 1 1a12.05 12.05 0 0 1-.16 2c-.11.65-.2 1.29-.27 1.94a43.82 43.82 0 0 1-1.56 6.08 21.38 21.38 0 0 1-2.8 5.59 14.37 14.37 0 0 1-4.35 4.09 11.68 11.68 0 0 1-6.14 1.56 10.18 10.18 0 0 1-8.2-3.38 22.42 22.42 0 0 1-4.36-8.12 49.11 49.11 0 0 1-1.93-9.95c-.33-3.48-.59-6.44-.81-8.88q-.33-3.33-.43-6.56t-.11-6.45c0-3 0-6 .11-9s.11-6 .11-9.09q0-3.66-.06-7.69c0-2.69 0-5.4.11-8.13a76.62 76.62 0 0 1 .75-8.06 36.73 36.73 0 0 1 1.89-7.43 23.39 23.39 0 0 1 1.88-3.6 18.86 18.86 0 0 1 2.58-3.23 12.73 12.73 0 0 1 3.28-2.36 8.55 8.55 0 0 1 3.87-.92 8.19 8.19 0 0 1 5.06 1.62 16.44 16.44 0 0 1 3.76 4 29 29 0 0 1 2.75 5.05 45.13 45.13 0 0 1 1.77 4.95c.29 1.08.61 2.24 1 3.5a12.7 12.7 0 0 1 .54 3.49 5.28 5.28 0 0 1 .54.92 2.52 2.52 0 0 1 .21 1c0 .72-.31 1.09-.91 1.13s-1.17.09-1.67.16a17.69 17.69 0 0 0-2.31.64 15.88 15.88 0 0 1-2.42.65c-.08-1.08-.24-2.58-.49-4.52a33.11 33.11 0 0 0-1.23-5.64 17.07 17.07 0 0 0-2.32-4.79 4.49 4.49 0 0 0-3.82-2c-1.72 0-3 1-4 2.86a25.41 25.41 0 0 0-2.09 6.61 58.71 58.71 0 0 0-.92 7.42c-.14 2.44-.21 4.23-.21 5.38q0 3.76.16 7.48t.16 7.47q0 4.41-.16 8.72c-.11 2.86-.16 5.77-.16 8.71v4c0 1.74.14 3.64.32 5.75s.45 4.25.81 6.4a33.43 33.43 0 0 0 1.51 5.92 15.7 15.7 0 0 0 2.31 4.41 4.11 4.11 0 0 0 3.39 1.72 4.52 4.52 0 0 0 3.49-1.45 10.22 10.22 0 0 0 2.1-3.5 21.35 21.35 0 0 0 1.08-4.25c.25-1.51.43-2.79.57-3.86zM693.16 314.14a16.9 16.9 0 0 1 2.69-.22 13.24 13.24 0 0 1 6.88 1.72 15.65 15.65 0 0 1 4.84 4.46 19.26 19.26 0 0 1 2.85 6.19 27.16 27.16 0 0 1 .92 7 28.24 28.24 0 0 1-.65 5.92 24.63 24.63 0 0 1-2 5.75 19 19 0 0 1-3.44 4.9 14.89 14.89 0 0 1-4.9 3.33 7.81 7.81 0 0 1-2.31.54 13.3 13.3 0 0 0-2.26.38 2.87 2.87 0 0 0-2.31 3.28q0 6.66.32 13.28t.33 13.18c0 3.16 0 6.27-.11 9.36s-.11 6.17-.11 9.25c0 1.65 0 3.3.11 4.95s.11 3.26.11 4.84a8.13 8.13 0 0 1-.22 1.93c-.14.58-.64.86-1.51.86a4.73 4.73 0 0 1-1.61-.27q-.75-.27-1.5-.48a18.89 18.89 0 0 1-2.59-.75q-.69-.34-.69-2.54a26.17 26.17 0 0 1 .16-3 25.26 25.26 0 0 0 .16-2.85q0-19.15-.59-38t-.59-38a53.84 53.84 0 0 0-.27-5.38 53.84 53.84 0 0 1-.27-5.38c0-1.94.54-3.1 1.62-3.5a12.06 12.06 0 0 1 4.08-.59h1.4a10.94 10.94 0 0 0 1.46-.16zm3.76 32.59a10.09 10.09 0 0 0 3.12-2.26 10.9 10.9 0 0 0 2.05-3.23 17.15 17.15 0 0 0 1.07-3.76 22.41 22.41 0 0 0 .32-3.77 25.39 25.39 0 0 0-.43-4.68 11.71 11.71 0 0 0-1.56-4.14 9.07 9.07 0 0 0-3-3 8.49 8.49 0 0 0-4.49-1.09q-.43 0-.75.6a4.74 4.74 0 0 0-.49 1.45 12.5 12.5 0 0 0-.21 1.61c0 .5-.06.9-.06 1.18a30 30 0 0 0 .27 4 30.85 30.85 0 0 1 .27 4.14c0 .57 0 1.6-.16 3.07a44.75 44.75 0 0 0-.11 4.51 18.6 18.6 0 0 0 .49 4c.28 1.15.82 1.72 1.61 1.72a6.06 6.06 0 0 0 2.06-.35zM728 391.26a16 16 0 0 1 .54 3c.07 1 .1 2.05.1 3.12a5.89 5.89 0 0 1-.26 1.78 1.61 1.61 0 0 1-1.35 1 42.31 42.31 0 0 1-6.56.54c-1.72 0-2.58-.93-2.58-2.8v-1.67c0-.75 0-1.56.11-2.42s.16-1.65.26-2.36a11 11 0 0 1 .27-1.4 2.46 2.46 0 0 1 1.67-1 12.44 12.44 0 0 1 2-.17 30.28 30.28 0 0 1 3.44.22 2.65 2.65 0 0 1 2.36 2.16zM907.27 327.14a112.57 112.57 0 0 0 .64 15.6 139.55 139.55 0 0 1 .86 15.6 2.77 2.77 0 0 1-.64 1.77 5.64 5.64 0 0 1-1.56 1.35 7.64 7.64 0 0 1-1.94.8 7.41 7.41 0 0 1-1.88.27 2.54 2.54 0 0 1-2.53-1.18 6.52 6.52 0 0 1-.59-2.9 14 14 0 0 1 .22-2.53 14.48 14.48 0 0 0 .21-2.42q0-4.51-.11-8.88t-.32-8.76a15.3 15.3 0 0 1-3.93 4 8.86 8.86 0 0 1-5.21 1.72c-3.52 0-6.24-1.11-8.18-3.34a22.45 22.45 0 0 1-4.41-8.12 45.52 45.52 0 0 1-1.93-10q-.44-5.22-.76-8.88c-.21-2.15-.36-4.3-.43-6.45s-.11-4.34-.11-6.56c0-3 0-6 .11-9s.11-6 .11-9v-1.29a5.07 5.07 0 0 1 0-1.29c.21-1.07.59-1.68 1.13-1.83a8.61 8.61 0 0 1 2.1-.21 9 9 0 0 1 3 .37 2.53 2.53 0 0 1 1.34 1.08 4.15 4.15 0 0 1 .38 1.94v3c0 3.58-.07 7.17-.22 10.75s-.21 7.17-.21 10.76c0 .93 0 2.28.05 4s.15 3.68.33 5.76.44 4.21.8 6.4a31.82 31.82 0 0 0 1.51 5.91 15.78 15.78 0 0 0 2.31 4.36 4.13 4.13 0 0 0 3.39 1.72 4.81 4.81 0 0 0 3.28-1.29 10.71 10.71 0 0 0 2.42-3.17 17.06 17.06 0 0 0 1.45-3.93 15.29 15.29 0 0 0 .49-3.55 184.77 184.77 0 0 0-1.13-20.44 181.2 181.2 0 0 1-1.12-20.28 5.68 5.68 0 0 1 .48-2.42 2.08 2.08 0 0 1 2.1-1c.93 0 1.83 0 2.69.11a6.88 6.88 0 0 1 2.26.54 3.54 3.54 0 0 1 1.56 1.34 4.66 4.66 0 0 1 .59 2.53 28.52 28.52 0 0 1-.22 3.6 30.83 30.83 0 0 0-.21 3.61v1.18q.42 8.18.91 16.19t1 16.19v4.08c0 .71-.08 1.4-.08 2.19zM940.83 275.3a3.42 3.42 0 0 1 1.61 1.88 6.82 6.82 0 0 1 .54 2.53 4.2 4.2 0 0 1-1 2.74 3.29 3.29 0 0 1-2.64 1.24 5.34 5.34 0 0 1-2.53-.6 4.43 4.43 0 0 0-2-.59.84.84 0 0 0-1 .76 8.73 8.73 0 0 0-.11 1.39v1.13a12.41 12.41 0 0 1 .06 1.24 127.27 127.27 0 0 1 .91 14.15q.06 7 .48 14.25.33 7.53.7 14.9t1.13 14.89c.07.87.11 1.74.11 2.64v5.54a17.61 17.61 0 0 0 .22 2.8 14.12 14.12 0 0 0 .43 2.52 10.26 10.26 0 0 1 .32 2.53 2.48 2.48 0 0 1-1.78 2.69 12.27 12.27 0 0 1-3.6.54q-2.91 0-3.33-1.29a12.93 12.93 0 0 1-.43-3.87c0-1.3 0-2.57.16-3.82s.16-2.53.16-3.82v-.32q-.54-16.14-1.4-32t-1.29-31.89v-1.88a6.11 6.11 0 0 0-.33-1.67 2.33 2.33 0 0 0-.91-1.18 3.51 3.51 0 0 0-1.94-.43 7.77 7.77 0 0 0-2.8.54 8 8 0 0 1-2.9.53 2.15 2.15 0 0 1-2.31-1.34 8.45 8.45 0 0 1-.49-2.85q0-.44.06-1.35a9.87 9.87 0 0 1 .27-1.83 5.65 5.65 0 0 1 .64-1.61 1.28 1.28 0 0 1 1.08-.7 4.33 4.33 0 0 1 1.56.27 6.45 6.45 0 0 0 1.45.38 42.34 42.34 0 0 0 4.79.59c1.61.11 3.17.16 4.68.16a32.92 32.92 0 0 0 3.76-.21 30.81 30.81 0 0 1 3.77-.22 17.84 17.84 0 0 1 1.93.11 6.41 6.41 0 0 1 1.97.53zM963.42 345.86a15.22 15.22 0 0 1 .53 3c.08 1 .11 2.05.11 3.12a5.59 5.59 0 0 1-.27 1.78 1.62 1.62 0 0 1-1.34 1 42.41 42.41 0 0 1-6.56.54c-1.72 0-2.58-.94-2.58-2.8v-1.67c0-.75 0-1.56.1-2.42s.16-1.65.27-2.36a11 11 0 0 1 .27-1.4 2.51 2.51 0 0 1 1.67-1 13.67 13.67 0 0 1 2-.16 30.42 30.42 0 0 1 3.44.22 2.65 2.65 0 0 1 2.36 2.15zM1193 295.09a38.09 38.09 0 0 1 .43 4.09c.07 1.36.11 2.73.11 4.09q0 5.37-.48 10.65t-.49 10.65c0 3.08.15 6.16.43 9.25s.43 6.17.43 9.25-.09 6-.26 8.93-.27 5.91-.27 8.92q0 3.34.16 6.67t.16 6.67v2a9 9 0 0 1-.16 2.21 3.77 3.77 0 0 1-.81 1.77 2.17 2.17 0 0 1-1.77.7 5.18 5.18 0 0 1-1.29-.16q-.65-.16-1.29-.27c-1-.29-1.74-.52-2.21-.7s-.7-1-.7-2.42a22.25 22.25 0 0 1 .27-3.44 22.15 22.15 0 0 0 .27-3.44c0-2.15-.07-4.29-.21-6.4s-.22-4.21-.22-6.3q-.1-11.82-.32-23.45t-.22-23.44c0-1.37 0-2.75.06-4.15s0-2.81 0-4.24a5.41 5.41 0 0 0-.27-1.89c-.18-.46-.73-.7-1.67-.7a42.57 42.57 0 0 0-8.28.81 43 43 0 0 1-8.39.81v4q0 3.44.11 6.77.21 10.33.32 20.55t.32 20.65V363a77.94 77.94 0 0 0 .48 9.57c.15 1.08.31 2.17.49 3.28a21.14 21.14 0 0 1 .27 3.39 13.38 13.38 0 0 1-.11 1.34 2.47 2.47 0 0 0 .11 1.35 1.76 1.76 0 0 1-1.13.7 14.71 14.71 0 0 1-2.05.43 21.36 21.36 0 0 1-2.15.21c-.68 0-1.16.06-1.45.06h-.43l-1.24-.32a.73.73 0 0 1-.48-.33 1.66 1.66 0 0 1-.11-.7 10 10 0 0 0-.11-1.34 36.8 36.8 0 0 1-.32-4.63c0-1.86.06-3.72.16-5.59s.16-3.73.16-5.59q0-17.43-.16-34.59t-.16-34.47a4.42 4.42 0 0 1 4.63-4.63q5.8 0 11.51.49c3.8.32 7.63.48 11.51.48a15.91 15.91 0 0 0 2.31-.16 6.33 6.33 0 0 1 2 0 2.49 2.49 0 0 1 1.51.86 5.26 5.26 0 0 1 1 2.28zM1226.63 293.48a3.47 3.47 0 0 1 1.62 1.88 7 7 0 0 1 .53 2.53 4.2 4.2 0 0 1-1 2.74 3.24 3.24 0 0 1-2.63 1.24 5.39 5.39 0 0 1-2.53-.59 4.37 4.37 0 0 0-2-.59c-.58 0-.9.25-1 .75a10.22 10.22 0 0 0-.11 1.4 11.28 11.28 0 0 0 .06 1.13c0 .39.05.8.05 1.23a125.06 125.06 0 0 1 .91 14.15q.06 7 .49 14.25.32 7.53.7 14.9t1.13 14.9c.07.86.1 1.74.1 2.63v5.54a17.52 17.52 0 0 0 .22 2.8 14.39 14.39 0 0 0 .43 2.53 10.2 10.2 0 0 1 .32 2.53 2.47 2.47 0 0 1-1.77 2.68 12.39 12.39 0 0 1-3.61.54q-2.89 0-3.33-1.29a12.93 12.93 0 0 1-.43-3.87c0-1.29 0-2.56.16-3.82s.16-2.53.16-3.82v-.32q-.54-16.14-1.4-32t-1.29-31.9v-1.88a6.6 6.6 0 0 0-.32-1.67 2.35 2.35 0 0 0-.92-1.18 3.56 3.56 0 0 0-1.93-.43 7.69 7.69 0 0 0-2.8.54 8 8 0 0 1-2.91.54 2.16 2.16 0 0 1-2.31-1.35 8.36 8.36 0 0 1-.48-2.85v-1.34a11.55 11.55 0 0 1 .27-1.83 5.18 5.18 0 0 1 .65-1.61 1.23 1.23 0 0 1 1.07-.7 4.52 4.52 0 0 1 1.56.26 6.59 6.59 0 0 0 1.45.38 40.42 40.42 0 0 0 4.79.59c1.61.11 3.17.16 4.68.16a32.92 32.92 0 0 0 3.76-.21 33.07 33.07 0 0 1 3.77-.22 18.17 18.17 0 0 1 1.94.11 6.36 6.36 0 0 1 1.95.54zM1249.22 364a14.53 14.53 0 0 1 .54 3c.07 1 .11 2 .11 3.11a5.88 5.88 0 0 1-.27 1.78 1.59 1.59 0 0 1-1.35 1 42.31 42.31 0 0 1-6.56.54c-1.72 0-2.58-.93-2.58-2.8v-1.66c0-.76 0-1.56.11-2.43s.16-1.64.27-2.36a10.2 10.2 0 0 1 .26-1.4 2.54 2.54 0 0 1 1.67-1 12.5 12.5 0 0 1 2-.16 30.17 30.17 0 0 1 3.44.21 2.66 2.66 0 0 1 2.36 2.17z"/><path class="cls-3" d="M148.61 416.05l34.16 5.56a1.47 1.47 0 0 1 .87 2.43 1.46 1.46 0 0 0 1.6 2.35l8-2.89a1.43 1.43 0 0 1 .74-.07l7.77 1.26a1.46 1.46 0 0 1 1.08.8l5.12 10.27a1.5 1.5 0 0 0 .48.55l30 20.84a1.47 1.47 0 0 1-.37 2.6l-22.33 7.56a1.47 1.47 0 0 1-1.24-.14l-51.6-31.72a1.3 1.3 0 0 1-.31-.26l-15.23-16.7a1.47 1.47 0 0 1 1.26-2.44z"/><path d="M133.66 436.57l-20.29 84.91a1.43 1.43 0 0 0 0 .82l.48 1.4c4.87 14.19.31 15.39 15 14l.57-.08 56.33-10.33c.59-.06 11.05 13.16 11.23 12.6L218 473.33a1.47 1.47 0 0 0-.81-1.78l-81.45-36a1.48 1.48 0 0 0-2.08 1.02z" fill="#430f51"/><path class="cls-5" d="M150.14 447.92l-22.39 80.39a6.37 6.37 0 0 1-12.16.36l-1.72-5a6.4 6.4 0 0 1-.17-3.55l18.6-77.81a6.36 6.36 0 0 1 8.76-4.34l5.52 2.43a6.38 6.38 0 0 1 3.56 7.52z"/><path class="cls-6" d="M114.45 419.12l32.41-6.6a1.45 1.45 0 0 1 1.16.25l47.56 35.07a1.12 1.12 0 0 1 .2.18L207 460.13a1.45 1.45 0 0 0 1.38.44l33.07-7a1.47 1.47 0 0 1 1.51.61l24.52 35.43a1.47 1.47 0 0 1-1.73 2.21l-22.5-8.46a1.64 1.64 0 0 0-.62-.09c-2.42.18-17.86 1.67-24.85 11.06a1.46 1.46 0 0 1-2.6-.64c-1.4-8.06-7.73-23.32-35.92-17.68-31.83 6.36-25.83-7.77-23.17-12.34a1.48 1.48 0 0 0-.68-2.07l-24.78-11.18a1.48 1.48 0 0 0-.41-.12l-11.3-1.53a1.47 1.47 0 0 1-.56-2.71l6.46-3.92a1.47 1.47 0 0 0 .48-2l-11.8-18.79a1.47 1.47 0 0 1 .95-2.23z"/><path class="cls-7" d="M130.75 450.83l5 2.24a1.44 1.44 0 0 0 1.17 0c10-4.13 19.9-8.4 30.11-11.92q5.2-1.8 10.46-3.5a1.47 1.47 0 0 0 .42-2.58l-18-13.27a1.47 1.47 0 0 0-1.33-.21c-1.41.47-2.83.92-4.26 1.36-6.51 2-13.1 3.77-19.65 5.68-4.07 1.19-8.14 2.39-12.22 3.56a1.47 1.47 0 0 0-.83 2.19l3.85 6.11a1.47 1.47 0 0 1-.49 2l-6.46 3.92a1.47 1.47 0 0 0 .56 2.71l11.31 1.54a1.4 1.4 0 0 1 .36.17zM220.83 491.08c3.94-10.67 7.83-21.35 11.51-32.09.35-1-.38-1.92-1.34-1.61l-18.41 5.86a1.06 1.06 0 0 1-1.16-.31l-4.1-5a1.2 1.2 0 0 0-1.86.17 301.56 301.56 0 0 1-22.09 22.95c.86-.24 1.76-.5 2.7-.79 24.91-7.65 29.15 6.33 29.71 13.88.09 1.19 1.47 1.39 2.22.35a23.3 23.3 0 0 1 2.41-2.81 1.8 1.8 0 0 0 .41-.6z"/><path class="cls-3" d="M381 383.37l31.19-15a1.46 1.46 0 0 1 2.09 1.49 1.47 1.47 0 0 0 2.66 1l4.87-6.94a1.53 1.53 0 0 1 .56-.48l7.1-3.41a1.44 1.44 0 0 1 1.34 0l10.09 5.49a1.46 1.46 0 0 0 .7.18l36.51-.1a1.47 1.47 0 0 1 1.19 2.34l-14 19a1.49 1.49 0 0 1-1.09.6l-60.47 3.56a1.42 1.42 0 0 1-.41 0l-22-5a1.47 1.47 0 0 1-.33-2.73z"/><path d="M380.46 408.76l32 81.22a1.6 1.6 0 0 0 .5.65l1.2.87c12.12 8.84 9.07 12.44 20.29 2.86l.42-.39 40.25-40.74c.45-.38 16.6 4.46 16.42 3.9l-21-66.52a1.45 1.45 0 0 0-1.68-1l-87.37 17.17a1.46 1.46 0 0 0-1.03 1.98z" fill="#d65f1d"/><path d="M400.46 408.62l27.7 78.72a6.37 6.37 0 0 1-9.76 7.26l-4.29-3.13a6.4 6.4 0 0 1-2.17-2.81l-29.33-74.43a6.38 6.38 0 0 1 4.7-8.59l5.91-1.16a6.37 6.37 0 0 1 7.24 4.14z" fill="#ea9357"/><path class="cls-6" d="M354.71 405.46l22.78-24a1.46 1.46 0 0 1 1.1-.46l59.06 1.5a1.27 1.27 0 0 1 .28 0l16.14 3.5a1.47 1.47 0 0 0 1.39-.43L478.57 361a1.5 1.5 0 0 1 1.59-.38l40.39 15a1.47 1.47 0 0 1-.15 2.8l-23.29 6a1.64 1.64 0 0 0-.56.28c-1.88 1.54-13.68 11.6-14 23.3a1.46 1.46 0 0 1-2.49 1c-5.77-5.81-19.7-14.69-39.58 6.08-22.44 23.45-25.62 8.43-26.06 3.16a1.47 1.47 0 0 0-1.74-1.3l-26.72 5a1.44 1.44 0 0 0-.4.13l-10.14 5.22a1.47 1.47 0 0 1-2-1.9l3.06-6.91a1.48 1.48 0 0 0-.77-1.95l-20.46-8.62a1.47 1.47 0 0 1-.54-2.45z"/><path class="cls-7" d="M386.24 422.11l5.35-1a1.51 1.51 0 0 0 1-.66c5.81-9.1 11.5-18.29 17.85-27 2.16-3 4.36-5.92 6.57-8.85a1.47 1.47 0 0 0-1.13-2.35l-22.37-.57a1.49 1.49 0 0 0-1.21.59c-.89 1.2-1.79 2.38-2.71 3.56-4.18 5.38-8.58 10.6-12.85 15.91-2.66 3.3-5.31 6.62-8 9.92a1.46 1.46 0 0 0 .57 2.27l6.65 2.81a1.46 1.46 0 0 1 .77 1.94l-3.05 6.92a1.47 1.47 0 0 0 2 1.9l10.15-5.22a1.72 1.72 0 0 1 .41-.17zM483.12 403.5c-2.88-11-5.81-22-8.95-32.9a1.13 1.13 0 0 0-2-.55l-11.75 15.35a1 1 0 0 1-1.12.41l-6.21-1.72a1.22 1.22 0 0 0-1.43 1.21 300 300 0 0 1-5 31.47c.57-.69 1.15-1.42 1.76-2.19 16-20.55 27.52-11.52 32.3-5.65.75.92 2 .3 2-1a23.53 23.53 0 0 1 .36-3.68 1.63 1.63 0 0 0 .04-.75z"/><path class="cls-3" d="M728.36 457.5l21.4 27.2a1.47 1.47 0 0 1-1 2.37 1.47 1.47 0 0 0-.42 2.82l7.82 3.25a1.46 1.46 0 0 1 .59.45l4.87 6.19a1.49 1.49 0 0 1 .26 1.32l-3.18 11a1.5 1.5 0 0 0 0 .73l8 35.63a1.46 1.46 0 0 1-2 1.66l-21.56-9.53a1.49 1.49 0 0 1-.82-1l-16.55-58.26a1.45 1.45 0 0 1-.06-.41l.09-22.6a1.47 1.47 0 0 1 2.56-.82z"/><path d="M703.47 462.5l-72.39 48.8a1.51 1.51 0 0 0-.52.63l-.59 1.36c-6 13.74-10.18 11.55 1.59 20.42a4.07 4.07 0 0 0 .48.33l48.47 30.5c.47.36-.77 17.17-.26 16.88l60.42-34.83a1.47 1.47 0 0 0 .62-1.86l-35.65-81.6a1.47 1.47 0 0 0-2.17-.63z" fill="#e4464e"/><path d="M707.93 482l-70.87 44.06a6.37 6.37 0 0 1-9.2-8l2.13-4.86a6.3 6.3 0 0 1 2.27-2.73l66.34-44.72a6.36 6.36 0 0 1 9.39 2.73l2.42 5.52a6.38 6.38 0 0 1-2.48 8z" fill="#f45867"/><path class="cls-6" d="M701.12 436.65l28.34 17.06a1.46 1.46 0 0 1 .69 1l11.3 58a1.24 1.24 0 0 1 0 .27l.08 16.52a1.46 1.46 0 0 0 .72 1.26l29.1 17.24a1.48 1.48 0 0 1 .7 1.47l-5.91 42.67a1.47 1.47 0 0 1-2.77.47l-10.85-21.46a1.43 1.43 0 0 0-.4-.48c-1.9-1.51-14.27-10.86-25.77-8.67a1.46 1.46 0 0 1-1.49-2.22c4.43-6.89 10.08-22.41-14.49-37.33-27.74-16.84-13.77-23.19-8.72-24.76a1.47 1.47 0 0 0 .9-2l-10.69-25a1.34 1.34 0 0 0-.22-.36l-7.28-8.78a1.47 1.47 0 0 1 1.42-2.38l7.41 1.49a1.47 1.47 0 0 0 1.73-1.17l4-21.84a1.47 1.47 0 0 1 2.2-1z"/><path class="cls-7" d="M691.68 471l2.14 5a1.5 1.5 0 0 0 .85.81c10.14 3.7 20.34 7.27 30.24 11.58 3.38 1.47 6.73 3 10.07 4.5a1.46 1.46 0 0 0 2-1.61l-4.28-22a1.44 1.44 0 0 0-.83-1.05 187.3 187.3 0 0 1-4.06-1.88c-6.16-2.92-12.21-6.09-18.32-9.11-3.8-1.88-7.61-3.75-11.41-5.64a1.46 1.46 0 0 0-2.09 1.05l-1.3 7.1A1.47 1.47 0 0 1 693 461l-7.41-1.49a1.47 1.47 0 0 0-1.42 2.38l7.29 8.78a1.65 1.65 0 0 1 .22.33zM730.79 561.61c10.12-5.2 20.22-10.43 30.19-15.85a1.14 1.14 0 0 0 .1-2.1l-17.52-8.13a1.06 1.06 0 0 1-.65-1l.34-6.43a1.21 1.21 0 0 0-1.49-1.13 303.2 303.2 0 0 1-31.79 2c.79.4 1.63.82 2.52 1.24 23.51 11.17 17.19 24.34 12.51 30.27-.74.93.14 2 1.41 1.76a23 23 0 0 1 3.67-.44 1.88 1.88 0 0 0 .71-.19z"/><path class="cls-3" d="M903.52 378.22l34.3 4.6a1.47 1.47 0 0 1 .93 2.4 1.47 1.47 0 0 0 1.67 2.31l7.87-3.12a1.56 1.56 0 0 1 .74-.09l7.81 1.05a1.47 1.47 0 0 1 1.1.76l5.41 10.13a1.34 1.34 0 0 0 .49.54l30.55 20a1.47 1.47 0 0 1-.29 2.61l-22.1 8.17a1.45 1.45 0 0 1-1.25-.1l-52.46-30.27a1.31 1.31 0 0 1-.29-.21l-15.68-16.27a1.46 1.46 0 0 1 1.2-2.51z"/><path d="M889.15 399.15l-17.91 85.44a1.43 1.43 0 0 0 .06.82l.52 1.39c5.26 14 .74 15.37 15.37 13.54l.57-.1 56-11.9c.58-.07 11.41 12.85 11.57 12.29l19.08-67.09a1.47 1.47 0 0 0-.86-1.76l-82.43-33.69a1.46 1.46 0 0 0-1.97 1.06z" fill="#5da39e"/><path d="M905.94 410l-20.14 81a6.37 6.37 0 0 1-12.14.69l-1.86-5a6.29 6.29 0 0 1-.27-3.54l16.41-78.3a6.37 6.37 0 0 1 8.65-4.58l5.58 2.28a6.36 6.36 0 0 1 3.77 7.45z" fill="#43827c"/><path class="cls-6" d="M869.45 382.24l32.21-7.51a1.49 1.49 0 0 1 1.18.23l48.52 33.72.21.17 11.56 11.8a1.46 1.46 0 0 0 1.39.4l32.87-7.89a1.46 1.46 0 0 1 1.53.56l25.49 34.73a1.47 1.47 0 0 1-1.66 2.26l-22.75-7.82a1.46 1.46 0 0 0-.62-.08c-2.42.25-17.81 2.17-24.53 11.75a1.46 1.46 0 0 1-2.62-.56c-1.62-8-8.38-23.1-36.4-16.68-31.63 7.25-26-7-23.51-11.68a1.47 1.47 0 0 0-.73-2.05l-25.07-10.49a1.38 1.38 0 0 0-.4-.1l-11.35-1.22a1.47 1.47 0 0 1-.64-2.7l6.36-4.09a1.46 1.46 0 0 0 .42-2.05l-12.34-18.45a1.47 1.47 0 0 1 .88-2.25z"/><path class="cls-7" d="M886.64 413.48l5 2.11a1.49 1.49 0 0 0 1.17 0c9.86-4.41 19.66-9 29.77-12.76 3.44-1.3 6.9-2.55 10.36-3.79a1.47 1.47 0 0 0 .35-2.59l-18.37-12.76a1.49 1.49 0 0 0-1.34-.18c-1.4.51-2.81 1-4.22 1.49-6.45 2.19-13 4.13-19.48 6.22l-12.12 3.91a1.46 1.46 0 0 0-.77 2.21l4 6a1.46 1.46 0 0 1-.42 2.05l-6.35 4.09a1.47 1.47 0 0 0 .63 2.7l11.35 1.22a1.45 1.45 0 0 1 .44.08zM977.8 451.2c3.64-10.77 7.24-21.56 10.61-32.4.33-1.05-.43-1.91-1.38-1.58l-18.24 6.38a1 1 0 0 1-1.16-.27l-4.25-4.85a1.2 1.2 0 0 0-1.85.22 302 302 0 0 1-21.44 23.56c.85-.26 1.74-.55 2.67-.86 24.7-8.35 29.33 5.51 30.09 13 .12 1.18 1.51 1.35 2.24.29a22.48 22.48 0 0 1 2.32-2.88 1.88 1.88 0 0 0 .39-.61z"/><path class="cls-3" d="M1190.6 407.1l34.3 4.6a1.47 1.47 0 0 1 .93 2.4 1.47 1.47 0 0 0 1.67 2.31l7.87-3.11a1.35 1.35 0 0 1 .74-.09l7.81 1a1.51 1.51 0 0 1 1.1.77l5.41 10.13a1.38 1.38 0 0 0 .49.53l30.55 20a1.47 1.47 0 0 1-.3 2.61l-22.1 8.19a1.48 1.48 0 0 1-1.25-.11l-52.47-30.26a1.35 1.35 0 0 1-.32-.26l-15.68-16.27a1.46 1.46 0 0 1 1.25-2.44z"/><path class="cls-5" d="M1176.23 428l-17.92 85.45a1.49 1.49 0 0 0 .07.81l.51 1.39c5.27 14.05.75 15.38 15.38 13.54a5.67 5.67 0 0 0 .57-.1l56-11.9c.58-.07 11.41 12.85 11.57 12.29l19.07-67.09a1.46 1.46 0 0 0-.85-1.76L1178.22 427a1.47 1.47 0 0 0-1.99 1z"/><path d="M1193 438.91l-20.14 81a6.37 6.37 0 0 1-12.14.7l-1.87-5a6.41 6.41 0 0 1-.26-3.55l16.41-78.27a6.36 6.36 0 0 1 8.64-4.59l5.59 2.28a6.38 6.38 0 0 1 3.77 7.43z" fill="#9e74f2"/><path class="cls-6" d="M1156.53 411.13l32.21-7.52a1.47 1.47 0 0 1 1.17.23l48.52 33.72a.91.91 0 0 1 .21.18l11.57 11.79a1.46 1.46 0 0 0 1.39.4l32.87-7.89a1.45 1.45 0 0 1 1.52.56l25.5 34.73a1.47 1.47 0 0 1-1.66 2.26l-22.74-7.82a1.3 1.3 0 0 0-.62-.07c-2.41.24-17.8 2.16-24.52 11.74a1.46 1.46 0 0 1-2.62-.56c-1.62-8-8.38-23.1-36.41-16.68-31.63 7.25-26-7-23.5-11.68a1.47 1.47 0 0 0-.73-2L1173.6 442a1.46 1.46 0 0 0-.41-.11l-11.34-1.22a1.47 1.47 0 0 1-.64-2.69l6.36-4.1a1.46 1.46 0 0 0 .42-2.05l-12.34-18.45a1.46 1.46 0 0 1 .88-2.25z"/><path class="cls-7" d="M1173.71 442.37l5 2.1a1.49 1.49 0 0 0 1.17 0c9.86-4.41 19.66-8.95 29.77-12.76 3.44-1.3 6.9-2.55 10.36-3.79a1.46 1.46 0 0 0 .34-2.58L1202 412.55a1.43 1.43 0 0 0-1.33-.17c-1.4.51-2.81 1-4.22 1.48-6.46 2.2-13 4.14-19.49 6.22-4 1.3-8.07 2.62-12.11 3.91a1.46 1.46 0 0 0-.77 2.21l4 6a1.46 1.46 0 0 1-.42 2.05l-6.36 4.1a1.47 1.47 0 0 0 .7 2.65l11.35 1.22a1.4 1.4 0 0 1 .36.15zM1264.88 480.09c3.64-10.78 7.23-21.57 10.61-32.41.33-1-.43-1.91-1.38-1.57l-18.24 6.37a1.07 1.07 0 0 1-1.17-.27l-4.24-4.85a1.2 1.2 0 0 0-1.85.22 304 304 0 0 1-21.44 23.57c.85-.27 1.74-.55 2.67-.87 24.7-8.35 29.33 5.51 30.09 13 .12 1.18 1.51 1.35 2.23.29a24.22 24.22 0 0 1 2.33-2.88 1.75 1.75 0 0 0 .39-.6z"/><path class="cls-15" d="M594 675.43c0 4.55.21 9.1.17 13.65a51.34 51.34 0 0 1-1.73 12.69c-1.06 4.08-2.4 8.09-3.7 12.1a89.69 89.69 0 0 1-3.83 10.18 35.54 35.54 0 0 1-6.84 10.3l4.27 1.77c.83-13.06 15.32-18 26.13-20.8 4.08-1.05 8.18-2 12.33-2.71l1.76-.29.95-.14.47-.07h.18c1.27-.16 2.55-.3 3.84-.41a49.55 49.55 0 0 1 7.41-.09c.54 0 1.08.1 1.62.16-.56-.07.22 0 .37.06l.81.15a19.45 19.45 0 0 1 3 .85c.42.16 0 0-.09 0a3.13 3.13 0 0 1 .32.15c.22.1.43.2.64.32.4.22.78.47 1.16.73-.55-.38 0 0 .14.13s.33.3.48.46.3.33.44.5c-.35-.42 0-.08.09.16a6.59 6.59 0 0 1 .34.57c.09.16.35.81.11.18a8.9 8.9 0 0 1 .41 1.36c0 .14.13.94.06.27 0 .26.05.53.06.8a12.39 12.39 0 0 1 0 1.72c0 .15 0 .3-.05.45 0-.1.08-.46 0 .05s-.13.76-.21 1.14a20.43 20.43 0 0 1-.61 2.2 18 18 0 0 1-1.76 3.7c-3.08 5.05-8.27 8.64-13.64 11.4a94.85 94.85 0 0 1-17.66 6.6c-2.57.73-5.15 1.48-7.76 2.06-.43.1-.87.18-1.32.26l-.78.12c.59-.09-.34 0-.5 0-1.24.13-2.5.21-3.75.22a33.29 33.29 0 0 1-4-.17 12.61 12.61 0 0 1-1.4-.22c-.63-.12-1.25-.26-1.86-.44l-.87-.29-.42-.15c.09 0 .42.19 0 0a14.34 14.34 0 0 1-1.48-.83c-.38-.25-.06 0 0 0l-.3-.28c-.19-.18-.37-.37-.55-.55s.12.29-.2-.27c-.13-.23-.26-.45-.37-.69.24.52 0-.18-.08-.35s-.13-.92-.09-.38a7.12 7.12 0 0 1 0-.8v-.47c0-.47-.11.6 0-.22a2.56 2.56 0 0 0-1.74-3.07 2.53 2.53 0 0 0-3.08 1.75c-2.34 14 17.43 13.3 26.17 11a138.87 138.87 0 0 0 18.89-6c6.51-2.72 13-6.2 17.82-11.49 4.28-4.69 7.46-11.34 6.44-17.83-.78-4.88-4.73-7.95-9.28-9.19-5.12-1.4-10.68-1.1-15.89-.47a129.72 129.72 0 0 0-15.28 2.87c-12.06 3-26.78 7.42-31.29 20.43a21.91 21.91 0 0 0-1.09 5.84c-.15 2.21 2.8 3.23 4.26 1.77 5.65-5.66 8.78-13.22 11.29-20.66 2.79-8.3 5.92-16.9 6.23-25.73.19-5.35-.11-10.71-.12-16.07 0-3.21-5-3.22-5 0zM604.8 674.62c4.61 0 9.22.15 13.84.06a121.68 121.68 0 0 0 13.48-1.12c4.46-.59 8.9-1.33 13.35-1.95a41.06 41.06 0 0 0 5.6-1.21 13.28 13.28 0 0 1 5-.74 2.51 2.51 0 0 0 2.5-2.5 2.56 2.56 0 0 0-2.5-2.5c-3.76-.4-7.33 1.5-11 2-4.43.6-8.84 1.34-13.26 1.94-9 1.22-18 1-27.05 1-3.22 0-3.23 5 0 5zM680.08 673.78c0 11.81.77 23.62.06 35.43a94.42 94.42 0 0 1-2.42 17c-1.32 5.4-3.44 10.55-5 15.89-.82 2.88-1.16 5.87-2.15 8.69s-2.29 5.58-2.16 8.61c.15 3.21 4.91 3.23 5 0 .09-3-.21-6.1.17-9.12a21.44 21.44 0 0 1 2.51-7.24 53.5 53.5 0 0 1 9.91-13 70.22 70.22 0 0 1 12.41-9.86 32.39 32.39 0 0 1 7.43-3.51 29.78 29.78 0 0 1 6.71-1 19.54 19.54 0 0 1 2.42 0c.5 0 .11 0 0 0a4.76 4.76 0 0 1 .52.1l.51.14c.6.19-.39-.23.17.08a3.17 3.17 0 0 1 1.36 1.13 15.82 15.82 0 0 1 1.62 2.53c1.95 3.63 3 8 2.22 11.91-1.88 8.84-11 13.26-19.33 14.53-6.16.94-12.43.77-18.6 1.63-2.54.36-5 1-7.54 1.41-2.31.38-4.84.69-7-.2L670 753l1.09-1.37a2.56 2.56 0 0 0 0-3.53 2.5 2.5 0 0 0-3.53 0l-1.09 1.37a2.55 2.55 0 0 0 1.1 4.18c4.72 1.92 10.41 0 15.16-.87 5.84-1.08 11.83-.91 17.72-1.58 5.73-.65 11.35-2 16.21-5.25a22.37 22.37 0 0 0 9-11.11 20.9 20.9 0 0 0-.58-14.43c-1.59-4-4.05-8.84-8.73-9.67a24.29 24.29 0 0 0-6.43.09 28.19 28.19 0 0 0-8.7 2.24c-5.66 2.42-10.62 6.25-15.27 10.23a63 63 0 0 0-13 15.16 29.9 29.9 0 0 0-4 9.51c-.72 3.76-.38 7.56-.5 11.36h5c-.1-2.39 1-4.69 1.84-6.9.92-2.53 1.25-5.18 1.94-7.78 1.42-5.43 3.61-10.63 5-16.07 3-11.34 3.29-23.2 3.14-34.86-.09-6.66-.33-13.32-.33-20 0-3.22-5-3.22-5 0zM738 667.16c0 6.06 1.44 12 1.66 18 .24 6.37 0 12.8 0 19.18a165.66 165.66 0 0 1-.85 18.5 93.25 93.25 0 0 0-.72 9.44 57 57 0 0 1-.44 8.46c-.3 2-.44 4.22-.73 6.1a21.5 21.5 0 0 1-.71 3.18 2.77 2.77 0 0 1-.31.8s-.38.6-.16.29-.26.26-.33.32a2.5 2.5 0 0 0 0 3.53 2.54 2.54 0 0 0 3.53 0c1.43-1.19 2.07-3.23 2.46-5a54.88 54.88 0 0 0 .9-6.39l.15-1.3v-.46c-.08.59 0 0 0-.14a38.45 38.45 0 0 0 .52-5c.11-3.25-.06-6.5.3-9.74a167.66 167.66 0 0 0 1.33-19.13c0-6.59-.08-13.17 0-19.76.07-7-1.72-13.88-1.68-20.89 0-3.22-5-3.22-5 0zM757.89 756.52c-.37-3.49 1.2-6.74 2.21-10 1.12-3.62 2.22-7.25 3.33-10.88 2.23-7.33 4.53-14.65 7.23-21.83 5.42-14.44 12.42-28.23 17.65-42.76 1.27-3.53 2.36-7.1 3.47-10.68a38.17 38.17 0 0 1 3.91-9.34l-4.69-1.28c-.37 15 .11 29.92-.69 44.87-.39 7.33-1.19 14.63-1.22 22 0 3.57 0 7.14-.06 10.71-.1 3.33-.52 6.6-.82 9.91-.48 5.31-.56 10.67-.6 16 0 3.22 5 3.23 5 0 0-4.72.12-9.45.46-14.17.2-2.94.65-5.86.83-8.81.22-3.73.19-7.47.19-11.21 0-7.36.65-14.63 1.08-22s.68-14.58.74-21.87c.07-8.48-.12-16.95.09-25.43.07-2.57-3.37-3.27-4.66-1.26-3.46 5.44-4.72 12-6.77 18.06-2.53 7.43-5.53 14.69-8.63 21.89s-6.42 14.45-9.29 21.82-5.17 14.6-7.45 22c-1.26 4.08-2.48 8.17-3.74 12.25-1.2 3.89-3 7.85-2.6 12a2.57 2.57 0 0 0 2.5 2.5 2.52 2.52 0 0 0 2.5-2.5zM889.38 667.73v-2.92h-5c0 11 .56 21.9.15 32.85s-2.67 21.61-3.26 32.51a54.21 54.21 0 0 1-.69 8.05 39.71 39.71 0 0 0-1.16 8.33c0 3.21 5 3.22 5 0v-6c0-3.22-5-3.23-5 0v6h5a31.92 31.92 0 0 1 .94-6.8 45.66 45.66 0 0 0 .82-7.64 154 154 0 0 1 1.52-15.91c.78-5.45 1.46-10.86 1.73-16.36s.28-11 .21-16.56c-.08-6.15-.25-12.31-.26-18.47 0-3.22-5-3.22-5 0v2.92c0 3.22 5 3.22 5 0z"/><path class="cls-15" d="M893.37 663.08a1.57 1.57 0 0 1 .92-1.64 30.11 30.11 0 0 1 3.06-1.53c3.34-1.63 6.66-3.3 10-4.89a36.69 36.69 0 0 1 9.43-2.61 23.25 23.25 0 0 0 4.42-1.18c1.32-.51 2.2-.89 3.57-.37l-1.77-3.07c-1 6.53-5.09 11.93-9.27 16.85-4.73 5.65-9.58 11.36-14.73 16.71-3.15 3.3-6.34 6.56-9.4 9.95-1.56 1.73-.08 5 2.43 4.18a69.36 69.36 0 0 0 8-3.55 69.75 69.75 0 0 1 7.89-3.28 120.28 120.28 0 0 1 16.5-4.45c2.8-.55 5.62-1 8.45-1.4 1.75-.26 3.47-.72 5.23-.94a17 17 0 0 1 2.35-.11 3.25 3.25 0 0 1 1.8.48c-.2-.13.29.33.25.28.3.37.12.06.27.62a3.56 3.56 0 0 1 .1.47c-.07-.46 0 .07 0 .19a8.76 8.76 0 0 1 0 1c-.68 3.56-3 6.78-5.12 9.76a91.49 91.49 0 0 1-7.47 9.72c-6.81 7.3-15.2 12.83-22.75 19.28-2.2 1.88-4.23 3.94-6.42 5.82s-4.8 3.8-7.23 5.67-4.42 3.66-6.81 5.28-4.61 3.19-6.11 5.59a2.53 2.53 0 0 0 1.5 3.68l1.13.28c3.12.78 4.45-4 1.32-4.82l-1.12-.29 1.49 3.68c1.19-1.91 3.28-3.09 5.09-4.33 2.24-1.53 4.24-3.36 6.39-5s4.63-3.46 6.86-5.31 4.13-3.79 6.24-5.64c7.86-6.91 16.78-12.63 23.95-20.32a101.31 101.31 0 0 0 8.09-10.49c2.36-3.31 5-7 5.76-11.07.86-4.29-.94-8.63-5.63-9.36-4.19-.65-8.62.78-12.75 1.41a128.59 128.59 0 0 0-19.78 4.55 85.52 85.52 0 0 0-9.68 3.66 95.3 95.3 0 0 1-9.1 4.12l2.43 4.18c5.62-6.22 11.72-12 17.09-18.44 4.5-5.38 9.5-10.45 13.26-16.39a29.11 29.11 0 0 0 4.36-10.88 2.6 2.6 0 0 0-1.74-3.08 7.61 7.61 0 0 0-5.4.05 30.85 30.85 0 0 1-5.25 1.5c-1.78.33-3.59.57-5.35 1a32.74 32.74 0 0 0-5.71 2.29c-3.57 1.7-7.08 3.52-10.67 5.19-3 1.41-5.31 3.41-5.37 7 0 3.22 5 3.22 5 0zM957.15 749.13c-.1-3.9.93-7.58 1.89-11.31s1.79-7.53 3-11.22c2.57-7.57 6-14.8 9-22.23a306.53 306.53 0 0 0 13.82-46.84c.7-3.19 1.13-6.43 1.82-9.62s1.47-6.42 3.36-9.08l-4.57-.6c1.65 4.89.48 10.38.18 15.39-.38 6.2.44 12.53 1 18.7a359.33 359.33 0 0 1 1.76 38.95 64.23 64.23 0 0 1-.56 10.65c-.31 1.7-.68 3.38-.9 5.1a16 16 0 0 0-.15 2.68 11.43 11.43 0 0 1 0 2.34l3.67-1.5a16.33 16.33 0 0 1-3.12-3 2.51 2.51 0 0 0-3.53 0 2.56 2.56 0 0 0 0 3.54 20.54 20.54 0 0 0 4.13 3.82 2.51 2.51 0 0 0 3.67-1.5 28.7 28.7 0 0 0 .12-4.54 27.43 27.43 0 0 1 .72-4.68 58 58 0 0 0 .83-9.49c.18-6.71.11-13.43-.13-20.14s-.72-13.33-1.35-20c-.6-6.41-1.5-13-1.3-19.4.18-6 1.69-12.37-.28-18.23a2.54 2.54 0 0 0-4.57-.59c-3.54 5-4.15 11.67-5.21 17.49-1.42 7.73-3.49 15.39-5.61 22.94-2.25 8-4.79 16-7.72 23.77-2.82 7.54-6.34 14.81-9.11 22.38a124.53 124.53 0 0 0-3.65 12.71c-1.12 4.46-2.42 8.88-2.3 13.53.08 3.21 5.08 3.22 5 0z"/><path class="cls-15" d="M953.41 716.87a156.33 156.33 0 0 0 21.27-1.77 78 78 0 0 0 9.34-1.89c3-.79 6-1.61 9.1-1.3a2.51 2.51 0 0 0 2.5-2.5 2.55 2.55 0 0 0-2.5-2.5 27.21 27.21 0 0 0-9.39 1.21 86.42 86.42 0 0 1-9.43 2 149.26 149.26 0 0 1-20.89 1.73c-3.22 0-3.23 5 0 5zM1051.47 656a40.23 40.23 0 0 0 .31-7.6c-.13-1.81-.09-3.89-1.41-5.29-2.87-3.07-8.75-2.58-12.36-1.25-4.53 1.68-7.84 5.38-10.4 9.35a73.48 73.48 0 0 0-6.45 13.44c-4.17 10.8-5.93 22.5-3.3 33.89a121.3 121.3 0 0 0 5.46 16.61c1.51 3.91 3.44 7.86 7.53 9.56 5.06 2.1 11.07.58 15.69-1.89 2.33-1.24 4.69-2.52 6.94-3.91a16.4 16.4 0 0 0 5.91-5.58 2.54 2.54 0 0 0-1.5-3.68l-.81-.21c-3.11-.81-4.44 4-1.33 4.82l.81.21-1.49-3.67c-1.85 3.33-6.18 5-9.34 6.76-3.53 2-7 3.45-11.17 3a5.61 5.61 0 0 1-3.59-1.67 13.28 13.28 0 0 1-2.46-4.13 131.7 131.7 0 0 1-4.77-13.54 48.46 48.46 0 0 1-2.14-15.41 54.89 54.89 0 0 1 2.46-14.27 83.6 83.6 0 0 1 5.32-13.31 31.11 31.11 0 0 1 6.6-9.39c2.66-2.39 6.78-3.69 10-2.68 0 0 .44.17.22.07.06 0 .68.33.4.22.7.27-.93.44-.16-.46a2.4 2.4 0 0 0 .12.48c.05.4.05.29.1.89 0 .35 0 .69.08 1a40.23 40.23 0 0 1-.31 7.6 2.51 2.51 0 0 0 2.5 2.5 2.56 2.56 0 0 0 2.5-2.5zM1118.8 632.44c-3.8 5.6-5 12.23-7.11 18.55-2.28 7-4.55 14-6.65 21.1s-3.87 14.08-5.85 21.1-4.14 14-6.2 21c-1.13 3.81-2.23 7.62-3.25 11.45-.84 3.12-1.55 6.4-3.27 9.18l4.66 1.26c.68-18.92 10.63-36.07 17.34-53.32a2.51 2.51 0 0 0-1.74-3.07 2.56 2.56 0 0 0-3.08 1.74c-6.91 17.77-16.82 35.16-17.52 54.65-.1 2.56 3.39 3.29 4.65 1.26a31.88 31.88 0 0 0 3.29-8.54c.89-3.27 1.77-6.53 2.71-9.78 2.06-7.09 4.23-14.14 6.29-21.23s3.81-14.1 5.84-21.11 4.2-14 6.47-20.92c1.17-3.57 2.22-7.16 3.29-10.76a35.76 35.76 0 0 1 4.44-10c1.81-2.66-2.52-5.17-4.31-2.52z"/><path class="cls-15" d="M1111 646.1c-7.23-.05-13.7 4.11-20.2 6.78a89.93 89.93 0 0 0-10.44 5.1 77.25 77.25 0 0 0-8.44 5.26c-4.44 3.33-8.45 9.36-4.72 14.72 2.77 4 8 5.8 12.64 6.43a27.19 27.19 0 0 0 10.94-.95c3.69-1 7.34-2.41 11.18-2.67l-1.26-4.66a62.48 62.48 0 0 0-10.47 7 77.35 77.35 0 0 0-9.3 8.41 44 44 0 0 0-6.26 9.74c-1.45 2.88-3.36 6-3.4 9.35s5 3.22 5 0a10 10 0 0 1 1-3.27c.59-1.35 1.29-2.64 1.94-4a36.2 36.2 0 0 1 5.87-9 84.73 84.73 0 0 1 8.54-7.63 57.38 57.38 0 0 1 9.63-6.41c2.16-1.11 1.21-4.83-1.26-4.65-6.41.44-12.31 3.78-18.73 3.87a20.36 20.36 0 0 1-8.3-1.79 14.45 14.45 0 0 1-2.44-1.47 5.32 5.32 0 0 1-1.41-1.66c-.06-.09-.26-.56-.1-.15a6 6 0 0 1-.2-.69c-.18-.7 0 .45 0-.3a6.43 6.43 0 0 1 0-.76c0 .46.09-.41.09-.41a6.32 6.32 0 0 1 .27-.84 6.89 6.89 0 0 1 .73-1.33 11.85 11.85 0 0 1 2.61-2.68 65.57 65.57 0 0 1 7.25-4.58 89.61 89.61 0 0 1 9.35-4.81c3.31-1.46 6.64-2.86 9.93-4.36s6.5-2.74 10-2.71c3.22 0 3.23-5 0-5zM233.83 714.21c1.73-1.71 4-2.56 6.24-3.41 2.72-1 5.35-2.27 8-3.47a75.24 75.24 0 0 1 12.65-4.42c.38-.1.77-.18 1.15-.26s-.53 0 .08 0h.33c.13 0 1 .15.68.06.61.17 0-.05 0 0 .2.2.2.18 0 0q.17.32.06.06c0-.37.17.93.1.38a13.49 13.49 0 0 1 .06 1.42 11.66 11.66 0 0 1-.32 3.17c-1.16 4.31-5.11 7.3-8.19 10.24-2.13 2-3.8 4.51-6 6.52-2.36 2.2-5.29 3.71-7.66 5.94-1.49 1.4-.55 3.53 1.1 4.18 3.42 1.34 7.06-.14 10.46-.72a59 59 0 0 1 11.19-.65 36 36 0 0 1 11.47 1.75 45 45 0 0 1 5.09 2.09 9.21 9.21 0 0 1 .81.45 2.11 2.11 0 0 1 .43.31 1.9 1.9 0 0 1 .24.25s-.19-.3-.08-.07c0 0 0-.1 0 0v-.08c0 .13-.05.26-.09.38-.11.29-.15.43-.27.69a17.54 17.54 0 0 1-1.35 2.18 23.25 23.25 0 0 1-3 3.36 34.76 34.76 0 0 1-7.75 5.35c-6 3.16-12.52 5-18.93 7.16-4.46 1.47-8.88 3-13.18 4.94l-.86.38c-.09.05-.67.3-.26.13-.35.14-.7.26-1 .38-.77.27-1.54.52-2.31.8a10.34 10.34 0 0 0-4.47 2.63 2.54 2.54 0 0 0 1.1 4.18l.85.28c3.06 1 4.37-3.81 1.33-4.82l-.85-.28 1.11 4.18a7.12 7.12 0 0 1 3.21-1.77c1.61-.56 3.16-1.17 4.73-1.86 4-1.75 8.08-3.16 12.2-4.51 6.86-2.25 13.84-4.34 20.23-7.77a38.85 38.85 0 0 0 8.69-6.2c2.32-2.24 5.05-5.32 5.73-8.57.75-3.57-1.89-5.7-4.85-7a43.56 43.56 0 0 0-12.51-3.71 65.62 65.62 0 0 0-13.8 0 48.76 48.76 0 0 0-6.35 1c-1.81.43-3.7.94-5.5.23l1.11 4.18c2.31-2.18 5.15-3.67 7.5-5.8 2.19-2 3.85-4.49 6-6.54 3.8-3.65 8.16-7.26 9.6-12.57a15.24 15.24 0 0 0 .18-7.53c-.71-2.56-3.08-3.76-5.61-3.8a19.65 19.65 0 0 0-6.11 1.39c-2.29.74-4.61 1.45-6.84 2.35-3.45 1.4-6.77 3.12-10.24 4.46-3.18 1.21-6.34 2.4-8.81 4.83-2.29 2.27 1.25 5.8 3.54 3.54zM308.69 758.34c-1.36-2.38-1.14-4.9-.65-7.51a81 81 0 0 1 2.32-8.78c1.86-6.11 3.45-12.31 5.27-18.44.91-3.06 1.86-6.1 2.9-9.12.49-1.44 1-2.85 1.4-4.32.82-3.15 1.59-6.31 2.6-9.41.3-.91.62-1.82 1-2.72a18.86 18.86 0 0 1 1-2.18c.18-.32.37-.63.56-1 .08-.13.18-.25.26-.37-.37.52-.06.07 0 0a3.44 3.44 0 0 0 .27-.27c.35-.43-.37.16 0 0s-.26.09-.26.09c.63-.12-.54 0-.11 0l-1.76-.73c.74.85.53 2.72.47 3.89a31.28 31.28 0 0 0 .19 5.72c.63 4.8 1.35 9.6 2 14.4s1.54 9.57 2.14 14.36.44 9.64 1.45 14.38 3.1 9 2.95 13.8h5c-.58-6.71-9.68-7.41-14.82-7.78a187 187 0 0 0-24.6-.21c-4.24.24-9 .25-11.84 4-.87 1.13-.1 2.72.9 3.42 2.28 1.61 4.71 3.08 6.46 5.31 2.16 2.78 3.72 6 5.66 9a86.41 86.41 0 0 0 5.64 7.15c1.57 1.92 3.37 4.24 3.63 6.8l4.66-1.26c-.29-.22-.34-.32-.15-.29v1.33c-.13 0-.11 0 .07-.12 2.3-2.25-1.24-5.79-3.54-3.53-1.39 1.37-2 3.45-.7 5.13a2.61 2.61 0 0 0 2.82 1.15 2.5 2.5 0 0 0 1.84-2.41c-.69-6.85-6.39-11.08-9.95-16.47-2.14-3.23-3.89-6.76-6.3-9.8-2.08-2.61-4.92-4.38-7.62-6.28l.9 3.42c-.21.27.5-.36.26-.19a7.21 7.21 0 0 1 .7-.4 11.52 11.52 0 0 1 2.21-.55 40.33 40.33 0 0 1 4.22-.33c4.57-.26 9.1-.49 13.69-.34 3 .09 6.08.28 9.12.43 1.24.06 2.48.14 3.72.27a27.48 27.48 0 0 1 3.53.55 19.83 19.83 0 0 1 2.17.59c.14.05.92.36.48.17a8.86 8.86 0 0 1 .87.44c.14.08.7.47.49.31s.32.32.43.43c-.36-.38 0 0 .09.22-.36-.64 0 .65 0-.08.28 3.17 4.9 3.26 5 0 .17-5.6-2.34-10.65-3.31-16a75.41 75.41 0 0 1-.77-8.62c-.21-3.09-.71-6.11-1.2-9.16-1-6-1.66-12.05-2.45-18.08a66.67 66.67 0 0 1-1.08-8.54c0-2.22.37-4.41-.19-6.6s-2.23-4.41-4.75-3.53a6.58 6.58 0 0 0-3.21 2.89 34.64 34.64 0 0 0-3.62 9c-.79 2.67-1.41 5.38-2.15 8.07-.48 1.76-1.18 3.46-1.75 5.2-1 2.87-1.85 5.76-2.7 8.66-1.86 6.35-3.58 12.72-5.46 19.05-1.75 5.87-3.88 12.68-.64 18.4 1.59 2.79 5.91.28 4.32-2.53zM340.11 757.79l.21 1a2.46 2.46 0 0 0 1.75 1.75c2.25.58 4.58.13 6.82.72 1.23.32 2.48.62 3.7 1l-1.1-.64c.23-1.69.17-2.18-.19-1.49a3 3 0 0 0-.23.48 6.16 6.16 0 0 0-.42 1.23c-.2.82-.41 1.63-.66 2.43-.55 1.77-1.2 3.51-1.81 5.26-1.19 3.47-2.25 7.14-2 10.85.23 3.18 4.89 3.25 5 0v-.92c.1-3.22-4.9-3.21-5 0v.92h5c-.25-3.36.78-6.57 1.87-9.71.56-1.63 1.16-3.25 1.69-4.9.23-.74.45-1.5.64-2.26s.43-1 .69-1.84a3.52 3.52 0 0 0-2.23-4.24c-.81-.27-1.66-.45-2.48-.67s-1.34-.38-2-.53c-2-.43-4 0-6-.49l1.74 1.75-.21-1a2.52 2.52 0 0 0-3.07-1.75 2.55 2.55 0 0 0-1.75 3.08zM356.15 687.62c.1 9.46 2.2 18.74 4.42 27.9s4.52 18.28 6.67 27.45c.55 2.34 1.1 4.68 1.7 7a21.8 21.8 0 0 1 .93 6.75l4.65-1.26c-.42-.71-1.17-1.77-1-2.66a2.59 2.59 0 0 0-1.75-3.07 2.52 2.52 0 0 0-3.08 1.74 9.47 9.47 0 0 0 1.56 6.51 2.52 2.52 0 0 0 4.66-1.26c.26-4.19-1.26-8.23-2.16-12.26-1-4.66-2.22-9.3-3.38-13.93-2.26-9.06-4.61-18.16-6.41-27.32a85.32 85.32 0 0 1-1.77-15.61c0-3.22-5-3.22-5 0z"/><path class="cls-15" d="M356.17 693.84c4.31.34 8.5-.87 12.72-1.51s8.4-1 12.54-1.84c1.95-.4 3.82-1.12 5.77-1.53a6.4 6.4 0 0 1 2.61-.22c-.64-.06.05 0 .18.09-.08-.05-.07 0-.29-.19.29.32-.16-.38-.18-.41a1.9 1.9 0 0 1 .09.36c0-.33-.06-.34-.05 0l1.24-2.16a13.78 13.78 0 0 0-4.52 3.68 2.52 2.52 0 0 0 .9 3.42 2.55 2.55 0 0 0 3.42-.9 8.49 8.49 0 0 1 2.73-1.88 2.49 2.49 0 0 0 1.23-2.16c0-7-8.8-4.47-12.82-3.29a74.86 74.86 0 0 1-11.65 1.9c-4.61.58-9.24 2-13.92 1.67a2.5 2.5 0 1 0 0 5zM367.34 713.7c3.91 0 7.81.22 11.71.1 3.55-.11 6.94-1.2 10.47-1.41 1.73-.1 3.45-.23 5.19-.24h1.63l.78.06c.55 0-.25-.07.31 0a9.32 9.32 0 0 1 1.13.28c.21.07-.39-.28 0 0 .16.11.09 0-.21-.16a1.41 1.41 0 0 1-.36-.67l.25-1.92-.82 1.33c-1.68 2.75 2.64 5.27 4.32 2.52.62-1 1.4-2 1.07-3.26a3.56 3.56 0 0 0-1-1.63 6.13 6.13 0 0 0-3.29-1.38 34 34 0 0 0-7.61-.13c-1.31.09-2.62.17-3.93.36-2 .28-4 .84-6.05 1-4.49.44-9.08 0-13.59 0-3.22 0-3.22 5 0 5zM376 749.69a109.38 109.38 0 0 0 13.87-1.2c4.16-.5 8.48-2.53 12.65-1.16l-1.84-2.41.12 1a2.58 2.58 0 0 0 2.5 2.5 2.51 2.51 0 0 0 2.5-2.5l-.12-1a2.63 2.63 0 0 0-1.83-2.41c-4.71-1.55-9.13.23-13.79 1a89.58 89.58 0 0 1-14.06 1.18c-3.22 0-3.22 5 0 5zM430.57 674.54c-1.63-4.14-3-8.52-7.69-10-5.09-1.61-8.37 2.85-10.34 6.85a70.66 70.66 0 0 0-4.75 14.12 117.37 117.37 0 0 0-2.88 15.11c-1.18 10.24-.94 21.51 3.17 31.12a45.14 45.14 0 0 0 3.15 5.85 19.41 19.41 0 0 0 4 4.87c3.84 3.16 8.89 3 13.28 1.06 4.17-1.79 7.56-4.92 11.6-7s7.7-4.43 8-9.23c.18-3.21-4.82-3.2-5 0a3.26 3.26 0 0 1-.38 1.31 5.07 5.07 0 0 1-1.22 1.35 21.32 21.32 0 0 1-3.62 2.12c-3.08 1.55-5.76 3.61-8.69 5.42-2.66 1.64-6.47 3.42-9.57 1.88-2.79-1.39-4.51-5-5.92-7.63-4.17-7.73-4.64-17.41-4.16-26a105.52 105.52 0 0 1 5-25.65 41.89 41.89 0 0 1 2.49-6.41c.72-1.44 1.7-3.65 3.14-4.37a2.09 2.09 0 0 1 1.83.14 4.16 4.16 0 0 1 1.62 1.35 21.1 21.1 0 0 1 2.2 5 2.59 2.59 0 0 0 3.08 1.75 2.53 2.53 0 0 0 1.75-3.08zM455.44 657.83c0 5.57-.72 11.09-1.16 16.64s-.76 11.26-1 16.89c-.6 11.34-1.36 22.66-2.06 34-.39 6.35-.69 12.7-.69 19.06h5c0-8-.05-16.27 2.57-24a32.45 32.45 0 0 1 5.56-10.15c2-2.44 4.52-4.82 7.58-5.87a10.64 10.64 0 0 1 8.88 1c2.65 1.5 5 3.77 5.21 6.65.47 6.09-4.52 11.53-9.36 14.73-7.75 5.13-17 7.22-25.45 10.83a2.52 2.52 0 0 0-.89 3.42 2.56 2.56 0 0 0 3.42.89c8.28-3.53 17.23-5.57 24.9-10.47 6.33-4 12.43-10.64 12.41-18.64 0-8.26-8.86-14.57-16.73-13.93-8.43.68-14.7 8-18.22 15.11-4.71 9.5-4.88 20.08-4.88 30.45 0 3.22 5 3.23 5 0 0-11.33.95-22.64 1.69-33.94s1.13-22.72 2-34.06c.46-6.19 1.35-12.37 1.31-18.59 0-3.21-5-3.22-5 0z"/></svg>