<svg id="Layer_1" data-name="Layer 1" xmlns="http://www.w3.org/2000/svg" viewBox="0 0 521 457"><defs><style>.cls-3{fill:#003b71}</style></defs><path d="M63.21 418.52c18.12 12 436 26.72 441.8-4.22s15.09-333.53 3.34-350.4c-.25-.37-14-29.93-19.1-30.73-44.67-7-252.16 1.38-426 23.22C43.79 58.83 35.69 328.59 49 396.32c1.59 8.09 12.27 20.92 14.21 22.2z" fill="#ffe436"/><path d="M46.34 404.52c18.13 12 436 26.72 441.81-4.22s10.19-342.06-1.56-358.93c-2.47-3.55-326.21-17.54-440.25 1-21.57 3.53-18.12 350.19 0 362.15z" fill="#c4e5e5" stroke="#1691c9" stroke-miterlimit="10" stroke-width="6"/><path class="cls-3" d="M73.15 127.25c1.31 1.55 1.73 6.2 1.73 8.27a5.42 5.42 0 0 1-1 3.51 7.57 7.57 0 0 1-3.75 2.56c-.31.46-4.45.77-5.07.77s-1 0-1-.85.22-1.38.22-2.07c0-5.81.06-11.62.06-17.44 0-2.75 0-5.51-.08-8.26 0-.77-.15-1.53-.15-2.3 0-1.08.16-2 1.43-2 1.11 0 2.2.32 3.31.32s1.93-.19 1.93 1.24c0 .64 0 2.54-.93 2.54s-1.79-.63-2.72-.63c-.73 0-.64.49-.64 1.06 0 1.45.27 2.9.27 4.34 0 2.19-.1 4.42.11 6.59 0 .31 0 1 .5 1s.89-.23 1.36-.23a5 5 0 0 1 .86.13c1.41.24 2.54.2 3.57 1.4zm-.87 6.36c0-5.24-2.7-4.45-3-4.86-.56 0-1.06-.36-1.62-.36-.91 0-1 .92-1 1.62 0 1.15.3 2.27.34 3.41s.08 2 .08 3c0 .67-.18 1.34-.18 2 0 .39.11.8.57.8a5.73 5.73 0 0 0 1.51-.36c2.27-.78 3.07-2.27 3.2-4.6zm-1.75-5.36zm2.55 5.11zM87.55 114.69c.2 3.12.64 6.23.64 9.36 0 2.08-.12 4.15-.26 6.22-.23 3.23-.54 10.77-5.1 10.77-3.07 0-4.72-2.13-4.72-5.08 0-1.64 0-3.54 2.2-3.54a.35.35 0 0 1 .37.31c0 .34-.25.6-.25 1 0 1.11.35 5 1.89 5a1.63 1.63 0 0 0 1.08-.54c1.1-1.06 1.13-3.18 1.27-4.6.18-1.94.28-3.87.34-5.81.07-2.5.25-5 .25-7.51a2.81 2.81 0 0 0-.21-1.38c-.49 1.24-1.42 2.58-2.9 2.58-4.09 0-4.82-5.92-4.82-9 0-1.14.78-1.65 1.85-1.65s1.15 1.18 1.15 2a20.85 20.85 0 0 0 0 3.62c.16.93.87 2.7 2 2.7 1.69 0 2.06-2.89 2.06-4.14 0-.94-.31-1.86-.31-2.81s.9-.87 1.51-.87c1.4 0 1.93-.09 1.93 1.51 0 .63-.07 1.27 0 1.9zM101.7 131.54c.22.9 1.45 5.05 1.45 5.52s-.42.42-.72.42h-.49c-1.87-.15-1.6-.93-2-2.46-.4-1.71-1-3.38-1.37-5.09s-.79-3.57-1.24-5.35c-.18-.7-.61-4.24-1-4.49-.54 3.46-1.07 6.89-1.41 10.38-.19 1.91-.67 3.78-.79 5.69-.06 1.07.16 1-.91 1.33a2.33 2.33 0 0 1-.53.07 4.22 4.22 0 0 1-1.67-.4c.09-2.78 1.06-5.51 1.44-8.26.47-3.43 1-6.84 1.55-10.26.12-.81.07-3.58.66-4a3.28 3.28 0 0 1 1.53-.26 2.78 2.78 0 0 1 1 .12c.69.34.82 2 1 2.7 1 4.82 2.35 9.6 3.51 14.39zM116.25 131.54c.22.9 1.45 5.05 1.45 5.52s-.42.42-.73.42h-.49c-1.86-.15-1.59-.93-2-2.46-.4-1.71-1-3.38-1.37-5.09s-.8-3.57-1.24-5.35c-.18-.7-.61-4.24-1-4.49-.55 3.46-1.07 6.89-1.41 10.38-.19 1.91-.67 3.78-.79 5.69-.07 1.07.16 1-.91 1.33a2.35 2.35 0 0 1-.54.07 4.17 4.17 0 0 1-1.66-.4c.09-2.78 1.06-5.51 1.44-8.26.47-3.43 1-6.84 1.55-10.26.12-.81.07-3.58.65-4a3.32 3.32 0 0 1 1.54-.26 2.7 2.7 0 0 1 1 .12c.7.34.83 2 1 2.7 1 4.82 2.34 9.6 3.51 14.39zM130.56 120.46c-.45.29-2.49 5.18-3 6.1a45.88 45.88 0 0 0-3.31 7.11c-.17.5-.41 2-.83 2.25a6.85 6.85 0 0 1-1.91.24c-.87 0-.89-2.25-.89-2.84 0-1.71.22-3.41.22-5.11 0-2.41-.22-4.82-.22-7.23v-2.75c0-.92-.18-1.83-.18-2.76 0-.72 1.7-1.21 2.27-1.21s.47.63.47.95c0 4.18-.1 8.37-.1 12.56a10.56 10.56 0 0 0 .16 2.1A41.92 41.92 0 0 0 127 123c.61-1.62 1.51-3.1 2.14-4.7.3-.75.74-3 1.26-3.43a2.31 2.31 0 0 1 1.52-.51c.74 0 1 .49 1 1.16 0 .85-.26 1.67-.26 2.52 0 5 .22 10 .22 15a30.36 30.36 0 0 1-.17 3.44c-.14 1.18-.16.95-1.24 1-.26 0-.52.07-.79.07-.65 0-.65-1.42-.65-1.85 0-4.92.67-9.81.67-14.73a1.1 1.1 0 0 0-.09-.54zM146.54 120.71c.09 4.43 0 8.86.1 13.29 0 .83.18 1.66.18 2.5 0 .27 0 .87-.43.87a4.89 4.89 0 0 1-.74-.16c-1.23-.25-1.54-.93-1.54-2.11 0-1 .21-4.65-.24-5.37a1.28 1.28 0 0 0-1.29-.57c-1 0-1.87-.4-2.78-.4-.74 0-.72.89-.72 1.42 0 .82.09 1.64.12 2.46s.28 1.49.28 2.24-1.26 1-1.92 1-1.42-.07-1.42-.91c0-.69.25-1.36.25-2 0-1.42-.18-2.84-.18-4.27 0-3.54.26-7.08.26-10.62 0-1-.1-2-.1-3 0-.42.06-.59.5-.59.72 0 2.62-.21 2.62.79 0 .64-.25 1.24-.28 1.87v1.29c0 1.58.1 3.16.06 4.74 0 .7-.25 1.37-.25 2s.5 1 1.2 1.08a22.34 22.34 0 0 0 2.71.23 1.44 1.44 0 0 0 .62-.08c.5-.3.5-2 .5-2.46 0-1.07-.11-2.13-.11-3.19s.08-2.09.08-3.13c0-.64-.11-1.28-.11-1.92s.31-1.23 1.15-1.23c1.08 0 1.49.6 1.49 1.59v4.61zM157.71 124.43c-1.06 2.56-4.55 6.09-4.55 8.74 0 .57.19 2.05 1 2.05 1.36 0 .68-1.66 1.2-2.13a3.82 3.82 0 0 1 1.86-.28h.91v.31c0 2.17-1.47 4.88-3.9 4.88s-3.9-2.23-3.9-4.52c0-5 5.38-7.81 5.38-13.51 0-1.18-.48-3.28-2-3.28-.93 0-1.45 1.12-1.45 1.92 0 .51.2 1 .2 1.52a1.61 1.61 0 0 1-1.71 1.42c-1.19 0-1.48-1.17-1.48-2.14 0-2.52 1.52-5.6 4.39-5.6 3.32 0 4.89 3.42 4.89 6.32a11.46 11.46 0 0 1-.85 4.28zM192.66 124.11c.14 0 .61.09.72 0 .36.19.4 1.93.4 2.3 0 .8-.13.65-.73.76a8.16 8.16 0 0 1-1.39.12c-1 0-1.93-.14-2.89-.14-4.88 0-9.76.08-14.64.16a8.18 8.18 0 0 1 .25-2.59 2.38 2.38 0 0 1 .59-.07c1.46 0 2.93.1 4.39.1h1.86l6.34-.19a32.84 32.84 0 0 0 3.3-.17 12.2 12.2 0 0 1 1.8-.28zM216.83 115.22c1.14 3.09.92 5 .92 8.2 0 1 .07 2.08.07 3.12s-.09 1.79-.17 2.68c-.28 3.29-.47 10.16-5.11 10.16-3.49 0-5.14-4.15-5.14-7.11 0-.62 2.18-.52 2.62-.56.13 1.24.42 4.25 2.13 4.25 2.41 0 3-5.6 3-7.37h-1c-.69 0-1.38.16-2.08.16-1.51 0-2.22-.16-2.22-1.86 0-.92.11-1.25 1.1-1.25 1.4 0 2.76.3 4.15.34 0-1.48.09-3 .09-4.45s-.4-6.28-2.38-6.28c-2.38 0-2.34 5.08-2.67 6.65a.88.88 0 0 1-.87.8c-.66 0-1.83-.31-1.83-1.11a1.15 1.15 0 0 1 .17-.59c-.09-2.91 1.52-9.15 5.3-9.15 1.85 0 3.32 1.79 3.9 3.39zM222.83 112.75c-.43-.06-1.79-.14-2.05-.43a1.84 1.84 0 0 1-.05-.41c0-1.64 0-2 1.72-2 1.06 0 2.11.17 3.17.17.78 0 1.57-.17 2.36-.17.56 0 1.46 0 1.46.75 0 .5.07 1 .07 1.49 0 1.08-2.79-.22-2.79 1.47 0 .4 0 .79.06 1.19.18 4.19.19 8.39.22 12.58s0 8.69.23 13v.82c0 .28 0 .75-.44.75a3.8 3.8 0 0 1-1.18-.34c-.79-.29-1-.12-1-1.19 0-.54.11-1.07.11-1.6 0-8.16-.53-16.32-.53-24.49 0-1.39 0-1.35-1.38-1.59zM245.29 141.51a2.48 2.48 0 0 1-2 .61c-4.88 0-8.25-2.26-8.25-7.44 0-2.32 1.14-4.46 3.72-4.46 1.47 0 2.91 1.07 3.48 1.07a1.06 1.06 0 0 0 .19 0c0-3.35-.05-15-1.54-17.33a2.21 2.21 0 0 0-1.85-1.14c-1.73 0-2.77 1.83-2.77 3.38 0 1.37 0 1.66-1.41 1.66-.66 0-2.18.18-2.18-.79a8.31 8.31 0 0 1 1-3.13c1.12-2.11 3.57-4.18 6.07-4.18a3.78 3.78 0 0 1 1.68.37c2.93 1.4 3.36 7 3.67 9.88a90.3 90.3 0 0 1 .47 9.73c0 3.15-.11 6.29-.11 9.44a5 5 0 0 1-.2 2.37zm-7-6.13a3.73 3.73 0 0 0 3.76 3.87c.74 0 .81-.75.81-1.32 0-.91-.28-1.79-.28-2.7 0-1.76-.44-2.1-2.17-2.1a2.08 2.08 0 0 0-2.16 2.25zM270.57 120.71c.09 4.43.05 8.86.1 13.29 0 .83.19 1.66.19 2.5 0 .27-.06.87-.44.87a4.77 4.77 0 0 1-.73-.16c-1.24-.25-1.54-.93-1.54-2.11 0-1 .2-4.65-.25-5.37a1.28 1.28 0 0 0-1.29-.57c-1 0-1.86-.4-2.77-.4-.74 0-.73.89-.73 1.42 0 .82.1 1.64.13 2.46s.27 1.49.27 2.24-1.26 1-1.92 1-1.42-.07-1.42-.91c0-.69.25-1.36.25-2 0-1.42-.17-2.84-.17-4.27 0-3.54.25-7.08.25-10.62 0-1-.1-2-.1-3 0-.42.06-.59.51-.59.71 0 2.61-.21 2.61.79 0 .64-.24 1.24-.27 1.87v1.29c0 1.58.1 3.16.06 4.74 0 .7-.25 1.37-.25 2s.5 1 1.2 1.08a22.34 22.34 0 0 0 2.71.23 1.5 1.5 0 0 0 .63-.08c.49-.3.49-2 .49-2.46 0-1.07-.11-2.13-.11-3.19s.09-2.09.09-3.13c0-.64-.12-1.28-.12-1.92s.31-1.23 1.16-1.23c1.07 0 1.48.6 1.48 1.59v4.61zM281.1 137.73a4.84 4.84 0 0 1-1.37.21c-4.73 0-5.92-8.32-5.92-11.84s.35-12.2 5.52-12.2c4 0 5.78 5.85 5.78 9.09 0 1.59-.88 1.8-2.24 1.8s-2.46-.09-3.68-.09c-1 0-2.17.21-2.17 1.49 0 .66.14 1.31.2 2 .13 1.6.22 6.87 2.55 6.87s1.64-4.56 2.22-4.9a1.63 1.63 0 0 1 .92-.19c.63 0 1.25.11 1.88.11s.52.28.52.69c0 2.65-1.47 6.19-4.21 7zm-3.75-15.83c0 .34.73.4 1 .4a14.75 14.75 0 0 0 2.57-.38c.65-.12 1.09 0 1.09-.85 0-1.39-1.23-4.36-2.88-4.36s-1.66 2.38-1.66 3.53v.9c0 .3-.12.5-.12.76zM301.32 112.75c-.43-.06-1.79-.14-2.05-.43a1.84 1.84 0 0 1 0-.41c0-1.64-.06-2 1.72-2 1.06 0 2.11.17 3.16.17.79 0 1.57-.17 2.36-.17.57 0 1.46 0 1.46.75 0 .5.07 1 .07 1.49 0 1.08-2.79-.22-2.79 1.47 0 .4.05.79.07 1.19.17 4.19.19 8.39.21 12.58s0 8.69.24 13v.82c0 .28 0 .75-.44.75a3.74 3.74 0 0 1-1.17-.34c-.8-.29-1-.12-1-1.19 0-.54.11-1.07.11-1.6 0-8.16-.53-16.32-.53-24.49 0-1.39 0-1.35-1.38-1.59zM323.79 141.51a2.5 2.5 0 0 1-2 .61c-4.87 0-8.24-2.26-8.24-7.44 0-2.32 1.14-4.46 3.72-4.46 1.47 0 2.9 1.07 3.48 1.07a1.29 1.29 0 0 0 .19 0c0-3.35-.05-15-1.55-17.33a2.2 2.2 0 0 0-1.85-1.14c-1.72 0-2.76 1.83-2.76 3.38 0 1.37 0 1.66-1.42 1.66-.65 0-2.18.18-2.18-.79a8.49 8.49 0 0 1 1-3.13c1.12-2.11 3.58-4.18 6.07-4.18a3.75 3.75 0 0 1 1.68.37c2.94 1.4 3.37 7 3.68 9.88a92.94 92.94 0 0 1 .47 9.73c0 3.15-.12 6.29-.12 9.44a5.1 5.1 0 0 1-.19 2.37zm-7.05-6.13a3.73 3.73 0 0 0 3.76 3.87c.74 0 .82-.75.82-1.32 0-.91-.29-1.79-.29-2.7 0-1.76-.44-2.1-2.16-2.1a2.09 2.09 0 0 0-2.13 2.25zM346.41 110.05c3 1.76 3.47 8.31 3.47 11.43v1.19h-1.15a3.17 3.17 0 0 1-.92-.1c-.77-.21-.55 0-.69-.8-.35-2.13.27-9.12-3-9.12-2.86 0-2.85 6.17-2.85 8.06 0 1.22.07 2.44.07 3.66 0 2.39-.29 14.85 3.23 14.85 1.05 0 1.77-1.37 2-2.25s.06-1.8.27-2.68.23-.73 1.13-.81c.61-.05 1.21-.13 1.81-.23-.19 2.53-.1 5.5-1.79 7.58a4.12 4.12 0 0 1-3.14 1.57 3.82 3.82 0 0 1-2.65-1.1c-3.83-3.71-3.63-11.43-3.63-16.42 0-2.65 0-5.3.24-7.93.28-3.4 1.27-7.49 5.52-7.49a4.18 4.18 0 0 1 2.15.58zM363.11 120.46c-.45.29-2.49 5.18-3 6.1a45.88 45.88 0 0 0-3.31 7.11c-.17.5-.41 2-.83 2.25a6.8 6.8 0 0 1-1.91.24c-.87 0-.89-2.25-.89-2.84 0-1.71.22-3.41.22-5.11 0-2.41-.22-4.82-.22-7.23v-2.75c0-.92-.18-1.83-.18-2.76 0-.72 1.7-1.21 2.27-1.21s.47.63.47.95c0 4.18-.1 8.37-.1 12.56a10.56 10.56 0 0 0 .16 2.1 41.17 41.17 0 0 0 3.66-6.85c.61-1.62 1.51-3.1 2.14-4.7.3-.75.75-3 1.26-3.43a2.33 2.33 0 0 1 1.52-.51c.74 0 1 .49 1 1.16 0 .85-.26 1.67-.26 2.52 0 5 .23 10 .23 15a30.37 30.37 0 0 1-.18 3.44c-.14 1.18-.16.95-1.24 1-.26 0-.52.07-.79.07-.65 0-.65-1.42-.65-1.85 0-4.92.67-9.81.67-14.73a1.1 1.1 0 0 0-.09-.54zM370.68 112.75c-.44-.06-1.8-.14-2.06-.43a1.84 1.84 0 0 1 0-.41c0-1.64-.05-2 1.72-2 1.06 0 2.11.17 3.17.17.78 0 1.56-.17 2.35-.17.57 0 1.46 0 1.46.75 0 .5.08 1 .08 1.49 0 1.08-2.8-.22-2.8 1.47 0 .4.05.79.07 1.19.18 4.19.19 8.39.21 12.58s0 8.69.24 13v.82c0 .28 0 .75-.43.75a3.8 3.8 0 0 1-1.18-.34c-.79-.29-1-.12-1-1.19 0-.54.12-1.07.12-1.6 0-8.16-.53-16.32-.53-24.49 0-1.39 0-1.35-1.39-1.59zM391.17 114.69c.2 3.12.64 6.23.64 9.36 0 2.08-.12 4.15-.26 6.22-.23 3.23-.54 10.77-5.1 10.77-3.07 0-4.72-2.13-4.72-5.08 0-1.64 0-3.54 2.21-3.54a.34.34 0 0 1 .36.31c0 .34-.25.6-.25 1 0 1.11.35 5 1.89 5a1.63 1.63 0 0 0 1.08-.54c1.1-1.06 1.14-3.18 1.27-4.6.18-1.94.29-3.87.34-5.81.07-2.5.26-5 .26-7.51a2.81 2.81 0 0 0-.22-1.38c-.49 1.24-1.42 2.58-2.9 2.58-4.08 0-4.82-5.92-4.82-9 0-1.14.79-1.65 1.85-1.65s1.15 1.18 1.15 2a21.88 21.88 0 0 0 .05 3.62c.16.93.87 2.7 2 2.7 1.69 0 2.06-2.89 2.06-4.14 0-.94-.31-1.86-.31-2.81s.9-.87 1.51-.87c1.41 0 1.94-.09 1.94 1.51 0 .63-.07 1.27 0 1.9zM407 141.51a2.5 2.5 0 0 1-2 .61c-4.87 0-8.24-2.26-8.24-7.44 0-2.32 1.14-4.46 3.72-4.46 1.47 0 2.9 1.07 3.48 1.07a1.29 1.29 0 0 0 .19 0c0-3.35-.05-15-1.55-17.33a2.2 2.2 0 0 0-1.85-1.14c-1.72 0-2.76 1.83-2.76 3.38 0 1.37 0 1.66-1.41 1.66-.66 0-2.19.18-2.19-.79a8.49 8.49 0 0 1 1-3.13c1.12-2.11 3.58-4.18 6.07-4.18a3.75 3.75 0 0 1 1.68.37c2.94 1.4 3.37 7 3.68 9.88a90.3 90.3 0 0 1 .47 9.73c0 3.15-.11 6.29-.11 9.44a5 5 0 0 1-.2 2.37zm-7-6.13a3.73 3.73 0 0 0 3.77 3.87c.73 0 .81-.75.81-1.32 0-.91-.28-1.79-.28-2.7 0-1.76-.44-2.1-2.17-2.1a2.09 2.09 0 0 0-2.13 2.25zM423.78 141.49a1.19 1.19 0 0 1-.66.17c-.44 0-.86-.13-1.3-.13-.14 0-.25 0-.38.05s-.08-.4-.09-.55c-.05-.72-.06-1.45-.07-2.17-2.46-.07-4.91-.44-7.37-.56-1.55-.08-1.93-.73-2.17-2.18a62.33 62.33 0 0 1-.43-9.86c0-2.86.19-5.73.19-8.58 0-1.49-.13-3-.13-4.47 0-.71-.16-2.24.89-2.24a3.27 3.27 0 0 1 .87.17c.7.2 1 .07 1 1 0 .77-.15 1.54-.15 2.32 0 1.41.1 2.83.12 4.25s.16 2.77.17 4.21v11.84c0 .55 0 .86.65.86s1-.09 1.5-.09h1.79c0-1.36-.15-2.71-.19-4.06-.12-4.05-.13-8.1-.2-12.15 0-1.83 0-3.75-.16-5.57a21 21 0 0 1-.26-2.22 3.41 3.41 0 0 0 0-.9c.17-.44 1.9-.5 2.29-.5.85 0 .67.26.77.9a12.15 12.15 0 0 1 .12 1.59c0 1.18-.14 2.35-.14 3.53 0 6.41.06 12.84.12 19.26a11.47 11.47 0 0 1 1.76.09c1 .11 1.74.09 1.74 1.35 0 .54-.08 1.07-.07 1.61s.16 1.29.16 1.93c0 .35 0 .84-.34 1.05zM436.06 120.46c-.44.29-2.48 5.18-3 6.1a46.88 46.88 0 0 0-3.32 7.11c-.16.5-.41 2-.82 2.25a6.9 6.9 0 0 1-1.91.24c-.87 0-.9-2.25-.9-2.84 0-1.71.23-3.41.23-5.11 0-2.41-.23-4.82-.23-7.23 0-.91.05-1.83.05-2.75s-.18-1.83-.18-2.76c0-.72 1.69-1.21 2.26-1.21s.48.63.48.95c0 4.18-.11 8.37-.11 12.56a9.87 9.87 0 0 0 .17 2.1 41.12 41.12 0 0 0 3.65-6.85c.62-1.62 1.51-3.1 2.15-4.7.3-.75.74-3 1.26-3.43a2.28 2.28 0 0 1 1.51-.51c.74 0 1 .49 1 1.16 0 .85-.25 1.67-.25 2.52 0 5 .22 10 .22 15a28.21 28.21 0 0 1-.18 3.44c-.14 1.18-.15.95-1.23 1-.27 0-.53.07-.8.07-.65 0-.64-1.42-.64-1.85 0-4.92.66-9.81.66-14.73a1.23 1.23 0 0 0-.08-.54zM452.42 111a1.18 1.18 0 0 1 .12.59c0 .58-.18 1.15-.18 1.72 0 7.81-.4 15.63-.4 23.44 0 .63.12 1.26.12 1.9 0 1.07-.27 1-1.1 1.18a4.35 4.35 0 0 1-1.06.22c-.55 0-.57-.47-.57-.9 0-.93.08-1.85.08-2.78 0-1.27-.08-2.54-.08-3.81 0-2 .09-4 .13-6q-1.8 4.83-3.59 9.68c-.57 1.53-1.07 3.11-1.69 4.62a1 1 0 0 1-.95.66c-.4 0-1.71-.69-1.71-1.11 0 0 2.65-6.87 2.93-7.69 1.14-3.3 2.36-6.58 3.54-9.86-2.92-.53-4.44-3.8-4.44-6.51 0-3.1 1.75-6 5.13-6 .56 0 1.09.11 1.65.11s1.64-.07 2.07.61zm-2.66 7.39c0-1-.07-1.92 0-2.88 0-.5.16-1 .16-1.48 0-.31-.15-1.43-.5-1.43-2.08 0-3.19 1.53-3.19 3.5 0 1.63.81 4.51 2.88 4.51.79 0 .66-1.26.67-1.77zM459.13 135.61a24 24 0 0 1-.21 4.54c0 .54-.11.85-.4.9-.58.09-.76.17-1.37.29-.36.06-.44.14-.72-.4a5 5 0 0 1-.14-2.2c0-1 .08-2.34.11-3.31a1.41 1.41 0 0 1 .07-.47c.31-.9.9-.57 1.4-.57.69 0 1.05-.11 1.26 1.22zM54.51 181.78a16.65 16.65 0 0 1 .29 2.22c0 .22-.12.71 0 .9-.31.43-1.93.49-2.45.49-.89 0-.8-.13-.9-.9a14.08 14.08 0 0 1-.13-1.73c0-1.19.15-2.38.15-3.57 0-8.78 0-17.56-.17-26.34.48 0 2.57 0 2.82.31a1.6 1.6 0 0 1 .09.73c0 1.81-.12 3.62-.12 5.43 0 1.17.06 2.33.06 3.5 0 1.47-.27 2.93-.29 4.4.94-2.09 2.69-3.66 4.11-5.43.58-.73 3.06-4.27 3.59-4.5l1.4.94a1.16 1.16 0 0 1 0 .18c0 1.52-7.91 10-7.91 10.88 0 .4.53 1 .75 1.35.66 1 5.52 10.4 5.52 10.9 0 .65-1.24 1.2-1.79 1.22a112.62 112.62 0 0 1-5.74-11.63 84.27 84.27 0 0 0 .69 10.65zM63.88 169c0-5.26 2.09-11.05 8.25-11.05s7.63 7.41 7.63 12.31S77.6 181 71.73 181c-6.05 0-7.85-7.19-7.85-12zm2.7-.69c0 .76 0 1.51.11 2.27.25 2.52 1.87 7.85 5 7.85 4.1 0 5.33-6 5.33-9.22 0-2.91-1.15-8.6-4.93-8.6-4.5-.01-5.51 3.91-5.51 7.69zM82.86 156c-.43-.07-1.79-.15-2-.44a1.84 1.84 0 0 1 0-.41c0-1.64-.05-2 1.72-2 1.06 0 2.11.17 3.17.17.78 0 1.57-.17 2.36-.17.56 0 1.46 0 1.46.75 0 .5.07 1 .07 1.49 0 1.08-2.79-.22-2.79 1.47 0 .4 0 .8.06 1.19.18 4.19.19 8.39.22 12.58 0 4.34 0 8.69.23 13v.82c0 .28 0 .75-.44.75a3.66 3.66 0 0 1-1.17-.34c-.8-.29-1-.12-1-1.19 0-.54.11-1.07.11-1.6 0-8.16-.53-16.32-.53-24.49 0-1.39 0-1.35-1.38-1.58zM91.42 169c0-5.26 2.08-11.05 8.24-11.05s7.63 7.41 7.63 12.31-2.16 10.79-8 10.79c-6.08-.05-7.87-7.24-7.87-12.05zm2.69-.69c0 .76 0 1.51.11 2.27.25 2.52 1.87 7.85 5 7.85 4.11 0 5.33-6 5.33-9.22 0-2.91-1.15-8.6-4.93-8.6-4.5-.01-5.51 3.91-5.51 7.69zM110.05 155.41c2.64.09 6.43-.2 8.13 2.28a3.51 3.51 0 0 1 .62 2 6.27 6.27 0 0 1-3 4.75c-.73.44-2 .55-2.54 1a1.62 1.62 0 0 0-.49 1.38c0 .67.14 1.34.14 2 0 2.89.26 5.79.49 8.68.11 1.31.45 2.59.45 3.93 0 1.1-.08 1.46-1.25 1.46-1.87 0-1.91-.46-1.91-2.16 0-4.65 0-9.29-.23-13.94-.15-2.93-.55-5.84-.55-8.77a24.05 24.05 0 0 1 .12-2.55zm5.63 6a2.13 2.13 0 0 0 .18-.83 3 3 0 0 0-2.76-2.58c-.53 0-.58.43-.58.85s.06.92 0 1.38-.17 1.16-.17 1.75.13 1.13.78 1.13a3.69 3.69 0 0 0 2.51-1.71zM133.54 184.71a2.5 2.5 0 0 1-2 .61c-4.87 0-8.24-2.26-8.24-7.44 0-2.33 1.14-4.46 3.72-4.46 1.47 0 2.9 1.07 3.48 1.07a1.29 1.29 0 0 0 .19 0c0-3.35-.05-15-1.55-17.33a2.2 2.2 0 0 0-1.85-1.14c-1.72 0-2.76 1.83-2.76 3.38 0 1.37 0 1.66-1.41 1.66-.66 0-2.19.18-2.19-.79a8.49 8.49 0 0 1 1-3.13c1.12-2.11 3.58-4.18 6.07-4.18a3.89 3.89 0 0 1 1.68.37c2.94 1.4 3.37 7 3.68 9.88a92.94 92.94 0 0 1 .47 9.73c0 3.15-.12 6.3-.12 9.44a5.1 5.1 0 0 1-.19 2.37zm-7-6.13a3.73 3.73 0 0 0 3.76 3.87c.74 0 .82-.75.82-1.32 0-.91-.29-1.79-.29-2.7 0-1.76-.43-2.1-2.16-2.1a2.09 2.09 0 0 0-2.18 2.25zM148.65 154.24a1.2 1.2 0 0 1 .12.59c0 .58-.18 1.15-.18 1.72 0 7.81-.41 15.63-.41 23.44 0 .63.12 1.26.12 1.9 0 1.07-.26 1-1.1 1.18a4.18 4.18 0 0 1-1 .22c-.55 0-.57-.47-.57-.9 0-.93.08-1.85.08-2.78 0-1.27-.08-2.54-.08-3.81 0-2 .09-4 .13-6.05-1.2 3.22-2.41 6.45-3.6 9.68-.56 1.53-1.07 3.11-1.69 4.62a1 1 0 0 1-.95.66c-.39 0-1.71-.68-1.71-1.11 0 0 2.65-6.87 2.94-7.69 1.14-3.3 2.36-6.58 3.54-9.86-2.92-.53-4.44-3.8-4.44-6.51 0-3.1 1.75-6 5.13-6 .55 0 1.09.1 1.65.1s1.64-.07 2.07.61zm-2.65 7.39c0-1-.06-1.92 0-2.88 0-.49.16-1 .16-1.48 0-.31-.15-1.43-.51-1.43-2.08 0-3.18 1.53-3.18 3.5 0 1.63.81 4.51 2.88 4.51.78 0 .66-1.26.67-1.77zM172.7 156.39a14.76 14.76 0 0 1 .19 2.49c0 2.14-.32 4.27-.32 6.41 0 1.87.29 3.73.29 5.61s-.19 3.59-.19 5.39c0 1.34.12 2.68.12 4 0 .72.14 2-.89 2a3.61 3.61 0 0 1-.86-.15c-.65-.17-1 0-1-.94 0-.69.16-1.38.16-2.08 0-1.29-.11-2.56-.12-3.84 0-4.72-.2-9.44-.2-14.16v-2.54c0-.54-.05-.78-.65-.78-1.46 0-2.88.5-4.37.49v3.25c.12 4.14.14 8.29.21 12.43 0 1.89-.07 3.9.15 5.77a16.86 16.86 0 0 1 .27 2c0 .17-.1.68 0 .81-.19.4-1.92.45-2.29.45-.84 0-.67-.18-.78-.81a9.72 9.72 0 0 1-.12-1.42c0-1.13.14-2.25.14-3.37 0-7-.14-13.92-.14-20.88a1.45 1.45 0 0 1 1.57-1.38c2.17 0 4.34.28 6.51.28 1 0 2-.43 2.26.92zM176.56 169c0-5.26 2.09-11.05 8.25-11.05s7.63 7.41 7.63 12.31-2.16 10.79-8 10.79c-6.08-.05-7.88-7.24-7.88-12.05zm2.7-.69c0 .76 0 1.51.11 2.27.25 2.52 1.87 7.85 5 7.85 4.1 0 5.33-6 5.33-9.22 0-2.91-1.15-8.6-4.93-8.6-4.5-.01-5.51 3.91-5.51 7.69zM211.48 172.68c-.83 1.58-1.67 3.14-2.41 4.76-.42.92-.66 2.05-1.87 2.05h-.45c-1.43-.21-1.5-1.27-2.08-2.39-.85-1.63-1.76-3.24-2.56-4.9-.71-1.47-1.38-3-2.15-4.41-.52-1-1.07-2-1.54-3a7.83 7.83 0 0 0-.77-1.78c0 2.91.17 5.8.22 8.7 0 2.61.41 5.34.41 7.9 0 .77-.11.92-.94.92a17.23 17.23 0 0 1-2-.42h-.12c-.19-.06-.29-.64-.29-.83 0-1.23.17-2.47.17-3.71 0-4-.06-8.07 0-12.11 0-1.14-.14-2.28-.14-3.43 0-.47 0-2.33.62-2.33 1.83 0 2.17.09 3 1.66 1.51 2.76 3.09 5.48 4.6 8.24.54 1 3.27 7.09 4 7.09.07 0 .26-.35.29-.4.68-1.2 1.18-2.5 1.82-3.72 1.5-2.88 3.11-5.71 4.61-8.59.46-.89 1.34-3.27 2.17-3.71a6.14 6.14 0 0 1 1.68-.2c1.23 0 1.05 1 1.05 2 0 4 0 8.08.15 12.12 0 1.64.1 3.28.16 4.92 0 .8.21 1.59.21 2.39 0 .46-.11 1-.7 1a2.21 2.21 0 0 1-.87-.27c-.84-.33-.52.13-.78-.87a7.39 7.39 0 0 1-.17-1.82c0-2.41-.1-4.81-.19-7.22-.06-1.75 0-3.49-.13-5.24a10 10 0 0 0-.11-1.23s0-.31-.1-.31-.52.65-.59.77c-1.59 2.68-2.81 5.58-4.24 8.35zM222.82 169c0-5.26 2.08-11.05 8.24-11.05s7.63 7.41 7.63 12.31-2.16 10.79-8 10.79c-6.07-.05-7.87-7.24-7.87-12.05zm2.69-.69c0 .76 0 1.51.11 2.27.25 2.52 1.87 7.85 5 7.85 4.11 0 5.33-6 5.33-9.22 0-2.91-1.15-8.6-4.93-8.6-4.5-.01-5.51 3.91-5.51 7.69zM252.28 181.38c-.79 0-.91-.67-.91-1.31s.11-1.06.11-1.6c0-2.73-.25-5.45-.41-8.18-1.19.12-3.87.66-4.33 1.92a14.88 14.88 0 0 0-.91 4.22 29.41 29.41 0 0 1-.24 4.2c-.08.38-.27.74-.72.74s-1.63-.43-1.75-.9a16.21 16.21 0 0 1-.16-3.69c0-3 .38-5.72 2.9-7.65-2.73-1.54-3.52-4.16-3.52-7.13a27.48 27.48 0 0 1 .3-4.86c.14-.48 1.32-.85 1.78-.85s.63.39.7.76a29.53 29.53 0 0 1 .12 4.21 15.28 15.28 0 0 0 .74 4.24c.48 1.49 3.6 2 5 2.07-.16-3.24-.58-6.47-.58-9.72 0-.53.08-1.08.75-1.08 1.21 0 2.08.07 2.08 1.45 0 .77-.13 1.52-.13 2.28 0 2.37.35 4.73.46 7.09 1.31-.07 4.26-.55 4.75-2a15.32 15.32 0 0 0 .92-4.22 28 28 0 0 1 .23-4.2c.08-.38.28-.74.73-.74s1.63.43 1.75.9a16.8 16.8 0 0 1 .16 3.69c0 3-.39 5.72-2.91 7.65 2.73 1.54 3.53 4.16 3.53 7.13a27.46 27.46 0 0 1-.31 4.86c-.13.48-1.32.85-1.77.85s-.64-.39-.7-.76a26.82 26.82 0 0 1-.12-4.21 15.6 15.6 0 0 0-.75-4.23c-.51-1.63-3.93-2.06-5.39-2.1v2.3c0 2.5.35 5 .45 7.47-.07.83-1.13 1.4-1.85 1.4zM274.09 180.93a4.84 4.84 0 0 1-1.37.21c-4.73 0-5.92-8.32-5.92-11.84s.35-12.2 5.52-12.2c4 0 5.78 5.85 5.78 9.09 0 1.59-.88 1.8-2.24 1.8s-2.46-.09-3.68-.09c-1 0-2.17.21-2.17 1.49 0 .66.14 1.31.2 2 .13 1.6.22 6.86 2.55 6.86s1.64-4.55 2.22-4.9a1.71 1.71 0 0 1 .92-.18c.63 0 1.25.11 1.88.11s.52.28.52.69c0 2.65-1.47 6.19-4.21 7zm-3.75-15.83c0 .34.74.4 1 .4a14.75 14.75 0 0 0 2.57-.38c.65-.12 1.09 0 1.09-.85 0-1.39-1.24-4.35-2.88-4.35s-1.66 2.37-1.66 3.52v.9c0 .3-.12.5-.12.76zM283.77 156c-.44-.07-1.8-.15-2.06-.44a1.84 1.84 0 0 1 0-.41c0-1.64-.05-2 1.72-2 1.06 0 2.11.17 3.17.17.78 0 1.56-.17 2.35-.17.57 0 1.46 0 1.46.75 0 .5.08 1 .08 1.49 0 1.08-2.79-.22-2.79 1.47 0 .4 0 .8.06 1.19.18 4.19.19 8.39.21 12.58 0 4.34 0 8.69.24 13v.82c0 .28 0 .75-.43.75a3.8 3.8 0 0 1-1.18-.34c-.79-.29-1-.12-1-1.19 0-.54.11-1.07.11-1.6 0-8.16-.53-16.32-.53-24.49 0-1.39 0-1.35-1.39-1.58zM304.85 155.41c2.64.09 6.42-.2 8.12 2.28a3.52 3.52 0 0 1 .63 2 6.28 6.28 0 0 1-3 4.75c-.72.44-2 .55-2.54 1a1.65 1.65 0 0 0-.49 1.38c0 .67.14 1.34.14 2 0 2.89.26 5.79.49 8.68.11 1.31.45 2.59.45 3.93 0 1.1-.07 1.46-1.25 1.46-1.87 0-1.91-.46-1.91-2.16 0-4.65 0-9.29-.23-13.94-.14-2.93-.55-5.84-.55-8.77a21.67 21.67 0 0 1 .13-2.55zm5.63 6a2.12 2.12 0 0 0 .17-.83 2.94 2.94 0 0 0-2.76-2.56c-.52 0-.57.43-.57.85s.05.92 0 1.38-.16 1.16-.16 1.75.13 1.13.78 1.13a3.74 3.74 0 0 0 2.51-1.71zM328.33 184.71a2.48 2.48 0 0 1-2 .61c-4.88 0-8.25-2.26-8.25-7.44 0-2.33 1.14-4.46 3.72-4.46 1.47 0 2.91 1.07 3.49 1.07a1.16 1.16 0 0 0 .18 0c0-3.35-.05-15-1.54-17.33a2.21 2.21 0 0 0-1.85-1.14c-1.73 0-2.77 1.83-2.77 3.38 0 1.37 0 1.66-1.41 1.66-.66 0-2.18.18-2.18-.79a8.31 8.31 0 0 1 1-3.13c1.12-2.11 3.57-4.18 6.07-4.18a3.89 3.89 0 0 1 1.68.37c2.93 1.4 3.37 7 3.67 9.88a90.3 90.3 0 0 1 .47 9.73c0 3.15-.11 6.3-.11 9.44a5 5 0 0 1-.2 2.37zm-7-6.13a3.73 3.73 0 0 0 3.76 3.87c.74 0 .81-.75.81-1.32 0-.91-.28-1.79-.28-2.7 0-1.76-.44-2.1-2.17-2.1a2.08 2.08 0 0 0-2.16 2.25zM341.16 182.49a4.52 4.52 0 0 1-3.88 2.67c-3.08 0-5.19-3.71-5.19-6.5 0-.35 2.26-.6 2.62-.68.22 1.52.44 4.4 2.45 4.4s2.5-3.89 2.5-5.32c0-3.69-.35-6.81-4.79-6.81h-.64c-.92-.1-1-2.13-.52-3.08 1.36.07 3.74.36 4.13-1.34a24.57 24.57 0 0 0 .69-5.39c0-1.37-.07-4.32-1.91-4.32-2 0-2.23 2.77-2.45 4.28-.36-.07-2.63-.49-2.63-.84 0-2.37 1.52-6.5 5.19-6.5 4.11 0 4.75 4.8 4.75 7.91 0 2.76-.15 6.26-3 7.66 2.49.59 3.17 2.58 3.49 5.65a28.6 28.6 0 0 1 .18 2.92 12.53 12.53 0 0 1-1 5.27zM345.39 164.68c0-1.78.07-3.57 0-5.35 0-.54-.07-1.47-.07-2 0-1 .35-1.07 1.39-1.07a8.31 8.31 0 0 1 3.7 1.18c2.76 1.71 3.7 5.48 3.72 8.53 0 3.64-2 5.12-3 6.48-.1.15 5.47 1 5.45 5.6s-7.68 4-10.38 4c-.69 0-.63-.49-.69-1.05s-.08-1.35-.08-2c0-4.69-.06-9.38-.07-14.08zm4.44-3.76c-.22-.28-1.91-2.16-1.91-.9 0 3.42.22 7.5.22 10.93a.41.41 0 0 0 .08.24h.18c3.38-1.14 3.18-8 1.43-10.3zm-1 14.19c-.54 0-.56.35-.56.8 0 .87-.08 1.74-.08 2.61 0 .54.16.87.75.87 2.82 0 4.8-.43 4.8-1.91-.06-2.09-3.66-2.37-4.89-2.37zM369.06 163.66c-.44.29-2.48 5.18-3 6.1a45.51 45.51 0 0 0-3.32 7.11c-.16.5-.41 2-.83 2.25a6.77 6.77 0 0 1-1.9.24c-.87 0-.9-2.25-.9-2.84 0-1.71.23-3.41.23-5.11 0-2.41-.23-4.82-.23-7.23 0-.91.05-1.83.05-2.75s-.18-1.83-.18-2.75c0-.73 1.69-1.22 2.26-1.22s.48.63.48.95c0 4.18-.11 8.37-.11 12.56a9.87 9.87 0 0 0 .17 2.1 40.83 40.83 0 0 0 3.65-6.86c.61-1.61 1.51-3.09 2.15-4.69.3-.75.74-3 1.25-3.43a2.33 2.33 0 0 1 1.52-.51c.74 0 1 .49 1 1.16 0 .85-.25 1.67-.25 2.52 0 5 .22 10 .22 15a28.21 28.21 0 0 1-.18 3.44c-.14 1.18-.16.95-1.23 1-.27 0-.53.07-.8.07-.65 0-.65-1.41-.65-1.85 0-4.92.67-9.81.67-14.72a1.12 1.12 0 0 0-.09-.55zM376.63 156c-.43-.07-1.79-.15-2.05-.44a1.84 1.84 0 0 1-.05-.41c0-1.64 0-2 1.72-2 1.06 0 2.11.17 3.17.17.78 0 1.57-.17 2.36-.17.56 0 1.46 0 1.46.75 0 .5.07 1 .07 1.49 0 1.08-2.79-.22-2.79 1.47 0 .4 0 .8.06 1.19.18 4.19.19 8.39.22 12.58 0 4.34 0 8.69.23 13v.82c0 .28 0 .75-.44.75a3.66 3.66 0 0 1-1.17-.34c-.8-.29-1-.12-1-1.19 0-.54.11-1.07.11-1.6 0-8.16-.53-16.32-.53-24.49 0-1.39 0-1.35-1.38-1.58zM392.8 172.12a7.48 7.48 0 0 1 3.1 5.61 4.47 4.47 0 0 1-.58 2.23c-1.66 2.9-5.18 2.67-8.07 2.85a35 35 0 0 1-.2-4c0-4.61.42-9.22.42-13.84 0-2.45-.14-4.89-.14-7.33 0-1.69.05-2.25 1.95-2.25 1.29 0 1.2.84 1.2 1.92 0 1.48-.28 2.93-.35 4.4s-.34 2.86-.34 4.3c0 1.08-.08 2.16-.08 3.24 0 2.71 1.54 1.73 3.08 2.83zm-1.88 7.4a3.18 3.18 0 0 0 2-2.83c0-1.27-1.41-3-2.73-3-.67 0-.77.71-.77 1.24 0 .9.22 1.78.22 2.68 0 .53-.24 2.07.56 2.07a1.91 1.91 0 0 0 .71-.18zM412.34 156c-.43-.07-1.79-.15-2-.44a1.84 1.84 0 0 1-.05-.41c0-1.64-.05-2 1.72-2 1.06 0 2.11.17 3.17.17.78 0 1.57-.17 2.36-.17.56 0 1.46 0 1.46.75 0 .5.07 1 .07 1.49 0 1.08-2.79-.22-2.79 1.47 0 .4 0 .8.06 1.19.18 4.19.19 8.39.22 12.58 0 4.34 0 8.69.23 13v.82c0 .28 0 .75-.44.75a3.66 3.66 0 0 1-1.17-.34c-.8-.29-1-.12-1-1.19 0-.54.11-1.07.11-1.6 0-8.16-.53-16.32-.53-24.49 0-1.39 0-1.35-1.38-1.58zM422.86 164.68c0-1.78.07-3.57 0-5.35 0-.54-.07-1.47-.07-2 0-1 .35-1.07 1.39-1.07a8.31 8.31 0 0 1 3.7 1.18c2.76 1.71 3.7 5.48 3.72 8.53 0 3.64-2 5.12-3 6.48-.1.15 5.47 1 5.45 5.6s-7.68 4-10.38 4c-.69 0-.63-.49-.69-1.05s-.08-1.35-.08-2c0-4.69-.06-9.38-.07-14.08zm4.44-3.76c-.22-.28-1.91-2.16-1.91-.9 0 3.42.22 7.5.22 10.93a.41.41 0 0 0 .08.24h.18c3.38-1.14 3.18-8 1.43-10.3zm3.93 16.56c-.08-2.09-3.69-2.37-4.91-2.37-.54 0-.56.35-.56.8 0 .87-.08 1.74-.08 2.61 0 .54.16.87.75.87 2.82 0 4.8-.43 4.8-1.91zM436.7 169c0-5.26 2.09-11.05 8.24-11.05 6.3 0 7.63 7.41 7.63 12.31s-2.16 10.79-8 10.79c-6.07-.05-7.87-7.24-7.87-12.05zm2.7-.69a21.56 21.56 0 0 0 .11 2.27c.25 2.52 1.87 7.85 5 7.85 4.1 0 5.32-6 5.32-9.22 0-2.91-1.15-8.6-4.93-8.6-4.49-.01-5.5 3.91-5.5 7.69zM467.17 154.94c4.52 1.48 5.05 7.56 5.05 11.56 0 1.51-.09 3-.19 4.51-.25 4.23.05 12.5-6.08 12.5-4.38 0-4.63-6.8-4.63-9.88 0-.84 0-1.68.07-2.51a2.86 2.86 0 0 1-.42 0l.4-.05a1 1 0 0 0-.24 0c-.83 0-1.67.13-2.5.13h-.35c-.09.91-.13 1.83-.13 2.74 0 2 .23 4 .23 6 0 .82-1.3 1.34-2 1.34s-1-.51-1-1.25.16-1.22.19-1.84c0-.87.06-1.74.06-2.62 0-2.87-.24-5.73-.24-8.61 0-2.23-.31-4.43-.31-6.65 0-.75-.24-2.53.85-2.53a8.8 8.8 0 0 1 1.68.28c.62.13.71.6.71 1.17 0 .93-.26 1.85-.26 2.79 0 2 .26 4.1.29 6.15 1 .07 2 .35 3 .35h.13c0-3.09-.08-13.69 4.5-13.69a3.67 3.67 0 0 1 1.18.21zm1.67 20.76a21.54 21.54 0 0 0 .49-5.37c0-2.1.47-12.7-2.68-12.7a1.68 1.68 0 0 0-1.07.48c-1.08.94-1 3.09-1.14 4.42-.39 4-.65 8.18-.65 12.25 0 1.6.21 5.9 2.52 5.9s2.15-3.51 2.53-5zM94.19 196.45c3 1.76 3.47 8.31 3.47 11.43v1.19h-1.15a3.17 3.17 0 0 1-.92-.1c-.77-.21-.55 0-.69-.8-.35-2.14.27-9.13-3-9.13-2.86 0-2.85 6.18-2.85 8.07 0 1.22.07 2.44.07 3.66 0 2.39-.29 14.85 3.23 14.85 1 0 1.77-1.37 2-2.25s.06-1.8.27-2.68.23-.73 1.13-.81c.61 0 1.21-.14 1.81-.23-.19 2.53-.1 5.5-1.79 7.58a4.12 4.12 0 0 1-3.14 1.57 3.82 3.82 0 0 1-2.65-1.1c-3.83-3.71-3.63-11.43-3.63-16.42 0-2.65 0-5.3.24-7.94.28-3.39 1.27-7.48 5.52-7.48a4.18 4.18 0 0 1 2.15.58zM112.81 227.91a2.51 2.51 0 0 1-2 .61c-4.88 0-8.25-2.26-8.25-7.44 0-2.33 1.14-4.46 3.73-4.46 1.47 0 2.9 1.07 3.48 1.07a1.62 1.62 0 0 0 .19 0c0-3.35-.06-15-1.55-17.33a2.21 2.21 0 0 0-1.85-1.14c-1.72 0-2.77 1.83-2.77 3.38 0 1.37 0 1.66-1.41 1.66-.66 0-2.18.18-2.18-.79a8.31 8.31 0 0 1 1-3.13c1.12-2.11 3.57-4.18 6.07-4.18a3.75 3.75 0 0 1 1.68.37c2.93 1.4 3.37 7 3.67 9.88a90.3 90.3 0 0 1 .47 9.73c0 3.15-.11 6.29-.11 9.44a5 5 0 0 1-.2 2.37zm-7-6.13a3.73 3.73 0 0 0 3.76 3.87c.74 0 .82-.75.82-1.32 0-.91-.29-1.79-.29-2.7 0-1.76-.44-2.1-2.17-2.1a2.08 2.08 0 0 0-2.17 2.25zM133.62 215.88c-.82 1.58-1.67 3.14-2.41 4.76-.42.92-.65 2.05-1.86 2.05a3.55 3.55 0 0 1-.46 0c-1.43-.21-1.5-1.27-2.08-2.39-.85-1.63-1.76-3.24-2.56-4.9-.71-1.47-1.38-3-2.14-4.41-.53-1-1.07-2-1.54-3a7.84 7.84 0 0 0-.78-1.78c0 2.91.18 5.8.22 8.7 0 2.61.41 5.35.41 7.9 0 .77-.11.92-.94.92a17.23 17.23 0 0 1-2-.42.18.18 0 0 0-.12 0c-.18-.06-.28-.64-.28-.83 0-1.23.17-2.47.17-3.71 0-4-.06-8.07 0-12.11 0-1.14-.13-2.28-.13-3.43 0-.47 0-2.33.61-2.33 1.83 0 2.17.09 3 1.66 1.5 2.76 3.09 5.47 4.59 8.23.54 1 3.27 7.1 4 7.1.07 0 .26-.35.29-.4.68-1.2 1.18-2.5 1.82-3.72 1.5-2.88 3.11-5.71 4.61-8.59.46-.89 1.34-3.27 2.18-3.71a6.12 6.12 0 0 1 1.67-.2c1.24 0 1.06 1 1.06 2 0 4.05 0 8.08.14 12.12 0 1.64.11 3.28.17 4.92 0 .8.2 1.59.2 2.39 0 .46-.11 1-.7 1a2.32 2.32 0 0 1-.87-.27c-.83-.33-.52.12-.77-.87a7 7 0 0 1-.18-1.82c0-2.41-.1-4.8-.18-7.22-.06-1.75 0-3.49-.14-5.24 0-.41 0-.83-.1-1.24 0 0-.06-.3-.1-.3s-.52.65-.59.77c-1.6 2.68-2.82 5.58-4.25 8.35zM145 212.19c0-5.26 2.09-11.06 8.24-11.06 6.3 0 7.63 7.42 7.63 12.32s-2.16 10.79-8 10.79c-6.11 0-7.87-7.24-7.87-12.05zm2.7-.69a21.56 21.56 0 0 0 .11 2.27c.25 2.52 1.87 7.85 5 7.85 4.1 0 5.32-6.05 5.32-9.22 0-2.91-1.15-8.6-4.93-8.6-4.53 0-5.54 3.92-5.54 7.7zM174.6 207.88v1.19h-1.15a3.1 3.1 0 0 1-.91-.1c-.77-.21-.56 0-.69-.8-.36-2.14.27-9.13-3-9.13-2.86 0-2.85 6.18-2.85 8.07 0 1.22.07 2.44.07 3.66 0 2.39-.29 14.85 3.23 14.85 1.05 0 1.77-1.37 2-2.25s.06-1.8.27-2.68.23-.73 1.14-.81c.6 0 1.2-.14 1.8-.23-.19 2.53-.1 5.5-1.79 7.58a4.11 4.11 0 0 1-3.14 1.57 3.84 3.84 0 0 1-2.65-1.1c-3.83-3.71-3.63-11.43-3.63-16.42 0-2.65 0-5.3.24-7.94.28-3.39 1.27-7.48 5.52-7.48a4.16 4.16 0 0 1 2.15.58c2.88 1.77 3.39 8.32 3.39 11.44zM179.59 199.15c-.43-.06-1.79-.14-2.05-.43a1.84 1.84 0 0 1 0-.41c0-1.64-.06-2 1.72-2 1.06 0 2.11.17 3.16.17.79 0 1.57-.17 2.36-.17.57 0 1.46 0 1.46.75 0 .5.07 1 .07 1.49 0 1.08-2.79-.22-2.79 1.47 0 .4.05.8.07 1.19.17 4.19.19 8.39.21 12.58 0 4.34 0 8.69.24 13v.82c0 .28 0 .75-.44.75a3.74 3.74 0 0 1-1.17-.34c-.8-.29-1-.12-1-1.19 0-.54.11-1.07.11-1.6 0-8.16-.53-16.32-.53-24.49 0-1.39 0-1.35-1.38-1.59zM188.15 212.19c0-5.26 2.09-11.06 8.24-11.06 6.3 0 7.63 7.42 7.63 12.32s-2.16 10.79-8 10.79c-6.02 0-7.87-7.24-7.87-12.05zm2.7-.69a21.56 21.56 0 0 0 .11 2.27c.25 2.52 1.87 7.85 5 7.85 4.1 0 5.32-6.05 5.32-9.22 0-2.91-1.15-8.6-4.93-8.6-4.49 0-5.5 3.92-5.5 7.7zM217.36 197.44a1.2 1.2 0 0 1 .12.59c0 .58-.18 1.15-.18 1.72 0 7.81-.41 15.63-.41 23.44 0 .63.12 1.26.12 1.9 0 1.07-.26 1-1.1 1.18a4.16 4.16 0 0 1-1.06.22c-.55 0-.56-.47-.56-.9 0-.92.08-1.85.08-2.78 0-1.27-.09-2.54-.09-3.81 0-2 .1-4 .14-6.05-1.2 3.22-2.41 6.45-3.6 9.68-.56 1.53-1.07 3.11-1.69 4.62a1 1 0 0 1-.95.66c-.4 0-1.71-.69-1.71-1.11 0-.05 2.65-6.87 2.94-7.69 1.14-3.3 2.35-6.58 3.54-9.86-2.92-.53-4.44-3.8-4.44-6.51 0-3.1 1.75-6 5.13-6 .55 0 1.09.11 1.65.11s1.64-.07 2.07.61zm-2.67 7.39c0-1-.06-1.92 0-2.88 0-.49.16-1 .16-1.48 0-.31-.15-1.43-.51-1.43-2.08 0-3.18 1.53-3.18 3.5 0 1.63.81 4.51 2.88 4.51.78 0 .66-1.26.67-1.77zM222.53 199.15c-.43-.06-1.79-.14-2.05-.43a1.84 1.84 0 0 1 0-.41c0-1.64-.06-2 1.72-2 1.06 0 2.11.17 3.16.17.79 0 1.57-.17 2.36-.17.57 0 1.46 0 1.46.75 0 .5.07 1 .07 1.49 0 1.08-2.79-.22-2.79 1.47 0 .4.05.8.07 1.19.17 4.19.19 8.39.21 12.58 0 4.34 0 8.69.24 13v.82c0 .28 0 .75-.44.75a3.74 3.74 0 0 1-1.17-.34c-.8-.29-1-.12-1-1.19 0-.54.11-1.07.11-1.6 0-8.16-.53-16.32-.53-24.49 0-1.39 0-1.35-1.38-1.59zM238.74 224.34c-4.74 0-5.92-8.32-5.92-11.84s.35-12.2 5.52-12.2c4 0 5.77 5.85 5.77 9.09 0 1.58-.87 1.8-2.23 1.8s-2.46-.09-3.69-.09c-1 0-2.16.21-2.16 1.49 0 .66.14 1.31.19 2 .14 1.6.23 6.86 2.56 6.86s1.64-4.55 2.22-4.9a1.71 1.71 0 0 1 .92-.18c.62 0 1.25.11 1.88.11s.52.27.52.69c0 2.65-1.47 6.19-4.21 7a4.84 4.84 0 0 1-1.37.17zm-2.38-16c0 .34.73.4 1 .4a13.87 13.87 0 0 0 2.57-.39c.65-.11 1.09 0 1.09-.84 0-1.39-1.24-4.35-2.88-4.35s-1.67 2.37-1.67 3.51v.91c0 .3-.11.42-.11.72zM258.26 217.94c.22.9 1.45 5.05 1.45 5.52s-.42.42-.72.42h-.49c-1.87-.15-1.6-.93-2-2.46-.4-1.71-1-3.38-1.37-5.09s-.79-3.57-1.24-5.35c-.18-.7-.61-4.24-1-4.49-.54 3.46-1.07 6.9-1.41 10.38-.19 1.91-.67 3.78-.79 5.69-.06 1.07.16 1-.91 1.33a2.35 2.35 0 0 1-.54.07 4.17 4.17 0 0 1-1.66-.4c.09-2.78 1.06-5.51 1.44-8.26.47-3.43 1-6.84 1.55-10.26.12-.81.07-3.58.66-4a3.28 3.28 0 0 1 1.53-.26 2.78 2.78 0 0 1 1 .12c.69.34.82 2 1 2.7 1 4.82 2.35 9.6 3.51 14.39zM268.19 215.32a7.48 7.48 0 0 1 3.1 5.61 4.47 4.47 0 0 1-.58 2.23c-1.66 2.9-5.18 2.67-8.07 2.85a35 35 0 0 1-.2-4c0-4.61.42-9.22.42-13.84 0-2.45-.13-4.89-.13-7.33 0-1.69 0-2.25 1.94-2.25 1.29 0 1.2.84 1.2 1.92 0 1.48-.28 2.93-.35 4.4s-.34 2.86-.34 4.3c0 1.08-.08 2.16-.08 3.24 0 2.71 1.54 1.73 3.09 2.83zm.13 4.57c0-1.27-1.41-3-2.73-3-.67 0-.77.71-.77 1.24 0 .9.22 1.78.22 2.68 0 .53-.23 2.07.57 2.07a1.91 1.91 0 0 0 .7-.18 3.18 3.18 0 0 0 2.01-2.81zM285.6 207.11c.09 4.43 0 8.86.1 13.29 0 .83.18 1.66.18 2.5 0 .27-.05.87-.43.87a4.89 4.89 0 0 1-.74-.16c-1.23-.24-1.54-.94-1.54-2.11 0-1 .21-4.65-.24-5.37a1.28 1.28 0 0 0-1.29-.57c-1 0-1.87-.4-2.78-.4-.74 0-.72.89-.72 1.42 0 .82.09 1.64.12 2.46s.28 1.48.28 2.24-1.26 1-1.92 1-1.42-.07-1.42-.91c0-.69.25-1.36.25-2 0-1.42-.18-2.84-.18-4.27 0-3.54.26-7.08.26-10.62 0-1-.1-2-.1-3 0-.42.06-.58.5-.58.72 0 2.62-.22 2.62.78 0 .63-.25 1.24-.28 1.87v1.29c0 1.58.1 3.16.06 4.74 0 .69-.25 1.37-.25 2.06s.5 1 1.2 1.07a22.34 22.34 0 0 0 2.71.23 1.44 1.44 0 0 0 .62-.08c.5-.3.5-2 .5-2.46 0-1.07-.11-2.13-.11-3.19s.08-2.09.08-3.13c0-.64-.11-1.28-.11-1.92s.3-1.23 1.15-1.23c1.07 0 1.49.6 1.49 1.59v4.61zM289.27 212.19c0-5.26 2.09-11.06 8.24-11.06 6.3 0 7.63 7.42 7.63 12.32s-2.16 10.79-8 10.79c-6.07 0-7.87-7.24-7.87-12.05zm2.7-.69a21.56 21.56 0 0 0 .11 2.27c.25 2.52 1.87 7.85 5 7.85 4.1 0 5.32-6.05 5.32-9.22 0-2.91-1.15-8.6-4.93-8.6-4.47 0-5.47 3.92-5.47 7.7zM315.44 196.45c3 1.76 3.47 8.31 3.47 11.43v1.19h-1.15a3.1 3.1 0 0 1-.91-.1c-.77-.21-.56 0-.69-.8-.36-2.14.27-9.13-3-9.13-2.86 0-2.85 6.18-2.85 8.07 0 1.22.07 2.44.07 3.66 0 2.39-.29 14.85 3.23 14.85 1 0 1.77-1.37 2-2.25s.06-1.8.27-2.68.23-.73 1.14-.81c.6 0 1.2-.14 1.8-.23-.19 2.53-.1 5.5-1.79 7.58a4.11 4.11 0 0 1-3.14 1.57 3.84 3.84 0 0 1-2.65-1.1c-3.83-3.71-3.63-11.43-3.63-16.42 0-2.65 0-5.3.24-7.94.28-3.39 1.27-7.48 5.52-7.48a4.16 4.16 0 0 1 2.15.58zM323.9 199.15c-.43-.06-1.79-.14-2-.43a1.84 1.84 0 0 1 0-.41c0-1.64-.06-2 1.72-2 1.06 0 2.11.17 3.16.17.79 0 1.57-.17 2.36-.17.57 0 1.46 0 1.46.75 0 .5.07 1 .07 1.49 0 1.08-2.79-.22-2.79 1.47 0 .4 0 .8.07 1.19.17 4.19.19 8.39.21 12.58 0 4.34 0 8.69.24 13v.82c0 .28 0 .75-.44.75a3.74 3.74 0 0 1-1.17-.34c-.8-.29-1-.12-1-1.19 0-.54.11-1.07.11-1.6 0-8.16-.53-16.32-.53-24.49 0-1.39 0-1.35-1.38-1.59zM340.07 215.32a7.48 7.48 0 0 1 3.1 5.61 4.47 4.47 0 0 1-.58 2.23c-1.66 2.9-5.18 2.67-8.07 2.85a37.49 37.49 0 0 1-.19-4c0-4.61.41-9.22.41-13.84 0-2.45-.13-4.89-.13-7.33 0-1.69 0-2.25 1.94-2.25 1.29 0 1.2.84 1.2 1.92 0 1.48-.28 2.93-.35 4.4s-.34 2.86-.34 4.3c0 1.08-.08 2.16-.08 3.24 0 2.71 1.54 1.73 3.09 2.83zm.13 4.57c0-1.27-1.41-3-2.72-3-.68 0-.78.71-.78 1.24 0 .9.22 1.78.22 2.68 0 .53-.23 2.07.57 2.07a2 2 0 0 0 .71-.18 3.19 3.19 0 0 0 2-2.81zM350.38 221.3a7.74 7.74 0 0 1 .22 2c0 .44 0 .85-.55.94a13.16 13.16 0 0 1-2.17.19.83.83 0 0 1-.89-.95 11.8 11.8 0 0 1 .25-2.61c.25-.38.79-.4 1.2-.4.7 0 1.72-.08 1.94.79zM374.75 215c-.09 3.5.5 7 .5 10.45 0 .86-1.27 1.42-2 1.42s-1-.65-1-1.38c0-.56.12-1.11.12-1.67q0-3-.15-5.91a3.87 3.87 0 0 1-3.06 1.93c-4.63 0-4.84-6.87-5.11-10.16-.12-1.45-.17-2.9-.17-4.35 0-2 .08-4 .08-6a4.84 4.84 0 0 1 0-.85c.14-.72.49-.67 1.09-.67 1.76 0 1.56.54 1.56 2.1 0 2.4-.14 4.8-.14 7.21 0 1.86.17 9.42 2.81 9.42 1.68 0 2.58-2.63 2.58-4 0-4.56-.76-9.09-.76-13.65 0-.61.12-1.14.85-1.14 1.26 0 2.38 0 2.38 1.53 0 .8-.15 1.59-.15 2.39v.41c.21 3.6.39 7.21.63 10.82v.62c0 .5 0 1-.06 1.5zM380.53 199.15c-.43-.06-1.79-.14-2-.43a1.84 1.84 0 0 1-.05-.41c0-1.64-.05-2 1.73-2 1 0 2.11.17 3.16.17.78 0 1.57-.17 2.36-.17.57 0 1.46 0 1.46.75 0 .5.07 1 .07 1.49 0 1.08-2.79-.22-2.79 1.47 0 .4.05.8.06 1.19.18 4.19.2 8.39.22 12.58 0 4.34 0 8.69.23 13v.82c0 .28 0 .75-.44.75a3.66 3.66 0 0 1-1.17-.34c-.8-.29-1-.12-1-1.19 0-.54.11-1.07.11-1.6 0-8.16-.53-16.32-.53-24.49 0-1.39 0-1.35-1.38-1.59zM389.09 212.19c0-5.26 2.08-11.06 8.24-11.06s7.63 7.42 7.63 12.32-2.16 10.79-8 10.79c-6.07 0-7.87-7.24-7.87-12.05zm2.7-.69c0 .76 0 1.51.1 2.27.25 2.52 1.88 7.85 5 7.85 4.11 0 5.33-6.05 5.33-9.22 0-2.91-1.15-8.6-4.93-8.6-4.5 0-5.5 3.92-5.5 7.7zM411.44 226.06c-3-.81-3.34-5.95-3.34-8.5 0-4.37 1.7-5.82 6-5.82a5.06 5.06 0 0 1 1.1.1c-1-2.62-7.82-2.38-7.82-8a4 4 0 0 1 1.29-2.67c2.14-2.24 6.61-2.71 9.58-2.71h.63a.8.8 0 0 1 .07.34 12.43 12.43 0 0 1-.47 3s-.07.24-.14.24c-.73 0-1.48-.17-2.23-.17-1.3 0-5.19.36-5.19 2.21 0 2.45 5.54 2.82 6.63 7.76a25.26 25.26 0 0 1 .49 5.28c0 3.93-.56 9.06-5.63 9.06a3.82 3.82 0 0 1-1-.11zm.24-10.89a23.36 23.36 0 0 0-.41 4.25c0 1.23-.18 4.27 1.46 4.46a3.13 3.13 0 0 0 1-.54c.8-1.3 1.23-4.89 1.23-6.45a15.62 15.62 0 0 0-.25-2.81 5.7 5.7 0 0 0-3 1.1zm1.22 10.12zM430.38 224.84c-1.66 2.87-5.24 2.64-8.1 2.78a34.22 34.22 0 0 1-.16-3.51c0-3.27.33-6.52.43-9.79.11-3.54.12-7.09.12-10.63 0-1.49-.08-3-.08-4.46 0-1.65.08-2.21 1.93-2.21 1.13 0 1.22.57 1.22 1.53 0 1.61-.29 3.19-.39 4.79-.23 3.61-.49 7.25-.49 10.86a2.17 2.17 0 0 0 .51 1.69c.51.47 1.83.62 2.55 1.1a7.53 7.53 0 0 1 3.05 5.59 4.56 4.56 0 0 1-.59 2.26zm-5.85-5c0 .85.2 1.68.2 2.53 0 .51-.28 2.19.55 2.19a3.19 3.19 0 0 0 2.73-3c0-1.26-1.39-3-2.71-3h-.2c-.52.16-.57.82-.57 1.26zm11.53 5.66a2.72 2.72 0 0 0 0 .9c-.22.42-1.78.49-2.24.49-.85 0-.74-.19-.82-.9a13.48 13.48 0 0 1-.12-1.55c0-1.25.14-2.5.14-3.76q0-11.13-.16-22.28c.43 0 2.38 0 2.58.31a1.63 1.63 0 0 1 .08.73c0 1.81-.1 3.62-.1 5.44 0 4.23.15 8.49.22 12.73 0 1.89 0 3.78.17 5.67a18.17 18.17 0 0 1 .25 2.2zM72.14 239.65c3 1.76 3.47 8.31 3.47 11.43v1.19h-1.16a3.47 3.47 0 0 1-.91-.09c-.77-.22-.55 0-.69-.81-.36-2.13.27-9.12-3-9.12-2.86 0-2.86 6.17-2.86 8.06 0 1.22.08 2.44.08 3.66 0 2.39-.3 14.85 3.22 14.85 1.06 0 1.77-1.37 2-2.25s.07-1.8.28-2.68.22-.73 1.13-.81c.6 0 1.21-.13 1.8-.23-.19 2.53-.09 5.5-1.78 7.58a4.12 4.12 0 0 1-3.21 1.57 3.81 3.81 0 0 1-2.65-1.1c-3.84-3.71-3.64-11.43-3.64-16.42 0-2.65 0-5.3.25-7.94.27-3.39 1.27-7.48 5.52-7.48a4.18 4.18 0 0 1 2.15.58zM88.92 242.79a13.79 13.79 0 0 1 .2 2.49c0 2.14-.32 4.27-.32 6.41 0 1.87.29 3.73.29 5.61s-.2 3.59-.2 5.39c0 1.34.13 2.68.13 4 0 .72.14 2-.89 2a3.26 3.26 0 0 1-.87-.16c-.64-.16-1 0-1-.93 0-.69.15-1.38.15-2.08 0-1.28-.11-2.56-.12-3.84 0-4.72-.19-9.44-.19-14.16v-2.54c0-.54-.06-.78-.65-.78-1.46 0-2.88.5-4.38.49v3.25c.12 4.14.13 8.29.2 12.43 0 1.88-.06 3.9.16 5.77a16.83 16.83 0 0 1 .26 2 2.76 2.76 0 0 0 0 .81c-.18.4-1.91.45-2.29.45-.83 0-.67-.18-.77-.82a9.47 9.47 0 0 1-.12-1.41c0-1.13.14-2.25.14-3.37 0-7-.14-13.92-.14-20.88a1.45 1.45 0 0 1 1.57-1.38c2.17 0 4.34.28 6.51.28 1 0 2-.43 2.26.92zM92.61 241.81c2.64.09 6.42-.2 8.12 2.28a3.52 3.52 0 0 1 .63 2 6.26 6.26 0 0 1-3 4.75c-.72.44-2 .55-2.54 1a1.65 1.65 0 0 0-.49 1.38c0 .67.14 1.34.14 2 0 2.89.26 5.8.5 8.68.1 1.31.44 2.59.44 3.93 0 1.1-.07 1.46-1.25 1.46-1.86 0-1.91-.46-1.91-2.16 0-4.65 0-9.29-.23-13.94-.14-2.93-.55-5.84-.55-8.77a23.92 23.92 0 0 1 .13-2.55zm5.63 6a2.12 2.12 0 0 0 .17-.83 2.94 2.94 0 0 0-2.76-2.56c-.52 0-.57.43-.57.85v1.38c0 .46-.16 1.16-.16 1.75s.13 1.12.78 1.12a3.71 3.71 0 0 0 2.51-1.71zM116.1 271.11a2.51 2.51 0 0 1-2 .61c-4.88 0-8.24-2.26-8.24-7.44 0-2.32 1.13-4.46 3.72-4.46 1.47 0 2.9 1.07 3.48 1.07a1.62 1.62 0 0 0 .19 0c0-3.35-.06-15-1.55-17.33a2.21 2.21 0 0 0-1.85-1.14c-1.72 0-2.77 1.83-2.77 3.38 0 1.37 0 1.66-1.41 1.66-.66 0-2.18.18-2.18-.79a8.31 8.31 0 0 1 1-3.13c1.12-2.11 3.57-4.18 6.07-4.18a3.75 3.75 0 0 1 1.68.37c2.93 1.4 3.37 7 3.67 9.88a90.3 90.3 0 0 1 .47 9.73c0 3.15-.11 6.29-.11 9.44a5 5 0 0 1-.2 2.37zm-7-6.13a3.73 3.73 0 0 0 3.76 3.87c.74 0 .82-.75.82-1.32 0-.91-.29-1.79-.29-2.7 0-1.76-.44-2.1-2.17-2.1a2.08 2.08 0 0 0-2.17 2.27zM120.62 251.08c0-1.78.07-3.57 0-5.35 0-.53-.06-1.47-.06-2 0-1 .34-1.07 1.39-1.07a8.35 8.35 0 0 1 3.7 1.18c2.75 1.71 3.7 5.48 3.71 8.53 0 3.64-2 5.11-3 6.48-.11.15 5.46 1 5.45 5.6s-7.69 3.95-10.39 3.95c-.69 0-.63-.49-.68-1.05a19.57 19.57 0 0 1-.09-2c0-4.69-.06-9.38-.07-14.08zm4.44-3.76c-.21-.28-1.9-2.16-1.9-.9 0 3.42.21 7.5.21 10.93a.41.41 0 0 0 .08.24 1.29 1.29 0 0 0 .19 0c3.38-1.15 3.17-8 1.42-10.31zm3.94 16.56c-.07-2.09-3.68-2.37-4.91-2.37-.54 0-.56.35-.56.8 0 .87-.08 1.74-.08 2.61 0 .54.16.87.75.87 2.82 0 4.8-.43 4.8-1.91zM144.3 250.06c-.45.29-2.49 5.18-3 6.1a46.43 46.43 0 0 0-3.32 7.11c-.16.5-.41 2-.82 2.25a6.9 6.9 0 0 1-1.91.24c-.87 0-.9-2.25-.9-2.84 0-1.71.23-3.41.23-5.11 0-2.41-.22-4.82-.22-7.23v-2.75c0-.92-.18-1.83-.18-2.75 0-.73 1.69-1.21 2.26-1.21s.48.62.48.94c0 4.18-.11 8.37-.11 12.56a9.87 9.87 0 0 0 .17 2.1 41.12 41.12 0 0 0 3.65-6.85c.62-1.62 1.52-3.1 2.15-4.7.3-.75.74-3 1.26-3.43a2.29 2.29 0 0 1 1.52-.51c.73 0 1 .49 1 1.16 0 .85-.25 1.67-.25 2.52 0 5 .22 10 .22 15a28.21 28.21 0 0 1-.18 3.44c-.14 1.18-.15 1-1.23 1-.27 0-.53.07-.79.07-.66 0-.65-1.42-.65-1.85 0-4.92.66-9.81.66-14.73a1.23 1.23 0 0 0-.08-.54zM151.86 242.35c-.43-.06-1.79-.14-2.05-.43a1.84 1.84 0 0 1-.05-.41c0-1.64 0-2 1.73-2 1.06 0 2.11.17 3.16.17.78 0 1.57-.17 2.36-.17.57 0 1.46 0 1.46.75 0 .5.07 1 .07 1.49 0 1.08-2.79-.22-2.79 1.47 0 .4.05.8.06 1.19.18 4.19.2 8.39.22 12.58 0 4.34 0 8.69.23 13v.82c0 .27 0 .75-.44.75a3.44 3.44 0 0 1-1.17-.35c-.8-.28-1-.11-1-1.18 0-.54.11-1.07.11-1.6 0-8.16-.53-16.32-.53-24.48 0-1.4 0-1.36-1.38-1.6zM168 258.52a7.48 7.48 0 0 1 3.1 5.61 4.47 4.47 0 0 1-.58 2.23c-1.66 2.9-5.18 2.68-8.07 2.85a35 35 0 0 1-.2-4c0-4.61.42-9.22.42-13.84 0-2.45-.13-4.89-.13-7.33 0-1.69 0-2.25 1.94-2.25 1.29 0 1.2.84 1.2 1.92 0 1.48-.28 2.93-.35 4.4s-.34 2.86-.34 4.3c0 1.09-.08 2.16-.08 3.24 0 2.71 1.54 1.73 3.09 2.83zm-1.88 7.4a3.18 3.18 0 0 0 2-2.83c0-1.27-1.41-3-2.73-3-.67 0-.77.71-.77 1.24 0 .9.22 1.78.22 2.68 0 .53-.23 2.07.57 2.07a1.91 1.91 0 0 0 .7-.18zM182.78 239.65c3 1.76 3.47 8.31 3.47 11.43v1.19h-1.15a3.47 3.47 0 0 1-.91-.09c-.77-.22-.56 0-.69-.81-.36-2.13.27-9.12-3-9.12-2.86 0-2.85 6.17-2.85 8.06 0 1.22.07 2.44.07 3.66 0 2.39-.29 14.85 3.23 14.85 1.05 0 1.77-1.37 2-2.25s.06-1.8.27-2.68.23-.73 1.13-.81c.61 0 1.21-.13 1.81-.23-.19 2.53-.1 5.5-1.79 7.58a4.11 4.11 0 0 1-3.14 1.57 3.84 3.84 0 0 1-2.65-1.1c-3.83-3.71-3.63-11.43-3.63-16.42 0-2.65 0-5.3.24-7.94.28-3.39 1.27-7.48 5.52-7.48a4.16 4.16 0 0 1 2.15.58zM200 240.64a1.09 1.09 0 0 1 .13.59c0 .58-.18 1.15-.18 1.72 0 7.81-.41 15.63-.41 23.44 0 .63.12 1.26.12 1.9 0 1.07-.27 1-1.1 1.18a4.26 4.26 0 0 1-1.06.22c-.55 0-.57-.47-.57-.9 0-.92.08-1.85.08-2.78 0-1.27-.08-2.54-.08-3.81 0-2 .1-4 .14-6.05-1.2 3.22-2.41 6.45-3.6 9.68-.56 1.53-1.07 3.11-1.69 4.62a1 1 0 0 1-.95.67c-.4 0-1.71-.7-1.71-1.12 0 0 2.65-6.87 2.93-7.69 1.15-3.3 2.36-6.58 3.55-9.86-2.92-.53-4.44-3.8-4.44-6.51 0-3.1 1.75-6 5.13-6 .55 0 1.09.11 1.64.11s1.65-.07 2.07.61zm-2.63 7.36c0-1-.06-1.92 0-2.88 0-.49.17-1 .17-1.48 0-.31-.16-1.43-.51-1.43-2.08 0-3.18 1.53-3.18 3.5 0 1.63.81 4.51 2.88 4.51.78 0 .65-1.26.66-1.77zM221.52 239.65c2.95 1.76 3.47 8.31 3.47 11.43v1.19h-1.16a3.47 3.47 0 0 1-.91-.09c-.77-.22-.56 0-.69-.81-.36-2.13.27-9.12-3-9.12-2.85 0-2.85 6.17-2.85 8.06 0 1.22.07 2.44.07 3.66 0 2.39-.29 14.85 3.23 14.85 1.06 0 1.77-1.37 2-2.25s.07-1.8.28-2.68.22-.73 1.13-.81c.6 0 1.2-.13 1.8-.23-.19 2.53-.09 5.5-1.79 7.58a4.09 4.09 0 0 1-3.13 1.57 3.81 3.81 0 0 1-2.65-1.1c-3.84-3.71-3.64-11.43-3.64-16.42 0-2.65 0-5.3.25-7.94.27-3.39 1.27-7.48 5.52-7.48a4.18 4.18 0 0 1 2.15.58zM242.46 269.26c-3-.81-3.34-5.95-3.34-8.5 0-4.37 1.7-5.82 6-5.82a5.06 5.06 0 0 1 1.1.1c-1-2.62-7.82-2.38-7.82-8a4 4 0 0 1 1.29-2.67c2.14-2.25 6.61-2.71 9.58-2.71h.63a.67.67 0 0 1 .07.34 12.43 12.43 0 0 1-.47 3s-.07.24-.14.24c-.73 0-1.48-.17-2.23-.17-1.3 0-5.18.36-5.18 2.21 0 2.45 5.54 2.82 6.62 7.76a24.6 24.6 0 0 1 .49 5.28c0 3.93-.55 9.06-5.63 9.06a3.88 3.88 0 0 1-1-.11zm-.17-6.64c0 1.23-.18 4.27 1.47 4.46a3.19 3.19 0 0 0 1-.54c.8-1.3 1.23-4.89 1.23-6.44a15.65 15.65 0 0 0-.25-2.82 5.73 5.73 0 0 0-3 1.1 23.16 23.16 0 0 0-.45 4.24zm1.63 5.88zM263.22 244.29c.19 3.12.64 6.23.64 9.36 0 2.08-.12 4.15-.27 6.22-.22 3.23-.53 10.77-5.1 10.77-3.06 0-4.71-2.13-4.71-5.08 0-1.64.05-3.54 2.2-3.54a.35.35 0 0 1 .37.31c0 .34-.26.6-.26.95 0 1.11.35 5 1.89 5a1.61 1.61 0 0 0 1.08-.54c1.11-1.06 1.14-3.18 1.28-4.61.18-1.92.28-3.86.33-5.8.07-2.5.26-5 .26-7.51a2.91 2.91 0 0 0-.21-1.38c-.49 1.24-1.42 2.58-2.9 2.58-4.09 0-4.82-5.92-4.82-9 0-1.14.78-1.65 1.85-1.65s1.15 1.18 1.15 2a21.88 21.88 0 0 0 0 3.62c.16.93.87 2.7 2 2.7 1.69 0 2.05-2.89 2.05-4.14 0-.94-.3-1.86-.3-2.81s.89-.87 1.5-.87c1.41 0 1.94-.09 1.94 1.51 0 .63-.07 1.27 0 1.9zM277.37 261.14c.22.9 1.45 5.05 1.45 5.52s-.42.42-.73.42h-.49c-1.87-.15-1.59-.93-2-2.46-.4-1.71-.95-3.39-1.37-5.09s-.8-3.57-1.24-5.35c-.18-.7-.61-4.24-1-4.49-.55 3.46-1.07 6.9-1.41 10.38-.19 1.91-.67 3.78-.79 5.69-.07 1.07.16 1-.91 1.33a2.42 2.42 0 0 1-.54.07 4.17 4.17 0 0 1-1.66-.4c.09-2.78 1.06-5.51 1.44-8.26.47-3.43 1-6.84 1.55-10.26.12-.81.07-3.58.65-4a3.32 3.32 0 0 1 1.54-.26 2.7 2.7 0 0 1 1 .12c.7.34.83 2 1 2.7 1 4.82 2.34 9.6 3.51 14.39zM291.92 261.14c.21.9 1.45 5.05 1.45 5.52s-.42.42-.73.42h-.49c-1.87-.15-1.59-.93-1.95-2.46-.4-1.71-.95-3.39-1.37-5.09s-.8-3.57-1.25-5.35c-.17-.7-.61-4.24-1-4.49-.55 3.46-1.08 6.9-1.42 10.38-.18 1.91-.67 3.78-.78 5.69-.07 1.07.15 1-.91 1.33a2.5 2.5 0 0 1-.54.07 4.17 4.17 0 0 1-1.66-.4c.09-2.78 1.06-5.51 1.43-8.26.47-3.43 1.05-6.84 1.56-10.26.12-.81.07-3.58.65-4a3.32 3.32 0 0 1 1.54-.26 2.7 2.7 0 0 1 1 .12c.7.34.83 2 1 2.7 1 4.82 2.35 9.6 3.52 14.39zM306.23 250.06c-.45.29-2.49 5.18-3 6.1a46.43 46.43 0 0 0-3.32 7.11c-.16.5-.41 2-.82 2.25a6.9 6.9 0 0 1-1.91.24c-.87 0-.9-2.25-.9-2.84 0-1.71.23-3.41.23-5.11 0-2.41-.22-4.82-.22-7.23v-2.75c0-.92-.18-1.83-.18-2.75 0-.73 1.69-1.21 2.27-1.21s.47.62.47.94c0 4.18-.11 8.37-.11 12.56a9.87 9.87 0 0 0 .17 2.1 41.12 41.12 0 0 0 3.65-6.85c.62-1.62 1.52-3.1 2.15-4.7.3-.75.74-3 1.26-3.43a2.29 2.29 0 0 1 1.52-.51c.73 0 1 .49 1 1.16 0 .85-.25 1.67-.25 2.52 0 5 .22 10 .22 15a28.21 28.21 0 0 1-.18 3.44c-.14 1.18-.15 1-1.23 1-.27 0-.53.07-.79.07-.66 0-.65-1.42-.65-1.85 0-4.92.66-9.81.66-14.73a1.1 1.1 0 0 0-.08-.54zM322.2 250.31c.09 4.43.05 8.86.1 13.29 0 .83.19 1.66.19 2.5 0 .27-.05.86-.43.86a4.62 4.62 0 0 1-.74-.15c-1.23-.24-1.54-.93-1.54-2.11 0-1 .21-4.65-.25-5.37a1.27 1.27 0 0 0-1.28-.57c-1 0-1.87-.4-2.78-.4-.74 0-.72.89-.72 1.42 0 .82.09 1.64.12 2.46s.28 1.48.28 2.24-1.26 1-1.93 1-1.42-.07-1.42-.91.26-1.36.26-2c0-1.42-.18-2.84-.18-4.27 0-3.54.25-7.08.25-10.62 0-1-.09-2-.09-3 0-.42.06-.58.5-.58.71 0 2.62-.22 2.62.78 0 .64-.25 1.25-.28 1.87v1.29c0 1.58.09 3.16.05 4.74 0 .7-.24 1.37-.24 2.05s.5 1 1.19 1.08a22.34 22.34 0 0 0 2.71.23 1.48 1.48 0 0 0 .63-.08c.49-.3.5-2 .5-2.46 0-1.07-.12-2.13-.12-3.19s.09-2.09.09-3.13c0-.64-.11-1.28-.11-1.92s.3-1.23 1.15-1.23c1.07 0 1.48.6 1.48 1.59v4.61zM333.37 254c-1.06 2.56-4.54 6.09-4.54 8.74 0 .57.19 2.05 1 2.05 1.37 0 .68-1.66 1.21-2.13.33-.3 1.41-.28 1.86-.28h.91v.31c0 2.17-1.47 4.88-3.9 4.88s-3.91-2.18-3.91-4.47c0-5 5.39-7.81 5.39-13.51 0-1.18-.49-3.29-2-3.29-.93 0-1.44 1.13-1.44 1.93 0 .51.19 1 .19 1.52a1.61 1.61 0 0 1-1.71 1.42c-1.19 0-1.47-1.17-1.47-2.14 0-2.52 1.52-5.6 4.38-5.6 3.33 0 4.89 3.42 4.89 6.32a11.27 11.27 0 0 1-.85 4.28zM338 255.39c0-5.26 2.09-11 8.24-11 6.3 0 7.64 7.41 7.64 12.31s-2.16 10.79-8 10.79c-6.11-.05-7.88-7.28-7.88-12.1zm2.7-.69a21.56 21.56 0 0 0 .11 2.27c.25 2.52 1.87 7.85 5 7.85 4.1 0 5.33-6.05 5.33-9.22 0-2.91-1.16-8.6-4.94-8.6-4.52 0-5.53 3.92-5.53 7.7zM372.89 259.08c-.83 1.58-1.68 3.14-2.42 4.76-.41.92-.65 2.05-1.86 2.05h-.45c-1.43-.21-1.51-1.27-2.08-2.39-.85-1.63-1.76-3.24-2.56-4.9-.71-1.47-1.38-3-2.15-4.41-.52-1-1.07-2-1.54-3a7.84 7.84 0 0 0-.78-1.78c0 2.9.18 5.8.23 8.7 0 2.61.41 5.35.41 7.9 0 .77-.12.92-.95.92a17.46 17.46 0 0 1-2-.42h-.12c-.19-.06-.29-.64-.29-.83 0-1.23.17-2.47.17-3.71 0-4-.06-8.07 0-12.11 0-1.14-.13-2.28-.13-3.43 0-.47 0-2.33.62-2.33 1.82 0 2.17.09 3 1.66 1.5 2.76 3.09 5.47 4.6 8.23.54 1 3.27 7.11 4 7.11.06 0 .25-.36.28-.41.69-1.2 1.19-2.5 1.82-3.72 1.51-2.88 3.12-5.71 4.62-8.59.46-.89 1.34-3.27 2.17-3.71a6.12 6.12 0 0 1 1.67-.2c1.24 0 1.06 1 1.06 2 0 4.05.05 8.08.14 12.12 0 1.64.11 3.28.17 4.92 0 .8.21 1.59.21 2.39 0 .46-.11 1-.7 1a2.31 2.31 0 0 1-.88-.27c-.83-.33-.51.13-.77-.87a7.39 7.39 0 0 1-.17-1.82c0-2.41-.1-4.81-.19-7.22-.06-1.75 0-3.49-.13-5.24a10.38 10.38 0 0 0-.11-1.24s-.05-.3-.1-.3-.52.65-.59.77c-1.59 2.68-2.81 5.58-4.24 8.35zM394.59 241.81c2.64.09 6.42-.2 8.12 2.28a3.52 3.52 0 0 1 .63 2 6.26 6.26 0 0 1-3 4.75c-.72.44-2 .55-2.54 1a1.65 1.65 0 0 0-.49 1.38c0 .67.14 1.34.14 2 0 2.89.26 5.8.5 8.68.1 1.31.44 2.59.44 3.93 0 1.1-.07 1.46-1.25 1.46-1.86 0-1.91-.46-1.91-2.16 0-4.65 0-9.29-.23-13.94-.14-2.93-.55-5.84-.55-8.77a23.92 23.92 0 0 1 .13-2.55zm5.63 6a2.12 2.12 0 0 0 .17-.83 2.94 2.94 0 0 0-2.76-2.56c-.52 0-.57.43-.57.85s.05.92 0 1.38-.16 1.16-.16 1.75.13 1.12.78 1.12a3.71 3.71 0 0 0 2.51-1.71zM418.08 271.11a2.51 2.51 0 0 1-2 .61c-4.88 0-8.25-2.26-8.25-7.44 0-2.32 1.14-4.46 3.72-4.46 1.47 0 2.91 1.07 3.49 1.07a1.16 1.16 0 0 0 .18 0c0-3.35 0-15-1.54-17.33a2.21 2.21 0 0 0-1.85-1.14c-1.73 0-2.77 1.83-2.77 3.38 0 1.37 0 1.66-1.41 1.66-.66 0-2.18.18-2.18-.79a8.31 8.31 0 0 1 1-3.13c1.12-2.11 3.57-4.18 6.07-4.18a3.75 3.75 0 0 1 1.68.37c2.93 1.4 3.37 7 3.67 9.88a90.3 90.3 0 0 1 .47 9.73c0 3.15-.11 6.29-.11 9.44a5 5 0 0 1-.2 2.37zM411 265a3.73 3.73 0 0 0 3.76 3.87c.74 0 .81-.75.81-1.32 0-.91-.28-1.79-.28-2.7 0-1.76-.44-2.1-2.17-2.1A2.08 2.08 0 0 0 411 265zM430.9 268.89a4.5 4.5 0 0 1-3.88 2.67c-3.08 0-5.19-3.71-5.19-6.5 0-.35 2.26-.6 2.62-.68.22 1.52.44 4.4 2.45 4.4s2.5-3.89 2.5-5.32c0-3.69-.35-6.81-4.79-6.81h-.64c-.92-.1-1-2.13-.52-3.08 1.36.07 3.74.36 4.13-1.34a24.57 24.57 0 0 0 .69-5.39c0-1.37-.07-4.32-1.91-4.32-2 0-2.23 2.77-2.45 4.28-.36-.07-2.62-.49-2.62-.84 0-2.37 1.51-6.5 5.18-6.5 4.11 0 4.75 4.8 4.75 7.91 0 2.76-.15 6.26-3 7.66 2.49.59 3.17 2.58 3.49 5.66a28.06 28.06 0 0 1 .18 2.91 12.53 12.53 0 0 1-1 5.27zM455.71 250.06c-.45.29-2.49 5.18-3 6.1a45.46 45.46 0 0 0-3.31 7.11c-.17.5-.42 2-.83 2.25a6.9 6.9 0 0 1-1.91.24c-.87 0-.9-2.25-.9-2.84 0-1.71.23-3.41.23-5.11 0-2.41-.22-4.82-.22-7.23v-2.75c0-.92-.18-1.83-.18-2.75 0-.73 1.69-1.21 2.27-1.21s.47.62.47.94c0 4.18-.11 8.37-.11 12.56a9.87 9.87 0 0 0 .17 2.1 41.12 41.12 0 0 0 3.65-6.85c.62-1.62 1.52-3.1 2.15-4.7.3-.75.74-3 1.26-3.43A2.29 2.29 0 0 1 457 244c.73 0 1 .49 1 1.16 0 .85-.25 1.67-.25 2.52 0 5 .22 10 .22 15a30.36 30.36 0 0 1-.17 3.44c-.15 1.18-.16 1-1.24 1-.27 0-.53.07-.79.07-.65 0-.65-1.42-.65-1.85 0-4.92.66-9.81.66-14.73a1.1 1.1 0 0 0-.08-.54zM121.6 293.51c.09 4.43.05 8.86.1 13.29 0 .83.19 1.66.19 2.5 0 .27 0 .87-.44.87a4.77 4.77 0 0 1-.73-.16c-1.24-.24-1.54-.94-1.54-2.11 0-1 .2-4.65-.25-5.37a1.27 1.27 0 0 0-1.29-.57c-1 0-1.86-.4-2.77-.4-.74 0-.72.89-.72 1.42 0 .82.09 1.64.12 2.46s.27 1.48.27 2.24-1.26 1-1.92 1-1.42-.07-1.42-.91.26-1.36.26-2c0-1.42-.18-2.84-.18-4.27 0-3.54.25-7.08.25-10.62 0-1-.09-2-.09-3 0-.42.06-.58.5-.58.71 0 2.61-.22 2.61.78 0 .64-.24 1.24-.27 1.87v1.29c0 1.58.1 3.16.06 4.74 0 .69-.24 1.37-.24 2.05s.5 1 1.19 1.08a22.34 22.34 0 0 0 2.71.23 1.48 1.48 0 0 0 .63-.08c.49-.3.49-2 .49-2.46 0-1.07-.11-2.13-.11-3.19s.09-2.09.09-3.13c0-.64-.11-1.28-.11-1.92s.3-1.23 1.15-1.23c1.07 0 1.48.6 1.48 1.59v4.61zM137 314.31a2.49 2.49 0 0 1-2 .61c-4.87 0-8.24-2.26-8.24-7.44 0-2.33 1.14-4.46 3.72-4.46 1.47 0 2.91 1.07 3.48 1.07a.59.59 0 0 0 .19 0c0-3.34 0-15-1.55-17.32a2.18 2.18 0 0 0-1.84-1.14c-1.73 0-2.77 1.83-2.77 3.38 0 1.37 0 1.66-1.41 1.66-.66 0-2.18.18-2.18-.79a8.48 8.48 0 0 1 1-3.13c1.13-2.11 3.58-4.18 6.08-4.18a3.91 3.91 0 0 1 1.68.36c2.93 1.41 3.36 7 3.67 9.89a90.3 90.3 0 0 1 .47 9.73c0 3.15-.11 6.29-.11 9.44a5 5 0 0 1-.2 2.37zm-7-6.13a3.73 3.73 0 0 0 3.77 3.87c.74 0 .81-.75.81-1.32 0-.91-.28-1.79-.28-2.7 0-1.76-.44-2.1-2.17-2.1a2.09 2.09 0 0 0-2.13 2.25zM141.55 294.28c0-1.78.07-3.57 0-5.35 0-.54-.07-1.47-.07-2 0-1 .35-1.07 1.39-1.07a8.31 8.31 0 0 1 3.7 1.18c2.76 1.71 3.7 5.48 3.72 8.53 0 3.64-2 5.11-3 6.48-.1.15 5.47 1 5.45 5.6s-7.68 3.95-10.38 3.95c-.69 0-.63-.49-.69-1a19.57 19.57 0 0 1-.08-2c0-4.69-.06-9.38-.07-14.08zm4.44-3.76c-.22-.28-1.91-2.16-1.91-.9 0 3.42.22 7.5.22 10.93a.43.43 0 0 0 .08.24h.18c3.38-1.14 3.18-8 1.43-10.3zm3.92 16.56c-.07-2.09-3.68-2.37-4.91-2.37-.53 0-.56.35-.56.8 0 .87-.08 1.74-.08 2.61 0 .54.17.87.75.87 2.83 0 4.8-.43 4.8-1.91zM162.74 282.85c3 1.76 3.47 8.31 3.47 11.43v1.19h-1.15a3.21 3.21 0 0 1-.92-.1c-.77-.21-.55 0-.69-.8-.35-2.13.28-9.12-3-9.12-2.86 0-2.85 6.17-2.85 8.06 0 1.22.07 2.44.07 3.66 0 2.39-.29 14.85 3.23 14.85 1 0 1.77-1.37 2-2.25s.06-1.8.27-2.68.23-.73 1.13-.81c.61-.05 1.21-.14 1.81-.23-.19 2.53-.1 5.5-1.79 7.58a4.12 4.12 0 0 1-3.14 1.57 3.84 3.84 0 0 1-2.65-1.1c-3.83-3.71-3.63-11.43-3.63-16.42 0-2.65 0-5.3.24-7.94.28-3.39 1.27-7.48 5.52-7.48a4.16 4.16 0 0 1 2.15.58zM176.47 310.53a4.89 4.89 0 0 1-1.37.21c-4.74 0-5.92-8.32-5.92-11.84s.35-12.2 5.52-12.2c4 0 5.77 5.85 5.77 9.09 0 1.59-.87 1.8-2.24 1.8s-2.45-.09-3.68-.09c-1 0-2.16.21-2.16 1.49 0 .66.14 1.31.19 2 .14 1.6.23 6.86 2.56 6.86s1.64-4.55 2.22-4.9a1.69 1.69 0 0 1 .91-.18c.63 0 1.26.11 1.89.11s.52.28.52.69c0 2.65-1.47 6.19-4.21 7zm-3.76-15.83c0 .34.74.4 1 .4a14 14 0 0 0 2.57-.39c.65-.11 1.09 0 1.09-.84 0-1.39-1.24-4.36-2.89-4.36s-1.66 2.38-1.66 3.53v.9c0 .3-.11.5-.11.76zM187.5 306c0 .57.19 2 1 2 1.37 0 .69-1.66 1.21-2.13a3.82 3.82 0 0 1 1.86-.28h.91v.31c0 2.17-1.47 4.88-3.9 4.88s-3.9-2.23-3.9-4.52c0-5 5.38-7.81 5.38-13.51 0-1.18-.48-3.29-2-3.29-.93 0-1.45 1.13-1.45 1.93 0 .51.19 1 .19 1.52a1.61 1.61 0 0 1-1.71 1.42c-1.19 0-1.47-1.17-1.47-2.14 0-2.52 1.52-5.6 4.39-5.6 3.32 0 4.89 3.42 4.89 6.32a11.28 11.28 0 0 1-.86 4.28c-1.04 2.6-4.54 6.13-4.54 8.81zM196.5 284c0-.87 1.73-.72 2.3-.72 6.41 0 7.71 4.93 7.71 10.26 0 3.31-.07 6.58-.29 9.9-.1 1.44-.22 2.87-.22 4.35 0 3-1.47 6.34-4.89 6.34a5.18 5.18 0 0 1-2.92-.94c-1.65-1.15-1.58-7.34-1.58-9.32s-.07-4.11.1-6.12c.36-3 1.48-4.86 4.75-4.86a5.35 5.35 0 0 1 1.87.61c.08 0 .22 0 .26-.11v-1.11c0-3.89-1.44-6.19-5.69-6.19-1.26 0-1.11-.87-1.43-1.88.07-.06.03-.13.03-.21zm6.95 11.48a2.48 2.48 0 0 0-1.16-.22c-2.12 0-2.59 1.37-2.73 3.24-.07 1.37-.07 2.78-.07 4.14 0 2 .14 4 .14 5.94 0 1.3.08 3 1.88 3a2.15 2.15 0 0 0 .93-.22c.58-.72.76-2.66.79-3.6.14-4.06.18-8.17.22-12.27zM221.38 314.31a2.51 2.51 0 0 1-2 .61c-4.88 0-8.25-2.26-8.25-7.44 0-2.33 1.14-4.46 3.72-4.46 1.47 0 2.91 1.07 3.48 1.07a.59.59 0 0 0 .19 0c0-3.34 0-15-1.54-17.32a2.21 2.21 0 0 0-1.85-1.14c-1.73 0-2.77 1.83-2.77 3.38 0 1.37 0 1.66-1.41 1.66-.66 0-2.18.18-2.18-.79a8.31 8.31 0 0 1 1-3.13c1.12-2.11 3.57-4.18 6.07-4.18a3.88 3.88 0 0 1 1.68.36c2.93 1.41 3.37 7 3.67 9.89a90.3 90.3 0 0 1 .47 9.73c0 3.15-.11 6.29-.11 9.44a5 5 0 0 1-.2 2.37zm-7-6.13a3.73 3.73 0 0 0 3.76 3.87c.74 0 .81-.75.81-1.32 0-.91-.28-1.79-.28-2.7 0-1.76-.44-2.1-2.17-2.1a2.08 2.08 0 0 0-2.17 2.25zM246.56 286a13.79 13.79 0 0 1 .2 2.49c0 2.14-.32 4.27-.32 6.41 0 1.87.29 3.73.29 5.61s-.2 3.59-.2 5.38c0 1.35.13 2.69.13 4 0 .72.14 2-.89 2a3.69 3.69 0 0 1-.87-.15c-.64-.17-1 0-1-.94 0-.69.15-1.38.15-2.08 0-1.29-.11-2.56-.12-3.84 0-4.72-.19-9.44-.19-14.16v-2.54c0-.54-.06-.78-.65-.78-1.46 0-2.88.5-4.38.49v3.25c.12 4.14.13 8.29.2 12.43 0 1.88-.06 3.9.16 5.77a16.83 16.83 0 0 1 .26 2 2.76 2.76 0 0 0 0 .81c-.18.4-1.91.45-2.29.45-.83 0-.67-.19-.77-.82a9.47 9.47 0 0 1-.12-1.41c0-1.13.14-2.25.14-3.38 0-7-.14-13.91-.14-20.87a1.44 1.44 0 0 1 1.57-1.38c2.16 0 4.34.28 6.51.28 1 0 2-.43 2.25.92zM250.43 298.59c0-5.26 2.09-11 8.24-11s7.63 7.41 7.63 12.31-2.16 10.79-8 10.79c-6.07-.05-7.87-7.28-7.87-12.1zm2.7-.69a21.56 21.56 0 0 0 .11 2.27c.25 2.52 1.87 7.85 5 7.85 4.1 0 5.32-6 5.32-9.22 0-2.91-1.15-8.6-4.93-8.6-4.49 0-5.5 3.92-5.5 7.7zM279.26 293.51c.09 4.43.05 8.86.1 13.29 0 .83.19 1.66.19 2.5 0 .27-.06.87-.44.87a4.52 4.52 0 0 1-.73-.16c-1.24-.24-1.54-.94-1.54-2.11 0-1 .2-4.65-.25-5.37a1.28 1.28 0 0 0-1.29-.57c-1 0-1.86-.4-2.77-.4-.74 0-.73.89-.73 1.42 0 .82.1 1.64.13 2.46s.27 1.48.27 2.24-1.26 1-1.92 1-1.42-.07-1.42-.91.25-1.36.25-2c0-1.42-.17-2.84-.17-4.27 0-3.54.25-7.08.25-10.62 0-1-.1-2-.1-3 0-.42.06-.58.51-.58.71 0 2.61-.22 2.61.78 0 .64-.24 1.24-.28 1.87v1.29c0 1.58.1 3.16.06 4.74 0 .69-.25 1.37-.25 2.05s.5 1 1.2 1.08a22.34 22.34 0 0 0 2.71.23 1.5 1.5 0 0 0 .63-.08c.49-.3.49-2 .49-2.46 0-1.07-.11-2.13-.11-3.19s.08-2.09.08-3.13c0-.64-.11-1.28-.11-1.92s.31-1.23 1.15-1.23c1.08 0 1.49.6 1.49 1.59v4.61zM294.68 314.31a2.5 2.5 0 0 1-2 .61c-4.87 0-8.24-2.26-8.24-7.44 0-2.33 1.14-4.46 3.72-4.46 1.47 0 2.9 1.07 3.48 1.07a.67.67 0 0 0 .19 0c0-3.34-.05-15-1.55-17.32a2.2 2.2 0 0 0-1.85-1.14c-1.72 0-2.76 1.83-2.76 3.38 0 1.37 0 1.66-1.42 1.66-.65 0-2.18.18-2.18-.79a8.49 8.49 0 0 1 1-3.13c1.12-2.11 3.58-4.18 6.07-4.18a3.88 3.88 0 0 1 1.68.36c2.94 1.41 3.37 7 3.68 9.89a92.94 92.94 0 0 1 .47 9.73c0 3.15-.12 6.29-.12 9.44a5.1 5.1 0 0 1-.19 2.37zm-7.05-6.13a3.73 3.73 0 0 0 3.76 3.87c.74 0 .82-.75.82-1.32 0-.91-.29-1.79-.29-2.7 0-1.76-.43-2.1-2.16-2.1a2.09 2.09 0 0 0-2.13 2.25zM299.26 284c0-.87 1.72-.72 2.3-.72 6.41 0 7.7 4.93 7.7 10.26 0 3.31-.06 6.58-.28 9.9-.1 1.44-.22 2.87-.22 4.35 0 3-1.48 6.34-4.9 6.34a5.17 5.17 0 0 1-2.91-.94c-1.66-1.15-1.59-7.34-1.59-9.32s-.07-4.11.11-6.12c.36-3 1.47-4.86 4.75-4.86a5.35 5.35 0 0 1 1.87.61c.07 0 .22 0 .25-.11v-1.11c0-3.89-1.44-6.19-5.69-6.19-1.26 0-1.11-.87-1.44-1.88.08-.06.05-.13.05-.21zm6.94 11.48a2.42 2.42 0 0 0-1.15-.22c-2.12 0-2.59 1.37-2.73 3.24-.07 1.37-.07 2.78-.07 4.14 0 2 .14 4 .14 5.94 0 1.3.07 3 1.87 3a2.16 2.16 0 0 0 .94-.22c.58-.72.76-2.66.79-3.6.14-4.06.18-8.17.21-12.27zM312.38 298.59c0-5.26 2.09-11 8.25-11s7.63 7.41 7.63 12.31-2.16 10.79-8 10.79c-6.08-.05-7.88-7.28-7.88-12.1zm2.7-.69c0 .76 0 1.51.11 2.27.25 2.52 1.87 7.85 5 7.85 4.1 0 5.33-6 5.33-9.22 0-2.91-1.15-8.6-4.93-8.6-4.5 0-5.51 3.92-5.51 7.7zM334.73 312.46c-3-.81-3.34-5.95-3.34-8.5 0-4.37 1.7-5.82 6-5.82a5 5 0 0 1 1.09.1c-1-2.62-7.82-2.38-7.82-8a4 4 0 0 1 1.3-2.67c2.13-2.25 6.61-2.71 9.58-2.71h.63a.8.8 0 0 1 .07.34 13 13 0 0 1-.47 3s-.08.24-.14.24c-.73 0-1.49-.17-2.23-.17-1.31 0-5.19.36-5.19 2.21 0 2.45 5.54 2.82 6.63 7.76a25.25 25.25 0 0 1 .48 5.28c0 3.93-.55 9.06-5.63 9.06a3.88 3.88 0 0 1-1-.11zm.25-10.89a23.36 23.36 0 0 0-.41 4.25c0 1.23-.18 4.27 1.46 4.47a3.49 3.49 0 0 0 1-.55c.79-1.3 1.23-4.89 1.23-6.45a14.77 14.77 0 0 0-.26-2.81 5.7 5.7 0 0 0-3 1.1zm1.22 10.13zM355.55 293.26c-.45.29-2.49 5.18-3 6.1a46.43 46.43 0 0 0-3.32 7.11c-.16.5-.41 2-.82 2.25a6.9 6.9 0 0 1-1.91.24c-.87 0-.9-2.25-.9-2.84 0-1.71.23-3.41.23-5.11 0-2.41-.22-4.82-.22-7.23v-2.75c0-.92-.18-1.83-.18-2.75 0-.73 1.69-1.22 2.26-1.22s.48.63.48.95c0 4.18-.11 8.37-.11 12.56a9.87 9.87 0 0 0 .17 2.1 40.83 40.83 0 0 0 3.65-6.86c.62-1.61 1.52-3.09 2.15-4.69.3-.75.74-3 1.26-3.43a2.29 2.29 0 0 1 1.52-.51c.73 0 1 .49 1 1.16 0 .85-.25 1.67-.25 2.52 0 5 .22 10 .22 15a28.21 28.21 0 0 1-.18 3.44c-.14 1.18-.15.95-1.23 1-.27 0-.53.07-.79.07-.66 0-.65-1.42-.65-1.85 0-4.92.66-9.81.66-14.73a1.23 1.23 0 0 0-.08-.54zM363.11 285.55c-.43-.06-1.79-.14-2.05-.43a1.84 1.84 0 0 1-.05-.41c0-1.64-.05-2 1.73-2 1.06 0 2.11.17 3.16.17.78 0 1.57-.17 2.36-.17.57 0 1.46 0 1.46.75 0 .5.07 1 .07 1.49 0 1.08-2.79-.22-2.79 1.47 0 .4.05.8.06 1.19.18 4.19.2 8.39.22 12.58s0 8.69.23 13v.82c0 .28 0 .75-.44.75a3.66 3.66 0 0 1-1.17-.34c-.8-.29-1-.12-1-1.19 0-.54.11-1.07.11-1.6 0-8.16-.53-16.32-.53-24.49 0-1.39 0-1.35-1.38-1.59zM382 282.85c3 1.76 3.47 8.31 3.47 11.43v1.19h-1.15a3.1 3.1 0 0 1-.91-.1c-.77-.21-.56 0-.69-.8-.36-2.13.27-9.12-3-9.12-2.86 0-2.85 6.17-2.85 8.06 0 1.22.07 2.44.07 3.66 0 2.39-.29 14.85 3.23 14.85 1.05 0 1.77-1.37 2-2.25s.06-1.8.27-2.68.23-.73 1.14-.81c.6-.05 1.2-.14 1.8-.23-.19 2.53-.1 5.5-1.79 7.58a4.11 4.11 0 0 1-3.14 1.57 3.84 3.84 0 0 1-2.65-1.1c-3.83-3.71-3.63-11.43-3.63-16.42 0-2.65 0-5.3.24-7.94.28-3.39 1.27-7.48 5.52-7.48a4.16 4.16 0 0 1 2.15.58zM399.28 283.83a1.15 1.15 0 0 1 .13.6c0 .58-.18 1.15-.18 1.72 0 7.81-.41 15.63-.41 23.44 0 .63.12 1.26.12 1.9 0 1.07-.27 1-1.1 1.18a4.16 4.16 0 0 1-1.06.22c-.55 0-.57-.47-.57-.9 0-.93.09-1.85.09-2.78 0-1.27-.09-2.54-.09-3.81 0-2 .1-4 .14-6-1.2 3.22-2.41 6.45-3.6 9.68-.56 1.53-1.07 3.11-1.69 4.62a1 1 0 0 1-.95.66c-.4 0-1.71-.68-1.71-1.11 0-.05 2.65-6.87 2.93-7.69 1.15-3.3 2.36-6.58 3.55-9.86-2.92-.53-4.44-3.8-4.44-6.52 0-3.09 1.75-6 5.13-6 .55 0 1.09.1 1.64.1.7 0 1.65-.07 2.07.61zm-2.66 7.4c0-1-.06-1.92 0-2.88 0-.49.17-1 .17-1.48 0-.31-.16-1.43-.51-1.43-2.08 0-3.18 1.53-3.18 3.5 0 1.63.81 4.51 2.88 4.51.78 0 .65-1.26.66-1.77zM137.8 329.19a13.79 13.79 0 0 1 .2 2.49c0 2.14-.32 4.27-.32 6.41 0 1.87.28 3.73.28 5.61s-.19 3.59-.19 5.38c0 1.35.13 2.69.13 4 0 .71.13 2-.89 2a3.26 3.26 0 0 1-.87-.16c-.65-.16-1 0-1-.93 0-.69.15-1.38.15-2.09 0-1.28-.11-2.55-.12-3.83 0-4.72-.19-9.44-.19-14.16v-2.54c0-.54-.06-.78-.65-.78-1.46 0-2.88.5-4.38.49v3.25c.12 4.14.13 8.29.2 12.43 0 1.89-.06 3.9.16 5.77a16.83 16.83 0 0 1 .26 2 2.76 2.76 0 0 0 0 .81c-.18.4-1.92.45-2.29.45-.83 0-.67-.18-.77-.81a8.51 8.51 0 0 1-.12-1.42c0-1.13.14-2.25.14-3.37 0-7-.14-13.92-.14-20.88A1.44 1.44 0 0 1 129 328c2.17 0 4.35.28 6.52.28 1 0 2-.43 2.25.92zM141.67 341.79c0-5.26 2.09-11.05 8.24-11.05 6.3 0 7.63 7.41 7.63 12.31s-2.16 10.79-8 10.79c-6.07 0-7.87-7.23-7.87-12.05zm2.7-.69a21.56 21.56 0 0 0 .11 2.27c.25 2.52 1.87 7.85 5 7.85 4.1 0 5.32-6.05 5.32-9.22 0-2.91-1.15-8.6-4.93-8.6-4.49 0-5.5 3.92-5.5 7.7zM160.35 327.21c0-.87 1.72-.72 2.3-.72 6.41 0 7.7 4.93 7.7 10.26 0 3.31-.06 6.58-.29 9.9-.09 1.44-.21 2.88-.21 4.35 0 3-1.48 6.34-4.9 6.34a5.17 5.17 0 0 1-2.91-.94c-1.66-1.15-1.59-7.34-1.59-9.32s-.07-4.11.11-6.12c.36-3 1.47-4.86 4.75-4.86a5.52 5.52 0 0 1 1.87.61c.07 0 .22 0 .25-.11v-1.11c0-3.89-1.44-6.2-5.69-6.2-1.26 0-1.11-.86-1.44-1.87.08-.07.05-.14.05-.21zm6.94 11.48a2.42 2.42 0 0 0-1.15-.22c-2.12 0-2.59 1.37-2.73 3.24-.07 1.37-.07 2.78-.07 4.14 0 2 .14 4 .14 5.94 0 1.3.07 3 1.87 3a2.16 2.16 0 0 0 .94-.22c.57-.72.75-2.66.79-3.6.14-4.07.18-8.18.21-12.28zM173.33 327.21c0-.87 1.73-.72 2.3-.72 6.41 0 7.7 4.93 7.7 10.26 0 3.31-.06 6.58-.28 9.9-.1 1.44-.22 2.88-.22 4.35 0 3-1.48 6.34-4.89 6.34a5.18 5.18 0 0 1-2.92-.94c-1.66-1.15-1.58-7.34-1.58-9.32s-.08-4.11.1-6.12c.36-3 1.48-4.86 4.75-4.86a5.35 5.35 0 0 1 1.87.61c.07 0 .22 0 .26-.11v-1.11c0-3.89-1.44-6.2-5.69-6.2-1.26 0-1.11-.86-1.44-1.87.07-.07.04-.14.04-.21zm6.94 11.48a2.42 2.42 0 0 0-1.15-.22c-2.12 0-2.59 1.37-2.73 3.24-.07 1.37-.07 2.78-.07 4.14 0 2 .14 4 .14 5.94 0 1.3.08 3 1.88 3a2.15 2.15 0 0 0 .93-.22c.58-.72.76-2.66.79-3.6.14-4.07.18-8.18.21-12.28zM193.32 353.73a5 5 0 0 1-1.37.21c-4.74 0-5.92-8.32-5.92-11.84s.35-12.2 5.51-12.2c4 0 5.78 5.85 5.78 9.09 0 1.59-.87 1.8-2.24 1.8s-2.45-.09-3.68-.09c-1 0-2.16.21-2.16 1.49 0 .66.13 1.31.19 2 .14 1.6.23 6.87 2.56 6.87s1.64-4.56 2.22-4.9a1.58 1.58 0 0 1 .91-.19c.63 0 1.25.11 1.88.11s.52.28.52.69c0 2.65-1.47 6.19-4.2 7zm-3.76-15.83c0 .34.74.4 1 .4a15 15 0 0 0 2.57-.38c.65-.12 1.09 0 1.09-.85 0-1.39-1.24-4.36-2.89-4.36s-1.66 2.38-1.66 3.53v.9c0 .3-.11.5-.11.76zM201.21 328.21c2.64.08 6.43-.2 8.13 2.28a3.48 3.48 0 0 1 .62 2 6.25 6.25 0 0 1-3 4.75c-.73.44-2 .55-2.54 1a1.62 1.62 0 0 0-.5 1.37c0 .68.15 1.35.15 2 0 2.89.26 5.8.49 8.68.11 1.31.45 2.59.45 3.93 0 1.1-.08 1.46-1.25 1.46-1.87 0-1.91-.46-1.91-2.16 0-4.65 0-9.29-.23-13.94-.15-2.93-.56-5.84-.56-8.77a23.92 23.92 0 0 1 .13-2.55zm5.63 6a2.13 2.13 0 0 0 .18-.83 3 3 0 0 0-2.76-2.56c-.53 0-.58.43-.58.85v1.38c0 .46-.16 1.16-.16 1.75s.13 1.12.78 1.12a3.68 3.68 0 0 0 2.51-1.7zM225.36 352.83c0 .78-1.08 1.35-1.76 1.35s-.91-.67-.91-1.31.1-1.06.1-1.6c0-2.73-.24-5.45-.4-8.18-1.2.12-3.88.66-4.33 1.92a15 15 0 0 0-.92 4.22 26.76 26.76 0 0 1-.24 4.2c-.07.38-.27.74-.72.74s-1.63-.43-1.75-.9a16.8 16.8 0 0 1-.16-3.69c0-3 .39-5.72 2.91-7.65-2.73-1.54-3.53-4.16-3.53-7.13a27.46 27.46 0 0 1 .31-4.86c.14-.48 1.32-.85 1.77-.85s.64.39.7.76a26.86 26.86 0 0 1 .12 4.21 14.94 14.94 0 0 0 .75 4.24c.47 1.49 3.59 2 4.95 2.07-.16-3.24-.57-6.47-.57-9.72 0-.53.07-1.08.74-1.08 1.21 0 2.09.07 2.09 1.46 0 .76-.13 1.51-.13 2.27 0 2.37.34 4.73.46 7.09 1.31-.07 4.25-.55 4.75-1.95a15.31 15.31 0 0 0 .91-4.22 29.41 29.41 0 0 1 .24-4.2c.08-.38.27-.74.72-.74s1.63.43 1.75.9a16.21 16.21 0 0 1 .16 3.69c0 3-.38 5.72-2.9 7.65 2.73 1.54 3.52 4.16 3.52 7.13a27.48 27.48 0 0 1-.3 4.86c-.14.48-1.32.85-1.77.85s-.64-.39-.71-.76a29.53 29.53 0 0 1-.12-4.21 15.35 15.35 0 0 0-.74-4.24c-.51-1.62-3.94-2-5.4-2.09v2.3c0 2.5.35 5 .45 7.47zM242.27 354.58a15.16 15.16 0 0 1 .29 2.22c0 .22-.11.71 0 .9-.3.43-1.92.49-2.45.49-.89 0-.79-.13-.89-.9a14.23 14.23 0 0 1-.13-1.73c0-1.19.15-2.38.15-3.57 0-8.78 0-17.56-.17-26.34.48 0 2.57 0 2.82.31a1.75 1.75 0 0 1 .08.73c0 1.81-.11 3.62-.11 5.43 0 1.17.05 2.34.05 3.5 0 1.47-.26 2.93-.28 4.4.94-2.1 2.69-3.66 4.1-5.43.59-.73 3.07-4.27 3.59-4.5l1.4.94a.58.58 0 0 1 0 .18c0 1.52-7.91 9.94-7.91 10.88 0 .39.53 1 .76 1.35.66.95 5.51 10.4 5.51 10.9 0 .65-1.24 1.2-1.78 1.22a114.81 114.81 0 0 1-5.75-11.63 88.16 88.16 0 0 0 .69 10.65z"/><path class="cls-3" d="M261.24 357.51a2.5 2.5 0 0 1-2 .61c-4.87 0-8.24-2.26-8.24-7.44 0-2.32 1.14-4.46 3.72-4.46 1.47 0 2.9 1.07 3.48 1.07a1.29 1.29 0 0 0 .19 0c0-3.35-.05-15-1.55-17.33a2.2 2.2 0 0 0-1.85-1.14c-1.72 0-2.76 1.83-2.76 3.38 0 1.37 0 1.66-1.42 1.66-.65 0-2.18.18-2.18-.79a8.49 8.49 0 0 1 1-3.13c1.12-2.11 3.58-4.18 6.07-4.18a3.75 3.75 0 0 1 1.68.37c2.94 1.4 3.37 7 3.68 9.88a92.94 92.94 0 0 1 .47 9.73c0 3.15-.12 6.29-.12 9.44a5.1 5.1 0 0 1-.19 2.37zm-7.05-6.13a3.73 3.73 0 0 0 3.76 3.87c.74 0 .82-.75.82-1.32 0-.91-.29-1.79-.29-2.7 0-1.76-.44-2.1-2.16-2.1a2.09 2.09 0 0 0-2.13 2.25zM276.31 337.48c0-1.78.07-3.57 0-5.35 0-.54-.07-1.47-.07-2 0-1 .35-1.07 1.4-1.07a8.42 8.42 0 0 1 3.69 1.17c2.76 1.72 3.7 5.49 3.72 8.54 0 3.64-2 5.12-3 6.48-.11.15 5.46 1 5.45 5.6s-7.69 4-10.39 4c-.69 0-.63-.49-.69-1.05s-.08-1.35-.08-2c0-4.69-.06-9.38-.07-14.08zm2.54-4.66c0 3.42.21 7.5.21 10.93a.41.41 0 0 0 .08.24h.19c3.37-1.14 3.17-8 1.42-10.3-.22-.25-1.9-2.13-1.9-.87zm.92 15.09c-.54 0-.56.35-.56.8 0 .87-.08 1.74-.08 2.61 0 .54.16.87.75.87 2.82 0 4.8-.43 4.8-1.91-.08-2.09-3.68-2.37-4.91-2.37zM294.37 358c-3.08 0-5.19-3.71-5.19-6.5 0-.35 2.27-.6 2.63-.67.21 1.51.43 4.39 2.44 4.39s2.5-3.89 2.5-5.32c0-3.69-.34-6.81-4.79-6.81h-.63c-.93-.1-.95-2.13-.53-3.08 1.37.07 3.75.36 4.14-1.34a24.57 24.57 0 0 0 .68-5.4c0-1.36-.07-4.31-1.91-4.31-2 0-2.23 2.77-2.44 4.28-.36-.07-2.63-.49-2.63-.84 0-2.37 1.51-6.5 5.19-6.5 4.1 0 4.75 4.8 4.75 7.91 0 2.76-.16 6.26-3 7.66 2.48.59 3.16 2.58 3.49 5.66a28.06 28.06 0 0 1 .17 2.91 12.52 12.52 0 0 1-1 5.27 4.53 4.53 0 0 1-3.87 2.69zM302.5 328.21c2.64.08 6.42-.2 8.12 2.28a3.49 3.49 0 0 1 .63 2 6.26 6.26 0 0 1-3 4.75c-.72.44-2 .55-2.54 1a1.64 1.64 0 0 0-.49 1.37c0 .68.14 1.35.14 2 0 2.89.26 5.8.49 8.68.11 1.31.45 2.59.45 3.93 0 1.1-.07 1.46-1.25 1.46-1.87 0-1.91-.46-1.91-2.16 0-4.65 0-9.29-.23-13.94-.14-2.93-.55-5.84-.55-8.77a21.56 21.56 0 0 1 .13-2.55zm5.63 6a2.12 2.12 0 0 0 .17-.83 2.94 2.94 0 0 0-2.76-2.56c-.52 0-.57.43-.57.85v1.38c0 .46-.16 1.16-.16 1.75s.12 1.12.78 1.12a3.72 3.72 0 0 0 2.51-1.7zM314.24 341.79c0-5.26 2.08-11.05 8.24-11.05s7.63 7.41 7.63 12.31-2.16 10.79-8 10.79c-6.11 0-7.87-7.23-7.87-12.05zm2.7-.69c0 .76 0 1.51.1 2.27.25 2.52 1.88 7.85 5 7.85 4.11 0 5.33-6.05 5.33-9.22 0-2.91-1.15-8.6-4.93-8.6-4.5 0-5.5 3.92-5.5 7.7zM340.41 326.05c2.95 1.76 3.47 8.31 3.47 11.43v1.19h-1.15a3.13 3.13 0 0 1-.92-.1c-.77-.21-.55 0-.69-.8-.36-2.13.27-9.12-3-9.12-2.86 0-2.85 6.17-2.85 8.06 0 1.22.07 2.44.07 3.66 0 2.39-.29 14.85 3.22 14.85 1.06 0 1.77-1.37 2-2.25s.06-1.8.27-2.68.23-.73 1.13-.81c.6-.05 1.21-.13 1.81-.23-.19 2.53-.1 5.5-1.79 7.58a4.12 4.12 0 0 1-3.14 1.57 3.82 3.82 0 0 1-2.65-1.1c-3.84-3.71-3.64-11.43-3.64-16.42 0-2.65 0-5.3.25-7.93.28-3.4 1.27-7.49 5.52-7.49a4.18 4.18 0 0 1 2.15.58zM357.35 347.54c.21.9 1.45 5 1.45 5.52s-.42.42-.73.42h-.49c-1.87-.15-1.59-.93-1.95-2.46-.4-1.71-.95-3.38-1.37-5.09s-.8-3.57-1.25-5.35c-.17-.7-.6-4.24-1-4.49-.55 3.46-1.08 6.89-1.41 10.38-.19 1.91-.68 3.78-.79 5.69-.07 1.07.15 1-.91 1.33a2.5 2.5 0 0 1-.54.07 4.17 4.17 0 0 1-1.66-.4c.09-2.78 1.06-5.51 1.44-8.26.46-3.43 1-6.84 1.55-10.26.12-.81.07-3.58.65-4a3.32 3.32 0 0 1 1.54-.26 2.7 2.7 0 0 1 1 .12c.7.34.83 2 1 2.7 1 4.82 2.35 9.6 3.52 14.39zM369.78 354.44c-1.65 2.87-5.24 2.64-8.09 2.78a34.37 34.37 0 0 1-.17-3.51c0-3.27.34-6.52.44-9.79.11-3.54.12-7.09.12-10.63 0-1.49-.08-3-.08-4.46 0-1.65.08-2.21 1.93-2.21 1.12 0 1.22.57 1.22 1.53 0 1.61-.3 3.19-.4 4.79-.22 3.61-.48 7.25-.48 10.86a2.17 2.17 0 0 0 .51 1.69c.51.47 1.83.62 2.55 1.1a7.53 7.53 0 0 1 3.05 5.59 4.47 4.47 0 0 1-.6 2.26zm-5.84-5c0 .85.19 1.69.19 2.53 0 .51-.27 2.19.56 2.19a3.19 3.19 0 0 0 2.73-3c0-1.26-1.39-3-2.71-3h-.2c-.51.16-.57.84-.57 1.26zm11.53 5.66c0 .22-.11.69 0 .89-.23.43-1.78.5-2.24.5-.85 0-.74-.19-.82-.9a13.48 13.48 0 0 1-.12-1.55c0-1.25.14-2.5.14-3.76q0-11.13-.16-22.28c.43 0 2.38 0 2.58.31a1.63 1.63 0 0 1 .08.73c0 1.81-.1 3.62-.1 5.44 0 4.24.14 8.49.22 12.73 0 1.89 0 3.78.17 5.67a18.17 18.17 0 0 1 .25 2.2zM386.8 355.83c-1.61 0-1.64.35-1.64-1.44 0-.9.1-1.8.1-2.7 0-1.14-.44-7.72-1.73-7.72-1.58 0-1.73 6.22-1.73 7.42 0 .67.25 4.28-.62 4.28h-2.34a53.09 53.09 0 0 1 .87-9.15 13.75 13.75 0 0 1 .44-1.79 18.48 18.48 0 0 0 .84-1.95c0-.58-1.06-2.07-1.28-2.81-1.09-3.64-1.11-7.79-1.11-11.58 0-.25.09-.46.38-.46a1.13 1.13 0 0 1 .44.1 2.87 2.87 0 0 1 1-.11c.69 0 1.24.08 1.24.91 0 1.75.05 12.06 1.77 12.06s1.84-8.66 1.84-10.13c0-.47-.08-.94-.08-1.41 0-1 .24-1.37 1.23-1.37.3 0 1.72 0 1.72.44 0 .22-.17.38-.17.6a.23.23 0 0 0 .15.2 54.61 54.61 0 0 1-.73 8.47c-.14.77-1.22 4.07-1.22 4.3a5.76 5.76 0 0 0 .79 2 36.2 36.2 0 0 1 1.43 9.61c0 .45 0 2.24-.64 2.24-.31 0-.62-.05-.92-.06zM395.45 352.94c0 .44 0 .85-.56.94a13.16 13.16 0 0 1-2.17.19.83.83 0 0 1-.89-.95 11.8 11.8 0 0 1 .25-2.61 1.39 1.39 0 0 1 1.21-.4c.7 0 1.71-.07 1.93.79a7.74 7.74 0 0 1 .23 2.04z"/></svg>