<svg id="Layer_1" data-name="Layer 1" xmlns="http://www.w3.org/2000/svg" viewBox="0 0 856 457"><defs><style>.cls-5{stroke:#1691c9;stroke-miterlimit:10;fill:none;stroke-width:5px}.cls-10{fill:#003b71}.cls-11{fill:#1691c9}</style></defs><path d="M196.84 375.85c20.34 10.72 489.22 23.87 495.73-3.76s16.93-297.94 3.75-313c-.28-.32-15.71-26.73-21.44-27.44-50.13-6.26-282.94 1.23-478.07 20.74C175 54.54 165.94 295.52 180.87 356c1.79 7.23 13.81 18.69 16 19.83z" fill="#ffe436"/><path d="M176.88 356c20.52 10.68 493.47 23.87 500-3.77s11.55-305.56-1.75-320.63c-2.8-3.14-369.21-15.65-498.27.91-24.4 3.12-20.49 312.83.02 323.49z" stroke-width="6" stroke-miterlimit="10" stroke="#1691c9" fill="#c4e5e5"/><path d="M179.22 72.05l502 2" stroke-linecap="round" stroke-linejoin="round" fill="none" stroke-width="6" stroke="#1691c9"/><path d="M210 110.23h425.74c15.86 0 28.72 10 28.72 22.34v3.56c0 12.34-12.86 22.34-28.72 22.34H210c-15.86 0-28.71-10-28.71-22.34v-3.56c.01-12.34 12.86-22.34 28.71-22.34z" fill="#83cdea"/><circle class="cls-5" cx="632.97" cy="133.97" r="10.49"/><path class="cls-5" d="M641.87 139.54l7.78 5.68"/><circle cx="597.76" cy="52.48" r="8.34" stroke-width="4" stroke-linecap="round" stroke-linejoin="round" fill="none" stroke="#1691c9"/><circle cx="622.84" cy="52.48" r="8.34" stroke-width="4" stroke-linecap="round" stroke-linejoin="round" stroke="#1691c9" fill="#ffe436"/><circle cx="648.41" cy="52.48" r="8.34" fill="#003b71" stroke-width="4" stroke-linecap="round" stroke-linejoin="round" stroke="#1691c9"/><path d="M214.25 51.65V58a1.17 1.17 0 0 0 1.19 1.15A1.12 1.12 0 0 0 216 59l5.51-3.18 5.49-3.16a1.16 1.16 0 0 0 0-2l-5.51-3.18-5.49-3.21a1.17 1.17 0 0 0-1.6.44 1.2 1.2 0 0 0-.15.56zm-6 0v-6.36a1.17 1.17 0 0 0-1.19-1.15 1.12 1.12 0 0 0-.56.15l-5.5 3.17-5.51 3.18a1.16 1.16 0 0 0 0 2l5.51 3.2 5.5 3.16a1.17 1.17 0 0 0 1.6-.44 1.2 1.2 0 0 0 .15-.56z" stroke-width="4" fill="none" stroke-miterlimit="10" stroke="#1691c9"/><path class="cls-10" d="M209.32 141.05a.21.21 0 0 1-.23.23h-1.93a.21.21 0 0 1-.23-.23v-5.61l-1.05.36a8 8 0 0 1-2.75.42c-3 0-4.72-1.81-4.72-4.83v-4.56a.21.21 0 0 1 .23-.23h1.91a.21.21 0 0 1 .23.23V131c0 2 .88 3 2.56 3a6.27 6.27 0 0 0 2.08-.32l1.51-.5v-6.39a.22.22 0 0 1 .23-.23h1.93a.21.21 0 0 1 .23.23zM220.66 132.94a.21.21 0 0 1-.23.24h-3.08v7.87a.21.21 0 0 1-.23.23h-1.89a.21.21 0 0 1-.23-.23v-7.87h-3.09a.21.21 0 0 1-.23-.24v-1.61a.21.21 0 0 1 .23-.23h8.52a.21.21 0 0 1 .23.23zM231.75 136.18c0 3.27-1.85 5.33-4.83 5.33s-4.85-2.06-4.85-5.33 1.85-5.29 4.85-5.29 4.83 2.05 4.83 5.29zm-7.37 0c0 2 1 3.21 2.54 3.21s2.52-1.2 2.52-3.21-1-3.19-2.52-3.19-2.54 1.19-2.54 3.19zM248.76 139.2a.21.21 0 0 1 .23.23v4.89a.21.21 0 0 1-.23.24h-1.7a.21.21 0 0 1-.23-.24v-3h-7v3a.22.22 0 0 1-.23.24h-1.7a.21.21 0 0 1-.23-.24v-4.89a.21.21 0 0 1 .23-.23h.86l.52-1.09a6.4 6.4 0 0 0 .46-2.75v-4a.21.21 0 0 1 .23-.23h7.54a.21.21 0 0 1 .23.23v7.87zm-6.76-3.84a7.24 7.24 0 0 1-.56 3.19l-.3.65h4.2v-6H242zM257.69 141.24a8.77 8.77 0 0 1-2.14.27c-3.17 0-5-2.06-5-5.31s1.81-5.31 4.87-5.31c2.52 0 4.06 1.26 4.06 3.33 0 1.62-1 2.54-3.09 2.86l-3.3.5a2.22 2.22 0 0 0 2.4 1.81 5.55 5.55 0 0 0 1.65-.21l.93-.23a.21.21 0 0 1 .29.17l.42 1.57a.22.22 0 0 1-.17.3zm-1.62-6c.74-.12 1.14-.46 1.14-1 0-.84-.65-1.28-1.79-1.28-1.38 0-2.33.86-2.5 2.79zM270.9 141.05a.21.21 0 0 1-.23.23h-1.87a.21.21 0 0 1-.23-.23v-7.87h-3.34v3.06c0 2.44-.88 4-2.86 5l-.61.29a.21.21 0 0 1-.31-.1l-.69-1.49c-.07-.15-.05-.26.1-.32l.61-.29c1-.53 1.43-1.49 1.43-3.09v-4.91a.21.21 0 0 1 .23-.23h7.54a.21.21 0 0 1 .23.23zM275 131.2a7.88 7.88 0 0 1 2.29-.31c2.84 0 4.58 1.47 4.58 4v6.15a.21.21 0 0 1-.23.23h-1.05a.25.25 0 0 1-.27-.19l-.17-.65c-.13-.29-.25-.29-.53 0a3.7 3.7 0 0 1-2.88 1.11c-2.33 0-3.63-1.2-3.63-3.17s1.35-3.23 3.82-3.23h2.63V135c0-1.28-.82-2-2.37-2a5.62 5.62 0 0 0-1.64.21l-.76.23a.22.22 0 0 1-.29-.17l-.46-1.55a.22.22 0 0 1 .16-.3zm1.93 5.73c-1 0-1.51.49-1.51 1.2s.57 1.32 1.58 1.32c1.66 0 2.56-.82 2.56-2.37v-.15zM292.59 132.94a.21.21 0 0 1-.23.24h-3.09v7.87a.21.21 0 0 1-.23.23h-1.89a.21.21 0 0 1-.23-.23v-7.87h-3.09a.22.22 0 0 1-.23-.24v-1.61a.21.21 0 0 1 .23-.23h8.53a.21.21 0 0 1 .23.23zM295 141.28a.21.21 0 0 1-.24-.23v-9.72a.21.21 0 0 1 .24-.23h1.86a.21.21 0 0 1 .24.23v3h1.49c2.81 0 4.45 1.32 4.45 3.57s-1.41 3.4-3.87 3.4zm4.17-2.08c1 0 1.56-.48 1.56-1.32s-.8-1.49-2.14-1.49h-1.49v2.81zM306.31 144.24h-1.48l1.12-2.12c.25-.44.21-.61-.17-.71a1.52 1.52 0 0 1 .59-2.9c.9 0 1.47.65 1.47 1.7a4.86 4.86 0 0 1-.72 2.43zM321.32 141.24a8.77 8.77 0 0 1-2.14.27c-3.17 0-5-2.06-5-5.31s1.81-5.31 4.87-5.31c2.52 0 4.06 1.26 4.06 3.33 0 1.62-1 2.54-3.09 2.86l-3.3.5a2.22 2.22 0 0 0 2.4 1.81 5.55 5.55 0 0 0 1.65-.21l.93-.23a.21.21 0 0 1 .29.17l.42 1.57a.22.22 0 0 1-.17.3zm-1.62-6c.74-.12 1.14-.46 1.14-1 0-.84-.66-1.28-1.79-1.28-1.39 0-2.33.86-2.5 2.79zM331.88 141.24a7.58 7.58 0 0 1-1.95.27c-3.21 0-5-2.06-5-5.33s1.74-5.29 5-5.29a6.39 6.39 0 0 1 1.81.25l.9.25a.22.22 0 0 1 .17.29l-.48 1.58a.21.21 0 0 1-.28.15l-.71-.19A4.72 4.72 0 0 0 330 133c-1.87 0-2.73 1.19-2.73 3.17s.9 3.23 2.69 3.23a6 6 0 0 0 1.55-.23l.7-.21a.22.22 0 0 1 .29.15l.48 1.57a.21.21 0 0 1-.16.29zM344.59 141.05a.21.21 0 0 1-.24.23h-1.86a.21.21 0 0 1-.24-.23v-7.87h-3.33v3.06a5 5 0 0 1-2.86 5l-.61.29a.21.21 0 0 1-.31-.1l-.7-1.49c-.06-.15 0-.26.11-.32l.61-.29c1-.53 1.43-1.49 1.43-3.09v-4.91a.21.21 0 0 1 .23-.23h7.53a.21.21 0 0 1 .24.23zM354.44 141.28a.21.21 0 0 1-.24-.23v-4a15.76 15.76 0 0 1 .17-2.64c0-.19-.14-.3-.23-.07l-.63 1.18-2.52 4c-.25.48-.52 1-.73 1.49a.25.25 0 0 1-.26.19h-2.37a.21.21 0 0 1-.23-.23v-9.72a.21.21 0 0 1 .23-.23h1.89a.21.21 0 0 1 .23.23v4a15 15 0 0 1-.21 2.64c0 .17.15.27.26 0s.42-.77.6-1.15l2.52-4.05c.26-.49.53-1 .74-1.52a.25.25 0 0 1 .25-.16h2.39a.21.21 0 0 1 .23.23v9.72a.21.21 0 0 1-.23.23zM372 132.94a.21.21 0 0 1-.23.24h-3.08v7.87a.21.21 0 0 1-.24.23h-1.89a.21.21 0 0 1-.23-.23v-7.87h-3.08a.21.21 0 0 1-.23-.24v-1.61a.21.21 0 0 1 .23-.23h8.52a.21.21 0 0 1 .23.23zM374.2 131.33a.21.21 0 0 1 .23-.23h1.87a.21.21 0 0 1 .23.23v3H378c2.81 0 4.45 1.32 4.45 3.57s-1.41 3.4-3.86 3.4h-4.18a.21.21 0 0 1-.23-.23zm4.41 7.87c1 0 1.55-.48 1.55-1.32s-.8-1.49-2.14-1.49h-1.49v2.81zm7.81 1.85a.21.21 0 0 1-.23.23h-1.87a.21.21 0 0 1-.23-.23v-9.7a.21.21 0 0 1 .23-.23h1.87a.21.21 0 0 1 .23.23zM400 141.24a7.6 7.6 0 0 1-2 .27c-3.21 0-5-2.06-5-5.33s1.74-5.29 5-5.29a6.37 6.37 0 0 1 1.8.25l.91.25a.21.21 0 0 1 .16.29l-.48 1.58a.2.2 0 0 1-.27.15l-.72-.19a4.66 4.66 0 0 0-1.4-.23c-1.87 0-2.73 1.19-2.73 3.17s.9 3.23 2.68 3.23a6.07 6.07 0 0 0 1.56-.23l.69-.21a.23.23 0 0 1 .3.15l.48 1.57a.21.21 0 0 1-.17.29zM411.89 132.94a.21.21 0 0 1-.23.24h-3.09v7.87a.21.21 0 0 1-.23.23h-1.89a.21.21 0 0 1-.23-.23v-7.87h-3.08a.22.22 0 0 1-.24-.24v-1.61a.21.21 0 0 1 .24-.23h8.52a.21.21 0 0 1 .23.23zM423 136.18c0 3.27-1.85 5.33-4.83 5.33s-4.85-2.06-4.85-5.33 1.85-5.29 4.85-5.29 4.83 2.05 4.83 5.29zm-7.37 0c0 2 .94 3.21 2.54 3.21s2.52-1.2 2.52-3.21-1-3.19-2.52-3.19-2.56 1.19-2.56 3.19zM434.38 141.05a.21.21 0 0 1-.23.23h-1.87a.21.21 0 0 1-.23-.23v-7.87h-3.34v3.06c0 2.44-.88 4-2.85 5l-.61.29a.22.22 0 0 1-.32-.1l-.69-1.49c-.06-.15 0-.26.11-.32l.61-.29c1-.53 1.42-1.49 1.42-3.09v-4.91a.21.21 0 0 1 .23-.23h7.54a.21.21 0 0 1 .23.23zM439.84 135.09c1 0 1.64-.91 2.21-1.73l1.38-2.12a.36.36 0 0 1 .3-.14h2.06c.18 0 .25.12.16.27l-1.84 3a4.17 4.17 0 0 1-1.83 1.64c-.08 0-.11.12 0 .17a4.48 4.48 0 0 1 2 1.7l1.93 3.15c.11.14 0 .27-.16.27h-2.08a.34.34 0 0 1-.3-.15l-1.45-2.33c-.58-.88-1.17-1.62-2.33-1.62h-.31v3.87a.21.21 0 0 1-.23.23h-1.87a.21.21 0 0 1-.23-.23v-9.72a.21.21 0 0 1 .23-.23h1.87a.21.21 0 0 1 .23.23v3.76zM457.19 141.05a.21.21 0 0 1-.23.23h-1.89a.21.21 0 0 1-.23-.23v-3.89h-4.08v3.89a.21.21 0 0 1-.23.23h-1.87a.21.21 0 0 1-.23-.23v-9.72a.21.21 0 0 1 .23-.23h1.87a.21.21 0 0 1 .23.23v3.76h4.08v-3.76a.21.21 0 0 1 .23-.23H457a.21.21 0 0 1 .23.23zM465.15 142.39c-.91 2.33-2.21 3.4-4.27 3.4h-.77a.21.21 0 0 1-.23-.23V144a.21.21 0 0 1 .23-.23h.69a1.74 1.74 0 0 0 1.79-1.24l.31-.74c.38-.9 0-2-.71-3.8l-2.88-6.57c-.08-.17 0-.27.17-.27h2a.29.29 0 0 1 .27.16l1.9 4.29a13.19 13.19 0 0 1 .79 2.66c.07.26.28.26.34 0a17.75 17.75 0 0 1 .75-2.66l1.77-4.26a.24.24 0 0 1 .25-.19h2c.17 0 .26.1.19.27zM480.5 141.05a.21.21 0 0 1-.23.23h-1.87a.21.21 0 0 1-.23-.23v-7.87h-3.34v3.06c0 2.44-.88 4-2.86 5l-.6.29a.22.22 0 0 1-.32-.1l-.69-1.49c-.07-.15 0-.26.1-.32l.61-.29c1-.53 1.43-1.49 1.43-3.09v-4.91a.21.21 0 0 1 .23-.23h7.54a.21.21 0 0 1 .23.23zM489.74 141.24a7.58 7.58 0 0 1-1.95.27c-3.22 0-5-2.06-5-5.33s1.74-5.29 5-5.29a6.44 6.44 0 0 1 1.81.25l.9.25a.22.22 0 0 1 .17.29l-.49 1.58a.2.2 0 0 1-.27.15l-.71-.19a4.72 4.72 0 0 0-1.41-.23c-1.87 0-2.73 1.19-2.73 3.17s.9 3.23 2.69 3.23a6 6 0 0 0 1.55-.23l.69-.21a.22.22 0 0 1 .3.15l.48 1.57a.21.21 0 0 1-.17.29zM501.58 141.05a.21.21 0 0 1-.23.23h-1.87a.21.21 0 0 1-.23-.23v-3.4h-.84c-1.42 0-2 .71-2.6 2l-.67 1.49a.31.31 0 0 1-.27.17h-2c-.17 0-.25-.1-.17-.27l1.07-2.38a3.12 3.12 0 0 1 1.47-1.59c.19-.09.21-.17 0-.28a2.72 2.72 0 0 1-2-2.56c0-1.93 1.38-3.1 3.84-3.1h4.24a.21.21 0 0 1 .23.23zm-4.58-7.87c-.93 0-1.47.46-1.47 1.21s.67 1.24 1.84 1.24h1.87v-2.45zM515.19 141.24a7.58 7.58 0 0 1-2 .27c-3.21 0-5-2.06-5-5.33s1.75-5.29 5-5.29a6.39 6.39 0 0 1 1.81.25l.9.25a.22.22 0 0 1 .17.29l-.48 1.58a.21.21 0 0 1-.28.15l-.71-.19a4.72 4.72 0 0 0-1.41-.23c-1.87 0-2.73 1.19-2.73 3.17s.91 3.23 2.69 3.23a6 6 0 0 0 1.55-.23l.7-.21a.22.22 0 0 1 .29.15l.48 1.57a.21.21 0 0 1-.16.29zM531.42 132.94a.21.21 0 0 1-.23.24h-3.08v7.87a.21.21 0 0 1-.23.23H526a.21.21 0 0 1-.23-.23v-7.87h-3.09a.21.21 0 0 1-.23-.24v-1.61a.21.21 0 0 1 .23-.23h8.52a.21.21 0 0 1 .23.23zM535.35 132.17c.09.23.26.21.4 0a3.71 3.71 0 0 1 2.94-1.3c2.75 0 4.41 2 4.41 5.29s-1.76 5.33-4.7 5.33a4.35 4.35 0 0 1-1.91-.4l-.57-.25v4.7a.21.21 0 0 1-.23.23h-1.87a.21.21 0 0 1-.23-.23v-14.21a.21.21 0 0 1 .23-.23h1c.15 0 .23.06.25.19zm1.18 6.86a3.84 3.84 0 0 0 1.72.36c1.62 0 2.54-1.2 2.54-3.21s-.92-3.19-2.48-3.19-2.41 1.3-2.41 3.12v2.63zM546.69 131.2a7.88 7.88 0 0 1 2.29-.31c2.84 0 4.58 1.47 4.58 4v6.15a.21.21 0 0 1-.23.23h-1.05a.25.25 0 0 1-.27-.19l-.17-.65c-.13-.29-.25-.29-.53 0a3.69 3.69 0 0 1-2.87 1.11c-2.33 0-3.64-1.2-3.64-3.17s1.35-3.23 3.83-3.23h2.62V135c0-1.28-.82-2-2.37-2a5.62 5.62 0 0 0-1.64.21l-.76.23a.22.22 0 0 1-.29-.17l-.46-1.55a.22.22 0 0 1 .17-.3zm1.94 5.73c-1 0-1.52.49-1.52 1.2s.57 1.32 1.58 1.32c1.66 0 2.56-.82 2.56-2.37v-.15zM560.7 131.1c2.27 0 3.65 1 3.65 2.77a2.11 2.11 0 0 1-1.28 2.06c-.23.08-.23.21 0 .29a2.27 2.27 0 0 1 1.68 2.22c0 1.79-1.41 2.84-3.74 2.84h-4.53a.21.21 0 0 1-.23-.23v-9.72a.21.21 0 0 1 .23-.23zm-2.16 4.05h2c1 0 1.54-.38 1.54-1s-.45-.94-1.14-.94h-2.41zm0 4h2.56c.84 0 1.32-.38 1.32-1s-.61-1.07-1.7-1.07h-2.18zM576.11 141.05a.21.21 0 0 1-.23.23H574a.21.21 0 0 1-.23-.23v-7.87h-3.34v3.06c0 2.44-.88 4-2.85 5l-.61.29a.21.21 0 0 1-.31-.1l-.7-1.49c-.06-.15 0-.26.11-.32l.61-.29c1-.53 1.42-1.49 1.42-3.09v-4.91a.21.21 0 0 1 .23-.23h7.54a.21.21 0 0 1 .23.23zM585.52 141.24a8.71 8.71 0 0 1-2.14.27c-3.17 0-5-2.06-5-5.31s1.8-5.31 4.87-5.31c2.52 0 4.05 1.26 4.05 3.33 0 1.62-1 2.54-3.09 2.86l-3.29.5a2.22 2.22 0 0 0 2.39 1.81 5.58 5.58 0 0 0 1.66-.21l.92-.23a.22.22 0 0 1 .3.17l.42 1.57a.23.23 0 0 1-.17.3zm-1.61-6c.73-.12 1.13-.46 1.13-1 0-.84-.65-1.28-1.79-1.28-1.38 0-2.33.86-2.49 2.79zM596.46 137.1a14.77 14.77 0 0 1 .17-2.64c0-.19-.15-.3-.23-.07l-.63 1.18-2.52 4c-.25.48-.53 1-.73 1.49a.26.26 0 0 1-.26.19h-2.37a.21.21 0 0 1-.23-.23v-9.72a.21.21 0 0 1 .23-.23h1.89a.21.21 0 0 1 .23.23v4a15 15 0 0 1-.21 2.64c0 .17.15.27.25 0s.42-.77.61-1.15l2.52-4.05c.25-.49.53-1 .74-1.52a.25.25 0 0 1 .25-.16h2.39a.21.21 0 0 1 .23.23v9.72a.21.21 0 0 1-.23.23h-1.87a.21.21 0 0 1-.23-.23zM597 127a2.8 2.8 0 0 1-5.59 0v-.5a.21.21 0 0 1 .24-.23h1.21a.21.21 0 0 1 .23.23v.5a1.12 1.12 0 0 0 2.23 0v-.52a.21.21 0 0 1 .23-.23h1.22a.21.21 0 0 1 .23.23zM602.15 126.94a11.31 11.31 0 0 1 3.43-.55c3.15 0 4.87 1.47 4.87 3.85a4.06 4.06 0 0 1-2.08 3.44l-1.16.82a1.94 1.94 0 0 0-.84 1.57v1.07a.21.21 0 0 1-.23.23h-1.89a.21.21 0 0 1-.23-.23v-1.07a3.81 3.81 0 0 1 1.83-3.36l1.2-.82a1.93 1.93 0 0 0 1.05-1.65c0-.93-1.05-1.6-2.52-1.6a9.33 9.33 0 0 0-2.71.42l-1.22.4a.23.23 0 0 1-.29-.15l-.59-1.68c-.06-.12 0-.23.15-.27zm4.62 13.06a1.46 1.46 0 1 1-1.47-1.51 1.37 1.37 0 0 1 1.47 1.51zM205.9 196.22a.19.19 0 0 1-.21.2h-1.75a.19.19 0 0 1-.21-.2v-5.08l-.95.33a7.3 7.3 0 0 1-2.49.38c-2.71 0-4.27-1.64-4.27-4.37v-4.13a.19.19 0 0 1 .21-.21H198a.19.19 0 0 1 .21.21v3.77c0 1.82.79 2.75 2.31 2.75a5.9 5.9 0 0 0 1.88-.28l1.37-.46v-5.78a.19.19 0 0 1 .21-.21h1.75a.19.19 0 0 1 .21.21zM216.16 188.88a.19.19 0 0 1-.21.21h-2.79v7.13a.19.19 0 0 1-.21.2h-1.71a.18.18 0 0 1-.21-.2v-7.13h-2.79a.19.19 0 0 1-.21-.21v-1.46a.19.19 0 0 1 .21-.21H216a.19.19 0 0 1 .21.21zM226.19 191.81c0 3-1.67 4.82-4.37 4.82s-4.39-1.86-4.39-4.82 1.67-4.79 4.39-4.79 4.37 1.86 4.37 4.79zm-6.67 0c0 1.82.86 2.9 2.3 2.9s2.28-1.08 2.28-2.9-.87-2.89-2.28-2.89-2.3 1.08-2.3 2.89zM241.58 194.54a.19.19 0 0 1 .21.21v4.43a.19.19 0 0 1-.21.21H240a.19.19 0 0 1-.21-.21v-2.76h-6.36v2.76a.19.19 0 0 1-.21.21h-1.54a.19.19 0 0 1-.21-.21v-4.43a.19.19 0 0 1 .21-.21h.78l.47-1a5.82 5.82 0 0 0 .42-2.49v-3.65a.19.19 0 0 1 .21-.21h6.82a.19.19 0 0 1 .21.21v7.12zm-6.08-3.47a6.55 6.55 0 0 1-.5 2.93l-.27.59h3.8v-5.45h-3zM249.66 196.39a8 8 0 0 1-1.94.24c-2.87 0-4.49-1.86-4.49-4.8s1.64-4.81 4.41-4.81c2.28 0 3.67 1.14 3.67 3 0 1.46-.89 2.3-2.8 2.58l-3 .46a2 2 0 0 0 2.17 1.63 4.92 4.92 0 0 0 1.5-.19l.84-.2a.19.19 0 0 1 .26.15l.38 1.42a.2.2 0 0 1-.15.27zm-1.47-5.4c.67-.11 1-.42 1-.91 0-.76-.59-1.16-1.62-1.16-1.25 0-2.11.78-2.26 2.53zM261.6 196.22a.18.18 0 0 1-.2.2h-1.69a.18.18 0 0 1-.21-.2v-7.13h-3v2.77a4.53 4.53 0 0 1-2.59 4.53l-.55.26a.19.19 0 0 1-.28-.09l-.63-1.35c-.06-.13 0-.23.09-.29l.56-.26c.87-.48 1.29-1.35 1.29-2.8v-4.44a.19.19 0 0 1 .21-.21h6.82a.19.19 0 0 1 .2.21zM265.31 187.31a7.09 7.09 0 0 1 2.07-.29c2.57 0 4.14 1.33 4.14 3.63v5.57a.18.18 0 0 1-.21.2h-.94a.22.22 0 0 1-.25-.17l-.15-.59c-.12-.26-.23-.26-.48 0a3.36 3.36 0 0 1-2.6 1c-2.11 0-3.29-1.08-3.29-2.87s1.22-2.92 3.46-2.92h2.37v-.12c0-1.15-.74-1.78-2.14-1.78a5.26 5.26 0 0 0-1.48.19l-.69.21a.19.19 0 0 1-.26-.15l-.42-1.41a.2.2 0 0 1 .15-.27zm1.75 5.18c-.93 0-1.37.44-1.37 1.08s.51 1.2 1.43 1.2c1.5 0 2.31-.74 2.31-2.15v-.13zM281.23 188.88a.19.19 0 0 1-.21.21h-2.79v7.13a.18.18 0 0 1-.21.2h-1.71a.19.19 0 0 1-.21-.2v-7.13h-2.79a.19.19 0 0 1-.21-.21v-1.46a.19.19 0 0 1 .21-.21H281a.19.19 0 0 1 .21.21zM283.4 196.42a.19.19 0 0 1-.21-.2v-8.8a.19.19 0 0 1 .21-.21h1.69a.19.19 0 0 1 .21.21v2.7h1.35c2.54 0 4 1.19 4 3.23s-1.28 3.07-3.5 3.07zm3.78-1.88c.87 0 1.41-.43 1.41-1.19s-.73-1.35-1.94-1.35h-1.35v2.54zM293.64 199.1h-1.33l1-1.92c.23-.39.19-.55-.15-.64a1.37 1.37 0 0 1 .53-2.62c.81 0 1.33.59 1.33 1.54a4.4 4.4 0 0 1-.65 2.2zM307.22 196.39a8 8 0 0 1-1.93.24c-2.87 0-4.49-1.86-4.49-4.8s1.64-4.81 4.41-4.81c2.28 0 3.67 1.14 3.67 3 0 1.46-.9 2.3-2.8 2.58l-3 .46a2 2 0 0 0 2.17 1.63 4.92 4.92 0 0 0 1.5-.19l.83-.2a.19.19 0 0 1 .27.15l.38 1.42a.2.2 0 0 1-.15.27zm-1.46-5.4c.67-.11 1-.42 1-.91 0-.76-.59-1.16-1.62-1.16-1.25 0-2.11.78-2.26 2.53zM316.78 196.39a7.06 7.06 0 0 1-1.77.24c-2.9 0-4.5-1.86-4.5-4.82s1.58-4.79 4.56-4.79a5.88 5.88 0 0 1 1.64.23l.81.23a.18.18 0 0 1 .15.26l-.43 1.43a.19.19 0 0 1-.25.13l-.65-.17a4.35 4.35 0 0 0-1.27-.21c-1.69 0-2.47 1.08-2.47 2.87s.82 2.92 2.43 2.92a5.76 5.76 0 0 0 1.41-.2l.63-.19a.19.19 0 0 1 .26.13l.44 1.42a.2.2 0 0 1-.15.27zM328.28 196.22a.19.19 0 0 1-.21.2h-1.69a.18.18 0 0 1-.21-.2v-7.13h-3v2.77a4.53 4.53 0 0 1-2.59 4.53l-.55.26a.19.19 0 0 1-.28-.09l-.63-1.35c-.06-.13 0-.23.1-.29l.55-.26c.87-.48 1.29-1.35 1.29-2.8v-4.44a.19.19 0 0 1 .21-.21h6.82a.19.19 0 0 1 .21.21zM337.19 196.42a.18.18 0 0 1-.21-.2v-3.58a14 14 0 0 1 .15-2.39c0-.17-.13-.27-.21-.06l-.57 1.07-2.28 3.64c-.23.44-.47.92-.66 1.35a.22.22 0 0 1-.23.17H331a.19.19 0 0 1-.21-.2v-8.8a.19.19 0 0 1 .21-.21h1.71a.19.19 0 0 1 .21.21V191a14.11 14.11 0 0 1-.19 2.39c0 .16.13.25.23 0s.38-.7.55-1l2.28-3.67c.23-.44.47-.93.66-1.37a.24.24 0 0 1 .23-.15h2.17a.19.19 0 0 1 .21.21v8.8a.19.19 0 0 1-.21.2zM353.11 188.88a.19.19 0 0 1-.21.21h-2.79v7.13a.19.19 0 0 1-.21.2h-1.71a.19.19 0 0 1-.21-.2v-7.13h-2.79a.19.19 0 0 1-.21-.21v-1.46a.19.19 0 0 1 .21-.21h7.71a.19.19 0 0 1 .21.21zM355.07 187.42a.19.19 0 0 1 .21-.21H357a.19.19 0 0 1 .21.21v2.7h1.34c2.55 0 4 1.19 4 3.23s-1.27 3.07-3.49 3.07h-3.78a.18.18 0 0 1-.21-.2zm4 7.12c.87 0 1.4-.43 1.4-1.19s-.72-1.35-1.94-1.35h-1.34v2.54zm7.06 1.68a.18.18 0 0 1-.21.2h-1.69a.19.19 0 0 1-.21-.2v-8.78a.19.19 0 0 1 .21-.21h1.69a.19.19 0 0 1 .21.21zM378.44 196.39a7.06 7.06 0 0 1-1.77.24c-2.91 0-4.5-1.86-4.5-4.82s1.57-4.79 4.56-4.79a5.86 5.86 0 0 1 1.63.23l.82.23a.19.19 0 0 1 .15.26l-.44 1.43a.19.19 0 0 1-.25.13l-.64-.17a4.4 4.4 0 0 0-1.27-.21c-1.69 0-2.47 1.08-2.47 2.87s.81 2.92 2.43 2.92a5.62 5.62 0 0 0 1.4-.2l.63-.19a.2.2 0 0 1 .27.13l.43 1.42a.2.2 0 0 1-.15.27zM389.17 188.88a.19.19 0 0 1-.21.21h-2.79v7.13a.19.19 0 0 1-.21.2h-1.71a.19.19 0 0 1-.21-.2v-7.13h-2.79a.19.19 0 0 1-.21-.21v-1.46a.19.19 0 0 1 .21-.21H389a.19.19 0 0 1 .21.21zM392 187.31a7.16 7.16 0 0 1 2-.31c2.56 0 4.14 1.33 4.14 3.63v5.57a.19.19 0 0 1-.21.2h-1a.22.22 0 0 1-.25-.17l-.15-.59c-.12-.26-.23-.26-.48 0a3.34 3.34 0 0 1-2.6 1c-2.11 0-3.29-1.08-3.29-2.87s1.22-2.92 3.46-2.92H396v-.12c0-1.15-.74-1.78-2.15-1.78a5.31 5.31 0 0 0-1.48.19l-.69.21a.19.19 0 0 1-.26-.15l-.42-1.41a.2.2 0 0 1 .15-.27zm1.75 5.18c-.93 0-1.37.44-1.37 1.08s.52 1.2 1.43 1.2c1.5 0 2.32-.74 2.32-2.15v-.13zM408.89 196.22a.18.18 0 0 1-.21.2H407a.19.19 0 0 1-.21-.2v-7.13h-3v2.77a4.53 4.53 0 0 1-2.58 4.53l-.55.26a.2.2 0 0 1-.29-.09l-.62-1.35c-.06-.13 0-.23.09-.29l.55-.26c.88-.48 1.29-1.35 1.29-2.8v-4.44a.19.19 0 0 1 .21-.21h6.82a.19.19 0 0 1 .21.21zM421.2 196.39a7 7 0 0 1-1.76.24c-2.91 0-4.51-1.86-4.51-4.82s1.58-4.79 4.56-4.79a5.88 5.88 0 0 1 1.64.23l.82.23a.19.19 0 0 1 .15.26l-.44 1.43a.19.19 0 0 1-.25.13l-.64-.17a4.41 4.41 0 0 0-1.28-.21c-1.69 0-2.47 1.08-2.47 2.87s.82 2.92 2.44 2.92a5.62 5.62 0 0 0 1.4-.2l.63-.19a.18.18 0 0 1 .26.13l.44 1.42a.2.2 0 0 1-.15.27zM428.44 187.21c2.06 0 3.31.93 3.31 2.51a1.91 1.91 0 0 1-1.16 1.86c-.21.08-.21.19 0 .27a2 2 0 0 1 1.52 2c0 1.61-1.27 2.56-3.38 2.56h-4.1a.18.18 0 0 1-.21-.2v-8.8a.19.19 0 0 1 .21-.21zm-1.95 3.67h1.82c.89 0 1.39-.34 1.39-.93s-.4-.86-1-.86h-2.18zm0 3.66h2.31c.77 0 1.2-.34 1.2-.91s-.55-1-1.54-1h-2zM440.53 196.42a.18.18 0 0 1-.21-.2v-3.58a14 14 0 0 1 .15-2.39c0-.17-.13-.27-.21-.06l-.57 1.07-2.28 3.64c-.23.44-.47.92-.66 1.35a.22.22 0 0 1-.23.17h-2.15a.19.19 0 0 1-.21-.2v-8.8a.19.19 0 0 1 .21-.21h1.71a.19.19 0 0 1 .21.21V191a14.11 14.11 0 0 1-.19 2.39c0 .16.13.25.23 0s.38-.7.55-1l2.28-3.67c.23-.44.47-.93.66-1.37a.24.24 0 0 1 .23-.15h2.17a.19.19 0 0 1 .21.21v8.8a.19.19 0 0 1-.21.2zM454.3 194.54a.19.19 0 0 1 .21.21v4.43a.19.19 0 0 1-.21.21h-1.54a.19.19 0 0 1-.21-.21v-2.76h-6.36v2.76a.19.19 0 0 1-.21.21h-1.54a.19.19 0 0 1-.21-.21v-4.43a.19.19 0 0 1 .21-.21h.78l.48-1a6 6 0 0 0 .41-2.49v-3.65a.19.19 0 0 1 .21-.21h6.82a.19.19 0 0 1 .21.21v7.12zm-6.08-3.47a6.55 6.55 0 0 1-.51 2.88l-.27.59h3.8v-5.45h-3zM462.38 196.39a8 8 0 0 1-1.94.24c-2.87 0-4.48-1.86-4.48-4.8s1.63-4.81 4.4-4.81c2.28 0 3.67 1.14 3.67 3 0 1.46-.89 2.3-2.79 2.58l-3 .46a2 2 0 0 0 2.17 1.63 4.92 4.92 0 0 0 1.5-.19l.84-.2a.18.18 0 0 1 .26.15l.38 1.42a.2.2 0 0 1-.15.27zm-1.46-5.4c.66-.11 1-.42 1-.91 0-.76-.59-1.16-1.61-1.16-1.26 0-2.11.78-2.26 2.53zM473.59 188.88a.19.19 0 0 1-.21.21h-2.79v7.13a.19.19 0 0 1-.21.2h-1.71a.18.18 0 0 1-.21-.2v-7.13h-2.79a.19.19 0 0 1-.21-.21v-1.46a.19.19 0 0 1 .21-.21h7.71a.19.19 0 0 1 .21.21zM481.28 196.39a8 8 0 0 1-1.94.24c-2.86 0-4.48-1.86-4.48-4.8s1.63-4.81 4.41-4.81c2.28 0 3.66 1.14 3.66 3 0 1.46-.89 2.3-2.79 2.58l-3 .46a2 2 0 0 0 2.17 1.63 4.92 4.92 0 0 0 1.5-.19l.83-.2a.2.2 0 0 1 .27.15l.38 1.42a.2.2 0 0 1-.15.27zm-1.46-5.4c.66-.11 1-.42 1-.91 0-.76-.58-1.16-1.61-1.16-1.25 0-2.11.78-2.26 2.53zM493.23 196.22a.18.18 0 0 1-.21.2h-1.69a.19.19 0 0 1-.21-.2v-7.13h-3v2.77a4.52 4.52 0 0 1-2.58 4.53l-.55.26a.2.2 0 0 1-.29-.09l-.62-1.35c-.06-.13 0-.23.09-.29l.55-.26c.88-.48 1.3-1.35 1.3-2.8v-4.44a.19.19 0 0 1 .2-.21H493a.19.19 0 0 1 .21.21zM501.75 196.39a8 8 0 0 1-1.94.24c-2.87 0-4.49-1.86-4.49-4.8S497 187 499.73 187c2.28 0 3.67 1.14 3.67 3 0 1.46-.9 2.3-2.8 2.58l-3 .46a2 2 0 0 0 2.17 1.63 4.92 4.92 0 0 0 1.5-.19l.84-.2a.19.19 0 0 1 .26.15l.38 1.42a.2.2 0 0 1-.15.27zm-1.47-5.4c.67-.11 1-.42 1-.91 0-.76-.59-1.16-1.62-1.16-1.25 0-2.11.78-2.26 2.53zM515.23 196.22a.18.18 0 0 1-.2.2h-1.7a.18.18 0 0 1-.2-.2v-2.8a25.28 25.28 0 0 1 .15-3.23c0-.17-.14-.22-.19-.05-.15.32-.29.66-.42 1l-1.1 2.42a6.46 6.46 0 0 0-.36 1c0 .12-.1.17-.23.17h-1.26c-.13 0-.2 0-.22-.17-.1-.34-.23-.7-.36-1l-1.14-2.44-.41-1c-.06-.17-.23-.12-.19.05a23.47 23.47 0 0 1 .17 3.23v2.8a.19.19 0 0 1-.21.2h-1.66a.18.18 0 0 1-.21-.2v-8.8a.19.19 0 0 1 .21-.21h2.47a.21.21 0 0 1 .23.19 5.49 5.49 0 0 0 .3.89l1.08 2.4c.17.47.4 1.21.48 1.54 0 .17.15.17.19 0 .07-.33.32-1.07.47-1.54l1.1-2.4a5.55 5.55 0 0 0 .31-.89.2.2 0 0 1 .23-.19H515a.19.19 0 0 1 .2.21zM529.28 188.88a.19.19 0 0 1-.21.21h-2.8v7.13a.18.18 0 0 1-.2.2h-1.71a.18.18 0 0 1-.21-.2v-7.13h-2.8a.19.19 0 0 1-.21-.21v-1.46a.19.19 0 0 1 .21-.21h7.72a.19.19 0 0 1 .21.21zM532.83 188.18c.08.21.23.19.36 0a3.35 3.35 0 0 1 2.66-1.18c2.49 0 4 1.84 4 4.79s-1.6 4.82-4.26 4.82a3.84 3.84 0 0 1-1.72-.36l-.52-.23v4.26a.19.19 0 0 1-.21.21h-1.69a.19.19 0 0 1-.21-.21v-12.86a.19.19 0 0 1 .21-.21h.95c.14 0 .21.06.23.17zm1.06 6.21a3.46 3.46 0 0 0 1.56.32c1.46 0 2.3-1.08 2.3-2.9s-.84-2.89-2.24-2.89-2.19 1.18-2.19 2.83v2.38zM543.09 187.31a7 7 0 0 1 2.07-.29c2.56 0 4.14 1.33 4.14 3.63v5.57a.19.19 0 0 1-.21.2h-1a.21.21 0 0 1-.24-.17l-.16-.59c-.11-.26-.22-.26-.47 0a3.37 3.37 0 0 1-2.6 1c-2.11 0-3.29-1.08-3.29-2.87s1.21-2.92 3.46-2.92h2.37v-.12c0-1.15-.74-1.78-2.15-1.78a5.31 5.31 0 0 0-1.48.19l-.68.21a.2.2 0 0 1-.27-.15l-.42-1.41a.21.21 0 0 1 .16-.27zm1.75 5.18c-.93 0-1.37.44-1.37 1.08s.51 1.2 1.42 1.2c1.5 0 2.32-.74 2.32-2.15v-.13zM555.76 187.21c2 0 3.31.93 3.31 2.51a1.92 1.92 0 0 1-1.16 1.86c-.21.08-.21.19 0 .27a2 2 0 0 1 1.52 2c0 1.61-1.27 2.56-3.38 2.56h-4.11a.19.19 0 0 1-.21-.2v-8.8a.19.19 0 0 1 .21-.21zm-2 3.67h1.83c.89 0 1.39-.34 1.39-.93s-.4-.86-1-.86h-2.18zm0 3.66h2.32c.76 0 1.2-.34 1.2-.91s-.55-1-1.54-1h-2zM569.71 196.22a.19.19 0 0 1-.21.2h-1.69a.18.18 0 0 1-.21-.2v-7.13h-3v2.77a4.53 4.53 0 0 1-2.59 4.53l-.55.26a.19.19 0 0 1-.28-.09l-.63-1.35c-.06-.13 0-.23.1-.29l.55-.26c.87-.48 1.29-1.35 1.29-2.8v-4.44a.19.19 0 0 1 .21-.21h6.82a.19.19 0 0 1 .21.21zM578.62 196.42a.19.19 0 0 1-.21-.2v-3.58a14 14 0 0 1 .15-2.39c0-.17-.13-.27-.21-.06l-.57 1.07-2.28 3.64c-.23.44-.47.92-.66 1.35a.22.22 0 0 1-.23.17h-2.15a.19.19 0 0 1-.21-.2v-8.8a.19.19 0 0 1 .21-.21h1.71a.19.19 0 0 1 .21.21V191a13.15 13.15 0 0 1-.19 2.39c0 .16.14.25.23 0s.38-.7.55-1l2.28-3.67c.23-.44.48-.93.67-1.37a.22.22 0 0 1 .22-.15h2.17a.19.19 0 0 1 .21.21v8.8a.19.19 0 0 1-.21.2zM583.56 183.45a10.23 10.23 0 0 1 3.1-.49c2.84 0 4.4 1.32 4.4 3.47a3.67 3.67 0 0 1-1.88 3.12l-1 .74a1.72 1.72 0 0 0-.76 1.42v1a.19.19 0 0 1-.21.21h-1.71a.19.19 0 0 1-.21-.21v-1a3.43 3.43 0 0 1 1.65-3l1.09-.74a1.74 1.74 0 0 0 .94-1.5c0-.83-.94-1.44-2.27-1.44a8.22 8.22 0 0 0-2.45.38l-1.11.36a.2.2 0 0 1-.26-.13l-.54-1.52c0-.12 0-.21.14-.25zm4.18 11.83a1.24 1.24 0 0 1-1.33 1.37 1.37 1.37 0 0 1 0-2.73 1.24 1.24 0 0 1 1.33 1.36z"/><path class="cls-11" d="M204.17 211.49a.18.18 0 0 1 .2.2v1.39a.18.18 0 0 1-.2.2h-9.29a.18.18 0 0 1-.2-.2v-1.39a.18.18 0 0 1 .2-.2z"/><path class="cls-11" d="M213.37 211.49a.18.18 0 0 1 .2.2v1.39a.18.18 0 0 1-.2.2h-9.29a.18.18 0 0 1-.2-.2v-1.39a.18.18 0 0 1 .2-.2z"/><path class="cls-11" d="M222.57 211.49a.19.19 0 0 1 .2.2v1.39a.18.18 0 0 1-.2.2h-9.29a.18.18 0 0 1-.2-.2v-1.39a.18.18 0 0 1 .2-.2z"/><path class="cls-11" d="M231.76 211.49a.18.18 0 0 1 .2.2v1.39a.18.18 0 0 1-.2.2h-9.29a.18.18 0 0 1-.19-.2v-1.39a.18.18 0 0 1 .19-.2z"/><path class="cls-11" d="M241 211.49a.18.18 0 0 1 .2.2v1.39a.18.18 0 0 1-.2.2h-9.29a.18.18 0 0 1-.2-.2v-1.39a.19.19 0 0 1 .2-.2z"/><path class="cls-11" d="M250.16 211.49a.18.18 0 0 1 .2.2v1.39a.18.18 0 0 1-.2.2h-9.29a.18.18 0 0 1-.2-.2v-1.39a.18.18 0 0 1 .2-.2z"/><path class="cls-11" d="M259.36 211.49a.19.19 0 0 1 .2.2v1.39a.18.18 0 0 1-.2.2h-9.29a.18.18 0 0 1-.2-.2v-1.39a.18.18 0 0 1 .2-.2z"/><path class="cls-11" d="M268.56 211.49a.18.18 0 0 1 .19.2v1.39a.18.18 0 0 1-.19.2h-9.3a.18.18 0 0 1-.19-.2v-1.39a.18.18 0 0 1 .19-.2z"/><path class="cls-11" d="M277.75 211.49a.18.18 0 0 1 .2.2v1.39a.18.18 0 0 1-.2.2h-9.29a.18.18 0 0 1-.2-.2v-1.39a.19.19 0 0 1 .2-.2z"/><path class="cls-11" d="M287 211.49a.18.18 0 0 1 .2.2v1.39a.18.18 0 0 1-.2.2h-9.29a.18.18 0 0 1-.2-.2v-1.39a.19.19 0 0 1 .2-.2z"/><path class="cls-11" d="M296.15 211.49a.18.18 0 0 1 .2.2v1.39a.18.18 0 0 1-.2.2h-9.29a.18.18 0 0 1-.2-.2v-1.39a.18.18 0 0 1 .2-.2z"/><path class="cls-11" d="M305.35 211.49a.18.18 0 0 1 .19.2v1.39a.18.18 0 0 1-.19.2h-9.29a.18.18 0 0 1-.2-.2v-1.39a.18.18 0 0 1 .2-.2z"/><path class="cls-11" d="M314.54 211.49a.18.18 0 0 1 .2.2v1.39a.18.18 0 0 1-.2.2h-9.29a.18.18 0 0 1-.19-.2v-1.39a.18.18 0 0 1 .19-.2z"/><path class="cls-11" d="M323.74 211.49a.18.18 0 0 1 .2.2v1.39a.18.18 0 0 1-.2.2h-9.29a.18.18 0 0 1-.2-.2v-1.39a.19.19 0 0 1 .2-.2z"/><path class="cls-11" d="M332.94 211.49a.18.18 0 0 1 .2.2v1.39a.18.18 0 0 1-.2.2h-9.29a.18.18 0 0 1-.2-.2v-1.39a.18.18 0 0 1 .2-.2z"/><path class="cls-11" d="M342.14 211.49a.19.19 0 0 1 .2.2v1.39a.18.18 0 0 1-.2.2h-9.29a.18.18 0 0 1-.2-.2v-1.39a.18.18 0 0 1 .2-.2z"/><path class="cls-11" d="M351.34 211.49a.18.18 0 0 1 .19.2v1.39a.18.18 0 0 1-.19.2H342a.18.18 0 0 1-.19-.2v-1.39a.18.18 0 0 1 .19-.2z"/><path class="cls-11" d="M360.53 211.49a.18.18 0 0 1 .2.2v1.39a.18.18 0 0 1-.2.2h-9.29a.18.18 0 0 1-.2-.2v-1.39a.19.19 0 0 1 .2-.2z"/><path class="cls-11" d="M369.73 211.49a.18.18 0 0 1 .2.2v1.39a.18.18 0 0 1-.2.2h-9.29a.18.18 0 0 1-.2-.2v-1.39a.18.18 0 0 1 .2-.2z"/><path class="cls-11" d="M378.93 211.49a.19.19 0 0 1 .2.2v1.39a.18.18 0 0 1-.2.2h-9.29a.18.18 0 0 1-.2-.2v-1.39a.18.18 0 0 1 .2-.2z"/><path class="cls-11" d="M388.13 211.49a.19.19 0 0 1 .2.2v1.39a.18.18 0 0 1-.2.2h-9.29a.18.18 0 0 1-.2-.2v-1.39a.18.18 0 0 1 .2-.2z"/><path class="cls-11" d="M397.33 211.49a.18.18 0 0 1 .19.2v1.39a.18.18 0 0 1-.19.2H388a.18.18 0 0 1-.19-.2v-1.39a.18.18 0 0 1 .19-.2z"/><path class="cls-11" d="M406.52 211.49a.18.18 0 0 1 .2.2v1.39a.18.18 0 0 1-.2.2h-9.29a.18.18 0 0 1-.2-.2v-1.39a.19.19 0 0 1 .2-.2z"/><path class="cls-11" d="M415.72 211.49a.18.18 0 0 1 .2.2v1.39a.18.18 0 0 1-.2.2h-9.29a.18.18 0 0 1-.2-.2v-1.39a.18.18 0 0 1 .2-.2z"/><path class="cls-11" d="M424.92 211.49a.19.19 0 0 1 .2.2v1.39a.18.18 0 0 1-.2.2h-9.29a.18.18 0 0 1-.2-.2v-1.39a.18.18 0 0 1 .2-.2z"/><path class="cls-11" d="M434.12 211.49a.18.18 0 0 1 .19.2v1.39a.18.18 0 0 1-.19.2h-9.29a.18.18 0 0 1-.2-.2v-1.39a.18.18 0 0 1 .2-.2z"/><path class="cls-11" d="M443.31 211.49a.18.18 0 0 1 .2.2v1.39a.18.18 0 0 1-.2.2H434a.18.18 0 0 1-.2-.2v-1.39a.19.19 0 0 1 .2-.2z"/><path class="cls-11" d="M452.51 211.49a.18.18 0 0 1 .2.2v1.39a.18.18 0 0 1-.2.2h-9.29a.18.18 0 0 1-.2-.2v-1.39a.18.18 0 0 1 .2-.2z"/><path class="cls-11" d="M461.71 211.49a.19.19 0 0 1 .2.2v1.39a.18.18 0 0 1-.2.2h-9.29a.18.18 0 0 1-.2-.2v-1.39a.18.18 0 0 1 .2-.2z"/><path class="cls-11" d="M470.91 211.49a.19.19 0 0 1 .2.2v1.39a.18.18 0 0 1-.2.2h-9.29a.18.18 0 0 1-.2-.2v-1.39a.18.18 0 0 1 .2-.2z"/><path class="cls-11" d="M480.1 211.49a.18.18 0 0 1 .2.2v1.39a.18.18 0 0 1-.2.2h-9.29a.18.18 0 0 1-.19-.2v-1.39a.18.18 0 0 1 .19-.2z"/><path class="cls-11" d="M489.3 211.49a.18.18 0 0 1 .2.2v1.39a.18.18 0 0 1-.2.2H480a.18.18 0 0 1-.2-.2v-1.39a.18.18 0 0 1 .2-.2z"/><path class="cls-11" d="M498.5 211.49a.18.18 0 0 1 .2.2v1.39a.18.18 0 0 1-.2.2h-9.29a.18.18 0 0 1-.2-.2v-1.39a.18.18 0 0 1 .2-.2z"/><path class="cls-11" d="M507.7 211.49a.19.19 0 0 1 .2.2v1.39a.18.18 0 0 1-.2.2h-9.29a.18.18 0 0 1-.2-.2v-1.39a.18.18 0 0 1 .2-.2z"/><path class="cls-11" d="M516.9 211.49a.18.18 0 0 1 .19.2v1.39a.18.18 0 0 1-.19.2h-9.3a.18.18 0 0 1-.19-.2v-1.39a.18.18 0 0 1 .19-.2z"/><path class="cls-11" d="M526.09 211.49a.18.18 0 0 1 .2.2v1.39a.18.18 0 0 1-.2.2h-9.29a.18.18 0 0 1-.2-.2v-1.39a.19.19 0 0 1 .2-.2z"/><path class="cls-11" d="M535.29 211.49a.18.18 0 0 1 .2.2v1.39a.18.18 0 0 1-.2.2H526a.18.18 0 0 1-.2-.2v-1.39a.18.18 0 0 1 .2-.2z"/><path class="cls-11" d="M544.49 211.49a.18.18 0 0 1 .2.2v1.39a.18.18 0 0 1-.2.2h-9.29a.18.18 0 0 1-.2-.2v-1.39a.18.18 0 0 1 .2-.2z"/><path class="cls-11" d="M553.69 211.49a.18.18 0 0 1 .19.2v1.39a.18.18 0 0 1-.19.2h-9.29a.18.18 0 0 1-.2-.2v-1.39a.18.18 0 0 1 .2-.2z"/><path class="cls-11" d="M562.88 211.49a.18.18 0 0 1 .2.2v1.39a.18.18 0 0 1-.2.2h-9.29a.18.18 0 0 1-.2-.2v-1.39a.19.19 0 0 1 .2-.2z"/><path class="cls-11" d="M572.08 211.49a.18.18 0 0 1 .2.2v1.39a.18.18 0 0 1-.2.2h-9.29a.18.18 0 0 1-.2-.2v-1.39a.19.19 0 0 1 .2-.2z"/><path class="cls-11" d="M581.28 211.49a.18.18 0 0 1 .2.2v1.39a.18.18 0 0 1-.2.2H572a.18.18 0 0 1-.2-.2v-1.39a.18.18 0 0 1 .2-.2z"/><path class="cls-11" d="M590.48 211.49a.19.19 0 0 1 .2.2v1.39a.18.18 0 0 1-.2.2h-9.29a.18.18 0 0 1-.2-.2v-1.39a.18.18 0 0 1 .2-.2z"/><path class="cls-11" d="M599.67 211.49a.18.18 0 0 1 .2.2v1.39a.18.18 0 0 1-.2.2h-9.29a.18.18 0 0 1-.19-.2v-1.39a.18.18 0 0 1 .19-.2z"/><path class="cls-11" d="M608.87 211.49a.18.18 0 0 1 .2.2v1.39a.18.18 0 0 1-.2.2h-9.29a.18.18 0 0 1-.2-.2v-1.39a.19.19 0 0 1 .2-.2z"/><path class="cls-11" d="M618.07 211.49a.18.18 0 0 1 .2.2v1.39a.18.18 0 0 1-.2.2h-9.29a.18.18 0 0 1-.2-.2v-1.39a.18.18 0 0 1 .2-.2z"/><path class="cls-11" d="M627.27 211.49a.19.19 0 0 1 .2.2v1.39a.18.18 0 0 1-.2.2H618a.18.18 0 0 1-.2-.2v-1.39a.18.18 0 0 1 .2-.2z"/><path class="cls-11" d="M636.47 211.49a.18.18 0 0 1 .19.2v1.39a.18.18 0 0 1-.19.2h-9.3a.18.18 0 0 1-.19-.2v-1.39a.18.18 0 0 1 .19-.2z"/><path class="cls-11" d="M645.66 211.49a.18.18 0 0 1 .2.2v1.39a.18.18 0 0 1-.2.2h-9.29a.18.18 0 0 1-.2-.2v-1.39a.19.19 0 0 1 .2-.2z"/><path class="cls-11" d="M654.86 211.49a.18.18 0 0 1 .2.2v1.39a.18.18 0 0 1-.2.2h-9.29a.18.18 0 0 1-.2-.2v-1.39a.19.19 0 0 1 .2-.2z"/><path class="cls-10" d="M205.9 235.22a.19.19 0 0 1-.21.2h-1.75a.19.19 0 0 1-.21-.2v-5.08l-.95.33a7.3 7.3 0 0 1-2.49.38c-2.71 0-4.27-1.64-4.27-4.37v-4.13a.19.19 0 0 1 .21-.21H198a.19.19 0 0 1 .21.21v3.77c0 1.82.79 2.75 2.31 2.75a5.9 5.9 0 0 0 1.88-.28l1.37-.46v-5.78a.19.19 0 0 1 .21-.21h1.75a.19.19 0 0 1 .21.21zM216.16 227.88a.19.19 0 0 1-.21.21h-2.79v7.13a.19.19 0 0 1-.21.2h-1.71a.18.18 0 0 1-.21-.2v-7.13h-2.79a.19.19 0 0 1-.21-.21v-1.46a.19.19 0 0 1 .21-.21H216a.19.19 0 0 1 .21.21zM226.19 230.81c0 3-1.67 4.82-4.37 4.82s-4.39-1.86-4.39-4.82 1.67-4.79 4.39-4.79 4.37 1.86 4.37 4.79zm-6.67 0c0 1.82.86 2.9 2.3 2.9s2.28-1.08 2.28-2.9-.87-2.89-2.28-2.89-2.3 1.08-2.3 2.89zM241.58 233.54a.19.19 0 0 1 .21.21v4.43a.19.19 0 0 1-.21.21H240a.19.19 0 0 1-.21-.21v-2.76h-6.36v2.76a.19.19 0 0 1-.21.21h-1.54a.19.19 0 0 1-.21-.21v-4.43a.19.19 0 0 1 .21-.21h.78l.47-1a5.82 5.82 0 0 0 .42-2.49v-3.65a.19.19 0 0 1 .21-.21h6.82a.19.19 0 0 1 .21.21v7.12zm-6.08-3.47a6.55 6.55 0 0 1-.5 2.93l-.27.59h3.8v-5.45h-3zM249.66 235.39a8 8 0 0 1-1.94.24c-2.87 0-4.49-1.86-4.49-4.8s1.64-4.81 4.41-4.81c2.28 0 3.67 1.14 3.67 3 0 1.46-.89 2.3-2.8 2.58l-3 .46a2 2 0 0 0 2.17 1.63 4.92 4.92 0 0 0 1.5-.19l.84-.2a.19.19 0 0 1 .26.15l.38 1.42a.2.2 0 0 1-.15.27zm-1.47-5.4c.67-.11 1-.42 1-.91 0-.76-.59-1.16-1.62-1.16-1.25 0-2.11.78-2.26 2.53zM261.61 235.22a.19.19 0 0 1-.21.2h-1.69a.18.18 0 0 1-.21-.2v-7.13h-3v2.77a4.53 4.53 0 0 1-2.59 4.53l-.55.26a.19.19 0 0 1-.28-.09l-.63-1.35c-.06-.13 0-.23.1-.29l.55-.26c.87-.48 1.29-1.35 1.29-2.8v-4.44a.19.19 0 0 1 .21-.21h6.82a.19.19 0 0 1 .21.21zM265.31 226.31a7.09 7.09 0 0 1 2.07-.29c2.57 0 4.14 1.33 4.14 3.63v5.57a.18.18 0 0 1-.21.2h-.95a.22.22 0 0 1-.24-.17l-.16-.59c-.11-.26-.22-.26-.47 0a3.36 3.36 0 0 1-2.6 1c-2.11 0-3.29-1.08-3.29-2.87s1.22-2.92 3.46-2.92h2.37v-.12c0-1.15-.74-1.78-2.14-1.78a5.38 5.38 0 0 0-1.49.19l-.68.21a.2.2 0 0 1-.27-.15l-.41-1.41a.2.2 0 0 1 .15-.27zm1.75 5.18c-.93 0-1.37.44-1.37 1.08s.51 1.2 1.43 1.2c1.5 0 2.31-.74 2.31-2.15v-.13zM281.23 227.88a.19.19 0 0 1-.21.21h-2.79v7.13a.18.18 0 0 1-.21.2h-1.71a.19.19 0 0 1-.21-.2v-7.13h-2.79a.19.19 0 0 1-.21-.21v-1.46a.19.19 0 0 1 .21-.21H281a.19.19 0 0 1 .21.21zM283.4 235.42a.19.19 0 0 1-.21-.2v-8.8a.19.19 0 0 1 .21-.21h1.69a.19.19 0 0 1 .21.21v2.7h1.35c2.54 0 4 1.19 4 3.23s-1.28 3.07-3.5 3.07zm3.78-1.88c.87 0 1.41-.43 1.41-1.19s-.73-1.35-1.94-1.35h-1.35v2.54zM293.64 238.1h-1.33l1-1.92c.23-.39.19-.55-.15-.64a1.37 1.37 0 0 1 .53-2.62c.81 0 1.33.59 1.33 1.54a4.4 4.4 0 0 1-.65 2.2zM307.23 235.39a8 8 0 0 1-1.94.24c-2.87 0-4.49-1.86-4.49-4.8s1.64-4.81 4.41-4.81c2.28 0 3.67 1.14 3.67 3 0 1.46-.89 2.3-2.8 2.58l-3 .46a2 2 0 0 0 2.17 1.63 4.92 4.92 0 0 0 1.5-.19l.84-.2a.19.19 0 0 1 .26.15l.38 1.42a.2.2 0 0 1-.15.27zm-1.47-5.4c.67-.11 1-.42 1-.91 0-.76-.59-1.16-1.62-1.16-1.25 0-2.11.78-2.26 2.53zM316.78 235.39a7 7 0 0 1-1.76.24c-2.91 0-4.51-1.86-4.51-4.82s1.58-4.79 4.56-4.79a5.88 5.88 0 0 1 1.64.23l.81.23a.18.18 0 0 1 .15.26l-.43 1.43a.19.19 0 0 1-.25.13l-.64-.17a4.46 4.46 0 0 0-1.28-.21c-1.69 0-2.47 1.08-2.47 2.87s.82 2.92 2.43 2.92a5.7 5.7 0 0 0 1.41-.2l.63-.19a.19.19 0 0 1 .26.13l.44 1.42a.2.2 0 0 1-.15.27zM328.28 235.22a.19.19 0 0 1-.21.2h-1.69a.18.18 0 0 1-.21-.2v-7.13h-3v2.77a4.53 4.53 0 0 1-2.59 4.53l-.55.26a.19.19 0 0 1-.28-.09l-.63-1.35c-.06-.13 0-.23.1-.29l.55-.26c.87-.48 1.29-1.35 1.29-2.8v-4.44a.19.19 0 0 1 .21-.21h6.82a.19.19 0 0 1 .21.21zM337.19 235.42a.18.18 0 0 1-.21-.2v-3.58a14 14 0 0 1 .15-2.39c0-.17-.13-.27-.21-.06l-.57 1.07-2.28 3.64c-.23.44-.47.92-.66 1.35a.22.22 0 0 1-.23.17H331a.19.19 0 0 1-.21-.2v-8.8a.19.19 0 0 1 .21-.21h1.71a.19.19 0 0 1 .21.21V230a14.11 14.11 0 0 1-.19 2.39c0 .16.13.25.23 0s.38-.7.55-1l2.28-3.67c.23-.44.47-.93.66-1.37a.24.24 0 0 1 .23-.15h2.17a.19.19 0 0 1 .21.21v8.8a.19.19 0 0 1-.21.2zM353.11 227.88a.19.19 0 0 1-.21.21h-2.79v7.13a.19.19 0 0 1-.21.2h-1.71a.19.19 0 0 1-.21-.2v-7.13h-2.79a.19.19 0 0 1-.21-.21v-1.46a.19.19 0 0 1 .21-.21h7.71a.19.19 0 0 1 .21.21zM360.81 235.39a8 8 0 0 1-1.94.24c-2.87 0-4.49-1.86-4.49-4.8S356 226 358.79 226c2.28 0 3.67 1.14 3.67 3 0 1.46-.89 2.3-2.79 2.58l-3 .46a2 2 0 0 0 2.17 1.63 4.92 4.92 0 0 0 1.5-.19l.84-.2a.19.19 0 0 1 .26.15l.38 1.42a.2.2 0 0 1-.15.27zm-1.47-5.4c.67-.11 1-.42 1-.91 0-.76-.59-1.16-1.62-1.16-1.25 0-2.11.78-2.26 2.53zM372 223.25a.17.17 0 0 1-.13.24l-3 .94a3.33 3.33 0 0 0-2.53 2.75c-.09.3.1.42.31.23a3.57 3.57 0 0 1 2.47-.88c2.43 0 4 1.71 4 4.53s-1.71 4.55-4.39 4.55-4.37-1.72-4.37-4.54V228c0-2.88 1.23-4.59 3.93-5.43l3-.93a.2.2 0 0 1 .27.15zm-5.54 7.82c0 1.66.87 2.64 2.3 2.64s2.28-1 2.28-2.64-.86-2.64-2.28-2.64-2.29.97-2.29 2.64zM382.6 235.22a.19.19 0 0 1-.21.2h-1.69a.18.18 0 0 1-.21-.2v-3.08h-.76c-1.29 0-1.82.64-2.36 1.78l-.6 1.35a.27.27 0 0 1-.25.15h-1.81c-.15 0-.22-.09-.15-.24l1-2.15a2.79 2.79 0 0 1 1.33-1.44c.17-.08.19-.16 0-.25a2.49 2.49 0 0 1-1.77-2.32c0-1.75 1.26-2.81 3.48-2.81h3.84a.19.19 0 0 1 .21.21zm-4.14-7.13c-.84 0-1.33.42-1.33 1.1s.6 1.12 1.67 1.12h1.69v-2.22zM390.69 227.18c.08.21.23.19.36 0a3.37 3.37 0 0 1 2.66-1.18c2.49 0 4 1.84 4 4.79s-1.59 4.82-4.25 4.82a3.85 3.85 0 0 1-1.73-.36l-.51-.23v4.26a.19.19 0 0 1-.21.21h-1.69a.19.19 0 0 1-.21-.21v-12.86a.19.19 0 0 1 .21-.21h.95a.2.2 0 0 1 .22.17zm1.07 6.21a3.39 3.39 0 0 0 1.55.32c1.47 0 2.3-1.08 2.3-2.9s-.83-2.89-2.24-2.89-2.18 1.18-2.18 2.83v2.38zM405.76 235.39a8 8 0 0 1-1.94.24c-2.87 0-4.48-1.86-4.48-4.8S401 226 403.75 226c2.27 0 3.66 1.14 3.66 3 0 1.46-.89 2.3-2.79 2.58l-3 .46a2 2 0 0 0 2.16 1.63 4.92 4.92 0 0 0 1.5-.19l.84-.2a.18.18 0 0 1 .26.15l.38 1.42a.2.2 0 0 1-.15.27zM404.3 230c.66-.11 1-.42 1-.91 0-.76-.59-1.16-1.61-1.16-1.26 0-2.11.78-2.26 2.53zM411.61 235.22a.18.18 0 0 1-.21.2h-1.69a.19.19 0 0 1-.21-.2v-8.8a.19.19 0 0 1 .21-.21h6.18c.15 0 .22.1.17.23l-.42 1.48a.24.24 0 0 1-.25.17h-3.78zM422.71 236.43c-.82 2.11-2 3.08-3.86 3.08h-.7a.19.19 0 0 1-.21-.21v-1.46a.19.19 0 0 1 .21-.21h.62a1.56 1.56 0 0 0 1.62-1.12l.28-.67c.35-.82 0-1.84-.64-3.44l-2.61-5.94c-.07-.15 0-.25.16-.25h1.78a.28.28 0 0 1 .25.15l1.71 3.88a11.84 11.84 0 0 1 .72 2.41c.06.23.25.23.31 0a15.32 15.32 0 0 1 .68-2.41l1.6-3.86a.21.21 0 0 1 .22-.17h1.79a.17.17 0 0 1 .17.25zM436.59 235.22a.18.18 0 0 1-.2.2h-1.69a.18.18 0 0 1-.21-.2v-7.13h-3v2.77a4.53 4.53 0 0 1-2.59 4.53l-.55.26a.19.19 0 0 1-.28-.09l-.63-1.35c-.06-.13 0-.23.09-.29l.56-.26c.87-.48 1.29-1.35 1.29-2.8v-4.44a.19.19 0 0 1 .21-.21h6.82a.19.19 0 0 1 .2.21zM446.67 235.22a.19.19 0 0 1-.21.2h-1.7a.18.18 0 0 1-.2-.2v-3.08h-.76c-1.3 0-1.83.64-2.36 1.78l-.61 1.35a.25.25 0 0 1-.24.15h-1.81c-.15 0-.23-.09-.15-.24l1-2.15a2.71 2.71 0 0 1 1.33-1.44c.17-.08.19-.16 0-.25a2.49 2.49 0 0 1-1.77-2.32c0-1.75 1.26-2.81 3.48-2.81h3.84a.19.19 0 0 1 .21.21zm-4.15-7.13c-.83 0-1.33.42-1.33 1.1s.61 1.12 1.68 1.12h1.69v-2.22zM450.81 227.18c.07.21.23.19.36 0a3.35 3.35 0 0 1 2.66-1.18c2.49 0 4 1.84 4 4.79s-1.6 4.82-4.26 4.82a3.88 3.88 0 0 1-1.73-.36l-.51-.23v4.26a.19.19 0 0 1-.21.21h-1.69a.19.19 0 0 1-.21-.21v-12.86a.19.19 0 0 1 .21-.21h.95a.21.21 0 0 1 .23.17zm1.06 6.21a3.46 3.46 0 0 0 1.56.32c1.46 0 2.3-1.08 2.3-2.9s-.84-2.89-2.24-2.89-2.19 1.18-2.19 2.83v2.38zM467.83 235.22a.19.19 0 0 1-.21.2h-1.71a.19.19 0 0 1-.21-.2v-3.52H462v3.52a.19.19 0 0 1-.21.2h-1.69a.18.18 0 0 1-.21-.2v-8.8a.19.19 0 0 1 .21-.21h1.69a.19.19 0 0 1 .21.21v3.4h3.68v-3.4a.19.19 0 0 1 .21-.21h1.71a.19.19 0 0 1 .21.21zM478.68 230.81c0 3-1.67 4.82-4.37 4.82s-4.39-1.86-4.39-4.82 1.67-4.79 4.39-4.79 4.37 1.86 4.37 4.79zm-6.67 0c0 1.82.86 2.9 2.3 2.9s2.28-1.08 2.28-2.9-.87-2.89-2.28-2.89S472 229 472 230.81zM493 230.81c0 3-1.67 4.82-4.37 4.82s-4.38-1.86-4.38-4.82 1.67-4.79 4.38-4.79 4.37 1.86 4.37 4.79zm-6.66 0c0 1.82.85 2.9 2.29 2.9s2.28-1.08 2.28-2.9-.87-2.89-2.28-2.89-2.27 1.08-2.27 2.89zM502.58 223.25a.18.18 0 0 1-.13.24l-3 .94a3.33 3.33 0 0 0-2.53 2.75c-.09.3.1.42.3.23a3.58 3.58 0 0 1 2.47-.88c2.44 0 4 1.71 4 4.53s-1.71 4.55-4.39 4.55-4.37-1.72-4.37-4.54V228c0-2.88 1.24-4.59 3.94-5.43l3-.93a.19.19 0 0 1 .26.15zm-5.58 7.82c0 1.66.88 2.64 2.3 2.64s2.28-1 2.28-2.64-.85-2.64-2.28-2.64-2.3.97-2.3 2.64zM512.16 235.42a.18.18 0 0 1-.21-.2v-3.58a14 14 0 0 1 .15-2.39c0-.17-.13-.27-.21-.06l-.57 1.07-2.32 3.64c-.23.44-.47.92-.66 1.35a.22.22 0 0 1-.23.17H506a.19.19 0 0 1-.21-.2v-8.8a.19.19 0 0 1 .21-.21h1.71a.19.19 0 0 1 .21.21V230a14.11 14.11 0 0 1-.19 2.39c0 .16.13.25.23 0s.38-.7.55-1l2.28-3.67c.23-.44.47-.93.66-1.37a.24.24 0 0 1 .23-.15h2.17a.19.19 0 0 1 .21.21v8.8a.19.19 0 0 1-.21.2zM527.34 229.08a3.47 3.47 0 0 1-1.49 1.58c-.11 0-.09.13 0 .19a3.17 3.17 0 0 1 1.58 1.61l1.48 2.72c.08.15 0 .24-.15.24h-1.82a.24.24 0 0 1-.25-.15l-1.31-2.37c-.4-.69-.91-1.18-1.46-1.18h-.29v3.5a.18.18 0 0 1-.21.2h-1.69a.19.19 0 0 1-.21-.2v-3.5h-.28c-.55 0-1.08.51-1.46 1.18l-1.32 2.37a.22.22 0 0 1-.24.15h-1.83c-.17 0-.22-.09-.15-.24l1.48-2.72a3.33 3.33 0 0 1 1.58-1.61c.12-.06.12-.16 0-.19a3.56 3.56 0 0 1-1.48-1.58l-1.43-2.62c-.07-.15 0-.25.16-.25h1.82a.26.26 0 0 1 .25.15l1 1.85c.4.72 1.05 1.61 1.67 1.61h.21v-3.4a.19.19 0 0 1 .21-.21h1.69a.19.19 0 0 1 .21.21v3.4h.23c.61 0 1.25-.89 1.65-1.61l1-1.85a.25.25 0 0 1 .25-.15h1.84c.17 0 .23.1.15.25zM532.15 226.31a7 7 0 0 1 2.07-.29c2.56 0 4.14 1.33 4.14 3.63v5.57a.19.19 0 0 1-.21.2h-.95a.23.23 0 0 1-.25-.17l-.15-.59c-.11-.26-.23-.26-.47 0a3.38 3.38 0 0 1-2.61 1c-2.11 0-3.28-1.08-3.28-2.87s1.21-2.92 3.45-2.92h2.38v-.12c0-1.15-.74-1.78-2.15-1.78a5.31 5.31 0 0 0-1.48.19l-.68.21a.2.2 0 0 1-.27-.15l-.42-1.41a.2.2 0 0 1 .15-.27zm1.74 5.18c-.93 0-1.36.44-1.36 1.08s.51 1.2 1.42 1.2c1.5 0 2.32-.74 2.32-2.15v-.13zM544.82 229.82a4.09 4.09 0 0 1 4.31-3.8c2.7 0 4.37 1.86 4.37 4.79s-1.67 4.82-4.37 4.82a4.13 4.13 0 0 1-4.33-3.93h-1.92v3.52a.19.19 0 0 1-.21.2H541a.19.19 0 0 1-.21-.2v-8.8a.19.19 0 0 1 .21-.21h1.69a.19.19 0 0 1 .21.21v3.4zm6.59 1c0-1.81-.87-2.89-2.28-2.89s-2.3 1.08-2.3 2.89.86 2.9 2.3 2.9 2.28-1.09 2.28-2.91zM562.91 227.88a.19.19 0 0 1-.21.21h-2.79v7.13a.19.19 0 0 1-.21.2H558a.18.18 0 0 1-.21-.2v-7.13H555a.19.19 0 0 1-.2-.21v-1.46a.19.19 0 0 1 .2-.21h7.72a.19.19 0 0 1 .21.21zM565.74 222.45a10.21 10.21 0 0 1 3.09-.49c2.85 0 4.41 1.32 4.41 3.47a3.67 3.67 0 0 1-1.88 3.12l-1 .74a1.72 1.72 0 0 0-.76 1.42v1a.19.19 0 0 1-.21.21h-1.71a.19.19 0 0 1-.21-.21v-1a3.43 3.43 0 0 1 1.65-3l1.09-.74a1.74 1.74 0 0 0 .94-1.5c0-.83-.94-1.44-2.28-1.44a8.33 8.33 0 0 0-2.45.38l-1.1.36a.2.2 0 0 1-.26-.13l-.54-1.52c-.05-.12 0-.21.14-.25zm4.18 11.83a1.24 1.24 0 0 1-1.33 1.37 1.37 1.37 0 0 1 0-2.73 1.24 1.24 0 0 1 1.33 1.36z"/><path class="cls-11" d="M204.17 250.49a.18.18 0 0 1 .2.2v1.39a.18.18 0 0 1-.2.2h-9.29a.18.18 0 0 1-.2-.2v-1.39a.18.18 0 0 1 .2-.2z"/><path class="cls-11" d="M213.37 250.49a.18.18 0 0 1 .2.2v1.39a.18.18 0 0 1-.2.2h-9.29a.18.18 0 0 1-.2-.2v-1.39a.18.18 0 0 1 .2-.2z"/><path class="cls-11" d="M222.57 250.49a.19.19 0 0 1 .2.2v1.39a.18.18 0 0 1-.2.2h-9.29a.18.18 0 0 1-.2-.2v-1.39a.18.18 0 0 1 .2-.2z"/><path class="cls-11" d="M231.76 250.49a.18.18 0 0 1 .2.2v1.39a.18.18 0 0 1-.2.2h-9.29a.18.18 0 0 1-.19-.2v-1.39a.18.18 0 0 1 .19-.2z"/><path class="cls-11" d="M241 250.49a.18.18 0 0 1 .2.2v1.39a.18.18 0 0 1-.2.2h-9.29a.18.18 0 0 1-.2-.2v-1.39a.19.19 0 0 1 .2-.2z"/><path class="cls-11" d="M250.16 250.49a.18.18 0 0 1 .2.2v1.39a.18.18 0 0 1-.2.2h-9.29a.18.18 0 0 1-.2-.2v-1.39a.18.18 0 0 1 .2-.2z"/><path class="cls-11" d="M259.36 250.49a.19.19 0 0 1 .2.2v1.39a.18.18 0 0 1-.2.2h-9.29a.18.18 0 0 1-.2-.2v-1.39a.18.18 0 0 1 .2-.2z"/><path class="cls-11" d="M268.56 250.49a.18.18 0 0 1 .19.2v1.39a.18.18 0 0 1-.19.2h-9.3a.18.18 0 0 1-.19-.2v-1.39a.18.18 0 0 1 .19-.2z"/><path class="cls-11" d="M277.75 250.49a.18.18 0 0 1 .2.2v1.39a.18.18 0 0 1-.2.2h-9.29a.18.18 0 0 1-.2-.2v-1.39a.19.19 0 0 1 .2-.2z"/><path class="cls-11" d="M287 250.49a.18.18 0 0 1 .2.2v1.39a.18.18 0 0 1-.2.2h-9.29a.18.18 0 0 1-.2-.2v-1.39a.19.19 0 0 1 .2-.2z"/><path class="cls-11" d="M296.15 250.49a.18.18 0 0 1 .2.2v1.39a.18.18 0 0 1-.2.2h-9.29a.18.18 0 0 1-.2-.2v-1.39a.18.18 0 0 1 .2-.2z"/><path class="cls-11" d="M305.35 250.49a.18.18 0 0 1 .19.2v1.39a.18.18 0 0 1-.19.2h-9.29a.18.18 0 0 1-.2-.2v-1.39a.18.18 0 0 1 .2-.2z"/><path class="cls-11" d="M314.54 250.49a.18.18 0 0 1 .2.2v1.39a.18.18 0 0 1-.2.2h-9.29a.18.18 0 0 1-.19-.2v-1.39a.18.18 0 0 1 .19-.2z"/><path class="cls-11" d="M323.74 250.49a.18.18 0 0 1 .2.2v1.39a.18.18 0 0 1-.2.2h-9.29a.18.18 0 0 1-.2-.2v-1.39a.19.19 0 0 1 .2-.2z"/><path class="cls-11" d="M332.94 250.49a.18.18 0 0 1 .2.2v1.39a.18.18 0 0 1-.2.2h-9.29a.18.18 0 0 1-.2-.2v-1.39a.18.18 0 0 1 .2-.2z"/><path class="cls-11" d="M342.14 250.49a.19.19 0 0 1 .2.2v1.39a.18.18 0 0 1-.2.2h-9.29a.18.18 0 0 1-.2-.2v-1.39a.18.18 0 0 1 .2-.2z"/><path class="cls-11" d="M351.34 250.49a.18.18 0 0 1 .19.2v1.39a.18.18 0 0 1-.19.2H342a.18.18 0 0 1-.19-.2v-1.39a.18.18 0 0 1 .19-.2z"/><path class="cls-11" d="M360.53 250.49a.18.18 0 0 1 .2.2v1.39a.18.18 0 0 1-.2.2h-9.29a.18.18 0 0 1-.2-.2v-1.39a.19.19 0 0 1 .2-.2z"/><path class="cls-11" d="M369.73 250.49a.18.18 0 0 1 .2.2v1.39a.18.18 0 0 1-.2.2h-9.29a.18.18 0 0 1-.2-.2v-1.39a.18.18 0 0 1 .2-.2z"/><path class="cls-11" d="M378.93 250.49a.19.19 0 0 1 .2.2v1.39a.18.18 0 0 1-.2.2h-9.29a.18.18 0 0 1-.2-.2v-1.39a.18.18 0 0 1 .2-.2z"/><path class="cls-11" d="M388.13 250.49a.19.19 0 0 1 .2.2v1.39a.18.18 0 0 1-.2.2h-9.29a.18.18 0 0 1-.2-.2v-1.39a.18.18 0 0 1 .2-.2z"/><path class="cls-11" d="M397.33 250.49a.18.18 0 0 1 .19.2v1.39a.18.18 0 0 1-.19.2H388a.18.18 0 0 1-.19-.2v-1.39a.18.18 0 0 1 .19-.2z"/><path class="cls-11" d="M406.52 250.49a.18.18 0 0 1 .2.2v1.39a.18.18 0 0 1-.2.2h-9.29a.18.18 0 0 1-.2-.2v-1.39a.19.19 0 0 1 .2-.2z"/><path class="cls-11" d="M415.72 250.49a.18.18 0 0 1 .2.2v1.39a.18.18 0 0 1-.2.2h-9.29a.18.18 0 0 1-.2-.2v-1.39a.18.18 0 0 1 .2-.2z"/><path class="cls-11" d="M424.92 250.49a.19.19 0 0 1 .2.2v1.39a.18.18 0 0 1-.2.2h-9.29a.18.18 0 0 1-.2-.2v-1.39a.18.18 0 0 1 .2-.2z"/><path class="cls-11" d="M434.12 250.49a.18.18 0 0 1 .19.2v1.39a.18.18 0 0 1-.19.2h-9.29a.18.18 0 0 1-.2-.2v-1.39a.18.18 0 0 1 .2-.2z"/><path class="cls-11" d="M443.31 250.49a.18.18 0 0 1 .2.2v1.39a.18.18 0 0 1-.2.2H434a.18.18 0 0 1-.2-.2v-1.39a.19.19 0 0 1 .2-.2z"/><path class="cls-11" d="M452.51 250.49a.18.18 0 0 1 .2.2v1.39a.18.18 0 0 1-.2.2h-9.29a.18.18 0 0 1-.2-.2v-1.39a.18.18 0 0 1 .2-.2z"/><path class="cls-11" d="M461.71 250.49a.19.19 0 0 1 .2.2v1.39a.18.18 0 0 1-.2.2h-9.29a.18.18 0 0 1-.2-.2v-1.39a.18.18 0 0 1 .2-.2z"/><path class="cls-11" d="M470.91 250.49a.19.19 0 0 1 .2.2v1.39a.18.18 0 0 1-.2.2h-9.29a.18.18 0 0 1-.2-.2v-1.39a.18.18 0 0 1 .2-.2z"/><path class="cls-11" d="M480.1 250.49a.18.18 0 0 1 .2.2v1.39a.18.18 0 0 1-.2.2h-9.29a.18.18 0 0 1-.19-.2v-1.39a.18.18 0 0 1 .19-.2z"/><path class="cls-11" d="M489.3 250.49a.18.18 0 0 1 .2.2v1.39a.18.18 0 0 1-.2.2H480a.18.18 0 0 1-.2-.2v-1.39a.18.18 0 0 1 .2-.2z"/><path class="cls-11" d="M498.5 250.49a.18.18 0 0 1 .2.2v1.39a.18.18 0 0 1-.2.2h-9.29a.18.18 0 0 1-.2-.2v-1.39a.18.18 0 0 1 .2-.2z"/><path class="cls-11" d="M507.7 250.49a.19.19 0 0 1 .2.2v1.39a.18.18 0 0 1-.2.2h-9.29a.18.18 0 0 1-.2-.2v-1.39a.18.18 0 0 1 .2-.2z"/><path class="cls-11" d="M516.9 250.49a.18.18 0 0 1 .19.2v1.39a.18.18 0 0 1-.19.2h-9.3a.18.18 0 0 1-.19-.2v-1.39a.18.18 0 0 1 .19-.2z"/><path class="cls-11" d="M526.09 250.49a.18.18 0 0 1 .2.2v1.39a.18.18 0 0 1-.2.2h-9.29a.18.18 0 0 1-.2-.2v-1.39a.19.19 0 0 1 .2-.2z"/><path class="cls-11" d="M535.29 250.49a.18.18 0 0 1 .2.2v1.39a.18.18 0 0 1-.2.2H526a.18.18 0 0 1-.2-.2v-1.39a.18.18 0 0 1 .2-.2z"/><path class="cls-11" d="M544.49 250.49a.18.18 0 0 1 .2.2v1.39a.18.18 0 0 1-.2.2h-9.29a.18.18 0 0 1-.2-.2v-1.39a.18.18 0 0 1 .2-.2z"/><path class="cls-11" d="M553.69 250.49a.18.18 0 0 1 .19.2v1.39a.18.18 0 0 1-.19.2h-9.29a.18.18 0 0 1-.2-.2v-1.39a.18.18 0 0 1 .2-.2z"/><path class="cls-11" d="M562.88 250.49a.18.18 0 0 1 .2.2v1.39a.18.18 0 0 1-.2.2h-9.29a.18.18 0 0 1-.2-.2v-1.39a.19.19 0 0 1 .2-.2z"/><path class="cls-11" d="M572.08 250.49a.18.18 0 0 1 .2.2v1.39a.18.18 0 0 1-.2.2h-9.29a.18.18 0 0 1-.2-.2v-1.39a.19.19 0 0 1 .2-.2z"/><path class="cls-11" d="M581.28 250.49a.18.18 0 0 1 .2.2v1.39a.18.18 0 0 1-.2.2H572a.18.18 0 0 1-.2-.2v-1.39a.18.18 0 0 1 .2-.2z"/><path class="cls-11" d="M590.48 250.49a.19.19 0 0 1 .2.2v1.39a.18.18 0 0 1-.2.2h-9.29a.18.18 0 0 1-.2-.2v-1.39a.18.18 0 0 1 .2-.2z"/><path class="cls-11" d="M599.67 250.49a.18.18 0 0 1 .2.2v1.39a.18.18 0 0 1-.2.2h-9.29a.18.18 0 0 1-.19-.2v-1.39a.18.18 0 0 1 .19-.2z"/><path class="cls-11" d="M608.87 250.49a.18.18 0 0 1 .2.2v1.39a.18.18 0 0 1-.2.2h-9.29a.18.18 0 0 1-.2-.2v-1.39a.19.19 0 0 1 .2-.2z"/><path class="cls-11" d="M618.07 250.49a.18.18 0 0 1 .2.2v1.39a.18.18 0 0 1-.2.2h-9.29a.18.18 0 0 1-.2-.2v-1.39a.18.18 0 0 1 .2-.2z"/><path class="cls-11" d="M627.27 250.49a.19.19 0 0 1 .2.2v1.39a.18.18 0 0 1-.2.2H618a.18.18 0 0 1-.2-.2v-1.39a.18.18 0 0 1 .2-.2z"/><path class="cls-11" d="M636.47 250.49a.18.18 0 0 1 .19.2v1.39a.18.18 0 0 1-.19.2h-9.3a.18.18 0 0 1-.19-.2v-1.39a.18.18 0 0 1 .19-.2z"/><path class="cls-11" d="M645.66 250.49a.18.18 0 0 1 .2.2v1.39a.18.18 0 0 1-.2.2h-9.29a.18.18 0 0 1-.2-.2v-1.39a.19.19 0 0 1 .2-.2z"/><path class="cls-11" d="M654.86 250.49a.18.18 0 0 1 .2.2v1.39a.18.18 0 0 1-.2.2h-9.29a.18.18 0 0 1-.2-.2v-1.39a.19.19 0 0 1 .2-.2z"/><path class="cls-10" d="M205.9 274.22a.19.19 0 0 1-.21.2h-1.75a.19.19 0 0 1-.21-.2v-5.08l-.95.33a7.3 7.3 0 0 1-2.49.38c-2.71 0-4.27-1.64-4.27-4.37v-4.13a.19.19 0 0 1 .21-.21H198a.19.19 0 0 1 .21.21v3.77c0 1.82.79 2.75 2.31 2.75a5.9 5.9 0 0 0 1.88-.28l1.37-.46v-5.78a.19.19 0 0 1 .21-.21h1.75a.19.19 0 0 1 .21.21zM216.16 266.88a.19.19 0 0 1-.21.21h-2.79v7.13a.19.19 0 0 1-.21.2h-1.71a.18.18 0 0 1-.21-.2v-7.13h-2.79a.19.19 0 0 1-.21-.21v-1.46a.19.19 0 0 1 .21-.21H216a.19.19 0 0 1 .21.21zM226.19 269.81c0 3-1.67 4.82-4.37 4.82s-4.39-1.86-4.39-4.82 1.67-4.79 4.39-4.79 4.37 1.86 4.37 4.79zm-6.67 0c0 1.82.86 2.9 2.3 2.9s2.28-1.08 2.28-2.9-.87-2.89-2.28-2.89-2.3 1.08-2.3 2.89zM241.58 272.54a.19.19 0 0 1 .21.21v4.43a.19.19 0 0 1-.21.21H240a.19.19 0 0 1-.21-.21v-2.76h-6.36v2.76a.19.19 0 0 1-.21.21h-1.54a.19.19 0 0 1-.21-.21v-4.43a.19.19 0 0 1 .21-.21h.78l.47-1a5.82 5.82 0 0 0 .42-2.49v-3.65a.19.19 0 0 1 .21-.21h6.82a.19.19 0 0 1 .21.21v7.12zm-6.08-3.47a6.55 6.55 0 0 1-.5 2.93l-.27.59h3.8v-5.45h-3zM249.66 274.39a8 8 0 0 1-1.94.24c-2.87 0-4.49-1.86-4.49-4.8s1.64-4.81 4.41-4.81c2.28 0 3.67 1.14 3.67 3 0 1.46-.89 2.3-2.8 2.58l-3 .46a2 2 0 0 0 2.17 1.63 4.92 4.92 0 0 0 1.5-.19l.84-.2a.19.19 0 0 1 .26.15l.38 1.42a.2.2 0 0 1-.15.27zm-1.47-5.4c.67-.11 1-.42 1-.91 0-.76-.59-1.16-1.62-1.16-1.25 0-2.11.78-2.26 2.53zM261.6 274.22a.18.18 0 0 1-.2.2h-1.69a.18.18 0 0 1-.21-.2v-7.13h-3v2.77a4.53 4.53 0 0 1-2.59 4.53l-.55.26a.19.19 0 0 1-.28-.09l-.63-1.35c-.06-.13 0-.23.09-.29l.56-.26c.87-.48 1.29-1.35 1.29-2.8v-4.44a.19.19 0 0 1 .21-.21h6.82a.19.19 0 0 1 .2.21zM265.31 265.31a7.09 7.09 0 0 1 2.07-.29c2.57 0 4.14 1.33 4.14 3.63v5.57a.18.18 0 0 1-.21.2h-.94a.22.22 0 0 1-.25-.17l-.15-.59c-.12-.26-.23-.26-.48 0a3.36 3.36 0 0 1-2.6 1c-2.11 0-3.29-1.08-3.29-2.87s1.22-2.92 3.46-2.92h2.37v-.12c0-1.15-.74-1.78-2.14-1.78a5.26 5.26 0 0 0-1.48.19l-.69.21a.19.19 0 0 1-.26-.15l-.42-1.41a.2.2 0 0 1 .15-.27zm1.75 5.18c-.93 0-1.37.44-1.37 1.08s.51 1.2 1.43 1.2c1.5 0 2.31-.74 2.31-2.15v-.13zM281.23 266.88a.19.19 0 0 1-.21.21h-2.79v7.13a.18.18 0 0 1-.21.2h-1.71a.19.19 0 0 1-.21-.2v-7.13h-2.79a.19.19 0 0 1-.21-.21v-1.46a.19.19 0 0 1 .21-.21H281a.19.19 0 0 1 .21.21zM283.4 274.42a.19.19 0 0 1-.21-.2v-8.8a.19.19 0 0 1 .21-.21h1.69a.19.19 0 0 1 .21.21v2.7h1.35c2.54 0 4 1.19 4 3.23s-1.28 3.07-3.5 3.07zm3.78-1.88c.87 0 1.41-.43 1.41-1.19s-.73-1.35-1.94-1.35h-1.35v2.54zM293.64 277.1h-1.33l1-1.92c.23-.39.19-.55-.15-.64a1.37 1.37 0 0 1 .53-2.62c.81 0 1.33.59 1.33 1.54a4.4 4.4 0 0 1-.65 2.2zM307.22 274.39a8 8 0 0 1-1.93.24c-2.87 0-4.49-1.86-4.49-4.8s1.64-4.81 4.41-4.81c2.28 0 3.67 1.14 3.67 3 0 1.46-.9 2.3-2.8 2.58l-3 .46a2 2 0 0 0 2.17 1.63 4.92 4.92 0 0 0 1.5-.19l.83-.2a.19.19 0 0 1 .27.15l.38 1.42a.2.2 0 0 1-.15.27zm-1.46-5.4c.67-.11 1-.42 1-.91 0-.76-.59-1.16-1.62-1.16-1.25 0-2.11.78-2.26 2.53zM316.78 274.39a7.06 7.06 0 0 1-1.77.24c-2.9 0-4.5-1.86-4.5-4.82s1.58-4.79 4.56-4.79a5.88 5.88 0 0 1 1.64.23l.81.23a.18.18 0 0 1 .15.26l-.43 1.43a.19.19 0 0 1-.25.13l-.65-.17a4.35 4.35 0 0 0-1.27-.21c-1.69 0-2.47 1.08-2.47 2.87s.82 2.92 2.43 2.92a5.76 5.76 0 0 0 1.41-.2l.63-.19a.19.19 0 0 1 .26.13l.44 1.42a.2.2 0 0 1-.15.27zM328.28 274.22a.19.19 0 0 1-.21.2h-1.69a.18.18 0 0 1-.21-.2v-7.13h-3v2.77a4.53 4.53 0 0 1-2.59 4.53l-.55.26a.19.19 0 0 1-.28-.09l-.63-1.35c-.06-.13 0-.23.1-.29l.55-.26c.87-.48 1.29-1.35 1.29-2.8v-4.44a.19.19 0 0 1 .21-.21h6.82a.19.19 0 0 1 .21.21zM337.19 274.42a.18.18 0 0 1-.21-.2v-3.58a14 14 0 0 1 .15-2.39c0-.17-.13-.27-.21-.06l-.57 1.07-2.28 3.64c-.23.44-.47.92-.66 1.35a.22.22 0 0 1-.23.17H331a.19.19 0 0 1-.21-.2v-8.8a.19.19 0 0 1 .21-.21h1.71a.19.19 0 0 1 .21.21V269a14.11 14.11 0 0 1-.19 2.39c0 .16.13.25.23 0s.38-.7.55-1l2.28-3.67c.23-.44.47-.93.66-1.37a.24.24 0 0 1 .23-.15h2.17a.19.19 0 0 1 .21.21v8.8a.19.19 0 0 1-.21.2zM353.11 266.88a.19.19 0 0 1-.21.21h-2.79v7.13a.19.19 0 0 1-.21.2h-1.71a.19.19 0 0 1-.21-.2v-7.13h-2.79a.19.19 0 0 1-.21-.21v-1.46a.19.19 0 0 1 .21-.21h7.71a.19.19 0 0 1 .21.21zM355.07 265.42a.19.19 0 0 1 .21-.21H357a.19.19 0 0 1 .21.21v2.7h1.34c2.55 0 4 1.19 4 3.23s-1.27 3.07-3.49 3.07h-3.78a.18.18 0 0 1-.21-.2zm4 7.12c.87 0 1.4-.43 1.4-1.19s-.72-1.35-1.94-1.35h-1.34v2.54zm7.06 1.68a.18.18 0 0 1-.21.2h-1.69a.19.19 0 0 1-.21-.2v-8.78a.19.19 0 0 1 .21-.21h1.69a.19.19 0 0 1 .21.21zM378.44 274.39a7.06 7.06 0 0 1-1.77.24c-2.91 0-4.5-1.86-4.5-4.82s1.57-4.79 4.56-4.79a5.86 5.86 0 0 1 1.63.23l.82.23a.19.19 0 0 1 .15.26l-.44 1.43a.19.19 0 0 1-.25.13l-.64-.17a4.4 4.4 0 0 0-1.27-.21c-1.69 0-2.47 1.08-2.47 2.87s.81 2.92 2.43 2.92a5.62 5.62 0 0 0 1.4-.2l.63-.19a.2.2 0 0 1 .27.13l.43 1.42a.2.2 0 0 1-.15.27zM382.65 265.31a7.14 7.14 0 0 1 2.07-.29c2.57 0 4.15 1.33 4.15 3.63v5.57a.19.19 0 0 1-.21.2h-1a.22.22 0 0 1-.25-.17l-.15-.59c-.12-.26-.23-.26-.48 0a3.34 3.34 0 0 1-2.6 1c-2.11 0-3.29-1.08-3.29-2.87s1.22-2.92 3.46-2.92h2.38v-.12c0-1.15-.74-1.78-2.15-1.78a5.26 5.26 0 0 0-1.48.19l-.69.21a.19.19 0 0 1-.26-.15l-.42-1.41a.2.2 0 0 1 .15-.27zm1.75 5.18c-.93 0-1.37.44-1.37 1.08s.52 1.2 1.43 1.2c1.5 0 2.32-.74 2.32-2.15v-.13zM401 274.22a.19.19 0 0 1-.21.2h-1.69a.18.18 0 0 1-.21-.2v-2.8a27.25 27.25 0 0 1 .15-3.23c0-.17-.13-.22-.19-.05-.15.32-.29.66-.42 1l-1.1 2.42a7.65 7.65 0 0 0-.36 1c0 .12-.1.17-.23.17h-1.25c-.14 0-.21-.05-.23-.17-.1-.34-.23-.7-.36-1l-1.1-2.42-.42-1c-.06-.17-.23-.12-.19.05a23.47 23.47 0 0 1 .17 3.23v2.8a.19.19 0 0 1-.21.2h-1.69a.19.19 0 0 1-.21-.2v-8.8a.19.19 0 0 1 .21-.21H394a.21.21 0 0 1 .23.19 5.49 5.49 0 0 0 .3.89l1.08 2.4a16 16 0 0 1 .48 1.54c0 .17.15.17.19 0 .07-.33.32-1.07.47-1.54l1.11-2.4a6.66 6.66 0 0 0 .3-.89.2.2 0 0 1 .23-.19h2.47a.19.19 0 0 1 .21.21zM412.18 275.43c-.82 2.11-2 3.08-3.86 3.08h-.7a.19.19 0 0 1-.21-.21v-1.46a.19.19 0 0 1 .21-.21h.63a1.56 1.56 0 0 0 1.61-1.12l.29-.67c.34-.82 0-1.84-.65-3.44l-2.6-5.94c-.08-.15 0-.25.15-.25h1.79a.27.27 0 0 1 .24.15l1.71 3.88a12.58 12.58 0 0 1 .73 2.41c.05.23.24.23.3 0a15.32 15.32 0 0 1 .68-2.41l1.6-3.86a.23.23 0 0 1 .23-.17h1.78a.17.17 0 0 1 .17.25zM425.57 274.22a.18.18 0 0 1-.2.2h-1.7a.19.19 0 0 1-.21-.2V271l-.51.16a7.13 7.13 0 0 1-1.78.24c-2.11 0-3.35-1.16-3.35-3.13v-2.87a.19.19 0 0 1 .21-.21h1.69a.19.19 0 0 1 .21.21v2.64a1.36 1.36 0 0 0 1.52 1.46 4.35 4.35 0 0 0 1.14-.15l.87-.27v-3.68a.19.19 0 0 1 .21-.21h1.7a.19.19 0 0 1 .2.21zM429.28 265.31a7.09 7.09 0 0 1 2.07-.29c2.57 0 4.14 1.33 4.14 3.63v5.57a.18.18 0 0 1-.21.2h-.95a.22.22 0 0 1-.24-.17l-.16-.59c-.11-.26-.22-.26-.47 0a3.36 3.36 0 0 1-2.6 1c-2.11 0-3.29-1.08-3.29-2.87s1.22-2.92 3.46-2.92h2.37v-.12c0-1.15-.74-1.78-2.14-1.78a5.38 5.38 0 0 0-1.49.19l-.68.21a.2.2 0 0 1-.27-.15l-.41-1.41a.2.2 0 0 1 .15-.27zm1.75 5.18c-.93 0-1.37.44-1.37 1.08s.51 1.2 1.42 1.2c1.51 0 2.32-.74 2.32-2.15v-.13zM443.72 274.39a7.06 7.06 0 0 1-1.77.24c-2.9 0-4.5-1.86-4.5-4.82S439 265 442 265a5.86 5.86 0 0 1 1.63.23l.82.23a.19.19 0 0 1 .15.26l-.44 1.43a.18.18 0 0 1-.24.13l-.65-.17a4.35 4.35 0 0 0-1.27-.21c-1.69 0-2.47 1.08-2.47 2.87s.82 2.92 2.43 2.92a5.76 5.76 0 0 0 1.41-.2l.62-.19a.19.19 0 0 1 .27.13l.44 1.42a.2.2 0 0 1-.16.27zM454.45 266.88a.19.19 0 0 1-.2.21h-2.8v7.13a.18.18 0 0 1-.21.2h-1.71a.18.18 0 0 1-.2-.2v-7.13h-2.8a.19.19 0 0 1-.21-.21v-1.46a.19.19 0 0 1 .21-.21h7.72a.19.19 0 0 1 .2.21zM460.46 265.21c2.05 0 3.3.93 3.3 2.51a1.91 1.91 0 0 1-1.15 1.86c-.21.08-.21.19 0 .27a2 2 0 0 1 1.52 2c0 1.61-1.28 2.56-3.39 2.56h-4.1a.19.19 0 0 1-.21-.2v-8.8a.19.19 0 0 1 .21-.21zm-2 3.67h1.83c.89 0 1.38-.34 1.38-.93s-.4-.86-1-.86h-2.17zm0 3.66h2.32c.76 0 1.2-.34 1.2-.91s-.55-1-1.54-1h-2zM474.48 269.81c0 3-1.67 4.82-4.37 4.82s-4.39-1.86-4.39-4.82 1.67-4.79 4.39-4.79 4.37 1.86 4.37 4.79zm-6.67 0c0 1.82.86 2.9 2.3 2.9s2.28-1.08 2.28-2.9-.87-2.89-2.28-2.89-2.3 1.08-2.3 2.89zM480.62 265.21c2.05 0 3.3.93 3.3 2.51a1.91 1.91 0 0 1-1.16 1.86c-.21.08-.21.19 0 .27a2 2 0 0 1 1.51 2c0 1.61-1.27 2.56-3.38 2.56h-4.1a.19.19 0 0 1-.21-.2v-8.8a.19.19 0 0 1 .21-.21zm-2 3.67h1.82c.9 0 1.39-.34 1.39-.93s-.4-.86-1-.86h-2.18zm0 3.66H481c.76 0 1.19-.34 1.19-.91s-.55-1-1.53-1h-2zM487.5 265.31a7 7 0 0 1 2.07-.29c2.56 0 4.14 1.33 4.14 3.63v5.57a.19.19 0 0 1-.21.2h-.95a.23.23 0 0 1-.25-.17l-.15-.59c-.11-.26-.23-.26-.48 0a3.34 3.34 0 0 1-2.6 1c-2.11 0-3.28-1.08-3.28-2.87s1.21-2.92 3.45-2.92h2.38v-.12c0-1.15-.74-1.78-2.15-1.78a5.31 5.31 0 0 0-1.48.19l-.69.21a.19.19 0 0 1-.26-.15l-.42-1.41a.2.2 0 0 1 .15-.27zm1.74 5.18c-.93 0-1.36.44-1.36 1.08s.51 1.2 1.42 1.2c1.5 0 2.32-.74 2.32-2.15v-.13zM504.42 274.22a.18.18 0 0 1-.21.2h-1.69a.19.19 0 0 1-.21-.2v-7.13h-3v2.77a4.52 4.52 0 0 1-2.58 4.53l-.55.26a.2.2 0 0 1-.29-.09l-.62-1.35c-.06-.13 0-.23.09-.29l.55-.26c.88-.48 1.3-1.35 1.3-2.8v-4.44a.19.19 0 0 1 .2-.21h6.82a.19.19 0 0 1 .21.21zM515 265.21c2 0 3.3.93 3.3 2.51a1.91 1.91 0 0 1-1.15 1.86c-.21.08-.21.19 0 .27a2 2 0 0 1 1.52 2c0 1.61-1.28 2.56-3.39 2.56h-4.1a.19.19 0 0 1-.21-.2v-8.8a.19.19 0 0 1 .21-.21zm-2 3.67h1.83c.89 0 1.38-.34 1.38-.93s-.4-.86-1-.86H513zm0 3.66h2.32c.76 0 1.2-.34 1.2-.91s-.55-1-1.54-1h-2zM532 274.22a.19.19 0 0 1-.21.2h-1.69a.19.19 0 0 1-.21-.2V271l-.51.16a7.21 7.21 0 0 1-1.79.24c-2.11 0-3.34-1.16-3.34-3.13v-2.87a.19.19 0 0 1 .21-.21h1.69a.19.19 0 0 1 .21.21v2.64a1.36 1.36 0 0 0 1.52 1.46 4.35 4.35 0 0 0 1.14-.15l.87-.27v-3.68a.19.19 0 0 1 .21-.21h1.69a.19.19 0 0 1 .21.21zM534.79 274.42a.18.18 0 0 1-.21-.2v-8.8a.19.19 0 0 1 .21-.21h1.69a.19.19 0 0 1 .21.21v2.7H538c2.54 0 4 1.19 4 3.23s-1.27 3.07-3.49 3.07zm3.78-1.88c.87 0 1.4-.43 1.4-1.19S539.25 270 538 270h-1.35v2.54zM550 274.39a8 8 0 0 1-1.94.24c-2.86 0-4.48-1.86-4.48-4.8S545.25 265 548 265c2.28 0 3.67 1.14 3.67 3 0 1.46-.9 2.3-2.8 2.58l-3 .46a2 2 0 0 0 2.17 1.63 4.92 4.92 0 0 0 1.5-.19l.83-.2a.19.19 0 0 1 .27.15l.38 1.42a.2.2 0 0 1-.15.27zm-1.46-5.4c.67-.11 1-.42 1-.91 0-.76-.59-1.16-1.62-1.16-1.25 0-2.11.78-2.26 2.53zM559.94 270.64a14 14 0 0 1 .15-2.39c0-.17-.13-.27-.21-.06l-.57 1.07-2.31 3.64c-.22.44-.47.92-.66 1.35a.22.22 0 0 1-.23.17H554a.18.18 0 0 1-.2-.2v-8.8a.19.19 0 0 1 .2-.21h1.71a.19.19 0 0 1 .21.21V269a13.15 13.15 0 0 1-.19 2.39c0 .16.14.25.23 0s.38-.7.55-1l2.28-3.67c.23-.44.48-.93.67-1.37a.22.22 0 0 1 .22-.15h2.17a.19.19 0 0 1 .21.21v8.8a.19.19 0 0 1-.21.2h-1.69a.19.19 0 0 1-.21-.2zm.51-9.17a2.53 2.53 0 0 1-5.05 0V261a.19.19 0 0 1 .21-.21h1.1a.19.19 0 0 1 .21.21v.48a1 1 0 0 0 2 0V261a.19.19 0 0 1 .21-.21h1.1a.19.19 0 0 1 .21.21zM570 268.52a.18.18 0 0 1 .21.2v1.47a.19.19 0 0 1-.21.21h-5.07a.19.19 0 0 1-.21-.21v-1.47a.19.19 0 0 1 .21-.2zM580.21 266.88a.19.19 0 0 1-.21.21h-2.79v7.13a.18.18 0 0 1-.21.2h-1.71a.19.19 0 0 1-.21-.2v-7.13h-2.79a.19.19 0 0 1-.21-.21v-1.46a.19.19 0 0 1 .21-.21H580a.19.19 0 0 1 .21.21zM590.25 269.81c0 3-1.68 4.82-4.37 4.82s-4.39-1.86-4.39-4.82 1.67-4.79 4.39-4.79 4.37 1.86 4.37 4.79zm-6.67 0c0 1.82.85 2.9 2.3 2.9s2.28-1.08 2.28-2.9-.88-2.89-2.28-2.89-2.3 1.08-2.3 2.89zM603.83 266.88a.19.19 0 0 1-.21.21h-2.79v7.13a.19.19 0 0 1-.21.2h-1.71a.19.19 0 0 1-.21-.2v-7.13h-2.79a.19.19 0 0 1-.21-.21v-1.46a.19.19 0 0 1 .21-.21h7.71a.19.19 0 0 1 .21.21zM607.38 266.18c.08.21.23.19.37 0a3.35 3.35 0 0 1 2.65-1.18c2.49 0 4 1.84 4 4.79s-1.59 4.82-4.25 4.82a3.88 3.88 0 0 1-1.73-.36l-.51-.23v4.26a.19.19 0 0 1-.21.21H606a.19.19 0 0 1-.21-.21v-12.86a.19.19 0 0 1 .21-.21h1c.13 0 .21.06.22.17zm1.07 6.21a3.43 3.43 0 0 0 1.56.32c1.46 0 2.29-1.08 2.29-2.9s-.83-2.89-2.24-2.89-2.18 1.18-2.18 2.83v2.38zM617.64 265.31a7.14 7.14 0 0 1 2.07-.29c2.57 0 4.15 1.33 4.15 3.63v5.57a.19.19 0 0 1-.21.2h-.95a.22.22 0 0 1-.25-.17l-.15-.59c-.12-.26-.23-.26-.48 0a3.34 3.34 0 0 1-2.6 1c-2.11 0-3.29-1.08-3.29-2.87s1.22-2.92 3.46-2.92h2.38v-.12c0-1.15-.74-1.78-2.15-1.78a5.26 5.26 0 0 0-1.48.19l-.69.21a.19.19 0 0 1-.26-.15l-.42-1.41a.2.2 0 0 1 .15-.27zm1.75 5.18c-.93 0-1.37.44-1.37 1.08s.52 1.2 1.43 1.2c1.5 0 2.32-.74 2.32-2.15v-.13zM630.32 265.21c2 0 3.3.93 3.3 2.51a1.91 1.91 0 0 1-1.16 1.86c-.21.08-.21.19 0 .27a2 2 0 0 1 1.51 2c0 1.61-1.27 2.56-3.38 2.56h-4.1a.19.19 0 0 1-.21-.2v-8.8a.19.19 0 0 1 .21-.21zm-2 3.67h1.82c.9 0 1.39-.34 1.39-.93s-.4-.86-1-.86h-2.18zm0 3.66h2.32c.76 0 1.2-.34 1.2-.91s-.56-1-1.54-1h-2zM644.26 274.22a.18.18 0 0 1-.21.2h-1.69a.19.19 0 0 1-.21-.2v-7.13h-3v2.77a4.53 4.53 0 0 1-2.58 4.53l-.55.26a.2.2 0 0 1-.29-.09l-.62-1.35c-.06-.13 0-.23.09-.29l.55-.26c.88-.48 1.29-1.35 1.29-2.8v-4.44a.19.19 0 0 1 .21-.21h6.82a.19.19 0 0 1 .21.21zM652.78 274.39a8 8 0 0 1-1.94.24c-2.87 0-4.49-1.86-4.49-4.8S648 265 650.76 265c2.28 0 3.67 1.14 3.67 3 0 1.46-.89 2.3-2.8 2.58l-3 .46a2 2 0 0 0 2.17 1.63 4.92 4.92 0 0 0 1.5-.19l.84-.2a.19.19 0 0 1 .26.15l.38 1.42a.2.2 0 0 1-.15.27zm-1.47-5.4c.67-.11 1-.42 1-.91 0-.76-.59-1.16-1.62-1.16-1.25 0-2.11.78-2.26 2.53zM656.92 261.45A10.21 10.21 0 0 1 660 261c2.85 0 4.41 1.32 4.41 3.47a3.67 3.67 0 0 1-1.88 3.12l-1 .74a1.72 1.72 0 0 0-.76 1.42v1a.19.19 0 0 1-.21.21h-1.71a.19.19 0 0 1-.21-.21v-1a3.43 3.43 0 0 1 1.65-3l1.08-.74a1.73 1.73 0 0 0 .95-1.5c0-.83-.95-1.44-2.28-1.44a8.33 8.33 0 0 0-2.45.38l-1.1.36a.2.2 0 0 1-.26-.13l-.54-1.52c0-.12 0-.21.14-.25zm4.18 11.83a1.24 1.24 0 0 1-1.33 1.37 1.37 1.37 0 0 1 0-2.73 1.24 1.24 0 0 1 1.33 1.36z"/><path class="cls-11" d="M204.17 289.49a.18.18 0 0 1 .2.2v1.39a.18.18 0 0 1-.2.2h-9.29a.18.18 0 0 1-.2-.2v-1.39a.18.18 0 0 1 .2-.2z"/><path class="cls-11" d="M213.37 289.49a.18.18 0 0 1 .2.2v1.39a.18.18 0 0 1-.2.2h-9.29a.18.18 0 0 1-.2-.2v-1.39a.18.18 0 0 1 .2-.2z"/><path class="cls-11" d="M222.57 289.49a.19.19 0 0 1 .2.2v1.39a.18.18 0 0 1-.2.2h-9.29a.18.18 0 0 1-.2-.2v-1.39a.18.18 0 0 1 .2-.2z"/><path class="cls-11" d="M231.76 289.49a.18.18 0 0 1 .2.2v1.39a.18.18 0 0 1-.2.2h-9.29a.18.18 0 0 1-.19-.2v-1.39a.18.18 0 0 1 .19-.2z"/><path class="cls-11" d="M241 289.49a.18.18 0 0 1 .2.2v1.39a.18.18 0 0 1-.2.2h-9.29a.18.18 0 0 1-.2-.2v-1.39a.19.19 0 0 1 .2-.2z"/><path class="cls-11" d="M250.16 289.49a.18.18 0 0 1 .2.2v1.39a.18.18 0 0 1-.2.2h-9.29a.18.18 0 0 1-.2-.2v-1.39a.18.18 0 0 1 .2-.2z"/><path class="cls-11" d="M259.36 289.49a.19.19 0 0 1 .2.2v1.39a.18.18 0 0 1-.2.2h-9.29a.18.18 0 0 1-.2-.2v-1.39a.18.18 0 0 1 .2-.2z"/><path class="cls-11" d="M268.56 289.49a.18.18 0 0 1 .19.2v1.39a.18.18 0 0 1-.19.2h-9.3a.18.18 0 0 1-.19-.2v-1.39a.18.18 0 0 1 .19-.2z"/><path class="cls-11" d="M277.75 289.49a.18.18 0 0 1 .2.2v1.39a.18.18 0 0 1-.2.2h-9.29a.18.18 0 0 1-.2-.2v-1.39a.19.19 0 0 1 .2-.2z"/><path class="cls-11" d="M287 289.49a.18.18 0 0 1 .2.2v1.39a.18.18 0 0 1-.2.2h-9.29a.18.18 0 0 1-.2-.2v-1.39a.19.19 0 0 1 .2-.2z"/><path class="cls-11" d="M296.15 289.49a.18.18 0 0 1 .2.2v1.39a.18.18 0 0 1-.2.2h-9.29a.18.18 0 0 1-.2-.2v-1.39a.18.18 0 0 1 .2-.2z"/><path class="cls-11" d="M305.35 289.49a.18.18 0 0 1 .19.2v1.39a.18.18 0 0 1-.19.2h-9.29a.18.18 0 0 1-.2-.2v-1.39a.18.18 0 0 1 .2-.2z"/><path class="cls-11" d="M314.54 289.49a.18.18 0 0 1 .2.2v1.39a.18.18 0 0 1-.2.2h-9.29a.18.18 0 0 1-.19-.2v-1.39a.18.18 0 0 1 .19-.2z"/><path class="cls-11" d="M323.74 289.49a.18.18 0 0 1 .2.2v1.39a.18.18 0 0 1-.2.2h-9.29a.18.18 0 0 1-.2-.2v-1.39a.19.19 0 0 1 .2-.2z"/><path class="cls-11" d="M332.94 289.49a.18.18 0 0 1 .2.2v1.39a.18.18 0 0 1-.2.2h-9.29a.18.18 0 0 1-.2-.2v-1.39a.18.18 0 0 1 .2-.2z"/><path class="cls-11" d="M342.14 289.49a.19.19 0 0 1 .2.2v1.39a.18.18 0 0 1-.2.2h-9.29a.18.18 0 0 1-.2-.2v-1.39a.18.18 0 0 1 .2-.2z"/><path class="cls-11" d="M351.34 289.49a.18.18 0 0 1 .19.2v1.39a.18.18 0 0 1-.19.2H342a.18.18 0 0 1-.19-.2v-1.39a.18.18 0 0 1 .19-.2z"/><path class="cls-11" d="M360.53 289.49a.18.18 0 0 1 .2.2v1.39a.18.18 0 0 1-.2.2h-9.29a.18.18 0 0 1-.2-.2v-1.39a.19.19 0 0 1 .2-.2z"/><path class="cls-11" d="M369.73 289.49a.18.18 0 0 1 .2.2v1.39a.18.18 0 0 1-.2.2h-9.29a.18.18 0 0 1-.2-.2v-1.39a.18.18 0 0 1 .2-.2z"/><path class="cls-11" d="M378.93 289.49a.19.19 0 0 1 .2.2v1.39a.18.18 0 0 1-.2.2h-9.29a.18.18 0 0 1-.2-.2v-1.39a.18.18 0 0 1 .2-.2z"/><path class="cls-11" d="M388.13 289.49a.19.19 0 0 1 .2.2v1.39a.18.18 0 0 1-.2.2h-9.29a.18.18 0 0 1-.2-.2v-1.39a.18.18 0 0 1 .2-.2z"/><path class="cls-11" d="M397.33 289.49a.18.18 0 0 1 .19.2v1.39a.18.18 0 0 1-.19.2H388a.18.18 0 0 1-.19-.2v-1.39a.18.18 0 0 1 .19-.2z"/><path class="cls-11" d="M406.52 289.49a.18.18 0 0 1 .2.2v1.39a.18.18 0 0 1-.2.2h-9.29a.18.18 0 0 1-.2-.2v-1.39a.19.19 0 0 1 .2-.2z"/><path class="cls-11" d="M415.72 289.49a.18.18 0 0 1 .2.2v1.39a.18.18 0 0 1-.2.2h-9.29a.18.18 0 0 1-.2-.2v-1.39a.18.18 0 0 1 .2-.2z"/><path class="cls-11" d="M424.92 289.49a.19.19 0 0 1 .2.2v1.39a.18.18 0 0 1-.2.2h-9.29a.18.18 0 0 1-.2-.2v-1.39a.18.18 0 0 1 .2-.2z"/><path class="cls-11" d="M434.12 289.49a.18.18 0 0 1 .19.2v1.39a.18.18 0 0 1-.19.2h-9.29a.18.18 0 0 1-.2-.2v-1.39a.18.18 0 0 1 .2-.2z"/><path class="cls-11" d="M443.31 289.49a.18.18 0 0 1 .2.2v1.39a.18.18 0 0 1-.2.2H434a.18.18 0 0 1-.2-.2v-1.39a.19.19 0 0 1 .2-.2z"/><path class="cls-11" d="M452.51 289.49a.18.18 0 0 1 .2.2v1.39a.18.18 0 0 1-.2.2h-9.29a.18.18 0 0 1-.2-.2v-1.39a.18.18 0 0 1 .2-.2z"/><path class="cls-11" d="M461.71 289.49a.19.19 0 0 1 .2.2v1.39a.18.18 0 0 1-.2.2h-9.29a.18.18 0 0 1-.2-.2v-1.39a.18.18 0 0 1 .2-.2z"/><path class="cls-11" d="M470.91 289.49a.19.19 0 0 1 .2.2v1.39a.18.18 0 0 1-.2.2h-9.29a.18.18 0 0 1-.2-.2v-1.39a.18.18 0 0 1 .2-.2z"/><path class="cls-11" d="M480.1 289.49a.18.18 0 0 1 .2.2v1.39a.18.18 0 0 1-.2.2h-9.29a.18.18 0 0 1-.19-.2v-1.39a.18.18 0 0 1 .19-.2z"/><path class="cls-11" d="M489.3 289.49a.18.18 0 0 1 .2.2v1.39a.18.18 0 0 1-.2.2H480a.18.18 0 0 1-.2-.2v-1.39a.18.18 0 0 1 .2-.2z"/><path class="cls-11" d="M498.5 289.49a.18.18 0 0 1 .2.2v1.39a.18.18 0 0 1-.2.2h-9.29a.18.18 0 0 1-.2-.2v-1.39a.18.18 0 0 1 .2-.2z"/><path class="cls-11" d="M507.7 289.49a.19.19 0 0 1 .2.2v1.39a.18.18 0 0 1-.2.2h-9.29a.18.18 0 0 1-.2-.2v-1.39a.18.18 0 0 1 .2-.2z"/><path class="cls-11" d="M516.9 289.49a.18.18 0 0 1 .19.2v1.39a.18.18 0 0 1-.19.2h-9.3a.18.18 0 0 1-.19-.2v-1.39a.18.18 0 0 1 .19-.2z"/><path class="cls-11" d="M526.09 289.49a.18.18 0 0 1 .2.2v1.39a.18.18 0 0 1-.2.2h-9.29a.18.18 0 0 1-.2-.2v-1.39a.19.19 0 0 1 .2-.2z"/><path class="cls-11" d="M535.29 289.49a.18.18 0 0 1 .2.2v1.39a.18.18 0 0 1-.2.2H526a.18.18 0 0 1-.2-.2v-1.39a.18.18 0 0 1 .2-.2z"/><path class="cls-11" d="M544.49 289.49a.18.18 0 0 1 .2.2v1.39a.18.18 0 0 1-.2.2h-9.29a.18.18 0 0 1-.2-.2v-1.39a.18.18 0 0 1 .2-.2z"/><path class="cls-11" d="M553.69 289.49a.18.18 0 0 1 .19.2v1.39a.18.18 0 0 1-.19.2h-9.29a.18.18 0 0 1-.2-.2v-1.39a.18.18 0 0 1 .2-.2z"/><path class="cls-11" d="M562.88 289.49a.18.18 0 0 1 .2.2v1.39a.18.18 0 0 1-.2.2h-9.29a.18.18 0 0 1-.2-.2v-1.39a.19.19 0 0 1 .2-.2z"/><path class="cls-11" d="M572.08 289.49a.18.18 0 0 1 .2.2v1.39a.18.18 0 0 1-.2.2h-9.29a.18.18 0 0 1-.2-.2v-1.39a.19.19 0 0 1 .2-.2z"/><path class="cls-11" d="M581.28 289.49a.18.18 0 0 1 .2.2v1.39a.18.18 0 0 1-.2.2H572a.18.18 0 0 1-.2-.2v-1.39a.18.18 0 0 1 .2-.2z"/><path class="cls-11" d="M590.48 289.49a.19.19 0 0 1 .2.2v1.39a.18.18 0 0 1-.2.2h-9.29a.18.18 0 0 1-.2-.2v-1.39a.18.18 0 0 1 .2-.2z"/><path class="cls-11" d="M599.67 289.49a.18.18 0 0 1 .2.2v1.39a.18.18 0 0 1-.2.2h-9.29a.18.18 0 0 1-.19-.2v-1.39a.18.18 0 0 1 .19-.2z"/><path class="cls-11" d="M608.87 289.49a.18.18 0 0 1 .2.2v1.39a.18.18 0 0 1-.2.2h-9.29a.18.18 0 0 1-.2-.2v-1.39a.19.19 0 0 1 .2-.2z"/><path class="cls-11" d="M618.07 289.49a.18.18 0 0 1 .2.2v1.39a.18.18 0 0 1-.2.2h-9.29a.18.18 0 0 1-.2-.2v-1.39a.18.18 0 0 1 .2-.2z"/><path class="cls-11" d="M627.27 289.49a.19.19 0 0 1 .2.2v1.39a.18.18 0 0 1-.2.2H618a.18.18 0 0 1-.2-.2v-1.39a.18.18 0 0 1 .2-.2z"/><path class="cls-11" d="M636.47 289.49a.18.18 0 0 1 .19.2v1.39a.18.18 0 0 1-.19.2h-9.3a.18.18 0 0 1-.19-.2v-1.39a.18.18 0 0 1 .19-.2z"/><path class="cls-11" d="M645.66 289.49a.18.18 0 0 1 .2.2v1.39a.18.18 0 0 1-.2.2h-9.29a.18.18 0 0 1-.2-.2v-1.39a.19.19 0 0 1 .2-.2z"/><path class="cls-11" d="M654.86 289.49a.18.18 0 0 1 .2.2v1.39a.18.18 0 0 1-.2.2h-9.29a.18.18 0 0 1-.2-.2v-1.39a.19.19 0 0 1 .2-.2z"/></svg>