<svg id="Layer_1" xmlns="http://www.w3.org/2000/svg" xmlns:xlink="http://www.w3.org/1999/xlink" viewBox="0 0 521 457"><style>.st12{fill:#003b71}.st37{fill:#eca179}.st80{fill:#8c6239}.st81{fill:#a67c52}.st82{fill:#003359}</style><switch><g><defs><path id="SVGID_15_" d="M321.8-400c-13.2-.3-71.8-2.1-86.5-.8-25.8 2.3-88.3 10.6-138.7 65.5-18 19.6-65.7 184.2 9.1 230.3 126 77.7 378.2-7.5 347.6-174.7C428.1-418 341.5-399.5 321.8-400z"/></defs><clipPath id="SVGID_2_"><use xlink:href="#SVGID_15_" overflow="visible"/></clipPath><g clip-path="url(#SVGID_2_)"><path class="st37" d="M261.1 49.6l-4 145.3h-20L225.5 49.6zM181.7 60.1l-21.4 144.7-19.3-2.5 7.6-142.2z"/><path class="st80" d="M259.4 197.8s21.4 5.8 32.9 12.8c4.2 2.6.9 8.9-4.3 9.1-3.9.2-44.2-.4-55.4-1.8-4-.5.9-16.2 5.8-20.6l21 .5z"/><path class="st81" d="M257.3 188.3s14.2 9.4 33.8 21.2c4.5 2.7 1.4 6.8-5.1 6.7-11.6-.2-45.2-1.8-54.8-2.9 0 0-2.3-10.6 5.3-25l3.1 5.8 8.6.2c3.9.1 7.6-2.3 9.1-6z"/><path class="st80" d="M163 205.4s25.1 4.9 36.7 11.9c4.2 2.6 1.7 7.5.4 8.5-3.2 2.3-52.6 1.1-63.8-.3-4-.5.9-16.2 5.8-20.6l20.9.5z"/><path class="st81" d="M160.8 196s26.1 11.8 37.6 18.8c4.2 2.6 3.4 7.3 3.4 7.3-3.2 2.3-55.9.2-67.2-1.1 0 0-1.5-10.6 6.1-25l1.6 5.8 15.9.3 2.6-6.1z"/><path class="st82" d="M238.7-155.4s31.7 90.7 33.1 339l-39.7 2.3-57.4-338.3 64-3z"/><path class="st82" d="M145.8-143.1c-13.4 36-9.3 77.5-3.6 191.8 0 0-7.1 53.3-10.2 76.7-4.6 35.2-6.3 63.5-6.3 63.5l42.5.2 29.1-115.4c3.2-12.7 5.3-25.7 6.2-38.8l12.9-189.3-70.6 11.3z"/></g><g><path d="M437.1 88.4H92.4c-26.1 0-47.3 21.2-47.3 47.3V294c0 26.1 21.2 47.3 47.3 47.3H289c28.5 47.6 79.7 50.9 120.3 44.1-32.2-9.2-48.4-29-56.3-44.1h84.2c26.1 0 47.3-21.2 47.3-47.3V135.7c-.1-26.1-21.2-47.3-47.4-47.3z" fill="#fd8970"/><path d="M419.2 76.8H69.9C43.5 76.8 22 98 22 124.1v158.3c0 26.1 21.5 47.3 47.9 47.3H269c28.9 47.6 75.9 58.8 117.1 52-32.6-9.2-44.2-36.9-52.3-52h85.3c26.5 0 47.9-21.2 47.9-47.3V124.1c.1-26.1-21.4-47.3-47.8-47.3z" fill="#ffe436"/><path d="M437.1 88.4H92.4c-26.1 0-47.3 21.2-47.3 47.3V294c0 26.1 21.2 47.3 47.3 47.3H289c28.5 47.6 79.7 50.9 120.3 44.1-32.2-9.2-48.4-29-56.3-44.1h84.2c26.1 0 47.3-21.2 47.3-47.3V135.7c-.1-26.1-21.2-47.3-47.4-47.3z" fill="#c4e5e5" stroke="#1691c9" stroke-width="7.151" stroke-miterlimit="10"/></g><g><path class="st12" d="M89.7 183.1c0-.1 1.5-1.7 1.7-2 .7-1 1.7-2 2.3-3 .2-.3.6-.9.9-.9.3 0 1 1.4 1 1.7 0 .4-.4.4-.5.7-.3.6-.6.7-1.1 1.2-.8.9-1.5 1.8-2.3 2.7 1.1 1.5 2.5 2.9 3.7 4.4.1.1.2.2.2.4 0 .4-.7 1.5-1.1 1.5-.1 0-.5-.5-.5-.7-.5-.6-3.1-3.6-3.6-3.9-.2-.1-.5-.2-.6-.5-.1-.2-.1-1.2-.1-1.6zm4.6 1.4c-.1-.2-.2-1.2-.2-1.5 0-.2.4-.4.6-.6.9-.8 2.9-3 3.4-3.9.2-.3.4-.5.8-.6h.1c.5 0 .6 1.2.6 1.6v.4c-.1.2-2.9 3-3.3 3.5 1.1 1.4 2.5 2.7 3.7 3.9v.3c0 .5-.3 1.4-.9 1.4-.1 0-.5-.5-.5-.6-.5-.6-3.1-3.3-3.6-3.5-.3-.1-.6-.2-.7-.4zM111.5 172.3c.1.7.2 1.5.2 2.2 0 1.9-.3 3.8-.3 5.7 0 1.7.2 3.3.2 5 0 1.6-.2 3.2-.2 4.8 0 1.2.1 2.4.1 3.6 0 .6.1 1.8-.7 1.8-.2 0-.5-.1-.7-.1-.6-.2-.8-.1-.8-.8 0-.6.1-1.2.1-1.9 0-1.1-.1-2.3-.1-3.4 0-4.2-.2-8.4-.2-12.6v-2.3c0-.4 0-.7-.5-.7-1.5 0-3 .4-4.5.4V176.9c.1 3.7.1 7.4.2 11.1 0 1.7-.1 3.5.1 5.1.1.6.2 1.2.2 1.8 0 .2-.1.6 0 .7-.1.3-1.5.4-1.8.4h-.1c-.7-.1-.4-.1-.5-.7-.1-.4-.1-.8-.1-1.3 0-1 .1-2 .1-3 0-6.2-.1-12.4-.1-18.6 0-.7.5-1.2 1.3-1.2 2.1 0 4.1.2 6.2.2 1 .1 1.8-.3 1.9.9zM114.8 172.6c2.1.1 5.2-.2 6.5 1.8.3.5.5 1 .5 1.6 0 1.5-1.2 3.1-2.4 3.8-.6.4-1.6.4-2 .8-.3.3-.4.7-.4 1.1 0 .5.1 1.1.1 1.6 0 2.3.2 4.7.4 7 .1 1.1.4 2.1.4 3.2 0 .9-.1 1.2-1 1.2-1.5 0-1.5-.4-1.5-1.7 0-3.7 0-7.5-.2-11.2-.1-2.4-.4-4.7-.4-7.1-.1-.7-.1-1.4 0-2.1zm4.5 4.9c.1-.2.1-.4.1-.7 0-1.1-1.2-2.1-2.2-2.1-.4 0-.5.3-.5.7v1.1c0 .5-.1.9-.1 1.4 0 .4.1.9.6.9.7 0 1.9-.8 2.1-1.3zM124.2 183.6c0-4.2 1.7-8.9 6.6-8.9 5.1 0 6.1 6 6.1 9.9 0 4-1.7 8.7-6.5 8.7-4.7 0-6.2-5.8-6.2-9.7zm2.2-.6c0 .6 0 1.2.1 1.8.2 2 1.5 6.3 4.1 6.3 3.3 0 4.3-4.9 4.3-7.4 0-2.3-.9-6.9-4-6.9-3.7 0-4.5 3.2-4.5 6.2zM145.3 170.9c2.4 1.4 2.8 6.7 2.8 9.2v1h-.9c-.3 0-.5 0-.7-.1-.6-.2-.4 0-.6-.7-.3-1.7.2-7.4-2.4-7.4-2.3 0-2.3 5-2.3 6.5 0 1 .1 2 .1 3 0 1.9-.2 12 2.6 12 .9 0 1.4-1.1 1.6-1.8.2-.7.1-1.5.2-2.2.2-.8.2-.6.9-.7.5 0 1-.1 1.5-.2-.2 2-.1 4.4-1.4 6.1-.6.8-1.5 1.3-2.5 1.3-.8 0-1.6-.3-2.1-.9-3.1-3-2.9-9.2-2.9-13.2 0-2.1 0-4.3.2-6.4.2-2.7 1-6 4.4-6 .4 0 1 .2 1.5.5zM152.1 173.1c-.3-.1-1.4-.1-1.7-.4v-.3c0-1.3 0-1.6 1.4-1.6.9 0 1.7.1 2.6.1.6 0 1.3-.1 1.9-.1.5 0 1.2 0 1.2.6 0 .4.1.8.1 1.2 0 .9-2.2-.2-2.2 1.2 0 .3 0 .6.1 1 .1 3.4.2 6.8.2 10.1 0 3.5 0 7 .2 10.5v.7c0 .3 0 .6-.4.6-.3 0-.7-.2-.9-.3-.6-.2-.8-.1-.8-1 0-.4.1-.9.1-1.3 0-6.6-.4-13.2-.4-19.7-.2-1.2-.3-1.1-1.4-1.3zM159 183.6c0-4.2 1.7-8.9 6.6-8.9 5.1 0 6.1 6 6.1 9.9 0 4-1.7 8.7-6.5 8.7-4.7 0-6.2-5.8-6.2-9.7zm2.2-.6c0 .6 0 1.2.1 1.8.2 2 1.5 6.3 4.1 6.3 3.3 0 4.3-4.9 4.3-7.4 0-2.3-.9-6.9-4-6.9-3.7 0-4.5 3.2-4.5 6.2zM190.8 179.5c.1 3.6 0 7.1.1 10.7 0 .7.1 1.3.1 2 0 .2 0 .7-.4.7-.2 0-.4-.1-.6-.1-1-.2-1.2-.8-1.2-1.7 0-.8.2-3.7-.2-4.3-.3-.4-.6-.5-1-.5-.8 0-1.5-.3-2.2-.3-.6 0-.6.7-.6 1.1 0 .7.1 1.3.1 2 0 .6.2 1.2.2 1.8 0 .7-1 .8-1.6.8-.6 0-1.1-.1-1.1-.7s.2-1.1.2-1.6c0-1.1-.1-2.3-.1-3.4 0-2.9.2-5.7.2-8.6 0-.8-.1-1.6-.1-2.4 0-.3 0-.5.4-.5.6 0 2.1-.2 2.1.6 0 .5-.2 1-.2 1.5v1c0 1.3.1 2.6 0 3.8 0 .6-.2 1.1-.2 1.7 0 .6.4.8 1 .9.7.1 1.5.2 2.2.2.1 0 .4 0 .5-.1.4-.2.4-1.6.4-2 0-.9-.1-1.7-.1-2.6 0-.8.1-1.7.1-2.5 0-.5-.1-1-.1-1.5 0-.6.2-1 .9-1 .9 0 1.2.5 1.2 1.3-.1 1.2-.1 2.4 0 3.7zM199.2 193.2c-.4.1-.7.2-1.1.2-3.8 0-4.8-6.7-4.8-9.5 0-2.9.3-9.8 4.4-9.8 3.2 0 4.7 4.7 4.7 7.3 0 1.3-.7 1.5-1.8 1.5-1 0-2-.1-3-.1-.8 0-1.7.2-1.7 1.2 0 .5.1 1.1.2 1.6.1 1.3.2 5.5 2.1 5.5 1.9 0 1.3-3.7 1.8-3.9.2-.1.5-.2.7-.2.5 0 1 .1 1.5.1.4 0 .4.2.4.6 0 2-1.2 4.9-3.4 5.5zm-3-12.8c0 .3.6.3.8.3.7 0 1.4-.2 2.1-.3.5-.1.9 0 .9-.7 0-1.1-1-3.5-2.3-3.5-1.3 0-1.3 1.9-1.3 2.8v.7c-.1.3-.2.5-.2.7zM214.2 183.6c0-4.2 1.7-8.9 6.6-8.9 5.1 0 6.1 6 6.1 9.9 0 4-1.7 8.7-6.5 8.7-4.7 0-6.2-5.8-6.2-9.7zm2.2-.6c0 .6 0 1.2.1 1.8.2 2 1.5 6.3 4.1 6.3 3.3 0 4.3-4.9 4.3-7.4 0-2.3-.9-6.9-4-6.9-3.7 0-4.5 3.2-4.5 6.2zM232.2 194.8c-2.4-.7-2.7-4.8-2.7-6.8 0-3.5 1.4-4.7 4.8-4.7.3 0 .6 0 .9.1-.8-2.1-6.3-1.9-6.3-6.4 0-.8.5-1.6 1-2.2 1.7-1.8 5.3-2.2 7.7-2.2h.5c0 .1.1.2.1.3 0 .6-.2 1.8-.4 2.4l-.1.2c-.6 0-1.2-.1-1.8-.1-1 0-4.2.3-4.2 1.8 0 2 4.5 2.3 5.3 6.3.3 1.4.4 2.9.4 4.3 0 3.2-.4 7.3-4.5 7.3-.1-.2-.4-.3-.7-.3zm-.1-5.4c0 1-.1 3.4 1.2 3.6.3-.1.6-.2.8-.4.6-1 1-3.9 1-5.2 0-.8-.1-1.5-.2-2.3-.9.1-1.7.3-2.4.9-.3 1.1-.4 2.3-.4 3.4zm1.3 4.7zM240.9 172.6c2.1.1 5.2-.2 6.5 1.8.3.5.5 1 .5 1.6 0 1.5-1.2 3.1-2.4 3.8-.6.4-1.6.4-2 .8-.3.3-.4.7-.4 1.1 0 .5.1 1.1.1 1.6 0 2.3.2 4.7.4 7 .1 1.1.4 2.1.4 3.2 0 .9-.1 1.2-1 1.2-1.5 0-1.5-.4-1.5-1.7 0-3.7 0-7.5-.2-11.2-.1-2.4-.4-4.7-.4-7.1-.1-.7 0-1.4 0-2.1zm4.6 4.9c.1-.2.1-.4.1-.7 0-1.1-1.2-2.1-2.2-2.1-.4 0-.5.3-.5.7v1.1c0 .5-.1.9-.1 1.4 0 .4.1.9.6.9.7 0 1.8-.8 2.1-1.3zM259.9 196.3c-.4.5-1.1.5-1.6.5-3.9 0-6.6-1.8-6.6-6 0-1.9.9-3.6 3-3.6 1.2 0 2.3.9 2.8.9h.2c0-2.7 0-12.1-1.2-14-.3-.5-.8-.9-1.5-.9-1.4 0-2.2 1.5-2.2 2.7 0 1.1 0 1.3-1.1 1.3-.5 0-1.8.1-1.8-.6s.5-1.9.8-2.5c.9-1.7 2.9-3.4 4.9-3.4.5 0 .9.1 1.4.3 2.4 1.1 2.7 5.7 3 8 .3 2.6.4 5.2.4 7.8 0 2.5-.1 5.1-.1 7.6-.3.5-.1 1.3-.4 1.9zm-5.7-5c0 1.7 1.3 3.1 3 3.1.6 0 .7-.6.7-1.1 0-.7-.2-1.4-.2-2.2 0-1.4-.4-1.7-1.7-1.7-1.2.1-1.8.9-1.8 1.9zM263.7 194.3c-.1-.8-.2-1.5-.2-2.3 0-2.1.3-4.2.3-6.2 0-1.7-.2-3.4-.2-5.1 0-1.6.2-3.2.2-4.9 0-1.4-.1-2.8-.1-4.2 0-.3-.1-1.4.3-1.4.2 0 .9.3 1.1.4.6.2.8 0 .8.8 0 .6-.1 1.2-.1 1.9 0 1.1.1 2.3.1 3.4 0 4.4.2 8.7.2 13.1v1.9c0 .9 3.5 1.1 4.2 1.2-.1-2 0-3.9-.1-5.9-.1-2.7-.1-5.4-.4-8v-1.2c0-1 .1-2 0-3 0-.4-.2-.9-.2-1.3 0-.8.8-.9 1.4-.9 1.1 0 1.1.4 1.1 1.3 0 .7-.1 1.5-.1 2.2 0 5.6.3 11.3.4 16.9 1.4 0 2.7-.4 4-.4v-1.3-2.3c-.1-3.6-.1-7.1-.2-10.7 0-1.6.1-3.3-.1-4.9 0-.4-.2-.8-.2-1.2 0-.2.1-.5 0-.7.1-.3 1.5-.4 1.8-.4.7 0 .5.2.6.7.1.4.1.7.1 1.1 0 .8-.1 1.7-.1 2.5 0 5.8 0 11.6.1 17.3.6 0 1.2 0 1.8.1.5.1 1 .1 1 .7 0 .3-.1.7 0 1 0 .5.1 1 .1 1.6 0 .6-.1 1-.8 1-.4 0-.7-.1-1-.1h-.3c0-.1 0-.4-.1-.5 0-.6 0-1.1-.1-1.7h-.2c-4.7 0-9.4.2-14 .2-.9.1-1-.2-1.1-.7zM291.8 196.3c-.4.5-1.1.5-1.6.5-3.9 0-6.6-1.8-6.6-6 0-1.9.9-3.6 3-3.6 1.2 0 2.3.9 2.8.9h.2c0-2.7 0-12.1-1.2-14-.3-.5-.8-.9-1.5-.9-1.4 0-2.2 1.5-2.2 2.7 0 1.1 0 1.3-1.1 1.3-.5 0-1.8.1-1.8-.6s.5-1.9.8-2.5c.9-1.7 2.9-3.4 4.9-3.4.5 0 .9.1 1.4.3 2.4 1.1 2.7 5.7 3 8 .3 2.6.4 5.2.4 7.8 0 2.5-.1 5.1-.1 7.6-.2.5-.1 1.3-.4 1.9zm-5.7-5c0 1.7 1.3 3.1 3 3.1.6 0 .7-.6.7-1.1 0-.7-.2-1.4-.2-2.2 0-1.4-.4-1.7-1.7-1.7-1.1.1-1.8.9-1.8 1.9zM295.6 181.4v-.8c0-1.3.1-2.6 0-3.9 0-.4-.1-.8-.1-1.2 0-.6 1.3-1.2 1.8-1.2s.4 1 .4 1.3V189.2s0 .2.1.2c0 0 .1-.2.1-.3.1-.4.3-.8.4-1.3.5-1.8 1-3.5 1.5-5.3.2-.8 2.1-7.5 2.3-7.7.3-.3.8-.5 1.2-.5.7 0 .8.6.8 1.1 0 .7-.2 1.4-.2 2 0 3.1.2 6.2.2 9.3 0 2 .1 4 .1 6 0 1 0 2-.1 3-.1 1.1 0 .9-1 1-.2 0-.4.1-.6.1-.6 0-.5-1.9-.5-2.3 0-4.5.5-9 .5-13.5v-.6c0-.1 0-.2-.1-.2s-.5 1.2-.5 1.3c-.4 1.5-.7 3.1-1.1 4.6-.6 2.3-1.3 4.6-2 6.8-.1.4-.3 1.9-.7 2.2-.2.1-1.3.2-1.5.2-.8 0-.8-2.4-.8-2.9 0-1.5.2-3.1.2-4.6-.2-2-.4-4.2-.4-6.4zm2.9-8.9c-.1 0-.1-.4-.1-.5-.1-.5-.1-1-.1-1.6 1.3 0 2.5-.1 3.8-.1 0 .5.2.9.2 1.4 0 .8-.8.8-1.4.8-.6 0-1.2-.1-1.8-.1-.3.1-.4.1-.6.1zM315.8 180.1c0-1.4.1-2.9 0-4.3 0-.4-.1-1.2-.1-1.6 0-.8.3-.9 1.1-.9.9 0 2.2.5 3 .9 2.2 1.4 3 4.4 3 6.9 0 2.9-1.6 4.1-2.4 5.2-.1.1 4.4.8 4.4 4.5 0 3.6-6.2 3.2-8.4 3.2-.6 0-.5-.4-.6-.8-.1-.5-.1-1.1-.1-1.6 0-3.8 0-7.6-.1-11.3v-.2zm3.5-3c-.2-.2-1.5-1.7-1.5-.7 0 2.8.2 6 .2 8.8 0 .1 0 .1.1.2h.1c2.7-.9 2.5-6.5 1.1-8.3zm-.8 11.4c-.4 0-.5.3-.5.6 0 .7-.1 1.4-.1 2.1 0 .4.1.7.6.7 2.3 0 3.9-.3 3.9-1.5 0-1.7-2.9-1.9-3.9-1.9zM335 179.5c.1 3.6 0 7.1.1 10.7 0 .7.1 1.3.1 2 0 .2 0 .7-.4.7-.2 0-.4-.1-.6-.1-1-.2-1.2-.8-1.2-1.7 0-.8.2-3.7-.2-4.3-.3-.4-.6-.5-1-.5-.8 0-1.5-.3-2.2-.3-.6 0-.6.7-.6 1.1 0 .7.1 1.3.1 2 0 .6.2 1.2.2 1.8 0 .7-1 .8-1.6.8-.6 0-1.1-.1-1.1-.7s.2-1.1.2-1.6c0-1.1-.1-2.3-.1-3.4 0-2.9.2-5.7.2-8.6 0-.8-.1-1.6-.1-2.4 0-.3 0-.5.4-.5.6 0 2.1-.2 2.1.6 0 .5-.2 1-.2 1.5v1c0 1.3.1 2.6 0 3.8 0 .6-.2 1.1-.2 1.7 0 .6.4.8 1 .9.7.1 1.5.2 2.2.2.1 0 .4 0 .5-.1.4-.2.4-1.6.4-2 0-.9-.1-1.7-.1-2.6 0-.8.1-1.7.1-2.5 0-.5-.1-1-.1-1.5 0-.6.2-1 .9-1 .9 0 1.2.5 1.2 1.3 0 1.2-.1 2.4 0 3.7zM345.8 179.3c-.4.2-2 4.2-2.4 4.9-1 1.8-2 3.7-2.7 5.7-.1.4-.3 1.6-.7 1.8-.2.1-1.2.2-1.5.2-.7 0-.7-1.8-.7-2.3 0-1.4.2-2.7.2-4.1 0-1.9-.2-3.9-.2-5.8v-2.2c0-.7-.1-1.5-.1-2.2 0-.6 1.4-1 1.8-1 .4 0 .4.5.4.8 0 3.4-.1 6.7-.1 10.1 0 .6 0 1.1.1 1.7.8-1 2.5-4.3 2.9-5.5.5-1.3 1.2-2.5 1.7-3.8.2-.6.6-2.4 1-2.8.3-.3.8-.4 1.2-.4.6 0 .8.4.8.9 0 .7-.2 1.3-.2 2 0 4 .2 8.1.2 12.1 0 .9 0 1.9-.1 2.8-.1 1-.1.8-1 .8-.2 0-.4.1-.6.1-.5 0-.5-1.1-.5-1.5 0-4 .5-7.9.5-11.9.1-.1.1-.3 0-.4zM363.6 186.6c-.7 1.3-1.3 2.5-1.9 3.8-.3.7-.5 1.7-1.5 1.7h-.4c-1.2-.2-1.2-1-1.7-1.9l-2.1-3.9c-.6-1.2-1.1-2.4-1.7-3.6-.4-.8-.9-1.6-1.2-2.4-.2-.3-.4-1.2-.6-1.4 0 2.3.1 4.7.2 7 0 2.1.3 4.3.3 6.4 0 .6-.1.7-.8.7-.6 0-1.3-.3-1.6-.3h-.1c-.1 0-.2-.5-.2-.7 0-1 .1-2 .1-3v-9.8c0-.9-.1-1.8-.1-2.8 0-.4 0-1.9.5-1.9 1.5 0 1.7.1 2.4 1.3 1.2 2.2 2.5 4.4 3.7 6.6.4.8 2.6 5.7 3.2 5.7.1 0 .2-.3.2-.3.6-1 1-2 1.5-3 1.2-2.3 2.5-4.6 3.7-6.9.4-.7 1.1-2.6 1.8-3 .2-.1 1.1-.2 1.3-.2 1 0 .9.8.9 1.6 0 3.3 0 6.5.1 9.8 0 1.3.1 2.6.1 4 0 .6.2 1.3.2 1.9 0 .4-.1.8-.6.8-.2 0-.5-.1-.7-.2-.7-.3-.4.1-.6-.7-.1-.5-.1-1-.1-1.5 0-1.9-.1-3.9-.2-5.8-.1-1.4 0-2.8-.1-4.2 0-.3 0-.7-.1-1 0 0 0-.2-.1-.2s-.4.5-.5.6c-1.1 2.2-2.1 4.5-3.3 6.8zM382.2 196.3c-.4.5-1.1.5-1.6.5-3.9 0-6.6-1.8-6.6-6 0-1.9.9-3.6 3-3.6 1.2 0 2.3.9 2.8.9h.2c0-2.7 0-12.1-1.2-14-.3-.5-.8-.9-1.5-.9-1.4 0-2.2 1.5-2.2 2.7 0 1.1 0 1.3-1.1 1.3-.5 0-1.8.1-1.8-.6s.5-1.9.8-2.5c.9-1.7 2.9-3.4 4.9-3.4.5 0 .9.1 1.4.3 2.4 1.1 2.7 5.7 3 8 .3 2.6.4 5.2.4 7.8 0 2.5-.1 5.1-.1 7.6-.2.5-.1 1.3-.4 1.9zm-5.7-5c0 1.7 1.3 3.1 3 3.1.6 0 .7-.6.7-1.1 0-.7-.2-1.4-.2-2.2 0-1.4-.4-1.7-1.7-1.7-1.1.1-1.8.9-1.8 1.9zM394.1 179.5c.1 3.6 0 7.1.1 10.7 0 .7.1 1.3.1 2 0 .2 0 .7-.4.7-.2 0-.4-.1-.6-.1-1-.2-1.2-.8-1.2-1.7 0-.8.2-3.7-.2-4.3-.3-.4-.6-.5-1-.5-.8 0-1.5-.3-2.2-.3-.6 0-.6.7-.6 1.1 0 .7.1 1.3.1 2 0 .6.2 1.2.2 1.8 0 .7-1 .8-1.6.8-.6 0-1.1-.1-1.1-.7s.2-1.1.2-1.6c0-1.1-.1-2.3-.1-3.4 0-2.9.2-5.7.2-8.6 0-.8-.1-1.6-.1-2.4 0-.3 0-.5.4-.5.6 0 2.1-.2 2.1.6 0 .5-.2 1-.2 1.5v1c0 1.3.1 2.6 0 3.8 0 .6-.2 1.1-.2 1.7 0 .6.4.8 1 .9.7.1 1.5.2 2.2.2.1 0 .4 0 .5-.1.4-.2.4-1.6.4-2 0-.9-.1-1.7-.1-2.6 0-.8.1-1.7.1-2.5 0-.5-.1-1-.1-1.5 0-.6.2-1 .9-1 .9 0 1.2.5 1.2 1.3v3.7zM405 179.3c-.4.2-2 4.2-2.4 4.9-1 1.8-2 3.7-2.7 5.7-.1.4-.3 1.6-.7 1.8-.2.1-1.2.2-1.5.2-.7 0-.7-1.8-.7-2.3 0-1.4.2-2.7.2-4.1 0-1.9-.2-3.9-.2-5.8v-2.2c0-.7-.1-1.5-.1-2.2 0-.6 1.4-1 1.8-1 .4 0 .4.5.4.8 0 3.4-.1 6.7-.1 10.1 0 .6 0 1.1.1 1.7.8-1 2.5-4.3 2.9-5.5.5-1.3 1.2-2.5 1.7-3.8.2-.6.6-2.4 1-2.8.3-.3.8-.4 1.2-.4.6 0 .8.4.8.9 0 .7-.2 1.3-.2 2 0 4 .2 8.1.2 12.1 0 .9 0 1.9-.1 2.8-.1 1-.1.8-1 .8-.2 0-.4.1-.6.1-.5 0-.5-1.1-.5-1.5 0-4 .5-7.9.5-11.9v-.4zM415.3 193.2c-.4.1-.7.2-1.1.2-3.8 0-4.8-6.7-4.8-9.5 0-2.9.3-9.8 4.4-9.8 3.2 0 4.7 4.7 4.7 7.3 0 1.3-.7 1.5-1.8 1.5-1 0-2-.1-3-.1-.8 0-1.7.2-1.7 1.2 0 .5.1 1.1.2 1.6.1 1.3.2 5.5 2.1 5.5 1.9 0 1.3-3.7 1.8-3.9.2-.1.5-.2.7-.2.5 0 1 .1 1.5.1.4 0 .4.2.4.6 0 2-1.2 4.9-3.4 5.5zm-3-12.8c0 .3.6.3.8.3.7 0 1.4-.2 2.1-.3.5-.1.9 0 .9-.7 0-1.1-1-3.5-2.3-3.5-1.3 0-1.3 1.9-1.3 2.8v.7c-.2.3-.2.5-.2.7zM427.5 182.5c.1.3.2 1.2.2 1.6 0 .2-.5.5-.6.6-.9.8-3.1 3.2-3.7 4.2-.2.4-.4.5-.8.6h-.1c-.6 0-.7-1.3-.7-1.7v-.4c.2-.5.8-.8 1.1-1.2.8-.9 1.6-1.7 2.4-2.6-1.2-1.5-2.7-2.8-4-4.2v-.3c0-.5.4-1.5 1-1.5.1 0 .5.5.6.6.5.6 3.3 3.5 3.8 3.8.4.2.7.2.8.5zm4.8-.3c.1.3.2 1.4.2 1.7 0 .1-1.6 1.8-1.8 2.1-.8 1-1.8 2.1-2.4 3.2-.2.3-.6 1-1 1-.3 0-1.1-1.5-1.1-1.8 0-.4.4-.4.5-.7.3-.7.7-.8 1.1-1.3.8-1 1.6-1.9 2.4-2.9-1.1-1.5-2.7-3.2-4-4.6-.1-.1-.2-.2-.2-.4 0-.4.7-1.6 1.1-1.6.1 0 .5.6.6.7.5.7 3.3 3.9 3.8 4.2.4.1.6.1.8.4zM437.5 191.5c.2 1.1-.1 2.6-.2 3.7 0 .4-.1.7-.3.7-.5.1-.6.1-1.1.2-.3.1-.4.1-.6-.3-.2-.5-.1-1.2-.1-1.8 0-.8.1-1.9.1-2.7 0-.1 0-.3.1-.4.3-.7.7-.5 1.1-.5.5.1.8 0 1 1.1zM67 219.6c-.1-.3-.2-1.3-.2-1.6 0-.1 1.5-1.7 1.7-2 .7-1 1.7-2 2.3-3 .2-.3.6-.9.9-.9.3 0 1 1.4 1 1.7 0 .4-.4.4-.5.7-.3.6-.6.7-1.1 1.2-.8.9-1.5 1.8-2.3 2.7 1.1 1.5 2.5 2.9 3.7 4.4.1.1.2.2.2.4 0 .4-.7 1.5-1.1 1.5-.1 0-.5-.5-.5-.7-.5-.6-3.1-3.6-3.6-3.9-.1-.2-.4-.3-.5-.5zm4.4-.3c-.1-.2-.2-1.2-.2-1.5 0-.2.4-.4.6-.6.9-.8 2.9-3 3.4-3.9.2-.3.4-.5.8-.6h.1c.5 0 .6 1.2.6 1.6v.4c-.1.2-2.9 3-3.3 3.5 1.1 1.4 2.5 2.7 3.7 3.9v.3c0 .5-.3 1.4-.9 1.4-.1 0-.5-.5-.5-.6-.5-.6-3.1-3.3-3.6-3.5-.3-.1-.6-.2-.7-.4zM87 206.6c.6-.2 1.2-.3 1.8-.4.1.2.1.5.1.7 0 1.2-.1 2.5-.1 3.7 0 1.9-.1 3.7-.1 5.6v12.2c0 .4.1.8.1 1.2 0 .6-.6.7-1.1.7-.7 0-1.3.1-1.3-.7 0-.8.1-1.6.1-2.3.1-3.2-.1-6.5.2-9.7.1-.8.2-1.5.2-2.3 0-.2 0-.3-.1-.4-.3.4-.4 1.4-.6 2-.2 1-.6 2-.9 3-.8 2.9-1.7 5.9-2.4 8.9-.1.6-.2 1.9-.8 2.2h-.2c-.3 0-1.7-.1-1.8-.3-.1-.1-.1-.3-.1-.5 0-.6.1-1.2.1-1.8 0-2.1-.2-4.1-.2-6.2v-12.1c0-.7-.2-1.3-.2-2 0-1.4.5-1.1 1.6-1.3.2 0 .4-.1.6-.1.3 0 .4.3.4.5 0 .5-.2.9-.2 1.4 0 5.3-.2 10.6-.2 15.8.3-.4.5-1.7.6-2.2.2-.9.5-1.8.8-2.7.7-1.9 1.2-3.9 1.8-5.9.5-1.8 1.2-3.6 1.3-5.6v-.1c.2-.5.1-1 .6-1.3zM98.4 217.3c-.9 2.1-3.7 4.9-3.7 7 0 .5.2 1.7.8 1.7 1.1 0 .5-1.3 1-1.7.3-.2 1.1-.2 1.5-.2h.7v.3c0 1.7-1.2 3.9-3.1 3.9-2 0-3.1-1.8-3.1-3.6 0-4 4.3-6.3 4.3-10.9 0-.9-.4-2.6-1.6-2.6-.7 0-1.2.9-1.2 1.5 0 .4.2.8.2 1.2 0 .7-.7 1.1-1.4 1.1-1 0-1.2-.9-1.2-1.7 0-2 1.2-4.5 3.5-4.5 2.7 0 3.9 2.8 3.9 5.1.1 1.1-.1 2.3-.6 3.4zM110.2 214.3c.1 3.6 0 7.1.1 10.7 0 .7.1 1.3.1 2 0 .2 0 .7-.4.7-.2 0-.4-.1-.6-.1-1-.2-1.2-.8-1.2-1.7 0-.8.2-3.7-.2-4.3-.3-.4-.6-.5-1-.5-.8 0-1.5-.3-2.2-.3-.6 0-.6.7-.6 1.1 0 .7.1 1.3.1 2 0 .6.2 1.2.2 1.8 0 .7-1 .8-1.6.8-.6 0-1.1-.1-1.1-.7s.2-1.1.2-1.6c0-1.1-.1-2.3-.1-3.4 0-2.9.2-5.7.2-8.6 0-.8-.1-1.6-.1-2.4 0-.3 0-.5.4-.5.6 0 2.1-.2 2.1.6 0 .5-.2 1-.2 1.5v1c0 1.3.1 2.6 0 3.8 0 .6-.2 1.1-.2 1.7 0 .6.4.8 1 .9.7.1 1.5.2 2.2.2.1 0 .4 0 .5-.1.4-.2.4-1.6.4-2 0-.9-.1-1.7-.1-2.6 0-.8.1-1.7.1-2.5 0-.5-.1-1-.1-1.5 0-.6.2-1 .9-1 .9 0 1.2.5 1.2 1.3v3.7zM113.2 218.4c0-4.2 1.7-8.9 6.6-8.9 5.1 0 6.1 6 6.1 9.9 0 4-1.7 8.7-6.5 8.7s-6.2-5.8-6.2-9.7zm2.1-.6c0 .6 0 1.2.1 1.8.2 2 1.5 6.3 4.1 6.3 3.3 0 4.3-4.9 4.3-7.4 0-2.3-.9-6.9-4-6.9-3.6 0-4.5 3.2-4.5 6.2zM128.2 207.4c2.1.1 5.2-.2 6.5 1.8.3.5.5 1 .5 1.6 0 1.5-1.2 3.1-2.4 3.8-.6.4-1.6.4-2 .8-.3.3-.4.7-.4 1.1 0 .5.1 1.1.1 1.6 0 2.3.2 4.7.4 7 .1 1.1.4 2.1.4 3.2 0 .9-.1 1.2-1 1.2-1.5 0-1.5-.4-1.5-1.7 0-3.7 0-7.5-.2-11.2-.1-2.4-.4-4.7-.4-7.1-.1-.7-.1-1.4 0-2.1zm4.5 4.9c.1-.2.1-.4.1-.7 0-1.1-1.2-2.1-2.2-2.1-.4 0-.5.3-.5.7v1.1c0 .5-.1.9-.1 1.4 0 .4.1.9.6.9.7 0 1.9-.8 2.1-1.3zM145.6 214.1c-.4.2-2 4.2-2.4 4.9-1 1.8-2 3.7-2.7 5.7-.1.4-.3 1.6-.7 1.8-.2.1-1.2.2-1.5.2-.7 0-.7-1.8-.7-2.3 0-1.4.2-2.7.2-4.1 0-1.9-.2-3.9-.2-5.8v-2.2c0-.7-.1-1.5-.1-2.2 0-.6 1.4-1 1.8-1 .4 0 .4.5.4.8 0 3.4-.1 6.7-.1 10.1 0 .6 0 1.1.1 1.7.8-1 2.5-4.3 2.9-5.5.5-1.3 1.2-2.5 1.7-3.8.2-.6.6-2.4 1-2.8.3-.3.8-.4 1.2-.4.6 0 .8.4.8.9 0 .7-.2 1.3-.2 2 0 4 .2 8.1.2 12.1 0 .9 0 1.9-.1 2.8-.1 1-.1.8-1 .8-.2 0-.4.1-.6.1-.5 0-.5-1.1-.5-1.5 0-4 .5-7.9.5-11.9v-.4zM150.2 207.4c2.1.1 5.2-.2 6.5 1.8.3.5.5 1 .5 1.6 0 1.5-1.2 3.1-2.4 3.8-.6.4-1.6.4-2 .8-.3.3-.4.7-.4 1.1 0 .5.1 1.1.1 1.6 0 2.3.2 4.7.4 7 .1 1.1.4 2.1.4 3.2 0 .9-.1 1.2-1 1.2-1.5 0-1.5-.4-1.5-1.7 0-3.7 0-7.5-.2-11.2-.1-2.4-.4-4.7-.4-7.1-.1-.7-.1-1.4 0-2.1zm4.6 4.9c.1-.2.1-.4.1-.7 0-1.1-1.2-2.1-2.2-2.1-.4 0-.5.3-.5.7v1.1c0 .5-.1.9-.1 1.4 0 .4.1.9.6.9.7 0 1.8-.8 2.1-1.3zM167.6 209.4c.2 2.5.5 5 .5 7.5 0 1.7-.1 3.3-.2 5-.2 2.6-.4 8.7-4.1 8.7-2.5 0-3.8-1.7-3.8-4.1 0-1.3 0-2.9 1.8-2.9.1 0 .3.1.3.3 0 .3-.2.5-.2.8 0 .9.3 4 1.5 4 .3 0 .6-.2.9-.4.9-.8.9-2.6 1-3.7.1-1.6.2-3.1.3-4.7.1-2 .2-4 .2-6.1 0-.3 0-.8-.2-1.1-.4 1-1.1 2.1-2.3 2.1-3.3 0-3.9-4.8-3.9-7.2 0-.9.6-1.3 1.5-1.3.8 0 .9 1 .9 1.6 0 1-.1 2 0 2.9.1.8.7 2.2 1.6 2.2 1.4 0 1.7-2.3 1.7-3.3 0-.8-.2-1.5-.2-2.3 0-.7.7-.7 1.2-.7 1.1 0 1.6-.1 1.6 1.2-.1.5-.2 1-.1 1.5zM170.8 216.2v-.8c0-1.3.1-2.6 0-3.9 0-.4-.1-.8-.1-1.2 0-.6 1.3-1.2 1.8-1.2s.4 1 .4 1.3V224s0 .2.1.2c0 0 .1-.2.1-.3.1-.4.3-.8.4-1.3.5-1.8 1-3.5 1.5-5.3.2-.8 2.1-7.5 2.3-7.7.3-.3.8-.5 1.2-.5.7 0 .8.6.8 1.1 0 .7-.2 1.4-.2 2 0 3.1.2 6.2.2 9.3 0 2 .1 4 .1 6 0 1 0 2-.1 3-.1 1.1 0 .9-1 1-.2 0-.4.1-.6.1-.6 0-.5-1.9-.5-2.3 0-4.5.5-9 .5-13.5v-.6c0-.1 0-.2-.1-.2s-.5 1.2-.5 1.3c-.4 1.5-.7 3.1-1.1 4.6-.6 2.3-1.3 4.6-2 6.8-.1.4-.3 1.9-.7 2.2-.2.1-1.3.2-1.5.2-.8 0-.8-2.4-.8-2.9 0-1.5.2-3.1.2-4.6-.2-2-.3-4.2-.4-6.4zm2.9-8.9c-.1 0-.1-.4-.1-.5-.1-.5-.1-1-.1-1.6 1.3 0 2.5-.1 3.8-.1 0 .5.2.9.2 1.4 0 .8-.8.8-1.4.8-.6 0-1.2-.1-1.8-.1-.2.1-.4.1-.6.1zM191.1 218.4c0-4.2 1.7-8.9 6.6-8.9 5.1 0 6.1 6 6.1 9.9 0 4-1.7 8.7-6.5 8.7-4.7 0-6.2-5.8-6.2-9.7zm2.2-.6c0 .6 0 1.2.1 1.8.2 2 1.5 6.3 4.1 6.3 3.3 0 4.3-4.9 4.3-7.4 0-2.3-.9-6.9-4-6.9-3.7 0-4.5 3.2-4.5 6.2zM209.1 229.6c-2.4-.7-2.7-4.8-2.7-6.8 0-3.5 1.4-4.7 4.8-4.7.3 0 .6 0 .9.1-.8-2.1-6.3-1.9-6.3-6.4 0-.8.5-1.6 1-2.2 1.7-1.8 5.3-2.2 7.7-2.2h.5c0 .1.1.2.1.3 0 .6-.2 1.8-.4 2.4l-.1.2c-.6 0-1.2-.1-1.8-.1-1 0-4.2.3-4.2 1.8 0 2 4.5 2.3 5.3 6.3.3 1.4.4 2.9.4 4.3 0 3.2-.4 7.3-4.5 7.3-.1-.2-.4-.3-.7-.3zm-.1-5.4c0 1-.1 3.4 1.2 3.6.3-.1.6-.2.8-.4.6-1 1-3.9 1-5.2 0-.8-.1-1.5-.2-2.3-.9.1-1.7.3-2.4.9-.3 1.1-.4 2.3-.4 3.4zm1.4 4.7zM225.9 214.1c-.4.2-2 4.2-2.4 4.9-1 1.8-2 3.7-2.7 5.7-.1.4-.3 1.6-.7 1.8-.2.1-1.2.2-1.5.2-.7 0-.7-1.8-.7-2.3 0-1.4.2-2.7.2-4.1 0-1.9-.2-3.9-.2-5.8v-2.2c0-.7-.1-1.5-.1-2.2 0-.6 1.4-1 1.8-1 .4 0 .4.5.4.8 0 3.4-.1 6.7-.1 10.1 0 .6 0 1.1.1 1.7.8-1 2.5-4.3 2.9-5.5.5-1.3 1.2-2.5 1.7-3.8.2-.6.6-2.4 1-2.8.3-.3.8-.4 1.2-.4.6 0 .8.4.8.9 0 .7-.2 1.3-.2 2 0 4 .2 8.1.2 12.1 0 .9 0 1.9-.1 2.8-.1 1-.1.8-1 .8-.2 0-.4.1-.6.1-.5 0-.5-1.1-.5-1.5 0-4 .5-7.9.5-11.9.1-.1.1-.3 0-.4zM230.6 206.6c0-.7 1.4-.6 1.9-.6 5.2 0 6.2 4 6.2 8.3 0 2.7-.1 5.3-.2 8-.1 1.2-.2 2.3-.2 3.5 0 2.4-1.2 5.1-3.9 5.1-.8 0-1.7-.3-2.3-.8-1.3-.9-1.3-5.9-1.3-7.5 0-1.6-.1-3.3.1-4.9.3-2.4 1.2-3.9 3.8-3.9.8 0 1.3.5 1.5.5.1 0 .2 0 .2-.1v-.9c0-3.1-1.2-5-4.6-5-1 0-.9-.7-1.2-1.5v-.2zm5.6 9.3c-.3-.1-.6-.2-.9-.2-1.7 0-2.1 1.1-2.2 2.6-.1 1.1-.1 2.2-.1 3.3 0 1.6.1 3.2.1 4.8 0 1 .1 2.4 1.5 2.4.3 0 .5-.1.8-.2.5-.6.6-2.1.6-2.9.1-3.2.2-6.5.2-9.8zM244.8 220.7c-4.8-.2-4.4-6.4-4.5-9.8v-.8c0-.5.6-.6 1-.6s1.1 0 1.1.6c0 2.3-.2 8.2 3.3 8.2 3.4 0 3.4-3.9 3.4-6.4 0-.6-.4-2.7.5-2.7 1.9 0 1.6.7 1.6 2.4 0 4.5.1 9.1.1 13.6 0 .9.3 2.6-1.1 2.6-1.2 0-1.2-2.1-1.2-2.9 0-2 .1-3.9.1-5.9v-.6c-.7 1.6-2.5 2.3-4.1 2.3h-.2zM261.8 214.1c-.4.2-2 4.2-2.4 4.9-1 1.8-2 3.7-2.7 5.7-.1.4-.3 1.6-.7 1.8-.2.1-1.2.2-1.5.2-.7 0-.7-1.8-.7-2.3 0-1.4.2-2.7.2-4.1 0-1.9-.2-3.9-.2-5.8v-2.2c0-.7-.1-1.5-.1-2.2 0-.6 1.4-1 1.8-1 .4 0 .4.5.4.8 0 3.4-.1 6.7-.1 10.1 0 .6 0 1.1.1 1.7.8-1 2.5-4.3 2.9-5.5.5-1.3 1.2-2.5 1.7-3.8.2-.6.6-2.4 1-2.8.3-.3.8-.4 1.2-.4.6 0 .8.4.8.9 0 .7-.2 1.3-.2 2 0 4 .2 8.1.2 12.1 0 .9 0 1.9-.1 2.8-.1 1-.1.8-1 .8-.2 0-.4.1-.6.1-.5 0-.5-1.1-.5-1.5 0-4 .5-7.9.5-11.9.1-.1.1-.3 0-.4zM269.6 228.7c.1.6.2 1.2.2 1.8 0 .2-.1.6 0 .7-.2.4-1.6.4-2 .4-.7 0-.6-.1-.7-.7-.1-.5-.1-.9-.1-1.4 0-1 .1-1.9.1-2.9 0-7.1 0-14.2-.1-21.2.4 0 2.1 0 2.3.2.1.1.1.4.1.6 0 1.5-.1 2.9-.1 4.4v2.8c0 1.2-.2 2.4-.2 3.5.8-1.7 2.2-2.9 3.3-4.4.5-.6 2.5-3.4 2.9-3.6l1.1.8v.2c0 1.2-6.4 8-6.4 8.8 0 .3.4.8.6 1.1.5.8 4.4 8.4 4.4 8.8 0 .5-1 1-1.4 1-.5-.6-4.6-8.8-4.6-9.4.1 2.8.3 5.6.6 8.5z"/><path class="st12" d="M284.9 231.1c-.4.5-1.1.5-1.6.5-3.9 0-6.6-1.8-6.6-6 0-1.9.9-3.6 3-3.6 1.2 0 2.3.9 2.8.9h.2c0-2.7 0-12.1-1.2-14-.3-.5-.8-.9-1.5-.9-1.4 0-2.2 1.5-2.2 2.7 0 1.1 0 1.3-1.1 1.3-.5 0-1.8.1-1.8-.6s.5-1.9.8-2.5c.9-1.7 2.9-3.4 4.9-3.4.5 0 .9.1 1.4.3 2.4 1.1 2.7 5.7 3 8 .3 2.6.4 5.2.4 7.8 0 2.5-.1 5.1-.1 7.6-.2.5-.1 1.3-.4 1.9zm-5.7-5c0 1.7 1.3 3.1 3 3.1.6 0 .7-.6.7-1.1 0-.7-.2-1.4-.2-2.2 0-1.4-.4-1.7-1.7-1.7-1.1.1-1.8.9-1.8 1.9zM291.1 230c0 .4-.1.7-.3.7-.5.1-.6.1-1.1.2-.3.1-.4.1-.6-.3-.2-.5-.1-1.2-.1-1.8 0-.8.1-1.9.1-2.7 0-.1 0-.3.1-.4.3-.7.7-.5 1.1-.5.6 0 .8-.1 1 1 .1 1.2-.2 2.7-.2 3.8zM310.2 214.1c-.4.2-2 4.2-2.4 4.9-1 1.8-2 3.7-2.7 5.7-.1.4-.3 1.6-.7 1.8-.2.1-1.2.2-1.5.2-.7 0-.7-1.8-.7-2.3 0-1.4.2-2.7.2-4.1 0-1.9-.2-3.9-.2-5.8v-2.2c0-.7-.1-1.5-.1-2.2 0-.6 1.4-1 1.8-1 .4 0 .4.5.4.8 0 3.4-.1 6.7-.1 10.1 0 .6 0 1.1.1 1.7.8-1 2.5-4.3 2.9-5.5.5-1.3 1.2-2.5 1.7-3.8.2-.6.6-2.4 1-2.8.3-.3.8-.4 1.2-.4.6 0 .8.4.8.9 0 .7-.2 1.3-.2 2 0 4 .2 8.1.2 12.1 0 .9 0 1.9-.1 2.8-.1 1-.1.8-1 .8-.2 0-.4.1-.6.1-.5 0-.5-1.1-.5-1.5 0-4 .5-7.9.5-11.9v-.4zM323.5 218.4c0-4.2 1.7-8.9 6.6-8.9 5.1 0 6.1 6 6.1 9.9 0 4-1.7 8.7-6.5 8.7s-6.2-5.8-6.2-9.7zm2.1-.6c0 .6 0 1.2.1 1.8.2 2 1.5 6.3 4.1 6.3 3.3 0 4.3-4.9 4.3-7.4 0-2.3-.9-6.9-4-6.9-3.7 0-4.5 3.2-4.5 6.2zM346.7 214.3c.1 3.6 0 7.1.1 10.7 0 .7.1 1.3.1 2 0 .2 0 .7-.4.7-.2 0-.4-.1-.6-.1-1-.2-1.2-.8-1.2-1.7 0-.8.2-3.7-.2-4.3-.3-.4-.6-.5-1-.5-.8 0-1.5-.3-2.2-.3-.6 0-.6.7-.6 1.1 0 .7.1 1.3.1 2 0 .6.2 1.2.2 1.8 0 .7-1 .8-1.6.8-.6 0-1.1-.1-1.1-.7s.2-1.1.2-1.6c0-1.1-.1-2.3-.1-3.4 0-2.9.2-5.7.2-8.6 0-.8-.1-1.6-.1-2.4 0-.3 0-.5.4-.5.6 0 2.1-.2 2.1.6 0 .5-.2 1-.2 1.5v1c0 1.3.1 2.6 0 3.8 0 .6-.2 1.1-.2 1.7 0 .6.4.8 1 .9.7.1 1.5.2 2.2.2.1 0 .4 0 .5-.1.4-.2.4-1.6.4-2 0-.9-.1-1.7-.1-2.6 0-.8.1-1.7.1-2.5 0-.5-.1-1-.1-1.5 0-.6.2-1 .9-1 .9 0 1.2.5 1.2 1.3v3.7zM358.1 218.4c0-4.2 1.7-8.9 6.6-8.9 5.1 0 6.1 6 6.1 9.9 0 4-1.7 8.7-6.5 8.7-4.7 0-6.2-5.8-6.2-9.7zm2.2-.6c0 .6 0 1.2.1 1.8.2 2 1.5 6.3 4.1 6.3 3.3 0 4.3-4.9 4.3-7.4 0-2.3-.9-6.9-4-6.9-3.7 0-4.5 3.2-4.5 6.2zM373.4 207.9c-.3-.1-1.4-.1-1.7-.4v-.3c0-1.3 0-1.6 1.4-1.6.9 0 1.7.1 2.6.1.6 0 1.3-.1 1.9-.1.5 0 1.2 0 1.2.6 0 .4.1.8.1 1.2 0 .9-2.2-.2-2.2 1.2 0 .3 0 .6.1 1 .1 3.4.2 6.8.2 10.1 0 3.5 0 7 .2 10.5v.7c0 .3 0 .6-.4.6-.3 0-.7-.2-.9-.3-.6-.2-.8-.1-.8-1 0-.4.1-.9.1-1.3 0-6.6-.4-13.2-.4-19.7-.3-1.2-.3-1.1-1.4-1.3zM388 205.7c2.4 1.4 2.8 6.7 2.8 9.2v1h-.9c-.3 0-.5 0-.7-.1-.6-.2-.4 0-.6-.7-.3-1.7.2-7.4-2.4-7.4-2.3 0-2.3 5-2.3 6.5 0 1 .1 2 .1 3 0 1.9-.2 12 2.6 12 .9 0 1.4-1.1 1.6-1.8.2-.7.1-1.5.2-2.2.2-.8.2-.6.9-.7.5 0 1-.1 1.5-.2-.2 2-.1 4.4-1.4 6.1-.6.8-1.5 1.3-2.5 1.3-.8 0-1.6-.3-2.1-.9-3.1-3-2.9-9.2-2.9-13.2 0-2.1 0-4.3.2-6.4.2-2.7 1-6 4.5-6 .3 0 .9.2 1.4.5zM394.8 207.9c-.3-.1-1.4-.1-1.7-.4v-.3c0-1.3 0-1.6 1.4-1.6.9 0 1.7.1 2.6.1.6 0 1.3-.1 1.9-.1.5 0 1.2 0 1.2.6 0 .4.1.8.1 1.2 0 .9-2.2-.2-2.2 1.2 0 .3 0 .6.1 1 .1 3.4.2 6.8.2 10.1 0 3.5 0 7 .2 10.5v.7c0 .3 0 .6-.4.6-.3 0-.7-.2-.9-.3-.6-.2-.8-.1-.8-1 0-.4.1-.9.1-1.3 0-6.6-.4-13.2-.4-19.7-.3-1.2-.3-1.1-1.4-1.3zM412.9 231.1c-.4.5-1.1.5-1.6.5-3.9 0-6.6-1.8-6.6-6 0-1.9.9-3.6 3-3.6 1.2 0 2.3.9 2.8.9h.2c0-2.7 0-12.1-1.2-14-.3-.5-.8-.9-1.5-.9-1.4 0-2.2 1.5-2.2 2.7 0 1.1 0 1.3-1.1 1.3-.5 0-1.8.1-1.8-.6s.5-1.9.8-2.5c.9-1.7 2.9-3.4 4.9-3.4.5 0 .9.1 1.4.3 2.4 1.1 2.7 5.7 3 8 .3 2.6.4 5.2.4 7.8 0 2.5-.1 5.1-.1 7.6-.2.5-.1 1.3-.4 1.9zm-5.7-5c0 1.7 1.3 3.1 3 3.1.6 0 .7-.6.7-1.1 0-.7-.2-1.4-.2-2.2 0-1.4-.4-1.7-1.7-1.7-1.1.1-1.8.9-1.8 1.9zM424.8 214.3c.1 3.6 0 7.1.1 10.7 0 .7.1 1.3.1 2 0 .2 0 .7-.4.7-.2 0-.4-.1-.6-.1-1-.2-1.2-.8-1.2-1.7 0-.8.2-3.7-.2-4.3-.3-.4-.6-.5-1-.5-.8 0-1.5-.3-2.2-.3-.6 0-.6.7-.6 1.1 0 .7.1 1.3.1 2 0 .6.2 1.2.2 1.8 0 .7-1 .8-1.6.8-.6 0-1.1-.1-1.1-.7s.2-1.1.2-1.6c0-1.1-.1-2.3-.1-3.4 0-2.9.2-5.7.2-8.6 0-.8-.1-1.6-.1-2.4 0-.3 0-.5.4-.5.6 0 2.1-.2 2.1.6 0 .5-.2 1-.2 1.5v1c0 1.3.1 2.6 0 3.8 0 .6-.2 1.1-.2 1.7 0 .6.4.8 1 .9.7.1 1.5.2 2.2.2.1 0 .4 0 .5-.1.4-.2.4-1.6.4-2 0-.9-.1-1.7-.1-2.6 0-.8.1-1.7.1-2.5 0-.5-.1-1-.1-1.5 0-.6.2-1 .9-1 .9 0 1.2.5 1.2 1.3 0 1.2-.1 2.4 0 3.7zM433.2 228c-.4.1-.7.2-1.1.2-3.8 0-4.8-6.7-4.8-9.5 0-2.9.3-9.8 4.4-9.8 3.2 0 4.7 4.7 4.7 7.3 0 1.3-.7 1.5-1.8 1.5-1 0-2-.1-3-.1-.8 0-1.7.2-1.7 1.2 0 .5.1 1.1.2 1.6.1 1.3.2 5.5 2.1 5.5 1.9 0 1.3-3.7 1.8-3.9.2-.1.5-.2.7-.2.5 0 1 .1 1.5.1.4 0 .4.2.4.6 0 2-1.1 4.9-3.4 5.5zm-3-12.8c0 .3.6.3.8.3.7 0 1.4-.2 2.1-.3.5-.1.9 0 .9-.7 0-1.1-1-3.5-2.3-3.5-1.3 0-1.3 1.9-1.3 2.8v.7c-.1.3-.2.5-.2.7zM441 207.9c-.3-.1-1.4-.1-1.7-.4v-.3c0-1.3 0-1.6 1.4-1.6.9 0 1.7.1 2.6.1.6 0 1.3-.1 1.9-.1.5 0 1.2 0 1.2.6 0 .4.1.8.1 1.2 0 .9-2.2-.2-2.2 1.2 0 .3 0 .6.1 1 .1 3.4.2 6.8.2 10.1 0 3.5 0 7 .2 10.5v.7c0 .3 0 .6-.4.6-.3 0-.6-.2-.9-.3-.6-.2-.8-.1-.8-1 0-.4.1-.9.1-1.3 0-6.6-.4-13.2-.4-19.7-.3-1.2-.3-1.1-1.4-1.3zM455.4 217.3c.1.3.2 1.2.2 1.6 0 .2-.5.5-.6.6-.9.8-3.1 3.2-3.7 4.2-.2.4-.4.5-.8.6h-.1c-.6 0-.7-1.3-.7-1.7v-.4c.2-.5.8-.8 1.1-1.2.8-.9 1.6-1.7 2.4-2.6-1.2-1.5-2.7-2.8-4-4.2v-.3c0-.5.4-1.5 1-1.5.1 0 .5.5.6.6.5.6 3.3 3.5 3.8 3.8.4.2.7.2.8.5zm4.7-.3c.1.3.2 1.4.2 1.7 0 .1-1.6 1.8-1.8 2.1-.8 1-1.8 2.1-2.4 3.2-.2.3-.6 1-1 1-.3 0-1.1-1.5-1.1-1.8 0-.4.4-.4.5-.7.3-.7.7-.8 1.1-1.3.8-1 1.6-1.9 2.4-2.9-1.1-1.5-2.7-3.2-4-4.6-.1-.1-.2-.2-.2-.4 0-.4.7-1.6 1.1-1.6.1 0 .5.6.6.7.5.7 3.3 3.9 3.8 4.2.4.1.7.1.8.4z"/></g></g></switch></svg>