<svg id="Layer_1" xmlns="http://www.w3.org/2000/svg" xmlns:xlink="http://www.w3.org/1999/xlink" viewBox="0 0 521 457"><style>.st46{fill:#f0a49c}.st51{fill:#300e2e}.st69{fill:none;stroke:#ca5e34;stroke-width:3.1205;stroke-linecap:round;stroke-linejoin:round;stroke-miterlimit:10}.st70{fill:#f9d9c2}.st73{fill:none;stroke:#ca5e34;stroke-width:2.9909;stroke-linecap:round;stroke-linejoin:round;stroke-miterlimit:10}</style><switch><g><ellipse cx="270" cy="238.5" rx="217.9" ry="218.5" fill="#c4e5e5"/><defs><ellipse id="SVGID_13_" cx="270" cy="238.5" rx="217.9" ry="218.5"/></defs><clipPath id="SVGID_2_"><use xlink:href="#SVGID_13_" overflow="visible"/></clipPath><g clip-path="url(#SVGID_2_)"><path class="st51" d="M378.1 251.9c-28.1-34.8-22.6-56-28.2-90-20.2-123.3-90.5-85.2-90.5-85.2S244 358.9 276.5 365.3c32.6 6.4 48.8-33.6 67.5-40.5 2.2-.8 4.4-1.2 6.6-1.4-.7-9-2.1-19.7-4.9-31.8 0 0 8.8 10 8.8 31.9 15 1.3 28.1 14.9 28.1 14.9s19.8-56.3-4.5-86.5z"/><path class="st51" d="M272.9 73.8s-77.8-47.6-89.6 101.3c0 0-6.8 47.5-29.1 80.7s-4.6 69.3-4.6 69.3 5.4-11.2 17.8-12.8c.5-11.1 2.8-29.5 11.6-37.8 0 0-9.6 14.1-8.7 37.6 2.6 0 5.5.3 8.8 1.3 3.9 1.2 8.4 4.1 13.4 7.9 1.6-6.3 3.9-13.3 7-19.3 0 0-2.9 8.7-5.4 20.6 21.7 17.1 52 50 79.4 44 34.5-7.8-.6-292.8-.6-292.8z"/><path d="M304.1 183.5c1.2 11.6 6.2 16.6 21.5 15.2 11.6-1 19.7-14.2 18.5-25.8-1.2-11.6-10.2-15.4-22.4-12.9-8.6 1.7-18.8 11.9-17.6 23.5z" fill="#e58e88"/><path class="st69" d="M332 173.6s-10.5-3.6-16 11.2"/><path class="st46" d="M228.2 182.2c-2.7 11.4-8.3 15.6-23.2 12.4-11.4-2.5-17.8-16.5-15.1-27.9 2.7-11.4 12.1-13.9 23.9-10 8.2 2.7 17.1 14.1 14.4 25.5z"/><path class="st69" d="M201.8 168.8s10.8-2.3 14.4 13.2"/><path d="M254.6 91.7s-16.5 33.3-26.5 49.8-16 19.8-16 19.8l-12.3-28.4"/><path d="M310.1 384.9l27.5 107.6c4.1 17.4 17.7 27.6 34.8 22.5 15.7-4.7 19.6-21.1 19.6-21.1l-28.9-131.5-53 22.5z" fill="#eca179"/><path class="st70" d="M307 439.3s24.2 22 79.1-38.6l-47.8-97.5c-13.4-22.3-43-28.4-64.1-13.1-17.4 12.7-23.2 36.1-13.6 55.4l46.4 93.8z"/><path class="st70" d="M233.5 262.7s-40.3 13.1-72.2 26.1c-8.2 3.3-13.4 11.4-13.2 20.2l-1.8 231.3s119.3 27.3 177.4-16.5l.9-219.9c.2-8.6-5.3-17.9-13.2-21.4l-44.9-18.3-33-1.5z"/><path class="st46" d="M292.7 275.1l-10.3-4.5.4-72.4-36.2-12.8-13.1 76.6-18.1 8c2.9 4.5 7.8 11.1 13.9 16.5l.6.5c9.2 7.8 22.3 14.3 40.3 13.4 30.6-1.7 22.5-25.3 22.5-25.3z"/><path class="st70" d="M90.3 380.7s3.5 21.7 74.5 41l44.6-71c12.5-19.8 5.2-46.1-15.6-56.7-17.3-8.8-38.4-3.9-50 11.7l-53.5 75z"/><path d="M283 271c-22.3-7.2-41-51.2-41-51.2l42-5.8-1 57z"/><path class="st46" d="M250.5 79.7c13.5-3 27.7-3.3 41.2 0 18.2 4.4 41.4 12.8 42.8 45.4 2.4 54.3-6.3 94.6-34.5 105.8-21.7 8.6-36.9 4.4-60.7-10.3-8.8-5.5-16.9-20.7-18.9-31.2l-9.1-29.3c0-.1-25.4-66 39.2-80.4z"/><g><path class="st51" d="M304.7 147.5s-1 .4 7-.7c6.1-.8 7.3-.2 10.9 0 2 .1 4.8 3 5.6 1.5.6-1.2-.2-2.9-.9-3.6-1.9-2.1-4.6-5-12.1-4.1-9.5 1.2-10.5 6.9-10.5 6.9zM280.9 145.8s-.3 2.1-10.7-.8c-7.9-2.2-15.1-3.6-19.9-3.6-1.8 0-7.6 2.3-8.3.3-.6-1.7 0-3.2 1.7-3.9 3.4-1.5 15.2-3.7 24.8-1.1 12.3 3.3 12.4 9.1 12.4 9.1z"/><defs><path id="XMLID_42_" d="M277 165.5s-11.4-18.6-35.6-3.9c.1 0 12.3 17.4 35.6 3.9z"/></defs><use xlink:href="#XMLID_42_" overflow="visible" fill="#fff"/><clipPath id="XMLID_8_"><use xlink:href="#XMLID_42_" overflow="visible"/></clipPath><path d="M268.3 162.5c.7 4.7-2.6 9.1-7.4 9.8-4.7.7-9.1-2.6-9.8-7.4s2.6-9.1 7.4-9.8c4.8-.7 9.2 2.6 9.8 7.4z" clip-path="url(#XMLID_8_)"/><g><path d="M240.8 160.6c2.9-1.9 6.1-3.3 9.4-4.2 3.3-.9 6.7-1.5 10.2-1.2 3.4.3 6.8 1.4 9.6 3.2 2.9 1.8 5.4 4.2 7 7.1-1.8-2.8-4.4-5-7.3-6.6-2.9-1.5-6.1-2.5-9.4-2.5-3.3-.1-6.5.6-9.6 1.7-3.1 1.1-6 2.6-8.6 4.5-.5.4-1.3.3-1.7-.3-.3-.5-.2-1.3.4-1.7-.1 0 0 0 0 0z"/></g><g><defs><path id="XMLID_41_" d="M301.7 165.3s10.8-16.2 22.6-3.2c0 0-10.6 16.8-22.6 3.2z"/></defs><use xlink:href="#XMLID_41_" overflow="visible" fill="#fff"/><clipPath id="XMLID_11_"><use xlink:href="#XMLID_41_" overflow="visible"/></clipPath><path d="M305.3 162.4c-1.4 4.6.1 8.9 3.5 9.7 3.4.8 7.2-2.3 8.7-6.9 1.4-4.6-.1-8.9-3.5-9.7-3.4-.7-7.3 2.4-8.7 6.9z" clip-path="url(#XMLID_11_)"/><g><path d="M323.3 162.8c-1.2-1.8-2.7-3.3-4.6-4.3-.9-.5-2-.8-3-1-.3 0-.5-.1-.8-.1h-.8c-.6 0-1.1.1-1.6.2-2.2.4-4.2 1.4-6 2.8-1.8 1.3-3.5 3-4.8 4.8 1.2-2 2.7-3.8 4.4-5.3 1.8-1.5 3.8-2.8 6.1-3.5.6-.2 1.2-.3 1.8-.4.3 0 .6-.1.9-.1h1c1.2.1 2.5.4 3.6.9 2.3.9 4.3 2.6 5.8 4.5.4.5.3 1.3-.2 1.7s-1.3.5-1.8-.2c0 .1 0 .1 0 0z"/></g></g><path class="st73" d="M297.6 177.2l5 8.3-4.7 4.6M281.3 195.6s12 11.5 21.3 4.6"/></g><path class="st51" d="M339.3 142.4l-85.7-45.9s-38.9 51.1-39.7 63.4c-.8 12.3-23-26.8-20.8-39.8 2.2-12.9 26.1-64.9 66.5-53.5 40.5 11.5 62.3 12.9 75.2 37 8.8 16.4 4.5 38.8 4.5 38.8z"/></g></g></switch></svg>