<svg id="Layer_1" data-name="Layer 1" xmlns="http://www.w3.org/2000/svg" viewBox="0 0 1456.08 1021.32"><defs><style>.cls-1{fill:#fff}.cls-25,.cls-3,.cls-30,.cls-34,.cls-37,.cls-41,.cls-46,.cls-49,.cls-54,.cls-6{fill:none}.cls-3{stroke:#1691c9;stroke-width:6px}.cls-25,.cls-3,.cls-6{stroke-miterlimit:10}.cls-4{fill:#a7d1d0}.cls-5{fill:#eca179}.cls-6{stroke:#af4a25;stroke-width:1.71px}.cls-7{fill:#dc835e}.cls-8{fill:#6cb9d3}.cls-12{fill:#1b1c20}.cls-15{fill:#1691c9}.cls-16{fill:#c96e3d}.cls-17{fill:#c46234}.cls-30,.cls-34,.cls-37,.cls-41,.cls-46,.cls-49,.cls-54{stroke:#ca5e34;stroke-linecap:round;stroke-linejoin:round}.cls-21{fill:#95bcba}.cls-23{fill:#0d0506}.cls-25{stroke:#fdcd93;stroke-width:3.34px}.cls-26{fill:#f7f7f8}.cls-28{fill:#5da39e}.cls-29{fill:#c15e28}.cls-32{fill:#663205}.cls-34{stroke-width:2px}.cls-36{fill:#ffe6a1}.cls-37{stroke-width:1.93px}.cls-38{clip-path:url(#clip-path-5)}.cls-39{fill:#3181bc}.cls-40{clip-path:url(#clip-path-6)}.cls-41{stroke-width:1.85px}.cls-42{fill:#b7e1e1}.cls-43{fill:#f9d9c2}.cls-44{fill:#fbb817}.cls-45{fill:#98989c}.cls-46{stroke-width:1.51px}.cls-47{fill:#8ecddc}.cls-48{fill:#e4464e}.cls-49{stroke-width:1.53px}.cls-50{fill:#7b6451}.cls-52{fill:#604538}.cls-54{stroke-width:.87px}.cls-55{fill:#b74242}.cls-56{fill:#a52204}</style><clipPath id="clip-path"><path class="cls-1" d="M955.14 369.05c.66-3.63 7-1.93 8.91-2 1.67-.07 7.05.39 8.05 2.34-1.11 4.38-5.69 5.6-9.54 5.79s-8.08-2.5-7.42-6.13z"/></clipPath><clipPath id="clip-path-2"><path class="cls-1" d="M941.39 368.38c-1.09-1.86-3.83-2-5.79-1.95-1.49 0-3.86.39-4.75 2a5.53 5.53 0 0 0 5.46 5.28c3.17.15 5.1-2.18 5.08-5.33z"/></clipPath><clipPath id="clip-path-3"><path class="cls-1" d="M842.55 373.12s-6-11.09-20.45-3.34c0 0 6.55 10.4 20.45 3.34z"/></clipPath><clipPath id="clip-path-4"><path class="cls-1" d="M856.81 373.75s6.73-9.07 13.16-1.14c.03 0-6.61 9.39-13.16 1.14z"/></clipPath><clipPath id="clip-path-5"><path class="cls-1" d="M1093.77 413.29s6.26-10.24 19.6-2.15c0 0-6.74 9.55-19.6 2.15z"/></clipPath><clipPath id="clip-path-6"><path class="cls-1" d="M1080.19 413.17s-5.94-8.95-12.44-1.74c0 0 5.81 9.22 12.44 1.74z"/></clipPath><clipPath id="clip-path-9"><path class="cls-1" d="M443 300.23s-3.83-10.52-17.52-5.59c-.05 0 4.35 9.98 17.52 5.59z"/></clipPath><clipPath id="clip-path-10"><path class="cls-1" d="M455.38 302.62s7.08-7.08 11.69.7c0 0-7.01 7.36-11.69-.7z"/></clipPath></defs><path d="M931.19 10.19c-37.57.41-221.87-6.68-263.92-1.41C593.61 18 537 42.59 483.53 68.83c-67.13 33-127.7 71.27-184.91 112-74 52.71-142.34 109.49-196.46 177.06-47.53 59.38-43.66 129.5-35.22 226.33 4.77 54.76-8.41 112.26 36.92 195.54 191.51 351.91 1394.6 374.35 1283.19-396.76C1329.22-17.21 987 9.59 931.19 10.19z" fill="#c4e5e5"/><path class="cls-3" d="M1365.04 633.94l-802.76 10.4-6.41-541.03"/><path class="cls-4" d="M441.25 775.79C429.86 770 423.62 746.7 422 730.1c-24.85-256.49-42.49-347.86-72.94-338.24-59.65 18.83-1.62 379.66-1.42 386.83 1.42 52.4 106.32 36.71 117.64 36.37 54.5-1.6 67.2-2.75 73.74-5.61 38.49-16.83-60.1-14.45-97.77-33.66zM1244 941.44l-1.18-3.91q-2.19-3.71-7.66-6.29c-9.91-6.07-24.81-10-39.25-12.68-9.73-1.79-19.57-3.23-29.57-4.39-10.54-4.27-24.67-6.64-37.24-8.38-22-3-45.08-4.44-67.89-5.59-28.67-1.45-57.53-2.29-86.41-2.84-37.32-.71-74.65-.93-112.13.11-32.91.92-66.95 2.55-98.73 8.18-18 3.19-34.6 7.89-48.63 14.68s-24.48 17.16-23.85 26.89c1.21 18.6 35.86 26.24 67 29.24 19.82 7.64 45.72 9.21 70.9 9.12 49.11 1.84 98.76-1.4 147.81-5.41q30.27-.48 60.54-1.6c25.48-1 50.87-2.39 76.27-4.07 16.12-1.07 32.25-1.59 48.07-4a114.34 114.34 0 0 0 24.64-6.53c6.11-.48 12.2-1 18.26-1.82 11.38-1.54 23.61-4.9 31-9.86 4.64-3.18 8.53-6.81 8.05-10.85z"/><path class="cls-5" d="M938.33 499.73l-15.48 69.75a18.2 18.2 0 0 1-23.06 13 18.19 18.19 0 0 1-12.3-21.57l15.86-75.23z"/><path class="cls-5" d="M912.54 554.88l-101.21 1.52 3.85 15 94.44 16.6a22.2 22.2 0 0 0 19-5.28c4.34-4 6.84-9.54 5.29-15.26a17.68 17.68 0 0 0-21.37-12.58z"/><path class="cls-6" d="M889.59 555.22l22.95-.34"/><path class="cls-7" d="M778.36 547.52a37.55 37.55 0 0 0-15.87 6.48 3.71 3.71 0 0 0-1.85 2.4 2.35 2.35 0 0 0 1.31 2.19 3.75 3.75 0 0 0 2.64.21 1.8 1.8 0 0 0 2.19 1 6.4 6.4 0 0 0 2.28-1.38 18.46 18.46 0 0 1 9.29-3.7 5.37 5.37 0 0 1 4.82 1.52c2.08 1.72 3.89 3.9 6.39 4.94a16.35 16.35 0 0 0 4.62.93 3 3 0 0 0 1.61-.14 3 3 0 0 0 1-1 15.62 15.62 0 0 0 2.64-4.5 2.94 2.94 0 0 0 .15-1.55 3.27 3.27 0 0 0-.52-1.1 18.24 18.24 0 0 0-14.16-8.11z"/><path class="cls-5" d="M815.7 556c-10.41-5-24-11.71-28.71-13.33a13.73 13.73 0 0 0-7.73-.3c-5 1-7.77 2.5-12.33 4.85-1.7.87-4.71 2.67-5.52 4.41s-.16 2.26 1.58 3.06c1.25.58 2.72.18 4-.24 3.6-1.12 5.87-2.21 9.48-3.33a13.48 13.48 0 0 1 8.17.06c3.07 1 4.93 4.06 6.53 6.88-4.74 1.57-9.24 1.23-14.19.51-2.74-.39-5.67-.58-5.84 2.18-.1 1.54 1.43 2.67 2.73 3.5 3.69 2.39 9.39 2.23 13.44 3.92 3.4 1.42 3.53 4.07 7 5.3 5.54 2 11.64.64 17.37-.71a22.19 22.19 0 0 0 5.2-2.54 6.14 6.14 0 0 0 1.66-2.88c1.51-4.5-.64-10.26-2.84-11.34zM932.19 757.64l16.09 143.37 19.73-1.66-.57-144.68-35.25 2.97z"/><path class="cls-8" d="M946.25 904.07S921.84 911 911 918.92c-4 2.88-1.08 7.59.36 8.46 3.32 2 52.13-3.33 63.13-5.57 3.87-.78-2.23-15.91-7.45-19.93z"/><path d="M947.56 894.52s-24.82 13.8-35.66 21.7a7.46 7.46 0 0 0-2.79 7.54c3.32 2 55.37-4.46 66.36-6.69 0 0 1.35-10.69-7.35-24.28l-2.59 6-15 1.58z" fill="#003359"/><path class="cls-5" d="M991.97 754.4l11.64 147.24 18.3.25 5.39-149.3-35.33 1.81z"/><path class="cls-8" d="M1001 902.32s-24.91 4.88-36.38 11.84c-4.19 2.54-1.71 7.47-.35 8.47 3.13 2.29 52.23 1 63.37-.25 3.92-.46-.89-16-5.75-20.49z"/><path d="M1003.13 892.92s-25.89 11.67-37.36 18.63a7.45 7.45 0 0 0-3.41 7.28c3.14 2.29 55.54.21 66.69-1.1 0 0 1.45-10.53-6.08-24.81l-1.55 5.77-15.81.32z" fill="#003b71"/><path d="M925.73 585.31S904.48 800.2 905 855.42l64 4.19 20-274.3z" fill="#020403"/><path class="cls-12" d="M1014.17 585.31c27.88 65.22 35.84 270.11 35.84 270.11l-75.53 4.19-26.73-274.3z"/><path stroke="#ffebd8" stroke-miterlimit="10" fill="none" d="M961.79 742.77l-12.02-136.68"/><path d="M924.11 450c.74-.22-19.25 11.1-40.91 66l36.6 28.48 18.36-52.93z" fill="#2782af"/><path class="cls-15" d="M968.26 436.56s26 1.63 48.42 15a19.29 19.29 0 0 1 9.1 18.92l-11.61 114.87h-88.44l-16.58-96.47c-1.27-8.09.13-27.12 9.89-35.08 5.77-4.73 21.57-17.24 49.22-17.24z"/><path class="cls-5" d="M995.09 442a94.28 94.28 0 0 0-26.83-5.44c-14.72-.69-31.22 6.14-31.22 6.14L953 463.24z"/><path d="M918.38 543.27a96.72 96.72 0 0 1-3.13-11.47c-.84-3.88-1.46-7.8-1.94-11.74a110 110 0 0 1-.71-11.89 72.43 72.43 0 0 1 1-11.86c0 4 .14 7.89.38 11.82s.59 7.83 1.07 11.73 1 7.8 1.54 11.7 1.14 7.8 1.79 11.71z"/><path class="cls-5" d="M1046.92 509s12.65 39.52 20.15 74.95a16.89 16.89 0 0 1-10.77 19.42 16.87 16.87 0 0 1-21.84-11L1007 515.19z"/><path class="cls-15" d="M1010.2 448s34.28 8.36 55.34 79.62l-55 19.63L996 493.22z"/><path d="M1017.1 545c-1.05.48-2.12.95-3.18 1.39l-3.2 1.36a.42.42 0 0 1-.55-.22q-2.07-5.21-4-10.47t-3.7-10.56c-1.2-3.54-2.34-7.09-3.45-10.66s-2.13-7.25-3.02-10.84c1.49 3.43 2.89 6.9 4.23 10.38s2.63 7 3.87 10.51 2.44 7 3.6 10.6 2.28 7.11 3.34 10.69l-.57-.27 3.34-1c1.06-.34 2.19-.65 3.29-.91z"/><path class="cls-12" d="M947.72 500.14l-27.06-.91a1.64 1.64 0 0 0-1.61 2.16l19.35 56.8a1.62 1.62 0 0 0 1.49 1.11l27 .91a1.63 1.63 0 0 0 1.6-2.16l-19.28-56.8a1.65 1.65 0 0 0-1.49-1.11z"/><path class="cls-5" d="M960.71 535.11l7.46 5.31a25.42 25.42 0 0 1 7.69 8.73l5 9.45-8.44 14s-31.37 3.84-36.49-17.85a12.17 12.17 0 0 1 2-9.61 12.53 12.53 0 0 1 14.71-4.62l11.19 4.18z"/><path class="cls-5" d="M1049 571.38l-90-19.66 5.43 18 80.1 33.28c9 3.72 19.61-.8 22.28-10.13q.21-.75.36-1.53a16.94 16.94 0 0 0-18.17-19.96z"/><path class="cls-6" d="M1025.13 566.17l19.44 4.25"/><path d="M949 316.73s31.89-16.79 53.27 10.6c10.49 13.44 6.52 40 28.57 53.75 0 0-17.53 29.76-68.07 29.72-53.06 0-60.63-27.85-60.63-27.85a33.25 33.25 0 0 0 14.41-30.68c-1.63-21 12.33-47.22 32.45-35.54"/><path class="cls-16" d="M941.24 379.11c-1.2 6.18-4.12 8.59-12.24 7.14-6.2-1.1-9.92-8.53-8.71-14.7s6.2-7.75 12.64-5.88c4.49 1.33 9.52 7.26 8.31 13.44z"/><path class="cls-5" d="M973.36 381.85l7.41 61.65-28.6.25 1.48-55.05 19.71-6.85z"/><path class="cls-17" d="M952.79 422.32c12.16-3.43 22.43-24.8 22.43-24.8l-21.61-4.75z"/><path class="cls-5" d="M972.61 324.82a48.8 48.8 0 0 0-22.15-.85c-9.87 2-22.51 6.06-23.93 23.57-2.37 29.18 1.44 51 16.39 57.63 11.48 5.07 19.78 3.11 32.87-4.31 4.87-2.76 9.53-10.81 10.8-16.4l5.5-15.61s15.02-34.93-19.48-44.03z"/><path d="M992.8 334.53s-20.78 8.3-4.41 41l20.1-18.86-8.13-10.12z"/><path class="cls-5" d="M982.53 380.44c1.2 6.18 4.12 8.59 12.24 7.14 6.2-1.1 9.92-8.52 8.71-14.7s-6.2-7.75-12.64-5.88c-4.49 1.3-9.52 7.26-8.31 13.44z"/><path d="M997 373.78s-5.78-1.44-8 6.78" stroke-width="3.42" stroke-linecap="round" stroke-linejoin="round" stroke="#ca5e34" fill="none"/><path d="M998.31 342.52c-1.1.74-54.51 5.29-77.84-1.75 0 0 3.13-23.53 42.58-21.26 30.2 1.73 35.26 23.01 35.26 23.01z"/><path d="M944.85 376.34l-2.47 5.66 3.31 1.28" stroke-width="2.22" stroke-linecap="round" stroke-linejoin="round" stroke="#ca5e34" fill="none"/><path class="cls-1" d="M955.14 369.05c.66-3.63 7-1.93 8.91-2 1.67-.07 7.05.39 8.05 2.34-1.11 4.38-5.69 5.6-9.54 5.79s-8.08-2.5-7.42-6.13z"/><g clip-path="url(#clip-path)"><path class="cls-21" d="M964.61 371.14a5.24 5.24 0 1 1-5-5.82c3.11.1 5.11 2.79 5 5.82z"/></g><path d="M954.23 367.36A15 15 0 0 1 959 366a22.55 22.55 0 0 1 4.71-.08 21.66 21.66 0 0 1 4.6.76 10 10 0 0 1 4.15 2.3.53.53 0 0 1 0 .74.52.52 0 0 1-.69 0 8.66 8.66 0 0 0-3.83-1.52 20.22 20.22 0 0 0-4.27-.13 19.88 19.88 0 0 0-4.18.6 12.08 12.08 0 0 0-3.62 1.53 1.67 1.67 0 1 1-1.88-2.77.93.93 0 0 1 .19-.11z"/><path class="cls-1" d="M941.39 368.38c-1.09-1.86-3.83-2-5.79-1.95-1.49 0-3.86.39-4.75 2a5.53 5.53 0 0 0 5.46 5.28c3.17.15 5.1-2.18 5.08-5.33z"/><g clip-path="url(#clip-path-2)"><path class="cls-21" d="M929 370.69c.19 2.17 1.47 4.89 4 4.67s3.3-3.13 3.11-5.3-1.47-4.9-4-4.68-3.31 3.13-3.11 5.31z"/></g><path d="M940.44 369.73a9 9 0 0 0-4.71-2 5.61 5.61 0 0 0-4.93 1.27.52.52 0 0 1-.74 0 .51.51 0 0 1-.07-.66 5.85 5.85 0 0 1 2.56-2.12 8.92 8.92 0 0 1 3.23-.73 11.76 11.76 0 0 1 6.55 1.44 1.68 1.68 0 1 1-1.64 2.93z"/><path class="cls-23" d="M964.4 348.22a21.07 21.07 0 0 1 7.35 3.9c1.61 1.46 1.84 3.54-1 4-1.79.3-6.89-1.37-7.88-1.55-3.11-.55-10.1-4.1-8.63-6.7 2.03-3.63 7-.46 10.16.35zM933.17 347.87a16 16 0 0 0-5.55 3.85c-1.13 1.35-1.58 3.46.82 4 1.48.34 5.2-1.22 6-1.53 2.68-1 7.58-4.39 6.49-6.7-1.52-3.25-5.31-.49-7.76.38z"/><path d="M939.3 387.62c1.29 6.38 10.7 6.38 10.7-.23z" stroke="#000" stroke-width="1.11" stroke-linecap="round" stroke-linejoin="round" fill="none"/><path class="cls-25" d="M976.36 370.6a13.22 13.22 0 1 1-14.32-12 13 13 0 0 1 14.32 12zM942.88 367.84c1.17 6.48-1.61 13.69-8.58 15s-12.1-4.5-13.27-11 1.61-13.68 8.58-14.95 12.1 4.48 13.27 10.95zM943.2 370.94c2.11-1.57 4.38-1.06 6.57 0M976.74 370.37l9.96-2.16"/><path class="cls-5" d="M882.14 779.81l-4 144.21h-19.81l-11.57-144.21h35.38zM803.26 790.23l-21.17 143.6-19.21-2.47 7.52-141.13h32.86z"/><path class="cls-8" d="M880.41 926.9s21.21 5.75 32.69 12.71c4.18 2.54.9 8.8-4.31 9.08-3.87.21-43.87-.43-55-1.74-3.93-.46.88-16 5.74-20.49z"/><path class="cls-26" d="M878.31 917.5s14.05 9.32 33.56 21.08c4.48 2.7 1.39 6.77-5.07 6.65-11.49-.23-44.89-1.81-54.41-2.93 0 0-2.25-10.53 5.28-24.8l3.09 5.78 8.49.18a9.58 9.58 0 0 0 9.06-6z"/><path class="cls-8" d="M784.68 934.51s24.91 4.88 36.39 11.84c4.18 2.54 1.71 7.47.34 8.47-3.13 2.29-52.22 1-63.36-.26-3.93-.46.88-16 5.74-20.48z"/><path class="cls-26" d="M782.58 925.11s25.88 11.67 37.35 18.63a7.45 7.45 0 0 1 3.41 7.28c-3.13 2.29-55.54.2-66.68-1.1 0 0-1.46-10.53 6.07-24.81l1.55 5.77 15.82.32z"/><path class="cls-5" d="M880.15 553.9l31 96.36-15.42 1.15-46-84.14a22.18 22.18 0 0 1-1.08-19.66c2.41-5.4 6.84-9.53 12.76-9.9a17.66 17.66 0 0 1 18.74 16.19z"/><path class="cls-6" d="M887.18 575.75l-7.03-21.85"/><path class="cls-7" d="M930.14 678.64a37.53 37.53 0 0 1-1 17.11 3.68 3.68 0 0 1-1.68 2.51 2.33 2.33 0 0 1-2.5-.53 3.74 3.74 0 0 1-1-2.43c-.9.06-1.6-.86-1.68-1.75a6.45 6.45 0 0 1 .57-2.6 18.41 18.41 0 0 0 .53-10 6.44 6.44 0 0 0-.85-2.22 6.73 6.73 0 0 0-2.13-1.87c-2.31-1.42-5-2.42-6.73-4.46a16.09 16.09 0 0 1-2.36-4.08 3 3 0 0 1-.39-1.57 3.13 3.13 0 0 1 .61-1.29 15.78 15.78 0 0 1 3.41-4 3.1 3.1 0 0 1 1.42-.64 3.3 3.3 0 0 1 1.21.15 18.19 18.19 0 0 1 12.22 10.81z"/><path class="cls-5" d="M910.13 646c8.09 8.24 18.77 19 21.82 22.91a13.78 13.78 0 0 1 2.77 7.23c.65 5.09.12 8.17-.64 13.23-.29 1.9-1 5.32-2.41 6.65s-2.09.88-3.41-.51c-1-1-1-2.53-1.07-3.91-.09-3.77.21-6.27.12-10a13.5 13.5 0 0 0-2.68-7.73c-2-2.58-5.42-3.37-8.61-4 0 5 1.8 9.15 4.07 13.61 1.25 2.46 2.37 5.18-.19 6.23-1.43.58-3-.5-4.2-1.46-3.44-2.74-5.11-8.18-8-11.48-2.43-2.77-5-2-7.27-4.93-3.64-4.61-4.33-10.82-4.88-16.68a22.2 22.2 0 0 1 .73-5.74 6.15 6.15 0 0 1 2.2-2.5c3.79-2.86 9.94-2.67 11.65-.92zM856.75 485.21l-5.41 70.68c-.52 10.36 5.39 18.2 15.76 18.13 9.49-.07 14.33-8.6 14.33-8.6L894 481.93z"/><path d="M859.92 576.29s31.52 90 32.84 336.56l-39.37 2.3-57-335.86z" fill="#ad532f"/><path class="cls-17" d="M767.63 588.55c-13.26 35.7-9.26 77-3.58 190.39 0 0-7.09 53-10.08 76.15-4.53 35-6.23 63.06-6.23 63.06l42.23.19 28.92-114.59a218.7 218.7 0 0 0 6.11-38.49l12.83-187.93z"/><path class="cls-21" d="M857.45 522.71s14 2.77 46.21-32l-27.13-46.67a25.64 25.64 0 0 0-37-8 25.64 25.64 0 0 0-8.29 32z"/><path class="cls-28" d="M823.49 587.45l-48.78.88c-23.89.57-44.56-18.34-45.13-42.23l-1.55-65c-.65-27.55 22-50.41 49.53-51.06l42.17-.73A43.28 43.28 0 0 1 864 471.57l1.7 71.59a43.27 43.27 0 0 1-42.21 44.29z"/><path class="cls-21" d="M815.4 429.86s-23.51-3.19-42 4.35c-4.74 1.94-9.47 16.45-9.33 21.57l3.57 132.77s73 14 95.51-5.78l3.11-129.92a12.29 12.29 0 0 0-7.37-11.55l-26.26-11.44z"/><path class="cls-5" d="M802.41 433.56l13-3.7h17.22l14.31 6.23s4.67 13.68-13 14.63-27.27-10.63-31.53-17.16z"/><path class="cls-28" d="M850.89 428.57s14.84 29.89 13.74 91.71c0 0 3.25-2.88 6.68-12.86 5.19-15.12 3.69-56.31-10.66-74.35a10.05 10.05 0 0 0-4.22-3.09 17 17 0 0 0-5.54-1.41z"/><path class="cls-5" d="M749 499.68l17.5 39.67a19 19 0 0 0 26.67 7.07 19 19 0 0 0 6.78-25l-27.26-42.85z"/><path class="cls-21" d="M741.4 509.87s7.09 12.57 55.25 8.24l11.29-53.94a26.18 26.18 0 0 0-22.59-31.36 26.18 26.18 0 0 0-28.14 18.62z"/><path class="cls-28" d="M775.2 433.62s35.44 27.4 28.06 101.49c0 0 20.44-14 20.41-39.52 0-12.89-3-47.55-31.17-65.73 0 0-3.63-3.56-13.65.19-3.85 1.42-3.65 3.57-3.65 3.57z"/><path class="cls-29" d="M772.5 377.23c16.5-12.54 13.56-21.12 17.09-34.29 12.79-47.76 53-29.79 53-29.79s6.34 111.93-12.5 113.09-27.87-15.24-38.59-18.83a19.54 19.54 0 0 0-3.77-.81 57.14 57.14 0 0 1 3.1-12.35s-5.15 3.56-5.35 12.2c-8.65-.12-16.36 4.69-16.36 4.69s-10.95-23.02 3.38-33.91z"/><path class="cls-29" d="M834.78 311.44s45.34-15.5 50.74 43.71c0 0 3.47 19 16 33s2 27.51 2 27.51-3-4.63-10.13-5.8c-.21-4.4-1.34-11.74-6.33-15.4a21.56 21.56 0 0 1 4.7 15.2 23.2 23.2 0 0 0-5.07.15 30.39 30.39 0 0 0-7.81 2.54 33.48 33.48 0 0 0-3.87-7.89 66.31 66.31 0 0 1 2.9 8.34c-12.69 5.82-30.47 17.54-46.19 14-19.78-4.44 3.06-115.36 3.06-115.36z"/><path class="cls-7" d="M859.58 378.24c.35 6.76 3.1 9.76 12 9.45 6.77-.24 11.85-7.58 11.5-14.34s-5.44-9.19-12.58-8.17c-5.01.71-11.27 6.3-10.92 13.06z"/><path class="cls-30" d="M876 373.34s-5.94-2.41-9.56 6"/><path class="cls-5" d="M822.08 378.82l-13.17 58.17 30.6 3.07 3.1-52.74-20.53-8.5z"/><path class="cls-7" d="M840.18 424.17c-12.69-4.86-21.62-28.75-21.62-28.75l23.62-3z"/><path class="cls-5" d="M828.42 317.82a52.63 52.63 0 0 1 23.81 1.24c10.38 3.12 23.52 8.67 23.34 27.56-.29 31.48-6.5 54.51-23.15 60.13-12.79 4.32-21.49 1.42-34.79-7.8-5-3.43-9.15-12.51-10-18.62l-4.38-17.25s-12.66-38.86 25.17-45.26z"/><path class="cls-29" d="M858.28 356.41s-1.47 2.54 3.13 3.56a29.28 29.28 0 0 1 6.34 1.9 3.11 3.11 0 0 0 3.15-.34 2.09 2.09 0 0 0 .21-2.17c-.63-1.52-1.53-3.64-5.76-4.63-5.44-1.26-7.07 1.68-7.07 1.68zM843.41 355.63s1.24 3.55-5 3.7a82.69 82.69 0 0 0-13.25 1.82 4.23 4.23 0 0 1-4-1.21 1.71 1.71 0 0 1 .27-2.48 27 27 0 0 1 13.57-4.81c7.39-.25 8.41 2.98 8.41 2.98z"/><path class="cls-1" d="M842.55 373.12s-6-11.09-20.45-3.34c0 0 6.55 10.4 20.45 3.34z"/><g clip-path="url(#clip-path-3)"><path class="cls-32" d="M843.41 372a5 5 0 1 1-5.46-4.56 5 5 0 0 1 5.46 4.56z"/></g><path d="M821.35 368.54a20.7 20.7 0 0 1 5.82-2 16.66 16.66 0 0 1 6.1-.22 13.07 13.07 0 0 1 5.54 2.36 11.71 11.71 0 0 1 3.74 4.48 11.37 11.37 0 0 0-4.14-3.87 11.73 11.73 0 0 0-5.3-1.52 14.9 14.9 0 0 0-5.39.87 18.47 18.47 0 0 0-4.87 2.42 1.46 1.46 0 0 1-1.67-2.39l.15-.09z"/><path class="cls-1" d="M856.81 373.75s6.73-9.07 13.16-1.14c.03 0-6.61 9.39-13.16 1.14z"/><g clip-path="url(#clip-path-4)"><path class="cls-32" d="M865 373.26c-.84 2.57-.09 5.13 1.67 5.7s3.88-1 4.72-3.62.09-5.13-1.68-5.71-3.84 1.05-4.71 3.63z"/></g><path d="M868.75 373.39a6.68 6.68 0 0 0-2.16-2.52 4.85 4.85 0 0 0-1.51-.71 2.5 2.5 0 0 0-.8-.11 5.41 5.41 0 0 0-.9 0 8.46 8.46 0 0 0-3.53 1.19 12.52 12.52 0 0 0-3 2.5 13 13 0 0 1 2.61-3.09 9.69 9.69 0 0 1 3.69-2 5.65 5.65 0 0 1 1.07-.22 4.61 4.61 0 0 1 1.19-.06 7.26 7.26 0 0 1 2.24.58 9.23 9.23 0 0 1 3.58 2.88 1.46 1.46 0 0 1-2.31 1.79 1.76 1.76 0 0 1-.17-.23z"/><path class="cls-34" d="M852.64 376.92l2.65 4.92-2.88 2.5M837.77 383.65s3 10.4 18.43 8.32"/><path class="cls-5" d="M812.4 376.43c-1.89 6.5-5.25 8.79-13.81 6.46-6.53-1.78-9.79-10.1-7.9-16.6s7.39-7.7 14.11-5.07c4.68 1.83 9.49 8.71 7.6 15.21z"/><path class="cls-30" d="M797.51 367.88s6.34-1 7.93 8.05"/><path class="cls-29" d="M877.84 356.78l-48.13-29.15s-24.06 28.37-24.89 35.45-12.49-16.23-10.82-23.63 17-36.76 40.1-28.89 35.66 9.34 42.37 23.7c4.53 9.74 1.37 22.52 1.37 22.52z"/><path class="cls-29" d="M830.42 324.91c-1.62 3.7-3.4 7.31-5.26 10.88s-3.81 7.08-5.85 10.55c-1 1.75-2.09 3.44-3.17 5.15s-2.21 3.41-3.45 5a60.58 60.58 0 0 1-3.89 4.75c-.71.75-1.43 1.49-2.2 2.19-.38.35-.78.7-1.19 1a10.56 10.56 0 0 1-1.37 1l-1.24.76-.41-1.36c-.89-2.94-1.77-5.9-2.59-8.86s-1.62-5.95-2.3-9c1.3 2.8 2.48 5.65 3.66 8.5s2.27 5.73 3.37 8.6l-1.66-.6a20.66 20.66 0 0 0 2-1.83c.68-.69 1.33-1.41 2-2.16 1.25-1.49 2.48-3 3.63-4.63s2.26-3.25 3.37-4.9l3.25-5 6.52-10.09c2.22-3.31 4.45-6.66 6.78-9.95z"/><path class="cls-5" d="M866 377.68c-5.63-2.14-24.06 13.13-28.5 27.46 0 0-7.52-15.23-10.16-14.17s1.59 21.27 1.59 21.27c1.08 7.61 1.46 20.18-8.22 35.8l17.83 12.4c12.86-13.23 43.93-67.7 36.53-69.47-1.67-.4-10.41 15.82-11.21 14.42-1.34-2.32 14.76-20.84 9.47-22-.93-.21-4.88 4-8.13 8.36-2.66 3.59-4.75 7.57-5.12 7-1.12-1.6 10.32-15.24 10.84-16.44 1.46-3.37-.86-3.71-2.22-2.69-1.05.79-14.48 14.65-15.32 14-1.29-1.01 15.26-14.93 12.62-15.94z"/><path d="M865.84 377.68c-5.63-2.14-24.07 13.13-28.5 27.46 0 0-7.52-15.23-10.16-14.17s1.59 21.27 1.59 21.27c1.07 7.61 1.45 20.18-8.22 35.8l17.83 12.4c12.86-13.23 43.93-67.7 36.53-69.47-1.67-.4-10.41 15.82-11.22 14.42-1.33-2.32 14.77-20.84 9.48-22-.93-.21-4.88 4-8.13 8.36-2.66 3.59-4.75 7.57-5.12 7-1.12-1.6 10.32-15.24 10.84-16.44 1.46-3.37-.86-3.71-2.22-2.69-1 .79-14.48 14.65-15.32 14-1.28-1.01 15.27-14.93 12.62-15.94z" stroke="#c46234" stroke-miterlimit="10" fill="none"/><path class="cls-5" d="M769.4 520.93l55.73-79.37 17.31 12.1-41.08 85.4a18.43 18.43 0 0 1-27.21 7.23 18.42 18.42 0 0 1-4.75-25.36z"/><path class="cls-36" d="M1038.11 460.87c15.46-19.17 12.47-30.85 15.54-49.57 11.15-67.92 49.87-46.95 49.87-46.95s8.51 155.49-9.43 159-26.89-18.5-37.19-22.34a12.31 12.31 0 0 0-3.61-.75 115.48 115.48 0 0 1 2.68-17.55s-4.84 5.49-4.83 17.56c-8.25.72-15.5 8.2-15.5 8.2s-10.94-30.95 2.47-47.6z"/><path class="cls-36" d="M1096.05 362.77s42.89-26.24 49.35 55.8c0 0 3.73 26.18 16 44.44s2.52 38.17 2.52 38.17-3-6.15-9.79-7.06c-.29-6.12-1.53-16.25-6.38-20.83 0 0 5.3 7.75 4.82 20.72a15.33 15.33 0 0 0-4.82.72 25.93 25.93 0 0 0-7.4 4.34 52.61 52.61 0 0 0-3.86-10.61 117 117 0 0 1 3 11.33c-12 9.42-28.67 27.57-43.74 24.23-19.03-4.21.3-161.25.3-161.25z"/><path class="cls-7" d="M1078.87 423.22c-.67 6.41-3.43 9.13-11.84 8.39-6.41-.57-10.87-7.8-10.2-14.21s5.62-8.46 12.36-7.13c4.69.92 10.35 6.55 9.68 12.95z"/><path class="cls-37" d="M1063.48 417.74s5.78-2 8.79 6.19"/><path class="cls-5" d="M1111.34 424.27l9.6 55.93-29.23 1.38-.3-50.27 19.93-7.04z"/><path class="cls-7" d="M1091.87 466.45c12.3-4 22-26.23 22-26.23l-22.29-4z"/><path class="cls-5" d="M1108.38 366a50.11 50.11 0 0 0-22.69 0c-10 2.44-22.79 7.06-23.57 25-1.29 29.93 3.45 52.13 19 58.3 11.94 4.74 20.36 2.42 33.45-5.67 4.88-3 9.33-11.43 10.41-17.19l5-16.17S1144 374 1108.38 366z"/><path class="cls-36" d="M1080.5 401.36s.49 2.75-4 2.16a28.05 28.05 0 0 0-6.29-.36 3 3 0 0 1-2.71-1.33 2 2 0 0 1 .51-2c1.06-1.15 2.57-2.76 6.67-2.26 5.32.63 5.82 3.79 5.82 3.79zM1088.67 402.45s-.13 3.57 5.61 2a78.8 78.8 0 0 1 12.57-2 4 4 0 0 0 3.32-2.22 1.63 1.63 0 0 0-.94-2.18 25.73 25.73 0 0 0-13.69-.59c-6.84 1.77-6.87 4.99-6.87 4.99z"/><path class="cls-1" d="M1093.77 413.29s6.26-10.24 19.6-2.15c0 0-6.74 9.55-19.6 2.15z"/><g class="cls-38"><path class="cls-39" d="M1092.58 411.61a4.78 4.78 0 1 0 5.41-4.06 4.78 4.78 0 0 0-5.41 4.06z"/></g><path d="M1113 411.76a18.09 18.09 0 0 0-4.71-2.47 14.79 14.79 0 0 0-5.25-1 11.55 11.55 0 0 0-5.17 1.36 11 11 0 0 0-4 3.61 11.09 11.09 0 0 1 3.86-3.93 12 12 0 0 1 5.32-1.79 15.74 15.74 0 0 1 5.63.65 19.74 19.74 0 0 1 5.22 2.3.74.74 0 0 1 .23 1 .74.74 0 0 1-1 .23z"/><path class="cls-1" d="M1080.19 413.17s-5.94-8.95-12.44-1.74c0 0 5.81 9.22 12.44 1.74z"/><g class="cls-40"><path class="cls-39" d="M1074.32 411.61c.66 2.49-.18 4.88-1.88 5.34s-3.63-1.19-4.3-3.68.17-4.88 1.88-5.34 3.63 1.19 4.3 3.68z"/></g><path d="M1067.14 411a8.17 8.17 0 0 1 3.23-2.5 6.28 6.28 0 0 1 2-.47 3.58 3.58 0 0 1 1 .07 6.33 6.33 0 0 1 1 .22 8.71 8.71 0 0 1 3.37 1.93 11.94 11.94 0 0 1 2.43 2.93 11.9 11.9 0 0 0-2.66-2.64 8.29 8.29 0 0 0-3.32-1.49 4.51 4.51 0 0 0-.89-.11 3 3 0 0 0-.85 0 5.34 5.34 0 0 0-1.63.56 7 7 0 0 0-2.49 2.36.75.75 0 1 1-1.25-.82z"/><path class="cls-41" d="M1082.45 419.75l-2.77 4.55 2.61 2.51M1091.41 429.89s-6.62 6.32-11.76 2.52"/><path class="cls-5" d="M1120.66 422.48c1.47 6.27 4.55 8.62 12.8 6.83 6.29-1.37 9.81-9.11 8.34-15.38s-6.64-7.68-13.16-5.52c-4.54 1.51-9.45 7.8-7.98 14.07z"/><path class="cls-37" d="M1135.24 415.11s-6-1.25-8 7.24"/><path class="cls-36" d="M1059.46 400.53l47.2-25.29s21.44 28.15 21.87 34.93 12.68-14.79 11.48-21.9-14.36-35.79-36.66-29.46-34.35 7.08-41.45 20.39c-4.8 8.99-2.44 21.33-2.44 21.33z"/><path class="cls-36" d="M1106.11 372.63c1.88 3.33 3.76 6.66 5.58 10l5.55 10c1.86 3.32 3.74 6.64 5.79 9.81 1 1.59 2.13 3.13 3.28 4.62a26.58 26.58 0 0 0 3.77 4.05l-.86.26 3.46-8.07 1.79-4c.59-1.34 1.2-2.67 1.82-4-.46 1.39-1 2.77-1.44 4.15l-1.48 4.14-3.08 8.23-.26.69-.6-.43a16 16 0 0 1-2.22-2c-.68-.7-1.32-1.44-1.93-2.19a57.46 57.46 0 0 1-3.41-4.67c-2.14-3.22-4-6.59-5.78-10s-3.51-6.8-5.17-10.24-3.28-6.85-4.81-10.35z"/><path class="cls-5" d="M1072.05 764.44l4.01 144.21h19.8l11.57-144.21h-35.38zM1118.29 773.01l11.64 147.25 18.3.24 5.39-149.29-35.33 1.8z"/><path class="cls-15" d="M1167.72 769.45l1.45 8.5c-7 1.21-14.92 2.25-24.26 3l-.71-8.7c-3.69.28-7.59.51-11.67.7l.35 8.73c-5.39.23-11.12.36-17.21.36s-11.82-.13-17.22-.36l.35-8.73q-6.13-.29-11.69-.7l-.7 8.7c-9.35-.74-17.27-1.78-24.27-3l1.46-8.5c-4.16-.7-7.93-1.45-11.33-2.22l-1.79 8.36c-17.91-4.22-25.22-8.92-25.22-8.92L1075.71 585h79.86l50.48 181.72s-7.32 4.7-25.24 8.92l-1.79-8.36c-3.38.72-7.14 1.47-11.3 2.17z"/><path class="cls-42" d="M1180.82 775.6q-3.66-14-6.89-28.09c-2.19-9.39-4.25-18.8-6.29-28.22s-4-18.86-5.8-28.32-3.6-18.94-5.19-28.46q3.66 14 6.9 28.09c2.19 9.39 4.25 18.8 6.28 28.22s4 18.87 5.8 28.33 3.6 18.94 5.19 28.45zM1074.62 662.5q-2.38 14.28-5.19 28.46c-1.84 9.46-3.81 18.89-5.8 28.32s-4.09 18.83-6.28 28.22-4.46 18.76-6.9 28.09q2.38-14.26 5.19-28.45c1.84-9.46 3.81-18.9 5.8-28.33s4.1-18.83 6.29-28.22 4.45-18.76 6.89-28.09zM1062.11 778q1.82-14.51 4.05-29c1.46-9.63 3-19.24 4.67-28.85s3.34-19.19 5.15-28.76 3.7-19.13 5.77-28.66q-1.82 14.52-4 28.95c-1.46 9.64-3 19.25-4.67 28.85s-3.34 19.19-5.15 28.76-3.75 19.13-5.82 28.71zM1096 663.19c-.37 9.85-.89 19.79-1.58 29.73s-1.48 19.9-2.34 29.82-1.82 19.76-2.8 29.48l-2.9 28.72 1.9-30.16c.63-9.9 1.3-19.66 2-29.39s1.53-19.38 2.48-29 2.01-19.39 3.24-29.2zM1169.17 778q-3.09-14.3-5.77-28.66c-1.81-9.57-3.49-19.16-5.15-28.76s-3.2-19.21-4.67-28.85-2.84-19.27-4-28.95q3.09 14.29 5.77 28.66c1.81 9.57 3.49 19.17 5.15 28.76s3.2 19.22 4.66 28.85 2.84 19.23 4.01 28.95zM1135.28 663.19c1.23 9.78 2.32 19.48 3.24 29.19s1.77 19.41 2.55 29.14 1.45 19.51 2.08 29.39 1.21 19.86 1.75 30c-1.05-9.46-2.1-19.09-3.05-28.85s-1.87-19.6-2.73-29.48-1.62-19.81-2.27-29.74-1.2-19.84-1.57-29.65zM1098.43 781.67c.39-9.42.67-19 .89-28.74l.65-29.61c.27-10 .62-20.07 1.15-30.09s1.19-20 2-29.8c0 9.87-.06 19.62-.34 29.31s-.7 19.33-1.21 29l-1.71 29.51c-.53 9.99-1.04 20.13-1.43 30.42zM1128.15 663.43c.82 9.83 1.51 19.79 2 29.8s.88 20.09 1.15 30.09l.65 29.62c.23 9.75.5 19.31.9 28.73-.39-10.29-.9-20.44-1.46-30.39l-1.7-29.51c-.52-9.7-1-19.34-1.21-29s-.37-19.47-.33-29.34z"/><path class="cls-5" d="M1075.54 534.2l-15.16 59.26c-2.26 9.61-9.74 15.22-19.2 12.41-8.66-2.56-10.83-11.64-10.83-11.64l15.91-72.45z"/><path class="cls-43" d="M1077.26 564.17s-13.35 12.13-43.61-21.28l26.35-53.75a24.4 24.4 0 0 1 35.3-7.22 24.39 24.39 0 0 1 7.52 30.54z"/><path class="cls-44" d="M1108.27 617.69l46.42.84c22.73.54 42.4-17.45 42.94-40.18l1.47-61.83c.63-26.21-20.91-48-47.12-48.59l-40.13-.69a41.18 41.18 0 0 0-42.14 40.19l-1.62 68.12a41.17 41.17 0 0 0 40.18 42.14z"/><path class="cls-43" d="M1116 467.73s24 6.34 41.58 13.52a11.7 11.7 0 0 1 7.28 11.15l1 127.45s-65.73 15.07-97.74-9.07l-.48-121.16a11.69 11.69 0 0 1 7-11l25-10.89z"/><path class="cls-5" d="M1128.33 471.25l-9.75-4.8-19 1.28-13.58 5.94s-4.44 13 12.39 13.91 25.89-10.11 29.94-16.33z"/><path class="cls-44" d="M1081.22 475.74s-18.27 22.95-12 80.34c0 0-2.27-1.07-5.53-10.57-4.94-14.39-5.38-48.32 8.28-65.49a9.53 9.53 0 0 1 4-2.93 16.44 16.44 0 0 1 5.25-1.35z"/><path class="cls-5" d="M1167.49 528.67l-27 56.34a15.89 15.89 0 0 1-22.2 6.47 15.9 15.9 0 0 1-6.2-20.81l28.41-60.92z"/><path class="cls-43" d="M1163.89 557s-10.21 6.5-44.13-15.73l13-44.36a22 22 0 0 1 29.1-14.27 22 22 0 0 1 13.46 24.89z"/><path class="cls-44" d="M1157 479.63s-33.4 10.42-35.38 69.11c0 0-4.2-6.18-5.24-16.94s2-45.43 28.72-57.86a12.47 12.47 0 0 1 6 1.8 69.56 69.56 0 0 1 5.9 3.89z"/><path class="cls-45" d="M1073.78 911.53s-24.91 4.88-36.38 11.84c-4.19 2.54-1.71 7.47-.35 8.47 3.13 2.28 52.23 1 63.37-.26 3.92-.46-.89-16-5.75-20.49z"/><path class="cls-36" d="M1075.89 902.13s-25.89 11.66-37.36 18.63a7.45 7.45 0 0 0-3.41 7.28c3.14 2.29 55.54.2 66.68-1.1 0 0 2.25-10.54-5.28-24.81l-3.08 5.78-15.08.31z"/><path class="cls-45" d="M1127.34 920.94s-24.91 4.87-36.38 11.84c-4.19 2.54-1.71 7.47-.35 8.46 3.13 2.29 52.22 1.06 63.37-.25 3.92-.46-.89-16-5.75-20.49z"/><path class="cls-36" d="M1129.44 911.54s-25.88 11.66-37.35 18.63a7.44 7.44 0 0 0-3.41 7.28c3.14 2.29 55.54.2 66.68-1.1 0 0 1.46-10.54-6.07-24.81l-1.55 5.77-15.82.32z"/><path class="cls-5" d="M1057.72 491c4.12-2.82 8.35 1.6 11.77 7.34l.36-4.22c.15-1.7.36-4.21 2.72-4.14s3.49 2 3.91 3.52l3.15 9.8c1.35 6.21.54 14.32-1.87 20.86l-7 7.08c-38.99-18.66-22.22-33.94-13.04-40.24z"/><path class="cls-5" d="M1135.43 568.26l-59.12-54.42-11.87 12.85 48.32 61.89a15.26 15.26 0 0 0 23.3 1 15.26 15.26 0 0 0-.63-21.32z"/><path class="cls-46" d="M1115.44 550.48l14.9 13.46"/><path class="cls-47" d="M1033 695.2l-21.64 8.25a2.53 2.53 0 0 0-2 2.92l9.59 55.07a2.52 2.52 0 0 0 2.92 2l21.63-8.25a2.53 2.53 0 0 0 2.06-2.92l-9.59-55.07a2.53 2.53 0 0 0-2.97-2z"/><path class="cls-48" d="M1031.83 694.63l-21.64 8.25a2.53 2.53 0 0 0-2.05 2.92l9.58 55.07a2.53 2.53 0 0 0 2.92 2l21.64-8.25a2.53 2.53 0 0 0 2.06-2.92l-9.59-55.07a2.53 2.53 0 0 0-2.92-2z"/><path class="cls-5" d="M1055.28 612.23l-17 70.56-12.68-11.65 4.54-79.19c.51-8.85 8.47-15.82 17.21-14.3a14.3 14.3 0 0 1 1.41.32c9.97 2.69 14.45 5.51 6.52 34.26z"/><path class="cls-5" d="M1041.67 668.86c.33 4.33 1.74 8.14 2.57 12.52 1.33 7.07 2.68 14.86 1.67 22.06-.59 4.19-2.6 8-4.58 11.78-.55 1-1.57 2.29-2.67 1.83a2.22 2.22 0 0 1-1.08-1.68c-1-4.36.15-9-.78-13.39-.23-1.08-.86-2.35-2-2.34-1 0-1.42 1-1.77 1.72-.57 1.18-1.36 2.26-2 3.4a21.36 21.36 0 0 0-3.1 7.89 27.43 27.43 0 0 0-.13 4.44l.15 5.69a11.8 11.8 0 0 1-.15 2.91 4 4 0 0 1-1.48 2.45 1.72 1.72 0 0 1-2 .15 5.52 5.52 0 0 1-1.95 1.65 2.16 2.16 0 0 1-2.4-.35 3.08 3.08 0 0 0-.49-.53 2.34 2.34 0 0 0-.79-.24 4.33 4.33 0 0 1-2.86-2.48 12.93 12.93 0 0 1-1-3.8 3.77 3.77 0 0 1-2.34-2.48 10.91 10.91 0 0 1-.43-3.51c-.06-3.76-.12-7.53-.19-11.29A39.79 39.79 0 0 1 1013 696a52 52 0 0 1 3.58-9.92c2.6-5.93 7.38-11.4 8.74-17.78.28-1.28.48-2.57.65-3.87z"/><path class="cls-7" d="M1024.24 727.83a38.68 38.68 0 0 1-1.07-4.24c-.28-1.43-.49-2.88-.63-4.33a42.45 42.45 0 0 1-.23-4.36 39.83 39.83 0 0 1 .2-4.37c0 1.46.11 2.91.19 4.35s.19 2.89.34 4.33.32 2.88.52 4.31.44 2.87.68 4.31zM1019.36 728.43a45.21 45.21 0 0 1-.86-4.76q-.09-.6-.15-1.2l-.12-1.21-.09-1.21-.07-1.2v-1.21V715.21 714a45.45 45.45 0 0 1 .42-4.81v8.43l.05 1.2.06 1.2c0 .4 0 .8.07 1.2l.09 1.21q0 .59.09 1.2c.15 1.6.34 3.19.51 4.8zM1015.17 721.79c-.24-1.22-.41-2.46-.53-3.71s-.2-2.49-.23-3.74 0-2.5 0-3.75.16-2.5.33-3.74c0 1.25 0 2.5.06 3.74s0 2.49.07 3.73.08 2.49.12 3.73.14 2.49.18 3.74z"/><path class="cls-47" d="M1030.83 729.36c2-5.77-.77-12.91.19-18.88.62-3.84 2.36-7.33 3.86-10.91a2.53 2.53 0 0 1 1.81 2l8.82 50.69c-4-2-7.79-5.5-10.56-8.07-4.12-3.85-5.68-5.65-7.47-11a11.42 11.42 0 0 0 3.35-3.83z"/><path class="cls-48" d="M1027.57 727.58c2-5.77 1-10.44 2-16.41.61-3.79 3.78-7.95 5.27-11.49a2.5 2.5 0 0 1 .67 1.31l8.81 50.63c-4.42.77-9.15-1.55-11.64-3.87a41.36 41.36 0 0 1-9.94-15.66c.94-.62 4.45-3.4 4.83-4.51z"/><path class="cls-36" d="M1038.11 460.87c15.46-19.17 12.47-30.85 15.54-49.57 11.15-67.92 49.87-46.95 49.87-46.95s8.51 155.49-9.43 159-26.89-18.5-37.19-22.34a12.31 12.31 0 0 0-3.61-.75 115.48 115.48 0 0 1 2.68-17.55s-4.84 5.49-4.83 17.56c-8.25.72-15.5 8.2-15.5 8.2s-10.94-30.95 2.47-47.6z"/><path class="cls-36" d="M1096.05 362.77s42.89-26.24 49.35 55.8c0 0 3.73 26.18 16 44.44s2.52 38.17 2.52 38.17-3-6.15-9.79-7.06c-.29-6.12-1.53-16.25-6.38-20.83 0 0 5.3 7.75 4.82 20.72a15.33 15.33 0 0 0-4.82.72 25.93 25.93 0 0 0-7.4 4.34 52.61 52.61 0 0 0-3.86-10.61 117 117 0 0 1 3 11.33c-12 9.42-28.67 27.57-43.74 24.23-19.03-4.21.3-161.25.3-161.25z"/><path class="cls-7" d="M1078.87 423.22c-.67 6.41-3.43 9.13-11.84 8.39-6.41-.57-10.87-7.8-10.2-14.21s5.62-8.46 12.36-7.13c4.69.92 10.35 6.55 9.68 12.95z"/><path class="cls-37" d="M1063.48 417.74s5.78-2 8.79 6.19"/><path class="cls-5" d="M1111.34 424.27l9.6 55.93-29.23 1.38-.3-50.27 19.93-7.04z"/><path class="cls-7" d="M1091.87 466.45c12.3-4 22-26.23 22-26.23l-22.29-4z"/><path class="cls-5" d="M1108.38 366a50.11 50.11 0 0 0-22.69 0c-10 2.44-22.79 7.06-23.57 25-1.29 29.93 3.45 52.13 19 58.3 11.94 4.74 20.36 2.42 33.45-5.67 4.88-3 9.33-11.43 10.41-17.19l5-16.17S1144 374 1108.38 366z"/><path class="cls-36" d="M1080.5 401.36s.49 2.75-4 2.16a28.05 28.05 0 0 0-6.29-.36 3 3 0 0 1-2.71-1.33 2 2 0 0 1 .51-2c1.06-1.15 2.57-2.76 6.67-2.26 5.32.63 5.82 3.79 5.82 3.79zM1088.67 402.45s-.13 3.57 5.61 2a78.8 78.8 0 0 1 12.57-2 4 4 0 0 0 3.32-2.22 1.63 1.63 0 0 0-.94-2.18 25.73 25.73 0 0 0-13.69-.59c-6.84 1.77-6.87 4.99-6.87 4.99z"/><path class="cls-1" d="M1093.77 413.29s6.26-10.24 19.6-2.15c0 0-6.74 9.55-19.6 2.15z"/><g class="cls-38"><path class="cls-39" d="M1092.58 411.61a4.78 4.78 0 1 0 5.41-4.06 4.78 4.78 0 0 0-5.41 4.06z"/></g><path d="M1113 411.76a18.09 18.09 0 0 0-4.71-2.47 14.79 14.79 0 0 0-5.25-1 11.55 11.55 0 0 0-5.17 1.36 11 11 0 0 0-4 3.61 11.09 11.09 0 0 1 3.86-3.93 12 12 0 0 1 5.32-1.79 15.74 15.74 0 0 1 5.63.65 19.74 19.74 0 0 1 5.22 2.3.74.74 0 0 1 .23 1 .74.74 0 0 1-1 .23z"/><path class="cls-1" d="M1080.19 413.17s-5.94-8.95-12.44-1.74c0 0 5.81 9.22 12.44 1.74z"/><g class="cls-40"><path class="cls-39" d="M1074.32 411.61c.66 2.49-.18 4.88-1.88 5.34s-3.63-1.19-4.3-3.68.17-4.88 1.88-5.34 3.63 1.19 4.3 3.68z"/></g><path d="M1067.14 411a8.17 8.17 0 0 1 3.23-2.5 6.28 6.28 0 0 1 2-.47 3.58 3.58 0 0 1 1 .07 6.33 6.33 0 0 1 1 .22 8.71 8.71 0 0 1 3.37 1.93 11.94 11.94 0 0 1 2.43 2.93 11.9 11.9 0 0 0-2.66-2.64 8.29 8.29 0 0 0-3.32-1.49 4.51 4.51 0 0 0-.89-.11 3 3 0 0 0-.85 0 5.34 5.34 0 0 0-1.63.56 7 7 0 0 0-2.49 2.36.75.75 0 1 1-1.25-.82z"/><path class="cls-41" d="M1082.45 419.75l-2.77 4.55 2.61 2.51M1091.41 429.89s-6.62 6.32-11.76 2.52"/><path class="cls-5" d="M1120.66 422.48c1.47 6.27 4.55 8.62 12.8 6.83 6.29-1.37 9.81-9.11 8.34-15.38s-6.64-7.68-13.16-5.52c-4.54 1.51-9.45 7.8-7.98 14.07z"/><path class="cls-37" d="M1135.24 415.11s-6-1.25-8 7.24"/><path class="cls-36" d="M1059.46 400.53l47.2-25.29s21.44 28.15 21.87 34.93 12.68-14.79 11.48-21.9-14.36-35.79-36.66-29.46-34.35 7.08-41.45 20.39c-4.8 8.99-2.44 21.33-2.44 21.33z"/><path class="cls-36" d="M1106.11 372.63c1.88 3.33 3.76 6.66 5.58 10l5.55 10c1.86 3.32 3.74 6.64 5.79 9.81 1 1.59 2.13 3.13 3.28 4.62a26.58 26.58 0 0 0 3.77 4.05l-.86.26 3.46-8.07 1.79-4c.59-1.34 1.2-2.67 1.82-4-.46 1.39-1 2.77-1.44 4.15l-1.48 4.14-3.08 8.23-.26.69-.6-.43a16 16 0 0 1-2.22-2c-.68-.7-1.32-1.44-1.93-2.19a57.46 57.46 0 0 1-3.41-4.67c-2.14-3.22-4-6.59-5.78-10s-3.51-6.8-5.17-10.24-3.28-6.85-4.81-10.35z"/><path class="cls-5" d="M1072.05 764.44l4.01 144.21h19.8l11.57-144.21h-35.38zM1118.29 773.01l11.64 147.25 18.3.24 5.39-149.29-35.33 1.8z"/><path class="cls-15" d="M1167.72 769.45l1.45 8.5c-7 1.21-14.92 2.25-24.26 3l-.71-8.7c-3.69.28-7.59.51-11.67.7l.35 8.73c-5.39.23-11.12.36-17.21.36s-11.82-.13-17.22-.36l.35-8.73q-6.13-.29-11.69-.7l-.7 8.7c-9.35-.74-17.27-1.78-24.27-3l1.46-8.5c-4.16-.7-7.93-1.45-11.33-2.22l-1.79 8.36c-17.91-4.22-25.22-8.92-25.22-8.92L1075.71 585h79.86l50.48 181.72s-7.32 4.7-25.24 8.92l-1.79-8.36c-3.38.72-7.14 1.47-11.3 2.17z"/><path class="cls-42" d="M1180.82 775.6q-3.66-14-6.89-28.09c-2.19-9.39-4.25-18.8-6.29-28.22s-4-18.86-5.8-28.32-3.6-18.94-5.19-28.46q3.66 14 6.9 28.09c2.19 9.39 4.25 18.8 6.28 28.22s4 18.87 5.8 28.33 3.6 18.94 5.19 28.45zM1074.62 662.5q-2.38 14.28-5.19 28.46c-1.84 9.46-3.81 18.89-5.8 28.32s-4.09 18.83-6.28 28.22-4.46 18.76-6.9 28.09q2.38-14.26 5.19-28.45c1.84-9.46 3.81-18.9 5.8-28.33s4.1-18.83 6.29-28.22 4.45-18.76 6.89-28.09zM1062.11 778q1.82-14.51 4.05-29c1.46-9.63 3-19.24 4.67-28.85s3.34-19.19 5.15-28.76 3.7-19.13 5.77-28.66q-1.82 14.52-4 28.95c-1.46 9.64-3 19.25-4.67 28.85s-3.34 19.19-5.15 28.76-3.75 19.13-5.82 28.71zM1096 663.19c-.37 9.85-.89 19.79-1.58 29.73s-1.48 19.9-2.34 29.82-1.82 19.76-2.8 29.48l-2.9 28.72 1.9-30.16c.63-9.9 1.3-19.66 2-29.39s1.53-19.38 2.48-29 2.01-19.39 3.24-29.2zM1169.17 778q-3.09-14.3-5.77-28.66c-1.81-9.57-3.49-19.16-5.15-28.76s-3.2-19.21-4.67-28.85-2.84-19.27-4-28.95q3.09 14.29 5.77 28.66c1.81 9.57 3.49 19.17 5.15 28.76s3.2 19.22 4.66 28.85 2.84 19.23 4.01 28.95zM1135.28 663.19c1.23 9.78 2.32 19.48 3.24 29.19s1.77 19.41 2.55 29.14 1.45 19.51 2.08 29.39 1.21 19.86 1.75 30c-1.05-9.46-2.1-19.09-3.05-28.85s-1.87-19.6-2.73-29.48-1.62-19.81-2.27-29.74-1.2-19.84-1.57-29.65zM1098.43 781.67c.39-9.42.67-19 .89-28.74l.65-29.61c.27-10 .62-20.07 1.15-30.09s1.19-20 2-29.8c0 9.87-.06 19.62-.34 29.31s-.7 19.33-1.21 29l-1.71 29.51c-.53 9.99-1.04 20.13-1.43 30.42zM1128.15 663.43c.82 9.83 1.51 19.79 2 29.8s.88 20.09 1.15 30.09l.65 29.62c.23 9.75.5 19.31.9 28.73-.39-10.29-.9-20.44-1.46-30.39l-1.7-29.51c-.52-9.7-1-19.34-1.21-29s-.37-19.47-.33-29.34z"/><path class="cls-5" d="M1075.54 534.2l-15.16 59.26c-2.26 9.61-9.74 15.22-19.2 12.41-8.66-2.56-10.83-11.64-10.83-11.64l15.91-72.45z"/><path class="cls-43" d="M1077.26 564.17s-13.35 12.13-43.61-21.28l26.35-53.75a24.4 24.4 0 0 1 35.3-7.22 24.39 24.39 0 0 1 7.52 30.54z"/><path class="cls-44" d="M1108.27 617.69l46.42.84c22.73.54 42.4-17.45 42.94-40.18l1.47-61.83c.63-26.21-20.91-48-47.12-48.59l-40.13-.69a41.18 41.18 0 0 0-42.14 40.19l-1.62 68.12a41.17 41.17 0 0 0 40.18 42.14z"/><path class="cls-43" d="M1116 467.73s24 6.34 41.58 13.52a11.7 11.7 0 0 1 7.28 11.15l1 127.45s-65.73 15.07-97.74-9.07l-.48-121.16a11.69 11.69 0 0 1 7-11l25-10.89z"/><path class="cls-5" d="M1128.33 471.25l-9.75-4.8-19 1.28-13.58 5.94s-4.44 13 12.39 13.91 25.89-10.11 29.94-16.33z"/><path class="cls-44" d="M1081.22 475.74s-18.27 22.95-12 80.34c0 0-2.27-1.07-5.53-10.57-4.94-14.39-5.38-48.32 8.28-65.49a9.53 9.53 0 0 1 4-2.93 16.44 16.44 0 0 1 5.25-1.35z"/><path class="cls-5" d="M1167.49 528.67l-27 56.34a15.89 15.89 0 0 1-22.2 6.47 15.9 15.9 0 0 1-6.2-20.81l28.41-60.92z"/><path class="cls-43" d="M1163.89 557s-10.21 6.5-44.13-15.73l13-44.36a22 22 0 0 1 29.1-14.27 22 22 0 0 1 13.46 24.89z"/><path class="cls-44" d="M1157 479.63s-33.4 10.42-35.38 69.11c0 0-4.2-6.18-5.24-16.94s2-45.43 28.72-57.86a12.47 12.47 0 0 1 6 1.8 69.56 69.56 0 0 1 5.9 3.89z"/><path class="cls-45" d="M1073.78 911.53s-24.91 4.88-36.38 11.84c-4.19 2.54-1.71 7.47-.35 8.47 3.13 2.28 52.23 1 63.37-.26 3.92-.46-.89-16-5.75-20.49z"/><path class="cls-36" d="M1075.89 902.13s-25.89 11.66-37.36 18.63a7.45 7.45 0 0 0-3.41 7.28c3.14 2.29 55.54.2 66.68-1.1 0 0 2.25-10.54-5.28-24.81l-3.08 5.78-15.08.31z"/><path class="cls-45" d="M1127.34 920.94s-24.91 4.87-36.38 11.84c-4.19 2.54-1.71 7.47-.35 8.46 3.13 2.29 52.22 1.06 63.37-.25 3.92-.46-.89-16-5.75-20.49z"/><path class="cls-36" d="M1129.44 911.54s-25.88 11.66-37.35 18.63a7.44 7.44 0 0 0-3.41 7.28c3.14 2.29 55.54.2 66.68-1.1 0 0 1.46-10.54-6.07-24.81l-1.55 5.77-15.82.32z"/><path class="cls-5" d="M1057.72 491c4.12-2.82 8.35 1.6 11.77 7.34l.36-4.22c.15-1.7.36-4.21 2.72-4.14s3.49 2 3.91 3.52l3.15 9.8c1.35 6.21.54 14.32-1.87 20.86l-7 7.08c-38.99-18.66-22.22-33.94-13.04-40.24z"/><path class="cls-5" d="M1135.43 568.26l-59.12-54.42-11.87 12.85 48.32 61.89a15.26 15.26 0 0 0 23.3 1 15.26 15.26 0 0 0-.63-21.32z"/><path class="cls-46" d="M1115.44 550.48l14.9 13.46"/><path class="cls-47" d="M1033 695.2l-21.64 8.25a2.53 2.53 0 0 0-2 2.92l9.59 55.07a2.52 2.52 0 0 0 2.92 2l21.63-8.25a2.53 2.53 0 0 0 2.06-2.92l-9.59-55.07a2.53 2.53 0 0 0-2.97-2z"/><path class="cls-48" d="M1031.83 694.63l-21.64 8.25a2.53 2.53 0 0 0-2.05 2.92l9.58 55.07a2.53 2.53 0 0 0 2.92 2l21.64-8.25a2.53 2.53 0 0 0 2.06-2.92l-9.59-55.07a2.53 2.53 0 0 0-2.92-2z"/><path class="cls-5" d="M1055.28 612.23l-17 70.56-12.68-11.65 4.54-79.19c.51-8.85 8.47-15.82 17.21-14.3a14.3 14.3 0 0 1 1.41.32c9.97 2.69 14.45 5.51 6.52 34.26z"/><path class="cls-5" d="M1041.67 668.86c.33 4.33 1.74 8.14 2.57 12.52 1.33 7.07 2.68 14.86 1.67 22.06-.59 4.19-2.6 8-4.58 11.78-.55 1-1.57 2.29-2.67 1.83a2.22 2.22 0 0 1-1.08-1.68c-1-4.36.15-9-.78-13.39-.23-1.08-.86-2.35-2-2.34-1 0-1.42 1-1.77 1.72-.57 1.18-1.36 2.26-2 3.4a21.36 21.36 0 0 0-3.1 7.89 27.43 27.43 0 0 0-.13 4.44l.15 5.69a11.8 11.8 0 0 1-.15 2.91 4 4 0 0 1-1.48 2.45 1.72 1.72 0 0 1-2 .15 5.52 5.52 0 0 1-1.95 1.65 2.16 2.16 0 0 1-2.4-.35 3.08 3.08 0 0 0-.49-.53 2.34 2.34 0 0 0-.79-.24 4.33 4.33 0 0 1-2.86-2.48 12.93 12.93 0 0 1-1-3.8 3.77 3.77 0 0 1-2.34-2.48 10.91 10.91 0 0 1-.43-3.51c-.06-3.76-.12-7.53-.19-11.29A39.79 39.79 0 0 1 1013 696a52 52 0 0 1 3.58-9.92c2.6-5.93 7.38-11.4 8.74-17.78.28-1.28.48-2.57.65-3.87z"/><path class="cls-7" d="M1024.24 727.83a38.68 38.68 0 0 1-1.07-4.24c-.28-1.43-.49-2.88-.63-4.33a42.45 42.45 0 0 1-.23-4.36 39.83 39.83 0 0 1 .2-4.37c0 1.46.11 2.91.19 4.35s.19 2.89.34 4.33.32 2.88.52 4.31.44 2.87.68 4.31zM1019.36 728.43a45.21 45.21 0 0 1-.86-4.76q-.09-.6-.15-1.2l-.12-1.21-.09-1.21-.07-1.2v-1.21V715.21 714a45.45 45.45 0 0 1 .42-4.81v8.43l.05 1.2.06 1.2c0 .4 0 .8.07 1.2l.09 1.21q0 .59.09 1.2c.15 1.6.34 3.19.51 4.8zM1015.17 721.79c-.24-1.22-.41-2.46-.53-3.71s-.2-2.49-.23-3.74 0-2.5 0-3.75.16-2.5.33-3.74c0 1.25 0 2.5.06 3.74s0 2.49.07 3.73.08 2.49.12 3.73.14 2.49.18 3.74z"/><path class="cls-47" d="M1030.83 729.36c2-5.77-.77-12.91.19-18.88.62-3.84 2.36-7.33 3.86-10.91a2.53 2.53 0 0 1 1.81 2l8.82 50.69c-4-2-7.79-5.5-10.56-8.07-4.12-3.85-5.68-5.65-7.47-11a11.42 11.42 0 0 0 3.35-3.83z"/><path class="cls-48" d="M1027.57 727.58c2-5.77 1-10.44 2-16.41.61-3.79 3.78-7.95 5.27-11.49a2.5 2.5 0 0 1 .67 1.31l8.81 50.63c-4.42.77-9.15-1.55-11.64-3.87a41.36 41.36 0 0 1-9.94-15.66c.94-.62 4.45-3.4 4.83-4.51z"/><path class="cls-3" d="M68.92 941.11l493.36-296.77"/><path class="cls-5" d="M465 448.23L443.91 526l14.16 6.16 35.56-72.85a15.4 15.4 0 0 0-9.72-21.42A15.4 15.4 0 0 0 465 448.23z"/><path class="cls-49" d="M457.58 475.41l5.27-19.55"/><path class="cls-5" d="M428.5 568.32c-3.95-.91 3-18.91 5.7-23l-4.79 2.26c-1.26.44-4.32.35-5.2-1.23s7.27-6 7.27-6c3.86-2.86 12.43-14.36 12.43-14.36l14.16 6.16c-.92 9.7-2.73 17.15-6.18 23.24-.55 1-3.63 15.21-6 15-1.8-.14 1.1-16.14.09-15.12-.56.57-2.37 16.85-6.17 17.32-2.35.29 2.84-17.86 1.53-17.82-.86 0-3.15 15.89-6.43 16.4-4.09.64 2.57-19.22 1.57-18.46-.76.61-5.23 16.29-7.98 15.61z"/><path class="cls-50" d="M444.58 247.43s-30-9.39-44.41 19.15c-7 13.91-20.68 62.16-30.9 79.66 0 0-22.51 41.66 23.7 40.69 48.5-1 85.37 6 85.37 6s.72-92.45 1.83-111.78-14.07-31.85-35.59-33.75"/><path class="cls-16" d="M456.16 306.07c-.25 5.75 1.83 8.52 9.36 9 5.74.35 10.64-5.45 10.9-11.2s-3.85-8.22-10-7.94c-4.25.17-10 4.39-10.26 10.14z"/><path class="cls-5" d="M427.03 301.61l-19.82 53.2 25.94 3.41 9.93-46.29-16.05-10.32z"/><path class="cls-17" d="M436.63 342c-10.07-5.66-14.63-26.86-14.63-26.86l20.23.42z"/><path class="cls-5" d="M439.93 251.08a44.65 44.65 0 0 1 19.88 4c8.34 3.91 18.71 10.21 16.21 26.08-4.15 26.45-12.23 45-26.94 47.71-11.29 2-18.25-1.48-28.29-10.88-3.74-3.5-6.15-11.66-6.08-16.9l-1.54-15s-5.85-34.32 26.76-35.01z"/><path class="cls-50" d="M459.9 289.09s-1.46 2.14 2.53 3.34a25.81 25.81 0 0 1 5.49 2.1 2.77 2.77 0 0 0 2.81-.1 1.84 1.84 0 0 0 .33-1.9c-.46-1.39-1.12-3.33-4.8-4.47-4.73-1.47-6.36 1.03-6.36 1.03zM446.6 286.65s.63 3.27-4.89 2.61a74.15 74.15 0 0 0-11.87-.09 3.74 3.74 0 0 1-3.37-1.57 1.51 1.51 0 0 1 .55-2.14 23.91 23.91 0 0 1 12.53-2.5c6.56.73 7.05 3.69 7.05 3.69z"/><path class="cls-1" d="M443 300.23s-3.83-10.52-17.52-5.59c-.05 0 4.35 9.98 17.52 5.59z"/><g clip-path="url(#clip-path-9)"><path class="cls-52" d="M444.22 298.89a4.46 4.46 0 1 1-4.2-4.71 4.46 4.46 0 0 1 4.2 4.71z"/></g><path d="M425.16 294a18.36 18.36 0 0 1 5.19-1.14 14.59 14.59 0 0 1 5.26.45 11.18 11.18 0 0 1 4.53 2.61 10.36 10.36 0 0 1 2.81 4.31 10.17 10.17 0 0 0-3-4.05 10.64 10.64 0 0 0-4.47-2.19 13.61 13.61 0 0 0-5-.09 17.35 17.35 0 0 0-4.77 1.39.7.7 0 0 1-.58-1.27z"/><path class="cls-1" d="M455.38 302.62s7.08-7.08 11.69.7c0 0-7.01 7.36-11.69-.7z"/><g clip-path="url(#clip-path-10)"><path class="cls-52" d="M462.27 301.82c-1.07 2.15-.74 4.49.73 5.22s3.54-.42 4.61-2.57.74-4.49-.73-5.22-3.54.41-4.61 2.57z"/></g><path d="M466.44 303.61a6.35 6.35 0 0 0-1.84-2.61 5.11 5.11 0 0 0-1.39-.81 2.63 2.63 0 0 0-.77-.18 4.57 4.57 0 0 0-.83-.06 7.76 7.76 0 0 0-3.31.75 11.44 11.44 0 0 0-2.92 1.92 11.26 11.26 0 0 1 2.76-2.23 8.24 8.24 0 0 1 3.44-1.14 4.82 4.82 0 0 1 .93 0 3.28 3.28 0 0 1 1 .13 5.72 5.72 0 0 1 1.74.8 7.66 7.66 0 0 1 2.49 2.87.71.71 0 0 1-.3 1 .7.7 0 0 1-.94-.3z"/><path class="cls-54" d="M452.1 308.22l1.69 4.67-2.85 1.81M439.22 317.53s8.87-.39 11.91 3.23"/><path class="cls-50" d="M427.38 250.63s9.22 16.58-12.37 42.18l-13.81-21.09 9.39-7.24z"/><path class="cls-5" d="M419.19 298.39c-2.4 5.23-5.51 6.75-12.42 3.72-5.27-2.31-7-9.71-4.59-14.94s7.18-5.56 12.5-2.51c3.71 2.12 6.9 8.5 4.51 13.73z"/><path class="cls-54" d="M407.72 289.36s5.45 0 5.68 7.75"/><path class="cls-50" d="M418.12 270.82c.81.9 26.47 8.88 48.49-2.7 0 0-7.38-17.33-17-19.71-26.9-6.63-31.49 22.41-31.49 22.41z"/><path class="cls-50" d="M478.27 279.9c-4.89 1.79-20.08-3.93-27.22-27.76 0 0 5.69-.57 14.36 4.3a24.5 24.5 0 0 1 12.86 23.46z"/><circle class="cls-55" cx="423.57" cy="302" r="1.22"/><circle class="cls-55" cx="437.38" cy="305.16" r="1.22"/><circle class="cls-55" cx="457.93" cy="310.75" r="1.22"/><circle class="cls-55" cx="454.85" cy="287.82" r="1.22"/><circle class="cls-55" cx="460.51" cy="318.9" r="1.22"/><circle class="cls-55" cx="435.59" cy="321.58" r="1.22"/><circle class="cls-55" cx="429.34" cy="309.94" r=".61"/><circle class="cls-55" cx="461.22" cy="310.46" r=".61"/><circle class="cls-55" cx="432.8" cy="307.92" r=".61"/><circle class="cls-55" cx="453.51" cy="305.03" r=".61"/><circle class="cls-55" cx="446.62" cy="280.48" r=".61"/><circle class="cls-55" cx="446.39" cy="321.98" r=".61"/><circle class="cls-55" cx="460.25" cy="281.09" r=".61"/><circle class="cls-55" cx="443" cy="312.87" r=".61"/><circle class="cls-55" cx="428.7" cy="305.33" r=".61"/><path class="cls-39" d="M415.27 481.84l-38.91-3.08c-20 .47-47.72-22.65-40.91-70.3 0 0-20.42-28.4-1.78-34.18 10.63-3.3 29-34 45.82-37.07l22.77-.84a36.16 36.16 0 0 1 37 35.29l1.42 59.82c.49 19.97-5.45 49.89-25.41 50.36z"/><path class="cls-5" d="M486.28 383.34S496.53 426.61 495 451c-.74 11.83-10.6 6.83-14.4 7.47-7.48 1.24-12.51-9.46-13.64-15.05l-6.26-62.81z"/><path class="cls-56" d="M461.87 346.53c-.67-.2 17.61 10.14 37.41 60.38l-33.47 26L449 384.56z"/><path class="cls-56" d="M421.5 334.29s-23.81 1.48-44.28 13.68a17.65 17.65 0 0 0-8.31 17.3l10.62 105h86.76l9.26-88.21c1.16-7.4-.11-24.8-9-32.07-5.31-4.27-19.76-15.7-45.05-15.7z"/><path class="cls-5" d="M397 339.26a88.42 88.42 0 0 1 24.53-5c17.32-.9 28.56 5.61 28.56 5.61l-.72.92a27.44 27.44 0 0 1-34 7.69zM488.75 779.24l18.55-.12-7.12-50.37-18.39 3.28 6.96 47.21z"/><path d="M466.29 470.3s15.5 98.64 38.38 290.21l-33.64.8s-47.46-88.7-56.53-183.91l-9.15-107.1z" fill="#1a2e59"/><path d="M507.58 780.31s28.64 6.23 36.92 13.05c2.67 2.2 1.26 5.86-.13 6.8-3.22 2.18-53.05.94-64.13-.77-3.91-.6 1.46-16 6.48-20.27z" fill="#818084"/><path d="M505.8 768.51s6 9.42 16.33 13.57c8 3.19 15.7 5.67 20.35 8.72 4.09 2.69 3.16 5.77 3.16 5.77-1.54 2.41-55.53-.16-66.62-1.87 0 0 .33-10.53 8.37-24.52l2.95 5.94 16.17-.36z" fill="#edeeef"/><path class="cls-5" transform="rotate(169.88 435.554 763.923)" d="M426.18 741.95h18.68v44h-18.68z"/><path class="cls-45" d="M449 782.08s25.27 2.41 37.36 8.21c4.42 2.12 2.44 7.27 1.18 8.4-2.89 2.58-51.87 6.16-63.09 5.95-4-.07-.69-16 3.71-20.95z"/><path class="cls-1" d="M446.82 770.18S472.9 782 485 787.81a7.45 7.45 0 0 1 4.11 6.91c-2.9 2.59-55.26 5.64-66.47 5.43 0 0-1.08-10.47 5-25.42l3.72 5.5 16.33-1.23z"/><path d="M379.53 470.3c-18.82 33.72-9.77 84.85-2.69 131.51 13.16 86.49 29.67 169.38 29.67 169.38l39.08-4-8.23-296.9z" fill="#263a7d"/><path class="cls-39" d="M459.05 344.78s16 20.16 10.57 70.56c0 0 2-.94 4.85-9.28 4.34-12.64 4.73-42.44-7.27-57.52a8.39 8.39 0 0 0-3.52-2.57 14.44 14.44 0 0 0-4.63-1.19z"/><path class="cls-5" d="M349.26 414.63l7.49 61.81a15.85 15.85 0 0 0 18.89 13.2 15.84 15.84 0 0 0 12.5-17.64l-7.34-66.6z"/><path class="cls-56" d="M374.58 349.59s-29.36 12.83-34.2 68.23l42.44 17.72 13.37-49.45z"/><path class="cls-1" d="M376.84 433.41l5.98 2.13 13.37-38.7"/><path d="M376.84 433.41c2 .58 4.05 1.23 6.08 1.85l-.38.18c1-3.25 2-6.51 3.12-9.75s2.18-6.47 3.31-9.68 2.29-6.43 3.5-9.63 2.41-6.38 3.72-9.54c-.93 3.29-1.93 6.55-3 9.8s-2.09 6.5-3.19 9.73-2.22 6.45-3.37 9.67-2.37 6.4-3.57 9.6a.29.29 0 0 1-.36.17c-1.94-.81-3.91-1.56-5.86-2.4z"/><path class="cls-39" d="M379.49 344.78s30.71 18.75 8.91 73c0 0 6.31-3.95 11.59-13.33s16.31-45.21-3-67.28a32.11 32.11 0 0 0-7.48 1.39c-3.23 1.14-10.02 6.22-10.02 6.22z"/><path class="cls-5" d="M359.27 470.26l24.85-76.64 15.23 2.58-10 80.44a15.41 15.41 0 0 1-19.86 12.63 15.4 15.4 0 0 1-10.22-19.01z"/><path class="cls-49" d="M367.92 443.45l-6.27 19.25"/><path class="cls-5" d="M394.35 349.76c-3.8-1.39-7.83 17.46-7.79 22.37l-2.77-4.51c-.81-1.06-3.43-2.67-5-1.82s2.81 9 2.81 9c1.67 4.51 2.55 18.82 2.55 18.82l15.23 2.58c4.54-8.62 7.09-15.85 7.53-22.83.07-1.11 5.28-14.72 3.2-15.87-1.59-.87-7.91 14.11-8.2 12.7-.15-.77 7.23-15.4 4.31-17.87-1.81-1.53-7.39 16.51-8.46 15.76-.71-.49 6-15 3.58-17.25-3.07-2.77-8.36 17.51-8.78 16.32-.35-.9 4.44-16.43 1.79-17.4z"/></svg>