<svg id="Layer_1" data-name="Layer 1" xmlns="http://www.w3.org/2000/svg" viewBox="0 0 2567.11 1021.3"><defs><style>.cls-1,.cls-25,.cls-35{fill:none}.cls-3{fill:#fff}.cls-7{fill:#eca179}.cls-10{fill:#1b1c20}.cls-25{stroke-miterlimit:10}.cls-13{fill:#1691c9}.cls-15{fill:#c96e3d}.cls-16{fill:#c46234}.cls-35{stroke:#ca5e34;stroke-linecap:round;stroke-linejoin:round}.cls-20{fill:#95bcba}.cls-25{stroke:#fff;stroke-width:3.3px}.cls-26{clip-path:url(#clip-path-5)}.cls-28{fill:#de8d68}.cls-30{fill:#21a498}.cls-31{fill:#995300}.cls-33{fill:#604538}.cls-35{stroke-width:1.92px}</style><clipPath id="clip-path"><circle class="cls-1" cx="1515.46" cy="674.95" r="242.5" transform="rotate(-45 1515.461 674.945)"/></clipPath><clipPath id="clip-path-2"><circle class="cls-1" cx="1522.3" cy="716.23" r="313.5" transform="rotate(-45 1522.303 716.232)"/></clipPath><clipPath id="clip-path-3"><path class="cls-1" d="M1484.39 545.11c1-5.4 10.5-2.9 13.3-3 2.5-.1 10.5.6 12 3.5-1.7 6.5-8.5 8.3-14.2 8.6s-12.1-3.7-11.1-9.1z"/></clipPath><clipPath id="clip-path-4"><path class="cls-1" d="M1463.89 544.11c-1.6-2.8-5.7-2.9-8.6-2.9-2.2 0-5.8.6-7.1 2.9.5 4.5 3.4 7.6 8.1 7.9s7.71-3.2 7.6-7.9z"/></clipPath><clipPath id="clip-path-5"><circle class="cls-1" cx="1005.69" cy="425.71" r="230"/></clipPath><clipPath id="clip-path-7"><path class="cls-1" d="M1022.69 292.71s-11.8-13.3-29.2 2c0 .1 12.4 12.2 29.2-2z"/></clipPath><clipPath id="clip-path-8"><path class="cls-1" d="M1042.39 289s6.3-14.6 17.7-5.8c0-.09-6 14.91-17.7 5.8z"/></clipPath></defs><path d="M1464.39 25c-35.5.4-209.5-6.3-249.2-1.3-69.5 8.7-123 31.9-173.5 56.7-63.4 31.1-120.6 67.3-174.6 105.8-69.8 49.8-134.4 103.4-185.5 167.2-44.9 56-41.2 122.2-33.3 213.7 4.5 51.7-7.9 106 34.9 184.6 180.8 332.3 1316.9 353.5 1211.7-374.6-54.6-377.89-377.8-352.59-430.5-352.1z" fill="#c4e5e5"/><circle id="SVGID" class="cls-3" cx="1515.46" cy="674.95" r="242.5" transform="rotate(-45 1515.461 674.945)"/><g clip-path="url(#clip-path)"><circle cx="1522.3" cy="716.23" r="313.5" transform="rotate(-45 1522.303 716.232)" fill="#74e3c3"/><g clip-path="url(#clip-path-2)"><path class="cls-7" d="M1154.69 663.91c-3.4-6.8-33.1 13.6-39.4 20.3l2-9.7c.3-2.5-1.2-8-4.5-8.9s-7.8 15.8-7.8 15.8c-3.5 8.3-20.7 28.8-20.7 28.8l16 25c17.2-5.9 31.4-14.3 40.9-23.2 1.5-1.4 26.1-13.2 24.7-17.4-1-3.2-28.9 9-27.5 6.7.8-1.3 29.6-11.6 28.8-18.7-.5-4.4-31.3 12.9-31.8 10.5-.3-1.6 27.5-12.6 27.1-18.8-.6-7.7-33.9 13-32.9 10.9.9-1.7 27.4-16.6 25.1-21.3zm235.4 112l-20.6 197.2 22.9-2 45.5-182.8a33.4 33.4 0 0 0-3.1-29.2c-4.9-7.4-22.9-16-22.9-16-14.3 1.5-23 18.6-21.8 32.8z"/><path d="M1352.79 1014.51a55.69 55.69 0 0 0 7.2 24.5c.8 1.3 1.8 2.8 3.3 3.1a3.53 3.53 0 0 0 3.5-1.6 5.85 5.85 0 0 0 .7-3.9c1.3-.2 2-1.8 1.9-3.1a9.93 9.93 0 0 0-1.7-3.6 27 27 0 0 1-4.1-14.3 8.28 8.28 0 0 1 .5-3.5 9.4 9.4 0 0 1 2.5-3.4c2.9-2.8 6.4-5.2 8.3-8.7a26.11 26.11 0 0 0 2.1-6.7 3.35 3.35 0 0 0-1.3-4.1 21.73 21.73 0 0 0-6.3-4.6 5.93 5.93 0 0 0-2.3-.5 4.92 4.92 0 0 0-1.7.6 26.89 26.89 0 0 0-14.1 19.8l1.5 10z" fill="#dc835e"/><path class="cls-7" d="M1371 960.51c-9 14.7-20.9 33.8-24.1 40.5-1.8 3.8-2 7.2-1.6 11.4.7 7.6 2.5 11.9 5.3 19 1 2.7 3.3 7.4 5.7 8.8s3.3.6 4.8-1.9c1.1-1.8.7-4 .3-6-1.1-5.5-2.4-9-3.5-14.5a20.08 20.08 0 0 1 1.3-12.1c2-4.4 6.8-6.7 11.2-8.6 1.6 7.3.4 13.9-1.4 21.1-1 4-1.7 8.3 2.3 9 2.3.4 4.2-1.7 5.6-3.5 4.1-5.1 4.7-13.6 7.8-19.3 2.6-4.8 6.5-4.6 8.9-9.6 3.8-7.9 2.7-17.2 1.5-25.8a30.49 30.49 0 0 0-3-8.1 9.62 9.62 0 0 0-4-2.9c-6.4-3-15.2-.6-17.1 2.5zm79.2 163.2l24 213.5 29.4-2.5-.9-215.4z"/><path d="M1440.59 867.11s-31.6 320-30.8 402.2l95.4 6.2 29.8-408.4z" fill="#020403"/><path class="cls-10" d="M1572.29 867.11c41.5 97.1 53.4 402.2 53.4 402.2l-112.4 6.2-39.8-408.4z"/><path d="M1494.29 1101.61l-17.9-203.5" stroke-miterlimit="10" stroke="#ffebd8" stroke-width=".8" fill="none"/><path d="M1438.19 665.61c1.1-.3-28.7 16.5-60.9 98.3l54.5 42.4 27.3-78.8-20.9-61.9z" fill="#2782af"/><path class="cls-13" d="M1503.89 645.61s38.8 2.4 72.1 22.3a28.78 28.78 0 0 1 13.6 28.2l-17.3 171h-131.7l-24.7-143.6c-1.9-12 .2-40.4 14.7-52.2 8.6-7 32.1-25.7 73.3-25.7z"/><path class="cls-7" d="M1543.89 653.71a139.53 139.53 0 0 0-39.9-8.1c-21.9-1-46.5 9.1-46.5 9.1l23.7 30.6z"/><path d="M1429.59 804.51c-.9-2.8-1.6-5.7-2.3-8.5s-1.3-5.7-1.9-8.6c-1.2-5.8-2-11.6-2.8-17.5a175.39 175.39 0 0 1-1.2-17.6c0-3 0-5.9.2-8.9s.5-5.9.8-8.8c0 3-.2 5.9-.1 8.8s.1 5.9.2 8.8c.4 5.9.8 11.7 1.5 17.5s1.5 11.6 2.4 17.4l1.5 8.7c.6 2.9 1.2 5.8 1.7 8.7z"/><path class="cls-7" d="M1617.19 726.61s18.8 58.8 30 111.7a25.07 25.07 0 0 1-48.1 13.8c-.1-.4-.3-.8-.4-1.2l-41-115 59.5-9.3z"/><path class="cls-13" d="M1566.39 662.71s51 12.4 82.4 118.6l-81.9 29.2-21.7-80.5 21.2-67.3z"/><path d="M1576.59 807c-1.6.7-3.2 1.3-4.8 1.9l-4.8 1.9c-.2.1-.4 0-.4-.2-1.9-5.2-3.9-10.4-5.7-15.7s-3.7-10.5-5.5-15.7-3.6-10.5-5.3-15.8-3.4-10.6-5-15.9c2 5.2 4 10.4 5.9 15.6s3.8 10.5 5.6 15.7 3.6 10.5 5.4 15.8 3.5 10.6 5.2 15.8l-.4-.2 4.9-1.6c1.7-.5 3.3-1 4.9-1.6z"/><path class="cls-10" d="M1471.39 720.21l-40.3-1.4a2.44 2.44 0 0 0-2.5 2.3 2 2 0 0 0 .1.8l28.8 84.5a2.47 2.47 0 0 0 2.2 1.7l40.2 1.4a2.44 2.44 0 0 0 2.5-2.3 2 2 0 0 0-.1-.8l-28.7-84.5a2.34 2.34 0 0 0-2.2-1.7z"/><path class="cls-7" d="M1490.79 772.21l11.1 7.9a36.55 36.55 0 0 1 11.4 13l7.5 14.1-12.5 20.8s-46.7 5.7-54.3-26.6a17.74 17.74 0 0 1 3-14.3 18.75 18.75 0 0 1 21.9-6.9l16.7 6.2-4.8-14.2z"/><path class="cls-7" d="M1622.19 826.21l-134-29.3 8.1 26.9 119.3 49.5c13.3 5.5 29.2-1.2 33.2-15.1a15.54 15.54 0 0 0 .5-2.3 25.24 25.24 0 0 0-20.1-29.5 33 33 0 0 0-7-.2z"/><path d="M1586.69 818.51l28.9 6.3" stroke-width="1.36" stroke="#af4a25" stroke-miterlimit="10" fill="none"/><path d="M1475.29 467.21s47.5-25 79.3 15.8c15.6 20 9.7 59.6 42.5 80 0 0-26.1 44.3-101.4 44.3-79-.1-90.3-41.5-90.3-41.5s23.9-14.3 21.5-45.7c-2.3-31.2 18.4-70.3 48.4-52.9"/><path class="cls-15" d="M1463.69 560.11c-1.8 9.2-6.1 12.8-18.2 10.6-9.2-1.6-14.8-12.7-13-21.9s9.2-11.5 18.8-8.8c6.7 2 14.2 10.9 12.4 20.1z"/><path class="cls-7" d="M1511.49 564.21l11 91.8-42.6.4 2.2-82 29.4-10.2z"/><path class="cls-16" d="M1480.89 624.41c18.1-5.1 33.4-36.9 33.4-36.9l-32.2-7.1z"/><path class="cls-7" d="M1510.39 479.31a73.59 73.59 0 0 0-33-1.3c-14.7 3-33.5 9-35.6 35.1-3.5 43.4 2.1 76 24.4 85.8 17.1 7.5 29.5 4.6 48.9-6.4 7.3-4.1 14.2-16.1 16.1-24.4l8.2-23.2s22.4-52.1-29-65.6z"/><path d="M1540.49 493.71s-30.9 12.4-6.6 61.1l29.9-28.1-12.1-15-11.2-18z"/><path class="cls-7" d="M1525.19 562.11c1.8 9.2 6.1 12.8 18.2 10.6 9.2-1.6 14.8-12.7 13-21.9s-9.2-11.5-18.8-8.8c-6.7 2-14.2 10.9-12.4 20.1z"/><path d="M1546.79 552.11s-8.6-2.1-12 10.1" stroke-width="2.73" stroke-linecap="round" stroke-linejoin="round" stroke="#ca5e34" fill="none"/><path d="M1548.69 505.61c-1.6 1.1-81.2 7.9-115.9-2.6 0 0 4.6-35 63.4-31.7 44.9 2.6 52.5 34.3 52.5 34.3z"/><path d="M1469.09 555.91c-1.2 2.8-2.5 5.6-3.7 8.4l4.9 1.9" stroke-width="1.77" stroke-linecap="round" stroke-linejoin="round" stroke="#ca5e34" fill="none"/><path class="cls-3" d="M1484.39 545.11c1-5.4 10.5-2.9 13.3-3 2.5-.1 10.5.6 12 3.5-1.7 6.5-8.5 8.3-14.2 8.6s-12.1-3.7-11.1-9.1z"/><g clip-path="url(#clip-path-3)"><path class="cls-20" d="M1498.49 548.21c-.2 4.5-3.4 8.3-8.1 8.2s-7.6-4.2-7.5-8.7 3.4-8.3 8.1-8.2 7.7 4.2 7.5 8.7z"/></g><path d="M1483.59 543.61a20.12 20.12 0 0 1 6.7-2.1 38.72 38.72 0 0 1 6.8-.3 37.25 37.25 0 0 1 6.7.9 16.28 16.28 0 0 1 6.1 3.2c.2.1.2.4 0 .6s-.4.2-.6 0a12.55 12.55 0 0 0-5.8-2.5 28.08 28.08 0 0 0-6.5-.4 34.82 34.82 0 0 0-6.4.7 20.42 20.42 0 0 0-5.8 2.2 1.36 1.36 0 1 1-1.6-2.2c.3 0 .4 0 .4-.1z"/><path class="cls-3" d="M1463.89 544.11c-1.6-2.8-5.7-2.9-8.6-2.9-2.2 0-5.8.6-7.1 2.9.5 4.5 3.4 7.6 8.1 7.9s7.71-3.2 7.6-7.9z"/><g clip-path="url(#clip-path-4)"><path class="cls-20" d="M1445.39 547.51c.3 3.2 2.2 7.3 5.9 7s4.9-4.7 4.6-7.9-2.2-7.3-5.9-7-4.8 4.7-4.6 7.9z"/></g><path d="M1463.19 545.21a15 15 0 0 0-7.7-2.8 13.94 13.94 0 0 0-4.1.3 7.22 7.22 0 0 0-3.5 2.2.37.37 0 0 1-.6 0c-.2-.1-.2-.4-.1-.6a8.17 8.17 0 0 1 3.7-2.9 12.16 12.16 0 0 1 4.6-.9 16.92 16.92 0 0 1 9.1 2.3 1.3 1.3 0 1 1-1.4 2.2v.2z"/><path d="M1498.19 514.11a33.23 33.23 0 0 1 11 5.8c2.4 2.2 2.8 5.3-1.5 6-2.7.4-10.3-2-11.7-2.3-4.6-.8-15-6.1-12.8-10 2.9-5.4 10.3-.7 15 .5zm-46.5-.6a26.18 26.18 0 0 0-8.3 5.7c-1.7 2-2.4 5.1 1.2 6 2.2.5 7.7-1.8 9-2.3 4-1.5 11.3-6.5 9.7-10-2.3-4.7-8-.7-11.6.6z" fill="#0d0506"/><path d="M1460.79 572.81c1.9 9.6 15.9 9.6 15.9-.3z" stroke="#000" stroke-width=".88" stroke-linecap="round" stroke-linejoin="round" fill="none"/><path d="M1516 547.41a19.39 19.39 0 0 1-17.2 21.3 1.7 1.7 0 0 0-.7.1 19.34 19.34 0 0 1-21.4-17.8 19.73 19.73 0 0 1 39.3-3.6zm-49.9-4.1c1.7 9.6-2.4 20.4-12.8 22.3s-18-6.7-19.8-16.3 2.4-20.4 12.8-22.3 18.09 6.7 19.79 16.3zm.5 4.6c3.2-2.3 6.5-1.6 9.8 0m40.2-.8l14.8-3.2" stroke="#fdcd93" stroke-width="2.66" stroke-miterlimit="10" fill="none"/></g></g><path class="cls-3" d="M1477.89 406.81h-75.1a7.85 7.85 0 0 1-7.9-7.9v-37.4a7.85 7.85 0 0 1 7.9-7.9h75.1a7.85 7.85 0 0 1 7.9 7.9v37.4a8 8 0 0 1-7.9 7.9zm-75.1-50.3a4.91 4.91 0 0 0-4.9 4.9v37.4a4.91 4.91 0 0 0 4.9 4.9h75.1a4.91 4.91 0 0 0 4.9-4.9v-37.4a4.91 4.91 0 0 0-4.9-4.9z"/><path class="cls-3" d="M1440.29 387.21l-33.6-20.7 1.6-2.6 32 19.8 30.1-19.8 1.6 2.5zm-353.7 420.1H1040a4.91 4.91 0 0 1-4.9-4.9v-23.2a4.91 4.91 0 0 1 4.9-4.9h46.6a4.91 4.91 0 0 1 4.9 4.9v23.2a4.78 4.78 0 0 1-4.91 4.9zm-46.6-31.2a3.12 3.12 0 0 0-3.1 3.1v23.2a3.12 3.12 0 0 0 3.1 3.1h46.6a3.12 3.12 0 0 0 3.1-3.1v-23.2a3.12 3.12 0 0 0-3.1-3.1z"/><path class="cls-3" d="M1063.39 795.21l-20.9-12.9.9-1.6 19.9 12.3 18.7-12.3 1 1.6z"/><path class="cls-25" d="M1208.19 701.61a90.28 90.28 0 1 1 102.6 7.7 49.2 49.2 0 0 0 27.1 10.6 49 49 0 0 1-62.4 1.3 90.63 90.63 0 0 1-67.3-19.6z"/><path class="cls-3" d="M1296.69 637a11.3 11.3 0 1 0 11.3-11.3 11.29 11.29 0 0 0-11.3 11.3z"/><circle class="cls-3" cx="1267.19" cy="637.01" r="11.3"/><circle class="cls-3" cx="1222.19" cy="637.01" r="11.3"/><path class="cls-3" d="M1491.39 303.81v8.3a.75.75 0 0 0 1.5 0v-8.3c-.1-.9-1.5-1-1.5 0zm1.4 37.2v-8.3a.75.75 0 0 0-1.5 0V341a.75.75 0 1 0 1.5 0zm-19.3-17.8h8.3a.75.75 0 0 0 0-1.5h-8.3a.75.75 0 0 0 0 1.5zm37.2-1.5h-8.3a.75.75 0 0 0 0 1.5h8.3a.75.75 0 0 0 0-1.5zm-32.3-11.9l5.9 5.9c.7.7 1.7-.4 1-1l-5.9-5.9c-.6-.7-1.6.3-1 1zm27.4 25.3l-5.9-5.9c-.7-.7-1.7.4-1 1l5.9 5.9c.6.7 1.7-.4 1-1zm-26.3 1l5.9-5.9c.7-.7-.4-1.7-1-1l-5.9 5.9c-.7.6.3 1.7 1 1zm25.3-27.4l-5.9 5.9c-.7.7.4 1.7 1 1l5.9-5.9c.7-.6-.4-1.6-1-1zM1338.39 452.41v13.4a1.2 1.2 0 0 0 2.4 0v-13.4a1.2 1.2 0 0 0-2.4 0zm2.4 60V499a1.2 1.2 0 0 0-2.4 0v13.4a1.2 1.2 0 0 0 2.4.01zm-31.2-28.8H1323a1.2 1.2 0 0 0 0-2.4h-13.4a1.2 1.2 0 0 0-.01 2.4zm60-2.4h-13.4a1.2 1.2 0 0 0 0 2.4h13.4a1.2 1.2 0 0 0 0-2.4zm-52-19.1l9.5 9.5a1.2 1.2 0 0 0 1.7-1.7l-9.5-9.5a1.2 1.2 0 0 0-1.7 1.7zm44.1 40.7l-9.5-9.5a1.2 1.2 0 0 0-1.7 1.7l9.5 9.5c1.1 1.1 2.7-.6 1.7-1.7zm-42.5 1.7l9.5-9.5a1.2 1.2 0 0 0-1.7-1.7l-9.5 9.5c-1 1.1.7 2.8 1.7 1.7zm40.8-44.1l-9.5 9.5a1.2 1.2 0 0 0 1.7 1.7l9.5-9.5c1-1.11-.6-2.8-1.69-1.7zM1006 719.41v8.3a.75.75 0 0 0 1.5 0v-8.3a.75.75 0 1 0-1.5 0zm1.4 37.2v-8.3a.75.75 0 0 0-1.5 0v8.3a.75.75 0 1 0 1.49 0zm-19.3-17.9h8.3a.75.75 0 0 0 0-1.5h-8.3a.75.75 0 1 0-.01 1.5zm37.2-1.4h-8.3a.75.75 0 0 0 0 1.5h8.3a.75.75 0 1 0-.01-1.5zm-32.3-11.9l5.9 5.9c.7.7 1.7-.4 1-1l-5.9-5.9c-.61-.7-1.61.3-1 1zm27.4 25.3l-5.9-5.9c-.7-.7-1.7.4-1 1l5.9 5.9c.6.7 1.69-.4.99-1zm-26.3 1l5.9-5.9c.7-.7-.4-1.7-1-1l-5.9 5.9c-.71.6.29 1.7.99 1zm25.3-27.4l-5.9 5.9c-.7.7.4 1.7 1 1l5.9-5.9c.69-.6-.4-1.6-1.01-1z"/><circle cx="1046.69" cy="419.71" r="289" fill="#f5d344"/><g class="cls-26"><path class="cls-7" d="M1022.49 878.31L981 1079l-23.3-1.5 17.2-205.2 47.6 6zm96.5 53.1l-6.9 145.8-25.5.3-24.7-146.1z"/><path class="cls-28" d="M1121.59 571.71l34.8 104.5-21.9 21.1-56.8-104.2a29.36 29.36 0 0 1-.5-26.9c3.7-7.7 10.2-13.8 18.6-14.9 13.7-1.8 25.2 7.2 25.8 20.4z"/><path class="cls-10" d="M1094.89 607.71s36.1 145.9 33.4 444.4l-62.5 2-54.6-446.4z"/><path d="M978.09 607.71c-37.9 97.6-24.2 199.7-28.2 250.6-5.6 71.3-4.3 193.5-4.3 193.5l53.1 7.2 32.1-184.6 35-266.7z" fill="#39373a"/><path class="cls-28" d="M1052.89 490.31l17.1 77.2c3.4 14.4 18.2 24.3 32.4 21.8 13-2.4 20.7-14.4 17.8-27.6l-17.5-86.6-49.8 15.2z"/><path class="cls-30" d="M1049.59 387c-1-.3 62 26.2 70.2 106l-66.4 49.8-8.8-83.9z"/><path class="cls-30" d="M977.89 397.71c-6.7 8.3-22.3 33.2-21.8 44.4l-18.3 265.7 179.9-14s-11.2-212-30.8-262.6c-22.9-59.3-87.1-60.4-109-33.5z"/><path class="cls-28" d="M1183 749.91c7.1-1.6-5.4-33.9-10.3-41.2l8.6 4c2.3.8 7.8.6 9.3-2.2s-13-10.7-13-10.7c-6.9-5.1-22.3-25.7-22.3-25.7l-26.8 9.4c1.7 17.4 6.4 32.4 12.6 43.3 1 1.7 6.5 27.3 10.8 26.9 3.2-.3-2-28.9-.2-27.1 1 1 4.3 30.2 11.1 31 4.2.5-5.1-32-2.8-31.9 1.5 0 5.7 28.5 11.6 29.4 7.3 1.1-4.7-34.5-2.9-33.1 1.3 1.1 9.4 29.1 14.3 27.9z"/><path class="cls-7" d="M1047.89 726.51c7-1.9-6.9-33.6-12.1-40.7l8.7 3.7c2.3.7 7.8.3 9.2-2.6s-13.5-10.1-13.5-10.1c-7.1-4.8-23.6-28.2-23.6-28.2l-30.1 7.7c2.4 17.3 11.7 38.5 18.4 49.1 1.1 1.7 7.7 26.9 11.9 26.4 3.2-.4-3.3-28.8-1.4-27.1 1 1 5.6 30 12.4 30.5 4.2.3-6.5-31.7-4.2-31.8 1.5 0 6.9 28.2 12.8 28.8 7.4.8-6.2-34.2-4.3-32.9 1.7.9 11 28.5 15.8 27.2zm-128.8-242.2l4.3 81.6c9 28.3 26.6 15 38.2 6.4 10.7-7.9 11.3-5.8 11.1-22.6l5.2-77-58.8 11.6z"/><path class="cls-30" d="M1020.49 382.51s-61.5-8.9-92.8 32.2c-17.9 23.4-13.8 112.5-10.5 117.7l66.2-29.6-15.5-68.81 52.6-51.5z"/><path class="cls-30" d="M974.39 504.21l8.9-2.2-15.9-64.2"/><path d="M974.39 504.21c3-.9 5.9-1.7 8.8-2.5l-.2.4c-1.4-5.3-2.9-10.6-4.2-16s-2.7-10.7-4-16-2.6-10.7-3.8-16.1-2.5-10.8-3.6-16.2c1.5 5.3 3 10.6 4.4 15.9s2.8 10.7 4.2 16 2.7 10.7 3.9 16.1 2.5 10.7 3.7 16.1c0 .2-.1.3-.2.3-3 .7-6 1.4-9 2z"/><path class="cls-15" d="M1044.59 306c3 8.6 7.7 11.5 19.1 7.8 8.7-2.9 12.5-14.3 9.5-23s-10.5-9.9-19.4-5.9c-6.2 2.81-12.2 12.41-9.2 21.1z"/><path class="cls-7" d="M989.19 322.51l-2.3 82.1s19.9 1.9 26.2 2.8c12.4 1.8 28.9-6.2 28.9-6.2l-13.3-78.9z"/><path class="cls-16" d="M1036.79 370.51c-18.2-2.4-37.4-31.1-37.4-31.1l30.1-11.3z"/><path class="cls-7" d="M988.29 234.31a71.8 71.8 0 0 1 31.7-5.8c14.6.9 33.6 4.1 39.3 29 9.4 41.5 8.4 73.8-11.8 86.3-15.5 9.7-27.8 8.5-48.2.5-7.6-3-15.9-13.6-18.9-21.4l-11.1-21.3s-28.8-47.2 19-67.3z"/><path class="cls-31" d="M1039.49 271.41s0 4.1 6.3 2.1c4.8-1.6 6.2-1.9 9.1-2.2a4.42 4.42 0 0 0 3.6-2.7 3 3 0 0 0-1.3-2.8c-1.9-1.4-4.5-3.3-10.3-1.5-7.6 2.4-7.4 7.1-7.4 7.1zm-12.1 7.4s1 5.2-7.8 4.2c-6.7-.8-15-.3-18.9-.1-2.2.1-4.5-.9-5.4-2.5a2.4 2.4 0 0 1 .7-3.3l.1-.1c2.6-1.6 11.8-4.9 19.9-4 10.6 1.1 11.4 5.8 11.4 5.8z"/><path class="cls-3" d="M1022.69 292.71s-11.8-13.3-29.2 2c0 .1 12.4 12.2 29.2-2z"/><g clip-path="url(#clip-path-7)"><path class="cls-10" d="M1023.09 291.41a7.12 7.12 0 1 1-9-4.5 7.13 7.13 0 0 1 9 4.5z"/></g><path class="cls-33" d="M993 294.21a29.06 29.06 0 0 1 6.9-4.7 25.09 25.09 0 0 1 7.9-2.5 17.67 17.67 0 0 1 14.9 5.7 15.8 15.8 0 0 0-6.8-4.3 16.73 16.73 0 0 0-8-.7 22.51 22.51 0 0 0-7.5 2.7 26.94 26.94 0 0 0-6.3 4.8.78.78 0 0 1-1.1 0 .57.57 0 0 1 0-1z"/><path class="cls-3" d="M1042.39 289s6.3-14.6 17.7-5.8c0-.09-6 14.91-17.7 5.8z"/><g clip-path="url(#clip-path-8)"><path class="cls-10" d="M1051.59 285.61c-.3 3.8 1.5 7.1 4.2 7.3s5-2.7 5.3-6.5-1.5-7.1-4.1-7.3c-2.8-.3-5.2 2.6-5.4 6.5z"/></g><path class="cls-33" d="M1059.59 283.71a10.72 10.72 0 0 0-4.4-2.8 7.46 7.46 0 0 0-2.6-.4 1.27 1.27 0 0 0-.6.1l-.6.2a6.47 6.47 0 0 0-1.3.4 12.55 12.55 0 0 0-4.4 3.1 17.72 17.72 0 0 0-3.1 4.6 18.32 18.32 0 0 1 2.8-4.9 13.94 13.94 0 0 1 4.4-3.6 6.94 6.94 0 0 1 1.3-.5 1.45 1.45 0 0 1 .7-.2 1.7 1.7 0 0 1 .7-.1 10.12 10.12 0 0 1 3 .2 12 12 0 0 1 5.2 2.8.91.91 0 0 1 .1 1.1.68.68 0 0 1-1 .1c-.1 0-.1 0-.2-.1z"/><path class="cls-35" d="M1041.29 314.11l5.8-4-7.7-15.1m-9.1 21.9c9.2 11.5 19.9 5.3 19.9 5.3"/><path class="cls-31" d="M961.19 252.41s41.5 3.9 7.7 56.4l-14-43.8z"/><path class="cls-7" d="M985.39 316.41c-.5 9.1-4.2 13.2-16.2 12.8-9.1-.3-16-10.2-15.6-19.4s7.3-12.4 17-11.1c6.8 1 15.3 8.5 14.8 17.7z"/><path class="cls-35" d="M963.19 309.71s8-3.3 12.9 8.1"/><path class="cls-31" d="M954.89 265c.9.5 29.4 2.7 57.9-.2 7.8-.7 21.3-3.6 28.3-5.1 1.5-.3-.5-14.5-.5-14.5s5 6.8 4 11.7c0 0 17.3-3.9 17.6-6.2 0 0-13.8-37.6-55.8-31.6-49.39 7.21-51.5 45.9-51.5 45.9z"/><path class="cls-7" d="M974.29 556.51l44.4 96-30 5.8-57.5-78.7a27.17 27.17 0 0 1-3.1-26c3.1-7.6 9.2-13.9 17.8-15.4 13.8-2.4 26.5 5.7 28.4 18.3z"/><path d="M986.29 584.41l-12-27.8" stroke-width=".62" stroke="#af4a25" stroke-miterlimit="10" fill="none"/></g><path class="cls-25" d="M1279.49 368.21a90.28 90.28 0 1 0-102.6 7.7 49.2 49.2 0 0 1-27.1 10.6 49 49 0 0 0 62.4 1.3 90 90 0 0 0 67.3-19.6z"/><path class="cls-3" d="M1191 303.71a11.3 11.3 0 1 1-11.3-11.3 11.29 11.29 0 0 1 11.3 11.3zm40.7 0a11.3 11.3 0 1 1-11.3-11.3 11.29 11.29 0 0 1 11.29 11.3zm45 0a11.3 11.3 0 1 1-11.3-11.3 11.29 11.29 0 0 1 11.29 11.3z"/></svg>