<svg id="Layer_1" xmlns="http://www.w3.org/2000/svg" xmlns:xlink="http://www.w3.org/1999/xlink" viewBox="0 0 521 457"><style>.st46{fill:#f0a49c}.st51{fill:#300e2e}.st55{fill:#7574e0}.st56,.st58{fill:none;stroke:#000;stroke-width:1.3456;stroke-linecap:round;stroke-linejoin:round;stroke-miterlimit:10}.st58{stroke:#1c0001;stroke-width:1.6715}</style><switch><g><ellipse cx="270" cy="238.5" rx="217.9" ry="218.5" fill="#c4e5e5"/><defs><ellipse id="SVGID_9_" cx="270" cy="238.5" rx="217.9" ry="218.5"/></defs><clipPath id="SVGID_2_"><use xlink:href="#SVGID_9_" overflow="visible"/></clipPath><g clip-path="url(#SVGID_2_)"><path class="st55" d="M362.3 334.6s30.5 20.3 27.9 68.7L383 542.1c-.9 17.2-14.2 31.3-31.3 33.1-21.5 2.3-39.9-15-39-36.6l8.3-182.9 41.3-21.1z"/><path class="st55" d="M361.7 334.9s14.7 14.3 15.7 54.5-67.6 199.1-67.6 199.1l-148.4-19.9L148.7 367c-.6-8.5.3-17.1 3.4-25 3.5-8.9 10-18.8 22.4-25.2l187.2 18.1z"/><path class="st46" d="M282.8 286.2l78.9 48.7s-70.8 28.7-187.3-18.3l79.4-32 29 1.6z"/><path class="st56" d="M329.9 539.6s32.6-76 30-142.4"/><g><path class="st55" d="M174.4 316.6s-46.6 20.5-73.4 125.3c0 0 14.4 68.8 63.2 71.4 48.7 2.7 10.2-196.7 10.2-196.7z"/><path class="st56" d="M155.3 510.9L186 382.4"/></g><g><path class="st51" d="M146.5 84.5c-.7 23 17.3 42.2 40.3 42.9s42.2-17.3 42.9-40.3c.7-23-17.3-42.2-40.3-42.9-22.9-.7-42.1 17.4-42.9 40.3z"/><path class="st51" d="M178.8 153.4c-1.4 44 52.9 80.2 77.2 81 44 1.4 80.8-31.9 82.2-75.9 1.4-44-33.2-79.4-77.2-82.3-44.6-2.9-80.8 33.1-82.2 77.2z"/><path d="M305.3 192.8c1.7 12.1 12.6 18.6 24.6 16.8 12.1-1.7 20-15.5 18.3-27.6-1.7-12.1-12.1-15.9-24.2-14.2-12 1.8-20.4 13-18.7 25z" fill="#e58e88"/><path class="st46" d="M254.1 201.1l-12.3 116 51.9 2.9.3-101.9z"/><path d="M293.8 267.3s-30.6-9.8-48.4-51l48.5 14.2-.1 36.8z"/><path class="st46" d="M299.4 82.8s48.3 3.1 42.7 66.5c-5.7 63.4-11 82.9-36.9 95.5-23.2 11.3-54.8-3.2-70.6-30.7-6.2-10.8-10.6-26.9-11.1-39.4l-3.3-16.7c.1 0-17.3-83.2 79.2-75.2z"/><path class="st51" d="M236.7 122l-3 60.4-37.1-32.6 17.7-20z"/><path class="st46" d="M235.9 191.8c-3 11.8-12.5 14.6-24.3 11.6s-18.2-17.5-15.3-29.3c3-11.8 13.8-14.6 25.6-11.6 11.9 3 17 17.5 14 29.3z"/><path class="st51" d="M257.5 76.1l52.1 4.6c28.2.9 51 21.3 49.7 49.6 0 .5 0 .9-.1 1.4l-144.9-4.6c.1 0-13.1-52.8 43.2-51zM308.7 151.6s-1.2 5 7 4.4c6.3-.5 8-.4 11.6 0 2.1.2 4.2-.7 5.1-2.2.7-1.2-.1-2.9-.7-3.7-1.8-2.2-4.4-5.4-12-4.9-9.7.6-11 6.4-11 6.4zM287.6 152.1s1.3 6.5-9.6 5.3c-8.3-.9-18.6-.2-23.5.1-2.8.2-5.6-1.1-6.7-3-.9-1.6-.5-3.2 1.1-4.2 3.2-2 14.6-6.2 24.7-5.2 13 1.1 14 7 14 7z"/><defs><path id="XMLID_24_" d="M288.5 178.3s-12.2-18.4-36.3-2.6c0 0 13.1 17.2 36.3 2.6z"/></defs><use xlink:href="#XMLID_24_" overflow="visible" fill="#fff"/><clipPath id="XMLID_8_"><use xlink:href="#XMLID_24_" overflow="visible"/></clipPath><path d="M280.7 175.5c.9 4.8-2.3 9.4-7.1 10.3-4.8.9-9.4-2.3-10.3-7.1-.9-4.8 2.3-9.4 7.1-10.3 4.9-.8 9.5 2.3 10.3 7.1z" clip-path="url(#XMLID_8_)"/><path class="st58" d="M252.2 175.7c4.2-3.1 8.8-4.8 12.2-5.7 3.7-1 7.7-1.2 11.5-.3 8.9 2.2 12.6 8.6 12.6 8.6"/><g><defs><path id="XMLID_23_" d="M310.5 177.2s10.3-16.9 22.8-4.1c.1 0-10 17.4-22.8 4.1z"/></defs><use xlink:href="#XMLID_23_" overflow="visible" fill="#fff"/><clipPath id="XMLID_11_"><use xlink:href="#XMLID_23_" overflow="visible"/></clipPath><path d="M315.7 174.1c-1.1 4.6.7 9 3.8 9.7 3.2.7 6.6-2.4 7.7-7.1 1.1-4.6-.7-9-3.8-9.7s-6.6 2.5-7.7 7.1z" clip-path="url(#XMLID_11_)"/><path class="st58" d="M333.4 173.1c-4.4-5.7-9.8-5.1-9.8-5.1-8.3.7-13 9.2-13 9.2"/></g><path fill="none" stroke="#ae4a1f" stroke-width="2.408" stroke-miterlimit="10" d="M306.8 189.5l5.5 8.2-4.7 4.8"/><path d="M280.5 207s7 9.5 23.9 3.9" fill="none" stroke="#000" stroke-width="1.806" stroke-linecap="round" stroke-linejoin="round" stroke-miterlimit="10"/></g></g></g></switch></svg>