<svg id="Layer_1" data-name="Layer 1" xmlns="http://www.w3.org/2000/svg" viewBox="0 0 1456.08 1021.32"><defs><style>.cls-1{fill:#fff}.cls-3{fill:#003b71}.cls-19{fill:none}.cls-5{fill:#a7d1d0}.cls-6{fill:#eca179}.cls-7{fill:#93aab5}.cls-8{fill:#f7f7f8}.cls-9{fill:#de8d68}.cls-10{fill:#1b1c20}.cls-12{fill:#21a498}.cls-13{fill:#c96e3d}.cls-14{fill:#c46234}.cls-15{fill:#995300}.cls-17{fill:#604538}.cls-19{stroke:#ca5e34;stroke-linecap:round;stroke-linejoin:round;stroke-width:3.02px}.cls-22{fill:#aa664b}.cls-23{fill:#003359}</style><clipPath id="clip-path"><path class="cls-1" d="M986.19 259.27s10.66-12 26.26 1.83c0 0-11.13 10.95-26.26-1.83z"/></clipPath><clipPath id="clip-path-2"><path class="cls-1" d="M968.39 255.88s-5.67-13.17-15.93-5.25c0 0 5.44 13.49 15.93 5.25z"/></clipPath><clipPath id="clip-path-3"><path class="cls-1" d="M488.1 268.9s-8.84-13.36-26.25-1.94c0 .04 9.45 12.43 26.25 1.94z"/></clipPath><clipPath id="clip-path-4"><path class="cls-1" d="M506.21 268.09s7.49-12.23 16.52-2.92c0 0-7.32 12.58-16.52 2.92z"/></clipPath></defs><path d="M895 19C857 16.2 688.75 3.1 646.64 4.61c-73.75 2.65-251.9 17-388.57 162.13-48.79 51.8-162.59 501.65 58.68 640.19 372.47 233.21 1083.87 32.4 972.65-435.67C1197.36-16 951.37 23.05 895 19z" fill="#c4e5e5"/><path class="cls-1" d="M721.89 212.15s78.52-11 156.93-11.22C970.73 200.67 985.6 70 896.16 57.57c-149.4-20.81-192.63-8.58-274-4.79C501.39 58.4 513.76 182.88 581.2 192c63.29 8.52 98.56 20.18 98.56 20.18l-47.46 59.6z"/><path class="cls-3" d="M606.14 97.93c.12.8.21 1.6.25 2.4s.06 1.61.06 2.41q0 3.18-.28 6.28t-.29 6.27c0 1.82.09 3.64.26 5.45s.25 3.64.25 5.46 0 3.52-.16 5.26-.16 3.48-.16 5.26c0 1.31 0 2.62.1 3.93s.09 2.62.09 3.93v1.17a5.11 5.11 0 0 1-.09 1.3 2.23 2.23 0 0 1-.48 1 1.27 1.27 0 0 1-1 .42 3.3 3.3 0 0 1-.76-.1c-.26-.06-.51-.12-.76-.16-.59-.17-1-.3-1.3-.41s-.41-.58-.41-1.43a13.73 13.73 0 0 1 .15-2 12.71 12.71 0 0 0 .16-2c0-1.27 0-2.53-.12-3.77s-.13-2.49-.13-3.71q-.06-7-.19-13.82t-.13-13.82v-2.44-2.5a3.35 3.35 0 0 0-.16-1.11c-.11-.27-.44-.41-1-.41a25.81 25.81 0 0 0-4.89.47 25.15 25.15 0 0 1-4.94.48v2.34c0 1.36 0 2.69.06 4q.14 6.08.19 12.1t.19 12.17v5.58a45.92 45.92 0 0 0 .29 5.64c.08.64.18 1.28.28 1.94a12 12 0 0 1 .16 2c0 .17 0 .43-.06.79a1.58 1.58 0 0 0 .06.8c-.08.17-.31.3-.66.41a8.86 8.86 0 0 1-1.21.25 11.9 11.9 0 0 1-1.27.13H587.13l-.72-.19a.44.44 0 0 1-.29-.19 1 1 0 0 1-.06-.41 5.5 5.5 0 0 0-.07-.79 22.54 22.54 0 0 1-.19-2.73c0-1.1 0-2.2.1-3.3s.09-2.19.09-3.29q0-10.27-.09-20.38t-.1-20.31a2.61 2.61 0 0 1 2.73-2.73q3.42 0 6.78.29t6.78.28a10.28 10.28 0 0 0 1.37-.09 3.45 3.45 0 0 1 1.2 0 1.45 1.45 0 0 1 .89.5 3.18 3.18 0 0 1 .59 1.38zM617.93 93.11a9.62 9.62 0 0 1 1.58-.13 7.8 7.8 0 0 1 4.06 1 9.07 9.07 0 0 1 2.85 2.63 11.24 11.24 0 0 1 1.68 3.64 16 16 0 0 1 .54 4.12 16.94 16.94 0 0 1-.38 3.49 15 15 0 0 1-1.18 3.39 10.83 10.83 0 0 1-2 2.88 8.84 8.84 0 0 1-2.89 2 4.65 4.65 0 0 1-1.36.31 8.15 8.15 0 0 0-1.33.23 1.9 1.9 0 0 0-1 .57 1.94 1.94 0 0 0-.38 1.36q0 3.93.19 7.83c.12 2.6.19 5.18.19 7.76 0 1.86 0 3.7-.07 5.52s-.06 3.63-.06 5.45q0 1.46.06 2.91c0 1 .07 1.92.07 2.85a5 5 0 0 1-.13 1.15c-.09.33-.38.5-.89.5a2.71 2.71 0 0 1-1-.16c-.3-.1-.59-.2-.89-.28a11.68 11.68 0 0 1-1.52-.44c-.29-.13-.44-.64-.44-1.53a16.61 16.61 0 0 1 .09-1.74 13.76 13.76 0 0 0 .1-1.68q0-11.28-.35-22.4t-.35-22.41a30.59 30.59 0 0 0-.16-3.17c-.1-1.06-.16-2.11-.16-3.17s.32-1.83 1-2.06a7.08 7.08 0 0 1 2.4-.35h.8a6.77 6.77 0 0 0 .93-.07zm2.21 19.2A5.76 5.76 0 0 0 622 111a6.35 6.35 0 0 0 1.21-1.9 10.8 10.8 0 0 0 .63-2.22 13.11 13.11 0 0 0 .19-2.21 15 15 0 0 0-.25-2.76 7.15 7.15 0 0 0-.92-2.44 5.42 5.42 0 0 0-1.75-1.75 5 5 0 0 0-2.66-.66c-.17 0-.31.12-.44.35a3 3 0 0 0-.29.85 9.14 9.14 0 0 0-.12 1v.7a18.78 18.78 0 0 0 .15 2.38 17.45 17.45 0 0 1 .16 2.44q0 .51-.09 1.8a26.14 26.14 0 0 0-.07 2.67 10.66 10.66 0 0 0 .29 2.37c.17.68.48 1 1 1a3.57 3.57 0 0 0 1.1-.31zM649.3 96.79a6.56 6.56 0 0 1 2-.58l2-.25a2.24 2.24 0 0 1 .23.79v.8c0 1.39 0 2.75-.13 4.08s-.13 2.68-.13 4q0 3-.09 6.08t-.1 6.15V144.48c0 .43 0 .85.06 1.27s.07.85.07 1.27a1.08 1.08 0 0 1-.8 1.17 5.58 5.58 0 0 1-1.55.22h-1.08a2.49 2.49 0 0 1-.92-.09 1.38 1.38 0 0 1-.66-.44 1.77 1.77 0 0 1-.25-1.08 21.64 21.64 0 0 1 .15-2.54 20.06 20.06 0 0 0 .16-2.6c.13-3.55.16-7.08.1-10.61a102 102 0 0 1 .35-10.62c.08-.84.19-1.69.31-2.53a17.21 17.21 0 0 0 .19-2.6 3.91 3.91 0 0 0 0-.45 4.37 4.37 0 0 0-.09-.5 4.54 4.54 0 0 0-.83 2.06c-.17.91-.31 1.63-.44 2.18a32.63 32.63 0 0 1-.92 3.33q-.54 1.62-1.05 3.33-1.32 4.81-2.69 9.63t-2.5 9.76a8.51 8.51 0 0 0-.23 1.18 14.66 14.66 0 0 1-.25 1.45 5.77 5.77 0 0 1-.44 1.33 1.76 1.76 0 0 1-.79.86h-.2a1 1 0 0 1-.25 0l-.79-.06-1.27-.13q-.66-.06-1.2-.15a1.48 1.48 0 0 1-.67-.23.8.8 0 0 1-.22-.5v-.57c0-.64 0-1.28.09-1.94a18.67 18.67 0 0 0 .1-2q0-3.44-.19-6.79t-.19-6.78l.06-26.49a12.13 12.13 0 0 0-.19-2.16 12.47 12.47 0 0 1-.19-2.22A4.43 4.43 0 0 1 634 98a1.44 1.44 0 0 1 .64-.76 2.59 2.59 0 0 1 1.07-.26q.67 0 1.56-.15a3.38 3.38 0 0 0 .63-.07 3.36 3.36 0 0 1 .63-.06.72.72 0 0 1 .67.41 1.66 1.66 0 0 1 .22.79 7.07 7.07 0 0 1-.16 1.52 8.25 8.25 0 0 0-.15 1.59q0 8.69-.23 17.27c-.15 5.73-.22 11.5-.22 17.34a3.32 3.32 0 0 0 .48-1 14 14 0 0 0 .38-1.4c.1-.51.21-1 .31-1.46s.18-.84.23-1.14c.25-1 .52-1.95.82-2.95s.61-2 1-2.94c.76-2.16 1.43-4.3 2-6.44s1.17-4.27 1.8-6.43c.6-2 1.2-4 1.81-6a22.21 22.21 0 0 0 1-6.15l.07-.31v-1.47a1.21 1.21 0 0 1 .74-1.14zM671.42 119.54a10 10 0 0 1 3.33 1.84 12 12 0 0 1 2.41 2.76 12.89 12.89 0 0 1 1.49 3.32 13.46 13.46 0 0 1 .5 3.62 22.41 22.41 0 0 1-.66 5.48 13 13 0 0 1-2.19 4.66 10.61 10.61 0 0 1-4.09 3.23 14.81 14.81 0 0 1-6.3 1.2c-.81 0-1.27-.25-1.4-.76a10 10 0 0 1-.25-1.71c-.09-1.39-.18-2.75-.29-4.09s-.22-2.69-.35-4.08q-.63-5.32-.88-10.65t-.64-10.71q-.18-2.54-.6-5a29.94 29.94 0 0 1-.41-4.91c0-.68 0-1.26.06-1.75a2.78 2.78 0 0 1 .35-1.2 1.82 1.82 0 0 1 .89-.73 4.64 4.64 0 0 1 1.74-.25 20.82 20.82 0 0 1 5 .6 12.72 12.72 0 0 1 4.31 1.93 10.65 10.65 0 0 1 3 3.36 9.77 9.77 0 0 1 1.17 5 11.18 11.18 0 0 1-.38 2.91 8.73 8.73 0 0 1-1.17 2.66 8.06 8.06 0 0 1-1.93 2.06 7.28 7.28 0 0 1-2.71 1.21zm-5.51-13.44q0 1 .12 2.7a55.538 55.538 0 0 0 .8 6.02c.15.76.3 1.17.47 1.17a6.28 6.28 0 0 0 2-.35 5 5 0 0 0 1.84-1.14 5.51 5.51 0 0 0 1.3-2 8.32 8.32 0 0 0 .47-2.94 5.1 5.1 0 0 0-.6-2.16 7 7 0 0 0-1.43-1.84 7 7 0 0 0-2-1.3 5.29 5.29 0 0 0-2.09-.47c-.51 0-.8.29-.86.89s-.02 1.04-.02 1.42zm6.59 32.33a13.13 13.13 0 0 0 1.58-4 13.78 13.78 0 0 0 .29-4.82 9.93 9.93 0 0 0-1.68-4.47 7.68 7.68 0 0 0-4.18-3h-.26v5.26c0 1.9 0 3.74.13 5.52s.2 3.3.35 4.59.39 1.94.73 1.94a8 8 0 0 0 1.74-.23 1.77 1.77 0 0 0 1.3-.79zM694.05 94.38h1.33a3.15 3.15 0 0 1 1.08.16 1.38 1.38 0 0 1 .73.63 2.83 2.83 0 0 1 .28 1.42v1.15a9.34 9.34 0 0 1-.19 1.49 4.47 4.47 0 0 1-.48 1.26 1 1 0 0 1-.95.54 5.58 5.58 0 0 1-2.41-.54A5.54 5.54 0 0 0 691 100c-.47 0-.76.11-.89.32a1.85 1.85 0 0 0-.19 1 37.25 37.25 0 0 0 .22 4.12 37.38 37.38 0 0 1 .22 4.12v5.8c0 1.92 0 3.86.22 5.8 0 .25.11.61.19 1.08s.32.7.7.7a3.24 3.24 0 0 0 1.2-.23 3.46 3.46 0 0 1 1.21-.22 5 5 0 0 1 1.2.1.82.82 0 0 1 .54.35 1.2 1.2 0 0 1 .16.66 6 6 0 0 0 .13 1.11 6.91 6.91 0 0 0 .19 1 4.44 4.44 0 0 1 .12 1 1 1 0 0 1-.38.76 1.27 1.27 0 0 1-.82.32 3.52 3.52 0 0 1-1.46-.32 3.49 3.49 0 0 0-1.46-.32 1.3 1.3 0 0 0-1.45 1 7.37 7.37 0 0 0-.26 1.86 17.93 17.93 0 0 0 .26 3 25 25 0 0 1 .31 3c0 .88.08 1.76.1 2.63s0 1.74 0 2.63a11.71 11.71 0 0 1-.13 1.77 13.31 13.31 0 0 0-.12 1.78 2.34 2.34 0 0 0 .19.95.74.74 0 0 0 .76.44 5 5 0 0 0 1.9-.35 5 5 0 0 1 1.84-.35c.38 0 .62.08.73.23a1.31 1.31 0 0 1 .15.72v3.3c0 .55-.19.88-.57 1a6.64 6.64 0 0 1-1.21.22c-1.22.22-2.45.39-3.67.54a30.42 30.42 0 0 1-3.68.23 3.32 3.32 0 0 1-1.36-.19c-.24-.13-.35-.55-.35-1.27a8.51 8.51 0 0 1 .19-1.84 8.51 8.51 0 0 0 .19-1.84q0-7.66.06-15.31t.07-15.37v-7.29c0-2.41-.05-4.83-.09-7.28 0-.68-.11-1.35-.19-2a14.71 14.71 0 0 1-.13-2 6.68 6.68 0 0 1 .41-2.47c.28-.67 1-1 2.13-1a13.43 13.43 0 0 1 2.47.22c.8.15 1.6.26 2.41.35zM716.3 97a2.05 2.05 0 0 1 1 1.1 4.06 4.06 0 0 1 .31 1.49 2.46 2.46 0 0 1-.6 1.62 1.91 1.91 0 0 1-1.55.73 3.18 3.18 0 0 1-1.49-.35 2.68 2.68 0 0 0-1.17-.35.5.5 0 0 0-.57.45 4.86 4.86 0 0 0-.07.82V103.9a75.61 75.61 0 0 1 .53 8.34q0 4.16.29 8.4c.13 3 .26 5.88.41 8.78s.37 5.82.67 8.77q.06.77.06 1.56V143a10.19 10.19 0 0 0 .13 1.65 8.28 8.28 0 0 0 .25 1.49 5.74 5.74 0 0 1 .19 1.49 1.46 1.46 0 0 1-1.05 1.58 7.26 7.26 0 0 1-2.12.32c-1.14 0-1.8-.25-2-.76a7.64 7.64 0 0 1-.26-2.28c0-.76 0-1.51.1-2.25s.09-1.49.09-2.25v-.19q-.32-9.51-.82-18.86t-.76-18.79v-1.11a4.06 4.06 0 0 0-.19-1 1.4 1.4 0 0 0-.54-.7 2.1 2.1 0 0 0-1.14-.25 4.59 4.59 0 0 0-1.65.31 4.76 4.76 0 0 1-1.71.32 1.29 1.29 0 0 1-1.37-.79 4.94 4.94 0 0 1-.28-1.68v-.8a6.75 6.75 0 0 1 .16-1.07 3.26 3.26 0 0 1 .38-1 .74.74 0 0 1 .63-.42 2.65 2.65 0 0 1 .92.16 3.62 3.62 0 0 0 .86.22 24.13 24.13 0 0 0 2.82.35c.95.07 1.87.1 2.76.1a17.62 17.62 0 0 0 2.21-.13 20.07 20.07 0 0 1 2.22-.13 10.9 10.9 0 0 1 1.14.07 3.9 3.9 0 0 1 1.21.4zM730 139.82a13.05 13.05 0 0 1 0 4c-.19 1.46-.33 2.8-.41 4-.05 1-.28 1.5-.7 1.58a9 9 0 0 0-1.17.26 9.76 9.76 0 0 1-1.24.25 3.06 3.06 0 0 1-.7 0c-.12 0-.31-.26-.57-.73a3.84 3.84 0 0 1-.35-1.83c0-.72.06-1.4.1-2 0-.85.07-1.82.09-2.92s.06-2.07.1-2.91a2.16 2.16 0 0 1 .13-.83c.25-.8.62-1.17 1.1-1.11a9.61 9.61 0 0 0 1.37.1 4.27 4.27 0 0 1 1.42.19c.38.13.65.77.83 1.95zM769.73 125.12a9.07 9.07 0 0 1 1.42 2.88 27.35 27.35 0 0 1 1 4c.23 1.43.4 2.84.51 4.21s.16 2.51.16 3.39a14.33 14.33 0 0 1-.38 3.3 7.27 7.27 0 0 1-1.46 2.91 14.29 14.29 0 0 1-1.3 1.4 14.75 14.75 0 0 1-1.68 1.39 12 12 0 0 1-1.84 1.11 5.79 5.79 0 0 1-1.77.6c-.13.22-.61.41-1.46.57s-1.77.31-2.79.42-2 .19-2.88.25-1.51.1-1.81.1a3.35 3.35 0 0 1-1.36-.19c-.23-.13-.35-.55-.35-1.27a8.51 8.51 0 0 1 .19-1.84 8.51 8.51 0 0 0 .19-1.84q0-7.66.06-15.31t.07-15.37v-7.29q0-3.62-.09-7.28c0-.68-.11-1.35-.19-2a14.71 14.71 0 0 1-.13-2 6.68 6.68 0 0 1 .41-2.47c.28-.67 1-1 2.13-1a15.1 15.1 0 0 1 2.91.28 15.29 15.29 0 0 0 2.92.29h1.33a3.42 3.42 0 0 1 1.11.16 1.22 1.22 0 0 1 .73.63 3.11 3.11 0 0 1 .25 1.42v1.15a8.32 8.32 0 0 1-.19 1.49 3.75 3.75 0 0 1-.51 1.26 1 1 0 0 1-.92.54 5.54 5.54 0 0 1-2.4-.54 5.58 5.58 0 0 0-2.41-.54c-.64 0-1 .18-1 .54a12.1 12.1 0 0 0-.06 1.3 33 33 0 0 0 .22 3.87 32.28 32.28 0 0 1 .22 3.8v5.8c0 1.92.05 3.86.22 5.8 0 .25.11.61.19 1.08s.32.7.7.7a3.33 3.33 0 0 0 1.17-.23 3.77 3.77 0 0 1 1.24-.22 2.52 2.52 0 0 1 .73.1c.23.06.49.11.79.16l3.36.6a5.27 5.27 0 0 1 2.75 1.89zm-1.52 11.15a12.91 12.91 0 0 0-.77-5.1 5.61 5.61 0 0 0-1.68-2.34 3.41 3.41 0 0 0-1.77-.73c-.57 0-.9-.17-1-.38a3.49 3.49 0 0 1-1.46-.32 3.39 3.39 0 0 0-1.4-.32 1.31 1.31 0 0 0-1.45 1 7.37 7.37 0 0 0-.26 1.86 17.93 17.93 0 0 0 .26 3 23.08 23.08 0 0 1 .31 3c0 .88.08 1.76.1 2.63s0 1.74 0 2.63a9.63 9.63 0 0 1-.09 1.8 10.71 10.71 0 0 0-.16 1.78 2.08 2.08 0 0 0 .23.95.8.8 0 0 0 .79.44 5.08 5.08 0 0 0 1.36-.22c.53-.15 1-.29 1.3-.41a7.49 7.49 0 0 0 4.25-3 11.21 11.21 0 0 0 1.39-5.11zm-3.11-9.44zm4.5 9zM789.63 101.79q.89 5.38 1.61 11.57t1.37 12.39q.63 6.21 1.3 12.11t1.36 10.71a1.93 1.93 0 0 1-.57 1.77 6.25 6.25 0 0 0-1.93-.06 14.82 14.82 0 0 1-2 .13 1.2 1.2 0 0 1-1.11-.57 3.4 3.4 0 0 1-.44-1.4 10.4 10.4 0 0 1-.07-1.68v-1.42a11.77 11.77 0 0 0-.12-1.43c-.09-.61-.17-1.26-.26-1.93s-.16-1.32-.25-1.94a12.06 12.06 0 0 1-.13-1.42 11.62 11.62 0 0 0-.06-1.4.74.74 0 0 0-.38-.6 2 2 0 0 0-1-.12h-1.81a3.17 3.17 0 0 0-1.14.19 1.75 1.75 0 0 0-1.2 1.49c-.09.69-.15 1.36-.19 2-.09 1.36-.18 2.68-.29 4s-.16 2.59-.16 3.9v.83a3 3 0 0 1-.12.85 2 2 0 0 1-.38.7 1 1 0 0 1-.77.28 3.36 3.36 0 0 1-.63-.06l-.63-.13a4.32 4.32 0 0 0-1-.12 2.53 2.53 0 0 1-.85-.13 1.35 1.35 0 0 1-.64-.44 1.69 1.69 0 0 1-.25-1 3 3 0 0 1 .29-1.3 5.34 5.34 0 0 0 .41-1.3 34.61 34.61 0 0 0 .79-4.94q.22-2.53.48-5 .95-8.61 2.06-17.11t2.18-17.11c0-.3 0-.8.07-1.49s.09-1.41.16-2.13.14-1.38.25-2 .26-1 .47-1.11a2.7 2.7 0 0 1 1.56-.45q1.11-.06 1.68-.06a3.12 3.12 0 0 1 1.74.38q.54.38.54 1.65c0 .84 0 1.67-.06 2.47a14.66 14.66 0 0 0 .12 2.43zm-1.63 29.6v-.5a44.13 44.13 0 0 0-.82-8.56 79.08 79.08 0 0 1-1.2-8.56q-.71 3.36-1.11 5.61c-.28 1.5-.49 2.83-.64 4s-.25 2.29-.31 3.36-.1 2.32-.1 3.71a1.66 1.66 0 0 0 .86 1.71 4.59 4.59 0 0 0 1.93.38 2.57 2.57 0 0 0 1.39-.38 2.36 2.36 0 0 1 0-.77zM820.18 100.84c0 1.19.06 2.43.06 3.74q0 8.57-.31 17t-.32 17v3.14c0 1 0 2.06.13 3.07 0 .55.1 1.09.19 1.62a10.71 10.71 0 0 1 .12 1.61 2.94 2.94 0 0 1-.38 1.62 1.59 1.59 0 0 1-1.46.6 4 4 0 0 1-1-.16 4.36 4.36 0 0 1-1.14-.47 3.63 3.63 0 0 1-.92-.76 1.43 1.43 0 0 1-.38-.95q0-3.36.12-6.66c.09-2.2.13-4.41.13-6.65 0-1.4-.05-2.78-.16-4.16s-.16-2.75-.16-4.15c0-3.5.07-7 .19-10.49s.19-7 .19-10.49a2.43 2.43 0 0 0-.12-.79c-.09-.23-.32-.35-.7-.35a16.09 16.09 0 0 0-2.25.16c-.78.11-1.53.22-2.25.35q-.06.57-.09 1.14v1.14q0 4.76.26 9.48t.25 9.47v3.8c0 1.47-.12 3-.29 4.63a40 40 0 0 1-.79 4.76 16.91 16.91 0 0 1-1.55 4.21 9.35 9.35 0 0 1-2.5 3 5.94 5.94 0 0 1-3.71 1.14 8.71 8.71 0 0 1-1.49-.16 7.83 7.83 0 0 1-1.75-.5 5.35 5.35 0 0 1-1.42-.89 1.68 1.68 0 0 1-.6-1.3 2 2 0 0 1 .34-1 7.21 7.21 0 0 1 .86-1.11 5.65 5.65 0 0 1 1.05-.89 1.86 1.86 0 0 1 1-.35 2.25 2.25 0 0 1 .76.13 2.51 2.51 0 0 0 .76.12 3.29 3.29 0 0 0 1.52-.38 3.42 3.42 0 0 0 1.36-1.36 7.51 7.51 0 0 0 .73-1.87 12.85 12.85 0 0 0 .35-2.06c.07-.7.14-1.32.22-1.87.17-1.86.3-3.72.38-5.58s.13-3.74.13-5.64c0-1.35 0-2.71-.06-4.09s-.07-2.75-.07-4.15q-.06-3.11-.28-6.18t-.22-6.18v-.92a.79.79 0 0 1 .47-.73 1.52 1.52 0 0 1 1-.69 5.58 5.58 0 0 1 1.23-.13h4.15a26.68 26.68 0 0 0 4.16-.32 8.82 8.82 0 0 0 1.45-.25 5.92 5.92 0 0 1 1.46-.19 1.18 1.18 0 0 1 1.17.57 2.93 2.93 0 0 1 .18 1.37zM842.74 125.12a8.87 8.87 0 0 1 1.43 2.88 27.35 27.35 0 0 1 1 4c.23 1.43.4 2.84.51 4.21s.15 2.51.15 3.39a13.8 13.8 0 0 1-.38 3.3 7.13 7.13 0 0 1-1.45 2.91 14.29 14.29 0 0 1-1.3 1.4 14.75 14.75 0 0 1-1.68 1.39 12.49 12.49 0 0 1-1.84 1.11 5.88 5.88 0 0 1-1.77.6c-.13.22-.62.41-1.46.57s-1.78.31-2.79.42-2 .19-2.89.25-1.51.1-1.8.1a3.32 3.32 0 0 1-1.36-.19c-.24-.13-.35-.55-.35-1.27a8.51 8.51 0 0 1 .19-1.84 9.18 9.18 0 0 0 .19-1.84q0-7.66.06-15.31t.06-15.37v-7.29q0-3.62-.09-7.28c-.05-.68-.11-1.35-.19-2a14.71 14.71 0 0 1-.13-2 6.68 6.68 0 0 1 .41-2.47c.28-.67 1-1 2.13-1a15.1 15.1 0 0 1 2.91.28 15.14 15.14 0 0 0 2.92.29h1.33a3.42 3.42 0 0 1 1.11.16 1.25 1.25 0 0 1 .73.63 3.25 3.25 0 0 1 .25 1.42v1.15a9.34 9.34 0 0 1-.19 1.49 4 4 0 0 1-.51 1.26 1.05 1.05 0 0 1-.92.54 5.58 5.58 0 0 1-2.41-.54 5.55 5.55 0 0 0-2.41-.54c-.63 0-1 .18-1 .54a12.1 12.1 0 0 0-.06 1.3 33 33 0 0 0 .22 3.87 32.28 32.28 0 0 1 .22 3.8v5.8c0 1.92.05 3.86.22 5.8 0 .25.11.61.19 1.08s.32.7.7.7a3.33 3.33 0 0 0 1.17-.23 3.72 3.72 0 0 1 1.24-.22 2.57 2.57 0 0 1 .73.1c.23.06.49.11.79.16l3.36.6a5.25 5.25 0 0 1 2.76 1.89zm-1.52 11.15a12.94 12.94 0 0 0-.76-5.1 5.79 5.79 0 0 0-1.68-2.34 3.41 3.41 0 0 0-1.77-.73c-.57 0-.9-.17-1-.38a3.48 3.48 0 0 1-1.45-.32 3.39 3.39 0 0 0-1.4-.32 1.32 1.32 0 0 0-1.46 1 7.34 7.34 0 0 0-.25 1.86 17.93 17.93 0 0 0 .25 3 23.08 23.08 0 0 1 .32 3c0 .88.07 1.76.1 2.63s0 1.74 0 2.63a10.59 10.59 0 0 1-.12 1.8 9.74 9.74 0 0 0-.16 1.78 2.07 2.07 0 0 0 .22.95.81.81 0 0 0 .79.44 5.08 5.08 0 0 0 1.37-.22c.53-.15 1-.29 1.3-.41a7.43 7.43 0 0 0 4.24-3 11.09 11.09 0 0 0 1.4-5.11zm-3.1-9.44zm4.5 9zM859 94.38h1.33a3.15 3.15 0 0 1 1.08.16 1.38 1.38 0 0 1 .73.63 2.83 2.83 0 0 1 .28 1.42v1.15a9.34 9.34 0 0 1-.19 1.49 4.19 4.19 0 0 1-.48 1.26 1 1 0 0 1-1 .54 5.54 5.54 0 0 1-2.4-.54 5.61 5.61 0 0 0-2.41-.54c-.47 0-.76.11-.89.32a1.85 1.85 0 0 0-.19 1 37.25 37.25 0 0 0 .22 4.12 37.38 37.38 0 0 1 .22 4.12v5.8c0 1.92 0 3.86.22 5.8 0 .25.11.61.19 1.08s.32.7.7.7a3.24 3.24 0 0 0 1.2-.23 3.51 3.51 0 0 1 1.21-.22 5 5 0 0 1 1.2.1.8.8 0 0 1 .54.35 1.2 1.2 0 0 1 .16.66 6 6 0 0 0 .13 1.11 6.91 6.91 0 0 0 .19 1 4.44 4.44 0 0 1 .12 1 1 1 0 0 1-.38.76 1.27 1.27 0 0 1-.82.32 3.52 3.52 0 0 1-1.46-.32 3.49 3.49 0 0 0-1.46-.32 1.3 1.3 0 0 0-1.45 1 7.37 7.37 0 0 0-.26 1.86 17.93 17.93 0 0 0 .26 3 25 25 0 0 1 .31 3c0 .88.08 1.76.1 2.63s0 1.74 0 2.63a11.71 11.71 0 0 1-.13 1.77 13.31 13.31 0 0 0-.12 1.78 2.34 2.34 0 0 0 .19.95.74.74 0 0 0 .76.44 5 5 0 0 0 1.9-.35 5 5 0 0 1 1.84-.35c.38 0 .62.08.73.23a1.31 1.31 0 0 1 .15.72v3.3c0 .55-.19.88-.57 1a6.64 6.64 0 0 1-1.21.22c-1.22.22-2.45.39-3.67.54a30.3 30.3 0 0 1-3.68.23 3.32 3.32 0 0 1-1.36-.19c-.24-.13-.35-.55-.35-1.27a8.51 8.51 0 0 1 .19-1.84 8.51 8.51 0 0 0 .19-1.84q0-7.66.06-15.31t.07-15.37v-7.29c0-2.41 0-4.83-.09-7.28 0-.68-.11-1.35-.19-2a14.71 14.71 0 0 1-.13-2 6.68 6.68 0 0 1 .41-2.47c.28-.67 1-1 2.13-1a13.43 13.43 0 0 1 2.47.22c.8.15 1.6.26 2.41.35zM881.79 138.68h1.07a11.89 11.89 0 0 1 1.56.1 7.37 7.37 0 0 1 1.36.28q.57.19.57.57a6.66 6.66 0 0 1-.1 1.21q-.09.57-.15 1.14a27.32 27.32 0 0 1-.92 3.58 12.75 12.75 0 0 1-1.65 3.3 8.4 8.4 0 0 1-2.57 2.4 6.78 6.78 0 0 1-3.61.92 6 6 0 0 1-4.82-2 13.2 13.2 0 0 1-2.53-4.78 28.42 28.42 0 0 1-1.15-5.86c-.19-2-.34-3.79-.47-5.23s-.21-2.6-.25-3.87-.07-2.53-.07-3.8c0-1.78 0-3.54.07-5.29s.06-3.54.06-5.36v-4.53c0-1.59 0-3.18.06-4.79a43.89 43.89 0 0 1 .44-4.75 22.36 22.36 0 0 1 1.11-4.37 14.44 14.44 0 0 1 1.11-2.13 11.73 11.73 0 0 1 1.52-1.9 7.41 7.41 0 0 1 1.94-1.39 5 5 0 0 1 2.28-.54 4.8 4.8 0 0 1 3 1 9.93 9.93 0 0 1 2.22 2.34 17.1 17.1 0 0 1 1.61 3 26.41 26.41 0 0 1 1.05 2.92c.17.63.36 1.32.57 2.06a7.56 7.56 0 0 1 .32 2.06 2.9 2.9 0 0 1 .31.54 1.38 1.38 0 0 1 .13.6q0 .63-.54.66c-.36 0-.69.06-1 .1a9.42 9.42 0 0 0-1.36.38 9.21 9.21 0 0 1-1.43.38c0-.63-.14-1.52-.29-2.66a18.64 18.64 0 0 0-.73-3.33 9.72 9.72 0 0 0-1.36-2.82 2.64 2.64 0 0 0-2.25-1.2 2.56 2.56 0 0 0-2.34 1.68 15.19 15.19 0 0 0-1.24 3.89 37.39 37.39 0 0 0-.54 4.38c-.08 1.43-.12 2.49-.12 3.17 0 1.48 0 2.94.09 4.4s.1 2.93.1 4.41c0 1.73 0 3.44-.1 5.13s-.09 3.4-.09 5.13v2.35c0 1.01.08 2.15.19 3.39s.26 2.5.47 3.77a20 20 0 0 0 .89 3.49 9.3 9.3 0 0 0 1.36 2.6 2.46 2.46 0 0 0 2 1 2.69 2.69 0 0 0 2.06-.85 6.16 6.16 0 0 0 1.24-2.06 13.18 13.18 0 0 0 .63-2.51c.1-.92.2-1.67.29-2.31zM892.88 101.73c-.09-.68-.18-1.33-.29-2a12.44 12.44 0 0 1-.16-2c0-.17 0-.44.07-.82a1.26 1.26 0 0 0-.07-.77 1.22 1.22 0 0 1 .67-.44 5.87 5.87 0 0 1 1.2-.28 12.17 12.17 0 0 1 1.3-.13h.89c.76 0 1.15.12 1.17.38s.08.65.16 1.2a21.54 21.54 0 0 1 .19 2.85c0 1 0 2-.09 3.08s-.1 2.06-.1 3.07q0 7.11.13 14.11t.13 14.1a1.22 1.22 0 0 1-.42.95 1.4 1.4 0 0 1-1 .38H896a8.47 8.47 0 0 1-1-.06l-.95-.16a.94.94 0 0 1-.57-.29 1.21 1.21 0 0 1-.13-.63v-.64c0-1.6 0-3.2.1-4.78s.09-3.18.09-4.79 0-2.83-.06-4c-.08-3-.13-6-.13-9.23a77.39 77.39 0 0 0-.47-9.1zm2.12 39.36h1.77a1.27 1.27 0 0 1 1.27 1.33c0 .93.07 1.86.07 2.79V148a1.42 1.42 0 0 1-1.4 1.4h-.66l-1-.1a8.54 8.54 0 0 1-.95-.16.94.94 0 0 1-.57-.28 1 1 0 0 1-.13-.61v-.66c0-.89 0-1.77.07-2.63s.08-1.74.12-2.63a1.27 1.27 0 0 1 .39-1 1.17 1.17 0 0 1 1.02-.24z"/><path stroke-miterlimit="10" stroke="#1691c9" stroke-width="6" fill="none" d="M273.52 874.18l822.4-39.84"/><path class="cls-5" d="M1144.69 987.1l-.65-3.47a12.92 12.92 0 0 0-4.65-5.77c-6.05-5.64-15.28-9.61-24.25-12.4q-9.06-2.81-18.39-4.8c-6.49-4.08-15.27-6.62-23.09-8.54-13.7-3.38-28.08-5.35-42.32-7.09-17.9-2.19-35.92-3.85-54-5.26-23.33-1.81-46.66-3.2-70.12-3.48-20.6-.25-41.92.09-61.92 4-11.31 2.22-21.81 5.81-30.74 11.33s-15.7 14.29-15.52 22.86c.33 16.37 21.82 24.19 41.22 27.82 12.22 7.35 28.37 9.55 44.12 10.28 30.67 3.18 61.78 1.93 92.54 0q18.94.54 37.89.52c15.95 0 31.86-.46 47.78-1.13 10.11-.42 20.2-.36 30.15-2a54.88 54.88 0 0 0 15.56-4.94c3.83-.23 7.65-.5 11.45-1 7.15-1 14.88-3.55 19.6-7.67 3.04-2.63 5.56-5.69 5.34-9.26z"/><path class="cls-6" d="M986.31 786.49l37.37 180.72 20.99-1.31-15.5-184.76-42.86 5.35z"/><path class="cls-7" d="M1018.43 966.45s-31.29 6.12-45.7 14.87c-5.26 3.19-2.15 9.38-.44 10.63 3.94 2.88 65.61 1.33 79.6-.31 4.93-.58-1.11-20.16-7.21-25.74z"/><path class="cls-8" d="M1021.08 954.64s-32.52 14.65-46.93 23.4c-5.25 3.19-4.28 9.15-4.28 9.15 3.94 2.87 69.77.25 83.76-1.39 0 0 1.83-13.23-7.63-31.16l-1.94 7.25-19.87.4z"/><path class="cls-6" d="M899.47 834.34l6.18 131.25 22.99.31 22.2-131.56h-51.37z"/><path class="cls-7" d="M902.4 966.45s-31.3 6.12-45.71 14.87c-5.25 3.19-2.14 9.38-.43 10.63 3.93 2.88 65.6 1.33 79.59-.31 4.93-.58-1.11-20.16-7.21-25.74z"/><path class="cls-8" d="M905 954.64s-32.51 14.65-46.92 23.4c-5.26 3.19-4.28 9.15-4.28 9.15 3.93 2.87 69.76.25 83.76-1.39 0 0 1.82-13.23-7.64-31.16l-1.92 7.25-19.87.4z"/><path class="cls-9" d="M897.09 510.42l-31.36 94.1 19.76 19 51.11-93.82a26.4 26.4 0 0 0 .49-24.25c-3.34-6.9-9.2-12.41-16.79-13.4-12.3-1.61-22.64 6.56-23.21 18.37z"/><path class="cls-10" d="M921.18 542.9S888.7 674.24 891.07 943l56.28 1.83 49.14-402z"/><path d="M1026.3 542.9c34.14 87.87 21.78 179.84 25.39 225.62 5.07 64.22 3.88 174.21 3.88 174.21l-47.84 6.48L978.84 783l-31.49-240.1z" fill="#39373a"/><path class="cls-9" d="M959 437.13l-15.42 69.52c-3.07 13-16.4 21.92-29.18 19.6-11.68-2.12-18.67-13-16-24.84l15.79-77.9z"/><path class="cls-12" d="M962 344.16c.88-.29-55.82 23.57-63.22 95.47l59.8 44.84 7.93-75.54z"/><path class="cls-12" d="M1026.5 353.82c6.06 7.48 20.11 29.9 19.64 40L1062.58 633l-162-12.68s10-190.89 27.72-236.44c20.7-53.29 78.51-54.3 98.2-30.06z"/><path class="cls-9" d="M841.8 670.92c-6.36-1.48 4.86-30.5 9.24-37.09l-7.72 3.65c-2 .71-7 .56-8.39-2s11.74-9.66 11.74-9.66c6.23-4.61 20.08-23.16 20.08-23.16l24.15 8.48c-1.49 15.64-5.75 29.17-11.33 39-.88 1.55-5.88 24.53-9.7 24.24-2.92-.23 1.8-26 .17-24.39-.9.91-3.85 27.19-10 27.94-3.8.46 4.62-28.81 2.51-28.75-1.39 0-5.12 25.62-10.42 26.45-6.59 1 4.19-31 2.58-29.8-1.22.91-8.47 26.17-12.91 25.09z"/><path class="cls-6" d="M1075.59 459.89l-49 52.7c-12 5.92-25.3.38-29.06-12.13-3.45-11.44 2.37-24.63 13.31-30.18l28.57-50.47z"/><path class="cls-12" d="M988.19 340.05s55.34-7.94 83.58 29c16.09 21.07 12.44 101.26 9.41 106l-59.62-26.63 14-62z"/><path class="cls-12" d="M1029.63 449.71l-8.01-2 14.36-57.79"/><path d="M1029.62 449.71c-2.71-.47-5.4-1-8.11-1.56a.43.43 0 0 1-.34-.51v-.05c1-4.86 2-9.71 3.18-14.54.55-2.42 1.14-4.83 1.73-7.24s1.18-4.82 1.8-7.23c1.2-4.81 2.49-9.6 3.82-14.38s2.75-9.55 4.27-14.28c-.87 4.89-1.85 9.76-2.91 14.61s-2.17 9.69-3.35 14.51c-.58 2.41-1.17 4.82-1.79 7.22s-1.22 4.81-1.87 7.21c-1.25 4.8-2.6 9.58-4 14.35l-.34-.56c2.65.82 5.29 1.57 7.91 2.45z"/><path class="cls-13" d="M966.47 271.19c-2.7 7.78-6.93 10.36-17.19 7-7.83-2.57-11.27-12.88-8.57-20.67s9.47-8.9 17.47-5.28c5.58 2.51 10.99 11.16 8.29 18.95z"/><path class="cls-6" d="M1016.31 286.1l2.08 73.95-49.69-3.07 12.08-71.08 35.53.2z"/><path class="cls-14" d="M973.46 329.32c16.38-2.2 33.65-28 33.65-28L980 291.18z"/><path class="cls-6" d="M1017.16 206.62a64 64 0 0 0-28.56-5.19c-13.17.78-30.29 3.69-35.37 26.12-8.46 37.38-7.56 66.39 10.6 77.71 13.94 8.7 25.07 7.7 43.4.5 6.82-2.68 14.34-12.26 17-19.27l10-19.21s25.95-42.5-17.07-60.66z"/><path class="cls-15" d="M971.08 240.05s0 3.72-5.72 1.86a37.37 37.37 0 0 0-8.17-2 3.92 3.92 0 0 1-3.21-2.42c-.3-1 .56-2.05 1.16-2.5 1.67-1.25 4-3 9.3-1.33 6.76 2.12 6.64 6.39 6.64 6.39zM981.91 246.69s-.92 4.69 7 3.75a107 107 0 0 1 17-.07 5.39 5.39 0 0 0 4.84-2.24 2.17 2.17 0 0 0-.79-3.07c-2.31-1.46-10.61-4.42-17.92-3.62-9.42 1.01-10.13 5.25-10.13 5.25z"/><path class="cls-1" d="M986.19 259.27s10.66-12 26.26 1.83c0 0-11.13 10.95-26.26-1.83z"/><g clip-path="url(#clip-path)"><path class="cls-10" d="M985.77 258.06a6.39 6.39 0 1 0 8.08-4.05 6.39 6.39 0 0 0-8.08 4.05z"/></g><path class="cls-17" d="M1011.59 262a24.51 24.51 0 0 0-5.52-4.37 19.23 19.23 0 0 0-6.6-2.55 15.22 15.22 0 0 0-7.08.49 14.56 14.56 0 0 0-6.2 3.73 15 15 0 0 1 6-4.31 16.24 16.24 0 0 1 7.45-1.13 21.15 21.15 0 0 1 7.3 2.15 26.69 26.69 0 0 1 6.38 4.25 1.23 1.23 0 0 1-1.65 1.82z"/><path class="cls-1" d="M968.39 255.88s-5.67-13.17-15.93-5.25c0 0 5.44 13.49 15.93 5.25z"/><g clip-path="url(#clip-path-2)"><path class="cls-10" d="M960.19 252.8c.28 3.43-1.39 6.36-3.74 6.56s-4.48-2.43-4.77-5.85 1.39-6.37 3.74-6.57 4.48 2.43 4.77 5.86z"/></g><path class="cls-17" d="M951.61 249.74a11.11 11.11 0 0 1 4.95-2.51 8.72 8.72 0 0 1 2.79-.12 6.43 6.43 0 0 1 .72.13l.66.23a7.16 7.16 0 0 1 1.27.53 11.89 11.89 0 0 1 4 3.4 16.25 16.25 0 0 1 2.45 4.47 16.23 16.23 0 0 0-2.91-4.07 11.21 11.21 0 0 0-4-2.69 7.44 7.44 0 0 0-1.14-.33 3.53 3.53 0 0 0-1.09-.15 6.72 6.72 0 0 0-2.31.37 8.86 8.86 0 0 0-3.72 2.5 1.23 1.23 0 1 1-1.8-1.67z"/><path class="cls-19" d="M969.43 278.47l-5.23-3.57 6.92-13.56M975.15 286.67c-6 4.34-13.68-.91-13.68-.91"/><path class="cls-15" d="M1041.52 222.93s-37.39 3.53-6.93 50.79l12.6-39.42z"/><path class="cls-6" d="M1019.73 280.54c.42 8.22 3.76 11.89 14.55 11.52 8.24-.29 14.43-9.23 14-17.46s-6.61-11.19-15.3-10c-6.05.91-13.67 7.71-13.25 15.94z"/><path class="cls-19" d="M1039.76 274.58s-7.23-2.93-11.65 7.31"/><path class="cls-15" d="M1047.19 234.3c-.83.42-26.5 2.41-52.11-.14-7-.7-19.14-3.25-25.5-4.59-1.38-.29.45-13.07.45-13.07s-4.51 6.12-3.59 10.58c0 0-15.56-3.53-15.87-5.54 0 0 12.45-33.87 50.21-28.45 44.53 6.39 46.41 41.21 46.41 41.21z"/><path class="cls-6" d="M923.64 375.92c2.43 1.53-14.13 17.51-5.91 29.31l3.27-13.29c.3-2.13 1.91-6.8 4.83-6.88S927.6 405 927.6 405c1.23 7.66 9.55 22.91 9.55 22.91l-6.52 26.73c-16.18-10.7-31-31-28.59-45.06.22-1.26 5-15.28 7.17-21.07 1.33-3.6 12.41-13.87 14.43-12.59z"/><path class="cls-6" d="M1021.62 471.83l-84.47-43.93-6.52 26.73 68.35 55a24.36 24.36 0 0 0 23.23 3.92c7-2.45 12.89-7.68 14.63-15.33 2.82-12.4-3.94-24.14-15.22-26.39z"/><path stroke="#af4a25" stroke-width=".97" stroke-miterlimit="10" fill="none" d="M997.1 459.89l24.52 11.94"/><path class="cls-5" d="M723.35 989.91l-.79-3a13 13 0 0 0-5.71-5c-7.45-4.91-18.79-8.39-29.85-10.81q-11.13-2.45-22.6-4.17c-8-3.55-18.77-5.76-28.38-7.43-16.84-2.94-34.52-4.65-52-6.16-22-1.9-44.16-3.35-66.33-4.57-28.67-1.58-57.35-2.79-86.18-3-25.32-.22-51.53.08-76.11 3.5-13.9 1.93-26.82 5-37.79 9.85s-19.28 12.39-19.07 19.88c.41 14.23 26.82 21 50.67 24.19 15 6.38 34.87 8.3 54.23 8.93 37.69 2.77 75.94 1.68 113.75 0q23.28.48 46.58.46c19.6 0 39.15-.41 58.72-1 12.43-.36 24.83-.31 37.06-1.74a88.66 88.66 0 0 0 19.12-4.3c4.71-.2 9.4-.43 14.08-.89 8.79-.85 18.29-3.08 24.1-6.66 3.68-2.32 6.77-4.99 6.5-8.08z"/><path class="cls-10" d="M515.84 213.51s15.9 4.43 14.91 19a92.49 92.49 0 0 1-4.75 24.43s-12.6-27.69-21.22-34.74 2.05-12.29 11.06-8.69z"/><path class="cls-9" d="M600.68 690.32c6-2.63-3.07-27.41-7.07-34.23l4.93 2c2 .83 4.92 2 6.47-.43s-6.57-9.36-6.57-9.36c-6-5-24.57-21.92-24.57-21.92l-18.77 4.75c.61 15.7 4.09 29.45 9.11 39.56.79 1.6 1 19.22 4.85 19.14 2.92 0 3.14-20.48 4.68-18.75.84 1-2.28 21 3.81 22.08 3.76.68 1.6-22.65 3.7-22.47 1.38.12-.12 23.19 5.12 24.32 6.52 1.4.87-27.26 2.9-27.21 3.43.12 9.23 23.48 11.41 22.52z"/><path class="cls-9" d="M550.93 526.76l30.46 116.41-20.45.77-51.54-102.38a24.35 24.35 0 0 1 .71-23.55c3.77-6.37 10.06-11.13 17.9-11.34 12.74-.34 22.93 8.6 22.92 20.09z"/><path stroke="#af4a25" stroke-width=".97" fill="#de8d68" stroke-miterlimit="10" d="M557.84 553.15l-6.91-26.39"/><path class="cls-6" d="M458.15 786.49l-37.37 180.72-23.31-1.46 17.83-184.61 42.85 5.35z"/><path class="cls-22" d="M426 966.45s31.29 6.12 45.7 14.87c5.26 3.19 2.15 9.38.44 10.63-3.94 2.88-65.6 1.33-79.6-.31-4.93-.58 1.12-20.16 7.22-25.74z"/><path class="cls-9" d="M423.39 954.64s32.51 14.65 46.92 23.4c5.26 3.19 4.28 9.15 4.28 9.15-3.94 2.87-69.76.25-83.76-1.39 0 0-1.83-13.23 7.63-31.16l2 7.25 19.86.4z"/><path class="cls-6" d="M544.99 834.34l-6.17 131.25-22.99.31-22.21-131.56h51.37z"/><path class="cls-22" d="M542.07 966.45s31.29 6.12 45.7 14.87c5.26 3.19 2.15 9.38.44 10.63-3.94 2.88-65.61 1.33-79.6-.31-4.93-.58 1.11-20.16 7.22-25.74z"/><path class="cls-9" d="M539.42 954.64s32.52 14.65 46.93 23.4c5.25 3.19 4.28 9.15 4.28 9.15-3.94 2.87-69.77.25-83.76-1.39 0 0-1.83-13.23 7.63-31.16l1.94 7.25 19.87.4z"/><path class="cls-23" d="M523.29 542.9S547.36 674.51 545 943.29l-40.19 1.56L448 542.9z"/><path class="cls-3" d="M418.17 542.9C384 630.77 403.4 735.37 399.79 781.14c-5.07 64.23-3.61 162.58-3.61 162.58l40.55 5.49L465.63 783l31.48-240.1z"/><path class="cls-9" d="M501.6 447.69l3.87 71.11c.91 13.29 12.61 24.3 25.59 24.1 11.87-.19 20.54-9.76 19.85-21.9L547 423.79z"/><path class="cls-14" d="M491.59 355.32c.42-.16 50.94 4.63 68.09 75.64L496 481.14l-7.9-75.54 3.5-50.25s-.02-.02-.01-.03z"/><path class="cls-14" d="M398 361.18c-7.69 5.79-24.7 38-24.24 48.08l10.71 228.19L547 631.22s-5-202.56-24.67-247.31C503.29 340.48 430.09 337 398 361.18z"/><path class="cls-6" d="M353.5 456.66l-4.23 98.4c-.81 13.37 9.45 23.47 22.44 22.09 11.88-1.26 21.78-11.73 22.66-24l13.37-98.55z"/><path class="cls-14" d="M427.81 356.13s-101.05-11.42-79 124.43l69.12-6.24-11.12-73.56z"/><path d="M409.69 475.06c2.72-.45 5.44-.79 8.17-1.2l-.42.5c-.64-4.92-1.23-9.85-1.73-14.79-.27-2.47-.5-4.94-.73-7.41s-.46-4.94-.66-7.41q-.63-7.41-1.07-14.85t-.62-14.9c.77 4.91 1.43 9.84 2 14.77a668.567 668.567 0 0 1 2.23 22.22c.2 2.48.42 4.94.58 7.42.38 4.94.67 9.9.91 14.86a.44.44 0 0 1-.41.46c-2.75.14-5.5.27-8.25.33z"/><path class="cls-13" d="M505.91 283.51c1.57 8.09 5.38 11.26 16 9.38 8.11-1.42 13-11.14 11.44-19.23s-8.1-10.16-16.54-7.72c-5.81 1.69-12.46 9.48-10.9 17.57z"/><path class="cls-6" d="M454.46 291.15l-12.62 72.9 28.67 11.38a16.93 16.93 0 0 0 20.94-7.32L489.66 296z"/><path class="cls-14" d="M490.69 340.05c-15.9-4.51-29.3-32.52-29.3-32.52l28.31-6.16z"/><path class="cls-6" d="M465 212.36a64 64 0 0 1 29-1.05c12.93 2.66 29.46 8 31.28 30.9 3 38.21-2 66.8-21.6 75.41-15 6.61-25.91 4-43-5.71-6.36-3.63-12.44-14.19-14.09-21.5L439.37 270S419.8 224.2 465 212.36z"/><path class="cls-10" d="M438.53 225s36.51 8.83-.39 51.25l-6.84-40.81z"/><path class="cls-6" d="M451.87 285.16c-1.59 8.08-5.42 11.23-16.05 9.32-8.11-1.46-13-11.19-11.37-19.28s8.14-10.13 16.57-7.66c5.87 1.72 12.44 9.53 10.85 17.62z"/><path class="cls-19" d="M432.89 276.4s7.58-1.87 10.49 8.9"/><path class="cls-10" d="M431.3 235.47c.58.4 47.47 1.6 69.3 0 7.27-.53-13.07-11.69-5.49-10.45 31 5 48.94-18.6 35.69-41.82 0 0-11.13 3-61.74 16-38.35 9.95-37.76 36.27-37.76 36.27zM511 253.76s-.49 3.69 5.39 2.67a36.88 36.88 0 0 1 8.37-.84 4 4 0 0 0 3.53-1.93c.44-.91-.26-2.12-.79-2.65-1.48-1.48-1.6-3.54-7.05-2.64-7.03 1.15-9.45 5.39-9.45 5.39zM494.13 257.06s.25 4.77-7.45 2.72a105.5 105.5 0 0 0-16.8-2.5 5.39 5.39 0 0 1-4.47-2.91 2.16 2.16 0 0 1 1.21-2.92c2.5-1.12 11.14-2.86 18.27-1 9.11 2.32 9.24 6.61 9.24 6.61z"/><path class="cls-1" d="M488.1 268.9s-8.84-13.36-26.25-1.94c0 .04 9.45 12.43 26.25 1.94z"/><g clip-path="url(#clip-path-3)"><path class="cls-10" d="M488.69 267.76a6.39 6.39 0 1 1-7.41-5.15 6.39 6.39 0 0 1 7.41 5.15z"/></g><path class="cls-17" d="M461.13 266a26.65 26.65 0 0 1 6.92-3.3 21.12 21.12 0 0 1 7.53-1.08 16.19 16.19 0 0 1 7.21 2.19 14.79 14.79 0 0 1 5.31 5.11 14.42 14.42 0 0 0-5.6-4.57 15.29 15.29 0 0 0-6.94-1.51 19.4 19.4 0 0 0-6.89 1.59 24.27 24.27 0 0 0-6.09 3.54A1.23 1.23 0 1 1 461 266z"/><path class="cls-1" d="M506.21 268.09s7.49-12.23 16.52-2.92c0 0-7.32 12.58-16.52 2.92z"/><g clip-path="url(#clip-path-4)"><path class="cls-10" d="M514.77 266.21c-.78 3.36.46 6.5 2.75 7s4.79-1.76 5.56-5.11-.46-6.5-2.76-7-4.78 1.76-5.55 5.11z"/></g><path class="cls-17" d="M521.76 265.92a8.86 8.86 0 0 0-3.32-3 6.79 6.79 0 0 0-2.14-.69 3.74 3.74 0 0 0-1.11 0 7.86 7.86 0 0 0-1.17.17 11.1 11.1 0 0 0-4.35 2.09 15.83 15.83 0 0 0-3.46 3.61 16.58 16.58 0 0 1 3.06-4.08 12 12 0 0 1 4.42-2.79 7.14 7.14 0 0 1 1.3-.36l.68-.13h.73a8.82 8.82 0 0 1 2.75.52 11.18 11.18 0 0 1 4.54 3.19 1.23 1.23 0 0 1-1.84 1.63z"/><path class="cls-19" d="M501.95 290.3l5.69-2.79-4.92-14.4M495.11 297.6c7.5 9.17 15 0 15 0"/><path class="cls-6" d="M389.4 544.51l62.29 77.19-11.86 24.7-80.71-70a26.38 26.38 0 0 1-8.94-22.55c.72-7.64 4.28-14.85 11-18.43 11.03-5.82 23.55-1.78 28.22 9.09z"/><path class="cls-6" d="M498.17 676c5.44-3.61-15.22-26.87-21.63-31.51l8.51.71c2.15 0 6.74-1.91 7.16-4.81s-14.37-4.94-14.37-4.94c-7.46-2.14-26.92-14.67-26.92-14.67l-19.66 16.39c6.87 14.13 15.59 25.32 24.25 32.55 1.37 1.15 14.09 20.93 17.57 19.32 2.65-1.23-10.79-23.76-8.69-22.79 1.16.53 13.12 24.12 19.13 22.68 3.72-.9-14.4-25.38-12.41-26.06 1.32-.45 13.76 22.22 19 21.14 6.54-1.35-14.78-27.6-12.83-27 1.48.38 17.1 21.46 20.89 18.99z"/><path class="cls-3" d="M501.08 932.83l45.65-5.23v17.25h-43.95l-1.7-12.02z"/><path class="cls-23" d="M394.61 928.91l47.2 6.34-4.47 13.97-42.73-4.37v-15.94z"/></svg>