<svg id="Layer_1" data-name="Layer 1" xmlns="http://www.w3.org/2000/svg" viewBox="0 0 521 457"><defs><style>.cls-1,.cls-16,.cls-21,.cls-9{fill:none}.cls-2{fill:#c4e5e5}.cls-3{fill:#fff}.cls-7{fill:#ffa405}.cls-9{stroke:#ec7600;stroke-width:2.23px}.cls-16,.cls-21,.cls-9{stroke-linecap:round;stroke-linejoin:round}.cls-10{fill:#eca079}.cls-12{fill:#8a331f}.cls-13{fill:#7b2616}.cls-14{fill:#dc845e}.cls-15{fill:#c46234}.cls-16{stroke:#311326;stroke-width:1.25px}.cls-17{clip-path:url(#clip-path-2)}.cls-18{fill:#1b1c20}.cls-19{fill:#604538}.cls-20{clip-path:url(#clip-path-3)}.cls-21{stroke:#ca5e34;stroke-width:1.69px}</style><clipPath id="clip-path"><path class="cls-1" d="M341 50c-7.73-.19-36.1-16.68-57.21-17-17.48-.26-52.66-.63-59.79 0-27.57 2.42-75.59 38.5-129.34 97.09-19.19 20.92-70.19 196.69 9.76 246C239 459 508.28 368 475.65 189.46 448.65 41.74 362 50.51 341 50z"/></clipPath><clipPath id="clip-path-2"><path class="cls-1" d="M236.24 107.1s-7.3-11-21.69-1.6c0 0 7.81 10.27 21.69 1.6z"/></clipPath><clipPath id="clip-path-3"><path class="cls-1" d="M251.2 106.43s6.19-10.1 13.65-2.41c0 0-6.05 10.39-13.65 2.41z"/></clipPath></defs><path class="cls-2" d="M321.82 77c-13.22-.32-71.77-2.07-86.51-.78-25.82 2.27-88.31 10.63-138.66 65.49-18 19.59-65.72 184.17 9.14 230.31 126 77.66 378.16-7.54 347.61-174.71C428.11 59 341.46 77.48 321.82 77z"/><rect class="cls-3" x="327.21" y="137.51" width="100.32" height="22.21" rx="11.1"/><rect class="cls-3" x="327.21" y="163.21" width="100.32" height="22.21" rx="11.1"/><rect x="325.9" y="161.68" width="102.95" height="25.16" rx="12" stroke="#569b97" stroke-miterlimit="10" fill="none"/><rect class="cls-3" x="327.21" y="188.91" width="100.32" height="22.21" rx="11.1"/><path d="M357.53 150.38c-.19.37-.38.74-.58 1.11s-.38.74-.56 1.13c0 .1-.09.21-.13.33a3 3 0 0 1-.16.31.84.84 0 0 1-.23.23.64.64 0 0 1-.36.09h-.2a.84.84 0 0 1-.4-.14 1 1 0 0 1-.25-.26 3.59 3.59 0 0 1-.17-.34 2.43 2.43 0 0 0-.16-.37c-.21-.4-.41-.79-.62-1.17s-.4-.76-.59-1.14l-.5-1a10.38 10.38 0 0 0-.52-1c-.18-.3-.24-.47-.37-.7l-.35-.7c-.06-.15-.12-.3-.17-.45a.81.81 0 0 0-.19-.38c0 .69 0 1.37.05 2s0 1.35.05 2 .05 1.25.1 1.88.09 1.24.09 1.85a.75.75 0 0 1-.07.36c-.05.06-.17.08-.37.08a1.34 1.34 0 0 1-.52-.1 1.12 1.12 0 0 0-.4-.1h-.07a.35.35 0 0 1-.1-.19v-.2a6.46 6.46 0 0 1 0-.88v-8.57a2.16 2.16 0 0 1 0-.36 1.16 1.16 0 0 1 .08-.32q.06-.15.18-.15h.53a1.06 1.06 0 0 1 .35.09.88.88 0 0 1 .27.24 2.73 2.73 0 0 1 .26.43c.36.66.73 1.31 1.09 1.94s.73 1.29 1.08 2c.07.11.19.35.36.71s.35.74.55 1.13a10.45 10.45 0 0 0 .57 1c.18.27.33.46.42.46s0 0 .07-.09l.06-.1a8.86 8.86 0 0 0 .44-.87c.13-.3.27-.6.41-.89.36-.68.73-1.35 1.1-2s.73-1.34 1.09-2l.19-.41c.08-.18.16-.36.25-.54a4.91 4.91 0 0 1 .28-.5.86.86 0 0 1 .3-.3 1.59 1.59 0 0 1 .38-.07h.4a.55.55 0 0 1 .33.09.38.38 0 0 1 .14.21 1.61 1.61 0 0 1 0 .31v3.2c0 .94 0 1.9.05 2.86v2.32a5.32 5.32 0 0 0 .06.56 2.62 2.62 0 0 1 0 .56.81.81 0 0 1-.06.31.24.24 0 0 1-.26.15.54.54 0 0 1-.22-.05l-.2-.07a.66.66 0 0 0-.2-.06h-.08v-.08a.69.69 0 0 0-.05-.24 3.21 3.21 0 0 1-.07-.43V151l-.06-1.7v-1.23a10.45 10.45 0 0 0-.05-1.24v-.3a1.31 1.31 0 0 0 0-.28v-.15a.46.46 0 0 0-.14.16 2.39 2.39 0 0 1-.13.21c-.37.67-.7 1.32-1 1.95s-.68 1.28-1 1.94zm9 3.93a2.79 2.79 0 0 1-1.78-.57 4.14 4.14 0 0 1-1.14-1.42 6.79 6.79 0 0 1-.6-1.85 9.49 9.49 0 0 1-.18-1.84 8.9 8.9 0 0 1 .2-1.86 5.23 5.23 0 0 1 .65-1.67 3.75 3.75 0 0 1 1.2-1.21 3.44 3.44 0 0 1 1.83-.46 2.72 2.72 0 0 1 1.82.58 4 4 0 0 1 1.09 1.45 6.23 6.23 0 0 1 .54 1.88 11.82 11.82 0 0 1 .15 1.88 8.32 8.32 0 0 1-.2 1.79 5.43 5.43 0 0 1-.66 1.64 3.6 3.6 0 0 1-1.17 1.19 3.08 3.08 0 0 1-1.75.47zm.18-9.63a2.48 2.48 0 0 0-1.3.31 2.27 2.27 0 0 0-.8.83 4.05 4.05 0 0 0-.4 1.17 8.4 8.4 0 0 0-.11 1.32 7.46 7.46 0 0 0 .05 1.07 9.66 9.66 0 0 0 .22 1.07 5.43 5.43 0 0 0 .45 1.22 3.75 3.75 0 0 0 .72 1 1.4 1.4 0 0 0 1 .4 1.7 1.7 0 0 0 1.21-.46 3.58 3.58 0 0 0 .77-1.15A6.3 6.3 0 0 0 369 150a7.11 7.11 0 0 0 0-2.52 5.62 5.62 0 0 0-.38-1.33 3.57 3.57 0 0 0-.73-1.07 1.5 1.5 0 0 0-1.14-.4zm4.94-2.81a.06.06 0 0 0 0-.06v-.05a.27.27 0 0 1 .14-.23 1.12 1.12 0 0 1 .31-.1 2.16 2.16 0 0 1 .36 0h.28a3.78 3.78 0 0 1 1.84.4 3.08 3.08 0 0 1 1.1 1.08 4.71 4.71 0 0 1 .54 1.54 10.08 10.08 0 0 1 .14 1.82v2.33c0 .78 0 1.55-.11 2.33 0 .34-.05.68-.07 1s0 .68 0 1A4.43 4.43 0 0 1 376 154a3.35 3.35 0 0 1-.41 1 2.37 2.37 0 0 1-.72.69 1.78 1.78 0 0 1-1 .28 2.28 2.28 0 0 1-.73-.12 3 3 0 0 1-.64-.32 1.36 1.36 0 0 1-.44-.79 7.55 7.55 0 0 1-.22-1.26c0-.46-.07-.9-.08-1.34s0-.77 0-1v-1.44a11.56 11.56 0 0 1 .06-1.44 3.36 3.36 0 0 1 .61-1.67A2 2 0 0 1 374 146a1 1 0 0 1 .57.15.73.73 0 0 0 .31.14h.12v-.53a3.46 3.46 0 0 0-.59-2.14 2.45 2.45 0 0 0-2.09-.77.75.75 0 0 1-.33-.07.41.41 0 0 1-.17-.2 2.31 2.31 0 0 1-.1-.28.94.94 0 0 0-.03-.43zm3.13 11.1c.05-1 .08-1.94.09-2.9s0-1.92 0-2.9a.79.79 0 0 0-.26-.08h-.28a1 1 0 0 0-1 .43 2.82 2.82 0 0 0-.3 1.1v4.79a3.84 3.84 0 0 0 0 .48 1.52 1.52 0 0 0 .1.47.68.68 0 0 0 .26.34.81.81 0 0 0 .5.14 1.13 1.13 0 0 0 .44-.1.88.88 0 0 0 .17-.35 2.37 2.37 0 0 0 .11-.46 1.15 1.15 0 0 1 .07-.48 3.63 3.63 0 0 0 .1-.45zm7.65-9.56a20 20 0 0 0 .19 2.19 20.64 20.64 0 0 1 .12 2.22v1.45c0 .45 0 1-.09 1.46s-.06.87-.11 1.44a8.5 8.5 0 0 1-.32 1.67 4.28 4.28 0 0 1-.7 1.4 1.51 1.51 0 0 1-1.28.58 2 2 0 0 1-1.65-.68 2.58 2.58 0 0 1-.57-1.71v-.59a1.63 1.63 0 0 1 .12-.54.85.85 0 0 1 .3-.4 1.05 1.05 0 0 1 .6-.15h.11a.14.14 0 0 1 .06.11.43.43 0 0 1-.06.22.43.43 0 0 0-.06.22v.6a5.21 5.21 0 0 0 .13.79 2.38 2.38 0 0 0 .28.68.51.51 0 0 0 .44.29.55.55 0 0 0 .28-.07l.23-.18a1.39 1.39 0 0 0 .31-.45 2.75 2.75 0 0 0 .16-.56c0-.2.06-.4.08-.6a5.32 5.32 0 0 1 .06-.56c0-.46.07-.91.1-1.36s0-.91 0-1.37.05-1.18.07-1.77.05-1.18.05-1.78v-.32a.9.9 0 0 0-.09-.32 2.86 2.86 0 0 1-.51.83 1.07 1.07 0 0 1-.85.39 1.55 1.55 0 0 1-1.17-.46A3.09 3.09 0 0 1 378 145a6.69 6.69 0 0 1-.33-1.39 10.83 10.83 0 0 1-.08-1.27.68.68 0 0 1 .24-.58 1 1 0 0 1 .62-.18.46.46 0 0 1 .3.09.53.53 0 0 1 .16.23 1.63 1.63 0 0 1 .07.3v1.16a4 4 0 0 0 0 .85 2.85 2.85 0 0 0 .11.39 2.22 2.22 0 0 0 .2.41 1.12 1.12 0 0 0 .28.33.54.54 0 0 0 .36.14.64.64 0 0 0 .49-.22 1.59 1.59 0 0 0 .3-.54 3.5 3.5 0 0 0 .15-.64 5 5 0 0 0 0-.55 3 3 0 0 0-.07-.66 3 3 0 0 1-.08-.67.31.31 0 0 1 .25-.34 1.76 1.76 0 0 1 .46-.06h.57a.72.72 0 0 1 .29.06.37.37 0 0 1 .16.21 1.58 1.58 0 0 1 .05.43v.45a4.19 4.19 0 0 0 0 .5zm6.67 7.93a3.63 3.63 0 0 0 .14.56c.07.27.15.53.23.82s.15.54.21.78a3.12 3.12 0 0 1 .09.44c0 .1 0 .16-.11.18h-.46a1.16 1.16 0 0 1-.49-.1.51.51 0 0 1-.23-.23 1 1 0 0 1-.11-.34 2 2 0 0 0-.09-.48c-.09-.41-.19-.81-.31-1.2s-.23-.79-.33-1.19-.2-.85-.29-1.27-.19-.84-.31-1.26l-.06-.45a4.43 4.43 0 0 0-.12-.68c0-.24-.09-.45-.14-.65a.68.68 0 0 0-.13-.33c-.14.82-.27 1.64-.39 2.44a16.53 16.53 0 0 0-.24 2.45c-.05.46-.11.9-.2 1.34a12 12 0 0 0-.18 1.34v.29a.43.43 0 0 1 0 .16.18.18 0 0 1-.12.09l-.27.07a.53.53 0 0 1-.25 0h-.4a1.74 1.74 0 0 1-.38-.14 9.08 9.08 0 0 1 .28-1.94 16.25 16.25 0 0 0 .39-1.94c.12-.82.24-1.62.36-2.42s.25-1.6.37-2.41a3.23 3.23 0 0 0 0-.44v-.57a3.47 3.47 0 0 1 .08-.55.53.53 0 0 1 .15-.34.65.65 0 0 1 .36-.1 2.29 2.29 0 0 1 .37 0h.24a.81.81 0 0 1 .22 0 .47.47 0 0 1 .2.22 1.14 1.14 0 0 1 .13.35.77.77 0 0 0 .07.39c0 .1 0 .21.05.31q.38 1.71.81 3.39zm4.66-1.23a3.72 3.72 0 0 1 1 1.16 2.77 2.77 0 0 1 .43 1.48 2 2 0 0 1-.27 1.05 2.1 2.1 0 0 1-.74.77 3.17 3.17 0 0 1-1 .39 6.27 6.27 0 0 1-1.06.13h-1.06c0-.31-.06-.63-.07-.93s0-.62 0-.93c0-1.1 0-2.19.1-3.27s.09-2.16.09-3.26v-3.95a.76.76 0 0 1 .11-.32.5.5 0 0 1 .27-.18 1.51 1.51 0 0 1 .52-.06c.31 0 .48.09.51.26a3.53 3.53 0 0 1 0 .65 8.39 8.39 0 0 1-.06 1c0 .34-.08.68-.11 1a6.74 6.74 0 0 1-.08 1 6.73 6.73 0 0 0-.07 1v1.53a1.33 1.33 0 0 0 .12.68.57.57 0 0 0 .32.27 2.44 2.44 0 0 0 .46.14 1.5 1.5 0 0 1 .54.39zm-.88 3.49a1.54 1.54 0 0 0 .67-.54 1.19 1.19 0 0 0 .17-1.27 2.21 2.21 0 0 0-.3-.45 1.53 1.53 0 0 0-.42-.34.86.86 0 0 0-.46-.14.28.28 0 0 0-.3.21 1.32 1.32 0 0 0-.06.39 3.21 3.21 0 0 0 0 .62 3.35 3.35 0 0 1 .05.63v.59a.83.83 0 0 0 .07.27.21.21 0 0 0 .21.12h.17zm12.15 1.4v.11a.21.21 0 0 0 0 .11c0 .05-.06.1-.17.12l-.33.07h-.74a.11.11 0 0 1-.07-.06.21.21 0 0 1 0-.11.67.67 0 0 0 0-.2 6 6 0 0 1-.05-.73v-10.78h-.54a5 5 0 0 1-.55 0 .35.35 0 0 1-.4-.28 2 2 0 0 1-.07-.55 2.26 2.26 0 0 1 0-.52.36.36 0 0 1 .18-.24.8.8 0 0 1 .34-.07H404l.48.07c.15 0 .24.06.26.11l.07.05a.49.49 0 0 1 0 .17v6.27c0 .81 0 1.63.05 2.46v1.34a11.67 11.67 0 0 0 .07 1.32 3.08 3.08 0 0 0 .08.53 2.26 2.26 0 0 1 0 .52.66.66 0 0 1 .06.34zm-47.53 20.44c-.19.37-.38.74-.58 1.11s-.37.74-.56 1.13c0 .1-.09.21-.13.33a1.82 1.82 0 0 1-.16.31.84.84 0 0 1-.23.23.65.65 0 0 1-.36.1h-.2a.76.76 0 0 1-.4-.15.85.85 0 0 1-.24-.26 1.35 1.35 0 0 1-.17-.34c-.05-.12-.11-.25-.17-.37l-.61-1.16c-.21-.38-.41-.76-.6-1.15l-.5-1a9.4 9.4 0 0 0-.52-1l-.37-.71c-.12-.23-.24-.46-.35-.7s-.12-.3-.17-.45a.81.81 0 0 0-.18-.36c0 .69 0 1.37.05 2.05s0 1.36.05 2 .05 1.24.1 1.87.09 1.25.09 1.86a.54.54 0 0 1-.07.35c-.05.06-.17.09-.37.09a1.84 1.84 0 0 1-.52-.1 1.14 1.14 0 0 0-.4-.11h-.07a.24.24 0 0 1-.1-.19v-.2-.88-8.5a2.29 2.29 0 0 1 0-.37 1.68 1.68 0 0 1 .09-.32.17.17 0 0 1 .17-.14h.53a1.4 1.4 0 0 1 .35.1 1.18 1.18 0 0 1 .27.23 2.82 2.82 0 0 1 .26.44l1.09 1.94c.37.64.73 1.28 1.08 1.94.07.11.19.35.36.71s.35.74.55 1.13a9.35 9.35 0 0 0 .57 1c.18.26.33.46.42.46s0 0 .07-.08 0-.1.07-.11c.15-.28.3-.57.43-.87s.27-.6.41-.89l1.1-2 1.09-2 .19-.41.25-.54c.09-.18.19-.34.28-.5a.76.76 0 0 1 .3-.29 1 1 0 0 1 .38-.08h.4a.54.54 0 0 1 .33.08.38.38 0 0 1 .14.21.81.81 0 0 1 0 .31v8.38a5.32 5.32 0 0 0 .06.56 2.62 2.62 0 0 1 0 .56.87.87 0 0 1-.06.32c0 .09-.12.14-.26.14a.41.41 0 0 1-.22 0l-.2-.08-.2-.06h-.08v-.09a.69.69 0 0 0-.05-.24.93.93 0 0 0-.07-.43c-.07-.14 0-.28 0-.43v-1.7l-.06-1.69v-2.77a1.37 1.37 0 0 0-.05-.28v-.16a.61.61 0 0 0-.14.16l-.13.22a15.55 15.55 0 0 0-1 2 19.93 19.93 0 0 0-1 1.86zm9 3.93a2.72 2.72 0 0 1-1.78-.56 4.09 4.09 0 0 1-1.14-1.43 6.79 6.79 0 0 1-.6-1.85 9.49 9.49 0 0 1-.18-1.84 8.88 8.88 0 0 1 .2-1.85 4.81 4.81 0 0 1 .65-1.67 3.78 3.78 0 0 1 1.2-1.22 3.44 3.44 0 0 1 1.83-.46 2.72 2.72 0 0 1 1.82.58 4.08 4.08 0 0 1 1.09 1.45 7 7 0 0 1 .55 1.89 14.73 14.73 0 0 1 .14 1.88 8.32 8.32 0 0 1-.2 1.79 5.27 5.27 0 0 1-.66 1.63 3.72 3.72 0 0 1-1.17 1.2 3.17 3.17 0 0 1-1.75.46zm.18-9.63a2.37 2.37 0 0 0-1.3.32 2.2 2.2 0 0 0-.8.83 3.77 3.77 0 0 0-.4 1.17 8.17 8.17 0 0 0-.11 1.31 7.46 7.46 0 0 0 .05 1.07 10.34 10.34 0 0 0 .22 1.08 6.61 6.61 0 0 0 .45 1.22 3.75 3.75 0 0 0 .72 1 1.45 1.45 0 0 0 1 .41 1.69 1.69 0 0 0 1.21-.47 3.43 3.43 0 0 0 .77-1.14 6.49 6.49 0 0 0 .41-1.43 9.38 9.38 0 0 0 .12-1.3 8.26 8.26 0 0 0-.11-1.22 5.62 5.62 0 0 0-.38-1.33 3.73 3.73 0 0 0-.72-1.07 1.55 1.55 0 0 0-1.13-.45zm4.94-2.81v-.05a.24.24 0 0 1 .14-.23.67.67 0 0 1 .31-.1 2.16 2.16 0 0 1 .36 0h.28a3.67 3.67 0 0 1 1.84.4 2.83 2.83 0 0 1 1.1 1.07 4.47 4.47 0 0 1 .54 1.55 11 11 0 0 1 .15 1.81v2.33c0 .77-.05 1.55-.11 2.33 0 .34-.05.68-.07 1s0 .68 0 1a4.23 4.23 0 0 1-.14 1.06 3.35 3.35 0 0 1-.41 1 2.49 2.49 0 0 1-.71.7 2 2 0 0 1-1 .27 2.28 2.28 0 0 1-.73-.12 3 3 0 0 1-.64-.32 1.39 1.39 0 0 1-.44-.78 7.85 7.85 0 0 1-.22-1.27c-.05-.45-.07-.9-.08-1.33s0-.78 0-1v-1.44a11.8 11.8 0 0 1 .06-1.45 3.36 3.36 0 0 1 .61-1.67A2 2 0 0 1 374 171a1 1 0 0 1 .57.15.73.73 0 0 0 .31.14H375.05v-.52a3.49 3.49 0 0 0-.59-2.15 2.49 2.49 0 0 0-2.09-.77.55.55 0 0 1-.33-.07.35.35 0 0 1-.17-.19 2.47 2.47 0 0 1-.1-.29 1.35 1.35 0 0 0-.07-.37zm3.14 11.1c0-1 .07-1.93.08-2.89v-2.9a.62.62 0 0 0-.26-.09h-.28a1 1 0 0 0-1 .44 2.61 2.61 0 0 0-.3 1.09V179a1.52 1.52 0 0 0 .1.47.72.72 0 0 0 .76.48 1 1 0 0 0 .44-.1.88.88 0 0 0 .17-.35 2.37 2.37 0 0 0 .11-.46 4 4 0 0 1 .07-.48 3.1 3.1 0 0 0 .11-.51zm7.64-9.56a20.19 20.19 0 0 0 .19 2.2 20.32 20.32 0 0 1 .12 2.21v1.46c0 .46-.06 1-.1 1.46s-.06.86-.11 1.44a8.5 8.5 0 0 1-.32 1.67 4.33 4.33 0 0 1-.7 1.39 1.51 1.51 0 0 1-1.28.58 2 2 0 0 1-1.65-.67 2.63 2.63 0 0 1-.57-1.72 5.61 5.61 0 0 1 0-.58 2.57 2.57 0 0 1 .12-.55.83.83 0 0 1 .3-.39 1 1 0 0 1 .6-.16.16.16 0 0 1 .11.05.11.11 0 0 1 .06.11.43.43 0 0 1-.06.22.54.54 0 0 0-.05.22v.59a5.21 5.21 0 0 0 .13.79 2.94 2.94 0 0 0 .28.69.49.49 0 0 0 .44.28.55.55 0 0 0 .28-.07 1.3 1.3 0 0 0 .23-.18 1.17 1.17 0 0 0 .31-.45 2.23 2.23 0 0 0 .16-.56c0-.2.06-.4.08-.6a5.32 5.32 0 0 1 .06-.56c0-.45.08-.9.1-1.36s0-.91 0-1.37.05-1.18.08-1.76 0-1.18 0-1.78v-.33a.9.9 0 0 0-.09-.32 3.06 3.06 0 0 1-.5.83 1.06 1.06 0 0 1-.86.39 1.55 1.55 0 0 1-1.17-.46 3.29 3.29 0 0 1-.69-1.11 6.64 6.64 0 0 1-.33-1.4c0-.42-.07-.85-.08-1.27a.66.66 0 0 1 .24-.57 1 1 0 0 1 .62-.19.46.46 0 0 1 .3.09.53.53 0 0 1 .16.23 1.63 1.63 0 0 1 .07.3v1.16a4 4 0 0 0 0 .85 2.85 2.85 0 0 0 .11.39 2.22 2.22 0 0 0 .2.41 1.26 1.26 0 0 0 .28.33.54.54 0 0 0 .36.14.58.58 0 0 0 .49-.22 1.86 1.86 0 0 0 .3-.53 3.61 3.61 0 0 0 .15-.65 5 5 0 0 0 0-.55 3 3 0 0 0-.07-.66 3 3 0 0 1-.08-.66.32.32 0 0 1 .25-.35 1.76 1.76 0 0 1 .46-.06h.67a.73.73 0 0 1 .29.07.39.39 0 0 1 .16.2 1.58 1.58 0 0 1 .05.43v.44a3.54 3.54 0 0 0 0 .46zm6.67 7.94a3.91 3.91 0 0 0 .14.55c.07.27.15.54.23.82s.15.54.21.78a3.12 3.12 0 0 1 .09.44c0 .1 0 .16-.11.18h-.46a1.38 1.38 0 0 1-.49-.1.63.63 0 0 1-.23-.23.88.88 0 0 1-.1-.35 4.1 4.1 0 0 0-.1-.48c-.09-.4-.19-.8-.31-1.2s-.23-.79-.33-1.19-.2-.85-.29-1.27-.19-.83-.31-1.25l-.06-.45q-.06-.33-.12-.69c-.05-.24-.09-.45-.14-.64a.71.71 0 0 0-.13-.34c-.14.82-.27 1.64-.38 2.45s-.22 1.62-.3 2.45a6.78 6.78 0 0 1-.2 1.34 12 12 0 0 0-.17 1.34v.29a.43.43 0 0 1 0 .16.2.2 0 0 1-.12.08l-.27.08H385a1.83 1.83 0 0 1-.4-.05 1.71 1.71 0 0 1-.38-.13 8.59 8.59 0 0 1 .29-1.95 16.25 16.25 0 0 0 .39-1.94c.11-.81.23-1.62.35-2.41s.25-1.61.37-2.42a3.09 3.09 0 0 0 0-.43v-.58a3.47 3.47 0 0 1 .08-.55.53.53 0 0 1 .15-.34.65.65 0 0 1 .36-.1h.79a.7.7 0 0 1 .2.22 1.14 1.14 0 0 1 .13.35 2.66 2.66 0 0 0 .07.39c0 .13 0 .24.05.31.25 1.15.52 2.28.81 3.4s.61 2.32.9 3.46zm4.66-1.24a3.72 3.72 0 0 1 1 1.16 2.77 2.77 0 0 1 .43 1.48 2.17 2.17 0 0 1-.27 1.06 2.27 2.27 0 0 1-.74.77 3.7 3.7 0 0 1-1 .38 5.39 5.39 0 0 1-1.06.13 6.11 6.11 0 0 0-1.06.06c0-.32-.06-.63-.07-.94s0-.61 0-.93c0-1.1 0-2.18.1-3.26s.09-2.17.09-3.27v-3.44a4.34 4.34 0 0 1 0-.51.63.63 0 0 1 .1-.32.5.5 0 0 1 .27-.18 1.51 1.51 0 0 1 .52-.06c.31 0 .48.09.51.26a2.94 2.94 0 0 1 .05.66 8.39 8.39 0 0 1-.06 1c-.05.34-.08.69-.11 1a7 7 0 0 1-.08 1 6.73 6.73 0 0 0-.07 1v1.53a1.37 1.37 0 0 0 .12.69.57.57 0 0 0 .32.27 3.47 3.47 0 0 0 .46.13 1.41 1.41 0 0 1 .5.33zm-.88 3.49a1.68 1.68 0 0 0 .68-.53 1.32 1.32 0 0 0 .27-.81 1.2 1.2 0 0 0-.11-.46 2 2 0 0 0-.3-.46 1.57 1.57 0 0 0-.42-.35.84.84 0 0 0-.46-.13.27.27 0 0 0-.3.2 1.32 1.32 0 0 0-.06.39v.63a3.18 3.18 0 0 1 0 .62v.24a1.71 1.71 0 0 0 0 .32.67.67 0 0 0 .06.28.22.22 0 0 0 .22.12h.16zm14.36-5.73c-.52 1.29-1.05 2.57-1.58 3.83a29.6 29.6 0 0 0-1.32 3.92h.69a5.77 5.77 0 0 0 1.1-.1 6 6 0 0 1 1.11-.1c.17 0 .25.08.25.23v.29a2 2 0 0 1 0 .35.67.67 0 0 1-.07.31.2.2 0 0 1-.19.12h-.48a5.11 5.11 0 0 0-.55.05l-.81.08-.93.07a4.41 4.41 0 0 1-.89 0 1.8 1.8 0 0 1-.64-.18.45.45 0 0 1-.25-.4 2.88 2.88 0 0 1 .14-.82 7.4 7.4 0 0 1 .34-.89l.42-.9c.15-.3.27-.56.38-.8.23-.57.52-1.26.84-2.09s.64-1.67.94-2.55.54-1.73.75-2.56a9.15 9.15 0 0 0 .32-2.14 1.58 1.58 0 0 0-.48-1.23 1.84 1.84 0 0 0-1.31-.43c-.87 0-1.3.41-1.3 1.25a1.61 1.61 0 0 0 .07.49 1.56 1.56 0 0 0 .14.48 3.77 3.77 0 0 0 .15.38 1.05 1.05 0 0 1 .06.24.65.65 0 0 1-.15.17l-.35.21-.39.18a.71.71 0 0 1-.28.09q-.16 0-.3-.24a2.21 2.21 0 0 1-.23-.55 4.15 4.15 0 0 1-.14-.61 4.56 4.56 0 0 1 .22-1.63 3 3 0 0 1 .61-1 3 3 0 0 1 .93-.64 2.79 2.79 0 0 1 1.17-.24 3.24 3.24 0 0 1 1.34.26 2.73 2.73 0 0 1 1 .71 3.42 3.42 0 0 1 .62 1.08 4 4 0 0 1 .22 1.33 5.71 5.71 0 0 1-.37 2c-.29.72-.54 1.37-.8 2zm-49.82 29.16l-.58 1.11c-.19.36-.38.74-.56 1.12l-.13.33a1.41 1.41 0 0 1-.17.32.8.8 0 0 1-.22.23.64.64 0 0 1-.36.09h-.2a.84.84 0 0 1-.4-.14 1 1 0 0 1-.25-.26 2.16 2.16 0 0 1-.17-.34 1.84 1.84 0 0 0-.17-.38c-.2-.39-.4-.78-.61-1.16s-.4-.76-.59-1.14-.34-.7-.5-1-.34-.7-.52-1-.25-.47-.37-.7l-.36-.71a1.84 1.84 0 0 1-.16-.44 1 1 0 0 0-.19-.39c0 .69 0 1.38.05 2.06s0 1.35.05 2 0 1.25.1 1.87a11.63 11.63 0 0 1 .08 1.86.74.74 0 0 1-.06.36.56.56 0 0 1-.38.08 1.29 1.29 0 0 1-.51-.1 1.12 1.12 0 0 0-.4-.1h-.07a.35.35 0 0 1-.1-.19v-.2a8.85 8.85 0 0 1 0-.89 6.46 6.46 0 0 0 0-.88v-7.94a1.16 1.16 0 0 1 .08-.32q.06-.15.18-.15h.53a1 1 0 0 1 .34.09.78.78 0 0 1 .27.24 1.94 1.94 0 0 1 .27.43c.36.66.72 1.3 1.09 1.94s.73 1.29 1.08 1.94c.07.12.18.35.35.72s.36.73.55 1.12.39.74.58 1.05.33.45.42.45 0 0 .06-.08l.07-.1c.16-.28.3-.58.43-.87s.27-.6.42-.9l1.09-2 1.1-2 .18-.42.26-.53a4.91 4.91 0 0 1 .28-.5.76.76 0 0 1 .29-.3 1.34 1.34 0 0 1 .39-.07h.39a.52.52 0 0 1 .34.09.34.34 0 0 1 .14.21 1.5 1.5 0 0 1 0 .3v3.21c0 .95 0 1.89.05 2.85v2.33a5.32 5.32 0 0 0 .06.56 2.62 2.62 0 0 1 0 .56.81.81 0 0 1-.06.31.26.26 0 0 1-.26.14.41.41 0 0 1-.22 0l-.21-.07a.6.6 0 0 0-.19-.06h.01v-.08a1 1 0 0 0-.05-.24 2 2 0 0 1-.07-.43v-2.13l-.06-1.7v-2.77a1.31 1.31 0 0 0 0-.28v-.1a.46.46 0 0 0-.14.16l-.13.21a16.3 16.3 0 0 0-1 2c-.28.67-.78 1.16-1.12 1.82zm9 3.91a2.82 2.82 0 0 1-1.79-.57 4.11 4.11 0 0 1-1.13-1.42 6.79 6.79 0 0 1-.6-1.85 11.36 11.36 0 0 1-.18-1.84 9 9 0 0 1 .19-1.86 5.25 5.25 0 0 1 .66-1.67 3.65 3.65 0 0 1 1.2-1.21 3.36 3.36 0 0 1 1.83-.47 2.73 2.73 0 0 1 1.82.59 4.08 4.08 0 0 1 1.09 1.45 6.86 6.86 0 0 1 .54 1.88 11.82 11.82 0 0 1 .15 1.88 7.75 7.75 0 0 1-.21 1.79 5.16 5.16 0 0 1-.65 1.64 3.91 3.91 0 0 1-1.17 1.19 3.18 3.18 0 0 1-1.75.47zm.18-9.63a2.48 2.48 0 0 0-1.3.31 2.27 2.27 0 0 0-.8.83 3.69 3.69 0 0 0-.4 1.17 8.4 8.4 0 0 0-.11 1.32 7.25 7.25 0 0 0 .05 1.06c.05.33.11.66.21 1.08a6 6 0 0 0 .46 1.22 3.75 3.75 0 0 0 .72 1 1.34 1.34 0 0 0 1 .41 1.61 1.61 0 0 0 1.21-.47 3.43 3.43 0 0 0 .77-1.14 6.41 6.41 0 0 0 .41-1.42 9.51 9.51 0 0 0 .11-1.31 7 7 0 0 0-.11-1.21 5.62 5.62 0 0 0-.38-1.33 3.26 3.26 0 0 0-.72-1.07 1.55 1.55 0 0 0-1.12-.43zm4.94-2.8a.26.26 0 0 1 .13-.23 1.19 1.19 0 0 1 .32-.1h.63a3.78 3.78 0 0 1 1.84.4 3 3 0 0 1 1.11 1.08 4.71 4.71 0 0 1 .54 1.54 12.16 12.16 0 0 1 .14 1.81v2.34c0 .78-.06 1.55-.11 2.33 0 .34-.05.68-.07 1s0 .68 0 1a4.23 4.23 0 0 1-.14 1.06 3 3 0 0 1-.42 1 2.13 2.13 0 0 1-.71.69 2 2 0 0 1-1 .27 2.28 2.28 0 0 1-.73-.12 2.14 2.14 0 0 1-.64-.32 1.3 1.3 0 0 1-.45-.78 9 9 0 0 1-.22-1.26c0-.46-.07-.9-.07-1.34v-2.44a11.56 11.56 0 0 1 .06-1.44 3.36 3.36 0 0 1 .61-1.67 2 2 0 0 1 1.63-.62 1 1 0 0 1 .56.14.86.86 0 0 0 .32.15h.12v-.53a3.45 3.45 0 0 0-.58-2.14 2.48 2.48 0 0 0-2.1-.77.75.75 0 0 1-.33-.07.55.55 0 0 1-.17-.2 1.4 1.4 0 0 1-.09-.29 1.49 1.49 0 0 1-.18-.44zm3.13 11.11c.05-1 .08-1.94.09-2.9v-2.9a.79.79 0 0 0-.26-.08 1.31 1.31 0 0 0-.28 0 1 1 0 0 0-1 .43 2.47 2.47 0 0 0-.3 1.09v5.28a1.47 1.47 0 0 0 .11.46.75.75 0 0 0 .26.35.81.81 0 0 0 .5.14 1.13 1.13 0 0 0 .44-.1 1.62 1.62 0 0 0 .17-.35 3 3 0 0 1 .11-.46c0-.16 0-.32.07-.48s.21-.37.21-.48zm7.65-9.56a20.22 20.22 0 0 0 .19 2.19 20.31 20.31 0 0 1 .11 2.21V201l-.09 1.46c0 .39-.06.87-.11 1.44a8.5 8.5 0 0 1-.32 1.67 4.36 4.36 0 0 1-.71 1.39 1.53 1.53 0 0 1-1.27.59 2 2 0 0 1-1.65-.68 2.58 2.58 0 0 1-.57-1.71v-.59a2 2 0 0 1 .11-.54.87.87 0 0 1 .31-.4 1.05 1.05 0 0 1 .6-.15.21.21 0 0 1 .11 0 .14.14 0 0 1 .06.11.43.43 0 0 1-.06.22.43.43 0 0 0-.06.22v.6a4.24 4.24 0 0 0 .13.78 2.91 2.91 0 0 0 .27.69.49.49 0 0 0 .65.25h.07a1 1 0 0 0 .23-.18 1.16 1.16 0 0 0 .32-.44 3.58 3.58 0 0 0 .16-.56c0-.2.06-.41.07-.61a1.69 1.69 0 0 1 .06-.56c.05-.45.08-.9.1-1.35s0-.91.06-1.38 0-1.17.07-1.76a15.1 15.1 0 0 0 0-1.78v-.32a.63.63 0 0 0-.1-.32 3.06 3.06 0 0 1-.5.83 1.07 1.07 0 0 1-.85.39 1.55 1.55 0 0 1-1.17-.46 3.09 3.09 0 0 1-.69-1.12 6.69 6.69 0 0 1-.33-1.39 9 9 0 0 1-.09-1.27.71.71 0 0 1 .25-.58 1 1 0 0 1 .62-.18.53.53 0 0 1 .3.09.63.63 0 0 1 .16.23 1.36 1.36 0 0 1 .06.29 1.71 1.71 0 0 1 0 .32v.76a3.93 3.93 0 0 0 0 .84 2.85 2.85 0 0 0 .11.39 2 2 0 0 0 .19.42 1.75 1.75 0 0 0 .28.33.55.55 0 0 0 .37.14.62.62 0 0 0 .49-.23 1.86 1.86 0 0 0 .3-.53 3.5 3.5 0 0 0 .15-.64 5.23 5.23 0 0 0 0-.56 3 3 0 0 0-.07-.66 2.48 2.48 0 0 1-.08-.66.32.32 0 0 1 .24-.35 2.42 2.42 0 0 1 .47-.05h.42a.68.68 0 0 1 .28.07.39.39 0 0 1 .17.21 1.58 1.58 0 0 1 0 .43v.45a2.72 2.72 0 0 0 .13.49zm6.66 7.93a2.93 2.93 0 0 0 .15.55c.08.26.15.54.23.83s.15.54.21.78a3.12 3.12 0 0 1 .09.44c0 .1 0 .16-.12.17h-.46a1.12 1.12 0 0 1-.48-.1.59.59 0 0 1-.24-.23 1.08 1.08 0 0 1-.1-.35 3.55 3.55 0 0 0-.09-.47c-.09-.41-.2-.81-.31-1.2l-.34-1.19c-.11-.39-.19-.85-.28-1.27s-.2-.84-.31-1.26a1.37 1.37 0 0 0-.07-.45c-.07-.22-.07-.45-.12-.68s-.09-.46-.13-.65a.85.85 0 0 0-.14-.34c-.13.83-.26 1.64-.38 2.45s-.22 1.63-.29 2.45c-.05.46-.11.9-.2 1.34a12 12 0 0 0-.18 1.34v.29a.43.43 0 0 1 0 .16.18.18 0 0 1-.12.09l-.27.07a.57.57 0 0 1-.26 0 1.74 1.74 0 0 1-.39 0 1.82 1.82 0 0 1-.39-.14 9 9 0 0 1 .29-1.94 16.25 16.25 0 0 0 .39-1.94c.12-.82.23-1.62.36-2.42s.25-1.6.37-2.42v-1a3.57 3.57 0 0 1 .07-.56.54.54 0 0 1 .16-.33.76.76 0 0 1 .35-.11h.83a.56.56 0 0 1 .21.22 1.12 1.12 0 0 1 .12.35 2.7 2.7 0 0 0 .08.39c0 .13 0 .23.05.31q.38 1.71.81 3.39c.34 1.21.62 2.34.9 3.48zm4.67-1.24a4.17 4.17 0 0 1 1 1.17 2.77 2.77 0 0 1 .43 1.48 2.2 2.2 0 0 1-.27 1 2.13 2.13 0 0 1-.75.77 2.91 2.91 0 0 1-.95.38 5.4 5.4 0 0 1-1.06.14h-1.06a7 7 0 0 0-.06-.93v-.94c0-1.09 0-2.18.09-3.26s.1-2.17.1-3.26v-4a.75.75 0 0 1 .1-.33.51.51 0 0 1 .28-.17 1.51 1.51 0 0 1 .52-.06c.31 0 .48.08.51.26a3.53 3.53 0 0 1 0 .65 6.73 6.73 0 0 1-.07 1c0 .34-.08.68-.1 1a5.62 5.62 0 0 1-.08 1 6.73 6.73 0 0 0-.07 1v1.52a1.37 1.37 0 0 0 .12.69.63.63 0 0 0 .33.27 3.5 3.5 0 0 0 .46.14 1.82 1.82 0 0 1 .53.43zm-.89 3.5a1.56 1.56 0 0 0 .68-.54 1.29 1.29 0 0 0 .27-.8 1.12 1.12 0 0 0-.11-.47 1.7 1.7 0 0 0-.29-.46 1.74 1.74 0 0 0-.42-.34.86.86 0 0 0-.46-.14.27.27 0 0 0-.3.2 1.32 1.32 0 0 0-.06.39 3.32 3.32 0 0 0 0 .63 4.46 4.46 0 0 1 0 .63v.59a.89.89 0 0 0 .07.28.21.21 0 0 0 .21.12h.17zm14-1.61a4.88 4.88 0 0 1-.45 1.4 5.49 5.49 0 0 1-.81 1.16 6.46 6.46 0 0 1-1.09.93 7.23 7.23 0 0 1-1.29.68l-.37.16a1 1 0 0 1-.38.07.35.35 0 0 1-.38-.28 1.81 1.81 0 0 1-.08-.51v-.12a.66.66 0 0 1 .19-.37 1 1 0 0 1 .36-.22l.41-.17a1.35 1.35 0 0 0 .38-.19c.31-.23.61-.46.89-.71a4.6 4.6 0 0 0 .77-.82 3.81 3.81 0 0 0 .52-1 3.32 3.32 0 0 0 .2-1.13 2.11 2.11 0 0 0-.17-.82 3.37 3.37 0 0 0-.45-.78 5 5 0 0 0-.63-.67 4.82 4.82 0 0 0-.7-.48 1.27 1.27 0 0 0-.54-.14 4.09 4.09 0 0 1-.61-.1 1.4 1.4 0 0 1-.48-.22.62.62 0 0 1-.2-.54.83.83 0 0 1 .26-.61c.17-.18.34-.35.48-.51a20 20 0 0 0 1.43-1.76c.43-.61.88-1.24 1.29-1.88a6.86 6.86 0 0 0-1.35.09 9.87 9.87 0 0 1-1.33.06 1.24 1.24 0 0 1-.47-.06.3.3 0 0 1-.19-.16.47.47 0 0 1-.05-.26v-.37c0-.14.07-.47.21-.55a1.18 1.18 0 0 1 .61-.13h1a9.84 9.84 0 0 1 1.33 0 3.46 3.46 0 0 1 1.15.28.71.71 0 0 1 .49.7.84.84 0 0 1-.17.55c-.11.16-.22.32-.34.47-.48.63-1 1.27-1.42 1.92a23.29 23.29 0 0 1-1.44 1.91 7 7 0 0 1 1.39.57 4.57 4.57 0 0 1 1.3.91 3.93 3.93 0 0 1 .76 1.17 3.62 3.62 0 0 1 .28 1.49 3 3 0 0 1-.15 1zm-3.23 3.46s.09 0 .1-.07z"/><g clip-path="url(#clip-path)"><path class="cls-2" d="M335.33 58.25c-14.12-.34-76.65-2.21-92.39-.83-27.58 2.42-94.33 11.35-148.08 69.94-19.19 20.92-70.19 196.69 9.75 246 134.58 82.94 403.87-8.05 371.24-186.58C448.85 39 356.3 58.76 335.33 58.25z"/><path d="M185.92 404.32s46.57 9.38 84.65-9.2l12.68-159.82L238 189.22l-44.81-9.52-24.68 89.85z" fill="#f9fafc"/><path class="cls-7" d="M193.15 179.7s6.48 159.55 4.78 238.54l-34.48-4.1a35.58 35.58 0 0 1-31.39-36.38l3.57-122.85 3.92-53.11a12 12 0 0 1 7.52-10.32 180.7 180.7 0 0 1 46.08-11.78z"/><path d="M75 355l-12.31 21.64s-24.24 1.52-46.57 12.06a3 3 0 0 0 1.76 5.7 2.88 2.88 0 0 0 .4-.09l16.65-5S18.54 396 6 403.31a3.77 3.77 0 0 0 3.23 6.78l26.91-10.44L11 413.48a4.17 4.17 0 0 0 3.86 7.38l24.33-11.74-19 13.32a4.83 4.83 0 0 0-1.19 6.73 5.18 5.18 0 0 0 .57.67 4.83 4.83 0 0 0 6 .56c7.46-4.92 26.26-16.43 38.46-16.11a58.76 58.76 0 0 1-8 9.59 5.44 5.44 0 0 0-.21 7.7 4.66 4.66 0 0 0 .74.66 5.44 5.44 0 0 0 6.28.07l14.33-9.9a14.14 14.14 0 0 0 5.58-7.86l4.76-17.31 20.78-19.66z" fill="#ff974d"/><path class="cls-7" d="M148.9 190.75s-6.65-.38-28.44 27.56C98 247.06 59.06 375.42 59.06 375.42l39.15 29.73 66.47-144.68z"/><path class="cls-9" d="M134.24 326.73l23.15-50.4"/><path class="cls-7" d="M271.81 193s34.33 10.7 47.25 137.34l-27.89 19.76z"/><path class="cls-10" d="M388.33 285.5s-12.53-9.65-.87-25.8l17.48-25.2a4.52 4.52 0 0 1 6.31-1 4.94 4.94 0 0 1 .44.36 4.52 4.52 0 0 1 1.15 4.94l-5.39 14.92 33.15-22.45a4.92 4.92 0 0 1 6.88 1 5.59 5.59 0 0 1 .41.66 4.91 4.91 0 0 1-1.3 6.09l-21.35 16.58.42 1.3 24.5-14a4.72 4.72 0 0 1 6.27 2.32 4 4 0 0 1 .31.88 4.74 4.74 0 0 1-2.62 5.4l-23.66 15.2.35 1.66 23.08-9.89c5.72-2.74 7.5-.06 8.07 2.06s-3.78 4.66-5.72 5.31l-23.88 12.07.26 1.55 22.15-8.46a3.41 3.41 0 0 1 3.84 2.92 3.47 3.47 0 0 1 0 .72 3.39 3.39 0 0 1-2.79 3.1l-25.25 10.76s-23.08 15.76-33.54 6.87z"/><path d="M407.45 253.69s7.3 13-1.61 24.61" stroke="#fb7928" stroke-width="2.04" stroke-linecap="round" stroke-linejoin="round" fill="none"/><path class="cls-10" d="M352.88 287.67l38-16 16.44 23.06-42.64 22.94-11.84-30z"/><path class="cls-7" d="M277.18 310.9l96.15-38.9 19.24 41.66-83.92 55.43a29.21 29.21 0 0 1-39-8.25c-10.07-14.35-8-41.7 7.53-49.94z"/><path class="cls-9" d="M313.94 296l-11.67 4.72"/><path class="cls-7" d="M238 189.22s11.12 13 15.67 69.3 6 152.48 6 152.48a41.16 41.16 0 0 0 32.89-41.56c-1.27-41.67-4.27-109.57-10.83-138.29L275.65 200c-.33-1.48-1.77-5.91-1.77-5.91s-4.92-4.48-35.5-11.5z"/><path class="cls-9" d="M292.52 373.31s.3-79.9-9.27-138"/><path class="cls-12" d="M189.83 124.57s-11 17.7 5.13 17.17c0 0 6.72-5.54 5.2-15.91zm95.63-49.37a28.24 28.24 0 0 0-3.35-10.54C259 21.85 208.58 56 208.58 56l8.83 30c21-12.69 46-17.88 68-10.8z"/><path class="cls-13" d="M217.41 86l9.84 38.92s61.59-17.68 58.21-49.73c-22.07-7.07-43.93-10.08-68 10.81z"/><path class="cls-14" d="M246.73 120.36a12.63 12.63 0 1 0 9-15.42 12.63 12.63 0 0 0-9 15.42z"/><path class="cls-10" d="M235.92 147.27l2.32 37.51a17.4 17.4 0 0 1-30 10.86l-15.09-15.94 4.49-65.47z"/><path class="cls-15" d="M237.07 165.78s-24.55-1.05-26.38-25.81l25.23 7.3z"/><path class="cls-10" d="M261.72 66.06s8 51.21 1.75 67.33-20.27 26-41.92 21.22c0 0-25.24-2-29.82-38.62-6.89-55.19 45.07-79.94 69.99-49.93z"/><path class="cls-12" d="M204.4 112.71l2.46-18.64s14.77-4.7 18.29-32.59c0 0-6.19-12.84-25.12-7s-35.36 19.52-14.6 53.93z"/><path class="cls-10" d="M174.74 120.45a15.33 15.33 0 1 0 11-18.7 15.33 15.33 0 0 0-11 18.7z"/><path class="cls-16" d="M182.84 111.84s11.35-2.79 13.85 9.68"/><path class="cls-12" d="M225.15 61.48a58.23 58.23 0 0 1 37.28 8.81l-3.91-16.57L234 50.33l-23.39 8.81 5.77.54z"/><path class="cls-12" d="M262.43 70.29s28.24.07 28.35 20.64a.35.35 0 1 0 .7.06c1.33-7.64-.09-28.55-31.25-26.11zM252.44 95s-.69 3 4.23 2.6a29.92 29.92 0 0 1 6.95-.06 3.27 3.27 0 0 0 3.05-1.32 2.19 2.19 0 0 0-.45-2.24c-1.11-1.33-2.68-3.18-7.22-2.85-5.84.39-6.56 3.87-6.56 3.87zm-11.08 1.06S242 100 235.47 99a87.34 87.34 0 0 0-14-.59 4.41 4.41 0 0 1-3.92-2 1.78 1.78 0 0 1 .63-2.44l.11-.06a28.33 28.33 0 0 1 14.91-2.45c7.71 1.08 8.16 4.6 8.16 4.6z"/><path class="cls-3" d="M236.24 107.1s-7.3-11-21.69-1.6c0 0 7.81 10.27 21.69 1.6z"/><g class="cls-17"><path class="cls-18" d="M233 105.2a5.28 5.28 0 1 1-6.13-4.26 5.26 5.26 0 0 1 6.12 4.22z"/></g><path class="cls-19" d="M213.9 104.61a21.81 21.81 0 0 1 5.75-2.72 17.65 17.65 0 0 1 6.25-.87 13.52 13.52 0 0 1 6 1.83 12.22 12.22 0 0 1 4.38 4.25 12 12 0 0 0-4.64-3.76 12.72 12.72 0 0 0-5.72-1.21 15.83 15.83 0 0 0-5.67 1.33 20.25 20.25 0 0 0-5 2.93 1.11 1.11 0 0 1-1.4-1.72z"/><path class="cls-3" d="M251.2 106.43s6.19-10.1 13.65-2.41c0 0-6.05 10.39-13.65 2.41z"/><g class="cls-20"><path class="cls-18" d="M254.45 104.53c-.64 2.77.38 5.36 2.28 5.8s3.95-1.45 4.59-4.22-.38-5.37-2.28-5.81-4 1.46-4.59 4.23z"/></g><path class="cls-19" d="M264 104.7a7.25 7.25 0 0 0-2.69-2.47 5.72 5.72 0 0 0-1.75-.58 2.72 2.72 0 0 0-.9 0 6.67 6.67 0 0 0-1 .13 9 9 0 0 0-3.59 1.7 13.23 13.23 0 0 0-2.88 3 14.13 14.13 0 0 1 2.51-3.39 10.33 10.33 0 0 1 3.66-2.34 6.64 6.64 0 0 1 1.08-.3 4.27 4.27 0 0 1 1.18-.13 7.19 7.19 0 0 1 2.29.42 9.18 9.18 0 0 1 3.8 2.64 1.12 1.12 0 0 1-1.66 1.49z"/><path class="cls-21" d="M247.68 124.78l4.7-2.3-4.06-11.9m-10 21.69c5.06 7.33 14.36 2 14.25 2"/></g><path class="cls-12" d="M189.83 124.57s-11 17.7 5.13 17.17c0 0 6.72-5.54 5.2-15.91zm95.63-49.37a28.24 28.24 0 0 0-3.35-10.54C259 21.85 208.58 56 208.58 56l8.83 30c21-12.69 46-17.88 68-10.8z"/><path class="cls-13" d="M217.41 86l9.84 38.92s61.59-17.68 58.21-49.73c-22.07-7.07-43.93-10.08-68 10.81z"/><path class="cls-14" d="M246.73 120.36a12.63 12.63 0 1 0 9-15.42 12.63 12.63 0 0 0-9 15.42z"/><path class="cls-10" d="M235.92 147.27l2.32 37.51a17.4 17.4 0 0 1-30 10.86l-15.09-15.94 4.49-65.47z"/><path class="cls-15" d="M237.07 165.78s-24.55-1.05-26.38-25.81l25.23 7.3z"/><path class="cls-10" d="M261.72 66.06s8 51.21 1.75 67.33-20.27 26-41.92 21.22c0 0-25.24-2-29.82-38.62-6.89-55.19 45.07-79.94 69.99-49.93z"/><path class="cls-12" d="M204.4 112.71l2.46-18.64s14.77-4.7 18.29-32.59c0 0-6.19-12.84-25.12-7s-35.36 19.52-14.6 53.93z"/><path class="cls-10" d="M174.74 120.45a15.33 15.33 0 1 0 11-18.7 15.33 15.33 0 0 0-11 18.7z"/><path class="cls-16" d="M182.84 111.84s11.35-2.79 13.85 9.68"/><path class="cls-12" d="M225.15 61.48a58.23 58.23 0 0 1 37.28 8.81l-3.91-16.57L234 50.33l-23.39 8.81 5.77.54z"/><path class="cls-12" d="M262.43 70.29s28.24.07 28.35 20.64a.35.35 0 1 0 .7.06c1.33-7.64-.09-28.55-31.25-26.11zM252.44 95s-.69 3 4.23 2.6a29.92 29.92 0 0 1 6.95-.06 3.27 3.27 0 0 0 3.05-1.32 2.19 2.19 0 0 0-.45-2.24c-1.11-1.33-2.68-3.18-7.22-2.85-5.84.39-6.56 3.87-6.56 3.87zm-11.08 1.06S242 100 235.47 99a87.34 87.34 0 0 0-14-.59 4.41 4.41 0 0 1-3.92-2 1.78 1.78 0 0 1 .63-2.44l.11-.06a28.33 28.33 0 0 1 14.91-2.45c7.71 1.08 8.16 4.6 8.16 4.6z"/><path class="cls-3" d="M236.24 107.1s-7.3-11-21.69-1.6c0 0 7.81 10.27 21.69 1.6z"/><g class="cls-17"><path class="cls-18" d="M233 105.2a5.28 5.28 0 1 1-6.13-4.26 5.26 5.26 0 0 1 6.12 4.22z"/></g><path class="cls-19" d="M213.9 104.61a21.81 21.81 0 0 1 5.75-2.72 17.65 17.65 0 0 1 6.25-.87 13.52 13.52 0 0 1 6 1.83 12.22 12.22 0 0 1 4.38 4.25 12 12 0 0 0-4.64-3.76 12.72 12.72 0 0 0-5.72-1.21 15.83 15.83 0 0 0-5.67 1.33 20.25 20.25 0 0 0-5 2.93 1.11 1.11 0 0 1-1.4-1.72z"/><path class="cls-3" d="M251.2 106.43s6.19-10.1 13.65-2.41c0 0-6.05 10.39-13.65 2.41z"/><g class="cls-20"><path class="cls-18" d="M254.45 104.53c-.64 2.77.38 5.36 2.28 5.8s3.95-1.45 4.59-4.22-.38-5.37-2.28-5.81-4 1.46-4.59 4.23z"/></g><path class="cls-19" d="M264 104.7a7.25 7.25 0 0 0-2.69-2.47 5.72 5.72 0 0 0-1.75-.58 2.72 2.72 0 0 0-.9 0 6.67 6.67 0 0 0-1 .13 9 9 0 0 0-3.59 1.7 13.23 13.23 0 0 0-2.88 3 14.13 14.13 0 0 1 2.51-3.39 10.33 10.33 0 0 1 3.66-2.34 6.64 6.64 0 0 1 1.08-.3 4.27 4.27 0 0 1 1.18-.13 7.19 7.19 0 0 1 2.29.42 9.18 9.18 0 0 1 3.8 2.64 1.12 1.12 0 0 1-1.66 1.49z"/><path class="cls-21" d="M247.68 124.78l4.7-2.3-4.06-11.9m-10 21.69c5.06 7.33 14.36 2 14.25 2"/><path d="M416.82 95.67a19.32 19.32 0 0 1 3 6.62 30.31 30.31 0 0 1 .89 7.26A34.34 34.34 0 0 1 418 123.3a32.18 32.18 0 0 1-2.77 5.3c-1.1 1.68-2.15 3.37-3.16 5.05a60.59 60.59 0 0 0-3.41 6 52.39 52.39 0 0 0-2.39 5.74 40.08 40.08 0 0 0-1.58 6c-.38 2.06-.69 4.35-.95 6.87a1.91 1.91 0 0 1-2.14 2h-4.67c-1.43 0-2.15-.75-2.15-2.27 0-.42 0-1.32.07-2.71s.12-2.86.25-4.42.25-3 .38-4.29a23.39 23.39 0 0 1 .31-2.46 43.37 43.37 0 0 1 4.61-8.71q2.72-3.9 5.17-7.88a54.47 54.47 0 0 0 4.23-8.39 27 27 0 0 0 1.77-10.1 19.49 19.49 0 0 0-.32-3.22 14.26 14.26 0 0 0-1.07-3.47 9.06 9.06 0 0 0-2-2.77 4.3 4.3 0 0 0-3.09-1.14 3.69 3.69 0 0 0-3.34 2.15 8.31 8.31 0 0 0-1.2 4 9.64 9.64 0 0 0 .31 2.46 9.65 9.65 0 0 1 .32 2.46 3.78 3.78 0 0 1-1.83 3.34 6.72 6.72 0 0 1-3.72 1.2q-2.91 0-3.85-2.21a11.59 11.59 0 0 1-.95-4.6 22.13 22.13 0 0 1 .95-6.25 21.28 21.28 0 0 1 2.71-5.87 14.46 14.46 0 0 1 4.42-4.29 11.26 11.26 0 0 1 6.09-1.59 13.07 13.07 0 0 1 6.76 1.83 16.91 16.91 0 0 1 5.06 4.61zm-18.17 72.43a26.82 26.82 0 0 1 4.1.25 3.94 3.94 0 0 1 2.33 1.07 4.51 4.51 0 0 1 1 2.4 28.85 28.85 0 0 1 .25 4.35q0 1.14-.12 2.46a1.71 1.71 0 0 1-1.64 1.58c-1.18.08-2.36.21-3.54.38a24.65 24.65 0 0 1-3.53.25c-1.85 0-2.78-1.05-2.78-3.15v-1.77a25.66 25.66 0 0 1 .13-2.59c.08-.88.17-1.72.25-2.52a2.94 2.94 0 0 1 .38-1.45 2 2 0 0 1 1.39-1.07 8.2 8.2 0 0 1 1.78-.19z"/></svg>