<svg id="Layer_1" data-name="Layer 1" xmlns="http://www.w3.org/2000/svg" viewBox="0 0 1456.08 1021.32"><defs><style>.cls-1{fill:#fff}.cls-3{fill:#c46234}.cls-12,.cls-17,.cls-22,.cls-30,.cls-35,.cls-4,.cls-7,.cls-8{fill:none}.cls-4{stroke:#fdebd7}.cls-17,.cls-35,.cls-4{stroke-miterlimit:10}.cls-4,.cls-8{stroke-width:1.13px}.cls-5{fill:#eca079}.cls-6{fill:#fdbf62}.cls-7{stroke:#ca5e36;stroke-width:1.4px}.cls-12,.cls-22,.cls-30,.cls-7,.cls-8{stroke-linecap:round;stroke-linejoin:round}.cls-12,.cls-8{stroke:#000}.cls-9{fill:#cc7c60}.cls-11{fill:#dc845e}.cls-12{stroke-width:2.27px}.cls-15{fill:#003b71}.cls-16{fill:#7574e0}.cls-17{stroke:#ae4a1f;stroke-width:1.51px}.cls-18{fill:#300e2e}.cls-22{stroke:#1c0001;stroke-width:1.05px}.cls-24{fill:#eca179}.cls-25{fill:#4f89bd}.cls-27{fill:#5f3335}.cls-28{fill:#2782af}.cls-30{stroke:#ca5e34;stroke-width:1.2px}.cls-32{fill:#1b1c20}.cls-33{fill:#604538}.cls-35{stroke:#ea9357;stroke-width:1.47px}</style><clipPath id="clip-path"><path d="M1113 518.43s-10.81-3.23-26 1.7c0 0-.13 11.33 13.52 10.15s12.48-11.85 12.48-11.85z"/></clipPath><clipPath id="clip-path-2"><path class="cls-1" d="M369.85 517.93s-7.69-11.59-22.79-1.64c0 0 8.23 10.77 22.79 1.64z"/></clipPath><clipPath id="clip-path-3"><path class="cls-1" d="M383.73 517.19s6.49-10.62 14.33-2.56c0 0-6.33 10.93-14.33 2.56z"/></clipPath><clipPath id="clip-path-4"><path class="cls-1" d="M815.33 637.69s4.47-10.31 17.89-4.54c0 0-5.01 9.74-17.89 4.54z"/></clipPath><clipPath id="clip-path-5"><path class="cls-1" d="M802.72 639.34s-6.67-7.52-11.77 0c.05 0 6.59 7.8 11.77 0z"/></clipPath></defs><path d="M882.36 37.51C844 34.73 655.24 12.32 612.75 13.84c-74.43 2.68-130.22 21.59-182.54 42.38-65.76 26.12-124.38 57.93-179.35 92.41-71.06 44.57-136.08 93.55-185.64 154.13C21.7 356 31.58 423.91 48.38 518c9.5 53.2.9 107.54 54.22 191.67 225.29 355.52 1455.67 478.82 1276.75-274.11C1286.48 44.72 939.28 41.64 882.36 37.51z" fill="#c4e5e5"/><path class="cls-3" d="M1068.28 745.83l-15.97 292.69h76.2l12.85-287.15-73.08-5.54z"/><path class="cls-3" d="M1190.5 754.28l58.43 284.24h-79.98l-67.24-289.84 88.79 5.6z"/><path class="cls-4" d="M1137.95 907.69l-12.98-58.43"/><path class="cls-5" d="M1082.91 655.27l-36.15 74.36a21.06 21.06 0 0 1-29.44 8.4 21.06 21.06 0 0 1-8.05-27.58l38-80.42z"/><path class="cls-6" d="M1081.56 688.94s-15.63 4.06-54.47-32.94l27.44-54.64a29.06 29.06 0 0 1 41.29-11.64 29 29 0 0 1 11.58 35.61z"/><path class="cls-5" d="M952.29 634.36a14.18 14.18 0 0 0 15.15-17.6l-7.24-28.48s-1-4.44-10.24-10.5c-7.37-4.82-21.46-17.76-27-22.95-1.29-1.21-3.6-2.42-4.94-.69-1.07 1.12-.32 4 1.27 5.88 3.53 4.18 11.43 14.43 19.19 20.87 0 0-4.09.09-5 4 0 0-6.08-.76-5.38 7.18 0 0-9.3-.7-6.34 10.15l6.05 10a4.4 4.4 0 0 0 5.77 1.65s7.48 18.88 18.69 20.47z"/><path class="cls-5" d="M1040.73 704.37l-78-91.55-13.76 19 61.63 99.87c8.86 9.05 26.94 11.28 34.38 1a20.45 20.45 0 0 0-4.25-28.32z"/><path class="cls-7" d="M1022.52 682.44l11.12 13.61"/><path class="cls-6" d="M1123.88 577.18s26.53 3.5 60.41 21.14c5.81 3 6 9.43 5.65 16l6.53 192.53c-95.77 21.15-134.27-17.48-134.27-17.48l.58-189.71a13 13 0 0 1 9.21-13c13.01-3.96 36.4-10.23 51.89-9.48z"/><path class="cls-5" d="M1145.1 582.23l-12.3-3.31-20.8-3.77-12 4.41-7 1.5s-10.77 16.35 12 19c27.23 3.25 38.23-10.06 40.1-17.83z"/><path class="cls-8" d="M1062.46 683.28l.28-42.45"/><path class="cls-5" d="M1217.4 633.69l63.39 53.08a21.06 21.06 0 0 1 1 30.6 21.05 21.05 0 0 1-28.71 1.13l-68.81-56.38z"/><path class="cls-6" d="M1243.11 640.57s.25 16.15-45 45.06l-46.5-39.63a29 29 0 0 1-1.48-42.86 29 29 0 0 1 37.34-2.78z"/><path class="cls-8" d="M1191.63 680.08l-27.54-23.85"/><path class="cls-9" d="M1209.13 807.28a20.66 20.66 0 0 0 7.82-9.48 3.92 3.92 0 0 1 5.16-2.07 3.85 3.85 0 0 1 2.29 4.45 24.74 24.74 0 0 1-8.08 12.84z"/><path class="cls-9" d="M1205 809.3s8-1.37 23.4-10a3.54 3.54 0 0 1 4.67.75 3.38 3.38 0 0 1-.38 4.45 42.46 42.46 0 0 1-19.8 10.36z"/><path class="cls-5" d="M1198.8 758.15s-22.31 15.9-13.64 35.7 18.48 27.87 25.18 25.76c4.64-1.46 14.05-4.13 19.4-5.64a4.27 4.27 0 0 0 3-5.13 4.28 4.28 0 0 0-4.55-3.27l-18.26 2.43s5.86-20.74 2.4-33.36z"/><path class="cls-5" d="M1251.5 689.88l-60.39 75.55 18.38 14.57 71.51-61.91a20.45 20.45 0 0 0-1-31.24 20.46 20.46 0 0 0-28.5 3.03z"/><path class="cls-7" d="M1239.42 705l9.51-11.89"/><path d="M1071.77 456.93s-16.31 8.91.25 32.92l21.45-31z"/><path d="M1158.6 484c-.55 23.52-30.19 42.59-47 41.5-23.48-1.52-42.14-20.08-41.58-43.6a42.6 42.6 0 0 1 43.6-41.58c23.49.53 45.62 16.91 44.98 43.68z" fill="#b25732"/><path class="cls-11" d="M1091.09 511.39c-.5 7.63-7 12.22-14.6 11.72s-13.25-8.74-12.75-16.37 6.83-10.56 14.46-10.06a13.83 13.83 0 0 1 12.89 14.71z"/><path class="cls-5" d="M1125.08 522.38l8.37 66.92-34.33-.06-1.32-57.67 27.28-9.19z"/><path class="cls-11" d="M1098.66 566.4s15-5.26 27.55-30.4l-28.82 3.35z"/><path class="cls-5" d="M1099.12 446.63s-30.38.26-29 40.19 5.77 50.64 21.53 59.41c14.17 7.88 32.69 1.6 43.51-15.11a60.54 60.54 0 0 0 8.35-24.27l2.62-10.36s13.71-51.49-47.01-49.86z"/><path class="cls-7" d="M1092.78 501.19l-4.87 8.37 5.08 2.98"/><path class="cls-12" d="M1104.44 496.71a9.62 9.62 0 0 1 7.32-2.95c7.49 0 9.33 4.79 9.33 4.79M1087.49 496.39a6.84 6.84 0 0 0-4.83-2.63c-5.66-.7-7.13 2.87-7.13 2.87"/><path d="M1113.07 476s6-.9 10.27.36c3.53 1.05 4 4.16 1.6 6.13-1.49 1.23-6.26 2.68-9.57 3.2-10.42 1.64-12.92-1.26-13.18-3.77-.37-3.48 6.55-5.42 10.88-5.92zM1083.05 476.72a20.53 20.53 0 0 0-8.4-.43c-3.14.69-4.36 3.48-3 5.46.87 1.22 4.28 3.11 6.88 3.61 8.44 1.65 10.79-.19 11.68-2.45 1.29-3.18-3.78-5.46-7.16-6.19zM1113 518.43s-10.81-3.23-26 1.7c0 0-.13 11.33 13.52 10.15s12.48-11.85 12.48-11.85z"/><g clip-path="url(#clip-path)"><path class="cls-1" d="M1113.6 521.64c-13.46-1.23-29 2.16-29 2l.2-9 34.47-5.44z"/><path d="M1094.41 541.54c3.22 6.08 10.39 8.59 16 5.61s7.56-10.32 4.34-16.4-10.39-8.58-16-5.6-7.56 10.32-4.34 16.39z" fill="#f85658"/></g><path d="M1138.87 455.84c-.3-.29-11 14.68 1.36 29.16l-3.29 21.87 5 2.21 8.64-13.34.63-26.68z"/><path d="M1097.16 438.64s25-14.11 49.64.59c19.36 11.57-4.13 32.54-4.13 32.54l-6.53-16.29-24.24-7.2z"/><path d="M1146.56 452.26s20.27-3.2 22.48 17.22-25.62 49.45-25.62 49.45z"/><path class="cls-5" d="M1135 516.56c1.47 7.5 5 10.43 14.87 8.68 7.53-1.34 12-10.36 10.58-17.86s-7.53-9.41-15.35-7.14c-5.41 1.59-11.52 8.82-10.1 16.32z"/><path class="cls-7" d="M1152.66 508.48s-7-1.75-9.74 8.23"/><path d="M1151.16 460.44s-29.87 14.49-38.63 7.95 13.26-17.21 13.26-17.21z"/><path d="M1125.79 451.18s-18.46 15.09-36 12.26 18-18.89 18-18.89z"/><path d="M1094.87 453s-20.73 14.07-32.59 9.54 1.16-17.94 19.46-19.48l35.06-2-9.9 9.46-7.78 3.29"/><path d="M1080.18 446.18s-16.36-13.63-4.12-18.19c12.07-4.49 40.74 13.11 40.74 13.11z"/><path d="M1104.66 436.44s-6.75-9.59 4.83-10.77 30.78 10.56 38.68 33.37l-22.38-3.49-21.72-9.55z"/><path class="cls-15" d="M401.13 764.94s14.24 68.06 39.53 278.29H365l-35.88-278.29z"/><path class="cls-15" d="M300.62 764.94C268.93 839.06 262 1043.52 262 1043.52l88.51-.29 25.64-278.29z"/><path class="cls-4" d="M356.53 985.01l9.92-131.71"/><path class="cls-5" d="M385.65 673.32l35.51 73a20.68 20.68 0 0 0 28.91 8.25 20.69 20.69 0 0 0 7.93-27.05l-37.36-79z"/><path class="cls-16" d="M403 611.09c-.84-.24 21.88 12.62 46.5 75.06l-41.6 32.37-20.9-60.15z"/><path class="cls-5" d="M508.71 654.74A12.8 12.8 0 0 1 495 638.85l6.54-25.71s.86-4 9.24-9.48c6.65-4.34 19.37-16 24.39-20.72 1.16-1.08 3.25-2.18 4.46-.62 1 1 .29 3.61-1.15 5.31-3.18 3.78-10.31 13-17.32 18.84a4.76 4.76 0 0 1 4.47 3.64s5.49-.7 4.86 6.47c0 0 8.4-.63 5.72 9.16l-5.45 9a4 4 0 0 1-5.21 1.49s-6.75 17-16.87 18.48z"/><path class="cls-5" d="M428.59 723.07l73.6-88.42 10.49 14.1-52.76 95.35a25.28 25.28 0 0 1-18.22 13c-6.66 1-13.32-.77-17.27-6.22a20.08 20.08 0 0 1 4.16-27.81z"/><path class="cls-17" d="M445.27 703.02l-16.68 20.05"/><path class="cls-16" d="M352.79 595.88s-29.59 1.85-55 17a21.93 21.93 0 0 0-10.34 21.5l13.2 130.55h100.48L420 655.3c1.45-9.2-.14-30.83-11.24-39.87-6.58-5.34-24.54-19.55-55.97-19.55z"/><path class="cls-5" d="M322.3 602.06a107.06 107.06 0 0 1 30.49-6.18c16.73-.79 35.49 7 35.49 7l-18.11 23.32z"/><path class="cls-8" d="M409.48 717.15s7.71-29.09 5.48-53.36"/><path class="cls-5" d="M263.39 678.17s-14.37 44.92-22.9 85.19a19.19 19.19 0 0 0 12.24 22.06A19.15 19.15 0 0 0 277.55 773l31.24-87.74z"/><path class="cls-16" d="M305.13 608.93s-39 9.5-62.91 90.49l62.49 22.31 16.62-61.46z"/><path class="cls-8" d="M297.28 719.08l7.43 2.65 16.61-48.1"/><path d="M376.14 668.14l30.76-1a1.86 1.86 0 0 1 1.82 2.46l-22 64.56a1.86 1.86 0 0 1-1.69 1.26l-30.69 1a1.86 1.86 0 0 1-1.82-2.46l21.91-64.56a1.88 1.88 0 0 1 1.71-1.26z"/><path class="cls-5" d="M361.38 707.88l-8.49 6a28.84 28.84 0 0 0-8.73 9.93l-5.73 10.74 9.57 15.91s35.66 4.37 41.47-20.29a13.82 13.82 0 0 0-2.27-10.92 14.27 14.27 0 0 0-16.71-5.25l-12.71 4.75z"/><path class="cls-5" d="M261.09 749.1l102.25-22.34-6.17 20.5-91 37.82c-10.18 4.23-22.29-.9-25.32-11.5-.16-.57-.3-1.15-.41-1.74a19.26 19.26 0 0 1 20.65-22.74z"/><path class="cls-17" d="M288.16 743.19l-22.09 4.82"/><path class="cls-18" d="M374.66 459.69s-36.25-19.09-60.54 12c-11.92 15.27-7.42 45.46-32.48 61.1 0 0 19.93 33.81 77.37 33.78 60.3-.05 68.91-31.66 68.91-31.66a37.8 37.8 0 0 1-16.38-34.87c1.85-23.83-14-53.67-36.88-40.39"/><path d="M383.5 530.58c1.37 7 4.68 9.76 13.92 8.12 7-1.25 11.27-9.69 9.9-16.71s-7.05-8.81-14.37-6.68c-5.1 1.48-10.82 8.25-9.45 15.27z" fill="#ca6d3e"/><path class="cls-5" d="M346.99 533.7l-8.42 70.06 32.51.28-1.68-62.56-22.41-7.78z"/><path d="M370.37 579.69c-13.81-3.89-25.49-28.19-25.49-28.19l24.57-5.39z" fill="#c36236"/><path class="cls-5" d="M347.84 468.88a55.56 55.56 0 0 1 25.18-1c11.23 2.29 25.59 6.88 27.21 26.78 2.69 33.16-1.64 58-18.64 65.5-13 5.76-22.48 3.54-37.36-4.9-5.53-3.09-10.82-12.26-12.23-18.6l-6.25-17.74s-17.11-39.7 22.09-50.04z"/><path d="M383.11 503.54s.34 3.21 5.09 1.14a32.75 32.75 0 0 1 6.9-2.41 3.4 3.4 0 0 0 2.58-2.35c.18-.85-.65-1.73-1.21-2.07-1.54-.94-3.73-2.25-8.14-.39-5.67 2.4-5.22 6.08-5.22 6.08zM368.91 504.56s-.22 4.14-6.68 1.68a91.09 91.09 0 0 0-14.29-3.66 4.67 4.67 0 0 1-3.6-2.91 1.89 1.89 0 0 1 1.31-2.42 29.85 29.85 0 0 1 15.86.74c7.7 2.85 7.4 6.57 7.4 6.57z"/><path class="cls-1" d="M369.85 517.93s-7.69-11.59-22.79-1.64c0 0 8.23 10.77 22.79 1.64z"/><g clip-path="url(#clip-path-2)"><path d="M365 516.16a5.55 5.55 0 1 1-6.45-4.46 5.56 5.56 0 0 1 6.45 4.46z"/></g><path class="cls-22" d="M347.06 516.29a22.93 22.93 0 0 1 7.65-3.61 14.67 14.67 0 0 1 7.21-.17 13.1 13.1 0 0 1 7.93 5.42"/><path class="cls-1" d="M383.73 517.19s6.49-10.62 14.33-2.56c0 0-6.33 10.93-14.33 2.56z"/><g clip-path="url(#clip-path-3)"><path d="M387 515.26c-.67 2.91.41 5.64 2.4 6.1s4.15-1.54 4.82-4.45-.42-5.64-2.41-6.1-4.17 1.54-4.81 4.45z"/></g><path class="cls-22" d="M398.06 514.63c-2.79-3.57-6.14-3.21-6.14-3.21-5.2.44-8.19 5.77-8.19 5.77"/><path class="cls-17" d="M381.4 524.91l3.41 5.15-2.92 3.02"/><path class="cls-8" d="M364.88 535.94s4.39 5.94 15 2.45"/><path class="cls-18" d="M324.91 479.92s23.61 9.43 5 46.64l-22.84-21.44 9.24-11.49z"/><path class="cls-5" d="M336.58 532.1c-1.37 7-4.69 9.76-13.92 8.11-7-1.25-11.27-9.69-9.9-16.71s7.05-8.81 14.37-6.68c5.1 1.48 10.87 8.25 9.45 15.28z"/><path class="cls-17" d="M320.09 524.52s6.58-1.63 9.12 7.72"/><path class="cls-18" d="M318.64 489c1.25.85 61.95 6 88.46-2 0 0-3.55-26.73-48.38-24.16-34.33 1.97-40.08 26.16-40.08 26.16z"/><path class="cls-24" d="M551.84 848.78l.92 84.28 17.57 6.8 27.13-83.23-45.62-7.85z"/><path class="cls-15" d="M548 933.11s-26.89-1.34-40.47 2.9c-5 1.55-3.67 7.26-2.52 8.63 2.64 3.16 53.49 14.41 65.29 15.91 4.15.53 3.18-16.74-.69-22.56z"/><path class="cls-25" d="M552.51 924s-29.62 5.41-43.2 9.64a7.92 7.92 0 0 0-5.37 6.63c2.64 3.16 57.12 14.38 68.92 15.88 0 0 4.19-10.47.08-27.08l-3.07 5.54-16.36-3.7z"/><path class="cls-24" d="M574.74 902.93l24.15 81.63 18.83-1.95-5.64-87.08-37.34 7.4z"/><path class="cls-15" d="M594.35 983.38s-25.9 7.35-37.41 15.72c-4.2 3-1.15 8 .38 9 3.51 2.14 55.29-3.49 66.95-5.85 4.1-.83-2.35-16.88-7.88-21.15z"/><path class="cls-25" d="M595.75 973.26s-26.33 14.61-37.84 23a7.9 7.9 0 0 0-3 8c3.51 2.15 58.71-4.67 70.37-7 0 0 .61-11.26-8.6-25.68l-1.13 6.23-16.68 1.73z"/><path d="M741.92 812.46s-135.33-80.61-162.52-41-39.55 145.9-39.55 145.9l56.78 15.7 29.66-98.61 114.8 33.89z" fill="#a84e2a"/><path class="cls-3" d="M823.9 853.8s2.62 44.87-16.88 57.14-155-34.7-155-34.7l-28.88 89.94h-53.91s.5-147.35 36.85-170.08c23.28-14.56 164.24 29.11 164.24 29.11z"/><path class="cls-24" d="M782.37 741.91L714.94 757c-9.14 2.21-17.38-3.63-18-12.77-.6-8.36 5.41-16.49 13.75-18.61l66.41-21.41z"/><path class="cls-24" d="M719.13 730.41l-51.6-46.69-17.77 7.33 45.84 59.3a18.51 18.51 0 0 0 15.4 7.16c5.38-.2 10.57-2.41 13.35-7 4.54-7.51 2.21-16.4-5.22-20.1z"/><path class="cls-27" d="M785.45 610s-9 7.32-4.23 16.41a65.07 65.07 0 0 0 9.91 14.36s.3-21.34 3.86-28.3-4.77-7.36-9.54-2.47z"/><path class="cls-28" d="M810.73 688.06c-13.8-2.76-44.58 3.05-86.86 32L755.11 759l41.51-40.84 21.77-27.84z"/><path class="cls-28" d="M872.34 713.54c3.79 5.58 29.82 40.73 27.23 47.32l-14.75 54.63a144.79 144.79 0 0 1-57.44 81.37L807 910.94l-36.33-63.54c-14.44-9-28.36-12.82-34-28.87l-18.19-19s31.59 6.75 34.19 2.35c16.77-28.39 18.38-86.56 31.92-101.35 22.49-24.53 71.89-10.32 87.75 13.01z"/><path class="cls-24" d="M925.61 749.11l38.76 57.2c5.41 7.69 3 17.5-5.27 21.45-7.56 3.63-17.33 1-22.35-6l-44.28-53.92z"/><path class="cls-28" d="M842.32 690.42s71.93-4 109.42 74.12l-49 32.38L869.19 737z"/><path d="M804.81 650c-.09 5.78-2.35 8.44-9.92 8.44-5.78 0-10.35-6.11-10.26-11.89s4.36-8 10.49-7.35c4.26.41 9.77 4.99 9.69 10.8z" fill="#c96e3d"/><path class="cls-24" d="M841.29 649l16.17 44.78-6.64 9.53c-4.81 6.89-13.65 9.21-21.52 6.26a11.38 11.38 0 0 1-7.37-7.58l-4.36-45.31z"/><path class="cls-3" d="M820.26 684.07c22-6.76 20.92-23.15 20.92-23.15l-23-.6z"/><path class="cls-24" d="M824.39 595.81a44.94 44.94 0 0 0-20.17 2.81c-8.6 3.42-19.37 9.12-17.83 25.18 2.58 26.76 9.56 45.9 24.14 49.45 11.2 2.73 18.39-.38 29-9.2 4-3.29 6.86-11.32 7.11-16.58l2.45-15s7.96-34.01-24.7-36.66z"/><path class="cls-27" d="M844.21 601.33s-24.14 10.56 6.53 35.36l-.26-29z"/><path class="cls-24" d="M842.34 644.5c2.09 5.39 5.12 7.09 12.23 4.47 5.42-2 7.59-9.31 5.5-14.7s-6.86-6-12.38-3.27c-3.85 1.9-7.43 8.1-5.35 13.5z"/><path class="cls-30" d="M854.38 636.13s-5.46-.37-6.16 7.43"/><path class="cls-27" d="M850.48 607.66c-.35.34-32.6 6.9-47.87 8.47-5.09.52 7.6-9.67 2.51-7.89-20.77 7.27-30.53-.42-28.66-6.74 0 0 7.48-9.92 43.51-14.25 27.59-3.31 30.51 20.41 30.51 20.41zM795.32 623.37s2.15 1.48-1.16 4a25.77 25.77 0 0 0-4.39 4 2.76 2.76 0 0 1-2.67.91c-.68-.2-1-1.13-1-1.66-.07-1.46-1.07-2.5 2-4.9 3.9-3.08 7.22-2.35 7.22-2.35zM810.69 623.35s-.49 3.31 5 2.4a73.18 73.18 0 0 1 11.9-.62 3.76 3.76 0 0 0 3.32-1.74 1.52 1.52 0 0 0-.66-2.12 24.11 24.11 0 0 0-12.68-1.94c-6.57 1.03-6.88 4.02-6.88 4.02z"/><path class="cls-1" d="M815.33 637.69s4.47-10.31 17.89-4.54c0 0-5.01 9.74-17.89 4.54z"/><g clip-path="url(#clip-path-4)"><path class="cls-32" d="M813.72 636.54a4.48 4.48 0 1 0 4.5-4.46 4.49 4.49 0 0 0-4.5 4.46z"/></g><path class="cls-33" d="M832.9 633.8a17.32 17.32 0 0 0-4.68-1.68 13.75 13.75 0 0 0-5-.22 10.83 10.83 0 0 0-4.61 1.92 10.27 10.27 0 0 0-3.29 3.87 10.45 10.45 0 0 1 3.06-4.16 11.4 11.4 0 0 1 4.7-2.35 14.6 14.6 0 0 1 5.31-.14 18.76 18.76 0 0 1 5.15 1.45.73.73 0 0 1-.6 1.34z"/><path class="cls-1" d="M802.72 639.34s-6.67-7.52-11.77 0c.05 0 6.59 7.8 11.77 0z"/><g clip-path="url(#clip-path-5)"><path class="cls-32" d="M795.57 638.34c.94 2.22.47 4.55-1.05 5.19s-3.52-.63-4.46-2.85-.48-4.55 1-5.19 3.56.63 4.51 2.85z"/></g><path class="cls-33" d="M790.3 639a7.68 7.68 0 0 1 2.69-2.74 6.07 6.07 0 0 1 1.8-.7 3.62 3.62 0 0 1 1-.06 5.82 5.82 0 0 1 .93.07 8.47 8.47 0 0 1 3.39 1.36 11.85 11.85 0 0 1 2.63 2.41 11.47 11.47 0 0 0-2.82-2.09 7.74 7.74 0 0 0-3.27-1 4.72 4.72 0 0 0-.84 0 2.83 2.83 0 0 0-.78.13 5 5 0 0 0-1.43.74 6.39 6.39 0 0 0-2 2.5.73.73 0 0 1-1 .35.72.72 0 0 1-.35-1z"/><path class="cls-30" d="M808.37 654.17l-4.27-1.23 1.64-10.55M805.39 662.83c.68-5.32 5.19-6.25 9.32-1 0 .04-4.86 6.44-9.32 1z"/><path class="cls-24" d="M937.85 813l-24.52 65.13L926.67 892 965 827.56a18.49 18.49 0 0 0 1-17c-2.15-4.93-6.11-9-11.41-9.84-8.59-1.45-16.03 4-16.74 12.28z"/><path class="cls-24" d="M869 881.56c-.89-4.5 20.9-5.72 26.38-4.83l-4.56-3.88c-1-1.09-2.38-4.3-1.15-5.94s9.57 4.71 9.57 4.71c4.75 2.65 15.51 2.79 15.51 2.79L926.67 892c-17.94 9.94-30.57 9.15-38.45 8.42-1.25-.11-12.4 2.64-13.32.11-.7-1.93 17.16-6.38 15.63-7-.84-.31-18.48 5.41-20.74 1.7-1.39-2.29 19.75-5.39 19.1-6.72-.42-.87-17.86 4.15-19.92 1-2.56-3.91 21-6.29 19.79-7-.95-.51-19.16 2.18-19.76-.95zM636.34 650.43c3-3.5 17.47 12.81 20.18 17.66l.2-6c.21-1.5 1.89-4.54 3.94-4.6s2.26 10.42 2.26 10.42c.88 5.38 8 20 8 20l-13 12.36c-9.28-6-16.36-13-20.69-19.57-.68-1-13.42-11.54-12-13.83 1.07-1.75 15.66 9.47 15.16 7.92-.28-.85-15.73-11.11-14.23-15.18.93-2.52 16.5 12.11 17.14 10.78.42-.88-14.35-11.41-13.17-15 1.47-4.44 18 12.56 17.77 11.16-.22-1.07-13.63-13.69-11.56-16.12z"/><path class="cls-35" d="M793.62 828.35l-40.93-26.49s34.85 29.4 45 73.1M760.36 753.79l-29.13-38.59M947 755.41l-49.39 32.32-20.38-36.38"/><path class="cls-1" d="M541.5 408.18s83.22 0 149.42-.19c77.59-.23 73.22-119.8-2.29-130.32-126.14-17.57-162.63-7.25-231.32-4.05-102 4.74-98.36 121.36-41.42 129 53.43 7.2 90 5.53 90 5.53L484.36 549.9z"/><path class="cls-15" d="M456.59 328.4c.2.08.19.49.19.65 0 .69-.19 1.34-.19 2s.16 1.41.16 2.12-.16 1.21-1 1.21c-.44 0-.86-.13-1.3-.13a2.32 2.32 0 0 0-.38.06l-.05-.13a4.93 4.93 0 0 1 0-.54c0-.8-.05-1.6-.06-2.4-2-.19-4.1-.3-6.11-.3-1.21 0-2.41.16-3.62.16H444c0 .78 0 1.57-.07 2.35a3 3 0 0 1-.06.59v.06c-.57 0-1.13.07-1.69.07-.83 0-1-.47-1-1.21s.15-1.41.15-2.12-.25-1.88.24-2.38c.21-.56.86-.47 1.37-.47h.69a38.68 38.68 0 0 0 .78-5.57c.7-6.65 1.42-13.29 2.34-19.91.23-1.66.37-1.6 2.14-1.6a1 1 0 0 1 1.09.73c.55 1.21.41 3.4.66 4.79.28 1.58.56 3.15 1 4.7 1.12 4.25 1.58 8.63 2.36 12.95.25 1.4.6 2.77.9 4.16a5 5 0 0 1 1.73.12zm-9.1-.06c1.53 0 3.06.07 4.59.08-.25-2.44-.9-4.83-1.35-7.23s-.72-4.53-1.16-6.78c-.26-1.28-.57-2.57-.74-3.87a10.26 10.26 0 0 0-.19-2.08c0-.07 0-.16-.1-.16s-.16.66-.17.75c-.12.87-.17 1.74-.27 2.61-.67 5.51-1.41 11-1.83 16.58.4 0 .81.08 1.22.1zM470.69 333.28a2.49 2.49 0 0 1-2 .61c-4.87 0-8.24-2.26-8.24-7.44 0-2.33 1.14-4.47 3.72-4.47 1.47 0 2.91 1.08 3.48 1.08a.59.59 0 0 0 .19-.05c0-3.34-.05-15-1.55-17.33a2.19 2.19 0 0 0-1.84-1.13c-1.73 0-2.77 1.83-2.77 3.38 0 1.36 0 1.66-1.41 1.66-.66 0-2.18.17-2.18-.8a8.37 8.37 0 0 1 1-3.12c1.13-2.12 3.58-4.19 6.08-4.19a3.92 3.92 0 0 1 1.68.37c2.93 1.41 3.36 7 3.67 9.89a90.3 90.3 0 0 1 .47 9.73c0 3.14-.11 6.29-.11 9.44a5 5 0 0 1-.2 2.37zm-7.05-6.14a3.73 3.73 0 0 0 3.77 3.87c.74 0 .81-.74.81-1.31 0-.91-.28-1.79-.28-2.7 0-1.76-.44-2.1-2.17-2.1a2.08 2.08 0 0 0-2.13 2.24zM475.22 313.24c0-1.78.07-3.56 0-5.34 0-.54-.07-1.47-.07-2 0-1 .35-1.07 1.39-1.07a8.29 8.29 0 0 1 3.7 1.17c2.76 1.71 3.7 5.48 3.71 8.54 0 3.63-2 5.11-3 6.48-.1.14 5.47 1 5.45 5.59s-7.68 3.95-10.38 3.95c-.69 0-.63-.48-.69-1.05a19.49 19.49 0 0 1-.08-2c0-4.7-.06-9.39-.07-14.08zm2.53-4.65c0 3.42.22 7.5.22 10.93a.4.4 0 0 0 .08.23 1.16 1.16 0 0 0 .18 0c3.38-1.14 3.18-8 1.43-10.3-.22-.25-1.91-2.12-1.91-.86zm.92 15.08c-.53 0-.56.36-.56.8 0 .88-.08 1.75-.08 2.62 0 .53.17.86.75.86 2.82 0 4.8-.43 4.8-1.9-.07-2.05-3.68-2.38-4.91-2.38zM500.81 333.28a2.51 2.51 0 0 1-2 .61c-4.88 0-8.24-2.26-8.24-7.44 0-2.33 1.13-4.47 3.72-4.47 1.47 0 2.9 1.08 3.48 1.08a.77.77 0 0 0 .23-.06c0-3.34-.06-15-1.55-17.33a2.21 2.21 0 0 0-1.85-1.13c-1.72 0-2.77 1.83-2.77 3.38 0 1.36 0 1.66-1.41 1.66-.66 0-2.18.17-2.18-.8a8.21 8.21 0 0 1 1-3.12c1.12-2.12 3.58-4.19 6.07-4.19a3.89 3.89 0 0 1 1.68.37c2.93 1.41 3.37 7 3.67 9.89a90.3 90.3 0 0 1 .47 9.73c0 3.14-.11 6.29-.11 9.44a5 5 0 0 1-.2 2.37zm-7.05-6.14a3.72 3.72 0 0 0 3.76 3.87c.74 0 .82-.74.82-1.31 0-.91-.29-1.79-.29-2.7 0-1.76-.44-2.1-2.17-2.1a2.08 2.08 0 0 0-2.12 2.24zM505.49 314.83v-1c0-1.63.07-3.26 0-4.89 0-.49-.13-1-.13-1.47 0-.79 1.6-1.43 2.25-1.43s.48 1.28.48 1.64V320c0 1.28 0 2.56.06 3.83 0 .24 0 .49.05.73 0 0 0 .28.08.28a3.57 3.57 0 0 0 .13-.35c.17-.52.33-1 .48-1.57.63-2.17 1.27-4.36 1.84-6.56.27-1 2.62-9.25 2.84-9.51a2.21 2.21 0 0 1 1.51-.6c.85 0 1 .71 1 1.42s-.24 1.68-.24 2.52c0 3.83.19 7.65.19 11.48 0 2.47.13 4.93.13 7.4 0 1.26-.05 2.52-.16 3.77s0 1.12-1.23 1.22c-.26 0-.52.08-.79.08-.76 0-.66-2.36-.66-2.82 0-5.58.57-11.15.57-16.72v-.78c0-.23 0-.27-.07-.27s-.57 1.48-.62 1.67c-.53 1.89-.91 3.82-1.42 5.72-.77 2.85-1.6 5.66-2.5 8.46-.18.56-.41 2.41-.81 2.7a7.41 7.41 0 0 1-1.88.28c-1 0-.95-2.95-.95-3.55 0-1.9.2-3.8.2-5.7 0-2.76-.2-5.52-.26-8.28zm3.61-11c-.11 0-.17-.5-.18-.57-.08-.64-.09-1.29-.12-1.94 1.58-.05 3.15-.06 4.72-.06 0 .57.27 1.1.27 1.68 0 .94-1 .94-1.74.94s-1.53-.09-2.29-.09a3.66 3.66 0 0 0-.66 0zM540.84 307.44c0 2.14-.32 4.27-.32 6.42 0 1.87.29 3.73.29 5.61s-.19 3.59-.19 5.38c0 1.35.12 2.69.12 4 0 .72.14 2-.89 2a3.62 3.62 0 0 1-.86-.16c-.65-.16-1 0-1-.93 0-.69.16-1.38.16-2.09 0-1.28-.11-2.56-.12-3.84 0-4.72-.2-9.43-.2-14.15v-2.54c0-.54 0-.78-.65-.78-1.46 0-2.88.49-4.37.48v3.2c.12 4.14.14 8.29.21 12.44 0 1.88-.07 3.89.15 5.76a17 17 0 0 1 .27 2c0 .17-.1.68 0 .81-.19.39-1.92.44-2.29.44-.84 0-.67-.18-.77-.81a8.42 8.42 0 0 1-.12-1.42c0-1.12.13-2.24.13-3.37 0-7-.14-13.92-.14-20.87a1.44 1.44 0 0 1 1.57-1.38c2.17 0 4.34.27 6.51.27 1 0 2-.42 2.26.93a14.72 14.72 0 0 1 .25 2.6zM544.51 317.55c0-5.25 2.09-11.05 8.25-11.05s7.63 7.42 7.63 12.31-2.16 10.8-8 10.8c-6.08 0-7.88-7.24-7.88-12.06zm2.7-.68c0 .75 0 1.51.11 2.27.25 2.52 1.87 7.84 5 7.84 4.1 0 5.33-6 5.33-9.21 0-2.92-1.15-8.61-4.93-8.61-4.5 0-5.51 3.93-5.51 7.71zM570.69 301.81c2.95 1.77 3.47 8.31 3.47 11.43v1.19H573a3.1 3.1 0 0 1-.91-.1c-.77-.22-.55 0-.69-.81-.36-2.13.27-9.12-3-9.12-2.86 0-2.86 6.18-2.86 8.06 0 1.23.08 2.45.08 3.67 0 2.39-.3 14.85 3.22 14.85 1.06 0 1.77-1.38 2-2.25s.07-1.8.28-2.68.22-.74 1.13-.81c.6-.05 1.21-.14 1.8-.23-.18 2.53-.09 5.5-1.78 7.58a4.11 4.11 0 0 1-3.14 1.56 3.84 3.84 0 0 1-2.65-1.09c-3.84-3.71-3.64-11.43-3.64-16.43 0-2.64 0-5.29.25-7.93.28-3.39 1.27-7.48 5.52-7.48a4.18 4.18 0 0 1 2.15.58zM593.65 321.25c-.82 1.57-1.67 3.14-2.41 4.76-.42.91-.66 2.05-1.87 2.05a3.4 3.4 0 0 1-.45 0c-1.43-.21-1.5-1.28-2.08-2.39-.85-1.64-1.76-3.24-2.56-4.9-.71-1.47-1.38-3-2.15-4.41-.52-1-1.06-2-1.54-3a7.64 7.64 0 0 0-.77-1.78c0 2.9.17 5.8.22 8.7 0 2.6.41 5.34.41 7.89 0 .78-.11.93-.94.93a16.88 16.88 0 0 1-2-.43.19.19 0 0 0-.12 0c-.19-.06-.29-.65-.29-.83 0-1.23.17-2.47.17-3.72 0-4-.06-8.07 0-12.1 0-1.15-.14-2.29-.14-3.43 0-.47 0-2.34.62-2.34 1.83 0 2.17.1 3 1.67 1.51 2.76 3.09 5.47 4.6 8.23.54 1 3.27 7.1 4 7.1.07 0 .26-.35.29-.4.68-1.21 1.18-2.5 1.82-3.73 1.5-2.88 3.11-5.7 4.61-8.59.46-.88 1.34-3.27 2.17-3.7a6.19 6.19 0 0 1 1.68-.2c1.23 0 1 1 1 2 0 4 0 8.07.15 12.12 0 1.64.1 3.28.16 4.92 0 .8.21 1.58.21 2.39 0 .46-.11 1-.7 1a2.39 2.39 0 0 1-.87-.27c-.84-.34-.52.12-.78-.88a7.31 7.31 0 0 1-.17-1.81c0-2.42-.1-4.81-.18-7.22-.07-1.75 0-3.5-.14-5.25a10.22 10.22 0 0 0-.11-1.23s-.05-.3-.1-.3-.52.65-.58.76c-1.6 2.69-2.82 5.59-4.25 8.36zM605 317.55c0-5.25 2.08-11.05 8.24-11.05s7.63 7.42 7.63 12.31-2.16 10.8-8 10.8c-6.08 0-7.87-7.24-7.87-12.06zm2.7-.68c0 .75 0 1.51.1 2.27.25 2.52 1.87 7.84 5 7.84 4.11 0 5.33-6 5.33-9.21 0-2.92-1.15-8.61-4.93-8.61-4.51 0-5.51 3.93-5.51 7.71zM624 304.52c-.43-.07-1.79-.15-2.05-.44a1.81 1.81 0 0 1 0-.4c0-1.64-.06-2 1.72-2 1.06 0 2.11.17 3.16.17.79 0 1.57-.18 2.36-.18.57 0 1.46 0 1.46.75 0 .51.07 1 .07 1.49 0 1.08-2.79-.21-2.79 1.48 0 .39 0 .79.06 1.19.18 4.18.2 8.38.22 12.57 0 4.35 0 8.69.23 13v.82c0 .27 0 .76-.44.76a3.76 3.76 0 0 1-1.17-.35c-.8-.28-1-.11-1-1.19 0-.53.11-1.06.11-1.59 0-8.16-.53-16.33-.53-24.49 0-1.4 0-1.36-1.38-1.59zM642.62 306.26a3.46 3.46 0 0 1 .62 2 6.23 6.23 0 0 1-3 4.74c-.72.45-2 .56-2.54 1a1.63 1.63 0 0 0-.49 1.38c0 .68.14 1.34.14 2 0 2.89.26 5.79.49 8.67.11 1.32.45 2.6.45 3.93 0 1.1-.07 1.47-1.25 1.47-1.87 0-1.91-.47-1.91-2.16 0-4.65 0-9.3-.23-13.94-.15-2.93-.55-5.84-.55-8.78a24.18 24.18 0 0 1 .12-2.55c2.66.04 6.45-.24 8.15 2.24zm-2.49 3.7a2.16 2.16 0 0 0 .17-.83 2.94 2.94 0 0 0-2.76-2.56c-.52 0-.57.42-.57.84v1.38c0 .46-.17 1.16-.17 1.75s.13 1.13.78 1.13a3.7 3.7 0 0 0 2.52-1.71zM656.07 312.23c-.45.29-2.49 5.18-3 6.1a45.78 45.78 0 0 0-3.31 7.1c-.17.51-.42 2-.83 2.26a6.9 6.9 0 0 1-1.91.23c-.87 0-.9-2.24-.9-2.84 0-1.7.23-3.4.23-5.11 0-2.41-.22-4.81-.22-7.22V310c0-.92-.18-1.84-.18-2.76 0-.72 1.69-1.21 2.27-1.21s.47.63.47.94c0 4.19-.1 8.38-.1 12.56a9.91 9.91 0 0 0 .16 2.11 41.61 41.61 0 0 0 3.66-6.86c.61-1.61 1.51-3.09 2.14-4.69.3-.76.74-3 1.26-3.43a2.32 2.32 0 0 1 1.52-.52c.73 0 1 .5 1 1.16 0 .85-.25 1.68-.25 2.53 0 5 .22 10 .22 15a30.48 30.48 0 0 1-.17 3.44c-.14 1.18-.16.95-1.24 1-.26 0-.53.06-.79.06-.65 0-.65-1.41-.65-1.85 0-4.91.67-9.8.67-14.72a1.16 1.16 0 0 0-.09-.55zM678.13 321.25c-.82 1.57-1.67 3.14-2.41 4.76-.42.91-.65 2.05-1.86 2.05a3.29 3.29 0 0 1-.45 0c-1.44-.21-1.51-1.28-2.09-2.39-.85-1.64-1.75-3.24-2.56-4.9-.71-1.47-1.37-3-2.14-4.41-.53-1-1.07-2-1.54-3a7.65 7.65 0 0 0-.78-1.78c0 2.9.18 5.8.22 8.7.05 2.6.41 5.34.41 7.89 0 .78-.11.93-.94.93a16.88 16.88 0 0 1-2-.43.19.19 0 0 0-.12 0c-.18-.06-.28-.65-.28-.83 0-1.23.17-2.47.17-3.72 0-4-.06-8.07 0-12.1 0-1.15-.13-2.29-.13-3.43 0-.47 0-2.34.62-2.34 1.82 0 2.16.1 3 1.67 1.5 2.76 3.09 5.47 4.59 8.23.55 1 3.27 7.1 4 7.1.07 0 .26-.35.29-.4.68-1.21 1.18-2.5 1.82-3.73 1.5-2.88 3.11-5.7 4.61-8.59.46-.88 1.34-3.27 2.18-3.7a6.12 6.12 0 0 1 1.67-.2c1.24 0 1.06 1 1.06 2 0 4 0 8.07.14 12.12 0 1.64.11 3.28.17 4.92 0 .8.2 1.58.2 2.39 0 .46-.11 1-.69 1a2.5 2.5 0 0 1-.88-.27c-.83-.34-.52.12-.77-.88a6.87 6.87 0 0 1-.18-1.81c0-2.42-.1-4.81-.18-7.22-.06-1.75 0-3.5-.14-5.25 0-.41 0-.82-.1-1.23 0 0-.06-.3-.1-.3s-.52.65-.59.76c-1.6 2.69-2.81 5.59-4.25 8.36zM692.38 331.91c0 .54-.1.86-.39.9-.58.1-.76.18-1.37.29-.36.07-.44.15-.72-.39a5 5 0 0 1-.14-2.2c0-1 .07-2.34.11-3.31a1.37 1.37 0 0 1 .07-.47c.31-.9.9-.58 1.4-.58.68 0 1-.1 1.26 1.23a23 23 0 0 1-.22 4.53zM462.43 351.44v-1c0-.66.73-.72 1.22-.72s1.32-.06 1.32.7c0 2.9-.2 10.24 4.07 10.24s4.27-4.78 4.27-7.89c0-.76-.48-3.4.68-3.4 2.4 0 2 .93 2 2.93 0 5.63.18 11.26.18 16.89 0 1.12.32 3.29-1.37 3.29-1.46 0-1.46-2.65-1.46-3.65 0-2.45.18-4.89.18-7.34v-.75a5.45 5.45 0 0 1-5.11 2.89H468c-5.86-.31-5.38-8.02-5.57-12.19zM481 347.72c-.43-.07-1.79-.15-2.05-.44a1.81 1.81 0 0 1 0-.4c0-1.64-.06-2 1.72-2 1.06 0 2.11.17 3.16.17.79 0 1.57-.18 2.36-.18.57 0 1.46 0 1.46.75 0 .51.07 1 .07 1.49 0 1.08-2.79-.21-2.79 1.48 0 .39.05.79.07 1.19.17 4.18.19 8.38.21 12.57 0 4.35 0 8.69.24 13v.82c0 .27 0 .76-.44.76a3.76 3.76 0 0 1-1.17-.35c-.8-.28-1-.11-1-1.19 0-.53.11-1.06.11-1.59 0-8.16-.53-16.33-.53-24.49 0-1.4 0-1.36-1.38-1.59zM489.56 360.75c0-5.25 2.09-11.05 8.24-11.05s7.63 7.42 7.63 12.31-2.16 10.8-8 10.8c-6.07 0-7.87-7.23-7.87-12.06zm2.7-.68a21.69 21.69 0 0 0 .11 2.27c.25 2.52 1.87 7.84 5 7.84 4.1 0 5.32-6 5.32-9.21 0-2.92-1.15-8.6-4.93-8.6-4.49 0-5.5 3.92-5.5 7.7zM518.73 356.44c0-1.78.07-3.56 0-5.34 0-.54-.07-1.47-.07-2 0-1 .35-1.07 1.4-1.07a8.29 8.29 0 0 1 3.69 1.17c2.76 1.71 3.7 5.48 3.72 8.54 0 3.63-2 5.11-3 6.48-.11.14 5.46 1 5.44 5.59s-7.68 3.95-10.38 3.95c-.69 0-.63-.48-.69-1.05s-.08-1.35-.08-2c0-4.7-.06-9.39-.07-14.08zm2.53-4.65c0 3.42.22 7.5.22 10.93a.4.4 0 0 0 .08.23 1.29 1.29 0 0 0 .19 0c3.37-1.14 3.17-8 1.42-10.3-.17-.25-1.91-2.12-1.91-.86zm.93 15.08c-.54 0-.56.36-.56.8 0 .88-.08 1.75-.08 2.62 0 .53.16.86.75.86 2.82 0 4.8-.43 4.8-1.9-.1-2.09-3.68-2.38-4.91-2.38zM544.71 347.72c-.43-.07-1.79-.15-2.05-.44a1.81 1.81 0 0 1 0-.4c0-1.64-.06-2 1.72-2 1.06 0 2.11.17 3.16.17.79 0 1.57-.18 2.36-.18.57 0 1.46 0 1.46.75 0 .51.07 1 .07 1.49 0 1.08-2.79-.21-2.79 1.48 0 .39 0 .79.06 1.19.18 4.18.2 8.38.22 12.57 0 4.35 0 8.69.23 13v.82c0 .27 0 .76-.44.76a3.76 3.76 0 0 1-1.17-.35c-.8-.28-1-.11-1-1.19 0-.53.11-1.06.11-1.59 0-8.16-.53-16.33-.53-24.49 0-1.4 0-1.36-1.38-1.59zM560.92 372.91c-4.74 0-5.92-8.32-5.92-11.85s.35-12.2 5.52-12.2c4 0 5.77 5.85 5.77 9.1 0 1.58-.87 1.8-2.24 1.8-1.22 0-2.45-.09-3.68-.09-1 0-2.16.2-2.16 1.48 0 .66.14 1.32.19 2 .14 1.61.23 6.87 2.56 6.87s1.64-4.56 2.22-4.9a1.61 1.61 0 0 1 .91-.19c.63 0 1.26.11 1.89.11s.52.28.52.69c0 2.66-1.47 6.19-4.21 7a4.89 4.89 0 0 1-1.37.18zm-2.39-16.05c0 .34.74.41 1 .41a14.91 14.91 0 0 0 2.57-.39c.65-.11 1.09 0 1.09-.84 0-1.39-1.24-4.36-2.89-4.36s-1.66 2.37-1.66 3.52v.91c0 .31-.11.5-.11.75zM580.44 366.5c.22.9 1.45 5.06 1.45 5.53s-.42.42-.73.42h-.49c-1.86-.15-1.59-.93-1.95-2.47-.4-1.71-1-3.38-1.37-5.09s-.8-3.57-1.24-5.34c-.18-.7-.61-4.24-1-4.5-.55 3.46-1.07 6.9-1.41 10.39-.19 1.9-.67 3.78-.79 5.69-.07 1.06.16 1-.91 1.32a1.9 1.9 0 0 1-.54.07 4 4 0 0 1-1.66-.4c.09-2.77 1.06-5.51 1.44-8.26.47-3.43 1-6.83 1.55-10.26.12-.8.07-3.57.65-4a3.33 3.33 0 0 1 1.54-.27 2.5 2.5 0 0 1 1 .13c.7.33.83 2 1 2.69 1 4.82 2.34 9.6 3.51 14.4zM590.41 372.91c-4.74 0-5.92-8.32-5.92-11.85s.35-12.2 5.51-12.2c4 0 5.78 5.85 5.78 9.1 0 1.58-.87 1.8-2.24 1.8s-2.45-.09-3.68-.09c-1 0-2.16.2-2.16 1.48 0 .66.13 1.32.19 2 .14 1.61.23 6.87 2.56 6.87s1.64-4.56 2.22-4.9a1.58 1.58 0 0 1 .91-.19c.63 0 1.25.11 1.88.11s.52.28.52.69c0 2.66-1.46 6.19-4.2 7a5 5 0 0 1-1.37.18zM588 356.86c0 .34.74.41 1 .41a15.06 15.06 0 0 0 2.57-.39c.65-.11 1.09 0 1.09-.84 0-1.39-1.24-4.36-2.89-4.36s-1.66 2.37-1.66 3.52v.91c0 .31-.11.5-.11.75zM617.46 350.13c9.83 4.09 7.11 19.84-4 19.84h-.27a20.91 20.91 0 0 1 0 4.26c-.11.78.16.72-.66.89h-.08a3.94 3.94 0 0 1-2.32-.49 3.87 3.87 0 0 0 0-.9c0-1.24.3-2.51.34-3.77-6 .1-11.14-3.68-11.14-10.11 0-6.11 4.58-10.31 10.58-10.31a4.8 4.8 0 0 1 .85.07c0-.65-.08-1.29-.08-1.94a2 2 0 0 1 .08-.73c.23-.33 2.13-.28 2.58-.31v2.91a10.52 10.52 0 0 1 4.2.58zm-7.46 17.3h.51c.1-4.76.26-9.53.26-14.29v-.76h-.27c-4.4 0-8.42 2.79-8.42 7.49s3.69 7.56 7.92 7.56zm3.85-.17a7.37 7.37 0 0 0 7.15-7.4 7.58 7.58 0 0 0-6.29-7.36c-.46-.06-1 0-1.45-.06 0 4.94-.05 9.88-.08 14.82h.67zM626.89 360.75c0-5.25 2.09-11.05 8.24-11.05s7.63 7.42 7.63 12.31-2.15 10.8-8 10.8c-6.07 0-7.87-7.23-7.87-12.06zm2.7-.68a21.69 21.69 0 0 0 .11 2.27c.25 2.52 1.87 7.84 5 7.84 4.1 0 5.33-6 5.33-9.21 0-2.92-1.16-8.6-4.94-8.6-4.49 0-5.5 3.92-5.5 7.7zM655.72 355.68c.09 4.43 0 8.86.1 13.28 0 .84.19 1.67.19 2.5 0 .28-.06.87-.44.87a3.66 3.66 0 0 1-.73-.16c-1.24-.24-1.54-.93-1.54-2.11 0-1 .2-4.64-.25-5.36a1.27 1.27 0 0 0-1.29-.57c-1 0-1.86-.41-2.77-.41-.74 0-.73.89-.73 1.43 0 .82.1 1.64.13 2.46s.27 1.48.27 2.24-1.26 1-1.92 1-1.42-.06-1.42-.91c0-.68.25-1.35.25-2 0-1.43-.17-2.85-.17-4.27 0-3.54.25-7.08.25-10.62 0-1-.1-2-.1-3 0-.41.06-.58.51-.58.71 0 2.61-.22 2.61.79 0 .63-.24 1.24-.28 1.87v1.28c0 1.58.1 3.17.06 4.75 0 .69-.25 1.36-.25 2.05s.5 1 1.2 1.07a20.51 20.51 0 0 0 2.71.24 1.36 1.36 0 0 0 .63-.09c.49-.29.49-2 .49-2.46 0-1.06-.11-2.12-.11-3.18s.08-2.09.08-3.14c0-.63-.11-1.27-.11-1.91s.31-1.23 1.15-1.23c1.08 0 1.49.59 1.49 1.58v4.62zM664.88 372.91c-4.73 0-5.92-8.32-5.92-11.85s.35-12.2 5.52-12.2c4 0 5.78 5.85 5.78 9.1 0 1.58-.88 1.8-2.24 1.8s-2.46-.09-3.69-.09c-1 0-2.16.2-2.16 1.48 0 .66.14 1.32.2 2 .13 1.61.22 6.87 2.55 6.87s1.64-4.56 2.22-4.9a1.63 1.63 0 0 1 .92-.19c.63 0 1.25.11 1.88.11s.52.28.52.69c0 2.66-1.47 6.19-4.21 7a4.84 4.84 0 0 1-1.37.18zm-2.38-16.05c0 .34.74.41 1 .41a14.77 14.77 0 0 0 2.57-.39c.65-.11 1.09 0 1.09-.84 0-1.39-1.24-4.36-2.88-4.36s-1.66 2.37-1.66 3.52v.91c0 .31-.12.5-.12.75z"/></svg>