<svg id="Layer_1" data-name="Layer 1" xmlns="http://www.w3.org/2000/svg" viewBox="0 0 2567.11 1021.3"><defs><style>.cls-15{opacity:.6;isolation:isolate}.cls-4{fill:#1f8ddf}.cls-5{fill:#ff4d41}.cls-6{fill:#fff}.cls-11{fill:#ffa031}.cls-12{fill:#5acaa9}.cls-13{fill:#ffc348}.cls-14{fill:#ffbea5}.cls-15{fill:#e89c85}.cls-22{fill:#f7fbfe}</style><clipPath id="clip-path"><circle cx="986.41" cy="365.61" r="45.3" fill="none"/></clipPath></defs><path d="M1462.57 5.27c-35.5.4-209.5-6.3-249.2-1.3-69.5 8.7-123 31.9-173.5 56.7-63.4 31.1-120.6 67.3-174.6 105.8-69.8 49.8-134.4 103.4-185.5 167.2-44.9 56-41.2 122.2-33.3 213.7 4.5 51.7-7.9 106 34.9 184.6 180.8 332.3 1316.9 353.5 1211.7-374.6-54.6-377.9-377.8-352.6-430.5-352.1z" fill="#c4e5e5"/><path d="M1120.27 154.27c175.8 40.9 335.7-159.6 513.6-127.2 19.7 3.6 39.3 10.4 53.9 23.2 19.1 16.7 27.3 41.8 30.1 66.1 9.9 86.8-38.6 182.4 8.7 257.7 14.5 23.1 36.5 41 54.3 62 62.1 73.3 63.5 186.2 3 260.8-21.4 26.4-49.4 48.2-66.1 77.3-51.3 89.1 13.7 222.2-67.5 288.9-33.4 27.4-81.1 32.4-125.5 33.5-27.2.7-55.8.1-79.3-12.8-33-18.1-47.3-55.3-72.8-81.9-41-42.5-108.1-54.4-169-49s-119.3 25.1-179.5 35.3c-20.9 3.6-42.7 5.9-63.3 1.2-32.9-7.5-58.4-32-76.9-58.5-103.7-148.4-36.8-338-59.5-502.2-15.6-112.7-171.9-296 28.5-356.3 98.6-29.6 177.9 61.1 267.3 81.9z" style="isolation:isolate" opacity=".6" stroke="#fff" stroke-linecap="round" stroke-linejoin="round" stroke-width="1.13" stroke-dasharray="18.13 18.13" fill="none"/><path class="cls-4" d="M1133.4 306.69l4.82-5.36 16 14.38-4.81 5.35zM1142.27 298.87s-1.9-6.2-2.1-9.3c-.1-2.7-3.2-6-4-6.8a.3.3 0 0 1 0-.4 3.81 3.81 0 0 1 5.4-.3l6.4 5.7 5-5.6a4.44 4.44 0 0 1 6.3-.3l10.7 9.7a4.44 4.44 0 0 1 .3 6.3l-13 14.5a1.78 1.78 0 0 1-2.6.1l-12.3-11.1a1.75 1.75 0 0 1-.1-2.5z"/><path class="cls-5" d="M1078.77 190.27l-49.2 24.8a3.53 3.53 0 0 1-4.8-1.6L1010 184a3.53 3.53 0 0 1 1.6-4.8l49.2-24.8a3.53 3.53 0 0 1 4.8 1.6l14.8 29.5a3.56 3.56 0 0 1-1.6 4.8z"/><path class="cls-5" d="M1063.67 189.17l6.9 22.3 5.2-28.4z"/><path class="cls-6" d="M1050.87 170.47a7.8 7.8 0 0 0-9.8 4.9l-.2.7-.7-.2a7.75 7.75 0 0 0-4.9 14.7l.7.2 14.8 4.9 4.9-14.8.2-.7a7.79 7.79 0 0 0-5-9.7z"/><path class="cls-5" d="M889.07 560.87h110.2a7.13 7.13 0 0 0 7.1-7.1v-66a7.13 7.13 0 0 0-7.1-7.1h-110.2a7.13 7.13 0 0 0-7.1 7.1v66a7 7 0 0 0 7.1 7.1z"/><path class="cls-5" d="M915.07 545.37l7.7 46-34.8-46z"/><path class="cls-6" d="M967.17 500.57a15.51 15.51 0 0 0-22 0l-1 1-1-1a15.56 15.56 0 0 0-22 22l1 1 22 22 22-22 1-1a15.69 15.69 0 0 0 0-22z"/><circle class="cls-4" cx="986.41" cy="365.61" r="45.3"/><g clip-path="url(#clip-path)"><path class="cls-6" d="M1010.47 406.07l-9.8 4.6-25.1-53.4a15.43 15.43 0 0 1 7.4-20.5l9.3-4.4 4.6 9.8-9.3 4.4a4.68 4.68 0 0 0-2.2 6.2z"/><path class="cls-6" d="M968.12 372.72l34.83-16.4 4.6 9.77-34.83 16.4z"/></g><circle cx="1246.1" cy="212.16" r="45.2" fill="#ff4e6b"/><path class="cls-6" d="M1247.57 239.17l-23.2-11a10.71 10.71 0 0 1-5.1-14.2l11-23.2a10.71 10.71 0 0 1 14.2-5.1l23.2 11a10.71 10.71 0 0 1 5.1 14.2l-11 23.2a10.54 10.54 0 0 1-14.2 5.1zm-5.5-48.2a5 5 0 0 0-6.6 2.3l-11 23.2a5 5 0 0 0 2.3 6.6l23.2 11a5 5 0 0 0 6.6-2.3l11-23.2a5 5 0 0 0-2.3-6.6z"/><path class="cls-6" d="M1241.07 222.87a11.56 11.56 0 1 1 15.4-5.5 11.63 11.63 0 0 1-15.4 5.5zm7.5-15.6a5.79 5.79 0 1 0 2.8 7.7 5.91 5.91 0 0 0-2.8-7.7zM1263.77 207.57a2.64 2.64 0 1 1-1.3-3.5 2.59 2.59 0 0 1 1.3 3.5z"/><circle cx="1601.28" cy="499.74" r="45.6" transform="rotate(-45 1601.282 499.747)" fill="#38ace5"/><path class="cls-6" d="M1576.47 485s2.3 10.9 13.3 11 16.2-9.1 26.8-8.6c13.5.6 16 19.8-2.9 27.5-24 9.9-41-5-37.2-29.9z"/><path class="cls-6" d="M1622.47 502.87l8.5 5.5c1 .6.8 1.9-.3 1.9l-11.6.2 3.4-7.6zM1608.47 495.77s-11.5-8.1-16.2-16.8a1.9 1.9 0 0 0-3.4.1c-1.8 4.2-3.6 11.5.9 19 6.9 11.5 18.7-2.3 18.7-2.3z"/><circle class="cls-5" cx="1523.07" cy="751.33" r="46.2"/><path class="cls-6" d="M1523.27 729.77l21.6 27.3c1.9 2.4 0 6.7-3.1 6.9l-34.8 1.8c-2.5.1-3.9-2.7-2.7-5.3l13.2-29.2c1.2-2.6 4.3-3.4 5.8-1.5z"/><path class="cls-5" d="M1495.37 366.27l84.9-40.6a6.15 6.15 0 0 0 2.9-8.1l-24.3-50.9a6.15 6.15 0 0 0-8.1-2.9l-84.9 40.6a6.15 6.15 0 0 0-2.9 8.1l24.3 50.9a6 6 0 0 0 8.1 2.9z"/><path class="cls-5" d="M1509.77 344.77l22.8 32.6-43.7-22.6z"/><path class="cls-6" d="M1516.47 300.07a13.27 13.27 0 0 0-16.9 8.1l-.4 1.1-1.1-.4a13.25 13.25 0 1 0-8.8 25l1.1.4 25 8.8 8.8-25 .4-1.1a13.35 13.35 0 0 0-8.1-16.9z"/><text transform="rotate(-25.54 1491.48 -3237.036)" style="isolation:isolate" font-size="59.77" font-family="ArialMT,Arial" fill="#fff">3</text><circle class="cls-11" cx="1463.33" cy="138.16" r="34.4" transform="rotate(-71.64 1463.31 138.17)"/><path class="cls-6" d="M1471.57 139.57a4.87 4.87 0 0 0-2.1 2.4l-9.8-.4c-.1-.3-.3-.6-.4-.9a5.55 5.55 0 0 0-.6-.8l4.3-8.8a5 5 0 0 0 3.1-.8 5.56 5.56 0 1 0-6.9-1.1l-4.3 8.8a5 5 0 0 0-3.1.8 5.47 5.47 0 0 0 5.6 9.4 4.87 4.87 0 0 0 2.1-2.4l9.8.4c.1.3.3.6.4.9a5.47 5.47 0 1 0 9.4-5.6 5.43 5.43 0 0 0-7.5-1.9z"/><circle class="cls-12" cx="1458.23" cy="454.03" r="39.4" transform="rotate(-73.37 1458.232 454.031)"/><path class="cls-6" d="M1440.89 456.21l6.51-3.08 9.19 19.44-6.5 3.08zM1452.07 452.37s.6-6.4 1.7-9.3c.9-2.6-.6-6.7-1-7.8a.19.19 0 0 1 .1-.3 3.72 3.72 0 0 1 5 1.8l3.7 7.7 6.8-3.2a4.38 4.38 0 0 1 5.9 2.1l6.2 13.1a4.38 4.38 0 0 1-2.1 5.9l-17.6 8.3a2 2 0 0 1-2.5-.9l-7.1-15a1.83 1.83 0 0 1 .9-2.4z"/><path class="cls-12" d="M990.77 699.67a34.47 34.47 0 1 1-25.4-41.6 34.46 34.46 0 0 1 25.4 41.6z"/><path class="cls-6" d="M944.16 683.5l6.13 1.47-4.41 18.28-6.13-1.48zM954 687a49.94 49.94 0 0 1 6.3-5.4c2-1.2 3.3-4.9 3.6-5.9 0-.1.2-.2.3-.2a3.2 3.2 0 0 1 2.4 4l-1.8 7.3 6.4 1.5a3.9 3.9 0 0 1 2.9 4.7l-3 12.3a3.9 3.9 0 0 1-4.7 2.9l-16.6-4a1.58 1.58 0 0 1-1.2-1.9l3.4-14.1a1.72 1.72 0 0 1 2-1.2z"/><path class="cls-13" d="M1104 495.67a15.38 15.38 0 1 1-6-20.9 15.42 15.42 0 0 1 6 20.9z"/><path class="cls-6" d="M1093.67 499.57l-14.4-8 1.9-3.4a5.24 5.24 0 0 1 7.1-2l5.3 2.9a5.24 5.24 0 0 1 2 7.1l-1.9 3.4zm3.8-14.3a4.57 4.57 0 1 1-1.8-6.2 4.53 4.53 0 0 1 1.8 6.2z"/><circle class="cls-13" cx="1349.22" cy="281.12" r="23.7"/><path class="cls-6" d="M1366.07 287.57l-23.1 10.6-2.5-5.5a8.12 8.12 0 0 1 4-10.7l8.4-3.9a8.12 8.12 0 0 1 10.7 4l2.5 5.5zm-14.2-17.7a7.09 7.09 0 1 1-9.4-3.5 7.06 7.06 0 0 1 9.4 3.5z"/><path class="cls-4" d="M1466.65 647.77l4.38 5.72-17.03 13.08-4.38-5.71zM1472.77 657.87s6.4-.7 9.5-.3c2.7.4 6.5-2 7.4-2.7a.25.25 0 0 1 .4.1 3.72 3.72 0 0 1-.7 5.3l-6.8 5.2 4.6 5.9a4.56 4.56 0 0 1-.8 6.3l-11.5 8.8a4.56 4.56 0 0 1-6.3-.8l-11.8-15.4a1.88 1.88 0 0 1 .3-2.6l13.1-10.1a1.79 1.79 0 0 1 2.6.3z"/><path class="cls-5" d="M1259 323.57a6.57 6.57 0 0 0-8.6-3.4l-.5.2-.2-.5a6.54 6.54 0 0 0-12 5.2l.2.5 5.2 11.9 11.9-5.2.5-.2a6.35 6.35 0 0 0 3.5-8.5zm-180.6 76.7a4.7 4.7 0 0 0-6.1 2.8l-.1.4-.4-.1a4.75 4.75 0 1 0-3.3 8.9l.4.1 8.9 3.3 3.3-8.9.1-.4a4.62 4.62 0 0 0-2.8-6.1zm-39 244.9a4.79 4.79 0 0 0-5.8-3.4l-.4.1-.1-.4a4.75 4.75 0 0 0-9.2 2.4l.1.4 2.4 9.2 9.2-2.4.4-.1a4.88 4.88 0 0 0 3.4-5.8z"/><path class="cls-14" d="M1394.57 585.87c-.5.2-.9.4-1.4.6-3.7 1.6-7.4 3-11.1 4.4-2.4.9-4.9 1.8-7.3 2.7-12.2 4.3-23.2 7.5-30.2 9.5-4.7 1.3-7.6 2-7.6 2s-125 53.5-186.2 119.5c-3.9 4.2-7.5 8.5-10.9 12.7-2.6 3.3-5 6.7-7.2 10.1-31.2 48-35.6 7-34.6-29.7.6-21.4 3-41.3 3-41.3s14.9-13.7 38.8-32.2c43.4-33.7 116.4-83.4 183.2-96.1l21.4-4.2c5.1-1.1 9.9-2.1 14.5-3.1 8.6-1.9 16.2-3.6 23-5.2 3.7-.9 7.2-1.7 10.4-2.4.7-.2 1.4-.3 2.1-.5 36.1-8.5 40.5-8.6 45.4 11.5 4.1 16.1-19.6 30.8-45.3 41.7z"/><path class="cls-14" d="M1262.07 851.47s-.4.8-1.1 2.3c-.2.4-.4.9-.7 1.4a.1.1 0 0 1-.1.1 4.05 4.05 0 0 1-.5.9c-.3.6-.7 1.4-1 2.1s-.8 1.6-1.2 2.5c-1.1 2.2-2.4 4.7-3.9 7.4-.3.6-.6 1.1-.9 1.7-1.6 2.9-3.3 6-5.3 9.2-.7 1.2-1.5 2.4-2.2 3.7-1.3 2.1-2.6 4.2-4 6.4s-2.9 4.4-4.4 6.7c-1.9 2.8-3.9 5.7-6 8.5-12.9 17.5-29.3 35.7-48.6 48.1-5.5 3.5-10.7 7.2-15.4 10.8-26 19.9-40.7 40.5-47.3 51.3h-227.3l87.3-103.3 27-32a153.72 153.72 0 0 0 12.4-23.1c4-9.4 7.4-20.2 7-29.7V825a15.41 15.41 0 0 1 2.8-8.5l9.9-14 4.7-6.6 55-78.2 20.8-29.5 21 23.9 7.3 8.3 3.6 4.1 7 7.9 104.1 119.1z"/><path class="cls-15" d="M1382.07 535.47v55.4c-2.4.9-4.9 1.8-7.3 2.7-12.2 4.3-23.2 7.5-30.2 9.5-4.7 1.3-7.6 2-7.6 2s-125 53.5-186.2 119.5L1262 851.47a302.73 302.73 0 0 1-20.9 37.9h-63.4a37.77 37.77 0 0 1-37.8-37.8v-207.4c43.4-33.7 116.4-83.4 183.2-96.1l21.4-4.2c5.1-1.1 9.9-2.1 14.5-3.1 8.7-1.9 16.3-3.7 23.1-5.3z"/><path class="cls-14" d="M1431.47 657.27c-5.3 11.1-20.1 11.2-36.8 6.7-17.5-4.7-37.1-14.3-50-21.3-8.6-4.6-14.1-8.1-14.1-8.1l14.1-10.4 40.1-29.4s4.1 2.1 9.9 5.8c16.6 10.6 47.5 34 36.8 56.7zm-11.4 90.9c-6.7 7.4-15.6 7.8-25.4 4-16.6-6.4-35.6-24.7-50-40.9-13.4-14.9-22.8-28-22.8-28l22.8-5.3 34.2-8a174.85 174.85 0 0 1 15.8 12.2c18.6 15.9 44.8 44.5 25.4 66zm-3.5 66.6c-5.3 7.3-13.1 8.7-21.9 6.5-16.9-4.1-37.4-20.9-50-32.6-7.2-6.6-11.8-11.6-11.8-11.6l11.8-5 29.7-12.5a154.63 154.63 0 0 1 20.3 10.6c16.33 10.2 34.7 26.83 21.9 44.6z"/><path class="cls-15" d="M1394.57 532.57a305.92 305.92 0 0 1 0 53.3c-.5.2-.9.4-1.4.6-6.2 2.6-12.4 5-18.4 7.1-12.2 4.3-23.2 7.5-30.2 9.5v-59.2c5.1-1.1 9.9-2.1 14.5-3.1 13.3-2.9 24.3-5.5 33.4-7.7.7-.2 1.4-.3 2.1-.5zm0 68c2.5 22.4 2.8 43.6 0 63.3-17.5-4.7-37.1-14.3-50-21.3v-18.4l40.1-29.4a113.36 113.36 0 0 1 9.9 5.8zm0 81.6c2.4 25.5 2.9 49.4 0 70-16.6-6.4-35.6-24.7-50-40.9V678l34.2-8a174.85 174.85 0 0 1 15.8 12.17zm0 88a165.85 165.85 0 0 1 0 51.2c-16.9-4.1-37.4-20.9-50-32.6v-16.6l29.7-12.5a115.6 115.6 0 0 1 20.3 10.5z"/><path d="M1351.57 879.27h-166.5a37.77 37.77 0 0 1-37.8-37.8v-451.6a37.77 37.77 0 0 1 37.8-37.8h166.5a37.77 37.77 0 0 1 37.8 37.8v451.6a37.77 37.77 0 0 1-37.8 37.8z" fill="#141414" stroke="#000" stroke-miterlimit="10" stroke-width=".99"/><path class="cls-6" d="M1368.07 855.37h-199.5a10.71 10.71 0 0 1-10.7-10.7v-454.9a10.71 10.71 0 0 1 10.7-10.7h199.5a10.71 10.71 0 0 1 10.7 10.7v454.8a10.73 10.73 0 0 1-10.7 10.8z"/><path class="cls-14" d="M1158.77 564.47c-9.1 44.9-6.4 47.8-18 57.6-.8.7-1.8 1.5-2.8 2.3a4.18 4.18 0 0 1-.1.7c-.5 5.2-4.5 37.7-19 63.1 0 0 30.6 88.8 5.9 140.1l-78.8-1.5-6.1-.1-14.1-.3V825l-.5-105.7a39.76 39.76 0 0 1 5-19.4l2.4-4.2.4-.7 1.8-3.3 70.3-126.8a6.47 6.47 0 0 0 .2-1c1.1-5.5 7.3-32.5 18.1-45.5a14.2 14.2 0 0 1 4.1-3.3 13.07 13.07 0 0 1 13.8 1.2c9.3 6.87 22.8 21.77 17.4 48.17z"/><path class="cls-15" d="M1236.77 896c-1.9 2.8-3.9 5.7-6 8.5-12.9 17.5-29.3 35.7-48.6 48.1-5.5 3.5-10.7 7.2-15.4 10.8-26 19.9-40.7 40.5-47.3 51.3h-18.8c2.2-5.7 5.8-10.9 9-16 3.1-4.9 6.2-10 7.9-15.5a26.29 26.29 0 0 0 1.4-8.3c0-3.2-1.3-6.4-1.1-9.5.1-1.4.2-2.9-1-4s-3.1-1.5-4.2-2.7c-1.3-1.5-1.9-3.3-2.8-5-5.2-9.7-8.6-20.5-14.8-29.6-11.5-17-27-27-40.7-42.4-8.6-9.7-15.9-20.1-17.7-33.2a11.14 11.14 0 0 1-.2 1.3l-17.8 24.7-39.2 36.8 27-32a153.72 153.72 0 0 0 12.4-23.1c4-9.4 7.4-20.2 7-29.7V825l-.6-105.7a39.76 39.76 0 0 1 5-19.4l2.3-4.2.4-.7a7.91 7.91 0 0 0 1.8-3.3c-10 32.9-.1 68.5 3.2 104.3.2 2.2.4 4.4.5 6.6.5 8.1.7 16.2 1.5 24.2 1.8 18.8 6.8 36.3 26.7 48.4 7.1 4.3 15.2 7.7 20.5 13.8s7.2 13.9 10.7 21a58.37 58.37 0 0 0 32.1 28.6 64.55 64.55 0 0 0 44.4-.2 79.21 79.21 0 0 0 20.7-12.1c2.8-2.2 6.3-3.5 9.3-5.5 7.1-4.7 15.8-10.1 21.9-15.7 3.4-3.3 6.9-6.2 10.5-9.1z"/><path d="M1126 538.17a112.69 112.69 0 0 1-7.4 14.2c-2.4 3.9-5.2 7.8-9.2 10.1a13.16 13.16 0 0 1-3.9 1.5c1.1-5.5 7.3-32.5 18.1-45.5a14.2 14.2 0 0 1 4.1-3.3c3.6 6.7 1 16.7-1.7 23z" fill="#fcd8c9"/><path class="cls-15" d="M1140.87 622.07c-.8.7-1.8 1.5-2.8 2.3a4.18 4.18 0 0 1-.1.7 75.26 75.26 0 0 1-23.9 2.6s18.6-2.8 26.8-5.6z"/><path d="M1302 705.67l64.1-137.1-195.6 35.8 45.6 36.9-1.1 62.8 57.3-24.3-15.3-13.4z" fill="#e2f1fd"/><path class="cls-13" d="M1179.07 553.37l186.9-34.3-149.9 72.8-38.8-31.4a4 4 0 0 1 1.8-7.1z"/><path class="cls-11" d="M1215.07 650.87l1.1-59 149.9-72.8-148.3 133a1.59 1.59 0 0 1-2.7-1.2z"/><path d="M1250.57 611.47l115.4-92.3-61.8 132.3a4 4 0 0 1-6.3 1.3l-47.3-41.3z" fill="#ffc55f"/><path d="M1250.57 611.47l-32.8 40.6 54.5-21.7z" fill="#e58220"/><path d="M1250.57 611.47l17.5 20.6 4.2-1.7z" fill="#d3711a"/><path class="cls-22" d="M1183.17 427.17h178.3v11h-178.3zm0 28.4h178.3v11h-178.3zm0 28.3h130.6v11h-130.6zM1183.17 748h178.3v11h-178.3zm0 28.3h178.3v11h-178.3zm0 28.4h178.3v11h-178.3z"/></svg>