<svg id="Layer_1" data-name="Layer 1" xmlns="http://www.w3.org/2000/svg" viewBox="0 0 1456.08 1021.32"><defs><style>.cls-1{fill:#fff}.cls-11,.cls-16,.cls-2{fill:none}.cls-2{stroke:#1691c9;stroke-width:6px}.cls-16,.cls-2{stroke-miterlimit:10}.cls-3{fill:#a7d1d0}.cls-4{fill:#7b6451}.cls-5{fill:#c96e3d}.cls-6{fill:#eca179}.cls-7{fill:#c46234}.cls-9{fill:#604538}.cls-11{stroke:#ca5e34;stroke-linecap:round;stroke-linejoin:round;stroke-width:.87px}.cls-12{fill:#430f51}.cls-13{fill:#95bcba}.cls-14{fill:#68676c}.cls-15{fill:#f7f7f8}.cls-16{stroke:#fff;stroke-width:3px}.cls-17{fill:#5f3335}.cls-18{fill:#de8d68}.cls-19{fill:#003359}.cls-21{fill:#1b1c20}.cls-23{fill:#003b71}.cls-26{fill:#d65f1d}.cls-29{fill:#83cdea}</style><clipPath id="clip-path"><path class="cls-1" d="M1210.67 231.64s8.26-16.83 30.18-6.17c0 0-9.12 15.84-30.18 6.17z"/></clipPath><clipPath id="clip-path-2"><path class="cls-1" d="M1189.52 233.4s-10.53-13.08-19.62-.93c0 0 10.37 13.53 19.62.93z"/></clipPath><clipPath id="clip-path-3"><path class="cls-1" d="M665.32 295.37s4.91-18.1 28.47-11.79c0 0-5.95 17.29-28.47 11.79z"/></clipPath><clipPath id="clip-path-4"><path class="cls-1" d="M644.88 301.11s-12.81-10.84-19.43 2.82c0 0 12.75 11.3 19.43-2.82z"/></clipPath><clipPath id="clip-path-5"><path class="cls-1" d="M280.41 296s-8.27-16.83-30.19-6.17c0 .02 9.12 15.86 30.19 6.17z"/></clipPath><clipPath id="clip-path-6"><path class="cls-1" d="M301.56 297.78s10.53-13.08 19.62-.93c0 0-10.37 13.52-19.62.93z"/></clipPath><clipPath id="clip-path-7"><path class="cls-1" d="M485.1 296.88s-8.27-16.83-30.19-6.17c0 0 9.09 15.84 30.19 6.17z"/></clipPath><clipPath id="clip-path-8"><path class="cls-1" d="M506.25 298.64s10.53-13.08 19.61-.93c0 0-10.36 13.52-19.61.93z"/></clipPath></defs><path class="cls-2" d="M54.94 646.41l1049.8-48.11 301.47-13.81M1264 592.41l25.34 169.86 34.73-3.4 18.55-170.06"/><path class="cls-3" d="M1444.19 842.75l-.83-3.23a13.66 13.66 0 0 0-6-5.35c-7.77-5.24-19.61-8.92-31.11-11.5-7.75-1.75-15.6-3.22-23.59-4.46-8.33-3.79-19.59-6.15-29.62-7.93-17.57-3.14-36-5-54.29-6.58-23-2-46.08-3.58-69.22-4.88-29.92-1.69-59.86-3-90-3.24-26.42-.22-53.77.09-79.42 3.74-14.51 2.07-28 5.4-39.44 10.52s-20.14 13.26-19.91 21.22c.42 15.19 28 22.45 52.88 25.82 15.67 6.82 36.39 8.87 56.59 9.54 39.34 3 79.26 1.79 118.72 0q24.29.5 48.6.49c20.46 0 40.87-.43 61.29-1 13-.4 25.92-.34 38.68-1.87a89.82 89.82 0 0 0 20-4.59c4.92-.21 9.82-.45 14.7-.94 9.17-.92 19.08-3.29 25.14-7.12 3.88-2.49 7.11-5.33 6.83-8.64zM851.42 891.27l-1.57-6.39q-3.12-6.11-11.28-10.6c-14.7-10.38-37.09-17.66-58.86-22.79-14.65-3.45-29.5-6.36-44.62-8.82-15.75-7.51-37.06-12.17-56-15.72-33.24-6.2-68.15-9.82-102.7-13-43.42-4-87.17-7.08-130.95-9.66-56.59-3.35-113.22-5.9-170.14-6.41-50-.46-101.73.17-150.25 7.4-27.48 4.07-52.97 10.72-74.64 20.82-21.48 10-38.09 26.26-37.66 42 .8 30.09 53 44.47 100 51.14 29.64 13.5 68.85 17.56 107.06 18.89 74.42 5.86 149.93 3.55 224.57 0q45.94 1 91.95 1c38.7 0 77.31-.86 115.94-2.08 24.52-.78 49-.67 73.16-3.7a164.45 164.45 0 0 0 37.75-9.09c9.29-.42 18.56-.9 27.8-1.87 17.35-1.82 36.09-6.52 47.56-14.09 7.31-4.85 13.46-10.48 12.88-17.03z"/><path class="cls-2" d="M80.19 555.55l1273.15-61.67"/><path class="cls-4" d="M1217.42 143.35s51.66-10.25 70.57 39.89c9.21 24.44-1 71.08-36.2 72.67 0 0 104.73 32.34 44.87 62.3-72.72 36.39-82.88-57.08-82.88-57.08s-68.79-16.26-61.73-67.91c4.37-31.93 29.16-50.55 65.37-49.87"/><path class="cls-5" d="M1187.59 239c-.61 9.62-4.57 13.87-17.2 13.28-9.63-.45-16.76-11-16.15-20.63s7.89-13 18-11.43c7.13 1.09 15.96 9.15 15.35 18.78z"/><path class="cls-6" d="M1250.99 242.87l9.43 86.15-51.34-2.4-.74-75.51 42.65-8.24z"/><path class="cls-7" d="M1208.9 291.06c42.89-9 42.89-52.3 42.89-52.3l-43.45 10.63z"/><path class="cls-6" d="M1224.51 150.27a75.14 75.14 0 0 0-33.84 3.1c-14.61 5-33 13.67-31.7 40.56 2.17 44.81 12.3 77.26 36.33 84.33 18.45 5.43 30.68.82 49.1-13.05 6.86-5.16 12.34-18.32 13.17-27.07l5.26-24.81s15.9-56.06-38.32-63.06z"/><path class="cls-4" d="M1184.41 210s2 3.84-4.82 5.12a43.46 43.46 0 0 0-9.53 2.51 4.64 4.64 0 0 1-4.66-.67c-.85-.82-.57-2.43-.21-3.23 1-2.22 2.47-5.34 8.81-6.59 8.14-1.56 10.41 2.86 10.41 2.86zM1207 208.35s-1.65 5.34 7.68 5.22c7.08-.08 15.71 1.33 19.78 2 2.32.37 4.81-.48 5.91-2a2.53 2.53 0 0 0-.54-3.66c-2.51-2-11.81-6.45-20.43-6.42-11.04.01-12.4 4.86-12.4 4.86z"/><path class="cls-1" d="M1210.67 231.64s8.26-16.83 30.18-6.17c0 0-9.12 15.84-30.18 6.17z"/><g clip-path="url(#clip-path)"><path class="cls-9" d="M1208.78 229.18a7.48 7.48 0 1 0 7.85-7.1 7.49 7.49 0 0 0-7.85 7.1z"/></g><path d="M1240.52 226.08a29.53 29.53 0 0 0-7.84-3.09 23 23 0 0 0-8.42-.64 18.17 18.17 0 0 0-7.88 3 17 17 0 0 0-5.71 6.3 17.21 17.21 0 0 1 5.51-6.59 18.68 18.68 0 0 1 8-3.39 24.22 24.22 0 0 1 8.74.3 30.39 30.39 0 0 1 8.29 2.9.7.7 0 0 1 .3.95.71.71 0 0 1-1 .29z"/><path class="cls-1" d="M1189.52 233.4s-10.53-13.08-19.62-.93c0 0 10.37 13.53 19.62.93z"/><g clip-path="url(#clip-path-2)"><path class="cls-9" d="M1178.17 230.82c1.4 3.77.43 7.61-2.15 8.57s-5.82-1.33-7.22-5.11-.43-7.61 2.16-8.57 5.81 1.29 7.21 5.11z"/></g><path d="M1169.3 232.11a12.31 12.31 0 0 1 4.44-4.28 9.76 9.76 0 0 1 2.93-1 5.48 5.48 0 0 1 1.56-.06 9.68 9.68 0 0 1 1.52.16 13.77 13.77 0 0 1 5.5 2.38 19.47 19.47 0 0 1 4.27 4.13 19 19 0 0 0-4.46-3.83 13.14 13.14 0 0 0-5.41-2 7.63 7.63 0 0 0-1.43-.08 4.8 4.8 0 0 0-1.38.14 8.58 8.58 0 0 0-2.57 1.09 11.11 11.11 0 0 0-3.77 4.08.7.7 0 0 1-1.22-.68z"/><path class="cls-11" d="M1193.97 243.32l-3.65 7.47 4.42 3.53M1213.78 261.13s-12.87-4.22-18.58 1.25"/><path class="cls-4" d="M1245.5 151.77s-18.33 26 13 72.51l26.81-32.65-14.31-13.76z"/><path class="cls-6" d="M1250.59 232.84c3.05 9.15 8 12.24 20 8.43 9.2-2.9 13.38-14.93 10.33-24.08s-11-10.54-20.39-6.42c-6.53 2.87-12.99 12.92-9.94 22.07z"/><path class="cls-11" d="M1271.32 219.84s-9.08-1-10.85 11.9"/><path class="cls-4" d="M1257.31 187.08c-1.51 1.36-45.7 10-80.32-13.19 0 0 15.41-27.55 31.93-29.79 45.95-6.23 48.39 42.98 48.39 42.98z"/><path class="cls-4" d="M1155.44 191.43c7.84 3.86 34.17-3 50.35-41.39 0 0-9.38-2-24.7 4.6a41.07 41.07 0 0 0-25.65 36.79z"/><rect class="cls-6" x="1088.65" y="324.02" width="51.07" height="173.8" rx="25.53" transform="rotate(-156.18 1114.19 410.91)"/><rect class="cls-6" x="1314.42" y="328.02" width="51.07" height="173.8" rx="25.53" transform="rotate(-23.82 1339.847 414.916)"/><path class="cls-6" d="M1148.12 613.5l4.99 179.92h24.71l14.44-179.92h-44.14zM1230.67 620.29l26.41 179.17 23.97-3.09-9.38-176.08h-41z"/><path class="cls-12" d="M1123.69 565.32l184.35 6s15.23-99-31.6-90l-122.1-9c-19.89.01-30.65 93-30.65 93z"/><path class="cls-6" d="M1263.29 287.36s-25.8-3.42-65.8-1.54c-44 2.06 6.51 88.65 41.25 75.51s24.55-73.97 24.55-73.97z"/><path class="cls-13" d="M1137.56 488.85c3.92-37.27 11.45-64.3 14.26-84.57L1082 380.54s47.54-97.91 127.32-96l1.36 14.52c8.6 12.79 37.77 10.41 47.85-1.26l1.9-10.76c60.88-5.36 106.43 100.88 106.43 100.88l-55.54 24.71c.7 21.24 3.35 53.75 3.36 90.51l-94.1-11.2z"/><path class="cls-14" d="M1255 792.63s-22.4 14.67-29.17 24.7c-2.26 3.35-1 9.23 1 9.81 5.89 1.69 15.84 1.47 20.86 1.22a22.39 22.39 0 0 0 6.07-1.14c7.44-2.49 26.49-9.53 29.81-17.38 4.38-10.39.23-16.42.23-16.42z"/><path class="cls-15" d="M1255 785.37s-36.27 32.18-28.14 34.51 28.14 0 28.14 0 26.21-6.93 28.6-17.3a21.38 21.38 0 0 0-3.15-17.3z"/><path class="cls-14" d="M1154.06 792.63s-22.4 14.67-29.17 24.7c-2.26 3.35-1 9.23 1 9.81 5.89 1.69 15.84 1.47 20.86 1.22a22.46 22.46 0 0 0 6.08-1.14c7.44-2.49 26.48-9.53 29.8-17.38 4.39-10.39.23-16.42.23-16.42z"/><path class="cls-15" d="M1154.06 785.37s-36.27 32.18-28.14 34.51 28.14 0 28.14 0 26.21-6.93 28.6-17.3a21.34 21.34 0 0 0-3.15-17.3z"/><path class="cls-12" d="M1180.35 772.83s35.89-246.9 9.54-278.89c-24.18-29.35-69.4-9.67-72.89 25.54-5 50.24 34.12 255.5 34.12 255.5zM1278.49 770.21s44.07-216.45 30.82-252.46c-15.73-42.76-90.45-49.68-86 32.25 4.22 78 28.7 221.71 28.7 221.71z"/><path class="cls-16" d="M1300.3 502.81s13.69 9.31-.31 98.4c-11.73 74.68-27 169.31-27 169.31M1195.2 567.64s0 21.56-3 57.07c-6.9 83.35-18.26 148.12-18.26 148.12M1184.67 493.71s11.73 8 10.53 36"/><path class="cls-6" d="M1377.49 441.18l-110.41 64.63c.69 2.32 5.7 18.93 5.7 18.93l102.27-30.31c29.44-20.16 4.44-38.72 2.44-53.25z"/><path class="cls-6" d="M1213.44 524.78c-2.53-4.86 22.08-13.52 28.66-14.31l-6.53-2.94c-1.56-.91-4.16-4.14-3.3-6.43s12.55 2.22 12.55 2.22c6.34 1.45 22.26 2.49 22.26 2.49l11.2 17.69c-10.79 7.57-21.72 12.23-31 14-1.47.29-18.84 9.62-20.74 7-1.44-2 17.57-13 15.63-13.18-1.06-.08-19.41 12.35-23.23 8.85-2.37-2.17 20.87-12.75 19.68-14.06-.78-.86-19.11 10.7-22.53 7.77-4.24-3.64 22.05-14.23 20.39-14.59-1.27-.23-21.29 8.88-23.04 5.49zM1094 451.84l105.58 30.84c-1.1 2.16-2.31 14.28-2.31 14.28l-116.72.87c-35.7-12.41-14.15-54.49 13.45-45.99z"/><path class="cls-6" d="M1249.38 499.88c2.52-4.86-22.09-13.52-28.67-14.31l6.53-2.94c1.56-.91 4.16-4.14 3.3-6.43s-12.55 2.22-12.55 2.22c-6 1.43-25.62 1.68-26.94 1.77l-2.05 16.52c10.79 7.57 17.27 14.12 26.55 15.9 1.48.29 18.85 9.62 20.74 7 1.44-2-17.57-13-15.63-13.18 1.07-.08 19.42 12.35 23.24 8.85 2.36-2.17-20.88-12.75-19.69-14.06.78-.86 19.12 10.7 22.53 7.77 4.24-3.64-22-14.23-20.39-14.59 1.25-.24 21.27 8.87 23.03 5.48z"/><path class="cls-16" d="M1151.82 404.28l10.5-39.18M1296.56 374.41l14.75 38.21M1197.49 285.82s-8.57 34.48 25.61 35.74 51.83-14.38 48.22-34.32M1308.61 400.89l50.51-28.87M1093.2 361.3l61 28.61M1151.55 414.93l159.76 10.78M1150.79 426.27l159.77 10.78"/><path class="cls-17" d="M478.35 208.59s-51.67-10.25-70.57 39.89c-9.22 24.44-8.41 64 26.8 65.58 0 0-48.49 21.41-45.45 23.12 82.71 46.5 92.86-10.81 92.86-10.81s68.78-16.26 61.72-67.91c-4.36-31.93-29.16-50.55-65.36-49.87"/><path class="cls-18" d="M444.77 308.11l-9.42 86.15 48.46-2.27 3.62-75.64-42.66-8.24z"/><rect class="cls-18" x="550.18" y="377.51" width="51.07" height="173.8" rx="25.53" transform="rotate(-23.82 575.667 464.403)"/><rect class="cls-18" x="340.68" y="432.02" width="51.07" height="148.45" rx="23.6" transform="rotate(-178.35 366.234 506.237)"/><path class="cls-6" d="M552.33 673.63l-5 179.92h-24.7l-14.44-179.92h44.14zM469.77 680.42l-26.41 179.17-23.96-3.08 9.37-176.09h41z"/><path class="cls-19" d="M576.76 625.46l-184.35 6s-15.24-99 31.59-90l122.1-9c19.9.01 30.66 93 30.66 93z"/><path class="cls-18" d="M437.15 347.49S463 344.07 503 346c44 2.06-6.51 88.65-41.25 75.51s-24.6-74.02-24.6-74.02z"/><path d="M562.88 549c-3.92-37.27-11.44-64.29-14.25-84.57l69.82-23.74s-45.61-97-125.39-95.09l-3.28 13.6c-8.6 12.8-37.77 10.41-47.85-1.25L440 347.16C349.76 346.07 333.59 448 333.59 448l55.54 24.71c-.7 21.24-3.35 53.76-3.35 90.51l94.09-11.2z" fill="#2b5d8a"/><path class="cls-14" d="M445.44 852.76s22.4 14.67 29.17 24.71c2.26 3.34 1 9.22-1 9.8-5.9 1.69-15.84 1.47-20.86 1.23a22.86 22.86 0 0 1-6.08-1.15c-7.44-2.49-26.48-9.52-29.8-17.38-4.39-10.38-.23-16.42-.23-16.42z"/><path class="cls-15" d="M445.44 845.5s36.27 32.18 28.14 34.51-28.14 0-28.14 0-26.21-6.93-28.6-17.3a21.34 21.34 0 0 1 3.15-17.3z"/><path class="cls-14" d="M546.38 852.76s22.4 14.67 29.17 24.71c2.26 3.34 1 9.22-1 9.8-5.89 1.69-15.84 1.47-20.86 1.23a22.94 22.94 0 0 1-6.08-1.15c-7.44-2.49-26.48-9.52-29.8-17.38-4.38-10.38-.23-16.42-.23-16.42z"/><path class="cls-15" d="M546.38 845.5s36.27 32.18 28.14 34.51-28.14 0-28.14 0-26.21-6.93-28.6-17.3a21.38 21.38 0 0 1 3.15-17.3z"/><path class="cls-19" d="M520.09 833s-35.89-246.9-9.54-278.89c24.18-29.35 69.41-9.66 72.9 25.54 5 50.24-34.13 255.5-34.13 255.5zM422 830.34s-44.06-216.45-30.81-252.46c15.73-42.76 90.45-49.68 86 32.26-4.21 78-28.7 221.7-28.7 221.7z"/><path class="cls-18" d="M341.33 547.23l118.48-31.7c1.21 2.1 9.83 17.16 9.83 17.16l-92.32 53.44c-34.88 7.53-45.62-26.51-35.99-38.9z"/><path class="cls-16" d="M548.63 464.41l-10.51-39.18M403.89 434.54l-14.76 38.21M391.83 461.02l-50.5-28.87M607.24 421.43l-61 28.61"/><path class="cls-18" d="M595.34 497.64l-109.88-5c.35 2.4-2.44 14.25-2.44 14.25l110.14 38.67c37.76-.22 31.02-47.02 2.18-47.92z"/><path class="cls-18" d="M432.75 492.72c-.81-5.42 25.27-5.63 31.76-4.25l-5.22-4.89c-1.19-1.37-2.6-5.27-1-7.16s11.15 6.17 11.15 6.17c5.26 3.32 23.69 9.89 24.91 10.41l-3.41 16.29c-12.65 3.66-20.91 7.76-30.27 6.44-1.48-.21-20.94 3-21.89-.07-.73-2.35 20.84-6.64 19.06-7.4-1-.43-22.38 5.39-24.86.84-1.53-2.82 23.88-5.3 23.18-6.93-.45-1.06-21.55 3.93-23.83.05-2.83-4.82 25.47-6.31 24-7.19-1.12-.66-23.01 1.46-23.58-2.31z"/><path class="cls-18" d="M455.43 520.73a16.69 16.69 0 0 1 16.74-8.88c6.57.7 16.24 2.17 23.78 5.16 11.8 4.69 21.5 16.23 19.34 19.33s-9.93-9.34-16.29-9.81c0 0 17.19 11.24 16.3 15.61-1 4.72-11.67-8.37-18.52-9.7 0 0 15.77 11.45 14.08 13.66-2.61 3.41-8.88-5.54-15.75-6.34 0 0 11.41 7 10.07 10.16s-15.66-9.18-23.7-8.06-14.6 3.14-20.48-1.27c-4.35-3.24-9.9-11.25-5.57-19.86z"/><path class="cls-18" d="M465.56 512.59s19.93-5.24 25.09-.86 6.6 6.85 6.6 6.85z"/><path class="cls-21" d="M655.18 207.41S704 187.53 732 233.17c13.69 22.25 10.3 67.14-13 78-80.3 37.34-45 12.57-45 12.57s-70.62-2.9-73.49-55c-1.78-32.18 19-55.17 54.7-61.37"/><path class="cls-5" d="M644.06 307c1.23 9.56-1.85 14.48-14.36 16.3-9.55 1.39-18.55-7.61-19.78-17.18s5.28-14.27 15.55-14.66c7.16-.29 17.35 5.95 18.59 15.54z"/><path class="cls-6" d="M707.04 298.74l22.16 63.95-50.14 10.52-12.33-58.28 40.31-16.19z"/><path class="cls-7" d="M674.87 354c40.4-17 32.18-59.48 32.18-59.48l-40.65 18.72z"/><path class="cls-6" d="M663.46 212.86a74.89 74.89 0 0 0-32.64 9.47C617.44 230 601 242 607.4 268.16c10.65 43.59 26.74 73.52 51.68 75.91 19.15 1.82 30.28-5 45.73-22.15 5.75-6.36 8.64-20.33 7.79-29.07l.46-25.36s4.94-58.06-49.6-54.63z"/><path class="cls-21" d="M635.44 279.14s2.74 3.38-3.77 5.95a43 43 0 0 0-8.87 4.27 4.63 4.63 0 0 1-4.71.22c-1-.64-1-2.27-.82-3.12.58-2.38 1.41-5.72 7.4-8.14 7.69-3.12 10.77.82 10.77.82zM657.31 273.2s-.6 5.56 8.53 3.67c6.94-1.43 15.68-1.68 19.81-1.8 2.34-.07 4.63-1.38 5.42-3.11a2.54 2.54 0 0 0-1.23-3.49c-2.84-1.47-12.84-4.08-21.27-2.42-10.86 2.14-11.26 7.15-11.26 7.15z"/><path class="cls-1" d="M665.32 295.37s4.91-18.1 28.47-11.79c0 0-5.95 17.29-28.47 11.79z"/><g clip-path="url(#clip-path-3)"><path class="cls-23" d="M662.83 293.39a7.48 7.48 0 1 0 6.35-8.45 7.47 7.47 0 0 0-6.35 8.45z"/></g><path d="M693.57 284.25a29.44 29.44 0 0 0-8.29-1.55 23 23 0 0 0-8.38 1 18.23 18.23 0 0 0-7.17 4.43 17.1 17.1 0 0 0-4.41 7.27 17.28 17.28 0 0 1 4.16-7.51 18.55 18.55 0 0 1 7.19-4.85 24.21 24.21 0 0 1 8.64-1.36 30.26 30.26 0 0 1 8.69 1.27.7.7 0 0 1-.4 1.34z"/><path class="cls-1" d="M644.88 301.11s-12.81-10.84-19.43 2.82c0 0 12.75 11.3 19.43-2.82z"/><g clip-path="url(#clip-path-4)"><path class="cls-23" d="M633.92 300.55c2.08 3.45 1.87 7.4-.49 8.83s-6-.2-8-3.65-1.87-7.39.48-8.82 5.92.2 8.01 3.64z"/></g><path d="M624.79 303.69a12.31 12.31 0 0 1 3.55-5.05 9.49 9.49 0 0 1 2.68-1.57 5.51 5.51 0 0 1 1.52-.36 8.59 8.59 0 0 1 1.52-.13 13.82 13.82 0 0 1 5.86 1.3 19.26 19.26 0 0 1 5 3.23 19.14 19.14 0 0 0-5.1-2.91 13.26 13.26 0 0 0-5.69-.92 8.4 8.4 0 0 0-1.41.2 5.14 5.14 0 0 0-1.33.4 8.45 8.45 0 0 0-2.32 1.56 11 11 0 0 0-2.92 4.72.7.7 0 0 1-1.33-.44z"/><path class="cls-11" d="M651.15 310.01l-2.17 8.03 5.01 2.63M665.94 323.16s-6.44 11.76-15.13 4.37z"/><path class="cls-21" d="M684.35 210.34s-13.06 29 26.58 68.72l20.12-37.16-16.71-10.78z"/><path class="cls-6" d="M704.74 289c4.74 8.4 10.15 10.5 21.27 4.47 8.48-4.59 10.3-17.19 5.56-25.6s-12.76-8.27-21.23-2.44c-5.89 4.04-10.34 15.14-5.6 23.57z"/><path class="cls-11" d="M722.63 272.27s-9.12.71-8.4 13.75"/><path class="cls-21" d="M702.65 242.77c-1.23 1.62-43 18.54-81.36 2.3 0 0 9.9-30 25.69-35.32 43.93-14.84 55.67 33.02 55.67 33.02z"/><path class="cls-21" d="M603.46 266.38c8.43 2.3 33-9.39 41.58-50.19 0 0-9.59-.15-23.38 9.2a41.07 41.07 0 0 0-18.2 40.99z"/><path class="cls-21" d="M645 216.19s-53.52-10.58-22.52-46.59 59.86-18.16 63-3.48 3.9 50.32-8.57 51.64-31.91-1.57-31.91-1.57z"/><path class="cls-6" d="M608.59 427c-13.28 6.37-28.49 11.32-39.25 21.8l-8 73a25.6 25.6 0 0 0 22.57 28.2 25.61 25.61 0 0 0 28.17-22.59l11.86-108.08c-5.06 2.59-10.21 5.15-15.35 7.67z"/><rect class="cls-6" x="773.95" y="438.53" width="51.07" height="148.45" rx="23.6" transform="rotate(-1.65 797.316 511.586)"/><path class="cls-6" d="M613.37 680.13l4.99 179.93h24.71l14.44-179.93h-44.14zM695.93 686.93l26.41 179.16 23.96-3.08-9.37-176.08h-41z"/><path class="cls-17" d="M588.94 632l184.35 6s15.23-99-31.59-90l-122.1-9c-19.89 0-30.66 93-30.66 93z"/><path class="cls-6" d="M728.54 354s-25.79-3.42-65.8-1.54c-44 2.06 6.51 88.65 41.25 75.51S728.54 354 728.54 354z"/><path d="M602.82 555.49c3.92-37.27 11.44-64.3 14.25-84.57l-69.82-23.74s47.54-97.91 127.32-96l1.35 14.52c8.6 12.79 37.77 10.41 47.85-1.26l1.9-10.76c90.27-1.09 106.44 100.87 106.44 100.87l-55.54 24.72c.7 21.24 3.35 53.75 3.35 90.51l-94.09-11.21z" fill="#f9d9c2"/><path class="cls-14" d="M720.26 859.27s-22.4 14.67-29.17 24.7c-2.26 3.35-1 9.22 1 9.81C698 895.46 708 895.25 713 895a22.46 22.46 0 0 0 6.08-1.14c7.44-2.49 26.48-9.53 29.8-17.38 4.39-10.39.23-16.42.23-16.42z"/><path class="cls-15" d="M720.26 852s-36.26 32.19-28.14 34.52 28.14 0 28.14 0 26.21-6.93 28.6-17.3a21.34 21.34 0 0 0-3.15-17.3z"/><path class="cls-14" d="M619.32 859.27s-22.4 14.67-29.17 24.7c-2.26 3.35-1 9.22 1 9.81 5.9 1.68 15.85 1.47 20.87 1.22a22.39 22.39 0 0 0 6.07-1.14c7.44-2.49 26.49-9.53 29.81-17.38 4.38-10.39.23-16.42.23-16.42z"/><path class="cls-15" d="M619.32 852s-36.27 32.18-28.15 34.51 28.15 0 28.15 0 26.21-6.93 28.6-17.3a21.38 21.38 0 0 0-3.15-17.3z"/><path class="cls-17" d="M645.61 839.47s35.88-246.91 9.54-278.89c-24.18-29.35-69.41-9.67-72.9 25.54-5 50.24 34.13 255.5 34.13 255.5zM743.75 836.85s44.06-216.45 30.81-252.46c-15.73-42.76-90.45-49.68-86 32.25 4.22 78 28.71 221.71 28.71 221.71z"/><path class="cls-16" d="M765.55 569.44s13.7 9.32-.3 98.41c-11.74 74.68-27 169.31-27 169.31M660.45 634.28s0 21.56-2.94 57.07c-6.91 83.35-18.26 148.12-18.26 148.12M649.93 560.35s11.73 8 10.52 36"/><path class="cls-18" d="M824.37 553.74L705.89 522c-1.21 2.1-9.83 17.15-9.83 17.15l92.32 53.44c34.87 7.57 45.62-26.46 35.99-38.85z"/><path class="cls-18" d="M655.43 540.55c-2.39-4.93 22.44-12.91 29-13.53l-6.43-3.11c-1.53-.95-4-4.26-3.12-6.53s12.48 2.56 12.48 2.56c6.3 1.63 22.18 3.1 22.18 3.1l10.72 18c-11 7.27-22 11.63-31.38 13.17-1.48.24-19.1 9.1-20.92 6.45-1.39-2 17.92-12.55 16-12.75-1.06-.1-19.74 11.83-23.46 8.22-2.31-2.23 21.21-12.18 20-13.52-.75-.88-19.39 10.18-22.73 7.16-4.14-3.76 22.43-13.63 20.78-14-1.2-.35-21.46 8.23-23.12 4.78z"/><path class="cls-16" d="M617.07 470.92l10.51-39.19M761.81 441.05l14.76 38.21"/><path class="cls-6" d="M592.85 502.51l111.7 14.42c-.85 2.27 2.07 19.32 2.07 19.32l-121.82 13.5c-36.86-8.2-20.32-52.5 8.05-47.24z"/><path class="cls-6" d="M759.15 517.81c.67-5.44-25.41-4.94-31.86-3.39l5.09-5c1.15-1.4 2.45-5.34.84-7.18s-11 6.46-11 6.46c-5.16 3.46-22.69 6.91-23.9 7.46l3.15 19.84c12.75 3.32 21.11 7.19 30.44 5.62 1.47-.25 21 2.42 21.88-.67.66-2.36-21-6.07-19.25-6.88 1-.45 22.51 4.78 24.86.17 1.46-2.86-24-4.66-23.36-6.3.43-1.08 21.65 3.34 23.83-.59 2.7-4.9-25.64-5.62-24.2-6.54 1.08-.75 23.02.79 23.48-3z"/><path class="cls-26" d="M268.56 226.54s-47.59-18.85-48.8 22.75c-.52 17.64-5.13 58.44 19.19 68.28 32.81 13.29 81.73-.91 81.73-.91s14.95-9.22 7.89-60.87c-4.36-31.93-18.58-36.77-28.17-38z"/><path class="cls-18" d="M303.49 303.38c.6 9.63 4.56 13.87 17.19 13.28 9.64-.45 16.76-11 16.16-20.62s-7.9-13-18.06-11.44c-7.07 1.09-15.9 9.15-15.29 18.78z"/><path class="cls-6" d="M240.08 307.25l-9.42 86.15 51.3-5.05-.78-71.64-41.1-9.46z"/><rect class="cls-6" x="340.81" y="381.76" width="51.07" height="173.8" rx="25.53" transform="rotate(-23.82 366.315 468.63)"/><rect class="cls-6" x="131.31" y="436.27" width="51.07" height="148.45" rx="23.6" transform="rotate(-178.35 156.867 510.492)"/><path class="cls-6" d="M360.92 659.37l-24.03 193.2-25.33-2.91-5.16-191.62 54.52 1.33zM264.62 656.04l-28.55 193.71-24.79 3.01-9.86-196.72h63.2z"/><path d="M367.39 629.71l-184.35 6s-15.24-99 31.59-90l122.1-9c19.89.01 30.66 93 30.66 93z" fill="#5ac2e2"/><path class="cls-6" d="M227.78 351.74s25.8-3.42 65.81-1.54c44 2.06-6.51 88.65-41.25 75.51s-24.56-73.97-24.56-73.97z"/><path d="M353.51 553.23c-3.92-37.27-6.42-36.91-9.23-57.18L399 479.31s-18.21-57.88-46.88-106.1c-10.89-18.32-44.28-23.76-70.31-24.3l-1.35 14.52c-8.6 12.8-37.77 10.41-47.85-1.25l-1.9-10.77c-32.28-.39-73.56 10.23-86.57 36.94-21.35 43.8-31 107.7-31 107.7l67.46 5.39c-.7 21.24-4.11 29.32-4.11 66.07l94.09-11.2z" fill="#ffeade"/><path class="cls-14" d="M236.07 857s22.4 14.67 29.17 24.71c2.26 3.34 1 9.22-1 9.8-5.89 1.69-15.84 1.47-20.86 1.23a22.86 22.86 0 0 1-6.08-1.15c-7.44-2.49-26.48-9.52-29.8-17.38-4.39-10.38-.23-16.42-.23-16.42z"/><path class="cls-15" d="M236.07 849.75s36.27 32.18 28.14 34.51-28.14 0-28.14 0-26.21-6.93-28.6-17.3a21.34 21.34 0 0 1 3.15-17.3z"/><path class="cls-14" d="M337 857s22.4 14.67 29.17 24.71c2.26 3.34 1 9.22-1 9.8-5.9 1.69-15.85 1.47-20.87 1.23a22.79 22.79 0 0 1-6.07-1.15c-7.44-2.49-26.49-9.52-29.81-17.38-4.38-10.38-.23-16.42-.23-16.42z"/><path class="cls-15" d="M337 849.75s36.27 32.18 28.15 34.51-28.15 0-28.15 0-26.21-6.93-28.6-17.3a21.38 21.38 0 0 1 3.15-17.3z"/><path class="cls-29" d="M289 841.62s-9.51-272.78 6.8-287.75c29.73-27.3 60-19.43 72.53 13.64 18.21 47.94-7.44 272-7.44 272zM191.42 836.37s-22.9-218.23-9.65-254.24c11.33-30.8 96-48.66 92.26-3.78-1.12 13.51-17.72 261.12-17.72 261.12z"/><path class="cls-1" d="M190.78 567.19c-.3 11-.61 22.07-.75 33.1l-.28 16.55-.15 16.55c-.13 22.07-.13 44.13.22 66.19.07 11 .4 22.06.61 33.09s.6 22.05 1 33.07l.62 16.54.85 16.53.37 8.27.49 8.26c.35 5.51.65 11 .93 16.54q-.9-8.24-1.72-16.48l-.83-8.24-.71-8.25-1.27-16.52-1-16.54-.51-8.27-.37-8.27-.7-16.56c-.29-11-.65-22.08-.77-33.13s-.15-22.09-.12-33.14l.21-16.56c.08-5.53.24-11 .39-16.57q.51-16.56 1.27-33.11l1-16.53c.32-5.51.74-11.02 1.22-16.52zM312.41 550.44a8.45 8.45 0 0 0-3.94 1.58 16.18 16.18 0 0 0-3.09 2.93 32.14 32.14 0 0 0-4.41 7.28 73.84 73.84 0 0 0-4.73 16.44c-2.16 11.24-2.73 22.73-3.19 34.2-.14 5.74-.34 11.48-.38 17.23l-.1 8.61v8.63c0 11.49.16 23 .4 34.48.42 23 1.24 46 2 69l1.16 34.5.48 17.26.22 8.63.14 8.63-2.31-34.45-2-34.48q-1.89-34.47-2.65-69c-.39-23-.49-46.08.77-69.12.74-11.49 1.56-23.06 4-34.39a75.42 75.42 0 0 1 5.45-16.47 32.79 32.79 0 0 1 4.79-7.25 16.82 16.82 0 0 1 3.31-2.82 8.65 8.65 0 0 1 4.08-1.42z"/><path class="cls-6" d="M132 551.48l109.2-31.08c1.21 2.1 8.36 21.56 8.36 21.56L168 590.38c-34.93 7.53-45.67-26.51-36-38.9z"/><path class="cls-6" d="M317.59 539.83c3-6.11-27.79-16-36-16.76l8-3.85c1.9-1.18 5-5.27 3.86-8.08S278 514.31 278 514.31c-29.74 2.59-39 6.9-39 6.9l7.57 22.54c13.61 9 18 11.08 29.57 13 1.83.3 23.64 11.27 25.9 8 1.72-2.5-22.19-15.54-19.79-15.78 1.32-.14 24.45 14.64 29.06 10.18 2.86-2.77-26.27-15.09-24.84-16.76.94-1.09 24 12.61 28.15 8.87 5.13-4.65-27.77-16.87-25.73-17.37 1.55-.42 26.64 10.19 28.7 5.94z"/><path class="cls-1" d="M346.58 480.61a88.2 88.2 0 0 1-3.75-9.49c-1.11-3.21-2.07-6.45-2.95-9.71s-1.66-6.56-2.31-9.88a87.16 87.16 0 0 1-1.49-10.1 86.17 86.17 0 0 1 3.75 9.49c1.11 3.2 2.07 6.45 2.95 9.71s1.66 6.56 2.3 9.88a87.18 87.18 0 0 1 1.5 10.1zM184.78 444.82c.26 4.77.23 9.51.1 14.24 0 2.37-.19 4.73-.29 7.1l-.45 7.08-.61 7.07c-.26 2.35-.46 4.71-.78 7.06-.57 4.7-1.25 9.39-2.23 14.07-.27-4.77-.24-9.51-.1-14.25 0-2.37.19-4.73.28-7.09l.45-7.08.62-7.07c.26-2.36.47-4.71.78-7.06.58-4.7 1.26-9.4 2.23-14.07z"/><path class="cls-6" d="M403.93 506.84l-77.46-67.18c-8.68-2.87-15.1 13.12-15.1 13.12l61.88 90.88c30.19 22.69 53.11-18.66 30.68-36.82z"/><path class="cls-6" d="M267.75 394.65c3.15-5.77 28.28 13 33.49 19l-1.45-8.48c-.14-2.16 1.34-6.93 4.21-7.6s6.19 14 6.19 14c2.62 7 15.49 26.69 16.28 28.07l-15.1 13.12c-14.78-5.7-25.66-7.77-33.66-15.84-1.27-1.28-22.22-12.35-20.9-16 1-2.77 24.77 8.79 23.62 6.76-.64-1.11-25.34-11.09-24.41-17.25.58-3.81 26.72 12.28 27.23 10.22.34-1.36-23.49-11.91-22.85-17.27.79-6.68 29 12.47 28.21 10.56-.61-1.39-23.07-15.26-20.86-19.29z"/><path class="cls-18" d="M280.89 358.27c-37.55-4.78-37.76-43.89-37.76-43.89l39.61-5.61z"/><path class="cls-6" d="M266.57 214.65a75 75 0 0 1 33.83 3.11c14.61 5 33 13.66 31.71 40.55-2.18 44.82-10 84.25-34 91.33-18.44 5.43-33-6.18-51.4-20.05-6.85-5.16-12.33-18.32-13.16-27.07l-5.27-24.8s-15.94-56.07 38.29-63.07z"/><path class="cls-26" d="M306.66 274.41s-2.05 3.84 4.83 5.12A44.34 44.34 0 0 1 321 282a4.61 4.61 0 0 0 4.66-.67c.85-.82.58-2.43.21-3.23-1-2.22-2.46-5.34-8.8-6.58-8.13-1.52-10.41 2.89-10.41 2.89zM284.06 272.73s1.65 5.34-7.68 5.23c-7.08-.09-15.71 1.32-19.79 2a6.28 6.28 0 0 1-5.91-2 2.55 2.55 0 0 1 .54-3.66c2.51-2 11.82-6.45 20.43-6.42 11.06 0 12.41 4.85 12.41 4.85z"/><path class="cls-1" d="M280.41 296s-8.27-16.83-30.19-6.17c0 .02 9.12 15.86 30.19 6.17z"/><g clip-path="url(#clip-path-5)"><path class="cls-9" d="M282.29 293.56a7.47 7.47 0 1 1-7.84-7.09 7.48 7.48 0 0 1 7.84 7.09z"/></g><path d="M249.88 289.24a30.55 30.55 0 0 1 8.3-2.89 24 24 0 0 1 8.73-.31 18.56 18.56 0 0 1 8 3.4 17.27 17.27 0 0 1 5.51 6.58 17.13 17.13 0 0 0-5.71-6.3 18.16 18.16 0 0 0-7.89-3 23.2 23.2 0 0 0-8.41.64 29.22 29.22 0 0 0-7.84 3.1.71.71 0 0 1-1-.26.7.7 0 0 1 .25-.95z"/><path class="cls-1" d="M301.56 297.78s10.53-13.08 19.62-.93c0 0-10.37 13.52-19.62.93z"/><g clip-path="url(#clip-path-6)"><path class="cls-9" d="M312.9 295.2c-1.39 3.78-.43 7.61 2.16 8.57s5.81-1.33 7.21-5.11.43-7.61-2.15-8.57-5.82 1.33-7.22 5.11z"/></g><path d="M320.57 297.21a11 11 0 0 0-3.76-4.09 8.58 8.58 0 0 0-2.57-1.09 5.26 5.26 0 0 0-1.38-.13 7.58 7.58 0 0 0-1.43.07 13.08 13.08 0 0 0-5.41 2 19 19 0 0 0-4.46 3.83 19.37 19.37 0 0 1 4.26-4.12 13.61 13.61 0 0 1 5.5-2.38 8.73 8.73 0 0 1 1.52-.17 5.94 5.94 0 0 1 1.57.06 9.7 9.7 0 0 1 2.92 1 12.34 12.34 0 0 1 4.45 4.28.71.71 0 0 1-.22 1 .7.7 0 0 1-1-.21z"/><path class="cls-11" d="M296.26 297.78l2 12.3c1.45 3 4.29 3.71-5.55 9.79M300.76 327.34c-8 13.7-23.46-1.83-23.46-1.83z"/><path class="cls-26" d="M252.07 227.54s11.84 14.6-19.54 61.12l-4-51z"/><path class="cls-6" d="M240.48 297.22c-3 9.15-8 12.24-20 8.43-9.2-2.9-13.38-14.92-10.33-24.07s11-10.55 20.38-6.43c6.54 2.85 13.01 12.92 9.95 22.07z"/><path class="cls-11" d="M219.76 284.23s9.08-1 10.85 11.9"/><path class="cls-26" d="M254.26 255.29c17.86 10.1 55.12 5.48 62.05-17.58 0 0 .19-23.46-25.74-20.7-21.66 2.32-36.31 38.28-36.31 38.28z"/><path class="cls-26" d="M336.87 242.57c-6.48 14.67-62.95 18.64-51.58-28.14 0 0 8.25 1.9 24.7 4.59 24.83 4.07 26.88 23.55 26.88 23.55z"/><path class="cls-26" d="M251.32 213.52s-23.24 10-26.12 27a146.9 146.9 0 0 0-1.63 32.48l15.72 11.26s16.13-28.92 23.38-34.17c2.72-2 20.62-4.46 21.5-9.5.84-4.82 24.12-15.41 16.23-22.78-13.33-12.52-45.94-4.96-49.08-4.29zM320.16 243l10.16 44s6.55-9.53 6.55-27-8.75-22.33-8.75-22.33z"/><path class="cls-2" d="M80.19 645.25l7.6 174.59 32.6-4.63 23.7-170.14"/><path class="cls-5" d="M508.18 304.24c.6 9.62 4.56 13.87 17.19 13.28 9.64-.45 16.76-11 16.16-20.62s-7.9-13-18.06-11.44c-7.07 1.09-15.9 9.15-15.29 18.78z"/><path class="cls-7" d="M491.33 352.76c-56-9.3-47.49-55.29-47.49-55.29L501.35 313z"/><path class="cls-18" d="M471.26 215.51a75 75 0 0 1 33.83 3.11c14.61 5 33 13.66 31.71 40.55-2.18 44.82-12.3 77.26-36.33 84.33-18.45 5.44-30.69.82-49.11-13.05-6.85-5.16-12.33-18.32-13.16-27.07l-5.27-24.81s-15.93-56.06 38.33-63.06z"/><path class="cls-17" d="M511.35 275.27s-2.05 3.84 4.83 5.12a44.34 44.34 0 0 1 9.52 2.51 4.61 4.61 0 0 0 4.66-.67c.85-.82.58-2.43.21-3.23-1-2.22-2.46-5.34-8.8-6.58-8.14-1.6-10.42 2.85-10.42 2.85zM488.75 273.59s1.65 5.34-7.68 5.23c-7.08-.09-15.71 1.32-19.79 2-2.31.37-4.81-.48-5.91-2a2.53 2.53 0 0 1 .54-3.66c2.51-2 11.82-6.45 20.43-6.42 11.06 0 12.41 4.85 12.41 4.85z"/><path class="cls-1" d="M485.1 296.88s-8.27-16.83-30.19-6.17c0 0 9.09 15.84 30.19 6.17z"/><g clip-path="url(#clip-path-7)"><path class="cls-13" d="M468.86 293a7.48 7.48 0 1 1-7.85-7.09 7.47 7.47 0 0 1 7.85 7.09z"/></g><path d="M454.57 290.1a30.22 30.22 0 0 1 8.3-2.89 24 24 0 0 1 8.73-.31 18.56 18.56 0 0 1 8 3.4 17.27 17.27 0 0 1 5.51 6.58 17.13 17.13 0 0 0-5.71-6.3 18.16 18.16 0 0 0-7.89-3 23.2 23.2 0 0 0-8.41.64 29.53 29.53 0 0 0-7.84 3.09.7.7 0 1 1-.71-1.2z"/><path class="cls-1" d="M506.25 298.64s10.53-13.08 19.61-.93c0 0-10.36 13.52-19.61.93z"/><g clip-path="url(#clip-path-8)"><path class="cls-13" d="M506.38 296.9c-1.39 3.78-.43 7.62 2.16 8.58s5.81-1.33 7.21-5.11.43-7.62-2.15-8.57-5.82 1.33-7.22 5.1z"/></g><path d="M525.26 298.07a11 11 0 0 0-3.76-4.07 8.69 8.69 0 0 0-2.57-1.09 4.53 4.53 0 0 0-1.38-.13 7.58 7.58 0 0 0-1.43.07 13.08 13.08 0 0 0-5.41 2 19 19 0 0 0-4.46 3.83 19.37 19.37 0 0 1 4.26-4.12 13.61 13.61 0 0 1 5.5-2.38 8.73 8.73 0 0 1 1.52-.17 5.94 5.94 0 0 1 1.57.06 9.7 9.7 0 0 1 2.92 1 12.34 12.34 0 0 1 4.45 4.28.71.71 0 0 1-.22 1 .7.7 0 0 1-1-.21z"/><path class="cls-11" d="M499.23 295.39l2.41 19.95-8.93-1.37M487 321.84s7.46 6 16.27 1.72"/><path class="cls-17" d="M450.26 217s18.34 26-13 72.51l-26.81-32.65 14.36-13.76z"/><path class="cls-18" d="M445.17 298.08c-3.05 9.15-8 12.24-20 8.43-9.2-2.9-13.38-14.92-10.33-24.07s11-10.55 20.38-6.43c6.54 2.87 13.01 12.92 9.95 22.07z"/><path d="M424.45 285.08s9.08-1 10.85 11.91" fill="#de8d68" stroke="#ca5e34" stroke-linecap="round" stroke-linejoin="round" stroke-width=".87"/><path class="cls-17" d="M429.87 253.27s34.06 13.35 65.17 16c34.62 3 46.52-.6 46.52-.6s7.47-47.21-35.31-57.37c-28.09-6.63-75.61-14.54-76.38 41.97z"/></svg>