<svg id="Layer_1" data-name="Layer 1" xmlns="http://www.w3.org/2000/svg" viewBox="0 0 500 500"><defs><style>.cls-2{fill:#fff}.cls-7{fill:#84a9ff}.cls-12{fill:#2c2c2c}</style></defs><path d="M316.26 74.43c-13.78-.34-74.85-2.16-90.22-.81-26.93 2.38-92.11 11.09-144.61 68.3C62.69 162.34 12.89 334 91 382.1c131.42 81 394.39-7.86 362.52-182.2C427.11 55.64 336.74 74.93 316.26 74.43z" fill="#c4e5e5"/><path class="cls-2" d="M249.06 55.19c4.7 5.42 9 11.13 14 16.29 1.56 1.6 4-.85 2.45-2.45-5-5.16-9.34-10.86-14.05-16.28-1.46-1.69-3.9.77-2.44 2.44zM257.41 52q7.11 8.11 13.7 16.63c1.36 1.76 3.79-.71 2.44-2.45q-6.6-8.54-13.7-16.62c-1.47-1.68-3.91.78-2.44 2.44z"/><path class="cls-2" d="M249.37 63c6.62-2.8 13.21-5.61 19.65-8.8 2-1 .25-4-1.74-3-6.45 3.19-13 6-19.65 8.79-2 .86-.29 3.85 1.74 3zM254.32 69.93A202.23 202.23 0 0 1 273 61.7c2.06-.79 1.17-4.14-.92-3.34-6.66 2.55-13.1 5.38-19.48 8.58-2 1-.24 4 1.75 3zM280 61c4.62.15 9.23.45 13.85.47a1.73 1.73 0 0 0 0-3.46c-4.62 0-9.23-.32-13.85-.47-2.22-.07-2.22 3.38 0 3.46z"/><path class="cls-2" d="M288.46 66.66c.29-5.08.48-10.18.76-15.27.12-2.22-3.34-2.21-3.46 0-.28 5.09-.47 10.19-.75 15.27-.13 2.23 3.33 2.22 3.45 0z"/><path class="cls-2" d="M279.64 54.38a124.65 124.65 0 0 0 11.72 11.83c1.67 1.45 4.13-1 2.44-2.44a128.19 128.19 0 0 1-11.71-11.83c-1.49-1.67-3.92.78-2.45 2.44z"/><path class="cls-2" d="M282.26 66.66a99.94 99.94 0 0 1 11.86-11.14c1.76-1.33 0-4.34-1.74-3a104.49 104.49 0 0 0-12.57 11.69c-1.53 1.61.91 4.06 2.45 2.44zM309.23 51.57c-3.79.49-6.61 5.26-4.69 8.91a3.73 3.73 0 0 0 4.73 1.52c2.58-1 4-4.46 4.43-7h-3.33c.74 1.84 2.44 5.68 4.88 5.69s3.85-3.76 4-5.77c.64-7.41-7.27-11-13.46-8.14-5.91 2.75-9.35 10.66-5.78 16.49 3.8 6.2 13.71 7.22 18.11 1.14 1.31-1.81-1.69-3.53-3-1.75-2.9 4-9.81 2.64-12.13-1.13-2-3.32-.71-7.35 1.87-9.93 2.88-2.88 9.41-3.81 10.78 1.11.45 1.62 0 2.72-.64 4.16-.48.47-.25.59.67.37a7 7 0 0 1-.82-1.06c-.29-.73-.87-1.36-1.18-2.1-.55-1.38-3-1.9-3.33 0-.1.6-1.39 5.36-2.76 4.69-1-.47.89-3.62 1.62-3.72 2.18-.28 2.21-3.74 0-3.46zM330.71 73.59a1.73 1.73 0 0 0 0-3.46 1.73 1.73 0 0 0 0 3.46zM327.55 50.74c-4.07-2.22-.36-5.61 2.63-4.62 4.4 1.45.52 5.72-.54 8.24-1.71 4.07-1.76 8.47-1.17 12.76.3 2.2 3.63 1.27 3.33-.92a20.78 20.78 0 0 1 .75-9.75c.85-2.39 2.9-4.32 3.39-6.85.68-3.57-2.22-6.32-5.51-7-7.05-1.52-11.27 7.54-4.63 11.16 2 1.07 3.7-1.92 1.75-3zM342.24 70.13v-.57a1.74 1.74 0 0 0-1.73-1.73 1.76 1.76 0 0 0-1.73 1.73v.57a1.73 1.73 0 0 0 3.46 0zM342.65 64.9c1-6.93 1.65-13.92 2.81-20.83.37-2.18-3-3.12-3.33-.92-1.16 6.91-1.78 13.9-2.82 20.83-.33 2.18 3 3.12 3.34.92z"/><path d="M71 420.87a11.4 11.4 0 0 1 3.76 2.13 13.34 13.34 0 0 1 2.73 3.13 14.84 14.84 0 0 1 2.27 7.87 25 25 0 0 1-.76 6.2 14.66 14.66 0 0 1-2.48 5.29 12.14 12.14 0 0 1-4.64 3.68 16.89 16.89 0 0 1-7.17 1.36c-.91 0-1.44-.28-1.58-.86a10.72 10.72 0 0 1-.29-1.94c-.1-1.59-.21-3.14-.32-4.65s-.26-3.06-.4-4.64q-.72-6-1-12.1t-.72-12.17q-.21-2.88-.68-5.65a32.67 32.67 0 0 1-.47-5.58c0-.77 0-1.43.07-2a3.16 3.16 0 0 1 .4-1.37 2 2 0 0 1 1-.82 5.1 5.1 0 0 1 2-.29 23.87 23.87 0 0 1 5.65.68 14.26 14.26 0 0 1 4.89 2.2 12 12 0 0 1 3.46 3.81 11.05 11.05 0 0 1 1.28 5.64 13 13 0 0 1-.43 3.31 10.2 10.2 0 0 1-1.33 3 9.24 9.24 0 0 1-2.2 2.34 8.51 8.51 0 0 1-3.04 1.43zm-6.27-15.26q0 1.14.15 3.06c.09 1.27.22 2.5.39 3.7s.34 2.25.51 3.14.34 1.33.54 1.33a6.92 6.92 0 0 0 2.3-.4 5.61 5.61 0 0 0 2.09-1.29 6.28 6.28 0 0 0 1.47-2.31 9.3 9.3 0 0 0 .54-3.35 5.65 5.65 0 0 0-.68-2.44 8.21 8.21 0 0 0-3.85-3.57 5.89 5.89 0 0 0-2.38-.54c-.57 0-.9.34-1 1s-.1 1.23-.1 1.67zm7.49 36.72a14.63 14.63 0 0 0 1.8-4.54 15.54 15.54 0 0 0 .32-5.47 11.29 11.29 0 0 0-1.9-5.08 8.73 8.73 0 0 0-4.76-3.35h-.28v6c0 2.16 0 4.25.14 6.26s.23 3.76.4 5.22.44 2.2.82 2.2a8.92 8.92 0 0 0 2-.25 2 2 0 0 0 1.44-.99zM101.21 448.16a9.43 9.43 0 0 1-2.73.43 7.1 7.1 0 0 1-4.18-1.26 11.84 11.84 0 0 1-3.13-3.33 20.38 20.38 0 0 1-2.2-4.65 46.52 46.52 0 0 1-2.16-10.29c-.14-1.63-.21-3-.21-4.18s0-2.71.11-4.39.22-3.42.46-5.22a41.36 41.36 0 0 1 1.08-5.36 19.3 19.3 0 0 1 2-4.76 10.75 10.75 0 0 1 3-3.38 7.36 7.36 0 0 1 4.39-1.3 7.69 7.69 0 0 1 5.22 1.91 15 15 0 0 1 3.6 4.72 24.72 24.72 0 0 1 2.09 6 26.57 26.57 0 0 1 .69 5.55c0 1.63-.41 2.64-1.23 3a7.55 7.55 0 0 1-3.24.58c-1.25 0-2.48 0-3.71-.07s-2.46-.08-3.7-.08a8.51 8.51 0 0 0-2.92.51 2.27 2.27 0 0 0-1.4 2.45 13 13 0 0 0 .14 2c.1.64.19 1.3.29 2s.12 2 .21 3.49a31.82 31.82 0 0 0 .65 4.57 14.05 14.05 0 0 0 1.48 4 3.06 3.06 0 0 0 2.77 1.69 2.52 2.52 0 0 0 2.45-1.44 11.39 11.39 0 0 0 1-3.21c.19-1.17.32-2.29.39-3.34s.25-1.66.54-1.8a2.58 2.58 0 0 1 .94-.36 5.46 5.46 0 0 1 .93-.08 16.93 16.93 0 0 1 1.88.11 16.61 16.61 0 0 0 1.87.11c.53 0 .83.13.9.4a4.13 4.13 0 0 1 .11 1 17.83 17.83 0 0 1-.54 4.18 17.3 17.3 0 0 1-1.59 4.17 13.48 13.48 0 0 1-2.63 3.46 9.14 9.14 0 0 1-3.62 2.17zM93.87 415c-.05.24-.1.49-.14.75a4.18 4.18 0 0 0-.08.76c0 .33.27.55.8.65a7.79 7.79 0 0 0 1.15.14 13.26 13.26 0 0 0 2.63-.25l2.55-.54 1.55-.25c.41-.08.61-.54.61-1.41a9.45 9.45 0 0 0-.43-2.52 13 13 0 0 0-1.22-2.88 10.08 10.08 0 0 0-1.84-2.34 3.27 3.27 0 0 0-2.27-1 2.4 2.4 0 0 0-1.91.79 4.71 4.71 0 0 0-1 1.87 11.87 11.87 0 0 0-.36 2.31c0 .81-.07 1.51-.07 2.09V415zM133.54 451.25a9.38 9.38 0 0 1-3.13 3.78 7.81 7.81 0 0 1-8.86.33 12 12 0 0 1-3.27-3.13 15.79 15.79 0 0 1-2.13-4.22 14.16 14.16 0 0 1-.75-4.39c0-.19.24-.36.72-.5a15.42 15.42 0 0 1 1.65-.4c.63-.12 1.22-.21 1.77-.29a10.5 10.5 0 0 0 1.11-.18q.15 1.15.36 2.67a14.81 14.81 0 0 0 .72 2.88 6.56 6.56 0 0 0 1.41 2.3 3.16 3.16 0 0 0 2.41.94 2.94 2.94 0 0 0 2.41-1.26 10 10 0 0 0 1.55-3 17.84 17.84 0 0 0 .79-3.53 24.23 24.23 0 0 0 .22-2.88c0-1.82-.07-3.56-.22-5.22a11.39 11.39 0 0 0-1.19-4.35 7 7 0 0 0-2.88-3 10.79 10.79 0 0 0-5.29-1.08l-1.22.08a1.32 1.32 0 0 1-1.08-.8 4.93 4.93 0 0 1-.47-1.69 7.74 7.74 0 0 1 0-2 7.41 7.41 0 0 1 .43-1.73l2.34.15a10.68 10.68 0 0 0 2.55-.15 5.86 5.86 0 0 0 2.16-.79 2.76 2.76 0 0 0 1.23-1.87c.38-1.73.71-3.52 1-5.36a39.06 39.06 0 0 0 .4-5.44c0-.67 0-1.5-.08-2.48a13.24 13.24 0 0 0-.43-2.85 6.11 6.11 0 0 0-1.15-2.34 2.64 2.64 0 0 0-2.16-1 3.25 3.25 0 0 0-2.41.9 6.26 6.26 0 0 0-1.41 2.23 14.29 14.29 0 0 0-.72 2.81c-.14 1-.26 1.86-.36 2.63-.19-.05-.56-.12-1.11-.22s-1.14-.23-1.77-.39A16 16 0 0 1 115 406c-.48-.2-.72-.36-.72-.51a17 17 0 0 1 .57-4.07 14.67 14.67 0 0 1 1.84-4.24 11.61 11.61 0 0 1 3.31-3.38 8.1 8.1 0 0 1 4.72-1.37 7.3 7.3 0 0 1 5 1.62 10.68 10.68 0 0 1 2.88 4 18.39 18.39 0 0 1 1.34 5.11 44.88 44.88 0 0 1 .32 5.11c0 1.39-.05 2.83-.14 4.32a22.68 22.68 0 0 1-.72 4.36 12.77 12.77 0 0 1-1.77 3.85 8.66 8.66 0 0 1-3.35 2.81 7 7 0 0 1 5.12 3.78 24.19 24.19 0 0 1 1.87 7.52c.09 1 .18 1.92.25 2.88s.11 1.94.11 2.95a34.91 34.91 0 0 1-.43 5.37 19.06 19.06 0 0 1-1.66 5.14zM142.18 395.53a.61.61 0 0 0 0-.22.43.43 0 0 1 0-.22 1 1 0 0 1 .58-1 3.79 3.79 0 0 1 1.33-.43 7.64 7.64 0 0 1 1.51-.07h1.19a15.75 15.75 0 0 1 7.81 1.7 12.38 12.38 0 0 1 4.68 4.57 18.73 18.73 0 0 1 2.3 6.55 46.63 46.63 0 0 1 .62 7.7q0 5-.11 9.9t-.47 9.9c-.1 1.44-.19 2.88-.29 4.32s-.14 2.91-.14 4.4a18 18 0 0 1-.58 4.5 13.16 13.16 0 0 1-1.76 4.06 9.84 9.84 0 0 1-3 3 8.22 8.22 0 0 1-4.42 1.15 9.64 9.64 0 0 1-3.1-.51 10.47 10.47 0 0 1-2.74-1.36 5.73 5.73 0 0 1-1.87-3.32 34.09 34.09 0 0 1-.93-5.36c-.2-1.94-.3-3.84-.33-5.69s0-3.27 0-4.28v-6.12a56.3 56.3 0 0 1 .25-6.12h.07a14.5 14.5 0 0 1 2.6-7.09c1.34-1.76 3.64-2.63 6.91-2.63a4.42 4.42 0 0 1 2.41.61 3.31 3.31 0 0 0 1.33.61 1.43 1.43 0 0 0 .29 0 .36.36 0 0 0 .22-.18l.07-2.24c0-3.88-.83-6.92-2.49-9.1s-4.62-3.28-8.89-3.28a2.73 2.73 0 0 1-1.4-.29 1.83 1.83 0 0 1-.72-.83 5.63 5.63 0 0 1-.4-1.22c-.27-.47-.38-.94-.53-1.41zm13.32 47.16q.28-6.19.36-12.32t.15-12.31a3 3 0 0 0-1.12-.36 9.73 9.73 0 0 0-1.19-.07c-2.11 0-3.52.61-4.21 1.84a10.92 10.92 0 0 0-1.26 4.64h-.07q-.15 2.08-.15 4.14v4.14q0 3 .15 5.94t.14 5.94c0 .62 0 1.3.07 2a6.23 6.23 0 0 0 .44 2 3.13 3.13 0 0 0 3.24 2.05 4.24 4.24 0 0 0 1.87-.43 5 5 0 0 0 .72-1.48 14.89 14.89 0 0 0 .47-1.94c.11-.7.21-1.38.28-2.06a14.53 14.53 0 0 0 .11-1.72zM182.14 448.16a9.43 9.43 0 0 1-2.73.43 7.1 7.1 0 0 1-4.18-1.26 11.7 11.7 0 0 1-3.13-3.33 20.38 20.38 0 0 1-2.2-4.65 46.52 46.52 0 0 1-2.16-10.29c-.14-1.63-.21-3-.21-4.18s0-2.71.1-4.39.23-3.42.47-5.22a41.36 41.36 0 0 1 1.08-5.36 19.3 19.3 0 0 1 1.95-4.76 10.75 10.75 0 0 1 3-3.38 7.34 7.34 0 0 1 4.39-1.3 7.69 7.69 0 0 1 5.22 1.91 15.1 15.1 0 0 1 3.6 4.72 25.15 25.15 0 0 1 2.09 6 27.17 27.17 0 0 1 .68 5.55c0 1.63-.41 2.64-1.22 3a7.61 7.61 0 0 1-3.24.58c-1.25 0-2.48 0-3.71-.07s-2.46-.08-3.71-.08a8.45 8.45 0 0 0-2.91.51 2.28 2.28 0 0 0-1.41 2.45 13 13 0 0 0 .15 2c.09.64.19 1.3.29 2s.11 2 .21 3.49a30.47 30.47 0 0 0 .65 4.57 13.76 13.76 0 0 0 1.48 4 3 3 0 0 0 2.77 1.69 2.53 2.53 0 0 0 2.45-1.44 11.38 11.38 0 0 0 1-3.21c.19-1.17.33-2.29.4-3.34s.25-1.66.54-1.8a2.51 2.51 0 0 1 .94-.36 5.28 5.28 0 0 1 .93-.08 16.75 16.75 0 0 1 1.87.11 16.93 16.93 0 0 0 1.88.11c.52 0 .82.13.9.4a4.19 4.19 0 0 1 .1 1 18.6 18.6 0 0 1-2.12 8.35 13.71 13.71 0 0 1-2.63 3.46 9.28 9.28 0 0 1-3.58 2.17zM174.8 415q-.08.36-.15.75a4.13 4.13 0 0 0-.07.76c0 .33.26.55.79.65a7.89 7.89 0 0 0 1.16.14 13.16 13.16 0 0 0 2.62-.25l2.56-.54 1.55-.25c.4-.08.61-.54.61-1.41a9.45 9.45 0 0 0-.43-2.52 12.62 12.62 0 0 0-1.23-2.88 10.32 10.32 0 0 0-1.83-2.34 3.28 3.28 0 0 0-2.27-1 2.38 2.38 0 0 0-1.91.79 4.58 4.58 0 0 0-1 1.87 11.87 11.87 0 0 0-.36 2.31c-.05.81-.07 1.51-.07 2.09V415zM213 392.79a9.27 9.27 0 0 1 3.6 4.18 29.57 29.57 0 0 1 2.12 6.22 47.08 47.08 0 0 1 1 6.74c.17 2.25.25 4.15.25 5.68 0 .82 0 1.61-.07 2.38H216.66a6.16 6.16 0 0 1-.94-.18l-.83-.22a.62.62 0 0 1-.32-.18.65.65 0 0 1-.07-.36 3.84 3.84 0 0 0-.15-.83 46.36 46.36 0 0 1-.28-4.68 51.6 51.6 0 0 0-.51-6.05 16.42 16.42 0 0 0-1.62-5.29 3.86 3.86 0 0 0-3.63-2.27 3.65 3.65 0 0 0-3.32 2 15.37 15.37 0 0 0-1.69 4.68 32 32 0 0 0-.61 5.4c0 1.8-.07 3.16-.07 4.07 0 1.25 0 2.47.07 3.67s.07 2.43.07 3.68v3.88c0 1.77 0 3.76.1 5.94s.27 4.46.51 6.81a46.65 46.65 0 0 0 1.08 6.44 16.16 16.16 0 0 0 1.87 4.75 3.35 3.35 0 0 0 2.88 1.84 2.71 2.71 0 0 0 1.48-.43 4.32 4.32 0 0 0 1.18-1.12 6.46 6.46 0 0 0 .83-1.47q.33-.79.54-1.44a10.8 10.8 0 0 0 .25-2.67 10.68 10.68 0 0 1 .26-2.66c.14-.48.25-.83.32-1.05a.71.71 0 0 1 .32-.43 1.36 1.36 0 0 1 .58-.11c.24 0 .6 0 1.08-.07l1.76-.18c.6-.07 1.22-.15 1.84-.25-.1 1.25-.18 2.54-.25 3.89a38 38 0 0 1-.43 4 23 23 0 0 1-1 3.86 10.48 10.48 0 0 1-1.94 3.38 8.77 8.77 0 0 1-2.77 2.3 7.28 7.28 0 0 1-3.49.87 7.45 7.45 0 0 1-5.33-2.23 17.52 17.52 0 0 1-4.36-6.84 44.07 44.07 0 0 1-2.12-8.61 72.16 72.16 0 0 1-.72-9.07q-.08-4.57-.07-8.32 0-4 .1-7.92t.4-7.92a40.2 40.2 0 0 1 .79-5.22 17.92 17.92 0 0 1 1.8-4.82 10.37 10.37 0 0 1 3.24-3.56 9.15 9.15 0 0 1 5.26-1.37 8.19 8.19 0 0 1 4.25 1.16zM246.29 402.08c.19 3.12.46 6.23.79 9.32a86.11 86.11 0 0 1 .51 9.4c0 2.06-.06 4.13-.18 6.19s-.25 4.13-.4 6.19q-.13 2.44-.47 6.12a34.6 34.6 0 0 1-1.36 7.09 18.27 18.27 0 0 1-3 5.91 6.5 6.5 0 0 1-5.4 2.48q-4.6 0-7-2.88a10.92 10.92 0 0 1-2.41-7.27c0-.82 0-1.64.1-2.48a8.68 8.68 0 0 1 .51-2.31 3.6 3.6 0 0 1 1.29-1.69 4.34 4.34 0 0 1 2.56-.65.84.84 0 0 1 .47.18.55.55 0 0 1 .25.47 1.81 1.81 0 0 1-.25.94 1.78 1.78 0 0 0-.25.93c0 .58 0 1.42.14 2.52a21 21 0 0 0 .58 3.35 11 11 0 0 0 1.15 2.92 2.14 2.14 0 0 0 1.87 1.22 2.33 2.33 0 0 0 1.19-.32 5.17 5.17 0 0 0 1-.76 5.26 5.26 0 0 0 1.33-1.91 11.22 11.22 0 0 0 .69-2.37c.14-.84.25-1.7.32-2.56s.16-1.66.25-2.38c.19-1.92.34-3.84.43-5.76s.17-3.86.22-5.83c.1-2.49.2-5 .32-7.49s.18-5 .18-7.56v-1.36a2.83 2.83 0 0 0-.4-1.37 12.42 12.42 0 0 1-2.12 3.53 4.56 4.56 0 0 1-3.64 1.65 6.61 6.61 0 0 1-5-1.94 13.48 13.48 0 0 1-2.91-4.75 25.12 25.12 0 0 1-1.41-5.91 47.43 47.43 0 0 1-.36-5.4 2.88 2.88 0 0 1 1-2.45 4.26 4.26 0 0 1 2.63-.79 1.89 1.89 0 0 1 1.26.4 2.29 2.29 0 0 1 .68 1 5.29 5.29 0 0 1 .29 1.26c0 .46.07.9.07 1.33 0 1.2 0 2.4-.11 3.6a16.73 16.73 0 0 0 .18 3.6 13.24 13.24 0 0 0 .47 1.66 9.15 9.15 0 0 0 .83 1.76 5.64 5.64 0 0 0 1.19 1.41 2.33 2.33 0 0 0 1.54.57 2.61 2.61 0 0 0 2.09-.93 7.1 7.1 0 0 0 1.26-2.27 13.5 13.5 0 0 0 .65-2.74 18.83 18.83 0 0 0 .18-2.34 12.55 12.55 0 0 0-.32-2.81 11.85 11.85 0 0 1-.33-2.8 1.33 1.33 0 0 1 1.05-1.48 8.26 8.26 0 0 1 2-.25h1.76a2.92 2.92 0 0 1 1.22.29 1.5 1.5 0 0 1 .69.87 6 6 0 0 1 .21 1.83c0 .63 0 1.26-.07 1.91a12.18 12.18 0 0 0-.01 1.91zM254.5 450.75a18.45 18.45 0 0 1-.36-2.81c0-1-.07-1.92-.07-2.88q0-3.88.32-7.74t.33-7.74q0-3.16-.29-6.3t-.29-6.3c0-2 .07-4 .22-6s.21-4 .21-6c0-1.73 0-3.45-.14-5.15s-.15-3.42-.15-5.15v-.86-1.19a3 3 0 0 1 .22-1 .57.57 0 0 1 .54-.44 4.13 4.13 0 0 1 1.33.36c.6.24 1.07.41 1.4.51.67.24 1.16.39 1.48.47s.47.61.47 1.62a17.88 17.88 0 0 1-.15 2.3 17.86 17.86 0 0 0-.14 2.3c0 1.44 0 2.87.11 4.29s.1 2.82.1 4.21q.07 8.21.22 16.24t.14 16.23v4.83c0 .52.47 1 1.41 1.33a17.11 17.11 0 0 0 3.17.86c1.17.22 2.32.37 3.45.47s1.88.17 2.27.22c-.1-2.45-.14-4.89-.14-7.31s-.05-4.89-.15-7.38c-.1-3.31-.19-6.63-.29-9.94s-.28-6.65-.57-10a14.58 14.58 0 0 1-.07-1.51v-1.51c0-1.25 0-2.51.07-3.78a25.06 25.06 0 0 0-.15-3.78 10.87 10.87 0 0 0-.25-1.66 7.38 7.38 0 0 1-.18-1.65c0-1 .37-1.62 1.12-1.84a8.53 8.53 0 0 1 2.34-.32q2 0 2.34.75a7.07 7.07 0 0 1 .32 2.49 21.63 21.63 0 0 1-.18 2.81 20.86 20.86 0 0 0-.18 2.73q0 10.59.4 21.06t.68 21a23 23 0 0 0 5-.54 20.2 20.2 0 0 1 5-.47l.07-3.17v-2.84-2.84q-.22-6.63-.29-13.22t-.19-13.36q-.07-3 0-6.08a43.46 43.46 0 0 0-.29-6.09c-.1-.53-.22-1-.36-1.51a4.8 4.8 0 0 1-.22-1.44 5.38 5.38 0 0 1 .11-.86 1.41 1.41 0 0 0 0-.87c0-.19.29-.35.72-.47a11 11 0 0 1 1.41-.28c.5-.08 1-.12 1.44-.15h1c.86 0 1.32.13 1.37.39s.12.73.21 1.41c.05.43.1.87.15 1.33s.07.92.07 1.4c0 1.06-.05 2.1-.14 3.13s-.15 2.08-.15 3.14q0 10.8.07 21.49t.22 21.49a12.87 12.87 0 0 1 2.23 0c.77.07 1.54.15 2.31.25a6.68 6.68 0 0 1 1.72.32q.72.25.72 1.41a10.41 10.41 0 0 1-.07 1.26 9.57 9.57 0 0 0-.07 1.18 13.66 13.66 0 0 0 .14 1.95 12.2 12.2 0 0 1 .15 1.94 3.73 3.73 0 0 1-.36 1.8c-.24.43-.77.65-1.59.65a6.17 6.17 0 0 1-1.33-.14 5.58 5.58 0 0 0-1.33-.15 1.41 1.41 0 0 0-.36.07 1.13 1.13 0 0 1-.36.08l-.07-.08a2.48 2.48 0 0 1-.11-.61 5.52 5.52 0 0 1 0-.61c0-.72-.07-1.42-.07-2.09s0-1.37-.07-2.09h-.5q-8.79 0-17.46.29t-17.39.29a1.82 1.82 0 0 1-1.55-.54 3.53 3.53 0 0 1-.69-1.61zM320.81 414.1c.1 4.47.15 8.89.15 13.29s0 8.82.07 13.28a17.38 17.38 0 0 0 .18 2.52 17.38 17.38 0 0 1 .18 2.52 5.21 5.21 0 0 1-.15 1q-.14.69-.72.69a2.09 2.09 0 0 1-.75-.15l-.69-.21a3.43 3.43 0 0 1-2.48-1.41 5.42 5.42 0 0 1-.61-2.77v-2.34-3.24c0-1.13 0-2.18-.11-3.17a4.27 4.27 0 0 0-.47-2 2.13 2.13 0 0 0-1.11-1 5.3 5.3 0 0 0-1.48-.18 10.2 10.2 0 0 1-2.81-.39 9.55 9.55 0 0 0-2.73-.4 1.14 1.14 0 0 0-1.3 1 12.2 12.2 0 0 0-.14 1.8c0 .81 0 1.63.11 2.45s.1 1.63.1 2.44a14.27 14.27 0 0 0 .33 2.27 10.81 10.81 0 0 1 .25 2.27 1.33 1.33 0 0 1-.43 1 2.62 2.62 0 0 1-1 .58 6.86 6.86 0 0 1-1.26.25 10.55 10.55 0 0 1-1.12.07 6.54 6.54 0 0 1-2-.28 1.4 1.4 0 0 1-.9-1.52 8.41 8.41 0 0 1 .26-2.08 8.79 8.79 0 0 0 .25-2c0-1.44-.06-2.87-.18-4.28s-.18-2.85-.18-4.29q0-5.32.25-10.62t.25-10.62c0-1 0-1.93-.07-2.91s-.07-2-.07-3a1.94 1.94 0 0 1 .14-.9c.1-.17.38-.25.87-.25h1.4a10.93 10.93 0 0 1 1.73.07 4.34 4.34 0 0 1 1.44.43 1.18 1.18 0 0 1 .61 1.12 7.16 7.16 0 0 1-.25 1.84 6.92 6.92 0 0 0-.25 1.9 11.22 11.22 0 0 0-.08 1.26v1.26c0 1.59 0 3.17.08 4.76s.07 3.16.07 4.75a15.7 15.7 0 0 1-.29 2.09 9.82 9.82 0 0 0-.22 2 1.78 1.78 0 0 0 .65 1.59 4.1 4.1 0 0 0 1.73.57l2.7.29a24.17 24.17 0 0 0 2.7.14h.65a1.41 1.41 0 0 0 .65-.14 1.46 1.46 0 0 0 .54-.86 13.15 13.15 0 0 0 .28-1.44 10.17 10.17 0 0 0 .11-1.52v-1.08c0-1.1 0-2.17-.11-3.2s-.1-2.1-.1-3.2 0-2.1.1-3.14.11-2.07.11-3.13a15.63 15.63 0 0 0-.11-1.91 17.54 17.54 0 0 1-.1-1.9 2.83 2.83 0 0 1 .5-1.8 2.13 2.13 0 0 1 1.8-.65 2.78 2.78 0 0 1 2.27.83 3.61 3.61 0 0 1 .68 2.34v4.6c0 1.53.03 3.18.08 4.71zM343.85 448.37a11.74 11.74 0 0 1-7.56-2.41 17.52 17.52 0 0 1-4.82-6 29.08 29.08 0 0 1-2.56-7.84 44.93 44.93 0 0 1-.76-7.82 38.22 38.22 0 0 1 .83-7.88 22.23 22.23 0 0 1 2.77-7.09 15.65 15.65 0 0 1 5.12-5.15 14.38 14.38 0 0 1 7.77-2 11.61 11.61 0 0 1 7.71 2.48 17.63 17.63 0 0 1 4.64 6.16 28.23 28.23 0 0 1 2.3 8 57.09 57.09 0 0 1 .62 8 34.42 34.42 0 0 1-.87 7.6 22.48 22.48 0 0 1-2.77 6.95 15.93 15.93 0 0 1-5 5.07 13.42 13.42 0 0 1-7.42 1.93zm.79-40.89a10.4 10.4 0 0 0-5.54 1.33 9.56 9.56 0 0 0-3.39 3.53 15.44 15.44 0 0 0-1.69 5 33.53 33.53 0 0 0-.47 5.58c0 1.58.08 3.09.22 4.53a34.53 34.53 0 0 0 .9 4.57 25.35 25.35 0 0 0 1.94 5.19 15.53 15.53 0 0 0 3.06 4.21 5.87 5.87 0 0 0 4.18 1.73 7.13 7.13 0 0 0 5.15-2 14.45 14.45 0 0 0 3.27-4.86 25.32 25.32 0 0 0 1.73-6 35.43 35.43 0 0 0 .51-5.54 34.26 34.26 0 0 0-.47-5.15 23 23 0 0 0-1.62-5.65 14.18 14.18 0 0 0-3.06-4.54 6.47 6.47 0 0 0-4.72-1.93zM380.5 392.79a9.15 9.15 0 0 1 3.6 4.18 29.57 29.57 0 0 1 2.12 6.22 45.71 45.71 0 0 1 1 6.74c.17 2.25.25 4.15.25 5.68 0 .82 0 1.61-.07 2.38H384.16a6.16 6.16 0 0 1-.94-.18l-.82-.22a.62.62 0 0 1-.33-.18.65.65 0 0 1-.07-.36 4.35 4.35 0 0 0-.14-.83 45.8 45.8 0 0 1-.29-4.68 51.6 51.6 0 0 0-.51-6.05 15.94 15.94 0 0 0-1.62-5.29 3.86 3.86 0 0 0-3.63-2.27 3.62 3.62 0 0 0-3.31 2 15.12 15.12 0 0 0-1.7 4.68 32 32 0 0 0-.61 5.4c-.05 1.8-.07 3.16-.07 4.07 0 1.25 0 2.47.07 3.67s.07 2.43.07 3.68v3.88c0 1.77 0 3.76.11 5.94s.26 4.46.5 6.81a46.65 46.65 0 0 0 1.08 6.44 16.16 16.16 0 0 0 1.87 4.75 3.35 3.35 0 0 0 2.88 1.84 2.71 2.71 0 0 0 1.48-.43 4.51 4.51 0 0 0 1.19-1.12 6.83 6.83 0 0 0 .82-1.47q.33-.79.54-1.44A10.81 10.81 0 0 0 381 444a10.68 10.68 0 0 1 .25-2.66c.14-.48.25-.83.32-1.05a.68.68 0 0 1 .33-.43 1.28 1.28 0 0 1 .57-.11c.24 0 .6 0 1.08-.07l1.77-.18c.6-.07 1.21-.15 1.83-.25-.09 1.25-.18 2.54-.25 3.89a38 38 0 0 1-.43 4 24 24 0 0 1-1 3.86 10.51 10.51 0 0 1-2 3.38 8.77 8.77 0 0 1-2.77 2.3 7.25 7.25 0 0 1-3.49.87 7.47 7.47 0 0 1-5.33-2.23 17.52 17.52 0 0 1-4.36-6.84 44.07 44.07 0 0 1-2.12-8.61 72.16 72.16 0 0 1-.72-9.07q-.08-4.57-.07-8.32c0-2.64 0-5.28.11-7.92s.2-5.28.39-7.92a42 42 0 0 1 .79-5.22 17.92 17.92 0 0 1 1.8-4.82 10.37 10.37 0 0 1 3.3-3.6 9.15 9.15 0 0 1 5.26-1.37 8.17 8.17 0 0 1 4.24 1.16zM397.42 398.19a6.06 6.06 0 0 0-.9-.11 11.29 11.29 0 0 1-1.26-.14c-.43-.07-.83-.16-1.19-.25a1.85 1.85 0 0 1-.76-.36 4.73 4.73 0 0 1-.07-.8v-2a2.29 2.29 0 0 1 .36-1.26 1.68 1.68 0 0 1 1-.65 8.57 8.57 0 0 1 2.05-.18 28.2 28.2 0 0 1 3.17.18 27.9 27.9 0 0 0 3.16.18 15.57 15.57 0 0 0 2.34-.18 15.67 15.67 0 0 1 2.34-.18 11.33 11.33 0 0 1 1.91.18 1.18 1.18 0 0 1 1.05 1.33c0 .48 0 1 .07 1.48s.07 1 .07 1.47a.84.84 0 0 1-.86.94c-.58.05-1.22.08-1.91.11a6.14 6.14 0 0 0-2 .36 1.44 1.44 0 0 0-.9 1.55 9.37 9.37 0 0 0 .08 1.22 11.09 11.09 0 0 1 .07 1.15q.29 6.34.36 12.6t.07 12.6q.08 6.56.07 13t.43 13a7.59 7.59 0 0 0 0 .79v.79a3.58 3.58 0 0 1-.15 1 .72.72 0 0 1-.79.5 3.29 3.29 0 0 1-1.15-.21l-1.15-.44c-.39-.14-.71-.25-1-.32a1.9 1.9 0 0 1-.64-.29 1 1 0 0 1-.36-.57 4.55 4.55 0 0 1-.11-1.19 10.62 10.62 0 0 1 .11-1.59 12.5 12.5 0 0 0 .1-1.65q0-12.31-.5-24.48t-.5-24.48a13 13 0 0 0-.08-1.59 1.29 1.29 0 0 0-1.15-1.29c-.18-.03-.71-.12-1.38-.22zM429.74 430.52a16.3 16.3 0 0 1 4.43 4.93 12 12 0 0 1 1.84 6.3 8.9 8.9 0 0 1-1.15 4.46 9.26 9.26 0 0 1-3.17 3.28 14.31 14.31 0 0 1-4 1.62 22.7 22.7 0 0 1-4.5.58c-1.56 0-3.06.12-4.5.21-.15-1.34-.24-2.66-.29-4s-.07-2.61-.07-4q0-7 .39-13.86t.4-13.86c0-2.45 0-4.88-.11-7.31s-.11-4.86-.11-7.3c0-.87 0-1.59.08-2.16a2.61 2.61 0 0 1 .43-1.37 2.14 2.14 0 0 1 1.15-.76 7.64 7.64 0 0 1 2.23-.25c1.3 0 2 .37 2.16 1.12a15.13 15.13 0 0 1 .22 2.77 33.49 33.49 0 0 1-.29 4.39c-.19 1.44-.34 2.9-.43 4.39s-.17 2.87-.36 4.29a30.47 30.47 0 0 0-.29 4.28c0 1.1 0 2.2-.07 3.28s-.07 2.14-.07 3.2a6 6 0 0 0 .5 2.92 2.66 2.66 0 0 0 1.37 1.15 14.43 14.43 0 0 0 2 .57 6.55 6.55 0 0 1 2.21 1.13zM426 445.35a6.84 6.84 0 0 0 2.88-2.27 5.57 5.57 0 0 0 1.15-3.42 4.75 4.75 0 0 0-.47-2 7.68 7.68 0 0 0-1.26-1.94 7.26 7.26 0 0 0-1.76-1.48 3.88 3.88 0 0 0-2-.57 1.16 1.16 0 0 0-1.26.86 5.87 5.87 0 0 0-.25 1.66 16.56 16.56 0 0 0 .21 2.66 15.49 15.49 0 0 1 .22 2.66v1.12a10.44 10.44 0 0 0 0 1.37 2.94 2.94 0 0 0 .28 1.19.93.93 0 0 0 .9.5 2.57 2.57 0 0 0 .72-.11 3.52 3.52 0 0 0 .64-.23z"/><path d="M326.7 52.91H175.76A15.8 15.8 0 0 0 160 68.71v260.48A15.81 15.81 0 0 0 175.76 345H326.7a15.81 15.81 0 0 0 15.81-15.81V68.71a15.8 15.8 0 0 0-15.81-15.8zm7.91 276.28a7.92 7.92 0 0 1-7.91 7.91H175.76a7.91 7.91 0 0 1-7.9-7.91V68.71a7.9 7.9 0 0 1 7.9-7.9H326.7a7.91 7.91 0 0 1 7.91 7.9z" fill="#050f64"/><rect x="167.86" y="60.81" width="166.75" height="276.29" rx="7.9" fill="#a7d1d0"/><path d="M326.7 52.91H175.76A15.8 15.8 0 0 0 160 68.71v260.48A15.81 15.81 0 0 0 175.76 345H326.7a15.81 15.81 0 0 0 15.81-15.81V68.71a15.8 15.8 0 0 0-15.81-15.8zm7.91 276.28a7.91 7.91 0 0 1-7.91 7.91H175.76a7.9 7.9 0 0 1-7.9-7.91V68.71a7.9 7.9 0 0 1 7.9-7.9h62.66a5.28 5.28 0 0 1 3.6 1.42l6.51 6.1a4 4 0 0 0 5.4 0l6.51-6.1a5.31 5.31 0 0 1 3.61-1.42h62.65a7.91 7.91 0 0 1 7.91 7.9z" fill="#154a6b"/><rect x="264.5" y="286" width="68.04" height="22" rx="6.5" fill="#155bcd"/><rect class="cls-2" x="180.92" y="127.58" width="85.43" height="109.44" rx="9.73"/><path class="cls-7" d="M187.64 141.7h72v4.38h-72zM187.64 157.06h72v4.38h-72zM187.64 172.43h72v4.38h-72zM187.64 187.79h72v4.38h-72zM187.64 203.15h72v4.38h-72zM187.64 218.51h72v4.38h-72z"/><rect class="cls-2" x="180.92" y="250.65" width="85.43" height="19.75" rx="8.64"/><path class="cls-7" d="M187.64 258.34h72v4.38h-72z"/><circle cx="164.29" cy="203.08" r="80.45" fill="#e4464e"/><path class="cls-2" d="M129.16 226.15v-5.21l5.38-5c10.68-9.87 15.71-15.31 15.77-21.31 0-4.1-2.18-7.63-8.11-7.63-4 0-7.42 2-9.68 3.78l-2.52-6.1a22.65 22.65 0 0 1 13.92-4.68c10.06 0 15 6.33 15 13.75 0 8-5.74 14.38-13.67 21.71l-3.92 3.44v.14h18.57v7.1zM185.46 226.15v-11.53h-20.54V209l18.52-28.25h10.14v27.33h5.84v6.51h-5.84v11.53zm0-18v-12.39c0-2.56.11-5.17.27-7.85h-.25c-1.43 2.84-2.6 5.16-4 7.67L173.17 208v.14z"/><path class="cls-2" d="M164.39 263.28a60.67 60.67 0 0 1-27.82-6.76 60.21 60.21 0 0 1-22.94-86l7.55 4.84a51.25 51.25 0 0 0 52.49 78.07l1.64 8.82a59.87 59.87 0 0 1-10.92 1.03z"/><path class="cls-2" d="M125.32 185.1l5.17-26.32-25.38 8.68 20.21 17.64zM215 235.61l-7.55-4.84a51.24 51.24 0 0 0-52.48-78.07l-1.65-8.81A60.21 60.21 0 0 1 215 235.61z"/><path class="cls-2" d="M203.26 221.06l-5.17 26.33 25.38-8.68-20.21-17.65z"/><rect class="cls-2" x="228.5" y="79" width="102" height="32" rx="9"/><circle cx="252.74" cy="94.6" r="12.4" transform="rotate(-76.72 252.733 94.608)" fill="#ffd053"/><path d="M259.22 84a12.4 12.4 0 0 1-16.93 17.25A12.4 12.4 0 1 0 259.22 84z" fill="#ffc448"/><path d="M242 95.91a11.5 11.5 0 0 1 20.63-7 11.51 11.51 0 1 0-19.1 12.75 11.4 11.4 0 0 1-1.53-5.75z" fill="#ffd77a"/><ellipse class="cls-12" cx="248.17" cy="92.3" rx=".91" ry="1.54"/><path class="cls-12" d="M258.22 92.3c0 .85-.41 1.54-.91 1.54s-.92-.69-.92-1.54.41-1.54.92-1.54.91.69.91 1.54z"/><path class="cls-12" transform="rotate(-45 248.942 89.185)" d="M248.36 87.22h1.18v3.92h-1.18z"/><path class="cls-12" transform="rotate(45 256.527 89.187)" d="M255.95 87.22h1.18v3.92h-1.18z"/><path d="M257.31 100.28c-.27-2.74-2.22-4.87-4.58-4.86s-4.31 2.14-4.56 4.88z" fill="#71523f"/><path d="M248.17 100.3s3.85-3.86 9.14 0z" fill="#ff6669"/><circle cx="281" cy="94.19" r="11.99" transform="rotate(-9.22 280.937 94.177)" fill="#0085d6"/><path d="M287.27 104.42a12 12 0 0 0-16.37-16.67 12 12 0 1 1 16.37 16.67z" fill="#007fc4"/><path d="M270.64 92.93a11.13 11.13 0 0 0 19.95 6.78 11.13 11.13 0 1 1-18.47-12.33 11.12 11.12 0 0 0-1.48 5.55z" fill="#1f9adf"/><path class="cls-2" d="M287.9 97h-4.16a.16.16 0 0 0-.15.2 6.91 6.91 0 0 1 .18 1.87 10 10 0 0 1 0 1.09 1.91 1.91 0 0 1-.36 1 1.31 1.31 0 0 1-1 .56c-.95 0-1.1-.93-1.19-1.68a8 8 0 0 0-.53-2.61 2.46 2.46 0 0 0-1.27-1.29 6.58 6.58 0 0 0-1.3-.42.17.17 0 0 1-.13-.16v-6.09a.17.17 0 0 1 .16-.17h1.71a.18.18 0 0 0 .13-.06 1.82 1.82 0 0 1 1.47-.74h5.34a1.41 1.41 0 0 1 1.41 1.41 1.32 1.32 0 0 1-.13.56.16.16 0 0 0 0 .2 1.61 1.61 0 0 1 .47 1.15V92a1.32 1.32 0 0 1-.13.56.17.17 0 0 0 0 .2 1.24 1.24 0 0 1 .48 1v.17a1.19 1.19 0 0 1-.14.56.17.17 0 0 0 0 .19 1.26 1.26 0 0 1 .48 1A1.43 1.43 0 0 1 287.9 97z"/><rect class="cls-2" x="273.8" y="88.68" width="3.28" height="7.8" rx="1.64"/><path class="cls-2" d="M271.3 294.71c2.63 3 5.05 6.22 7.85 9.11.87.89 2.24-.47 1.37-1.37-2.8-2.88-5.22-6.07-7.85-9.1-.82-1-2.18.43-1.37 1.36zM276 292.94c2.65 3 5.2 6.11 7.66 9.3.76 1 2.12-.4 1.37-1.37-2.46-3.18-5-6.27-7.66-9.3-.83-.93-2.19.44-1.37 1.37z"/><path class="cls-2" d="M271.48 299.07c3.7-1.57 7.38-3.14 11-4.92 1.11-.55.13-2.22-1-1.67-3.6 1.78-7.29 3.35-11 4.92-1.14.48-.16 2.15 1 1.67zM274.24 303c3.42-1.71 6.86-3.23 10.43-4.6 1.15-.44.65-2.31-.51-1.87-3.73 1.43-7.32 3-10.89 4.8-1.11.56-.14 2.23 1 1.67zM288.59 297.93c2.58.09 5.15.25 7.74.26a1 1 0 0 0 0-1.93c-2.59 0-5.16-.18-7.74-.26a1 1 0 0 0 0 1.93z"/><path class="cls-2" d="M293.33 301.13c.16-2.85.27-5.69.42-8.54.07-1.24-1.86-1.24-1.93 0-.16 2.85-.26 5.69-.42 8.54-.07 1.24 1.86 1.24 1.93 0z"/><path class="cls-2" d="M288.4 294.26a70.46 70.46 0 0 0 6.55 6.61c.94.82 2.31-.55 1.37-1.36a70.57 70.57 0 0 1-6.55-6.62c-.83-.93-2.2.44-1.37 1.37z"/><path class="cls-2" d="M289.86 301.13a54.31 54.31 0 0 1 6.64-6.23c1-.75 0-2.43-1-1.67a58.58 58.58 0 0 0-7 6.53c-.86.9.51 2.27 1.36 1.37zM304.94 292.69a3.58 3.58 0 0 0-2.62 5 2.08 2.08 0 0 0 2.64.83c1.44-.55 2.25-2.49 2.48-3.91h-1.86c.41 1 1.36 3.18 2.73 3.18s2.15-2.1 2.25-3.22c.35-4.14-4.07-6.17-7.53-4.55-3.3 1.54-5.23 6-3.23 9.22 2.12 3.46 7.66 4 10.12.64.73-1-.94-2-1.67-1-1.62 2.24-5.48 1.47-6.78-.64a4.55 4.55 0 0 1 1-5.55c1.61-1.6 5.25-2.12 6 .62a3.2 3.2 0 0 1-.36 2.33c-.26.26-.14.33.38.2a3.17 3.17 0 0 1-.46-.58c-.16-.41-.49-.77-.66-1.18-.31-.77-1.69-1.06-1.86 0-.06.34-.78 3-1.55 2.62-.53-.26.5-2 .91-2.08 1.22-.15 1.24-2.09 0-1.93zM317 305a1 1 0 0 0 0-1.93 1 1 0 0 0 0 1.93zM315.18 292.22c-2.27-1.24-.2-3.13 1.47-2.58 2.46.81.29 3.2-.3 4.61a13.63 13.63 0 0 0-.66 7.13c.17 1.23 2 .71 1.87-.51a11.45 11.45 0 0 1 .42-5.45c.47-1.34 1.62-2.42 1.89-3.83.38-2-1.24-3.54-3.08-3.94-3.94-.85-6.3 4.22-2.58 6.24 1.09.6 2.07-1.07 1-1.67zM323.4 303.07v-.33a1 1 0 0 0-1.94 0v.33a1 1 0 0 0 1.94 0zM323.62 300.14c.58-3.88.93-7.78 1.58-11.64.2-1.22-1.66-1.75-1.87-.52-.65 3.87-1 7.77-1.57 11.65-.18 1.21 1.68 1.74 1.86.51z"/><circle cx="311.08" cy="94.18" r="12.42" transform="rotate(-80.78 311.093 94.175)" fill="#ff6d15"/><path d="M317.58 83.59a12.42 12.42 0 0 1-17 17.27 12.42 12.42 0 1 0 17-17.27z" fill="#ff6412"/><path d="M300.36 95.49a11.52 11.52 0 0 1 20.66-7 11.53 11.53 0 1 0-19.13 12.77 11.43 11.43 0 0 1-1.53-5.77z" fill="#ff8249"/><ellipse class="cls-12" cx="306.51" cy="91.87" rx=".91" ry="1.54"/><path class="cls-12" d="M316.57 91.87c0 .85-.41 1.54-.91 1.54s-.92-.69-.92-1.54.41-1.54.92-1.54.91.67.91 1.54z"/><path d="M316.17 99.7a.41.41 0 0 0 .67-.45 6.22 6.22 0 0 0-11.51-.11.41.41 0 0 0 .66.45c1.82-1.76 5.68-4.27 10.18.11z" fill="#654735"/><path class="cls-12" transform="rotate(-45 307.285 88.758)" d="M306.7 86.79h1.18v3.93h-1.18z"/><path class="cls-12" transform="rotate(45 314.885 88.76)" d="M314.3 86.79h1.18v3.93h-1.18z"/></svg>