<svg id="Layer_1" data-name="Layer 1" xmlns="http://www.w3.org/2000/svg" viewBox="0 0 2567.11 1021.3"><defs><style>.cls-2{fill:#dc7c57}.cls-3{fill:#d2704d}.cls-4,.cls-5{fill:#ec8c65}.cls-5{opacity:.31}.cls-20,.cls-5{isolation:isolate}.cls-8{fill:#ff657f}.cls-9{fill:#ff5576}.cls-10{fill:#ff728f}.cls-20{fill:#fff;opacity:.1}</style></defs><path d="M1473.81 37.89c-35.5.4-209.5-6.3-249.2-1.3-69.5 8.7-123 31.9-173.5 56.7-63.4 31.1-120.6 67.3-174.6 105.8-69.8 49.8-134.4 103.4-185.5 167.2-44.9 56-41.2 122.2-33.3 213.7 4.5 51.7-7.9 106 34.9 184.6 180.8 332.3 1316.9 353.5 1211.7-374.6-54.6-377.9-377.8-352.6-430.5-352.1z" fill="#c4e5e5"/><path class="cls-2" d="M1699.81 580.79a12.7 12.7 0 0 1-8.9 3.2c-13.4 0-30.5-15.2-31.3-16l20.4-17.3 1.7-1.5c-.1 0 30.9 20.1 18.1 31.6z"/><path class="cls-3" d="M1690.91 584c-13.4 0-30.5-15.2-31.3-16l20.4-17.3a12.77 12.77 0 0 1 4.7 1.8c-.1 0-14.2 20.3 6.2 31.5z"/><path class="cls-2" d="M1678.11 595.19c-4.5 3.4-9.9 3-14.9 1.2-8.7-3.2-16.2-10.9-16.2-10.9l11.4-23.2.3-.6a.35.35 0 0 0 .2.1 117.4 117.4 0 0 1 12.1 10.9c7.4 7.7 13.99 17.4 7.1 22.5z"/><path class="cls-3" d="M1663.21 596.39c-8.7-3.2-16.2-10.9-16.2-10.9l11.4-23.2.5-.5a117.4 117.4 0 0 1 12.1 10.9c-2.9 2.7-13.7 11.8-7.8 23.7z"/><path class="cls-2" d="M1722.21 560.09c-3.8 6.1-15.5 4.7-24.9 1-6-2.3-11-5.6-12.6-8.5-4.3-7.6 23.1-15.8 23.1-15.8.2.5 5.3 3.9 9.7 8.4 4.3 4.3 7.8 9.9 4.7 14.9z"/><path class="cls-3" d="M1717.41 545c-4.4 4.3-12.7 12-20.2 16-6-2.3-11-5.6-12.6-8.5-4.3-7.6 23.1-15.8 23.1-15.8.1.49 5.29 3.79 9.7 8.3z"/><path class="cls-4" d="M2022.11 507v144.7c-21.6-12.4-45-25.8-68.4-39.1-5.1-2.9-10.2-5.8-15.2-8.6s-9.9-5.6-14.8-8.4c-2.6-1.4-5.2-2.9-7.7-4.3-.7-.4-1.4-.8-2.2-1.2-6.7-3.7-13.3-7.4-19.7-11-31.2-17.3-59.1-32.4-78.1-41.9-9.6-4.8-18.7-8.8-27.3-12.3a240.68 240.68 0 0 0-43.5-13.1c-17.5-3.5-31.8-4-43.1-3.1a102.44 102.44 0 0 0-22.9 4.2q-1.5.45-2.7.9a39 39 0 0 1-10.2 1.6c-20 .8-52.8-6.8-55-11.9-.7-1.6.5-5.7 2.9-11.3 7.2-16.4 25.3-44.9 37.6-52.6a.76.76 0 0 1 .4-.2c17.7-10 114.6-8.7 135-5.3 8.5 1.4 64.4 18.7 127.6 38.7 7.3 2.3 14.6 4.6 22 7 2.2.7 4.5 1.4 6.7 2.1 3.2 1 6.4 2 9.7 3.1 4.3 1.4 8.5 2.7 12.8 4 2.2.7 4.3 1.4 6.5 2.1 6.4 2 12.7 4.1 18.9 6.1 10.4 3.3 20.7 6.7 30.7 9.8z"/><path class="cls-5" d="M1991.11 497.19l-37.5 115.5c-20.3-11.5-40.6-22.9-59.6-33.5l20.5-106.3c25.3 7.9 51.6 16.3 76.6 24.3z"/><path d="M2022.11 494.59v193c-54.3-31.8-109.8-66.4-110.3-75.4-.2-3.6.6-11.6 2-22.1 4.6-32.5 15.7-88.8 22.8-110.3 1.8-5.5 3.4-8.7 4.5-8.7 1.6 0 11.4 2.6 25.8 6.8 15 4.3 34.7 10.3 55.2 16.7z" fill="#47dac3"/><path d="M2022.11 613.49v74.1c-54.3-31.8-109.8-66.4-110.3-75.4-.2-3.6.6-11.6 2-22.1 4.6-32.5 15.7-88.8 22.8-110.3 1.8-5.5 3.4-8.7 4.5-8.7 1.6 0 11.4 2.6 25.8 6.8-.5 3.3-.9 7-1.3 11.1-1.2 16.1-.4 38 8.2 61.1 8.1 21.4 22.6 43.7 48.3 63.4z" fill="#36ceb6"/><path class="cls-8" d="M1669.81 565.29a140.24 140.24 0 0 1-39.1 29.9c-5.4 2.8-70.3-27.7-86.6-67.6a49.2 49.2 0 0 1-3.4-12.9c-4.3-37.5 20.3-45.5 38.3-43.5a41.17 41.17 0 0 1 9.3 2c19.5 6.9 32.7 29.3 34.1 28.4 4.2-2.6 14-56.6 60.6-39.3 13.2 4.9 19.6 15.4 20.5 28.7 1.6 21.7-11.6 50.7-33.7 74.3z"/><path class="cls-9" d="M1669.81 565.29c-10.3-1.4-23.9-4.4-27.7-10.9-6.2-10.6-11.7-18.8 61.6-63.4 1.4 21.7-11.8 50.7-33.9 74.3z"/><path class="cls-4" d="M1702.81 498.59s-57.6 31.1-54.4 46 30.2 16.3 48.8 6.5 26.5-22.8 32.1-19.1 36.2 16.3 66-13c0 .1-42.31-28.3-92.5-20.4z"/><path class="cls-10" d="M1586 492.29a35.76 35.76 0 0 1-35.8 35.8 40.71 40.71 0 0 1-6.1-.5 49.2 49.2 0 0 1-3.4-12.9c-4.3-37.5 20.3-45.5 38.3-43.5a35.17 35.17 0 0 1 7 21.1zm33.4 42.7a18.4 18.4 0 1 0-18.4 18.4 18.35 18.35 0 0 0 18.41-18.39z"/><path class="cls-8" d="M1294.81 348.19c-16.1 23.8-44 46.7-75.8 57-5.7 1.9-63.1-37.3-75.1-78.9a51.14 51.14 0 0 1-2.2-16.8c2.1-44 35.9-42.9 52.7-34.9a11.4 11.4 0 0 1 1.9 1c18.5 10.1 28.1 34.8 29.7 34.1.9-.4 2.4-2.9 4.6-6.3 8.6-13.7 27.6-43.2 62.7-23.2 22.9 12.9 19.7 41.1 1.5 68z"/><path class="cls-9" d="M1294.81 348.19c-55.7 15.9-63.9-22.2-64.2-44.9 8.6-13.7 27.6-43.2 62.7-23.2 22.9 13 19.69 41.2 1.5 68.1z"/><path class="cls-10" d="M1198.61 291.89a38.11 38.11 0 0 1-38.2 38.1 37.13 37.13 0 0 1-16.6-3.8 51.14 51.14 0 0 1-2.2-16.8c2.1-44 35.9-42.9 52.7-34.9a37 37 0 0 1 4.3 17.4zm25.5 55.3a20.7 20.7 0 1 0-20.7 20.7 20.74 20.74 0 0 0 20.7-20.7z"/><path class="cls-8" d="M1309.41 310.59c-12.2 13.1-25.5 20.1-38.3 19.9-31.1-.6-29.4-26.6-12.8-44.4a69.79 69.79 0 0 0 9.4-12.7c7.4-.7 15.9 1.1 25.6 6.6 12 6.9 16.9 17.8 16.1 30.6z"/><path d="M1189.31 249.09a45.08 45.08 0 0 0 33 26.8c24.2 4.8 29.4-20.4 26.8-27.2s-43.3-27.8-43.3-27.8z" fill="#d78558"/><path d="M1197.31 224.49c.3 1 30.7 56.6 85.3 21 0 0-4.8-37.8-40.7-44s-44.6 23-44.6 23z" fill="#ea9465"/><path d="M1219 205.19c-1 .4 15.5 41.4 64.3 24.9.01-.09-29.39-38.2-64.3-24.9z" fill="#f9a475"/><path d="M1411.11.29c-5.9 11.6-13.9 27.7-24.8 49.9-.8 1.7-1.7 3.3-2.5 5q-4.05 8.25-7.2 15.9c-1.3 3.1-2.5 6.1-3.6 9.1-1.3 3.5-2.5 7-3.6 10.3-14.4 45.5-8.3 78-19.5 131.8-8.1 39.1-23.2 69.8-40.5 88.3-12.2 13.1-25.5 20.1-38.3 19.9-31.1-.6-29.4-26.7-12.8-44.4a71 71 0 0 0 9.4-12.7c4.3-7.2 7.9-15.8 8.9-24.3a35.5 35.5 0 0 0-1.7-16.8c-3.8-10.1-13.4-18.7-32.2-23.4-8.7-2.2-15.7-1.3-21.4 1.8a32.36 32.36 0 0 0-12.1 12 72.87 72.87 0 0 0-5.5 11.2 164.53 164.53 0 0 0-6.7 23.2c-.3 1.2-.5 2.3-.8 3.5-.3 1.6-.7 3.2-1 4.8-.6 2.9-1.2 5.8-1.8 8.6a34.23 34.23 0 0 0-3.4-1.3c-.6-.2-1.1-.4-1.7-.6a44.5 44.5 0 0 0-17.2-1.8 25.12 25.12 0 0 0-2.7.4l-1.3.3c-.5.1-.9.2-1.3.3a6.47 6.47 0 0 0-1.3.4c-.4.1-.9.3-1.3.4a26 26 0 0 0-2.5 1c-.4.2-.9.5-1.4.7a17.61 17.61 0 0 0-2.3 1.4c-.8.5-1.5 1.1-2.3 1.7a99.44 99.44 0 0 1-2.6-11.9 106.15 106.15 0 0 1-1.3-15.2 131.83 131.83 0 0 1 .8-17.6c4.4-38.3 40.5-98.3 65-128.8 10.2-12.8 20-35.8 28-58.1.4-1.2.9-2.4 1.3-3.6 1.8-5.2 3.5-10.2 5.1-15.1 2.2-6.8 4.2-13.1 6-18.7q1.2-4.2 2.4-7.8h151.7z" fill="#ffb084"/><path class="cls-5" d="M1386.31 50.19c-.8 1.6-1.6 3.3-2.5 5a251.9 251.9 0 0 0-10.8 25l-127-38.3c4.3-12.3 8.1-24.1 11-33.8zm-190.9 215.3c-.6 2.9-1.2 5.8-1.8 8.6-10.6-4.7-27.2-6.6-38.7 2.9a99.44 99.44 0 0 1-2.6-11.9c12-1.9 28.6-3.8 43.1.4z"/><path d="M1381.51 74.09c-.5 3.9-4.8 16.1-8.8 17-1.7.4-26.1-7.5-53.6-17.2-36.7-12.9-78.7-28.7-78.7-31.5 0-3 3.4-16.5 7.3-16.5 2.2 0 45.3 14.3 81.9 27.3 27.9 10 52.1 19.2 51.9 20.9z" fill="#b2224d"/><path d="M1381.51 74.09c-.5 3.9-4.8 16.1-8.8 17-1.7.4-26.1-7.5-53.6-17.2l10.5-20.7c27.9 10 52.1 19.2 51.9 20.9z" fill="#94103e"/><path class="cls-8" d="M991.41 549.29a151.66 151.66 0 0 1-19 12.4c-17.3 9.5-37.4 16.2-57.8 18-6.7.6-66.1-64.8-53.4-109.9 5.8-20.7 16.6-29.1 27.8-31 12.5-2.1 25.5 4 32.7 10.4 15.6 13.9 19.4 39.9 21.1 39.6 4.9-.9 34.8-47.7 71.8-13.6a31.34 31.34 0 0 1 6.6 8.2c10.9 19.5-3.5 45.7-29.8 65.9z"/><path class="cls-9" d="M972.41 561.69c-17.3 9.5-37.4 16.2-57.8 18-6.7.6-66.1-64.8-53.4-109.9 5.8-20.7 16.6-29.1 27.8-31-4.4 27.2-10.5 93.6 74.6 119.9 3.1 1 6.1 2 8.8 3z"/><path class="cls-10" d="M991.41 549.29a37.49 37.49 0 0 1 24-66.3 34.35 34.35 0 0 1 5.6.4c11.1 19.5-3.3 45.7-29.6 65.9z"/><circle class="cls-10" cx="946.61" cy="516.19" r="14.4"/><path class="cls-4" d="M930 570.89c-1.6.5-2.8.8-2.6 1.6a10.56 10.56 0 0 1 .2 2.3v3.1c-.3 5.2-1.5 12.4-4.9 16.6-3 3.5-7.4 5.1-10.5 6.1-2.4.8-4 1.4-3.8 2.4a4.51 4.51 0 0 1 .1 1.3c-.1 5-3.3 20.3-33.1 24.5-31.8 4.5-214.8-.8-308.1-47.2v-123.5c21.5 14.9 58.8 35.5 111.5 45 80.5 14.6 127.3 4.6 158.7-2.6 2.5-.6 5-1.2 7.3-1.7a89.8 89.8 0 0 1 16.1-2.4v.1c.3 1.2.5 2.4.8 3.6s.6 2.5 1 3.7.7 2.5 1.1 3.7.8 2.4 1.3 3.7a136.19 136.19 0 0 0 5.9 13.6 9.25 9.25 0 0 0 .5 1c-4.5 1.5-7.4 3.3-5.7 5.5 1.1 1.4 5.3 2.9 11.1 4.4 20.2 5.2 60.1 11.5 61.8 20.8.1.7.2 1.4.3 2 .6 9.2-5.4 11.3-9 12.4z"/><path d="M893.91 577.59c-16.8 0-36.6-2.2-51.8-10.6a2.64 2.64 0 1 1 2.6-4.6c30 16.6 81.9 7.3 82.4 7.2a2.69 2.69 0 0 1 3.1 2.1 2.59 2.59 0 0 1-2.1 3.1 224.86 224.86 0 0 1-34.2 2.8zm-9.4 28.3a132.24 132.24 0 0 1-29.4-3 2.67 2.67 0 0 1 1.2-5.2c23.9 5.5 52.5 1.2 52.8 1.1a2.69 2.69 0 0 1 .9 5.3 164.5 164.5 0 0 1-25.5 1.8z" fill="#d7754f"/><path d="M938.81 558.49c-97.7 4.4-104.7-35.4-101.5-58.1 2.5-.6 5-1.2 7.3-1.7a99.85 99.85 0 0 1 16.1-2.4c1.9 9.8 5.8 19.9 10.6 29.4-4.5 1.5-7.4 3.3-5.7 5.5 1.1 1.4 5.2 2.8 11.1 4.4 20.2 5.2 60.1 11.5 61.8 20.8a8.81 8.81 0 0 1 .3 2.1z" style="isolation:isolate" opacity=".22" fill="#ec8c65"/><g opacity=".96"><path class="cls-20" d="M1651.11 256.89a180.59 180.59 0 0 1-54.9 29c-7.3 2.3-81.6-49.3-93.4-102.3a63.75 63.75 0 0 1-1.5-16.8c2.6-47.6 34.8-52.3 56.8-46.1a45.13 45.13 0 0 1 11.1 4.5c22.8 12.7 34.5 43.3 36.4 42.5 5.7-2.4 29.3-67.5 83.6-36.1 15.4 8.9 21.2 23.3 19.5 40-2.6 27.3-25.1 60.6-57.6 85.3zm-589.9-49.1c-14 14.8-30.9 28-49.6 37.3-6.8 3.5-88.4-35.6-108.5-86.1a60 60 0 0 1-4.1-16.3c-5-47.4 26-57.2 48.7-54.5a49 49 0 0 1 11.7 2.7c24.5 8.9 40.9 37.2 42.7 36.1 5.3-3.3 18.2-71.3 76.8-48.9 16.6 6.3 24.6 19.7 25.6 36.4 1.7 27.2-15.2 63.7-43.3 93.3z"/><path class="cls-20" d="M949.61 283a151.19 151.19 0 0 1-41.5 31.3c-5.7 2.9-74-29.8-90.8-72.1a51.16 51.16 0 0 1-3.5-13.7c-4.2-39.7 21.8-47.9 40.8-45.6a44.25 44.25 0 0 1 9.8 2.2c20.5 7.4 34.3 31.1 35.8 30.2 4.4-2.7 15.2-59.7 64.3-41 13.9 5.3 20.6 16.5 21.4 30.4 1.4 23-12.8 53.5-36.3 78.3zm6.7 477.9a151.19 151.19 0 0 1-41.5 31.3c-5.7 2.9-74-29.8-90.8-72.1a51.16 51.16 0 0 1-3.5-13.7c-4.2-39.7 21.8-47.9 40.8-45.6a44.25 44.25 0 0 1 9.8 2.2c20.5 7.4 34.3 31.1 35.8 30.2 4.4-2.7 15.2-59.7 64.3-41 13.9 5.3 20.6 16.5 21.4 30.4 1.4 23-12.8 53.5-36.3 78.3zM1598 918.09a105.5 105.5 0 0 1-33.5 14.5c-4.4 1-45.7-32.6-50.2-64.3a36.55 36.55 0 0 1-.1-9.9c3.7-27.8 22.8-29.2 35.4-24.5a33.62 33.62 0 0 1 6.3 3.1c12.8 8.5 18.3 27 19.5 26.6 3.5-1.1 20.3-38.3 50.7-17.4 8.6 5.9 11.4 14.7 9.6 24.4-2.7 15.9-17.5 34.5-37.7 47.5zm-184.2-626.7a75.75 75.75 0 0 1-21.3 15.8c-2.9 1.5-37.7-15.4-46.2-37.1a24.71 24.71 0 0 1-1.7-7c-2-20.3 11.3-24.4 21-23.2a18.33 18.33 0 0 1 5 1.2c10.5 3.8 17.4 16 18.2 15.5 2.3-1.4 7.9-30.4 32.9-20.7 7.1 2.7 10.5 8.5 10.8 15.6.71 11.8-6.59 27.3-18.69 39.9zm-375.1 594a75.75 75.75 0 0 1-21.3 15.8c-2.9 1.5-37.7-15.4-46.1-37.1a24.71 24.71 0 0 1-1.7-7c-2-20.3 11.3-24.4 21-23.2a18.33 18.33 0 0 1 5 1.2c10.5 3.8 17.4 16 18.2 15.5 2.3-1.4 7.9-30.4 32.9-20.7 7.1 2.7 10.5 8.5 10.8 15.6.61 11.7-6.69 27.3-18.79 39.9zm518.1-721.5a144.69 144.69 0 0 1-39.6 29.5c-5.4 2.7-70.2-28.8-86-69.1a46.69 46.69 0 0 1-3.2-13c-3.8-37.7 21-45.4 39-43.2a40.93 40.93 0 0 1 9.3 2.2c19.5 7.2 32.4 29.8 33.9 29 4.2-2.6 14.8-56.7 61.4-38.6 13.2 5.1 19.5 15.8 20.2 29.1 1.2 21.7-12.5 50.7-35 74.1z"/><path class="cls-20" d="M1504.11 654.19v56c-8.4 25.7-26.1 53.4-50.1 77.3-1.2 1.2-2.5 2.4-3.7 3.6a222.73 222.73 0 0 1-63.5 43.1c-8.6 3.9-106.9-49.4-128.7-112.9a78.67 78.67 0 0 1-4.2-20.5c-3.3-58.8 35.6-69 63.5-64.3a61.86 61.86 0 0 1 14.3 4c9.3 3.9 17.4 10 24.4 16.7 15.3 14.6 24.6 31.4 26.2 30.6 5-2.8 17.3-49.3 52.4-60.3 12.2-3.9 27.1-3.4 45.4 4.6 11.5 4.9 19.3 12.6 24 22.1zm147-397.3a180.59 180.59 0 0 1-54.9 29c-7.3 2.3-81.6-49.3-93.4-102.3a63.75 63.75 0 0 1-1.5-16.8c2.6-47.6 34.8-52.3 56.8-46.1a45.13 45.13 0 0 1 11.1 4.5c22.8 12.7 34.5 43.3 36.4 42.5 5.7-2.4 29.3-67.5 83.6-36.1 15.4 8.9 21.2 23.3 19.5 40-2.6 27.3-25.1 60.6-57.6 85.3zm-589.9-49.1c-14 14.8-30.9 28-49.6 37.3-6.8 3.5-88.4-35.6-108.5-86.1a60 60 0 0 1-4.1-16.3c-5-47.4 26-57.2 48.7-54.5a49 49 0 0 1 11.7 2.7c24.5 8.9 40.9 37.2 42.7 36.1 5.3-3.3 18.2-71.3 76.8-48.9 16.6 6.3 24.6 19.7 25.6 36.4 1.7 27.2-15.2 63.7-43.3 93.3z"/><path class="cls-20" d="M949.61 283c-11.7 12.4-33.9 42.7-49.5 50.6-5.7 2.9-66-49.2-82.8-91.4a51.16 51.16 0 0 1-3.5-13.7c-4.2-39.7 21.8-47.9 40.8-45.6a44.25 44.25 0 0 1 9.8 2.2c20.5 7.4 34.3 31.1 35.8 30.2 4.4-2.7 15.2-59.7 64.3-41 13.9 5.3 20.6 16.5 21.4 30.4 1.4 23-12.8 53.5-36.3 78.3zm65.7 530.9a151.19 151.19 0 0 1-41.5 31.3c-5.7 2.9-74-29.8-90.8-72.1a51.16 51.16 0 0 1-3.5-13.7c-4.2-39.7 21.8-47.9 40.8-45.6a44.25 44.25 0 0 1 9.8 2.2c20.5 7.4 34.3 31.1 35.8 30.2 4.4-2.7 15.2-59.7 64.3-41 13.9 5.3 20.6 16.5 21.4 30.4 1.4 23-12.8 53.5-36.3 78.3zm612.7 64.2a105.5 105.5 0 0 1-33.5 14.5c-4.4 1-45.7-32.6-50.2-64.3a36.55 36.55 0 0 1-.1-9.9c3.7-27.8 22.8-29.2 35.4-24.5a33.62 33.62 0 0 1 6.3 3.1c12.8 8.5 18.3 27 19.5 26.6 3.5-1.1 20.3-38.3 50.7-17.4 8.6 5.9 11.4 14.7 9.6 24.4-2.7 15.9-17.5 34.5-37.7 47.5zM1331.91 689a165.84 165.84 0 0 1-45.5 33.9c-6.2 3.1-80.6-33-98.7-79.2a56.8 56.8 0 0 1-3.7-15c-4.4-43.3 24.1-52.1 44.8-49.6a46.68 46.68 0 0 1 10.7 2.5c22.4 8.2 37.2 34.2 38.8 33.2 4.8-3 17-65 70.4-44.3 15.1 5.9 22.4 18.1 23.2 33.4 1.5 25-14.2 58.2-40 85.1zm81.9-397.6a75.75 75.75 0 0 1-21.3 15.8c-2.9 1.5-37.7-15.4-46.2-37.1a24.71 24.71 0 0 1-1.7-7c-2-20.3 11.3-24.4 21-23.2a18.33 18.33 0 0 1 5 1.2c10.5 3.8 17.4 16 18.2 15.5 2.3-1.4 7.9-30.4 32.9-20.7 7.1 2.7 10.5 8.5 10.8 15.6.7 11.79-6.6 27.29-18.7 39.89zm-309.1 647a75.75 75.75 0 0 1-21.3 15.8c-2.9 1.5-37.7-15.4-46.2-37.1a24.71 24.71 0 0 1-1.7-7c-2-20.3 11.3-24.4 21-23.2a18.33 18.33 0 0 1 5 1.2c10.5 3.8 17.4 16 18.2 15.5 2.3-1.4 7.9-30.4 32.9-20.7 7.1 2.7 10.5 8.5 10.8 15.6.7 11.69-6.6 27.29-18.7 39.89zm452.1-774.5a144.69 144.69 0 0 1-39.6 29.5c-5.4 2.7-70.2-28.8-86-69.1a46.69 46.69 0 0 1-3.2-13c-3.8-37.7 21-45.4 39-43.2a40.93 40.93 0 0 1 9.3 2.2c19.5 7.2 32.4 29.8 33.9 29 4.2-2.6 14.8-56.7 61.4-38.6 13.2 5.1 19.5 15.8 20.2 29.1 1.2 21.7-12.5 50.7-35 74.1z"/></g></svg>