<svg id="Layer_1" xmlns="http://www.w3.org/2000/svg" viewBox="0 0 521 457"><style>.st12{fill:#003b71}</style><switch><g><path d="M437.1 88.4H92.4c-26.1 0-47.3 21.2-47.3 47.3V294c0 26.1 21.2 47.3 47.3 47.3H289c28.5 47.6 79.7 50.9 120.3 44.1-32.2-9.2-48.4-29-56.3-44.1h84.2c26.1 0 47.3-21.2 47.3-47.3V135.7c-.1-26.1-21.2-47.3-47.4-47.3z" fill="#fd8970"/><path d="M419.2 76.8H69.9C43.5 76.8 22 98 22 124.1v158.3c0 26.1 21.5 47.3 47.9 47.3H269c28.9 47.6 75.9 58.8 117.1 52-32.6-9.2-44.2-36.9-52.3-52h85.3c26.5 0 47.9-21.2 47.9-47.3V124.1c.1-26.1-21.4-47.3-47.8-47.3z" fill="#ffe436"/><path d="M437.1 88.4H92.4c-26.1 0-47.3 21.2-47.3 47.3V294c0 26.1 21.2 47.3 47.3 47.3H289c28.5 47.6 79.7 50.9 120.3 44.1-32.2-9.2-48.4-29-56.3-44.1h84.2c26.1 0 47.3-21.2 47.3-47.3V135.7c-.1-26.1-21.2-47.3-47.4-47.3z" fill="#c4e5e5" stroke="#1691c9" stroke-width="7.151" stroke-miterlimit="10"/><g><path class="st12" d="M68.8 134.1c0-.1 1.5-1.7 1.7-2 .7-1 1.7-2 2.3-3 .2-.3.6-.9.9-.9.3 0 1 1.4 1 1.7 0 .4-.4.4-.5.7-.3.6-.6.7-1.1 1.2-.8.9-1.5 1.8-2.3 2.7 1.1 1.5 2.5 2.9 3.7 4.4.1.1.2.2.2.4 0 .4-.7 1.5-1.1 1.5-.1 0-.5-.5-.5-.7-.5-.6-3.1-3.6-3.6-3.9-.2-.1-.5-.2-.6-.5-.1-.2-.1-1.2-.1-1.6zm4.4 0c0-.2.4-.4.6-.6.9-.8 2.8-3 3.4-3.9.2-.3.4-.5.8-.6h.1c.5 0 .6 1.2.6 1.6v.4c-.1.2-2.9 3-3.3 3.5 1.1 1.4 2.5 2.7 3.7 3.9v.3c0 .5-.3 1.4-.9 1.4-.1 0-.5-.5-.5-.6-.5-.6-3.1-3.3-3.6-3.5-.2-.1-.5-.2-.6-.4-.3-.3-.3-1.2-.3-1.5zM87.3 122.9c.4.2.6.8.6 1.2 0 .6-.4 1.1-1 1.1-.5 0-.9-.3-1.2-.3-.3 0-.3.4-.3.6v.6c.3 2.5.2 5.1.4 7.7.1 2.7.2 5.4.5 8 0 .5.1 1 .1 1.4v1.5c0 .5.2.9.2 1.3 0 .8-.8.9-1.4.9-1.1 0-1-.5-1-1.4 0-.7.1-1.4.1-2.1v-.1c-.2-5.7-.6-11.5-.7-17.2 0-.7.1-1.4-.9-1.4-.5 0-1 .3-1.5.3-.7 0-.8-.6-.8-1.1 0-.3.1-1.5.6-1.5.3 0 .5.1.8.2.8.1 1.7.2 2.5.2.7 0 1.3-.1 2-.1.3 0 .7 0 1 .2zM97.5 144.8c-1.3 2.3-4.2 2.1-6.5 2.2-.1-.9-.1-1.9-.1-2.8 0-2.6.3-5.3.4-7.9.1-2.9.1-5.7.1-8.6 0-1.2-.1-2.4-.1-3.6 0-1.3.1-1.8 1.6-1.8.9 0 1 .5 1 1.2 0 1.3-.2 2.6-.3 3.9-.2 2.9-.4 5.8-.4 8.7 0 .5 0 1 .4 1.4.4.4 1.5.5 2.1.9 1.3.9 2.5 2.9 2.5 4.5-.2.7-.4 1.3-.7 1.9zm-4.7-4.1c0 .7.2 1.4.2 2 0 .4-.2 1.8.4 1.8 1.1 0 2.2-1.3 2.2-2.4 0-1-1.1-2.4-2.2-2.4h-.2c-.4.1-.4.7-.4 1zm9.1 2.8c.1.6.2 1.2.2 1.8 0 .2-.1.6 0 .7-.2.3-1.4.4-1.8.4-.7 0-.6-.2-.7-.7 0-.4-.1-.8-.1-1.2 0-1 .1-2 .1-3 0-6 0-12-.1-18 .3 0 1.9 0 2.1.2.1.1.1.4.1.6 0 1.5-.1 2.9-.1 4.4 0 3.4.1 6.8.2 10.3 0 1.5-.1 3 .1 4.5zM119.4 121.9c2.4 1.4 2.8 6.7 2.8 9.2v1h-.9c-.3 0-.5 0-.7-.1-.6-.2-.4 0-.6-.7-.3-1.7.2-7.4-2.4-7.4-2.3 0-2.3 5-2.3 6.5 0 1 .1 2 .1 3 0 1.9-.2 12 2.6 12 .9 0 1.4-1.1 1.6-1.8.2-.7.1-1.5.2-2.2.2-.8.2-.6.9-.7.5 0 1-.1 1.5-.2-.2 2-.1 4.4-1.4 6.1-.6.8-1.5 1.3-2.5 1.3-.8 0-1.6-.3-2.1-.9-3.1-3-2.9-9.2-2.9-13.2 0-2.1 0-4.3.2-6.4.2-2.7 1-6 4.5-6 .3 0 .9.2 1.4.5zM134.4 147.3c-.4.5-1.1.5-1.6.5-3.9 0-6.6-1.8-6.6-6 0-1.9.9-3.6 3-3.6 1.2 0 2.3.9 2.8.9h.2c0-2.7 0-12.1-1.2-14-.3-.5-.8-.9-1.5-.9-1.4 0-2.2 1.5-2.2 2.7 0 1.1 0 1.3-1.1 1.3-.5 0-1.8.1-1.8-.6s.5-1.9.8-2.5c.9-1.7 2.9-3.4 4.9-3.4.5 0 .9.1 1.4.3 2.4 1.1 2.7 5.7 3 8 .3 2.6.4 5.2.4 7.8 0 2.5-.1 5.1-.1 7.6-.3.5-.1 1.3-.4 1.9zm-5.7-5c0 1.7 1.3 3.1 3 3.1.6 0 .7-.6.7-1.1 0-.7-.2-1.4-.2-2.2 0-1.4-.4-1.7-1.7-1.7-1.2.1-1.8.9-1.8 1.9zM151.1 137.6c-.7 1.3-1.3 2.5-1.9 3.8-.3.7-.5 1.7-1.5 1.7h-.4c-1.2-.2-1.2-1-1.7-1.9l-2.1-3.9c-.6-1.2-1.1-2.4-1.7-3.6-.4-.8-.9-1.6-1.2-2.4-.2-.3-.4-1.2-.6-1.4 0 2.3.1 4.7.2 7 0 2.1.3 4.3.3 6.4 0 .6-.1.7-.8.7-.6 0-1.3-.3-1.6-.3h-.1c-.2 0-.2-.5-.2-.7 0-1 .1-2 .1-3v-9.8c0-.9-.1-1.8-.1-2.8 0-.4 0-1.9.5-1.9 1.5 0 1.7.1 2.4 1.3 1.2 2.2 2.5 4.4 3.7 6.6.4.8 2.6 5.7 3.2 5.7.1 0 .2-.3.2-.3.6-1 1-2 1.5-3 1.2-2.3 2.5-4.6 3.7-6.9.4-.7 1.1-2.6 1.8-3 .2-.1 1.1-.2 1.3-.2 1 0 .9.8.9 1.6 0 3.3 0 6.5.1 9.8 0 1.3.1 2.6.1 4 0 .6.2 1.3.2 1.9 0 .4-.1.8-.6.8-.2 0-.5-.1-.7-.2-.7-.3-.4.1-.6-.7-.1-.5-.1-1-.1-1.5 0-1.9-.1-3.9-.2-5.8-.1-1.4 0-2.8-.1-4.2 0-.3 0-.7-.1-1 0 0 0-.2-.1-.2s-.4.5-.5.6c-1.1 2.2-2.1 4.5-3.3 6.8zM168.6 131.1c0-1.4.1-2.9 0-4.3 0-.4-.1-1.2-.1-1.6 0-.8.3-.9 1.1-.9.9 0 2.2.5 3 .9 2.2 1.4 3 4.4 3 6.9 0 2.9-1.6 4.1-2.4 5.2-.1.1 4.4.8 4.4 4.5 0 3.6-6.2 3.2-8.4 3.2-.6 0-.5-.4-.6-.8-.1-.5-.1-1.1-.1-1.6 0-3.8 0-7.6-.1-11.3v-.2zm3.6-3c-.2-.2-1.5-1.7-1.5-.7 0 2.8.2 6 .2 8.8 0 .1 0 .1.1.2h.1c2.7-.9 2.5-6.5 1.1-8.3zm-.8 11.4c-.4 0-.5.3-.5.6 0 .7-.1 1.4-.1 2.1 0 .4.1.7.6.7 2.3 0 3.9-.3 3.9-1.5 0-1.7-2.9-1.9-3.9-1.9zM187.7 130.3c-.4.2-2 4.2-2.4 4.9-1 1.8-2 3.7-2.7 5.7-.1.4-.3 1.6-.7 1.8-.2.1-1.2.2-1.5.2-.7 0-.7-1.8-.7-2.3 0-1.4.2-2.7.2-4.1 0-1.9-.2-3.9-.2-5.8v-2.2c0-.7-.1-1.5-.1-2.2 0-.6 1.4-1 1.8-1 .4 0 .4.5.4.8 0 3.4-.1 6.7-.1 10.1 0 .6 0 1.1.1 1.7.8-1 2.5-4.3 2.9-5.5.5-1.3 1.2-2.5 1.7-3.8.2-.6.6-2.4 1-2.8.3-.3.8-.4 1.2-.4.6 0 .8.4.8.9 0 .7-.2 1.3-.2 2 0 4 .2 8.1.2 12.1 0 .9 0 1.9-.1 2.8-.1 1-.1.8-1 .8-.2 0-.4.1-.6.1-.5 0-.5-1.1-.5-1.5 0-4 .5-7.9.5-11.9.1-.1.1-.3 0-.4zM200.6 141.2c0 .7.2 1.3.2 2 0 .2 0 .7-.4.7-.2 0-.4-.1-.6-.1-1-.2-1.2-.8-1.2-1.7 0-.8.2-3.7-.2-4.3-.3-.4-.6-.5-1-.5-.8 0-1.5-.3-2.2-.3-.6 0-.6.7-.6 1.1 0 .7.1 1.3.1 2 0 .6.2 1.2.2 1.8 0 .7-1 .8-1.6.8-.6 0-1.1-.1-1.1-.7s.2-1.1.2-1.6c0-1.1-.1-2.3-.1-3.4 0-2.9.2-5.7.2-8.6 0-.8-.1-1.6-.1-2.4 0-.3 0-.5.4-.5.6 0 2.1-.2 2.1.6 0 .5-.2 1-.2 1.5v1c0 1.3.1 2.6 0 3.8 0 .6-.2 1.1-.2 1.7 0 .6.4.8 1 .9.7.1 1.5.2 2.2.2.1 0 .4 0 .5-.1.4-.2.4-1.6.4-2 0-.9-.1-1.7-.1-2.6 0-.8.1-1.7.1-2.5 0-.5-.1-1-.1-1.5 0-.6.2-1 .9-1 .9 0 1.2.5 1.2 1.3V141.2zM203.5 134.6c0-4.2 1.7-8.9 6.6-8.9 5.1 0 6.2 6 6.2 9.9 0 4-1.7 8.7-6.5 8.7s-6.3-5.8-6.3-9.7zm2.2-.6c0 .6 0 1.2.1 1.8.2 2 1.5 6.3 4.1 6.3 3.3 0 4.3-4.9 4.3-7.4 0-2.3-.9-6.9-4-6.9-3.7 0-4.5 3.2-4.5 6.2zM218.5 131.1c0-1.4.1-2.9 0-4.3 0-.4-.1-1.2-.1-1.6 0-.8.3-.9 1.1-.9.9 0 2.2.5 3 .9 2.2 1.4 3 4.4 3 6.9 0 2.9-1.6 4.1-2.4 5.2-.1.1 4.4.8 4.4 4.5 0 3.6-6.2 3.2-8.4 3.2-.6 0-.5-.4-.6-.8-.1-.5-.1-1.1-.1-1.6 0-3.8 0-7.6-.1-11.3v-.2zm3.6-3c-.2-.2-1.5-1.7-1.5-.7 0 2.8.2 6 .2 8.8 0 .1 0 .1.1.2h.1c2.7-.9 2.5-6.5 1.1-8.3zm3.2 13.3c-.1-1.7-3-1.9-4-1.9-.4 0-.5.3-.5.6 0 .7-.1 1.4-.1 2.1 0 .4.1.7.6.7 2.4.1 4-.3 4-1.5zM239.1 147.3c-.4.5-1.1.5-1.6.5-3.9 0-6.6-1.8-6.6-6 0-1.9.9-3.6 3-3.6 1.2 0 2.3.9 2.8.9h.2c0-2.7 0-12.1-1.2-14-.3-.5-.8-.9-1.5-.9-1.4 0-2.2 1.5-2.2 2.7 0 1.1 0 1.3-1.1 1.3-.5 0-1.8.1-1.8-.6s.5-1.9.8-2.5c.9-1.7 2.9-3.4 4.9-3.4.5 0 .9.1 1.4.3 2.4 1.1 2.7 5.7 3 8 .3 2.6.4 5.2.4 7.8 0 2.5-.1 5.1-.1 7.6-.2.5-.1 1.3-.4 1.9zm-5.7-5c0 1.7 1.3 3.1 3 3.1.6 0 .7-.6.7-1.1 0-.7-.2-1.4-.2-2.2 0-1.4-.4-1.7-1.7-1.7-1.1.1-1.8.9-1.8 1.9zM244.2 124.1c-.3-.1-1.4-.1-1.7-.4v-.3c0-1.3 0-1.6 1.4-1.6.9 0 1.7.1 2.6.1.6 0 1.3-.1 1.9-.1.5 0 1.2 0 1.2.6 0 .4.1.8.1 1.2 0 .9-2.2-.2-2.2 1.2 0 .3 0 .6.1 1 .1 3.4.2 6.8.2 10.1 0 3.5 0 7 .2 10.5v.7c0 .3 0 .6-.4.6-.3 0-.7-.2-.9-.3-.6-.2-.8-.1-.8-1 0-.4.1-.9.1-1.3 0-6.6-.4-13.2-.4-19.7-.3-1.2-.3-1.1-1.4-1.3zM258.6 133.5c.1.3.2 1.2.2 1.6 0 .2-.5.5-.6.6-.9.8-3.1 3.2-3.7 4.2-.2.4-.4.5-.8.6h-.1c-.6 0-.7-1.3-.7-1.7v-.4c.2-.5.8-.8 1.1-1.2.8-.9 1.6-1.7 2.4-2.6-1.2-1.5-2.7-2.8-4-4.2v-.3c0-.5.4-1.5 1-1.5.1 0 .5.5.6.6.5.6 3.3 3.5 3.8 3.8.4.2.7.2.8.5zm4.7-.3c.1.3.2 1.4.2 1.7 0 .1-1.6 1.8-1.8 2.1-.8 1-1.8 2.1-2.4 3.2-.2.3-.6 1-1 1-.3 0-1.1-1.5-1.1-1.8 0-.4.4-.4.5-.7.3-.7.7-.8 1.1-1.3.8-1 1.6-1.9 2.4-2.9-1.1-1.5-2.7-3.2-4-4.6-.1-.1-.2-.2-.2-.4 0-.4.7-1.6 1.1-1.6.1 0 .5.6.6.7.5.7 3.3 3.9 3.8 4.2.4.1.7.1.8.4zM268.3 146.2c0 .4-.1.7-.3.7-.5.1-.6.1-1.1.2-.3.1-.4.1-.6-.3-.2-.5-.1-1.2-.1-1.8 0-.8.1-1.9.1-2.7 0-.1 0-.3.1-.4.3-.7.7-.5 1.1-.5.6 0 .8-.1 1 1 .2 1.2-.1 2.7-.2 3.8zM279 134.1c0-.1 1.5-1.7 1.7-2 .7-1 1.7-2 2.3-3 .2-.3.6-.9.9-.9.3 0 1 1.4 1 1.7 0 .4-.4.4-.5.7-.3.6-.6.7-1.1 1.2-.8.9-1.5 1.8-2.3 2.7 1.1 1.5 2.5 2.9 3.7 4.4.1.1.2.2.2.4 0 .4-.7 1.5-1.1 1.5-.1 0-.5-.5-.5-.7-.5-.6-3.1-3.6-3.6-3.9-.2-.1-.5-.2-.6-.5 0-.2-.1-1.2-.1-1.6zm4.5 0c0-.2.4-.4.6-.6.9-.8 2.8-3 3.4-3.9.2-.3.4-.5.8-.6h.1c.5 0 .6 1.2.6 1.6v.4c-.1.2-2.9 3-3.3 3.5 1.1 1.4 2.5 2.7 3.7 3.9v.3c0 .5-.3 1.4-.9 1.4-.1 0-.5-.5-.5-.6-.5-.6-3.1-3.3-3.6-3.5-.2-.1-.5-.2-.6-.4-.3-.3-.3-1.2-.3-1.5zM299.3 122.8c.6-.2 1.2-.3 1.8-.4.1.2.1.5.1.7 0 1.2-.1 2.5-.1 3.7 0 1.9-.1 3.7-.1 5.6v12.2c0 .4.1.8.1 1.2 0 .6-.6.7-1.1.7-.7 0-1.3.1-1.3-.7 0-.8.1-1.6.1-2.3.1-3.2-.1-6.5.2-9.7.1-.8.2-1.5.2-2.3 0-.2 0-.3-.1-.4-.3.4-.4 1.4-.6 2-.2 1-.6 2-.9 3-.8 2.9-1.7 5.9-2.4 8.9-.1.6-.2 1.9-.8 2.2h-.2c-.3 0-1.7-.1-1.8-.3-.1-.1-.1-.3-.1-.5 0-.6.1-1.2.1-1.8 0-2.1-.2-4.1-.2-6.2v-12.1c0-.7-.2-1.3-.2-2 0-1.4.5-1.1 1.6-1.3.2 0 .4-.1.6-.1.3 0 .4.3.4.5 0 .5-.2.9-.2 1.4 0 5.3-.2 10.6-.2 15.8.3-.4.5-1.7.6-2.2.2-.9.5-1.8.8-2.7.7-1.9 1.2-3.9 1.8-5.9.5-1.8 1.2-3.6 1.3-5.6v-.1c.2-.5.1-1 .6-1.3zM304.6 145.3c-.1-.8-.2-1.5-.2-2.3 0-2.1.3-4.2.3-6.2 0-1.7-.2-3.4-.2-5.1 0-1.6.2-3.2.2-4.9 0-1.4-.1-2.8-.1-4.2 0-.3-.1-1.4.3-1.4.2 0 .9.3 1.1.4.6.2.8 0 .8.8 0 .6-.1 1.2-.1 1.9 0 1.1.1 2.3.1 3.4 0 4.4.2 8.7.2 13.1v1.9c0 .9 3.5 1.1 4.2 1.2-.1-2 0-3.9-.1-5.9-.1-2.7-.1-5.4-.4-8v-1.2c0-1 .1-2 0-3 0-.4-.2-.9-.2-1.3 0-.8.8-.9 1.4-.9 1.1 0 1.1.4 1.1 1.3 0 .7-.1 1.5-.1 2.2 0 5.6.3 11.3.4 16.9 1.4 0 2.7-.4 4-.4v-1.3-2.3c-.1-3.6-.1-7.1-.2-10.7 0-1.6.1-3.3-.1-4.9 0-.4-.2-.8-.2-1.2 0-.2.1-.5 0-.7.1-.3 1.5-.4 1.8-.4.7 0 .5.2.6.7.1.4.1.7.1 1.1 0 .8-.1 1.7-.1 2.5 0 5.8 0 11.6.1 17.3.6 0 1.2 0 1.8.1.5.1 1 .1 1 .7 0 .3-.1.7 0 1 0 .5.1 1 .1 1.6 0 .6-.1 1-.8 1-.4 0-.7-.1-1-.1h-.3c0-.1 0-.4-.1-.5 0-.6 0-1.1-.1-1.7h-.2c-4.7 0-9.4.2-14 .2-.8.1-1-.2-1.1-.7zM331.2 130.3c-.4.2-2 4.2-2.4 4.9-1 1.8-2 3.7-2.7 5.7-.1.4-.3 1.6-.7 1.8-.2.1-1.2.2-1.5.2-.7 0-.7-1.8-.7-2.3 0-1.4.2-2.7.2-4.1 0-1.9-.2-3.9-.2-5.8v-2.2c0-.7-.1-1.5-.1-2.2 0-.6 1.4-1 1.8-1 .4 0 .4.5.4.8 0 3.4-.1 6.7-.1 10.1 0 .6 0 1.1.1 1.7.8-1 2.5-4.3 2.9-5.5.5-1.3 1.2-2.5 1.7-3.8.2-.6.6-2.4 1-2.8.3-.3.8-.4 1.2-.4.6 0 .8.4.8.9 0 .7-.2 1.3-.2 2 0 4 .2 8.1.2 12.1 0 .9 0 1.9-.1 2.8-.1 1-.1.8-1 .8-.2 0-.4.1-.6.1-.5 0-.5-1.1-.5-1.5 0-4 .5-7.9.5-11.9.1-.1.1-.3 0-.4zM352.5 124.4c.1.7.2 1.3.2 2 0 1.7-.3 3.4-.3 5.2 0 1.5.2 3 .2 4.5 0 1.4-.2 2.9-.2 4.3 0 1.1.1 2.2.1 3.2 0 .6.1 1.6-.7 1.6-.2 0-.5-.1-.7-.1-.5-.1-.8 0-.8-.8 0-.6.1-1.1.1-1.7 0-1-.1-2.1-.1-3.1 0-3.8-.2-7.6-.2-11.4v-2c0-.4 0-.6-.5-.6-1.2 0-2.3.4-3.5.4v2.7c.1 3.3.1 6.7.2 10 0 1.5-.1 3.1.1 4.6.1.5.2 1.1.2 1.6 0 .1-.1.5 0 .7-.1.3-1.5.4-1.8.4-.7 0-.5-.1-.6-.7-.1-.4-.1-.8-.1-1.1 0-.9.1-1.8.1-2.7 0-5.6-.1-11.2-.1-16.8 0-.7.6-1.1 1.3-1.1 1.7 0 3.5.2 5.3.2.8 0 1.6-.4 1.8.7zM355.5 123.6c2.1.1 5.2-.2 6.5 1.8.3.5.5 1 .5 1.6 0 1.5-1.2 3.1-2.4 3.8-.6.4-1.6.4-2 .8-.3.3-.4.7-.4 1.1 0 .5.1 1.1.1 1.6 0 2.3.2 4.7.4 7 .1 1.1.4 2.1.4 3.2 0 .9-.1 1.2-1 1.2-1.5 0-1.5-.4-1.5-1.7 0-3.7 0-7.5-.2-11.2-.1-2.4-.4-4.7-.4-7.1-.1-.7-.1-1.4 0-2.1zm4.5 4.9c.1-.2.1-.4.1-.7 0-1.1-1.2-2.1-2.2-2.1-.4 0-.5.3-.5.7v1.1c0 .5-.1.9-.1 1.4 0 .4.1.9.6.9.7 0 1.9-.8 2.1-1.3zM372.9 130.3c-.4.2-2 4.2-2.4 4.9-1 1.8-2 3.7-2.7 5.7-.1.4-.3 1.6-.7 1.8-.2.1-1.2.2-1.5.2-.7 0-.7-1.8-.7-2.3 0-1.4.2-2.7.2-4.1 0-1.9-.2-3.9-.2-5.8v-2.2c0-.7-.1-1.5-.1-2.2 0-.6 1.4-1 1.8-1 .4 0 .4.5.4.8 0 3.4-.1 6.7-.1 10.1 0 .6 0 1.1.1 1.7.8-1 2.5-4.3 2.9-5.5.5-1.3 1.2-2.5 1.7-3.8.2-.6.6-2.4 1-2.8.3-.3.8-.4 1.2-.4.6 0 .8.4.8.9 0 .7-.2 1.3-.2 2 0 4 .2 8.1.2 12.1 0 .9 0 1.9-.1 2.8-.1 1-.1.8-1 .8-.2 0-.4.1-.6.1-.5 0-.5-1.1-.5-1.5 0-4 .5-7.9.5-11.9v-.4zM381.2 136.9c-4.8-.2-4.4-6.4-4.5-9.8v-.8c0-.5.6-.6 1-.6s1.1 0 1.1.6c0 2.3-.2 8.2 3.3 8.2 3.4 0 3.4-3.9 3.4-6.4 0-.6-.4-2.7.5-2.7 1.9 0 1.6.7 1.6 2.4 0 4.5.1 9.1.1 13.6 0 .9.3 2.6-1.1 2.6-1.2 0-1.2-2.1-1.2-2.9 0-2 .1-3.9.1-5.9v-.6c-.7 1.6-2.5 2.3-4.1 2.3h-.2zM398.3 130.3c-.4.2-2 4.2-2.4 4.9-1 1.8-2 3.7-2.7 5.7-.1.4-.3 1.6-.7 1.8-.2.1-1.2.2-1.5.2-.7 0-.7-1.8-.7-2.3 0-1.4.2-2.7.2-4.1 0-1.9-.2-3.9-.2-5.8v-2.2c0-.7-.1-1.5-.1-2.2 0-.6 1.4-1 1.8-1 .4 0 .4.5.4.8 0 3.4-.1 6.7-.1 10.1 0 .6 0 1.1.1 1.7.8-1 2.5-4.3 2.9-5.5.5-1.3 1.2-2.5 1.7-3.8.2-.6.6-2.4 1-2.8.3-.3.8-.4 1.2-.4.6 0 .8.4.8.9 0 .7-.2 1.3-.2 2 0 4 .2 8.1.2 12.1 0 .9 0 1.9-.1 2.8-.1 1-.1.8-1 .8-.2 0-.4.1-.6.1-.5 0-.5-1.1-.5-1.5 0-4 .5-7.9.5-11.9.1-.1.1-.3 0-.4zM411.2 130.5c.1 3.6 0 7.1.1 10.7 0 .7.1 1.3.1 2 0 .2 0 .7-.4.7-.2 0-.4-.1-.6-.1-1-.2-1.2-.8-1.2-1.7 0-.8.2-3.7-.2-4.3-.3-.4-.6-.5-1-.5-.8 0-1.5-.3-2.2-.3-.6 0-.6.7-.6 1.1 0 .7.1 1.3.1 2 0 .6.2 1.2.2 1.8 0 .7-1 .8-1.6.8-.6 0-1.1-.1-1.1-.7s.2-1.1.2-1.6c0-1.1-.1-2.3-.1-3.4 0-2.9.2-5.7.2-8.6 0-.8-.1-1.6-.1-2.4 0-.3 0-.5.4-.5.6 0 2.1-.2 2.1.6 0 .5-.2 1-.2 1.5v1c0 1.3.1 2.6 0 3.8 0 .6-.2 1.1-.2 1.7 0 .6.4.8 1 .9.7.1 1.5.2 2.2.2.1 0 .4 0 .5-.1.4-.2.4-1.6.4-2 0-.9-.1-1.7-.1-2.6 0-.8.1-1.7.1-2.5 0-.5-.1-1-.1-1.5 0-.6.2-1 .9-1 .9 0 1.2.5 1.2 1.3v3.7zM422 125.6c.2 2.5.5 5 .5 7.5 0 1.7-.1 3.3-.2 5-.2 2.6-.4 8.7-4.1 8.7-2.5 0-3.8-1.7-3.8-4.1 0-1.3 0-2.9 1.8-2.9.1 0 .3.1.3.3 0 .3-.2.5-.2.8 0 .9.3 4 1.5 4 .3 0 .6-.2.9-.4.9-.8.9-2.6 1-3.7.1-1.6.2-3.1.3-4.7.1-2 .2-4 .2-6.1 0-.3 0-.8-.2-1.1-.4 1-1.1 2.1-2.3 2.1-3.3 0-3.9-4.8-3.9-7.2 0-.9.6-1.3 1.5-1.3.8 0 .9 1 .9 1.6 0 1-.1 2 0 2.9.1.8.7 2.2 1.6 2.2 1.4 0 1.7-2.3 1.7-3.3 0-.8-.2-1.5-.2-2.3 0-.7.7-.7 1.2-.7 1.1 0 1.6-.1 1.6 1.2 0 .5-.1 1-.1 1.5zM433.6 131.1c0-1.4.1-2.9 0-4.3 0-.4-.1-1.2-.1-1.6 0-.8.3-.9 1.1-.9.9 0 2.2.5 3 .9 2.2 1.4 3 4.4 3 6.9 0 2.9-1.6 4.1-2.4 5.2-.1.1 4.4.8 4.4 4.5 0 3.6-6.2 3.2-8.4 3.2-.6 0-.5-.4-.6-.8-.1-.5-.1-1.1-.1-1.6 0-3.8 0-7.6-.1-11.3v-.2zm3.6-3c-.2-.2-1.5-1.7-1.5-.7 0 2.8.2 6 .2 8.8 0 .1 0 .1.1.2h.1c2.7-.9 2.5-6.5 1.1-8.3zm3.2 13.3c-.1-1.7-3-1.9-4-1.9-.4 0-.5.3-.5.6 0 .7-.1 1.4-.1 2.1 0 .4.1.7.6.7 2.4.1 4-.3 4-1.5zM91.8 156.7c2.4 1.4 2.8 6.7 2.8 9.2v1h-.9c-.3 0-.5 0-.7-.1-.6-.2-.4 0-.6-.7-.3-1.7.2-7.4-2.4-7.4-2.3 0-2.3 5-2.3 6.5 0 1 .1 2 .1 3 0 1.9-.2 12 2.6 12 .9 0 1.4-1.1 1.6-1.8.2-.7.1-1.5.2-2.2.2-.8.2-.6.9-.7.5 0 1-.1 1.5-.2-.2 2-.1 4.4-1.4 6.1-.6.8-1.5 1.3-2.5 1.3-.8 0-1.6-.3-2.1-.9-3.1-3-2.9-9.2-2.9-13.2 0-2.1 0-4.3.2-6.4.2-2.7 1-6 4.5-6 .3 0 .9.2 1.4.5zM102.9 179c-.4.1-.7.2-1.1.2-3.8 0-4.8-6.7-4.8-9.5 0-2.9.3-9.8 4.4-9.8 3.2 0 4.7 4.7 4.7 7.3 0 1.3-.7 1.5-1.8 1.5-1 0-2-.1-3-.1-.8 0-1.7.2-1.7 1.2 0 .5.1 1.1.2 1.6.1 1.3.2 5.5 2.1 5.5 1.9 0 1.3-3.7 1.8-3.9.2-.1.5-.2.7-.2.5 0 1 .1 1.5.1.4 0 .4.2.4.6 0 2-1.2 4.9-3.4 5.5zm-3-12.8c0 .3.6.3.8.3.7 0 1.4-.2 2.1-.3.5-.1.9 0 .9-.7 0-1.1-1-3.5-2.3-3.5-1.3 0-1.3 1.9-1.3 2.8v.7c-.2.3-.2.5-.2.7zM112.2 180.6c-2.4-.7-2.7-4.8-2.7-6.8 0-3.5 1.4-4.7 4.8-4.7.3 0 .6 0 .9.1-.8-2.1-6.3-1.9-6.3-6.4 0-.8.5-1.6 1-2.2 1.7-1.8 5.3-2.2 7.7-2.2h.5c0 .1.1.2.1.3 0 .6-.2 1.8-.4 2.4l-.1.2c-.6 0-1.2-.1-1.8-.1-1 0-4.2.3-4.2 1.8 0 2 4.5 2.3 5.3 6.3.3 1.4.4 2.9.4 4.3 0 3.2-.4 7.3-4.5 7.3-.1-.2-.4-.3-.7-.3zm-.1-5.4c0 1-.1 3.4 1.2 3.6.3-.1.6-.2.8-.4.6-1 1-3.9 1-5.2 0-.8-.1-1.5-.2-2.3-.9.1-1.7.3-2.4.9-.3 1.1-.4 2.3-.4 3.4zm1.3 4.7zM126.6 179c-.4.1-.7.2-1.1.2-3.8 0-4.8-6.7-4.8-9.5 0-2.9.3-9.8 4.4-9.8 3.2 0 4.7 4.7 4.7 7.3 0 1.3-.7 1.5-1.8 1.5-1 0-2-.1-3-.1-.8 0-1.7.2-1.7 1.2 0 .5.1 1.1.2 1.6.1 1.3.2 5.5 2.1 5.5 1.9 0 1.3-3.7 1.8-3.9.2-.1.5-.2.7-.2.5 0 1 .1 1.5.1.4 0 .4.2.4.6 0 2-1.2 4.9-3.4 5.5zm-3-12.8c0 .3.6.3.8.3.7 0 1.4-.2 2.1-.3.5-.1.9 0 .9-.7 0-1.1-1-3.5-2.3-3.5-1.3 0-1.3 1.9-1.3 2.8v.7c-.2.3-.2.5-.2.7zM138.9 168.3c.1.3.2 1.2.2 1.6 0 .2-.5.5-.6.6-.9.8-3.1 3.2-3.7 4.2-.2.4-.4.5-.8.6h-.1c-.6 0-.7-1.3-.7-1.7v-.4c.2-.5.8-.8 1.1-1.2.8-.9 1.6-1.7 2.4-2.6-1.2-1.5-2.7-2.8-4-4.2v-.3c0-.5.4-1.5 1-1.5.1 0 .5.5.6.6.5.6 3.3 3.5 3.8 3.8.3.2.6.2.8.5zm4.7-.3c.1.3.2 1.4.2 1.7 0 .1-1.6 1.8-1.8 2.1-.8 1-1.8 2.1-2.4 3.2-.2.3-.6 1-1 1-.3 0-1.1-1.5-1.1-1.8 0-.4.4-.4.5-.7.3-.7.7-.8 1.1-1.3.8-1 1.6-1.9 2.4-2.9-1.1-1.5-2.7-3.2-4-4.6-.1-.1-.2-.2-.2-.4 0-.4.7-1.6 1.1-1.6.1 0 .5.6.6.7.5.7 3.3 3.9 3.8 4.2.4.1.7.1.8.4zM148.6 181c0 .4-.1.7-.3.7-.5.1-.6.1-1.1.2-.3.1-.4.1-.6-.3-.2-.5-.1-1.2-.1-1.8 0-.8.1-1.9.1-2.7 0-.1 0-.3.1-.4.3-.7.7-.5 1.1-.5.6 0 .8-.1 1 1 .2 1.2-.1 2.7-.2 3.8zM159.3 168.9c0-.1 1.5-1.7 1.7-2 .7-1 1.7-2 2.3-3 .2-.3.6-.9.9-.9.3 0 1 1.4 1 1.7 0 .4-.4.4-.5.7-.3.6-.6.7-1.1 1.2-.8.9-1.5 1.8-2.3 2.7 1.1 1.5 2.5 2.9 3.7 4.4.1.1.2.2.2.4 0 .4-.7 1.5-1.1 1.5-.1 0-.5-.5-.5-.7-.5-.6-3.1-3.6-3.6-3.9-.2-.1-.5-.2-.6-.5 0-.2-.1-1.2-.1-1.6zm4.6 1.4c-.1-.2-.2-1.2-.2-1.5 0-.2.4-.4.6-.6.9-.8 2.8-3 3.4-3.9.2-.3.4-.5.8-.6h.1c.5 0 .6 1.2.6 1.6v.4c-.1.2-2.9 3-3.3 3.5 1.1 1.4 2.5 2.7 3.7 3.9v.3c0 .5-.3 1.4-.9 1.4-.1 0-.5-.5-.5-.6-.5-.6-3.1-3.3-3.6-3.5-.3-.1-.6-.2-.7-.4zM178.1 176.8c.4 0 2.1-.1 2.1.4 0 .4-.1.7-.1 1.1-.3 2.2-1.4 4.7-4 4.7-3.7 0-3.9-5.5-4.1-8.2-.1-1.2-.1-2.3-.1-3.5 0-1.6.1-3.2.1-4.9 0-2.7-.2-5.9.7-8.5.5-1.3 1.6-2.7 3.1-2.7 2 0 3.1 2.6 3.6 4.2.2.6.4 1.3.4 1.9.1.1.2.3.2.5 0 .4-.4.3-.7.4-.4.1-.9.2-1.3.3-.1-1.2-.4-4.6-2.1-4.6-1.8 0-1.9 4.8-1.9 6 0 1.3.1 2.7.1 4 0 1.6-.1 3.1-.1 4.7 0 1.5.1 7.6 2.3 7.6 1.5.1 1.7-2.3 1.8-3.4zM193 158.9c-.3-.1-1.4-.1-1.7-.4v-.3c0-1.3 0-1.6 1.4-1.6.9 0 1.7.1 2.6.1.6 0 1.3-.1 1.9-.1.5 0 1.2 0 1.2.6 0 .4.1.8.1 1.2 0 .9-2.2-.2-2.2 1.2 0 .3 0 .6.1 1 .1 3.4.2 6.8.2 10.1 0 3.5 0 7 .2 10.5v.7c0 .3 0 .6-.4.6-.3 0-.7-.2-.9-.3-.6-.2-.8-.1-.8-1 0-.4.1-.9.1-1.3 0-6.6-.4-13.2-.4-19.7-.2-1.2-.3-1.1-1.4-1.3zM199.9 169.4c0-4.2 1.7-8.9 6.6-8.9 5.1 0 6.1 6 6.1 9.9 0 4-1.7 8.7-6.5 8.7-4.7 0-6.2-5.8-6.2-9.7zm2.2-.6c0 .6 0 1.2.1 1.8.2 2 1.5 6.3 4.1 6.3 3.3 0 4.3-4.9 4.3-7.4 0-2.3-.9-6.9-4-6.9-3.7 0-4.5 3.2-4.5 6.2zM217.9 180.6c-2.4-.7-2.7-4.8-2.7-6.8 0-3.5 1.4-4.7 4.8-4.7.3 0 .6 0 .9.1-.8-2.1-6.3-1.9-6.3-6.4 0-.8.5-1.6 1-2.2 1.7-1.8 5.3-2.2 7.7-2.2h.5c0 .1.1.2.1.3 0 .6-.2 1.8-.4 2.4l-.1.2c-.6 0-1.2-.1-1.8-.1-1 0-4.2.3-4.2 1.8 0 2 4.5 2.3 5.3 6.3.3 1.4.4 2.9.4 4.3 0 3.2-.4 7.3-4.5 7.3-.2-.2-.4-.3-.7-.3zm-.1-5.4c0 1-.1 3.4 1.2 3.6.3-.1.6-.2.8-.4.6-1 1-3.9 1-5.2 0-.8-.1-1.5-.2-2.3-.9.1-1.7.3-2.4.9-.3 1.1-.4 2.3-.4 3.4zm1.3 4.7zM226.8 169.4c0-4.2 1.7-8.9 6.6-8.9 5.1 0 6.1 6 6.1 9.9 0 4-1.7 8.7-6.5 8.7s-6.2-5.8-6.2-9.7zm2.2-.6c0 .6 0 1.2.1 1.8.2 2 1.5 6.3 4.1 6.3 3.3 0 4.3-4.9 4.3-7.4 0-2.3-.9-6.9-4-6.9-3.7 0-4.5 3.2-4.5 6.2zM241.9 167.2v-.8c0-1.3.1-2.6 0-3.9 0-.4-.1-.8-.1-1.2 0-.6 1.3-1.2 1.8-1.2s.4 1 .4 1.3V175s0 .2.1.2c0 0 .1-.2.1-.3.1-.4.3-.8.4-1.3.5-1.8 1-3.5 1.5-5.3.2-.8 2.1-7.5 2.3-7.7.3-.3.8-.5 1.2-.5.7 0 .8.6.8 1.1 0 .7-.2 1.4-.2 2 0 3.1.2 6.2.2 9.3 0 2 .1 4 .1 6 0 1 0 2-.1 3-.1 1.1 0 .9-1 1-.2 0-.4.1-.6.1-.6 0-.5-1.9-.5-2.3 0-4.5.5-9 .5-13.5v-.6c0-.1 0-.2-.1-.2s-.5 1.2-.5 1.3c-.4 1.5-.7 3.1-1.1 4.6-.6 2.3-1.3 4.6-2 6.8-.1.4-.3 1.9-.7 2.2-.2.1-1.3.2-1.5.2-.8 0-.8-2.4-.8-2.9 0-1.5.2-3.1.2-4.6-.2-2-.3-4.2-.4-6.4zm2.9-8.9c-.1 0-.1-.4-.1-.5-.1-.5-.1-1-.1-1.6 1.3 0 2.5-.1 3.8-.1 0 .5.2.9.2 1.4 0 .8-.8.8-1.4.8-.6 0-1.2-.1-1.8-.1-.2.1-.4.1-.6.1zM265.8 171.7c-4.8-.2-4.4-6.4-4.5-9.8v-.8c0-.5.6-.6 1-.6s1.1 0 1.1.6c0 2.3-.2 8.2 3.3 8.2 3.4 0 3.4-3.9 3.4-6.4 0-.6-.4-2.7.5-2.7 1.9 0 1.6.7 1.6 2.4 0 4.5.1 9.1.1 13.6 0 .9.3 2.6-1.1 2.6-1.2 0-1.2-2.1-1.2-2.9 0-2 .1-3.9.1-5.9v-.6c-.7 1.6-2.5 2.3-4.1 2.3h-.2zM276.3 158.9c-.3-.1-1.4-.1-1.7-.4v-.3c0-1.3 0-1.6 1.4-1.6.9 0 1.7.1 2.6.1.6 0 1.3-.1 1.9-.1.5 0 1.2 0 1.2.6 0 .4.1.8.1 1.2 0 .9-2.2-.2-2.2 1.2 0 .3 0 .6.1 1 .1 3.4.2 6.8.2 10.1 0 3.5 0 7 .2 10.5v.7c0 .3 0 .6-.4.6-.3 0-.7-.2-.9-.3-.6-.2-.8-.1-.8-1 0-.4.1-.9.1-1.3 0-6.6-.4-13.2-.4-19.7-.3-1.2-.4-1.1-1.4-1.3zM283.1 169.4c0-4.2 1.7-8.9 6.6-8.9 5.1 0 6.1 6 6.1 9.9 0 4-1.7 8.7-6.5 8.7-4.7 0-6.2-5.8-6.2-9.7zm2.2-.6c0 .6 0 1.2.1 1.8.2 2 1.5 6.3 4.1 6.3 3.3 0 4.3-4.9 4.3-7.4 0-2.3-.9-6.9-4-6.9-3.7 0-4.5 3.2-4.5 6.2zM299.5 170.8c-.1 0-.3-.1-.4 0-.2-.1-.2-1.9-.2-2.1 0-.6-.1-.6.4-.8.2-.1.5-.1.7-.1.5 0 1 .1 1.5.1 2.5 0 5-.1 7.5-.1 0 .4 0 2.2-.1 2.4-.1 0-.2.1-.3.1-.7 0-1.5-.1-2.3-.1-1.2 0-4.9.1-5.9.4-.2.1-.5.2-.9.2zM313.2 158.9c-.3-.1-1.4-.1-1.7-.4v-.3c0-1.3 0-1.6 1.4-1.6.9 0 1.7.1 2.6.1.6 0 1.3-.1 1.9-.1.5 0 1.2 0 1.2.6 0 .4.1.8.1 1.2 0 .9-2.2-.2-2.2 1.2 0 .3 0 .6.1 1 .1 3.4.2 6.8.2 10.1 0 3.5 0 7 .2 10.5v.7c0 .3 0 .6-.4.6-.3 0-.7-.2-.9-.3-.6-.2-.8-.1-.8-1 0-.4.1-.9.1-1.3 0-6.6-.4-13.2-.4-19.7-.2-1.2-.3-1.1-1.4-1.3zM320.1 169.4c0-4.2 1.7-8.9 6.6-8.9 5.1 0 6.1 6 6.1 9.9 0 4-1.7 8.7-6.5 8.7-4.7 0-6.2-5.8-6.2-9.7zm2.2-.6c0 .6 0 1.2.1 1.8.2 2 1.5 6.3 4.1 6.3 3.3 0 4.3-4.9 4.3-7.4 0-2.3-.9-6.9-4-6.9-3.7 0-4.5 3.2-4.5 6.2zM351.9 176c0 .7.1 1.3.1 2 0 .2 0 .7-.4.7-.2 0-.4-.1-.6-.1-1-.2-1.2-.8-1.2-1.7 0-.8.2-3.7-.2-4.3-.3-.4-.6-.5-1-.5-.8 0-1.5-.3-2.2-.3-.6 0-.6.7-.6 1.1 0 .7.1 1.3.1 2 0 .6.2 1.2.2 1.8 0 .7-1 .8-1.6.8-.6 0-1.1-.1-1.1-.7s.2-1.1.2-1.6c0-1.1-.1-2.3-.1-3.4 0-2.9.2-5.7.2-8.6 0-.8-.1-1.6-.1-2.4 0-.3 0-.5.4-.5.6 0 2.1-.2 2.1.6 0 .5-.2 1-.2 1.5v1c0 1.3.1 2.6 0 3.8 0 .6-.2 1.1-.2 1.7 0 .6.4.8 1 .9.7.1 1.5.2 2.2.2.1 0 .4 0 .5-.1.4-.2.4-1.6.4-2 0-.9-.1-1.7-.1-2.6 0-.8.1-1.7.1-2.5 0-.5-.1-1-.1-1.5 0-.6.2-1 .9-1 .9 0 1.2.5 1.2 1.3v3.7c.1 3.6.1 7.1.1 10.7zM360.3 179c-.4.1-.7.2-1.1.2-3.8 0-4.8-6.7-4.8-9.5 0-2.9.3-9.8 4.4-9.8 3.2 0 4.7 4.7 4.7 7.3 0 1.3-.7 1.5-1.8 1.5-1 0-2-.1-3-.1-.8 0-1.7.2-1.7 1.2 0 .5.1 1.1.2 1.6.1 1.3.2 5.5 2.1 5.5 1.9 0 1.3-3.7 1.8-3.9.2-.1.5-.2.7-.2.5 0 1 .1 1.5.1.4 0 .4.2.4.6 0 2-1.2 4.9-3.4 5.5zm-3-12.8c0 .3.6.3.8.3.7 0 1.4-.2 2.1-.3.5-.1.9 0 .9-.7 0-1.1-1-3.5-2.3-3.5-1.3 0-1.3 1.9-1.3 2.8v.7c-.1.3-.2.5-.2.7zM376.6 158.9c-.3-.1-1.4-.1-1.7-.4v-.3c0-1.3 0-1.6 1.4-1.6.9 0 1.7.1 2.6.1.6 0 1.3-.1 1.9-.1.5 0 1.2 0 1.2.6 0 .4.1.8.1 1.2 0 .9-2.2-.2-2.2 1.2 0 .3 0 .6.1 1 .1 3.4.2 6.8.2 10.1 0 3.5 0 7 .2 10.5v.7c0 .3 0 .6-.4.6-.3 0-.7-.2-.9-.3-.6-.2-.8-.1-.8-1 0-.4.1-.9.1-1.3 0-6.6-.4-13.2-.4-19.7-.3-1.2-.3-1.1-1.4-1.3zM394.7 182.1c-.4.5-1.1.5-1.6.5-3.9 0-6.6-1.8-6.6-6 0-1.9.9-3.6 3-3.6 1.2 0 2.3.9 2.8.9h.2c0-2.7 0-12.1-1.2-14-.3-.5-.8-.9-1.5-.9-1.4 0-2.2 1.5-2.2 2.7 0 1.1 0 1.3-1.1 1.3-.5 0-1.8.1-1.8-.6s.5-1.9.8-2.5c.9-1.7 2.9-3.4 4.9-3.4.5 0 .9.1 1.4.3 2.4 1.1 2.7 5.7 3 8 .3 2.6.4 5.2.4 7.8 0 2.5-.1 5.1-.1 7.6-.2.5-.1 1.3-.4 1.9zm-5.7-5c0 1.7 1.3 3.1 3 3.1.6 0 .7-.6.7-1.1 0-.7-.2-1.4-.2-2.2 0-1.4-.4-1.7-1.7-1.7-1.1.1-1.8.9-1.8 1.9zM401.5 179.7c.1.6.2 1.2.2 1.8 0 .2-.1.6 0 .7-.2.4-1.6.4-2 .4-.7 0-.6-.1-.7-.7-.1-.5-.1-.9-.1-1.4 0-1 .1-1.9.1-2.9 0-7.1 0-14.2-.1-21.2.4 0 2.1 0 2.3.2.1.1.1.4.1.6 0 1.5-.1 2.9-.1 4.4v2.8c0 1.2-.2 2.4-.2 3.5.8-1.7 2.2-2.9 3.3-4.4.5-.6 2.5-3.4 2.9-3.6l1.1.8v.2c0 1.2-6.4 8-6.4 8.8 0 .3.4.8.6 1.1.5.8 4.4 8.4 4.4 8.8 0 .5-1 1-1.4 1-.5-.6-4.6-8.8-4.6-9.4.1 2.8.3 5.6.6 8.5zM415.7 168.3c.1.3.2 1.2.2 1.6 0 .2-.5.5-.6.6-.9.8-3.1 3.2-3.7 4.2-.2.4-.4.5-.8.6h-.1c-.6 0-.7-1.3-.7-1.7v-.4c.2-.5.8-.8 1.1-1.2.8-.9 1.6-1.7 2.4-2.6-1.2-1.5-2.7-2.8-4-4.2v-.3c0-.5.4-1.5 1-1.5.1 0 .5.5.6.6.5.6 3.3 3.5 3.8 3.8.4.2.7.2.8.5zm4.7-.3c.1.3.2 1.4.2 1.7 0 .1-1.6 1.8-1.8 2.1-.8 1-1.8 2.1-2.4 3.2-.2.3-.6 1-1 1-.3 0-1.1-1.5-1.1-1.8 0-.4.4-.4.5-.7.3-.7.7-.8 1.1-1.3.8-1 1.6-1.9 2.4-2.9-1.1-1.5-2.7-3.2-4-4.6-.1-.1-.2-.2-.2-.4 0-.4.7-1.6 1.1-1.6.1 0 .5.6.6.7.5.7 3.3 3.9 3.8 4.2.4.1.7.1.8.4zM425.6 177.3c.2 1.1-.1 2.6-.2 3.7 0 .4-.1.7-.3.7-.5.1-.6.1-1.1.2-.3.1-.4.1-.6-.3-.2-.5-.1-1.2-.1-1.8 0-.8.1-1.9.1-2.7 0-.1 0-.3.1-.4.3-.7.7-.5 1.1-.5.5.1.8 0 1 1.1zM61.8 203.7c0-.1 1.5-1.7 1.7-2 .7-1 1.7-2 2.3-3 .2-.3.6-.9.9-.9.3 0 1 1.4 1 1.7 0 .4-.4.4-.5.7-.3.6-.6.7-1.1 1.2-.8.9-1.5 1.8-2.3 2.7 1.1 1.5 2.5 2.9 3.7 4.4.1.1.2.2.2.4 0 .4-.7 1.5-1.1 1.5-.1 0-.5-.5-.5-.7-.5-.6-3.1-3.6-3.6-3.9-.2-.1-.5-.2-.6-.5 0-.2-.1-1.2-.1-1.6zm4.4 0c0-.2.4-.4.6-.6.9-.8 2.9-3 3.4-3.9.2-.3.4-.5.8-.6h.1c.5 0 .6 1.2.6 1.6v.4c-.1.2-2.9 3-3.3 3.5 1.1 1.4 2.5 2.7 3.7 3.9v.3c0 .5-.3 1.4-.9 1.4-.1 0-.5-.5-.5-.6-.5-.6-3.1-3.3-3.6-3.5-.2-.1-.5-.2-.6-.4-.2-.3-.3-1.2-.3-1.5zM80.4 192.5c.4.2.6.8.6 1.2 0 .6-.4 1.1-1 1.1-.5 0-.9-.3-1.2-.3-.3 0-.3.4-.3.6v.6c.3 2.5.2 5.1.4 7.7.1 2.7.2 5.4.5 8 0 .5.1 1 .1 1.4v1.5c0 .5.2.9.2 1.3 0 .8-.8.9-1.4.9-1.1 0-1-.5-1-1.4 0-.7.1-1.4.1-2.1v-.1c-.2-5.7-.6-11.5-.7-17.2 0-.7.1-1.4-.9-1.4-.5 0-1 .3-1.5.3-.7 0-.8-.6-.8-1.1 0-.3.1-1.5.6-1.5.3 0 .5.1.8.2.8.1 1.7.2 2.5.2.7 0 1.3-.1 2-.1.3 0 .7 0 1 .2zM89.7 213.8c-.4.1-.7.2-1.1.2-3.8 0-4.8-6.7-4.8-9.5 0-2.9.3-9.8 4.4-9.8 3.2 0 4.7 4.7 4.7 7.3 0 1.3-.7 1.5-1.8 1.5-1 0-2-.1-3-.1-.8 0-1.7.2-1.7 1.2 0 .5.1 1.1.2 1.6.1 1.3.2 5.5 2.1 5.5 1.9 0 1.3-3.7 1.8-3.9.2-.1.5-.2.7-.2.5 0 1 .1 1.5.1.4 0 .4.2.4.6 0 2-1.2 4.9-3.4 5.5zm-3-12.8c0 .3.6.3.8.3.7 0 1.4-.2 2.1-.3.5-.1.9 0 .9-.7 0-1.1-1-3.5-2.3-3.5-1.3 0-1.3 1.9-1.3 2.8v.7c-.2.3-.2.5-.2.7zM99 215.4c-2.4-.7-2.7-4.8-2.7-6.8 0-3.5 1.4-4.7 4.8-4.7.3 0 .6 0 .9.1-.8-2.1-6.3-1.9-6.3-6.4 0-.8.5-1.6 1-2.2 1.7-1.8 5.3-2.2 7.7-2.2h.5c0 .1.1.2.1.3 0 .6-.2 1.8-.4 2.4l-.1.2c-.6 0-1.2-.1-1.8-.1-1.1 0-4.2.3-4.2 1.8 0 2 4.5 2.3 5.3 6.3.3 1.4.4 2.9.4 4.3 0 3.2-.4 7.3-4.5 7.3-.2-.2-.4-.3-.7-.3zm-.1-5.4c0 1-.1 3.4 1.2 3.6.3-.1.6-.2.8-.4.6-1 1-3.9 1-5.2 0-.8-.1-1.5-.2-2.3-.9.1-1.7.3-2.4.9-.3 1.1-.4 2.3-.4 3.4zm1.3 4.7zM113.4 213.8c-.4.1-.7.2-1.1.2-3.8 0-4.8-6.7-4.8-9.5 0-2.9.3-9.8 4.4-9.8 3.2 0 4.7 4.7 4.7 7.3 0 1.3-.7 1.5-1.8 1.5-1 0-2-.1-3-.1-.8 0-1.7.2-1.7 1.2 0 .5.1 1.1.2 1.6.1 1.3.2 5.5 2.1 5.5 1.9 0 1.3-3.7 1.8-3.9.2-.1.5-.2.7-.2.5 0 1 .1 1.5.1.4 0 .4.2.4.6 0 2-1.2 4.9-3.4 5.5zm-3-12.8c0 .3.6.3.8.3.7 0 1.4-.2 2.1-.3.5-.1.9 0 .9-.7 0-1.1-1-3.5-2.3-3.5-1.3 0-1.3 1.9-1.3 2.8v.7c-.2.3-.2.5-.2.7zM136.5 210.8c0 .7.2 1.3.2 2 0 .2 0 .7-.4.7-.2 0-.4-.1-.6-.1-1-.2-1.2-.8-1.2-1.7 0-.8.2-3.7-.2-4.3-.3-.4-.6-.5-1-.5-.8 0-1.5-.3-2.2-.3-.6 0-.6.7-.6 1.1 0 .7.1 1.3.1 2 0 .6.2 1.2.2 1.8 0 .7-1 .8-1.6.8-.6 0-1.1-.1-1.1-.7s.2-1.1.2-1.6c0-1.1-.1-2.3-.1-3.4 0-2.9.2-5.7.2-8.6 0-.8-.1-1.6-.1-2.4 0-.3 0-.5.4-.5.6 0 2.1-.2 2.1.6 0 .5-.2 1-.2 1.5v1c0 1.3.1 2.6 0 3.8 0 .6-.2 1.1-.2 1.7 0 .6.4.8 1 .9.7.1 1.5.2 2.2.2.1 0 .4 0 .5-.1.4-.2.4-1.6.4-2 0-.9-.1-1.7-.1-2.6 0-.8.1-1.7.1-2.5 0-.5-.1-1-.1-1.5 0-.6.2-1 .9-1 .9 0 1.2.5 1.2 1.3V210.8zM148.9 216.9c-.4.5-1.1.5-1.6.5-3.9 0-6.6-1.8-6.6-6 0-1.9.9-3.6 3-3.6 1.2 0 2.3.9 2.8.9h.2c0-2.7 0-12.1-1.2-14-.3-.5-.8-.9-1.5-.9-1.4 0-2.2 1.5-2.2 2.7 0 1.1 0 1.3-1.1 1.3-.5 0-1.8.1-1.8-.6s.5-1.9.8-2.5c.9-1.7 2.9-3.4 4.9-3.4.5 0 .9.1 1.4.3 2.4 1.1 2.7 5.7 3 8 .3 2.6.4 5.2.4 7.8 0 2.5-.1 5.1-.1 7.6-.3.5-.1 1.3-.4 1.9zm-5.7-5c0 1.7 1.3 3.1 3 3.1.6 0 .7-.6.7-1.1 0-.7-.2-1.4-.2-2.2 0-1.4-.4-1.7-1.7-1.7-1.1.1-1.8.9-1.8 1.9zM152.6 192.4c0-.7 1.4-.6 1.9-.6 5.2 0 6.2 4 6.2 8.3 0 2.7 0 5.3-.2 8-.1 1.2-.2 2.3-.2 3.5 0 2.4-1.2 5.1-3.9 5.1-.8 0-1.7-.3-2.3-.8-1.3-.9-1.3-5.9-1.3-7.5 0-1.6-.1-3.3.1-4.9.3-2.4 1.2-3.9 3.8-3.9.8 0 1.3.5 1.5.5.1 0 .2 0 .2-.1v-.9c0-3.1-1.2-5-4.6-5-1 0-.9-.7-1.2-1.5v-.2zm5.6 9.3c-.3-.1-.6-.2-.9-.2-1.7 0-2.1 1.1-2.2 2.6-.1 1.1-.1 2.2-.1 3.3 0 1.6.1 3.2.1 4.8 0 1 .1 2.4 1.5 2.4.3 0 .5-.1.8-.2.5-.6.6-2.1.6-2.9.1-3.2.1-6.5.2-9.8zM163.1 204.2c0-4.2 1.7-8.9 6.6-8.9 5.1 0 6.1 6 6.1 9.9 0 4-1.7 8.7-6.5 8.7-4.7 0-6.2-5.8-6.2-9.7zm2.2-.6c0 .6 0 1.2.1 1.8.2 2 1.5 6.3 4.1 6.3 3.3 0 4.3-4.9 4.3-7.4 0-2.3-.9-6.9-4-6.9-3.7 0-4.5 3.2-4.5 6.2zM194.7 199.9c-.4.2-2 4.2-2.4 4.9-1 1.8-2 3.7-2.7 5.7-.1.4-.3 1.6-.7 1.8-.2.1-1.2.2-1.5.2-.7 0-.7-1.8-.7-2.3 0-1.4.2-2.7.2-4.1 0-1.9-.2-3.9-.2-5.8v-2.2c0-.7-.1-1.5-.1-2.2 0-.6 1.4-1 1.8-1 .4 0 .4.5.4.8 0 3.4-.1 6.7-.1 10.1 0 .6 0 1.1.1 1.7.8-1 2.5-4.3 2.9-5.5.5-1.3 1.2-2.5 1.7-3.8.2-.6.6-2.4 1-2.8.3-.3.8-.4 1.2-.4.6 0 .8.4.8.9 0 .7-.2 1.3-.2 2 0 4 .2 8.1.2 12.1 0 .9 0 1.9-.1 2.8-.1 1-.1.8-1 .8-.2 0-.4.1-.6.1-.5 0-.5-1.1-.5-1.5 0-4 .5-7.9.5-11.9.1-.1.1-.3 0-.4zM202.9 217.2c-2.5 0-4.2-3-4.2-5.2 0-.3 1.8-.5 2.1-.5.2 1.2.3 3.5 2 3.5 1.6 0 2-3.1 2-4.3 0-3-.3-5.5-3.9-5.5h-.5c-.7-.1-.8-1.7-.4-2.5 1.1.1 3 .3 3.3-1.1.3-1.4.6-2.9.6-4.4 0-1.1-.1-3.5-1.5-3.5-1.6 0-1.8 2.2-2 3.5-.3-.1-2.1-.4-2.1-.7 0-1.9 1.2-5.2 4.2-5.2 3.3 0 3.8 3.9 3.8 6.4 0 2.2-.1 5.1-2.4 6.2 2 .5 2.6 2.1 2.8 4.6.1.8.1 1.6.1 2.3 0 1.4-.2 2.9-.8 4.2-.5 1.3-1.7 2.2-3.1 2.2zM222.6 207.2c-.7 1.3-1.3 2.5-1.9 3.8-.3.7-.5 1.7-1.5 1.7h-.4c-1.2-.2-1.2-1-1.7-1.9l-2.1-3.9c-.6-1.2-1.1-2.4-1.7-3.6-.4-.8-.9-1.6-1.2-2.4-.2-.3-.4-1.2-.6-1.4 0 2.3.1 4.7.2 7 0 2.1.3 4.3.3 6.4 0 .6-.1.7-.8.7-.6 0-1.3-.3-1.6-.3h-.1c-.1 0-.2-.5-.2-.7 0-1 .1-2 .1-3v-9.8c0-.9-.1-1.8-.1-2.8 0-.4 0-1.9.5-1.9 1.5 0 1.7.1 2.4 1.3 1.2 2.2 2.5 4.4 3.7 6.6.4.8 2.6 5.7 3.2 5.7.1 0 .2-.3.2-.3.6-1 1-2 1.5-3 1.2-2.3 2.5-4.6 3.7-6.9.4-.7 1.1-2.6 1.8-3 .2-.1 1.1-.2 1.3-.2 1 0 .9.8.9 1.6 0 3.3 0 6.5.1 9.8 0 1.3.1 2.6.1 4 0 .6.2 1.3.2 1.9 0 .4-.1.8-.6.8-.2 0-.5-.1-.7-.2-.7-.3-.4.1-.6-.7-.1-.5-.1-1-.1-1.5 0-1.9-.1-3.9-.2-5.8 0-1.4 0-2.8-.1-4.2 0-.3 0-.7-.1-1 0 0 0-.2-.1-.2s-.4.5-.5.6c-1.2 2.2-2.1 4.5-3.3 6.8zM237.3 213.8c-.4.1-.7.2-1.1.2-3.8 0-4.8-6.7-4.8-9.5 0-2.9.3-9.8 4.4-9.8 3.2 0 4.7 4.7 4.7 7.3 0 1.3-.7 1.5-1.8 1.5-1 0-2-.1-3-.1-.8 0-1.7.2-1.7 1.2 0 .5.1 1.1.2 1.6.1 1.3.2 5.5 2.1 5.5 1.9 0 1.3-3.7 1.8-3.9.2-.1.5-.2.7-.2.5 0 1 .1 1.5.1.4 0 .4.2.4.6-.1 2-1.2 4.9-3.4 5.5zm-3.1-12.8c0 .3.6.3.8.3.7 0 1.4-.2 2.1-.3.5-.1.9 0 .9-.7 0-1.1-1-3.5-2.3-3.5-1.3 0-1.3 1.9-1.3 2.8v.7c-.1.3-.2.5-.2.7zM251.8 200.1c.1 3.6 0 7.1.1 10.7 0 .7.1 1.3.1 2 0 .2 0 .7-.4.7-.2 0-.4-.1-.6-.1-1-.2-1.2-.8-1.2-1.7 0-.8.2-3.7-.2-4.3-.3-.4-.6-.5-1-.5-.8 0-1.5-.3-2.2-.3-.6 0-.6.7-.6 1.1 0 .7.1 1.3.1 2 0 .6.2 1.2.2 1.8 0 .7-1 .8-1.6.8-.6 0-1.1-.1-1.1-.7s.2-1.1.2-1.6c0-1.1-.1-2.3-.1-3.4 0-2.9.2-5.7.2-8.6 0-.8-.1-1.6-.1-2.4 0-.3 0-.5.4-.5.6 0 2.1-.2 2.1.6 0 .5-.2 1-.2 1.5v1c0 1.3.1 2.6 0 3.8 0 .6-.2 1.1-.2 1.7 0 .6.4.8 1 .9.7.1 1.5.2 2.2.2.1 0 .4 0 .5-.1.4-.2.4-1.6.4-2 0-.9-.1-1.7-.1-2.6 0-.8.1-1.7.1-2.5 0-.5-.1-1-.1-1.5 0-.6.2-1 .9-1 .9 0 1.2.5 1.2 1.3v3.7zM262.7 199.9c-.4.2-2 4.2-2.4 4.9-1 1.8-2 3.7-2.7 5.7-.1.4-.3 1.6-.7 1.8-.2.1-1.2.2-1.5.2-.7 0-.7-1.8-.7-2.3 0-1.4.2-2.7.2-4.1 0-1.9-.2-3.9-.2-5.8v-2.2c0-.7-.1-1.5-.1-2.2 0-.6 1.4-1 1.8-1 .4 0 .4.5.4.8 0 3.4-.1 6.7-.1 10.1 0 .6 0 1.1.1 1.7.8-1 2.5-4.3 2.9-5.5.5-1.3 1.2-2.5 1.7-3.8.2-.6.6-2.4 1-2.8.3-.3.8-.4 1.2-.4.6 0 .8.4.8.9 0 .7-.2 1.3-.2 2 0 4 .2 8.1.2 12.1 0 .9 0 1.9-.1 2.8-.1 1-.1.8-1 .8-.2 0-.4.1-.6.1-.5 0-.5-1.1-.5-1.5 0-4 .5-7.9.5-11.9.1-.1.1-.3 0-.4zM268.8 193.7c-.3-.1-1.4-.1-1.7-.4v-.3c0-1.3 0-1.6 1.4-1.6.9 0 1.7.1 2.6.1.6 0 1.3-.1 1.9-.1.5 0 1.2 0 1.2.6 0 .4.1.8.1 1.2 0 .9-2.2-.2-2.2 1.2 0 .3 0 .6.1 1 .1 3.4.2 6.8.2 10.1 0 3.5 0 7 .2 10.5v.7c0 .3 0 .6-.4.6-.3 0-.7-.2-.9-.3-.6-.2-.8-.1-.8-1 0-.4.1-.9.1-1.3 0-6.6-.4-13.2-.4-19.7-.3-1.2-.3-1.1-1.4-1.3zM281.8 206.7c1.4 1 2.5 2.8 2.5 4.5 0 .6-.2 1.3-.5 1.8-1.3 2.3-4.2 2.2-6.5 2.3-.1-1.1-.2-2.1-.2-3.2 0-3.7.3-7.4.3-11.2 0-2-.1-3.9-.1-5.9 0-1.4 0-1.8 1.6-1.8 1 0 1 .7 1 1.5 0 1.2-.2 2.4-.3 3.5-.1 1.2-.3 2.3-.3 3.5 0 .9-.1 1.7-.1 2.6.1 2.3 1.4 1.5 2.6 2.4zm-1.5 6c.9-.4 1.6-1.3 1.6-2.3 0-1-1.1-2.4-2.2-2.4-.5 0-.6.6-.6 1 0 .7.2 1.4.2 2.2 0 .4-.2 1.7.5 1.7.1-.1.3-.2.5-.2zM293.7 191.5c2.4 1.4 2.8 6.7 2.8 9.2v1h-.9c-.3 0-.5 0-.7-.1-.6-.2-.4 0-.6-.7-.3-1.7.2-7.4-2.4-7.4-2.3 0-2.3 5-2.3 6.5 0 1 .1 2 .1 3 0 1.9-.2 12 2.6 12 .9 0 1.4-1.1 1.6-1.8.2-.7.1-1.5.2-2.2.2-.8.2-.6.9-.7.5 0 1-.1 1.5-.2-.2 2-.1 4.4-1.4 6.1-.6.8-1.5 1.3-2.5 1.3-.8 0-1.6-.3-2.1-.9-3.1-3-2.9-9.2-2.9-13.2 0-2.1 0-4.3.2-6.4.2-2.7 1-6 4.5-6 .3 0 .9.2 1.4.5zM307.6 192.3c.1.1.1.3.1.5 0 .5-.1.9-.1 1.4 0 6.3-.3 12.6-.3 18.9 0 .5.1 1 .1 1.5 0 .9-.2.8-.9 1-.3.1-.6.2-.9.2-.4 0-.5-.4-.5-.7 0-.7.1-1.5.1-2.2 0-1-.1-2-.1-3.1 0-1.6.1-3.3.1-4.9-1 2.6-1.9 5.2-2.9 7.8-.5 1.2-.9 2.5-1.4 3.7-.1.3-.4.5-.8.5-.3 0-1.4-.6-1.4-.9 0 0 2.1-5.5 2.4-6.2.9-2.7 1.9-5.3 2.9-7.9-2.4-.4-3.6-3.1-3.6-5.2 0-2.5 1.4-4.8 4.1-4.8.4 0 .9.1 1.3.1.7-.2 1.5-.2 1.8.3zm-2.1 6c0-.8-.1-1.5 0-2.3 0-.4.1-.8.1-1.2 0-.3-.1-1.2-.4-1.2-1.7 0-2.6 1.2-2.6 2.8 0 1.3.7 3.6 2.3 3.6.6 0 .5-1 .5-1.4l.1-.3zM316.2 203.1c.1.3.2 1.2.2 1.6 0 .2-.5.5-.6.6-.9.8-3.1 3.2-3.7 4.2-.2.4-.4.5-.8.6h-.1c-.6 0-.7-1.3-.7-1.7v-.4c.2-.5.8-.8 1.1-1.2.8-.9 1.6-1.7 2.4-2.6-1.2-1.5-2.7-2.8-4-4.2v-.3c0-.5.4-1.5 1-1.5.1 0 .5.5.6.6.5.6 3.3 3.5 3.8 3.8.4.2.7.2.8.5zm4.7-.3c.1.3.2 1.4.2 1.7 0 .1-1.6 1.8-1.8 2.1-.8 1-1.8 2.1-2.4 3.2-.2.3-.6 1-1 1-.3 0-1.1-1.5-1.1-1.8 0-.4.4-.4.5-.7.3-.7.7-.8 1.1-1.3.8-1 1.6-1.9 2.4-2.9-1.1-1.5-2.7-3.2-4-4.6-.1-.1-.2-.2-.2-.4 0-.4.7-1.6 1.1-1.6.1 0 .5.6.6.7.5.7 3.3 3.9 3.8 4.2.4.1.7.1.8.4zM326 215.8c0 .4-.1.7-.3.7-.5.1-.6.1-1.1.2-.3.1-.4.1-.6-.3-.2-.5-.1-1.2-.1-1.8 0-.8.1-1.9.1-2.7 0-.1 0-.3.1-.4.3-.7.7-.5 1.1-.5.6 0 .8-.1 1 1 .1 1.2-.2 2.7-.2 3.8zM336.7 203.7c0-.1 1.5-1.7 1.7-2 .7-1 1.7-2 2.3-3 .2-.3.6-.9.9-.9.3 0 1 1.4 1 1.7 0 .4-.4.4-.5.7-.3.6-.6.7-1.1 1.2-.8.9-1.5 1.8-2.3 2.7 1.1 1.5 2.5 2.9 3.7 4.4.1.1.2.2.2.4 0 .4-.7 1.5-1.1 1.5-.1 0-.5-.5-.5-.7-.5-.6-3.1-3.6-3.6-3.9-.2-.1-.5-.2-.6-.5-.1-.2-.1-1.2-.1-1.6zm4.4 0c0-.2.4-.4.6-.6.9-.8 2.8-3 3.4-3.9.2-.3.4-.5.8-.6h.1c.5 0 .6 1.2.6 1.6v.4c-.1.2-2.9 3-3.3 3.5 1.1 1.4 2.5 2.7 3.7 3.9v.3c0 .5-.3 1.4-.9 1.4-.1 0-.5-.5-.5-.6-.5-.6-3.1-3.3-3.6-3.5-.2-.1-.5-.2-.6-.4-.2-.3-.3-1.2-.3-1.5zM355.3 192.5c.4.2.6.8.6 1.2 0 .6-.4 1.1-1 1.1-.5 0-.9-.3-1.2-.3-.3 0-.3.4-.3.6v.6c.3 2.5.2 5.1.4 7.7.1 2.7.2 5.4.5 8 0 .5.1 1 .1 1.4v1.5c0 .5.2.9.2 1.3 0 .8-.8.9-1.4.9-1.1 0-1-.5-1-1.4 0-.7.1-1.4.1-2.1v-.1c-.2-5.7-.6-11.5-.7-17.2 0-.7.1-1.4-.9-1.4-.5 0-1 .3-1.5.3-.7 0-.8-.6-.8-1.1 0-.3.1-1.5.6-1.5.3 0 .5.1.8.2.8.1 1.7.2 2.5.2.7 0 1.3-.1 2-.1.3 0 .6 0 1 .2zM365.4 214.4c-1.3 2.3-4.2 2.1-6.5 2.2-.1-.9-.1-1.9-.1-2.8 0-2.6.3-5.3.4-7.9.1-2.9.1-5.7.1-8.6 0-1.2-.1-2.4-.1-3.6 0-1.3.1-1.8 1.6-1.8.9 0 1 .5 1 1.2 0 1.3-.2 2.6-.3 3.9-.2 2.9-.4 5.8-.4 8.7 0 .5 0 1 .4 1.4.4.4 1.5.5 2.1.9 1.3.9 2.5 2.9 2.5 4.5-.2.7-.4 1.3-.7 1.9zm-4.7-4.1c0 .7.2 1.4.2 2 0 .4-.2 1.8.4 1.8 1.1 0 2.2-1.3 2.2-2.4 0-1-1.1-2.4-2.2-2.4h-.2c-.3.1-.4.7-.4 1zm9.1 2.8c.1.6.2 1.2.2 1.8 0 .2-.1.6 0 .7-.2.3-1.4.4-1.8.4-.7 0-.6-.2-.7-.7 0-.4-.1-.8-.1-1.2 0-1 .1-2 .1-3 0-6 0-12-.1-18 .3 0 1.9 0 2.1.2.1.1.1.4.1.6 0 1.5-.1 2.9-.1 4.4 0 3.4.1 6.8.2 10.3 0 1.5-.1 3 .1 4.5zM389.4 194c.1.7.2 1.3.2 2 0 1.7-.3 3.4-.3 5.2 0 1.5.2 3 .2 4.5 0 1.4-.2 2.9-.2 4.3 0 1.1.1 2.2.1 3.2 0 .6.1 1.6-.7 1.6-.2 0-.5-.1-.7-.1-.5-.1-.8 0-.8-.8 0-.6.1-1.1.1-1.7 0-1-.1-2.1-.1-3.1 0-3.8-.2-7.6-.2-11.4v-2c0-.4 0-.6-.5-.6-1.2 0-2.3.4-3.5.4v2.7c.1 3.3.1 6.7.2 10 0 1.5-.1 3.1.1 4.6.1.5.2 1.1.2 1.6 0 .1-.1.5 0 .7-.1.3-1.5.4-1.8.4-.7 0-.5-.1-.6-.7-.1-.4-.1-.8-.1-1.1 0-.9.1-1.8.1-2.7 0-5.6-.1-11.2-.1-16.8 0-.7.6-1.1 1.3-1.1 1.7 0 3.5.2 5.3.2.8 0 1.6-.4 1.8.7zM398.9 195.1c.3.5.5 1 .5 1.6 0 1.5-1.2 3.1-2.4 3.8-.6.4-1.6.4-2 .8-.3.3-.4.7-.4 1.1 0 .5.1 1.1.1 1.6 0 2.3.2 4.7.4 7 .1 1.1.4 2.1.4 3.2 0 .9-.1 1.2-1 1.2-1.5 0-1.5-.4-1.5-1.7 0-3.7 0-7.5-.2-11.2-.1-2.4-.4-4.7-.4-7.1 0-.7 0-1.4.1-2.1 2 0 5-.2 6.4 1.8zm-2 3c.1-.2.1-.4.1-.7 0-1.1-1.2-2.1-2.2-2.1-.4 0-.5.3-.5.7v1.1c0 .5-.1.9-.1 1.4 0 .4.1.9.6.9.7 0 1.8-.8 2.1-1.3zM401.8 204.2c0-4.2 1.7-8.9 6.6-8.9 5.1 0 6.1 6 6.1 9.9 0 4-1.7 8.7-6.5 8.7s-6.2-5.8-6.2-9.7zm2.2-.6c0 .6 0 1.2.1 1.8.2 2 1.5 6.3 4.1 6.3 3.3 0 4.3-4.9 4.3-7.4 0-2.3-.9-6.9-4-6.9-3.7 0-4.5 3.2-4.5 6.2zM422.9 191.5c2.4 1.4 2.8 6.7 2.8 9.2v1h-.9c-.3 0-.5 0-.7-.1-.6-.2-.4 0-.6-.7-.3-1.7.2-7.4-2.4-7.4-2.3 0-2.3 5-2.3 6.5 0 1 .1 2 .1 3 0 1.9-.2 12 2.6 12 .9 0 1.4-1.1 1.6-1.8.2-.7.1-1.5.2-2.2.2-.8.2-.6.9-.7.5 0 1-.1 1.5-.2-.2 2-.1 4.4-1.4 6.1-.6.8-1.5 1.3-2.5 1.3-.8 0-1.6-.3-2.1-.9-3.1-3-2.9-9.2-2.9-13.2 0-2.1 0-4.3.2-6.4.2-2.7 1-6 4.5-6 .2 0 .8.2 1.4.5zM429.7 193.7c-.3-.1-1.4-.1-1.7-.4v-.3c0-1.3 0-1.6 1.4-1.6.9 0 1.7.1 2.6.1.6 0 1.3-.1 1.9-.1.5 0 1.2 0 1.2.6 0 .4.1.8.1 1.2 0 .9-2.2-.2-2.2 1.2 0 .3 0 .6.1 1 .1 3.4.2 6.8.2 10.1 0 3.5 0 7 .2 10.5v.7c0 .3 0 .6-.4.6-.3 0-.7-.2-.9-.3-.6-.2-.8-.1-.8-1 0-.4.1-.9.1-1.3 0-6.6-.4-13.2-.4-19.7-.3-1.2-.3-1.1-1.4-1.3zM436.6 204.2c0-4.2 1.7-8.9 6.6-8.9 5.1 0 6.2 6 6.2 9.9 0 4-1.7 8.7-6.5 8.7-4.9 0-6.3-5.8-6.3-9.7zm2.2-.6c0 .6 0 1.2.1 1.8.2 2 1.5 6.3 4.1 6.3 3.3 0 4.3-4.9 4.3-7.4 0-2.3-.9-6.9-4-6.9-3.7 0-4.5 3.2-4.5 6.2zM72.2 226.3c2.4 1.4 2.8 6.7 2.8 9.2v1h-.9c-.3 0-.5 0-.7-.1-.6-.2-.4 0-.6-.7-.3-1.7.2-7.4-2.4-7.4-2.3 0-2.3 5-2.3 6.5 0 1 .1 2 .1 3 0 1.9-.2 12 2.6 12 .9 0 1.4-1.1 1.6-1.8.2-.7.1-1.5.2-2.2.2-.8.2-.6.9-.7.5 0 1-.1 1.5-.2-.2 2-.1 4.4-1.4 6.1-.6.8-1.5 1.3-2.5 1.3-.8 0-1.6-.3-2.1-.9-3.1-3-2.9-9.2-2.9-13.2 0-2.1 0-4.3.2-6.4.2-2.7 1-6 4.5-6 .3 0 .9.2 1.4.5zM85.9 243.6c.2.7 1.2 4.1 1.2 4.5 0 .3-.3.3-.6.3h-.4c-1.5-.1-1.3-.8-1.6-2-.3-1.4-.8-2.7-1.1-4.1-.4-1.4-.6-2.9-1-4.3-.1-.6-.5-3.4-.8-3.6-.4 2.8-.9 5.6-1.1 8.4-.1 1.5-.5 3-.6 4.6-.1.9.1.8-.7 1.1-.1 0-.3.1-.4.1-.4 0-.9-.1-1.3-.3.1-2.2.9-4.4 1.2-6.7.4-2.8.8-5.5 1.3-8.3.1-.7.1-2.9.5-3.2.2-.2.9-.2 1.2-.2.2 0 .6 0 .8.1.6.3.7 1.6.8 2.2.6 3.7 1.6 7.6 2.6 11.4zM97.4 234.7c-.4.2-2 4.2-2.4 4.9-1 1.8-2 3.7-2.7 5.7-.1.4-.3 1.6-.7 1.8-.2.1-1.2.2-1.5.2-.7 0-.7-1.8-.7-2.3 0-1.4.2-2.7.2-4.1 0-1.9-.2-3.9-.2-5.8v-2.2c0-.7-.1-1.5-.1-2.2 0-.6 1.4-1 1.8-1 .4 0 .4.5.4.8 0 3.4-.1 6.7-.1 10.1 0 .6 0 1.1.1 1.7.8-1 2.5-4.3 2.9-5.5.5-1.3 1.2-2.5 1.7-3.8.2-.6.6-2.4 1-2.8.3-.3.8-.4 1.2-.4.6 0 .8.4.8.9 0 .7-.2 1.3-.2 2 0 4 .2 8.1.2 12.1 0 .9 0 1.9-.1 2.8-.1 1-.1.8-1 .8-.2 0-.4.1-.6.1-.5 0-.5-1.1-.5-1.5 0-4 .5-7.9.5-11.9.1-.1.1-.3 0-.4zM113.1 249.9c-3.3.2-6.7.1-10.1.1-.6 0-.7-.2-.8-.7-.4-1.8-.3-5.6-.3-7.5 0-2.7 0-5.4.1-8.1 0-1.3 0-2.7.1-4 0-.4.1-.9.6-.9.2 0 .4.1.6.1.5.1.7 0 .7.7 0 .5-.1 1.1-.1 1.6 0 1 .1 2 .1 3 0 3.8.1 7.5.1 11.3v1.7c0 .8 2.7 1 3.2 1-.1-1.7 0-3.4-.1-5.1-.1-2.3-.1-4.6-.3-6.9v-.8-1.8c0-.4-.2-.7-.2-1.1 0-.7.7-.8 1.3-.8.9 0 1 .2 1 1 0 .7-.1 1.4-.1 2 0 4.5.3 9 .4 13.5.9 0 1.6-.4 2.5-.4v-1.1-2c-.1-3.2-.1-6.4-.2-9.6 0-1.4.1-3-.1-4.4-.1-.5-.2-1-.2-1.5 0-.1.1-.5 0-.6.1-.3 1.4-.3 1.7-.3.6 0 .5.1.6.6.1.4.1.7.1 1.1 0 .9-.1 1.7-.1 2.6 0 4.5.2 9 .2 13.6 0 1 .1 2.2-.1 3.2.1.2-.2.4-.6.5zM119.9 251.1c0 .2-.1.6 0 .7-.2.4-1.6.4-2 .4-.7 0-.6-.1-.7-.7-.1-.5-.1-.9-.1-1.4 0-1 .1-1.9.1-2.9 0-7.1 0-14.1-.1-21.2.4 0 2.1 0 2.3.2.1.1.1.4.1.6 0 1.5-.1 2.9-.1 4.4v2.8c0 1.2-.2 2.4-.2 3.5.8-1.7 2.2-2.9 3.3-4.4.5-.6 2.5-3.4 2.9-3.6l1.1.8v.2c0 1.2-6.4 8-6.4 8.8 0 .3.4.8.6 1.1.5.8 4.4 8.4 4.4 8.8 0 .5-1 1-1.4 1-.5-.6-4.6-8.8-4.6-9.4 0 2.9.2 5.7.6 8.6.1.5.2 1.1.2 1.7zM127.2 239c0-4.2 1.7-8.9 6.6-8.9 5.1 0 6.1 6 6.1 9.9 0 4-1.7 8.7-6.5 8.7-4.7 0-6.2-5.8-6.2-9.7zm2.2-.6c0 .6 0 1.2.1 1.8.2 2 1.5 6.3 4.1 6.3 3.3 0 4.3-4.9 4.3-7.4 0-2.3-.9-6.9-4-6.9-3.7 0-4.5 3.2-4.5 6.2zM155.4 242c-.7 1.3-1.3 2.5-1.9 3.8-.3.7-.5 1.7-1.5 1.7h-.4c-1.2-.2-1.2-1-1.7-1.9l-2.1-3.9c-.6-1.2-1.1-2.4-1.7-3.6-.4-.8-.9-1.6-1.2-2.4-.2-.3-.4-1.2-.6-1.4 0 2.3.1 4.7.2 7 0 2.1.3 4.3.3 6.4 0 .6-.1.7-.8.7-.6 0-1.3-.3-1.6-.3h-.1c-.1 0-.2-.5-.2-.7 0-1 .1-2 .1-3v-9.8c0-.9-.1-1.8-.1-2.8 0-.4 0-1.9.5-1.9 1.5 0 1.7.1 2.4 1.3 1.2 2.2 2.5 4.4 3.7 6.6.4.8 2.6 5.7 3.2 5.7.1 0 .2-.3.2-.3l1.5-3c1.2-2.3 2.5-4.6 3.7-6.9.4-.7 1.1-2.6 1.8-3 .2-.1 1.1-.2 1.3-.2 1 0 .9.8.9 1.6 0 3.3 0 6.5.1 9.8 0 1.3.1 2.6.1 4 0 .6.2 1.3.2 1.9 0 .4-.1.8-.6.8-.2 0-.5-.1-.7-.2-.7-.3-.4.1-.6-.7-.1-.5-.1-1-.1-1.5 0-1.9-.1-3.9-.2-5.8 0-1.4 0-2.8-.1-4.2 0-.3 0-.7-.1-1 0 0 0-.2-.1-.2s-.4.5-.5.6c-1.2 2.2-2.2 4.5-3.3 6.8zM180.9 234.7c-.4.2-2 4.2-2.4 4.9-1 1.8-2 3.7-2.7 5.7-.1.4-.3 1.6-.7 1.8-.2.1-1.2.2-1.5.2-.7 0-.7-1.8-.7-2.3 0-1.4.2-2.7.2-4.1 0-1.9-.2-3.9-.2-5.8v-2.2c0-.7-.1-1.5-.1-2.2 0-.6 1.4-1 1.8-1 .4 0 .4.5.4.8 0 3.4-.1 6.7-.1 10.1 0 .6 0 1.1.1 1.7.8-1 2.5-4.3 2.9-5.5.5-1.3 1.2-2.5 1.7-3.8.2-.6.6-2.4 1-2.8.3-.3.8-.4 1.2-.4.6 0 .8.4.8.9 0 .7-.2 1.3-.2 2 0 4 .2 8.1.2 12.1 0 .9 0 1.9-.1 2.8-.1 1-.1.8-1 .8-.2 0-.4.1-.6.1-.5 0-.5-1.1-.5-1.5 0-4 .5-7.9.5-11.9.1-.1.1-.3 0-.4zM193.8 243.6c.2.7 1.2 4.1 1.2 4.5 0 .3-.3.3-.6.3h-.4c-1.5-.1-1.3-.8-1.6-2-.3-1.4-.8-2.7-1.1-4.1-.4-1.4-.6-2.9-1-4.3-.1-.6-.5-3.4-.8-3.6-.4 2.8-.9 5.6-1.1 8.4-.1 1.5-.5 3-.6 4.6-.1.9.1.8-.7 1.1-.1 0-.3.1-.4.1-.4 0-.9-.1-1.3-.3.1-2.2.9-4.4 1.2-6.7.4-2.8.8-5.5 1.3-8.3.1-.7.1-2.9.5-3.2.2-.2.9-.2 1.2-.2.2 0 .6 0 .8.1.6.3.7 1.6.8 2.2.7 3.7 1.7 7.6 2.6 11.4zM205.4 234.7c-.4.2-2 4.2-2.4 4.9-1 1.8-2 3.7-2.7 5.7-.1.4-.3 1.6-.7 1.8-.2.1-1.2.2-1.5.2-.7 0-.7-1.8-.7-2.3 0-1.4.2-2.7.2-4.1 0-1.9-.2-3.9-.2-5.8v-2.2c0-.7-.1-1.5-.1-2.2 0-.6 1.4-1 1.8-1 .4 0 .4.5.4.8 0 3.4-.1 6.7-.1 10.1 0 .6 0 1.1.1 1.7.8-1 2.5-4.3 2.9-5.5.5-1.3 1.2-2.5 1.7-3.8.2-.6.6-2.4 1-2.8.3-.3.8-.4 1.2-.4.6 0 .8.4.8.9 0 .7-.2 1.3-.2 2 0 4 .2 8.1.2 12.1 0 .9 0 1.9-.1 2.8-.1 1-.1.8-1 .8-.2 0-.4.1-.6.1-.5 0-.5-1.1-.5-1.5 0-4 .5-7.9.5-11.9v-.4zM226.7 234.9c.1 3.6 0 7.1.1 10.7 0 .7.1 1.3.1 2 0 .2 0 .7-.4.7-.2 0-.4-.1-.6-.1-1-.2-1.2-.8-1.2-1.7 0-.8.2-3.7-.2-4.3-.3-.4-.6-.5-1-.5-.8 0-1.5-.3-2.2-.3-.6 0-.6.7-.6 1.1 0 .7.1 1.3.1 2 0 .6.2 1.2.2 1.8 0 .7-1 .8-1.6.8-.6 0-1.1-.1-1.1-.7s.2-1.1.2-1.6c0-1.1-.1-2.3-.1-3.4 0-2.9.2-5.7.2-8.6 0-.8-.1-1.6-.1-2.4 0-.3 0-.5.4-.5.6 0 2.1-.2 2.1.6 0 .5-.2 1-.2 1.5v1c0 1.3.1 2.6 0 3.8 0 .6-.2 1.1-.2 1.7 0 .6.4.8 1 .9.7.1 1.5.2 2.2.2.1 0 .4 0 .5-.1.4-.2.4-1.6.4-2 0-.9-.1-1.7-.1-2.6 0-.8.1-1.7.1-2.5 0-.5-.1-1-.1-1.5 0-.6.2-1 .9-1 .9 0 1.2.5 1.2 1.3v3.7zM235.2 248.6c-.4.1-.7.2-1.1.2-3.8 0-4.8-6.7-4.8-9.5 0-2.9.3-9.8 4.4-9.8 3.2 0 4.7 4.7 4.7 7.3 0 1.3-.7 1.5-1.8 1.5-1 0-2-.1-3-.1-.8 0-1.7.2-1.7 1.2 0 .5.1 1.1.2 1.6.1 1.3.2 5.5 2.1 5.5 1.9 0 1.3-3.7 1.8-3.9.2-.1.5-.2.7-.2.5 0 1 .1 1.5.1.4 0 .4.2.4.6 0 2-1.2 4.9-3.4 5.5zm-3-12.8c0 .3.6.3.8.3.7 0 1.4-.2 2.1-.3.5-.1.9 0 .9-.7 0-1.1-1-3.5-2.3-3.5-1.3 0-1.3 1.9-1.3 2.8v.7c-.2.3-.2.5-.2.7zM241.6 227.2c0-.7 1.4-.6 1.9-.6 5.2 0 6.2 4 6.2 8.3 0 2.7-.1 5.3-.2 8-.1 1.2-.2 2.3-.2 3.5 0 2.4-1.2 5.1-3.9 5.1-.8 0-1.7-.3-2.3-.8-1.3-.9-1.3-5.9-1.3-7.5 0-1.6-.1-3.3.1-4.9.3-2.4 1.2-3.9 3.8-3.9.8 0 1.3.5 1.5.5.1 0 .2 0 .2-.1v-.9c0-3.1-1.2-5-4.6-5-1 0-.9-.7-1.2-1.5v-.2zm5.6 9.3c-.3-.1-.6-.2-.9-.2-1.7 0-2.1 1.1-2.2 2.6-.1 1.1-.1 2.2-.1 3.3 0 1.6.1 3.2.1 4.8 0 1 .1 2.4 1.5 2.4.3 0 .5-.1.8-.2.5-.6.6-2.1.6-2.9.2-3.2.2-6.5.2-9.8zM252.2 239c0-4.2 1.7-8.9 6.6-8.9 5.1 0 6.2 6 6.2 9.9 0 4-1.7 8.7-6.5 8.7-4.9 0-6.3-5.8-6.3-9.7zm2.2-.6c0 .6 0 1.2.1 1.8.2 2 1.5 6.3 4.1 6.3 3.3 0 4.3-4.9 4.3-7.4 0-2.3-.9-6.9-4-6.9-3.7 0-4.5 3.2-4.5 6.2zM273.3 226.3c2.4 1.4 2.8 6.7 2.8 9.2v1h-.9c-.3 0-.5 0-.7-.1-.6-.2-.4 0-.6-.7-.3-1.7.2-7.4-2.4-7.4-2.3 0-2.3 5-2.3 6.5 0 1 .1 2 .1 3 0 1.9-.2 12 2.6 12 .9 0 1.4-1.1 1.6-1.8.2-.7.1-1.5.2-2.2.2-.8.2-.6.9-.7.5 0 1-.1 1.5-.2-.2 2-.1 4.4-1.4 6.1-.6.8-1.5 1.3-2.5 1.3-.8 0-1.6-.3-2.1-.9-3.1-3-2.9-9.2-2.9-13.2 0-2.1 0-4.3.2-6.4.2-2.7 1-6 4.4-6 .3 0 1 .2 1.5.5zM280.1 228.5c-.3-.1-1.4-.1-1.7-.4v-.3c0-1.3 0-1.6 1.4-1.6.9 0 1.7.1 2.6.1.6 0 1.3-.1 1.9-.1.5 0 1.2 0 1.2.6 0 .4.1.8.1 1.2 0 .9-2.2-.2-2.2 1.2 0 .3 0 .6.1 1 .1 3.4.2 6.8.2 10.1 0 3.5 0 7 .2 10.5v.7c0 .3 0 .6-.4.6-.3 0-.7-.2-.9-.3-.6-.2-.8-.1-.8-1 0-.4.1-.9.1-1.3 0-6.6-.4-13.2-.4-19.7-.3-1.2-.3-1.1-1.4-1.3zM298.2 251.7c-.4.5-1.1.5-1.6.5-3.9 0-6.6-1.8-6.6-6 0-1.9.9-3.6 3-3.6 1.2 0 2.3.9 2.8.9h.2c0-2.7 0-12.1-1.2-14-.3-.5-.8-.9-1.5-.9-1.4 0-2.2 1.5-2.2 2.7 0 1.1 0 1.3-1.1 1.3-.5 0-1.8.1-1.8-.6s.5-1.9.8-2.5c.9-1.7 2.9-3.4 4.9-3.4.5 0 .9.1 1.4.3 2.4 1.1 2.7 5.7 3 8 .3 2.6.4 5.2.4 7.8 0 2.5-.1 5.1-.1 7.6-.3.5-.1 1.3-.4 1.9zm-5.7-5c0 1.7 1.3 3.1 3 3.1.6 0 .7-.6.7-1.1 0-.7-.2-1.4-.2-2.2 0-1.4-.4-1.7-1.7-1.7-1.1.1-1.8.9-1.8 1.9zM303.3 228.5c-.3-.1-1.4-.1-1.7-.4v-.3c0-1.3 0-1.6 1.4-1.6.9 0 1.7.1 2.6.1.6 0 1.3-.1 1.9-.1.5 0 1.2 0 1.2.6 0 .4.1.8.1 1.2 0 .9-2.2-.2-2.2 1.2 0 .3 0 .6.1 1 .1 3.4.2 6.8.2 10.1 0 3.5 0 7 .2 10.5v.7c0 .3 0 .6-.4.6-.3 0-.7-.2-.9-.3-.6-.2-.8-.1-.8-1 0-.4.1-.9.1-1.3 0-6.6-.4-13.2-.4-19.7-.3-1.2-.3-1.1-1.4-1.3zM310.2 239c0-4.2 1.7-8.9 6.6-8.9 5.1 0 6.1 6 6.1 9.9 0 4-1.7 8.7-6.5 8.7s-6.2-5.8-6.2-9.7zm2.1-.6c0 .6 0 1.2.1 1.8.2 2 1.5 6.3 4.1 6.3 3.3 0 4.3-4.9 4.3-7.4 0-2.3-.9-6.9-4-6.9-3.6 0-4.5 3.2-4.5 6.2zM328.9 241.3c-4.8-.2-4.4-6.4-4.5-9.8v-.8c0-.5.6-.6 1-.6s1.1 0 1.1.6c0 2.3-.2 8.2 3.3 8.2 3.4 0 3.4-3.9 3.4-6.4 0-.6-.4-2.7.5-2.7 1.9 0 1.6.7 1.6 2.4 0 4.5.1 9.1.1 13.6 0 .9.3 2.6-1.1 2.6-1.2 0-1.2-2.1-1.2-2.9 0-2 .1-3.9.1-5.9v-.6c-.7 1.6-2.5 2.3-4.1 2.3h-.2zM346.1 234.9c.1 3.6 0 7.1.1 10.7 0 .7.1 1.3.1 2 0 .2 0 .7-.4.7-.2 0-.4-.1-.6-.1-1-.2-1.2-.8-1.2-1.7 0-.8.2-3.7-.2-4.3-.3-.4-.6-.5-1-.5-.8 0-1.5-.3-2.2-.3-.6 0-.6.7-.6 1.1 0 .7.1 1.3.1 2 0 .6.2 1.2.2 1.8 0 .7-1 .8-1.6.8-.6 0-1.1-.1-1.1-.7s.2-1.1.2-1.6c0-1.1-.1-2.3-.1-3.4 0-2.9.2-5.7.2-8.6 0-.8-.1-1.6-.1-2.4 0-.3 0-.5.4-.5.6 0 2.1-.2 2.1.6 0 .5-.2 1-.2 1.5v1c0 1.3.1 2.6 0 3.8 0 .6-.2 1.1-.2 1.7 0 .6.4.8 1 .9.7.1 1.5.2 2.2.2.1 0 .4 0 .5-.1.4-.2.4-1.6.4-2 0-.9-.1-1.7-.1-2.6 0-.8.1-1.7.1-2.5 0-.5-.1-1-.1-1.5 0-.6.2-1 .9-1 .9 0 1.2.5 1.2 1.3v3.7zM349.1 239c0-4.2 1.7-8.9 6.6-8.9 5.1 0 6.1 6 6.1 9.9 0 4-1.7 8.7-6.5 8.7s-6.2-5.8-6.2-9.7zm2.2-.6c0 .6 0 1.2.1 1.8.2 2 1.5 6.3 4.1 6.3 3.3 0 4.3-4.9 4.3-7.4 0-2.3-.9-6.9-4-6.9-3.7 0-4.5 3.2-4.5 6.2zM380.6 230c.2 2.5.5 5 .5 7.5 0 1.7-.1 3.3-.2 5-.2 2.6-.4 8.7-4.1 8.7-2.5 0-3.8-1.7-3.8-4.1 0-1.3 0-2.9 1.8-2.9.1 0 .3.1.3.3 0 .3-.2.5-.2.8 0 .9.3 4 1.5 4 .3 0 .6-.2.9-.4.9-.8.9-2.6 1-3.7.1-1.6.2-3.1.3-4.7.1-2 .2-4 .2-6.1 0-.3 0-.8-.2-1.1-.4 1-1.1 2.1-2.3 2.1-3.3 0-3.9-4.8-3.9-7.2 0-.9.6-1.3 1.5-1.3.8 0 .9 1 .9 1.6 0 1-.1 2 0 2.9.1.8.7 2.2 1.6 2.2 1.4 0 1.7-2.3 1.7-3.3 0-.8-.2-1.5-.2-2.3 0-.7.7-.7 1.2-.7 1.1 0 1.6-.1 1.6 1.2-.1.5-.1 1-.1 1.5zM396.9 242c-.7 1.3-1.3 2.5-1.9 3.8-.3.7-.5 1.7-1.5 1.7h-.4c-1.2-.2-1.2-1-1.7-1.9l-2.1-3.9c-.6-1.2-1.1-2.4-1.7-3.6-.4-.8-.9-1.6-1.2-2.4-.2-.3-.4-1.2-.6-1.4 0 2.3.1 4.7.2 7 0 2.1.3 4.3.3 6.4 0 .6-.1.7-.8.7-.6 0-1.3-.3-1.6-.3h-.1c-.1 0-.2-.5-.2-.7 0-1 .1-2 .1-3v-9.8c0-.9-.1-1.8-.1-2.8 0-.4 0-1.9.5-1.9 1.5 0 1.7.1 2.4 1.3 1.2 2.2 2.5 4.4 3.7 6.6.4.8 2.6 5.7 3.2 5.7.1 0 .2-.3.2-.3.6-1 1-2 1.5-3 1.2-2.3 2.5-4.6 3.7-6.9.4-.7 1.1-2.6 1.8-3 .2-.1 1.1-.2 1.3-.2 1 0 .9.8.9 1.6 0 3.3 0 6.5.1 9.8 0 1.3.1 2.6.1 4 0 .6.2 1.3.2 1.9 0 .4-.1.8-.6.8-.2 0-.5-.1-.7-.2-.7-.3-.4.1-.6-.7-.1-.5-.1-1-.1-1.5 0-1.9-.1-3.9-.2-5.8-.1-1.4 0-2.8-.1-4.2 0-.3 0-.7-.1-1 0 0 0-.2-.1-.2s-.4.5-.5.6c-1.2 2.2-2.2 4.5-3.3 6.8zM414.1 245.6c0 .7.2 1.3.2 2 0 .2 0 .7-.4.7-.2 0-.4-.1-.6-.1-1-.2-1.2-.8-1.2-1.7 0-.8.2-3.7-.2-4.3-.3-.4-.6-.5-1-.5-.8 0-1.5-.3-2.2-.3-.6 0-.6.7-.6 1.1 0 .7.1 1.3.1 2 0 .6.2 1.2.2 1.8 0 .7-1 .8-1.6.8-.6 0-1.1-.1-1.1-.7s.2-1.1.2-1.6c0-1.1-.1-2.3-.1-3.4 0-2.9.2-5.7.2-8.6 0-.8-.1-1.6-.1-2.4 0-.3 0-.5.4-.5.6 0 2.1-.2 2.1.6 0 .5-.2 1-.2 1.5v1c0 1.3.1 2.6 0 3.8 0 .6-.2 1.1-.2 1.7 0 .6.4.8 1 .9.7.1 1.5.2 2.2.2.1 0 .4 0 .5-.1.4-.2.4-1.6.4-2 0-.9-.1-1.7-.1-2.6 0-.8.1-1.7.1-2.5 0-.5-.1-1-.1-1.5 0-.6.2-1 .9-1 .9 0 1.2.5 1.2 1.3V245.6zM416.9 251.4c-.1-.9-.1-1.9-.1-2.8 0-2.6.3-5.3.3-7.9.1-2.9.1-5.7.1-8.6 0-1.2-.1-2.4-.1-3.6 0-1.3.1-1.8 1.6-1.8.9 0 1 .5 1 1.2 0 1.3-.2 2.6-.3 3.9-.2 2.9-.4 5.8-.4 8.7 0 .5 0 1 .4 1.4.4.4 1.5.5 2.1.9 1.3.9 2.5 2.9 2.5 4.5 0 .6-.2 1.3-.5 1.8-1.4 2.4-4.3 2.2-6.6 2.3zm1.8-6.3c0 .7.2 1.4.2 2 0 .4-.2 1.8.4 1.8 1.1 0 2.2-1.3 2.2-2.4 0-1-1.1-2.4-2.2-2.4h-.2c-.3.1-.4.7-.4 1zm9.1 2.8c.1.6.2 1.2.2 1.8 0 .2-.1.6 0 .7-.2.3-1.4.4-1.8.4-.7 0-.6-.2-.7-.7 0-.4-.1-.8-.1-1.2 0-1 .1-2 .1-3 0-6 0-12-.1-18 .3 0 1.9 0 2.1.2.1.1.1.4.1.6 0 1.5-.1 2.9-.1 4.4 0 3.4.1 6.8.2 10.3 0 1.5-.1 3 .1 4.5zM430.8 236.8v-.8c0-1.3.1-2.6 0-3.9 0-.4-.1-.8-.1-1.2 0-.6 1.3-1.2 1.8-1.2s.4 1 .4 1.3V244.6s0 .2.1.2c0 0 .1-.2.1-.3.1-.4.3-.8.4-1.3.5-1.8 1-3.5 1.5-5.3.2-.8 2.1-7.5 2.3-7.7.3-.3.8-.5 1.2-.5.7 0 .8.6.8 1.1 0 .7-.2 1.4-.2 2 0 3.1.2 6.2.2 9.3 0 2 .1 4 .1 6 0 1 0 2-.1 3-.1 1.1 0 .9-1 1-.2 0-.4.1-.6.1-.6 0-.5-1.9-.5-2.3 0-4.5.5-9 .5-13.5v-.6c0-.1 0-.2-.1-.2s-.5 1.2-.5 1.3c-.4 1.5-.7 3.1-1.1 4.6-.6 2.3-1.3 4.6-2 6.8-.1.4-.3 1.9-.7 2.2-.2.1-1.3.2-1.5.2-.8 0-.8-2.4-.8-2.9 0-1.5.2-3.1.2-4.6-.1-2-.3-4.2-.4-6.4zm3-8.9c-.1 0-.1-.4-.1-.5-.1-.5-.1-1-.1-1.6 1.3 0 2.5-.1 3.8-.1 0 .5.2.9.2 1.4 0 .8-.8.8-1.4.8-.6 0-1.2-.1-1.8-.1-.3.1-.5.1-.6.1zM445.2 246.9c.2 1.1-.1 2.6-.2 3.7 0 .4-.1.7-.3.7-.5.1-.6.1-1.1.2-.3.1-.4.1-.6-.3-.2-.5-.1-1.2-.1-1.8 0-.8.1-1.9.1-2.7 0-.1 0-.3.1-.4.3-.7.7-.5 1.1-.5.5.1.8 0 1 1.1zM178.9 261.1c2.4 1.4 2.8 6.7 2.8 9.2v1h-.9c-.3 0-.5 0-.7-.1-.6-.2-.4 0-.6-.7-.3-1.7.2-7.4-2.4-7.4-2.3 0-2.3 5-2.3 6.5 0 1 .1 2 .1 3 0 1.9-.2 12 2.6 12 .9 0 1.4-1.1 1.6-1.8.2-.7.1-1.5.2-2.2.2-.8.2-.6.9-.7.5 0 1-.1 1.5-.2-.2 2-.1 4.4-1.4 6.1-.6.8-1.5 1.3-2.5 1.3-.8 0-1.6-.3-2.1-.9-3.1-3-2.9-9.2-2.9-13.2 0-2.1 0-4.3.2-6.4.2-2.7 1-6 4.4-6 .3 0 .9.2 1.5.5zM192.3 269.5c-.4.2-2 4.2-2.4 4.9-1 1.8-2 3.7-2.7 5.7-.1.4-.3 1.6-.7 1.8-.2.1-1.2.2-1.5.2-.7 0-.7-1.8-.7-2.3 0-1.4.2-2.7.2-4.1 0-1.9-.2-3.9-.2-5.8v-2.2c0-.7-.1-1.5-.1-2.2 0-.6 1.4-1 1.8-1 .4 0 .4.5.4.8 0 3.4-.1 6.7-.1 10.1 0 .6 0 1.1.1 1.7.8-1 2.5-4.3 2.9-5.5.5-1.3 1.2-2.5 1.7-3.8.2-.6.6-2.4 1-2.8.3-.3.8-.4 1.2-.4.6 0 .8.4.8.9 0 .7-.2 1.3-.2 2 0 4 .2 8.1.2 12.1 0 .9 0 1.9-.1 2.8-.1 1-.1.8-1 .8-.2 0-.4.1-.6.1-.5 0-.5-1.1-.5-1.5 0-4 .5-7.9.5-11.9.1-.1.1-.3 0-.4zM205.2 278.4c.2.7 1.2 4.1 1.2 4.5 0 .3-.3.3-.6.3h-.4c-1.5-.1-1.3-.8-1.6-2-.3-1.4-.8-2.7-1.1-4.1-.4-1.4-.6-2.9-1-4.3-.1-.6-.5-3.4-.8-3.6-.4 2.8-.9 5.6-1.1 8.4-.1 1.5-.5 3-.6 4.6-.1.9.1.8-.7 1.1-.1 0-.3.1-.4.1-.4 0-.9-.1-1.3-.3.1-2.2.9-4.4 1.2-6.7.4-2.8.8-5.5 1.3-8.3.1-.7.1-2.9.5-3.2.2-.2.9-.2 1.2-.2.2 0 .6 0 .8.1.6.3.7 1.6.8 2.2.6 3.7 1.7 7.6 2.6 11.4zM213.2 276.3c1.4 1 2.5 2.8 2.5 4.5 0 .6-.2 1.2-.5 1.8-1.3 2.3-4.2 2.2-6.5 2.3-.1-1.1-.2-2.1-.2-3.2 0-3.7.3-7.4.3-11.2 0-2-.1-3.9-.1-5.9 0-1.4 0-1.8 1.6-1.8 1 0 1 .7 1 1.5 0 1.2-.2 2.4-.3 3.5-.1 1.2-.3 2.3-.3 3.5 0 .9-.1 1.7-.1 2.6.1 2.3 1.4 1.5 2.6 2.4zm-1.5 6c.9-.4 1.6-1.3 1.6-2.3 0-1-1.1-2.4-2.2-2.4-.5 0-.6.6-.6 1 0 .7.2 1.4.2 2.2 0 .4-.2 1.7.5 1.7.2-.1.3-.2.5-.2zM227.3 280.4c0 .7.2 1.3.2 2 0 .2 0 .7-.4.7-.2 0-.4-.1-.6-.1-1-.2-1.2-.8-1.2-1.7 0-.8.2-3.7-.2-4.3-.3-.4-.6-.5-1-.5-.8 0-1.5-.3-2.2-.3-.6 0-.6.7-.6 1.1 0 .7.1 1.3.1 2 0 .6.2 1.2.2 1.8 0 .7-1 .8-1.6.8-.6 0-1.1-.1-1.1-.7s.2-1.1.2-1.6c0-1.1-.1-2.3-.1-3.4 0-2.9.2-5.7.2-8.6 0-.8-.1-1.6-.1-2.4 0-.3 0-.5.4-.5.6 0 2.1-.2 2.1.6 0 .5-.2 1-.2 1.5v1c0 1.3.1 2.6 0 3.8 0 .6-.2 1.1-.2 1.7 0 .6.4.8 1 .9.7.1 1.5.2 2.2.2.1 0 .4 0 .5-.1.4-.2.4-1.6.4-2 0-.9-.1-1.7-.1-2.6 0-.8.1-1.7.1-2.5 0-.5-.1-1-.1-1.5 0-.6.2-1 .9-1 .9 0 1.2.5 1.2 1.3V280.4zM230.1 286.2c-.1-.9-.1-1.9-.1-2.8 0-2.6.3-5.3.3-7.9.1-2.9.1-5.7.1-8.6 0-1.2-.1-2.4-.1-3.6 0-1.3.1-1.8 1.6-1.8.9 0 1 .5 1 1.2 0 1.3-.2 2.6-.3 3.9-.2 2.9-.4 5.8-.4 8.7 0 .5 0 1 .4 1.4.4.4 1.5.5 2.1.9 1.3.9 2.5 2.9 2.5 4.5 0 .6-.2 1.3-.5 1.8-1.4 2.4-4.3 2.2-6.6 2.3zm1.8-6.3c0 .7.2 1.4.2 2 0 .4-.2 1.8.4 1.8 1.1 0 2.2-1.3 2.2-2.4 0-1-1.1-2.4-2.2-2.4h-.2c-.3.1-.4.7-.4 1zm9.1 2.8c.1.6.2 1.2.2 1.8 0 .2-.1.6 0 .7-.2.3-1.4.4-1.8.4-.7 0-.6-.2-.7-.7 0-.4-.1-.8-.1-1.2 0-1 .1-2 .1-3 0-6 0-12-.1-18 .3 0 1.9 0 2.1.2.1.1.1.4.1.6 0 1.5-.1 2.9-.1 4.4 0 3.4.1 6.8.2 10.3 0 1.5-.1 3 .1 4.5zM244 271.6v-.8c0-1.3.1-2.6 0-3.9 0-.4-.1-.8-.1-1.2 0-.6 1.3-1.2 1.8-1.2s.4 1 .4 1.3V279.4s0 .2.1.2c0 0 .1-.2.1-.3.1-.4.3-.8.4-1.3.5-1.8 1-3.5 1.5-5.3.2-.8 2.1-7.5 2.3-7.7.3-.3.8-.5 1.2-.5.7 0 .8.6.8 1.1 0 .7-.2 1.4-.2 2 0 3.1.2 6.2.2 9.3 0 2 .1 4 .1 6 0 1 0 2-.1 3-.1 1.1 0 .9-1 1-.2 0-.4.1-.6.1-.6 0-.5-1.9-.5-2.3 0-4.5.5-9 .5-13.5v-.6c0-.1 0-.2-.1-.2s-.5 1.2-.5 1.3c-.4 1.5-.7 3.1-1.1 4.6-.6 2.3-1.3 4.6-2 6.8-.1.4-.3 1.9-.7 2.2-.2.1-1.3.2-1.5.2-.8 0-.8-2.4-.8-2.9 0-1.5.2-3.1.2-4.6-.1-2-.3-4.2-.4-6.4zm3-8.9c-.1 0-.1-.4-.1-.5-.1-.5-.1-1-.1-1.6 1.3 0 2.5-.1 3.8-.1 0 .5.2.9.2 1.4 0 .8-.8.8-1.4.8-.6 0-1.2-.1-1.8-.1-.3.1-.5.1-.6.1zM258.2 285.4c0 .4-.1.7-.3.7-.5.1-.6.1-1.1.2-.3.1-.4.1-.6-.3-.2-.5-.1-1.2-.1-1.8 0-.8.1-1.9.1-2.7 0-.1 0-.3.1-.4.3-.7.7-.5 1.1-.5.6 0 .8-.1 1 1 .2 1.2-.1 2.7-.2 3.8zM272.6 285.9c0 .2-.1.6 0 .7-.2.4-1.6.4-2 .4-.7 0-.6-.1-.7-.7-.1-.5-.1-.9-.1-1.4 0-1 .1-1.9.1-2.9 0-7.1 0-14.2-.1-21.2.4 0 2.1 0 2.3.2.1.1.1.4.1.6 0 1.5-.1 2.9-.1 4.4v2.8c0 1.2-.2 2.4-.2 3.5.8-1.7 2.2-2.9 3.3-4.4.5-.6 2.5-3.4 2.9-3.6l1.1.8v.2c0 1.2-6.4 8-6.4 8.8 0 .3.4.8.6 1.1.5.8 4.4 8.4 4.4 8.8 0 .5-1 1-1.4 1-.5-.6-4.6-8.8-4.6-9.4 0 2.9.2 5.7.6 8.6.1.5.2 1.1.2 1.7zM287.2 264.7c.3.5.5 1 .5 1.6 0 1.5-1.2 3.1-2.4 3.8-.6.4-1.6.4-2 .8-.3.3-.4.7-.4 1.1 0 .5.1 1.1.1 1.6 0 2.3.2 4.7.4 7 .1 1.1.4 2.1.4 3.2 0 .9-.1 1.2-1 1.2-1.5 0-1.5-.4-1.5-1.7 0-3.7 0-7.5-.2-11.2-.1-2.4-.4-4.7-.4-7.1 0-.7 0-1.4.1-2.1 2 0 5-.2 6.4 1.8zm-2 3c.1-.2.1-.4.1-.7 0-1.1-1.2-2.1-2.2-2.1-.4 0-.5.3-.5.7v1.1c0 .5-.1.9-.1 1.4 0 .4.1.9.6.9.7 0 1.9-.8 2.1-1.3zM298 264.8c.2 2.5.5 5 .5 7.5 0 1.7-.1 3.3-.2 5-.2 2.6-.4 8.7-4.1 8.7-2.5 0-3.8-1.7-3.8-4.1 0-1.3 0-2.9 1.8-2.9.1 0 .3.1.3.3 0 .3-.2.5-.2.8 0 .9.3 4 1.5 4 .3 0 .6-.2.9-.4.9-.8.9-2.6 1-3.7.1-1.6.2-3.1.3-4.7.1-2 .2-4 .2-6.1 0-.3 0-.8-.2-1.1-.4 1-1.1 2.1-2.3 2.1-3.3 0-3.9-4.8-3.9-7.2 0-.9.6-1.3 1.5-1.3.8 0 .9 1 .9 1.6 0 1-.1 2 0 2.9.1.8.7 2.2 1.6 2.2 1.4 0 1.7-2.3 1.7-3.3 0-.8-.2-1.5-.2-2.3 0-.7.7-.7 1.2-.7 1.1 0 1.6-.1 1.6 1.2-.1.5-.1 1-.1 1.5zM302.6 263.3c-.3-.1-1.4-.1-1.7-.4v-.3c0-1.3 0-1.6 1.4-1.6.9 0 1.7.1 2.6.1.6 0 1.3-.1 1.9-.1.5 0 1.2 0 1.2.6 0 .4.1.8.1 1.2 0 .9-2.2-.2-2.2 1.2 0 .3 0 .6.1 1 .1 3.4.2 6.8.2 10.1 0 3.5 0 7 .2 10.5v.7c0 .3 0 .6-.4.6-.3 0-.7-.2-.9-.3-.6-.2-.8-.1-.8-1 0-.4.1-.9.1-1.3 0-6.6-.4-13.2-.4-19.7-.3-1.2-.3-1.1-1.4-1.3zM309.5 273.8c0-4.2 1.7-8.9 6.6-8.9 5.1 0 6.1 6 6.1 9.9 0 4-1.7 8.7-6.5 8.7s-6.2-5.8-6.2-9.7zm2.1-.6c0 .6 0 1.2.1 1.8.2 2 1.5 6.3 4.1 6.3 3.3 0 4.3-4.9 4.3-7.4 0-2.3-.9-6.9-4-6.9-3.6 0-4.5 3.2-4.5 6.2zM324.6 271.6v-.8c0-1.3.1-2.6 0-3.9 0-.4-.1-.8-.1-1.2 0-.6 1.3-1.2 1.8-1.2s.4 1 .4 1.3V279.4s0 .2.1.2c0 0 .1-.2.1-.3.1-.4.3-.8.4-1.3.5-1.8 1-3.5 1.5-5.3.2-.8 2.1-7.5 2.3-7.7.3-.3.8-.5 1.2-.5.7 0 .8.6.8 1.1 0 .7-.2 1.4-.2 2 0 3.1.2 6.2.2 9.3 0 2 .1 4 .1 6 0 1 0 2-.1 3-.1 1.1 0 .9-1 1-.2 0-.4.1-.6.1-.6 0-.5-1.9-.5-2.3 0-4.5.5-9 .5-13.5v-.6c0-.1 0-.2-.1-.2s-.5 1.2-.5 1.3c-.4 1.5-.7 3.1-1.1 4.6-.6 2.3-1.3 4.6-2 6.8-.1.4-.3 1.9-.7 2.2-.2.1-1.3.2-1.5.2-.8 0-.8-2.4-.8-2.9 0-1.5.2-3.1.2-4.6-.2-2-.3-4.2-.4-6.4zm2.9-8.9c-.1 0-.1-.4-.1-.5-.1-.5-.1-1-.1-1.6 1.3 0 2.5-.1 3.8-.1 0 .5.2.9.2 1.4 0 .8-.8.8-1.4.8-.6 0-1.2-.1-1.8-.1-.2.1-.4.1-.6.1zM342.2 272.7c.1.3.2 1.2.2 1.6 0 .2-.5.5-.6.6-.9.8-3.1 3.2-3.7 4.2-.2.4-.4.5-.8.6h-.1c-.6 0-.7-1.3-.7-1.7v-.4c.2-.5.8-.8 1.1-1.2.8-.9 1.6-1.7 2.4-2.6-1.2-1.5-2.7-2.8-4-4.2v-.3c0-.5.4-1.5 1-1.5.1 0 .5.5.6.6.5.6 3.3 3.5 3.8 3.8.4.2.6.2.8.5zm4.7-.3c.1.3.2 1.4.2 1.7 0 .1-1.6 1.8-1.8 2.1-.8 1-1.8 2.1-2.4 3.2-.2.3-.6 1-1 1-.3 0-1.1-1.5-1.1-1.8 0-.4.4-.4.5-.7.3-.7.7-.8 1.1-1.3.8-1 1.6-1.9 2.4-2.9-1.1-1.5-2.7-3.2-4-4.6-.1-.1-.2-.2-.2-.4 0-.4.7-1.6 1.1-1.6.1 0 .5.6.6.7.5.7 3.3 3.9 3.8 4.2.4.1.7.1.8.4z"/></g></g></switch></svg>