<svg id="Layer_1" data-name="Layer 1" xmlns="http://www.w3.org/2000/svg" viewBox="0 0 1456.08 1021.32"><defs><style>.cls-1,.cls-9{fill:none}.cls-4{fill:#fca0a0}.cls-5{fill:#f36867}.cls-9{stroke-linecap:round;stroke-linejoin:round}.cls-8{fill:#121e35}.cls-9{stroke:#131313;stroke-width:2.35px}.cls-11{fill:#fff}.cls-13{fill:#300e2e}</style><clipPath id="clip-path"><path class="cls-1" d="M618.51 282.27s-1.08-9.42-18.85-6.24c-16 2.85-17 10.26-17 10.26s3.19 9.3 20.84 7.76 15-11.78 15-11.78z"/></clipPath><clipPath id="clip-path-2"><path class="cls-1" d="M654.52 278.53s-.87-9.44 17.18-10c16.2-.49 18.78 6.53 18.78 6.53s-1.21 9.76-18.8 11.89-17.16-8.42-17.16-8.42z"/></clipPath></defs><path d="M907.75 17c-35.48.38-209.51-6.31-249.21-1.34C589 24.42 535.48 47.63 485 72.4c-63.38 31.14-120.58 67.3-174.6 105.8C240.6 228 176 281.58 124.93 345.39 80 401.42 83.71 467.64 91.67 559.07c4.51 51.71-7.93 106 34.86 184.64C307.37 1076 1443.4 1097.19 1338.2 369.1 1283.59-8.84 960.43 16.47 907.75 17z" fill="#c4e5e5"/><path d="M565.37 877.43v171.28l154.68 4V930l33.38-5.82 22.45 124.56 139.92 8.89-54.48-257.15z" fill="#171d5f"/><path class="cls-4" d="M438.79 595.46L383 971.5l60.34 6.5 99.9-385.78-104.45 3.21zM383 971.5s-99.94 23-96 49.67h121.88s46.12-3.53 34.46-43.17z"/><path class="cls-5" d="M587.23 430.59s-124.1-10.2-193 175.1l153.13 55z"/><path class="cls-4" d="M1025.9 298.27l-54.44 181.94 63.54 71.88s39.54-160.46 40.79-253.32z"/><path class="cls-4" d="M1023.77 303.46s48.74 6.46 55.58-5.72c11.94-21.29 5.64-79.08 5.64-79.08s-85.54 1.89-84.4 2.7 23.18 82.1 23.18 82.1z"/><path class="cls-4" d="M1023.77 303.46c-.91-4.28-33.7-41.2-45.49-55.25-2.85-3.38-1.88-8.74 2-11.26 2.54-1.64 7-3 10.7.07l31.44 24.34z"/><path class="cls-4" d="M1006.37 256.29l-12.82-68.78a8.61 8.61 0 0 1 6.7-10.07 7.43 7.43 0 0 1 8.74 5.37l13.49 49.62zm16-33.71l-.92-52.42a8.6 8.6 0 0 1 7.92-8.83 7.4 7.4 0 0 1 7.82 6.32l8.24 57.69zm24.06 5.89l4-53.49a9.42 9.42 0 0 1 9.43-8.77 8.2 8.2 0 0 1 8 8.41v.06l-.56 49.2zm38.59-9.81l6.23-34.29a6.66 6.66 0 0 0-6.3-7 7.59 7.59 0 0 0-7.61 6l-10 40.58zm-46.06 286.26s7.19 70.71-32.67 77-128.06-48.77-128.06-48.77L837.4 395l153.08 84.79z"/><path class="cls-5" d="M730.76 405s84.76-56.22 216.54 31.93L870 559.27l-77-7.12z"/><path class="cls-5" d="M530.65 635.85L550 882.54l341.22-48.61-52.8-359.17L730.76 405l-143.53 25.59-56.58 205.26z"/><path d="M532.17 655.26l-9.07-83m327.44-14.77L837.4 485.8" stroke-linecap="round" stroke-linejoin="round" stroke="#121e35" stroke-width="3.84" fill="none"/><path class="cls-4" d="M613.6 411.87l-15.8-96.28L686.56 301l15.8 96.29 28.4 7.7s.35 40.93-65 52.57-78.49-27-78.49-27z"/><path d="M691.56 331.46s-1.49 37.82-33.87 47.45C620.42 390 603 347 603 347s20.15 17.54 46.75 13.2a59.57 59.57 0 0 0 41.81-28.74z" fill="#cc7979"/><path class="cls-8" d="M585.26 160s15.79-39.13 68.92-32.69c37.49 4.54 50 35.12 56.64 49a34.26 34.26 0 0 1 3.24 17.09l-7.29 65.6-62.21-83.53-51.24 9.24z"/><path class="cls-4" d="M706.77 259s5.67-11.38 20.08-7.49 11.49 38.24-8.92 44.61c0 0-7.3 2.37-13.67-2.16 0 0 2.65-25.46 2.51-35z"/><path class="cls-9" d="M725.28 263.64s-12-2.72-18.57 15.23"/><path class="cls-4" d="M564.61 273.1s-7.8-10-21.16-3.39-3.73 39.75 17.53 42c0 0 7.63.89 13-4.81 0 0-7.62-24.42-9.37-33.8z"/><path class="cls-9" d="M547.39 281.34s11.24-5 21.2 11.27"/><path class="cls-4" d="M705 226.82c2 20.33 4.27 63.07-5.72 89.56-9.38 24.87-24.19 37.06-49.56 40.35s-48.64-2.13-66.89-31.39-22.94-83.71-22.94-83.71-7.23-72.63 64.56-79.77C700 154.34 705 226.82 705 226.82z"/><path class="cls-8" d="M564.61 273.1l-19.24-62.52a27.56 27.56 0 0 1 .63-15.48c4.3-12.46 17.5-40.41 39.22-35.14l8.06 24.71s-26.12 8-33.34 44z"/><path class="cls-8" d="M576.9 181.28s48 47.61 132.8 34c0 0-14.22-60.75-54.08-61.18s-71.09 20.26-71.09 20.26z"/><path class="cls-8" d="M593.32 184.67s-8.47 29.25-33.86 52.91c0 0-11.46-57.3 33.86-52.91z"/><path d="M637.32 298.21l1.68 15.85 7.6-.79" stroke-width="2.07" stroke="#e26d66" stroke-linecap="round" stroke-linejoin="round" fill="none"/><path class="cls-11" d="M618.51 282.27s-1.08-9.42-18.85-6.24c-16 2.85-17 10.26-17 10.26s3.19 9.3 20.84 7.76 15-11.78 15-11.78z"/><g clip-path="url(#clip-path)"><path class="cls-13" d="M591.09 284.64c.69 6.17 5.86 10.65 11.54 10s9.72-6.15 9-12.31-5.85-10.64-11.53-10-9.7 6.15-9 12.31z"/></g><path class="cls-13" d="M617.35 280.63a23.69 23.69 0 0 0-8.58-3.5 32.24 32.24 0 0 0-9.7-.52 22 22 0 0 0-9.15 3 18.39 18.39 0 0 0-6.7 6.92v.07a.68.68 0 1 1-1.22-.6c3-6.61 9.63-11 16.67-12.1a36 36 0 0 1 10.67-.2 27 27 0 0 1 10.46 3.52 2.09 2.09 0 1 1-2.16 3.58l-.12-.08z"/><path class="cls-11" d="M654.52 278.53s-.87-9.44 17.18-10c16.2-.49 18.78 6.53 18.78 6.53s-1.21 9.76-18.8 11.89-17.16-8.42-17.16-8.42z"/><g clip-path="url(#clip-path-2)"><path class="cls-13" d="M681.85 275.22c.59 6.17-3.54 11.62-9.23 12.16s-10.78-4-11.38-10.19 3.55-11.62 9.24-12.16 10.78 4.02 11.37 10.19z"/></g><path class="cls-13" d="M652.22 273.89a26.78 26.78 0 0 1 9.52-5.59 35.7 35.7 0 0 1 10.48-2c7.13-.32 14.56 2.55 18.8 8.41a.65.65 0 0 1-.15.91.65.65 0 0 1-.88-.11v-.06a18.35 18.35 0 0 0-8-5.4 22 22 0 0 0-9.58-1.05 32.08 32.08 0 0 0-9.38 2.5 23.33 23.33 0 0 0-7.68 5.19l-.15.15a2.09 2.09 0 1 1-3.2-2.69l.13-.14zm-32.49-31.65s-31.55-20.24-48.19 17.19zm27.55-2.86S674 213.1 698 246.3z"/><path d="M628.86 330.17s13-8.65 27.61-2.3" stroke="#300e2e" stroke-width="2.07" stroke-linecap="round" stroke-linejoin="round" fill="none"/><path class="cls-11" d="M852.65 188.83l-66.2-.19c-77.6-.23-73.23-119.8 2.28-130.32 126.14-17.58 162.64-7.25 231.33-4 102 4.74 98.36 121.36 41.42 129-53.43 7.19-134.9 3-134.9 3l-98.19 111z"/><path d="M888.36 67.27a13.25 13.25 0 0 1 3.11-.65 2.64 2.64 0 0 1 .21 1.27c0 2.11-.24 4.22-.24 6.33 0 3.18-.12 6.36-.12 9.54 0 6.94-.05 13.88-.05 20.82 0 .66.1 1.31.1 2 0 1-1.08 1.12-1.86 1.12-1.12 0-2.24.26-2.24-1.23s.19-2.67.23-4c.16-5.54-.11-11.09.34-16.62.11-1.34.42-2.65.42-4a3.37 3.37 0 0 0-.14-.77 11.5 11.5 0 0 0-1 3.34c-.41 1.75-1 3.44-1.52 5.17-1.43 5-2.92 10.06-4.1 15.16-.24 1-.27 3.21-1.3 3.78a2.16 2.16 0 0 1-.36 0 11.36 11.36 0 0 1-3.06-.43 1.29 1.29 0 0 1-.2-.83c0-1 .15-2.07.15-3.1 0-3.53-.29-7.06-.29-10.59v-20.7c0-1.15-.27-2.27-.27-3.42 0-2.31.86-1.94 2.69-2.17a8.28 8.28 0 0 1 1-.13c.47 0 .71.55.71.94 0 .82-.29 1.61-.29 2.43 0 9-.31 18-.31 27.05.53-.64.86-2.93 1.09-3.84.39-1.56.83-3.12 1.36-4.64 1.16-3.29 2-6.68 3-10 .91-3.1 2-6.21 2.17-9.48v-.25c0-.79-.17-1.65.69-2.08zm15 42.38c-4.24 0-7.14-5.1-7.14-8.94 0-.48 3.12-.83 3.61-.93.3 2.08.6 6 3.37 6s3.43-5.35 3.43-7.33c0-5.07-.47-9.37-6.58-9.37h-.88c-1.27-.13-1.31-2.93-.73-4.24 1.89.1 5.16.49 5.7-1.84a33.82 33.82 0 0 0 .94-7.43c0-1.88-.1-5.94-2.62-5.94-2.78 0-3.07 3.81-3.37 5.89-.5-.1-3.62-.67-3.62-1.15 0-3.26 2.08-9 7.14-8.94 5.65 0 6.54 6.6 6.54 10.87 0 3.8-.21 8.63-4.12 10.56 3.42.8 4.36 3.54 4.81 7.78a38.16 38.16 0 0 1 .24 4 17.33 17.33 0 0 1-1.37 7.25 6.22 6.22 0 0 1-5.39 3.76zm11.17-28.19c0-2.45.09-4.9 0-7.35 0-.74-.09-2-.09-2.77 0-1.38.47-1.47 1.91-1.47a11.49 11.49 0 0 1 5.09 1.61c3.8 2.36 5.1 7.55 5.11 11.76 0 5-2.7 7-4.09 8.91-.14.2 7.52 1.39 7.5 7.7s-10.57 5.44-14.29 5.44c-1 0-.87-.67-.94-1.44a26 26 0 0 1-.12-2.79c0-6.46-.08-12.92-.09-19.38zm6.11-5.16c-.3-.4-2.63-3-2.63-1.24 0 4.7.3 10.32.3 15a.52.52 0 0 0 .11.32 1 1 0 0 0 .25.06c4.65-1.57 4.37-11 2-14.18zM926 99.09c-.1-2.88-5.07-3.27-6.76-3.27-.74 0-.77.49-.77 1.1 0 1.21-.11 2.41-.11 3.6 0 .74.22 1.19 1 1.19 3.88 0 6.61-.59 6.61-2.62zm21.07-19c-.62.4-3.43 7.13-4.1 8.39a65.39 65.39 0 0 0-4.57 9.78c-.22.7-.56 2.73-1.13 3.1a9 9 0 0 1-2.63.33c-1.2 0-1.24-3.09-1.24-3.91 0-2.35.32-4.68.32-7 0-3.32-.31-6.63-.31-10 0-1.26.06-2.52.06-3.78s-.25-2.53-.25-3.8c0-1 2.33-1.66 3.12-1.66.63 0 .65.86.65 1.29 0 5.77-.14 11.53-.14 17.29a14.12 14.12 0 0 0 .22 2.9 56.07 56.07 0 0 0 5-9.44c.84-2.22 2.08-4.25 2.95-6.46.41-1 1-4.1 1.73-4.72a3.17 3.17 0 0 1 2.09-.71c1 0 1.36.68 1.36 1.6 0 1.17-.35 2.3-.35 3.47 0 6.88.31 13.75.31 20.63a39.51 39.51 0 0 1-.25 4.74c-.19 1.63-.21 1.31-1.7 1.4-.36 0-.72.09-1.09.09-.9 0-.89-1.94-.89-2.54 0-6.77.92-13.5.92-20.27A1.6 1.6 0 0 0 947 80zm22 .34c.13 6.1.07 12.19.14 18.29 0 1.15.26 2.29.26 3.44 0 .38-.08 1.19-.6 1.19a5.74 5.74 0 0 1-1-.21c-1.7-.34-2.12-1.29-2.12-2.91 0-1.39.28-6.39-.34-7.39a1.76 1.76 0 0 0-1.81-.84c-1.33 0-2.56-.56-3.82-.56-1 0-1 1.23-1 2 0 1.13.13 2.25.17 3.38s.38 2 .38 3.08-1.74 1.35-2.65 1.35-2-.1-2-1.26c0-.94.35-1.86.35-2.8 0-2-.25-3.91-.25-5.88 0-4.87.35-9.74.35-14.61 0-1.36-.13-2.72-.13-4.08 0-.57.08-.8.69-.8 1 0 3.6-.3 3.6 1.08 0 .87-.34 1.71-.38 2.57v1.77c0 2.18.13 4.36.08 6.53 0 1-.34 1.89-.34 2.83s.69 1.35 1.64 1.48a29.18 29.18 0 0 0 3.73.32 2.14 2.14 0 0 0 .87-.12c.68-.4.68-2.69.68-3.38 0-1.47-.15-2.93-.15-4.39s.11-2.87.11-4.31c0-.88-.15-1.76-.15-2.64 0-1.08.42-1.7 1.58-1.7 1.48 0 2 .83 2 2.19v6.35zm18.59-.34c-.62.4-3.43 7.13-4.1 8.39a63.31 63.31 0 0 0-4.56 9.76c-.23.7-.57 2.73-1.14 3.1a9 9 0 0 1-2.63.33c-1.2 0-1.23-3.09-1.23-3.91 0-2.35.31-4.68.31-7 0-3.32-.31-6.63-.31-10 0-1.26.06-2.52.06-3.78s-.25-2.53-.25-3.8c0-1 2.33-1.66 3.12-1.66s.66.86.66 1.29c0 5.77-.15 11.53-.15 17.29a14.13 14.13 0 0 0 .23 2.9 56.8 56.8 0 0 0 5-9.44c.84-2.22 2.08-4.25 3-6.46.41-1 1-4.1 1.73-4.72a3.17 3.17 0 0 1 2.09-.71c1 0 1.36.68 1.36 1.6 0 1.17-.35 2.3-.35 3.47 0 6.88.31 13.75.31 20.63a41.68 41.68 0 0 1-.24 4.74c-.2 1.63-.22 1.31-1.71 1.4-.36 0-.72.09-1.09.09-.89 0-.89-1.94-.89-2.54 0-6.77.92-13.5.92-20.27a1.6 1.6 0 0 0-.12-.75zm8.16-8.94q-.25-1.51-.36-3.06a4.23 4.23 0 0 0 0-1.23c.25-.6 2.64-.68 3.18-.68 1.16 0 .91.37 1 1.24a15.87 15.87 0 0 1 .16 2.18c0 1.62-.18 3.24-.18 4.85 0 7.35.2 14.7.2 22a1 1 0 0 1-1 1c-.41 0-2.28 0-2.49-.4a2.59 2.59 0 0 1-.11-1c0-2.49.14-5 .14-7.48v-3.19c-.13-4.58 0-9.85-.5-14.34zm3 30.85a1 1 0 0 1 1 1c.07 1.45.06 2.94.06 4.39a1 1 0 0 1-1 1h-.1c-.44 0-2.24 0-2.49-.4a2.59 2.59 0 0 1-.11-1c0-1.35.07-2.74.12-4.1a1 1 0 0 1 1-1h.09a11.06 11.06 0 0 1 1.4.08zm-169.74 24.54a1.56 1.56 0 0 1 .17.82c0 .8-.24 1.58-.24 2.37 0 10.75-.57 21.51-.57 32.25 0 .88.17 1.75.17 2.63 0 1.47-.37 1.32-1.51 1.62a5.59 5.59 0 0 1-1.46.31c-.76 0-.78-.65-.78-1.25 0-1.27.11-2.55.11-3.83 0-1.75-.12-3.49-.12-5.24 0-2.77.14-5.56.19-8.33l-4.95 13.33c-.78 2.1-1.47 4.28-2.33 6.36a1.37 1.37 0 0 1-1.31.91c-.54 0-2.35-1-2.35-1.53 0-.06 3.65-9.46 4-10.59 1.57-4.54 3.25-9.05 4.88-13.57-4-.73-6.11-5.23-6.11-9 0-4.26 2.41-8.28 7.06-8.28.76 0 1.5.15 2.26.15 1 0 2.27-.1 2.85.83zm-3.66 10.17c0-1.31-.09-2.63 0-4 0-.69.22-1.36.22-2 0-.43-.21-2-.69-2-2.86 0-4.38 2.11-4.38 4.83 0 2.24 1.11 6.21 4 6.21 1.08 0 .9-1.73.92-2.44zm28 29.23c-4.13-1.12-4.6-8.19-4.6-11.7 0-6 2.34-8 8.25-8a7.64 7.64 0 0 1 1.51.13c-1.43-3.6-10.76-3.27-10.76-11a5.52 5.52 0 0 1 1.78-3.68c2.94-3.09 9.09-3.73 13.19-3.73h.86a.91.91 0 0 1 .1.46 17.19 17.19 0 0 1-.65 4.09c0 .05-.1.33-.19.33-1 0-2-.24-3.07-.24-1.79 0-7.14.5-7.14 3 0 3.37 7.63 3.88 9.12 10.68a34.26 34.26 0 0 1 .67 7.28c0 5.4-.76 12.46-7.75 12.46a4.91 4.91 0 0 1-1.32-.15zm-.23-9.14c0 1.7-.24 5.87 2 6.15a4.49 4.49 0 0 0 1.37-.76c1.09-1.79 1.69-6.73 1.69-8.86a21.05 21.05 0 0 0-.35-3.88 7.92 7.92 0 0 0-4.2 1.55 31.82 31.82 0 0 0-.55 5.84zm26.29 7.47c-2.27 3.94-7.21 3.62-11.14 3.82-.16-1.61-.22-3.22-.22-4.84 0-4.49.45-9 .59-13.46.16-4.88.17-9.76.17-14.64 0-2.05-.11-4.09-.11-6.13 0-2.28.1-3.05 2.65-3.05 1.56 0 1.68.78 1.68 2.1 0 2.23-.4 4.39-.54 6.6-.3 5-.67 10-.67 14.94a3 3 0 0 0 .7 2.34c.71.64 2.53.84 3.52 1.5a10.4 10.4 0 0 1 4.2 7.7 6.32 6.32 0 0 1-.82 3.12zm-8-6.91c0 1.16.27 2.31.27 3.48 0 .7-.38 3 .76 3 1.94 0 3.76-2.29 3.76-4.14s-1.91-4.11-3.73-4.11h-.28c-.75.24-.82 1.16-.82 1.77zm15.52 4.72a26.06 26.06 0 0 1 .36 3.06c0 .31-.15 1 0 1.23-.31.59-2.45.68-3.09.68-1.17 0-1-.26-1.12-1.24a18.74 18.74 0 0 1-.17-2.12c0-1.73.19-3.45.19-5.18q0-15.33-.22-30.66c.6 0 3.27 0 3.56.42a2.41 2.41 0 0 1 .11 1c0 2.49-.15 5-.15 7.47 0 5.84.21 11.69.31 17.53 0 2.6 0 5.21.23 7.8zm19-7.32c.3 1.24 2 7 2 7.61s-.58.57-1 .57h-.68c-2.57-.2-2.19-1.28-2.68-3.39-.56-2.35-1.31-4.65-1.89-7s-1.1-4.92-1.71-7.36c-.25-1-.84-5.83-1.39-6.19-.75 4.76-1.48 9.5-1.94 14.3-.26 2.62-.93 5.2-1.09 7.83-.09 1.47.22 1.42-1.25 1.82a2.64 2.64 0 0 1-.74.1 5.71 5.71 0 0 1-2.29-.55c.13-3.82 1.46-7.59 2-11.37.65-4.72 1.43-9.41 2.14-14.12.16-1.11.09-4.92.9-5.55a4.78 4.78 0 0 1 2.11-.36 3.69 3.69 0 0 1 1.36.17c1 .46 1.13 2.77 1.34 3.71 1.43 6.64 3.23 13.22 4.83 19.81zm34.47-14.9c.13 6.09.07 12.19.14 18.29 0 1.14.26 2.28.26 3.44 0 .38-.07 1.19-.6 1.19a5.74 5.74 0 0 1-1-.21c-1.7-.34-2.12-1.29-2.12-2.91 0-1.39.28-6.4-.34-7.39a1.75 1.75 0 0 0-1.77-.78c-1.33 0-2.57-.56-3.82-.56-1 0-1 1.23-1 2 0 1.13.13 2.26.17 3.39s.38 2 .38 3.08-1.73 1.35-2.65 1.35-2-.1-2-1.26c0-.94.35-1.87.35-2.8 0-2-.24-3.91-.24-5.88 0-4.87.35-9.74.35-14.61 0-1.37-.14-2.73-.14-4.08 0-.57.08-.8.69-.8 1 0 3.6-.3 3.6 1.08 0 .87-.33 1.71-.38 2.57v1.77c0 2.18.13 4.36.08 6.53 0 1-.34 1.88-.34 2.83s.69 1.35 1.65 1.48a31.09 31.09 0 0 0 3.73.31 1.93 1.93 0 0 0 .86-.11c.68-.4.68-2.7.68-3.38 0-1.47-.15-2.93-.15-4.39s.12-2.88.12-4.31c0-.88-.16-1.76-.16-2.64 0-1.08.42-1.7 1.59-1.7 1.47 0 2 .83 2 2.19v6.35zm12.61 23.72c-6.52 0-8.15-11.46-8.15-16.31 0-5 .48-16.79 7.6-16.79 5.52 0 8 8.05 8 12.51 0 2.19-1.2 2.49-3.08 2.49-1.69 0-3.38-.13-5.07-.13-1.42 0-3 .28-3 2 0 .91.18 1.81.26 2.72.19 2.21.31 9.45 3.52 9.45s2.26-6.28 3.05-6.74a2.2 2.2 0 0 1 1.26-.26c.87 0 1.73.15 2.59.15s.72.38.72 1c0 3.65-2 8.52-5.79 9.62a6.56 6.56 0 0 1-1.91.34zm-3.28-22.09c0 .47 1 .56 1.34.56a21.16 21.16 0 0 0 3.54-.53c.89-.16 1.5 0 1.5-1.17 0-1.91-1.7-6-4-6s-2.29 3.27-2.29 4.84v1.25c0 .42-.09.7-.09 1.05zm44.45-12a17.8 17.8 0 0 1 .27 3.42c0 2.95-.44 5.88-.44 8.83 0 2.57.4 5.13.4 7.72s-.27 4.94-.27 7.41c0 1.85.17 3.7.17 5.55 0 1 .19 2.78-1.22 2.78a5.16 5.16 0 0 1-1.16-.2c-.89-.22-1.34 0-1.34-1.28 0-.95.21-1.9.21-2.88 0-1.76-.15-3.52-.17-5.28 0-6.49-.26-13-.26-19.48v-3.5c0-.74-.08-1.07-.9-1.07-2 0-4 .68-6 .67v4.47c.17 5.7.19 11.41.29 17.12a69.88 69.88 0 0 0 .21 7.93 25.4 25.4 0 0 1 .36 2.76c0 .23-.13.93 0 1.12-.25.54-2.64.61-3.15.61-1.15 0-.92-.25-1.06-1.12a12.18 12.18 0 0 1-.17-2c0-1.55.19-3.09.19-4.64 0-9.58-.19-19.16-.19-28.73a2 2 0 0 1 2.09-1.9h.06c3 0 6 .38 9 .38 1.4 0 2.79-.59 3.11 1.27zm5.07-1.36c3.63.13 8.84-.27 11.18 3.15a4.69 4.69 0 0 1 .86 2.71c0 2.53-2 5.25-4.11 6.53-1 .61-2.79.76-3.49 1.32a2.24 2.24 0 0 0-.68 1.9c0 .93.2 1.85.2 2.77 0 4 .35 8 .68 11.94.14 1.82.61 3.58.61 5.41 0 1.52-.1 2-1.72 2-2.57 0-2.63-.64-2.63-3 0-6.39 0-12.79-.32-19.18-.2-4-.75-8-.75-12.08a31.73 31.73 0 0 1 .17-3.51zm7.75 8.24a3 3 0 0 0 .24-1.14c0-1.8-2.06-3.53-3.8-3.53-.72 0-.79.59-.79 1.17a17 17 0 0 1 0 1.89c0 .81-.23 1.61-.23 2.42s.18 1.55 1.07 1.55a5.08 5.08 0 0 0 3.46-2.35zm24.58 32.1a3.5 3.5 0 0 1-2.77.84c-6.71 0-11.34-3.11-11.34-10.24 0-3.21 1.56-6.15 5.12-6.15 2 0 4 1.48 4.79 1.48a1.1 1.1 0 0 0 .26-.06c0-4.6-.07-20.6-2.13-23.85a3.05 3.05 0 0 0-2.55-1.57c-2.37 0-3.8 2.52-3.8 4.66 0 1.88 0 2.28-2 2.28-.9 0-3 .24-3-1.09a11.52 11.52 0 0 1 1.41-4.31c1.55-2.9 4.93-5.76 8.36-5.76a5.41 5.41 0 0 1 2.31.51c4 1.94 4.64 9.68 5.06 13.61a124.79 124.79 0 0 1 .65 13.39c0 4.33-.16 8.67-.16 13 0 1 .25 2.32-.27 3.26zm-9.71-8.45a5.12 5.12 0 0 0 4.91 5.33h.27c1 0 1.13-1 1.13-1.81 0-1.25-.4-2.46-.4-3.71 0-2.42-.6-2.9-3-2.9a2.88 2.88 0 0 0-2.92 2.82v.23zm15.93-19.13c0-2.45.09-4.9 0-7.35 0-.74-.1-2-.1-2.77 0-1.39.48-1.47 1.92-1.47a11.49 11.49 0 0 1 5.09 1.61c3.79 2.36 5.09 7.54 5.11 11.75 0 5-2.7 7-4.09 8.92-.15.2 7.52 1.39 7.5 7.7s-10.58 5.44-14.3 5.44c-1 0-.86-.67-.94-1.45s-.11-1.86-.11-2.79c0-6.46-.09-12.91-.1-19.37zm6.11-5.17c-.3-.39-2.62-3-2.62-1.23 0 4.7.3 10.32.3 15a.6.6 0 0 0 .1.32h.26c4.65-1.57 4.37-11 2-14.18zm5.4 22.8c-.09-2.88-5.06-3.27-6.75-3.27-.74 0-.77.48-.77 1.1 0 1.21-.11 2.4-.11 3.6 0 .74.22 1.19 1 1.19 3.88 0 6.61-.59 6.61-2.62zm7.49-28a26.06 26.06 0 0 1-.36-3.06 4.23 4.23 0 0 0 0-1.23c.24-.6 2.63-.68 3.17-.68 1.16 0 .92.37 1 1.24a14.45 14.45 0 0 1 .17 2.18c0 1.62-.19 3.23-.19 4.85 0 7.35.2 14.7.2 22a1 1 0 0 1-.95 1.05h-.1c-.4 0-2.27 0-2.49-.4a2.59 2.59 0 0 1-.11-1c0-2.48.15-5 .15-7.48v-3.17c-.13-4.57 0-9.84-.5-14.33zm3 30.85a1 1 0 0 1 1 1c.07 1.45.06 2.93.06 4.39a1 1 0 0 1-1 1c-.43 0-2.24 0-2.49-.41a2.59 2.59 0 0 1-.11-1c0-1.35.07-2.75.13-4.1a1 1 0 0 1 1-1h.09c.5.06.92.07 1.38.12z" fill="#003b71"/></svg>