<svg id="Layer_1" data-name="Layer 1" xmlns="http://www.w3.org/2000/svg" viewBox="0 0 1456.08 1021.32"><defs><style>.cls-1{fill:#fff}.cls-21,.cls-3{fill:#c4e5e5;stroke:#1691c9}.cls-18,.cls-19,.cls-22,.cls-3{stroke-miterlimit:10}.cls-21,.cls-3{stroke-width:6px}.cls-4{fill:#800faa}.cls-5{fill:#eca179}.cls-6{fill:#0d0506}.cls-18,.cls-19,.cls-22,.cls-8{fill:none}.cls-8{stroke:#ca5e34}.cls-21,.cls-8{stroke-linecap:round;stroke-linejoin:round}.cls-8{stroke-width:4px}.cls-10{fill:#1b1c20}.cls-14{fill:#1691c9}.cls-15{fill:#2b5d8a}.cls-18{stroke:#2b5d8a}.cls-18,.cls-22{stroke-width:3px}.cls-19{stroke:#af4a25;stroke-width:2.72px}.cls-22{stroke:#003b71}</style><clipPath id="clip-path"><path class="cls-1" d="M676.87 340.69s3.57 3 19.88 4.15c11.92.86 19.79-1.68 19.79-1.68-3 10.15-13.86 12.55-22.9 12.61s-18.64-6.65-16.77-15.08z"/></clipPath><clipPath id="clip-path-2"><path class="cls-1" d="M746.67 344.47s3.85 2.61 20.19 2.17c11.94-.32 19.53-3.62 19.53-3.62-2 10.4-12.56 13.85-21.54 14.81s-19.24-4.83-18.18-13.36z"/></clipPath></defs><path d="M1348 532.88l-8.22-41.25q-10.1-39.11-25.57-66.74c-30.07-64.63-67.75-107.54-102.51-136.55a463.58 463.58 0 0 0-69.7-48.51c-28.78-45.72-62.47-71.78-91.9-91.05C998.58 115 947.19 98.53 896.69 84.62 833.23 67.15 770.23 56 707.64 48c-80.9-10.39-161.11-15.65-239.78-7.59-69.09 7.09-139.55 21.57-199.33 78.36-33.8 32.11-62.54 80.22-82.65 150.59-19.95 69.79-27.35 178.61-11.78 281.11 29.72 195.76 115 278.87 186 312.9 53.55 81.95 111.26 100.48 165 101.47 107.78 23.21 209.3-7 308.4-45.29a1189.69 1189.69 0 0 0 127.22-12.13c53.11-8.06 105.36-21.12 157.25-36.85 33-10 66.7-14.17 97-38.76 16.57-13.46 31.8-36 43.21-66.69 12.36-4.61 24.64-9.63 36.41-17.78 22.1-15.3 43.37-49.68 51.93-101.26 5.42-32.77 8.48-70.62 1.48-113.2z" fill="#a7d1d0"/><path class="cls-3" d="M1330.52 961.1H140.4l56.71-255.77H1252.66l77.86 255.77zM140.4 962.04h1190.11v22.05H140.4z"/><path class="cls-4" d="M750.44 423.83s51.77.29 100.37 31.06c13.29 8.42 37.58 106.41 35.7 122l5.43 159.43-281 5.37L601 569.33c-2.64-16.78 11.82-91.53 32.07-108 11.93-9.77 60.02-37.5 117.37-37.5z"/><path class="cls-5" d="M806.07 435.11a195 195 0 0 0-55.63-11.28c-30.53-1.44-64.75 12.72-64.75 12.72l68.08 67.78z"/><path class="cls-6" d="M636.27 263.59c7.57 6.08-53.66 111.69-53.66 111.69 24.65 35 162.15 61.65 213.9 31.11 42.22-24.9-122.13-112.2-160.24-142.8z"/><path class="cls-6" d="M839.86 256.79c3.13 17.47 13.82 72.37 57.13 96.68 0 0-71.1 85.95-141.32 39-43.76-29.3 56.39-90.47 84.19-135.68z"/><path class="cls-6" d="M838.28 291.42a81.51 81.51 0 1 1-58.56-99.1 81.78 81.78 0 0 1 58.56 99.1z"/><path class="cls-5" d="M765.48 342.58c4.63 46.31 3.58 53.47 7.22 99.88 0 0-47.25 8.73-67.11 9 .61-40 2.54-50.16 3.66-90.21 15.17-6.75 41.05-11.95 56.23-18.67z"/><path d="M705.8 440.74c30.76-8.91 57-20.79 64.33-47.76-19.23 8.42-61.79-29.68-62.25-8.69-.28 12.71-1.88 37.85-2.08 56.45z" fill="#dc835e"/><path class="cls-5" d="M705 213.71c-41.64 4.55-52.39 44.14-47.64 84s12.6 93.69 55.86 109.91c38.88 14.57 61.65-8.55 79.74-39.09 7.1-12 10.47-35.38 10.8-46.58 4.88-33.74-2.81 18.13 4.2-29.32S768 196 705 213.71z"/><path class="cls-6" d="M793.65 262.8c-10.64 22.09-9.23 47.6 0 69.79l31.41-36q-15.71-16.92-31.41-33.79zM659 260.31c10.63 22.09 9.23 47.6 0 69.78-10.48-12-27.15-15-22.78-30.3 4.78-16.57 12.33-28.23 22.78-39.48z"/><path class="cls-5" d="M782.66 348c2.26 15.27 12.46 21.63 27.75 18.55s24.08-18.05 21.73-33.6-14.72-21.63-29.21-16.77-22.53 16.54-20.27 31.82z"/><path class="cls-8" d="M821.52 336.7c-10.82-2.84-17.95 2-23.12 11.25"/><path class="cls-6" d="M634.06 288.62c-9.09-41 26-99.6 71.34-98.86 10.18.17 31.89-.77 40.48 5.48-8.43 2.23-68.74 84-94.87 104.06-9.19 7.07-16.01-6.64-16.95-10.68z"/><path class="cls-8" d="M731.43 352.78a122.8 122.8 0 0 1-7.64 21.76c2.54 1.11 7.64 2.42 10.87.82"/><path class="cls-1" d="M676.87 340.69s3.57 3 19.88 4.15c11.92.86 19.79-1.68 19.79-1.68-3 10.15-13.86 12.55-22.9 12.61s-18.64-6.65-16.77-15.08z"/><g clip-path="url(#clip-path)"><path class="cls-10" d="M708.79 349.31c-.55 7.08-5.9 12.83-13.23 12.27s-11.73-7.05-11.18-14.13 5.91-12.83 13.23-12.27 11.73 7.05 11.18 14.13z"/></g><path d="M677.48 337.22a119.41 119.41 0 0 0 19.22 4.45 98.62 98.62 0 0 0 9.87.91 57.86 57.86 0 0 0 9.86-.34.94.94 0 0 1 .34 1.84 60.81 60.81 0 0 1-10.18 1.41c-3.42.21-6.84.23-10.26.1A123.44 123.44 0 0 1 676 343a3 3 0 0 1 1.22-5.88l.29.08z"/><path class="cls-1" d="M746.67 344.47s3.85 2.61 20.19 2.17c11.94-.32 19.53-3.62 19.53-3.62-2 10.4-12.56 13.85-21.54 14.81s-19.24-4.83-18.18-13.36z"/><g clip-path="url(#clip-path-2)"><path class="cls-10" d="M779.29 349.91c.15 7.09-4.62 13.34-12 13.51s-12.37-5.86-12.52-13 4.61-13.35 12-13.51 12.37 5.9 12.52 13z"/></g><path d="M746.93 341a117.77 117.77 0 0 0 19.57 2.53 96.35 96.35 0 0 0 9.91-.06 59.27 59.27 0 0 0 9.78-1.31.93.93 0 0 1 .51 1.79 60.57 60.57 0 0 1-10 2.41 102.37 102.37 0 0 1-10.19 1.11 124 124 0 0 1-20.56-.55 3 3 0 1 1 .64-6h.3z"/><path class="cls-6" d="M700.41 310.29c-3.64-.44-11.09.19-15.67 2.15-3.79 1.62-7 5.53-2.54 9.22 2.74 2.28 12.15 3 14.2 3.2 6.68.73 20.49-1.12 20.66-7.1.25-8.41-10.59-6.76-16.65-7.47zM768.31 312.08c-3.63-.45-11.09.18-15.67 2.14-3.78 1.62-7 5.53-2.54 9.22 2.74 2.29 12.15 3 14.2 3.2 6.68.73 20.49-1.12 20.66-7.1.25-8.41-10.59-6.72-16.65-7.46z"/><path stroke-width="2" stroke="#000" stroke-linecap="round" stroke-linejoin="round" fill="none" d="M723.79 389.62l13.56.81"/><path class="cls-6" d="M646.67 292.05s30.94 13 79.45 14c52.21 1 92.25-8.57 92.25-8.57s-15.37-72.15-56.94-88.93-104.17 22.17-114.76 83.5z"/><path stroke="#000" stroke-linecap="round" stroke-linejoin="round" fill="none" d="M680.18 451.44l73.59 66.62 54.08-70.43"/><path class="cls-14" d="M723.47 890.4l20.63-177.11s71.2-16.23 106.84-23.22a13.35 13.35 0 0 1 15.86 14.28l-13.54 153.33A19.19 19.19 0 0 1 836.73 875zM706.29 887.2l-117.2-21.88A15.3 15.3 0 0 1 577 846.78l34-144.1a12.35 12.35 0 0 1 14.43-9.28l107.11 21.33z"/><path class="cls-15" d="M723.47 890.4l-17.18-3.2 26.25-172.47 11.56-1.44-20.63 177.11z"/><path fill="#f7f7f8" d="M716.05 878.09L593.5 856.2l31.98-153.67 113.91 20.95-23.34 154.61z"/><path d="M716.05 878.09l23.34-154.61s98.91-21.29 115.27-23.32l-11.29 159.18z" fill="#c3c5c8"/><path class="cls-18" d="M750.44 752.21s69.4-15.89 85.64-17.51M744.26 782.07S829 765.5 836 765.75M741.36 820.01l90.38-8.18"/><path class="cls-1" d="M716.05 878.09l23.34-154.61s59.75-24.2 71.69-26.22l-8.24 159.17z"/><path class="cls-18" d="M735 749.3s50.64-15.88 62.5-17.5M730.53 779.17s61.81-16.58 66.92-16.32M728.42 817.1l65.94-8.17M616.09 829.26l86.39 14.82M624.14 793.33l88.81 20.78M633.06 759.95l82.28 23.94M639.93 736.06l78.91 16.84"/><path class="cls-5" d="M538.07 562.31S485 630.06 444.91 693.57a35 35 0 0 0 7 45.5 35 35 0 0 0 50.36-5.57l109-130.33z"/><path class="cls-4" d="M674.26 443.52s-80.39 10.76-175.54 166.92l91.8 67.72 26.54-71.74z"/><path d="M539.79 640.74l25.6 18.39 25.54 18.47-1.07.33q2.17-7.3 4.59-14.5t5-14.35c.86-2.38 1.76-4.75 2.67-7.11s1.84-4.73 2.77-7.08c1.91-4.7 3.87-9.39 6-14-1.24 4.94-2.7 9.8-4.2 14.64-.76 2.42-1.52 4.84-2.33 7.24s-1.6 4.81-2.45 7.2q-2.47 7.18-5.19 14.29t-5.62 14.13a.7.7 0 0 1-.91.37l-.15-.08-25.18-19z"/><path class="cls-5" d="M506.05 700.25l93.67 117.31-14.19 32.15-133.19-110.6c-15.51-12.8-17.58-36.72-3.07-50.66.78-.74 1.6-1.46 2.46-2.15a35.13 35.13 0 0 1 54.32 13.95z"/><path class="cls-19" d="M516.46 713.29l-27.57-17.04"/><path class="cls-5" d="M638.35 878.09c5.18-1.31-6.06-21.2-14.21-34a75.34 75.34 0 0 1-5-9.57 19.72 19.72 0 0 1 6 6.56c3.44 6.21 11.79 9.5 14 8.64 4.26-1.67-.57-6.31-5-13-3.44-5.18-9.86-16.66-9.86-16.66-12.59-8.92-40.79-21.87-40.79-21.87l-28.11 21.49c8.67 19.92 14.82 37.34 26.35 47.83 1.83 1.67 26.65 25.32 29.68 21 2.38-3.42-11.63-21.4-12.87-22.65s17.22 26.14 25.6 24.54c5.19-1-16.16-28.46-16.16-28.46s18 25 25.08 22.68c6.13-2-21.16-35.83-18.51-34.91 0 0 19 29.59 23.8 28.38zM924 522.17s68.67 56.46 113.53 116.7a35 35 0 0 1-3.45 45.9 35 35 0 0 1-50.64-1.68L860.49 569.42z"/><path class="cls-4" d="M838.44 449.34s77.3 31.58 161.2 141.28l-92 66.07L824.93 567z"/><path d="M959.48 619.47L933.8 638.4l-25.74 18.86a.68.68 0 0 1-.88-.06q-4.75-4.56-9.32-9.29t-9-9.61c-1.49-1.62-2.94-3.26-4.37-4.91s-2.87-3.32-4.29-5c-2.81-3.39-5.58-6.79-8.2-10.39 3.33 2.89 6.5 5.93 9.63 9 1.55 1.55 3.11 3.09 4.63 4.67s3.05 3.15 4.54 4.76q4.52 4.77 8.85 9.72t8.51 10l-.93-.09 26.09-18.37z"/><path class="cls-5" d="M989.82 635l-155.36 45.6-.07 35.6 178.85-19.2c20-2.14 34.9-21 30.47-40.59-.24-1.05-.53-2.1-.87-3.14A35.13 35.13 0 0 0 989.82 635z"/><path class="cls-19" d="M941.31 649.26l39.58-11.62"/><path class="cls-5" d="M738.9 685.63c-1.67-8.87 41.29-10.84 52.06-9l-8.91-7.74c-2-2.17-4.61-8.52-2.16-11.73s18.76 9.47 18.76 9.47c9.32 5.31 40.48 12.49 40.48 12.49l2.74 35.27c-20.62 6.83-40.1 9-55.61 7.39-2.45-.25-34.31 6.23-36.06 1.24-1.35-3.82 33.92-12.23 30.93-13.38-1.65-.64-36.52 10.28-40.89 2.93-2.71-4.54 39-10.21 37.76-12.85-.82-1.73-35.26 7.81-39.26 1.57-5-7.77 41.57-12 39.11-13.34-1.85-.95-37.78 3.87-38.95-2.32z"/><path stroke-width="4" stroke-linecap="round" stroke-linejoin="round" fill="#c4e5e5" stroke="#1691c9" d="M393.96 732.14l12.71 30.71"/><path class="cls-21" d="M261.24 762.85l-34.78 153.57h157.33l22.88-153.57H261.24z"/><path class="cls-21" d="M248.53 732.14l-34.79 153.57h157.33l22.89-153.57H248.53zM383.79 917.9l-12.72-30.7H213.74l12.72 30.7h157.33zM257.34 839.63l83.76-22.53M273.81 793.33l82.39-22.32M1011.29 928.34l153.87-21.88-70.31-146.64-146.29 12.35 62.73 156.17z"/><path class="cls-21" d="M1072.85 902.55l149.8-24.46-106.67-137.54-142.51 8.75 99.38 153.25z"/><path class="cls-14" d="M1098.85 856.61s56.19-40.53 57.56-45.56l-15.56-15.53c-4.36 1.85-51.52 44.77-54.26 47.88z"/><path class="cls-1" d="M1098.85 856.61s-21.43 9-25.4 10.6 13.14-23.81 13.14-23.81z"/><path class="cls-22" d="M1098.6 851.14l50.09-40.31M1096.66 845.94l47.02-39.95M1092.2 843.03l47.57-40.62M1156.41 811.05s8.83-4.93 6.6-9-9.75-13.71-12.86-12.54-9.3 6-9.3 6"/><path class="cls-15" d="M651.17 313.34s-.53-80.77 76.53-89.59 86.16 87.87 86.16 87.87-23.5-69.23-77.44-70.17c-61.65-1.08-85.25 71.89-85.25 71.89z"/><path class="cls-14" d="M808.91 291.29c18.86 3.46 30.81 24.48 26.69 46.95s-22.76 37.88-41.6 34.42"/><path class="cls-15" d="M806.7 289.5a14.85 14.85 0 0 1 11.89 17.24l-10.08 54.91a14.84 14.84 0 0 1-17.23 11.89c-8.01-1.47 7.42-85.54 15.42-84.04z"/><path class="cls-14" d="M666.77 374c-18.94 3-37.2-12.85-40.79-35.41s8.87-43.29 27.81-46.3"/><path class="cls-15" d="M669.44 374.94a14.85 14.85 0 0 1-16.94-12.3l-8.76-55.15A14.85 14.85 0 0 1 656 290.55c8.08-1.28 21.48 83.11 13.44 84.39z"/></svg>