<svg id="Layer_1" data-name="Layer 1" xmlns="http://www.w3.org/2000/svg" viewBox="0 0 3461 539"><defs><style>.cls-3{fill:#fff}</style></defs><path d="M1959 264.45c0 122.91-99.68 222.55-222.59 222.55s-222.55-99.64-222.55-222.55S1613.5 41.9 1736.41 41.9 1959 141.54 1959 264.45z" fill="#c92434"/><path d="M1946.24 264.45c0 122.91-99.64 222.55-222.55 222.55s-222.55-99.64-222.55-222.55S1600.77 41.9 1723.69 41.9s222.55 99.64 222.55 222.55z" fill="#e4464e"/><path class="cls-3" d="M1842.76 402.24L1719 269.14h9.34l-133.1 123.75L1719 259.79l4.33-4.66 5.01 4.66 133.1 123.76-18.68 18.69z"/><path class="cls-3" d="M1604.56 126.67l123.5 132.29-9.32-.01 133.36-122.91-124.05 132.3-4.32 4.62-5-4.63-132.81-122.93 18.64-18.73z"/></svg>