<svg id="Layer_1" data-name="Layer 1" xmlns="http://www.w3.org/2000/svg" viewBox="0 0 2567.11 1021.3"><defs><style>.cls-1,.cls-19,.cls-27,.cls-37,.cls-47{fill:none}.cls-3{fill:#97c1bf}.cls-5{fill:#eca179}.cls-6{fill:#93aab5}.cls-7{fill:#f7f7f8}.cls-8{fill:#de8d68}.cls-9{fill:#1b1c20}.cls-10{fill:#39373a}.cls-11{fill:#f5d344}.cls-12{fill:#c96e3d}.cls-13{fill:#c46234}.cls-14{fill:#995300}.cls-15{fill:#fff}.cls-17{fill:#604538}.cls-19,.cls-27,.cls-37,.cls-47{stroke:#ca5e34;stroke-linecap:round;stroke-linejoin:round}.cls-19{stroke-width:1.22px}.cls-21{fill:#8c6239}.cls-22{fill:#a67c52}.cls-23{fill:#dc835e}.cls-25{fill:#95bcba}.cls-26{fill:#5da39e}.cls-27{stroke-width:.45px}.cls-28{fill:#c15e28}.cls-30{fill:#663205}.cls-34{fill:#aa664b}.cls-35{fill:#003359}.cls-36{fill:#003b71}.cls-37{stroke-width:1.16px}.cls-40{fill:#21a498}.cls-44{fill:#5f3335}.cls-46{fill:#800faa}.cls-47{stroke-width:1.34px}.cls-50{fill:#fbb817}.cls-52{fill:#67918e}.cls-55{fill:#6cb9d3}.cls-59{fill:#1691c9}</style><clipPath id="clip-path"><path class="cls-1" d="M904.31 374.76s6.42-9.67 19.14-1.36c-.1 0-6.94 9.04-19.14 1.36z"/></clipPath><clipPath id="clip-path-2"><path class="cls-1" d="M891.06 374.24s-5.47-8.94-12-2.11c.01-.13 5.37 9.05 12 2.11z"/></clipPath><clipPath id="clip-path-3"><path class="cls-1" d="M1852.37 395.27s5.37-9.88 18.3-2.94c-.1-.11-5.88 9.25-18.3 2.94z"/></clipPath><clipPath id="clip-path-4"><path class="cls-1" d="M1839.54 395.8s-6-8.1-11.78-1.05c0 0 6 8.41 11.78 1.05z"/></clipPath><clipPath id="clip-path-5"><path class="cls-1" d="M1644.54 391.91s-6.2-9.47-18.51-1.37c-.03 0 6.74 8.73 18.51 1.37z"/></clipPath><clipPath id="clip-path-6"><path class="cls-1" d="M1657.38 391.28s5.26-8.63 11.67-2.11c-.05 0-5.26 8.94-11.67 2.11z"/></clipPath><clipPath id="clip-path-7"><path class="cls-1" d="M691.54 383.6s-7.47-8.42-18.51 1.26c-.03 0 7.78 7.78 18.51-1.26z"/></clipPath><clipPath id="clip-path-8"><path class="cls-1" d="M704.05 381.18s4-9.26 11.26-3.68c0 0-3.89 9.5-11.26 3.68z"/></clipPath><clipPath id="clip-path-9"><path class="cls-1" d="M1151.27 372.87s-6-9.05-17.88-1.37c.1.11 6.52 8.5 17.88 1.37z"/></clipPath><clipPath id="clip-path-10"><path class="cls-1" d="M1163.57 372.34s5-8.31 11.26-2c0 .01-4.95 8.66-11.26 2z"/></clipPath><clipPath id="clip-path-11"><path class="cls-1" d="M1373.71 414.84c.53-3.16 6.21-1.69 7.79-1.79s6.2.31 7 2c-.94 3.78-4.94 4.94-8.3 5-3.48.32-7.16-2.1-6.53-5.25z"/></clipPath><clipPath id="clip-path-12"><path class="cls-1" d="M1361.72 414.31c-.94-1.58-3.36-1.68-5-1.68-1.27 0-3.37.31-4.21 1.68a4.91 4.91 0 0 0 4.73 4.63c2.76.06 4.48-1.94 4.48-4.63z"/></clipPath></defs><path d="M1468 13.59c-37.33.42-220.34-6.63-262.1-1.37-73.1 9.15-129.36 33.55-182.48 59.63-66.68 32.71-126.84 70.79-183.64 111.28C766.32 235.51 698.37 291.88 644.63 359c-47.23 58.9-43.33 128.52-35 224.76 4.73 54.38-8.31 111.49 36.7 194.16 190.16 349.5 1385.08 371.8 1274.43-394C1863.31-13.55 1523.38 13.06 1468 13.59z" fill="#c4e5e5"/><path class="cls-3" d="M1891.18 749.61s-46.69-85.19 35.34-157.45c0 0-60 75.52-20.08 148.72z"/><path class="cls-3" d="M1904.65 539.15s-65.74 107.07-1.26 197L1885 749.72c-.13-.11-75.22-104.65 19.65-210.57z"/><path d="M1607.84 483.62h8.94V595h-8.94z" stroke-miterlimit="10" stroke="#1691c9" stroke-width="2.67" fill="#c4e5e5"/><path class="cls-5" d="M927.24 754l27.24 131.5 15.25-1-11.25-134.36-31.24 3.86z"/><path class="cls-6" d="M950.59 885s-22.72 4.41-33.24 10.83c-3.78 2.31-1.58 6.84-.31 7.78 2.84 2.11 47.75.95 58-.21 3.58-.42-.84-14.62-5.26-18.72z"/><path class="cls-7" d="M952.59 876.35s-23.67 10.62-34.19 17a6.94 6.94 0 0 0-3.15 6.63c2.84 2.1 50.8.21 60.9-1.06 0 0 1.36-9.67-5.58-22.71l-1.37 5.25-14.4.32z"/><path class="cls-5" d="M864 788.84l4.52 95.5 16.72.21 16.2-95.71z"/><path class="cls-6" d="M866.24 885s-22.72 4.41-33.24 10.83c-3.79 2.31-1.58 6.84-.31 7.78 2.84 2.11 47.75.95 57.95-.21 3.57-.42-.84-14.62-5.26-18.72z"/><path class="cls-7" d="M868.13 876.35S844.47 887 834 893.39a6.94 6.94 0 0 0-3.16 6.63c2.84 2.1 50.8.21 60.9-1.06 0 0 1.37-9.67-5.57-22.71l-1.37 5.25-14.41.32z"/><path class="cls-8" d="M873.18 549.15l-47.86-54.06-19.14 5.46 40.39 66.37a19 19 0 0 0 15 9.15c5.57.42 11.15-1.26 14.51-5.68 5.68-7.15 4.21-16.62-2.94-21.24z"/><path class="cls-9" d="M879.91 576.81s-23.67 95.5-21.91 291.13l41 1.36 35.76-292.39h-54.8z"/><path class="cls-10" d="M956.37 576.81c24.82 63.94 15.88 130.84 18.51 164.18 3.69 46.7 2.84 126.74 2.84 126.74l-34.81 4.73-21-121L899 576.81z"/><path class="cls-8" d="M903.05 501.92l-2.84 51.75c-.63 9.67-9.15 17.67-18.62 17.56-8.62-.1-14.93-7-14.41-15.88l2.11-57.74 33.76 4.31z"/><path class="cls-11" d="M909.57 432.19c.63-.21-36.18 13.25-48.8 65.52l46.28 36.5 5.78-55z"/><path class="cls-11" d="M956.48 439.24c4.42 5.47 14.62 21.77 14.3 29.13l12 174.07-117.9-9.26s7.36-138.83 20.19-172.07c15-38.81 57.11-39.54 71.42-21.87z"/><path class="cls-8" d="M792.3 455.75c3.26-3.47 17.46 14.2 20 19.35l.53-6.2c.31-1.58 2.21-4.63 4.31-4.53s1.79 10.94 1.79 10.94c.63 5.58 7.25 21 7.25 21L812 508.44c-9.26-6.62-16.31-14.3-20.41-21.35-.63-1.16-13.25-12.62-11.67-14.93 1.15-1.79 15.77 10.62 15.25 9-.21-.94-15.67-12.3-14-16.51 1.05-2.53 16.41 13.36 17.14 12.09.42-.84-14.3-12.51-12.83-16.19 1.79-4.53 18 14 17.78 12.51-.02-1.06-13.26-14.89-10.96-17.31z"/><path class="cls-5" d="M999.71 485.3l14.09 67.21c1 9.68-6.31 17.36-15.78 16.62-8.62-.63-16.09-8-17.14-16.83l-9.47-71.3 28.3 4.31z"/><path class="cls-11" d="M926.71 432.19s76.36-21.56 89.93 77.62l-49.43 10.41-7.89-53.53z"/><path d="M973.2 519c-1.89.53-3.89.95-5.78 1.37-.11 0-.21 0-.21-.11-.85-3.47-1.69-7-2.42-10.52s-1.58-7-2.32-10.62c-.42-1.79-.73-3.57-1.05-5.26s-.73-3.57-1-5.36c-.74-3.58-1.37-7-2-10.62.84 3.47 1.68 7 2.53 10.51.42 1.79.84 3.47 1.15 5.26s.74 3.58 1.16 5.26c.74 3.58 1.47 7.05 2.21 10.62s1.37 7 2.1 10.63l-.21-.11c1.89-.31 3.89-.73 5.89-1z"/><path class="cls-12" d="M891.27 385.39c-1.16 5.89-3.89 8.2-11.68 6.83-5.89-1.05-9.46-8.1-8.3-14s5.89-7.36 12-5.57c4.31 1.16 9.15 6.84 8 12.73z"/><path class="cls-5" d="M928.82 391l9.18 53s-14.62 4.73-19.36 5.68c-8.41 1.68-16.72-2.74-16.72-2.74l1.26-52.48 25.64-3.46z"/><path class="cls-13" d="M902.42 426.51c11.57-3.26 21.35-23.66 21.35-23.66l-20.62-4.53-.73 28.19z"/><path class="cls-5" d="M921.14 333.64a46.43 46.43 0 0 0-21.14-.74c-9.36 1.9-21.46 5.79-22.72 22.51-2.21 27.77 1.47 48.59 15.67 54.9 10.94 4.84 18.83 2.95 31.34-4.2 4.63-2.63 9.05-10.31 10.31-15.68l5.26-14.83c-.1-.1 14.09-33.34-18.72-42z"/><path class="cls-14" d="M891.37 362.56s.32 2.74-3.89 1.9a31.67 31.67 0 0 0-6.1-.64 2.94 2.94 0 0 1-2.52-1.36 1.82 1.82 0 0 1 .63-1.9c1-1.05 2.63-2.52 6.52-1.89 5 .74 5.36 3.89 5.36 3.89zm11.78-1.05s-1.15 3.26 4.63 3.37a73 73 0 0 1 12.2 1.68 3.67 3.67 0 0 0 3.68-1.16 1.53 1.53 0 0 0-.21-2.21l-.1-.1a25.23 25.23 0 0 0-12.52-4.42c-6.73-.1-7.68 2.84-7.68 2.84z"/><path class="cls-15" d="M904.31 374.76s6.42-9.67 19.14-1.36c-.1 0-6.94 9.04-19.14 1.36z"/><g clip-path="url(#clip-path)"><path class="cls-9" d="M909.25 373.08a4.64 4.64 0 1 0 5.37-3.79 4.65 4.65 0 0 0-5.37 3.79z"/></g><path class="cls-17" d="M923 373.82a18.81 18.81 0 0 0-4.52-2.53 14.13 14.13 0 0 0-5.15-1.05 11.79 11.79 0 0 0-5.05 1.16 11.2 11.2 0 0 0-4 3.36 11.94 11.94 0 0 1 3.89-3.68 11.25 11.25 0 0 1 5.16-1.47 15.5 15.5 0 0 1 5.36.84 18 18 0 0 1 4.94 2.42c.21.21.32.53.11.74a.46.46 0 0 1-.74.21z"/><path class="cls-15" d="M891.06 374.24s-5.47-8.94-12-2.11c.01-.13 5.37 9.05 12 2.11z"/><g clip-path="url(#clip-path-2)"><path class="cls-9" d="M887.48 373.19c.53 2.41-.31 4.73-2 5.15s-3.47-1.26-4-3.68.31-4.74 2-5.16 3.52 1.27 4 3.69z"/></g><path class="cls-17" d="M878.65 371.71a8.75 8.75 0 0 1 1.36-1.36 5.25 5.25 0 0 1 1.69-1 6.13 6.13 0 0 1 1.89-.42h.53c.21 0 .31.1.42.1a3.19 3.19 0 0 1 .94.21 8.73 8.73 0 0 1 3.16 1.9 10.45 10.45 0 0 1 2.31 2.94 11.78 11.78 0 0 0-2.42-2.73 7.34 7.34 0 0 0-3.15-1.58 2.24 2.24 0 0 0-.84-.11h-.84a9.53 9.53 0 0 0-1.69.43 7.62 7.62 0 0 0-2.63 2.2c-.21.21-.52.32-.73.11a.61.61 0 0 1 0-.69z"/><path class="cls-19" d="M894.21 390.33l-4.1-2 3.58-10.52m5.47 17.88c-3.89 3.79-10 .74-10 .74"/><path class="cls-14" d="M940.28 342.89s-26.61 6.42.32 37.34l4.94-29.66z"/><path class="cls-5" d="M930.6 386.65c1.16 5.89 3.9 8.2 11.68 6.73 5.89-1.05 9.47-8.1 8.31-14s-5.89-7.36-12.1-5.57c-4.2 1.26-9 6.94-7.89 12.83z"/><path class="cls-19" d="M944.38 380.23s-5.47-1.37-7.67 6.52"/><path class="cls-14" d="M945.54 350.47c-1 .73-94 19.88-61.32-30.29 0 0-1.68 5.25 34.39 10.72 28.4 4.32 26.93 19.57 26.93 19.57z"/><path class="cls-5" d="M944.8 672.31c-4.31-1.9 2.32-20 5.16-24.93l-3.58 1.47c-1.47.63-3.57 1.48-4.73-.31s4.84-6.84 4.84-6.84c4.31-3.57 17.88-15.88 17.88-15.88l13.63 3.47c-.42 11.47-3 21.46-6.73 28.82-.63 1.16-.74 14-3.58 13.88-2.1 0-2.21-14.93-3.36-13.67-.63.74 1.57 15.25-2.84 16.09-2.74.42-1.16-16.51-2.63-16.3-1 .1.1 16.83-3.79 17.67-4.73 1.05-.63-19.88-2.1-19.77-2.42 0-6.63 17-8.21 16.3z"/><path class="cls-5" d="M981.19 553.46l-22.29 84.67 14.83.63 37.65-74.47a17.74 17.74 0 0 0-.42-17.14c-2.73-4.63-7.26-8.1-13-8.31-9.3-.32-16.77 6.16-16.77 14.62z"/><path d="M976.15 572.6l5-19.14" stroke-width=".39" stroke="#af4a25" stroke-miterlimit="10" fill="none"/><path class="cls-5" d="M1816.93 759l3.58 129h17.67l10.3-129zm70.57 9.36l18.94 128.43 17.14-2.21-6.73-126.22z"/><path class="cls-21" d="M1818.51 890.55s-18.93 5.15-29.24 11.36c-3.79 2.31-.84 7.89 3.89 8.1 3.47.21 39.23-.42 49.22-1.58 3.47-.42-.84-14.3-5.15-18.3l-18.72.42z"/><path class="cls-22" d="M1820.3 882.24s-12.63 8.31-30 18.83c-4 2.42-1.26 6.1 4.52 6 10.31-.21 40.18-1.57 48.7-2.63 0 0 2-9.46-4.73-22.19l-2.74 5.15-7.57.11a8.61 8.61 0 0 1-8.2-5.26z"/><path class="cls-21" d="M1904.12 897.39s-22.3 4.31-32.5 10.62c-3.78 2.31-1.58 6.73-.31 7.57 2.84 2 46.69.95 56.69-.21 3.47-.42-.85-14.3-5.16-18.3l-18.72.32z"/><path class="cls-22" d="M1906 889s-23.13 10.41-33.44 16.62a6.6 6.6 0 0 0-3 6.52c2.84 2 49.64.21 59.63-1 0 0 1.27-9.46-5.47-22.19l-1.36 5.16-14.1.31L1906 889z"/><path class="cls-5" d="M1818.72 556.93L1791 643.07l13.78 1 41.12-75.2a19.88 19.88 0 0 0 1-17.57c-2.21-4.83-6.1-8.51-11.46-8.83a15.68 15.68 0 0 0-16.72 14.46z"/><path class="cls-23" d="M1774 668.52a34.57 34.57 0 0 0 .94 15.36c.32.94.64 1.89 1.48 2.21a2.14 2.14 0 0 0 2.21-.42 3.56 3.56 0 0 0 .94-2.21 1.53 1.53 0 0 0 1.47-1.58 5.78 5.78 0 0 0-.52-2.31 16.09 16.09 0 0 1-.42-8.94 6.47 6.47 0 0 1 .73-2 5.76 5.76 0 0 1 1.9-1.69c2.1-1.26 4.41-2.2 6-4a16.35 16.35 0 0 0 2.11-3.68 2.06 2.06 0 0 0-.21-2.53 14.24 14.24 0 0 0-3.05-3.57 2 2 0 0 0-1.27-.53 3.78 3.78 0 0 0-1 .1 16.55 16.55 0 0 0-10.94 9.68l-.31 6.1z"/><path class="cls-5" d="M1791.9 639.28c-7.26 7.36-16.83 16.94-19.57 20.51a13.16 13.16 0 0 0-2.52 6.52c-.63 4.53-.1 7.26.53 11.78.21 1.69.94 4.74 2.1 6s1.89.73 3-.42a5 5 0 0 0 1-3.47c.1-3.37-.21-5.58-.11-8.94a12 12 0 0 1 2.42-6.84c1.79-2.31 4.84-3 7.68-3.58 0 4.53-1.58 8.21-3.68 12.2-1.16 2.21-2.11 4.63.21 5.58 1.26.52 2.63-.42 3.78-1.26 3-2.42 4.53-7.37 7.16-10.31 2.2-2.53 4.41-1.79 6.52-4.42 3.26-4.1 3.89-9.67 4.41-14.93a21.07 21.07 0 0 0-.63-5.16 5.1 5.1 0 0 0-2-2.21c-3.26-2.73-8.83-2.52-10.3-1.05zm47.75-143.77l4.84 63.21c.42 9.25-4.84 16.3-14.1 16.19-8.52-.1-12.83-7.67-12.83-7.67l-11.25-74.68z"/><path d="M1836.81 576.91s-28.19 80.57-29.35 301l35.24 2.1 51-300.49z" fill="#ad532f"/><path class="cls-13" d="M1919.37 588c11.89 32 8.31 68.89 3.16 170.28 0 0 6.31 47.33 9 68.15 4 31.24 5.58 56.38 5.58 56.38l-37.76.21-25.88-102.55a190.66 190.66 0 0 1-5.46-34.39L1856.58 578z"/><path class="cls-25" d="M1839 529.06s-12.52 2.52-41.34-28.61l24.3-41.76c6.73-11.67 29.66-16.72 37.55-14.51l2.1 1.47c9.15 6.42 5.57 24.51.84 34.5L1839 529.06z"/><path class="cls-26" d="M1869.41 586.9l43.65.74c21.35.53 39.86-16.41 40.39-37.76l1.37-58.16c.63-24.61-19.67-45.12-44.28-45.65l-37.76-.63a38.75 38.75 0 0 0-39.65 37.76l-1.58 64.05a38.7 38.7 0 0 0 37.86 39.65z"/><path class="cls-25" d="M1876.67 442.71s20.93.42 37.44 7.15c4.21 1.68 8.52 14.72 8.31 19.25l-3.15 118.74s-65.32 12.52-85.41-5.15l-2.73-116.22a11 11 0 0 1 6.62-10.31l23.46-10.2 15.46-3.26z"/><path class="cls-5" d="M1888.24 449.33l-11.68-3.26h-15.35l-12.83 5.58s-4.21 12.2 11.67 13 24.4-9.57 28.19-15.36z"/><path class="cls-26" d="M1844.91 444.81s-13.26 26.72-12.31 82c0 0-2.94-2.53-6-11.47-4.63-13.56-3.26-50.38 9.57-66.47a8.13 8.13 0 0 1 3.78-2.73 13.46 13.46 0 0 1 4.96-1.33z"/><path class="cls-5" d="M1928.73 504.76l16.73 35a17 17 0 0 1-9.79 21.87l-.94.32a17 17 0 0 1-20.93-10l-13.25-43.44 28.18-3.79z"/><path class="cls-25" d="M1942.83 517.59s-6.31 11.26-49.44 7.37l-10.09-48.28a23.56 23.56 0 0 1 18.09-27.77l2.1-.31a23.24 23.24 0 0 1 25.14 16.61z"/><path class="cls-26" d="M1912.54 449.33s-31.66 24.51-25.14 90.77c0 0-18.3-12.52-18.3-35.34 0-11.57 2.63-42.49 27.87-58.79 0 0 3.26-3.16 12.2.21 3.58 1.26 3.37 3.15 3.37 3.15z"/><path class="cls-23" d="M1837.12 399.79c-.31 6-2.73 8.73-10.72 8.42-6.1-.21-10.63-6.73-10.31-12.83s4.84-8.21 11.25-7.26c4.52.63 10.1 5.68 9.78 11.67z"/><path class="cls-27" d="M1822.4 395.38s5.36-2.11 8.52 5.36"/><path class="cls-5" d="M1870.67 400.32l11.78 52.06-27.34 2.74-2.74-47.23z"/><path class="cls-23" d="M1854.48 440.92c11.36-4.31 19.35-25.66 19.35-25.66l-21.14-2.63z"/><path class="cls-5" d="M1865 345.73a46.83 46.83 0 0 0-21.25 1.16c-9.26 2.74-21 7.78-20.93 24.61.21 28.19 5.78 48.8 20.72 53.75 11.46 3.89 19.25 1.26 31.13-6.94 4.42-3.05 8.21-11.15 8.94-16.62l3.89-15.46s11.26-34.71-22.5-40.5z"/><path class="cls-28" d="M1838.28 380.23s1.26 2.32-2.84 3.16a26.63 26.63 0 0 0-5.68 1.68 2.75 2.75 0 0 1-2.84-.32 1.8 1.8 0 0 1-.21-1.89c.53-1.37 1.37-3.26 5.15-4.1 5-1.16 6.42 1.47 6.42 1.47zm13.25-.63s-1.15 3.16 4.53 3.26a85 85 0 0 1 11.88 1.58 3.76 3.76 0 0 0 3.58-1.05 1.43 1.43 0 0 0-.21-2.11l-.11-.1a24.31 24.31 0 0 0-12.09-4.31c-6.63-.21-7.58 2.73-7.58 2.73z"/><path class="cls-15" d="M1852.37 395.27s5.37-9.88 18.3-2.94c-.1-.11-5.88 9.25-18.3 2.94z"/><g clip-path="url(#clip-path-3)"><path class="cls-30" d="M1857.84 393.38a4.49 4.49 0 1 0 4.84-4.1 4.47 4.47 0 0 0-4.84 4.1z"/></g><path d="M1870.25 392.85a17.91 17.91 0 0 0-4.52-2.1 12.89 12.89 0 0 0-4.94-.63 10.06 10.06 0 0 0-4.84 1.58 9.81 9.81 0 0 0-3.58 3.57 10.37 10.37 0 0 1 3.48-3.89 10.54 10.54 0 0 1 4.94-1.89 14.7 14.7 0 0 1 5.26.31 20.46 20.46 0 0 1 5 1.9.68.68 0 0 1 .21.94.8.8 0 0 1-1.06.21z"/><path class="cls-15" d="M1839.54 395.8s-6-8.1-11.78-1.05c0 0 6 8.41 11.78 1.05z"/><g clip-path="url(#clip-path-4)"><path class="cls-30" d="M1836.49 394.85c.74 2.32.11 4.63-1.47 5.16s-3.47-.95-4.21-3.27-.1-4.62 1.48-5.15 3.47.95 4.2 3.26z"/></g><path d="M1827.24 394.43a8.55 8.55 0 0 1 2.94-2.52 5.64 5.64 0 0 1 1.9-.53h.94c.32 0 .63.11 1 .11a8 8 0 0 1 3.26 1.68 11.34 11.34 0 0 1 2.42 2.63 11.11 11.11 0 0 0-2.63-2.32 8.33 8.33 0 0 0-3.16-1.26c-.31 0-.52-.1-.84-.1h-.42a.84.84 0 0 0-.42.1 3.8 3.8 0 0 0-1.47.63 6.62 6.62 0 0 0-2.21 2.32.69.69 0 0 1-1 .21.64.64 0 0 1-.31-.95z"/><path d="M1843.33 398.64l-2.42 4.42 2.52 2.2m9.26 7.26s-6.21 4.52-12.52-.42" stroke-width=".89" stroke-linecap="round" stroke-linejoin="round" stroke="#ca5e34" fill="none"/><path class="cls-5" d="M1879.3 398.22c1.68 5.78 4.73 7.89 12.31 5.78 5.89-1.58 8.72-9 7-14.83s-6.62-6.83-12.62-4.52c-4.1 1.58-8.41 7.68-6.73 13.57z"/><path class="cls-27" d="M1892.66 390.54s-5.68-.84-7.05 7.15"/><path class="cls-28" d="M1820.72 380.65l43-26.08s21.56 25.35 22.3 31.66 11.15-14.52 9.68-21.14-15.25-32.92-35.87-25.88-31.83 8.31-37.83 21.25c-4.1 8.73-1.26 20.19-1.26 20.19z"/><path class="cls-28" d="M1863.21 352.15c3.89 6.1 7.57 12.2 11.46 18.3 1.89 3.05 3.79 6.1 5.89 8.94 1 1.47 2.11 2.84 3.26 4.21.63.63 1.16 1.36 1.79 1.89s1.26 1.16 1.89 1.68l-.73.32c.94-2.63 1.89-5.15 2.84-7.78s2-5.16 2.94-7.68c-.73 2.63-1.58 5.26-2.31 7.89l-2.53 7.88-.21.64-.52-.32a8.45 8.45 0 0 1-1.16-.84c-.31-.32-.74-.63-1-.95-.63-.63-1.26-1.26-1.89-2-1.27-1.36-2.32-2.73-3.48-4.2s-2.1-2.95-3.05-4.42-1.89-3-2.84-4.63c-1.89-3.05-3.68-6.2-5.36-9.36s-3.36-6.41-4.94-9.57z"/><path class="cls-28" d="M1882.45 349.1s34.82-43.75 57-9.89 12.84 87.79 12.84 87.79l-23.35 15.25-5.26-40.39-7.46 37.14-15.57-4.32s22-79.62-17.77-73.51c-11.26 1.78-.43-12.1-.43-12.1z"/><path class="cls-5" d="M1947.87 684.93c-4.73-.53-12.09-17.88-10-29.45 0 0-10.73 7.89-12.2 6.21s8.84-14.31 8.84-14.31c3.47-4.94 8.31-13.57 7.15-28l16.93-2.2c4.21 13.88 6.21 63.1.42 61.73-1.26-.31-1.57-14.83-2.63-14.09-1.78 1.16 2.74 19.88-1.36 18.83-.74-.21-2-4.53-2.63-8.73-.53-3.47-.63-7.05-1.05-6.73-1.37.73 1.68 14.41 1.57 15.35-.21 2.84-1.89 2.32-2.52 1.05-.42-.94-4.84-15.46-5.68-15.25-1.16.11 5.36 15.88 3.15 15.57z"/><path class="cls-5" d="M1916.85 558.09l24.19 74 18.93-3.68-11-77.41a16.48 16.48 0 0 0-18.62-14 13.31 13.31 0 0 0-2.73.63 16.55 16.55 0 0 0-10.73 20.41z"/><path class="cls-9" d="M1664.11 352.78s11.25 3.16 10.52 13.36a68.37 68.37 0 0 1-3.37 17.25s-8.94-19.57-15-24.51 1.58-8.62 7.89-6.1z"/><path class="cls-8" d="M1724 689c4.21-1.89-2.21-19.35-4.94-24.19l3.47 1.47c1.37.63 3.47 1.48 4.52-.31s-4.62-6.63-4.62-6.63c-4.21-3.47-17.36-15.46-17.36-15.46l-13.25 3.37c.42 11 2.84 20.72 6.42 27.87.52 1.15.73 13.57 3.47 13.46 2.1 0 2.2-14.41 3.26-13.25.63.63-1.58 14.83 2.73 15.56 2.63.43 1.16-16 2.63-15.88 1 .11-.1 16.41 3.58 17.15 4.62.94.63-19.25 2-19.25 2.53.31 6.53 16.72 8.1 16.09z"/><path class="cls-8" d="M1688.93 573.65l21.46 82.15-14.41.52-36.39-72.26a17 17 0 0 1 .52-16.61c2.63-4.53 7.05-7.89 12.62-8 8.94-.21 16.2 6.1 16.2 14.2z"/><path d="M1693.77 592.27l-4.84-18.62" stroke-width=".37" stroke="#af4a25" fill="#de8d68" stroke-miterlimit="10"/><path class="cls-5" d="M1623.4 756.87L1597 884.34l-16.41-1.05 12.62-130.21z"/><path class="cls-34" d="M1600.79 883.71s22.09 4.32 32.19 10.52c3.68 2.21 1.47 6.63.31 7.47-2.73 2-46.28.95-56.16-.21-3.47-.42.73-14.2 5-18.2z"/><path class="cls-8" d="M1598.9 875.4s22.93 10.31 33.13 16.52a6.65 6.65 0 0 1 3 6.41c-2.74 2-49.22.21-59.11-.94 0 0-1.26-9.36 5.36-22l1.37 5.16 14 .31 2.21-5.47z"/><path class="cls-5" d="M1684.72 790.63l-4.31 92.56-16.2.21-15.67-92.77z"/><path class="cls-34" d="M1682.62 883.71s22.09 4.32 32.18 10.52c3.68 2.21 1.48 6.63.32 7.47-2.74 2-46.28.95-56.17-.21-3.47-.42.74-14.2 5-18.2z"/><path class="cls-8" d="M1680.73 875.4s22.92 10.31 33.13 16.52a6.65 6.65 0 0 1 3.05 6.41c-2.74 2-49.23.21-59.11-.94 0 0-1.26-9.36 5.36-22l1.37 5.16 14 .31 2.21-5.47z"/><path class="cls-35" d="M1669.37 585.12s16.93 92.76 15.35 282.4l-28.4 1.05-40.07-283.45z"/><path class="cls-36" d="M1595.22 585.12c-24.09 62-10.42 135.67-12.94 168-3.58 45.33-2.52 114.65-2.52 114.65l28.6 3.89 20.41-117.17L1651 585.12z"/><path class="cls-8" d="M1654.12 517.91l2.73 50.17c.63 9.36 8.94 17.14 18.09 17 8.42-.11 14.52-6.84 14-15.46l-2.74-68.58z"/><path class="cls-13" d="M1647.07 452.8c.31-.1 36 3.26 48.06 53.33l-44.91 35.34-5.57-53.33z"/><path class="cls-13" d="M1581 456.91c-5.47 4.1-17.46 26.82-17.15 33.86l7.58 160.92 114.64-4.41s-3.58-142.83-17.35-174.39c-13.47-30.6-65.11-33-87.72-16z"/><path class="cls-5" d="M1549.68 524.22l-3 69.42c-.53 9.46 6.63 16.51 15.88 15.56 8.42-.84 15.36-8.31 16-16.93l9.46-69.52z"/><path class="cls-13" d="M1602.05 453.33s-71.31-8.1-55.74 87.72l48.7-4.42-7.89-51.85z"/><path d="M1589.22 537.26c1.9-.21 3.89-.42 5.79-.74l-.21.22c-.42-3.48-.74-7-1.06-10.42l-.94-10.41c-.32-3.47-.63-6.94-.84-10.41s-.42-6.94-.63-10.52c.42 3.47.84 6.94 1.15 10.41s.74 6.94 1 10.41l1 10.42c.32 3.47.53 6.94.74 10.52a.38.38 0 0 1-.11.21z"/><path class="cls-12" d="M1657.17 402.11c1 5.68 3.78 7.89 11.25 6.62 5.68-1.05 9.15-7.88 8.1-13.56s-5.68-7.15-11.68-5.47c-4.2 1.26-8.83 6.73-7.67 12.41z"/><path class="cls-5" d="M1620.88 407.58l-8.94 51.42 20.19 8a11.89 11.89 0 0 0 14.73-5.15l-1.26-50.8-24.72-3.47z"/><path class="cls-13" d="M1646.44 442.08c-11.26-3.16-20.62-22.93-20.62-22.93l20-4.31z"/><path class="cls-5" d="M1628.24 351.94a44.71 44.71 0 0 1 20.41-.74c9.15 1.9 20.82 5.58 22.08 21.77 2.11 26.93-1.36 47.12-15.25 53.22-10.62 4.74-18.3 2.84-30.29-4-4.52-2.53-8.73-10-10-15.15l-5-14.41c.11 0-13.78-32.29 18.09-40.7z"/><path class="cls-9" d="M1609.63 360.88s25.76 6.2-.32 36.18l-4.84-28.82z"/><path class="cls-5" d="M1619 403.27c-1.16 5.68-3.79 7.88-11.36 6.52-5.68-1.06-9.15-7.89-8-13.57s5.79-7.15 11.68-5.37c4.2 1.27 8.82 6.74 7.68 12.42z"/><path class="cls-37" d="M1605.63 397.17s5.36-1.37 7.36 6.31"/><path class="cls-9" d="M1604.47 368.24c.42.32 33.45 1.16 48.91 0 5.15-.42-9.26-8.2-3.89-7.36 21.88 3.58 34.5-13.15 25.14-29.56 0 0-7.89 2.11-43.55 11.36-27 7.05-26.61 25.56-26.61 25.56zm56.27 12.94s-.31 2.63 3.79 1.89a29.77 29.77 0 0 1 5.89-.63 3 3 0 0 0 2.52-1.37c.32-.63-.21-1.47-.52-1.89-1.06-1.05-1.16-2.52-5-1.89-5 .94-6.73 3.89-6.73 3.89zm-11.88 2.31s.21 3.37-5.26 1.9a78.66 78.66 0 0 0-11.89-1.79 3.69 3.69 0 0 1-3.15-2.11 1.54 1.54 0 0 1 .73-2h.11a24.92 24.92 0 0 1 12.83-.74c6.52 1.68 6.63 4.73 6.63 4.73z"/><path class="cls-15" d="M1644.54 391.91s-6.2-9.47-18.51-1.37c-.03 0 6.74 8.73 18.51 1.37z"/><g clip-path="url(#clip-path-5)"><path class="cls-9" d="M1645 391.07a4.5 4.5 0 1 1-5.26-3.58 4.41 4.41 0 0 1 5.26 3.58z"/></g><path class="cls-17" d="M1625.72 390.12a16.64 16.64 0 0 1 4.73-2.32 14.91 14.91 0 0 1 5.26-.84 10.83 10.83 0 0 1 5 1.48 9.4 9.4 0 0 1 3.78 3.57 10.58 10.58 0 0 0-3.89-3.26 11.8 11.8 0 0 0-4.94-1.16 13.43 13.43 0 0 0-4.94 1.06 22.26 22.26 0 0 0-4.42 2.42c-.21.21-.53.1-.74-.11-.1-.42-.1-.63.11-.84z"/><path class="cls-15" d="M1657.38 391.28s5.26-8.63 11.67-2.11c-.05 0-5.26 8.94-11.67 2.11z"/><g clip-path="url(#clip-path-6)"><path class="cls-9" d="M1663.37 389.91c-.52 2.31.32 4.63 2 4.94s3.37-1.26 3.89-3.57-.31-4.63-1.89-4.95-3.47 1.26-4 3.58z"/></g><path class="cls-17" d="M1668.63 389.49a5.45 5.45 0 0 0-2.52-2.11 4.48 4.48 0 0 0-1.58-.42h-.84c-.32 0-.53.11-.84.11a7.53 7.53 0 0 0-3 1.58 11.12 11.12 0 0 0-2.42 2.63 14.36 14.36 0 0 1 2.2-2.84 7.92 7.92 0 0 1 3.16-1.9 3.25 3.25 0 0 1 1-.21c.1 0 .31-.1.42-.1h.42a6.13 6.13 0 0 1 1.89.42 7.78 7.78 0 0 1 3 2.21.51.51 0 0 1-.1.73c-.37.21-.68.21-.79-.1z"/><path class="cls-37" d="M1654.33 407l4-2-3.47-10.2m-5.36 17.35c5.26 6.52 10.52 0 10.52 0"/><path class="cls-5" d="M1574.92 586.17l44 54.48-8.41 17.46-56.9-49.33a18.64 18.64 0 0 1-6.31-15.88c.52-5.36 3-10.52 7.78-13 7.78-4.1 16.62-1.26 19.88 6.31z"/><path class="cls-5" d="M1651.7 678.93c3.78-2.52-10.73-18.93-15.25-22.19l6 .53c1.47 0 4.73-1.37 5-3.37s-10.1-3.47-10.1-3.47c-5.26-1.47-18.93-10.31-18.93-10.31l-13.88 11.57c4.84 10 11 17.88 17.14 22.93 1 .84 10 14.73 12.41 13.67 1.9-.84-7.57-16.72-6.1-16.09.84.42 9.26 17 13.46 16 2.63-.63-10.2-17.88-8.72-18.41.94-.31 9.67 15.68 13.35 14.94 4.63-1-10.41-19.46-9-19 .94.11 11.88 15 14.62 13.25z"/><path class="cls-36" d="M1653.7 860.05l32.18-3.68v12.2h-31z"/><path class="cls-35" d="M1578.6 857.31l33.23 4.42-3.15 9.89-30.08-3z"/><path class="cls-5" d="M691.43 755.4L665 882.87l-14.83-.94 10.94-130.32 30.29 3.79z"/><path class="cls-6" d="M668.71 882.35s22.09 4.31 32.19 10.51c3.68 2.21 1.47 6.63.31 7.47-2.73 2-46.27.95-56.16-.21-3.47-.42.74-14.2 5.05-18.19z"/><path class="cls-7" d="M666.93 874s22.93 10.3 33.13 16.51a6.66 6.66 0 0 1 3.05 6.42c-2.74 2-49.23.21-59.11-1 0 0-1.26-9.36 5.36-22l1.37 5.15 14 .32 2.21-5.47z"/><path class="cls-5" d="M752.65 789.16l-4.32 92.56-16.19.21-15.68-92.77z"/><path class="cls-6" d="M750.65 882.35s22.08 4.31 32.18 10.51c3.68 2.21 1.47 6.63.32 7.47-2.74 2-46.28.95-56.17-.21-3.47-.42.74-14.2 5-18.19l18.62.42z"/><path class="cls-7" d="M748.75 874s22.93 10.3 33.13 16.51a6.64 6.64 0 0 1 3 6.42c-2.73 2-49.22.21-59.1-1 0 0-1.27-9.36 5.36-22l1.37 5.15 14 .32 2.2-5.47z"/><path class="cls-8" d="M754.33 560.72l22.09 66.36-13.89 13.46-36.07-66.15a18.64 18.64 0 0 1-.32-17.15c2.32-4.83 6.52-8.73 11.89-9.46 8.62-1.16 15.88 4.63 16.3 12.94z"/><path class="cls-9" d="M737.4 583.64s22.92 92.66 21.24 282.19L719 867.1l-34.72-283.46z"/><path class="cls-10" d="M663.25 583.64c-24.09 62-15.36 126.85-17.88 159.14-3.58 45.33-2.74 122.84-2.74 122.84l33.76 4.53L696.69 753l22.19-169.34z"/><path class="cls-8" d="M710.68 509.07l10.83 49c2.21 9.15 11.57 15.46 20.62 13.77 8.2-1.47 13.15-9.15 11.25-17.56l-11.15-54.9-31.55 9.67z"/><path class="cls-40" d="M708.58 443.44c-.63-.21 39.33 16.62 44.59 67.32L711 542.41l-5.58-53.32 3.16-45.65z"/><path class="cls-40" d="M663 450.28c-4.32 5.26-14.2 21-13.89 28.19l-11.57 168.7 114.22-8.94s-7-134.63-19.56-166.7c-14.51-37.66-55.32-38.39-69.2-21.25z"/><path class="cls-8" d="M793.35 673.89c4.52-1.06-3.47-21.57-6.52-26.19l5.47 2.52c1.47.53 4.94.42 5.89-1.37s-8.31-6.83-8.31-6.83c-4.42-3.26-14.2-16.31-14.2-16.31l-17 6c1.05 11 4.1 20.61 8 27.45.64 1.05 4.11 17.36 6.84 17.14 2.1-.21-1.26-18.4-.1-17.24.63.63 2.73 19.14 7 19.66 2.63.32-3.26-20.3-1.79-20.3 1 0 3.58 18.1 7.37 18.62 4.62.74-3-21.88-1.79-21 .94.81 5.98 18.58 9.14 17.85z"/><path class="cls-5" d="M707.52 659.06c4.42-1.27-4.41-21.36-7.67-25.88l5.57 2.32c1.47.42 4.94.21 5.89-1.69s-8.52-6.41-8.52-6.41c-4.52-3-15-18-15-18l-19.14 4.84c1.58 10.94 7.47 24.51 11.67 31.24.64 1 5 17.14 7.58 16.83 2.1-.21-2.11-18.3-.84-17.15.63.63 3.57 19 7.88 19.36 2.74.21-4.1-20.09-2.63-20.2 1 0 4.42 17.88 8.1 18.3 4.74.53-3.89-21.77-2.73-20.93.94.63 6.83 18.2 9.88 17.36zM625.7 505.18l2.73 51.82c5.79 18 16.83 9.58 24.3 4.11 6.73-5 7.15-3.69 7-14.31l3.27-48.88-37.34 7.26z"/><path class="cls-40" d="M690.07 440.6s-39-5.57-58.9 20.51c-11.36 14.83-8.73 71.42-6.63 74.78l42.07-18.82-9.89-43.76 33.35-32.71z"/><path class="cls-40" d="M660.83 517.91l5.68-1.37-10.1-40.81"/><path d="M660.83 517.91c1.89-.53 3.78-1 5.57-1.58l-.1.21c-.95-3.36-1.79-6.73-2.74-10.1s-1.68-6.73-2.52-10.2-1.69-6.83-2.42-10.2-1.58-6.84-2.32-10.31l2.84 10.1c1 3.37 1.79 6.73 2.63 10.2s1.69 6.84 2.53 10.2 1.57 6.84 2.42 10.21c0 .1 0 .21-.11.21-2 .42-3.89.84-5.78 1.26z"/><path class="cls-12" d="M705.42 392c1.89 5.47 4.84 7.36 12.1 4.95 5.57-1.79 8-9 6-14.62s-6.73-6.32-12.3-3.79c-3.91 1.9-7.69 7.9-5.8 13.46z"/><path class="cls-5" d="M670.29 402.53l-1.47 52.17s12.62 1.15 16.62 1.79c7.89 1.15 18.4-3.9 18.4-3.9l-8.52-50.17z"/><path class="cls-13" d="M700.48 433c-11.57-1.58-23.77-19.77-23.77-19.77l19.14-7.15 4.63 26.92z"/><path class="cls-5" d="M669.66 346.47a45.5 45.5 0 0 1 20.09-3.68c9.26.52 21.35 2.63 24.93 18.41 6 26.39 5.36 46.8-7.47 54.79-9.89 6.1-17.67 5.47-30.61.32-4.84-1.9-10.09-8.63-12-13.57l-7-13.57s-18.33-29.87 12.06-42.7z"/><path class="cls-14" d="M702.16 370s0 2.63 4 1.37a35.9 35.9 0 0 1 5.78-1.48 2.78 2.78 0 0 0 2.32-1.68c.21-.63-.42-1.47-.85-1.79-1.15-.84-2.84-2.1-6.52-.94-4.83 1.47-4.73 4.52-4.73 4.52zm-7.68 4.73s.63 3.26-4.94 2.63a65.05 65.05 0 0 0-12 0 3.74 3.74 0 0 1-3.37-1.58 1.61 1.61 0 0 1 .42-2.1s.11 0 .11-.1a23.09 23.09 0 0 1 12.62-2.53c6.73.63 7.15 3.68 7.15 3.68z"/><path class="cls-15" d="M691.54 383.6s-7.47-8.42-18.51 1.26c-.03 0 7.78 7.78 18.51-1.26z"/><g clip-path="url(#clip-path-7)"><path class="cls-9" d="M691.75 382.76a4.49 4.49 0 1 1-5.68-2.84 4.35 4.35 0 0 1 5.68 2.84z"/></g><path class="cls-17" d="M672.61 384.54a16.74 16.74 0 0 1 4.41-3.05 14.17 14.17 0 0 1 5.05-1.57 10.67 10.67 0 0 1 5.16.73 9.25 9.25 0 0 1 4.2 3 10.63 10.63 0 0 0-9.36-3.16 13 13 0 0 0-4.73 1.79 19.15 19.15 0 0 0-4 3 .5.5 0 0 1-.73 0 .51.51 0 0 1 0-.74z"/><path class="cls-15" d="M704.05 381.18s4-9.26 11.26-3.68c0 0-3.89 9.5-11.26 3.68z"/><g clip-path="url(#clip-path-8)"><path class="cls-9" d="M709.84 379c-.21 2.42.95 4.52 2.63 4.63s3.15-1.69 3.36-4.1-.94-4.53-2.63-4.63-3.15 1.76-3.36 4.1z"/></g><path class="cls-17" d="M715 377.81a6.27 6.27 0 0 0-2.84-1.79 4.34 4.34 0 0 0-1.68-.21h-.42l-.42.11a2.35 2.35 0 0 0-.84.32 8.72 8.72 0 0 0-2.84 2 11.3 11.3 0 0 0-2 2.95 9.6 9.6 0 0 1 1.79-3.05 7.62 7.62 0 0 1 2.84-2.32c.31-.1.52-.21.84-.31.1 0 .31-.11.42-.11s.31-.1.42-.1a5.73 5.73 0 0 1 1.89.1 7.13 7.13 0 0 1 3.26 1.79.51.51 0 0 1 0 .74c.11.1-.21.1-.42-.11z"/><path class="cls-37" d="M703.32 397.17l3.68-2.53-4.84-9.57m-5.89 13.78c5.89 7.26 12.62 3.36 12.62 3.36"/><path class="cls-14" d="M652.52 357.93s26.4 2.53 4.84 35.87l-8.94-27.8z"/><path class="cls-5" d="M667.87 398.53c-.31 5.79-2.63 8.42-10.3 8.1-5.79-.21-10.21-6.52-9.89-12.3s4.63-7.89 10.73-7.05c4.31.72 9.78 5.47 9.46 11.25z"/><path class="cls-37" d="M653.67 394.43s5.05-2.1 8.21 5.15"/><path class="cls-14" d="M648.52 365.93c.63.31 18.72 1.68 36.71-.11 4.94-.42 13.46-2.31 18-3.26.95-.21-.31-9.25-.31-9.25s3.15 4.31 2.52 7.46c0 0 10.94-2.52 11.15-3.89 0 0-8.83-23.87-35.44-20.09-31.37 4.63-32.63 29.14-32.63 29.14z"/><path class="cls-5" d="M660.72 551.14l28.19 61-19 3.68-36.49-50a17.18 17.18 0 0 1-2-16.51c2-4.84 5.89-8.84 11.25-9.79 8.8-1.52 16.89 3.53 18.05 11.62z"/><path d="M668.4 568.81l-7.57-17.67" stroke-width=".37" stroke="#af4a25" stroke-miterlimit="10" fill="none"/><path class="cls-44" d="M1172.62 328.27s10.83 3.05 10.2 12.94a60.65 60.65 0 0 1-3.26 16.62s-8.63-18.83-14.41-23.67c-6-4.73 1.26-8.3 7.47-5.89z"/><path class="cls-5" d="M1138.12 730.79l-21.88 150.82H1097l5.58-153z"/><path class="cls-34" d="M1120.55 882.66s26.09 3.47 38.39 10c4.53 2.42 2.21 7.68.85 8.73-3.06 2.53-54.07 4.32-65.64 3.68-4.1-.21-.1-16.61 4.74-21.56l21.66-.84z"/><path class="cls-5" d="M1198.81 765.7l5.46 112h-19l-17.78-117.9z"/><path class="cls-34" d="M1206.59 878.45s26 4.42 38.07 11.26c4.42 2.52 2 7.68.63 8.73-3.15 2.42-54.16 2.52-65.73 1.47-4.1-.42.42-16.62 5.36-21.46z"/><path d="M1204.17 868.67S1231.31 880 1243.4 887a7.84 7.84 0 0 1 3.79 7.47c-3.16 2.42-57.64 1.79-69.21.74 0 0-1.79-10.84 5.58-25.88l1.78 5.89 16.41-.1 2.42-6.42z" fill="#cc7e60"/><path class="cls-35" d="M1191 520.43s19.88 109.49 17.88 333.2l-33.23 1.26-46.91-334.56H1191z"/><path class="cls-36" d="M1109.62 531c-28.19 72.57-12.2 158.92-15.15 196.79-4.21 53-2.94 134.31-2.94 134.31l33.44 4.52 23.88-137.26 26-198.25h-65.21z"/><path class="cls-46" d="M1102 431.14c-5.26 3.89-16.83 25.87-16.51 32.71l7.26 155.34 110.64-4.2S1200 477.1 1186.61 446.7c-12.94-29.7-62.69-31.97-84.61-15.56z"/><path class="cls-5" d="M1065.65 492.14l4.52 66.89c.43 9.15 8.21 15.15 16.83 13.25a17.86 17.86 0 0 0 13.57-17.88l1.68-67.62-36.6 5.36z"/><path class="cls-46" d="M1140.54 422.93s-89.51-8.83-80.15 82.15l47.23 1.68-1.16-50.59 34.08-33.24z"/><path class="cls-46" d="M1102 506.65l5.58.21 1.58-40.49"/><path class="cls-12" d="M1163.47 382.86c1 5.47 3.68 7.68 10.93 6.42 5.58-.95 8.84-7.58 7.79-13s-5.47-6.95-11.26-5.26c-4.1 1-8.62 6.31-7.46 11.88z"/><path class="cls-5" d="M1128.44 388l-8.62 49.64 19.56 7.78a11.47 11.47 0 0 0 14.2-4.94l-1.26-49-23.88-3.48z"/><path class="cls-13" d="M1153.05 421.36c-10.83-3.05-20-22.09-20-22.09l19.25-4.21z"/><path class="cls-5" d="M1135.59 334.37a43.45 43.45 0 0 1 19.78-.73c8.83 1.79 20.09 5.47 21.24 21 2.11 26-1.36 45.44-14.72 51.33-10.2 4.52-17.67 2.73-29.24-3.89-4.31-2.42-8.52-9.68-9.57-14.62l-4.84-13.88c-.1 0-13.46-31.14 17.35-39.24z"/><path class="cls-44" d="M1117.61 343s24.82 6-.32 34.92l-4.62-27.77 4.94-7.15z"/><path class="cls-5" d="M1126.65 383.91c-1.05 5.47-3.68 7.68-10.93 6.31-5.47-.94-8.84-7.57-7.79-13.14s5.58-6.94 11.26-5.26c4.1 1.37 8.52 6.62 7.46 12.09z"/><path class="cls-47" d="M1113.72 378s5.15-1.26 7.15 6.1"/><path class="cls-44" d="M1117.82 357.62c.42.31 32.29 1.05 47.12 0 4.94-.32-8.94-8-3.79-7.15 14.41 2.31 21.77-.21 23.25-6.73.84-4.11-4.42-7.58-8.84-9.58-4.73-2.1-14.2-2.2-32.08-1.26-26.92 1.58-25.66 24.72-25.66 24.72zm52.27 7.78s-1.26 2.21 2.74 3.05a30.77 30.77 0 0 1 5.57 1.47 2.59 2.59 0 0 0 2.74-.42c.52-.42.31-1.36.1-1.89-.52-1.26-.21-2.63-3.79-3.36-4.73-.95-7.36 1.15-7.36 1.15zm-14.41.42s1.27 2.95-4.1 3.58a63.23 63.23 0 0 0-11.25 2.52 3.84 3.84 0 0 1-3.58-.73 1.62 1.62 0 0 1 0-2.11l.11-.1a23.88 23.88 0 0 1 11.36-5.05c6.41-.84 7.46 1.89 7.46 1.89z"/><path class="cls-15" d="M1151.27 372.87s-6-9.05-17.88-1.37c.1.11 6.52 8.5 17.88 1.37z"/><g clip-path="url(#clip-path-9)"><path class="cls-9" d="M1149.79 371.61a4.33 4.33 0 1 1-5-3.47 4.23 4.23 0 0 1 5 3.47z"/></g><path class="cls-17" d="M1133.07 371.08a19.09 19.09 0 0 1 4.63-2.31 16.25 16.25 0 0 1 5-.84 11.06 11.06 0 0 1 4.83 1.36 10.65 10.65 0 0 1 3.69 3.47 10.16 10.16 0 0 0-3.79-3.15 9.1 9.1 0 0 0-4.73-1.05 12 12 0 0 0-4.74 1.05 16.8 16.8 0 0 0-4.2 2.42.57.57 0 0 1-.84-.21.64.64 0 0 1 .1-.74z"/><path class="cls-15" d="M1163.57 372.34s5-8.31 11.26-2c0 .01-4.95 8.66-11.26 2z"/><g clip-path="url(#clip-path-10)"><path class="cls-9" d="M1167.57 370.87c-.53 2.32.31 4.42 1.89 4.73s3.26-1.15 3.79-3.47-.32-4.41-1.9-4.73-3.26 1.16-3.78 3.47z"/></g><path class="cls-17" d="M1174.4 370.66a7.74 7.74 0 0 0-2.41-2.1 3.94 3.94 0 0 0-1.48-.42h-.84c-.31 0-.52.1-.84.1a7.9 7.9 0 0 0-2.94 1.47 10.47 10.47 0 0 0-2.32 2.53 10.87 10.87 0 0 1 2.1-2.74 6.92 6.92 0 0 1 3.06-1.78 2.31 2.31 0 0 1 .84-.21c.1 0 .31-.11.42-.11h.42a3.53 3.53 0 0 1 1.79.42 6.7 6.7 0 0 1 2.94 2.1.57.57 0 0 1-.1.85c0 .31-.42.21-.64-.11z"/><path class="cls-47" d="M1160.73 387.49l3.89-1.89-3.36-9.79m1.79 20c-7.16 4.63-12.2-1.58-12.2-1.58"/><path class="cls-8" d="M1117.82 873.09s27.56 10.52 39.86 16.93a7.79 7.79 0 0 1 4 7.37c-3 2.52-57.53 3.68-69.1 3.05 0 0-2.21-10.84 4.73-26.09l2 5.89 16.41-.63z"/><path class="cls-50" d="M1103.41 486l53-22.72 5.68 12.73-51.75 21.56-6.93-11.57z"/><path class="cls-15" d="M1157.47 474.05l-3-7.15-48.59 21.24 3.15 6 48.49-20.09z"/><path d="M1108.25 489.93l32.5 73 52.25-23.46-31.45-72.89-53.32 23.35z" fill="#ffe449"/><path class="cls-50" d="M1108.25 489.93l-4.73-3.89 32.18 72.89 5 4.1-32.5-73.1z"/><path class="cls-52" d="M1139.17 460l57.32 6.41-1.37 13.89-55.63-6.84-.32-13.46z"/><path class="cls-15" d="M1192.07 476.26l1-7.68-52.8-5.47-.27 6.89z"/><path d="M1141.38 465.74l-7.78 79.51 57 5.37 8.63-78.88-57.85-6z" fill="#a7d1d0"/><path class="cls-52" d="M1141.38 465.74l-2.21-5.78-8 79.3 2.42 6.1 7.78-79.62z"/><path class="cls-8" d="M1112.67 534.21c.94-4.42 18.82-1.16 24 .74l-2-3.16c-.84-1.26-2-3.15-.63-4.52s7.15 3.36 7.15 3.36c4.1 3.48 18 14.1 18 14.1l-.73 13.36c-10.63 1.47-20.3.73-27.77-1.48-1.16-.31-13 1.58-13.57-1.05-.31-2 13.36-4.63 12-5.47-.73-.42-13.77 4.1-15.35 0-1-2.52 15-3.78 14.62-5.26-.32-.94-15.57 2.84-17-.52-1.79-4.31 18.19-3.89 17.88-5.26-.42-2.1-16.93-3.26-16.51-4.84z"/><path class="cls-8" d="M1211.43 523.59l-55.22 20 1.37 14.73 60.16-5.37a16.43 16.43 0 0 0 13.35-8.83c2.32-4.42 2.84-9.78.22-14.41-4.32-7.47-13.15-10.2-19.88-6.1z"/><path d="M1194.49 529.9l17.78-5.47" stroke-width=".43" stroke="#af4a25" fill="#de8d68" stroke-miterlimit="10"/><path class="cls-5" d="M1080.27 544.62l59-32.92 15.25 10.84-56.27 46.06a18 18 0 0 1-16.2 3.37c-5-1.37-9.47-4.63-11-9.57-2.63-8 1.47-15.88 9.25-17.78z"/><path class="cls-5" d="M1180.08 484.67c-2-4-19.45 8-23.13 11.89l1.15-5.68c.11-1.47-.73-4.73-2.63-5.26s-4.52 9.25-4.52 9.25c-2.1 4.84-12.2 16.94-12.2 16.94l9.36 14.62c10.1-3.47 18.41-8.42 24.09-13.57.84-.84 15.35-7.78 14.51-10.2-.63-1.9-16.93 5.26-16.09 3.89.42-.74 17.35-6.84 16.93-10.94-.31-2.63-18.4 7.57-18.61 6.21-.21-.95 16.19-7.37 15.88-11.05-.32-4.52-19.88 7.68-19.36 6.42.43-1.05 15.99-9.78 14.62-12.52zm138.21 65.74l-12.1 115.8 13.46-1.16 26.72-107.38a19.4 19.4 0 0 0-1.89-17.15c-2.84-4.31-13.47-9.36-13.47-9.36-8.31.84-13.35 10.94-12.72 19.25z"/><path class="cls-23" d="M1296.41 690.5a33.08 33.08 0 0 0 4.21 14.41c.42.84 1.05 1.69 1.89 1.79a1.9 1.9 0 0 0 2-1 3.44 3.44 0 0 0 .42-2.31c.74-.1 1.16-1.05 1-1.79a7.66 7.66 0 0 0-1-2.1 16 16 0 0 1-2.41-8.42 7.32 7.32 0 0 1 .31-2.1 5.56 5.56 0 0 1 1.47-2c1.69-1.68 3.79-3 4.84-5.15a13 13 0 0 0 1.26-3.89 2.15 2.15 0 0 0-.73-2.42 15.46 15.46 0 0 0-3.68-2.74 2.94 2.94 0 0 0-1.37-.31l-1 .31a15.8 15.8 0 0 0-8.31 11.57l1.05 6.1z"/><path class="cls-5" d="M1307.14 658.85c-5.26 8.62-12.31 19.87-14.1 23.77a12.14 12.14 0 0 0-.94 6.73c.42 4.41 1.47 6.94 3.15 11.15.63 1.57 1.9 4.31 3.37 5.15s2 .31 2.84-1.16a4.62 4.62 0 0 0 .1-3.57c-.63-3.26-1.36-5.26-2.1-8.52a11.93 11.93 0 0 1 .74-7.16c1.15-2.62 4-3.89 6.52-5 .94 4.31.21 8.09-.84 12.41-.64 2.31-1.06 4.84 1.36 5.26 1.37.21 2.42-1.06 3.26-2.11 2.42-3 2.74-8 4.63-11.36 1.58-2.84 3.89-2.73 5.26-5.57 2.21-4.63 1.58-10.1.95-15.15a18.34 18.34 0 0 0-1.79-4.73 5.82 5.82 0 0 0-2.32-1.68c-3.78-1.69-9-.32-10.09 1.58zm46.49 95.81L1367.72 880l17.25-1.47-.53-126.53-30.81 2.63z"/><path class="cls-55" d="M1365.93 882.77s-21.35 6.1-30.82 12.93c-3.47 2.53-.94 6.63.32 7.37 3 1.78 45.54-3 55.22-4.84 3.36-.74-2-13.89-6.52-17.46l-18.2 2z"/><path class="cls-35" d="M1367.09 874.35s-21.67 12.1-31.24 18.93a6.53 6.53 0 0 0-2.42 6.63c3 1.79 48.38-3.89 58.06-5.89 0 0 1.16-9.36-6.42-21.25l-2.31 5.26-13.15 1.37z"/><path class="cls-5" d="M1405.9 751.82l10.2 128.74 16 .21 4.73-130.53-30.92 1.58z"/><path class="cls-55" d="M1413.79 881.19s-21.77 4.31-31.87 10.31c-3.68 2.21-1.47 6.52-.32 7.36 2.74 2 45.65.95 55.43-.21 3.47-.42-.74-14.1-5-17.88l-18.19.42z"/><path class="cls-36" d="M1415.68 873s-22.61 10.2-32.71 16.3a6.46 6.46 0 0 0-2.94 6.41c2.73 2 48.59.21 58.26-.94 0 0 1.27-9.26-5.36-21.67l-1.37 5-13.88.31-2-5.46z"/><path d="M1348 603.94s-18.62 187.95-18.09 236.23l56 3.68 17.56-239.91z" fill="#020403"/><path class="cls-9" d="M1425.36 603.94c24.4 57 31.34 236.23 31.34 236.23l-66 3.68-23.4-239.91z"/><path d="M1379.5 741.72L1369 622.24" stroke="#ffebd8" stroke-width=".44" stroke-miterlimit="10" fill="none"/><path d="M1346.58 485.62c.63-.21-16.83 9.68-35.76 57.74l32 24.93 16.06-46.29-12.3-36.39z" fill="#2782af"/><path class="cls-59" d="M1385.18 473.94s22.72 1.37 42.39 13.05a17 17 0 0 1 8 16.51l-10.2 100.44H1348l-14.52-84.35c-1.15-7.05.11-23.66 8.63-30.71 5.1-4 18.89-14.94 43.07-14.94z"/><path class="cls-5" d="M1408.63 478.68a81.72 81.72 0 0 0-23.45-4.74c-12.83-.63-27.35 5.37-27.35 5.37l13.89 18z"/><path d="M1341.53 567.24c-.53-1.69-1-3.37-1.37-5s-.73-3.37-1.15-5.05c-.74-3.37-1.16-6.84-1.58-10.31s-.63-6.94-.74-10.41c0-1.79 0-3.47.11-5.15s.31-3.47.42-5.16c0 1.69-.11 3.47-.11 5.16s.11 3.47.11 5.15c.21 3.47.42 6.84.84 10.31s.84 6.83 1.37 10.2c.31 1.68.52 3.36.84 5.05a36.85 36.85 0 0 1 1.26 5.21z"/><path class="cls-5" d="M1451.76 521.48s11 34.61 17.56 65.53a14.7 14.7 0 0 1-28.19 8.1 1.58 1.58 0 0 1-.21-.74l-24.08-67.52z"/><path class="cls-59" d="M1421.89 483.94s30 7.36 48.38 69.62l-48.07 17.15-12.83-47.33z"/><path d="M1427.88 568.71c-1 .42-1.89.74-2.84 1.16l-2.84 1.13c-.1 0-.21 0-.21-.1-1.16-3-2.31-6.1-3.36-9.26s-2.21-6.2-3.27-9.25-2.1-6.21-3-9.26-2-6.2-2.94-9.36l3.47 9.15c1.16 3 2.21 6.1 3.26 9.26s2.1 6.2 3.16 9.25 2 6.21 3 9.26l-.21-.11 2.84-.94c1-.32 2-.64 2.94-.95z"/><path class="cls-9" d="M1366.14 517.7l-23.66-.84a1.49 1.49 0 0 0-1.48 1.36.93.93 0 0 0 .11.53l16.89 49.64a1.48 1.48 0 0 0 1.27 1l23.56.84a1.49 1.49 0 0 0 1.47-1.37.89.89 0 0 0-.11-.52l-16.83-49.65a1.47 1.47 0 0 0-1.26-.94z"/><path class="cls-5" d="M1377.5 548.3l6.52 4.63a21.41 21.41 0 0 1 6.73 7.68l4.42 8.31-7.36 12.2s-27.45 3.37-31.87-15.67a10.44 10.44 0 0 1 1.79-8.42 10.93 10.93 0 0 1 12.83-4l9.78 3.68-2.84-8.42z"/><path class="cls-5" d="M1454.6 580l-78.68-17.14 4.74 15.78 70 29.13c7.79 3.26 17.15-.74 19.46-8.84.11-.42.21-.84.32-1.36a14.81 14.81 0 0 0-11.78-17.25 11 11 0 0 0-4.1-.32z"/><path d="M1433.77 575.44l17 3.68" stroke-width=".76" stroke="#af4a25" stroke-miterlimit="10" fill="none"/><path d="M1368.35 369.08s27.87-14.72 46.59 9.26c9.15 11.78 5.68 35 25 47 0 0-15.36 26-59.53 26-46.39 0-53-24.4-53-24.4a29.25 29.25 0 0 0 12.62-26.82c-1.47-18.3 10.73-41.23 28.29-31"/><path class="cls-12" d="M1361.51 423.67c-1 5.36-3.57 7.47-10.72 6.21-5.47-.95-8.63-7.47-7.58-12.84s5.47-6.73 11-5.15c4.04 1.16 8.36 6.31 7.3 11.78z"/><path class="cls-5" d="M1389.6 426.09l6.52 54-25 .22 1.26-48.18 17.25-6z"/><path class="cls-13" d="M1371.61 461.43c10.62-3.05 19.67-21.67 19.67-21.67l-18.93-4.1z"/><path class="cls-5" d="M1389 376.13a43.08 43.08 0 0 0-19.36-.74c-8.62 1.79-19.67 5.26-20.93 20.62-2.1 25.56 1.26 44.59 14.31 50.38 10 4.42 17.35 2.73 28.71-3.79 4.31-2.42 8.31-9.46 9.47-14.3l4.83-13.68c0 .11 13.15-30.5-17-38.49z"/><path d="M1406.64 384.65s-18.2 7.26-3.9 35.86l17.57-16.51-7.15-8.83z"/><path class="cls-5" d="M1397.7 424.83c1 5.36 3.57 7.46 10.72 6.2 5.47-.94 8.63-7.47 7.58-12.83s-5.47-6.73-11-5.15c-4 1.15-8.36 6.41-7.3 11.78z"/><path d="M1410.32 419s-5-1.26-7 5.89" stroke-width="1.52" stroke-linecap="round" stroke-linejoin="round" stroke="#ca5e34" fill="none"/><path d="M1411.47 391.59c-.94.63-47.64 4.63-68-1.58 0 0 2.74-20.61 37.24-18.61 26.35 1.68 30.76 20.19 30.76 20.19z"/><path d="M1364.67 421.25c-.74 1.68-1.47 3.26-2.21 4.94l3 1.16" stroke-width=".99" stroke-linecap="round" stroke-linejoin="round" stroke="#ca5e34" fill="none"/><path class="cls-15" d="M1373.71 414.84c.53-3.16 6.21-1.69 7.79-1.79s6.2.31 7 2c-.94 3.78-4.94 4.94-8.3 5-3.48.32-7.16-2.1-6.53-5.25z"/><g clip-path="url(#clip-path-11)"><path class="cls-25" d="M1382 416.73a4.8 4.8 0 0 1-4.73 4.84 4.67 4.67 0 0 1-4.42-5.05 4.81 4.81 0 0 1 4.74-4.84c2.75 0 4.54 2.32 4.41 5.05z"/></g><path d="M1373.29 414a12.81 12.81 0 0 1 4-1.26 25.54 25.54 0 0 1 4-.21 17.08 17.08 0 0 1 4 .53 7.77 7.77 0 0 1 3.58 1.89.2.2 0 0 1 0 .32.21.21 0 0 1-.32 0 8.58 8.58 0 0 0-3.36-1.48 22.91 22.91 0 0 0-7.57.21 12.85 12.85 0 0 0-3.37 1.27.82.82 0 0 1-1-.21c-.42-.21-.32-.74.1-1.06z"/><path class="cls-15" d="M1361.72 414.31c-.94-1.58-3.36-1.68-5-1.68-1.27 0-3.37.31-4.21 1.68a4.91 4.91 0 0 0 4.73 4.63c2.76.06 4.48-1.94 4.48-4.63z"/><g clip-path="url(#clip-path-12)"><path class="cls-25" d="M1350.89 416.31c.21 1.89 1.26 4.31 3.47 4.1s3-2.74 2.74-4.63-1.27-4.31-3.47-4.1-2.95 2.73-2.74 4.63z"/></g><path d="M1361.2 414.94a8.39 8.39 0 0 0-4.52-1.68 6 6 0 0 0-2.42.21 3.64 3.64 0 0 0-2 1.26.2.2 0 0 1-.32 0 .21.21 0 0 1 0-.32 4.58 4.58 0 0 1 2.21-1.68 8 8 0 0 1 2.74-.52 9.52 9.52 0 0 1 5.36 1.36.65.65 0 0 1 .21 1.05 1.1 1.1 0 0 1-1.26.32z"/><path d="M1381.81 396.64a19 19 0 0 1 6.42 3.47c1.37 1.26 1.58 3.05-1 3.47-1.58.21-6-1.16-6.94-1.37-2.73-.42-8.83-3.57-7.57-5.89 1.89-3.15 6.31-.42 9 .32zm-27.34-.32a14 14 0 0 0-4.84 3.37c-1 1.16-1.37 3.05.74 3.47 1.26.32 4.52-1.05 5.25-1.37 2.32-.84 6.63-3.78 5.68-5.89-1.36-2.73-4.62-.31-6.83.42z" fill="#0d0506"/><path d="M1359.83 431.14c1.16 5.57 9.36 5.57 9.36-.21z" stroke="#000" stroke-width=".49" stroke-linecap="round" stroke-linejoin="round" fill="none"/><path d="M1392.23 416.2a11.5 11.5 0 0 1-10.1 12.52h-.42a11.24 11.24 0 0 1-12.52-10.52 11.56 11.56 0 1 1 23-2zm-29.23-2.42c1 5.68-1.37 12-7.47 13.05s-10.62-3.9-11.57-9.58 1.37-12 7.47-13 10.5 3.85 11.57 9.53zm.31 2.74c1.9-1.37 3.79-.95 5.79 0m23.56-.53l8.73-1.89" stroke="#fdcd93" stroke-width="1.49" stroke-miterlimit="10" fill="none"/></svg>