<svg id="Layer_1" data-name="Layer 1" xmlns="http://www.w3.org/2000/svg" viewBox="0 0 2567.11 1021.3"><defs><style>.cls-1,.cls-12,.cls-19,.cls-8{fill:none}.cls-3{fill:#fff}.cls-4{fill:#3bbcad}.cls-6{fill:#7574e0}.cls-7{fill:#f0a49c}.cls-19,.cls-8{stroke:#000}.cls-12,.cls-19,.cls-8{stroke-linecap:round;stroke-linejoin:round}.cls-8{stroke-width:1.66px}.cls-9{fill:#300e2e}.cls-12{stroke:#1c0001;stroke-width:2.06px}.cls-17{fill:#eca079}.cls-18{fill:#fdbf62}.cls-19{stroke-width:2.17px}</style><clipPath id="clip-path"><path class="cls-1" d="M1479.74 35c-35.5.4-209.5-6.3-249.2-1.3-69.5 8.7-123 31.9-173.5 56.7-63.4 31.1-120.6 67.3-174.6 105.8-69.8 49.8-134.4 103.4-185.5 167.2-44.9 56-41.2 122.2-33.3 213.7 4.5 51.7-7.9 106 34.9 184.6 180.8 332.3 1316.9 353.5 1211.7-374.6-54.6-377.87-377.8-352.57-430.5-352.1z"/></clipPath><clipPath id="clip-path-2"><path class="cls-1" d="M953.44 534.77s-15.1-22.7-44.6-3.2c-.1-.1 16.1 21 44.6 3.2z"/></clipPath><clipPath id="clip-path-3"><path class="cls-1" d="M980.64 533.27s12.7-20.8 28.1-5c-.1 0-12.5 21.4-28.1 5z"/></clipPath><clipPath id="clip-path-4"><path class="cls-1" d="M1584.24 528.37s14.1-23.2 44.3-4.9c.1.1-15.2 21.7-44.3 4.9z"/></clipPath><clipPath id="clip-path-5"><path class="cls-1" d="M1553.54 528.17s-13.4-20.2-28.1-3.9c0-.1 13.1 20.8 28.1 3.9z"/></clipPath></defs><path d="M1479.74 35c-35.5.4-209.5-6.3-249.2-1.3-69.5 8.7-123 31.9-173.5 56.7-63.4 31.1-120.6 67.3-174.6 105.8-69.8 49.8-134.4 103.4-185.5 167.2-44.9 56-41.2 122.2-33.3 213.7 4.5 51.7-7.9 106 34.9 184.6 180.8 332.3 1316.9 353.5 1211.7-374.6-54.6-377.87-377.8-352.57-430.5-352.1z" fill="#c4e5e5"/><path class="cls-3" d="M1113.74 347.77s83.2 0 149.4-.2c77.6-.2 73.2-119.8-2.3-130.3-126.1-17.6-162.6-7.2-231.3-4-102 4.7-98.4 121.4-41.4 129 53.4 7.2 90 5.5 90 5.5l-21.6 141.7z"/><path class="cls-3" d="M1473.44 237.87l66.2-.2c77.6-.2 73.2-119.8-2.3-130.3-126.1-17.6-162.6-7.2-231.3-4-102 4.7-98.4 121.4-41.4 129 53.4 7.2 134.9 3.1 134.9 3.1l98.2 111-24.3-108.6z"/><path class="cls-4" d="M1032.64 280a61.14 61.14 0 0 1 1.7 15.4c0 3.4-.3 6.4-4.2 7.1a100 100 0 0 1-16.4 1.5c-4.6 0-6.7-2.9-6.7-7.2 0-3.2.5-17.7 1.8-19.6 1.9-2.9 6-3 9.1-3 5.4-.1 13-.7 14.7 5.8zm101.5 0a61.14 61.14 0 0 1 1.7 15.4c0 3.4-.3 6.4-4.2 7.1a100 100 0 0 1-16.4 1.5c-4.6 0-6.7-2.9-6.7-7.2 0-3.2.5-17.7 1.8-19.6 1.9-2.9 6-3 9.1-3 5.4-.1 13-.7 14.7 5.8zm101.5 0a61.14 61.14 0 0 1 1.7 15.4c0 3.4-.3 6.4-4.2 7.1a100 100 0 0 1-16.4 1.5c-4.6 0-6.7-2.9-6.7-7.2 0-3.2.5-17.7 1.8-19.6 1.9-2.9 6-3 9.1-3 5.4-.1 13-.7 14.7 5.8zM1305.24 169.67a61.14 61.14 0 0 1 1.7 15.4c0 3.4-.3 6.4-4.2 7.1a100 100 0 0 1-16.4 1.5c-4.6 0-6.7-2.9-6.7-7.2 0-3.2.5-17.7 1.8-19.6 1.9-2.9 6-3 9.1-3 5.3-.2 12.9-.7 14.7 5.8zm101.5 0a61.14 61.14 0 0 1 1.7 15.4c0 3.4-.3 6.4-4.2 7.1a100 100 0 0 1-16.4 1.5c-4.6 0-6.7-2.9-6.7-7.2 0-3.2.5-17.7 1.8-19.6 1.9-2.9 6-3 9.1-3 5.3-.2 12.9-.7 14.7 5.8zm101.5 0a61.14 61.14 0 0 1 1.7 15.4c0 3.4-.3 6.4-4.2 7.1a100 100 0 0 1-16.4 1.5c-4.6 0-6.7-2.9-6.7-7.2 0-3.2.5-17.7 1.8-19.6 1.9-2.9 6-3 9.1-3 5.3-.2 12.9-.7 14.7 5.8z"/><g clip-path="url(#clip-path)"><path class="cls-6" d="M1044.24 727s37.5 24.9 34.4 84.5l-8.9 170.8a43.3 43.3 0 0 1-86.5-4.2l10.2-225.1 50.8-26z"/><path class="cls-6" d="M1043.54 727.37s18.1 17.6 19.3 67.1-83.2 244.9-83.2 244.9l-182.7-24.5-15.7-248.1a69.9 69.9 0 0 1 4.2-30.8c4.3-10.9 12.3-23.1 27.6-31l230.5 22.4z"/><path class="cls-7" d="M946.44 667.47l97.1 59.9s-87.1 35.3-230.4-22.5l97.7-39.3 35.6 1.9z"/><path class="cls-8" d="M1004.44 979.27s40.1-93.5 36.9-175.3"/><path class="cls-6" d="M813 704.87s-57.3 25.2-90.4 154.1c0 0 17.7 84.6 77.7 87.9 60.2 3.3 12.7-242 12.7-242z"/><path class="cls-8" d="M789.64 943.87l37.7-158"/><path class="cls-9" d="M778.74 419.27a51.22 51.22 0 1 0 52.8-49.6 51.19 51.19 0 0 0-52.8 49.6z"/><path class="cls-9" d="M818.44 504c-1.7 54.2 65.1 98.7 95 99.6 54.2 1.7 99.5-39.2 101.2-93.4s-40.9-97.7-95-101.2c-54.9-3.5-99.5 40.8-101.2 95z"/><path d="M974.14 552.57c2.1 14.8 15.5 22.9 30.3 20.7s24.6-19.1 22.5-33.9-14.9-19.6-29.8-17.5a27.17 27.17 0 0 0-23 30.7z" fill="#e58e88"/><path class="cls-7" d="M911.24 562.77l-15.3 142.7 63.9 3.5.4-125.3z"/><path d="M960 644.17s-37.6-12.1-59.5-62.7l59.7 17.5z"/><path class="cls-7" d="M966.94 417.17s59.5 3.8 52.5 81.9-13.6 102-45.4 117.5c-28.6 13.9-67.4-3.9-86.8-37.8-7.6-13.3-13-33.1-13.7-48.4l-4-20.6c0-.1-21.4-102.4 97.4-92.6z"/><path class="cls-9" d="M889.74 465.47l-3.7 74.3-45.6-40.2 21.7-24.6z"/><path class="cls-7" d="M888.84 551.27c-3.7 14.5-15.4 18-29.9 14.3s-22.4-21.6-18.8-36.1 16.9-17.9 31.5-14.3 20.8 21.6 17.2 36.1z"/><path class="cls-9" d="M915.34 409l64.1 5.6c34.7 1.1 62.7 26.3 61.1 61 0 .6-.1 1.2-.1 1.8l-178.2-5.7S846 406.77 915.34 409zm63 92.8s-1.5 6.2 8.7 5.4c7.7-.6 9.8-.5 14.3 0 2.5.3 5.2-.8 6.3-2.7.9-1.5-.1-3.6-.9-4.6-2.2-2.8-5.4-6.6-14.8-6-12 .8-13.6 7.9-13.6 7.9zm-25.9.6s1.6 8-11.8 6.5c-10.2-1.1-22.9-.3-28.9.1-3.4.2-6.9-1.4-8.3-3.8a3.69 3.69 0 0 1 1.3-5.2c3.9-2.5 18-7.6 30.4-6.4 16 1.6 17.3 8.8 17.3 8.8z"/><path class="cls-3" d="M953.44 534.77s-15.1-22.7-44.6-3.2c-.1-.1 16.1 21 44.6 3.2z"/><g clip-path="url(#clip-path-2)"><path d="M943.94 531.27a10.83 10.83 0 1 1-12.6-8.7 10.75 10.75 0 0 1 12.6 8.7z"/></g><path class="cls-12" d="M908.74 531.47a45.6 45.6 0 0 1 15-7.1 28.08 28.08 0 0 1 14.1-.3c11 2.7 15.5 10.6 15.5 10.6"/><path class="cls-3" d="M980.64 533.27s12.7-20.8 28.1-5c-.1 0-12.5 21.4-28.1 5z"/><g clip-path="url(#clip-path-3)"><path d="M986.94 529.47c-1.3 5.7.8 11 4.7 11.9s8.1-3 9.4-8.7-.8-11-4.7-11.9-8.1 3-9.4 8.7z"/></g><path class="cls-12" d="M1008.64 528.27c-5.5-7-12-6.3-12-6.3-10.2.9-16 11.3-16 11.3"/><path d="M976 548.37l6.7 10.1-5.7 5.9" stroke="#ae4a1f" stroke-miterlimit="10" stroke-width="2.96" fill="none"/><path d="M943.64 570s8.6 11.6 29.4 4.8" stroke-width="2.22" stroke-linecap="round" stroke-linejoin="round" stroke="#000" fill="none"/><path d="M1535.44 800.77l-34.3 134c-5.1 21.7-22 34.4-43.4 28.1-19.6-5.8-24.5-26.3-24.5-26.3l36-163.8 66.2 28z" fill="#eca179"/><path class="cls-17" d="M1536.44 822.37l-69.1 142.1a40.21 40.21 0 0 1-71.6-36.6l72.7-153.7z"/><path class="cls-18" d="M1533.84 886.67s-29.9 7.8-104.1-62.9l52.4-104.4a55.49 55.49 0 0 1 101 45.8z"/><path class="cls-18" d="M1614.74 673.17s50.7 6.7 115.4 40.4c11.1 5.8 11.6 18 10.8 30.5l12.5 367.9c-183 40.5-256.6-33.4-256.6-33.4l1.1-362.5a25 25 0 0 1 17.6-24.8c24.9-7.6 69.6-19.6 99.2-18.1z"/><path class="cls-7" d="M1655.24 682.77l-23.5-6.3-39.7-7.2-23 8.4-13.3 2.9s-20.6 31.2 22.9 36.4c52 6.1 73-19.4 76.6-34.2z"/><path class="cls-19" d="M1497.34 875.87l.5-81.1"/><path class="cls-17" d="M1793.44 781.07l121.1 101.4a40.26 40.26 0 0 1-52.9 60.7l-131.5-107.7z"/><path class="cls-18" d="M1842.54 794.27s.5 30.9-85.9 86.1l-88.9-75.8a55.52 55.52 0 0 1 68.6-87.2l106.2 76.9z"/><path class="cls-19" d="M1744.14 869.77l-52.6-45.6"/><path class="cls-9" d="M1515.14 443.37s-31.2 17 .5 62.9l41-59.3-41.5-3.6z"/><path d="M1681 495.07c-1.1 44.9-57.7 81.4-89.9 79.3-44.9-2.9-80.5-38.4-79.5-83.3a81.56 81.56 0 0 1 83.3-79.5c45.1 1.1 87.34 32.43 86.1 83.5z" fill="#b25732"/><path class="cls-7" d="M1617 568.47l16 127.8-65.6-.1-2.6-110.2z"/><path d="M1566.54 652.57s28.6-10.1 52.6-58.1l-55.1 6.4 2.5 51.7z"/><path class="cls-7" d="M1567.44 423.67s-58 .5-55.5 76.8 11 96.8 41.2 113.5c27.1 15.1 62.5 3.1 83.1-28.9 8.1-12.5 14.5-31.5 15.9-46.4l5-19.8c0 .1 26.3-98.3-89.7-95.2z"/><path d="M1604.34 484.57s11.5 1.8 18.5 6.5c5.8 3.9 4.9 9.9-.6 12.1-3.4 1.4-12.9 1.3-19.3.4-19.9-3-22.8-9.7-21.9-14.4 1.4-6.6 15.2-6.17 23.3-4.6zm-66.5.6s-9.1.3-15.6 4c-5.3 3.1-5.9 8.9-2.3 11.7 2.3 1.7 9.6 3.2 14.6 2.6 16.3-1.8 19.6-6.6 19.9-11.2.5-6.4-10.1-7.7-16.6-7.1z"/><path class="cls-9" d="M1643.34 441.27c-.6-.5-21 28.1 2.6 55.7l-6.3 41.8 9.5 4.2 16.5-25.5 1.2-51-23.5-25.2z"/><path class="cls-9" d="M1563.64 408.37s47.9-27 94.9 1.1c37 22.1-7.9 62.2-7.9 62.2l-12.5-31.1-46.3-13.7-28.2-18.5z"/><path class="cls-9" d="M1658 434.47s38.7-6.1 43 32.9-49 94.5-49 94.5z"/><path class="cls-7" d="M1636 557.27c2.8 14.3 9.6 19.9 28.4 16.6 14.4-2.6 23-19.8 20.2-34.1s-14.4-18-29.3-13.6c-10.4 3-22.1 16.8-19.3 31.1z"/><path d="M1669.74 541.87s-13.4-3.3-18.6 15.7" stroke="#ca5e36" stroke-width="2.67" stroke-linecap="round" stroke-linejoin="round" fill="none"/><path class="cls-9" d="M1666.84 450.07s-57.1 27.7-73.8 15.2 25.3-32.9 25.3-32.9z"/><path class="cls-9" d="M1618.34 432.37s-35.3 28.8-68.8 23.4 34.4-36.1 34.4-36.1l34.4 12.7z"/><path class="cls-9" d="M1559.24 435.87s-39.6 26.9-62.3 18.2 2.2-34.3 37.2-37.2l67-3.8-18.9 18.1-14.9 6.3"/><path class="cls-9" d="M1531.24 422.77s-31.3-26-7.9-34.8c23.1-8.6 77.8 25.1 77.8 25.1z"/><path class="cls-9" d="M1577.94 404.17s-12.9-18.3 9.2-20.6 58.8 20.2 73.9 63.8l-42.8-6.7-41.5-18.3z"/><path class="cls-3" d="M1584.24 528.37s14.1-23.2 44.3-4.9c.1.1-15.2 21.7-44.3 4.9z"/><g clip-path="url(#clip-path-4)"><path d="M1595.14 524.57a10.8 10.8 0 1 0 12.2-9.2 10.82 10.82 0 0 0-12.2 9.2z"/></g><path d="M1627.74 524.77a42 42 0 0 0-10.7-5.6 30.21 30.21 0 0 0-11.9-2.1 26.49 26.49 0 0 0-11.7 3.1 23.93 23.93 0 0 0-9.1 8.2 25.83 25.83 0 0 1 8.8-8.9 26.73 26.73 0 0 1 12-4 34.11 34.11 0 0 1 12.7 1.5 45.45 45.45 0 0 1 11.7 5.2 1.58 1.58 0 0 1 .5 2.1 1.65 1.65 0 0 1-2.3.5z"/><path class="cls-3" d="M1553.54 528.17s-13.4-20.2-28.1-3.9c0-.1 13.1 20.8 28.1 3.9z"/><g clip-path="url(#clip-path-5)"><path d="M1549.14 524.57c1.8 5.7-.1 11.1-4.3 12s-9-2.9-10.8-8.6.1-11.1 4.3-12 9 2.9 10.8 8.6z"/></g><path d="M1524.24 523.27a25 25 0 0 1 3.2-3.3 14.68 14.68 0 0 1 4-2.4 13.51 13.51 0 0 1 4.5-1.1h1.2a3.59 3.59 0 0 1 1.1.2c.4.1.7.1 1.1.2l1.1.3a19.76 19.76 0 0 1 7.6 4.3 24.82 24.82 0 0 1 5.5 6.6 28.44 28.44 0 0 0-6-6 19.59 19.59 0 0 0-7.5-3.4l-1-.2c-.3-.1-.7 0-1-.1a3.4 3.4 0 0 1-1-.1 2.77 2.77 0 0 0-.9.1 11.64 11.64 0 0 0-3.7 1.3 14.43 14.43 0 0 0-3.2 2.3 17.31 17.31 0 0 0-2.5 3v.1a1.51 1.51 0 0 1-2.5-1.7c-.1 0-.1 0 0-.1z"/><path d="M1558.64 543l-6.2 10.3 5.9 5.7m20.6 7s-15 14.3-26.6 5.7" stroke="#ca5e34" stroke-width="3.73" stroke-linecap="round" stroke-linejoin="round" fill="none"/></g></svg>