<svg data-name="Layer 1" xmlns="http://www.w3.org/2000/svg" viewBox="0 0 500 500"><path d="M317 68.61c-16.39-1.19-89-6.85-107.17-6.19-31.84 1.14-108.72 7.35-167.71 70C21 154.75-28.11 348.91 67.39 408.7c160.76 100.66 467.81 14 419.8-188C447.47 53.5 341.3 70.37 317 68.61z" fill="#c4e5e5"/><path d="M246.68 289.55c.8.33.77 2 .77 2.69 0 2.86-.78 5.6-.78 8.47s.64 5.86.64 8.81-.67 5.05-4.14 5.05c-1.83 0-3.61-.52-5.43-.52a11.56 11.56 0 0 0-1.58.21c-.14 0-.2-.51-.2-.53a21.12 21.12 0 0 1-.2-2.25c-.19-3.33-.23-6.68-.29-10-8.37-.79-17.05-1.24-25.46-1.24-5 0-10 .67-15 .67h-.72c-.06 3.26-.1 6.54-.29 9.8a12.87 12.87 0 0 1-.26 2.47s0 .22-.14.22c-2.34 0-4.67.3-7 .3-3.48 0-4.15-2-4.15-5.05s.64-5.87.64-8.82c0-2.77-1.06-7.81 1-9.92.86-2.34 3.56-1.95 5.69-1.95l2.87.07c1.91-7.44 2.46-15.57 3.27-23.22 2.92-27.69 5.91-55.36 9.75-83 1-6.92 1.54-6.66 8.91-6.66 2.46 0 3.54.82 4.55 3 2.29 5.06 1.7 14.16 2.73 20 1.16 6.55 2.35 13.12 4.05 19.56 4.67 17.72 6.59 36 9.84 54 1.05 5.82 2.49 11.56 3.73 17.34a22.09 22.09 0 0 1 7.25.48zm-37.94-.29c6.39.11 12.76.33 19.15.35-1.07-10.17-3.79-20.11-5.67-30.15-1.75-9.37-3-18.85-4.83-28.21-1-5.34-2.36-10.74-3-16.14-.35-2.73.12-6.11-.81-8.69-.1-.28-.1-.65-.41-.65s-.68 2.76-.73 3.13c-.49 3.61-.69 7.25-1.13 10.87-2.79 22.94-5.87 46-7.62 69.08 1.7.16 3.4.36 5.11.42zM284.41 195.21c5.65 34.11 8.65 80.31 13.33 110.7a5.64 5.64 0 0 1-1.32 4.33c-3.07-.67-6.2.14-9.29.14-5 0-3.82-8.61-3.82-12.05 0-3.15-1.8-12.75-1.8-15.9 0-6-.37-5-7.6-5a7.45 7.45 0 0 0-2.73.44c-3.45 1.38-3.17 5.26-3.32 8.34-.31 6.2-1.12 12.37-1.12 18.58 0 2.24.33 6.21-2.92 6.21a18.1 18.1 0 0 1-3-.46c-3.11-.52-6.42.49-6.42-4 0-2.14 1.14-4.07 1.61-6.11 1.79-7.69 2.14-15.8 3-23.64 2.95-27.06 6.65-54 10-81 .35-2.84.34-14.5 2.28-15.92 1.45-1.07 5.87-1.17 7.72-1.17 3.8 0 5.38.88 5.38 4.91 0 3.85-.47 7.72.05 11.56zm-3.73 69c0-13.7-3.67-26.75-4.94-40.55-4.15 21.32-5 26.12-5 39.52 0 4 3.29 4.88 6.66 4.88a5.81 5.81 0 0 0 3.19-.92 7.58 7.58 0 0 1 .06-1.78z"/></svg>