<svg id="Layer_1" data-name="Layer 1" xmlns="http://www.w3.org/2000/svg" viewBox="0 0 1456.08 1021.32"><defs><style>.cls-1,.cls-20{fill:#fff}.cls-6,.cls-7{stroke:#1691c9;stroke-width:6px}.cls-21,.cls-24,.cls-27,.cls-6,.cls-7{stroke-miterlimit:10}.cls-19,.cls-32{stroke-linecap:round;stroke-linejoin:round}.cls-5{fill:#77afa8;opacity:.24}.cls-19,.cls-21,.cls-24,.cls-27,.cls-32,.cls-6{fill:none}.cls-7{fill:#c4e5e5}.cls-8{fill:#1691c9}.cls-9{fill:#ffc569}.cls-10{fill:#ba502f}.cls-11{fill:#eca179}.cls-13{fill:#8ecddc}.cls-17{fill:#663205}.cls-19,.cls-32{stroke:#ca5e34}.cls-19{stroke-width:2.65px}.cls-20{opacity:.23}.cls-21{stroke:#fff;stroke-width:.94px}.cls-23{fill:#44756e}.cls-24,.cls-27{stroke:#376059;stroke-width:3px}.cls-27{stroke:#44756e}.cls-29{fill:#fbb817}.cls-32{stroke-width:1.76px}</style><clipPath id="clip-path"><path class="cls-1" d="M763 237.91s7.21-13.32 24.55-4c-.03 0-7.9 12.48-24.55 4z"/></clipPath><clipPath id="clip-path-2"><path class="cls-1" d="M745.85 238.64s-8.07-10.89-15.79-1.38c0 0 7.94 11.24 15.79 1.38z"/></clipPath></defs><path stroke-miterlimit="10" stroke="#1691c9" stroke-width="6" fill="#a7d1d0" d="M336 850.14l16.96-733h433.19l17.27 721.47"/><path d="M1054.22 975.34l-1.28-5.81q-2.57-5.56-9.26-9.66c-12.07-9.46-30.45-16.09-48.31-20.76-12-3.15-24.22-5.8-36.63-8.05-12.93-6.84-30.42-11.08-46-14.31-27.28-5.66-55.94-9-84.3-11.86-35.64-3.67-71.55-6.46-107.48-8.81-46.45-3.05-92.94-5.37-139.66-5.84-41-.41-83.5.16-123.33 6.75-22.52 3.72-43.45 9.74-61.23 19s-31.26 23.92-30.92 38.28c.66 27.42 43.47 40.52 82.11 46.6 24.33 12.3 56.51 16 87.88 17.21 61.08 5.34 123.06 3.23 184.33 0q37.71.9 75.47.88c31.77 0 63.46-.79 95.16-1.9 20.14-.71 40.24-.61 60.05-3.37a124 124 0 0 0 31-8.28c7.63-.38 15.24-.82 22.82-1.71 14.24-1.65 29.63-5.94 39-12.83 6.01-4.43 11.02-9.55 10.58-15.53z" fill="#a7d1d0"/><path stroke-linecap="round" stroke-linejoin="round" stroke="#1691c9" stroke-width="6" fill="#a7d1d0" d="M1121.66 3l20.29 975.05-353.92-152.28-1.88-708.63L1121.66 3z"/><path class="cls-5" d="M885.14 648.3c77-25.42 156.26-46.84 235.16-68.8l6.42-1.79v-39q-28.24 4.62-56.38 9.64c-96.92 17.25-192.89 37.29-290 53.82v84.41c34.11-13.88 69.19-26.52 104.8-38.28zM843.82 503c94.31-17.35 188-36.68 282.9-52.17v-212q-17 5.92-33.93 11.83c-60.11 20.87-120.4 41.47-180.58 62.24q-66.1 22.83-131.92 46.1v155.27q31.83-5.43 63.53-11.27z"/><path class="cls-6" d="M1121.66 3h28.1l17.26 975.82-25.07-.77M983.34 105.24L799.51 460.07l276.03-100.08-220.4 411.92"/><g id="toilet"><g id="toilet-2" data-name="toilet"><path class="cls-7" d="M552.21 888.37l3.79-99.62h73q1.53 49.71 3.08 99.42c.12.41-80 1.32-79.87.2z"/><rect class="cls-7" x="491.1" y="550.97" width="212.82" height="18.02" rx="7.51"/><path class="cls-7" d="M500.12 569h194.77v71.41a81.12 81.12 0 0 1-81.12 81.12h-32.53a81.12 81.12 0 0 1-81.12-81.12V569z"/><path class="cls-7" d="M708.89 713.52c10.18 24.78-45.39 96.2-110.94 96.2S476.83 738.24 487 713.52c4.79-11.63 39.81-11.9 109.66-12 71.52-.05 107.34.16 112.23 12z"/><rect class="cls-7" x="481.86" y="700.99" width="232.18" height="24.51" rx="10.21"/><circle class="cls-8" cx="666.33" cy="592.91" r="6.49"/><rect class="cls-8" x="668.01" y="589.16" width="20.38" height="7.5" rx="3.13"/></g></g><path class="cls-9" d="M751 168.51s41.55-23.51 65.17 12.73C827.67 198.9 836.91 265 853.26 287c0 0-8.62 15.18-70.92 20.74-65.38 5.83-82-11.55-82-11.55s14.76-57.56 10.4-83.39C706.4 187.1 721 166.11 751 168.51"/><path class="cls-10" d="M798.32 476.71l55.16 1c27 .64 48.71-17.75 39.51-82.22 0 0 16.24-56.57-9-64.39-14.39-4.46-27.84-27.89-50.62-32l-30.81-1.13a48.93 48.93 0 0 0-50.08 47.75l-1.93 80.95a48.94 48.94 0 0 0 47.77 50.04z"/><path class="cls-11" d="M698.83 360s-25.14 54.67-29.63 87.48c-2.17 15.89 12.24 11.89 17.11 13.74 9.6 3.64 19.12-9.21 22.11-16.33l25-81.65z"/><path d="M770.74 299.48c-4.39-4.39-70.24-7.9-86 93.95l31.88 35.19 22.71-65.49s31.42-63.64 31.41-63.65z" fill="#6cb9d3"/><path class="cls-13" d="M776.54 295.1s32.21 2 59.91 18.52A23.87 23.87 0 0 1 847.71 337l-14.37 142.15H723.91L703.4 359.79c-1.57-10 .16-33.56 12.24-43.4 7.13-5.81 26.68-21.29 60.9-21.29z"/><path class="cls-11" d="M797.76 293.55a116.33 116.33 0 0 0-33.86 0c-18 2.8-24.95 7.78-24.95 7.78l10.83 35.42z"/><path d="M714.82 427.13c-.75-2.33-1.36-4.7-2-7.07s-1.1-4.78-1.6-7.17c-1-4.8-1.72-9.65-2.31-14.52a146.83 146.83 0 0 1-1-14.67c0-2.46 0-4.91.16-7.36s.41-4.88.71-7.31c0 2.45-.17 4.88-.06 7.33s.1 4.87.21 7.3c.3 4.87.66 9.72 1.25 14.56s1.24 9.66 2 14.49q.57 3.62 1.23 7.21c.46 2.41.95 4.8 1.41 7.21z"/><path d="M744.12 243.1c-.8 7.74-4.13 11-14.3 10.16-7.76-.67-13.17-9.41-12.37-17.16s6.79-10.24 14.93-8.64c5.67 1.1 12.54 7.89 11.74 15.64z" fill="#c96e3d"/><path class="cls-11" d="M791.29 236.49l-2.99 70.89-36 4.39 13.55-70.83 25.44-4.45z"/><path d="M758.14 281.84c15.53-1.78 32.32-25.85 32.32-25.85L765 245.91z" fill="#c46234"/><path class="cls-11" d="M771.62 178.32c-9.21-.74-13.44-6.83-22.26-4.19-11.94 3.58-27.07 10-26.88 31.69.31 36.22 7.43 62.72 26.59 69.2 14.71 5 24.72 1.65 40-8.95 5.7-3.94 10.54-14.38 11.49-21.41l5-19.84s-18.88-45.29-33.94-46.5z"/><path class="cls-9" d="M742.49 219.63s1.53 3.16-4.06 4a34.9 34.9 0 0 0-7.76 1.71 3.73 3.73 0 0 1-3.74-.69 2.51 2.51 0 0 1-.07-2.61c.89-1.76 2.16-4.23 7.32-5 6.61-1.04 8.31 2.59 8.31 2.59zM760.78 219s-1.51 4.26 6 4.46a100.27 100.27 0 0 1 15.9 2.25 5.06 5.06 0 0 0 4.83-1.44 2 2 0 0 0-.32-3c-2-1.68-9.32-5.58-16.27-5.84-8.92-.29-10.14 3.57-10.14 3.57z"/><path class="cls-1" d="M763 237.91s7.21-13.32 24.55-4c-.03 0-7.9 12.48-24.55 4z"/><g clip-path="url(#clip-path)"><path class="cls-17" d="M761.53 235.86a6 6 0 1 0 6.56-5.47 6 6 0 0 0-6.56 5.47z"/></g><path d="M787.1 234.59a23.67 23.67 0 0 0-6.14-2.78 18.69 18.69 0 0 0-6.71-.84 14.49 14.49 0 0 0-6.44 2.09 13.71 13.71 0 0 0-4.84 4.85 14 14 0 0 1 4.62-5.19 15.16 15.16 0 0 1 6.58-2.55 19.68 19.68 0 0 1 7.09.47 25.06 25.06 0 0 1 6.68 2.58.81.81 0 1 1-.8 1.4z"/><path class="cls-1" d="M745.85 238.64s-8.07-10.89-15.79-1.38c0 0 7.94 11.24 15.79 1.38z"/><g clip-path="url(#clip-path-2)"><path class="cls-17" d="M736.78 236.2c1 3.09.11 6.15-2 6.84s-4.65-1.26-5.66-4.35-.1-6.16 2-6.85 4.66 1.26 5.66 4.36z"/></g><path d="M729.38 236.82a10.12 10.12 0 0 1 3.84-3.33 8.05 8.05 0 0 1 2.46-.74 4.63 4.63 0 0 1 1.29 0 6.54 6.54 0 0 1 1.24.2 11.27 11.27 0 0 1 4.37 2.16 15.55 15.55 0 0 1 3.27 3.51 15.15 15.15 0 0 0-3.51-3.18 10.54 10.54 0 0 0-4.29-1.7 5.33 5.33 0 0 0-1.13-.09 3.92 3.92 0 0 0-1.09.08 6.94 6.94 0 0 0-2.05.8 8.85 8.85 0 0 0-3 3.15.8.8 0 0 1-1.38-.82z"/><path class="cls-19" d="M749.13 246.79l-3.19 5.91 3.45 2.99M764.53 261.8s-8.4.57-16.59 2"/><path class="cls-9" d="M802.71 182.45S778 195 801.83 233.52L824.51 208l-11.14-11.56z"/><path class="cls-11" d="M795.14 240.16c2.16 7.48 6 10.13 15.88 7.45 7.51-2.05 11.27-11.61 9.11-19.09s-8.51-8.86-16.24-5.84c-5.38 2.1-10.89 10-8.75 17.48z"/><path class="cls-19" d="M812.28 230.35s-7.3-1.13-9.14 9.25"/><path class="cls-9" d="M807.62 209.93c-1.27 1-61.94 4.63-88.68 3.51 0 0-9.35-43.2 39.51-44.78 37.42-1.21 49.17 41.27 49.17 41.27z"/><path class="cls-20" d="M726.36 222.9l18.46 22.87S740 256 731.6 255.3L713 233s4.3-10.34 13.36-10.1zM768.54 221L787 243.9s-4.81 10.27-13.23 9.53l-18.6-22.29s4.31-10.35 13.37-10.14z"/><path class="cls-21" d="M745.89 238.49a17 17 0 1 1-17.79-16.28 17.06 17.06 0 0 1 17.79 16.28zM788.12 236.61a17 17 0 1 1-17.79-16.27 17.06 17.06 0 0 1 17.79 16.27zM745.89 238.49a9.86 9.86 0 0 1 8.17-.36"/><path class="cls-11" transform="rotate(-3.77 692.744 860.043)" d="M680.17 830.3h25.28v59.54h-25.28z"/><path d="M679.22 889.37s-33.2 8.8-48.07 19.22c-5.43 3.81-1.65 10.25.28 11.47 4.43 2.81 70.61-3.22 85.54-6 5.26-1-2.62-21.59-9.58-27.15z" fill="#376059"/><path class="cls-23" d="M681.22 876.49s-33.91 18.06-48.78 28.51c-5.42 3.8-4 10.14-4 10.14 4.44 2.81 75-4.67 89.94-7.43 0 0-.87-14.22-12.31-32.83l-3.7 8.12-17.26 1.49z"/><path class="cls-24" d="M679.08 896.73a28.32 28.32 0 0 0-13.87-13.22M673.29 901.11a28.36 28.36 0 0 0-13.87-13.22M667.93 905a28.32 28.32 0 0 0-13.87-13.22"/><path d="M722.94 469.15s-49.51 180.23-51.26 203.93c-1.4 19-3.4 96.43-8.21 191.33l69.37 2.35 118-368.19-57.64-35.86z" fill="#993617"/><path class="cls-11" transform="rotate(3.29 813.846 871.56)" d="M801.78 842.35h25.28v59.54h-25.28z"/><path class="cls-23" d="M799.94 888.06s-45.12 14-63.68 24.25c-2 1.1-3.93 4.85-4 6.5-.14 3.36-.28 6.74 6.08 8.43 14.95 4 64.65 8.38 83.06 7.2a69 69 0 0 0 3-36.4l-6.78 9.37-17.62-4.78z"/><path d="M801.59 882.27s-47.25 19-65.33 30a5 5 0 0 0-2.54 4.52 6.87 6.87 0 0 0 5.95 6.64c15.29 2.27 65.8 7.11 84.14 5.11 0 0 13.61-20 2.58-38.18l-7.85 11.2-17.86-4z" fill="#5f9992"/><path class="cls-27" d="M795.64 905.52a28.33 28.33 0 0 0-8.4-17.23M788.69 907.61a28.39 28.39 0 0 0-8.4-17.23M782.31 909.36a28.31 28.31 0 0 0-8.4-17.22"/><path d="M852.16 474.67c10.43 8.58 19.14 55.17 5.15 116.43-12 52.37-18.94 79.29-16.66 91.41 10.71 56.89 8.83 188.83 8.83 188.83l-65.7 1.74s-47.56-185.86-48.35-193.53L740.56 474l59-13.93z" fill="#ad462a"/><path class="cls-10" d="M732.11 305.63S704 346.9 711.43 404.78c0 0-2.7-1.27-6.57-12.56-5.87-17.1-5.66-55.65 10.57-76.05z"/><path class="cls-11" d="M865.9 393.55l22.1 81.3a21.46 21.46 0 0 1-17 26.18 21.46 21.46 0 0 1-24.67-15.77l-24.72-87.21z"/><path class="cls-29" d="M746.76 388.75l62.06 16.85-3.81 15.03-60.22-16.98 1.97-14.9z"/><path class="cls-1" d="M802.31 415.76l2.3-8.32-57.23-15.06-1.42 7.45 56.35 15.93z"/><path fill="#ffe449" d="M748.22 395.48l-22.19 86.37 61.92 15.68 23.02-85.49-62.75-16.56z"/><path class="cls-29" d="M748.22 395.48l-1.46-6.73-22.34 86 1.61 7.1 22.19-86.37z"/><path class="cls-13" d="M841.86 305.63c13.19 14.2 25.46 36 36.88 92.19l-58 23.71-66.68-86.93 35.12-37.75c18.44-9.66 41.27-3.51 52.68 8.78z"/><path class="cls-13" d="M844.06 410.55l-22.83 11.41-22.83-62.33"/><path d="M844.06 410.55l-22.68 11.72a.33.33 0 0 1-.45-.15c-2-5.16-4-10.3-5.94-15.5s-3.91-10.35-5.75-15.57-3.77-10.4-5.54-15.64-3.59-10.47-5.28-15.74c2.12 5.11 4.15 10.26 6.14 15.42s3.92 10.35 5.87 15.53 3.78 10.4 5.67 15.6 3.65 10.44 5.47 15.67l-.47-.19z"/><path class="cls-10" d="M806.74 291.58s-28.62 38.92.88 112.39c0 0-13.26-10.9-20.19-23.71-11.42-21.07-15.81-54.44.87-83.41 0 0 .69-.52 9.66-3.51a73.62 73.62 0 0 1 8.78-1.76z"/><path class="cls-11" d="M777.08 435s-71.88-.4-92 .33c-24.19.87-19.69 38.08 6.62 36.13 0 0 76.82-11.16 85-12.43z"/><path d="M808.82 425.72c.08-6.82-13.93-9.6-22.08-5.53l2.68-5.11c1.09-2.06 2.69-5.1-.07-6.76s-5.49-.26-7.08 1.16l-10.83 8.94c-6.13 6.14-11.17 16.05-13.22 25.34l2.8 13.29c41.29 5.42 47.63-16.39 47.8-31.33z" fill="#de8d68"/><path class="cls-11" d="M730.55 417.11c3.18-6 11.1-3.37 18.88 1.38l-2.24-5.32c-.9-2.15-2.24-5.32.66-6.73s5.49.22 6.95 1.77l10 9.83c5.58 6.65 9.75 16.95 11 26.38l-3.93 13c-58.96 2.24-48.41-26.87-41.32-40.31z"/><path class="cls-11" d="M873.49 461.06l-106-28.18-6.19 23.06L859 500a20.83 20.83 0 0 0 28.82-13.54 20.84 20.84 0 0 0-14.33-25.4z"/><path class="cls-32" d="M836.59 451.52l26.54 6.79M761.33 455.94s-25.94.09-32.87-9.43c-5.32-7.31-2.72-17.17-2.72-17.17M749.52 419.55l-3.26-9.01M773.82 435.4s0-9.06-12.49-20.36M711.62 434.44s-25.94 2.38-28.29 4.76"/></svg>