<svg id="Layer_1" xmlns="http://www.w3.org/2000/svg" xmlns:xlink="http://www.w3.org/1999/xlink" viewBox="0 0 521 457"><style>.st46{fill:#f0a49c}.st49{fill:#21a498}.st50{fill:none;stroke:#1c0001;stroke-width:1.0604;stroke-linecap:round;stroke-linejoin:round;stroke-miterlimit:10}.st51{fill:#300e2e}.st53{fill:none;stroke:#000;stroke-width:2.9984;stroke-linecap:round;stroke-linejoin:round;stroke-miterlimit:10}</style><switch><g><defs><path id="SVGID_5_" d="M660.6-400.4c-14.1-.3-98.8-58-114.6-56.6-12.3 1.1-10.2 59.2-33.4 66.6-29 9.3-62.9 26.5-92.8 59.1-19.2 20.9-70.3 196.9 9.8 246.2 134.7 83 404.3-8.1 371.7-186.8-27.1-147.8-119.7-128-140.7-128.5z"/></defs><clipPath id="SVGID_2_"><use xlink:href="#SVGID_5_" overflow="visible"/></clipPath><g clip-path="url(#SVGID_2_)"><path d="M497.2-101.4s-22.4 50.3-45.3 148.6h182.5s-6-126.2-31.6-190.8l-105.6 42.2z" fill="#fc5e43"/></g><g><ellipse cx="270" cy="238.5" rx="217.9" ry="218.5" fill="#c4e5e5"/><defs><ellipse id="SVGID_7_" cx="270" cy="238.5" rx="217.9" ry="218.5"/></defs><clipPath id="SVGID_4_"><use xlink:href="#SVGID_7_" overflow="visible"/></clipPath><g clip-path="url(#SVGID_4_)"><path d="M314.7 183.4c3.2 9.5 13.6 14.6 23 11.3 9.5-3.2 14.6-13.6 11.3-23s-13.6-14.6-23-11.3c-9.4 3.2-14.5 13.5-11.3 23z" fill="#e58e88"/><path class="st46" d="M301.7 100.5c17.8 5.1 31.3 22 34.9 39.1 4.2 19.8 7.6 46.7 3 62.5-7.1 24.5-27 44.5-58.7 39.4 0 0-29.4-2.3-45.9-54.7-22.6-71.4 27.9-97.3 66.7-86.3z"/><path d="M238.3 186.9c-2.2 11.2-7.5 15.5-22.2 12.9-11.2-2-17.9-15.4-15.8-26.6s11.2-14 22.9-10.6c8.2 2.3 17.3 13.1 15.1 24.3z" fill="#d67f4d"/><path d="M212.1 174.8s10.5-2.6 14.5 12.3" fill="none" stroke="#ae4a1f" stroke-width="2.408" stroke-miterlimit="10"/><path class="st49" d="M319.3 293.9s70.5 6.1 87.8 157.2l-86.6 29.2-1.2-186.4z"/><path class="st49" d="M227.1 288.5s-46.6 13.8-71.8 30.1c-15.9 10.2 1.2 26.9 5.3 45.3L164 662l223.2-25.8L364.3 348c-.9-26.2-19.4-48.4-45-54.2-28.7-6.5-38.6-13.5-53.4-12.8l-38.8 7.5z"/><path class="st50" d="M367.6 382.9l5.8 79.6"/><path class="st46" d="M310.1 291.6l-43.9-15.4-36.1 10.4-28.1 10.3s30.9 33.6 73.7 26.4c42.9-7.1 34.4-31.7 34.4-31.7z"/><path class="st49" d="M155.3 318.6s-35.8 17-70.5 127.3l86.2 39.7 46.9-90.2-62.6-76.8z"/><path class="st50" d="M163.8 489.2l43.3-97.3"/><path class="st51" d="M325.6 117s26.5-35.8-3.1-53.2c-35.1-20.7-54.6 11.9-87.8 20.6l14.9 42.3 76-9.7z"/><path class="st51" d="M244.3 190.2L225 148.7c4.5-13.9 13.6-12.9 13.6-12.9-.3-.9 11.3-8.2 11.1-9.1 34.8-43.6 76-9.7 76-9.7s-24.4-45.4-83.9-34.3c-41.9 7.9-62.8 45.6-54.7 80.2 9.5 40.1 32.5 45.2 55.7 64.3l1.5-37z"/><path class="st46" d="M291.4 240.6l4.9 60.5-56.9 4.4 4.9-109.5z"/><path class="st51" d="M248.3 186.8s-4.7-22.8-20.7-68.6l-9 17 9.1 44.9 20.6 6.7z"/><g><path class="st46" d="M216.4 197.2c3.3 9.8 14 15 23.7 11.7 9.8-3.3 15-14 11.7-23.7-3.3-9.8-14-15-23.7-11.7-9.8 3.3-15 13.9-11.7 23.7z"/></g><path class="st51" d="M228.4 156s4-5.5 4.2-18.2c.1-4 5.2-16.7 10.5-21.6 4.6-4.2 12.1-9.2 20-7.4 43 9.7 51.5-2.1 51.5-2.1s-19-20.8-52.6-12-34.4 26.6-34.4 26.6l-9 25.8 9.8 8.9z"/><g><path fill="none" stroke="#e26d66" stroke-width="2.445" stroke-linecap="round" stroke-linejoin="round" stroke-miterlimit="10" d="M312.9 169.5l7.6 11.1-6.5 2.6"/><path d="M323 193l-31.8 5.6s5.1 11.3 18.9 8.8C324.9 204.8 323 193 323 193z" fill="#fff"/><path class="st53" d="M291.1 166.3s-12.9-2.7-20.2 6.3M320.1 162.2s3.9-7.1 14.2-2.9"/><path class="st51" d="M311.4 151.7s-2.7-26.9 20.2-16.7l-20.2 16.7zM294 151.3s-17.9-22.7-39.5.4l39.5-.4z"/></g><path class="st51" d="M294.4 273l-40.2-40.9 37.5 8.1z"/></g></g></g></switch></svg>