<svg id="Layer_1" data-name="Layer 1" xmlns="http://www.w3.org/2000/svg" viewBox="0 0 521 457"><defs><style>.cls-1{fill:none}.cls-4{fill:#fdcd02}.cls-6{fill:#d4915c}.cls-8{fill:#e39b63}</style><clipPath id="clip-path"><path class="cls-1" d="M325.6 76.57c-14.14-.35-76.74-2.21-92.5-.83-27.61 2.42-94.44 11.36-148.26 70C65.63 166.7 14.57 342.68 94.61 392c134.73 83 404.39-8 371.67-186.8C439.25 57.3 346.6 77.08 325.6 76.57z"/></clipPath></defs><path d="M325.6 76.57c-14.14-.35-76.74-2.21-92.5-.83-27.61 2.42-94.44 11.36-148.26 70C65.63 166.7 14.57 342.68 94.61 392c134.73 83 404.39-8 371.67-186.8C439.25 57.3 346.6 77.08 325.6 76.57z" fill="#c4e5e5"/><path class="cls-1" d="M325.6 76.57C311.46 76.22 226.76 18.62 211 20c-12.27 1.08-10.21 59.18-33.4 66.63a212.79 212.79 0 0 0-92.76 59.13C65.63 166.7 14.57 342.68 94.61 392c134.73 83 404.39-8 371.67-186.8C439.25 57.3 346.6 77.08 325.6 76.57z"/><g clip-path="url(#clip-path)"><path class="cls-4" d="M193.38 162.27a25 25 0 0 1-1.65-6.1 41.12 41.12 0 0 1 0-12.2 25.07 25.07 0 0 1 1.66-6.1A24.63 24.63 0 0 1 195 144a39.14 39.14 0 0 1 .45 6.1 40.4 40.4 0 0 1-.45 6.1 25.53 25.53 0 0 1-1.62 6.07zM239.6 160.4a64.74 64.74 0 0 1-.48-10.28q.12-5.1.71-10.15c.38-3.36.91-6.71 1.61-10a63.39 63.39 0 0 1 2.81-9.9 65.9 65.9 0 0 1 .49 10.28c-.08 3.4-.33 6.78-.72 10.14s-.92 6.72-1.61 10a67.3 67.3 0 0 1-2.81 9.91zM282.46 168.38a38.6 38.6 0 0 1 1.51-7.7 64.66 64.66 0 0 1 2.61-7.22 62 62 0 0 1 3.42-6.86 38.44 38.44 0 0 1 4.55-6.39 37.9 37.9 0 0 1-1.5 7.7 62.78 62.78 0 0 1-2.62 7.22A62 62 0 0 1 287 162a38.86 38.86 0 0 1-4.54 6.38zM307.19 181.52a120.8 120.8 0 0 1 8.24-11.44c2.9-3.67 6-7.19 9.11-10.64s6.39-6.8 9.79-10a116.46 116.46 0 0 1 10.67-9.23 116.6 116.6 0 0 1-8.24 11.44c-2.9 3.67-6 7.2-9.11 10.64s-6.4 6.8-9.8 10a117.89 117.89 0 0 1-10.66 9.23zM345 199.83a35 35 0 0 1 4.78-5.88 60.11 60.11 0 0 1 11.6-9.16 35.25 35.25 0 0 1 6.83-3.27 35.4 35.4 0 0 1-4.77 5.88 58.5 58.5 0 0 1-5.53 4.93 59.82 59.82 0 0 1-6.08 4.22 36.17 36.17 0 0 1-6.83 3.28zM356.61 228.84a99 99 0 0 1 12.74-1.68c4.24-.35 8.49-.49 12.74-.52s8.5.1 12.75.42a97.45 97.45 0 0 1 12.75 1.61 97.54 97.54 0 0 1-12.74 1.69c-4.25.35-8.5.49-12.75.51s-8.49-.11-12.74-.43a97.42 97.42 0 0 1-12.75-1.6zM356.61 255a43.47 43.47 0 0 1 8.22.94 75.08 75.08 0 0 1 7.86 2.08 70.53 70.53 0 0 1 7.57 3 42.73 42.73 0 0 1 7.2 4.09 42.68 42.68 0 0 1-8.23-.93 73 73 0 0 1-15.42-5 42.73 42.73 0 0 1-7.2-4.18zM338.64 282.44a68.42 68.42 0 0 1 8.55 6.1c2.69 2.2 5.25 4.52 7.72 6.95s4.83 4.95 7.07 7.59a68.32 68.32 0 0 1 6.23 8.46 67.45 67.45 0 0 1-8.56-6.09c-2.68-2.2-5.24-4.53-7.7-6.95s-4.83-5-7.08-7.61a68.47 68.47 0 0 1-6.23-8.45zM302.5 306a26.34 26.34 0 0 1 4.95 4.2 42.84 42.84 0 0 1 4 4.88 43.91 43.91 0 0 1 3.23 5.41 26.51 26.51 0 0 1 2.24 6.1 26.1 26.1 0 0 1-5-4.2 40.21 40.21 0 0 1-4-4.89 42.47 42.47 0 0 1-3.23-5.41 26.61 26.61 0 0 1-2.19-6.09z"/><path d="M34 312.31s87.38-11.65 122.2-7.16 64.44 2.41 82.8-3.15 67.39-14.76 70-25.69-5.66-10-26.37-4.77-35.17 8.07-35.17 8.07 84.4-18.54 89.71-23.73c7.52-7.34-.32-13-6.62-13.15s-75.48 14.77-75.48 14.77 89.7-15.51 93.21-26.31-9.19-10.29-23.74-7.36S242 235.05 242 235.05s94.73-7.29 95.56-18-15.31-11-25.59-10.8-84.5 1.57-90.88 2.06a158.27 158.27 0 0 1-17.35-.29s29-13.55 34.77-21.16c6.76-8.92 5.23-20.51-6.89-17.3s-27.18 12.22-41.06 17.07c-15.45 5.41-24.45 8.47-55.5 39.74 0 0-5.16 11.54-23.12 12.55S34 240.73 34 240.73v71.58z" fill="#edac7b"/><path class="cls-6" d="M324.54 223.79c-6.43.52-12.82 1.26-19.2 2.06s-12.75 1.69-19.11 2.57-12.71 1.86-19.05 2.84-12.7 2-19.06 3a188.69 188.69 0 0 0 19.32-.85c6.42-.54 12.81-1.36 19.19-2.24s12.73-2 19.05-3.19 12.62-2.52 18.86-4.19zM313.54 245.44c-5.17.46-10.28 1.19-15.37 2S288 249.25 283 250.26s-10.07 2.15-15.08 3.4-10 2.58-14.94 4.19c5.15-.46 10.26-1.19 15.35-2s10.16-1.79 15.21-2.8 10.09-2.15 15.1-3.41 9.97-2.64 14.9-4.2zM294 268.84c-4 .33-7.95.93-11.88 1.62s-7.82 1.51-11.7 2.37-7.74 1.87-11.57 3-7.64 2.28-11.38 3.75c4-.32 7.95-.92 11.88-1.61s7.82-1.51 11.7-2.38 7.74-1.88 11.56-3 7.63-2.29 11.39-3.75z"/><path d="M34 425s87.86-62.29 120.88-74.22 58.42-27.31 72.12-40.66 53.19-43.93 50.55-54.86-9.55-6.34-25.55 7.81-27.59 23.25-27.59 23.25 66.59-55.06 68.95-62.11c3.32-10-6.25-11.44-11.91-8.66S221 263.18 221 263.18s72.68-54.8 70.87-66-12.88-4.94-24.48 4.31-68.28 47.74-68.28 47.74 78.36-48.94 76.75-59.71-18.63-2.78-27.69 2.09-74.44 40-79.89 43.37a156.85 156.85 0 0 1-15.56 7.68s19.6-25.31 21.25-34.71c1.93-11-4.73-20.64-14-12.25s-18.6 23.29-28.72 34c-11.27 11.86-17.88 18.71-31.2 60.71 0 0 .68 12.62-14.82 21.73S34 337.45 34 337.45V425z" fill="#ffbe8c"/><path class="cls-8" d="M267.42 201.48c-5.48 3.4-10.83 7-16.14 10.61s-10.56 7.32-15.82 11-10.45 7.47-15.65 11.24-10.39 7.55-15.56 11.41a189.51 189.51 0 0 0 16.8-9.59c5.46-3.41 10.77-7.06 16-10.76s10.42-7.57 15.48-11.55 10.11-8.02 14.89-12.36zM274.28 219.31c-4.93 3.35-9.68 6.91-14.38 10.53S250.6 237.2 246 241s-9.09 7.61-13.54 11.54-8.85 7.9-13.16 12c5-3.18 9.83-6.71 14.55-10.3s9.35-7.31 13.94-11.07 9.08-7.63 13.5-11.59 8.81-8.02 12.99-12.27zM267.42 250c-4 2.58-7.75 5.38-11.47 8.25s-7.36 5.85-11 8.85-7.12 6.13-10.57 9.33-6.84 6.45-10 9.93c4-2.58 7.75-5.38 11.47-8.25s7.36-5.84 11-8.86 7.12-6.12 10.56-9.33 6.8-6.49 10.01-9.92z"/></g></svg>