<svg id="Layer_1" data-name="Layer 1" xmlns="http://www.w3.org/2000/svg" viewBox="0 0 1456.08 1021.32"><defs><style>.cls-1{fill:#fff}.cls-4{fill:#de8d68}.cls-5{fill:#eca179}.cls-6{fill:#aa664b}.cls-10{fill:#5f3335}.cls-13{fill:none;stroke:#ca5e34;stroke-linecap:round;stroke-linejoin:round;stroke-width:3.28px}.cls-15{fill:#1b1c20}.cls-16{fill:#604538}.cls-21{fill:#ee4558}.cls-24{fill:#7c443c}.cls-25{fill:#020403}.cls-32{fill:#ffe449}</style><clipPath id="clip-path"><path class="cls-1" d="M546.72 311.57s-9.88-9.74-22.59 3.06c0 0 10.24 8.83 22.59-3.06z"/></clipPath><clipPath id="clip-path-2"><path class="cls-1" d="M561.91 307.64s4.16-11.7 13.47-5.44c0 0-3.94 11.97-13.47 5.44z"/></clipPath></defs><path d="M1193 103.53c-25.63-19.06-217.59-164-688.27-19.71-79.22 24.29-112.28 104.62-182.23 143.33-61.42 34-85.8 90.78-117 170-17.64 44.82-50.76 86.86-47 165.56 15.77 332.61 618.4 663.22 1007.7 108.47 189.22-269.63 152.95-473.83 26.8-567.65z" fill="#c4e5e5"/><ellipse cx="578.28" cy="947.2" rx="257.13" ry="53.57" fill="#a7d1d0"/><path class="cls-4" d="M675.74 432.92l85.4-64.58 15.37 15.4-75 77.59a19.22 19.22 0 0 1-29.32-1.74 19.22 19.22 0 0 1 3.55-26.67z"/><path class="cls-5" d="M522.51 768.05l-76.99 177.97-23.67-6.47 57.71-186.14 42.95 14.64z"/><path class="cls-6" d="M454 942.89s33.1 5.11 48.6 13.69c5.65 3.13 2.65 9.76.91 11.15-4 3.18-68.82 4.15-83.59 3-5.2-.4.32-21.21 6.5-27.33z"/><path class="cls-5" d="M623.14 817.38l-62.12 116.24-20.77-12.33 52.24-130.09 30.65 26.18z"/><path class="cls-6" d="M568.5 933.59s30.65 13.52 43.4 25.82c4.65 4.49 0 10.12-2 11-4.7 2-67.54-13.83-81.51-18.75-4.91-1.74 5.81-20.41 13.36-24.71z"/><path d="M568.52 920.88s29.93 22.54 42.68 34.84c4.65 4.49 2.27 10.37 2.27 10.37-4.7 2-71.57-15.89-85.53-20.81 0 0 1.19-14 15-30.17l.32 7.88 20.27 5z" fill="#cc7e60"/><path d="M615.77 555.72s28.93 125.79 37.5 207.93c1.46 14-66.42 149.27-66.42 149.27l-51.43-12.14 37.14-133.56-33.79-244.78z" fill="#003359"/><path d="M494 555.8c-25 70-28.89 223.53-29.29 223.56s-47.14 133.56-47.14 133.56l54.28 12.14L534 799.36 606 555z" fill="#003b71"/><path class="cls-4" d="M618.33 458.6l60.26 8.19c10.92 3.67 23.61-2 27.75-12.48 3.79-9.56-1-19.67-10.93-23.14l-77.81-20.82z"/><path class="cls-6" d="M583.32 368.66c16.43 1.44 37.14 12.15 72.85 46.44l-45.41 52.54-28.87-50.41s-5.41-49.16 1.43-48.57z"/><path class="cls-6" d="M490.47 372.22c-7.53 4.21-20 10-17.86 35.71l-7.9 222.15 165.71-12.14s1.37-233-38.53-247.13c-24.28-8.58-77.13-12.16-101.42 1.41z"/><path class="cls-5" d="M487.12 470.39l84.3 17.61c11.51 1.41 20.79-6.92 20.29-18.22-.46-10.34-9-19.45-19.51-20.86l-77.82-20.24z"/><path class="cls-6" d="M496.19 370.79s-77.15 15-23.59 112.85l54.3-49-27.9-39.56z"/><path class="cls-10" d="M560.61 264.25s32.5.95 8.84 43.49l-13.1-33.35z"/><path d="M564.43 320.76c2.77 6.57 6.57 8.57 15.24 5.08 6.62-2.66 9-11.77 6.25-18.34s-8.68-7.16-15.39-3.59c-4.68 2.49-8.87 10.27-6.1 16.85z" fill="#c96e3d"/><path class="cls-5" d="M522.2 336.44l1.62 43.78a24.93 24.93 0 0 0 20.7 23.66l6.37 1.09a14.66 14.66 0 0 0 16.43-10l-14.43-60.73z"/><path d="M561.66 371.38c-14.29-1-30.66-22.3-30.66-22.3l22.89-10.29z" fill="#c46234"/><path class="cls-5" d="M517 267.81a55.51 55.51 0 0 1 24.38-6.09c11.42-.05 26.38 1.49 32 20.59 9.41 31.82 10.26 56.94-4.8 67.75-11.56 8.29-21.22 8.05-37.47 2.86-6-1.93-13.08-9.79-15.79-15.69l-9.73-16s-24.74-35.3 11.41-53.42z"/><path class="cls-10" d="M496.87 283.28s32.51 1 8.84 43.49l-13.1-33.35z"/><path class="cls-5" d="M518.93 331.83c.1 7.13-2.58 10.48-11.92 10.77-7.13.22-13-7.16-13.09-14.29s5.08-10 12.67-9.46c5.28.4 12.24 5.84 12.34 12.98z"/><path class="cls-13" d="M501.29 327.81s6.09-2.94 10.48 5.66"/><path class="cls-10" d="M492.61 293.42c.56.23 40.5-7.15 58.71-12.4 6.07-1.75-13.16-7.56-6.52-7.88 18.55-.87 27.11-6 27.1-14.5 0-5.28-7.47-8.28-13.52-9.57-6.51-1.4-18.2 1-40.26 6.91-33.12 8.94-25.51 37.44-25.51 37.44zM559.05 284.09s-1.53 2.84 3.55 3.81a32.4 32.4 0 0 1 7 1.89 3.4 3.4 0 0 0 3.45-.48 2.28 2.28 0 0 0 .16-2.38c-.74-1.65-.21-3.36-4.89-4.3-5.98-1.22-9.27 1.46-9.27 1.46zM537.73 289.32s3.62 2-1.4 6.72a91.58 91.58 0 0 0-9.52 11.22 4.63 4.63 0 0 1-4.18 2A1.87 1.87 0 0 1 521 307a29.74 29.74 0 0 1 7.58-13.9c5.95-5.67 9.15-3.78 9.15-3.78z"/><path class="cls-1" d="M546.72 311.57s-9.88-9.74-22.59 3.06c0 0 10.24 8.83 22.59-3.06z"/><g clip-path="url(#clip-path)"><path class="cls-15" d="M546.74 309.84a5.53 5.53 0 1 1-7.2-3 5.53 5.53 0 0 1 7.2 3z"/></g><path class="cls-16" d="M523.14 313.74a23.12 23.12 0 0 1 5.37-4 18.3 18.3 0 0 1 6.27-2.23 14.15 14.15 0 0 1 6.54.63 12.87 12.87 0 0 1 5.4 3.45 12.58 12.58 0 0 0-5.58-2.81 13.14 13.14 0 0 0-6.11 0 16.54 16.54 0 0 0-5.47 2.62 20.82 20.82 0 0 0-4.43 4.09 1.33 1.33 0 1 1-2.08-1.66.87.87 0 0 1 .09-.09z"/><path class="cls-1" d="M561.91 307.64s4.16-11.7 13.47-5.44c0 0-3.94 11.97-13.47 5.44z"/><g clip-path="url(#clip-path-2)"><path class="cls-15" d="M569.19 303.17c-.05 3 1.56 5.42 3.6 5.46s3.73-2.35 3.79-5.33-1.56-5.42-3.6-5.46-3.74 2.35-3.79 5.33z"/></g><path class="cls-16" d="M574.53 303.22a7.56 7.56 0 0 0-3.22-2 5.7 5.7 0 0 0-1.88-.22 3 3 0 0 0-.9.16 6.28 6.28 0 0 0-.95.33 9.47 9.47 0 0 0-3.33 2.47 14.25 14.25 0 0 0-2.34 3.64 14.35 14.35 0 0 1 1.81-4 10.44 10.44 0 0 1 3.24-3.24 7 7 0 0 1 1-.56 5 5 0 0 1 1.2-.41 7.72 7.72 0 0 1 2.49-.09 9.86 9.86 0 0 1 4.55 1.89 1.34 1.34 0 0 1-1.57 2.16.93.93 0 0 1-.1-.13z"/><path class="cls-13" d="M562.28 327.22l4.32-3.38-6.74-11.33M558.63 339.74c5.72-6.43 12.15-5.71 12.15-5.71"/><path class="cls-4" d="M450.72 930.6s34.75 14 50.25 22.59c5.65 3.13 4.88 9.43 4.88 9.43-4 3.18-73.24 3.21-88 2.07 0 0-2.48-13.81 6.7-33l2.34 7.53 20.88-.41z"/><path class="cls-5" d="M726.89 370.83c-2.86-2.14-23.4 8.5-33.78 20.21 0 0-.59-17.71-3.56-17.83s-7.63 20.9-7.63 20.9c-2.25 7.68-6.72 19.31-13.48 26l14 16.46c17.91-7 59.31-34.41 53-39.27-1.42-1.1-17.24 7-17.4 5.36-.27-2.78 23.36-9.84 18.83-13.22-.8-.59-2.14-1.42-10.71 2.15-4.31 1.79-8.74 3.84-8.87 3.17-.37-2 14.83-11.07 16-11.74 5-2.86 5-5.63 0-5-5.71.71-19.65 10-20.16 9-.76-1.6 16.12-14.41 13.76-16.19z"/><path class="cls-4" d="M809.74 327.28c-2.85-2.15-19.28 10.71-33.77 20.2 0 0-.59-17.7-3.56-17.83s-7.63 20.9-7.63 20.9c-2.26 7.69-6.72 19.31-13.48 26l14 16.45c10.63-4.18 29.85-25.11 38-27.84 6.43-2.14 17-4.23 16.43-7.14-.71-3.57-18.67 2.75-18.83 1.07-.27-2.78 21-8.21 18.83-13.21-.39-.91-2.14-1.43-10.71 2.14-4.31 1.79-8.74 3.84-8.87 3.18-.37-2 14.83-11.07 16-11.75 5-2.85 5-5.62 0-5-5.71.71-19.65 10-20.16 9-.76-1.58 16.12-14.39 13.75-16.17z"/><path class="cls-5" d="M575.29 451l101-35.68 10 19.33-95 51.22a19.23 19.23 0 0 1-27.42-10.53A19.22 19.22 0 0 1 575.29 451z"/><path d="M480.45 472.93l46.13-38.65v.72c-3.87-3.11-7.7-6.25-11.47-9.47-1.9-1.6-3.77-3.22-5.64-4.85s-3.73-3.26-5.58-4.91-3.7-3.3-5.52-5-3.66-3.35-5.47-5a360.12 360.12 0 0 1-10.67-10.39q6 4.5 11.67 9.24c1.91 1.58 3.82 3.16 5.71 4.78s3.77 3.21 5.64 4.84 3.74 3.25 5.58 4.9 3.71 3.29 5.54 5c3.68 3.32 7.29 6.71 10.87 10.15a.5.5 0 0 1 0 .7z" fill="#773a18"/><path d="M958.08 416s-37.43 31.74-44.68 47.08c0 0-9-8.16-9.47-39.41s54.15-7.67 54.15-7.67z" fill="#007e68"/><path class="cls-1" d="M954.55 417.57l-44.86 35.62 1.41-6.24-5.47 2.71 1.62-7.2-5.73 1.44 6.82-54.74 46.21 28.41z"/><path d="M955.52 323.37S954.35 368 957.36 387s.72 29 .72 29l-62 27.14s-3.6-59.88-4.09-79.25 4.89-21.6 4.89-21.6z" fill="#509688"/><path class="cls-21" d="M859 319.59l31.42-11.1a34.33 34.33 0 0 1-2.17-2.87l-.77-5-32.07 11.63a3.54 3.54 0 0 0-2.09 4.82 4.7 4.7 0 0 0 5.68 2.52z"/><path d="M1040.69 210.82c2.6 17 14.9 30.69 26.64 43.28s24 26.3 26.54 43.33c1.2 8.06.08 16.35 1.5 24.38 1.24 7 8.76-2.79 13.45 2.55 3.77 4.27 11.67-6.89 17.26-5.82 8.46 1.61 5.86-42.52 11.17-49.29s42.28-31.68 42.75-40.25c-2.91-.47-13.49-.8-16.4-1.27 1.43 6.13-31.8 42.36-37.32 45.39s-6 39.34-10.42 34.85c-6.24-6.34-10.86-3.56-11.3-12.45-.72-14.72-.56-22-9.72-33.53" fill="#417aa5"/><path d="M1002.13 248.67c2.59 17 14.9 30.69 26.63 43.28s24 26.31 26.54 43.34c1.2 8.06.08 16.35 1.5 24.37 1.24 7 8.76-2.78 13.46 2.55 3.76 4.28 11.66-6.88 17.25-5.81 8.46 1.61 5.86-42.52 11.17-49.3s42.28-31.68 42.75-40.28c-2.91-.47-13.49-.8-16.4-1.27 1.43 6.13-31.8 42.36-37.32 45.4s-6 39.34-10.42 34.85c-6.24-6.34-10.86-3.57-11.3-12.45-.72-14.73-.56-22-9.72-33.54" fill="#4f89bd"/><path class="cls-24" d="M1182.89 232.89a31.83 31.83 0 0 1-26.27 37L1047 287.59c-9.11 1.48-19.28 2.72-26.82-2.59-5.4-3.8-8.24-10.21-10.6-16.37-6-15.69-10.54-32.35-9.32-49.1s23.3-20.12 37.47-29.14c17.24-11 16.35-15.65 33.79-26.29 7.78-4.75 23.65-18.35 31.49-23 12.65-7.49 27.66-7.67 42.36-4.61a31.93 31.93 0 0 1 24.95 25.64z"/><path class="cls-25" d="M1005.67 254a4.88 4.88 0 0 0-.47 1.92 8.44 8.44 0 0 0 1.64 5.39 12 12 0 0 0 7.47 4.82c3.46.84 7.51.57 11.84.19 17.4-1.37 41.36-4.19 67.73-7.88l37.16-5.25 16.21-2.33c5.07-.77 9.82-1.33 14.12-2.24a33.88 33.88 0 0 0 11.09-4.17 20.67 20.67 0 0 0 6.4-6.25 14.65 14.65 0 0 0 2.1-5.25 7.08 7.08 0 0 0 .14-2 16.73 16.73 0 0 1-2.65 6.94 20.44 20.44 0 0 1-6.36 5.93 33.87 33.87 0 0 1-10.9 3.9c-4.24.84-9 1.35-14.08 2.07l-16.23 2.21-37.18 5.16c-26.35 3.68-50.27 6.63-67.63 8.23-4.33.44-8.27.75-11.61 0a11.55 11.55 0 0 1-7.22-4.43 8.43 8.43 0 0 1-1.79-5.09c.03-1.24.29-1.87.22-1.87z"/><path d="M1105.2 251.71s-84.06 13.88-93.05 7c-10.06-7.65-9.7-30.2-6-38.1 5.46-11.74 67.35-50.83 107-58.72 37.76-7.45 106.36 88.81-7.95 89.82z" fill="#472628"/><path class="cls-24" d="M1161.64 240.84c-6.64 14.16-79.64-18.67-88.59-35.42-8.65-16.2 10.73-36-21.93-50-7.93-3.39 12.64-15 37.25-10.33 15.94 3 18.16-3.71 34.54-3.25 7.3.2 24.15-2.25 31.44-1.94 11.77.5 21.43 7.42 29.28 16.55 6.83 7.95 8.13 20 3.23 30.39z"/><path d="M1143.29 140.72l-32.68 72.41 44.1 20.74 33.14-70.43a41 41 0 0 0-19.89-19.9c-14.96-7.13-24.67-2.82-24.67-2.82z" fill="#3c7caa"/><path class="cls-25" d="M1126 218.52c.24.12 8.59-17.1 18.63-38.45s18-38.76 17.75-38.87-8.59 17.09-18.64 38.45-17.96 38.75-17.74 38.87z"/><path class="cls-25" d="M1127.77 215.44c-.09.13.53.71 1.39 1.75a23 23 0 0 1 1.42 1.92 2.28 2.28 0 0 0 1.35 1 1.54 1.54 0 0 0 1.07-.11 1.76 1.76 0 0 0 .78-1 2.24 2.24 0 0 0-.29-2 3.85 3.85 0 0 0-1.15-1.1 5.32 5.32 0 0 0-2.41-.74c-1.42-.08-2.27.11-2.28.24s.84.25 2.13.52a5.7 5.7 0 0 1 2 .84c.63.44 1.3 1.29 1 1.94s-1.06.46-1.54-.25a14.41 14.41 0 0 0-1.63-1.82c-.97-.95-1.76-1.31-1.84-1.19z"/><path d="M1161.64 240.84a25.51 25.51 0 0 1-9.53 2.22 39.71 39.71 0 0 1-9.84-.75 51.18 51.18 0 0 1-9.43-3c-3.06-1.31-5.92-2.8-8.88-4.18-11.72-5.69-23.5-11.37-34.53-18.6a65.2 65.2 0 0 1-7.88-6.08 25.6 25.6 0 0 1-3.44-3.8c-.26-.34-.49-.73-.73-1.1s-.42-.8-.63-1.2a23.42 23.42 0 0 1-.92-2.41 35.17 35.17 0 0 1-1.43-10c-.08-3.32.14-6.59.25-9.82a40.81 40.81 0 0 0-.58-9.53 20 20 0 0 0-4.1-8.41c-3.94-5-9.59-8.67-15.59-11.12a38.47 38.47 0 0 1 8.92 4 32.85 32.85 0 0 1 7.62 6.3 21.62 21.62 0 0 1 4.7 8.84 42.22 42.22 0 0 1 1 9.91c0 3.29-.09 6.53 0 9.73a33 33 0 0 0 1.5 9.29c.25.73.53 1.45.84 2.15.18.32.32.65.51 1s.4.63.62.93a22.92 22.92 0 0 0 3.15 3.41 64.34 64.34 0 0 0 7.6 5.81c5.35 3.59 11 6.77 16.73 9.86s11.52 6 17.28 9.07c2.89 1.48 5.77 3.09 8.66 4.46a49.36 49.36 0 0 0 9.06 3.23 38 38 0 0 0 9.55 1.29 31.31 31.31 0 0 0 4.83-.35 20.86 20.86 0 0 0 4.69-1.15z" fill="#0d0506"/><path fill="#1691c9" d="M814.46 422.03l-48.89 50.06 46.09-26.39-26 49.19 52.88-53.81 36.97-64.35-61.05 45.3z"/><path class="cls-1" d="M867.33 385.11l-55.64 48.07-35.33 41.05 20.8-13.86-15.46 19.21 22.22-15.64-7.66 13.59 40.62-43.72 30.45-48.7z"/><path d="M977 291.83s-44.34-21.05-61.3-21.34c0 0 3.74-11.52 32-24.85s29.3 46.19 29.3 46.19z" fill="#666"/><path class="cls-1" d="M974.16 289.25l-50.93-26.21 6.26-1.29-4.72-3.87 7.23-1.48-3.68-4.63 52.69-16.34-6.85 53.82z"/><path d="M1060.39 251.34s-41.15 17.31-57.2 27.86S977 291.83 977 291.83l-50.24-45.28s53.08-27.94 70.53-36.36 21.7-4.45 21.7-4.45z" fill="gray"/><path class="cls-21" d="M900.9 305.38l12.69-15.76s-5.39-2-5-7.37l6.15-2.41a5.26 5.26 0 0 0 2.13 2.54l1.82-4.09-10.1 4-13.89 17.6 3.12 4s1.33.74 3.08 1.49z"/><path class="cls-32" d="M913.59 289.62l3.24-7.24-3.24 7.24zM908.55 282.25c-.35 5.38 5 7.37 5 7.37l3.24-7.24a5.26 5.26 0 0 1-2.13-2.54z"/></svg>