<svg id="Layer_1" data-name="Layer 1" xmlns="http://www.w3.org/2000/svg" viewBox="0 0 1456.08 1021.32"><defs><style>.cls-11,.cls-22,.cls-4,.cls-9{fill:none}.cls-2,.cls-21{fill:#fff}.cls-22,.cls-4{stroke:#fff}.cls-22,.cls-4,.cls-9{stroke-miterlimit:10}.cls-4,.cls-9{stroke-width:1.85px}.cls-11{stroke-linecap:round;stroke-linejoin:round}.cls-7{fill:#7574e0}.cls-8{fill:#fafafa}.cls-9{stroke:#9a98e2}.cls-11{stroke:#000;stroke-width:1.15px}.cls-14{fill:#21a498}.cls-15{fill:#e58e88}.cls-16{fill:#f0a49c}.cls-17{fill:#300e2e}.cls-21{opacity:.23}.cls-22{stroke-width:2.65px}.cls-24{fill:#fdda86}.cls-28{fill:#2c2c2c}.cls-31{fill:#3a589b}.cls-35{fill:#654735}.cls-39{fill:#3f3e40}</style><clipPath id="clip-path"><path fill="none" d="M890.89 171.05h426.56v262.74H890.89z"/></clipPath><clipPath id="clip-path-2"><path class="cls-2" d="M714.59 447.2s-.13-11.28-21.58-9.71c-19.26 1.42-21.46 10.06-21.46 10.06s2.64 11.42 23.75 11.77 19.29-12.12 19.29-12.12z"/></clipPath><clipPath id="clip-path-3"><path class="cls-2" d="M757.72 447.2s.13-11.28 21.58-9.71c19.26 1.42 21.46 10.06 21.46 10.06S798.12 459 777 459.32s-19.28-12.12-19.28-12.12z"/></clipPath></defs><path d="M907.75 17c-35.48.38-209.51-6.31-249.21-1.34C589 24.42 535.48 47.63 485 72.4c-63.38 31.14-120.58 67.3-174.6 105.8C240.6 228 176 281.58 124.93 345.39 80 401.42 83.71 467.64 91.67 559.07c4.51 51.71-7.93 106 34.86 184.64C307.37 1076 1443.4 1097.19 1338.2 369.1 1283.59-8.84 960.43 16.47 907.75 17z" fill="#c4e5e5"/><path class="cls-4" d="M206.49 592.84h360.57c4.25-1.93 7.68-5.37 7.68-9.61V320.12a7.68 7.68 0 0 0-7.68-7.68H206.49a7.68 7.68 0 0 0-7.68 7.68v263.11c0 4.24 3.44 7.68 7.68 9.61z"/><rect class="cls-4" x="870.97" y="358.21" width="256.2" height="299.47" rx="8.53" transform="rotate(180 999.065 507.945)"/><path d="M1391 780a50.7 50.7 0 1 1-50.69-50.7A50.68 50.68 0 0 1 1391 780z" fill="#ff6d76"/><path class="cls-2" d="M1357.52 766.9a10.52 10.52 0 0 0-14.87.16l-2.65 2.74-2.76-2.72a10.52 10.52 0 1 0-14.75 15l10.22 10.07s0 .05.06.07a10.51 10.51 0 0 0 14.87-.16l10.06-10.27a10.52 10.52 0 0 0-.18-14.89z"/><path stroke-linecap="round" stroke-linejoin="round" stroke="#ff6d76" stroke-width="3.52" fill="none" d="M1344.67 757.19l-7.58 19.53h7.87l-15.74 27.31"/><circle class="cls-7" cx="167.15" cy="338.57" r="55.91" transform="rotate(-22.5 167.157 338.567)"/><path class="cls-8" d="M176.57 318.83c-9.68-.17-19.48-.3-28.38.32-2.82.19-5.25 4.67-1.83 6.08-1.44.74-2.9 1.45-3.53 3.07s.12 3.6 1.71 4c-3.35-.84-4.68 4.49-2.06 6.21a7.85 7.85 0 0 0-2.83 4.54 4.55 4.55 0 0 0 2 4.7 7.37 7.37 0 0 0 3.49.6l12.08.09c-1.09 6.3-1.42 13.16 1.78 18.69 1 1.67 3.56 3.67 5.61 2.39s1.39-4.2 1.3-6.08a21.27 21.27 0 0 1 11-19.41s-.44-16.69-.34-25.2z"/><path class="cls-8" transform="rotate(180 187.395 331.44)" d="M180.08 318.85h14.63v25.18h-14.63z"/><path class="cls-4" d="M1372.64 622.29a11.84 11.84 0 1 1-11.84-11.84 11.84 11.84 0 0 1 11.84 11.84zM876.82 234.44A11.84 11.84 0 1 1 865 222.6a11.84 11.84 0 0 1 11.82 11.84zM188.23 178.91a11.85 11.85 0 1 1-11.84-11.84 11.85 11.85 0 0 1 11.84 11.84zM549.39 188.67H773.8a7.89 7.89 0 0 0 7.89-7.89 7.89 7.89 0 0 0-7.89-7.89H549.39a7.89 7.89 0 0 0-7.89 7.89 7.89 7.89 0 0 0 7.89 7.89zM253.77 890.77H338a7.89 7.89 0 0 0 7.89-7.89A7.89 7.89 0 0 0 338 875h-84.23a7.89 7.89 0 0 0-7.89 7.89 7.89 7.89 0 0 0 7.89 7.88zM1140 894.49h151.29a7.89 7.89 0 0 0 7.89-7.89 7.89 7.89 0 0 0-7.89-7.89H1140a7.89 7.89 0 0 0-7.89 7.89 7.89 7.89 0 0 0 7.89 7.89z"/><path class="cls-9" d="M116.78 812.39v60.85M1360.8 389.8v138.59"/><rect class="cls-2" x="948.05" y="183.13" width="368.26" height="287.56" rx="10.42"/><path d="M948.05 433.78h369.4v28.27a8.63 8.63 0 0 1-8.63 8.63H956.68a8.63 8.63 0 0 1-8.63-8.63v-28.27z" fill="#40b2c2"/><path class="cls-7" d="M948.05 218.9h369.4v214.88h-369.4z"/><path class="cls-11" d="M948.05 218.9h368.18"/><path d="M993.52 200.54a10.35 10.35 0 1 1-10.35-10.35 10.35 10.35 0 0 1 10.35 10.35z" fill="#d4d2f6"/><path class="cls-11" d="M1006.73 200.54h52.99"/><path class="cls-2" d="M989.35 446.3a4.58 4.58 0 0 0-6.49.07l-1.17 1.19-1.21-1.18a4.59 4.59 0 1 0-6.44 6.54l4.47 4.4a4.6 4.6 0 0 0 6.49-.07l4.4-4.49a4.59 4.59 0 0 0-.05-6.46zM1021.65 451.82a7.85 7.85 0 1 1-7.85-7.85 7.85 7.85 0 0 1 7.85 7.85z"/><g clip-path="url(#clip-path)"><path class="cls-2" d="M1039.75 311c.15 7.31.08 14.62.17 21.93 0 1.38.3 2.74.3 4.12 0 .46-.08 1.44-.72 1.44a7.47 7.47 0 0 1-1.21-.26c-2-.4-2.54-1.54-2.54-3.48 0-1.67.34-7.67-.41-8.86a2.09 2.09 0 0 0-2.12-.94c-1.6 0-3.08-.67-4.58-.67-1.22 0-1.2 1.47-1.2 2.35 0 1.36.16 2.71.21 4.06s.45 2.45.45 3.7c0 1.45-2.08 1.61-3.17 1.61s-2.35-.11-2.35-1.5c0-1.14.42-2.24.42-3.36 0-2.35-.29-4.69-.29-7 0-5.84.42-11.68.42-17.52 0-1.64-.16-3.27-.16-4.89 0-.69.1-1 .83-1 1.18 0 4.32-.36 4.32 1.3 0 1.05-.41 2.05-.46 3.08v2.13c0 2.61.16 5.22.1 7.83 0 1.14-.41 2.26-.41 3.39 0 1.28.83 1.62 2 1.77a35.31 35.31 0 0 0 4.48.38 2.25 2.25 0 0 0 1-.14c.82-.48.82-3.23.82-4 0-1.76-.18-3.51-.18-5.26s.14-3.45.14-5.17c0-1.06-.19-2.11-.19-3.16 0-1.3.5-2 1.9-2 1.77 0 2.45 1 2.45 2.62v7.61zM1057.13 339a7.89 7.89 0 0 1-2.26.35c-7.82 0-9.77-13.73-9.77-19.55 0-6 .57-20.13 9.1-20.13 6.63 0 9.53 9.66 9.53 15 0 2.62-1.44 3-3.69 3-2 0-4-.15-6.08-.15-1.7 0-3.56.34-3.56 2.45 0 1.09.22 2.17.31 3.25.23 2.65.38 11.34 4.22 11.34s2.71-7.53 3.67-8.09a2.7 2.7 0 0 1 1.5-.31c1 0 2.07.18 3.11.18.85 0 .86.46.86 1.14 0 4.38-2.42 10.22-6.94 11.54zm-6.2-26.13c0 .56 1.22.67 1.61.67a24.4 24.4 0 0 0 4.24-.64c1.07-.19 1.8 0 1.8-1.39 0-2.29-2-7.19-4.76-7.19s-2.74 3.92-2.74 5.81v1.49c0 .49-.15.87-.15 1.29zM1086.6 301c.32 5.14 1.06 10.27 1.06 15.44 0 3.42-.21 6.84-.44 10.25-.38 5.34-.88 17.78-8.42 17.78-5.06 0-7.78-3.52-7.78-8.37 0-2.72.08-5.86 3.63-5.86a.58.58 0 0 1 .61.52c0 .55-.42 1-.42 1.56 0 1.84.58 8.26 3.12 8.26a2.7 2.7 0 0 0 1.78-.9c1.82-1.74 1.88-5.24 2.1-7.59.3-3.19.47-6.38.56-9.58.12-4.13.42-8.26.42-12.39a4.67 4.67 0 0 0-.35-2.29c-.8 2.05-2.34 4.26-4.79 4.26-6.74 0-8-9.77-8-14.8 0-1.88 1.29-2.71 3-2.71s1.9 1.94 1.9 3.25a35 35 0 0 0 .08 6c.26 1.55 1.43 4.47 3.32 4.47 2.79 0 3.4-4.78 3.4-6.83 0-1.56-.51-3.08-.51-4.64 0-1.34 1.48-1.45 2.49-1.45 2.32 0 3.19-.14 3.19 2.5 0 1.05-.11 2.09-.05 3.14zM1093.09 295.27c0-1.42 2.85-1.19 3.8-1.19 10.57 0 12.71 8.14 12.71 16.93 0 5.47-.1 10.87-.47 16.34-.17 2.38-.36 4.75-.36 7.19 0 4.93-2.44 10.45-8.08 10.45a8.6 8.6 0 0 1-4.81-1.54c-2.73-1.9-2.61-12.12-2.61-15.39s-.12-6.77.17-10.1h.06c.6-4.93 2.44-8 7.84-8 1.55 0 2.74 1 3.09 1 .12 0 .36 0 .42-.17l.06-1.85c0-6.41-2.38-10.21-9.39-10.21-2.08 0-1.84-1.43-2.37-3.09 0-.13-.06-.25-.06-.37zm11.46 19a4 4 0 0 0-1.9-.36c-3.5 0-4.27 2.26-4.51 5.35h-.06c-.12 2.26-.12 4.57-.12 6.83 0 3.27.24 6.54.24 9.8 0 2.14.12 5 3.09 5a3.58 3.58 0 0 0 1.54-.35c1-1.19 1.25-4.4 1.31-5.94.29-6.84.35-13.6.41-20.38zM1134.14 345.28c-.8 1-2.18 1-3.32 1-8 0-13.6-3.73-13.6-12.28 0-3.84 1.88-7.37 6.14-7.37 2.43 0 4.79 1.78 5.74 1.78a1.67 1.67 0 0 0 .32-.08c-.06-5.52-.09-24.69-2.56-28.6a3.63 3.63 0 0 0-3-1.87c-2.84 0-4.56 3-4.56 5.58 0 2.25 0 2.74-2.33 2.74-1.09 0-3.6.28-3.6-1.32a13.77 13.77 0 0 1 1.69-5.15c1.86-3.49 5.91-6.91 10-6.91a6.35 6.35 0 0 1 2.77.61c4.84 2.32 5.55 11.6 6.06 16.31a151.22 151.22 0 0 1 .78 16.06c0 5.19-.19 10.39-.19 15.58 0 1.24.3 2.79-.32 3.91zm-11.63-10.13a6.14 6.14 0 0 0 6.21 6.39c1.21 0 1.34-1.23 1.34-2.17 0-1.5-.47-2.95-.47-4.45 0-2.9-.72-3.47-3.57-3.47a3.43 3.43 0 0 0-3.51 3.7zM1140 304c0-.57-.07-1.14-.07-1.72 0-1.08 1.21-1.18 2-1.18s2.18-.1 2.18 1.16c0 4.79-.34 16.89 6.7 16.89s7.06-7.89 7.06-13c0-1.26-.8-5.61 1.12-5.61 4 0 3.32 1.52 3.32 4.83 0 9.29.29 18.58.29 27.88 0 1.83.54 5.42-2.25 5.42-2.42 0-2.41-4.37-2.41-6 0-4.05.29-8.08.29-12.13v-1.23c-1.43 3.23-5 4.78-8.41 4.78h-.57c-9.75-.53-8.95-13.24-9.25-20.09zM1184.52 311c.15 7.31.08 14.62.17 21.93 0 1.38.3 2.74.3 4.12 0 .46-.08 1.44-.72 1.44a7.47 7.47 0 0 1-1.21-.26c-2-.4-2.54-1.54-2.54-3.48 0-1.67.34-7.67-.41-8.86a2.09 2.09 0 0 0-2.12-.94c-1.6 0-3.08-.67-4.58-.67-1.22 0-1.2 1.47-1.2 2.35 0 1.36.16 2.71.21 4.06s.45 2.45.45 3.7c0 1.45-2.08 1.61-3.17 1.61s-2.35-.11-2.35-1.5c0-1.14.43-2.24.43-3.36 0-2.35-.3-4.69-.3-7 0-5.84.42-11.68.42-17.52 0-1.64-.16-3.27-.16-4.89 0-.69.1-1 .83-1 1.18 0 4.32-.36 4.32 1.3 0 1.05-.41 2.05-.46 3.08v2.13c0 2.61.16 5.22.1 7.83 0 1.14-.41 2.26-.41 3.39 0 1.28.83 1.62 2 1.77a35.31 35.31 0 0 0 4.48.38 2.25 2.25 0 0 0 1-.14c.82-.48.82-3.23.82-4 0-1.76-.18-3.51-.18-5.26s.14-3.45.14-5.17c0-1.06-.19-2.11-.19-3.16 0-1.3.5-2 1.9-2 1.77 0 2.45 1 2.45 2.62v7.61zM1206.81 310.54c-.74.48-4.11 8.55-4.92 10.07a77.16 77.16 0 0 0-5.47 11.73c-.27.83-.68 3.27-1.36 3.71a11.33 11.33 0 0 1-3.15.39c-1.44 0-1.48-3.7-1.48-4.68 0-2.82.37-5.62.37-8.44 0-4-.37-7.94-.37-11.92 0-1.51.08-3 .08-4.53s-.3-3-.3-4.56c0-1.19 2.79-2 3.74-2 .76 0 .78 1 .78 1.55 0 6.91-.18 13.82-.18 20.73a17 17 0 0 0 .28 3.48 69.15 69.15 0 0 0 6-11.32c1-2.67 2.5-5.11 3.54-7.75.49-1.24 1.23-4.92 2.08-5.66a3.76 3.76 0 0 1 2.5-.85c1.22 0 1.63.82 1.63 1.92 0 1.4-.42 2.76-.42 4.16 0 8.25.37 16.49.37 24.74a49.11 49.11 0 0 1-.29 5.68c-.23 1.95-.26 1.56-2 1.68-.44 0-.87.11-1.31.11-1.07 0-1.07-2.33-1.07-3.05 0-8.12 1.1-16.19 1.1-24.3a2 2 0 0 0-.14-.9zM1222.81 340.44a28.33 28.33 0 0 1 .47 3.67c0 .36-.19 1.16 0 1.48-.49.72-3.17.81-4 .81-1.47 0-1.31-.21-1.47-1.48a22.64 22.64 0 0 1-.22-2.85c0-2 .25-3.94.25-5.91q0-21.74-.28-43.46c.79 0 4.24-.05 4.65.5a2.86 2.86 0 0 1 .14 1.21c0 3-.19 6-.19 9 0 1.93.09 3.85.09 5.78 0 2.42-.44 4.83-.47 7.25 1.56-3.45 4.45-6 6.77-9 1-1.21 5.06-7 5.93-7.43l2.31 1.55a2 2 0 0 1 .07.31c0 2.5-13.06 16.41-13.06 18 0 .64.88 1.69 1.25 2.22 1.09 1.56 9.1 17.15 9.1 18 0 1.08-2 2-2.94 2-1.12-1.24-9.33-18.08-9.48-19.19a139.46 139.46 0 0 0 1.14 17.57zM1240 299.83a32.22 32.22 0 0 1-.43-3.67 4.9 4.9 0 0 0 0-1.48c.3-.72 3.16-.81 3.81-.81 1.39 0 1.09.44 1.24 1.48a17.78 17.78 0 0 1 .2 2.62c0 1.94-.22 3.88-.22 5.82 0 8.81.24 17.62.24 26.43a1.25 1.25 0 0 1-1.26 1.25c-.49 0-2.72-.05-3-.48a3.31 3.31 0 0 1-.13-1.21c0-3 .18-6 .18-9 0-1.27 0-2.54-.05-3.8-.15-5.49 0-11.81-.6-17.19zm3.61 37a1.24 1.24 0 0 1 1.17 1.22c.08 1.74.07 3.52.07 5.26a1.25 1.25 0 0 1-1.26 1.26c-.52 0-2.68-.05-3-.49a3.41 3.41 0 0 1-.13-1.2c0-1.62.09-3.29.15-4.91a1.25 1.25 0 0 1 1.31-1.23c.57.01 1.13.02 1.69.07zM1250.16 299.83a32.24 32.24 0 0 1-.44-3.67 5.26 5.26 0 0 0 0-1.48c.29-.72 3.16-.81 3.8-.81 1.39 0 1.1.44 1.25 1.48a17.78 17.78 0 0 1 .2 2.62c0 1.94-.22 3.88-.22 5.82 0 8.81.24 17.62.24 26.43a1.25 1.25 0 0 1-1.26 1.25c-.49 0-2.73-.05-3-.48a3.31 3.31 0 0 1-.13-1.21c0-3 .17-6 .17-9v-3.8c-.15-5.49 0-11.81-.59-17.19zm3.61 37a1.24 1.24 0 0 1 1.17 1.22c.08 1.74.06 3.52.06 5.26a1.25 1.25 0 0 1-1.25 1.26c-.52 0-2.69-.05-3-.49a3.19 3.19 0 0 1-.13-1.2c0-1.62.09-3.29.15-4.91a1.24 1.24 0 0 1 1.31-1.23c.57.01 1.13.02 1.69.07zM1260.32 299.83a30.13 30.13 0 0 1-.44-3.67 5.26 5.26 0 0 0 0-1.48c.29-.72 3.16-.81 3.8-.81 1.39 0 1.1.44 1.25 1.48a17.78 17.78 0 0 1 .2 2.62c0 1.94-.23 3.88-.23 5.82 0 8.81.24 17.62.24 26.43a1.25 1.25 0 0 1-1.26 1.25c-.48 0-2.72-.05-3-.48a3.31 3.31 0 0 1-.13-1.21c0-3 .17-6 .17-9v-3.8c-.15-5.49 0-11.81-.59-17.19zm3.61 37a1.23 1.23 0 0 1 1.16 1.22c.08 1.74.07 3.52.07 5.26a1.25 1.25 0 0 1-1.26 1.26c-.52 0-2.68-.05-3-.49a3.19 3.19 0 0 1-.13-1.2c0-1.62.08-3.29.15-4.91a1.23 1.23 0 0 1 1.3-1.23c.58.01 1.15.02 1.71.07z"/></g><path class="cls-14" d="M1102.84 702.49c125.33 21.37 176.34-34.27 177.13-76 .82-43.72-30.63-91.86-130.09-101.45-141.1-13.6-172.94 48.75-174.87 78.69-3 47.18 11 75.51 74 91.6 5.86 1.49-3.29 58.42-6.19 76.67 7.32-4.8 55.61-55.34 60.02-69.51z"/><path class="cls-2" d="M1015 603.1c11 13.7 21.14 28.12 32.84 41.17 3.64 4 9.35-2.14 5.72-6.19-11.7-13-21.83-27.46-32.84-41.16-3.42-4.26-9.12 2-5.72 6.18zM1034.49 595.09q16.63 20.5 32 42c3.18 4.45 8.86-1.78 5.72-6.18q-15.43-21.58-32-42c-3.45-4.24-9.15 2-5.72 6.18z"/><path class="cls-2" d="M1015.7 622.78c15.48-7.08 30.88-14.16 46-22.22 4.67-2.5.57-10-4.08-7.55-15.07 8.06-30.47 15.14-45.95 22.22-4.78 2.18-.66 9.72 4.08 7.55zM1027.27 640.35a460.15 460.15 0 0 1 43.61-20.81c4.81-2 2.72-10.45-2.15-8.43a479.83 479.83 0 0 0-45.54 21.69c-4.66 2.52-.56 10.06 4.08 7.55zM1087.25 617.65c10.79.39 21.57 1.13 32.37 1.18 5.21 0 5.21-8.72 0-8.74-10.8-.05-21.58-.79-32.37-1.18-5.2-.19-5.2 8.55 0 8.74z"/><path class="cls-2" d="M1107.1 632.1c.66-12.86 1.1-25.74 1.76-38.6.29-5.62-7.8-5.6-8.09 0-.65 12.86-1.1 25.74-1.76 38.6-.28 5.62 7.81 5.6 8.09 0z"/><path class="cls-2" d="M1086.47 601.05a308.84 308.84 0 0 0 27.4 29.9c3.92 3.67 9.66-2.49 5.72-6.18a308.84 308.84 0 0 1-27.4-29.9c-3.46-4.21-9.17 2-5.72 6.18z"/><path class="cls-2" d="M1092.6 632.09c8.78-10 17.54-19.81 27.74-28.17 4.09-3.36.06-10.95-4.09-7.55-10.77 8.84-20.09 19-29.37 29.54-3.58 4.08 2.13 10.27 5.72 6.18zM1155.66 594c-8.87 1.24-15.45 13.28-11 22.5 2.11 4.36 7 5.45 11 3.78 6-2.52 9.42-11.26 10.37-17.68h-7.8c1.75 4.65 5.7 14.37 11.42 14.39 5.89 0 9-9.5 9.4-14.58 1.49-18.73-17-27.87-31.47-20.58-13.82 7-21.87 26.94-13.51 41.69 8.88 15.66 32 18.25 42.34 2.88 3.06-4.57-4-8.93-7-4.42-6.78 10.12-22.94 6.67-28.38-2.87-4.76-8.38-1.65-18.58 4.38-25.09 6.73-7.27 22-9.62 25.19 2.8 1.06 4.1-.09 6.89-1.5 10.51-1.1 1.2-.58 1.51 1.58.94a16.14 16.14 0 0 1-1.91-2.66c-.67-1.85-2-3.45-2.76-5.33-1.3-3.47-7.08-4.79-7.8 0-.23 1.54-3.24 13.56-6.45 11.86-2.23-1.17 2.09-9.16 3.8-9.39 5.09-.71 5.16-9.46 0-8.75zM1205.88 649.6c5.2 0 5.21-8.74 0-8.74s-5.22 8.74 0 8.74zM1198.48 591.84c-9.51-5.61-.85-14.16 6.16-11.67 10.29 3.67 1.21 14.47-1.27 20.84-4 10.26-4.11 21.4-2.74 32.25.7 5.55 8.49 3.19 7.8-2.33-1-8.24-.86-16.73 1.75-24.64 2-6 6.78-10.92 7.91-17.32 1.61-9-5.19-16-12.87-17.79-16.49-3.86-26.36 19.05-10.82 28.21 4.57 2.69 8.66-4.86 4.08-7.55z"/><path class="cls-15" d="M661.34 441.53c5.58 12.46 5.1 32.57-6.72 37s-28.51-6.09-34.13-21.23c-4.74-12.77.44-26.13 12.27-30.58s23.01 2.35 28.58 14.81zM810.2 441.53c-5.58 12.46-5.1 32.57 6.72 37s28.51-6.09 34.13-21.23c4.74-12.77-.44-26.13-12.26-30.58s-23.01 2.35-28.59 14.81z"/><path class="cls-16" d="M702.52 513.98l-8.57 115.7h80.23l-9.34-116.93-62.32 1.23z"/><path class="cls-15" d="M700.51 542s24.76 38.35 69.15 27.92l-3.31-40.07z"/><path class="cls-17" d="M840.09 380.92c0 60.95-46.48 123.23-103.82 123.23s-103.83-68.71-103.83-129.67 46.48-91.07 103.83-91.07S840.09 320 840.09 380.92z"/><path class="cls-16" d="M736.27 315.2c-46.08 0-86.77 35.64-86.77 79.6l2.65 52.76s.67 57.82 43.14 89.73a68 68 0 0 0 82 0c42.47-31.91 43.14-89.73 43.14-89.73L823 394.8c0-43.96-40.66-79.6-86.73-79.6z"/><path stroke-width="2.47" stroke="#e26d66" stroke-linecap="round" stroke-linejoin="round" fill="none" d="M734.91 468.42v18.97h9.1"/><path class="cls-2" d="M714.59 447.2s-.13-11.28-21.58-9.71c-19.26 1.42-21.46 10.06-21.46 10.06s2.64 11.42 23.75 11.77 19.29-12.12 19.29-12.12z"/><g clip-path="url(#clip-path-2)"><path class="cls-17" d="M681.8 446.65c.06 7.38 5.63 13.33 12.44 13.27s12.28-6.08 12.22-13.47-5.63-13.33-12.44-13.28-12.28 6.09-12.22 13.48z"/></g><path class="cls-17" d="M713.41 445.12a28 28 0 0 0-9.74-5.2 38.42 38.42 0 0 0-11.43-1.81 26 26 0 0 0-11.24 2.43 22 22 0 0 0-8.79 7.38l-.05.07a.76.76 0 0 1-1.07.22.78.78 0 0 1-.24-1c4.3-7.47 12.76-11.78 21.24-12.29a42.19 42.19 0 0 1 12.68 1.08 31.94 31.94 0 0 1 12 5.45 2.49 2.49 0 0 1-3 4l-.15-.12z"/><path class="cls-2" d="M757.72 447.2s.13-11.28 21.58-9.71c19.26 1.42 21.46 10.06 21.46 10.06S798.12 459 777 459.32s-19.28-12.12-19.28-12.12z"/><g clip-path="url(#clip-path-3)"><path class="cls-17" d="M790.51 446.65c-.06 7.38-5.63 13.33-12.44 13.27s-12.28-6.08-12.22-13.47 5.63-13.33 12.44-13.28 12.28 6.09 12.22 13.48z"/></g><path class="cls-17" d="M755.57 441.43a31.94 31.94 0 0 1 12-5.45 42.22 42.22 0 0 1 12.66-1.09c8.49.51 16.94 4.82 21.24 12.29a.76.76 0 0 1-.28 1.05.77.77 0 0 1-1-.23v-.08a22 22 0 0 0-8.79-7.38 26 26 0 0 0-11.22-2.43 38.47 38.47 0 0 0-11.43 1.81 28 28 0 0 0-9.74 5.2l-.19.17a2.49 2.49 0 0 1-3.29-3.74zM721 399.92s-34.9-27.86-59.23 14.44zM754 399.92s34.9-27.86 59.22 14.44z"/><path class="cls-21" d="M686.47 420.36l37.86 51.4s-11.42 21.82-29.6 19.4L656.51 441s10.33-22 29.96-20.64zM778.17 420.36l37.83 51.4s-11.42 21.82-29.61 19.4L748.21 441s10.33-22 29.96-20.64z"/><path class="cls-22" d="M727.34 456.07a37 37 0 1 1-37-37 37 37 0 0 1 37 37zM819.14 456.07a37 37 0 1 1-37-37 37 37 0 0 1 37 37zM727.34 456.07s7.69-4.25 17.76 0"/><path d="M721 505.24s16.5-8.64 33 .68" stroke="#300e2e" stroke-width="2.47" stroke-linecap="round" stroke-linejoin="round" fill="none"/><path class="cls-17" d="M817.24 338.31s-30 0 5.8 66.06c-.04 0 7.48-34.37-5.8-66.06zM769.66 292.3S721 259.15 663.92 279.65c-54.36 19.54-42.13 85.4-20.69 99.37z"/><path class="cls-17" d="M710.7 289.82s39.8-21.5 87.25-2 53.4 68 38.46 123.25c0 0-7.77-90.46-58.35-100.22s-67.36-21.03-67.36-21.03z"/><path class="cls-15" d="M651.28 379s-1 2-1.26 8.08c0 0 96.83 1.73 112.26-52.08l-6.47-3.46-91 35.15z"/><path class="cls-17" d="M643.23 379s126 11 120.23-74.38c0 .02-97.29-24.5-120.23 74.38z"/><path class="cls-15" d="M758 341.52s22.6-2.87 47.71 10.07c0 0-15.05-22.38-46.19-18.06z"/><path class="cls-17" d="M815.29 362.48s-17.86-35.09-87.95-27.07L744 292.3l61.44 20.82L823 344.68z"/><path class="cls-16" d="M501.23 772.54l-63.78 118.23c-15.26 28.29 5.23 62.62 37.38 62.62h132.09V822.92z"/><path class="cls-24" d="M558.94 640.52s-30.45 9.84-92.19 142.16l118.74 67.72 77.75-179.54z"/><path class="cls-16" d="M965.83 772.54l63.78 118.23c15.26 28.29-5.23 62.62-37.37 62.62h-132.1V822.92z"/><path class="cls-24" d="M910.05 640.52s30.45 9.84 92.19 142.16L883.5 850.4l-77.75-179.54z"/><path class="cls-24" d="M898.85 634.69l-75-22.73-89.35 10.12L645.12 612l-75 22.73a34.61 34.61 0 0 0-24.56 33.12v285.54h377.85V667.81a34.61 34.61 0 0 0-24.56-33.12z"/><path class="cls-16" d="M645.12 612s30.48 38.9 91.14 38.9c59.3 0 88.8-38.53 88.8-38.53l-92.72-27.57z"/><path class="cls-17" d="M551.52 692.45h374A23.47 23.47 0 0 1 949 715.91v237.48H528V715.91a23.47 23.47 0 0 1 23.52-23.46z"/><circle class="cls-2" cx="738.53" cy="822.92" r="22.78" transform="rotate(-45 738.534 822.92)"/><path class="cls-9" d="M140.68 953.39h1197.65"/><path class="cls-14" d="M414.46 747.52c.38-14.12-11.44-32.65-21.84-46.15a80.89 80.89 0 1 1 34.47-13.47c12.25 41.52-12.63 59.62-12.63 59.62z"/><circle cx="378.98" cy="618.91" r="43.15" transform="rotate(-76.72 378.955 618.895)" fill="#ffd053"/><path d="M401.55 582.08a43.15 43.15 0 0 1-58.93 60 43.15 43.15 0 1 0 58.93-60z" fill="#ffc448"/><path d="M341.69 623.46A40.06 40.06 0 0 1 413.51 599 40.06 40.06 0 1 0 347 643.42a39.82 39.82 0 0 1-5.31-19.96z" fill="#ffd77a"/><ellipse class="cls-28" cx="363.08" cy="610.88" rx="3.18" ry="5.36"/><path class="cls-28" d="M398.05 610.88c0 3-1.42 5.35-3.18 5.35s-3.18-2.39-3.18-5.35 1.42-5.36 3.18-5.36 3.18 2.4 3.18 5.36z"/><path class="cls-28" transform="rotate(-45 365.763 600.036)" d="M363.72 593.21h4.09v13.65h-4.09z"/><path class="cls-28" transform="rotate(45 392.186 600.039)" d="M390.14 593.21h4.09v13.65h-4.09z"/><path d="M394.87 638.65c-.92-9.53-7.71-16.92-15.93-16.91s-15 7.45-15.86 17z" fill="#71523f"/><path d="M363.08 638.72s13.38-13.43 31.79-.07z" fill="#ff6669"/><circle class="cls-2" cx="519.37" cy="537.68" r="68.14" transform="rotate(-81.77 519.384 537.683)"/><path class="cls-2" d="M501.83 577s9.68 55.23-7 75.15c0 0 47.25-9.42 38-73.16 0 .01-11.02-39.05-31-1.99z"/><path class="cls-31" d="M542.58 558.55c-.42 0-.42 0 0 0-.38.15-.38.14 0 0l-.25.18c.29-.26.29-.24 0 .05.19-.33.19-.31 0 0l-.14.28c.12-.37.13-.36 0 0s-.06.41 0 0c.12.6-.07-.06-.16-.29.22.33.2.33-.07 0l.21.19c-.36-.23-.37-.25 0-.06-.42-.12-.44-.13-.06 0 .73-.11-.62.14.21 0a3.11 3.11 0 0 0 .43 0h-.22c.37-.14.36-.12 0 .07q.42-.29.12 0c-.18.18-.16.16.08-.09-.22.37-.23.37 0 0-.11.35-.14.4-.08.15s0-.19 0 .22c0-.41 0-.39.07 0a3.31 3.31 0 0 0-.12-.42c-.09-.24-.06-.2.09.13a3.84 3.84 0 0 0-.32-.5c.39.54-.08 0-.25-.17.34.24.33.26 0 .07a.84.84 0 0 0 .65.14l2.76-5.43a10.43 10.43 0 0 1 1.73 7.91 3.51 3.51 0 0 1-6.86-1.52 3.17 3.17 0 0 0-.75-2.54c-1.42-2 .09-5.64 2.76-5.43a7.61 7.61 0 0 1 7.27 7.21 7 7 0 0 1-6.91 7.18 7.11 7.11 0 0 1-7.49-6.53 7.62 7.62 0 0 1 7-7.87c4.51-.24 4.88 6.77.36 7zM533.89 542q-2.48-20.41-6.3-40.63l5.26 1.84c-9.76 5 5.47 31.7 8.31 38.81 1.68 4.2-5 6.39-6.66 2.21-4.07-10.17-10.27-21.14-12.12-32-1-6.09 1-12 6.62-14.93 1.75-.89 4.79-.62 5.26 1.84q4 21.13 6.64 42.48c.54 4.48-6.47 4.82-7 .35zM510.11 560.2c-.42 0-.41 0 0 0-.38.14-.38.14 0 0l-.25.17c.29-.25.29-.24 0 0 .2-.32.2-.31 0 0l-.14.28q.19-.56 0 0c.12.61-.06-.06-.16-.28.23.33.21.32-.06 0l.21.19c-.36-.23-.37-.25 0-.05-.42-.13-.43-.14-.05 0 .73-.12-.62.13.21 0h.43-.23c.38-.14.37-.11 0 .07.27-.19.32-.2.12 0l.08-.08c-.22.36-.23.37 0 0-.12.35-.14.4-.08.16s.05-.19 0 .21c0-.41 0-.39.07.05a3.06 3.06 0 0 0-.13-.43c-.09-.24-.06-.19.1.13-.1-.17-.21-.34-.32-.5.38.55-.08 0-.25-.16.33.23.33.26 0 .07a.87.87 0 0 0 .65.13l2.75-5.43a10.5 10.5 0 0 1 1.74 7.92 3.51 3.51 0 0 1-6.86-1.52 3.18 3.18 0 0 0-.75-2.55c-1.43-2 .09-5.64 2.76-5.43a7.6 7.6 0 0 1 7.26 7.22 7 7 0 0 1-6.91 7.18 7.11 7.11 0 0 1-7.48-6.53 7.6 7.6 0 0 1 7-7.87c4.51-.25 4.87 6.76.35 7zM501.42 543.67q-2.48-20.43-6.29-40.63l5.25 1.83c-9.75 5 5.48 31.7 8.32 38.81 1.68 4.21-5 6.39-6.67 2.21-4.06-10.17-10.27-21.14-12.11-32-1-6.09.95-12 6.62-14.92 1.75-.89 4.79-.63 5.25 1.83q4 21.13 6.64 42.48c.55 4.49-6.47 4.83-7 .36z"/><path class="cls-2" d="M449.92 355.26c120.5-18 160.78-75.95 150.36-111.57-10.91-37.28-52.73-80.33-146.39-59.77C321 213.08 300.15 263.75 304.61 296.05c5.75 41.62 32.08 73.18 94.13 68.63 5.76-.42 24.05 43.23 26.26 59.54 5.39-6.14 24.66-55.67 24.92-68.96z"/><circle cx="395.88" cy="292.28" r="43.41" transform="rotate(-14.02 395.871 292.258)" fill="#ff6d15"/><path d="M402.13 249.28a43.41 43.41 0 0 1-30.65 78.87 43.41 43.41 0 1 0 30.65-78.87z" fill="#ff6412"/><path d="M363.22 311.28a40.3 40.3 0 0 1 56.7-51.07 40.3 40.3 0 1 0-43.85 67.42 40.21 40.21 0 0 1-12.85-16.35z" fill="#ff8249"/><ellipse class="cls-28" cx="378" cy="291.16" rx="3.2" ry="5.39" transform="rotate(-23.24 377.961 291.137)"/><path class="cls-28" d="M410.33 277.28c1.17 2.74.81 5.52-.82 6.22s-3.89-1-5.06-3.69-.81-5.52.81-6.22 3.89.96 5.07 3.69z"/><path class="cls-35" d="M419.84 303a1.43 1.43 0 0 0 1.52-2.35 21.75 21.75 0 0 0-37.12 15.51 1.43 1.43 0 0 0 2.74.54c3.41-8.19 12.34-21.56 32.86-13.7z"/><path class="cls-28" transform="rotate(-68.24 376.165 280.08)" d="M374.12 273.21h4.12v13.73h-4.12z"/><path class="cls-28" transform="rotate(21.76 400.636 269.645)" d="M398.54 262.73h4.12v13.73h-4.12z"/><circle cx="498.68" cy="257.26" r="41.99" transform="rotate(-45 498.68 257.26)" fill="#76b7eb"/><path d="M504.72 215.66A42 42 0 0 1 475.07 292a42 42 0 1 0 29.65-76.3z" fill="#4aaae2"/><path d="M467.08 275.65a39 39 0 0 1 54.85-49.41 39 39 0 1 0-42.42 65.22 39 39 0 0 1-12.43-15.81z" fill="#8cc9f3"/><path class="cls-28" d="M479.42 269.83a1.76 1.76 0 0 1-1.56-.08 1.78 1.78 0 0 1-.7-2.42l3.7-6.72-7.2-.92a1.78 1.78 0 0 1 .44-3.53l9.81 1.25a1.77 1.77 0 0 1 1.33 2.62l-5 9a1.8 1.8 0 0 1-.82.8zM521.05 252a1.83 1.83 0 0 1-1.16.09l-10-2.61a1.75 1.75 0 0 1-1.22-1.13 1.78 1.78 0 0 1 .24-1.65l5.85-8a1.78 1.78 0 1 1 2.87 2.11l-4.3 5.85 7.43 1.95a1.77 1.77 0 0 1 1.27 2.17 1.81 1.81 0 0 1-.98 1.22z"/><path class="cls-39" d="M463.67 255.4l1.29-.83c.93-.59 1.8-1.15 2.63-1.76a25.42 25.42 0 0 0 3.3-2.77 22.91 22.91 0 0 0 2.75-3.27 34.68 34.68 0 0 0 2.35-4 .2.2 0 0 1 .38 0A9 9 0 0 1 476 248a11.85 11.85 0 0 1-2.82 4.4 12.38 12.38 0 0 1-4.2 2.73l-.19.07a10.41 10.41 0 0 1-5.06.62.21.21 0 0 1-.08-.38zM521.44 230.6l-1.5.36c-1.06.26-2.07.51-3.08.7a27.49 27.49 0 0 1-4.28.48 23.28 23.28 0 0 1-4.27-.26 34.58 34.58 0 0 1-4.52-1 .2.2 0 0 0-.22.3 8.85 8.85 0 0 0 4 3.28 11.65 11.65 0 0 0 5.14 1 12.39 12.39 0 0 0 4.87-1.16l.18-.09a10.26 10.26 0 0 0 3.93-3.24.23.23 0 0 0 0-.24.21.21 0 0 0-.25-.13z"/><path class="cls-35" d="M514.68 257.85a1.77 1.77 0 0 1 1.49.06l8 4.25a1.72 1.72 0 1 1-1.61 3l-5.93-3.14-1.94 10.5a1.72 1.72 0 0 1-1 1.27 1.73 1.73 0 0 1-1.62-.13l-8.76-5.7-1.91 10.28a1.72 1.72 0 0 1-1 1.27 1.76 1.76 0 0 1-1.62-.14l-9-5.83-1.8 6.47a1.72 1.72 0 0 1-3.32-.93l2.43-8.73a1.73 1.73 0 0 1 2.61-1l8.75 5.7 1.91-10.28a1.72 1.72 0 0 1 2.64-1.07l8.76 5.7 1.9-10.28a1.72 1.72 0 0 1 1-1.24z"/></svg>